<svg width="16" height="16" viewBox="0 0 16 16" fill="none" xmlns="http://www.w3.org/2000/svg">
<path fill-rule="evenodd" clip-rule="evenodd" d="M7.99995 9.41391L13.6569 15.0709C13.8455 15.2531 14.0982 15.3539 14.3603 15.3516C14.6225 15.3493 14.8734 15.2441 15.0588 15.0587C15.2442 14.8733 15.3493 14.6225 15.3516 14.3603C15.3539 14.0981 15.2531 13.8455 15.0709 13.6569L9.41395 7.99991L15.0709 2.34291C15.2531 2.1543 15.3539 1.9017 15.3516 1.6395C15.3493 1.37731 15.2442 1.1265 15.0588 0.941087C14.8734 0.755679 14.6225 0.65051 14.3603 0.648231C14.0982 0.645953 13.8455 0.746747 13.6569 0.928905L7.99995 6.58591L2.34295 0.928905C2.15349 0.75125 1.90236 0.654271 1.64268 0.658487C1.38299 0.662704 1.13514 0.767787 0.951555 0.951499C0.767972 1.13521 0.663065 1.38314 0.659032 1.64283C0.654999 1.90251 0.752156 2.15358 0.929945 2.34291L6.58595 7.99991L0.928945 13.6569C0.833435 13.7492 0.757253 13.8595 0.704844 13.9815C0.652435 14.1035 0.624849 14.2347 0.623695 14.3675C0.622541 14.5003 0.647843 14.632 0.698124 14.7549C0.748404 14.8778 0.822658 14.9894 0.91655 15.0833C1.01044 15.1772 1.1221 15.2514 1.24499 15.3017C1.36789 15.352 1.49957 15.3773 1.63235 15.3762C1.76513 15.375 1.89635 15.3474 2.01835 15.295C2.14035 15.2426 2.2507 15.1664 2.34295 15.0709L7.99995 9.41391Z" fill="black"/>
</svg>
