<svg width="9" height="9" viewBox="0 0 9 9" fill="none" xmlns="http://www.w3.org/2000/svg">
<path d="M1.38889 7.55703H2.02222L6.36666 3.21259L5.73333 2.57926L1.38889 6.9237V7.55703ZM0.5 8.44592V6.55703L6.36666 0.701478C6.45555 0.619997 6.55378 0.557034 6.66133 0.51259C6.76889 0.468145 6.88178 0.445923 7 0.445923C7.11822 0.445923 7.23303 0.468145 7.34444 0.51259C7.45585 0.557034 7.55215 0.623701 7.63333 0.712589L8.24444 1.33481C8.33333 1.41629 8.39822 1.51259 8.43911 1.6237C8.48 1.73481 8.50029 1.84592 8.5 1.95703C8.5 2.07555 8.4797 2.18859 8.43911 2.29615C8.39852 2.4037 8.33363 2.50177 8.24444 2.59037L2.38889 8.44592H0.5ZM6.04444 2.90148L5.73333 2.57926L6.36666 3.21259L6.04444 2.90148Z" fill="black"/>
</svg>
