<svg width="25" height="24" viewBox="0 0 25 24" fill="none" xmlns="http://www.w3.org/2000/svg">
<path d="M19.2874 3.0727C19.4581 3.08198 19.5546 3.18714 19.643 3.29229C19.7315 3.39745 19.8088 3.416 19.8905 3.29229C19.9053 3.27464 19.9217 3.25829 19.9393 3.24342C20.1441 3.04239 20.3104 3.01827 20.4601 3.16672C20.6098 3.31518 20.5956 3.50198 20.3871 3.68259C20.2195 3.82734 20.2455 3.91394 20.3952 4.04816C20.5937 4.2263 20.6049 4.42857 20.457 4.56713C20.3179 4.69641 20.1205 4.67908 19.9542 4.48795C19.815 4.32775 19.7247 4.32651 19.583 4.48795C19.4092 4.68713 19.2008 4.69888 19.0641 4.5529C18.9274 4.40692 18.9404 4.21146 19.1408 4.05373C19.3585 3.88362 19.2645 3.78218 19.1148 3.65476C18.9948 3.55146 18.9366 3.42218 19.0078 3.26383C19.0315 3.20878 19.0704 3.16159 19.1199 3.12775C19.1694 3.09392 19.2274 3.07483 19.2874 3.0727Z" fill="white"/>
<path d="M6.0218 18.5531C6.02288 18.6159 6.00513 18.6777 5.97081 18.7304C5.9365 18.7831 5.8872 18.8243 5.82927 18.8487C5.77133 18.8731 5.70742 18.8796 5.64575 18.8674C5.58408 18.8551 5.52749 18.8247 5.48326 18.78C5.43903 18.7354 5.40918 18.6785 5.39757 18.6167C5.38596 18.5549 5.39311 18.4911 5.41811 18.4334C5.44311 18.3757 5.4848 18.3268 5.53783 18.293C5.59085 18.2592 5.65277 18.2421 5.71562 18.2438C5.79641 18.2468 5.87303 18.2804 5.92991 18.3378C5.98679 18.3953 6.01965 18.4723 6.0218 18.5531Z" fill="white"/>
<path d="M21.1952 5.92337C21.2359 5.92402 21.2759 5.93267 21.3132 5.94881C21.3505 5.96496 21.3842 5.98829 21.4125 6.01746C21.4407 6.04664 21.463 6.0811 21.4779 6.11887C21.4929 6.15664 21.5002 6.19699 21.4996 6.2376C21.4989 6.27822 21.4903 6.31831 21.4741 6.35558C21.458 6.39286 21.4347 6.42659 21.4055 6.45485C21.3763 6.4831 21.3418 6.50534 21.3041 6.52028C21.2663 6.53522 21.226 6.54258 21.1853 6.54193C21.1447 6.54128 21.1046 6.53264 21.0674 6.5165C21.0301 6.50035 20.9964 6.47702 20.9681 6.44785C20.9398 6.41867 20.9176 6.38421 20.9027 6.34644C20.8877 6.30867 20.8804 6.26832 20.881 6.22771C20.8817 6.18709 20.8903 6.147 20.9064 6.10973C20.9226 6.07245 20.9459 6.03872 20.9751 6.01046C21.0043 5.9822 21.0387 5.95997 21.0765 5.94503C21.1143 5.93009 21.1546 5.92272 21.1952 5.92337Z" fill="white"/>
<path d="M20.5587 12.4111C20.5587 11.1239 20.5587 9.83605 20.5618 8.54823C20.5684 8.46011 20.5483 8.37205 20.5042 8.2955C20.46 8.21894 20.3939 8.15743 20.3144 8.11895C18.1626 6.89381 16.0121 5.66556 13.8628 4.43423C13.7861 4.38424 13.6965 4.35763 13.6049 4.35763C13.5133 4.35763 13.4237 4.38424 13.347 4.43423C11.1148 5.6569 8.87979 6.87504 6.64186 8.08864C6.42475 8.20616 6.33258 8.34534 6.33258 8.59586C6.34042 11.1253 6.34042 13.6546 6.33258 16.1836C6.33258 16.4465 6.4297 16.5876 6.65176 16.7082C8.88226 17.9172 11.1091 19.1321 13.3321 20.3527C13.5332 20.4634 13.6946 20.4504 13.8888 20.3391C16.0167 19.1168 18.1469 17.9003 20.2797 16.6896C20.4789 16.5764 20.5562 16.436 20.555 16.2078C20.5525 14.9404 20.5587 13.676 20.5587 12.4111ZM14.8569 5.73072C16.4395 6.63215 18.0224 7.5338 19.6055 8.43565C19.7484 8.51668 19.7824 8.56554 19.6742 8.71647C19.1608 9.42781 18.6622 10.1497 18.1581 10.8678C18.1234 10.9173 18.0851 10.9643 18.0393 11.0237L14.6311 5.66824C14.7412 5.62556 14.7944 5.69855 14.8569 5.73381V5.73072ZM13.5245 5.25443C13.545 5.23771 13.5677 5.22377 13.5919 5.21299L17.1239 10.7626C17.062 10.8146 17.0193 10.7626 16.9748 10.7435C15.1303 9.86265 13.2857 8.98101 11.4412 8.09854C11.3614 8.06019 11.2309 8.04967 11.3546 7.9006C12.0783 7.02411 12.8014 6.13958 13.5245 5.25753V5.25443ZM17.1239 11.5445L9.05731 13.9649L10.8919 8.71214C10.9235 8.62369 10.9402 8.55194 11.0775 8.6175C13.0758 9.58162 15.0758 10.5418 17.0775 11.4981C17.0941 11.5135 17.1096 11.53 17.1239 11.5476V11.5445ZM8.29154 7.92039L12.2194 5.76598C12.1897 5.92185 12.1179 5.97072 12.0697 6.03072C11.6237 6.58061 11.1728 7.12618 10.7286 7.67793C10.693 7.72671 10.6465 7.76652 10.5928 7.79422C10.5392 7.82192 10.4798 7.83674 10.4194 7.83751C9.78968 7.87524 9.16061 7.92473 8.53154 7.9705C8.41773 8.01875 8.29897 8.0039 8.16041 8.01565C8.17153 7.98961 8.18969 7.96719 8.21286 7.95091C8.23602 7.93462 8.26328 7.92513 8.29154 7.92349V7.92039ZM7.29258 8.70286C8.28226 8.64101 9.27195 8.55813 10.3055 8.48019C9.72844 10.1305 9.16061 11.7517 8.56865 13.4422C8.41092 12.9412 8.27484 12.5057 8.13567 12.0709C7.80412 11.0231 7.47443 9.97399 7.13546 8.92802C7.08165 8.76101 7.10701 8.71833 7.29258 8.70596V8.70286ZM6.9833 10.6544C7.06866 10.6952 7.06248 10.7738 7.08103 10.8325C7.43608 11.9459 7.78495 13.0593 8.14061 14.1727C8.18267 14.3032 8.17402 14.3911 8.06763 14.4931C7.7132 14.8333 7.37175 15.1865 6.9833 15.5768V10.6544ZM11.9998 18.8923L7.21278 16.2826C7.20165 16.2164 7.25732 16.1923 7.29072 16.1589C7.67113 15.776 8.05525 15.3968 8.43319 15.0121C8.51174 14.9317 8.5569 14.9138 8.64041 15.0121C9.74185 16.2591 10.8466 17.5038 11.9546 18.7463C11.978 18.7623 11.9951 18.7858 12.0032 18.813C12.0114 18.8401 12.0099 18.8692 11.9991 18.8954L11.9998 18.8923ZM13.5406 19.5783L9.12041 14.6063L17.409 12.1204L13.5406 19.5783ZM19.6902 16.2999C17.9911 17.2618 16.2975 18.2341 14.6014 19.2022C14.56 19.2257 14.5173 19.2789 14.4369 19.2232C15.622 16.937 16.808 14.6494 17.9948 12.3604C18.0764 12.3746 18.0752 12.4402 18.0944 12.4804C18.6486 13.663 19.2018 14.8461 19.7539 16.0296C19.8065 16.1478 19.8405 16.2177 19.6896 16.3036L19.6902 16.2999ZM19.9049 14.8637C19.6692 14.3571 19.4608 13.908 19.2517 13.4595C18.9919 12.9028 18.7327 12.3461 18.4698 11.7894C18.4247 11.6942 18.4005 11.6193 18.4698 11.5185C18.9424 10.8542 19.4082 10.1849 19.9024 9.47729L19.9049 14.8637Z" fill="white"/>
<path d="M4.45699 15.3986C4.33295 15.397 4.2098 15.4198 4.09458 15.4658C3.97937 15.5118 3.87433 15.58 3.78547 15.6665C3.69662 15.7531 3.62568 15.8563 3.57671 15.9703C3.52774 16.0843 3.50171 16.2068 3.50008 16.3308C3.49846 16.4548 3.52128 16.578 3.56724 16.6932C3.61321 16.8084 3.68142 16.9134 3.76798 17.0023C3.85454 17.0912 3.95775 17.1621 4.07173 17.2111C4.1857 17.26 4.30821 17.2861 4.43224 17.2877C4.68275 17.291 4.9243 17.1946 5.10375 17.0198C5.2832 16.845 5.38586 16.606 5.38914 16.3555C5.39242 16.105 5.29606 15.8635 5.12125 15.684C4.94643 15.5046 4.70749 15.4019 4.45699 15.3986ZM4.44337 16.6605C4.38015 16.6602 4.31846 16.641 4.26621 16.6054C4.21396 16.5698 4.17353 16.5194 4.15011 16.4607C4.12669 16.402 4.12135 16.3376 4.13477 16.2758C4.14819 16.214 4.17975 16.1577 4.22542 16.1139C4.27109 16.0702 4.32878 16.0411 4.39109 16.0304C4.4534 16.0197 4.51749 16.0279 4.57514 16.0538C4.63279 16.0798 4.68137 16.1224 4.71465 16.1761C4.74793 16.2299 4.76439 16.2924 4.76193 16.3555C4.75655 16.437 4.72088 16.5136 4.66194 16.5701C4.60299 16.6267 4.52503 16.6585 4.44337 16.6605Z" fill="white"/>
</svg>
