<svg width="128" height="18" viewBox="0 0 128 18" fill="none" xmlns="http://www.w3.org/2000/svg">
<g clip-path="url(#clip0_587_24123)">
<path d="M68.5173 18C67.9517 17.996 67.3924 17.8856 66.8706 17.6749C65.4014 17.0838 63.9567 15.4818 64.7219 12.9459C65.0517 11.9383 65.6515 11.0328 66.4604 10.3212L65.7075 9.90745C60.645 7.09366 55.4112 4.1853 49.3876 3.57052C45.7943 3.19811 40.3462 3.78333 38.1854 6.59712C39.1609 7.11675 39.9989 7.84708 40.6339 8.7311C40.8959 9.12729 41.055 9.57867 41.0976 10.0469C41.1402 10.5152 41.0652 10.9865 40.8788 11.4207C40.7279 11.7013 40.5005 11.9367 40.221 12.1013C39.9415 12.266 39.6207 12.3536 39.2933 12.3547C38.9189 12.3741 38.5452 12.3038 38.2056 12.1501C37.866 11.9964 37.571 11.7642 37.3467 11.474C36.9622 10.9457 36.6952 10.3463 36.5624 9.71349C36.4297 9.08067 36.4341 8.42815 36.5754 7.79707C36.6643 7.50796 36.7748 7.22549 36.906 6.95179L36.5448 6.804C32.676 5.27297 28.2747 7.02858 25.0609 8.30543C20.9009 10.0292 16.4321 10.951 11.9059 11.0188H11.8691C9.74498 11.0188 2.61347 10.6581 0.0669349 6.17145C0.0379951 6.12022 0.0197902 6.06402 0.0133571 6.00599C0.00692399 5.94796 0.0123887 5.88923 0.0294417 5.83324C0.0464946 5.77725 0.0747985 5.72511 0.112741 5.67968C0.150684 5.63426 0.197515 5.5965 0.250572 5.56856C0.303628 5.54061 0.36188 5.52303 0.421972 5.51682C0.482065 5.5106 0.542828 5.51586 0.600808 5.53233C0.658788 5.5488 0.712838 5.57615 0.759879 5.61279C0.806919 5.64943 0.846034 5.69462 0.874974 5.74585C2.71142 8.96753 7.75551 10.1262 11.8936 10.1321H11.9304C16.3372 10.0652 20.6877 9.16548 24.7365 7.48382C28.0972 6.14786 32.6944 4.32124 36.9182 5.98232L37.3896 6.18328C39.8382 2.73107 46.1616 2.3409 49.5223 2.68967C55.7356 3.32809 61.2939 6.41383 66.2033 9.13895L66.9685 9.56455L67.2318 9.71233C69.2689 8.28419 71.6377 7.36067 74.1306 7.02272C76.3466 6.70351 80.0011 7.02269 80.9622 9.20988C81.1557 9.64038 81.2457 10.1076 81.2255 10.5764C81.2054 11.0453 81.0756 11.5038 80.8459 11.9173C80.5082 12.476 80.0474 12.9561 79.4963 13.3239C78.9452 13.6916 78.3172 13.9379 77.6566 14.0454C74.7856 14.5951 72.1473 13.3774 69.9129 12.1951C69.0498 11.734 68.1806 11.2611 67.3297 10.7882C66.5461 11.4232 65.9611 12.2562 65.6401 13.1941C64.8933 15.671 66.6931 16.6168 67.2624 16.8473C68.4866 17.3439 69.7966 17.1133 70.2557 16.3212C70.3164 16.2211 70.4152 16.148 70.5311 16.1174C70.6469 16.0869 70.7706 16.1014 70.8755 16.1579C70.9804 16.2143 71.0582 16.3082 71.0922 16.4194C71.1263 16.5306 71.1139 16.6503 71.0577 16.7527C70.7903 17.1627 70.4129 17.4952 69.9656 17.7148C69.5183 17.9344 69.0179 18.0329 68.5173 18ZM68.0704 10.203C68.8111 10.6109 69.564 11.0247 70.317 11.4207C72.4166 12.532 74.8713 13.6729 77.4424 13.1941C77.9697 13.1108 78.4718 12.9175 78.9137 12.6276C79.3556 12.3376 79.7267 11.958 80.0011 11.5153C80.1675 11.2197 80.2613 10.891 80.2751 10.5548C80.2889 10.2186 80.2224 9.88381 80.0807 9.57638C79.3706 7.95668 76.2303 7.63159 74.2286 7.91534C72.0228 8.21715 69.917 8.99943 68.0704 10.203ZM37.714 7.36555C37.6043 7.58634 37.5141 7.81576 37.4446 8.05128C37.3456 8.54548 37.3486 9.05368 37.4537 9.54672C37.5587 10.0398 37.7637 10.5079 38.0568 10.9242C38.1897 11.1046 38.3677 11.2497 38.5743 11.3458C38.7809 11.4419 39.0093 11.486 39.2382 11.474C39.4047 11.4804 39.5698 11.4417 39.7147 11.3623C39.8597 11.2829 39.9788 11.166 40.0585 11.0247C40.1636 10.7335 40.2005 10.4234 40.1667 10.1168C40.1328 9.81015 40.029 9.51455 39.8626 9.2513C39.3084 8.46959 38.5726 7.82379 37.714 7.36555Z" fill="url(#paint0_linear_587_24123)"/>
<path d="M59.4819 18C58.9879 18.027 58.4954 17.9262 58.0553 17.708C57.6152 17.4898 57.2434 17.162 56.9783 16.7586C56.922 16.6561 56.9096 16.5365 56.9437 16.4253C56.9777 16.3141 57.0555 16.2202 57.1604 16.1637C57.2653 16.1073 57.389 16.0928 57.5048 16.1233C57.6207 16.1538 57.7195 16.227 57.7802 16.3271C58.2393 17.1133 59.5554 17.3498 60.7735 16.8532C61.3428 16.6227 63.1426 15.6709 62.3957 13.2C62.0748 12.2621 61.4898 11.4291 60.7062 10.7941C59.8553 11.267 58.9861 11.7399 58.123 12.201C55.8825 13.3833 53.2258 14.601 50.3793 14.0512C49.7187 13.9438 49.0907 13.6974 48.5396 13.3297C47.9884 12.962 47.5277 12.4818 47.19 11.9232C46.9603 11.5096 46.8305 11.0512 46.8104 10.5823C46.7902 10.1134 46.8802 9.64624 47.0737 9.21574C48.0347 7.02855 51.6893 6.70937 53.9053 7.02858C56.3981 7.36653 58.7671 8.29005 60.8042 9.71819L61.0674 9.57041L61.8326 9.14481C66.7298 6.41969 72.3003 3.33395 78.5136 2.69553C81.8743 2.34676 88.1733 2.73693 90.6464 6.18914L91.1177 5.98818C95.3354 4.32118 99.9387 6.15372 103.299 7.48968C107.348 9.17134 111.699 10.071 116.106 10.1379H116.142C120.256 10.1379 125.324 8.95565 127.161 5.75171C127.219 5.64824 127.318 5.57145 127.435 5.53819C127.552 5.50493 127.678 5.5179 127.785 5.57434C127.892 5.63078 127.972 5.72602 128.006 5.8391C128.041 5.95217 128.027 6.07384 127.969 6.17731C125.422 10.664 118.291 11.0187 116.167 11.0246C111.628 10.9653 107.145 10.0432 102.975 8.31129C99.7612 7.03444 95.3599 5.28474 91.4911 6.80986L91.1299 6.95765C91.2611 7.23135 91.3716 7.51382 91.4605 7.80293C91.6018 8.43401 91.6062 9.08653 91.4734 9.71934C91.3407 10.3522 91.0737 10.9516 90.6892 11.4798C90.4634 11.7685 90.1681 11.9997 89.8289 12.1532C89.4897 12.3066 89.1167 12.3779 88.7425 12.3606C88.4152 12.3595 88.0944 12.2718 87.8149 12.1072C87.5354 11.9425 87.3079 11.7072 87.1571 11.4266C86.9707 10.9923 86.8956 10.5211 86.9383 10.0528C86.9809 9.58453 87.14 9.13315 87.4019 8.73696C88.037 7.85293 88.875 7.12261 89.8505 6.60298C87.6897 3.78919 82.2477 3.2039 78.6482 3.57631C72.6247 4.16744 67.3909 7.12316 62.3284 9.91331L61.5754 10.3271C62.3833 11.0396 62.9828 11.9448 63.314 12.9517C64.0791 15.4818 62.6345 17.0897 61.1653 17.6808C60.6317 17.894 60.0594 18.0025 59.4819 18ZM52.3688 7.80884C50.5323 7.80884 48.4571 8.28175 47.894 9.58224C47.7523 9.88966 47.6858 10.2244 47.6996 10.5607C47.7134 10.8969 47.8071 11.2255 47.9736 11.5212C48.2479 11.9639 48.6191 12.3435 49.061 12.6334C49.5029 12.9234 50.005 13.1167 50.5323 13.2C53.1033 13.6906 55.5581 12.5497 57.6577 11.4266C58.4107 11.0305 59.1636 10.6168 59.9043 10.2089C58.0588 9.00111 55.9529 8.21474 53.7461 7.90936C53.2901 7.84392 52.8298 7.81031 52.3688 7.80884ZM90.2607 7.36549C89.4076 7.81606 88.6743 8.45141 88.1182 9.22166C87.9519 9.48491 87.848 9.7805 87.8142 10.0871C87.7803 10.3938 87.8172 10.7038 87.9223 10.9951C88.0021 11.1363 88.1211 11.2533 88.2661 11.3327C88.411 11.4121 88.576 11.4507 88.7425 11.4443C88.9714 11.4553 89.1994 11.4107 89.4058 11.3147C89.6122 11.2186 89.7903 11.0742 89.924 10.8945C90.2171 10.4783 90.422 10.0102 90.5271 9.51715C90.6321 9.02411 90.6352 8.51584 90.5361 8.02164C90.471 7.79673 90.3871 7.5773 90.2852 7.36549H90.2607Z" fill="url(#paint1_linear_587_24123)"/>
<path d="M64.0002 6.05909C63.9028 6.05867 63.8082 6.02752 63.7309 5.97041C61.4231 4.35662 53.2142 -0.0118192 46.0459 1.05813C45.9251 1.07517 45.8022 1.04561 45.7037 0.975942C45.6053 0.906273 45.5391 0.802077 45.5195 0.685715C45.5019 0.569745 45.5327 0.451763 45.6049 0.357604C45.6772 0.263446 45.7851 0.200715 45.9051 0.183194C53.1713 -0.904491 61.166 3.18025 64.0002 5.07188C66.8344 3.18025 74.8291 -0.898579 82.0953 0.183194C82.2153 0.200715 82.3232 0.263446 82.3955 0.357604C82.4678 0.451763 82.4985 0.569745 82.4809 0.685715C82.4613 0.802077 82.3951 0.906273 82.2967 0.975942C82.1982 1.04561 82.0753 1.07517 81.9545 1.05813C74.7924 -0.00590785 66.5773 4.35662 64.2695 5.97041C64.1922 6.02752 64.0976 6.05867 64.0002 6.05909Z" fill="url(#paint2_linear_587_24123)"/>
</g>
<defs>
<linearGradient id="paint0_linear_587_24123" x1="40.6195" y1="2.58667" x2="40.6195" y2="18.0062" gradientUnits="userSpaceOnUse">
<stop stop-color="#F1DFC1"/>
<stop offset="0.895" stop-color="#F75471"/>
</linearGradient>
<linearGradient id="paint1_linear_587_24123" x1="87.4164" y1="2.59253" x2="87.4164" y2="18.0043" gradientUnits="userSpaceOnUse">
<stop stop-color="#F1DFC1"/>
<stop offset="0.895" stop-color="#F75471"/>
</linearGradient>
<linearGradient id="paint2_linear_587_24123" x1="64.0002" y1="0.00195312" x2="64.0002" y2="6.05909" gradientUnits="userSpaceOnUse">
<stop stop-color="#F1DFC1"/>
<stop offset="0.895" stop-color="#F75471"/>
</linearGradient>
<clipPath id="clip0_587_24123">
<rect width="128" height="18" fill="white"/>
</clipPath>
</defs>
</svg>
