<svg width="25" height="24" viewBox="0 0 25 24" fill="none" xmlns="http://www.w3.org/2000/svg">
<path d="M22.4395 4.7299C22.2762 4.26327 21.8816 4.00658 21.3132 4.00608C19.6151 4.00608 17.9169 4.00608 16.2185 4.00608C14.5328 4.00608 12.8471 4.01901 11.1615 4.00011C10.3729 3.99115 9.91556 4.54335 9.93114 5.20699C9.95979 6.42829 9.93616 7.65059 9.9432 8.87289C9.9432 9.03656 9.91003 9.0893 9.73161 9.0888C8.04644 9.08084 6.36076 9.08382 4.67508 9.08432C3.94282 9.08432 3.50808 9.51364 3.50758 10.2395C3.50758 12.4284 3.51864 14.6173 3.50004 16.8062C3.49502 17.4335 3.93779 17.9946 4.68615 17.9787C5.28121 17.9658 5.87677 17.9787 6.47183 17.9732C6.59999 17.9732 6.64221 17.9976 6.63618 18.1329C6.61306 18.622 6.60201 19.112 6.59045 19.602C6.58492 19.8229 6.69498 19.9651 6.87943 19.995C7.01161 20.0164 7.12319 19.9661 7.23476 19.9049C8.35419 19.2887 9.47378 18.6725 10.5935 18.0563C10.7061 17.9909 10.8344 17.9565 10.965 17.9568C12.3126 17.9605 13.6598 17.9605 15.0068 17.9568C15.6943 17.9568 16.1421 17.5091 16.1451 16.8241C16.1451 16.3898 16.1451 15.956 16.1451 15.5217C16.1451 14.9695 16.1451 14.4173 16.1451 13.8656C16.1451 13.8128 16.1049 13.7124 16.1989 13.7163C16.4467 13.7288 16.696 13.6541 16.9367 13.8273C17.8022 14.4501 18.6822 15.0521 19.5557 15.6644C19.7064 15.7689 19.8572 15.8137 20.0291 15.7306C20.201 15.6475 20.2271 15.4918 20.2261 15.3212C20.2231 14.8436 20.2317 14.366 20.2211 13.8885C20.2181 13.7362 20.2673 13.7024 20.4111 13.7074C20.7302 13.7173 21.0504 13.7123 21.3695 13.7099C22.0475 13.7054 22.4993 13.2591 22.4998 12.5885C22.4998 10.1012 22.4998 7.61377 22.4998 5.12639C22.5021 4.99183 22.4817 4.85783 22.4395 4.7299ZM15.3998 16.8186C15.3998 17.133 15.2872 17.2439 14.9696 17.2439C13.5724 17.2439 12.1749 17.2439 10.777 17.2439C10.6335 17.242 10.4922 17.2784 10.3679 17.3494C9.42453 17.8733 8.47867 18.3911 7.5333 18.911C7.48003 18.9403 7.42575 18.9682 7.38252 18.9921C7.38252 18.5608 7.37951 18.1389 7.38252 17.7175C7.38554 17.3872 7.25486 17.2464 6.92517 17.2459C6.17933 17.2459 5.43349 17.2459 4.68765 17.2459C4.35896 17.2459 4.24487 17.136 4.24487 16.8121C4.24487 14.6232 4.24487 12.4333 4.24487 10.2424C4.24487 9.93053 4.36348 9.81412 4.6776 9.81363C6.37584 9.81363 8.07408 9.81362 9.77282 9.80964C9.9236 9.80964 9.94421 9.85939 9.9432 9.98972C9.93767 10.8459 9.93968 11.702 9.9432 12.5582C9.9432 13.293 10.3764 13.7188 11.1238 13.7193C12.4903 13.7193 13.8563 13.7218 15.2229 13.7158C15.3737 13.7158 15.4078 13.7536 15.4068 13.8989C15.3968 14.87 15.4003 15.843 15.3998 16.8166V16.8186ZM21.267 12.991C20.8146 12.991 20.3623 12.991 19.9135 12.991C19.612 12.991 19.4803 13.1193 19.4778 13.4218C19.4743 13.8367 19.4778 14.2521 19.4778 14.7123L18.449 13.9954C18.0348 13.7069 17.6177 13.4213 17.2081 13.1263C17.0774 13.0309 16.9181 12.9817 16.7558 12.9865C14.9012 12.9905 13.0467 12.9913 11.1921 12.989C10.7639 12.989 10.6775 12.9025 10.6775 12.4736V5.18062C10.68 4.84034 10.7845 4.73289 11.1248 4.73289H21.2931C21.6484 4.73289 21.752 4.83538 21.752 5.1861V12.5164C21.751 12.888 21.6474 12.9885 21.267 12.989V12.991Z" fill="#313131"/>
<path d="M14.3103 8.94745C14.3119 9.0535 14.2919 9.15881 14.2515 9.25725C14.2111 9.3557 14.1511 9.44533 14.0749 9.52093C13.9988 9.59653 13.908 9.65658 13.8078 9.69763C13.7077 9.73867 13.6002 9.75987 13.4916 9.76C13.2743 9.76 13.066 9.67572 12.9124 9.52569C12.7587 9.37567 12.6724 9.17218 12.6724 8.96001C12.6724 8.74784 12.7587 8.54437 12.9124 8.39434C13.066 8.24431 13.2743 8.16002 13.4916 8.16002C13.7071 8.15849 13.9143 8.24058 14.0678 8.38824C14.2214 8.53589 14.3086 8.73704 14.3103 8.94745Z" fill="#313131"/>
<path d="M15.6208 8.96683C15.6191 8.86079 15.6393 8.7555 15.68 8.65716C15.7208 8.55882 15.7813 8.46943 15.858 8.39424C15.9348 8.31906 16.0262 8.25961 16.1268 8.21939C16.2275 8.17916 16.3354 8.15898 16.4442 8.16004C16.6571 8.16239 16.8607 8.24492 17.0125 8.39033C17.1643 8.53575 17.2525 8.73278 17.2586 8.94014C17.2609 9.15438 17.1762 9.36081 17.0229 9.5144C16.8696 9.668 16.6603 9.75628 16.4405 9.76C16.2244 9.75905 16.0174 9.67537 15.864 9.52699C15.7107 9.3786 15.6233 9.17742 15.6208 8.96683Z" fill="#313131"/>
<path d="M18.2415 8.96683C18.2398 8.86079 18.26 8.7555 18.3007 8.65716C18.3414 8.55882 18.402 8.46943 18.4787 8.39424C18.5554 8.31906 18.6469 8.25961 18.7475 8.21939C18.8482 8.17916 18.9561 8.15898 19.0649 8.16004C19.2778 8.16239 19.4814 8.24492 19.6332 8.39033C19.785 8.53575 19.8732 8.73278 19.8793 8.94014C19.8816 9.15438 19.7968 9.36081 19.6436 9.5144C19.4903 9.668 19.281 9.75628 19.0612 9.76C18.8451 9.75905 18.6381 9.67537 18.4847 9.52699C18.3314 9.3786 18.244 9.17742 18.2415 8.96683Z" fill="#313131"/>
</svg>
