<svg width="25" height="24" viewBox="0 0 25 24" fill="none" xmlns="http://www.w3.org/2000/svg">
<path d="M12.3577 2.21741C12.1932 2.35779 12.1384 2.53938 12.1555 2.75897C12.1689 2.93348 12.1555 3.11121 12.1665 3.28572C12.1676 3.37197 12.2009 3.45424 12.2593 3.51457C12.3176 3.5749 12.3961 3.60838 12.4777 3.60769C12.6543 3.61992 12.7932 3.52204 12.8218 3.33079C12.857 3.05299 12.857 2.77147 12.8218 2.49366C12.8084 2.36487 12.7 2.30692 12.6287 2.21805L12.3577 2.21741Z" fill="white"/>
<path d="M18.0895 4.65307C18.0544 4.6509 18.0192 4.65569 17.9859 4.66714C17.9527 4.67859 17.9221 4.6965 17.8958 4.71981C17.7427 4.87234 17.5857 5.02207 17.4455 5.18638C17.3295 5.32322 17.3492 5.47575 17.4759 5.59856C17.6025 5.72138 17.7523 5.72755 17.8756 5.62044C18.0471 5.46734 18.2072 5.30204 18.3546 5.12582C18.3902 5.0815 18.4104 5.02685 18.4121 4.97011C18.4138 4.91337 18.397 4.85761 18.3642 4.81122C18.338 4.76174 18.2983 4.72065 18.2497 4.69267C18.2011 4.66469 18.1456 4.65096 18.0895 4.65307Z" fill="white"/>
<path d="M7.27133 5.69586C7.4332 5.6998 7.52425 5.63952 7.58383 5.53698C7.61554 5.48982 7.63143 5.43375 7.62921 5.37692C7.62699 5.32009 7.60676 5.26544 7.57146 5.22091C7.42286 5.04512 7.26289 4.8793 7.09259 4.72455C6.97681 4.62144 6.82899 4.63271 6.70871 4.73525C6.58843 4.83779 6.54347 4.97808 6.63339 5.11105C6.77756 5.31714 6.95232 5.49992 7.15161 5.65305C7.18822 5.67528 7.22894 5.68984 7.27133 5.69586Z" fill="white"/>
<path d="M18.1007 16.4767C18.1569 16.4764 18.2119 16.4606 18.2595 16.4309C18.3072 16.4012 18.3456 16.3589 18.3704 16.3087C18.4024 16.2577 18.4166 16.1977 18.411 16.1378C18.4055 16.0779 18.3803 16.0215 18.3395 15.9772C18.1972 15.8147 18.046 15.6601 17.8866 15.5142C17.7619 15.4022 17.6136 15.4117 17.4877 15.522C17.3619 15.6323 17.3304 15.7706 17.4197 15.8977C17.568 16.1001 17.7434 16.2811 17.9411 16.4358C17.9876 16.4683 18.0443 16.4828 18.1007 16.4767Z" fill="white"/>
<path d="M6.58594 16.1588C6.60346 16.2837 6.64756 16.3818 6.75553 16.4376C6.86351 16.4934 6.99522 16.4978 7.0902 16.4108C7.25621 16.2614 7.4129 16.1021 7.55941 15.934C7.66173 15.8147 7.64816 15.673 7.54301 15.5543C7.44634 15.4427 7.30954 15.3936 7.1846 15.4751C6.95807 15.6269 6.7647 15.8221 6.6159 16.0489C6.6001 16.0837 6.58999 16.1208 6.58594 16.1588Z" fill="white"/>
<path d="M19.977 10.9085C20.0687 10.9085 20.161 10.9164 20.2522 10.9085C20.2849 10.9085 20.3172 10.9005 20.3473 10.8849C20.3775 10.8693 20.4048 10.8464 20.4278 10.8176C20.4507 10.7888 20.4688 10.7547 20.481 10.7171C20.4932 10.6796 20.4992 10.6395 20.4987 10.599C20.5091 10.4159 20.4376 10.2804 20.2916 10.2492C20.0861 10.2068 19.8763 10.2068 19.6708 10.2492C19.6384 10.2545 19.6072 10.2676 19.579 10.2879C19.5508 10.3082 19.5261 10.3352 19.5064 10.3674C19.4866 10.3996 19.4723 10.4364 19.4641 10.4755C19.4559 10.5146 19.4541 10.5554 19.4588 10.5954C19.4588 10.6375 19.4657 10.6793 19.479 10.7181C19.4923 10.7569 19.5118 10.7921 19.5362 10.8214C19.5607 10.8508 19.5896 10.8738 19.6214 10.8891C19.6531 10.9043 19.687 10.9116 19.7211 10.9103C19.8064 10.9165 19.8927 10.9103 19.9785 10.9103L19.977 10.9085Z" fill="white"/>
<path d="M5.01929 10.9095C5.11163 10.9095 5.20397 10.9175 5.29533 10.9095C5.36097 10.9075 5.4234 10.874 5.46947 10.8162C5.51553 10.7583 5.54162 10.6807 5.54224 10.5995C5.55359 10.4311 5.48693 10.2944 5.35014 10.2584C5.13345 10.2038 4.91007 10.2038 4.69337 10.2584C4.54523 10.2944 4.48597 10.4414 4.50276 10.6196C4.50587 10.6967 4.53244 10.7694 4.57715 10.8231C4.62185 10.8769 4.68137 10.9078 4.74374 10.9095C4.8351 10.9175 4.92744 10.9095 5.01929 10.9095Z" fill="white"/>
<path d="M6.606 8.40968C6.74396 7.99729 6.93538 7.60434 7.17547 7.2407C7.27696 7.08456 7.43839 7.04708 7.58246 7.13244C7.72654 7.2178 7.76019 7.3781 7.67711 7.53997C7.65345 7.58577 7.62453 7.62897 7.59824 7.67425C6.89889 8.89476 6.67436 10.1944 6.94148 11.5747C7.15444 12.6822 7.69394 13.6191 8.46375 14.4409C9.08634 15.1066 9.43233 15.9081 9.55432 16.807C9.61427 17.2467 9.58062 17.6881 9.59008 18.1284C9.59954 18.5854 9.92714 18.9055 10.3825 18.9279C10.5529 18.9367 10.5823 18.8826 10.5813 18.7254C10.5755 17.1224 10.5781 15.5193 10.5771 13.9163C10.5771 13.7299 10.5844 13.5322 10.7348 13.4145C10.9026 13.2844 10.8878 13.1283 10.901 12.9534C10.9362 12.5679 10.8926 12.1793 10.7729 11.8108C10.6532 11.4424 10.4598 11.1015 10.2042 10.8085C9.99392 10.5603 9.98393 10.4255 10.1417 10.1392C10.6847 9.15466 11.3156 8.22017 12.0268 7.34688C12.306 7.00337 12.6888 7.0018 12.9733 7.34688C13.6969 8.21923 14.331 9.16072 14.8662 10.1574C15.0166 10.4374 14.9961 10.5847 14.769 10.8189C14.5141 11.0815 14.3222 11.3974 14.2074 11.7433C14.0454 12.2237 14.1127 12.7202 14.098 13.2105C14.098 13.2625 14.1296 13.2912 14.1674 13.3193C14.3636 13.4655 14.4219 13.668 14.4209 13.9012C14.4172 14.5502 14.4209 15.1992 14.4209 15.8482C14.4209 16.4973 14.4209 17.1593 14.4209 17.8146C14.4233 17.8666 14.4222 17.9188 14.4177 17.9707C14.4126 18.0461 14.3782 18.1166 14.3217 18.1674C14.2653 18.2183 14.1911 18.2455 14.1148 18.2435C13.9539 18.2393 13.8446 18.1284 13.8325 17.9546C13.8288 17.9025 13.8325 17.8505 13.8325 17.7985C13.8325 16.974 13.8277 16.1501 13.8367 15.3257C13.8367 15.1696 13.7909 15.1342 13.64 15.1357C12.8797 15.143 12.1191 15.143 11.3584 15.1357C11.2217 15.1357 11.1665 15.1539 11.1676 15.3111C11.1749 16.46 11.1749 17.6088 11.1676 18.7577C11.1676 18.8956 11.2054 18.9284 11.3416 18.9279C12.4169 18.9221 13.4928 18.9279 14.5681 18.9242C15.0571 18.9242 15.3821 18.6119 15.4005 18.1289C15.4073 17.9473 15.4079 17.7646 15.4047 17.5835C15.3831 16.3047 15.8227 15.2101 16.6888 14.2582C17.8982 12.9315 18.3872 11.3618 18.0838 9.6C17.7157 7.48012 16.4858 5.9874 14.4556 5.24365C12.3922 4.48689 10.4772 4.87933 8.77662 6.26794C8.64043 6.3788 8.52002 6.50892 8.38961 6.62707C8.24606 6.75666 8.09252 6.76135 7.96895 6.64528C7.84538 6.52922 7.84801 6.35694 7.97841 6.21225C8.0005 6.18778 8.02416 6.16541 8.0473 6.14251C9.85404 4.33647 12.5321 3.81132 14.9393 4.78928C17.6 5.87186 19.1986 8.81096 18.6548 11.6007C18.4269 12.7916 17.8596 13.8932 17.02 14.7756C16.5242 15.3064 16.2197 15.9357 16.0736 16.6441C15.9731 17.1265 16.0031 17.6132 15.9921 18.0988C15.9773 18.7546 15.6371 19.2344 15.024 19.4374C14.913 19.4744 14.8931 19.5269 14.8946 19.63C14.901 20.0984 14.9015 20.5642 14.9004 21.0316C14.9004 21.8316 14.3367 22.3848 13.527 22.3895C12.8518 22.3916 12.1765 22.3916 11.5009 22.3895C10.6696 22.3895 10.1107 21.8352 10.1054 21.0098C10.1054 20.5413 10.1054 20.0729 10.1017 19.6081C10.1017 19.5379 10.1049 19.4869 10.0092 19.452C9.30087 19.1949 9.0022 18.7551 9.0022 18.0051C9.0022 17.6486 9.02323 17.2915 8.98064 16.9355C8.87548 16.0325 8.44798 15.296 7.85064 14.6142C6.24633 12.7894 5.85669 10.7044 6.606 8.40968ZM14.2442 10.5238C14.3183 10.4416 14.3257 10.3875 14.2731 10.2927C13.8483 9.52662 13.3641 8.7942 12.825 8.10208C12.7756 8.18067 12.795 8.24625 12.795 8.31027C12.795 9.01082 12.795 9.71137 12.795 10.4119C12.795 10.464 12.795 10.516 12.795 10.5681C12.7792 10.7534 12.663 10.8689 12.4984 10.8668C12.3339 10.8647 12.2134 10.7471 12.2103 10.5608C12.2029 10.1262 12.2071 9.69159 12.2066 9.257V8.15308C12.1414 8.13279 12.1304 8.18067 12.1099 8.20513C11.602 8.87271 11.1404 9.57347 10.728 10.3026C10.6707 10.4067 10.6812 10.4666 10.7522 10.5545C11.0651 10.9389 11.289 11.3867 11.4079 11.8661C11.4336 11.9702 11.4662 12.0275 11.5977 12.0254C12.194 12.0165 12.7908 12.0197 13.3855 12.0254C13.4907 12.0254 13.5433 12.0066 13.568 11.8854C13.6614 11.3782 13.8955 10.9068 14.2442 10.5238ZM11.4862 12.7655C11.4862 13.1991 11.482 13.199 11.9221 13.199H12.5116C12.8003 13.199 13.09 13.1954 13.3766 13.2016C13.4817 13.2016 13.507 13.1709 13.5101 13.07C13.5249 12.6015 13.5285 12.6015 13.0648 12.6015C12.601 12.6015 12.1214 12.6062 11.6498 12.5979C11.5162 12.5979 11.4862 12.6401 11.4862 12.7655ZM11.2017 14.5111C11.3069 14.6418 11.5814 14.5502 11.7802 14.5523C12.408 14.5575 13.0358 14.5523 13.6637 14.5564C13.7883 14.5564 13.8404 14.5299 13.8304 14.3966C13.8206 14.2351 13.8206 14.0731 13.8304 13.9116C13.8356 13.8075 13.7962 13.7804 13.6958 13.7815C13.2967 13.7861 12.8981 13.7815 12.499 13.7815C12.0999 13.7815 11.7139 13.7851 11.3216 13.7815C11.2065 13.7815 11.156 13.8028 11.1639 13.9293C11.1797 14.1276 11.1013 14.3878 11.2033 14.5111H11.2017ZM10.6933 21.0483C10.6985 21.5026 11.003 21.805 11.4589 21.8066C12.153 21.8097 12.8474 21.8097 13.5422 21.8066C14.0339 21.8066 14.3494 21.4423 14.311 20.953C14.3005 20.8203 14.22 20.8515 14.149 20.8515C13.3305 20.8515 12.5116 20.8515 11.6923 20.8515C11.3874 20.8515 11.247 20.7625 11.2428 20.5668C11.2386 20.3711 11.3868 20.2676 11.7002 20.2676C12.5063 20.2676 13.3119 20.2676 14.119 20.2702C14.2526 20.2702 14.3294 20.2577 14.3083 20.0968C14.2836 19.9064 14.3877 19.6487 14.2647 19.5399C14.1595 19.4452 13.9035 19.5108 13.7147 19.5098C13.3082 19.5098 12.9023 19.5098 12.4958 19.5098C11.9453 19.5098 11.3947 19.5144 10.8447 19.5066C10.7117 19.5066 10.687 19.5457 10.687 19.6685C10.6943 20.125 10.688 20.5877 10.6933 21.0483Z" fill="white"/>
</svg>
