<svg width="25" height="24" viewBox="0 0 25 24" fill="none" xmlns="http://www.w3.org/2000/svg">
<g clip-path="url(#clip0_2145_7155)">
<path d="M21.8377 17.4078C21.4278 16.3599 21.0186 15.3115 20.61 14.2626C20.5701 14.1573 20.508 14.0619 20.4279 13.9828C19.969 13.53 19.5172 13.0656 19.0528 12.6163C18.9421 12.5086 18.9551 12.4522 19.0583 12.3571C19.2359 12.1976 19.4039 12.0278 19.5614 11.8485C19.9172 11.4329 20.0062 10.9554 19.8165 10.4437C19.6269 9.93195 19.2545 9.63862 18.7207 9.55962C18.5883 9.54 18.5929 9.49774 18.62 9.39459C18.8616 8.48489 18.21 7.62953 17.2736 7.63859C17.1146 7.63859 17.1 7.5923 17.1015 7.45544C17.1071 6.77669 16.6356 6.21719 15.9674 6.08234C15.7068 6.03203 15.4572 6.07077 15.2021 6.14524C15.1956 6.11454 15.1896 6.0914 15.186 6.06775C15.108 5.50271 14.8087 5.10119 14.2713 4.9105C13.7264 4.71527 13.2348 4.84006 12.8152 5.23704C12.6642 5.37943 12.5133 5.52334 12.3769 5.6773C12.2824 5.78347 12.226 5.79152 12.1188 5.68283C11.3641 4.91855 10.6048 4.16231 9.84609 3.40356C9.79892 3.35271 9.7485 3.30497 9.69514 3.26066C9.56734 3.16305 9.43551 3.16758 9.3223 3.28079C9.2091 3.394 9.20608 3.52633 9.30318 3.65413C9.34122 3.704 9.38496 3.74925 9.4335 3.78897C9.51098 3.85186 9.52508 3.89664 9.44256 3.97816C8.95014 4.46152 8.46208 4.94957 7.97838 5.44233C7.89989 5.52182 7.86015 5.51176 7.78819 5.4383C7.42794 5.071 7.06064 4.71075 6.69887 4.34495C6.44729 4.09338 6.45132 3.8257 6.7034 3.5696C6.97208 3.29689 7.24428 3.0277 7.51498 2.757C7.82895 2.44354 8.04228 2.4365 8.37034 2.72782C8.51223 2.85361 8.67223 2.85814 8.78846 2.73889C8.90469 2.61964 8.88909 2.46065 8.76129 2.32077C8.31902 1.84429 7.65838 1.82668 7.19246 2.28304C6.90969 2.55927 6.63296 2.84153 6.3532 3.12129C5.81181 3.66217 5.81081 4.25791 6.3532 4.7988C7.24412 5.69106 8.13654 6.58214 9.03047 7.47205C9.12255 7.56312 9.13111 7.60991 9.0335 7.7035C8.68682 8.0396 8.34065 8.37722 8.01008 8.72942C7.20504 9.5873 7.198 10.8578 7.98241 11.7317C8.08304 11.8434 8.18971 11.9496 8.30241 12.0678C8.05084 12.3194 7.79926 12.5639 7.5502 12.811C7.50492 12.8558 7.47725 12.8945 7.39926 12.8336C7.01334 12.5317 6.71899 12.5544 6.37534 12.898L3.7665 15.5069C3.41429 15.8591 3.41027 16.2224 3.75996 16.5726C4.71796 17.5312 5.6763 18.4896 6.63497 19.4476C6.67191 19.4903 6.71322 19.5291 6.75824 19.5633C6.88302 19.6448 7.00981 19.6418 7.11799 19.5346C7.22617 19.4274 7.23372 19.3017 7.15171 19.1764C7.11379 19.1264 7.07098 19.0804 7.0239 19.039C6.07429 18.0891 5.12417 17.1401 4.17355 16.1922C4.06537 16.085 4.05179 16.0156 4.16651 15.9019C5.03864 15.0358 5.90842 14.1661 6.77585 13.293C6.88403 13.1838 6.95547 13.1783 7.06717 13.293C8.52397 14.7558 9.98311 16.215 11.4446 17.6704C11.5588 17.7837 11.5482 17.8531 11.4396 17.9608C10.5708 18.8228 9.70587 19.6882 8.84481 20.557C8.71752 20.6863 8.64355 20.6748 8.52984 20.5495C8.37889 20.3814 8.21587 20.2244 8.05084 20.071C8.02606 20.0444 7.99616 20.0232 7.96295 20.0085C7.92973 19.9939 7.89389 19.9861 7.85759 19.9857C7.82128 19.9853 7.78528 19.9922 7.75173 20.0061C7.71818 20.02 7.6878 20.0405 7.66241 20.0664C7.63461 20.0899 7.61201 20.119 7.59607 20.1517C7.58012 20.1844 7.57118 20.2201 7.5698 20.2564C7.56843 20.2928 7.57466 20.3291 7.58809 20.3629C7.60152 20.3967 7.62186 20.4273 7.64781 20.4529C7.92606 20.7256 8.15952 21.0506 8.52028 21.2317H8.8589C8.96406 21.1583 9.08432 21.113 9.17891 21.0184C10.0811 20.1127 10.9903 19.2071 11.8919 18.3014C12.1742 18.0176 12.1868 17.6624 11.9211 17.359C11.8411 17.2679 11.8708 17.2322 11.9387 17.1683C12.1903 16.9223 12.4418 16.6762 12.6829 16.4216C12.7613 16.3391 12.8227 16.3371 12.9264 16.3713C13.9448 16.7235 14.8499 16.5303 15.6318 15.7866C15.8633 15.5662 16.0847 15.3338 16.3116 15.1089C16.4862 14.9338 16.4862 14.9338 16.6547 15.1018C17.0985 15.5456 17.542 15.9896 17.9851 16.4337C18.049 16.5027 18.1269 16.5574 18.2135 16.5942C19.2795 17.0088 20.3454 17.4244 21.411 17.841C21.5519 17.8958 21.6903 17.9336 21.8136 17.8108C21.9368 17.688 21.8925 17.5472 21.8377 17.4078ZM19.8326 14.1876C19.8538 14.2087 19.8734 14.2319 19.9006 14.2621C19.8704 14.2943 19.8467 14.322 19.8211 14.3476C19.6701 14.4986 19.5157 14.6455 19.3708 14.8005C19.3008 14.8759 19.2611 14.8649 19.1942 14.7964C18.7849 14.3815 18.3727 13.9694 17.9574 13.5602C17.8824 13.4862 17.8839 13.454 17.976 13.3987C18.1607 13.2885 18.2975 13.1214 18.447 12.97C18.5058 12.9101 18.5426 12.892 18.611 12.9614C19.0155 13.373 19.4251 13.7796 19.8326 14.1876ZM19.1021 10.3445C19.4014 10.6464 19.4427 11.1415 19.1524 11.4515C18.694 11.941 18.2105 12.4075 17.7315 12.8764C17.6621 12.941 17.5805 12.991 17.4915 13.0235C17.4025 13.056 17.3079 13.0703 17.2132 13.0656C16.8701 13.058 16.6095 12.9071 16.463 12.5946C16.3166 12.2822 16.3373 11.9677 16.5732 11.7176C17.0331 11.2296 17.5071 10.7531 17.9956 10.2937C18.3051 10.0034 18.8027 10.0426 19.1021 10.3445ZM16.7131 8.42501C16.9737 8.17344 17.2872 8.12614 17.6188 8.26853C17.9504 8.41093 18.0932 8.67961 18.1159 9.01421C18.1023 9.23962 18.0389 9.43383 17.8865 9.5878C17.4402 10.0406 16.9944 10.4884 16.5415 10.9317C16.4235 11.0452 16.2743 11.121 16.113 11.1494C15.9517 11.1778 15.7856 11.1576 15.6359 11.0912C15.5413 11.0479 15.5352 11.0188 15.6032 10.9347C15.9297 10.5458 15.9146 10.177 15.5528 9.82277C15.4522 9.72214 15.4547 9.67183 15.5528 9.57774C15.9428 9.19886 16.3212 8.80338 16.7131 8.42501ZM15.1387 6.85417C15.3974 6.60612 15.7098 6.54826 16.0419 6.69417C16.3659 6.83606 16.5204 7.10022 16.5415 7.42123C16.5365 7.66425 16.4686 7.85746 16.3176 8.01092C15.9176 8.41797 15.5126 8.81597 15.1101 9.22553C15.0421 9.29446 15.0094 9.28138 14.947 9.22C14.6116 8.88054 14.2747 8.54376 13.9362 8.20966C13.8718 8.14627 13.8708 8.10903 13.9362 8.04715C14.3397 7.65167 14.7322 7.24512 15.1387 6.85417ZM13.261 5.59378C13.577 5.29591 14.0761 5.32207 14.3845 5.62598C14.693 5.92988 14.7206 6.43103 14.4293 6.74952C14.138 7.06802 13.829 7.3533 13.5322 7.66023C13.4698 7.72463 13.4351 7.70702 13.3812 7.65318C13.2333 7.50223 13.0793 7.35129 12.9309 7.20034C12.7196 6.98449 12.4972 6.78323 12.2114 6.64688C12.5712 6.28612 12.9058 5.92888 13.261 5.59378ZM11.0471 5.40006C11.264 5.61793 11.4833 5.83277 11.6972 6.05416C11.745 6.10448 11.8602 6.15479 11.8134 6.21819C11.742 6.31379 11.6786 6.45367 11.5115 6.43555C11.4179 6.42549 11.3238 6.42348 11.1935 6.41543C10.9042 6.54474 10.716 6.34096 10.5274 6.13014C10.4157 6.00485 10.2053 5.88611 10.2053 5.76485C10.2053 5.64359 10.4066 5.5173 10.5268 5.39805C10.7865 5.13842 10.787 5.13943 11.0471 5.40006ZM10.2592 6.63631C10.0191 6.76048 9.80091 6.92295 9.61313 7.11732C9.60407 7.12638 9.59552 7.14298 9.58646 7.14298C9.39325 7.13996 9.34595 6.94524 9.21614 6.8582C9.16583 6.82549 9.13463 6.78575 9.19803 6.72487C9.36943 6.5605 9.53715 6.39279 9.70118 6.22171C9.75955 6.16083 9.79074 6.18951 9.83602 6.23379C9.96986 6.36461 10.1072 6.49191 10.2592 6.63631ZM8.83123 6.29869C8.7633 6.36762 8.72154 6.37718 8.65412 6.29869C8.54242 6.1724 8.33914 6.06372 8.32556 5.9319C8.31197 5.80007 8.52682 5.68887 8.64355 5.57063C9.06771 5.13843 9.49589 4.71024 9.93414 4.26948C10.0634 4.40483 10.1767 4.53062 10.2989 4.64685C10.3663 4.71125 10.3799 4.74748 10.3045 4.82396C9.80969 5.31336 9.31895 5.8046 8.83123 6.29869ZM11.4275 16.8568L8.60179 14.0281C8.38895 13.8153 8.18115 13.5974 7.96128 13.3921C7.87222 13.3091 7.88379 13.2648 7.9648 13.1879C8.16958 12.9941 8.37235 12.7974 8.56255 12.5886C8.66318 12.4779 8.71752 12.4668 8.83173 12.5826C9.79275 13.5547 10.7638 14.5167 11.7269 15.4868C11.9035 15.6649 12.0564 15.8661 12.225 16.0614L11.4275 16.8568ZM15.9639 14.6631C15.7123 14.8986 15.4769 15.1527 15.2278 15.3912C14.4117 16.1736 13.2519 16.1816 12.4418 15.3937C11.6997 14.6722 10.9752 13.932 10.2436 13.1999C10.2241 13.1774 10.206 13.1537 10.1892 13.129C10.4333 13.1028 10.6647 13.0902 10.8856 13.0163C11.0959 12.9453 11.1875 12.8095 11.1372 12.6444C11.0818 12.4719 10.9359 12.411 10.7236 12.4739C10.1014 12.6547 9.56097 12.5166 9.10243 12.0598C8.89362 11.8515 8.6828 11.6452 8.47701 11.4339C7.79171 10.7295 7.79221 9.7468 8.48153 9.04842C8.99743 8.52548 9.51736 8.00555 10.0413 7.48865C10.7397 6.79933 11.7319 6.79883 12.4268 7.48865C13.3348 8.3913 14.2405 9.29698 15.1438 10.2057C15.3083 10.3712 15.3083 10.4321 15.1503 10.5966C14.7287 11.0369 14.0555 11.0444 13.6031 10.6017C13.0914 10.1015 12.5903 9.59132 12.0841 9.08565C11.8391 8.84112 11.7349 8.84112 11.4909 9.08565C11.1025 9.47358 11.11 9.46855 11.4215 9.92391C11.7963 10.4718 11.8924 11.061 11.6368 11.689C11.5543 11.8902 11.6006 12.0512 11.7621 12.1166C11.9236 12.1821 12.06 12.1081 12.15 11.9219C12.3181 11.5737 12.3598 11.2044 12.3286 10.7803C12.3986 10.8452 12.4398 10.8809 12.4796 10.9196C13.6422 12.0819 14.8057 13.2435 15.97 14.4045C16.0696 14.5096 16.0701 14.563 15.9639 14.6631ZM18.3886 15.7851C18.288 15.9099 18.2251 15.8732 18.13 15.7771C16.7483 14.3904 15.3653 13.005 13.981 11.621C13.923 11.555 13.8713 11.4838 13.8265 11.4082C14.1828 11.5275 14.5687 11.5243 14.9229 11.3991C14.9923 11.3745 15.0265 11.4233 15.0658 11.4625C15.2922 11.6885 15.5156 11.9154 15.7455 12.1398C15.771 12.1665 15.7908 12.1982 15.8038 12.2327C15.8168 12.2673 15.8226 12.3042 15.821 12.3411C15.8417 12.6757 15.9843 12.9912 16.222 13.2278C16.4596 13.4643 16.7758 13.6055 17.1106 13.6246C17.1535 13.6262 17.1956 13.6365 17.2345 13.6548C17.2733 13.6731 17.308 13.6992 17.3365 13.7313C17.814 14.2123 18.2925 14.6933 18.7755 15.1673C18.8711 15.2608 18.8726 15.3117 18.7755 15.3987C18.6362 15.5171 18.5071 15.6459 18.3886 15.7851ZM19.8155 16.5016C19.7511 16.5685 19.6973 16.565 19.6178 16.5323C19.3461 16.4206 19.0714 16.318 18.7624 16.1987C19.2294 15.7328 19.6767 15.287 20.121 14.8402C20.1748 14.7864 20.2025 14.7773 20.2342 14.8629C20.3313 15.1265 20.4324 15.3886 20.5411 15.6478C20.5728 15.7222 20.5512 15.7615 20.5023 15.8098C20.2739 16.0387 20.045 16.2677 19.8155 16.5016ZM20.2855 16.7914C20.4525 16.637 20.5989 16.5031 20.7433 16.3673C20.8118 16.3034 20.8208 16.3597 20.84 16.409C20.9255 16.6294 21.013 16.8498 21.1167 17.1134L20.2855 16.7914Z" fill="white"/>
</g>
<defs>
<clipPath id="clip0_2145_7155">
<rect width="24" height="24" fill="white" transform="translate(0.5)"/>
</clipPath>
</defs>
</svg>
