<svg width="13" height="15" viewBox="0 0 13 15" fill="none" xmlns="http://www.w3.org/2000/svg">
<path d="M6.1481 3.39122C6.2231 3.39122 6.26086 3.3473 6.27988 3.27819C6.47435 2.2298 6.46202 2.20462 7.55435 1.99756C7.62935 1.98497 7.67354 1.94131 7.67354 1.86578C7.67354 1.79051 7.62961 1.74658 7.55408 1.73399C6.46819 1.51435 6.49953 1.48917 6.27988 0.4531C6.26113 0.384261 6.22336 0.340332 6.1481 0.340332C6.07256 0.340332 6.03506 0.384261 6.01604 0.4531C5.7964 1.48917 5.8339 1.51408 4.74185 1.73399C4.67274 1.74631 4.62238 1.79024 4.62238 1.86578C4.62238 1.94105 4.67274 1.98497 4.74158 1.99756C5.83417 2.21721 5.82158 2.2298 6.01604 3.27819C6.03479 3.3473 6.07283 3.39122 6.1481 3.39122ZM3.10953 7.71042C3.22872 7.71042 3.31042 7.63515 3.32301 7.52212C3.54881 5.84587 3.60533 5.84587 5.3381 5.51319C5.45113 5.49444 5.53283 5.4189 5.53283 5.29971C5.53283 5.18667 5.45113 5.10524 5.3381 5.08623C3.60533 4.84783 3.54265 4.79131 3.32301 3.08373C3.31042 2.97069 3.22872 2.88899 3.10953 2.88899C2.99649 2.88899 2.91479 2.97069 2.9022 3.08989C2.69515 4.7723 2.60729 4.76614 0.887115 5.08623C0.774079 5.1114 0.692383 5.18667 0.692383 5.29971C0.692383 5.42533 0.774079 5.49444 0.912026 5.51319C2.61988 5.78935 2.69515 5.83328 2.9022 7.50953C2.91479 7.63515 2.99649 7.71042 3.10953 7.71042ZM7.36577 14.6602C7.52917 14.6602 7.64836 14.5408 7.6797 14.3712C8.12542 10.9311 8.6089 10.4099 12.0115 10.0333C12.1872 10.0145 12.3067 9.88274 12.3067 9.71935C12.3067 9.55596 12.1872 9.4306 12.0115 9.40542C8.6089 9.02881 8.12542 8.50783 7.6797 5.06747C7.64836 4.89792 7.52917 4.78489 7.36577 4.78489C7.20265 4.78489 7.08345 4.89792 7.05827 5.06747C6.61256 8.50783 6.12292 9.02881 2.72649 9.40542C2.54435 9.4306 2.42515 9.55623 2.42515 9.71935C2.42515 9.88274 2.54435 10.0145 2.72649 10.0333C6.11649 10.479 6.58738 10.9373 7.05827 14.3712C7.08345 14.5408 7.20265 14.6602 7.36577 14.6602Z" fill="white"/>
</svg>
