<svg width="32" height="55" viewBox="0 0 32 55" fill="none" xmlns="http://www.w3.org/2000/svg">
<path fill-rule="evenodd" clip-rule="evenodd" d="M15.6571 0.730191C15.5573 1.13864 15.3733 1.86448 15.2481 2.34329C15.1229 2.82211 14.3579 5.81787 13.548 9.00055C12.7382 12.1832 11.458 17.2064 10.7033 20.1632L9.331 25.5392L8.9905 25.6282C6.1918 26.3598 4.3084 27.3431 1.025 29.7871C0.4612 30.2067 0 30.6046 0 30.6713C0 30.8276 2.3862 32.6817 3.53 33.4141C4.917 34.3023 6.5453 35.0604 7.9718 35.4822C8.0496 35.5052 7.9313 35.788 7.6452 36.2631C7.0933 37.18 6.6627 38.3122 6.4964 39.2834C6.3746 39.9951 6.413 42.1663 6.5617 42.9782L6.6227 43.311L5.9863 43.3128C4.8348 43.316 2.724 43.9119 2.3451 44.3407C2.187 44.5198 2.1829 44.6073 2.3006 45.312C2.4088 45.9595 2.4562 46.0743 2.59 46.0119C2.678 45.9708 3.2664 45.7557 3.8976 45.5336C5.8239 44.8561 7.1803 44.9811 7.8166 45.8947C8.045 46.2228 8.0507 46.2891 8.0837 48.9941C8.106 50.823 8.0798 51.8866 8.0063 52.1379C7.7979 52.8501 7.0995 53.1756 5.7982 53.1668C4.9753 53.1613 3.9409 52.8585 3.725 52.56C3.6449 52.4493 3.6 52.0249 3.6 51.3779C3.6 50.4429 3.6181 50.3501 3.8455 50.1173C4.0764 49.8807 4.1561 49.8659 5.1955 49.8659H6.3V48.9953V48.1247H4.9583C3.4462 48.1247 2.9914 48.2524 2.4385 48.8326C1.9323 49.3638 1.8 49.972 1.8 51.7676C1.8 52.6903 1.8453 53.4403 1.9098 53.5853C2.0328 53.8618 3.1139 54.4514 4 54.7251C4.7689 54.9626 6.1223 55.0393 6.956 54.8923C8.3665 54.6438 9.2986 53.9625 9.6885 52.8951C9.8861 52.3541 9.9 52.1197 9.9 49.3173C9.9 46.027 9.8534 45.6742 9.309 44.844C9.1478 44.5981 8.8523 44.2721 8.6525 44.1195C8.4527 43.9669 8.3321 43.8149 8.3846 43.7816C8.437 43.7485 9.5307 43.2863 10.815 42.7547C12.0992 42.223 13.645 41.5752 14.25 41.3151C15.2727 40.8754 15.3992 40.845 16.05 40.8829C16.639 40.9172 16.964 41.0206 18.1 41.5352C18.8425 41.8714 20.2262 42.4627 21.175 42.849C22.1238 43.2354 22.9 43.5812 22.9 43.6174C22.9 43.6536 22.6499 43.764 22.3442 43.8628C22.0385 43.9614 21.7632 44.1093 21.7325 44.1913C21.6745 44.3463 21.8484 45.7504 21.9369 45.841C21.9646 45.8694 22.2713 45.798 22.6186 45.6823C23.6021 45.355 25.0261 45.1283 25.8366 45.1702C26.4459 45.2018 26.6284 45.2548 26.9254 45.4868C27.8066 46.1753 27.8142 47.3618 26.958 50.5828C26.2398 53.2848 26.3058 53.1433 25.7651 53.1433H25.3259L25.2091 51.9911C24.9311 49.2477 24.5803 48.7561 22.83 48.6578C22.03 48.6128 22.0085 48.6177 21.9494 48.859C21.916 48.995 21.9026 49.3809 21.9194 49.7165L21.95 50.3267L22.5294 50.3576C23.0216 50.3838 23.1216 50.4227 23.1933 50.6161C23.2398 50.7412 23.375 51.6491 23.4938 52.6335C23.6192 53.6727 23.7638 54.4794 23.8385 54.5567C24.0535 54.7792 25.2005 55.0075 25.8529 54.9576C26.8961 54.8779 27.7012 54.2776 28.0314 53.3333C28.2365 52.7464 29.0496 49.71 29.2558 48.7605C29.5027 47.6234 29.4275 46.0914 29.0888 45.3594C28.5408 44.175 27.5967 43.554 26.0675 43.3717C25.1912 43.2673 25.1854 43.2647 25.2488 43.0071C25.2839 42.8645 25.3375 42.0532 25.368 41.2043C25.4166 39.8486 25.3975 39.5558 25.2105 38.7974C24.9793 37.8596 24.4858 36.7112 24.0089 36.0013L23.7074 35.5524L24.6131 35.2206C25.7368 34.809 27.1187 34.1201 28.0452 33.5097C29.0523 32.8462 32.0003 30.691 31.9982 30.6197C31.9961 30.5491 30.9216 29.7641 29.25 28.6121C27.3215 27.2831 25.192 26.2614 23.2698 25.7427C22.8836 25.6386 22.5512 25.4857 22.5008 25.3891C22.4519 25.2956 22.2717 24.6462 22.1004 23.9463C21.9291 23.2463 21.7052 22.374 21.6027 22.0078C21.5003 21.6417 21.1198 20.1668 20.7571 18.7304C20.3945 17.294 19.805 15.0126 19.4473 13.6606C19.0895 12.3087 18.3227 9.28988 17.7433 6.95216C16.8578 3.37988 16.266 1.04165 16.0259 0.166885C15.9352 -0.163315 15.8398 -0.0175726 15.6571 0.730191ZM17.8927 15.6066C18.2341 16.9585 18.8949 19.5856 19.3613 21.4445C19.8277 23.3034 20.2338 24.9083 20.2637 25.011C20.3148 25.1862 20.2512 25.194 19.2341 25.1358C18.6378 25.1017 17.8688 25.0485 17.525 25.0177L16.9 24.9617L16.909 18.3893C16.9179 11.9104 16.9206 11.8265 17.0951 12.4828C17.1925 12.849 17.5514 14.2547 17.8927 15.6066ZM14.8985 18.3975C14.8976 22.0548 14.8583 24.7846 14.8052 24.8704C14.7359 24.9827 14.332 25.0417 13.1511 25.1122C12.2918 25.1634 11.5726 25.1888 11.5528 25.1685C11.533 25.1482 11.7545 24.1868 12.0449 23.032C12.3354 21.8772 13.0099 19.181 13.5438 17.0405C14.6701 12.5247 14.7891 12.0731 14.8528 12.0731C14.8788 12.0731 14.8993 14.9191 14.8985 18.3975ZM14.9 28.3578V29.5868H9.8441C6.5394 29.5868 4.8093 29.5518 4.8493 29.4856C4.9543 29.3115 5.7231 28.8904 6.441 28.6136C8.7171 27.7361 11.5637 27.1558 13.675 27.1387L14.9 27.1288V28.3578ZM20.8235 27.3789C22.0918 27.5933 23.5232 27.9773 24.4823 28.3604C25.4312 28.7394 26.7142 29.4123 26.7347 29.5418C26.7582 29.6896 17.2097 29.7225 17.0364 29.5753C16.9356 29.4896 16.9 29.151 16.9 28.2791V27.099L18.375 27.1566C19.1863 27.1883 20.2881 27.2883 20.8235 27.3789ZM11.8917 31.7737C10.5194 32.9597 9.8353 33.509 9.6319 33.5883C9.3049 33.7156 8.409 33.4914 7.1517 32.9674C6.2863 32.6068 4.9 31.8757 4.9 31.78C4.9 31.7567 6.4825 31.7376 8.4167 31.7376C10.3508 31.7376 11.9146 31.7538 11.8917 31.7737ZM26.7166 31.9012C25.914 32.4769 22.9376 33.6836 22.3201 33.6836C22.1994 33.6836 21.9317 33.5298 21.7253 33.3418C21.5189 33.1538 20.9983 32.7159 20.5684 32.3688L19.7869 31.7376H23.3657C26.6716 31.7376 26.9271 31.7501 26.7166 31.9012ZM14.9 33.3109V34.2695L13.925 34.2229C13.3887 34.1973 12.8155 34.1434 12.6511 34.103C12.3618 34.032 12.3922 34.0024 13.5898 33.1909C14.2705 32.7296 14.8438 32.3522 14.8637 32.3522C14.8837 32.3522 14.9 32.7835 14.9 33.3109ZM18.2515 33.239C18.884 33.6705 19.3802 34.0452 19.3543 34.0719C19.3283 34.0985 18.7879 34.1487 18.1535 34.1836L16.9999 34.2469L17 33.3507C17 32.8579 17.0228 32.4546 17.0507 32.4546C17.0786 32.4546 17.6189 32.8076 18.2515 33.239ZM13.05 36.1936C13.985 36.2762 14.7838 36.3445 14.825 36.3452C14.9635 36.3476 14.9123 38.6666 14.7711 38.7866C14.7002 38.847 13.2939 39.4551 11.6461 40.1382C9.9982 40.8212 8.5866 41.4075 8.5091 41.4409C8.3909 41.4921 8.3789 41.3444 8.435 40.527C8.5409 38.985 8.9644 37.834 9.8696 36.6282C10.308 36.0441 10.316 36.0392 10.8308 36.0414C11.1164 36.0425 12.115 36.111 13.05 36.1936ZM21.9303 36.6045C22.842 37.7942 23.4366 39.5094 23.3798 40.7853L23.35 41.4535L20.25 40.1698C18.545 39.4637 17.0938 38.8391 17.025 38.7816C16.8648 38.6477 16.8486 36.4936 17.007 36.3933C17.1185 36.3227 19.9247 36.0796 20.9235 36.054L21.4971 36.0392L21.9303 36.6045ZM11.8667 43.4818C11.83 43.5192 11.8 45.4635 11.8 47.8022C11.8 52.7098 11.8256 52.9109 12.5552 53.7421C13.4981 54.8162 15.4594 55.2793 17.154 54.8282C18.0566 54.5878 19.4219 53.9711 19.675 53.6895L19.9 53.4391V48.5883C19.9 45.9204 19.8727 43.6646 19.8393 43.5755C19.7906 43.4455 19.6124 43.4134 18.9393 43.4134H18.1V47.8754C18.1 50.7022 18.0628 52.4086 17.9984 52.5319C17.8368 52.841 16.6889 53.1569 15.7284 53.1566C14.5544 53.1561 13.9773 52.8324 13.7139 52.027C13.6362 51.7896 13.6 50.3643 13.6 47.5462V43.4134H12.7667C12.3083 43.4134 11.9033 43.4442 11.8667 43.4818ZM30.1763 52.689C29.4129 53.1133 29.4254 54.4229 30.1967 54.8314C31.0372 55.2766 32 54.7033 32 53.7578C32 52.8108 31.0057 52.2282 30.1763 52.689Z" fill="white"/>
</svg>
