<svg width="19" height="18" viewBox="0 0 19 18" fill="none" xmlns="http://www.w3.org/2000/svg">
<g id="icon/edit">
<mask id="mask0_2961_31529" style="mask-type:alpha" maskUnits="userSpaceOnUse" x="0" y="0" width="19" height="19">
<rect id="Bounding box" x="0.582764" width="18.0003" height="18.0003" fill="#D9D9D9"/>
</mask>
<g mask="url(#mask0_2961_31529)">
<path id="vector" d="M2.08276 18.0003V15.0002H17.083V18.0003H2.08276ZM3.58279 13.5002V10.3126L11.9829 1.93126C12.1204 1.79375 12.2798 1.6875 12.4611 1.6125C12.6423 1.5375 12.8329 1.5 13.0329 1.5C13.233 1.5 13.4267 1.5375 13.6142 1.6125C13.8017 1.6875 13.9705 1.80001 14.1205 1.95001L15.1517 3.00003C15.3017 3.13753 15.4111 3.30003 15.4799 3.48753C15.5486 3.67504 15.583 3.86879 15.583 4.06879C15.583 4.2563 15.5486 4.44067 15.4799 4.62193C15.4111 4.80318 15.3017 4.96881 15.1517 5.11881L6.77034 13.5002H3.58279ZM13.0329 5.10006L14.083 4.05004L13.0329 3.00003L11.9829 4.05004L13.0329 5.10006Z" fill="#EAE3C3"/>
</g>
</g>
</svg>
