<svg width="15" height="18" viewBox="0 0 15 18" fill="none" xmlns="http://www.w3.org/2000/svg">
<g id="icon/trash">
<path id="Subtract" fill-rule="evenodd" clip-rule="evenodd" d="M6.25 0C4.73122 0 3.5 1.23122 3.5 2.75V3.1927C2.70472 3.26972 1.91602 3.36947 1.13458 3.49129C0.725308 3.5551 0.445254 3.9386 0.509059 4.34787C0.572864 4.75714 0.956367 5.0372 1.36564 4.97339L1.51355 4.95062L2.35504 15.4693C2.46938 16.8985 3.66254 18 5.09629 18H9.90351C11.3372 18 12.5304 16.8985 12.6447 15.4693L13.4862 4.95055L13.6346 4.97339C14.0438 5.0372 14.4274 4.75714 14.4912 4.34787C14.555 3.9386 14.2749 3.5551 13.8656 3.49129C13.0841 3.36946 12.2954 3.2697 11.5 3.19268V2.75C11.5 1.23122 10.2688 0 8.75 0H6.25ZM7.50011 3C8.33946 3 9.173 3.02523 10 3.07499V2.75C10 2.05964 9.44036 1.5 8.75 1.5H6.25C5.55964 1.5 5 2.05964 5 2.75V3.075C5.82707 3.02524 6.66068 3 7.50011 3ZM6.07948 6.72002C6.06292 6.30614 5.71398 5.98404 5.3001 6.0006C4.88622 6.01716 4.56412 6.36609 4.58068 6.77998L4.88069 14.28C4.89725 14.6939 5.24619 15.016 5.66007 14.9994C6.07395 14.9828 6.39605 14.6339 6.37949 14.22L6.07948 6.72002ZM10.4195 6.77998C10.436 6.36609 10.114 6.01715 9.70007 6.0006C9.28619 5.98404 8.93725 6.30614 8.92069 6.72002L8.62069 14.22C8.60414 14.6339 8.92623 14.9828 9.34012 14.9994C9.754 15.016 10.1029 14.6939 10.1195 14.28L10.4195 6.77998Z" fill="#EFD08B"/>
</g>
</svg>
