<svg width="45" height="44" viewBox="0 0 45 44" fill="none" xmlns="http://www.w3.org/2000/svg">
<circle cx="22.5" cy="22" r="22" fill="black"/>
<path d="M22.5309 26.9099C22.5309 26.9099 24.1524 26.7805 24.1524 28.5317L25.7739 26.9099C25.7739 26.9099 24.1524 27.0624 24.1524 25.2881L22.5309 26.9099Z" fill="white"/>
<path d="M7.93115 20.0019V14.37C7.93115 14.1383 8.1184 13.9511 8.35005 13.9511H10.7553C10.987 13.9511 11.1742 14.1383 11.1742 14.37V19.9672C11.1742 20.2182 10.9715 20.4209 10.7206 20.4209H8.35005C8.1184 20.4209 7.93115 20.2336 7.93115 20.0019Z" fill="white"/>
<path d="M17.6622 17.1692V13.9507H20.9053V17.1943H17.6873C17.6738 17.1943 17.6622 17.1828 17.6622 17.1692Z" fill="white"/>
<path d="M14.4175 17.1678V14.3161C14.4175 14.1134 14.5816 13.9493 14.7843 13.9493H17.6605V17.1929H14.4426C14.4291 17.1929 14.4175 17.1813 14.4175 17.1678Z" fill="white"/>
<path d="M24.1504 14.4068V16.7642C24.1504 17.0017 23.9574 17.1948 23.7199 17.1948H20.9073V13.9512H23.6948C23.9458 13.9512 24.1504 14.1558 24.1504 14.4068Z" fill="white"/>
<path d="M7.93115 26.9102V30.1538H11.1742V26.9102H7.93115Z" fill="white"/>
<path d="M27.3533 16.7293V14.3565C27.3533 14.1209 27.5444 13.9317 27.778 13.9317H29.0733C29.9149 13.9317 30.5983 14.6152 30.5983 15.457V17.1772H27.8011C27.554 17.1772 27.3552 16.9765 27.3552 16.7312L27.3533 16.7293Z" fill="white"/>
<path d="M27.353 30.1538V26.9102H30.5961V28.5822C30.5961 29.451 29.8915 30.1558 29.0228 30.1558H27.3511L27.353 30.1538Z" fill="white"/>
<path d="M24.1082 19.973V17.6233C24.1082 17.3761 24.3089 17.1754 24.556 17.1754H26.9053C27.1524 17.1754 27.3531 17.3761 27.3531 17.6233V19.9382C27.3531 20.2047 27.1369 20.4209 26.8706 20.4209H24.556C24.3089 20.4209 24.1082 20.2201 24.1082 19.973Z" fill="white"/>
<path d="M14.4176 20V17.1754H17.6606V20.3842C17.6606 20.4035 17.6452 20.4209 17.624 20.4209H14.8365C14.6048 20.4209 14.4156 20.2336 14.4156 20H14.4176Z" fill="white"/>
<path d="M17.6622 30.1284V26.8848H20.4748C20.7123 26.8848 20.9053 27.0779 20.9053 27.3154V29.6824C20.9053 29.9296 20.7045 30.1284 20.4594 30.1284H17.6622Z" fill="white"/>
<path d="M14.8749 26.8906H17.6624V30.1342H14.9116C14.6394 30.1342 14.4193 29.9141 14.4193 29.6419V27.3463C14.4193 27.0953 14.6239 26.8906 14.8749 26.8906Z" fill="white"/>
<path d="M24.1525 29.6248V26.9836C24.1525 26.943 24.1853 26.9083 24.2278 26.9083H27.3222C27.3627 26.9083 27.3975 26.9411 27.3975 26.9836V30.0785C27.3975 30.1191 27.3646 30.1538 27.3222 30.1538H24.6814C24.3899 30.1538 24.1525 29.9163 24.1525 29.6248Z" fill="white"/>
<path d="M28.9746 13.9316V17.1753C31.6617 17.1753 33.8411 19.355 33.8411 22.0426C33.8411 24.7302 31.6617 26.91 28.9746 26.91V30.1536C33.4531 30.1536 37.0842 26.5219 37.0842 22.0426C37.0842 17.5633 33.4531 13.9316 28.9746 13.9316Z" fill="white"/>
<path d="M7.93137 26.9005V24.1222C7.93137 23.8692 8.13793 23.6627 8.39081 23.6627H10.6764C10.9505 23.6627 11.1744 23.8866 11.1744 24.1608V26.9005C11.1744 26.9005 11.1706 26.9082 11.1667 26.9082H7.93716C7.93716 26.9082 7.92944 26.9043 7.92944 26.9005H7.93137Z" fill="white"/>
<path d="M11.1742 20.8399V23.2456C11.1742 23.477 11.3617 23.6646 11.5931 23.6646H13.9984C14.2297 23.6646 14.4173 23.477 14.4173 23.2456V20.8399C14.4173 20.6085 14.2297 20.4209 13.9984 20.4209H11.5931C11.3617 20.4209 11.1742 20.6085 11.1742 20.8399Z" fill="white"/>
<path d="M11.1744 22.0425C11.1744 22.0425 11.3037 23.6643 9.55286 23.6643L11.1744 25.2861C11.1744 25.2861 11.0219 23.6643 12.7959 23.6643L11.1744 22.0425Z" fill="white"/>
<path d="M17.6643 15.5728C17.6643 15.5728 17.7936 17.1946 16.0427 17.1946L17.6643 18.8164C17.6643 18.8164 17.5118 17.1946 19.2858 17.1946L17.6643 15.5728Z" fill="white"/>
<path d="M20.9075 25.2861C20.9075 25.2861 21.0369 26.9079 19.286 26.9079L20.9075 28.5297C20.9075 28.5297 20.755 26.9079 22.5291 26.9079L20.9075 25.2861Z" fill="white"/>
<path d="M27.3531 15.5728C27.3531 15.5728 27.4824 17.1946 25.7316 17.1946L27.3531 18.8164C27.3531 18.8164 27.2006 17.1946 28.9746 17.1946L27.3531 15.5728Z" fill="white"/>
<path d="M24.1524 15.5728C24.1524 15.5728 24.0231 17.1946 25.7739 17.1946L24.1524 18.8164C24.1524 18.8164 24.3049 17.1946 22.5309 17.1946L24.1524 15.5728Z" fill="white"/>
<path d="M17.6624 18.7988C17.6624 18.7988 17.5331 20.4206 19.284 20.4206L17.6624 22.0424C17.6624 22.0424 17.8149 20.4206 16.0409 20.4206L17.6624 18.7988Z" fill="white"/>
<path d="M11.1744 18.7988C11.1744 18.7988 11.0451 20.4206 12.7959 20.4206L11.1744 22.0424C11.1744 22.0424 11.3269 20.4206 9.55286 20.4206L11.1744 18.7988Z" fill="white"/>
<path d="M20.9056 26.2981V24.9331C20.9056 24.2322 21.4732 23.6646 22.1739 23.6646H24.1487V26.9082H21.5156C21.1778 26.9082 20.9056 26.634 20.9056 26.2981Z" fill="white"/>
<path d="M17.6622 20.8554V23.2301C17.6622 23.4701 17.8567 23.6646 18.0966 23.6646H20.471C20.7108 23.6646 20.9053 23.4701 20.9053 23.2301V20.8554C20.9053 20.6154 20.7108 20.4209 20.471 20.4209H18.0966C17.8567 20.4209 17.6622 20.6154 17.6622 20.8554Z" fill="white"/>
<path d="M20.9055 22.0425C20.9055 22.0425 20.7761 23.6643 22.527 23.6643L20.9055 25.2861C20.9055 25.2861 21.058 23.6643 19.2839 23.6643L20.9055 22.0425Z" fill="white"/>
<path d="M24.1527 26.9082V23.6646H27.3572C27.3784 23.6646 27.3958 23.682 27.3958 23.7032V26.9082H24.1527Z" fill="#0090FF"/>
<path d="M27.3975 20.8727V23.2128C27.3975 23.4623 27.5997 23.6646 27.8492 23.6646H30.1888C30.4383 23.6646 30.6405 23.4623 30.6405 23.2128V20.8727C30.6405 20.6232 30.4383 20.4209 30.1888 20.4209H27.8492C27.5997 20.4209 27.3975 20.6232 27.3975 20.8727Z" fill="#0090FF"/>
<path d="M27.3956 22.0425C27.3956 22.0425 27.5249 23.6643 25.774 23.6643L27.3956 25.2861C27.3956 25.2861 27.2431 23.6643 29.0171 23.6643L27.3956 22.0425Z" fill="#0090FF"/>
<path d="M7.92944 17.1948V14.374C7.92944 14.1404 8.11862 13.9493 8.35413 13.9493H10.7498C10.9833 13.9493 11.1744 14.1385 11.1744 14.374V17.1948H7.93137H7.92944Z" fill="#D83273"/>
</svg>
