<svg width="32" height="51" viewBox="0 0 32 51" fill="none" xmlns="http://www.w3.org/2000/svg">
<g clip-path="url(#clip0_3774_40565)">
<path d="M0.25 44.7889L13.8937 45.083V44.3281L13.8708 44.3331L0.25 44.7889Z" fill="url(#paint0_linear_3774_40565)"/>
<path d="M31.2442 44.6304L17.57 44.3281V45.083H17.5944L31.2442 44.6304Z" fill="url(#paint1_linear_3774_40565)"/>
<path d="M0.276978 43.1115V42.6616C0.591507 42.6421 0.778948 42.6132 0.837269 42.596C0.869808 42.5822 0.89799 42.5598 0.918803 42.5311C0.947025 42.4801 0.963297 42.4233 0.966387 42.3651C0.987569 42.1921 1.00643 41.8278 1.01978 41.261C1.02587 40.9893 1.03167 40.5201 1.03167 39.8474C1.03167 39.2463 1.02587 38.718 1.01978 38.2578C1.01368 37.7977 0.992791 37.5234 0.964356 37.4348C0.956101 37.3984 0.938034 37.365 0.912128 37.3381C0.871703 37.3096 0.824644 37.2919 0.775466 37.2869C0.589476 37.2595 0.424377 37.2388 0.276978 37.2321V36.8559C0.853034 36.8743 1.24958 36.884 1.46662 36.885C1.75358 36.885 2.04519 36.8754 2.33505 36.8559L2.70181 37.7296L2.99429 38.3944L4.32581 41.2913C4.61133 40.7089 4.8246 40.263 4.96619 39.9394L5.51749 38.7145C5.82476 38.0359 6.01307 37.6101 6.08184 37.4564C6.15061 37.2977 6.22692 37.0935 6.31397 36.855C6.67782 36.8733 6.9143 36.8876 7.01527 36.8876L8.26295 36.855V37.2313H8.20492C7.92462 37.2289 7.7456 37.2604 7.66842 37.3343C7.59124 37.4083 7.55642 37.5455 7.55642 37.7508C7.55642 37.9943 7.55642 38.1821 7.55352 38.3094L7.53088 39.5477V41.1049C7.53088 41.4786 7.5332 41.702 7.53524 41.7666C7.55642 42.1411 7.5776 42.3698 7.59327 42.4571C7.60078 42.4928 7.61715 42.5259 7.64085 42.5535C7.6667 42.5811 7.69947 42.6012 7.73573 42.6118C7.77984 42.6257 7.95306 42.6409 8.26149 42.6601V43.1045L6.92678 43.0769L5.62107 43.1045V42.6601C5.96694 42.6482 6.16308 42.631 6.21299 42.5969C6.2629 42.5628 6.29598 42.4964 6.31745 42.3884C6.33892 42.2803 6.34879 41.914 6.34879 41.2907V38.0726L5.3785 40.1494L4.91425 41.1798C4.78861 41.4509 4.61742 41.8432 4.39197 42.3572C4.25647 42.6709 4.14882 42.9237 4.0728 43.1144H3.78874C3.68747 42.871 3.54269 42.5299 3.35205 42.0969C3.02921 41.3639 2.78315 40.8148 2.61389 40.4494L1.51594 38.0732V40.2464C1.51594 40.6098 1.51856 41.0406 1.52842 41.5415C1.5409 42.0366 1.54931 42.3246 1.56063 42.3861C1.56753 42.4379 1.58555 42.4875 1.61344 42.5317C1.64797 42.5667 1.6908 42.5924 1.73791 42.6062C1.79914 42.6278 1.97004 42.6458 2.25236 42.6621V43.1121C1.94015 43.0943 1.61808 43.085 1.29107 43.085C0.867444 43.0844 0.526512 43.0938 0.276978 43.1115Z" fill="#1D1D1B"/>
<path d="M12.4772 40.5862C12.223 40.5967 11.9412 40.6025 11.6209 40.6025C11.2907 40.6025 10.9956 40.5967 10.738 40.5862L11.5875 38.3729L12.4772 40.5862ZM10.8915 43.0841V42.5541C10.5604 42.5436 10.3637 42.5188 10.299 42.4769C10.2534 42.4478 10.2319 42.4003 10.2319 42.3313C10.2319 42.2332 10.3007 41.9847 10.4394 41.593L10.6213 41.0764H12.7566L13.1146 42.0182C13.177 42.1866 13.2101 42.3007 13.2101 42.3729C13.212 42.3973 13.2071 42.4217 13.1961 42.4434C13.1851 42.4652 13.1684 42.4835 13.1477 42.4964C13.1033 42.52 12.9133 42.5398 12.5781 42.5529V43.083L14.0347 43.0538L15.1916 43.083V42.5529C15.1129 42.5448 15.0491 42.5398 15.0099 42.5355C14.8797 42.52 14.7949 42.5121 14.7674 42.5031C14.7349 42.491 14.7052 42.4723 14.6803 42.4481C14.6466 42.4168 14.6195 42.3791 14.6005 42.3371L14.4343 41.9413L14.1766 41.3565L12.3196 36.8687H11.7315L11.3647 37.8425L10.2801 40.6124C10.077 41.1367 9.9383 41.4861 9.8675 41.6644C9.70733 42.043 9.61303 42.2591 9.58198 42.3226C9.55659 42.3674 9.52559 42.4088 9.48971 42.4457C9.45737 42.4736 9.42005 42.495 9.37974 42.5089C9.33651 42.52 9.20188 42.5354 8.97614 42.5529V43.083L9.93365 43.0538L10.8915 43.0841Z" fill="#1D1D1B"/>
<path d="M14.8799 44.2943L14.9742 44.2361C15.1089 44.3648 15.2186 44.4522 15.303 44.4961C15.3855 44.5399 15.4772 44.5634 15.5705 44.5649C15.679 44.5649 15.7629 44.5401 15.8221 44.4857C15.8851 44.4261 15.9286 44.3487 15.9469 44.2637C15.9738 44.1624 15.991 43.9498 15.9988 43.6303C16.0171 42.9896 16.0243 42.6325 16.0243 42.5659V39.0178C16.0243 38.6296 16.0188 38.2725 16.0124 37.9591C16.006 37.6458 15.9866 37.4611 15.9631 37.4014C15.9519 37.3718 15.9327 37.3459 15.9077 37.3266C15.8737 37.2975 15.8177 37.2849 15.7466 37.2794L15.1785 37.2555V36.856C15.713 36.8743 16.2576 36.8886 16.8054 36.8886C17.2633 36.8886 17.6553 36.8743 17.9835 36.856V37.2517C17.6985 37.2611 17.5299 37.2698 17.4739 37.2809C17.413 37.2913 17.3573 37.3221 17.3158 37.3682C17.2792 37.4108 17.2578 37.4908 17.2499 37.6012C17.2305 37.8496 17.2209 38.1968 17.2209 38.6403V40.5252L17.2264 42.2819C17.2264 42.7723 17.1879 43.107 17.106 43.397C17.0216 43.695 16.884 43.975 16.6998 44.2235C16.5619 44.4059 16.4038 44.572 16.2286 44.7186C16.0649 44.8613 15.8826 44.981 15.6869 45.0745C15.511 45.1537 15.3468 45.1986 15.1974 45.1986C15.081 45.1951 14.9662 45.1702 14.8588 45.1252C14.8733 44.921 14.8799 44.6397 14.8799 44.2943Z" fill="#1D1D1B"/>
<path d="M20.1257 38.5125C20.2546 38.1352 20.4603 37.849 20.7429 37.6536C21.0269 37.4571 21.3696 37.3566 21.7732 37.3566C22.1264 37.3566 22.4116 37.4233 22.6231 37.5439C22.8413 37.6603 23.0235 37.8415 23.1808 38.0751C23.338 38.3086 23.4596 38.5885 23.5458 38.9135C23.632 39.2385 23.6697 39.604 23.6697 40.0013C23.6697 40.5837 23.594 41.0733 23.4355 41.4839C23.2786 41.885 23.0641 42.1733 22.7896 42.3445C22.5085 42.5162 22.185 42.6052 21.8559 42.6014C21.4805 42.6014 21.1535 42.514 20.8775 42.3326C20.6016 42.1511 20.3741 41.8509 20.1988 41.4149C20.0236 40.9789 19.9342 40.4358 19.9342 39.7726C19.9342 39.3154 19.9949 38.8937 20.1257 38.5125ZM19.0365 41.7125C19.2918 42.1663 19.6425 42.5068 20.0886 42.7342C20.5335 42.9672 21.0678 43.0837 21.6914 43.0837C22.265 43.0837 22.7778 42.9864 23.2229 42.7951C23.8887 42.5036 24.4122 41.959 24.6786 41.2806C24.8605 40.8075 24.9517 40.3042 24.9475 39.7971C24.9508 39.5051 24.9192 39.2137 24.8535 38.9292C24.7952 38.6781 24.703 38.4361 24.5796 38.2099C24.4549 37.9918 24.2813 37.7815 24.0466 37.5692C23.8109 37.3594 23.5369 37.1976 23.2397 37.0927C22.8309 36.9439 22.3759 36.8726 21.8719 36.8726C21.3679 36.8726 20.8981 36.948 20.4725 37.0986C20.1266 37.2281 19.8102 37.4262 19.5422 37.681C19.2568 37.9577 19.0331 38.292 18.8859 38.6619C18.735 39.0495 18.6564 39.5047 18.6564 40.024C18.6575 40.697 18.7849 41.2608 19.0365 41.7125Z" fill="#1D1D1B"/>
<path d="M25.5116 37.2298V36.8742C25.5766 36.8742 25.8018 36.8821 26.1839 36.8917C26.3705 36.8949 26.6362 36.9004 26.9804 36.9004C27.2743 36.9004 27.5273 36.8917 27.7362 36.8821C28.0844 36.8702 28.3693 36.8608 28.5954 36.8608C29.0358 36.8608 29.364 36.8917 29.5819 36.9578C29.8036 37.0222 29.9881 37.1579 30.1407 37.3623C30.2934 37.5668 30.3729 37.8181 30.3729 38.1143C30.3756 38.4588 30.2641 38.7945 30.0557 39.0684C29.8489 39.3561 29.5253 39.5789 29.0892 39.7507C29.1565 39.8792 29.2387 40.0128 29.3266 40.1494C29.4145 40.286 29.4673 40.3658 29.4824 40.3967C29.4975 40.4276 29.5152 40.4509 29.5332 40.4777L30.1834 41.4897C30.3549 41.7594 30.4509 41.8994 30.4622 41.921C30.6741 42.2122 30.802 42.3843 30.849 42.4324C30.8874 42.4781 30.9342 42.516 30.9868 42.5439C31.033 42.5652 31.1221 42.5771 31.2515 42.5795V43.118C30.8232 43.1092 30.5104 43.0993 30.318 43.0993C30.092 43.0993 29.8709 43.1092 29.6507 43.118C29.637 43.051 29.6013 42.7927 29.5485 42.6887L28.6505 41.1615C28.3943 40.7226 28.1744 40.3728 27.9979 40.1212C27.9249 40.0138 27.837 39.9174 27.7368 39.8349L27.7829 39.6925C28.1187 39.7062 28.3708 39.6672 28.5426 39.585C28.7143 39.5029 28.8562 39.3587 28.9752 39.1438C29.0941 38.9248 29.1552 38.6788 29.1525 38.4294C29.1525 38.1641 29.0886 37.9422 28.9659 37.768C28.8564 37.6 28.6961 37.4715 28.5086 37.4014C28.3926 37.3542 28.1796 37.3312 27.8787 37.3312C27.7442 37.3298 27.6099 37.3426 27.478 37.3693C27.4731 37.4707 27.4632 37.7089 27.4545 38.0727C27.44 38.8913 27.429 39.4388 27.429 39.7149C27.429 40.1462 27.4339 40.6052 27.4449 41.0887C27.453 41.686 27.462 42.0238 27.4687 42.108C27.4751 42.2696 27.4902 42.3721 27.5157 42.4225C27.5281 42.4474 27.5465 42.4688 27.5691 42.4848C27.6059 42.5084 27.6469 42.5246 27.6898 42.5326C27.7438 42.5428 27.9097 42.5515 28.1744 42.56V43.1133C27.7011 43.0955 27.2168 43.0862 26.7253 43.0862C26.2897 43.0862 25.8853 43.0952 25.5122 43.1133V42.56C25.8313 42.5454 26.0211 42.5326 26.0791 42.5096C26.0943 42.5078 26.1087 42.5024 26.1214 42.4938C26.134 42.4852 26.1444 42.4738 26.1517 42.4604C26.1682 42.4458 26.1807 42.41 26.1888 42.3439C26.2123 42.1751 26.2265 42.0051 26.2312 41.8348L26.2634 40.565V38.9574L26.2492 38.0415C26.2416 37.6821 26.2245 37.4634 26.1964 37.3926C26.1854 37.3608 26.1629 37.3342 26.1334 37.3181C26.0664 37.2793 25.8592 37.2517 25.5116 37.2298Z" fill="#1D1D1B"/>
<path d="M4.54664 47.8156H4.30117C4.30117 47.7492 4.29769 47.6499 4.2887 47.5215C4.28469 47.443 4.27411 47.3651 4.25707 47.2885C4.21062 47.2292 4.15497 47.1777 4.09226 47.1362C3.9492 47.042 3.79264 46.9704 3.62801 46.9238C3.43557 46.8693 3.23632 46.843 3.03638 46.8455C2.52222 46.8455 2.1131 47.0063 1.80147 47.3243C1.49507 47.6446 1.33723 48.0844 1.33723 48.6444C1.33723 49.2543 1.50262 49.7401 1.82643 50.1006C2.15024 50.4612 2.55182 50.6397 3.02361 50.6397C3.15822 50.64 3.29247 50.6258 3.42403 50.5972C3.55597 50.5676 3.68466 50.525 3.8082 50.4699C3.81458 50.414 3.81951 50.3077 3.82328 50.1478C3.82706 49.9879 3.82996 49.8935 3.82996 49.8589C3.82996 49.6614 3.82212 49.5449 3.80471 49.5074C3.79547 49.4929 3.78316 49.4807 3.76866 49.4716C3.75417 49.4625 3.73784 49.4567 3.72086 49.4547C3.65093 49.4334 3.45507 49.4145 3.13619 49.3964V49.1465L4.05831 49.1596L4.98681 49.1465V49.3504C4.86668 49.3749 4.78921 49.4086 4.75033 49.4523C4.73321 49.4727 4.72132 49.5307 4.71668 49.6221C4.70623 49.8595 4.70304 50.0298 4.70304 50.1332C4.70296 50.2949 4.71207 50.4564 4.73031 50.617C4.3476 50.7559 4.01363 50.8566 3.72985 50.9126C3.44891 50.9701 3.16295 50.9993 2.87621 50.9999C2.41196 50.9999 2.00575 50.9216 1.64886 50.7655C1.41199 50.6614 1.19576 50.5153 1.01051 50.3342C0.843287 50.1721 0.707426 49.9803 0.609804 49.7686C0.460183 49.4404 0.385061 49.0829 0.389865 48.7219C0.389865 48.3981 0.437741 48.1159 0.534943 47.8733C0.626557 47.6387 0.761973 47.4239 0.933908 47.2404C1.10118 47.0623 1.29741 46.9139 1.51422 46.8018C1.7295 46.6904 1.95904 46.6092 2.19638 46.5607C2.45373 46.5099 2.71549 46.485 2.97777 46.4864C3.30529 46.4844 3.6321 46.5173 3.95269 46.5846C4.2562 46.6481 4.49093 46.7179 4.6569 46.7943L4.68331 46.8525C4.63427 47.0339 4.58901 47.3557 4.54664 47.8156Z" fill="#1D1D1B"/>
<path d="M7.27788 46.8148V46.5618C7.32547 46.5618 7.48941 46.567 7.77115 46.5769C7.90897 46.5813 8.10279 46.5845 8.35668 46.5845C8.57198 46.5845 8.7571 46.5784 8.90798 46.5696C9.16477 46.5577 9.376 46.5527 9.5411 46.5527C9.86288 46.5527 10.1066 46.5757 10.2645 46.6226C10.4296 46.6712 10.5741 46.7729 10.6759 46.9121C10.7899 47.0577 10.8436 47.2374 10.8436 47.4474C10.8455 47.6945 10.7645 47.9351 10.6135 48.1303C10.4594 48.3342 10.2218 48.4973 9.90263 48.617C9.95428 48.7084 10.0129 48.8037 10.0767 48.8989C10.1406 48.9941 10.1829 49.0533 10.1928 49.0736C10.2027 49.094 10.2163 49.1144 10.2291 49.1319L10.7058 49.8472C10.8358 50.0379 10.9019 50.1384 10.9135 50.1547C11.0673 50.3586 11.161 50.4797 11.197 50.517C11.2252 50.5489 11.2598 50.5744 11.2986 50.5918C11.3311 50.6081 11.3964 50.6157 11.4927 50.6169V50.8906C11.1758 50.8822 10.9469 50.8772 10.8059 50.8772C10.6405 50.8772 10.4766 50.8822 10.3155 50.8906C10.2986 50.8286 10.2738 50.7691 10.2415 50.7136L9.58114 49.6209C9.39341 49.3069 9.23295 49.0611 9.10151 48.8811C9.04684 48.8043 8.98158 48.7357 8.90769 48.6773L8.94396 48.5753C9.18827 48.5829 9.37716 48.557 9.50222 48.4985C9.62727 48.4399 9.73115 48.3342 9.81878 48.1825C9.90514 48.0266 9.94954 47.8509 9.94761 47.6725C9.94761 47.4815 9.90234 47.323 9.8124 47.1975C9.72964 47.077 9.61147 46.9853 9.47436 46.9354C9.38964 46.904 9.23586 46.8885 9.01418 46.8885C8.91601 46.889 8.81807 46.8979 8.72141 46.915C8.71387 46.9878 8.70893 47.1538 8.70284 47.416C8.69036 47.9999 8.68543 48.3901 8.68543 48.5867C8.68543 48.8974 8.68823 49.2255 8.69384 49.5711C8.70284 49.9966 8.70777 50.2374 8.71154 50.2957C8.71647 50.4121 8.72895 50.4879 8.74636 50.5211C8.75474 50.5399 8.76821 50.5559 8.78524 50.5674C8.81272 50.5844 8.84347 50.5954 8.87548 50.5997C8.91523 50.6087 9.03681 50.6148 9.2344 50.6175V50.8912C8.88273 50.8761 8.52352 50.8694 8.16605 50.8694C7.84688 50.8694 7.54802 50.8761 7.27527 50.8912V50.6175C7.50942 50.6096 7.64812 50.5997 7.69048 50.5834C7.71127 50.5802 7.73032 50.5699 7.74445 50.5543C7.75955 50.5274 7.76875 50.4976 7.77143 50.4669C7.79023 50.3463 7.79993 50.2244 7.80045 50.1023L7.82425 49.1974V48.0491L7.81206 47.3941C7.80712 47.1355 7.79581 46.9823 7.77318 46.9299C7.76327 46.9084 7.74772 46.8899 7.7282 46.8766C7.68323 46.8533 7.53032 46.8326 7.27788 46.8148Z" fill="#1D1D1B"/>
<path d="M13.7422 48.7786C13.7422 48.4 13.8003 48.0714 13.9137 47.7907C14.0212 47.5186 14.188 47.2742 14.4018 47.0751C14.6007 46.8882 14.8356 46.744 15.0921 46.6514C15.4281 46.5389 15.7804 46.4832 16.1346 46.4866C16.4804 46.4823 16.8245 46.5361 17.1527 46.6456C17.3728 46.7229 17.5762 46.8415 17.7522 46.995C17.9101 47.1264 18.0442 47.284 18.1489 47.461C18.2399 47.6246 18.3082 47.7999 18.352 47.982C18.4018 48.1878 18.4262 48.399 18.4248 48.6108C18.4275 48.9812 18.3585 49.3485 18.2217 49.6924C18.1242 49.9395 17.9767 50.1637 17.7885 50.3506C17.6039 50.5403 17.383 50.6906 17.1391 50.7924C16.8078 50.9334 16.425 51.0009 15.9982 51.0009C15.534 51.0009 15.1373 50.9171 14.8086 50.7499C14.4799 50.5848 14.2073 50.3257 14.0252 50.0052C13.8374 49.6758 13.7422 49.2664 13.7422 48.7786ZM14.6931 48.593C14.6931 49.0739 14.7595 49.4729 14.8884 49.7871C15.0172 50.1013 15.1884 50.3253 15.395 50.4537C15.6016 50.5822 15.8433 50.6494 16.123 50.6494C16.3677 50.6538 16.6087 50.5899 16.8194 50.4648C17.0225 50.3404 17.185 50.1299 17.3013 49.8363C17.4177 49.5427 17.4737 49.1816 17.4737 48.7588C17.4769 48.492 17.4454 48.226 17.3799 47.9675C17.3272 47.7491 17.236 47.542 17.1107 47.3559C17.0039 47.1972 16.8623 47.0653 16.6966 46.9703C16.5365 46.8816 16.3251 46.8372 16.0626 46.8372C15.762 46.8372 15.5063 46.9084 15.2955 47.0507C15.0846 47.193 14.9315 47.4019 14.8361 47.6774C14.7373 47.9723 14.6889 48.2819 14.6931 48.593Z" fill="#1D1D1B"/>
<path d="M20.4896 46.8181V46.5618L21.4932 46.5845L21.9084 46.577L22.3248 46.5659L22.4409 46.5618V46.8181C22.2183 46.8181 22.0782 46.8382 22.0178 46.8763C22.0006 46.8891 21.9862 46.9052 21.9755 46.9238C21.9648 46.9424 21.9581 46.9631 21.9557 46.9844C21.9267 47.1125 21.9128 47.3956 21.9128 47.829V48.5483L21.918 48.9106C21.918 49.2875 21.9203 49.5222 21.9279 49.6096C21.9485 49.805 21.9958 49.959 22.0729 50.0787C22.1501 50.1984 22.2694 50.2931 22.4324 50.3665C22.5955 50.4399 22.7998 50.4754 23.0476 50.4754C23.3325 50.4754 23.5617 50.4268 23.7294 50.3298C23.8972 50.2328 24.0219 50.1035 24.0924 49.9471C24.1629 49.7907 24.1998 49.4913 24.1998 49.053V48.4213C24.1998 47.8764 24.1998 47.545 24.1972 47.4253C24.1899 47.1647 24.1786 47.0086 24.1548 46.9553C24.1405 46.9225 24.1153 46.8957 24.0834 46.8795C24.0161 46.844 23.867 46.8248 23.6395 46.8178V46.5615C24.0121 46.5767 24.2311 46.5842 24.3025 46.5842C24.3214 46.5842 24.3486 46.5828 24.3849 46.5799L25.0694 46.5615V46.8178C24.8793 46.8178 24.7578 46.8335 24.7102 46.865C24.6796 46.8883 24.6579 46.9214 24.6487 46.9588C24.6353 47.0054 24.6196 47.2139 24.6051 47.5843C24.5906 47.9548 24.5831 48.2498 24.5831 48.4639V49.1919C24.5823 49.3848 24.5687 49.5775 24.5425 49.7686C24.5261 49.9441 24.4727 50.1141 24.3858 50.2673C24.2989 50.4205 24.1805 50.5534 24.0385 50.6571C23.8799 50.7748 23.7006 50.8614 23.5101 50.9125C23.2796 50.9738 23.0419 51.0032 22.8036 50.9999C22.5069 51.0016 22.2116 50.9587 21.9276 50.8726C21.7521 50.8224 21.5881 50.7381 21.445 50.6245C21.3257 50.5295 21.2276 50.4104 21.1569 50.275C21.0947 50.1592 21.0541 50.033 21.0371 49.9025C21.0284 49.8289 21.0205 49.6279 21.0205 49.3026L21.0243 48.707V47.9207C21.0243 47.6321 21.0205 47.3717 21.0104 47.1399C21.0086 47.0721 20.9956 47.0051 20.9718 46.9416C20.9522 46.9098 20.9263 46.8824 20.8958 46.8609L20.4896 46.8181Z" fill="#1D1D1B"/>
<path d="M27.7272 46.8184V46.5621L28.6383 46.5848L30.0168 46.5557C30.2861 46.5557 30.4997 46.5848 30.6552 46.6392C30.8158 46.6985 30.9556 46.8038 31.0571 46.9421C31.1696 47.0895 31.2248 47.2794 31.2248 47.5129C31.2268 47.7394 31.1717 47.9627 31.0646 48.1621C30.9555 48.363 30.7881 48.527 30.5577 48.6554C30.334 48.7835 30.0808 48.8506 29.8233 48.85C29.7574 48.85 29.6919 48.8453 29.6306 48.8395C29.5694 48.8337 29.5044 48.8206 29.4432 48.8066C29.4134 48.7301 29.3765 48.6566 29.3329 48.587L29.3956 48.5183C29.4432 48.5311 29.4847 48.543 29.5256 48.5509C29.5615 48.5575 29.5979 48.5611 29.6344 48.5617C29.7271 48.5643 29.8192 48.5467 29.9044 48.5101C29.9895 48.4734 30.0657 48.4186 30.1277 48.3494C30.2574 48.2075 30.3224 48.0025 30.3224 47.7314C30.3224 47.4495 30.2524 47.2363 30.1175 47.0947C29.9826 46.9532 29.7931 46.8804 29.5517 46.8804C29.4223 46.8818 29.2934 46.8959 29.1667 46.9223C29.1557 47.051 29.1493 47.2366 29.1467 47.4835L29.138 48.0913V49.2632C29.138 49.5533 29.1429 49.8526 29.1528 50.1611C29.1603 50.3411 29.1705 50.4544 29.1864 50.5022C29.196 50.5229 29.2102 50.5413 29.2279 50.5557C29.26 50.5763 29.2965 50.5889 29.3344 50.5924L29.7499 50.6186V50.8924C29.2228 50.8773 28.8262 50.87 28.5603 50.8706C28.2701 50.8706 27.9898 50.8773 27.7258 50.8924V50.6186C27.9524 50.616 28.0975 50.5983 28.1564 50.5671C28.1758 50.5579 28.191 50.5415 28.1987 50.5214C28.2124 50.4922 28.2277 50.4162 28.2335 50.2942C28.2576 49.9645 28.2678 49.5976 28.2678 49.1925V48.1001L28.2524 47.5176C28.2489 47.2683 28.244 47.1128 28.2391 47.0516C28.2364 47.0059 28.2266 46.9609 28.21 46.9182C28.1992 46.8999 28.1835 46.8849 28.1648 46.8749C28.1324 46.8576 28.0972 46.8465 28.0609 46.8419L27.7272 46.8184Z" fill="#1D1D1B"/>
<path d="M23.0592 5.4904L26.7152 2.56934C26.7152 2.56934 24.9023 4.46235 24.9023 6.84259V31.9541C24.9023 32.7404 26.0023 33.8928 26.0023 33.8928L23.0604 33.8468L23.0592 5.4904Z" fill="url(#paint2_linear_3774_40565)"/>
<path d="M23.0635 5.49593L26.7201 2.56934H4.71869L8.3822 5.48748L23.0635 5.49593Z" fill="url(#paint3_linear_3774_40565)"/>
<path d="M21.2321 7.00688H10.2113L8.3822 5.49072H23.0589L21.2321 7.00688Z" fill="url(#paint4_linear_3774_40565)"/>
<path d="M15.7177 4.76048L11.3256 0H15.738L15.7177 4.76048Z" fill="url(#paint5_linear_3774_40565)"/>
<path d="M15.7177 4.76048L20.1344 0H15.711L15.7177 4.76048Z" fill="url(#paint6_linear_3774_40565)"/>
<path d="M11.3145 33.8882C11.3145 33.8882 10.2073 32.7413 10.2073 31.9544C10.2073 31.3635 10.2174 6.9996 10.2174 6.9996L8.3822 5.49072V33.8567L11.3145 33.8882Z" fill="url(#paint7_linear_3774_40565)"/>
<path d="M15.722 5.49072L13.8844 7.00688C13.8844 7.00688 13.8807 31.4599 13.8807 31.9544C13.8807 32.7407 12.7888 33.8931 12.7888 33.8931L15.722 33.8471V5.49072Z" fill="url(#paint8_radial_3774_40565)"/>
<path d="M15.722 33.8471L18.6503 33.8882C18.6503 33.8882 17.5596 32.7372 17.5596 31.9544C17.5596 30.4045 17.5529 6.9996 17.5529 7.0028L15.711 5.49072L15.722 33.8471Z" fill="url(#paint9_linear_3774_40565)"/>
<path d="M11.3145 0L15.711 0.738565L20.1263 0H11.3145Z" fill="#7D1206"/>
<path d="M21.226 7.0028V31.9544C21.226 32.7407 20.1344 33.8882 20.1344 33.8882L23.0592 33.8471V5.49072L21.226 7.0028Z" fill="url(#paint10_radial_3774_40565)"/>
<path d="M8.38597 5.4904L4.71869 2.56934C4.71869 2.56934 6.54377 4.46235 6.54377 6.84259V31.9541C6.54377 32.7404 5.44118 33.8879 5.44118 33.8879H5.49225L8.38685 33.8468L8.38597 5.4904Z" fill="url(#paint11_radial_3774_40565)"/>
<path d="M11.3145 33.8886L8.38222 32.7915L5.44061 33.8854L11.3145 33.8886Z" fill="#881002"/>
<path d="M18.65 33.8886L15.722 32.7915L12.7888 33.8932L18.65 33.8886Z" fill="#881002"/>
<path d="M26.0011 33.8932L23.0676 32.7915L20.1344 33.8886L26.0011 33.8932Z" fill="#881002"/>
</g>
<defs>
<linearGradient id="paint0_linear_3774_40565" x1="6.91699" y1="45.0909" x2="10.4328" y2="42.0787" gradientUnits="userSpaceOnUse">
<stop stop-color="#CC673D"/>
<stop offset="0.07" stop-color="#CE6C42"/>
<stop offset="0.17" stop-color="#D57952"/>
<stop offset="0.27" stop-color="#E08F6B"/>
<stop offset="0.34" stop-color="#EAA483"/>
<stop offset="0.53" stop-color="#E89E7D"/>
<stop offset="0.79" stop-color="#E18C6B"/>
<stop offset="1" stop-color="#DA7957"/>
</linearGradient>
<linearGradient id="paint1_linear_3774_40565" x1="24.4088" y1="44.0978" x2="20.8879" y2="47.1151" gradientUnits="userSpaceOnUse">
<stop stop-color="#CC673D"/>
<stop offset="0.07" stop-color="#CE6C42"/>
<stop offset="0.17" stop-color="#D57952"/>
<stop offset="0.27" stop-color="#E08F6B"/>
<stop offset="0.34" stop-color="#EAA483"/>
<stop offset="0.53" stop-color="#E89E7D"/>
<stop offset="0.79" stop-color="#E18C6B"/>
<stop offset="1" stop-color="#DA7957"/>
</linearGradient>
<linearGradient id="paint2_linear_3774_40565" x1="24.9781" y1="3.78462" x2="24.9781" y2="46.5636" gradientUnits="userSpaceOnUse">
<stop stop-color="#EF7E25"/>
<stop offset="0.07" stop-color="#D4641F"/>
<stop offset="0.15" stop-color="#BE501A"/>
<stop offset="0.25" stop-color="#AD4016"/>
<stop offset="0.37" stop-color="#A23413"/>
<stop offset="0.54" stop-color="#9B2E11"/>
<stop offset="1" stop-color="#992C11"/>
</linearGradient>
<linearGradient id="paint3_linear_3774_40565" x1="15.7675" y1="2.71588" x2="15.7675" y2="6.71241" gradientUnits="userSpaceOnUse">
<stop stop-color="#E37244"/>
<stop offset="0.08" stop-color="#D7663B"/>
<stop offset="0.29" stop-color="#BF4D29"/>
<stop offset="0.5" stop-color="#AE3C1D"/>
<stop offset="0.73" stop-color="#A33115"/>
<stop offset="1" stop-color="#A02E13"/>
</linearGradient>
<linearGradient id="paint4_linear_3774_40565" x1="8.41173" y1="6.29506" x2="23.1254" y2="6.29506" gradientUnits="userSpaceOnUse">
<stop stop-color="#C3550F"/>
<stop offset="0.14" stop-color="#D27034"/>
<stop offset="0.31" stop-color="#E2905F"/>
<stop offset="0.4" stop-color="#E99C70"/>
<stop offset="0.62" stop-color="#D37746"/>
<stop offset="0.93" stop-color="#B5430A"/>
</linearGradient>
<linearGradient id="paint5_linear_3774_40565" x1="15.9471" y1="3.78254" x2="10.0261" y2="-5.51063" gradientUnits="userSpaceOnUse">
<stop stop-color="#F39C74"/>
<stop offset="0.14" stop-color="#E4855E"/>
<stop offset="0.33" stop-color="#D46C48"/>
<stop offset="0.53" stop-color="#C85B38"/>
<stop offset="0.75" stop-color="#C1502E"/>
<stop offset="1" stop-color="#BF4D2B"/>
</linearGradient>
<linearGradient id="paint6_linear_3774_40565" x1="17.9761" y1="0.813994" x2="17.9761" y2="4.71238" gradientUnits="userSpaceOnUse">
<stop stop-color="#E37244"/>
<stop offset="0.08" stop-color="#D7663B"/>
<stop offset="0.29" stop-color="#BF4D29"/>
<stop offset="0.5" stop-color="#AE3C1D"/>
<stop offset="0.73" stop-color="#A33115"/>
<stop offset="1" stop-color="#A02E13"/>
</linearGradient>
<linearGradient id="paint7_linear_3774_40565" x1="9.90206" y1="6.60387" x2="9.90206" y2="45.3869" gradientUnits="userSpaceOnUse">
<stop stop-color="#EF7E25"/>
<stop offset="0.07" stop-color="#D4641F"/>
<stop offset="0.15" stop-color="#BE501A"/>
<stop offset="0.25" stop-color="#AD4016"/>
<stop offset="0.37" stop-color="#A23413"/>
<stop offset="0.54" stop-color="#9B2E11"/>
<stop offset="1" stop-color="#992C11"/>
</linearGradient>
<radialGradient id="paint8_radial_3774_40565" cx="0" cy="0" r="1" gradientUnits="userSpaceOnUse" gradientTransform="translate(10.3807 7.09999) scale(33.8484 33.9739)">
<stop stop-color="#CA5C2A"/>
<stop offset="0.11" stop-color="#D36F3E"/>
<stop offset="0.31" stop-color="#E99C70"/>
<stop offset="0.67" stop-color="#C96843"/>
</radialGradient>
<linearGradient id="paint9_linear_3774_40565" x1="17.2527" y1="6.60387" x2="17.2527" y2="45.3869" gradientUnits="userSpaceOnUse">
<stop stop-color="#EF7E25"/>
<stop offset="0.07" stop-color="#D4641F"/>
<stop offset="0.15" stop-color="#BE501A"/>
<stop offset="0.25" stop-color="#AD4016"/>
<stop offset="0.37" stop-color="#A23413"/>
<stop offset="0.54" stop-color="#9B2E11"/>
<stop offset="1" stop-color="#992C11"/>
</linearGradient>
<radialGradient id="paint10_radial_3774_40565" cx="0" cy="0" r="1" gradientUnits="userSpaceOnUse" gradientTransform="translate(17.6124 7.06092) scale(33.9129 34.0387)">
<stop stop-color="#CA5C2A"/>
<stop offset="0.11" stop-color="#D36F3E"/>
<stop offset="0.31" stop-color="#E99C70"/>
<stop offset="0.67" stop-color="#C96843"/>
</radialGradient>
<radialGradient id="paint11_radial_3774_40565" cx="0" cy="0" r="1" gradientUnits="userSpaceOnUse" gradientTransform="translate(3.059 6.97124) scale(34.0319 34.1581)">
<stop stop-color="#CA5C2A"/>
<stop offset="0.11" stop-color="#D36F3E"/>
<stop offset="0.31" stop-color="#E99C70"/>
<stop offset="0.67" stop-color="#C96843"/>
</radialGradient>
<clipPath id="clip0_3774_40565">
<rect width="31" height="51" fill="white" transform="translate(0.25)"/>
</clipPath>
</defs>
</svg>
