<svg width="371" height="801" viewBox="0 0 371 801" fill="none" xmlns="http://www.w3.org/2000/svg">
    <g filter="url(#filter0_d_742_21426)">
        <path
            d="M7 718.136C16.2064 721.028 24.7 725.971 31.8928 732.623C39.0855 739.275 44.8056 747.477 48.6571 756.661C49.3218 758.219 50.4073 759.542 51.7811 760.468C53.1548 761.394 54.7574 761.884 56.3934 761.877H65.3928C67.6153 761.877 69.7468 762.797 71.3184 764.435C72.8899 766.074 73.7728 768.295 73.7728 770.612V773.562C73.7721 774.708 73.9867 775.844 74.4043 776.904C74.8423 777.953 75.4549 778.914 76.2139 779.74C79.0072 782.576 82.5657 780.158 84.7154 782.272C87.4115 784.931 83.9988 791.274 86.7193 793.4C87.5628 793.948 88.5786 794.13 89.5491 793.907H281.439C282.413 794.13 283.433 793.948 284.281 793.4C287.001 791.274 283.576 784.931 286.272 782.272C288.374 780.183 291.944 782.601 294.774 779.74C295.534 778.912 296.151 777.952 296.596 776.904C297.013 775.844 297.228 774.708 297.227 773.562V770.612C297.227 768.298 298.108 766.078 299.677 764.44C301.246 762.802 303.375 761.88 305.595 761.877H314.595C316.231 761.885 317.834 761.397 319.208 760.47C320.582 759.544 321.667 758.22 322.331 756.661C326.188 747.478 331.911 739.278 339.105 732.626C346.3 725.975 354.793 721.031 364 718.136V82.864C354.791 79.9751 346.294 75.0334 339.099 68.3812C331.904 61.7291 326.182 53.5255 322.331 44.3392C321.667 42.78 320.582 41.4561 319.208 40.5298C317.834 39.6034 316.231 39.1146 314.595 39.1233H305.595C303.377 39.1199 301.25 38.1999 299.682 36.5647C298.113 34.9296 297.23 32.7128 297.227 30.4004V27.438C297.226 26.2918 297.012 25.1567 296.596 24.0957C296.151 23.0475 295.534 22.0879 294.774 21.2599C291.993 18.4366 288.422 20.8421 286.272 18.7278C283.576 16.0692 287.001 9.72644 284.281 7.61221C283.436 7.05529 282.415 6.86877 281.439 7.09317H89.5491C89.0678 6.9817 88.5702 6.97011 88.0846 7.05917C87.5991 7.14824 87.1351 7.33617 86.7193 7.61221C83.9988 9.72644 87.4115 16.0692 84.7154 18.7278C82.6143 20.8167 79.0558 18.4113 76.2139 21.2599C75.4549 22.0865 74.8423 23.0465 74.4043 24.0957C73.9885 25.1567 73.774 26.2918 73.7728 27.438V30.4004C73.7696 32.715 72.8853 34.9337 71.3141 36.5691C69.7429 38.2046 67.6132 39.1233 65.3928 39.1233H56.3934C54.7574 39.1162 53.1548 39.6056 51.7811 40.5318C50.4073 41.458 49.3218 42.7809 48.6571 44.3392C44.8105 53.5265 39.092 61.7312 31.8985 68.3838C24.7051 75.0363 16.209 79.9774 7 82.864V718.136Z"
            fill="url(#paint0_linear_742_21426)" shape-rendering="crispEdges" />
        <path
            d="M7 718.136C16.2064 721.028 24.7 725.971 31.8928 732.623C39.0855 739.275 44.8056 747.477 48.6571 756.661C49.3218 758.219 50.4073 759.542 51.7811 760.468C53.1548 761.394 54.7574 761.884 56.3934 761.877H65.3928C67.6153 761.877 69.7468 762.797 71.3184 764.435C72.8899 766.074 73.7728 768.295 73.7728 770.612V773.562C73.7721 774.708 73.9867 775.844 74.4043 776.904C74.8423 777.953 75.4549 778.914 76.2139 779.74C79.0072 782.576 82.5657 780.158 84.7154 782.272C87.4115 784.931 83.9988 791.274 86.7193 793.4C87.5628 793.948 88.5786 794.13 89.5491 793.907H281.439C282.413 794.13 283.433 793.948 284.281 793.4C287.001 791.274 283.576 784.931 286.272 782.272C288.374 780.183 291.944 782.601 294.774 779.74C295.534 778.912 296.151 777.952 296.596 776.904C297.013 775.844 297.228 774.708 297.227 773.562V770.612C297.227 768.298 298.108 766.078 299.677 764.44C301.246 762.802 303.375 761.88 305.595 761.877H314.595C316.231 761.885 317.834 761.397 319.208 760.47C320.582 759.544 321.667 758.22 322.331 756.661C326.188 747.478 331.911 739.278 339.105 732.626C346.3 725.975 354.793 721.031 364 718.136V82.864C354.791 79.9751 346.294 75.0334 339.099 68.3812C331.904 61.7291 326.182 53.5255 322.331 44.3392C321.667 42.78 320.582 41.4561 319.208 40.5298C317.834 39.6034 316.231 39.1146 314.595 39.1233H305.595C303.377 39.1199 301.25 38.1999 299.682 36.5647C298.113 34.9296 297.23 32.7128 297.227 30.4004V27.438C297.226 26.2918 297.012 25.1567 296.596 24.0957C296.151 23.0475 295.534 22.0879 294.774 21.2599C291.993 18.4366 288.422 20.8421 286.272 18.7278C283.576 16.0692 287.001 9.72644 284.281 7.61221C283.436 7.05529 282.415 6.86877 281.439 7.09317H89.5491C89.0678 6.9817 88.5702 6.97011 88.0846 7.05917C87.5991 7.14824 87.1351 7.33617 86.7193 7.61221C83.9988 9.72644 87.4115 16.0692 84.7154 18.7278C82.6143 20.8167 79.0558 18.4113 76.2139 21.2599C75.4549 22.0865 74.8423 23.0465 74.4043 24.0957C73.9885 25.1567 73.774 26.2918 73.7728 27.438V30.4004C73.7696 32.715 72.8853 34.9337 71.3141 36.5691C69.7429 38.2046 67.6132 39.1233 65.3928 39.1233H56.3934C54.7574 39.1162 53.1548 39.6056 51.7811 40.5318C50.4073 41.458 49.3218 42.7809 48.6571 44.3392C44.8105 53.5265 39.092 61.7312 31.8985 68.3838C24.7051 75.0363 16.209 79.9774 7 82.864V718.136Z"
            stroke="white" stroke-width="5" stroke-miterlimit="10" shape-rendering="crispEdges" />
    </g>
    <g filter="url(#filter1_d_742_21426)">
        <path
            d="M19 706.835C27.5875 709.624 35.5101 714.391 42.2193 720.807C48.9285 727.222 54.264 735.132 57.8566 743.989C58.4767 745.492 59.4892 746.768 60.7706 747.661C62.052 748.555 63.5468 749.026 65.0728 749.02H73.4673C75.5404 749.02 77.5285 749.907 78.9944 751.487C80.4603 753.067 81.2838 755.21 81.2838 757.444V760.289C81.2832 761.395 81.4834 762.49 81.8729 763.513C82.2815 764.524 82.8529 765.45 83.5609 766.247C86.1664 768.982 89.4857 766.65 91.4908 768.689C94.0057 771.253 90.8224 777.371 93.36 779.422C94.1468 779.95 95.0943 780.126 95.9996 779.91H274.989C275.898 780.125 276.849 779.95 277.64 779.422C280.178 777.371 276.983 771.253 279.498 768.689C281.458 766.675 284.788 769.007 287.428 766.247C288.137 765.449 288.712 764.523 289.127 763.513C289.517 762.49 289.717 761.395 289.716 760.289V757.444C289.716 755.212 290.538 753.071 292.002 751.492C293.465 749.912 295.45 749.023 297.521 749.02H305.916C307.442 749.028 308.938 748.557 310.219 747.663C311.501 746.77 312.513 745.493 313.132 743.989C316.73 735.133 322.068 727.225 328.779 720.81C335.49 714.395 343.412 709.627 352 706.835V94.1649C343.41 91.3788 335.484 86.6129 328.773 80.1974C322.061 73.7819 316.725 65.8703 313.132 57.0108C312.513 55.507 311.501 54.2303 310.219 53.3368C308.938 52.4434 307.442 51.972 305.916 51.9804H297.521C295.452 51.9771 293.469 51.0898 292.006 49.5129C290.542 47.9359 289.719 45.798 289.716 43.5679V40.7108C289.715 39.6054 289.515 38.5108 289.127 37.4875C288.712 36.4765 288.137 35.5511 287.428 34.7525C284.834 32.0297 281.503 34.3496 279.498 32.3106C276.983 29.7465 280.178 23.6294 277.64 21.5904C276.852 21.0533 275.899 20.8734 274.989 21.0899H95.9996C95.5507 20.9823 95.0865 20.9712 94.6336 21.0571C94.1807 21.143 93.7479 21.3242 93.36 21.5904C90.8224 23.6294 94.0057 29.7465 91.4908 32.3106C89.531 34.3252 86.2117 32.0053 83.5609 34.7525C82.8529 35.5497 82.2815 36.4756 81.8729 37.4875C81.485 38.5108 81.285 39.6054 81.2838 40.7108V43.5679C81.2808 45.8001 80.456 47.9398 78.9904 49.5171C77.5248 51.0944 75.5384 51.9804 73.4673 51.9804H65.0728C63.5468 51.9736 62.052 52.4456 60.7706 53.3388C59.4892 54.2321 58.4767 55.5079 57.8566 57.0108C54.2686 65.8712 48.9345 73.784 42.2247 80.1999C35.5148 86.6157 27.5899 91.381 19 94.1649V706.835Z"
            stroke="white" stroke-width="3" stroke-miterlimit="10" shape-rendering="crispEdges" />
    </g>
    <defs>
        <filter id="filter0_d_742_21426" x="0.5" y="0.5" width="370" height="800" filterUnits="userSpaceOnUse"
            color-interpolation-filters="sRGB">
            <feFlood flood-opacity="0" result="BackgroundImageFix" />
            <feColorMatrix in="SourceAlpha" type="matrix" values="0 0 0 0 0 0 0 0 0 0 0 0 0 0 0 0 0 0 127 0"
                result="hardAlpha" />
            <feOffset />
            <feGaussianBlur stdDeviation="2" />
            <feComposite in2="hardAlpha" operator="out" />
            <feColorMatrix type="matrix" values="0 0 0 0 0 0 0 0 0 0 0 0 0 0 0 0 0 0 0.25 0" />
            <feBlend mode="normal" in2="BackgroundImageFix" result="effect1_dropShadow_742_21426" />
            <feBlend mode="normal" in="SourceGraphic" in2="effect1_dropShadow_742_21426" result="shape" />
        </filter>
        <filter id="filter1_d_742_21426" x="13.5" y="15.5" width="344" height="770" filterUnits="userSpaceOnUse"
            color-interpolation-filters="sRGB">
            <feFlood flood-opacity="0" result="BackgroundImageFix" />
            <feColorMatrix in="SourceAlpha" type="matrix" values="0 0 0 0 0 0 0 0 0 0 0 0 0 0 0 0 0 0 127 0"
                result="hardAlpha" />
            <feOffset />
            <feGaussianBlur stdDeviation="2" />
            <feComposite in2="hardAlpha" operator="out" />
            <feColorMatrix type="matrix" values="0 0 0 0 0 0 0 0 0 0 0 0 0 0 0 0 0 0 0.25 0" />
            <feBlend mode="normal" in2="BackgroundImageFix" result="effect1_dropShadow_742_21426" />
            <feBlend mode="normal" in="SourceGraphic" in2="effect1_dropShadow_742_21426" result="shape" />
        </filter>
        <linearGradient id="paint0_linear_742_21426" x1="185.5" y1="-278" x2="185.5" y2="959.5"
            gradientUnits="userSpaceOnUse">
            <stop stop-color="white" />
            <stop offset="0.244" stop-color="#E9A49B" />
            <stop offset="0.8" stop-color="#FFBBD2" />
            <stop offset="0.9" stop-color="white" />
            <stop offset="1" stop-color="#443835" stop-opacity="0.5" />
        </linearGradient>
    </defs>
</svg>