<svg width="345" height="766" viewBox="0 0 345 766" fill="none" xmlns="http://www.w3.org/2000/svg">
<g opacity="0.7" filter="url(#filter0_d_435_13690)">
<path d="M11.6567 760C9.80847 759.103 7.92087 758.311 6 757.628V86.1836C14.5899 83.1326 22.5148 77.9103 29.2247 70.8789C35.9345 63.8476 41.2686 55.1757 44.8566 45.4653C45.4767 43.8183 46.4892 42.42 47.7706 41.4411C49.052 40.4622 50.5468 39.9449 52.0728 39.9523H60.4673C62.5384 39.9523 64.5248 38.9814 65.9904 37.2528C67.456 35.5242 68.2808 33.1792 68.2838 30.7328V27.6017C68.285 26.3903 68.485 25.1906 68.8729 24.0691C69.2815 22.9602 69.8529 21.9455 70.5609 21.0718C71.9889 19.4499 73.6109 19.4395 75.1098 19.4299C76.3934 19.4217 77.5867 19.4141 78.4908 18.3956C79.7504 16.9882 79.5806 14.6041 79.4161 12.2939C79.2521 9.99145 79.0934 7.76248 80.36 6.64706C80.7479 6.35531 81.1807 6.15668 81.6336 6.06254C82.0865 5.96841 82.5507 5.98065 82.9996 6.09848H261.989C262.899 5.86129 263.852 6.05844 264.64 6.64706C265.907 7.76241 265.745 9.99115 265.578 12.2934C265.411 14.6038 265.238 16.9881 266.498 18.3956C267.428 19.4322 268.643 19.4409 269.938 19.4501C271.435 19.4607 273.037 19.4721 274.428 21.0718C275.137 21.947 275.712 22.9612 276.127 24.0691C276.515 25.1906 276.715 26.3903 276.716 27.6017V30.7328C276.719 33.1769 277.542 35.5199 279.006 37.2481C280.469 38.9763 282.452 39.9488 284.521 39.9523H292.916C294.442 39.9432 295.938 40.4598 297.219 41.4389C298.501 42.418 299.513 43.8172 300.132 45.4653C303.725 55.1747 309.061 63.8453 315.773 70.8762C322.484 77.9072 330.41 83.1302 339 86.1836V757.628C337.08 758.311 335.194 759.104 333.347 760H11.6567Z" fill="url(#paint0_linear_435_13690)"/>
<path d="M11.6567 760C9.80847 759.103 7.92087 758.311 6 757.628V86.1836C14.5899 83.1326 22.5148 77.9103 29.2247 70.8789C35.9345 63.8476 41.2686 55.1757 44.8566 45.4653C45.4767 43.8183 46.4892 42.42 47.7706 41.4411C49.052 40.4622 50.5468 39.9449 52.0728 39.9523H60.4673C62.5384 39.9523 64.5248 38.9814 65.9904 37.2528C67.456 35.5242 68.2808 33.1792 68.2838 30.7328V27.6017C68.285 26.3903 68.485 25.1906 68.8729 24.0691C69.2815 22.9602 69.8529 21.9455 70.5609 21.0718C71.9889 19.4499 73.6109 19.4395 75.1098 19.4299C76.3934 19.4217 77.5867 19.4141 78.4908 18.3956C79.7504 16.9882 79.5806 14.6041 79.4161 12.2939C79.2521 9.99145 79.0934 7.76248 80.36 6.64706C80.7479 6.35531 81.1807 6.15668 81.6336 6.06254C82.0865 5.96841 82.5507 5.98065 82.9996 6.09848H261.989C262.899 5.86129 263.852 6.05844 264.64 6.64706C265.907 7.76241 265.745 9.99115 265.578 12.2934C265.411 14.6038 265.238 16.9881 266.498 18.3956C267.428 19.4322 268.643 19.4409 269.938 19.4501C271.435 19.4607 273.037 19.4721 274.428 21.0718C275.137 21.947 275.712 22.9612 276.127 24.0691C276.515 25.1906 276.715 26.3903 276.716 27.6017V30.7328C276.719 33.1769 277.542 35.5199 279.006 37.2481C280.469 38.9763 282.452 39.9488 284.521 39.9523H292.916C294.442 39.9432 295.938 40.4598 297.219 41.4389C298.501 42.418 299.513 43.8172 300.132 45.4653C303.725 55.1747 309.061 63.8453 315.773 70.8762C322.484 77.9072 330.41 83.1302 339 86.1836V757.628C337.08 758.311 335.194 759.104 333.347 760H11.6567Z" stroke="white" stroke-width="3" stroke-miterlimit="10"/>
</g>
<defs>
<filter id="filter0_d_435_13690" x="0.5" y="0.5" width="344" height="765" filterUnits="userSpaceOnUse" color-interpolation-filters="sRGB">
<feFlood flood-opacity="0" result="BackgroundImageFix"/>
<feColorMatrix in="SourceAlpha" type="matrix" values="0 0 0 0 0 0 0 0 0 0 0 0 0 0 0 0 0 0 127 0" result="hardAlpha"/>
<feOffset/>
<feGaussianBlur stdDeviation="2"/>
<feComposite in2="hardAlpha" operator="out"/>
<feColorMatrix type="matrix" values="0 0 0 0 0 0 0 0 0 0 0 0 0 0 0 0 0 0 0.25 0"/>
<feBlend mode="normal" in2="BackgroundImageFix" result="effect1_dropShadow_435_13690"/>
<feBlend mode="normal" in="SourceGraphic" in2="effect1_dropShadow_435_13690" result="shape"/>
</filter>
<linearGradient id="paint0_linear_435_13690" x1="172.5" y1="6" x2="172.5" y2="1514.55" gradientUnits="userSpaceOnUse">
<stop stop-color="white"/>
<stop offset="0.64" stop-color="#E9A39B"/>
<stop offset="1" stop-color="#AA8B84"/>
</linearGradient>
</defs>
</svg>
