<svg width="377" height="805" viewBox="0 0 377 805" fill="none" xmlns="http://www.w3.org/2000/svg">
<g opacity="0.7" filter="url(#filter0_d_742_21430)">
<path d="M6 722.558C15.4128 725.472 24.0967 730.452 31.4506 737.155C38.8045 743.858 44.6528 752.122 48.5906 761.376C49.2702 762.946 50.3801 764.279 51.7846 765.213C53.1891 766.146 54.8276 766.639 56.5002 766.632H65.7013C67.9737 766.632 70.1529 767.559 71.7597 769.21C73.3664 770.861 74.2691 773.099 74.2691 775.434V778.406C74.2684 779.561 74.4878 780.705 74.9148 781.774C75.3626 782.831 75.9889 783.799 76.7649 784.631C79.6208 787.489 83.2591 785.052 85.4569 787.183C88.2135 789.862 84.7243 796.253 87.5057 798.396C88.3681 798.948 89.4067 799.131 90.3989 798.906H286.589C287.585 799.13 288.627 798.947 289.494 798.396C292.276 796.253 288.774 789.862 291.531 787.183C293.679 785.078 297.329 787.514 300.223 784.631C301 783.797 301.63 782.83 302.085 781.774C302.512 780.705 302.732 779.561 302.731 778.406V775.434C302.731 773.102 303.632 770.865 305.236 769.214C306.84 767.564 309.016 766.635 311.286 766.632H320.487C322.16 766.641 323.8 766.148 325.204 765.215C326.609 764.281 327.719 762.947 328.397 761.376C332.34 752.124 338.192 743.861 345.548 737.159C352.903 730.456 361.587 725.475 371 722.558V82.4423C361.584 79.5315 352.897 74.5521 345.541 67.8492C338.185 61.1463 332.335 52.8802 328.397 43.6239C327.719 42.0527 326.609 40.7188 325.204 39.7854C323.8 38.8519 322.16 38.3594 320.487 38.3682H311.286C309.018 38.3648 306.844 37.4377 305.24 35.7901C303.637 34.1425 302.734 31.9089 302.731 29.5788V26.5938C302.73 25.4389 302.51 24.2952 302.085 23.226C301.63 22.1698 301 21.2029 300.223 20.3686C297.379 17.5238 293.728 19.9476 291.531 17.8172C288.774 15.1383 292.276 8.74723 289.494 6.61687C288.631 6.05572 287.586 5.86777 286.589 6.09388H90.3989C89.9069 5.98156 89.3981 5.96988 88.9017 6.05963C88.4052 6.14937 87.9309 6.33873 87.5057 6.61687C84.7243 8.74723 88.2135 15.1383 85.4569 17.8172C83.3087 19.9221 79.6705 17.4983 76.7649 20.3686C75.9889 21.2015 75.3626 22.1689 74.9148 23.226C74.4896 24.2952 74.2703 25.4389 74.2691 26.5938V29.5788C74.2658 31.9111 73.3617 34.1466 71.7553 35.7946C70.1488 37.4425 67.9715 38.3682 65.7013 38.3682H56.5002C54.8276 38.361 53.1891 38.8542 51.7846 39.7875C50.3801 40.7207 49.2702 42.0537 48.5906 43.6239C44.6577 52.8813 38.8111 61.1485 31.4565 67.8518C24.1018 74.555 15.4154 79.5337 6 82.4423V722.558Z" stroke="white" stroke-width="3" stroke-miterlimit="10" shape-rendering="crispEdges"/>
</g>
<g opacity="0.7" filter="url(#filter1_d_742_21430)">
<path d="M27.6567 716C25.8085 715.182 23.9209 714.459 22 713.835V101.165C30.5899 98.381 38.5148 93.6157 45.2247 87.1999C51.9345 80.784 57.2686 72.8712 60.8566 64.0108C61.4767 62.5079 62.4892 61.2321 63.7706 60.3388C65.052 59.4456 66.5468 58.9736 68.0728 58.9804H76.4673C78.5384 58.9804 80.5248 58.0944 81.9904 56.5171C83.456 54.9398 84.2808 52.8001 84.2838 50.5679V47.7108C84.285 46.6054 84.485 45.5108 84.8729 44.4875C85.2815 43.4756 85.8529 42.5497 86.5609 41.7525C87.9889 40.2726 89.6109 40.2631 91.1098 40.2544C92.3934 40.2469 93.5867 40.2399 94.4908 39.3106C95.7504 38.0264 95.5806 35.8509 95.4161 33.7429C95.2521 31.6421 95.0934 29.6082 96.36 28.5904C96.7479 28.3242 97.1807 28.143 97.6336 28.0571C98.0865 27.9712 98.5507 27.9823 98.9996 28.0899H277.989C278.899 27.8734 279.852 28.0533 280.64 28.5904C281.907 29.6081 281.745 31.6418 281.578 33.7425C281.411 35.8506 281.238 38.0263 282.498 39.3106C283.428 40.2565 284.643 40.2643 285.938 40.2727C287.435 40.2824 289.037 40.2928 290.428 41.7525C291.137 42.5511 291.712 43.4765 292.127 44.4875C292.515 45.5108 292.715 46.6054 292.716 47.7108V50.5679C292.719 52.798 293.542 54.9359 295.006 56.5129C296.469 58.0898 298.452 58.9771 300.521 58.9804H308.916C310.442 58.972 311.938 59.4434 313.219 60.3368C314.501 61.2303 315.513 62.507 316.132 64.0108C319.725 72.8702 325.061 80.7819 331.773 87.1974C338.484 93.6129 346.41 98.3788 355 101.165V713.835C353.08 714.459 351.194 715.182 349.347 716H27.6567Z" fill="url(#paint0_linear_742_21430)"/>
<path d="M27.6567 716C25.8085 715.182 23.9209 714.459 22 713.835V101.165C30.5899 98.381 38.5148 93.6157 45.2247 87.1999C51.9345 80.784 57.2686 72.8712 60.8566 64.0108C61.4767 62.5079 62.4892 61.2321 63.7706 60.3388C65.052 59.4456 66.5468 58.9736 68.0728 58.9804H76.4673C78.5384 58.9804 80.5248 58.0944 81.9904 56.5171C83.456 54.9398 84.2808 52.8001 84.2838 50.5679V47.7108C84.285 46.6054 84.485 45.5108 84.8729 44.4875C85.2815 43.4756 85.8529 42.5497 86.5609 41.7525C87.9889 40.2726 89.6109 40.2631 91.1098 40.2544C92.3934 40.2469 93.5867 40.2399 94.4908 39.3106C95.7504 38.0264 95.5806 35.8509 95.4161 33.7429C95.2521 31.6421 95.0934 29.6082 96.36 28.5904C96.7479 28.3242 97.1807 28.143 97.6336 28.0571C98.0865 27.9712 98.5507 27.9823 98.9996 28.0899H277.989C278.899 27.8734 279.852 28.0533 280.64 28.5904C281.907 29.6081 281.745 31.6418 281.578 33.7425C281.411 35.8506 281.238 38.0263 282.498 39.3106C283.428 40.2565 284.643 40.2643 285.938 40.2727C287.435 40.2824 289.037 40.2928 290.428 41.7525C291.137 42.5511 291.712 43.4765 292.127 44.4875C292.515 45.5108 292.715 46.6054 292.716 47.7108V50.5679C292.719 52.798 293.542 54.9359 295.006 56.5129C296.469 58.0898 298.452 58.9771 300.521 58.9804H308.916C310.442 58.972 311.938 59.4434 313.219 60.3368C314.501 61.2303 315.513 62.507 316.132 64.0108C319.725 72.8702 325.061 80.7819 331.773 87.1974C338.484 93.6129 346.41 98.3788 355 101.165V713.835C353.08 714.459 351.194 715.182 349.347 716H27.6567Z" stroke="white" stroke-width="3" stroke-miterlimit="10"/>
</g>
<defs>
<filter id="filter0_d_742_21430" x="0.5" y="0.5" width="376" height="804" filterUnits="userSpaceOnUse" color-interpolation-filters="sRGB">
<feFlood flood-opacity="0" result="BackgroundImageFix"/>
<feColorMatrix in="SourceAlpha" type="matrix" values="0 0 0 0 0 0 0 0 0 0 0 0 0 0 0 0 0 0 127 0" result="hardAlpha"/>
<feOffset/>
<feGaussianBlur stdDeviation="2"/>
<feComposite in2="hardAlpha" operator="out"/>
<feColorMatrix type="matrix" values="0 0 0 0 0 0 0 0 0 0 0 0 0 0 0 0 0 0 0.25 0"/>
<feBlend mode="normal" in2="BackgroundImageFix" result="effect1_dropShadow_742_21430"/>
<feBlend mode="normal" in="SourceGraphic" in2="effect1_dropShadow_742_21430" result="shape"/>
</filter>
<filter id="filter1_d_742_21430" x="16.5" y="22.5" width="344" height="699" filterUnits="userSpaceOnUse" color-interpolation-filters="sRGB">
<feFlood flood-opacity="0" result="BackgroundImageFix"/>
<feColorMatrix in="SourceAlpha" type="matrix" values="0 0 0 0 0 0 0 0 0 0 0 0 0 0 0 0 0 0 127 0" result="hardAlpha"/>
<feOffset/>
<feGaussianBlur stdDeviation="2"/>
<feComposite in2="hardAlpha" operator="out"/>
<feColorMatrix type="matrix" values="0 0 0 0 0 0 0 0 0 0 0 0 0 0 0 0 0 0 0.25 0"/>
<feBlend mode="normal" in2="BackgroundImageFix" result="effect1_dropShadow_742_21430"/>
<feBlend mode="normal" in="SourceGraphic" in2="effect1_dropShadow_742_21430" result="shape"/>
</filter>
<linearGradient id="paint0_linear_742_21430" x1="188.5" y1="28" x2="188.5" y2="1404.5" gradientUnits="userSpaceOnUse">
<stop stop-color="white"/>
<stop offset="0.64" stop-color="#E9A39B"/>
<stop offset="1" stop-color="#AA8B84"/>
</linearGradient>
</defs>
</svg>
