<svg width="377" height="805" viewBox="0 0 377 805" fill="none" xmlns="http://www.w3.org/2000/svg">
<g opacity="0.7" filter="url(#filter0_d_742_21428)">
<path d="M6 722.558C15.4128 725.472 24.0967 730.452 31.4506 737.155C38.8045 743.858 44.6528 752.122 48.5906 761.376C49.2702 762.946 50.3801 764.279 51.7846 765.213C53.1891 766.146 54.8276 766.639 56.5002 766.632H65.7013C67.9737 766.632 70.1529 767.559 71.7597 769.21C73.3664 770.861 74.2691 773.099 74.2691 775.434V778.406C74.2684 779.561 74.4878 780.705 74.9148 781.774C75.3626 782.831 75.9889 783.799 76.7649 784.631C79.6208 787.489 83.2591 785.052 85.4569 787.183C88.2135 789.862 84.7243 796.253 87.5057 798.396C88.3681 798.948 89.4067 799.131 90.3989 798.906H286.589C287.585 799.13 288.627 798.947 289.494 798.396C292.276 796.253 288.774 789.862 291.531 787.183C293.679 785.078 297.329 787.514 300.223 784.631C301 783.797 301.63 782.83 302.085 781.774C302.512 780.705 302.732 779.561 302.731 778.406V775.434C302.731 773.102 303.632 770.865 305.236 769.214C306.84 767.564 309.016 766.635 311.286 766.632H320.487C322.16 766.641 323.8 766.148 325.204 765.215C326.609 764.281 327.719 762.947 328.397 761.376C332.34 752.124 338.192 743.861 345.548 737.159C352.903 730.456 361.587 725.475 371 722.558V82.4423C361.584 79.5315 352.897 74.5521 345.541 67.8492C338.185 61.1463 332.335 52.8802 328.397 43.6239C327.719 42.0527 326.609 40.7188 325.204 39.7854C323.8 38.8519 322.16 38.3594 320.487 38.3682H311.286C309.018 38.3648 306.844 37.4377 305.24 35.7901C303.637 34.1425 302.734 31.9089 302.731 29.5788V26.5938C302.73 25.4389 302.51 24.2952 302.085 23.226C301.63 22.1698 301 21.2029 300.223 20.3686C297.379 17.5238 293.728 19.9476 291.531 17.8172C288.774 15.1383 292.276 8.74723 289.494 6.61687C288.631 6.05572 287.586 5.86777 286.589 6.09388H90.3989C89.9069 5.98156 89.3981 5.96988 88.9017 6.05963C88.4052 6.14937 87.9309 6.33873 87.5057 6.61687C84.7243 8.74723 88.2135 15.1383 85.4569 17.8172C83.3087 19.9221 79.6705 17.4983 76.7649 20.3686C75.9889 21.2015 75.3626 22.1689 74.9148 23.226C74.4896 24.2952 74.2703 25.4389 74.2691 26.5938V29.5788C74.2658 31.9111 73.3617 34.1466 71.7553 35.7946C70.1488 37.4425 67.9715 38.3682 65.7013 38.3682H56.5002C54.8276 38.361 53.1891 38.8542 51.7846 39.7875C50.3801 40.7207 49.2702 42.0537 48.5906 43.6239C44.6577 52.8813 38.8111 61.1485 31.4565 67.8518C24.1018 74.555 15.4154 79.5337 6 82.4423V722.558Z" stroke="white" stroke-width="3" stroke-miterlimit="10" shape-rendering="crispEdges"/>
</g>
<g opacity="0.7" filter="url(#filter1_d_742_21428)">
<path d="M22 708.835C30.5875 711.624 38.5101 716.391 45.2193 722.807C51.9285 729.222 57.264 737.132 60.8566 745.989C61.4767 747.492 62.4892 748.768 63.7706 749.661C65.052 750.554 66.5468 751.026 68.0728 751.02H76.4673C78.5404 751.02 80.5285 751.907 81.9944 753.487C83.4603 755.067 84.2838 757.21 84.2838 759.444V762.289C84.2832 763.395 84.4834 764.49 84.8729 765.513C85.2815 766.524 85.8529 767.45 86.5609 768.247C89.1664 770.982 92.4857 768.65 94.4908 770.689C97.0057 773.253 93.8224 779.371 96.36 781.422C97.1468 781.95 98.0943 782.126 98.9996 781.91H277.989C278.898 782.125 279.849 781.95 280.64 781.422C283.178 779.371 279.983 773.253 282.498 770.689C284.458 768.675 287.788 771.007 290.428 768.247C291.137 767.449 291.712 766.523 292.127 765.513C292.517 764.49 292.717 763.395 292.716 762.289V759.444C292.716 757.212 293.538 755.071 295.002 753.491C296.465 751.912 298.45 751.023 300.521 751.02H308.916C310.442 751.028 311.938 750.557 313.219 749.663C314.501 748.77 315.513 747.493 316.132 745.989C319.73 737.133 325.068 729.225 331.779 722.81C338.49 716.395 346.412 711.627 355 708.835V96.1648C346.41 93.3788 338.484 88.6129 331.773 82.1974C325.061 75.7819 319.725 67.8702 316.132 59.0108C315.513 57.507 314.501 56.2303 313.219 55.3368C311.938 54.4434 310.442 53.972 308.916 53.9804H300.521C298.452 53.9771 296.469 53.0898 295.006 51.5129C293.542 49.9359 292.719 47.798 292.716 45.5679V42.7108C292.715 41.6054 292.515 40.5108 292.127 39.4875C291.712 38.4765 291.137 37.5511 290.428 36.7525C287.834 34.0297 284.503 36.3496 282.498 34.3106C279.983 31.7465 283.178 25.6294 280.64 23.5904C279.852 23.0533 278.899 22.8734 277.989 23.0899H98.9996C98.5507 22.9823 98.0865 22.9712 97.6336 23.0571C97.1807 23.143 96.7479 23.3242 96.36 23.5904C93.8224 25.6294 97.0057 31.7465 94.4908 34.3106C92.531 36.3252 89.2117 34.0053 86.5609 36.7525C85.8529 37.5497 85.2815 38.4756 84.8729 39.4875C84.485 40.5108 84.285 41.6054 84.2838 42.7108V45.5679C84.2808 47.8001 83.456 49.9398 81.9904 51.5171C80.5248 53.0944 78.5384 53.9804 76.4673 53.9804H68.0728C66.5468 53.9736 65.052 54.4456 63.7706 55.3388C62.4892 56.2321 61.4767 57.5079 60.8566 59.0108C57.2686 67.8712 51.9345 75.784 45.2247 82.1999C38.5148 88.6157 30.5899 93.381 22 96.1648V708.835Z" fill="white"/>
<path d="M22 708.835C30.5875 711.624 38.5101 716.391 45.2193 722.807C51.9285 729.222 57.264 737.132 60.8566 745.989C61.4767 747.492 62.4892 748.768 63.7706 749.661C65.052 750.554 66.5468 751.026 68.0728 751.02H76.4673C78.5404 751.02 80.5285 751.907 81.9944 753.487C83.4603 755.067 84.2838 757.21 84.2838 759.444V762.289C84.2832 763.395 84.4834 764.49 84.8729 765.513C85.2815 766.524 85.8529 767.45 86.5609 768.247C89.1664 770.982 92.4857 768.65 94.4908 770.689C97.0057 773.253 93.8224 779.371 96.36 781.422C97.1468 781.95 98.0943 782.126 98.9996 781.91H277.989C278.898 782.125 279.849 781.95 280.64 781.422C283.178 779.371 279.983 773.253 282.498 770.689C284.458 768.675 287.788 771.007 290.428 768.247C291.137 767.449 291.712 766.523 292.127 765.513C292.517 764.49 292.717 763.395 292.716 762.289V759.444C292.716 757.212 293.538 755.071 295.002 753.491C296.465 751.912 298.45 751.023 300.521 751.02H308.916C310.442 751.028 311.938 750.557 313.219 749.663C314.501 748.77 315.513 747.493 316.132 745.989C319.73 737.133 325.068 729.225 331.779 722.81C338.49 716.395 346.412 711.627 355 708.835V96.1648C346.41 93.3788 338.484 88.6129 331.773 82.1974C325.061 75.7819 319.725 67.8702 316.132 59.0108C315.513 57.507 314.501 56.2303 313.219 55.3368C311.938 54.4434 310.442 53.972 308.916 53.9804H300.521C298.452 53.9771 296.469 53.0898 295.006 51.5129C293.542 49.9359 292.719 47.798 292.716 45.5679V42.7108C292.715 41.6054 292.515 40.5108 292.127 39.4875C291.712 38.4765 291.137 37.5511 290.428 36.7525C287.834 34.0297 284.503 36.3496 282.498 34.3106C279.983 31.7465 283.178 25.6294 280.64 23.5904C279.852 23.0533 278.899 22.8734 277.989 23.0899H98.9996C98.5507 22.9823 98.0865 22.9712 97.6336 23.0571C97.1807 23.143 96.7479 23.3242 96.36 23.5904C93.8224 25.6294 97.0057 31.7465 94.4908 34.3106C92.531 36.3252 89.2117 34.0053 86.5609 36.7525C85.8529 37.5497 85.2815 38.4756 84.8729 39.4875C84.485 40.5108 84.285 41.6054 84.2838 42.7108V45.5679C84.2808 47.8001 83.456 49.9398 81.9904 51.5171C80.5248 53.0944 78.5384 53.9804 76.4673 53.9804H68.0728C66.5468 53.9736 65.052 54.4456 63.7706 55.3388C62.4892 56.2321 61.4767 57.5079 60.8566 59.0108C57.2686 67.8712 51.9345 75.784 45.2247 82.1999C38.5148 88.6157 30.5899 93.381 22 96.1648V708.835Z" stroke="white" stroke-width="3" stroke-miterlimit="10"/>
</g>
<defs>
<filter id="filter0_d_742_21428" x="0.5" y="0.5" width="376" height="804" filterUnits="userSpaceOnUse" color-interpolation-filters="sRGB">
<feFlood flood-opacity="0" result="BackgroundImageFix"/>
<feColorMatrix in="SourceAlpha" type="matrix" values="0 0 0 0 0 0 0 0 0 0 0 0 0 0 0 0 0 0 127 0" result="hardAlpha"/>
<feOffset/>
<feGaussianBlur stdDeviation="2"/>
<feComposite in2="hardAlpha" operator="out"/>
<feColorMatrix type="matrix" values="0 0 0 0 0 0 0 0 0 0 0 0 0 0 0 0 0 0 0.25 0"/>
<feBlend mode="normal" in2="BackgroundImageFix" result="effect1_dropShadow_742_21428"/>
<feBlend mode="normal" in="SourceGraphic" in2="effect1_dropShadow_742_21428" result="shape"/>
</filter>
<filter id="filter1_d_742_21428" x="16.5" y="17.5" width="344" height="770" filterUnits="userSpaceOnUse" color-interpolation-filters="sRGB">
<feFlood flood-opacity="0" result="BackgroundImageFix"/>
<feColorMatrix in="SourceAlpha" type="matrix" values="0 0 0 0 0 0 0 0 0 0 0 0 0 0 0 0 0 0 127 0" result="hardAlpha"/>
<feOffset/>
<feGaussianBlur stdDeviation="2"/>
<feComposite in2="hardAlpha" operator="out"/>
<feColorMatrix type="matrix" values="0 0 0 0 0 0 0 0 0 0 0 0 0 0 0 0 0 0 0.25 0"/>
<feBlend mode="normal" in2="BackgroundImageFix" result="effect1_dropShadow_742_21428"/>
<feBlend mode="normal" in="SourceGraphic" in2="effect1_dropShadow_742_21428" result="shape"/>
</filter>
</defs>
</svg>
