<svg width="369" height="799" viewBox="0 0 369 799" fill="none" xmlns="http://www.w3.org/2000/svg">
<g filter="url(#filter0_d_69_2309)">
<path d="M6 717.136C15.2064 720.028 23.7 724.971 30.8928 731.623C38.0855 738.275 43.8056 746.477 47.6571 755.661C48.3218 757.219 49.4073 758.542 50.7811 759.468C52.1548 760.394 53.7574 760.884 55.3934 760.877H64.3928C66.6153 760.877 68.7468 761.797 70.3184 763.435C71.8899 765.074 72.7728 767.295 72.7728 769.612V772.562C72.7721 773.708 72.9867 774.844 73.4043 775.904C73.8423 776.953 74.4549 777.914 75.2139 778.74C78.0072 781.576 81.5657 779.158 83.7154 781.272C86.4115 783.931 82.9988 790.274 85.7193 792.4C86.5628 792.948 87.5786 793.13 88.5491 792.907H280.439C281.413 793.13 282.433 792.948 283.281 792.4C286.001 790.274 282.576 783.931 285.272 781.272C287.374 779.183 290.944 781.601 293.774 778.74C294.534 777.912 295.151 776.952 295.596 775.904C296.013 774.844 296.228 773.708 296.227 772.562V769.612C296.227 767.298 297.108 765.078 298.677 763.44C300.246 761.802 302.375 760.88 304.595 760.877H313.595C315.231 760.885 316.834 760.397 318.208 759.47C319.582 758.544 320.667 757.22 321.331 755.661C325.188 746.478 330.911 738.278 338.105 731.626C345.3 724.975 353.793 720.031 363 717.136V81.864C353.791 78.9751 345.294 74.0334 338.099 67.3812C330.904 60.7291 325.182 52.5255 321.331 43.3392C320.667 41.78 319.582 40.4561 318.208 39.5298C316.834 38.6034 315.231 38.1146 313.595 38.1233H304.595C302.377 38.1199 300.25 37.1999 298.682 35.5647C297.113 33.9296 296.23 31.7128 296.227 29.4004V26.438C296.226 25.2918 296.012 24.1567 295.596 23.0957C295.151 22.0475 294.534 21.0879 293.774 20.2599C290.993 17.4366 287.422 19.8421 285.272 17.7278C282.576 15.0692 286.001 8.72644 283.281 6.61221C282.436 6.05529 281.415 5.86877 280.439 6.09317H88.5491C88.0678 5.9817 87.5702 5.97011 87.0846 6.05917C86.5991 6.14824 86.1351 6.33617 85.7193 6.61221C82.9988 8.72644 86.4115 15.0692 83.7154 17.7278C81.6143 19.8167 78.0558 17.4113 75.2139 20.2599C74.4549 21.0865 73.8423 22.0465 73.4043 23.0957C72.9885 24.1567 72.774 25.2918 72.7728 26.438V29.4004C72.7696 31.715 71.8853 33.9337 70.3141 35.5691C68.7429 37.2046 66.6132 38.1233 64.3928 38.1233H55.3934C53.7574 38.1162 52.1548 38.6056 50.7811 39.5318C49.4073 40.458 48.3218 41.7809 47.6571 43.3392C43.8105 52.5265 38.092 60.7312 30.8985 67.3838C23.7051 74.0363 15.209 78.9774 6 81.864V717.136Z" fill="white"/>
<path d="M6 717.136C15.2064 720.028 23.7 724.971 30.8928 731.623C38.0855 738.275 43.8056 746.477 47.6571 755.661C48.3218 757.219 49.4073 758.542 50.7811 759.468C52.1548 760.394 53.7574 760.884 55.3934 760.877H64.3928C66.6153 760.877 68.7468 761.797 70.3184 763.435C71.8899 765.074 72.7728 767.295 72.7728 769.612V772.562C72.7721 773.708 72.9867 774.844 73.4043 775.904C73.8423 776.953 74.4549 777.914 75.2139 778.74C78.0072 781.576 81.5657 779.158 83.7154 781.272C86.4115 783.931 82.9988 790.274 85.7193 792.4C86.5628 792.948 87.5786 793.13 88.5491 792.907H280.439C281.413 793.13 282.433 792.948 283.281 792.4C286.001 790.274 282.576 783.931 285.272 781.272C287.374 779.183 290.944 781.601 293.774 778.74C294.534 777.912 295.151 776.952 295.596 775.904C296.013 774.844 296.228 773.708 296.227 772.562V769.612C296.227 767.298 297.108 765.078 298.677 763.44C300.246 761.802 302.375 760.88 304.595 760.877H313.595C315.231 760.885 316.834 760.397 318.208 759.47C319.582 758.544 320.667 757.22 321.331 755.661C325.188 746.478 330.911 738.278 338.105 731.626C345.3 724.975 353.793 720.031 363 717.136V81.864C353.791 78.9751 345.294 74.0334 338.099 67.3812C330.904 60.7291 325.182 52.5255 321.331 43.3392C320.667 41.78 319.582 40.4561 318.208 39.5298C316.834 38.6034 315.231 38.1146 313.595 38.1233H304.595C302.377 38.1199 300.25 37.1999 298.682 35.5647C297.113 33.9296 296.23 31.7128 296.227 29.4004V26.438C296.226 25.2918 296.012 24.1567 295.596 23.0957C295.151 22.0475 294.534 21.0879 293.774 20.2599C290.993 17.4366 287.422 19.8421 285.272 17.7278C282.576 15.0692 286.001 8.72644 283.281 6.61221C282.436 6.05529 281.415 5.86877 280.439 6.09317H88.5491C88.0678 5.9817 87.5702 5.97011 87.0846 6.05917C86.5991 6.14824 86.1351 6.33617 85.7193 6.61221C82.9988 8.72644 86.4115 15.0692 83.7154 17.7278C81.6143 19.8167 78.0558 17.4113 75.2139 20.2599C74.4549 21.0865 73.8423 22.0465 73.4043 23.0957C72.9885 24.1567 72.774 25.2918 72.7728 26.438V29.4004C72.7696 31.715 71.8853 33.9337 70.3141 35.5691C68.7429 37.2046 66.6132 38.1233 64.3928 38.1233H55.3934C53.7574 38.1162 52.1548 38.6056 50.7811 39.5318C49.4073 40.458 48.3218 41.7809 47.6571 43.3392C43.8105 52.5265 38.092 60.7312 30.8985 67.3838C23.7051 74.0363 15.209 78.9774 6 81.864V717.136Z" stroke="white" stroke-width="4" stroke-miterlimit="10"/>
</g>
<defs>
<filter id="filter0_d_69_2309" x="0" y="0" width="369" height="799" filterUnits="userSpaceOnUse" color-interpolation-filters="sRGB">
<feFlood flood-opacity="0" result="BackgroundImageFix"/>
<feColorMatrix in="SourceAlpha" type="matrix" values="0 0 0 0 0 0 0 0 0 0 0 0 0 0 0 0 0 0 127 0" result="hardAlpha"/>
<feOffset/>
<feGaussianBlur stdDeviation="2"/>
<feComposite in2="hardAlpha" operator="out"/>
<feColorMatrix type="matrix" values="0 0 0 0 0 0 0 0 0 0 0 0 0 0 0 0 0 0 0.25 0"/>
<feBlend mode="normal" in2="BackgroundImageFix" result="effect1_dropShadow_69_2309"/>
<feBlend mode="normal" in="SourceGraphic" in2="effect1_dropShadow_69_2309" result="shape"/>
</filter>
</defs>
</svg>
