<svg width="369" height="799" viewBox="0 0 369 799" fill="none" xmlns="http://www.w3.org/2000/svg">
<g filter="url(#filter0_d_742_21427)">
<path d="M6 717.136C15.2064 720.028 23.7 724.971 30.8928 731.623C38.0855 738.275 43.8056 746.477 47.6571 755.661C48.3218 757.219 49.4073 758.542 50.7811 759.468C52.1548 760.394 53.7574 760.884 55.3934 760.877H64.3928C66.6153 760.877 68.7468 761.797 70.3184 763.435C71.8899 765.074 72.7728 767.295 72.7728 769.612V772.562C72.7721 773.708 72.9867 774.844 73.4043 775.904C73.8423 776.953 74.4549 777.914 75.2139 778.74C78.0072 781.576 81.5657 779.158 83.7154 781.272C86.4115 783.931 82.9988 790.274 85.7193 792.4C86.5628 792.948 87.5786 793.13 88.5491 792.907H280.439C281.413 793.13 282.433 792.948 283.281 792.4C286.001 790.274 282.576 783.931 285.272 781.272C287.374 779.183 290.944 781.601 293.774 778.74C294.534 777.912 295.151 776.952 295.596 775.904C296.013 774.844 296.228 773.708 296.227 772.562V769.612C296.227 767.298 297.108 765.078 298.677 763.44C300.246 761.802 302.375 760.88 304.595 760.877H313.595C315.231 760.885 316.834 760.397 318.208 759.47C319.582 758.544 320.667 757.22 321.331 755.661C325.188 746.478 330.911 738.278 338.105 731.626C345.3 724.975 353.793 720.031 363 717.136V81.864C353.791 78.9751 345.294 74.0334 338.099 67.3812C330.904 60.7291 325.182 52.5255 321.331 43.3392C320.667 41.78 319.582 40.4561 318.208 39.5298C316.834 38.6034 315.231 38.1146 313.595 38.1233H304.595C302.377 38.1199 300.25 37.1999 298.682 35.5647C297.113 33.9296 296.23 31.7128 296.227 29.4004V26.438C296.226 25.2918 296.012 24.1567 295.596 23.0957C295.151 22.0475 294.534 21.0879 293.774 20.2599C290.993 17.4366 287.422 19.8421 285.272 17.7278C282.576 15.0692 286.001 8.72644 283.281 6.61221C282.436 6.05529 281.415 5.86877 280.439 6.09317H88.5491C88.0678 5.9817 87.5702 5.97011 87.0846 6.05917C86.5991 6.14824 86.1351 6.33617 85.7193 6.61221C82.9988 8.72644 86.4115 15.0692 83.7154 17.7278C81.6143 19.8167 78.0558 17.4113 75.2139 20.2599C74.4549 21.0865 73.8423 22.0465 73.4043 23.0957C72.9885 24.1567 72.774 25.2918 72.7728 26.438V29.4004C72.7696 31.715 71.8853 33.9337 70.3141 35.5691C68.7429 37.2046 66.6132 38.1233 64.3928 38.1233H55.3934C53.7574 38.1162 52.1548 38.6056 50.7811 39.5318C49.4073 40.458 48.3218 41.7809 47.6571 43.3392C43.8105 52.5265 38.092 60.7312 30.8985 67.3838C23.7051 74.0363 15.209 78.9774 6 81.864V717.136Z" fill="white"/>
<path d="M6 717.136C15.2064 720.028 23.7 724.971 30.8928 731.623C38.0855 738.275 43.8056 746.477 47.6571 755.661C48.3218 757.219 49.4073 758.542 50.7811 759.468C52.1548 760.394 53.7574 760.884 55.3934 760.877H64.3928C66.6153 760.877 68.7468 761.797 70.3184 763.435C71.8899 765.074 72.7728 767.295 72.7728 769.612V772.562C72.7721 773.708 72.9867 774.844 73.4043 775.904C73.8423 776.953 74.4549 777.914 75.2139 778.74C78.0072 781.576 81.5657 779.158 83.7154 781.272C86.4115 783.931 82.9988 790.274 85.7193 792.4C86.5628 792.948 87.5786 793.13 88.5491 792.907H280.439C281.413 793.13 282.433 792.948 283.281 792.4C286.001 790.274 282.576 783.931 285.272 781.272C287.374 779.183 290.944 781.601 293.774 778.74C294.534 777.912 295.151 776.952 295.596 775.904C296.013 774.844 296.228 773.708 296.227 772.562V769.612C296.227 767.298 297.108 765.078 298.677 763.44C300.246 761.802 302.375 760.88 304.595 760.877H313.595C315.231 760.885 316.834 760.397 318.208 759.47C319.582 758.544 320.667 757.22 321.331 755.661C325.188 746.478 330.911 738.278 338.105 731.626C345.3 724.975 353.793 720.031 363 717.136V81.864C353.791 78.9751 345.294 74.0334 338.099 67.3812C330.904 60.7291 325.182 52.5255 321.331 43.3392C320.667 41.78 319.582 40.4561 318.208 39.5298C316.834 38.6034 315.231 38.1146 313.595 38.1233H304.595C302.377 38.1199 300.25 37.1999 298.682 35.5647C297.113 33.9296 296.23 31.7128 296.227 29.4004V26.438C296.226 25.2918 296.012 24.1567 295.596 23.0957C295.151 22.0475 294.534 21.0879 293.774 20.2599C290.993 17.4366 287.422 19.8421 285.272 17.7278C282.576 15.0692 286.001 8.72644 283.281 6.61221C282.436 6.05529 281.415 5.86877 280.439 6.09317H88.5491C88.0678 5.9817 87.5702 5.97011 87.0846 6.05917C86.5991 6.14824 86.1351 6.33617 85.7193 6.61221C82.9988 8.72644 86.4115 15.0692 83.7154 17.7278C81.6143 19.8167 78.0558 17.4113 75.2139 20.2599C74.4549 21.0865 73.8423 22.0465 73.4043 23.0957C72.9885 24.1567 72.774 25.2918 72.7728 26.438V29.4004C72.7696 31.715 71.8853 33.9337 70.3141 35.5691C68.7429 37.2046 66.6132 38.1233 64.3928 38.1233H55.3934C53.7574 38.1162 52.1548 38.6056 50.7811 39.5318C49.4073 40.458 48.3218 41.7809 47.6571 43.3392C43.8105 52.5265 38.092 60.7312 30.8985 67.3838C23.7051 74.0363 15.209 78.9774 6 81.864V717.136Z" stroke="white" stroke-width="4" stroke-miterlimit="10"/>
</g>
<g filter="url(#filter1_d_742_21427)">
<path d="M18 696.835C26.5875 699.624 34.5101 704.391 41.2193 710.807C47.9285 717.222 53.264 725.132 56.8566 733.989C57.4767 735.492 58.4892 736.768 59.7706 737.661C61.052 738.555 62.5468 739.026 64.0728 739.02H72.4673C74.5404 739.02 76.5285 739.907 77.9944 741.487C79.4603 743.067 80.2838 745.21 80.2838 747.444V750.289C80.2832 751.395 80.4834 752.49 80.8729 753.513C81.2815 754.524 81.8529 755.45 82.5609 756.247C85.1664 758.982 88.4857 756.65 90.4908 758.689C93.0057 761.253 89.8224 767.371 92.36 769.422C93.1468 769.95 94.0943 770.126 94.9996 769.91H273.989C274.898 770.125 275.849 769.95 276.64 769.422C279.178 767.371 275.983 761.253 278.498 758.689C280.458 756.675 283.788 759.007 286.428 756.247C287.137 755.449 287.712 754.523 288.127 753.513C288.517 752.49 288.717 751.395 288.716 750.289V747.444C288.716 745.212 289.538 743.071 291.002 741.492C292.465 739.912 294.45 739.023 296.521 739.02H304.916C306.442 739.028 307.938 738.557 309.219 737.663C310.501 736.77 311.513 735.493 312.132 733.989C315.73 725.133 321.068 717.225 327.779 710.81C334.49 704.395 342.412 699.627 351 696.835V84.1649C342.41 81.3788 334.484 76.6129 327.773 70.1974C321.061 63.7819 315.725 55.8703 312.132 47.0108C311.513 45.507 310.501 44.2303 309.219 43.3368C307.938 42.4434 306.442 41.972 304.916 41.9804H296.521C294.452 41.9771 292.469 41.0898 291.006 39.5129C289.542 37.9359 288.719 35.798 288.716 33.5679V30.7108C288.715 29.6054 288.515 28.5108 288.127 27.4875C287.712 26.4765 287.137 25.5511 286.428 24.7525C283.834 22.0297 280.503 24.3496 278.498 22.3106C275.983 19.7465 279.178 13.6294 276.64 11.5904C275.852 11.0533 274.899 10.8734 273.989 11.0899H94.9996C94.5507 10.9823 94.0865 10.9712 93.6336 11.0571C93.1807 11.143 92.7479 11.3242 92.36 11.5904C89.8224 13.6294 93.0057 19.7465 90.4908 22.3106C88.531 24.3252 85.2117 22.0053 82.5609 24.7525C81.8529 25.5497 81.2815 26.4756 80.8729 27.4875C80.485 28.5108 80.285 29.6054 80.2838 30.7108V33.5679C80.2808 35.8001 79.456 37.9398 77.9904 39.5171C76.5248 41.0944 74.5384 41.9804 72.4673 41.9804H64.0728C62.5468 41.9736 61.052 42.4456 59.7706 43.3388C58.4892 44.2321 57.4767 45.5079 56.8566 47.0108C53.2686 55.8712 47.9345 63.784 41.2247 70.1999C34.5148 76.6157 26.5899 81.381 18 84.1649V696.835Z" stroke="#AA8B84" stroke-width="3" stroke-miterlimit="10" shape-rendering="crispEdges"/>
</g>
<defs>
<filter id="filter0_d_742_21427" x="0" y="0" width="369" height="799" filterUnits="userSpaceOnUse" color-interpolation-filters="sRGB">
<feFlood flood-opacity="0" result="BackgroundImageFix"/>
<feColorMatrix in="SourceAlpha" type="matrix" values="0 0 0 0 0 0 0 0 0 0 0 0 0 0 0 0 0 0 127 0" result="hardAlpha"/>
<feOffset/>
<feGaussianBlur stdDeviation="2"/>
<feComposite in2="hardAlpha" operator="out"/>
<feColorMatrix type="matrix" values="0 0 0 0 0 0 0 0 0 0 0 0 0 0 0 0 0 0 0.25 0"/>
<feBlend mode="normal" in2="BackgroundImageFix" result="effect1_dropShadow_742_21427"/>
<feBlend mode="normal" in="SourceGraphic" in2="effect1_dropShadow_742_21427" result="shape"/>
</filter>
<filter id="filter1_d_742_21427" x="12.5" y="5.5" width="344" height="770" filterUnits="userSpaceOnUse" color-interpolation-filters="sRGB">
<feFlood flood-opacity="0" result="BackgroundImageFix"/>
<feColorMatrix in="SourceAlpha" type="matrix" values="0 0 0 0 0 0 0 0 0 0 0 0 0 0 0 0 0 0 127 0" result="hardAlpha"/>
<feOffset/>
<feGaussianBlur stdDeviation="2"/>
<feComposite in2="hardAlpha" operator="out"/>
<feColorMatrix type="matrix" values="0 0 0 0 0 0 0 0 0 0 0 0 0 0 0 0 0 0 0.25 0"/>
<feBlend mode="normal" in2="BackgroundImageFix" result="effect1_dropShadow_742_21427"/>
<feBlend mode="normal" in="SourceGraphic" in2="effect1_dropShadow_742_21427" result="shape"/>
</filter>
</defs>
</svg>
