<svg width="95" height="65" viewBox="0 0 95 65" fill="none" xmlns="http://www.w3.org/2000/svg">
<g clip-path="url(#clip0_731_22783)">
<path d="M72.3802 26.4952C80.5026 26.4952 87.1338 32.9137 87.1338 40.7984C87.1338 50.5892 78.9204 58.5521 68.8226 58.5521C68.7528 58.5577 68.6827 58.5488 68.6165 58.5259C68.5504 58.5029 68.4897 58.4665 68.4382 58.4189C68.3868 58.3713 68.3458 58.3136 68.3177 58.2493C68.2897 58.185 68.2752 58.1156 68.2752 58.0454C68.2752 57.9753 68.2897 57.9059 68.3177 57.8416C68.3458 57.7773 68.3868 57.7195 68.4382 57.6719C68.4897 57.6243 68.5504 57.5879 68.6165 57.565C68.6827 57.5421 68.7528 57.5332 68.8226 57.5388C78.342 57.5388 86.0876 50.0288 86.0876 40.7984C86.0876 33.4709 79.9373 27.5085 72.3802 27.5085C66.3891 27.5085 61.5189 32.2328 61.5189 38.0388C61.5189 42.623 65.3689 46.3699 70.1027 46.3699C73.8325 46.3699 76.867 43.4375 76.867 39.8112C76.867 36.9766 74.4855 34.6666 71.5614 34.6666C71.4917 34.6722 71.4215 34.6633 71.3554 34.6404C71.2893 34.6175 71.2286 34.5811 71.1771 34.5335C71.1257 34.4859 71.0847 34.4281 71.0566 34.3638C71.0285 34.2996 71.0141 34.2302 71.0141 34.16C71.0141 34.0898 71.0285 34.0204 71.0566 33.9561C71.0847 33.8918 71.1257 33.8341 71.1771 33.7865C71.2286 33.7389 71.2893 33.7025 71.3554 33.6796C71.4215 33.6567 71.4917 33.6477 71.5614 33.6533C75.0638 33.6533 77.9099 36.4162 77.9099 39.8112C77.9099 43.9882 74.4075 47.3832 70.1124 47.3832C64.8036 47.3832 60.4824 43.1932 60.4824 38.0453C60.4727 31.6691 65.814 26.4952 72.3802 26.4952Z" fill="#F4CAD8"/>
<path d="M90.1626 43.4636C90.299 43.4618 90.4306 43.5143 90.5287 43.6095C90.6267 43.7047 90.6831 43.835 90.6857 43.9718C90.6801 48.444 88.9555 52.7419 85.8707 55.9716C85.7744 56.0705 85.6439 56.1286 85.5061 56.1341C85.3684 56.1396 85.2337 56.0919 85.1299 56.0009C85.0797 55.957 85.039 55.9032 85.0102 55.843C84.9813 55.7827 84.9651 55.7172 84.9623 55.6504C84.9596 55.5837 84.9704 55.517 84.9942 55.4546C85.018 55.3922 85.0542 55.3353 85.1007 55.2874C88.0117 52.2426 89.6407 48.1899 89.6492 43.9718C89.651 43.8364 89.7058 43.7072 89.8019 43.612C89.898 43.5169 90.0276 43.4635 90.1626 43.4636Z" fill="#F4CAD8"/>
<path d="M30.69 57.5325H64.1544C64.2242 57.5268 64.2943 57.5358 64.3604 57.5587C64.4266 57.5816 64.4873 57.618 64.5387 57.6656C64.5901 57.7132 64.6312 57.7709 64.6592 57.8352C64.6873 57.8995 64.7018 57.9689 64.7018 58.0391C64.7018 58.1093 64.6873 58.1787 64.6592 58.243C64.6312 58.3072 64.5901 58.365 64.5387 58.4126C64.4873 58.4602 64.4266 58.4966 64.3604 58.5195C64.2943 58.5424 64.2242 58.5513 64.1544 58.5457H30.69C30.6202 58.5513 30.5501 58.5424 30.4839 58.5195C30.4178 58.4966 30.3571 58.4602 30.3057 58.4126C30.2542 58.365 30.2132 58.3072 30.1851 58.243C30.1571 58.1787 30.1426 58.1093 30.1426 58.0391C30.1426 57.9689 30.1571 57.8995 30.1851 57.8352C30.2132 57.7709 30.2542 57.7132 30.3057 57.6656C30.3571 57.618 30.4178 57.5816 30.4839 57.5587C30.5501 57.5358 30.6202 57.5268 30.69 57.5325Z" fill="#F4CAD8"/>
<path d="M80.7498 18.2034C81.5155 18.2017 82.2743 18.3477 82.9851 18.6334C83.0466 18.6572 83.1029 18.693 83.1506 18.7387C83.1984 18.7843 83.2366 18.839 83.2632 18.8996C83.2898 18.9602 83.3042 19.0254 83.3055 19.0916C83.3068 19.1577 83.2951 19.2235 83.271 19.2851C83.2153 19.4109 83.1128 19.51 82.9853 19.5611C82.8579 19.6122 82.7156 19.6114 82.5887 19.5588C82.0036 19.3252 81.3795 19.2058 80.7498 19.2069C79.4867 19.1877 78.2675 19.6714 77.3595 20.5521C76.4515 21.4328 75.9286 22.6385 75.9056 23.9051C75.9056 24.0442 75.8504 24.1777 75.7523 24.276C75.6542 24.3744 75.5212 24.4297 75.3825 24.4297C75.2437 24.4297 75.1107 24.3744 75.0126 24.276C74.9145 24.1777 74.8594 24.0442 74.8594 23.9051C74.8594 20.7643 77.5008 18.2034 80.7498 18.2034Z" fill="#F4CAD8"/>
<path d="M82.2637 19.0992C82.2637 18.8646 82.2637 18.6332 82.2637 18.4019C82.2637 17.9555 82.3091 17.5157 82.3481 17.0987C82.7607 12.824 84.4697 9.99915 86.1039 8.22346C86.3119 8.00517 86.5133 7.7999 86.7148 7.61093C87.2966 7.05697 87.9285 6.5585 88.6024 6.12196C89.7192 5.38918 90.9502 4.8485 92.2445 4.52221C91.6362 4.96668 90.9604 5.30993 90.2432 5.53875C90.1132 5.60717 89.9865 5.68211 89.863 5.76031C90.3989 5.65925 90.9423 5.60367 91.4875 5.59414L91.7539 5.55504C91.7539 5.55504 91.8741 5.57459 92.0788 5.62672C90.3505 6.15116 88.7692 7.0752 87.462 8.32446C86.7139 9.03929 86.0589 9.84611 85.5126 10.7257C84.3008 12.6611 83.3196 15.3718 83.3196 19.0992C83.3204 19.2005 83.2897 19.2995 83.2319 19.3826C83.2117 19.4108 83.1888 19.437 83.1636 19.4608C83.1133 19.511 83.0522 19.5489 82.9849 19.5716C82.9622 19.5815 82.9381 19.5881 82.9135 19.5911C82.8754 19.6018 82.836 19.6073 82.7965 19.6074C82.7226 19.6074 82.6496 19.5918 82.5821 19.5618C82.4887 19.5258 82.4084 19.4623 82.3516 19.3798C82.2948 19.2972 82.2642 19.1994 82.2637 19.0992Z" fill="#F4CAD8"/>
<path d="M94.4767 11.1005C94.593 11.0995 94.7063 11.1374 94.7986 11.2083C94.891 11.2791 94.9572 11.3787 94.9868 11.4914C95.0016 11.5572 95.0032 11.6252 94.9916 11.6915C94.9799 11.7578 94.9553 11.8212 94.919 11.8779C94.8827 11.9346 94.8356 11.9835 94.7803 12.0217C94.725 12.06 94.6627 12.0868 94.597 12.1007C90.7372 12.9772 90.6982 17.1085 90.6982 17.2844V35.5822C90.6878 35.7137 90.6284 35.8365 90.5317 35.9261C90.4351 36.0157 90.3083 36.0654 90.1767 36.0654C90.0451 36.0654 89.9184 36.0157 89.8217 35.9261C89.7251 35.8365 89.6656 35.7137 89.6553 35.5822V17.2844C89.6553 17.2356 89.6975 12.1757 94.3728 11.1135C94.4068 11.1053 94.4417 11.101 94.4767 11.1005Z" fill="#F4CAD8"/>
<path d="M90.5263 35.0739C91.6925 35.0556 92.8184 35.5018 93.6571 36.3148C94.4958 37.1277 94.9787 38.241 95.0001 39.4105C95.0001 39.5496 94.945 39.683 94.8469 39.7814C94.7488 39.8798 94.6157 39.9351 94.477 39.9351C94.3383 39.9351 94.2052 39.8798 94.1071 39.7814C94.009 39.683 93.9539 39.5496 93.9539 39.4105C93.9155 38.5247 93.5375 37.6881 92.8989 37.075C92.2603 36.4618 91.4103 36.1196 90.5263 36.1196C89.6422 36.1196 88.7922 36.4618 88.1536 37.075C87.515 37.6881 87.137 38.5247 87.0986 39.4105C87.0882 39.5421 87.0288 39.6649 86.9321 39.7544C86.8355 39.844 86.7087 39.8938 86.5771 39.8938C86.4455 39.8938 86.3187 39.844 86.2221 39.7544C86.1254 39.6649 86.066 39.5421 86.0557 39.4105C86.0762 38.2413 86.5584 37.128 87.3966 36.315C88.2347 35.5019 89.3603 35.0556 90.5263 35.0739Z" fill="#F4CAD8"/>
<path d="M57.2796 38.0617C57.3475 38.0604 57.4149 38.0725 57.4781 38.0974C57.5412 38.1222 57.5989 38.1593 57.6478 38.2065C57.6967 38.2537 57.7358 38.3101 57.7629 38.3725C57.7901 38.4348 57.8047 38.5019 57.806 38.57C57.806 45.1351 63.3292 50.4785 70.0903 50.4785C70.1601 50.4729 70.2302 50.4818 70.2964 50.5047C70.3625 50.5276 70.4232 50.564 70.4746 50.6116C70.526 50.6592 70.5671 50.717 70.5952 50.7813C70.6232 50.8455 70.6377 50.915 70.6377 50.9851C70.6377 51.0553 70.6232 51.1247 70.5952 51.189C70.5671 51.2533 70.526 51.311 70.4746 51.3586C70.4232 51.4062 70.3625 51.4426 70.2964 51.4655C70.2302 51.4885 70.1601 51.4974 70.0903 51.4918C62.7411 51.4918 56.7695 45.6955 56.7695 38.57C56.7721 38.4354 56.8267 38.3071 56.9219 38.2122C57.0171 38.1174 57.1454 38.0634 57.2796 38.0617Z" fill="#F4CAD8"/>
<path d="M82.7875 57.5322C82.8599 57.5318 82.9316 57.5463 82.9981 57.5749C83.0646 57.6035 83.1246 57.6455 83.1742 57.6984C83.2224 57.7465 83.2603 57.8042 83.2853 57.8677C83.3103 57.9312 83.322 57.9992 83.3195 58.0674C83.3171 58.1356 83.3006 58.2026 83.2711 58.2641C83.2416 58.3257 83.1998 58.3804 83.1482 58.425C82.2352 59.2297 80.7991 59.9465 79.4086 60.6372C77.6541 61.5137 75.669 62.5074 75.4871 63.4002C75.4578 63.5533 75.4546 63.7976 75.7892 64.1723C75.8337 64.2222 75.8677 64.2805 75.889 64.3439C75.9104 64.4072 75.9188 64.4743 75.9136 64.5409C75.9084 64.6076 75.8899 64.6725 75.859 64.7318C75.8281 64.7911 75.7856 64.8435 75.734 64.8859C75.6279 64.9738 75.4921 65.0174 75.3548 65.0077C75.2176 64.998 75.0892 64.9357 74.9965 64.8337C74.7821 64.6263 74.6215 64.3694 74.5286 64.0855C74.4357 63.8016 74.4135 63.4992 74.4637 63.2047C74.7398 61.8265 76.7737 60.8099 78.931 59.7347C80.2598 59.0831 81.6341 58.3859 82.4464 57.6691C82.5403 57.5843 82.6612 57.5358 82.7875 57.5322Z" fill="#F4CAD8"/>
<path d="M89.8046 40.8994C89.7577 40.8547 89.7204 40.8008 89.6949 40.7412C89.6694 40.6815 89.6562 40.6173 89.6562 40.5524C89.6562 40.4875 89.6694 40.4233 89.6949 40.3636C89.7204 40.304 89.7577 40.2502 89.8046 40.2054C89.9013 40.1128 90.0299 40.0611 90.1636 40.0611C90.2974 40.0611 90.426 40.1128 90.5227 40.2054C90.5696 40.2502 90.6069 40.304 90.6324 40.3636C90.6579 40.4233 90.6711 40.4875 90.6711 40.5524C90.6711 40.6173 90.6579 40.6815 90.6324 40.7412C90.6069 40.8008 90.5696 40.8547 90.5227 40.8994C90.426 40.992 90.2974 41.0437 90.1636 41.0437C90.0299 41.0437 89.9013 40.992 89.8046 40.8994Z" fill="#F4CAD8"/>
<path d="M72.7607 50.0029C73.0407 50.0029 73.2676 50.2231 73.2676 50.4948C73.2676 50.7665 73.0407 50.9868 72.7607 50.9868C72.4808 50.9868 72.2539 50.7665 72.2539 50.4948C72.2539 50.2231 72.4808 50.0029 72.7607 50.0029Z" fill="#F4CAD8"/>
<path d="M68.3945 34.5983C68.6745 34.5983 68.9014 34.8186 68.9014 35.0903C68.9014 35.362 68.6745 35.5823 68.3945 35.5823C68.1146 35.5823 67.8877 35.362 67.8877 35.0903C67.8877 34.8186 68.1146 34.5983 68.3945 34.5983Z" fill="#F4CAD8"/>
<path d="M82.6474 21.8718C82.6005 21.8271 82.5632 21.7733 82.5377 21.7136C82.5122 21.654 82.499 21.5897 82.499 21.5248C82.499 21.4599 82.5122 21.3957 82.5377 21.3361C82.5632 21.2764 82.6005 21.2226 82.6474 21.1778C82.7441 21.0852 82.8727 21.0335 83.0064 21.0335C83.1402 21.0335 83.2687 21.0852 83.3654 21.1778C83.4123 21.2226 83.4497 21.2764 83.4752 21.3361C83.5007 21.3957 83.5139 21.4599 83.5139 21.5248C83.5139 21.5897 83.5007 21.654 83.4752 21.7136C83.4497 21.7733 83.4123 21.8271 83.3654 21.8718C83.2687 21.9644 83.1402 22.0161 83.0064 22.0161C82.8727 22.0161 82.7441 21.9644 82.6474 21.8718Z" fill="#F4CAD8"/>
<path d="M57.3799 35.0903C57.6598 35.0903 57.8867 35.3105 57.8867 35.5822C57.8867 35.854 57.6598 36.0742 57.3799 36.0742C57.1 36.0742 56.873 35.854 56.873 35.5822C56.873 35.3105 57.1 35.0903 57.3799 35.0903Z" fill="#F4CAD8"/>
<path d="M27.4082 57.5453C27.6881 57.5453 27.915 57.7656 27.915 58.0373C27.915 58.309 27.6881 58.5293 27.4082 58.5293C27.1283 58.5293 26.9014 58.309 26.9014 58.0373C26.9014 57.7656 27.1283 57.5453 27.4082 57.5453Z" fill="#F4CAD8"/>
<path d="M24.1754 57.5322C24.2603 57.5315 24.344 57.5516 24.4194 57.5908C24.4947 57.63 24.5593 57.687 24.6076 57.757C24.646 57.8116 24.673 57.8735 24.6868 57.9389C24.7006 58.0043 24.701 58.0719 24.688 58.1374C24.6749 58.203 24.6486 58.2652 24.6108 58.3202C24.5729 58.3752 24.5243 58.422 24.4679 58.4575C24.2632 58.5911 24.0877 58.7084 10.9391 58.6009C9.22682 58.5748 7.53383 58.9662 6.00577 59.7415C4.4777 60.5168 3.1603 61.6527 2.16689 63.0515L0.948528 64.7783C0.867571 64.8901 0.746813 64.9663 0.611307 64.9912C0.4758 65.0161 0.335949 64.9877 0.220761 64.9119C0.164465 64.8758 0.116071 64.8286 0.0785097 64.7731C0.0409485 64.7177 0.0150012 64.6551 0.00224291 64.5893C-0.0105154 64.5235 -0.00982012 64.4558 0.00428542 64.3903C0.018391 64.3248 0.0456093 64.2628 0.0843001 64.2082L1.29941 62.4813C2.3837 60.9594 3.81678 59.7211 5.47796 58.8706C7.13914 58.0201 8.97978 57.5823 10.8449 57.5941H10.9391C21.7777 57.6821 23.7043 57.5941 24.0065 57.5648C24.0603 57.5434 24.1176 57.5324 24.1754 57.5322Z" fill="#F4CAD8"/>
<path d="M41.1646 54.02H68.3942C68.464 54.0144 68.5341 54.0233 68.6003 54.0462C68.6664 54.0691 68.7271 54.1055 68.7785 54.1531C68.83 54.2007 68.871 54.2585 68.899 54.3228C68.9271 54.3871 68.9416 54.4565 68.9416 54.5266C68.9416 54.5968 68.9271 54.6662 68.899 54.7305C68.871 54.7948 68.83 54.8525 68.7785 54.9001C68.7271 54.9477 68.6664 54.9841 68.6003 55.0071C68.5341 55.03 68.464 55.0389 68.3942 55.0333H41.1646C41.0948 55.0389 41.0247 55.03 40.9585 55.0071C40.8924 54.9841 40.8317 54.9477 40.7803 54.9001C40.7288 54.8525 40.6878 54.7948 40.6597 54.7305C40.6317 54.6662 40.6172 54.5968 40.6172 54.5266C40.6172 54.4565 40.6317 54.3871 40.6597 54.3228C40.6878 54.2585 40.7288 54.2007 40.7803 54.1531C40.8317 54.1055 40.8924 54.0691 40.9585 54.0462C41.0247 54.0233 41.0948 54.0144 41.1646 54.02Z" fill="#F4CAD8"/>
<path d="M48.0747 50.6413H70.0865C70.1563 50.6357 70.2264 50.6447 70.2926 50.6676C70.3587 50.6905 70.4194 50.7269 70.4708 50.7745C70.5223 50.8221 70.5633 50.8798 70.5914 50.9441C70.6194 51.0084 70.6339 51.0778 70.6339 51.148C70.6339 51.2182 70.6194 51.2876 70.5914 51.3518C70.5633 51.4161 70.5223 51.4739 70.4708 51.5215C70.4194 51.5691 70.3587 51.6055 70.2926 51.6284C70.2264 51.6513 70.1563 51.6602 70.0865 51.6546H48.0747C48.005 51.6602 47.9348 51.6513 47.8687 51.6284C47.8025 51.6055 47.7418 51.5691 47.6904 51.5215C47.639 51.4739 47.598 51.4161 47.5699 51.3518C47.5418 51.2876 47.5273 51.2182 47.5273 51.148C47.5273 51.0778 47.5418 51.0084 47.5699 50.9441C47.598 50.8798 47.639 50.8221 47.6904 50.7745C47.7418 50.7269 47.8025 50.6905 47.8687 50.6676C47.9348 50.6447 48.005 50.6357 48.0747 50.6413Z" fill="#F4CAD8"/>
<path d="M52.7437 46.9402H60.9961C61.0658 46.9346 61.136 46.9435 61.2021 46.9664C61.2683 46.9893 61.3289 47.0257 61.3804 47.0733C61.4318 47.1209 61.4728 47.1787 61.5009 47.2429C61.529 47.3072 61.5435 47.3766 61.5435 47.4468C61.5435 47.517 61.529 47.5864 61.5009 47.6507C61.4728 47.715 61.4318 47.7727 61.3804 47.8203C61.3289 47.8679 61.2683 47.9043 61.2021 47.9272C61.136 47.9501 61.0658 47.9591 60.9961 47.9534H52.7437C52.6739 47.9591 52.6038 47.9501 52.5376 47.9272C52.4715 47.9043 52.4108 47.8679 52.3594 47.8203C52.308 47.7727 52.2669 47.715 52.2388 47.6507C52.2108 47.5864 52.1963 47.517 52.1963 47.4468C52.1963 47.3766 52.2108 47.3072 52.2388 47.2429C52.2669 47.1787 52.308 47.1209 52.3594 47.0733C52.4108 47.0257 52.4715 46.9893 52.5376 46.9664C52.6038 46.9435 52.6739 46.9346 52.7437 46.9402Z" fill="#F4CAD8"/>
<path d="M55.8921 43.3984H58.5205C58.5903 43.3928 58.6604 43.4017 58.7266 43.4246C58.7927 43.4476 58.8534 43.484 58.9048 43.5316C58.9563 43.5792 58.9973 43.6369 59.0254 43.7012C59.0534 43.7655 59.0679 43.8349 59.0679 43.9051C59.0679 43.9752 59.0534 44.0446 59.0254 44.1089C58.9973 44.1732 58.9563 44.231 58.9048 44.2786C58.8534 44.3262 58.7927 44.3626 58.7266 44.3855C58.6604 44.4084 58.5903 44.4173 58.5205 44.4117H55.8921C55.8224 44.4173 55.7522 44.4084 55.6861 44.3855C55.6199 44.3626 55.5592 44.3262 55.5078 44.2786C55.4564 44.231 55.4153 44.1732 55.3873 44.1089C55.3592 44.0446 55.3447 43.9752 55.3447 43.9051C55.3447 43.8349 55.3592 43.7655 55.3873 43.7012C55.4153 43.6369 55.4564 43.5792 55.5078 43.5316C55.5592 43.484 55.6199 43.4476 55.6861 43.4246C55.7522 43.4017 55.8224 43.3928 55.8921 43.3984Z" fill="#F4CAD8"/>
<path d="M76.9975 37.6185C76.8587 37.2448 76.6432 36.9046 76.3649 36.6198C76.0865 36.3351 75.7516 36.1122 75.3818 35.9657C75.0121 35.8191 74.6157 35.7522 74.2184 35.7692C73.8212 35.7862 73.4319 35.8868 73.076 36.0644C72.3514 36.4488 71.4515 37.7553 72.7023 38.0616C75.7336 38.8077 76.3412 42.6882 74.3268 45.0015C74.3106 45.0015 78.4205 41.4664 76.9975 37.6185Z" fill="#F4CAD8"/>
<path d="M94.763 38.6546C94.5413 38.3117 94.1959 38.0682 93.7991 37.9752C93.4023 37.8823 92.9851 37.9471 92.6349 38.1561C92.4628 38.2544 92.3123 38.3867 92.1925 38.5449C92.0727 38.7032 91.9861 38.8841 91.9378 39.0767C91.8895 39.2694 91.8806 39.4699 91.9117 39.6661C91.9427 39.8623 92.013 40.0502 92.1183 40.2185C92.3405 40.5616 92.6865 40.8051 93.0839 40.8981C93.4812 40.991 93.899 40.9261 94.2496 40.717C94.4218 40.6186 94.5723 40.4863 94.6921 40.328C94.8118 40.1697 94.8983 39.9887 94.9463 39.7959C94.9942 39.6031 95.0027 39.4026 94.9712 39.2064C94.9397 39.0102 94.8689 38.8225 94.763 38.6546Z" fill="#F4CAD8"/>
<path d="M89.6915 35.4355C89.6915 35.4355 86.5367 26.9644 87.9468 25.2799C88.837 24.2178 90.3543 25.1985 90.3543 25.1985L89.6915 35.4355Z" fill="#F4CAD8"/>
<path d="M90.6557 44.037C90.6557 44.037 92.1502 53.44 89.5608 54.4891C87.6764 55.2548 87.5074 53.0523 88.4821 50.7487C89.4568 48.4452 90.6557 44.037 90.6557 44.037Z" fill="#F4CAD8"/>
<path d="M79.9829 59.2005C79.9829 59.2005 75.0704 62.2403 65.4697 61.6832C65.4697 61.6832 66.0773 63.7032 67.653 63.1624C67.653 63.1624 67.2989 65.2313 70.041 64.9348C72.7832 64.6383 75.5643 62.0285 75.5643 62.0285L79.9829 59.2005Z" fill="#F4CAD8"/>
<path d="M85.7045 3.88699C87.2542 3.41456 87.7351 4.53862 87.7351 4.53862C89.1094 -0.970905 94.7398 0.0879917 94.7398 0.0879917C94.694 0.970243 94.4448 1.82983 94.0119 2.59923C93.579 3.36864 92.974 4.0269 92.2446 4.52233C91.6363 4.9668 90.9605 5.31005 90.2433 5.53887C90.1133 5.60729 89.9866 5.68223 89.8631 5.76042C88.1245 6.83916 86.6472 8.29274 85.5388 10.0156C84.1109 12.1871 83.0393 14.5741 82.3645 17.0857V17.1313C82.3645 17.1313 82.1988 4.95892 85.7045 3.88699Z" fill="#F4CAD8"/>
<path d="M89.6453 25.2473C89.6453 25.2473 89.1839 21.5233 86.4678 19.7345C86.4678 19.7345 89.2846 17.8709 90.1261 20.2037C91.0196 22.6538 89.6453 25.2473 89.6453 25.2473Z" fill="#F4CAD8"/>
<path d="M17.7751 58.6499C17.7751 58.6499 11.2771 58.0667 9.88007 61.2792C9.88007 61.2792 7.64802 62.3316 7.2289 59.9955C7.2289 59.9955 5.90007 62.8007 3.19043 61.5138C3.19043 61.5138 4.87665 56.8383 17.7751 58.6499Z" fill="#F4CAD8"/>
<path d="M85.5392 10.0156C85.615 9.38188 85.8125 8.76892 86.1207 8.21055C86.6744 7.23148 87.5614 6.48537 88.6192 6.10904C89.0224 5.95464 89.4389 5.83794 89.8635 5.76042C90.3994 5.65937 90.9428 5.60378 91.488 5.59426L91.7545 5.55516C91.7545 5.55516 91.8747 5.57471 92.0793 5.62684C92.5524 5.7457 92.9811 5.99889 93.3142 6.35604C93.6473 6.71319 93.8706 7.15914 93.9573 7.64037C93.9573 7.64037 88.5022 6.78674 85.5099 10.8105V10.7258C85.4962 10.4887 85.506 10.2508 85.5392 10.0156Z" fill="#F4CAD8"/>
</g>
<defs>
<clipPath id="clip0_731_22783">
<rect width="95" height="65" fill="white" transform="matrix(1 0 0 -1 0 65)"/>
</clipPath>
</defs>
</svg>
