<svg width="95" height="65" viewBox="0 0 95 65" fill="none" xmlns="http://www.w3.org/2000/svg">
<g clip-path="url(#clip0_731_22693)">
<path d="M22.6198 38.5048C14.4974 38.5048 7.86622 32.0863 7.86622 24.2016C7.86622 14.4108 16.0796 6.44792 26.1774 6.44792C26.2472 6.4423 26.3173 6.45124 26.3835 6.47415C26.4496 6.49706 26.5103 6.53346 26.5618 6.58106C26.6132 6.62865 26.6542 6.68641 26.6823 6.75069C26.7103 6.81497 26.7248 6.88439 26.7248 6.95456C26.7248 7.02473 26.7103 7.09415 26.6823 7.15843C26.6542 7.22271 26.6132 7.28047 26.5618 7.32806C26.5103 7.37565 26.4496 7.41206 26.3835 7.43497C26.3173 7.45788 26.2472 7.46681 26.1774 7.4612C16.658 7.4612 8.9124 14.9712 8.9124 24.2016C8.9124 31.5291 15.0627 37.4915 22.6198 37.4915C28.6109 37.4915 33.4811 32.7672 33.4811 26.9612C33.4811 22.377 29.6311 18.6301 24.8973 18.6301C21.1675 18.6301 18.133 21.5625 18.133 25.1888C18.133 28.0234 20.5145 30.3334 23.4386 30.3334C23.5083 30.3278 23.5785 30.3367 23.6446 30.3596C23.7107 30.3825 23.7714 30.4189 23.8229 30.4665C23.8743 30.5141 23.9153 30.5719 23.9434 30.6362C23.9715 30.7004 23.9859 30.7698 23.9859 30.84C23.9859 30.9102 23.9715 30.9796 23.9434 31.0439C23.9153 31.1082 23.8743 31.1659 23.8229 31.2135C23.7714 31.2611 23.7107 31.2975 23.6446 31.3204C23.5785 31.3433 23.5083 31.3523 23.4386 31.3467C19.9362 31.3467 17.0901 28.5838 17.0901 25.1888C17.0901 21.0118 20.5925 17.6168 24.8876 17.6168C30.1964 17.6168 34.5176 21.8068 34.5176 26.9547C34.5273 33.3309 29.186 38.5048 22.6198 38.5048Z" fill="#F4CAD8"/>
<path d="M4.83741 21.5364C4.70095 21.5382 4.56935 21.4857 4.47134 21.3905C4.37334 21.2953 4.31689 21.165 4.31433 21.0282C4.31991 16.556 6.04447 12.2581 9.12931 9.02843C9.22565 8.92951 9.3561 8.87135 9.49387 8.8659C9.63164 8.86045 9.76628 8.90811 9.87009 8.9991C9.92029 9.04304 9.96103 9.09678 9.98984 9.15704C10.0187 9.21729 10.0349 9.2828 10.0377 9.34957C10.0404 9.41634 10.0296 9.48296 10.0058 9.54539C9.98198 9.60781 9.94576 9.66472 9.89932 9.71264C6.9883 12.7574 5.35925 16.8101 5.35075 21.0282C5.34904 21.1636 5.29421 21.2928 5.19812 21.388C5.10204 21.4831 4.97244 21.5365 4.83741 21.5364Z" fill="#F4CAD8"/>
<path d="M64.31 7.46755H30.8456C30.7758 7.47316 30.7057 7.46423 30.6396 7.44132C30.5734 7.4184 30.5127 7.382 30.4613 7.33441C30.4099 7.28681 30.3688 7.22906 30.3408 7.16478C30.3127 7.10049 30.2982 7.03108 30.2982 6.96091C30.2982 6.89073 30.3127 6.82132 30.3408 6.75704C30.3688 6.69276 30.4099 6.635 30.4613 6.58741C30.5127 6.53981 30.5734 6.50341 30.6396 6.4805C30.7057 6.45758 30.7758 6.44865 30.8456 6.45427H64.31C64.3798 6.44865 64.4499 6.45758 64.5161 6.4805C64.5822 6.50341 64.6429 6.53981 64.6943 6.58741C64.7458 6.635 64.7868 6.69276 64.8149 6.75704C64.8429 6.82132 64.8574 6.89073 64.8574 6.96091C64.8574 7.03108 64.8429 7.10049 64.8149 7.16478C64.7868 7.22906 64.7458 7.28681 64.6943 7.33441C64.6429 7.382 64.5822 7.4184 64.5161 7.44132C64.4499 7.46423 64.3798 7.47316 64.31 7.46755Z" fill="#F4CAD8"/>
<path d="M14.2502 46.7966C13.4845 46.7983 12.7257 46.6523 12.0149 46.3666C11.9534 46.3428 11.8971 46.307 11.8494 46.2613C11.8016 46.2157 11.7634 46.161 11.7368 46.1004C11.7102 46.0398 11.6958 45.9746 11.6945 45.9084C11.6932 45.8423 11.7049 45.7765 11.729 45.7149C11.7847 45.5891 11.8872 45.49 12.0147 45.4389C12.1421 45.3878 12.2844 45.3886 12.4113 45.4412C12.9964 45.6748 13.6205 45.7942 14.2502 45.7931C15.5133 45.8123 16.7325 45.3286 17.6405 44.4479C18.5485 43.5672 19.0714 42.3615 19.0944 41.0949C19.0944 40.9558 19.1496 40.8223 19.2477 40.724C19.3458 40.6256 19.4788 40.5703 19.6175 40.5703C19.7563 40.5703 19.8893 40.6256 19.9874 40.724C20.0855 40.8223 20.1406 40.9558 20.1406 41.0949C20.1406 44.2357 17.4992 46.7966 14.2502 46.7966Z" fill="#F4CAD8"/>
<path d="M12.7363 45.9008C12.7363 46.1354 12.7363 46.3668 12.7363 46.5981C12.7363 47.0445 12.6909 47.4843 12.6519 47.9013C12.2393 52.176 10.5303 55.0008 8.89606 56.7765C8.68812 56.9948 8.48669 57.2001 8.28525 57.3891C7.70344 57.943 7.0715 58.4415 6.3976 58.878C5.28079 59.6108 4.04983 60.1515 2.75549 60.4778C3.36382 60.0333 4.0396 59.6901 4.75685 59.4613C4.88681 59.3928 5.01353 59.3179 5.13699 59.2397C4.60111 59.3408 4.05769 59.3963 3.51251 59.4059L3.24609 59.445C3.24609 59.445 3.12588 59.4254 2.92119 59.3733C4.64948 58.8488 6.23083 57.9248 7.53797 56.6755C8.28609 55.9607 8.94108 55.1539 9.48735 54.2743C10.6992 52.3389 11.6804 49.6282 11.6804 45.9008C11.6796 45.7995 11.7103 45.7005 11.7681 45.6174C11.7883 45.5892 11.8112 45.563 11.8364 45.5392C11.8867 45.489 11.9478 45.4511 12.0151 45.4284C12.0378 45.4185 12.0619 45.4119 12.0865 45.4089C12.1246 45.3982 12.164 45.3927 12.2035 45.3926C12.2774 45.3926 12.3504 45.4082 12.4179 45.4382C12.5113 45.4742 12.5916 45.5377 12.6484 45.6202C12.7052 45.7028 12.7358 45.8006 12.7363 45.9008Z" fill="#F4CAD8"/>
<path d="M0.52326 53.8995C0.407 53.9005 0.293729 53.8626 0.201357 53.7917C0.108985 53.7209 0.0427728 53.6213 0.0131688 53.5086C-0.00162268 53.4428 -0.00323534 53.3748 0.0084095 53.3085C0.0200548 53.2422 0.0447311 53.1788 0.081008 53.1221C0.117285 53.0654 0.164434 53.0165 0.21972 52.9783C0.275006 52.94 0.337324 52.9132 0.403049 52.8993C4.26283 52.0228 4.30182 47.8915 4.30182 47.7156V29.4178C4.31218 29.2863 4.3716 29.1635 4.46825 29.0739C4.5649 28.9843 4.69167 28.9346 4.82327 28.9346C4.95487 28.9346 5.08164 28.9843 5.17829 29.0739C5.27494 29.1635 5.33436 29.2863 5.34473 29.4178V47.7156C5.34473 47.7644 5.3025 52.8243 0.62723 53.8865C0.593155 53.8947 0.558288 53.899 0.52326 53.8995Z" fill="#F4CAD8"/>
<path d="M4.47374 29.9261C3.30748 29.9444 2.18156 29.4982 1.3429 28.6852C0.504233 27.8723 0.0212822 26.759 -7.9155e-05 25.5895C-7.9155e-05 25.4504 0.0550308 25.317 0.153129 25.2186C0.251225 25.1202 0.38427 25.0649 0.523001 25.0649C0.661732 25.0649 0.794775 25.1202 0.892873 25.2186C0.99097 25.317 1.04608 25.4504 1.04608 25.5895C1.08455 26.4753 1.46248 27.3119 2.10109 27.925C2.73969 28.5382 3.58965 28.8804 4.47374 28.8804C5.35784 28.8804 6.2078 28.5382 6.8464 27.925C7.48501 27.3119 7.86296 26.4753 7.90143 25.5895C7.91179 25.4579 7.97121 25.3351 8.06786 25.2456C8.16451 25.156 8.29128 25.1062 8.42288 25.1062C8.55448 25.1062 8.68125 25.156 8.7779 25.2456C8.87455 25.3351 8.93397 25.4579 8.94434 25.5895C8.92382 26.7587 8.44157 27.872 7.60342 28.685C6.76527 29.4981 5.6397 29.9444 4.47374 29.9261Z" fill="#F4CAD8"/>
<path d="M37.7204 26.9383C37.6525 26.9396 37.5851 26.9275 37.5219 26.9026C37.4588 26.8778 37.4011 26.8407 37.3522 26.7935C37.3033 26.7463 37.2642 26.6899 37.2371 26.6275C37.2099 26.5652 37.1953 26.4981 37.194 26.43C37.194 19.8649 31.6708 14.5215 24.9097 14.5215C24.8399 14.5271 24.7698 14.5182 24.7036 14.4953C24.6375 14.4724 24.5768 14.436 24.5254 14.3884C24.474 14.3408 24.4329 14.283 24.4048 14.2187C24.3768 14.1545 24.3623 14.085 24.3623 14.0149C24.3623 13.9447 24.3768 13.8753 24.4048 13.811C24.4329 13.7467 24.474 13.689 24.5254 13.6414C24.5768 13.5938 24.6375 13.5574 24.7036 13.5345C24.7698 13.5115 24.8399 13.5026 24.9097 13.5082C32.2589 13.5082 38.2305 19.3045 38.2305 26.43C38.2279 26.5646 38.1733 26.6929 38.0781 26.7878C37.9829 26.8826 37.8546 26.9366 37.7204 26.9383Z" fill="#F4CAD8"/>
<path d="M12.2125 7.46777C12.1401 7.46821 12.0684 7.45369 12.0019 7.4251C11.9354 7.39651 11.8754 7.35447 11.8258 7.3016C11.7776 7.25347 11.7397 7.19584 11.7147 7.13235C11.6897 7.06885 11.678 7.00085 11.6805 6.93262C11.6829 6.86439 11.6994 6.7974 11.7289 6.73587C11.7584 6.67433 11.8002 6.61957 11.8518 6.57503C12.7648 5.77027 14.2009 5.05348 15.5914 4.36275C17.3459 3.48631 19.331 2.49258 19.5129 1.59985C19.5422 1.44671 19.5454 1.20235 19.2108 0.827666C19.1663 0.777831 19.1323 0.71948 19.111 0.65613C19.0896 0.59278 19.0812 0.525745 19.0864 0.459068C19.0916 0.39239 19.1101 0.327452 19.141 0.268169C19.1719 0.208886 19.2144 0.156487 19.266 0.114132C19.3721 0.0262167 19.5079 -0.0174063 19.6452 -0.00770181C19.7824 0.00200265 19.9108 0.0642909 20.0035 0.166262C20.2179 0.373748 20.3785 0.630616 20.4714 0.914531C20.5643 1.19845 20.5865 1.50081 20.5363 1.79534C20.2602 3.17353 18.2263 4.19007 16.069 5.26526C14.7402 5.91689 13.3659 6.61413 12.5536 7.33092C12.4597 7.41566 12.3388 7.46416 12.2125 7.46777Z" fill="#F4CAD8"/>
<path d="M5.19536 24.1006C5.24225 24.1453 5.27957 24.1992 5.30508 24.2588C5.33059 24.3185 5.34375 24.3827 5.34375 24.4476C5.34375 24.5125 5.33059 24.5767 5.30508 24.6364C5.27957 24.696 5.24225 24.7498 5.19536 24.7946C5.09865 24.8872 4.97008 24.9389 4.83636 24.9389C4.70263 24.9389 4.57404 24.8872 4.47733 24.7946C4.43044 24.7498 4.39312 24.696 4.36761 24.6364C4.3421 24.5767 4.32894 24.5125 4.32894 24.4476C4.32894 24.3827 4.3421 24.3185 4.36761 24.2588C4.39312 24.1992 4.43044 24.1453 4.47733 24.1006C4.57404 24.008 4.70263 23.9563 4.83636 23.9563C4.97008 23.9563 5.09865 24.008 5.19536 24.1006Z" fill="#F4CAD8"/>
<path d="M22.2393 14.9971C21.9593 14.9971 21.7324 14.7769 21.7324 14.5052C21.7324 14.2335 21.9593 14.0132 22.2393 14.0132C22.5192 14.0132 22.7461 14.2335 22.7461 14.5052C22.7461 14.7769 22.5192 14.9971 22.2393 14.9971Z" fill="#F4CAD8"/>
<path d="M26.6055 30.4017C26.3255 30.4017 26.0986 30.1814 26.0986 29.9097C26.0986 29.638 26.3255 29.4177 26.6055 29.4177C26.8854 29.4177 27.1123 29.638 27.1123 29.9097C27.1123 30.1814 26.8854 30.4017 26.6055 30.4017Z" fill="#F4CAD8"/>
<path d="M12.3526 43.1282C12.3995 43.1729 12.4368 43.2267 12.4623 43.2864C12.4878 43.346 12.501 43.4103 12.501 43.4752C12.501 43.5401 12.4878 43.6043 12.4623 43.6639C12.4368 43.7236 12.3995 43.7774 12.3526 43.8222C12.2559 43.9148 12.1273 43.9665 11.9936 43.9665C11.8598 43.9665 11.7313 43.9148 11.6346 43.8222C11.5877 43.7774 11.5503 43.7236 11.5248 43.6639C11.4993 43.6043 11.4861 43.5401 11.4861 43.4752C11.4861 43.4103 11.4993 43.346 11.5248 43.2864C11.5503 43.2267 11.5877 43.1729 11.6346 43.1282C11.7313 43.0356 11.8598 42.9839 11.9936 42.9839C12.1273 42.9839 12.2559 43.0356 12.3526 43.1282Z" fill="#F4CAD8"/>
<path d="M37.6201 29.9097C37.3402 29.9097 37.1133 29.6895 37.1133 29.4178C37.1133 29.146 37.3402 28.9258 37.6201 28.9258C37.9 28.9258 38.127 29.146 38.127 29.4178C38.127 29.6895 37.9 29.9097 37.6201 29.9097Z" fill="#F4CAD8"/>
<path d="M67.5918 7.45466C67.3119 7.45466 67.085 7.2344 67.085 6.96268C67.085 6.69097 67.3119 6.4707 67.5918 6.4707C67.8717 6.4707 68.0986 6.69097 68.0986 6.96268C68.0986 7.2344 67.8717 7.45466 67.5918 7.45466Z" fill="#F4CAD8"/>
<path d="M70.8246 7.46778C70.7397 7.46852 70.656 7.44842 70.5806 7.40923C70.5053 7.37004 70.4407 7.31296 70.3924 7.24297C70.354 7.18837 70.327 7.12648 70.3132 7.06108C70.2994 6.99568 70.299 6.92814 70.312 6.86258C70.3251 6.79703 70.3514 6.73483 70.3892 6.67979C70.4271 6.62475 70.4757 6.57803 70.5321 6.54246C70.7368 6.40888 70.9123 6.29159 84.0609 6.39911C85.7732 6.42521 87.4662 6.03379 88.9942 5.25852C90.5223 4.48325 91.8397 3.34733 92.8331 1.94848L94.0515 0.221664C94.1324 0.10989 94.2532 0.0336595 94.3887 0.00878697C94.5242 -0.0160856 94.6641 0.0123089 94.7792 0.0880797C94.8355 0.124219 94.8839 0.171442 94.9215 0.22689C94.9591 0.282337 94.985 0.344854 94.9978 0.410654C95.0105 0.476453 95.0098 0.544165 94.9957 0.609687C94.9816 0.675209 94.9544 0.737178 94.9157 0.791839L93.7006 2.51866C92.6163 4.04055 91.1832 5.27889 89.522 6.12941C87.8609 6.97992 86.0202 7.41769 84.1551 7.40587H84.0609C73.2223 7.3179 71.2957 7.40587 70.9935 7.4352C70.9397 7.45658 70.8824 7.46764 70.8246 7.46778Z" fill="#F4CAD8"/>
<path d="M53.8354 10.98H26.6058C26.536 10.9856 26.4659 10.9767 26.3997 10.9538C26.3336 10.9309 26.2729 10.8945 26.2215 10.8469C26.17 10.7993 26.129 10.7415 26.101 10.6772C26.0729 10.6129 26.0584 10.5435 26.0584 10.4734C26.0584 10.4032 26.0729 10.3338 26.101 10.2695C26.129 10.2052 26.17 10.1475 26.2215 10.0999C26.2729 10.0523 26.3336 10.0159 26.3997 9.99295C26.4659 9.97004 26.536 9.9611 26.6058 9.96672H53.8354C53.9052 9.9611 53.9753 9.97004 54.0415 9.99295C54.1076 10.0159 54.1683 10.0523 54.2197 10.0999C54.2712 10.1475 54.3122 10.2052 54.3403 10.2695C54.3683 10.3338 54.3828 10.4032 54.3828 10.4734C54.3828 10.5435 54.3683 10.6129 54.3403 10.6772C54.3122 10.7415 54.2712 10.7993 54.2197 10.8469C54.1683 10.8945 54.1076 10.9309 54.0415 10.9538C53.9753 10.9767 53.9052 10.9856 53.8354 10.98Z" fill="#F4CAD8"/>
<path d="M46.9253 14.3587H24.9135C24.8437 14.3643 24.7736 14.3553 24.7074 14.3324C24.6413 14.3095 24.5806 14.2731 24.5292 14.2255C24.4777 14.1779 24.4367 14.1202 24.4086 14.0559C24.3806 13.9916 24.3661 13.9222 24.3661 13.852C24.3661 13.7818 24.3806 13.7124 24.4086 13.6482C24.4367 13.5839 24.4777 13.5261 24.5292 13.4785C24.5806 13.4309 24.6413 13.3945 24.7074 13.3716C24.7736 13.3487 24.8437 13.3398 24.9135 13.3454H46.9253C46.995 13.3398 47.0652 13.3487 47.1313 13.3716C47.1975 13.3945 47.2582 13.4309 47.3096 13.4785C47.361 13.5261 47.402 13.5839 47.4301 13.6482C47.4582 13.7124 47.4727 13.7818 47.4727 13.852C47.4727 13.9222 47.4582 13.9916 47.4301 14.0559C47.402 14.1202 47.361 14.1779 47.3096 14.2255C47.2582 14.2731 47.1975 14.3095 47.1313 14.3324C47.0652 14.3553 46.995 14.3643 46.9253 14.3587Z" fill="#F4CAD8"/>
<path d="M42.2563 18.0598H34.0039C33.9342 18.0654 33.864 18.0565 33.7979 18.0336C33.7317 18.0107 33.6711 17.9743 33.6196 17.9267C33.5682 17.8791 33.5272 17.8213 33.4991 17.7571C33.471 17.6928 33.4565 17.6234 33.4565 17.5532C33.4565 17.483 33.471 17.4136 33.4991 17.3493C33.5272 17.285 33.5682 17.2273 33.6196 17.1797C33.6711 17.1321 33.7317 17.0957 33.7979 17.0728C33.864 17.0499 33.9342 17.0409 34.0039 17.0466H42.2563C42.3261 17.0409 42.3962 17.0499 42.4624 17.0728C42.5285 17.0957 42.5892 17.1321 42.6406 17.1797C42.692 17.2273 42.7331 17.285 42.7612 17.3493C42.7892 17.4136 42.8037 17.483 42.8037 17.5532C42.8037 17.6234 42.7892 17.6928 42.7612 17.7571C42.7331 17.8213 42.692 17.8791 42.6406 17.9267C42.5892 17.9743 42.5285 18.0107 42.4624 18.0336C42.3962 18.0565 42.3261 18.0654 42.2563 18.0598Z" fill="#F4CAD8"/>
<path d="M39.1079 21.6016H36.4795C36.4097 21.6072 36.3396 21.5983 36.2734 21.5754C36.2073 21.5524 36.1466 21.516 36.0952 21.4684C36.0437 21.4208 36.0027 21.3631 35.9746 21.2988C35.9466 21.2345 35.9321 21.1651 35.9321 21.0949C35.9321 21.0248 35.9466 20.9554 35.9746 20.8911C36.0027 20.8268 36.0437 20.769 36.0952 20.7214C36.1466 20.6738 36.2073 20.6374 36.2734 20.6145C36.3396 20.5916 36.4097 20.5827 36.4795 20.5883H39.1079C39.1776 20.5827 39.2478 20.5916 39.3139 20.6145C39.3801 20.6374 39.4408 20.6738 39.4922 20.7214C39.5436 20.769 39.5847 20.8268 39.6127 20.8911C39.6408 20.9554 39.6553 21.0248 39.6553 21.0949C39.6553 21.1651 39.6408 21.2345 39.6127 21.2988C39.5847 21.3631 39.5436 21.4208 39.4922 21.4684C39.4408 21.516 39.3801 21.5524 39.3139 21.5754C39.2478 21.5983 39.1776 21.6072 39.1079 21.6016Z" fill="#F4CAD8"/>
<path d="M18.0025 27.3815C18.1413 27.7552 18.3568 28.0954 18.6351 28.3802C18.9135 28.6649 19.2484 28.8878 19.6182 29.0343C19.9879 29.1809 20.3843 29.2478 20.7816 29.2308C21.1788 29.2138 21.5681 29.1132 21.924 28.9356C22.6486 28.5512 23.5485 27.2447 22.2977 26.9384C19.2664 26.1923 18.6588 22.3118 20.6732 19.9985C20.6894 19.9985 16.5795 23.5336 18.0025 27.3815Z" fill="#F4CAD8"/>
<path d="M0.237032 26.3454C0.458654 26.6883 0.804111 26.9318 1.2009 27.0248C1.59768 27.1177 2.01494 27.0529 2.36511 26.8439C2.53722 26.7456 2.6877 26.6133 2.8075 26.4551C2.9273 26.2968 3.01393 26.1159 3.0622 25.9233C3.11046 25.7306 3.11935 25.5301 3.08833 25.3339C3.05731 25.1377 2.98703 24.9498 2.8817 24.7815C2.65948 24.4384 2.31345 24.1949 1.91613 24.1019C1.51881 24.009 1.10104 24.0739 0.750376 24.283C0.578191 24.3814 0.427663 24.5137 0.307925 24.672C0.188187 24.8303 0.101727 25.0113 0.0537422 25.2041C0.00575733 25.3969 -0.00274897 25.5974 0.0287561 25.7936C0.0602612 25.9898 0.131117 26.1775 0.237032 26.3454Z" fill="#F4CAD8"/>
<path d="M5.3085 29.5645C5.3085 29.5645 8.46325 38.0356 7.0532 39.7201C6.16298 40.7822 4.64572 39.8015 4.64572 39.8015L5.3085 29.5645Z" fill="#F4CAD8"/>
<path d="M4.34434 20.963C4.34434 20.963 2.84981 11.56 5.43924 10.5109C7.32365 9.74524 7.49259 11.9477 6.5179 14.2513C5.54321 16.5548 4.34434 20.963 4.34434 20.963Z" fill="#F4CAD8"/>
<path d="M15.0171 5.79954C15.0171 5.79954 19.9296 2.75969 29.5303 3.31684C29.5303 3.31684 28.9227 1.29679 27.347 1.83764C27.347 1.83764 27.7011 -0.231285 24.959 0.0652063C22.2168 0.361698 19.4357 2.97147 19.4357 2.97147L15.0171 5.79954Z" fill="#F4CAD8"/>
<path d="M9.29555 61.113C7.74579 61.5854 7.26494 60.4614 7.26494 60.4614C5.89062 65.9709 0.260152 64.912 0.260152 64.912C0.305977 64.0298 0.555153 63.1702 0.988097 62.4008C1.42104 61.6314 2.02596 60.9731 2.75536 60.4777C3.36369 60.0332 4.03947 59.69 4.75672 59.4611C4.88668 59.3927 5.0134 59.3178 5.13686 59.2396C6.87554 58.1608 8.35277 56.7073 9.46125 54.9844C10.8891 52.8129 11.9607 50.4259 12.6355 47.9143V47.8687C12.6355 47.8687 12.8012 60.0411 9.29555 61.113Z" fill="#F4CAD8"/>
<path d="M5.35472 39.7527C5.35472 39.7527 5.81608 43.4767 8.53223 45.2655C8.53223 45.2655 5.71536 47.1291 4.87388 44.7963C3.98041 42.3462 5.35472 39.7527 5.35472 39.7527Z" fill="#F4CAD8"/>
<path d="M77.2249 6.35014C77.2249 6.35014 83.7229 6.93335 85.1199 3.72081C85.1199 3.72081 87.352 2.66843 87.7711 5.00452C87.7711 5.00452 89.0999 2.19926 91.8096 3.48623C91.8096 3.48623 90.1233 8.16167 77.2249 6.35014Z" fill="#F4CAD8"/>
<path d="M9.46084 54.9844C9.38501 55.6181 9.1875 56.2311 8.87926 56.7895C8.32561 57.7685 7.43857 58.5146 6.3808 58.891C5.9776 59.0454 5.56106 59.1621 5.13645 59.2396C4.60057 59.3406 4.05715 59.3962 3.51197 59.4057L3.24555 59.4448C3.24555 59.4448 3.12534 59.4253 2.92065 59.3732C2.44763 59.2543 2.01886 59.0011 1.68577 58.644C1.35267 58.2868 1.12939 57.8409 1.04273 57.3596C1.04273 57.3596 6.49776 58.2133 9.49007 54.1895V54.2742C9.50382 54.5113 9.49403 54.7492 9.46084 54.9844Z" fill="#F4CAD8"/>
</g>
<defs>
<clipPath id="clip0_731_22693">
<rect width="95" height="65" fill="white" transform="matrix(-1 0 0 1 95 0)"/>
</clipPath>
</defs>
</svg>
