<svg width="95" height="65" viewBox="0 0 95 65" fill="none" xmlns="http://www.w3.org/2000/svg">
<g clip-path="url(#clip0_731_22723)">
<path d="M22.6198 26.4952C14.4974 26.4952 7.86622 32.9137 7.86622 40.7984C7.86622 50.5892 16.0796 58.5521 26.1774 58.5521C26.2472 58.5577 26.3173 58.5488 26.3835 58.5259C26.4496 58.5029 26.5103 58.4665 26.5618 58.4189C26.6132 58.3713 26.6542 58.3136 26.6823 58.2493C26.7103 58.185 26.7248 58.1156 26.7248 58.0454C26.7248 57.9753 26.7103 57.9059 26.6823 57.8416C26.6542 57.7773 26.6132 57.7195 26.5618 57.6719C26.5103 57.6243 26.4496 57.5879 26.3835 57.565C26.3173 57.5421 26.2472 57.5332 26.1774 57.5388C16.658 57.5388 8.9124 50.0288 8.9124 40.7984C8.9124 33.4709 15.0627 27.5085 22.6198 27.5085C28.6109 27.5085 33.4811 32.2328 33.4811 38.0388C33.4811 42.623 29.6311 46.3699 24.8973 46.3699C21.1675 46.3699 18.133 43.4375 18.133 39.8112C18.133 36.9766 20.5145 34.6666 23.4386 34.6666C23.5083 34.6722 23.5785 34.6633 23.6446 34.6404C23.7107 34.6175 23.7714 34.5811 23.8229 34.5335C23.8743 34.4859 23.9153 34.4281 23.9434 34.3638C23.9715 34.2996 23.9859 34.2302 23.9859 34.16C23.9859 34.0898 23.9715 34.0204 23.9434 33.9561C23.9153 33.8918 23.8743 33.8341 23.8229 33.7865C23.7714 33.7389 23.7107 33.7025 23.6446 33.6796C23.5785 33.6567 23.5083 33.6477 23.4386 33.6533C19.9362 33.6533 17.0901 36.4162 17.0901 39.8112C17.0901 43.9882 20.5925 47.3832 24.8876 47.3832C30.1964 47.3832 34.5176 43.1932 34.5176 38.0453C34.5273 31.6691 29.186 26.4952 22.6198 26.4952Z" fill="#F4CAD8"/>
<path d="M4.83741 43.4636C4.70095 43.4618 4.56935 43.5143 4.47134 43.6095C4.37334 43.7047 4.31689 43.835 4.31433 43.9718C4.31991 48.444 6.04447 52.7419 9.12931 55.9716C9.22565 56.0705 9.3561 56.1286 9.49387 56.1341C9.63164 56.1396 9.76628 56.0919 9.87009 56.0009C9.92029 55.957 9.96103 55.9032 9.98984 55.843C10.0187 55.7827 10.0349 55.7172 10.0377 55.6504C10.0404 55.5837 10.0296 55.517 10.0058 55.4546C9.98198 55.3922 9.94576 55.3353 9.89932 55.2874C6.9883 52.2426 5.35925 48.1899 5.35075 43.9718C5.34904 43.8364 5.29421 43.7072 5.19812 43.612C5.10204 43.5169 4.97244 43.4635 4.83741 43.4636Z" fill="#F4CAD8"/>
<path d="M64.31 57.5325H30.8456C30.7758 57.5268 30.7057 57.5358 30.6396 57.5587C30.5734 57.5816 30.5127 57.618 30.4613 57.6656C30.4099 57.7132 30.3688 57.7709 30.3408 57.8352C30.3127 57.8995 30.2982 57.9689 30.2982 58.0391C30.2982 58.1093 30.3127 58.1787 30.3408 58.243C30.3688 58.3072 30.4099 58.365 30.4613 58.4126C30.5127 58.4602 30.5734 58.4966 30.6396 58.5195C30.7057 58.5424 30.7758 58.5513 30.8456 58.5457H64.31C64.3798 58.5513 64.4499 58.5424 64.5161 58.5195C64.5822 58.4966 64.6429 58.4602 64.6943 58.4126C64.7458 58.365 64.7868 58.3072 64.8149 58.243C64.8429 58.1787 64.8574 58.1093 64.8574 58.0391C64.8574 57.9689 64.8429 57.8995 64.8149 57.8352C64.7868 57.7709 64.7458 57.7132 64.6943 57.6656C64.6429 57.618 64.5822 57.5816 64.5161 57.5587C64.4499 57.5358 64.3798 57.5268 64.31 57.5325Z" fill="#F4CAD8"/>
<path d="M14.2502 18.2034C13.4845 18.2017 12.7257 18.3477 12.0149 18.6334C11.9534 18.6572 11.8971 18.693 11.8494 18.7387C11.8016 18.7843 11.7634 18.839 11.7368 18.8996C11.7102 18.9602 11.6958 19.0254 11.6945 19.0916C11.6932 19.1577 11.7049 19.2235 11.729 19.2851C11.7847 19.4109 11.8872 19.51 12.0147 19.5611C12.1421 19.6122 12.2844 19.6114 12.4113 19.5588C12.9964 19.3252 13.6205 19.2058 14.2502 19.2069C15.5133 19.1877 16.7325 19.6714 17.6405 20.5521C18.5485 21.4328 19.0714 22.6385 19.0944 23.9051C19.0944 24.0442 19.1496 24.1777 19.2477 24.276C19.3458 24.3744 19.4788 24.4297 19.6175 24.4297C19.7563 24.4297 19.8893 24.3744 19.9874 24.276C20.0855 24.1777 20.1406 24.0442 20.1406 23.9051C20.1406 20.7643 17.4992 18.2034 14.2502 18.2034Z" fill="#F4CAD8"/>
<path d="M12.7363 19.0992C12.7363 18.8646 12.7363 18.6332 12.7363 18.4019C12.7363 17.9555 12.6909 17.5157 12.6519 17.0987C12.2393 12.824 10.5303 9.99915 8.89606 8.22346C8.68812 8.00517 8.48669 7.7999 8.28525 7.61093C7.70344 7.05697 7.0715 6.5585 6.3976 6.12196C5.28079 5.38918 4.04983 4.8485 2.75549 4.52221C3.36382 4.96668 4.0396 5.30993 4.75685 5.53875C4.88681 5.60717 5.01353 5.68211 5.13699 5.76031C4.60111 5.65925 4.05769 5.60367 3.51251 5.59414L3.24609 5.55504C3.24609 5.55504 3.12588 5.57459 2.92119 5.62672C4.64948 6.15116 6.23083 7.0752 7.53797 8.32446C8.28609 9.03929 8.94108 9.84611 9.48735 10.7257C10.6992 12.6611 11.6804 15.3718 11.6804 19.0992C11.6796 19.2005 11.7103 19.2995 11.7681 19.3826C11.7883 19.4108 11.8112 19.437 11.8364 19.4608C11.8867 19.511 11.9478 19.5489 12.0151 19.5716C12.0378 19.5815 12.0619 19.5881 12.0865 19.5911C12.1246 19.6018 12.164 19.6073 12.2035 19.6074C12.2774 19.6074 12.3504 19.5918 12.4179 19.5618C12.5113 19.5258 12.5916 19.4623 12.6484 19.3798C12.7052 19.2972 12.7358 19.1994 12.7363 19.0992Z" fill="#F4CAD8"/>
<path d="M0.52326 11.1005C0.407 11.0995 0.293729 11.1374 0.201357 11.2083C0.108985 11.2791 0.0427728 11.3787 0.0131688 11.4914C-0.00162268 11.5572 -0.00323534 11.6252 0.0084095 11.6915C0.0200548 11.7578 0.0447311 11.8212 0.081008 11.8779C0.117285 11.9346 0.164434 11.9835 0.21972 12.0217C0.275006 12.06 0.337324 12.0868 0.403049 12.1007C4.26283 12.9772 4.30182 17.1085 4.30182 17.2844V35.5822C4.31218 35.7137 4.3716 35.8365 4.46825 35.9261C4.5649 36.0157 4.69167 36.0654 4.82327 36.0654C4.95487 36.0654 5.08164 36.0157 5.17829 35.9261C5.27494 35.8365 5.33436 35.7137 5.34473 35.5822V17.2844C5.34473 17.2356 5.3025 12.1757 0.62723 11.1135C0.593155 11.1053 0.558288 11.101 0.52326 11.1005Z" fill="#F4CAD8"/>
<path d="M4.47374 35.0739C3.30748 35.0556 2.18156 35.5018 1.3429 36.3148C0.504233 37.1277 0.0212822 38.241 -7.9155e-05 39.4105C-7.9155e-05 39.5496 0.0550308 39.683 0.153129 39.7814C0.251225 39.8798 0.38427 39.9351 0.523001 39.9351C0.661732 39.9351 0.794775 39.8798 0.892873 39.7814C0.99097 39.683 1.04608 39.5496 1.04608 39.4105C1.08455 38.5247 1.46248 37.6881 2.10109 37.075C2.73969 36.4618 3.58965 36.1196 4.47374 36.1196C5.35784 36.1196 6.2078 36.4618 6.8464 37.075C7.48501 37.6881 7.86296 38.5247 7.90143 39.4105C7.91179 39.5421 7.97121 39.6649 8.06786 39.7544C8.16451 39.844 8.29128 39.8938 8.42288 39.8938C8.55448 39.8938 8.68125 39.844 8.7779 39.7544C8.87455 39.6649 8.93397 39.5421 8.94434 39.4105C8.92382 38.2413 8.44157 37.128 7.60342 36.315C6.76527 35.5019 5.6397 35.0556 4.47374 35.0739Z" fill="#F4CAD8"/>
<path d="M37.7204 38.0617C37.6525 38.0604 37.5851 38.0725 37.5219 38.0974C37.4588 38.1222 37.4011 38.1593 37.3522 38.2065C37.3033 38.2537 37.2642 38.3101 37.2371 38.3725C37.2099 38.4348 37.1953 38.5019 37.194 38.57C37.194 45.1351 31.6708 50.4785 24.9097 50.4785C24.8399 50.4729 24.7698 50.4818 24.7036 50.5047C24.6375 50.5276 24.5768 50.564 24.5254 50.6116C24.474 50.6592 24.4329 50.717 24.4048 50.7813C24.3768 50.8455 24.3623 50.915 24.3623 50.9851C24.3623 51.0553 24.3768 51.1247 24.4048 51.189C24.4329 51.2533 24.474 51.311 24.5254 51.3586C24.5768 51.4062 24.6375 51.4426 24.7036 51.4655C24.7698 51.4885 24.8399 51.4974 24.9097 51.4918C32.2589 51.4918 38.2305 45.6955 38.2305 38.57C38.2279 38.4354 38.1733 38.3071 38.0781 38.2122C37.9829 38.1174 37.8546 38.0634 37.7204 38.0617Z" fill="#F4CAD8"/>
<path d="M12.2125 57.5322C12.1401 57.5318 12.0684 57.5463 12.0019 57.5749C11.9354 57.6035 11.8754 57.6455 11.8258 57.6984C11.7776 57.7465 11.7397 57.8042 11.7147 57.8677C11.6897 57.9312 11.678 57.9992 11.6805 58.0674C11.6829 58.1356 11.6994 58.2026 11.7289 58.2641C11.7584 58.3257 11.8002 58.3804 11.8518 58.425C12.7648 59.2297 14.2009 59.9465 15.5914 60.6372C17.3459 61.5137 19.331 62.5074 19.5129 63.4002C19.5422 63.5533 19.5454 63.7976 19.2108 64.1723C19.1663 64.2222 19.1323 64.2805 19.111 64.3439C19.0896 64.4072 19.0812 64.4743 19.0864 64.5409C19.0916 64.6076 19.1101 64.6725 19.141 64.7318C19.1719 64.7911 19.2144 64.8435 19.266 64.8859C19.3721 64.9738 19.5079 65.0174 19.6452 65.0077C19.7824 64.998 19.9108 64.9357 20.0035 64.8337C20.2179 64.6263 20.3785 64.3694 20.4714 64.0855C20.5643 63.8016 20.5865 63.4992 20.5363 63.2047C20.2602 61.8265 18.2263 60.8099 16.069 59.7347C14.7402 59.0831 13.3659 58.3859 12.5536 57.6691C12.4597 57.5843 12.3388 57.5358 12.2125 57.5322Z" fill="#F4CAD8"/>
<path d="M5.19536 40.8994C5.24225 40.8547 5.27957 40.8008 5.30508 40.7412C5.33059 40.6815 5.34375 40.6173 5.34375 40.5524C5.34375 40.4875 5.33059 40.4233 5.30508 40.3636C5.27957 40.304 5.24225 40.2502 5.19536 40.2054C5.09865 40.1128 4.97008 40.0611 4.83636 40.0611C4.70263 40.0611 4.57404 40.1128 4.47733 40.2054C4.43044 40.2502 4.39312 40.304 4.36761 40.3636C4.3421 40.4233 4.32894 40.4875 4.32894 40.5524C4.32894 40.6173 4.3421 40.6815 4.36761 40.7412C4.39312 40.8008 4.43044 40.8547 4.47733 40.8994C4.57404 40.992 4.70263 41.0437 4.83636 41.0437C4.97008 41.0437 5.09865 40.992 5.19536 40.8994Z" fill="#F4CAD8"/>
<path d="M22.2393 50.0029C21.9593 50.0029 21.7324 50.2231 21.7324 50.4948C21.7324 50.7665 21.9593 50.9868 22.2393 50.9868C22.5192 50.9868 22.7461 50.7665 22.7461 50.4948C22.7461 50.2231 22.5192 50.0029 22.2393 50.0029Z" fill="#F4CAD8"/>
<path d="M26.6055 34.5983C26.3255 34.5983 26.0986 34.8186 26.0986 35.0903C26.0986 35.362 26.3255 35.5823 26.6055 35.5823C26.8854 35.5823 27.1123 35.362 27.1123 35.0903C27.1123 34.8186 26.8854 34.5983 26.6055 34.5983Z" fill="#F4CAD8"/>
<path d="M12.3526 21.8718C12.3995 21.8271 12.4368 21.7733 12.4623 21.7136C12.4878 21.654 12.501 21.5897 12.501 21.5248C12.501 21.4599 12.4878 21.3957 12.4623 21.3361C12.4368 21.2764 12.3995 21.2226 12.3526 21.1778C12.2559 21.0852 12.1273 21.0335 11.9936 21.0335C11.8598 21.0335 11.7313 21.0852 11.6346 21.1778C11.5877 21.2226 11.5503 21.2764 11.5248 21.3361C11.4993 21.3957 11.4861 21.4599 11.4861 21.5248C11.4861 21.5897 11.4993 21.654 11.5248 21.7136C11.5503 21.7733 11.5877 21.8271 11.6346 21.8718C11.7313 21.9644 11.8598 22.0161 11.9936 22.0161C12.1273 22.0161 12.2559 21.9644 12.3526 21.8718Z" fill="#F4CAD8"/>
<path d="M37.6201 35.0903C37.3402 35.0903 37.1133 35.3105 37.1133 35.5822C37.1133 35.854 37.3402 36.0742 37.6201 36.0742C37.9 36.0742 38.127 35.854 38.127 35.5822C38.127 35.3105 37.9 35.0903 37.6201 35.0903Z" fill="#F4CAD8"/>
<path d="M67.5918 57.5453C67.3119 57.5453 67.085 57.7656 67.085 58.0373C67.085 58.309 67.3119 58.5293 67.5918 58.5293C67.8717 58.5293 68.0986 58.309 68.0986 58.0373C68.0986 57.7656 67.8717 57.5453 67.5918 57.5453Z" fill="#F4CAD8"/>
<path d="M70.8246 57.5322C70.7397 57.5315 70.656 57.5516 70.5806 57.5908C70.5053 57.63 70.4407 57.687 70.3924 57.757C70.354 57.8116 70.327 57.8735 70.3132 57.9389C70.2994 58.0043 70.299 58.0719 70.312 58.1374C70.3251 58.203 70.3514 58.2652 70.3892 58.3202C70.4271 58.3752 70.4757 58.422 70.5321 58.4575C70.7368 58.5911 70.9123 58.7084 84.0609 58.6009C85.7732 58.5748 87.4662 58.9662 88.9942 59.7415C90.5223 60.5168 91.8397 61.6527 92.8331 63.0515L94.0515 64.7783C94.1324 64.8901 94.2532 64.9663 94.3887 64.9912C94.5242 65.0161 94.6641 64.9877 94.7792 64.9119C94.8355 64.8758 94.8839 64.8286 94.9215 64.7731C94.9591 64.7177 94.985 64.6551 94.9978 64.5893C95.0105 64.5235 95.0098 64.4558 94.9957 64.3903C94.9816 64.3248 94.9544 64.2628 94.9157 64.2082L93.7006 62.4813C92.6163 60.9594 91.1832 59.7211 89.522 58.8706C87.8609 58.0201 86.0202 57.5823 84.1551 57.5941H84.0609C73.2223 57.6821 71.2957 57.5941 70.9935 57.5648C70.9397 57.5434 70.8824 57.5324 70.8246 57.5322Z" fill="#F4CAD8"/>
<path d="M53.8354 54.02H26.6058C26.536 54.0144 26.4659 54.0233 26.3997 54.0462C26.3336 54.0691 26.2729 54.1055 26.2215 54.1531C26.17 54.2007 26.129 54.2585 26.101 54.3228C26.0729 54.3871 26.0584 54.4565 26.0584 54.5266C26.0584 54.5968 26.0729 54.6662 26.101 54.7305C26.129 54.7948 26.17 54.8525 26.2215 54.9001C26.2729 54.9477 26.3336 54.9841 26.3997 55.0071C26.4659 55.03 26.536 55.0389 26.6058 55.0333H53.8354C53.9052 55.0389 53.9753 55.03 54.0415 55.0071C54.1076 54.9841 54.1683 54.9477 54.2197 54.9001C54.2712 54.8525 54.3122 54.7948 54.3403 54.7305C54.3683 54.6662 54.3828 54.5968 54.3828 54.5266C54.3828 54.4565 54.3683 54.3871 54.3403 54.3228C54.3122 54.2585 54.2712 54.2007 54.2197 54.1531C54.1683 54.1055 54.1076 54.0691 54.0415 54.0462C53.9753 54.0233 53.9052 54.0144 53.8354 54.02Z" fill="#F4CAD8"/>
<path d="M46.9253 50.6413H24.9135C24.8437 50.6357 24.7736 50.6447 24.7074 50.6676C24.6413 50.6905 24.5806 50.7269 24.5292 50.7745C24.4777 50.8221 24.4367 50.8798 24.4086 50.9441C24.3806 51.0084 24.3661 51.0778 24.3661 51.148C24.3661 51.2182 24.3806 51.2876 24.4086 51.3518C24.4367 51.4161 24.4777 51.4739 24.5292 51.5215C24.5806 51.5691 24.6413 51.6055 24.7074 51.6284C24.7736 51.6513 24.8437 51.6602 24.9135 51.6546H46.9253C46.995 51.6602 47.0652 51.6513 47.1313 51.6284C47.1975 51.6055 47.2582 51.5691 47.3096 51.5215C47.361 51.4739 47.402 51.4161 47.4301 51.3518C47.4582 51.2876 47.4727 51.2182 47.4727 51.148C47.4727 51.0778 47.4582 51.0084 47.4301 50.9441C47.402 50.8798 47.361 50.8221 47.3096 50.7745C47.2582 50.7269 47.1975 50.6905 47.1313 50.6676C47.0652 50.6447 46.995 50.6357 46.9253 50.6413Z" fill="#F4CAD8"/>
<path d="M42.2563 46.9402H34.0039C33.9342 46.9346 33.864 46.9435 33.7979 46.9664C33.7317 46.9893 33.6711 47.0257 33.6196 47.0733C33.5682 47.1209 33.5272 47.1787 33.4991 47.2429C33.471 47.3072 33.4565 47.3766 33.4565 47.4468C33.4565 47.517 33.471 47.5864 33.4991 47.6507C33.5272 47.715 33.5682 47.7727 33.6196 47.8203C33.6711 47.8679 33.7317 47.9043 33.7979 47.9272C33.864 47.9501 33.9342 47.9591 34.0039 47.9534H42.2563C42.3261 47.9591 42.3962 47.9501 42.4624 47.9272C42.5285 47.9043 42.5892 47.8679 42.6406 47.8203C42.692 47.7727 42.7331 47.715 42.7612 47.6507C42.7892 47.5864 42.8037 47.517 42.8037 47.4468C42.8037 47.3766 42.7892 47.3072 42.7612 47.2429C42.7331 47.1787 42.692 47.1209 42.6406 47.0733C42.5892 47.0257 42.5285 46.9893 42.4624 46.9664C42.3962 46.9435 42.3261 46.9346 42.2563 46.9402Z" fill="#F4CAD8"/>
<path d="M39.1079 43.3984H36.4795C36.4097 43.3928 36.3396 43.4017 36.2734 43.4246C36.2073 43.4476 36.1466 43.484 36.0952 43.5316C36.0437 43.5792 36.0027 43.6369 35.9746 43.7012C35.9466 43.7655 35.9321 43.8349 35.9321 43.9051C35.9321 43.9752 35.9466 44.0446 35.9746 44.1089C36.0027 44.1732 36.0437 44.231 36.0952 44.2786C36.1466 44.3262 36.2073 44.3626 36.2734 44.3855C36.3396 44.4084 36.4097 44.4173 36.4795 44.4117H39.1079C39.1776 44.4173 39.2478 44.4084 39.3139 44.3855C39.3801 44.3626 39.4408 44.3262 39.4922 44.2786C39.5436 44.231 39.5847 44.1732 39.6127 44.1089C39.6408 44.0446 39.6553 43.9752 39.6553 43.9051C39.6553 43.8349 39.6408 43.7655 39.6127 43.7012C39.5847 43.6369 39.5436 43.5792 39.4922 43.5316C39.4408 43.484 39.3801 43.4476 39.3139 43.4246C39.2478 43.4017 39.1776 43.3928 39.1079 43.3984Z" fill="#F4CAD8"/>
<path d="M18.0025 37.6185C18.1413 37.2448 18.3568 36.9046 18.6351 36.6198C18.9135 36.3351 19.2484 36.1122 19.6182 35.9657C19.9879 35.8191 20.3843 35.7522 20.7816 35.7692C21.1788 35.7862 21.5681 35.8868 21.924 36.0644C22.6486 36.4488 23.5485 37.7553 22.2977 38.0616C19.2664 38.8077 18.6588 42.6882 20.6732 45.0015C20.6894 45.0015 16.5795 41.4664 18.0025 37.6185Z" fill="#F4CAD8"/>
<path d="M0.237032 38.6546C0.458654 38.3117 0.804111 38.0682 1.2009 37.9752C1.59768 37.8823 2.01494 37.9471 2.36511 38.1561C2.53722 38.2544 2.6877 38.3867 2.8075 38.5449C2.9273 38.7032 3.01393 38.8841 3.0622 39.0767C3.11046 39.2694 3.11935 39.4699 3.08833 39.6661C3.05731 39.8623 2.98703 40.0502 2.8817 40.2185C2.65948 40.5616 2.31345 40.8051 1.91613 40.8981C1.51881 40.991 1.10104 40.9261 0.750376 40.717C0.578191 40.6186 0.427663 40.4863 0.307925 40.328C0.188187 40.1697 0.101727 39.9887 0.0537422 39.7959C0.00575733 39.6031 -0.00274897 39.4026 0.0287561 39.2064C0.0602612 39.0102 0.131117 38.8225 0.237032 38.6546Z" fill="#F4CAD8"/>
<path d="M5.3085 35.4355C5.3085 35.4355 8.46325 26.9644 7.0532 25.2799C6.16298 24.2178 4.64572 25.1985 4.64572 25.1985L5.3085 35.4355Z" fill="#F4CAD8"/>
<path d="M4.34434 44.037C4.34434 44.037 2.84981 53.44 5.43924 54.4891C7.32365 55.2548 7.49259 53.0523 6.5179 50.7487C5.54321 48.4452 4.34434 44.037 4.34434 44.037Z" fill="#F4CAD8"/>
<path d="M15.0171 59.2005C15.0171 59.2005 19.9296 62.2403 29.5303 61.6832C29.5303 61.6832 28.9227 63.7032 27.347 63.1624C27.347 63.1624 27.7011 65.2313 24.959 64.9348C22.2168 64.6383 19.4357 62.0285 19.4357 62.0285L15.0171 59.2005Z" fill="#F4CAD8"/>
<path d="M9.29555 3.88699C7.74579 3.41456 7.26494 4.53862 7.26494 4.53862C5.89062 -0.970905 0.260152 0.0879917 0.260152 0.0879917C0.305977 0.970243 0.555153 1.82983 0.988097 2.59923C1.42104 3.36864 2.02596 4.0269 2.75536 4.52233C3.36369 4.9668 4.03947 5.31005 4.75672 5.53887C4.88668 5.60729 5.0134 5.68223 5.13686 5.76042C6.87554 6.83916 8.35277 8.29274 9.46125 10.0156C10.8891 12.1871 11.9607 14.5741 12.6355 17.0857V17.1313C12.6355 17.1313 12.8012 4.95892 9.29555 3.88699Z" fill="#F4CAD8"/>
<path d="M5.35472 25.2473C5.35472 25.2473 5.81608 21.5233 8.53223 19.7345C8.53223 19.7345 5.71536 17.8709 4.87388 20.2037C3.98041 22.6538 5.35472 25.2473 5.35472 25.2473Z" fill="#F4CAD8"/>
<path d="M77.2249 58.6499C77.2249 58.6499 83.7229 58.0667 85.1199 61.2792C85.1199 61.2792 87.352 62.3316 87.7711 59.9955C87.7711 59.9955 89.0999 62.8007 91.8096 61.5138C91.8096 61.5138 90.1233 56.8383 77.2249 58.6499Z" fill="#F4CAD8"/>
<path d="M9.46084 10.0156C9.38501 9.38188 9.1875 8.76892 8.87926 8.21055C8.32561 7.23148 7.43857 6.48537 6.3808 6.10904C5.9776 5.95464 5.56106 5.83794 5.13645 5.76042C4.60057 5.65937 4.05715 5.60378 3.51197 5.59426L3.24555 5.55516C3.24555 5.55516 3.12534 5.57471 2.92065 5.62684C2.44763 5.7457 2.01886 5.99889 1.68577 6.35604C1.35267 6.71319 1.12939 7.15914 1.04273 7.64037C1.04273 7.64037 6.49776 6.78674 9.49007 10.8105V10.7258C9.50382 10.4887 9.49403 10.2508 9.46084 10.0156Z" fill="#F4CAD8"/>
</g>
<defs>
<clipPath id="clip0_731_22723">
<rect width="95" height="65" fill="white" transform="matrix(-1 0 0 -1 95 65)"/>
</clipPath>
</defs>
</svg>
