<svg width="95" height="65" viewBox="0 0 95 65" fill="none" xmlns="http://www.w3.org/2000/svg">
<g clip-path="url(#clip0_731_22753)">
<path d="M72.3802 38.5048C80.5026 38.5048 87.1338 32.0863 87.1338 24.2016C87.1338 14.4108 78.9204 6.44792 68.8226 6.44792C68.7528 6.4423 68.6827 6.45124 68.6165 6.47415C68.5504 6.49706 68.4897 6.53346 68.4382 6.58106C68.3868 6.62865 68.3458 6.68641 68.3177 6.75069C68.2897 6.81497 68.2752 6.88439 68.2752 6.95456C68.2752 7.02473 68.2897 7.09415 68.3177 7.15843C68.3458 7.22271 68.3868 7.28047 68.4382 7.32806C68.4897 7.37565 68.5504 7.41206 68.6165 7.43497C68.6827 7.45788 68.7528 7.46681 68.8226 7.4612C78.342 7.4612 86.0876 14.9712 86.0876 24.2016C86.0876 31.5291 79.9373 37.4915 72.3802 37.4915C66.3891 37.4915 61.5189 32.7672 61.5189 26.9612C61.5189 22.377 65.3689 18.6301 70.1027 18.6301C73.8325 18.6301 76.867 21.5625 76.867 25.1888C76.867 28.0234 74.4855 30.3334 71.5614 30.3334C71.4917 30.3278 71.4215 30.3367 71.3554 30.3596C71.2893 30.3825 71.2286 30.4189 71.1771 30.4665C71.1257 30.5141 71.0847 30.5719 71.0566 30.6362C71.0285 30.7004 71.0141 30.7698 71.0141 30.84C71.0141 30.9102 71.0285 30.9796 71.0566 31.0439C71.0847 31.1082 71.1257 31.1659 71.1771 31.2135C71.2286 31.2611 71.2893 31.2975 71.3554 31.3204C71.4215 31.3433 71.4917 31.3523 71.5614 31.3467C75.0638 31.3467 77.9099 28.5838 77.9099 25.1888C77.9099 21.0118 74.4075 17.6168 70.1124 17.6168C64.8036 17.6168 60.4824 21.8068 60.4824 26.9547C60.4727 33.3309 65.814 38.5048 72.3802 38.5048Z" fill="#F4CAD8"/>
<path d="M90.1626 21.5364C90.299 21.5382 90.4306 21.4857 90.5287 21.3905C90.6267 21.2953 90.6831 21.165 90.6857 21.0282C90.6801 16.556 88.9555 12.2581 85.8707 9.02843C85.7744 8.92951 85.6439 8.87135 85.5061 8.8659C85.3684 8.86045 85.2337 8.90811 85.1299 8.9991C85.0797 9.04304 85.039 9.09678 85.0102 9.15704C84.9813 9.21729 84.9651 9.2828 84.9623 9.34957C84.9596 9.41634 84.9704 9.48296 84.9942 9.54539C85.018 9.60781 85.0542 9.66472 85.1007 9.71264C88.0117 12.7574 89.6407 16.8101 89.6492 21.0282C89.651 21.1636 89.7058 21.2928 89.8019 21.388C89.898 21.4831 90.0276 21.5365 90.1626 21.5364Z" fill="#F4CAD8"/>
<path d="M30.69 7.46755H64.1544C64.2242 7.47316 64.2943 7.46423 64.3604 7.44132C64.4266 7.4184 64.4873 7.382 64.5387 7.33441C64.5901 7.28681 64.6312 7.22906 64.6592 7.16478C64.6873 7.10049 64.7018 7.03108 64.7018 6.96091C64.7018 6.89073 64.6873 6.82132 64.6592 6.75704C64.6312 6.69276 64.5901 6.635 64.5387 6.58741C64.4873 6.53981 64.4266 6.50341 64.3604 6.4805C64.2943 6.45758 64.2242 6.44865 64.1544 6.45427H30.69C30.6202 6.44865 30.5501 6.45758 30.4839 6.4805C30.4178 6.50341 30.3571 6.53981 30.3057 6.58741C30.2542 6.635 30.2132 6.69276 30.1851 6.75704C30.1571 6.82132 30.1426 6.89073 30.1426 6.96091C30.1426 7.03108 30.1571 7.10049 30.1851 7.16478C30.2132 7.22906 30.2542 7.28681 30.3057 7.33441C30.3571 7.382 30.4178 7.4184 30.4839 7.44132C30.5501 7.46423 30.6202 7.47316 30.69 7.46755Z" fill="#F4CAD8"/>
<path d="M80.7498 46.7966C81.5155 46.7983 82.2743 46.6523 82.9851 46.3666C83.0466 46.3428 83.1029 46.307 83.1506 46.2613C83.1984 46.2157 83.2366 46.161 83.2632 46.1004C83.2898 46.0398 83.3042 45.9746 83.3055 45.9084C83.3068 45.8423 83.2951 45.7765 83.271 45.7149C83.2153 45.5891 83.1128 45.49 82.9853 45.4389C82.8579 45.3878 82.7156 45.3886 82.5887 45.4412C82.0036 45.6748 81.3795 45.7942 80.7498 45.7931C79.4867 45.8123 78.2675 45.3286 77.3595 44.4479C76.4515 43.5672 75.9286 42.3615 75.9056 41.0949C75.9056 40.9558 75.8504 40.8223 75.7523 40.724C75.6542 40.6256 75.5212 40.5703 75.3825 40.5703C75.2437 40.5703 75.1107 40.6256 75.0126 40.724C74.9145 40.8223 74.8594 40.9558 74.8594 41.0949C74.8594 44.2357 77.5008 46.7966 80.7498 46.7966Z" fill="#F4CAD8"/>
<path d="M82.2637 45.9008C82.2637 46.1354 82.2637 46.3668 82.2637 46.5981C82.2637 47.0445 82.3091 47.4843 82.3481 47.9013C82.7607 52.176 84.4697 55.0008 86.1039 56.7765C86.3119 56.9948 86.5133 57.2001 86.7148 57.3891C87.2966 57.943 87.9285 58.4415 88.6024 58.878C89.7192 59.6108 90.9502 60.1515 92.2445 60.4778C91.6362 60.0333 90.9604 59.6901 90.2432 59.4613C90.1132 59.3928 89.9865 59.3179 89.863 59.2397C90.3989 59.3408 90.9423 59.3963 91.4875 59.4059L91.7539 59.445C91.7539 59.445 91.8741 59.4254 92.0788 59.3733C90.3505 58.8488 88.7692 57.9248 87.462 56.6755C86.7139 55.9607 86.0589 55.1539 85.5126 54.2743C84.3008 52.3389 83.3196 49.6282 83.3196 45.9008C83.3204 45.7995 83.2897 45.7005 83.2319 45.6174C83.2117 45.5892 83.1888 45.563 83.1636 45.5392C83.1133 45.489 83.0522 45.4511 82.9849 45.4284C82.9622 45.4185 82.9381 45.4119 82.9135 45.4089C82.8754 45.3982 82.836 45.3927 82.7965 45.3926C82.7226 45.3926 82.6496 45.4082 82.5821 45.4382C82.4887 45.4742 82.4084 45.5377 82.3516 45.6202C82.2948 45.7028 82.2642 45.8006 82.2637 45.9008Z" fill="#F4CAD8"/>
<path d="M94.4767 53.8995C94.593 53.9005 94.7063 53.8626 94.7986 53.7917C94.891 53.7209 94.9572 53.6213 94.9868 53.5086C95.0016 53.4428 95.0032 53.3748 94.9916 53.3085C94.9799 53.2422 94.9553 53.1788 94.919 53.1221C94.8827 53.0654 94.8356 53.0165 94.7803 52.9783C94.725 52.94 94.6627 52.9132 94.597 52.8993C90.7372 52.0228 90.6982 47.8915 90.6982 47.7156V29.4178C90.6878 29.2863 90.6284 29.1635 90.5317 29.0739C90.4351 28.9843 90.3083 28.9346 90.1767 28.9346C90.0451 28.9346 89.9184 28.9843 89.8217 29.0739C89.7251 29.1635 89.6656 29.2863 89.6553 29.4178V47.7156C89.6553 47.7644 89.6975 52.8243 94.3728 53.8865C94.4068 53.8947 94.4417 53.899 94.4767 53.8995Z" fill="#F4CAD8"/>
<path d="M90.5263 29.9261C91.6925 29.9444 92.8184 29.4982 93.6571 28.6852C94.4958 27.8723 94.9787 26.759 95.0001 25.5895C95.0001 25.4504 94.945 25.317 94.8469 25.2186C94.7488 25.1202 94.6157 25.0649 94.477 25.0649C94.3383 25.0649 94.2052 25.1202 94.1071 25.2186C94.009 25.317 93.9539 25.4504 93.9539 25.5895C93.9155 26.4753 93.5375 27.3119 92.8989 27.925C92.2603 28.5382 91.4103 28.8804 90.5263 28.8804C89.6422 28.8804 88.7922 28.5382 88.1536 27.925C87.515 27.3119 87.137 26.4753 87.0986 25.5895C87.0882 25.4579 87.0288 25.3351 86.9321 25.2456C86.8355 25.156 86.7087 25.1062 86.5771 25.1062C86.4455 25.1062 86.3187 25.156 86.2221 25.2456C86.1254 25.3351 86.066 25.4579 86.0557 25.5895C86.0762 26.7587 86.5584 27.872 87.3966 28.685C88.2347 29.4981 89.3603 29.9444 90.5263 29.9261Z" fill="#F4CAD8"/>
<path d="M57.2796 26.9383C57.3475 26.9396 57.4149 26.9275 57.4781 26.9026C57.5412 26.8778 57.5989 26.8407 57.6478 26.7935C57.6967 26.7463 57.7358 26.6899 57.7629 26.6275C57.7901 26.5652 57.8047 26.4981 57.806 26.43C57.806 19.8649 63.3292 14.5215 70.0903 14.5215C70.1601 14.5271 70.2302 14.5182 70.2964 14.4953C70.3625 14.4724 70.4232 14.436 70.4746 14.3884C70.526 14.3408 70.5671 14.283 70.5952 14.2187C70.6232 14.1545 70.6377 14.085 70.6377 14.0149C70.6377 13.9447 70.6232 13.8753 70.5952 13.811C70.5671 13.7467 70.526 13.689 70.4746 13.6414C70.4232 13.5938 70.3625 13.5574 70.2964 13.5345C70.2302 13.5115 70.1601 13.5026 70.0903 13.5082C62.7411 13.5082 56.7695 19.3045 56.7695 26.43C56.7721 26.5646 56.8267 26.6929 56.9219 26.7878C57.0171 26.8826 57.1454 26.9366 57.2796 26.9383Z" fill="#F4CAD8"/>
<path d="M82.7875 7.46777C82.8599 7.46821 82.9316 7.45369 82.9981 7.4251C83.0646 7.39651 83.1246 7.35447 83.1742 7.3016C83.2224 7.25347 83.2603 7.19584 83.2853 7.13235C83.3103 7.06885 83.322 7.00085 83.3195 6.93262C83.3171 6.86439 83.3006 6.7974 83.2711 6.73587C83.2416 6.67433 83.1998 6.61957 83.1482 6.57503C82.2352 5.77027 80.7991 5.05348 79.4086 4.36275C77.6541 3.48631 75.669 2.49258 75.4871 1.59985C75.4578 1.44671 75.4546 1.20235 75.7892 0.827666C75.8337 0.777831 75.8677 0.71948 75.889 0.65613C75.9104 0.59278 75.9188 0.525745 75.9136 0.459068C75.9084 0.39239 75.8899 0.327452 75.859 0.268169C75.8281 0.208886 75.7856 0.156487 75.734 0.114132C75.6279 0.0262167 75.4921 -0.0174063 75.3548 -0.00770181C75.2176 0.00200265 75.0892 0.0642909 74.9965 0.166262C74.7821 0.373748 74.6215 0.630616 74.5286 0.914531C74.4357 1.19845 74.4135 1.50081 74.4637 1.79534C74.7398 3.17353 76.7737 4.19007 78.931 5.26526C80.2598 5.91689 81.6341 6.61413 82.4464 7.33092C82.5403 7.41566 82.6612 7.46416 82.7875 7.46777Z" fill="#F4CAD8"/>
<path d="M89.8046 24.1006C89.7577 24.1453 89.7204 24.1992 89.6949 24.2588C89.6694 24.3185 89.6562 24.3827 89.6562 24.4476C89.6562 24.5125 89.6694 24.5767 89.6949 24.6364C89.7204 24.696 89.7577 24.7498 89.8046 24.7946C89.9013 24.8872 90.0299 24.9389 90.1636 24.9389C90.2974 24.9389 90.426 24.8872 90.5227 24.7946C90.5696 24.7498 90.6069 24.696 90.6324 24.6364C90.6579 24.5767 90.6711 24.5125 90.6711 24.4476C90.6711 24.3827 90.6579 24.3185 90.6324 24.2588C90.6069 24.1992 90.5696 24.1453 90.5227 24.1006C90.426 24.008 90.2974 23.9563 90.1636 23.9563C90.0299 23.9563 89.9013 24.008 89.8046 24.1006Z" fill="#F4CAD8"/>
<path d="M72.7607 14.9971C73.0407 14.9971 73.2676 14.7769 73.2676 14.5052C73.2676 14.2335 73.0407 14.0132 72.7607 14.0132C72.4808 14.0132 72.2539 14.2335 72.2539 14.5052C72.2539 14.7769 72.4808 14.9971 72.7607 14.9971Z" fill="#F4CAD8"/>
<path d="M68.3945 30.4017C68.6745 30.4017 68.9014 30.1814 68.9014 29.9097C68.9014 29.638 68.6745 29.4177 68.3945 29.4177C68.1146 29.4177 67.8877 29.638 67.8877 29.9097C67.8877 30.1814 68.1146 30.4017 68.3945 30.4017Z" fill="#F4CAD8"/>
<path d="M82.6474 43.1282C82.6005 43.1729 82.5632 43.2267 82.5377 43.2864C82.5122 43.346 82.499 43.4103 82.499 43.4752C82.499 43.5401 82.5122 43.6043 82.5377 43.6639C82.5632 43.7236 82.6005 43.7774 82.6474 43.8222C82.7441 43.9148 82.8727 43.9665 83.0064 43.9665C83.1402 43.9665 83.2687 43.9148 83.3654 43.8222C83.4123 43.7774 83.4497 43.7236 83.4752 43.6639C83.5007 43.6043 83.5139 43.5401 83.5139 43.4752C83.5139 43.4103 83.5007 43.346 83.4752 43.2864C83.4497 43.2267 83.4123 43.1729 83.3654 43.1282C83.2687 43.0356 83.1402 42.9839 83.0064 42.9839C82.8727 42.9839 82.7441 43.0356 82.6474 43.1282Z" fill="#F4CAD8"/>
<path d="M57.3799 29.9097C57.6598 29.9097 57.8867 29.6895 57.8867 29.4178C57.8867 29.146 57.6598 28.9258 57.3799 28.9258C57.1 28.9258 56.873 29.146 56.873 29.4178C56.873 29.6895 57.1 29.9097 57.3799 29.9097Z" fill="#F4CAD8"/>
<path d="M27.4082 7.45466C27.6881 7.45466 27.915 7.2344 27.915 6.96268C27.915 6.69097 27.6881 6.4707 27.4082 6.4707C27.1283 6.4707 26.9014 6.69097 26.9014 6.96268C26.9014 7.2344 27.1283 7.45466 27.4082 7.45466Z" fill="#F4CAD8"/>
<path d="M24.1754 7.46778C24.2603 7.46852 24.344 7.44842 24.4194 7.40923C24.4947 7.37004 24.5593 7.31296 24.6076 7.24297C24.646 7.18837 24.673 7.12648 24.6868 7.06108C24.7006 6.99568 24.701 6.92814 24.688 6.86258C24.6749 6.79703 24.6486 6.73483 24.6108 6.67979C24.5729 6.62475 24.5243 6.57803 24.4679 6.54246C24.2632 6.40888 24.0877 6.29159 10.9391 6.39911C9.22682 6.42521 7.53383 6.03379 6.00577 5.25852C4.4777 4.48325 3.1603 3.34733 2.16689 1.94848L0.948528 0.221664C0.867571 0.10989 0.746813 0.0336595 0.611307 0.00878697C0.4758 -0.0160856 0.335949 0.0123089 0.220761 0.0880797C0.164465 0.124219 0.116071 0.171442 0.0785097 0.22689C0.0409485 0.282337 0.0150012 0.344854 0.00224291 0.410654C-0.0105154 0.476453 -0.00982012 0.544165 0.00428542 0.609687C0.018391 0.675209 0.0456093 0.737178 0.0843001 0.791839L1.29941 2.51866C2.3837 4.04055 3.81678 5.27889 5.47796 6.12941C7.13914 6.97992 8.97978 7.41769 10.8449 7.40587H10.9391C21.7777 7.3179 23.7043 7.40587 24.0065 7.4352C24.0603 7.45658 24.1176 7.46764 24.1754 7.46778Z" fill="#F4CAD8"/>
<path d="M41.1646 10.98H68.3942C68.464 10.9856 68.5341 10.9767 68.6003 10.9538C68.6664 10.9309 68.7271 10.8945 68.7785 10.8469C68.83 10.7993 68.871 10.7415 68.899 10.6772C68.9271 10.6129 68.9416 10.5435 68.9416 10.4734C68.9416 10.4032 68.9271 10.3338 68.899 10.2695C68.871 10.2052 68.83 10.1475 68.7785 10.0999C68.7271 10.0523 68.6664 10.0159 68.6003 9.99295C68.5341 9.97004 68.464 9.9611 68.3942 9.96672H41.1646C41.0948 9.9611 41.0247 9.97004 40.9585 9.99295C40.8924 10.0159 40.8317 10.0523 40.7803 10.0999C40.7288 10.1475 40.6878 10.2052 40.6597 10.2695C40.6317 10.3338 40.6172 10.4032 40.6172 10.4734C40.6172 10.5435 40.6317 10.6129 40.6597 10.6772C40.6878 10.7415 40.7288 10.7993 40.7803 10.8469C40.8317 10.8945 40.8924 10.9309 40.9585 10.9538C41.0247 10.9767 41.0948 10.9856 41.1646 10.98Z" fill="#F4CAD8"/>
<path d="M48.0747 14.3587H70.0865C70.1563 14.3643 70.2264 14.3553 70.2926 14.3324C70.3587 14.3095 70.4194 14.2731 70.4708 14.2255C70.5223 14.1779 70.5633 14.1202 70.5914 14.0559C70.6194 13.9916 70.6339 13.9222 70.6339 13.852C70.6339 13.7818 70.6194 13.7124 70.5914 13.6482C70.5633 13.5839 70.5223 13.5261 70.4708 13.4785C70.4194 13.4309 70.3587 13.3945 70.2926 13.3716C70.2264 13.3487 70.1563 13.3398 70.0865 13.3454H48.0747C48.005 13.3398 47.9348 13.3487 47.8687 13.3716C47.8025 13.3945 47.7418 13.4309 47.6904 13.4785C47.639 13.5261 47.598 13.5839 47.5699 13.6482C47.5418 13.7124 47.5273 13.7818 47.5273 13.852C47.5273 13.9222 47.5418 13.9916 47.5699 14.0559C47.598 14.1202 47.639 14.1779 47.6904 14.2255C47.7418 14.2731 47.8025 14.3095 47.8687 14.3324C47.9348 14.3553 48.005 14.3643 48.0747 14.3587Z" fill="#F4CAD8"/>
<path d="M52.7437 18.0598H60.9961C61.0658 18.0654 61.136 18.0565 61.2021 18.0336C61.2683 18.0107 61.3289 17.9743 61.3804 17.9267C61.4318 17.8791 61.4728 17.8213 61.5009 17.7571C61.529 17.6928 61.5435 17.6234 61.5435 17.5532C61.5435 17.483 61.529 17.4136 61.5009 17.3493C61.4728 17.285 61.4318 17.2273 61.3804 17.1797C61.3289 17.1321 61.2683 17.0957 61.2021 17.0728C61.136 17.0499 61.0658 17.0409 60.9961 17.0466H52.7437C52.6739 17.0409 52.6038 17.0499 52.5376 17.0728C52.4715 17.0957 52.4108 17.1321 52.3594 17.1797C52.308 17.2273 52.2669 17.285 52.2388 17.3493C52.2108 17.4136 52.1963 17.483 52.1963 17.5532C52.1963 17.6234 52.2108 17.6928 52.2388 17.7571C52.2669 17.8213 52.308 17.8791 52.3594 17.9267C52.4108 17.9743 52.4715 18.0107 52.5376 18.0336C52.6038 18.0565 52.6739 18.0654 52.7437 18.0598Z" fill="#F4CAD8"/>
<path d="M55.8921 21.6016H58.5205C58.5903 21.6072 58.6604 21.5983 58.7266 21.5754C58.7927 21.5524 58.8534 21.516 58.9048 21.4684C58.9563 21.4208 58.9973 21.3631 59.0254 21.2988C59.0534 21.2345 59.0679 21.1651 59.0679 21.0949C59.0679 21.0248 59.0534 20.9554 59.0254 20.8911C58.9973 20.8268 58.9563 20.769 58.9048 20.7214C58.8534 20.6738 58.7927 20.6374 58.7266 20.6145C58.6604 20.5916 58.5903 20.5827 58.5205 20.5883H55.8921C55.8224 20.5827 55.7522 20.5916 55.6861 20.6145C55.6199 20.6374 55.5592 20.6738 55.5078 20.7214C55.4564 20.769 55.4153 20.8268 55.3873 20.8911C55.3592 20.9554 55.3447 21.0248 55.3447 21.0949C55.3447 21.1651 55.3592 21.2345 55.3873 21.2988C55.4153 21.3631 55.4564 21.4208 55.5078 21.4684C55.5592 21.516 55.6199 21.5524 55.6861 21.5754C55.7522 21.5983 55.8224 21.6072 55.8921 21.6016Z" fill="#F4CAD8"/>
<path d="M76.9975 27.3815C76.8587 27.7552 76.6432 28.0954 76.3649 28.3802C76.0865 28.6649 75.7516 28.8878 75.3818 29.0343C75.0121 29.1809 74.6157 29.2478 74.2184 29.2308C73.8212 29.2138 73.4319 29.1132 73.076 28.9356C72.3514 28.5512 71.4515 27.2447 72.7023 26.9384C75.7336 26.1923 76.3412 22.3118 74.3268 19.9985C74.3106 19.9985 78.4205 23.5336 76.9975 27.3815Z" fill="#F4CAD8"/>
<path d="M94.763 26.3454C94.5413 26.6883 94.1959 26.9318 93.7991 27.0248C93.4023 27.1177 92.9851 27.0529 92.6349 26.8439C92.4628 26.7456 92.3123 26.6133 92.1925 26.4551C92.0727 26.2968 91.9861 26.1159 91.9378 25.9233C91.8895 25.7306 91.8806 25.5301 91.9117 25.3339C91.9427 25.1377 92.013 24.9498 92.1183 24.7815C92.3405 24.4384 92.6865 24.1949 93.0839 24.1019C93.4812 24.009 93.899 24.0739 94.2496 24.283C94.4218 24.3814 94.5723 24.5137 94.6921 24.672C94.8118 24.8303 94.8983 25.0113 94.9463 25.2041C94.9942 25.3969 95.0027 25.5974 94.9712 25.7936C94.9397 25.9898 94.8689 26.1775 94.763 26.3454Z" fill="#F4CAD8"/>
<path d="M89.6915 29.5645C89.6915 29.5645 86.5367 38.0356 87.9468 39.7201C88.837 40.7822 90.3543 39.8015 90.3543 39.8015L89.6915 29.5645Z" fill="#F4CAD8"/>
<path d="M90.6557 20.963C90.6557 20.963 92.1502 11.56 89.5608 10.5109C87.6764 9.74524 87.5074 11.9477 88.4821 14.2513C89.4568 16.5548 90.6557 20.963 90.6557 20.963Z" fill="#F4CAD8"/>
<path d="M79.9829 5.79954C79.9829 5.79954 75.0704 2.75969 65.4697 3.31684C65.4697 3.31684 66.0773 1.29679 67.653 1.83764C67.653 1.83764 67.2989 -0.231285 70.041 0.0652063C72.7832 0.361698 75.5643 2.97147 75.5643 2.97147L79.9829 5.79954Z" fill="#F4CAD8"/>
<path d="M85.7045 61.113C87.2542 61.5854 87.7351 60.4614 87.7351 60.4614C89.1094 65.9709 94.7398 64.912 94.7398 64.912C94.694 64.0298 94.4448 63.1702 94.0119 62.4008C93.579 61.6314 92.974 60.9731 92.2446 60.4777C91.6363 60.0332 90.9605 59.69 90.2433 59.4611C90.1133 59.3927 89.9866 59.3178 89.8631 59.2396C88.1245 58.1608 86.6472 56.7073 85.5388 54.9844C84.1109 52.8129 83.0393 50.4259 82.3645 47.9143V47.8687C82.3645 47.8687 82.1988 60.0411 85.7045 61.113Z" fill="#F4CAD8"/>
<path d="M89.6453 39.7527C89.6453 39.7527 89.1839 43.4767 86.4678 45.2655C86.4678 45.2655 89.2846 47.1291 90.1261 44.7963C91.0196 42.3462 89.6453 39.7527 89.6453 39.7527Z" fill="#F4CAD8"/>
<path d="M17.7751 6.35014C17.7751 6.35014 11.2771 6.93335 9.88007 3.72081C9.88007 3.72081 7.64802 2.66843 7.2289 5.00452C7.2289 5.00452 5.90007 2.19926 3.19043 3.48623C3.19043 3.48623 4.87665 8.16167 17.7751 6.35014Z" fill="#F4CAD8"/>
<path d="M85.5392 54.9844C85.615 55.6181 85.8125 56.2311 86.1207 56.7895C86.6744 57.7685 87.5614 58.5146 88.6192 58.891C89.0224 59.0454 89.4389 59.1621 89.8635 59.2396C90.3994 59.3406 90.9428 59.3962 91.488 59.4057L91.7545 59.4448C91.7545 59.4448 91.8747 59.4253 92.0793 59.3732C92.5524 59.2543 92.9811 59.0011 93.3142 58.644C93.6473 58.2868 93.8706 57.8409 93.9573 57.3596C93.9573 57.3596 88.5022 58.2133 85.5099 54.1895V54.2742C85.4962 54.5113 85.506 54.7492 85.5392 54.9844Z" fill="#F4CAD8"/>
</g>
<defs>
<clipPath id="clip0_731_22753">
<rect width="95" height="65" fill="white"/>
</clipPath>
</defs>
</svg>
