<svg width="56" height="57" viewBox="0 0 56 57" fill="none" xmlns="http://www.w3.org/2000/svg">
<path d="M0 47.7293C0.0659134 47.7161 0.135121 47.7095 0.20433 47.7095C0.74482 47.7095 1.18644 48.0984 1.18644 48.5763C1.18644 49.0541 0.748115 49.443 0.20433 49.443C0.135121 49.443 0.0659134 49.4364 0 49.4233V50.7448C0.0659134 50.7316 0.135121 50.725 0.20433 50.725C0.74482 50.725 1.18644 51.1139 1.18644 51.5918C1.18644 52.0697 0.748115 52.4586 0.20433 52.4586C0.135121 52.4586 0.0659134 52.452 0 52.4388V53.7604C0.0659134 53.7472 0.135121 53.7406 0.20433 53.7406C0.74482 53.7406 1.18644 54.1295 1.18644 54.6073C1.18644 55.0852 0.748115 55.4741 0.20433 55.4741C0.135121 55.4741 0.0659134 55.4675 0 55.4543V56.9605H2.62994C2.59699 56.8748 2.57721 56.7858 2.57721 56.6902C2.57721 56.2123 3.01553 55.8234 3.55932 55.8234C4.1031 55.8234 4.54143 56.2123 4.54143 56.6902C4.54143 56.7858 4.51836 56.8748 4.4887 56.9605H6.1596C6.12664 56.8748 6.10687 56.7858 6.10687 56.6902C6.10687 56.2123 6.5452 55.8234 7.08898 55.8234C7.63277 55.8234 8.07109 56.2123 8.07109 56.6902C8.07109 56.7858 8.04802 56.8748 8.01836 56.9605H9.68926C9.65631 56.8748 9.63653 56.7858 9.63653 56.6902C9.63653 56.2123 10.0749 55.8234 10.6186 55.8234C11.1591 55.8234 11.6008 56.2123 11.6008 56.6902C11.6008 56.7858 11.5777 56.8748 11.548 56.9605H13.2189C13.186 56.8748 13.1662 56.7858 13.1662 56.6902C13.1662 56.2123 13.6045 55.8234 14.1483 55.8234C14.6888 55.8234 15.1304 56.2123 15.1304 56.6902C15.1304 56.7858 15.1073 56.8748 15.0777 56.9605H16.7486C16.7156 56.8748 16.6959 56.7858 16.6959 56.6902C16.6959 56.2123 17.1342 55.8234 17.678 55.8234C18.2185 55.8234 18.6601 56.2123 18.6601 56.6902C18.6601 56.7858 18.637 56.8748 18.6073 56.9605H20.2782C20.2453 56.8748 20.2255 56.7858 20.2255 56.6902C20.2255 56.2123 20.6638 55.8234 21.2076 55.8234C21.7481 55.8234 22.1897 56.2123 22.1897 56.6902C22.1897 56.7858 22.1667 56.8748 22.137 56.9605H23.8079C23.775 56.8748 23.7552 56.7858 23.7552 56.6902C23.7552 56.2123 24.1935 55.8234 24.7373 55.8234C25.2778 55.8234 25.7194 56.2123 25.7194 56.6902C25.7194 56.7858 25.6963 56.8748 25.6667 56.9605H27.3376C27.3046 56.8748 27.2848 56.7858 27.2848 56.6902C27.2848 56.2123 27.7232 55.8234 28.2669 55.8234C28.8107 55.8234 29.2491 56.2123 29.2491 56.6902C29.2491 56.7858 29.226 56.8748 29.1963 56.9605H30.8672C30.8343 56.8748 30.8145 56.7858 30.8145 56.6902C30.8145 56.2123 31.2528 55.8234 31.7966 55.8234C32.3371 55.8234 32.7787 56.2123 32.7787 56.6902C32.7787 56.7858 32.7556 56.8748 32.726 56.9605H34.3969C34.3639 56.8748 34.3442 56.7858 34.3442 56.6902C34.3442 56.2123 34.7825 55.8234 35.3263 55.8234C35.8668 55.8234 36.3084 56.2123 36.3084 56.6902C36.3084 56.7858 36.2853 56.8748 36.2556 56.9605H37.9266C37.8936 56.8748 37.8738 56.7858 37.8738 56.6902C37.8738 56.2123 38.3121 55.8234 38.8559 55.8234C39.3964 55.8234 39.838 56.2123 39.838 56.6902C39.838 56.7858 39.815 56.8748 39.7853 56.9605H41.4562C41.4233 56.8748 41.4035 56.7858 41.4035 56.6902C41.4035 56.2123 41.8418 55.8234 42.3856 55.8234C42.9294 55.8234 43.3677 56.2123 43.3677 56.6902C43.3677 56.7858 43.3446 56.8748 43.315 56.9605H44.9859C44.9529 56.8748 44.9331 56.7858 44.9331 56.6902C44.9331 56.2123 45.3715 55.8234 45.9153 55.8234C46.4557 55.8234 46.8974 56.2123 46.8974 56.6902C46.8974 56.7858 46.8743 56.8748 46.8446 56.9605H48.5155C48.4826 56.8748 48.4628 56.7858 48.4628 56.6902C48.4628 56.2123 48.9011 55.8234 49.4449 55.8234C49.9854 55.8234 50.427 56.2123 50.427 56.6902C50.427 56.7858 50.404 56.8748 50.3743 56.9605H52.0452C52.0122 56.8748 51.9925 56.7858 51.9925 56.6902C51.9925 56.2123 52.4308 55.8234 52.9746 55.8234C53.5151 55.8234 53.9567 56.2123 53.9567 56.6902C53.9567 56.7858 53.9336 56.8748 53.904 56.9605H56V55.4741C55.4595 55.4741 55.0179 55.0852 55.0179 54.6073C55.0179 54.1295 55.4562 53.7406 56 53.7406V52.4586C55.4595 52.4586 55.0179 52.0697 55.0179 51.5918C55.0179 51.1139 55.4562 50.725 56 50.725V49.443C55.4595 49.443 55.0179 49.0541 55.0179 48.5763C55.0179 48.0984 55.4562 47.7095 56 47.7095V47.6996V46.4176C55.4595 46.4176 55.0179 46.0287 55.0179 45.5508C55.0179 45.073 55.4562 44.6841 56 44.6841V43.4021C55.4595 43.4021 55.0179 43.0132 55.0179 42.5353C55.0179 42.0574 55.4562 41.6685 56 41.6685V40.3865C55.4595 40.3865 55.0179 39.9976 55.0179 39.5198C55.0179 39.0419 55.4562 38.653 56 38.653V37.371C55.4595 37.371 55.0179 36.9821 55.0179 36.5042C55.0179 36.0264 55.4562 35.6375 56 35.6375V34.3555C55.4595 34.3555 55.0179 33.9666 55.0179 33.4887C55.0179 33.0108 55.4562 32.6219 56 32.6219V31.3399C55.4595 31.3399 55.0179 30.951 55.0179 30.4732C55.0179 29.9953 55.4562 29.6064 56 29.6064V28.3244C55.4595 28.3244 55.0179 27.9355 55.0179 27.4576C55.0179 26.9798 55.4562 26.5909 56 26.5909V25.3089C55.4595 25.3089 55.0179 24.92 55.0179 24.4421C55.0179 23.9642 55.4562 23.5753 56 23.5753V22.2933C55.4595 22.2933 55.0179 21.9044 55.0179 21.4266C55.0179 20.9487 55.4562 20.5598 56 20.5598V19.2778C55.4595 19.2778 55.0179 18.8889 55.0179 18.411C55.0179 17.9331 55.4562 17.5443 56 17.5443V16.2622C55.4595 16.2622 55.0179 15.8734 55.0179 15.3955C55.0179 14.9176 55.4562 14.5287 56 14.5287V13.2467C55.4595 13.2467 55.0179 12.8578 55.0179 12.3799C55.0179 11.9021 55.4562 11.5132 56 11.5132V10.2312C55.4595 10.2312 55.0179 9.84228 55.0179 9.36441C55.0179 8.88653 55.4562 8.49765 56 8.49765V7.21563C55.4595 7.21563 55.0179 6.82674 55.0179 6.34887C55.0179 5.871 55.4562 5.48211 56 5.48211V4.20009C55.4595 4.20009 55.0179 3.81121 55.0179 3.33333C55.0179 2.85546 55.4562 2.46657 56 2.46657V0.980225H53.9567C53.9567 1.4581 53.5184 1.84699 52.9746 1.84699C52.4341 1.84699 51.9925 1.4581 51.9925 0.980225H50.4303C50.4303 1.4581 49.992 1.84699 49.4482 1.84699C48.9077 1.84699 48.4661 1.4581 48.4661 0.980225H46.904C46.904 1.4581 46.4656 1.84699 45.9218 1.84699C45.3814 1.84699 44.9397 1.4581 44.9397 0.980225H43.3776C43.3776 1.4581 42.9393 1.84699 42.3955 1.84699C41.8517 1.84699 41.4134 1.4581 41.4134 0.980225H39.8512C39.8512 1.4581 39.4129 1.84699 38.8691 1.84699C38.3286 1.84699 37.887 1.4581 37.887 0.980225H36.3249C36.3249 1.4581 35.8865 1.84699 35.3428 1.84699C34.8023 1.84699 34.3606 1.4581 34.3606 0.980225H32.7985C32.7985 1.4581 32.3602 1.84699 31.8164 1.84699C31.2759 1.84699 30.8343 1.4581 30.8343 0.980225H29.2721C29.2721 1.4581 28.8338 1.84699 28.29 1.84699C27.7462 1.84699 27.3079 1.4581 27.3079 0.980225H25.7458C25.7458 1.4581 25.3074 1.84699 24.7637 1.84699C24.2232 1.84699 23.7815 1.4581 23.7815 0.980225H22.2194C22.2194 1.4581 21.7811 1.84699 21.2373 1.84699C20.6968 1.84699 20.2552 1.4581 20.2552 0.980225H18.693C18.693 1.4581 18.2547 1.84699 17.7109 1.84699C17.1704 1.84699 16.7288 1.4581 16.7288 0.980225H15.1667C15.1667 1.4581 14.7283 1.84699 14.1846 1.84699C13.6441 1.84699 13.2024 1.4581 13.2024 0.980225H11.6403C11.6403 1.4581 11.202 1.84699 10.6582 1.84699C10.1177 1.84699 9.67608 1.4581 9.67608 0.980225H8.11393C8.11393 1.4581 7.67561 1.84699 7.13183 1.84699C6.58804 1.84699 6.14971 1.4581 6.14971 0.980225H4.58757C4.58757 1.4581 4.14924 1.84699 3.60546 1.84699C3.06167 1.84699 2.62335 1.4581 2.62335 0.980225H0.049433V2.48635C0.115346 2.47316 0.184554 2.46657 0.253763 2.46657C0.794253 2.46657 1.23588 2.85546 1.23588 3.33333C1.23588 3.81121 0.797548 4.20009 0.253763 4.20009C0.184554 4.20009 0.115346 4.1935 0.049433 4.18032V5.50188C0.115346 5.4887 0.184554 5.48211 0.253763 5.48211C0.794253 5.48211 1.23588 5.871 1.23588 6.34887C1.23588 6.82674 0.797548 7.21563 0.253763 7.21563C0.184554 7.21563 0.115346 7.20904 0.049433 7.19586V8.51742C0.115346 8.50424 0.184554 8.49765 0.253763 8.49765C0.794253 8.49765 1.23588 8.88653 1.23588 9.36441C1.23588 9.84228 0.797548 10.2312 0.253763 10.2312C0.184554 10.2312 0.115346 10.2246 0.049433 10.2114V11.533C0.115346 11.5198 0.184554 11.5132 0.253763 11.5132C0.794253 11.5132 1.23588 11.9021 1.23588 12.3799C1.23588 12.8578 0.797548 13.2467 0.253763 13.2467C0.184554 13.2467 0.115346 13.2401 0.049433 13.2269V14.5485C0.115346 14.5353 0.184554 14.5287 0.253763 14.5287C0.794253 14.5287 1.23588 14.9176 1.23588 15.3955C1.23588 15.8734 0.797548 16.2622 0.253763 16.2622C0.184554 16.2622 0.115346 16.2557 0.049433 16.2425V17.564C0.115346 17.5508 0.184554 17.5443 0.253763 17.5443C0.794253 17.5443 1.23588 17.9331 1.23588 18.411C1.23588 18.8889 0.797548 19.2778 0.253763 19.2778C0.184554 19.2778 0.115346 19.2712 0.049433 19.258V20.5796C0.115346 20.5664 0.184554 20.5598 0.253763 20.5598C0.794253 20.5598 1.23588 20.9487 1.23588 21.4266C1.23588 21.9044 0.797548 22.2933 0.253763 22.2933C0.184554 22.2933 0.115346 22.2867 0.049433 22.2735V23.5951C0.115346 23.5819 0.184554 23.5753 0.253763 23.5753C0.794253 23.5753 1.23588 23.9642 1.23588 24.4421C1.23588 24.92 0.797548 25.3089 0.253763 25.3089C0.184554 25.3089 0.115346 25.3023 0.049433 25.2891V26.6106C0.115346 26.5975 0.184554 26.5909 0.253763 26.5909C0.794253 26.5909 1.23588 26.9798 1.23588 27.4576C1.23588 27.9355 0.797548 28.3244 0.253763 28.3244C0.184554 28.3244 0.115346 28.3178 0.049433 28.3046V29.6262C0.115346 29.613 0.184554 29.6064 0.253763 29.6064C0.794253 29.6064 1.23588 29.9953 1.23588 30.4732C1.23588 30.951 0.797548 31.3399 0.253763 31.3399C0.184554 31.3399 0.115346 31.3333 0.049433 31.3202V32.6417C0.115346 32.6285 0.184554 32.6219 0.253763 32.6219C0.794253 32.6219 1.23588 33.0108 1.23588 33.4887C1.23588 33.9666 0.797548 34.3555 0.253763 34.3555C0.184554 34.3555 0.115346 34.3489 0.049433 34.3357V35.6573C0.115346 35.6441 0.184554 35.6375 0.253763 35.6375C0.794253 35.6375 1.23588 36.0264 1.23588 36.5042C1.23588 36.9821 0.797548 37.371 0.253763 37.371C0.184554 37.371 0.115346 37.3644 0.049433 37.3512V38.6728C0.115346 38.6596 0.184554 38.653 0.253763 38.653C0.794253 38.653 1.23588 39.0419 1.23588 39.5198C1.23588 39.9976 0.797548 40.3865 0.253763 40.3865C0.184554 40.3865 0.115346 40.3799 0.049433 40.3668V41.6883C0.115346 41.6751 0.184554 41.6685 0.253763 41.6685C0.794253 41.6685 1.23588 42.0574 1.23588 42.5353C1.23588 43.0132 0.797548 43.4021 0.253763 43.4021C0.184554 43.4021 0.115346 43.3955 0.049433 43.3823V44.7039C0.115346 44.6907 0.184554 44.6841 0.253763 44.6841C0.794253 44.6841 1.23588 45.073 1.23588 45.5508C1.23588 46.0287 0.797548 46.4176 0.253763 46.4176C0.184554 46.4176 0.115346 46.411 0.049433 46.3978V47.7194C0.115346 47.7062 0.184554 47.6996 0.253763 47.6996" fill="#A98B83"/>
<path d="M52.414 8.82395V48.0391C50.0082 48.1841 48.0967 50.1879 48.0967 52.6267C48.0967 52.887 48.1198 53.1507 48.1692 53.4176H7.75444C7.80387 53.1507 7.82694 52.887 7.82694 52.6267C7.82694 50.1879 5.91545 48.1841 3.50961 48.0391V8.82395C5.82317 8.68224 7.67863 6.82677 7.81705 4.51321H48.1033C48.245 6.82677 50.1005 8.68224 52.414 8.82395Z" fill="white"/>
<path d="M52.414 8.82395V48.0391C50.0082 48.1841 48.0967 50.1879 48.0967 52.6267C48.0967 52.887 48.1198 53.1507 48.1692 53.4176H7.75444C7.80387 53.1507 7.82694 52.887 7.82694 52.6267C7.82694 50.1879 5.91545 48.1841 3.50961 48.0391V8.82395C5.82317 8.68224 7.67863 6.82677 7.81705 4.51321H48.1033C48.245 6.82677 50.1005 8.68224 52.414 8.82395Z" fill="#AB8C85"/>
<path d="M52.6937 8.27015C50.4659 8.27015 48.6565 6.46082 48.6565 4.23295C48.6565 4.07805 48.5313 3.95282 48.3764 3.95282H7.54637C7.39147 3.95282 7.26624 4.07805 7.26624 4.23295C7.26624 6.46082 5.45362 8.27015 3.22904 8.27015C3.07415 8.27015 2.94891 8.39538 2.94891 8.55028V48.3125C2.94891 48.4641 3.07415 48.5927 3.22904 48.5927C5.45362 48.5927 7.26624 50.402 7.26624 52.6266C7.26624 52.9528 7.2201 53.289 7.13441 53.6284C7.11464 53.7141 7.13111 53.8031 7.18384 53.869C7.23658 53.9382 7.31897 53.9778 7.40795 53.9778H48.5148C48.6005 53.9778 48.6829 53.9382 48.7356 53.869C48.7884 53.8031 48.8081 53.7141 48.7851 53.6284C48.6994 53.289 48.6565 52.9528 48.6565 52.6266C48.6565 50.402 50.4659 48.5927 52.6937 48.5927C52.8486 48.5927 52.9739 48.4641 52.9739 48.3125V8.55028C52.9739 8.39538 52.8486 8.27015 52.6937 8.27015ZM52.4136 48.039C50.0078 48.184 48.0963 50.1878 48.0963 52.6266C48.0963 52.8869 48.1193 53.1506 48.1688 53.4175H7.754C7.80343 53.1506 7.8265 52.8869 7.8265 52.6266C7.8265 50.1878 5.91501 48.184 3.50918 48.039V8.82382C5.82274 8.6821 7.67819 6.82664 7.81661 4.51308H48.1029C48.2446 6.82664 50.1 8.6821 52.4136 8.82382V48.039Z" fill="#F1DFC1"/>
<path d="M52.5174 8.91611V48.1346C51.3504 48.2097 50.2555 48.7253 49.454 49.5769C48.6525 50.4285 48.2044 51.5527 48.2001 52.7221C48.2 52.9875 48.2243 53.2522 48.2726 53.5131H7.85783C7.90616 53.2522 7.93043 52.9875 7.93033 52.7221C7.92713 51.5543 7.48116 50.431 6.68238 49.5791C5.88359 48.7271 4.79144 48.2097 3.62619 48.1313V8.91282C4.74081 8.8353 5.78945 8.35595 6.57739 7.56377C7.36532 6.77159 7.83903 5.7204 7.91056 4.60538H48.2067C48.2782 5.72522 48.7553 6.78063 49.5487 7.57409C50.3422 8.36754 51.3976 8.84465 52.5174 8.91611Z" fill="white"/>
<path d="M27.9619 7.32096C28.315 7.32096 28.6013 7.03471 28.6013 6.6816C28.6013 6.32849 28.315 6.04224 27.9619 6.04224C27.6088 6.04224 27.3226 6.32849 27.3226 6.6816C27.3226 7.03471 27.6088 7.32096 27.9619 7.32096Z" fill="#F5CBD9"/>
<path d="M27.9632 9.21296C27.8841 9.21296 27.8215 9.15034 27.8215 9.07124V8.09572C27.8215 8.01663 27.8841 7.95401 27.9632 7.95401C28.0423 7.95401 28.105 8.01663 28.105 8.09572V9.07124C28.1017 9.15034 28.039 9.21296 27.9632 9.21296Z" fill="#F5CBD9"/>
<path d="M27.9632 11.8987C27.8841 11.8987 27.8215 11.8361 27.8215 11.757V9.67739C27.8215 9.59829 27.8841 9.53568 27.9632 9.53568C28.0423 9.53568 28.105 9.59829 28.105 9.67739V11.757C28.1017 11.8361 28.039 11.8987 27.9632 11.8987Z" fill="#F5CBD9"/>
<path d="M29.1592 8.8932C29.1098 8.8932 29.0636 8.86684 29.0373 8.82399L28.5495 7.97701C28.51 7.91109 28.533 7.82541 28.6022 7.78586C28.6681 7.74631 28.7538 7.76938 28.7934 7.83859L29.2811 8.68558C29.3207 8.75149 29.2976 8.83718 29.2284 8.87673C29.2053 8.88661 29.1823 8.8932 29.1592 8.8932Z" fill="#F5CBD9"/>
<path d="M30.5003 11.2197C30.4508 11.2197 30.4047 11.1934 30.3783 11.1505L29.3402 9.35109C29.3007 9.28518 29.3237 9.19949 29.3929 9.15994C29.4589 9.12039 29.5445 9.14347 29.5841 9.21267L30.6222 11.0121C30.6618 11.078 30.6387 11.1637 30.5695 11.2033C30.5464 11.2131 30.5234 11.2197 30.5003 11.2197Z" fill="#F5CBD9"/>
<path d="M30.0325 8.0196C30.0094 8.0196 29.9831 8.01301 29.9633 7.99983L29.1196 7.51207C29.0537 7.47252 29.0306 7.38683 29.0669 7.32092C29.1064 7.255 29.1921 7.23193 29.258 7.26819L30.1017 7.75595C30.1676 7.79549 30.1907 7.88118 30.1544 7.9471C30.1281 7.99324 30.0819 8.0196 30.0325 8.0196Z" fill="#F5CBD9"/>
<path d="M31.3041 8.75138C31.281 8.75138 31.2547 8.74479 31.2349 8.73161L30.4868 8.29988C30.4209 8.26033 30.3978 8.17464 30.434 8.10873C30.4736 8.04282 30.5593 8.01975 30.6252 8.056L31.3733 8.48773C31.4392 8.52728 31.4623 8.61297 31.426 8.67888C31.3997 8.72831 31.3535 8.75138 31.3041 8.75138Z" fill="#F5CBD9"/>
<path d="M30.3516 6.82356H29.3761C29.297 6.82356 29.2344 6.76094 29.2344 6.68184C29.2344 6.60275 29.297 6.54013 29.3761 6.54013H30.3516C30.4307 6.54013 30.4933 6.60275 30.4933 6.68184C30.4933 6.76094 30.4307 6.82356 30.3516 6.82356Z" fill="#F5CBD9"/>
<path d="M32.869 6.82365H30.9575C30.8784 6.82365 30.8158 6.76103 30.8158 6.68194C30.8158 6.60284 30.8784 6.54022 30.9575 6.54022H32.869C32.9481 6.54022 33.0107 6.60284 33.0107 6.68194C33.0107 6.76103 32.9481 6.82365 32.869 6.82365Z" fill="#F5CBD9"/>
<path d="M26.5442 6.82338H25.5687C25.4896 6.82338 25.427 6.76076 25.427 6.68166C25.427 6.60257 25.4896 6.53995 25.5687 6.53995H26.5442C26.6233 6.53995 26.6859 6.60257 26.6859 6.68166C26.6827 6.76076 26.62 6.82338 26.5442 6.82338Z" fill="#F5CBD9"/>
<path d="M24.9622 6.82356H23.0507C22.9716 6.82356 22.909 6.76094 22.909 6.68184C22.909 6.60275 22.9716 6.54013 23.0507 6.54013H24.9622C25.0413 6.54013 25.1039 6.60275 25.1039 6.68184C25.1006 6.76094 25.038 6.82356 24.9622 6.82356Z" fill="#F5CBD9"/>
<path d="M25.8894 8.0196C25.84 8.0196 25.7939 7.99324 25.7675 7.95039C25.7279 7.88448 25.751 7.79879 25.8202 7.75924L26.6639 7.27149C26.7298 7.23194 26.8155 7.25501 26.8551 7.32421C26.8946 7.39013 26.8715 7.47582 26.8023 7.51536L25.9586 8.00312C25.9389 8.01301 25.9125 8.0196 25.8894 8.0196Z" fill="#F5CBD9"/>
<path d="M24.6635 8.72502C24.614 8.72502 24.5679 8.69865 24.5415 8.65581C24.502 8.5899 24.5251 8.50421 24.5943 8.46466L25.2962 8.0593C25.3622 8.01975 25.4478 8.04282 25.4874 8.11203C25.5269 8.17794 25.5039 8.26363 25.4347 8.30317L24.7327 8.70854C24.7096 8.72173 24.6865 8.72502 24.6635 8.72502Z" fill="#F5CBD9"/>
<path d="M26.7645 8.89292C26.7414 8.89292 26.7151 8.88633 26.6953 8.87315C26.6294 8.8336 26.6063 8.74792 26.6426 8.682L27.1303 7.83502C27.1699 7.7691 27.2556 7.74603 27.3215 7.78229C27.3874 7.82183 27.4105 7.90752 27.3742 7.97343L26.8865 8.82042C26.8601 8.86985 26.8107 8.89292 26.7645 8.89292Z" fill="#F5CBD9"/>
<path d="M25.4202 11.2197C25.3971 11.2197 25.3707 11.2131 25.3509 11.1999C25.285 11.1603 25.262 11.0747 25.2982 11.0087L26.3396 9.20931C26.3792 9.1434 26.4649 9.12033 26.5308 9.15658C26.5967 9.19613 26.6198 9.28182 26.5835 9.34773L25.5421 11.1472C25.5157 11.1933 25.4696 11.2197 25.4202 11.2197Z" fill="#F5CBD9"/>
<path d="M27.9619 51.8918C28.315 51.8918 28.6013 51.6056 28.6013 51.2524C28.6013 50.8993 28.315 50.6131 27.9619 50.6131C27.6088 50.6131 27.3226 50.8993 27.3226 51.2524C27.3226 51.6056 27.6088 51.8918 27.9619 51.8918Z" fill="#F5CBD9"/>
<path d="M27.9632 49.9771C27.8841 49.9771 27.8215 49.9145 27.8215 49.8354V48.8598C27.8215 48.7807 27.8841 48.7181 27.9632 48.7181C28.0423 48.7181 28.105 48.7807 28.105 48.8598V49.8354C28.1017 49.9145 28.039 49.9771 27.9632 49.9771Z" fill="#F5CBD9"/>
<path d="M27.9632 48.3949C27.8841 48.3949 27.8215 48.3323 27.8215 48.2532V46.1736C27.8215 46.0945 27.8841 46.0319 27.9632 46.0319C28.0423 46.0319 28.105 46.0945 28.105 46.1736V48.2532C28.1017 48.3323 28.039 48.3949 27.9632 48.3949Z" fill="#F5CBD9"/>
<path d="M27.2522 50.165C27.2028 50.165 27.1566 50.1386 27.1302 50.0958L26.6425 49.2521C26.6029 49.1862 26.626 49.1005 26.6952 49.0609C26.7611 49.0214 26.8468 49.0445 26.8864 49.1137L27.3741 49.9574C27.4137 50.0233 27.3906 50.109 27.3214 50.1485C27.2983 50.1584 27.2753 50.165 27.2522 50.165Z" fill="#F5CBD9"/>
<path d="M26.4638 48.7968C26.4143 48.7968 26.3682 48.7705 26.3418 48.7276L25.3004 46.9282C25.2608 46.8623 25.2839 46.7766 25.3531 46.737C25.419 46.6975 25.5047 46.7206 25.5443 46.7898L26.5857 48.5892C26.6252 48.6551 26.6022 48.7408 26.533 48.7804C26.5099 48.7902 26.4868 48.7968 26.4638 48.7968Z" fill="#F5CBD9"/>
<path d="M26.731 50.6855C26.7079 50.6855 26.6815 50.6789 26.6617 50.6657L25.818 50.178C25.7521 50.1384 25.7291 50.0527 25.7653 49.9868C25.8049 49.9209 25.8906 49.8978 25.9565 49.9341L26.8002 50.4219C26.8661 50.4614 26.8891 50.5471 26.8529 50.613C26.8265 50.6591 26.7804 50.6855 26.731 50.6855Z" fill="#F5CBD9"/>
<path d="M25.366 49.8946C25.3429 49.8946 25.3166 49.888 25.2968 49.8748L24.5487 49.4431C24.4828 49.4036 24.4597 49.3179 24.4959 49.252C24.5355 49.1861 24.6212 49.163 24.6871 49.1992L25.4352 49.631C25.5011 49.6705 25.5242 49.7562 25.4879 49.8221C25.4616 49.8683 25.4121 49.8946 25.366 49.8946Z" fill="#F5CBD9"/>
<path d="M26.5442 51.3908H25.5687C25.4896 51.3908 25.427 51.3281 25.427 51.249C25.427 51.17 25.4896 51.1073 25.5687 51.1073H26.5442C26.6233 51.1073 26.6859 51.17 26.6859 51.249C26.6827 51.3281 26.62 51.3908 26.5442 51.3908Z" fill="#F5CBD9"/>
<path d="M24.9622 51.3907H23.0507C22.9716 51.3907 22.909 51.3281 22.909 51.249C22.909 51.1699 22.9716 51.1073 23.0507 51.1073H24.9622C25.0413 51.1073 25.1039 51.1699 25.1039 51.249C25.1006 51.3281 25.038 51.3907 24.9622 51.3907Z" fill="#F5CBD9"/>
<path d="M30.3516 51.3907H29.3761C29.297 51.3907 29.2344 51.3281 29.2344 51.249C29.2344 51.1699 29.297 51.1073 29.3761 51.1073H30.3516C30.4307 51.1073 30.4933 51.1699 30.4933 51.249C30.4933 51.3281 30.4307 51.3907 30.3516 51.3907Z" fill="#F5CBD9"/>
<path d="M32.869 51.3908H30.9575C30.8784 51.3908 30.8158 51.3281 30.8158 51.249C30.8158 51.17 30.8784 51.1073 30.9575 51.1073H32.869C32.9481 51.1073 33.0107 51.17 33.0107 51.249C33.0107 51.3281 32.9481 51.3908 32.869 51.3908Z" fill="#F5CBD9"/>
<path d="M29.1887 50.6855C29.1393 50.6855 29.0931 50.6591 29.0668 50.6163C29.0272 50.5504 29.0503 50.4647 29.1195 50.4252L29.9632 49.9374C30.0291 49.8978 30.1148 49.9209 30.1543 49.9901C30.1939 50.056 30.1708 50.1417 30.1016 50.1813L29.2579 50.669C29.2349 50.6789 29.2118 50.6855 29.1887 50.6855Z" fill="#F5CBD9"/>
<path d="M30.5559 49.8945C30.5065 49.8945 30.4603 49.8681 30.434 49.8253C30.3944 49.7593 30.4175 49.6737 30.4867 49.6341L31.1887 49.2287C31.2546 49.1892 31.3403 49.2123 31.3798 49.2815C31.4194 49.3474 31.3963 49.4331 31.3271 49.4726L30.6251 49.878C30.6053 49.8879 30.5823 49.8945 30.5559 49.8945Z" fill="#F5CBD9"/>
<path d="M28.6693 50.1647C28.6462 50.1647 28.6198 50.1581 28.6001 50.1449C28.5341 50.1054 28.5111 50.0197 28.5473 49.9538L29.0351 49.1101C29.0746 49.0442 29.1603 49.0211 29.2262 49.0574C29.2922 49.0969 29.3152 49.1826 29.279 49.2485L28.7912 50.0922C28.7648 50.1416 28.7187 50.1647 28.6693 50.1647Z" fill="#F5CBD9"/>
<path d="M29.4577 48.7974C29.4347 48.7974 29.4083 48.7908 29.3885 48.7776C29.3226 48.738 29.2995 48.6524 29.3358 48.5864L30.3739 46.787C30.4135 46.7211 30.4992 46.698 30.5651 46.7343C30.631 46.7738 30.654 46.8595 30.6178 46.9254L29.5797 48.7249C29.5533 48.771 29.5072 48.7974 29.4577 48.7974Z" fill="#F5CBD9"/>
<path d="M50.2451 28.3277C49.8925 28.3277 49.6057 28.6144 49.6057 28.967C49.6057 29.3197 49.8925 29.6064 50.2451 29.6064C50.5977 29.6064 50.8845 29.3197 50.8845 28.967C50.8878 28.6144 50.601 28.3277 50.2451 28.3277Z" fill="#F5CBD9"/>
<path d="M48.8296 29.1054H47.8541C47.775 29.1054 47.7124 29.0428 47.7124 28.9637C47.7124 28.8846 47.775 28.822 47.8541 28.822H48.8296C48.9087 28.822 48.9714 28.8846 48.9714 28.9637C48.9714 29.0428 48.9054 29.1054 48.8296 29.1054Z" fill="#F5CBD9"/>
<path d="M47.2471 29.1053H45.1675C45.0884 29.1053 45.0258 29.0427 45.0258 28.9636C45.0258 28.8845 45.0884 28.8219 45.1675 28.8219H47.2471C47.3262 28.8219 47.3888 28.8845 47.3888 28.9636C47.3888 29.0427 47.3229 29.1053 47.2471 29.1053Z" fill="#F5CBD9"/>
<path d="M48.1726 30.3019C48.1232 30.3019 48.077 30.2755 48.0507 30.2327C48.0111 30.1668 48.0342 30.0811 48.1034 30.0415L48.9471 29.5538C49.013 29.5142 49.0987 29.5373 49.1382 29.6065C49.1778 29.6724 49.1547 29.7581 49.0855 29.7977L48.2418 30.2854C48.2187 30.2986 48.1957 30.3019 48.1726 30.3019Z" fill="#F5CBD9"/>
<path d="M45.8461 31.6463C45.7967 31.6463 45.7505 31.6199 45.7242 31.5771C45.6846 31.5112 45.7077 31.4255 45.7769 31.3859L47.5763 30.3445C47.6423 30.305 47.728 30.328 47.7675 30.3972C47.807 30.4632 47.784 30.5488 47.7148 30.5884L45.9153 31.6298C45.8956 31.6397 45.8692 31.6463 45.8461 31.6463Z" fill="#F5CBD9"/>
<path d="M49.0477 31.1787C49.0246 31.1787 48.9982 31.1721 48.9785 31.1589C48.9126 31.1193 48.8895 31.0337 48.9258 30.9677L49.4135 30.1208C49.4531 30.0548 49.5387 30.0318 49.6047 30.068C49.6706 30.1076 49.6936 30.1933 49.6574 30.2592L49.1696 31.1062C49.1433 31.1523 49.0971 31.1787 49.0477 31.1787Z" fill="#F5CBD9"/>
<path d="M48.3163 32.4506C48.2932 32.4506 48.2669 32.444 48.2471 32.4308C48.1812 32.3913 48.1581 32.3056 48.1944 32.2397L48.6261 31.4916C48.6656 31.4256 48.7513 31.4026 48.8172 31.4388C48.8832 31.4784 48.9062 31.5641 48.87 31.63L48.4382 32.3781C48.4119 32.4242 48.3624 32.4506 48.3163 32.4506Z" fill="#F5CBD9"/>
<path d="M50.2442 31.4984C50.1651 31.4984 50.1024 31.4358 50.1024 31.3567V30.3812C50.1024 30.3021 50.1651 30.2394 50.2442 30.2394C50.3233 30.2394 50.3859 30.3021 50.3859 30.3812V31.3567C50.3859 31.4358 50.3233 31.4984 50.2442 31.4984Z" fill="#F5CBD9"/>
<path d="M50.2442 34.016C50.1651 34.016 50.1024 33.9534 50.1024 33.8743V31.9628C50.1024 31.8837 50.1651 31.8211 50.2442 31.8211C50.3233 31.8211 50.3859 31.8837 50.3859 31.9628V33.8743C50.3859 33.9534 50.3233 34.016 50.2442 34.016Z" fill="#F5CBD9"/>
<path d="M50.2442 27.6914C50.1651 27.6914 50.1024 27.6288 50.1024 27.5497V26.5741C50.1024 26.495 50.1651 26.4324 50.2442 26.4324C50.3233 26.4324 50.3859 26.495 50.3859 26.5741V27.5497C50.3859 27.6288 50.3233 27.6914 50.2442 27.6914Z" fill="#F5CBD9"/>
<path d="M50.2442 26.1097C50.1651 26.1097 50.1024 26.0471 50.1024 25.968V24.0565C50.1024 23.9774 50.1651 23.9148 50.2442 23.9148C50.3233 23.9148 50.3859 23.9774 50.3859 24.0565V25.968C50.3859 26.0471 50.3233 26.1097 50.2442 26.1097Z" fill="#F5CBD9"/>
<path d="M49.5376 27.8795C49.4882 27.8795 49.442 27.8531 49.4157 27.8103L48.9279 26.9633C48.8884 26.8974 48.9114 26.8117 48.9806 26.7721C49.0466 26.7326 49.1323 26.7556 49.1718 26.8249L49.6596 27.6718C49.6991 27.7378 49.676 27.8234 49.6068 27.863C49.5838 27.8762 49.5607 27.8795 49.5376 27.8795Z" fill="#F5CBD9"/>
<path d="M48.7465 26.5117C48.6971 26.5117 48.651 26.4853 48.6246 26.4425L48.2192 25.7405C48.1797 25.6746 48.2028 25.5889 48.272 25.5494C48.3379 25.5098 48.4236 25.5329 48.4631 25.6021L48.8685 26.3041C48.908 26.37 48.885 26.4557 48.8158 26.4952C48.7927 26.5051 48.7696 26.5117 48.7465 26.5117Z" fill="#F5CBD9"/>
<path d="M49.0186 28.4003C48.9956 28.4003 48.9692 28.3937 48.9494 28.3806L48.1057 27.8928C48.0398 27.8533 48.0168 27.7676 48.053 27.7017C48.0926 27.6357 48.1782 27.6127 48.2442 27.6489L49.0879 28.1367C49.1538 28.1762 49.1768 28.2619 49.1406 28.3278C49.1142 28.374 49.0681 28.4003 49.0186 28.4003Z" fill="#F5CBD9"/>
<path d="M47.6502 27.6091C47.6271 27.6091 47.6007 27.6025 47.581 27.5893L45.7815 26.5479C45.7156 26.5083 45.6925 26.4226 45.7288 26.3567C45.7683 26.2908 45.854 26.2677 45.9199 26.304L47.7194 27.3454C47.7853 27.385 47.8084 27.4707 47.7721 27.5366C47.7457 27.5827 47.6963 27.6091 47.6502 27.6091Z" fill="#F5CBD9"/>
<path d="M5.67571 29.6064C6.02834 29.6064 6.31507 29.3197 6.31507 28.967C6.31507 28.6144 6.02834 28.3277 5.67571 28.3277C5.32307 28.3277 5.03635 28.6144 5.03635 28.967C5.03635 29.3197 5.31977 29.6064 5.67571 29.6064Z" fill="#F5CBD9"/>
<path d="M8.06764 29.1053H7.09212C7.01302 29.1053 6.95041 29.0427 6.95041 28.9636C6.95041 28.8845 7.01302 28.8219 7.09212 28.8219H8.06764C8.14674 28.8219 8.20935 28.8845 8.20935 28.9636C8.20935 29.0427 8.14674 29.1053 8.06764 29.1053Z" fill="#F5CBD9"/>
<path d="M10.7531 29.1054H8.67354C8.59445 29.1054 8.53183 29.0428 8.53183 28.9637C8.53183 28.8846 8.59445 28.822 8.67354 28.822H10.7531C10.8322 28.822 10.8948 28.8846 10.8948 28.9637C10.8948 29.0428 10.8322 29.1054 10.7531 29.1054Z" fill="#F5CBD9"/>
<path d="M6.90475 28.4001C6.85531 28.4001 6.80917 28.3737 6.78281 28.3309C6.74326 28.265 6.76633 28.1793 6.83554 28.1397L7.67923 27.652C7.74514 27.6124 7.83083 27.6355 7.87038 27.7047C7.90993 27.7706 7.88686 27.8563 7.81765 27.8959L6.97396 28.3836C6.95089 28.3935 6.92782 28.4001 6.90475 28.4001Z" fill="#F5CBD9"/>
<path d="M8.27193 27.6093C8.2225 27.6093 8.17636 27.583 8.14999 27.5401C8.11045 27.4742 8.13352 27.3885 8.20273 27.349L10.0055 26.3076C10.0714 26.268 10.1571 26.2911 10.1966 26.3603C10.2361 26.4262 10.2131 26.5119 10.1439 26.5514L8.34114 27.5929C8.32137 27.6028 8.2983 27.6093 8.27193 27.6093Z" fill="#F5CBD9"/>
<path d="M6.3853 27.8795C6.36223 27.8795 6.33587 27.8729 6.3161 27.8597C6.25018 27.8201 6.22711 27.7345 6.26336 27.6685L6.75112 26.8216C6.79067 26.7556 6.87636 26.7326 6.94227 26.7688C7.00818 26.8084 7.03126 26.8941 6.995 26.96L6.50725 27.807C6.48088 27.8564 6.43144 27.8795 6.3853 27.8795Z" fill="#F5CBD9"/>
<path d="M7.17828 26.5117C7.15521 26.5117 7.12884 26.5051 7.10907 26.4919C7.04315 26.4524 7.02008 26.3667 7.05633 26.3008L7.48807 25.5526C7.52761 25.4867 7.6133 25.4637 7.67921 25.4999C7.74513 25.5395 7.7682 25.6251 7.73195 25.6911L7.30021 26.4392C7.27385 26.4853 7.22442 26.5117 7.17828 26.5117Z" fill="#F5CBD9"/>
<path d="M5.67703 27.6914C5.59793 27.6914 5.53531 27.6288 5.53531 27.5497V26.5741C5.53531 26.495 5.59793 26.4324 5.67703 26.4324C5.75612 26.4324 5.81874 26.495 5.81874 26.5741V27.5497C5.81544 27.6288 5.75283 27.6914 5.67703 27.6914Z" fill="#F5CBD9"/>
<path d="M5.67703 26.1097C5.59793 26.1097 5.53531 26.0471 5.53531 25.968V24.0565C5.53531 23.9774 5.59793 23.9148 5.67703 23.9148C5.75612 23.9148 5.81874 23.9774 5.81874 24.0565V25.968C5.81544 26.0471 5.75283 26.1097 5.67703 26.1097Z" fill="#F5CBD9"/>
<path d="M5.67703 31.4984C5.59793 31.4984 5.53531 31.4358 5.53531 31.3567V30.3812C5.53531 30.3021 5.59793 30.2394 5.67703 30.2394C5.75612 30.2394 5.81874 30.3021 5.81874 30.3812V31.3567C5.81544 31.4358 5.75283 31.4984 5.67703 31.4984Z" fill="#F5CBD9"/>
<path d="M5.67703 34.016C5.59793 34.016 5.53531 33.9534 5.53531 33.8743V31.9628C5.53531 31.8837 5.59793 31.8211 5.67703 31.8211C5.75612 31.8211 5.81874 31.8837 5.81874 31.9628V33.8743C5.81544 33.9534 5.75283 34.016 5.67703 34.016Z" fill="#F5CBD9"/>
<path d="M6.87523 31.1784C6.8258 31.1784 6.77966 31.1521 6.75329 31.1092L6.26553 30.2622C6.22599 30.1963 6.24906 30.1106 6.31827 30.0711C6.38418 30.0315 6.46987 30.0546 6.50941 30.1238L6.99717 30.9708C7.03672 31.0367 7.01365 31.1224 6.94444 31.1619C6.92137 31.1718 6.8983 31.1784 6.87523 31.1784Z" fill="#F5CBD9"/>
<path d="M7.57663 32.4044C7.52719 32.4044 7.48105 32.378 7.45468 32.3352L7.04932 31.6332C7.00977 31.5673 7.03284 31.4816 7.10205 31.442C7.16796 31.4025 7.25365 31.4256 7.2932 31.4948L7.69856 32.1968C7.73811 32.2627 7.71504 32.3484 7.64583 32.3879C7.62606 32.3978 7.60299 32.4044 7.57663 32.4044Z" fill="#F5CBD9"/>
<path d="M7.74853 30.3016C7.72546 30.3016 7.69909 30.295 7.67932 30.2818L6.83563 29.7941C6.76971 29.7545 6.74664 29.6688 6.7829 29.6029C6.82244 29.537 6.90813 29.5139 6.97405 29.5502L7.81774 30.038C7.88365 30.0775 7.90672 30.1632 7.87047 30.2291C7.8441 30.2785 7.79796 30.3016 7.74853 30.3016Z" fill="#F5CBD9"/>
<path d="M10.0725 31.6465C10.0494 31.6465 10.0231 31.64 10.0033 31.6268L8.20056 30.5853C8.13464 30.5458 8.11157 30.4601 8.14782 30.3942C8.18737 30.3283 8.27306 30.3052 8.33897 30.3415L10.1417 31.3829C10.2076 31.4224 10.2307 31.5081 10.1944 31.574C10.1681 31.6202 10.1219 31.6465 10.0725 31.6465Z" fill="#F5CBD9"/>
<path d="M21.5827 10.2511C21.5036 10.2511 21.4278 10.2478 21.352 10.2379C20.7061 10.1621 20.1228 9.75348 19.8657 9.19651C19.5922 8.60329 19.7141 7.85517 20.1557 7.41355C20.6237 6.94557 21.4245 6.87306 21.9387 7.25536C22.3539 7.56515 22.522 8.1419 22.321 8.56704C22.2089 8.80433 21.9617 8.98229 21.6816 9.03502C21.4278 9.08116 21.1873 9.01525 21.0192 8.85376C20.9632 8.80103 20.9632 8.71205 21.0159 8.65602C21.0686 8.59999 21.1576 8.6 21.2136 8.65273C21.3158 8.7516 21.4641 8.78785 21.6322 8.75819C21.8266 8.72194 21.9914 8.60329 22.0672 8.4451C22.2155 8.1353 22.0837 7.71016 21.7739 7.47947C21.3652 7.17626 20.7292 7.23559 20.3535 7.61129C19.9909 7.97052 19.8921 8.59011 20.1195 9.07787C20.337 9.54915 20.8346 9.89519 21.3817 9.95781C21.8991 10.0204 22.466 9.83587 22.8977 9.47335C23.4843 8.9757 23.7513 8.17485 23.5503 7.52231C23.4052 7.05433 23.0295 6.64896 22.5253 6.40508C22.0936 6.19745 21.5663 6.10517 20.9599 6.12824C19.9975 6.1645 19.0022 6.47099 18.0069 7.03785C17.2391 7.47617 16.1482 8.16167 15.3045 8.94933C15.2518 8.99547 15.1727 8.99877 15.1199 8.95593C15.0639 8.90979 15.054 8.83399 15.0903 8.77466C15.4231 8.23417 15.6604 7.75301 15.8219 7.29491C14.7047 8.26054 13.3963 9.02514 12.0088 9.51949C11.3958 9.737 10.5851 9.97099 9.75459 9.85564C8.89772 9.7337 8.17597 9.20969 7.91561 8.5209C7.75082 8.08587 7.78378 7.57175 8.00459 7.11694C8.22869 6.65885 8.61099 6.31939 9.05591 6.18097C9.61947 6.0063 10.2522 6.15131 10.6345 6.5402C11.0597 6.97523 11.1256 7.67721 10.7861 8.1386C10.6082 8.37918 10.3116 8.54067 9.99187 8.56374C9.69197 8.59011 9.40854 8.49453 9.2141 8.30338C9.15807 8.25065 9.15807 8.16167 9.2108 8.10564C9.26353 8.04962 9.35252 8.04962 9.40854 8.10564C9.54367 8.23747 9.7447 8.30668 9.96551 8.28691C10.2061 8.26713 10.4269 8.15178 10.5554 7.97382C10.8125 7.62448 10.7532 7.06751 10.4302 6.73465C10.1204 6.41826 9.59969 6.30291 9.135 6.44463C8.76259 6.55998 8.44291 6.8467 8.25176 7.23559C8.06391 7.62448 8.03425 8.05621 8.17267 8.41873C8.40007 9.01525 9.03283 9.46675 9.79084 9.57551C10.562 9.68427 11.3299 9.46016 11.9132 9.25254C13.4227 8.71534 14.8365 7.85188 15.9999 6.75112C16.046 6.70828 16.1119 6.70169 16.168 6.73135C16.2207 6.76101 16.2471 6.82363 16.2339 6.88625C16.1317 7.31468 15.9669 7.74642 15.7263 8.2177C16.458 7.63766 17.2621 7.13672 17.8685 6.79397C18.9034 6.20404 19.9415 5.88436 20.95 5.84811C21.6025 5.82175 22.176 5.92721 22.6472 6.15461C23.224 6.43144 23.6491 6.89943 23.8205 7.43992C24.0578 8.19792 23.7513 9.12071 23.0823 9.68757C22.6538 10.0468 22.1068 10.2511 21.5827 10.2511Z" fill="#F1DFC1"/>
<path d="M21.1258 9.94152C21.0467 9.94152 20.9709 9.93822 20.8951 9.92833C20.6907 9.90526 20.4897 9.84594 20.2986 9.75696C20.2293 9.724 20.1997 9.64161 20.2326 9.56911C20.2656 9.4999 20.348 9.47023 20.4205 9.50319C20.5853 9.57899 20.7567 9.62843 20.9313 9.6515C21.4487 9.71082 22.0156 9.52956 22.4473 9.16703C23.034 8.67268 23.3009 7.86854 23.0999 7.216C23.0043 6.9095 22.8066 6.62937 22.5132 6.39208C22.4539 6.34265 22.444 6.25366 22.4935 6.19434C22.5429 6.13502 22.6319 6.12513 22.6912 6.17457C23.0274 6.44811 23.2548 6.77108 23.3668 7.13361C23.6041 7.89161 23.2976 8.8144 22.6286 9.38125C22.1969 9.73718 21.6498 9.94152 21.1258 9.94152Z" fill="#F1DFC1"/>
<path d="M10.4684 9.87542C10.4618 9.87542 10.4552 9.87542 10.4486 9.87542C9.73348 9.77325 8.83046 9.30527 8.53056 8.5209C8.346 8.03314 8.40532 7.42674 8.68875 6.94227C8.94911 6.49736 9.36107 6.21063 9.84883 6.14142C9.92463 6.12824 9.99713 6.18427 10.007 6.26007C10.0169 6.33587 9.96417 6.40837 9.88837 6.41826C9.4863 6.47758 9.14685 6.71487 8.92933 7.08399C8.68875 7.49594 8.63602 8.01007 8.79091 8.41873C9.05127 9.09764 9.85212 9.5063 10.4882 9.59529C10.564 9.60517 10.6167 9.67768 10.6068 9.75348C10.5969 9.82269 10.5376 9.87542 10.4684 9.87542Z" fill="#F1DFC1"/>
<path d="M24.6164 6.12501H12.8047C12.7256 6.12501 12.663 6.06239 12.663 5.9833C12.663 5.9042 12.7256 5.84158 12.8047 5.84158H24.6164C24.6955 5.84158 24.7581 5.9042 24.7581 5.9833C24.7581 6.06239 24.6955 6.12501 24.6164 6.12501Z" fill="#F1DFC1"/>
<path d="M21.4484 9.01538C21.8015 9.01538 22.0877 8.72913 22.0877 8.37602C22.0877 8.02292 21.8015 7.73666 21.4484 7.73666C21.0953 7.73666 20.809 8.02292 20.809 8.37602C20.809 8.72913 21.0953 9.01538 21.4484 9.01538Z" fill="#F1DFC1"/>
<path d="M13.4429 6.4843C13.4429 6.83694 13.1562 7.12366 12.8036 7.12366C12.4509 7.12366 12.1642 6.83694 12.1642 6.4843C12.1642 6.13166 12.4509 5.84494 12.8036 5.84494C13.1562 5.84494 13.4429 6.13166 13.4429 6.4843Z" fill="#F1DFC1"/>
<path d="M9.67467 8.49802C10.0278 8.49802 10.314 8.21177 10.314 7.85866C10.314 7.50555 10.0278 7.2193 9.67467 7.2193C9.32156 7.2193 9.03531 7.50555 9.03531 7.85866C9.03531 8.21177 9.32156 8.49802 9.67467 8.49802Z" fill="#F1DFC1"/>
<path d="M34.3277 10.2511C33.8004 10.2511 33.2698 10.0534 32.8381 9.68757C32.1658 9.12071 31.8626 8.19792 32.0999 7.43992C32.2679 6.89943 32.6964 6.43144 33.2731 6.15461C33.7477 5.92721 34.3178 5.82175 34.9704 5.84811C35.9789 5.88436 37.017 6.20404 38.0518 6.79397C38.6582 7.14001 39.4624 7.63766 40.194 8.2177C39.9534 7.74642 39.7887 7.31468 39.6865 6.88625C39.6733 6.82693 39.6997 6.76431 39.7524 6.73135C39.8051 6.70169 39.8743 6.70828 39.9205 6.75112C41.0838 7.85188 42.4977 8.71534 44.0071 9.25254C44.5904 9.46016 45.3583 9.68427 46.1295 9.57551C46.8842 9.47005 47.5203 9.01525 47.7477 8.41873C47.8861 8.05621 47.8564 7.62448 47.6686 7.23559C47.4807 6.8467 47.1578 6.55998 46.7853 6.44463C46.3207 6.29962 45.7999 6.41497 45.4902 6.73465C45.1639 7.06751 45.1079 7.62118 45.3649 7.97382C45.4934 8.14849 45.7143 8.26713 45.9548 8.28691C46.1724 8.30338 46.3767 8.23747 46.5118 8.10564C46.5678 8.05291 46.6568 8.05291 46.7096 8.10564C46.7623 8.16167 46.7623 8.25065 46.7063 8.30338C46.5118 8.49453 46.2284 8.59011 45.9285 8.56374C45.6088 8.53738 45.3122 8.37918 45.1342 8.1386C44.7948 7.67721 44.8607 6.97193 45.2858 6.5402C45.6681 6.15131 46.3009 6.0063 46.8645 6.18097C47.3094 6.31939 47.6917 6.65885 47.9158 7.11694C48.1399 7.57504 48.1728 8.08587 48.0048 8.5209C47.7411 9.20969 47.0193 9.7337 46.1658 9.85564C45.3353 9.97429 44.5245 9.737 43.9115 9.51949C42.524 9.02514 41.2157 8.26054 40.0984 7.29491C40.2599 7.75301 40.4972 8.23417 40.8301 8.77466C40.8663 8.83399 40.8531 8.91308 40.8004 8.95593C40.7477 8.99877 40.6686 8.99877 40.6159 8.94933C39.7755 8.16167 38.6813 7.47617 37.9134 7.03785C36.9181 6.47099 35.9228 6.1645 34.9605 6.12824C34.3508 6.10517 33.8268 6.20075 33.395 6.40508C32.8875 6.64896 32.5151 7.05433 32.3701 7.52231C32.1658 8.17485 32.436 8.9757 33.0226 9.47335C33.4544 9.83917 34.0245 10.0204 34.5386 9.95781C35.089 9.8919 35.5867 9.54585 35.8042 9.07787C36.0316 8.58681 35.9327 7.97052 35.5702 7.61129C35.1945 7.23559 34.5584 7.17956 34.1498 7.47947C33.8367 7.71016 33.7081 8.1353 33.8564 8.4451C33.9322 8.60329 34.097 8.72194 34.2915 8.75819C34.453 8.78785 34.6079 8.7483 34.71 8.65273C34.7661 8.6 34.855 8.59999 34.9078 8.65602C34.9605 8.71205 34.9605 8.80103 34.9045 8.85376C34.7364 9.01525 34.4958 9.08116 34.242 9.03502C33.9619 8.98559 33.718 8.80433 33.606 8.56704C33.4016 8.1419 33.5697 7.56515 33.9883 7.25536C34.5024 6.87306 35.3032 6.94557 35.7712 7.41355C36.2129 7.85517 36.3348 8.60329 36.0613 9.19651C35.8042 9.75348 35.2209 10.1621 34.5749 10.2379C34.4859 10.2478 34.4068 10.2511 34.3277 10.2511Z" fill="#F1DFC1"/>
<path d="M34.7982 9.9413C34.2742 9.9413 33.7272 9.74027 33.2987 9.37774C32.6264 8.81089 32.3232 7.8881 32.5605 7.1301C32.6725 6.77087 32.8999 6.44789 33.2361 6.17106C33.2954 6.12162 33.3844 6.13151 33.4338 6.19083C33.4833 6.25015 33.4734 6.33914 33.4141 6.38857C33.1208 6.62915 32.9263 6.90599 32.8307 7.21249C32.6264 7.86503 32.8966 8.66588 33.4833 9.16352C33.915 9.52934 34.4852 9.7106 34.9993 9.64799C35.174 9.62821 35.3453 9.57878 35.5101 9.49968C35.5793 9.46673 35.665 9.49639 35.698 9.5656C35.7309 9.6348 35.7013 9.72049 35.632 9.75345C35.4409 9.84243 35.2399 9.90175 35.0355 9.92482C34.9531 9.93801 34.874 9.9413 34.7982 9.9413Z" fill="#F1DFC1"/>
<path d="M45.4532 9.8753C45.3839 9.8753 45.3246 9.82586 45.3147 9.75336C45.3048 9.67755 45.3576 9.60505 45.4334 9.59516C46.0694 9.50618 46.8703 9.09752 47.1306 8.41861C47.2888 8.00665 47.2361 7.49582 46.9922 7.08057C46.7747 6.71145 46.4353 6.47417 46.0332 6.41484C45.9574 6.40496 45.9047 6.33245 45.9145 6.25665C45.9244 6.18085 45.9969 6.12482 46.0727 6.13801C46.5605 6.21051 46.9725 6.49394 47.2328 6.93885C47.5162 7.42332 47.5789 8.02642 47.391 8.51748C47.0911 9.30514 46.1881 9.76983 45.4729 9.872C45.4663 9.87529 45.4597 9.8753 45.4532 9.8753Z" fill="#F1DFC1"/>
<path d="M43.1177 6.12501H31.3028C31.2237 6.12501 31.161 6.06239 31.161 5.9833C31.161 5.9042 31.2237 5.84158 31.3028 5.84158H43.1144C43.1935 5.84158 43.2561 5.9042 43.2561 5.9833C43.2561 6.06239 43.1935 6.12501 43.1177 6.12501Z" fill="#F1DFC1"/>
<path d="M34.4708 9.01502C34.8239 9.01502 35.1101 8.72877 35.1101 8.37566C35.1101 8.02255 34.8239 7.7363 34.4708 7.7363C34.1177 7.7363 33.8314 8.02255 33.8314 8.37566C33.8314 8.72877 34.1177 9.01502 34.4708 9.01502Z" fill="#F1DFC1"/>
<path d="M42.4765 6.48409C42.4765 6.83672 42.7633 7.12345 43.1159 7.12345C43.4685 7.12345 43.7553 6.83672 43.7553 6.48409C43.7553 6.13145 43.4685 5.84473 43.1159 5.84473C42.7633 5.84473 42.4765 6.13145 42.4765 6.48409Z" fill="#F1DFC1"/>
<path d="M46.2469 8.49796C46.6 8.49796 46.8863 8.21171 46.8863 7.8586C46.8863 7.50549 46.6 7.21924 46.2469 7.21924C45.8938 7.21924 45.6075 7.50549 45.6075 7.8586C45.6075 8.21171 45.8938 8.49796 46.2469 8.49796Z" fill="#F1DFC1"/>
<path d="M21.1351 52.0894C21.0725 52.0894 21.0132 52.0894 20.9506 52.0862C19.9421 52.0499 18.904 51.7302 17.8691 51.1403C17.2627 50.7943 16.4586 50.2966 15.727 49.7166C15.9675 50.1878 16.1323 50.6196 16.2345 51.048C16.2477 51.1073 16.2213 51.17 16.1686 51.2029C16.1158 51.2326 16.0466 51.226 16.0005 51.1831C14.8371 50.0824 13.4233 49.2189 11.9139 48.6817C11.3305 48.4741 10.5593 48.25 9.79145 48.3587C9.03674 48.4675 8.40068 48.919 8.17328 49.5155C8.03486 49.8781 8.06452 50.3098 8.25237 50.6987C8.44023 51.0876 8.7632 51.3743 9.13562 51.4896C9.6003 51.6346 10.121 51.5193 10.4308 51.1996C10.7571 50.8668 10.8131 50.3131 10.556 49.9604C10.4275 49.7825 10.2067 49.6671 9.96613 49.6474C9.74861 49.6309 9.54428 49.6968 9.40916 49.8286C9.35313 49.8846 9.26415 49.8814 9.21141 49.8286C9.15868 49.7726 9.15868 49.6836 9.21471 49.6309C9.40915 49.4397 9.69258 49.3442 9.98919 49.3705C10.3089 49.3969 10.6055 49.5551 10.7834 49.7957C11.1229 50.2571 11.057 50.9623 10.6318 51.3941C10.2495 51.783 9.61678 51.928 9.05322 51.7533C8.60831 51.6149 8.22601 51.2754 8.0019 50.8173C7.7778 50.3592 7.74484 49.8484 7.91292 49.4134C8.17657 48.7246 8.89833 48.2006 9.7519 48.0786C10.5857 47.96 11.3931 48.1973 12.0061 48.4148C13.3936 48.9091 14.702 49.6737 15.8192 50.6394C15.6577 50.1813 15.4205 49.7001 15.0876 49.1596C15.0513 49.1003 15.0645 49.0212 15.1173 48.9783C15.17 48.9355 15.2491 48.9355 15.3018 48.9849C16.1422 49.7726 17.2364 50.4581 18.0043 50.8964C18.9996 51.4633 19.9948 51.7698 20.9572 51.806C21.5669 51.8291 22.0909 51.7335 22.5226 51.5292C23.0302 51.2853 23.4026 50.8799 23.5476 50.412C23.7519 49.7594 23.4817 48.9586 22.895 48.4609C22.4633 48.0951 21.8964 47.9138 21.379 47.9765C20.8286 48.0424 20.3343 48.3884 20.1168 48.8564C19.8894 49.3442 19.9883 49.9637 20.3508 50.323C20.7265 50.6987 21.3625 50.7547 21.7712 50.4548C22.0843 50.2241 22.2128 49.799 22.0645 49.4892C21.9887 49.331 21.8239 49.2123 21.6295 49.1761C21.4647 49.1464 21.3131 49.186 21.2109 49.2815C21.1549 49.3343 21.0659 49.3343 21.0132 49.2782C20.9605 49.2222 20.9605 49.1332 21.0165 49.0805C21.1846 48.919 21.4252 48.8531 21.6789 48.8992C21.9591 48.9487 22.2029 49.1299 22.3183 49.3672C22.5226 49.7924 22.3545 50.3691 21.936 50.6789C21.4219 51.0612 20.621 50.9887 20.153 50.5207C19.7114 50.0791 19.5895 49.331 19.863 48.7377C20.1201 48.1808 20.7034 47.7721 21.3494 47.6963C21.9426 47.6271 22.5885 47.8314 23.0796 48.2467C23.7519 48.8136 24.0551 49.7363 23.8178 50.4943C23.6497 51.0348 23.2213 51.5028 22.6446 51.7797C22.2194 51.9873 21.7119 52.0894 21.1351 52.0894Z" fill="#F1DFC1"/>
<path d="M22.599 51.7929C22.5595 51.7929 22.5166 51.7765 22.4903 51.7402C22.4408 51.6809 22.4507 51.5919 22.51 51.5425C22.8033 51.3019 22.9978 51.0251 23.0967 50.7186C23.301 50.066 23.0307 49.2652 22.4441 48.7675C22.0124 48.4017 21.4455 48.2204 20.9281 48.2831C20.7534 48.3028 20.5821 48.3523 20.4173 48.4314C20.3481 48.4643 20.2624 48.4347 20.2294 48.3655C20.1965 48.2962 20.2261 48.2106 20.2986 48.1776C20.4898 48.0886 20.6908 48.0293 20.8952 48.0062C21.4884 47.937 22.1343 48.1414 22.6254 48.5566C23.2977 49.1235 23.6009 50.0462 23.3636 50.8042C23.2516 51.1668 23.0242 51.4865 22.688 51.7633C22.6616 51.7831 22.6287 51.7929 22.599 51.7929Z" fill="#F1DFC1"/>
<path d="M9.86705 51.7961C9.86046 51.7961 9.85387 51.7961 9.84728 51.7961C9.35952 51.7236 8.94756 51.4401 8.6872 50.9952C8.40377 50.5108 8.34116 49.9077 8.52901 49.4166C8.82891 48.6289 9.73193 48.1643 10.4471 48.0621C10.5229 48.0522 10.5954 48.1049 10.6053 48.1807C10.6152 48.2565 10.5624 48.329 10.4866 48.3389C9.85057 48.4279 9.04972 48.8366 8.78936 49.5155C8.63117 49.9274 8.6839 50.4383 8.92778 50.8502C9.1453 51.2193 9.48475 51.4566 9.88682 51.5159C9.96262 51.5258 10.0154 51.5983 10.0055 51.6741C9.99558 51.7466 9.93626 51.7961 9.86705 51.7961Z" fill="#F1DFC1"/>
<path d="M24.6181 52.0894H12.8064C12.7273 52.0894 12.6647 52.0268 12.6647 51.9477C12.6647 51.8686 12.7273 51.806 12.8064 51.806H24.6181C24.6972 51.806 24.7598 51.8686 24.7598 51.9477C24.7598 52.0268 24.6972 52.0894 24.6181 52.0894Z" fill="#F1DFC1"/>
<path d="M21.4502 50.1977C21.8033 50.1977 22.0896 49.9114 22.0896 49.5583C22.0896 49.2052 21.8033 48.919 21.4502 48.919C21.0971 48.919 20.8109 49.2052 20.8109 49.5583C20.8109 49.9114 21.0971 50.1977 21.4502 50.1977Z" fill="#F1DFC1"/>
<path d="M12.8051 52.0895C13.1582 52.0895 13.4444 51.8032 13.4444 51.4501C13.4444 51.097 13.1582 50.8108 12.8051 50.8108C12.452 50.8108 12.1657 51.097 12.1657 51.4501C12.1657 51.8032 12.452 52.0895 12.8051 52.0895Z" fill="#F1DFC1"/>
<path d="M9.67436 50.7152C10.0275 50.7152 10.3137 50.4289 10.3137 50.0758C10.3137 49.7227 10.0275 49.4365 9.67436 49.4365C9.32126 49.4365 9.035 49.7227 9.035 50.0758C9.035 50.4289 9.32126 50.7152 9.67436 50.7152Z" fill="#F1DFC1"/>
<path d="M34.783 52.0895C34.2063 52.0895 33.6988 51.9873 33.2703 51.7797C32.6936 51.5028 32.2685 51.0349 32.0971 50.4944C31.8598 49.7364 32.1663 48.8136 32.8353 48.2467C33.333 47.8249 33.9624 47.6271 34.5655 47.6964C35.2115 47.7722 35.7948 48.1808 36.0519 48.7378C36.3254 49.331 36.2035 50.0791 35.7619 50.5207C35.2906 50.9887 34.4897 51.0612 33.9789 50.6789C33.5637 50.3691 33.3956 49.7924 33.5966 49.3673C33.7087 49.13 33.9525 48.952 34.2327 48.8993C34.4864 48.8531 34.727 48.919 34.8951 49.0805C34.9511 49.1333 34.9511 49.2222 34.8984 49.2783C34.8457 49.3343 34.7567 49.3343 34.7007 49.2816C34.5985 49.1827 34.4469 49.1464 34.2821 49.1761C34.0877 49.2124 33.9229 49.331 33.8471 49.4892C33.6988 49.799 33.8306 50.2241 34.1404 50.4548C34.5491 50.758 35.1851 50.6987 35.5608 50.323C35.9233 49.9638 36.0222 49.3475 35.7948 48.8564C35.5773 48.3851 35.0797 48.0391 34.5293 47.9765C34.0119 47.9172 33.445 48.0984 33.0133 48.4609C32.4266 48.9553 32.1597 49.7594 32.3607 50.412C32.5057 50.88 32.8814 51.2853 33.3857 51.5292C33.8174 51.7368 34.3447 51.8291 34.9511 51.8061C35.9135 51.7698 36.9088 51.4633 37.904 50.8964C38.6719 50.4581 39.7628 49.7726 40.6065 48.985C40.6592 48.9355 40.7383 48.9355 40.791 48.9784C40.8471 49.0245 40.857 49.1003 40.8207 49.1596C40.4878 49.7001 40.2506 50.1813 40.0891 50.6394C41.203 49.6738 42.5147 48.9092 43.9022 48.4148C44.5152 48.1973 45.3259 47.96 46.1564 48.0786C47.0133 48.2006 47.735 48.7246 47.9954 49.4134C48.1602 49.8484 48.1272 50.3625 47.9064 50.8174C47.6823 51.2754 47.3 51.6149 46.8551 51.7533C46.2915 51.928 45.6588 51.783 45.2765 51.3941C44.8513 50.9591 44.7854 50.2571 45.1249 49.7957C45.3028 49.5551 45.5961 49.3936 45.9191 49.3706C46.219 49.3475 46.5024 49.4431 46.6969 49.6309C46.7529 49.6836 46.7529 49.7726 46.7002 49.8287C46.6475 49.8847 46.5585 49.8847 46.5024 49.8287C46.3673 49.6968 46.163 49.6276 45.9455 49.6474C45.7049 49.6672 45.4841 49.7825 45.3556 49.9605C45.0985 50.3098 45.1578 50.8668 45.4808 51.1996C45.7906 51.516 46.3113 51.6314 46.776 51.4897C47.1484 51.3743 47.4681 51.0876 47.6592 50.6987C47.8471 50.3098 47.8767 49.8781 47.7383 49.5156C47.5109 48.919 46.8782 48.4675 46.1201 48.3588C45.3523 48.25 44.5811 48.4741 43.9977 48.6818C42.4883 49.2189 41.0745 50.0824 39.9111 51.1832C39.865 51.226 39.7991 51.2326 39.743 51.2029C39.6903 51.1733 39.6639 51.1107 39.6771 51.048C39.7793 50.6196 39.9441 50.1879 40.1846 49.7166C39.453 50.2966 38.6489 50.7976 38.0425 51.1403C37.0076 51.7302 35.9695 52.0466 34.961 52.0862C34.905 52.0895 34.8424 52.0895 34.783 52.0895Z" fill="#F1DFC1"/>
<path d="M33.3198 51.7928C33.2868 51.7928 33.2571 51.7829 33.2308 51.7599C32.8946 51.4863 32.6672 51.1633 32.5552 50.8008C32.3179 50.0428 32.6244 49.12 33.2934 48.5532C33.7845 48.1379 34.4337 47.9336 35.0236 48.0028C35.228 48.0259 35.429 48.0852 35.6201 48.1742C35.6894 48.2071 35.719 48.2895 35.6894 48.362C35.6564 48.4312 35.574 48.4609 35.5015 48.4279C35.3367 48.3521 35.1654 48.3027 34.9907 48.2796C34.4733 48.217 33.9064 48.4016 33.4747 48.7641C32.888 49.2584 32.6211 50.0626 32.8221 50.7151C32.9177 51.0216 33.1154 51.3018 33.4055 51.539C33.4648 51.5885 33.4747 51.6775 33.4252 51.7368C33.4022 51.7763 33.3626 51.7928 33.3198 51.7928Z" fill="#F1DFC1"/>
<path d="M46.0527 51.7962C45.9835 51.7962 45.9242 51.7468 45.9143 51.6776C45.9044 51.6018 45.9571 51.5293 46.0329 51.5194C46.435 51.4601 46.7744 51.2228 46.9919 50.8537C47.2325 50.4417 47.2853 49.9276 47.1304 49.5156C46.87 48.8367 46.0692 48.428 45.4331 48.3391C45.3573 48.3292 45.3046 48.2567 45.3145 48.1809C45.3243 48.1051 45.3968 48.0523 45.4726 48.0622C46.2109 48.1677 47.0908 48.6258 47.3907 49.4167C47.5753 49.9078 47.516 50.5109 47.2325 50.9954C46.9722 51.4403 46.5602 51.727 46.0725 51.7962C46.0659 51.7962 46.0593 51.7962 46.0527 51.7962Z" fill="#F1DFC1"/>
<path d="M43.1174 52.0897H31.3025C31.2234 52.0897 31.1608 52.0271 31.1608 51.948C31.1608 51.8689 31.2234 51.8062 31.3025 51.8062H43.1142C43.1933 51.8062 43.2559 51.8689 43.2559 51.948C43.2559 52.0271 43.1932 52.0897 43.1174 52.0897Z" fill="#F1DFC1"/>
<path d="M34.4705 50.1977C34.8236 50.1977 35.1099 49.9114 35.1099 49.5583C35.1099 49.2052 34.8236 48.9189 34.4705 48.9189C34.1174 48.9189 33.8311 49.2052 33.8311 49.5583C33.8311 49.9114 34.1174 50.1977 34.4705 50.1977Z" fill="#F1DFC1"/>
<path d="M43.1159 52.0895C43.469 52.0895 43.7553 51.8032 43.7553 51.4501C43.7553 51.097 43.469 50.8108 43.1159 50.8108C42.7628 50.8108 42.4766 51.097 42.4766 51.4501C42.4766 51.8032 42.7628 52.0895 43.1159 52.0895Z" fill="#F1DFC1"/>
<path d="M46.2466 50.7152C46.5997 50.7152 46.886 50.4289 46.886 50.0758C46.886 49.7227 46.5997 49.4365 46.2466 49.4365C45.8935 49.4365 45.6073 49.7227 45.6073 50.0758C45.6073 50.4289 45.8935 50.7152 46.2466 50.7152Z" fill="#F1DFC1"/>
<path d="M48.9554 24.9066C48.3325 24.9066 47.68 24.6067 47.2417 24.0892C46.8198 23.5916 46.6221 22.9621 46.6913 22.359C46.7671 21.7131 47.1758 21.1297 47.7327 20.8727C48.3259 20.5991 49.0741 20.7211 49.5157 21.1627C49.9837 21.634 50.0562 22.4348 49.6739 22.9489C49.3641 23.3642 48.7873 23.5323 48.3622 23.3312C48.1249 23.2192 47.9469 22.9753 47.8942 22.6919C47.8481 22.4381 47.914 22.1975 48.0755 22.0294C48.1282 21.9734 48.2172 21.9734 48.2732 22.0261C48.3292 22.0789 48.3292 22.1679 48.2765 22.2239C48.1776 22.326 48.1414 22.4776 48.171 22.6424C48.2073 22.8369 48.3259 23.0017 48.4841 23.0775C48.7939 23.2258 49.2191 23.0939 49.4498 22.7841C49.753 22.3755 49.6936 21.7394 49.3179 21.3637C48.9587 21.0012 48.3424 20.9023 47.8514 21.1297C47.3801 21.3472 47.034 21.8449 46.9714 22.3953C46.9121 22.9127 47.0934 23.4795 47.4559 23.9113C47.9502 24.4979 48.7544 24.7681 49.4069 24.5638C49.8716 24.4188 50.2803 24.0431 50.5242 23.5389C50.7318 23.1071 50.8241 22.5798 50.801 21.9734C50.7647 21.0111 50.4582 20.0158 49.8914 19.0205C49.4531 18.2526 48.7676 17.1617 47.9799 16.318C47.9305 16.2653 47.9305 16.1862 47.9733 16.1335C48.0161 16.0808 48.0952 16.0676 48.1546 16.1038C48.6951 16.4367 49.1762 16.674 49.6343 16.8355C48.6687 15.7182 47.9041 14.4099 47.4097 13.0224C47.1922 12.4094 46.9549 11.5986 47.0736 10.7681C47.1955 9.91456 47.7195 9.18951 48.4083 8.92916C48.8434 8.76437 49.3542 8.79733 49.8123 9.01814C50.2704 9.24225 50.6098 9.62454 50.7483 10.0695C50.9229 10.633 50.7779 11.2658 50.389 11.6481C49.954 12.0732 49.252 12.1391 48.7906 11.7997C48.55 11.6217 48.3886 11.3251 48.3655 11.0054C48.3424 10.7055 48.438 10.4221 48.6258 10.2309C48.6819 10.1749 48.7676 10.1749 48.8236 10.2276C48.8796 10.2804 48.8796 10.3694 48.8236 10.4254C48.6918 10.5605 48.6225 10.7648 48.6423 10.9824C48.6621 11.2229 48.7774 11.4438 48.9554 11.5723C49.3048 11.8293 49.8617 11.77 50.1946 11.447C50.511 11.1373 50.6263 10.6165 50.4813 10.1518C50.366 9.77944 50.0792 9.45976 49.6903 9.26861C49.3015 9.08076 48.873 9.0511 48.5072 9.18951C47.9107 9.41691 47.4592 10.0497 47.3504 10.8077C47.2417 11.5789 47.4658 12.3468 47.6734 12.9301C48.2106 14.4395 49.0741 15.8534 50.1748 17.0167C50.2177 17.0629 50.2242 17.1288 50.1946 17.1848C50.1649 17.2375 50.099 17.2639 50.0397 17.2507C49.6113 17.1486 49.1795 16.9838 48.7082 16.7432C49.2883 17.4748 49.7892 18.279 50.132 18.8854C50.7219 19.9202 51.0416 20.9583 51.0778 21.9668C51.1009 22.6194 50.9987 23.1928 50.7713 23.6641C50.4945 24.2408 50.0265 24.6693 49.486 24.8373C49.3212 24.8802 49.14 24.9066 48.9554 24.9066Z" fill="#F1DFC1"/>
<path d="M49.2655 24.4486C48.6426 24.4486 47.9901 24.1487 47.5517 23.6312C47.1299 23.1336 46.9322 22.5008 47.0014 21.901C47.0244 21.6967 47.0838 21.4957 47.1727 21.3045C47.2057 21.2353 47.2881 21.2056 47.3606 21.2386C47.4298 21.2715 47.4595 21.3539 47.4265 21.4264C47.3507 21.5912 47.3013 21.7626 47.2815 21.9373C47.2189 22.4547 47.4034 23.0215 47.766 23.4533C48.2603 24.0399 49.0645 24.3069 49.717 24.1058C50.0235 24.0102 50.3003 23.8125 50.5409 23.5225C50.5904 23.4632 50.6793 23.4533 50.7387 23.5027C50.798 23.5521 50.8079 23.6411 50.7584 23.7005C50.4816 24.0366 50.1619 24.264 49.7994 24.3761C49.6313 24.4222 49.4501 24.4486 49.2655 24.4486Z" fill="#F1DFC1"/>
<path d="M47.1982 11.6154C47.1916 11.6154 47.185 11.6154 47.1784 11.6154C47.1026 11.6055 47.0499 11.533 47.0598 11.4572C47.162 10.742 47.6266 9.83902 48.4143 9.53911C48.9054 9.35126 49.5085 9.41388 49.9929 9.6973C50.4378 9.95766 50.7246 10.3696 50.7938 10.8574C50.8037 10.9332 50.7509 11.0057 50.6751 11.0156C50.5993 11.0255 50.5268 10.9727 50.5169 10.8969C50.4576 10.4949 50.2203 10.1554 49.8512 9.93788C49.4393 9.6973 48.9251 9.64457 48.5132 9.79947C47.8343 10.0598 47.4256 10.8607 47.3366 11.4967C47.3267 11.5627 47.2641 11.6154 47.1982 11.6154Z" fill="#F1DFC1"/>
<path d="M50.9464 25.7636C50.8673 25.7636 50.8047 25.701 50.8047 25.6219V13.8102C50.8047 13.7311 50.8673 13.6685 50.9464 13.6685C51.0255 13.6685 51.0881 13.7311 51.0881 13.8102V25.6219C51.0881 25.701 51.0255 25.7636 50.9464 25.7636Z" fill="#F1DFC1"/>
<path d="M48.5546 23.094C48.202 23.094 47.9153 22.8073 47.9153 22.4547C47.9153 22.102 48.202 21.8153 48.5546 21.8153C48.9072 21.8153 49.194 22.102 49.194 22.4547C49.194 22.8073 48.9105 23.094 48.5546 23.094Z" fill="#F1DFC1"/>
<path d="M50.4458 14.4494C50.799 14.4494 51.0852 14.1632 51.0852 13.8101C51.0852 13.457 50.799 13.1707 50.4458 13.1707C50.0927 13.1707 49.8065 13.457 49.8065 13.8101C49.8065 14.1632 50.0927 14.4494 50.4458 14.4494Z" fill="#F1DFC1"/>
<path d="M49.0741 11.3217C49.4272 11.3217 49.7135 11.0355 49.7135 10.6824C49.7135 10.3293 49.4272 10.043 49.0741 10.043C48.721 10.043 48.4348 10.3293 48.4348 10.6824C48.4348 11.0355 48.721 11.3217 49.0741 11.3217Z" fill="#F1DFC1"/>
<path d="M48.9946 49.1167C48.7936 49.1167 48.5958 49.0805 48.4146 49.0113C47.7258 48.7476 47.2018 48.0259 47.0798 47.1723C46.9612 46.3418 47.1985 45.5311 47.416 44.9181C47.9103 43.5306 48.6749 42.2222 49.6406 41.105C49.1825 41.2665 48.7013 41.5037 48.1608 41.8366C48.1015 41.8729 48.0224 41.8597 47.9795 41.8069C47.9334 41.7542 47.9367 41.6751 47.9861 41.6224C48.7738 40.782 49.4593 39.6878 49.8976 38.9199C50.4645 37.9246 50.771 36.9294 50.8072 35.967C50.8303 35.3606 50.7347 34.8333 50.5304 34.4016C50.2865 33.894 49.8811 33.5216 49.4132 33.3766C48.7606 33.1723 47.9598 33.4425 47.4621 34.0292C47.0963 34.4609 46.915 35.0278 46.9777 35.5452C47.0436 36.0956 47.3896 36.5899 47.8576 36.8107C48.3454 37.0381 48.9649 36.9392 49.3242 36.5767C49.6999 36.201 49.7592 35.565 49.456 35.1563C49.2253 34.8432 48.8002 34.7147 48.4904 34.863C48.3322 34.9388 48.2135 35.1036 48.1773 35.298C48.1476 35.4628 48.1872 35.6144 48.2827 35.7166C48.3355 35.7726 48.3355 35.8616 48.2794 35.9143C48.2234 35.967 48.1344 35.967 48.0817 35.911C47.9202 35.7429 47.8543 35.5023 47.9004 35.2486C47.9499 34.9684 48.1311 34.7246 48.3684 34.6092C48.7936 34.4049 49.3703 34.573 49.6801 34.9915C50.0624 35.5056 49.9899 36.3065 49.5219 36.7778C49.0803 37.2194 48.3322 37.3413 47.739 37.0678C47.182 36.8107 46.7733 36.2274 46.6975 35.5814C46.625 34.9816 46.8261 34.3488 47.2479 33.8512C47.8148 33.1789 48.7375 32.8757 49.4956 33.113C50.036 33.2811 50.504 33.7095 50.7809 34.2862C51.0083 34.7608 51.1104 35.331 51.0874 35.9835C51.0511 36.992 50.7314 38.0301 50.1415 39.065C49.7955 39.6714 49.2978 40.4755 48.7178 41.2071C49.189 40.9666 49.6208 40.8018 50.0492 40.6996C50.1085 40.6831 50.1712 40.7128 50.2041 40.7655C50.2338 40.8182 50.2272 40.8875 50.1843 40.9336C49.0836 42.097 48.2201 43.5108 47.6829 45.0202C47.4753 45.6036 47.2512 46.3714 47.36 47.1426C47.4654 47.8973 47.9202 48.5334 48.5167 48.7608C48.8793 48.8992 49.311 48.8696 49.6999 48.6817C50.0888 48.4939 50.3755 48.1709 50.4908 47.7985C50.6358 47.3338 50.5205 46.8131 50.2041 46.5033C49.8713 46.177 49.3176 46.121 48.9649 46.378C48.7903 46.5066 48.6716 46.7274 48.6519 46.968C48.6354 47.1855 48.7013 47.3898 48.8331 47.5249C48.8858 47.581 48.8858 47.6699 48.8331 47.7227C48.7771 47.7754 48.6881 47.7754 48.6354 47.7194C48.4442 47.5249 48.3487 47.2415 48.375 46.9416C48.4014 46.6219 48.5596 46.3253 48.8002 46.1473C49.2616 45.8079 49.9668 45.8738 50.3986 46.2989C50.7875 46.6812 50.9325 47.314 50.7578 47.8776C50.6194 48.3225 50.2799 48.7048 49.8218 48.9289C49.5516 49.0508 49.2714 49.1134 48.9946 49.1167Z" fill="#F1DFC1"/>
<path d="M47.3004 36.7118C47.2477 36.7118 47.1983 36.6821 47.1752 36.6327C47.0862 36.4416 47.0269 36.2405 47.0038 36.0362C46.9346 35.443 47.1389 34.797 47.5542 34.306C48.121 33.6369 49.0438 33.3304 49.8018 33.5677C50.1611 33.6798 50.484 33.9072 50.7609 34.2433C50.8103 34.3027 50.8004 34.3917 50.7411 34.4411C50.6818 34.4905 50.5928 34.4806 50.5434 34.4213C50.3028 34.128 50.0259 33.9336 49.7194 33.838C49.0669 33.6336 48.266 33.9039 47.7684 34.4905C47.4026 34.9223 47.2213 35.4891 47.2839 36.0065C47.3037 36.1812 47.3531 36.3526 47.4322 36.5174C47.4652 36.5866 47.4355 36.6723 47.3663 36.7052C47.3433 36.7085 47.3202 36.7118 47.3004 36.7118Z" fill="#F1DFC1"/>
<path d="M49.0134 48.5039C48.8057 48.5039 48.5981 48.4677 48.4103 48.3985C47.6226 48.0986 47.1579 47.1955 47.0557 46.4804C47.0458 46.4046 47.0986 46.3321 47.1744 46.3222C47.2502 46.309 47.3227 46.365 47.3326 46.4408C47.4215 47.0769 47.8302 47.8777 48.5091 48.1381C48.9211 48.2963 49.4319 48.2436 49.8472 47.9997C50.2163 47.7822 50.4536 47.4427 50.5129 47.0406C50.5228 46.9648 50.5953 46.9088 50.6711 46.922C50.7469 46.9319 50.7996 47.0044 50.7897 47.0802C50.7172 47.568 50.4338 47.9799 49.9889 48.2403C49.6923 48.4149 49.3495 48.5039 49.0134 48.5039Z" fill="#F1DFC1"/>
<path d="M50.9448 44.2624C50.8657 44.2624 50.803 44.1998 50.803 44.1207V32.3058C50.803 32.2267 50.8657 32.164 50.9448 32.164C51.0239 32.164 51.0865 32.2267 51.0865 32.3058V44.1207C51.0865 44.1998 51.0239 44.2624 50.9448 44.2624Z" fill="#F1DFC1"/>
<path d="M48.5528 34.8401C48.2002 34.8401 47.9135 35.1269 47.9135 35.4795C47.9135 35.8321 48.2002 36.1189 48.5528 36.1189C48.9054 36.1189 49.1922 35.8321 49.1922 35.4795C49.1922 35.1269 48.9087 34.8401 48.5528 34.8401Z" fill="#F1DFC1"/>
<path d="M50.4463 44.7632C50.7994 44.7632 51.0857 44.477 51.0857 44.1239C51.0857 43.7708 50.7994 43.4845 50.4463 43.4845C50.0932 43.4845 49.8069 43.7708 49.8069 44.1239C49.8069 44.477 50.0932 44.7632 50.4463 44.7632Z" fill="#F1DFC1"/>
<path d="M49.0723 47.8907C49.4254 47.8907 49.7117 47.6044 49.7117 47.2513C49.7117 46.8982 49.4254 46.612 49.0723 46.612C48.7192 46.612 48.433 46.8982 48.433 47.2513C48.433 47.6044 48.7192 47.8907 49.0723 47.8907Z" fill="#F1DFC1"/>
<path d="M6.96858 24.9068C6.78403 24.9068 6.60606 24.8804 6.43469 24.8277C5.8942 24.6596 5.42621 24.2312 5.14937 23.6544C4.92197 23.1798 4.81981 22.6097 4.84288 21.9571C4.87913 20.9487 5.19881 19.9105 5.78873 18.8757C6.13478 18.2693 6.63243 17.4652 7.21246 16.7335C6.74448 16.9741 6.30945 17.1389 5.88101 17.241C5.82169 17.2542 5.75907 17.2279 5.72612 17.1751C5.69645 17.1224 5.70304 17.0532 5.74589 17.0071C6.84664 15.8437 7.71011 14.4298 8.2473 12.9204C8.45493 12.3371 8.67904 11.5692 8.57028 10.798C8.46152 10.0433 8.01002 9.40724 7.4135 9.17984C7.05098 9.04142 6.61924 9.07108 6.23035 9.25894C5.84146 9.44679 5.55474 9.76976 5.43939 10.1422C5.29438 10.6069 5.41303 11.1276 5.72941 11.4374C6.06228 11.7636 6.61595 11.8197 6.96858 11.5626C7.14655 11.4341 7.2619 11.2133 7.28167 10.9727C7.29815 10.7552 7.23224 10.5508 7.10041 10.4157C7.04768 10.3597 7.04768 10.2707 7.10041 10.218C7.15643 10.1652 7.24542 10.1652 7.29815 10.2213C7.4893 10.4157 7.58487 10.6991 7.55851 10.9958C7.53214 11.3154 7.37395 11.612 7.13007 11.79C6.66868 12.1295 5.9634 12.0603 5.53167 11.6384C5.14278 11.2561 4.99777 10.6233 5.17245 10.0598C5.31086 9.61487 5.65032 9.23257 6.10841 9.00846C6.56651 8.78436 7.07734 8.7514 7.51237 8.91948C8.20116 9.18314 8.72517 9.90489 8.84711 10.7585C8.96576 11.589 8.72847 12.3997 8.51095 13.0127C8.0199 14.4002 7.2553 15.7086 6.28638 16.8258C6.74448 16.6643 7.22565 16.427 7.76613 16.0942C7.82546 16.0579 7.90455 16.0711 7.9474 16.1238C7.99354 16.1765 7.99024 16.2556 7.9408 16.3084C7.15314 17.1488 6.46764 18.2429 6.02932 19.0108C5.46246 20.0061 5.15597 21.0014 5.11971 21.9637C5.09664 22.5701 5.19222 23.0974 5.39655 23.5292C5.64043 24.0367 6.04579 24.4091 6.51378 24.5541C7.16632 24.7585 7.96717 24.4882 8.46481 23.9016C8.83063 23.4699 9.0119 22.903 8.94928 22.3856C8.88337 21.8352 8.53732 21.3409 8.06934 21.12C7.57828 20.8926 6.96199 20.9915 6.60276 21.354C6.22706 21.7297 6.17103 22.3658 6.47094 22.7745C6.70493 23.0876 7.12678 23.2161 7.43657 23.0678C7.59476 22.992 7.7134 22.8272 7.74966 22.6328C7.77932 22.468 7.73977 22.3164 7.6442 22.2142C7.59147 22.1582 7.59146 22.0692 7.64749 22.0165C7.70352 21.9637 7.7925 21.9637 7.84523 22.0198C8.00672 22.1878 8.07263 22.4284 8.0265 22.6822C7.97706 22.9623 7.79579 23.2062 7.55851 23.3216C7.13336 23.5259 6.55662 23.3578 6.24683 22.9393C5.86453 22.4251 5.93704 21.6243 6.40502 21.153C6.84664 20.7114 7.59476 20.5894 8.18798 20.863C8.74495 21.12 9.15361 21.7034 9.22941 22.3493C9.30192 22.9524 9.10088 23.5819 8.67904 24.0796C8.24401 24.6069 7.59146 24.9068 6.96858 24.9068Z" fill="#F1DFC1"/>
<path d="M6.66055 24.4488C6.47928 24.4488 6.29802 24.4225 6.12665 24.3698C5.76413 24.2577 5.44444 24.0303 5.16761 23.6941C5.11817 23.6348 5.12806 23.5458 5.18738 23.4964C5.2467 23.447 5.33569 23.4568 5.38512 23.5162C5.62571 23.8095 5.90254 24.0039 6.20904 24.0995C6.86158 24.3038 7.66243 24.0369 8.16008 23.447C8.5259 23.0152 8.70716 22.4484 8.64454 21.931C8.62477 21.7563 8.57533 21.5849 8.49624 21.4201C8.46328 21.3509 8.49294 21.2652 8.56544 21.2323C8.63465 21.1993 8.72034 21.229 8.7533 21.2982C8.84228 21.4893 8.9016 21.6904 8.92467 21.8947C8.99717 22.4945 8.79614 23.1273 8.37429 23.6249C7.93597 24.1489 7.28343 24.4488 6.66055 24.4488Z" fill="#F1DFC1"/>
<path d="M8.72824 11.6154C8.65903 11.6154 8.59971 11.5659 8.58982 11.4934C8.50084 10.8574 8.09218 10.0565 7.41327 9.79617C7.00131 9.64127 6.49048 9.69401 6.07522 9.93459C5.70611 10.1521 5.46882 10.4916 5.4095 10.8936C5.39961 10.9694 5.32711 11.0222 5.25131 11.0123C5.1755 11.0024 5.12277 10.9299 5.13266 10.8541C5.20517 10.3663 5.4886 9.95436 5.93351 9.69401C6.41797 9.41058 7.02108 9.34796 7.51213 9.53581C8.2998 9.83572 8.76449 10.7387 8.86665 11.4539C8.87654 11.5297 8.82381 11.6022 8.74801 11.6121C8.74142 11.6154 8.73483 11.6154 8.72824 11.6154Z" fill="#F1DFC1"/>
<path d="M4.9793 25.7636C4.90021 25.7636 4.83759 25.7009 4.83759 25.6218V13.8102C4.83759 13.7311 4.90021 13.6685 4.9793 13.6685C5.0584 13.6685 5.12101 13.7311 5.12101 13.8102V25.6218C5.11772 25.7009 5.0551 25.7636 4.9793 25.7636Z" fill="#F1DFC1"/>
<path d="M7.37255 23.0943C7.72565 23.0943 8.01191 22.808 8.01191 22.4549C8.01191 22.1018 7.72565 21.8156 7.37255 21.8156C7.01944 21.8156 6.73318 22.1018 6.73318 22.4549C6.73318 22.808 7.01944 23.0943 7.37255 23.0943Z" fill="#F1DFC1"/>
<path d="M5.47905 14.4497C5.83216 14.4497 6.11841 14.1635 6.11841 13.8104C6.11841 13.4573 5.83216 13.171 5.47905 13.171C5.12594 13.171 4.83969 13.4573 4.83969 13.8104C4.83969 14.1635 5.12594 14.4497 5.47905 14.4497Z" fill="#F1DFC1"/>
<path d="M6.85301 11.3219C7.20612 11.3219 7.49237 11.0357 7.49237 10.6826C7.49237 10.3295 7.20612 10.0432 6.85301 10.0432C6.49991 10.0432 6.21365 10.3295 6.21365 10.6826C6.21365 11.0357 6.49991 11.3219 6.85301 11.3219Z" fill="#F1DFC1"/>
<path d="M6.93008 49.1169C6.65324 49.1169 6.36981 49.051 6.10616 48.9225C5.64806 48.6983 5.3086 48.316 5.17019 47.8711C4.99552 47.3076 5.14053 46.6748 5.52942 46.2925C5.96445 45.8674 6.66642 45.8015 7.12781 46.1409C7.3684 46.3189 7.52989 46.6155 7.55625 46.9352C7.57932 47.2351 7.48375 47.5185 7.2959 47.7129C7.24317 47.769 7.15418 47.769 7.09815 47.7162C7.04213 47.6635 7.04213 47.5745 7.09815 47.5185C7.22998 47.3834 7.29919 47.179 7.27942 46.9615C7.25964 46.7209 7.1443 46.5001 6.96633 46.3716C6.61699 46.1145 6.06002 46.1739 5.72716 46.4968C5.41077 46.8066 5.29543 47.3273 5.43714 47.792C5.55249 48.1644 5.83921 48.4841 6.2281 48.6753C6.61699 48.8631 7.04872 48.8928 7.41124 48.7544C8.00776 48.527 8.45927 47.8942 8.56802 47.1362C8.67678 46.365 8.45267 45.5971 8.24505 45.0138C7.70785 43.5044 6.84439 42.0905 5.74363 40.9272C5.70079 40.881 5.6942 40.8151 5.72386 40.7591C5.75352 40.7063 5.81944 40.6767 5.87876 40.6932C6.3072 40.7953 6.73893 40.9601 7.21021 41.2007C6.63017 40.4691 6.13253 39.6649 5.78648 39.0585C5.19656 38.0237 4.87687 36.9855 4.84062 35.9771C4.81755 35.3245 4.91972 34.7511 5.14712 34.2798C5.42396 33.7031 5.89194 33.2746 6.43243 33.1065C7.18714 32.8692 8.11322 33.1757 8.68008 33.8448C9.10192 34.3424 9.29966 34.9752 9.23045 35.575C9.15465 36.2209 8.74599 36.8043 8.18902 37.0613C7.5958 37.3349 6.84768 37.2129 6.40606 36.7713C5.93808 36.3 5.86557 35.4992 6.24787 34.9851C6.55766 34.5698 7.13441 34.4017 7.55955 34.6028C7.79683 34.7148 7.9748 34.962 8.02754 35.2421C8.07367 35.4959 8.00776 35.7365 7.84627 35.9046C7.79354 35.9606 7.70456 35.9606 7.64853 35.9079C7.5925 35.8551 7.59251 35.7661 7.64524 35.7101C7.74411 35.6079 7.78036 35.4564 7.7507 35.2916C7.71444 35.0971 7.5958 34.9323 7.43761 34.8565C7.12782 34.7082 6.70268 34.8401 6.47198 35.1531C6.16878 35.5585 6.2281 36.1979 6.6038 36.5736C6.96303 36.9361 7.57932 37.035 8.07038 36.8076C8.54166 36.5901 8.8877 36.0924 8.95032 35.542C9.00964 35.0246 8.82838 34.4578 8.46586 34.026C7.9715 33.4394 7.16736 33.1724 6.51482 33.3735C6.05013 33.5185 5.64147 33.8909 5.39759 34.3984C5.18996 34.8302 5.09768 35.3575 5.12075 35.9639C5.15701 36.9262 5.4635 37.9215 6.03036 38.9168C6.46868 39.6847 7.15418 40.7789 7.94185 41.6192C7.99128 41.672 7.99128 41.7511 7.94844 41.8038C7.90559 41.8565 7.8265 41.8697 7.76718 41.8335C7.22669 41.5006 6.74552 41.2633 6.28742 41.1018C7.25305 42.2191 8.01764 43.5274 8.51199 44.9149C8.72951 45.5279 8.9668 46.3386 8.84815 47.1692C8.72621 48.026 8.2022 48.7478 7.51341 49.0081C7.32885 49.0806 7.13111 49.1169 6.93008 49.1169Z" fill="#F1DFC1"/>
<path d="M8.62461 36.7118C8.60484 36.7118 8.58506 36.7085 8.56529 36.6986C8.49608 36.6656 8.46642 36.5832 8.49608 36.5107C8.57188 36.346 8.62132 36.1746 8.64439 35.9999C8.707 35.4825 8.52245 34.9156 8.15992 34.4839C7.66557 33.8973 6.86143 33.6303 6.20889 33.8314C5.90239 33.9269 5.62226 34.1247 5.38497 34.4147C5.33554 34.474 5.24655 34.4839 5.18723 34.4345C5.12791 34.385 5.11802 34.296 5.16746 34.2367C5.441 33.9006 5.76397 33.6732 6.1265 33.5611C6.8845 33.3238 7.80728 33.6303 8.37414 34.2993C8.78939 34.7904 8.99372 35.4363 8.92452 36.0296C8.90145 36.2339 8.84213 36.4349 8.75314 36.6261C8.72678 36.6821 8.67734 36.7118 8.62461 36.7118Z" fill="#F1DFC1"/>
<path d="M6.90887 48.504C6.57272 48.504 6.22997 48.415 5.93336 48.2403C5.48844 47.9799 5.20172 47.568 5.13251 47.0802C5.12262 47.0044 5.17535 46.9319 5.25115 46.922C5.32695 46.9088 5.39946 46.9649 5.40935 47.0407C5.46867 47.4427 5.70595 47.7822 6.07507 47.9997C6.48703 48.2403 7.00116 48.293 7.41312 48.1381C8.09202 47.8778 8.50068 47.0769 8.58967 46.4409C8.59955 46.3651 8.67535 46.3123 8.74786 46.3222C8.82366 46.3321 8.87639 46.4046 8.8665 46.4804C8.76434 47.1956 8.29965 48.0986 7.51198 48.3985C7.32413 48.471 7.1165 48.504 6.90887 48.504Z" fill="#F1DFC1"/>
<path d="M4.9793 44.2623C4.90021 44.2623 4.83759 44.1996 4.83759 44.1205V32.3056C4.83759 32.2265 4.90021 32.1639 4.9793 32.1639C5.0584 32.1639 5.12101 32.2265 5.12101 32.3056V44.1205C5.11772 44.1996 5.0551 44.2623 4.9793 44.2623Z" fill="#F1DFC1"/>
<path d="M7.37239 36.1188C7.7255 36.1188 8.01175 35.8325 8.01175 35.4794C8.01175 35.1263 7.7255 34.8401 7.37239 34.8401C7.01928 34.8401 6.73303 35.1263 6.73303 35.4794C6.73303 35.8325 7.01928 36.1188 7.37239 36.1188Z" fill="#F1DFC1"/>
<path d="M5.4789 44.7633C5.83201 44.7633 6.11826 44.477 6.11826 44.1239C6.11826 43.7708 5.83201 43.4846 5.4789 43.4846C5.12579 43.4846 4.83954 43.7708 4.83954 44.1239C4.83954 44.477 5.12579 44.7633 5.4789 44.7633Z" fill="#F1DFC1"/>
<path d="M6.85286 47.8906C7.20597 47.8906 7.49222 47.6043 7.49222 47.2512C7.49222 46.8981 7.20597 46.6119 6.85286 46.6119C6.49975 46.6119 6.2135 46.8981 6.2135 47.2512C6.2135 47.6043 6.49975 47.8906 6.85286 47.8906Z" fill="#F1DFC1"/>
<path d="M51.6226 52.7682H4.30007C4.22097 52.7682 4.15836 52.7055 4.15836 52.6264V5.30395C4.15836 5.22485 4.22097 5.16223 4.30007 5.16223H51.6226C51.7017 5.16223 51.7643 5.22485 51.7643 5.30395V52.6264C51.7643 52.7055 51.7017 52.7682 51.6226 52.7682ZM4.43848 52.488H51.4809V5.44566H4.43848V52.488Z" fill="#F1DFC1"/>
<path d="M26.0124 22.0526H25.9959C25.9333 22.0526 25.8773 22.0229 25.8377 21.9768C25.8806 22.0197 25.9432 22.0493 26.0124 22.0526Z" fill="#E9A39B"/>
<path d="M26.0226 20.6585C25.9468 20.6585 25.8776 20.6882 25.8314 20.7376C25.8743 20.6882 25.9303 20.6585 25.9962 20.6585H26.0226Z" fill="#E9A39B"/>
<path d="M29.67 20.6585C29.6766 20.6585 29.6832 20.6585 29.6898 20.6618C29.6766 20.6585 29.6601 20.6585 29.6469 20.6585H29.67Z" fill="#E9A39B"/>
<path d="M29.7999 20.7048C29.7702 20.685 29.7306 20.6685 29.6911 20.6619C29.7306 20.6652 29.7669 20.6784 29.7999 20.7048Z" fill="#E9A39B"/>
<path d="M29.6574 22.0527C29.6673 22.0527 29.6772 22.0494 29.6871 22.0494C29.6805 22.0527 29.6772 22.0527 29.6706 22.0527H29.6574Z" fill="#E9A39B"/>
<path d="M29.7999 22.0065C29.7702 22.0362 29.7306 22.0494 29.6911 22.0494C29.7274 22.0428 29.7636 22.0296 29.7999 22.0065Z" fill="#E9A39B"/>
<path d="M26.0124 22.0526H25.9959C25.9333 22.0526 25.8773 22.0229 25.8377 21.9768C25.8806 22.0197 25.9432 22.0493 26.0124 22.0526Z" fill="#E9A39B"/>
<path d="M26.0226 20.6585C25.9468 20.6585 25.8776 20.6882 25.8314 20.7376C25.8743 20.6882 25.9303 20.6585 25.9962 20.6585H26.0226Z" fill="#E9A39B"/>
<path d="M29.67 20.6585C29.6766 20.6585 29.6832 20.6585 29.6898 20.6618C29.6766 20.6585 29.6601 20.6585 29.6469 20.6585H29.67Z" fill="#E9A39B"/>
<path d="M29.7999 20.7048C29.7702 20.685 29.7306 20.6685 29.6911 20.6619C29.7306 20.6652 29.7669 20.6784 29.7999 20.7048Z" fill="#E9A39B"/>
<path d="M29.6574 22.0527C29.6673 22.0527 29.6772 22.0494 29.6871 22.0494C29.6805 22.0527 29.6772 22.0527 29.6706 22.0527H29.6574Z" fill="#E9A39B"/>
<path d="M29.7999 22.0065C29.7702 22.0362 29.7306 22.0494 29.6911 22.0494C29.7274 22.0428 29.7636 22.0296 29.7999 22.0065Z" fill="#E9A39B"/>
<path d="M28.0949 22.0528L27.8346 23.3579L27.8082 23.4963L27.7884 23.5886L27.7093 24.0005L27.6599 24.2444L27.5577 24.7585L27.1919 26.5843L26.9579 27.7741H26.7569L27.3633 24.7289L27.5874 23.5886L27.6105 23.4963L27.6401 23.3381L27.7093 22.9954L27.7258 22.9031L27.8148 22.4549L27.8939 22.0528H28.0949Z" fill="#E9A39B"/>
<path fill-rule="evenodd" clip-rule="evenodd" d="M27.7775 21.9113H28.2673L27.9733 23.3849L27.9464 23.5259L27.9269 23.6167L27.8479 24.0286L27.7985 24.2719L27.7984 24.2725L27.6964 24.7861L27.3306 26.6116L27.3305 26.6121L27.0741 27.9155H26.5844L27.2244 24.7016L27.2245 24.7012L27.4492 23.5577L27.4722 23.4661L27.5014 23.3101L27.5703 22.9689L27.587 22.8755L27.7775 21.9113Z" fill="#E9A39B"/>
<path d="M29.4204 14.3936L28.1746 20.6587H28.3756L29.6016 14.4892C29.539 14.4563 29.4797 14.4233 29.4204 14.3936Z" fill="#E9A39B"/>
<path fill-rule="evenodd" clip-rule="evenodd" d="M29.3586 14.2666C29.3982 14.2472 29.4446 14.2474 29.4841 14.2671C29.5244 14.2873 29.5663 14.3098 29.6071 14.3316C29.6278 14.3427 29.6482 14.3537 29.668 14.364C29.7234 14.3932 29.753 14.4553 29.7408 14.5168L28.5148 20.6862C28.5017 20.7524 28.4436 20.8001 28.3761 20.8001H28.1751C28.1327 20.8001 28.0926 20.7811 28.0658 20.7484C28.0389 20.7157 28.0281 20.6726 28.0364 20.6311L29.2821 14.366C29.2907 14.3228 29.319 14.286 29.3586 14.2666Z" fill="#E9A39B"/>
<path d="M27.6244 13.7706C27.5585 13.7607 27.4926 13.7508 27.43 13.7442L27.5849 20.6552H27.7793L27.7694 20.2861L27.6244 13.7706Z" fill="#E9A39B"/>
<path fill-rule="evenodd" clip-rule="evenodd" d="M27.3347 13.6402C27.3646 13.6126 27.4049 13.5993 27.4453 13.6036C27.511 13.6105 27.5795 13.6207 27.6442 13.6305L27.6459 13.6307C27.7139 13.6409 27.7648 13.6986 27.7663 13.7674L27.9113 20.2823L27.9113 20.283L27.9212 20.6514C27.9222 20.6896 27.9078 20.7265 27.8811 20.7539C27.8545 20.7812 27.818 20.7966 27.7798 20.7966H27.5854C27.5085 20.7966 27.4457 20.7352 27.444 20.6584L27.2891 13.7474C27.2882 13.7067 27.3048 13.6677 27.3347 13.6402Z" fill="#E9A39B"/>
<path d="M27.9338 27.7739H27.7394L27.6603 24.2442L27.6504 23.7532V23.6971L27.6471 23.5884L27.6405 23.3379L27.6241 22.5634L27.6109 22.0526H27.8053L27.8086 22.0262V22.0526L27.8152 22.4547L27.835 23.3577L27.8416 23.5884V23.6708L27.8679 24.8012L27.9338 27.7739Z" fill="#E9A39B"/>
<path fill-rule="evenodd" clip-rule="evenodd" d="M27.4658 21.9113H27.8053V22.0174L27.95 22.0264V22.0516L27.9566 22.4525L27.9763 23.3543L27.983 23.5885L27.983 23.6693L28.0093 24.7981L28.0784 27.9155H27.6011L27.5189 24.2475L27.509 23.7533L27.509 23.6994L27.5058 23.5928L27.5058 23.5923L27.4991 23.3411L27.4827 22.5669L27.4658 21.9113Z" fill="#E9A39B"/>
<path d="M27.8056 22.0526L27.7265 22.9029L27.7133 23.0282L27.6639 23.5884L27.6507 23.717V23.7532L27.5584 24.7584L27.2849 27.7739H27.0871L27.1926 26.5842L27.364 24.7287L27.4694 23.5884L27.5156 23.038L27.5815 22.3493L27.6078 22.0526L27.6111 22.0131V22.0526H27.8056Z" fill="#E9A39B"/>
<path fill-rule="evenodd" clip-rule="evenodd" d="M27.4658 22.0406L27.4691 22.0015L27.61 22.0073V21.9113H27.9596L27.866 22.9178L27.8529 23.0419L27.8034 23.603L27.791 23.7243V23.7598L27.4129 27.9155H26.9315L27.0506 26.5713L27.3274 23.5761L27.3736 23.0247L27.4395 22.3364L27.4658 22.0406Z" fill="#E9A39B"/>
<path d="M28.3426 13.9519L27.7658 20.2895L27.7329 20.6586H27.9306L28.5337 14.0211C28.4711 13.9981 28.4085 13.9717 28.3426 13.9519Z" fill="#E9A39B"/>
<path fill-rule="evenodd" clip-rule="evenodd" d="M28.2639 13.8347C28.2991 13.811 28.343 13.8043 28.3837 13.8165C28.4356 13.832 28.4886 13.8524 28.5347 13.8701C28.552 13.8767 28.5682 13.8829 28.5831 13.8884C28.6431 13.9105 28.6808 13.9702 28.675 14.0339L28.0719 20.6714C28.0653 20.7442 28.0043 20.8 27.9311 20.8H27.7334C27.6937 20.8 27.6558 20.7833 27.629 20.754C27.6022 20.7247 27.589 20.6855 27.5925 20.646L28.2022 13.9391C28.2061 13.8968 28.2287 13.8585 28.2639 13.8347Z" fill="#E9A39B"/>
<path d="M25.6863 13.8365L27.0441 20.6585H27.2452L25.8808 13.8068C25.8148 13.8167 25.7522 13.8233 25.6863 13.8365Z" fill="#E9A39B"/>
<path fill-rule="evenodd" clip-rule="evenodd" d="M25.8603 13.6672C25.9349 13.656 26.0052 13.7054 26.02 13.7794L27.3844 20.6311C27.3926 20.6727 27.3819 20.7157 27.355 20.7484C27.3281 20.7812 27.288 20.8002 27.2457 20.8002H27.0446C26.9772 20.8002 26.9191 20.7525 26.9059 20.6864L25.5481 13.8643C25.5329 13.7878 25.5826 13.7133 25.6591 13.698C25.7085 13.6882 25.7596 13.6812 25.8056 13.6749C25.8249 13.6723 25.8433 13.6698 25.8603 13.6672Z" fill="#E9A39B"/>
<path d="M28.6587 27.7741H28.4576L27.8677 24.8014L27.7095 24.0005L27.6502 23.7171V23.6973L27.6271 23.5886L27.6106 23.4963L27.5151 23.0382L27.3206 22.0528H27.5217L27.581 22.3494L27.6238 22.5636L27.7095 22.9954L27.7128 23.0283L27.8084 23.4963L27.8281 23.5886L27.8413 23.671L28.6587 27.7741Z" fill="#E9A39B"/>
<path fill-rule="evenodd" clip-rule="evenodd" d="M27.1481 21.9113H27.6372L27.7192 22.3216L27.7621 22.5359L27.8491 22.9745L27.8524 23.007L27.9464 23.4673L27.9668 23.5625L27.9801 23.6459L28.8306 27.9155H28.3411L27.5705 24.0287L27.5083 23.7317V23.7121L27.4874 23.6134L27.4713 23.5231L27.3759 23.0655L27.1481 21.9113Z" fill="#E9A39B"/>
<path d="M31.8658 24.1981C31.5099 23.7828 30.7618 23.4598 30.2213 23.272C29.8489 23.1434 29.5885 22.7183 29.5885 22.2371V22.0526H29.6577C29.6676 22.0526 29.6775 22.0493 29.6874 22.0493C29.7269 22.0427 29.7632 22.0295 29.7961 22.0064C29.7994 22.0031 29.8027 21.9998 29.806 21.9998C29.8159 21.99 29.8225 21.9867 29.8291 21.9801C29.839 21.9702 29.8423 21.9669 29.8456 21.9603C29.8555 21.9504 29.8686 21.9306 29.8752 21.9175C29.9049 21.868 29.9181 21.8087 29.9181 21.7461V20.9617C29.9181 20.8958 29.9049 20.8398 29.8752 20.7903C29.8653 20.7706 29.8522 20.7541 29.8357 20.7376C29.8258 20.7277 29.8093 20.7145 29.7961 20.7046C29.7665 20.6849 29.7269 20.6684 29.6874 20.6618C29.6742 20.6585 29.6577 20.6585 29.6445 20.6585H26.0193C25.9435 20.6585 25.8743 20.6882 25.8282 20.7376C25.8117 20.7541 25.7985 20.7706 25.7886 20.7903C25.7589 20.8398 25.7458 20.8991 25.7458 20.9617V21.7461C25.7458 21.8087 25.7589 21.868 25.7886 21.9175C25.7985 21.9306 25.8084 21.9471 25.8183 21.9603C25.8216 21.9669 25.8282 21.9702 25.8314 21.9735C25.8776 22.0196 25.9402 22.046 26.0061 22.0493H26.0753V22.2371C26.0753 22.7183 25.8183 23.1401 25.4459 23.272C24.8955 23.4697 24.1177 23.8026 23.7585 24.2409C23.1356 24.989 22.75 26.0403 22.75 27.2037V35.0243C22.75 35.7922 23.2542 36.4118 23.8738 36.4118H31.79C32.4096 36.4118 32.9138 35.7889 32.9138 35.0243V27.2037C32.9171 26.0206 32.5118 24.9528 31.8658 24.1981ZM31.9317 27.7739H23.2608V27.2696C23.2608 25.2362 24.9054 23.5884 26.9421 23.5884H27.4694L27.5188 23.0413L27.3244 22.0526H27.6111L27.6144 22.013L27.6177 22.0526H27.8088L27.8121 22.0262V22.0526H28.1022L27.8418 23.3577L27.8484 23.5884H28.7349C28.791 23.5884 28.8437 23.5917 28.8997 23.595C30.5904 23.6938 31.9383 25.2988 31.9383 27.2729V27.7739H31.9317Z" fill="#E9A39B"/>
<path d="M25.7922 20.7905C25.7626 20.8399 25.7494 20.8993 25.7494 20.9619V20.9322C25.7494 20.8795 25.7626 20.83 25.7922 20.7905Z" fill="#E9A39B"/>
<path d="M25.7922 21.9208C25.7626 21.8812 25.7494 21.8318 25.7494 21.7791V21.7494C25.7494 21.8087 25.7626 21.868 25.7922 21.9208Z" fill="#E9A39B"/>
<path d="M27.61 22.0526H27.6067L27.61 22.0131V22.0526Z" fill="#E9A39B"/>
<path d="M27.8077 22.0262V22.0526H27.8044L27.8077 22.0262Z" fill="#E9A39B"/>
<path d="M29.9211 21.7462V21.7759C29.9211 21.8286 29.908 21.878 29.8783 21.9176C29.9047 21.8682 29.9211 21.8088 29.9211 21.7462Z" fill="#E9A39B"/>
<path d="M29.9211 20.9322V20.9619C29.9211 20.896 29.908 20.8399 29.8783 20.7905C29.9047 20.83 29.9211 20.8795 29.9211 20.9322Z" fill="#E9A39B"/>
<path d="M32.8025 42.4838C32.7431 42.4838 32.7194 42.4443 32.755 42.385C33.016 41.942 33.5381 40.9968 33.5381 40.807C33.5381 40.7437 33.5104 40.7081 33.4392 40.7081C33.364 40.7081 33.2256 40.7912 33.0635 40.9415L33.0279 40.9019C33.3561 40.5974 33.5855 40.4748 33.7318 40.4748C33.89 40.4748 33.9454 40.5855 33.9454 40.6805C33.9454 40.7793 33.8821 40.9573 33.7951 41.1629C34.0759 40.7635 34.3883 40.4748 34.772 40.4748C34.859 40.4748 35.0448 40.4946 35.0448 40.5697C35.0448 40.6646 34.9064 40.8584 34.7482 40.8584C34.6138 40.8584 34.4714 40.8307 34.2262 40.7596C34.0403 40.898 33.807 41.2025 33.5934 41.5861C33.4115 41.946 33.2098 42.298 33.1228 42.4285C33.0991 42.468 33.0714 42.4838 33.0279 42.4838H32.8025Z" fill="#A98B83"/>
<path d="M31.6225 42.5115C31.2666 42.5155 31.144 42.2347 31.144 42.0449C31.144 41.3528 32.0456 40.4748 32.6942 40.4788C32.8999 40.4788 32.9988 40.5816 32.9988 40.724C32.9988 40.9969 32.7101 41.2341 31.5592 41.9579C31.5948 42.1437 31.7332 42.2505 31.931 42.2505C32.0891 42.2505 32.2473 42.2031 32.4807 42.0014L32.5163 42.037C32.1841 42.3296 31.8281 42.5115 31.6225 42.5115ZM31.5513 41.8827V41.8985C32.4016 41.3646 32.5993 41.1234 32.5993 40.8663C32.5993 40.7437 32.5202 40.6449 32.366 40.6449C31.9468 40.6449 31.5315 41.3607 31.5513 41.8827Z" fill="#A98B83"/>
<path d="M29.9076 42.5115C29.5437 42.5115 29.4844 42.3415 29.4963 42.2189C29.5081 42.0725 29.6545 41.9262 29.9155 41.8036L29.9432 41.8273C29.8918 41.8985 29.8443 41.9855 29.8443 42.0923C29.8443 42.2426 29.9273 42.381 30.1567 42.385C30.3545 42.3889 30.5127 42.2386 30.5127 42.0172C30.5127 41.7166 30.1844 41.4042 30.1844 41.1234C30.1844 40.7714 30.6392 40.4788 31.1059 40.4788C31.2443 40.4788 31.4737 40.5144 31.4737 40.5895C31.4737 40.6963 31.3748 40.8663 31.1929 40.8663C31.0624 40.8663 30.8567 40.7556 30.6313 40.637C30.5443 40.6844 30.5166 40.7714 30.5166 40.8545C30.5166 41.1748 30.8686 41.4951 30.8488 41.8313C30.829 42.1912 30.2951 42.5115 29.9076 42.5115Z" fill="#A98B83"/>
<path d="M28.7656 42.5155C28.5757 42.5155 28.5243 42.3652 28.5243 42.2663C28.5243 42.0132 28.6627 41.6929 28.8407 41.3646C28.6825 41.5703 28.5243 41.7601 28.3701 41.9262C28.0458 42.2822 27.7531 42.5155 27.5396 42.5155C27.413 42.5155 27.2548 42.4127 27.2548 42.2505C27.2509 41.9144 27.9707 41.0799 27.9707 40.7951C27.9707 40.7477 27.9548 40.7081 27.8837 40.7081C27.8085 40.7081 27.6701 40.7912 27.5079 40.9415L27.4724 40.9019C27.8006 40.5974 28.03 40.4748 28.1763 40.4748C28.3345 40.4748 28.3899 40.5855 28.3899 40.6805C28.3899 41.0601 27.7057 41.8471 27.7057 42.1398C27.7057 42.2031 27.7452 42.2584 27.8283 42.2584C27.943 42.2584 28.1091 42.1279 28.3266 41.8946C28.556 41.6533 28.8328 41.2974 29.1017 40.9177C29.165 40.807 29.2322 40.7002 29.2916 40.5974C29.3113 40.5618 29.339 40.542 29.3825 40.542L29.6356 40.546C29.6989 40.546 29.7187 40.5855 29.6831 40.6409C29.513 40.9177 29.3272 41.2144 29.1848 41.4872C29.0543 41.7522 28.9475 41.9776 28.9475 42.1477C28.9475 42.2189 28.9831 42.2624 29.0503 42.2624C29.1373 42.2624 29.2639 42.1754 29.3983 42.0488L29.4339 42.0884C29.1057 42.3929 28.8882 42.5155 28.7656 42.5155Z" fill="#A98B83"/>
<path d="M24.7643 43.3063C24.705 43.3063 24.6298 43.3024 24.6298 43.2312C24.6298 43.1165 24.8078 42.9306 24.966 42.9306C25.1044 42.9306 25.2191 42.9622 25.4287 42.982C25.579 42.9069 25.7451 42.7803 26.0891 41.9973L26.7061 40.6012H26.3897L26.4174 40.5459H26.7298C27.1055 39.7668 28.0507 39.2922 28.6677 39.2922C28.8575 39.2922 28.992 39.3159 28.992 39.3792C28.992 39.4899 28.8259 39.6877 28.5807 39.6877C28.4185 39.6877 28.2366 39.6323 27.9044 39.5334C27.7343 39.5967 27.4496 39.8103 27.2321 40.3046L27.1253 40.5459H27.5524L27.5247 40.6012H27.1016L26.6191 41.6888C26.2869 42.4402 25.3615 43.3063 24.7643 43.3063Z" fill="#A98B83"/>
<path d="M23.4497 43.3063C23.3904 43.3063 23.3152 43.3024 23.3152 43.2312C23.3152 43.1165 23.4932 42.9306 23.6514 42.9306C23.7898 42.9306 23.9045 42.9622 24.1141 42.982C24.2644 42.9069 24.4305 42.7803 24.7745 41.9973L25.3915 40.6012H25.0751L25.1028 40.5459H25.4152C25.7909 39.7668 26.7361 39.2922 27.3531 39.2922C27.5429 39.2922 27.6774 39.3159 27.6774 39.3792C27.6774 39.4899 27.5113 39.6877 27.2661 39.6877C27.1039 39.6877 26.922 39.6323 26.5898 39.5334C26.4197 39.5967 26.135 39.8103 25.9175 40.3046L25.8107 40.5459H26.2378L26.2101 40.6012H25.787L25.3045 41.6888C24.9723 42.4402 24.0469 43.3063 23.4497 43.3063Z" fill="#A98B83"/>
<path d="M23.6768 42.5154C23.5107 42.5154 23.4435 42.3691 23.4435 42.2505C23.4435 41.855 24.1633 41.0087 24.1633 40.7951C24.1633 40.7476 24.1475 40.7081 24.0763 40.7081C24.0011 40.7081 23.8627 40.7911 23.7006 40.9414L23.665 40.9019C23.9932 40.5974 24.2226 40.4748 24.3689 40.4748C24.5271 40.4748 24.5825 40.5855 24.5825 40.6804C24.5825 41.0443 23.9062 41.8273 23.9062 42.0725C23.9062 42.1595 23.9537 42.203 24.0367 42.203C24.1079 42.203 24.1949 42.1753 24.3294 42.0488L24.365 42.0883C24.0367 42.3928 23.8232 42.5154 23.6768 42.5154ZM24.5192 40.2058L25.1915 39.5612C25.2469 39.5098 25.3023 39.4544 25.3379 39.4544C25.3655 39.4544 25.3735 39.4821 25.3735 39.5177C25.3735 39.6047 25.3537 39.6284 25.2548 39.7036L24.5429 40.2375L24.5192 40.2058Z" fill="#A98B83"/>
<path d="M21.0072 42.5114C20.7304 42.5114 20.2676 42.4916 20.0501 42.464C20.0106 42.46 20.0066 42.4521 20.0066 42.4363C20.0066 42.4125 20.1174 42.3097 20.2044 42.2385L20.2835 42.1753C20.4179 42.0685 20.4693 41.9419 20.5405 41.8233C20.8885 41.2142 21.0626 40.7436 21.4145 40.1346C21.5174 39.9527 21.6162 39.8103 21.8417 39.7035L22.1383 39.5651C22.0078 39.5295 21.8693 39.5137 21.7309 39.5137C21.375 39.5137 21.0507 39.6086 20.7778 39.7984L20.7422 39.751C21.1337 39.4781 21.545 39.2883 22.1027 39.2883C22.862 39.2883 23.4592 39.8894 23.4592 40.4984C23.4592 41.7007 22.1422 42.5114 21.0072 42.5114ZM20.4535 42.1555C20.6354 42.1753 21.1377 42.2069 21.632 42.2069C22.601 42.2109 23.0874 41.6137 23.0874 40.7911C23.0874 40.1623 22.7078 39.7431 22.2055 39.5849C22.0552 39.6956 21.9603 39.8696 21.8733 40.0159C21.5253 40.6131 21.371 41.0679 21.0309 41.6651C20.9281 41.847 20.8253 41.9577 20.6394 42.0566L20.4535 42.1555Z" fill="#A98B83"/>
</svg>
