<svg width="56" height="57" viewBox="0 0 56 57" fill="none" xmlns="http://www.w3.org/2000/svg">
<path d="M0 47.7295C0.0659134 47.7163 0.135121 47.7098 0.20433 47.7098C0.74482 47.7098 1.18644 48.0986 1.18644 48.5765C1.18644 49.0544 0.748115 49.4433 0.20433 49.4433C0.135121 49.4433 0.0659134 49.4367 0 49.4235V50.7451C0.0659134 50.7319 0.135121 50.7253 0.20433 50.7253C0.74482 50.7253 1.18644 51.1142 1.18644 51.5921C1.18644 52.0699 0.748115 52.4588 0.20433 52.4588C0.135121 52.4588 0.0659134 52.4522 0 52.439V53.7606C0.0659134 53.7474 0.135121 53.7408 0.20433 53.7408C0.74482 53.7408 1.18644 54.1297 1.18644 54.6076C1.18644 55.0855 0.748115 55.4744 0.20433 55.4744C0.135121 55.4744 0.0659134 55.4678 0 55.4546V56.9607H2.62994C2.59699 56.875 2.57721 56.786 2.57721 56.6905C2.57721 56.2126 3.01553 55.8237 3.55932 55.8237C4.1031 55.8237 4.54143 56.2126 4.54143 56.6905C4.54143 56.786 4.51836 56.875 4.4887 56.9607H6.1596C6.12664 56.875 6.10687 56.786 6.10687 56.6905C6.10687 56.2126 6.5452 55.8237 7.08898 55.8237C7.63277 55.8237 8.07109 56.2126 8.07109 56.6905C8.07109 56.786 8.04802 56.875 8.01836 56.9607H9.68926C9.65631 56.875 9.63653 56.786 9.63653 56.6905C9.63653 56.2126 10.0749 55.8237 10.6186 55.8237C11.1591 55.8237 11.6008 56.2126 11.6008 56.6905C11.6008 56.786 11.5777 56.875 11.548 56.9607H13.2189C13.186 56.875 13.1662 56.786 13.1662 56.6905C13.1662 56.2126 13.6045 55.8237 14.1483 55.8237C14.6888 55.8237 15.1304 56.2126 15.1304 56.6905C15.1304 56.786 15.1073 56.875 15.0777 56.9607H16.7486C16.7156 56.875 16.6959 56.786 16.6959 56.6905C16.6959 56.2126 17.1342 55.8237 17.678 55.8237C18.2185 55.8237 18.6601 56.2126 18.6601 56.6905C18.6601 56.786 18.637 56.875 18.6073 56.9607H20.2782C20.2453 56.875 20.2255 56.786 20.2255 56.6905C20.2255 56.2126 20.6638 55.8237 21.2076 55.8237C21.7481 55.8237 22.1897 56.2126 22.1897 56.6905C22.1897 56.786 22.1667 56.875 22.137 56.9607H23.8079C23.775 56.875 23.7552 56.786 23.7552 56.6905C23.7552 56.2126 24.1935 55.8237 24.7373 55.8237C25.2778 55.8237 25.7194 56.2126 25.7194 56.6905C25.7194 56.786 25.6963 56.875 25.6667 56.9607H27.3376C27.3046 56.875 27.2848 56.786 27.2848 56.6905C27.2848 56.2126 27.7232 55.8237 28.2669 55.8237C28.8107 55.8237 29.2491 56.2126 29.2491 56.6905C29.2491 56.786 29.226 56.875 29.1963 56.9607H30.8672C30.8343 56.875 30.8145 56.786 30.8145 56.6905C30.8145 56.2126 31.2528 55.8237 31.7966 55.8237C32.3371 55.8237 32.7787 56.2126 32.7787 56.6905C32.7787 56.786 32.7556 56.875 32.726 56.9607H34.3969C34.3639 56.875 34.3442 56.786 34.3442 56.6905C34.3442 56.2126 34.7825 55.8237 35.3263 55.8237C35.8668 55.8237 36.3084 56.2126 36.3084 56.6905C36.3084 56.786 36.2853 56.875 36.2556 56.9607H37.9266C37.8936 56.875 37.8738 56.786 37.8738 56.6905C37.8738 56.2126 38.3121 55.8237 38.8559 55.8237C39.3964 55.8237 39.838 56.2126 39.838 56.6905C39.838 56.786 39.815 56.875 39.7853 56.9607H41.4562C41.4233 56.875 41.4035 56.786 41.4035 56.6905C41.4035 56.2126 41.8418 55.8237 42.3856 55.8237C42.9294 55.8237 43.3677 56.2126 43.3677 56.6905C43.3677 56.786 43.3446 56.875 43.315 56.9607H44.9859C44.9529 56.875 44.9331 56.786 44.9331 56.6905C44.9331 56.2126 45.3715 55.8237 45.9153 55.8237C46.4557 55.8237 46.8974 56.2126 46.8974 56.6905C46.8974 56.786 46.8743 56.875 46.8446 56.9607H48.5155C48.4826 56.875 48.4628 56.786 48.4628 56.6905C48.4628 56.2126 48.9011 55.8237 49.4449 55.8237C49.9854 55.8237 50.427 56.2126 50.427 56.6905C50.427 56.786 50.404 56.875 50.3743 56.9607H52.0452C52.0122 56.875 51.9925 56.786 51.9925 56.6905C51.9925 56.2126 52.4308 55.8237 52.9746 55.8237C53.5151 55.8237 53.9567 56.2126 53.9567 56.6905C53.9567 56.786 53.9336 56.875 53.9039 56.9607H56V55.4744C55.4595 55.4744 55.0179 55.0855 55.0179 54.6076C55.0179 54.1297 55.4562 53.7408 56 53.7408V52.4588C55.4595 52.4588 55.0179 52.0699 55.0179 51.5921C55.0179 51.1142 55.4562 50.7253 56 50.7253V49.4433C55.4595 49.4433 55.0179 49.0544 55.0179 48.5765C55.0179 48.0986 55.4562 47.7098 56 47.7098V47.6999V46.4179C55.4595 46.4179 55.0179 46.029 55.0179 45.5511C55.0179 45.0732 55.4562 44.6843 56 44.6843V43.4023C55.4595 43.4023 55.0179 43.0134 55.0179 42.5356C55.0179 42.0577 55.4562 41.6688 56 41.6688V40.3868C55.4595 40.3868 55.0179 39.9979 55.0179 39.52C55.0179 39.0421 55.4562 38.6533 56 38.6533V37.3712C55.4595 37.3712 55.0179 36.9824 55.0179 36.5045C55.0179 36.0266 55.4562 35.6377 56 35.6377V34.3557C55.4595 34.3557 55.0179 33.9668 55.0179 33.4889C55.0179 33.0111 55.4562 32.6222 56 32.6222V31.3402C55.4595 31.3402 55.0179 30.9513 55.0179 30.4734C55.0179 29.9955 55.4562 29.6066 56 29.6066V28.3246C55.4595 28.3246 55.0179 27.9357 55.0179 27.4579C55.0179 26.98 55.4562 26.5911 56 26.5911V25.3091C55.4595 25.3091 55.0179 24.9202 55.0179 24.4423C55.0179 23.9645 55.4562 23.5756 56 23.5756V22.2936C55.4595 22.2936 55.0179 21.9047 55.0179 21.4268C55.0179 20.9489 55.4562 20.56 56 20.56V19.278C55.4595 19.278 55.0179 18.8891 55.0179 18.4113C55.0179 17.9334 55.4562 17.5445 56 17.5445V16.2625C55.4595 16.2625 55.0179 15.8736 55.0179 15.3957C55.0179 14.9179 55.4562 14.529 56 14.529V13.2469C55.4595 13.2469 55.0179 12.8581 55.0179 12.3802C55.0179 11.9023 55.4562 11.5134 56 11.5134V10.2314C55.4595 10.2314 55.0179 9.84252 55.0179 9.36465C55.0179 8.88678 55.4562 8.49789 56 8.49789V7.21588C55.4595 7.21588 55.0179 6.82699 55.0179 6.34911C55.0179 5.87124 55.4562 5.48235 56 5.48235V4.20034C55.4595 4.20034 55.0179 3.81145 55.0179 3.33358C55.0179 2.85571 55.4562 2.46682 56 2.46682V0.980469H53.9567C53.9567 1.45834 53.5184 1.84723 52.9746 1.84723C52.4341 1.84723 51.9925 1.45834 51.9925 0.980469H50.4303C50.4303 1.45834 49.992 1.84723 49.4482 1.84723C48.9077 1.84723 48.4661 1.45834 48.4661 0.980469H46.904C46.904 1.45834 46.4656 1.84723 45.9218 1.84723C45.3814 1.84723 44.9397 1.45834 44.9397 0.980469H43.3776C43.3776 1.45834 42.9393 1.84723 42.3955 1.84723C41.8517 1.84723 41.4134 1.45834 41.4134 0.980469H39.8512C39.8512 1.45834 39.4129 1.84723 38.8691 1.84723C38.3286 1.84723 37.887 1.45834 37.887 0.980469H36.3249C36.3249 1.45834 35.8865 1.84723 35.3428 1.84723C34.8023 1.84723 34.3606 1.45834 34.3606 0.980469H32.7985C32.7985 1.45834 32.3602 1.84723 31.8164 1.84723C31.2759 1.84723 30.8343 1.45834 30.8343 0.980469H29.2721C29.2721 1.45834 28.8338 1.84723 28.29 1.84723C27.7462 1.84723 27.3079 1.45834 27.3079 0.980469H25.7458C25.7458 1.45834 25.3074 1.84723 24.7637 1.84723C24.2232 1.84723 23.7815 1.45834 23.7815 0.980469H22.2194C22.2194 1.45834 21.7811 1.84723 21.2373 1.84723C20.6968 1.84723 20.2552 1.45834 20.2552 0.980469H18.693C18.693 1.45834 18.2547 1.84723 17.7109 1.84723C17.1704 1.84723 16.7288 1.45834 16.7288 0.980469H15.1667C15.1667 1.45834 14.7283 1.84723 14.1846 1.84723C13.6441 1.84723 13.2024 1.45834 13.2024 0.980469H11.6403C11.6403 1.45834 11.202 1.84723 10.6582 1.84723C10.1177 1.84723 9.67608 1.45834 9.67608 0.980469H8.11393C8.11393 1.45834 7.67561 1.84723 7.13183 1.84723C6.58804 1.84723 6.14971 1.45834 6.14971 0.980469H4.58757C4.58757 1.45834 4.14924 1.84723 3.60546 1.84723C3.06167 1.84723 2.62335 1.45834 2.62335 0.980469H0.049433V2.48659C0.115346 2.47341 0.184554 2.46682 0.253763 2.46682C0.794253 2.46682 1.23588 2.85571 1.23588 3.33358C1.23588 3.81145 0.797548 4.20034 0.253763 4.20034C0.184554 4.20034 0.115346 4.19375 0.049433 4.18057V5.50213C0.115346 5.48894 0.184554 5.48235 0.253763 5.48235C0.794253 5.48235 1.23588 5.87124 1.23588 6.34911C1.23588 6.82699 0.797548 7.21588 0.253763 7.21588C0.184554 7.21588 0.115346 7.20928 0.049433 7.1961V8.51766C0.115346 8.50448 0.184554 8.49789 0.253763 8.49789C0.794253 8.49789 1.23588 8.88678 1.23588 9.36465C1.23588 9.84252 0.797548 10.2314 0.253763 10.2314C0.184554 10.2314 0.115346 10.2248 0.049433 10.2116V11.5332C0.115346 11.52 0.184554 11.5134 0.253763 11.5134C0.794253 11.5134 1.23588 11.9023 1.23588 12.3802C1.23588 12.8581 0.797548 13.2469 0.253763 13.2469C0.184554 13.2469 0.115346 13.2404 0.049433 13.2272V14.5487C0.115346 14.5356 0.184554 14.529 0.253763 14.529C0.794253 14.529 1.23588 14.9179 1.23588 15.3957C1.23588 15.8736 0.797548 16.2625 0.253763 16.2625C0.184554 16.2625 0.115346 16.2559 0.049433 16.2427V17.5643C0.115346 17.5511 0.184554 17.5445 0.253763 17.5445C0.794253 17.5445 1.23588 17.9334 1.23588 18.4113C1.23588 18.8891 0.797548 19.278 0.253763 19.278C0.184554 19.278 0.115346 19.2714 0.049433 19.2582V20.5798C0.115346 20.5666 0.184554 20.56 0.253763 20.56C0.794253 20.56 1.23588 20.9489 1.23588 21.4268C1.23588 21.9047 0.797548 22.2936 0.253763 22.2936C0.184554 22.2936 0.115346 22.287 0.049433 22.2738V23.5953C0.115346 23.5822 0.184554 23.5756 0.253763 23.5756C0.794253 23.5756 1.23588 23.9645 1.23588 24.4423C1.23588 24.9202 0.797548 25.3091 0.253763 25.3091C0.184554 25.3091 0.115346 25.3025 0.049433 25.2893V26.6109C0.115346 26.5977 0.184554 26.5911 0.253763 26.5911C0.794253 26.5911 1.23588 26.98 1.23588 27.4579C1.23588 27.9357 0.797548 28.3246 0.253763 28.3246C0.184554 28.3246 0.115346 28.318 0.049433 28.3049V29.6264C0.115346 29.6132 0.184554 29.6066 0.253763 29.6066C0.794253 29.6066 1.23588 29.9955 1.23588 30.4734C1.23588 30.9513 0.797548 31.3402 0.253763 31.3402C0.184554 31.3402 0.115346 31.3336 0.049433 31.3204V32.642C0.115346 32.6288 0.184554 32.6222 0.253763 32.6222C0.794253 32.6222 1.23588 33.0111 1.23588 33.4889C1.23588 33.9668 0.797548 34.3557 0.253763 34.3557C0.184554 34.3557 0.115346 34.3491 0.049433 34.3359V35.6575C0.115346 35.6443 0.184554 35.6377 0.253763 35.6377C0.794253 35.6377 1.23588 36.0266 1.23588 36.5045C1.23588 36.9824 0.797548 37.3712 0.253763 37.3712C0.184554 37.3712 0.115346 37.3647 0.049433 37.3515V38.673C0.115346 38.6599 0.184554 38.6533 0.253763 38.6533C0.794253 38.6533 1.23588 39.0421 1.23588 39.52C1.23588 39.9979 0.797548 40.3868 0.253763 40.3868C0.184554 40.3868 0.115346 40.3802 0.049433 40.367V41.6886C0.115346 41.6754 0.184554 41.6688 0.253763 41.6688C0.794253 41.6688 1.23588 42.0577 1.23588 42.5356C1.23588 43.0134 0.797548 43.4023 0.253763 43.4023C0.184554 43.4023 0.115346 43.3957 0.049433 43.3825V44.7041C0.115346 44.6909 0.184554 44.6843 0.253763 44.6843C0.794253 44.6843 1.23588 45.0732 1.23588 45.5511C1.23588 46.029 0.797548 46.4179 0.253763 46.4179C0.184554 46.4179 0.115346 46.4113 0.049433 46.3981V47.7196C0.115346 47.7065 0.184554 47.6999 0.253763 47.6999" fill="#A98B83"/>
<path d="M52.4142 8.82441V48.0396C50.0084 48.1846 48.0969 50.1883 48.0969 52.6271C48.0969 52.8875 48.1199 53.1512 48.1694 53.4181H7.75459C7.80402 53.1512 7.82709 52.8875 7.82709 52.6271C7.82709 50.1883 5.9156 48.1846 3.50977 48.0396V8.82441C5.82332 8.68269 7.67878 6.82723 7.8172 4.51367H48.1035C48.2452 6.82723 50.1006 8.68269 52.4142 8.82441Z" fill="white"/>
<path d="M52.4142 8.82441V48.0396C50.0084 48.1846 48.0969 50.1883 48.0969 52.6271C48.0969 52.8875 48.1199 53.1512 48.1694 53.4181H7.75459C7.80402 53.1512 7.82709 52.8875 7.82709 52.6271C7.82709 50.1883 5.9156 48.1846 3.50977 48.0396V8.82441C5.82332 8.68269 7.67878 6.82723 7.8172 4.51367H48.1035C48.2452 6.82723 50.1006 8.68269 52.4142 8.82441Z" fill="#AB8C85"/>
<path d="M52.694 8.27045C50.4662 8.27045 48.6568 6.46113 48.6568 4.23326C48.6568 4.07836 48.5316 3.95312 48.3767 3.95312H7.54668C7.39178 3.95312 7.26654 4.07836 7.26654 4.23326C7.26654 6.46113 5.45392 8.27045 3.22935 8.27045C3.07445 8.27045 2.94922 8.39569 2.94922 8.55058V48.3128C2.94922 48.4644 3.07445 48.593 3.22935 48.593C5.45392 48.593 7.26654 50.4023 7.26654 52.6269C7.26654 52.9531 7.2204 53.2893 7.13472 53.6287C7.11494 53.7144 7.13142 53.8034 7.18415 53.8693C7.23688 53.9385 7.31927 53.9781 7.40826 53.9781H48.5151C48.6008 53.9781 48.6832 53.9385 48.7359 53.8693C48.7887 53.8034 48.8084 53.7144 48.7854 53.6287C48.6997 53.2893 48.6568 52.9531 48.6568 52.6269C48.6568 50.4023 50.4662 48.593 52.694 48.593C52.8489 48.593 52.9742 48.4644 52.9742 48.3128V8.55058C52.9742 8.39569 52.8489 8.27045 52.694 8.27045ZM52.4139 48.0393C50.0081 48.1843 48.0966 50.1881 48.0966 52.6269C48.0966 52.8872 48.1197 53.1509 48.1691 53.4178H7.7543C7.80374 53.1509 7.82681 52.8872 7.82681 52.6269C7.82681 50.1881 5.91532 48.1843 3.50948 48.0393V8.82412C5.82304 8.68241 7.6785 6.82695 7.81692 4.51339H48.1032C48.2449 6.82695 50.1003 8.68241 52.4139 8.82412V48.0393Z" fill="#F1DFC1"/>
<path d="M52.5172 8.9162V48.1347C51.3502 48.2098 50.2553 48.7253 49.4538 49.577C48.6523 50.4286 48.2042 51.5528 48.1999 52.7222C48.1998 52.9875 48.2241 53.2523 48.2724 53.5132H7.85761C7.90594 53.2523 7.93021 52.9875 7.93012 52.7222C7.92691 51.5543 7.48095 50.4311 6.68216 49.5791C5.88338 48.7271 4.79122 48.2098 3.62598 48.1314V8.91291C4.7406 8.83539 5.78924 8.35604 6.57717 7.56386C7.36511 6.77168 7.83882 5.72049 7.91035 4.60547H48.2065C48.2779 5.72531 48.7551 6.78072 49.5485 7.57418C50.342 8.36764 51.3974 8.84474 52.5172 8.9162Z" fill="white"/>
<path d="M27.9626 7.3212C28.3157 7.3212 28.602 7.03495 28.602 6.68184C28.602 6.32873 28.3157 6.04248 27.9626 6.04248C27.6095 6.04248 27.3232 6.32873 27.3232 6.68184C27.3232 7.03495 27.6095 7.3212 27.9626 7.3212Z" fill="#F5CBD9"/>
<path d="M27.963 9.21305C27.8839 9.21305 27.8213 9.15043 27.8213 9.07133V8.09582C27.8213 8.01672 27.8839 7.9541 27.963 7.9541C28.0421 7.9541 28.1047 8.01672 28.1047 8.09582V9.07133C28.1014 9.15043 28.0388 9.21305 27.963 9.21305Z" fill="#F5CBD9"/>
<path d="M27.963 11.8991C27.8839 11.8991 27.8213 11.8365 27.8213 11.7574V9.67785C27.8213 9.59875 27.8839 9.53613 27.963 9.53613C28.0421 9.53613 28.1047 9.59875 28.1047 9.67785V11.7574C28.1014 11.8365 28.0388 11.8991 27.963 11.8991Z" fill="#F5CBD9"/>
<path d="M29.1593 8.89323C29.1098 8.89323 29.0637 8.86687 29.0373 8.82402L28.5496 7.97704C28.51 7.91112 28.5331 7.82544 28.6023 7.78589C28.6682 7.74634 28.7539 7.76941 28.7934 7.83862L29.2812 8.68561C29.3207 8.75152 29.2977 8.83721 29.2285 8.87676C29.2054 8.88664 29.1823 8.89323 29.1593 8.89323Z" fill="#F5CBD9"/>
<path d="M30.5006 11.2202C30.4512 11.2202 30.4051 11.1938 30.3787 11.151L29.3406 9.35155C29.301 9.28564 29.3241 9.19995 29.3933 9.1604C29.4592 9.12085 29.5449 9.14392 29.5845 9.21313L30.6226 11.0126C30.6621 11.0785 30.6391 11.1642 30.5699 11.2037C30.5468 11.2136 30.5237 11.2202 30.5006 11.2202Z" fill="#F5CBD9"/>
<path d="M30.0326 8.02C30.0095 8.02 29.9831 8.0134 29.9633 8.00022L29.1197 7.51246C29.0537 7.47291 29.0307 7.38723 29.0669 7.32131C29.1065 7.2554 29.1922 7.23233 29.2581 7.26858L30.1018 7.75634C30.1677 7.79589 30.1907 7.88158 30.1545 7.94749C30.1281 7.99363 30.082 8.02 30.0326 8.02Z" fill="#F5CBD9"/>
<path d="M31.3042 8.75157C31.2811 8.75157 31.2547 8.74498 31.235 8.73179L30.4868 8.30006C30.4209 8.26051 30.3979 8.17483 30.4341 8.10891C30.4737 8.043 30.5593 8.01993 30.6253 8.05618L31.3734 8.48792C31.4393 8.52746 31.4624 8.61315 31.4261 8.67906C31.3997 8.7285 31.3536 8.75157 31.3042 8.75157Z" fill="#F5CBD9"/>
<path d="M30.3516 6.82396H29.3761C29.297 6.82396 29.2344 6.76134 29.2344 6.68224C29.2344 6.60315 29.297 6.54053 29.3761 6.54053H30.3516C30.4307 6.54053 30.4933 6.60315 30.4933 6.68224C30.4933 6.76134 30.4307 6.82396 30.3516 6.82396Z" fill="#F5CBD9"/>
<path d="M32.8696 6.82396H30.9581C30.879 6.82396 30.8164 6.76134 30.8164 6.68224C30.8164 6.60315 30.879 6.54053 30.9581 6.54053H32.8696C32.9487 6.54053 33.0113 6.60315 33.0113 6.68224C33.0113 6.76134 32.9487 6.82396 32.8696 6.82396Z" fill="#F5CBD9"/>
<path d="M26.544 6.82347H25.5685C25.4894 6.82347 25.4268 6.76085 25.4268 6.68175C25.4268 6.60266 25.4894 6.54004 25.5685 6.54004H26.544C26.6231 6.54004 26.6857 6.60266 26.6857 6.68175C26.6824 6.76085 26.6198 6.82347 26.544 6.82347Z" fill="#F5CBD9"/>
<path d="M24.9624 6.82396H23.0509C22.9718 6.82396 22.9092 6.76134 22.9092 6.68224C22.9092 6.60315 22.9718 6.54053 23.0509 6.54053H24.9624C25.0415 6.54053 25.1041 6.60315 25.1041 6.68224C25.1008 6.76134 25.0382 6.82396 24.9624 6.82396Z" fill="#F5CBD9"/>
<path d="M25.8893 8.01984C25.8398 8.01984 25.7937 7.99348 25.7673 7.95064C25.7278 7.88472 25.7509 7.79903 25.8201 7.75949L26.6638 7.27173C26.7297 7.23218 26.8154 7.25525 26.8549 7.32446C26.8945 7.39037 26.8714 7.47606 26.8022 7.51561L25.9585 8.00337C25.9387 8.01326 25.9123 8.01984 25.8893 8.01984Z" fill="#F5CBD9"/>
<path d="M24.6637 8.72505C24.6143 8.72505 24.5681 8.69869 24.5417 8.65584C24.5022 8.58993 24.5253 8.50424 24.5945 8.46469L25.2965 8.05933C25.3624 8.01978 25.4481 8.04285 25.4876 8.11206C25.5272 8.17797 25.5041 8.26366 25.4349 8.30321L24.7329 8.70857C24.7098 8.72176 24.6868 8.72505 24.6637 8.72505Z" fill="#F5CBD9"/>
<path d="M26.765 8.89338C26.742 8.89338 26.7156 8.88679 26.6958 8.87361C26.6299 8.83406 26.6068 8.74837 26.6431 8.68246L27.1309 7.83547C27.1704 7.76956 27.2561 7.74649 27.322 7.78274C27.3879 7.82229 27.411 7.90798 27.3747 7.97389L26.887 8.82088C26.8606 8.87031 26.8112 8.89338 26.765 8.89338Z" fill="#F5CBD9"/>
<path d="M25.4203 11.2199C25.3972 11.2199 25.3709 11.2133 25.3511 11.2001C25.2852 11.1605 25.2621 11.0748 25.2984 11.0089L26.3398 9.2095C26.3793 9.14358 26.465 9.12051 26.531 9.15677C26.5969 9.19632 26.6199 9.282 26.5837 9.34792L25.5422 11.1474C25.5159 11.1935 25.4697 11.2199 25.4203 11.2199Z" fill="#F5CBD9"/>
<path d="M27.9626 51.892C28.3157 51.892 28.602 51.6058 28.602 51.2526C28.602 50.8995 28.3157 50.6133 27.9626 50.6133C27.6095 50.6133 27.3232 50.8995 27.3232 51.2526C27.3232 51.6058 27.6095 51.892 27.9626 51.892Z" fill="#F5CBD9"/>
<path d="M27.963 49.9772C27.8839 49.9772 27.8213 49.9146 27.8213 49.8355V48.86C27.8213 48.7809 27.8839 48.7183 27.963 48.7183C28.0421 48.7183 28.1047 48.7809 28.1047 48.86V49.8355C28.1014 49.9146 28.0388 49.9772 27.963 49.9772Z" fill="#F5CBD9"/>
<path d="M27.963 48.3952C27.8839 48.3952 27.8213 48.3326 27.8213 48.2535V46.1739C27.8213 46.0948 27.8839 46.0322 27.963 46.0322C28.0421 46.0322 28.1047 46.0948 28.1047 46.1739V48.2535C28.1014 48.3326 28.0388 48.3952 27.963 48.3952Z" fill="#F5CBD9"/>
<path d="M27.252 50.1653C27.2026 50.1653 27.1565 50.139 27.1301 50.0961L26.6423 49.2524C26.6028 49.1865 26.6259 49.1008 26.6951 49.0613C26.761 49.0217 26.8467 49.0448 26.8862 49.114L27.374 49.9577C27.4135 50.0236 27.3905 50.1093 27.3212 50.1489C27.2982 50.1587 27.2751 50.1653 27.252 50.1653Z" fill="#F5CBD9"/>
<path d="M26.4639 48.7973C26.4145 48.7973 26.3683 48.771 26.342 48.7281L25.3005 46.9287C25.261 46.8628 25.2841 46.7771 25.3533 46.7375C25.4192 46.698 25.5049 46.7211 25.5444 46.7903L26.5859 48.5897C26.6254 48.6556 26.6023 48.7413 26.5331 48.7809C26.51 48.7907 26.487 48.7973 26.4639 48.7973Z" fill="#F5CBD9"/>
<path d="M26.7308 50.686C26.7077 50.686 26.6814 50.6794 26.6616 50.6662L25.8179 50.1785C25.752 50.1389 25.7289 50.0532 25.7652 49.9873C25.8047 49.9214 25.8904 49.8983 25.9563 49.9346L26.8 50.4224C26.8659 50.4619 26.889 50.5476 26.8527 50.6135C26.8264 50.6596 26.7802 50.686 26.7308 50.686Z" fill="#F5CBD9"/>
<path d="M25.3667 49.8951C25.3436 49.8951 25.3172 49.8885 25.2975 49.8753L24.5493 49.4436C24.4834 49.4041 24.4604 49.3184 24.4966 49.2525C24.5362 49.1866 24.6218 49.1635 24.6878 49.1997L25.4359 49.6315C25.5018 49.671 25.5249 49.7567 25.4886 49.8226C25.4622 49.8688 25.4128 49.8951 25.3667 49.8951Z" fill="#F5CBD9"/>
<path d="M26.544 51.3913H25.5685C25.4894 51.3913 25.4268 51.3287 25.4268 51.2496C25.4268 51.1705 25.4894 51.1079 25.5685 51.1079H26.544C26.6231 51.1079 26.6857 51.1705 26.6857 51.2496C26.6824 51.3287 26.6198 51.3913 26.544 51.3913Z" fill="#F5CBD9"/>
<path d="M24.9624 51.3908H23.0509C22.9718 51.3908 22.9092 51.3282 22.9092 51.2491C22.9092 51.17 22.9718 51.1074 23.0509 51.1074H24.9624C25.0415 51.1074 25.1041 51.17 25.1041 51.2491C25.1008 51.3282 25.0382 51.3908 24.9624 51.3908Z" fill="#F5CBD9"/>
<path d="M30.3516 51.3908H29.3761C29.297 51.3908 29.2344 51.3282 29.2344 51.2491C29.2344 51.17 29.297 51.1074 29.3761 51.1074H30.3516C30.4307 51.1074 30.4933 51.17 30.4933 51.2491C30.4933 51.3282 30.4307 51.3908 30.3516 51.3908Z" fill="#F5CBD9"/>
<path d="M32.8696 51.3913H30.9581C30.879 51.3913 30.8164 51.3287 30.8164 51.2496C30.8164 51.1705 30.879 51.1079 30.9581 51.1079H32.8696C32.9487 51.1079 33.0113 51.1705 33.0113 51.2496C33.0113 51.3287 32.9487 51.3913 32.8696 51.3913Z" fill="#F5CBD9"/>
<path d="M29.1891 50.6859C29.1396 50.6859 29.0935 50.6595 29.0671 50.6167C29.0276 50.5507 29.0507 50.4651 29.1199 50.4255L29.9636 49.9377C30.0295 49.8982 30.1152 49.9213 30.1547 49.9905C30.1943 50.0564 30.1712 50.1421 30.102 50.1816L29.2583 50.6694C29.2352 50.6793 29.2121 50.6859 29.1891 50.6859Z" fill="#F5CBD9"/>
<path d="M30.5563 49.895C30.5068 49.895 30.4607 49.8686 30.4343 49.8258C30.3948 49.7599 30.4178 49.6742 30.4871 49.6346L31.189 49.2292C31.255 49.1897 31.3406 49.2128 31.3802 49.282C31.4197 49.3479 31.3967 49.4336 31.3275 49.4731L30.6255 49.8785C30.6057 49.8884 30.5826 49.895 30.5563 49.895Z" fill="#F5CBD9"/>
<path d="M28.6693 50.165C28.6463 50.165 28.6199 50.1584 28.6001 50.1452C28.5342 50.1057 28.5111 50.02 28.5474 49.9541L29.0351 49.1104C29.0747 49.0445 29.1604 49.0214 29.2263 49.0576C29.2922 49.0972 29.3153 49.1829 29.279 49.2488L28.7913 50.0925C28.7649 50.1419 28.7188 50.165 28.6693 50.165Z" fill="#F5CBD9"/>
<path d="M29.4584 48.7975C29.4353 48.7975 29.409 48.7909 29.3892 48.7777C29.3233 48.7382 29.3002 48.6525 29.3365 48.5866L30.3746 46.7871C30.4141 46.7212 30.4998 46.6982 30.5657 46.7344C30.6317 46.774 30.6547 46.8596 30.6185 46.9255L29.5803 48.725C29.554 48.7711 29.5078 48.7975 29.4584 48.7975Z" fill="#F5CBD9"/>
<path d="M50.2448 28.3281C49.8922 28.3281 49.6055 28.6148 49.6055 28.9675C49.6055 29.3201 49.8922 29.6068 50.2448 29.6068C50.5975 29.6068 50.8842 29.3201 50.8842 28.9675C50.8875 28.6148 50.6008 28.3281 50.2448 28.3281Z" fill="#F5CBD9"/>
<path d="M48.8292 29.1057H47.8536C47.7745 29.1057 47.7119 29.0431 47.7119 28.964C47.7119 28.8849 47.7745 28.8223 47.8536 28.8223H48.8292C48.9082 28.8223 48.9709 28.8849 48.9709 28.964C48.9709 29.0431 48.905 29.1057 48.8292 29.1057Z" fill="#F5CBD9"/>
<path d="M47.2467 29.1057H45.1671C45.088 29.1057 45.0254 29.0431 45.0254 28.964C45.0254 28.8849 45.088 28.8223 45.1671 28.8223H47.2467C47.3258 28.8223 47.3884 28.8849 47.3884 28.964C47.3884 29.0431 47.3225 29.1057 47.2467 29.1057Z" fill="#F5CBD9"/>
<path d="M48.1725 30.3021C48.1231 30.3021 48.0769 30.2757 48.0505 30.2329C48.011 30.1669 48.0341 30.0813 48.1033 30.0417L48.947 29.554C49.0129 29.5144 49.0986 29.5375 49.1381 29.6067C49.1777 29.6726 49.1546 29.7583 49.0854 29.7978L48.2417 30.2856C48.2186 30.2988 48.1956 30.3021 48.1725 30.3021Z" fill="#F5CBD9"/>
<path d="M45.8453 31.6468C45.7959 31.6468 45.7498 31.6204 45.7234 31.5776C45.6838 31.5116 45.7069 31.426 45.7761 31.3864L47.5756 30.345C47.6415 30.3054 47.7272 30.3285 47.7667 30.3977C47.8063 30.4636 47.7832 30.5493 47.714 30.5889L45.9145 31.6303C45.8948 31.6402 45.8684 31.6468 45.8453 31.6468Z" fill="#F5CBD9"/>
<path d="M49.0473 31.179C49.0242 31.179 48.9978 31.1724 48.978 31.1593C48.9121 31.1197 48.8891 31.034 48.9253 30.9681L49.4131 30.1211C49.4526 30.0552 49.5383 30.0321 49.6042 30.0684C49.6701 30.1079 49.6932 30.1936 49.657 30.2595L49.1692 31.1065C49.1428 31.1527 49.0967 31.179 49.0473 31.179Z" fill="#F5CBD9"/>
<path d="M48.3158 32.4508C48.2927 32.4508 48.2664 32.4442 48.2466 32.431C48.1807 32.3914 48.1576 32.3058 48.1939 32.2398L48.6256 31.4917C48.6652 31.4258 48.7508 31.4027 48.8168 31.439C48.8827 31.4785 48.9057 31.5642 48.8695 31.6301L48.4378 32.3783C48.4114 32.4244 48.362 32.4508 48.3158 32.4508Z" fill="#F5CBD9"/>
<path d="M50.2433 31.4987C50.1642 31.4987 50.1016 31.4361 50.1016 31.357V30.3815C50.1016 30.3024 50.1642 30.2397 50.2433 30.2397C50.3224 30.2397 50.385 30.3024 50.385 30.3815V31.357C50.385 31.4361 50.3224 31.4987 50.2433 31.4987Z" fill="#F5CBD9"/>
<path d="M50.2433 34.0162C50.1642 34.0162 50.1016 33.9536 50.1016 33.8745V31.963C50.1016 31.8839 50.1642 31.8213 50.2433 31.8213C50.3224 31.8213 50.385 31.8839 50.385 31.963V33.8745C50.385 33.9536 50.3224 34.0162 50.2433 34.0162Z" fill="#F5CBD9"/>
<path d="M50.2433 27.6916C50.1642 27.6916 50.1016 27.6289 50.1016 27.5498V26.5743C50.1016 26.4952 50.1642 26.4326 50.2433 26.4326C50.3224 26.4326 50.385 26.4952 50.385 26.5743V27.5498C50.385 27.6289 50.3224 27.6916 50.2433 27.6916Z" fill="#F5CBD9"/>
<path d="M50.2433 26.11C50.1642 26.11 50.1016 26.0473 50.1016 25.9682V24.0568C50.1016 23.9777 50.1642 23.915 50.2433 23.915C50.3224 23.915 50.385 23.9777 50.385 24.0568V25.9682C50.385 26.0473 50.3224 26.11 50.2433 26.11Z" fill="#F5CBD9"/>
<path d="M49.5372 27.8796C49.4878 27.8796 49.4416 27.8532 49.4153 27.8104L48.9275 26.9634C48.8879 26.8975 48.911 26.8118 48.9802 26.7722C49.0461 26.7327 49.1318 26.7557 49.1714 26.8249L49.6591 27.6719C49.6987 27.7378 49.6756 27.8235 49.6064 27.8631C49.5833 27.8763 49.5603 27.8796 49.5372 27.8796Z" fill="#F5CBD9"/>
<path d="M48.7458 26.5119C48.6964 26.5119 48.6502 26.4855 48.6239 26.4427L48.2185 25.7407C48.179 25.6748 48.202 25.5891 48.2712 25.5496C48.3372 25.51 48.4228 25.5331 48.4624 25.6023L48.8678 26.3043C48.9073 26.3702 48.8842 26.4559 48.815 26.4954C48.792 26.5053 48.7689 26.5119 48.7458 26.5119Z" fill="#F5CBD9"/>
<path d="M49.0179 28.4004C48.9948 28.4004 48.9685 28.3938 48.9487 28.3806L48.105 27.8928C48.0391 27.8533 48.016 27.7676 48.0523 27.7017C48.0918 27.6358 48.1775 27.6127 48.2434 27.649L49.0871 28.1367C49.153 28.1763 49.1761 28.2619 49.1399 28.3279C49.1135 28.374 49.0673 28.4004 49.0179 28.4004Z" fill="#F5CBD9"/>
<path d="M47.6494 27.6093C47.6264 27.6093 47.6 27.6027 47.5802 27.5895L45.7808 26.5481C45.7149 26.5086 45.6918 26.4229 45.7281 26.357C45.7676 26.291 45.8533 26.268 45.9192 26.3042L47.7186 27.3457C47.7846 27.3852 47.8076 27.4709 47.7714 27.5368C47.745 27.5829 47.6956 27.6093 47.6494 27.6093Z" fill="#F5CBD9"/>
<path d="M5.67549 29.6068C6.02813 29.6068 6.31485 29.3201 6.31485 28.9675C6.31485 28.6148 6.02813 28.3281 5.67549 28.3281C5.32286 28.3281 5.03613 28.6148 5.03613 28.9675C5.03613 29.3201 5.31956 29.6068 5.67549 29.6068Z" fill="#F5CBD9"/>
<path d="M8.06743 29.1057H7.09191C7.01281 29.1057 6.9502 29.0431 6.9502 28.964C6.9502 28.8849 7.01281 28.8223 7.09191 28.8223H8.06743C8.14652 28.8223 8.20914 28.8849 8.20914 28.964C8.20914 29.0431 8.14652 29.1057 8.06743 29.1057Z" fill="#F5CBD9"/>
<path d="M10.7525 29.1057H8.67296C8.59387 29.1057 8.53125 29.0431 8.53125 28.964C8.53125 28.8849 8.59387 28.8223 8.67296 28.8223H10.7525C10.8316 28.8223 10.8942 28.8849 10.8942 28.964C10.8942 29.0431 10.8316 29.1057 10.7525 29.1057Z" fill="#F5CBD9"/>
<path d="M6.9049 28.4002C6.85547 28.4002 6.80932 28.3739 6.78296 28.331C6.74341 28.2651 6.76648 28.1794 6.83569 28.1399L7.67938 27.6521C7.74529 27.6126 7.83098 27.6356 7.87053 27.7048C7.91008 27.7707 7.88701 27.8564 7.8178 27.896L6.97411 28.3837C6.95104 28.3936 6.92797 28.4002 6.9049 28.4002Z" fill="#F5CBD9"/>
<path d="M8.27208 27.6097C8.22265 27.6097 8.17651 27.5833 8.15015 27.5404C8.1106 27.4745 8.13367 27.3888 8.20288 27.3493L10.0056 26.3079C10.0715 26.2683 10.1572 26.2914 10.1968 26.3606C10.2363 26.4265 10.2132 26.5122 10.144 26.5517L8.3413 27.5932C8.32152 27.6031 8.29845 27.6097 8.27208 27.6097Z" fill="#F5CBD9"/>
<path d="M6.38515 27.8797C6.36208 27.8797 6.33572 27.8731 6.31594 27.8599C6.25003 27.8204 6.22696 27.7347 6.26321 27.6688L6.75097 26.8218C6.79052 26.7559 6.87621 26.7328 6.94212 26.7691C7.00803 26.8086 7.0311 26.8943 6.99485 26.9602L6.50709 27.8072C6.48073 27.8566 6.43129 27.8797 6.38515 27.8797Z" fill="#F5CBD9"/>
<path d="M7.17812 26.5118C7.15505 26.5118 7.12869 26.5052 7.10891 26.492C7.043 26.4525 7.01993 26.3668 7.05618 26.3009L7.48791 25.5528C7.52746 25.4868 7.61315 25.4638 7.67906 25.5C7.74498 25.5396 7.76805 25.6253 7.73179 25.6912L7.30006 26.4393C7.2737 26.4854 7.22426 26.5118 7.17812 26.5118Z" fill="#F5CBD9"/>
<path d="M5.67687 27.6916C5.59778 27.6916 5.53516 27.6289 5.53516 27.5498V26.5743C5.53516 26.4952 5.59778 26.4326 5.67687 26.4326C5.75597 26.4326 5.81858 26.4952 5.81858 26.5743V27.5498C5.81529 27.6289 5.75267 27.6916 5.67687 27.6916Z" fill="#F5CBD9"/>
<path d="M5.67687 26.11C5.59778 26.11 5.53516 26.0473 5.53516 25.9682V24.0568C5.53516 23.9777 5.59778 23.915 5.67687 23.915C5.75597 23.915 5.81858 23.9777 5.81858 24.0568V25.9682C5.81529 26.0473 5.75267 26.11 5.67687 26.11Z" fill="#F5CBD9"/>
<path d="M5.67687 31.4987C5.59778 31.4987 5.53516 31.4361 5.53516 31.357V30.3815C5.53516 30.3024 5.59778 30.2397 5.67687 30.2397C5.75597 30.2397 5.81858 30.3024 5.81858 30.3815V31.357C5.81529 31.4361 5.75267 31.4987 5.67687 31.4987Z" fill="#F5CBD9"/>
<path d="M5.67687 34.0162C5.59778 34.0162 5.53516 33.9536 5.53516 33.8745V31.963C5.53516 31.8839 5.59778 31.8213 5.67687 31.8213C5.75597 31.8213 5.81858 31.8839 5.81858 31.963V33.8745C5.81529 33.9536 5.75267 34.0162 5.67687 34.0162Z" fill="#F5CBD9"/>
<path d="M6.87508 31.1789C6.82565 31.1789 6.7795 31.1525 6.75314 31.1097L6.26538 30.2627C6.22583 30.1968 6.2489 30.1111 6.31811 30.0715C6.38403 30.032 6.46971 30.0551 6.50926 30.1243L6.99702 30.9713C7.03657 31.0372 7.0135 31.1229 6.94429 31.1624C6.92122 31.1723 6.89815 31.1789 6.87508 31.1789Z" fill="#F5CBD9"/>
<path d="M7.57687 32.4045C7.52743 32.4045 7.48129 32.3781 7.45493 32.3353L7.04956 31.6333C7.01001 31.5674 7.03308 31.4817 7.10229 31.4421C7.16821 31.4026 7.25389 31.4257 7.29344 31.4949L7.69881 32.1968C7.73836 32.2628 7.71528 32.3485 7.64608 32.388C7.6263 32.3979 7.60323 32.4045 7.57687 32.4045Z" fill="#F5CBD9"/>
<path d="M7.74838 30.3017C7.72531 30.3017 7.69894 30.2951 7.67917 30.282L6.83548 29.7942C6.76956 29.7547 6.74649 29.669 6.78274 29.603C6.82229 29.5371 6.90798 29.5141 6.97389 29.5503L7.81758 30.0381C7.8835 30.0776 7.90657 30.1633 7.87031 30.2292C7.84395 30.2787 7.79781 30.3017 7.74838 30.3017Z" fill="#F5CBD9"/>
<path d="M10.0726 31.6469C10.0496 31.6469 10.0232 31.6403 10.0034 31.6271L8.20071 30.5857C8.1348 30.5462 8.11173 30.4605 8.14798 30.3946C8.18753 30.3286 8.27321 30.3056 8.33913 30.3418L10.1419 31.3833C10.2078 31.4228 10.2308 31.5085 10.1946 31.5744C10.1682 31.6205 10.1221 31.6469 10.0726 31.6469Z" fill="#F5CBD9"/>
<path d="M21.5824 10.2512C21.5033 10.2512 21.4275 10.2479 21.3517 10.238C20.7057 10.1622 20.1224 9.75357 19.8653 9.1966C19.5918 8.60338 19.7137 7.85527 20.1554 7.41365C20.6233 6.94566 21.4242 6.87315 21.9383 7.25545C22.3536 7.56525 22.5216 8.14199 22.3206 8.56713C22.2086 8.80442 21.9614 8.98238 21.6812 9.03511C21.4275 9.08125 21.1869 9.01534 21.0188 8.85385C20.9628 8.80112 20.9628 8.71214 21.0155 8.65611C21.0683 8.60009 21.1572 8.60009 21.2133 8.65282C21.3154 8.75169 21.4637 8.78794 21.6318 8.75828C21.8263 8.72203 21.991 8.60338 22.0668 8.44519C22.2151 8.1354 22.0833 7.71025 21.7735 7.47956C21.3649 7.17636 20.7288 7.23568 20.3531 7.61139C19.9906 7.97061 19.8917 8.5902 20.1191 9.07796C20.3366 9.54924 20.8343 9.89528 21.3813 9.9579C21.8988 10.0205 22.4656 9.83596 22.8973 9.47344C23.484 8.97579 23.7509 8.17495 23.5499 7.5224C23.4049 7.05442 23.0292 6.64905 22.5249 6.40517C22.0932 6.19754 21.5659 6.10526 20.9595 6.12833C19.9972 6.16459 19.0019 6.47108 18.0066 7.03794C17.2387 7.47626 16.1478 8.16176 15.3041 8.94943C15.2514 8.99557 15.1723 8.99886 15.1196 8.95602C15.0635 8.90988 15.0537 8.83408 15.0899 8.77476C15.4228 8.23427 15.6601 7.7531 15.8215 7.295C14.7043 8.26063 13.3959 9.02523 12.0085 9.51958C11.3955 9.73709 10.5847 9.97108 9.75422 9.85573C8.89735 9.73379 8.1756 9.20978 7.91524 8.52099C7.75046 8.08596 7.78341 7.57184 8.00422 7.11703C8.22833 6.65894 8.61062 6.31948 9.05554 6.18107C9.6191 6.0064 10.2519 6.1514 10.6342 6.54029C11.0593 6.97532 11.1252 7.6773 10.7858 8.13869C10.6078 8.37928 10.3112 8.54076 9.99151 8.56383C9.6916 8.5902 9.40817 8.49462 9.21373 8.30347C9.1577 8.25074 9.15771 8.16176 9.21044 8.10574C9.26317 8.04971 9.35215 8.04971 9.40818 8.10574C9.5433 8.23756 9.74434 8.30677 9.96515 8.287C10.2057 8.26722 10.4265 8.15187 10.5551 7.97391C10.8121 7.62457 10.7528 7.0676 10.4298 6.73474C10.12 6.41835 9.59933 6.303 9.13464 6.44472C8.76223 6.56007 8.44254 6.84679 8.2514 7.23568C8.06354 7.62457 8.03388 8.0563 8.1723 8.41882C8.3997 9.01534 9.03247 9.46685 9.79047 9.5756C10.5617 9.68436 11.3296 9.46026 11.9129 9.25263C13.4223 8.71544 14.8361 7.85197 15.9995 6.75122C16.0457 6.70837 16.1116 6.70178 16.1676 6.73144C16.2203 6.7611 16.2467 6.82372 16.2335 6.88634C16.1313 7.31478 15.9666 7.74651 15.726 8.21779C16.4576 7.63775 17.2618 7.13681 17.8682 6.79406C18.903 6.20414 19.9411 5.88446 20.9496 5.8482C21.6021 5.82184 22.1756 5.9273 22.6469 6.1547C23.2236 6.43154 23.6488 6.89952 23.8201 7.44001C24.0574 8.19802 23.7509 9.1208 23.0819 9.68766C22.6535 10.0469 22.1064 10.2512 21.5824 10.2512Z" fill="#F1DFC1"/>
<path d="M21.1253 9.94167C21.0462 9.94167 20.9704 9.93837 20.8946 9.92848C20.6903 9.90542 20.4893 9.84609 20.2981 9.75711C20.2289 9.72415 20.1993 9.64176 20.2322 9.56926C20.2652 9.50005 20.3476 9.47039 20.4201 9.50334C20.5848 9.57914 20.7562 9.62858 20.9309 9.65165C21.4483 9.71097 22.0152 9.52971 22.4469 9.16719C23.0335 8.67284 23.3005 7.86869 23.0994 7.21615C23.0039 6.90965 22.8061 6.62952 22.5128 6.39223C22.4535 6.3428 22.4436 6.25381 22.493 6.19449C22.5425 6.13517 22.6315 6.12528 22.6908 6.17472C23.0269 6.44826 23.2543 6.77124 23.3664 7.13376C23.6037 7.89176 23.2972 8.81455 22.6282 9.38141C22.1964 9.73734 21.6494 9.94167 21.1253 9.94167Z" fill="#F1DFC1"/>
<path d="M10.4685 9.87557C10.4619 9.87557 10.4553 9.87557 10.4487 9.87557C9.73357 9.7734 8.83056 9.30542 8.53065 8.52105C8.34609 8.03329 8.40541 7.42689 8.68884 6.94242C8.9492 6.49751 9.36116 6.21079 9.84892 6.14158C9.92472 6.12839 9.99722 6.18442 10.0071 6.26022C10.017 6.33602 9.96426 6.40852 9.88846 6.41841C9.48639 6.47773 9.14694 6.71502 8.92942 7.08414C8.68884 7.4961 8.63611 8.01022 8.79101 8.41888C9.05136 9.09779 9.85221 9.50646 10.4883 9.59544C10.5641 9.60533 10.6168 9.67783 10.6069 9.75363C10.597 9.82284 10.5377 9.87557 10.4685 9.87557Z" fill="#F1DFC1"/>
<path d="M24.6165 6.12522H12.8048C12.7257 6.12522 12.6631 6.06261 12.6631 5.98351C12.6631 5.90441 12.7257 5.8418 12.8048 5.8418H24.6165C24.6956 5.8418 24.7582 5.90441 24.7582 5.98351C24.7582 6.06261 24.6956 6.12522 24.6165 6.12522Z" fill="#F1DFC1"/>
<path d="M21.448 9.01554C21.8011 9.01554 22.0873 8.72929 22.0873 8.37618C22.0873 8.02307 21.8011 7.73682 21.448 7.73682C21.0948 7.73682 20.8086 8.02307 20.8086 8.37618C20.8086 8.72929 21.0948 9.01554 21.448 9.01554Z" fill="#F1DFC1"/>
<path d="M13.4428 6.48458C13.4428 6.83721 13.1561 7.12394 12.8034 7.12394C12.4508 7.12394 12.1641 6.83721 12.1641 6.48458C12.1641 6.13194 12.4508 5.84521 12.8034 5.84521C13.1561 5.84521 13.4428 6.13194 13.4428 6.48458Z" fill="#F1DFC1"/>
<path d="M9.67452 8.49845C10.0276 8.49845 10.3139 8.2122 10.3139 7.85909C10.3139 7.50598 10.0276 7.21973 9.67452 7.21973C9.32141 7.21973 9.03516 7.50598 9.03516 7.85909C9.03516 8.2122 9.32141 8.49845 9.67452 8.49845Z" fill="#F1DFC1"/>
<path d="M34.3275 10.2512C33.8001 10.2512 33.2695 10.0535 32.8378 9.68766C32.1655 9.1208 31.8623 8.19802 32.0996 7.44001C32.2677 6.89952 32.6961 6.43154 33.2728 6.1547C33.7474 5.9273 34.3176 5.82184 34.9701 5.8482C35.9786 5.88446 37.0167 6.20414 38.0516 6.79406C38.658 7.14011 39.4621 7.63775 40.1937 8.21779C39.9532 7.74651 39.7884 7.31478 39.6862 6.88634C39.673 6.82702 39.6994 6.7644 39.7521 6.73144C39.8049 6.70178 39.8741 6.70837 39.9202 6.75122C41.0836 7.85197 42.4974 8.71544 44.0068 9.25263C44.5902 9.46026 45.3581 9.68436 46.1292 9.5756C46.8839 9.47014 47.52 9.01534 47.7474 8.41882C47.8858 8.0563 47.8562 7.62457 47.6683 7.23568C47.4805 6.84679 47.1575 6.56007 46.7851 6.44472C46.3204 6.29971 45.7997 6.41506 45.4899 6.73474C45.1636 7.0676 45.1076 7.62127 45.3646 7.97391C45.4932 8.14858 45.714 8.26722 45.9546 8.287C46.1721 8.30348 46.3764 8.23756 46.5115 8.10574C46.5676 8.053 46.6565 8.053 46.7093 8.10574C46.762 8.16176 46.762 8.25074 46.706 8.30347C46.5115 8.49462 46.2281 8.5902 45.9282 8.56383C45.6085 8.53747 45.3119 8.37928 45.134 8.13869C44.7945 7.6773 44.8604 6.97203 45.2855 6.54029C45.6678 6.1514 46.3006 6.0064 46.8642 6.18107C47.3091 6.31948 47.6914 6.65894 47.9155 7.11703C48.1396 7.57513 48.1726 8.08596 48.0045 8.52099C47.7408 9.20978 47.0191 9.73379 46.1655 9.85573C45.335 9.97438 44.5242 9.73709 43.9113 9.51958C42.5238 9.02523 41.2154 8.26063 40.0982 7.295C40.2597 7.7531 40.4969 8.23427 40.8298 8.77476C40.8661 8.83408 40.8529 8.91317 40.8001 8.95602C40.7474 8.99886 40.6683 8.99886 40.6156 8.94943C39.7752 8.16176 38.681 7.47626 37.9131 7.03794C36.9178 6.47108 35.9225 6.16459 34.9602 6.12833C34.3505 6.10526 33.8265 6.20084 33.3948 6.40517C32.8872 6.64905 32.5148 7.05442 32.3698 7.5224C32.1655 8.17495 32.4357 8.97579 33.0224 9.47344C33.4541 9.83926 34.0242 10.0205 34.5384 9.9579C35.0887 9.89199 35.5864 9.54594 35.8039 9.07796C36.0313 8.5869 35.9324 7.97061 35.5699 7.61139C35.1942 7.23568 34.5581 7.17965 34.1495 7.47956C33.8364 7.71025 33.7079 8.1354 33.8562 8.44519C33.932 8.60338 34.0968 8.72203 34.2912 8.75828C34.4527 8.78794 34.6076 8.74839 34.7098 8.65282C34.7658 8.60009 34.8548 8.60009 34.9075 8.65611C34.9602 8.71214 34.9602 8.80112 34.9042 8.85385C34.7361 9.01534 34.4955 9.08125 34.2418 9.03511C33.9616 8.98568 33.7178 8.80442 33.6057 8.56713C33.4014 8.14199 33.5694 7.56525 33.988 7.25545C34.5021 6.87315 35.303 6.94566 35.771 7.41365C36.2126 7.85527 36.3345 8.60338 36.061 9.1966C35.8039 9.75357 35.2206 10.1622 34.5746 10.238C34.4856 10.2479 34.4065 10.2512 34.3275 10.2512Z" fill="#F1DFC1"/>
<path d="M34.7983 9.94155C34.2743 9.94155 33.7272 9.74051 33.2987 9.37799C32.6264 8.81113 32.3232 7.88834 32.5605 7.13034C32.6726 6.77111 32.9 6.44814 33.2361 6.1713C33.2954 6.12186 33.3844 6.13175 33.4339 6.19108C33.4833 6.2504 33.4734 6.33938 33.4141 6.38882C33.1208 6.6294 32.9263 6.90624 32.8308 7.21273C32.6264 7.86527 32.8967 8.66612 33.4833 9.16377C33.915 9.52959 34.4852 9.71085 34.9993 9.64823C35.174 9.62846 35.3454 9.57902 35.5101 9.49993C35.5793 9.46697 35.665 9.49663 35.698 9.56584C35.7309 9.63505 35.7013 9.72074 35.6321 9.75369C35.4409 9.84268 35.2399 9.902 35.0356 9.92507C34.9532 9.93825 34.8741 9.94155 34.7983 9.94155Z" fill="#F1DFC1"/>
<path d="M45.4531 9.87545C45.3839 9.87545 45.3246 9.82601 45.3147 9.75351C45.3048 9.67771 45.3575 9.6052 45.4333 9.59532C46.0694 9.50633 46.8702 9.09767 47.1306 8.41876C47.2888 8.0068 47.236 7.49597 46.9922 7.08072C46.7746 6.71161 46.4352 6.47432 46.0331 6.415C45.9573 6.40511 45.9046 6.3326 45.9145 6.2568C45.9244 6.181 45.9969 6.12498 46.0727 6.13816C46.5604 6.21066 46.9724 6.49409 47.2327 6.93901C47.5162 7.42347 47.5788 8.02658 47.3909 8.51763C47.091 9.3053 46.188 9.76999 45.4729 9.87215C45.4663 9.87545 45.4597 9.87545 45.4531 9.87545Z" fill="#F1DFC1"/>
<path d="M43.1178 6.12522H31.3028C31.2237 6.12522 31.1611 6.06261 31.1611 5.98351C31.1611 5.90441 31.2237 5.8418 31.3028 5.8418H43.1145C43.1936 5.8418 43.2562 5.90441 43.2562 5.98351C43.2562 6.06261 43.1936 6.12522 43.1178 6.12522Z" fill="#F1DFC1"/>
<path d="M34.4704 9.01505C34.8235 9.01505 35.1098 8.7288 35.1098 8.37569C35.1098 8.02258 34.8235 7.73633 34.4704 7.73633C34.1173 7.73633 33.8311 8.02258 33.8311 8.37569C33.8311 8.7288 34.1173 9.01505 34.4704 9.01505Z" fill="#F1DFC1"/>
<path d="M42.4766 6.48409C42.4766 6.83672 42.7633 7.12345 43.1159 7.12345C43.4686 7.12345 43.7553 6.83672 43.7553 6.48409C43.7553 6.13145 43.4686 5.84473 43.1159 5.84473C42.7633 5.84473 42.4766 6.13145 42.4766 6.48409Z" fill="#F1DFC1"/>
<path d="M46.2468 8.49796C46.5999 8.49796 46.8861 8.21171 46.8861 7.8586C46.8861 7.50549 46.5999 7.21924 46.2468 7.21924C45.8937 7.21924 45.6074 7.50549 45.6074 7.8586C45.6074 8.21171 45.8937 8.49796 46.2468 8.49796Z" fill="#F1DFC1"/>
<path d="M21.135 52.09C21.0724 52.09 21.013 52.09 20.9504 52.0867C19.942 52.0504 18.9038 51.7308 17.869 51.1408C17.2626 50.7948 16.4584 50.2971 15.7268 49.7171C15.9674 50.1884 16.1322 50.6201 16.2343 51.0486C16.2475 51.1079 16.2211 51.1705 16.1684 51.2034C16.1157 51.2331 16.0465 51.2265 16.0003 51.1837C14.837 50.0829 13.4231 49.2195 11.9137 48.6823C11.3304 48.4746 10.5592 48.2505 9.7913 48.3593C9.03659 48.468 8.40053 48.9195 8.17313 49.5161C8.03471 49.8786 8.06437 50.3103 8.25222 50.6992C8.44007 51.0881 8.76305 51.3748 9.13546 51.4902C9.60015 51.6352 10.1209 51.5198 10.4307 51.2001C10.7569 50.8673 10.813 50.3136 10.5559 49.961C10.4274 49.783 10.2066 49.6677 9.96597 49.6479C9.74846 49.6314 9.54413 49.6973 9.409 49.8292C9.35298 49.8852 9.26399 49.8819 9.21126 49.8292C9.15853 49.7731 9.15853 49.6841 9.21456 49.6314C9.409 49.4403 9.69243 49.3447 9.98904 49.3711C10.3087 49.3974 10.6053 49.5556 10.7833 49.7962C11.1228 50.2576 11.0568 50.9629 10.6317 51.3946C10.2494 51.7835 9.61663 51.9285 9.05307 51.7538C8.60816 51.6154 8.22586 51.276 8.00175 50.8179C7.77765 50.3598 7.74469 49.8489 7.91277 49.4139C8.17642 48.7251 8.89817 48.2011 9.75175 48.0792C10.5856 47.9605 11.393 48.1978 12.006 48.4153C13.3935 48.9097 14.7018 49.6743 15.8191 50.6399C15.6576 50.1818 15.4203 49.7006 15.0874 49.1601C15.0512 49.1008 15.0644 49.0217 15.1171 48.9789C15.1698 48.936 15.2489 48.936 15.3017 48.9855C16.1421 49.7731 17.2362 50.4586 18.0041 50.8969C18.9994 51.4638 19.9947 51.7703 20.957 51.8066C21.5667 51.8296 22.0907 51.734 22.5225 51.5297C23.03 51.2858 23.4024 50.8805 23.5474 50.4125C23.7518 49.7599 23.4815 48.9591 22.8949 48.4614C22.4631 48.0956 21.8963 47.9144 21.3789 47.977C20.8285 48.0429 20.3341 48.3889 20.1166 48.8569C19.8892 49.3447 19.9881 49.9643 20.3506 50.3235C20.7263 50.6992 21.3624 50.7552 21.7711 50.4553C22.0841 50.2246 22.2127 49.7995 22.0644 49.4897C21.9886 49.3315 21.8238 49.2129 21.6293 49.1766C21.4646 49.1469 21.313 49.1865 21.2108 49.2821C21.1548 49.3348 21.0658 49.3348 21.0131 49.2788C20.9603 49.2228 20.9603 49.1338 21.0163 49.081C21.1844 48.9195 21.425 48.8536 21.6788 48.8998C21.9589 48.9492 22.2028 49.1305 22.3181 49.3678C22.5225 49.7929 22.3544 50.3696 21.9358 50.6794C21.4217 51.0617 20.6209 50.9892 20.1529 50.5212C19.7113 50.0796 19.5893 49.3315 19.8629 48.7383C20.1199 48.1813 20.7033 47.7727 21.3492 47.6969C21.9424 47.6276 22.5884 47.832 23.0794 48.2472C23.7518 48.8141 24.055 49.7369 23.8177 50.4949C23.6496 51.0354 23.2211 51.5034 22.6444 51.7802C22.2193 51.9878 21.7117 52.09 21.135 52.09Z" fill="#F1DFC1"/>
<path d="M22.5988 51.7936C22.5592 51.7936 22.5164 51.7772 22.49 51.7409C22.4406 51.6816 22.4505 51.5926 22.5098 51.5432C22.8031 51.3026 22.9976 51.0257 23.0964 50.7192C23.3008 50.0667 23.0305 49.2659 22.4439 48.7682C22.0122 48.4024 21.4453 48.2211 20.9279 48.2837C20.7532 48.3035 20.5818 48.353 20.4171 48.4321C20.3479 48.465 20.2622 48.4354 20.2292 48.3661C20.1963 48.2969 20.2259 48.2112 20.2984 48.1783C20.4896 48.0893 20.6906 48.03 20.8949 48.0069C21.4882 47.9377 22.1341 48.142 22.6252 48.5573C23.2975 49.1241 23.6007 50.0469 23.3634 50.8049C23.2513 51.1675 23.0239 51.4871 22.6878 51.764C22.6614 51.7837 22.6285 51.7936 22.5988 51.7936Z" fill="#F1DFC1"/>
<path d="M9.8672 51.7967C9.86061 51.7967 9.85402 51.7967 9.84743 51.7967C9.35967 51.7242 8.94771 51.4408 8.68735 50.9959C8.40392 50.5114 8.34131 49.9083 8.52916 49.4172C8.82907 48.6296 9.73208 48.1649 10.4472 48.0627C10.523 48.0528 10.5955 48.1056 10.6054 48.1814C10.6153 48.2572 10.5626 48.3297 10.4868 48.3395C9.85072 48.4285 9.04987 48.8372 8.78952 49.5161C8.63133 49.9281 8.68406 50.4389 8.92793 50.8508C9.14545 51.22 9.4849 51.4573 9.88698 51.5166C9.96278 51.5265 10.0155 51.599 10.0056 51.6748C9.99573 51.7473 9.93641 51.7967 9.8672 51.7967Z" fill="#F1DFC1"/>
<path d="M24.6175 52.0901H12.8058C12.7267 52.0901 12.6641 52.0274 12.6641 51.9484C12.6641 51.8693 12.7267 51.8066 12.8058 51.8066H24.6175C24.6965 51.8066 24.7592 51.8693 24.7592 51.9484C24.7592 52.0274 24.6965 52.0901 24.6175 52.0901Z" fill="#F1DFC1"/>
<path d="M21.4499 50.1982C21.803 50.1982 22.0893 49.9119 22.0893 49.5588C22.0893 49.2057 21.803 48.9194 21.4499 48.9194C21.0968 48.9194 20.8105 49.2057 20.8105 49.5588C20.8105 49.9119 21.0968 50.1982 21.4499 50.1982Z" fill="#F1DFC1"/>
<path d="M12.8054 52.0902C13.1585 52.0902 13.4447 51.804 13.4447 51.4509C13.4447 51.0978 13.1585 50.8115 12.8054 50.8115C12.4523 50.8115 12.166 51.0978 12.166 51.4509C12.166 51.804 12.4523 52.0902 12.8054 52.0902Z" fill="#F1DFC1"/>
<path d="M9.67452 50.7157C10.0276 50.7157 10.3139 50.4295 10.3139 50.0764C10.3139 49.7233 10.0276 49.437 9.67452 49.437C9.32141 49.437 9.03516 49.7233 9.03516 50.0764C9.03516 50.4295 9.32141 50.7157 9.67452 50.7157Z" fill="#F1DFC1"/>
<path d="M34.7822 52.0898C34.2055 52.0898 33.698 51.9876 33.2695 51.78C32.6928 51.5032 32.2676 51.0352 32.0963 50.4947C31.859 49.7367 32.1655 48.8139 32.8345 48.247C33.3321 47.8252 33.9616 47.6274 34.5647 47.6967C35.2107 47.7725 35.794 48.1811 36.0511 48.7381C36.3246 49.3313 36.2027 50.0794 35.761 50.521C35.2898 50.989 34.4889 51.0615 33.9781 50.6792C33.5628 50.3694 33.3947 49.7927 33.5958 49.3676C33.7078 49.1303 33.9517 48.9523 34.2318 48.8996C34.4856 48.8534 34.7262 48.9193 34.8943 49.0808C34.9503 49.1336 34.9503 49.2226 34.8976 49.2786C34.8448 49.3346 34.7559 49.3346 34.6998 49.2819C34.5977 49.183 34.4461 49.1467 34.2813 49.1764C34.0868 49.2127 33.9221 49.3313 33.8463 49.4895C33.698 49.7993 33.8298 50.2244 34.1396 50.4551C34.5482 50.7583 35.1843 50.699 35.56 50.3233C35.9225 49.9641 36.0214 49.3478 35.794 48.8567C35.5765 48.3854 35.0788 48.0394 34.5285 47.9768C34.011 47.9175 33.4442 48.0987 33.0125 48.4613C32.4258 48.9556 32.1589 49.7597 32.3599 50.4123C32.5049 50.8803 32.8806 51.2856 33.3849 51.5295C33.8166 51.7371 34.3439 51.8294 34.9503 51.8064C35.9126 51.7701 36.9079 51.4636 37.9032 50.8967C38.6711 50.4584 39.762 49.7729 40.6057 48.9853C40.6584 48.9358 40.7375 48.9358 40.7902 48.9787C40.8462 49.0248 40.8561 49.1006 40.8199 49.1599C40.487 49.7004 40.2497 50.1816 40.0882 50.6397C41.2022 49.6741 42.5139 48.9095 43.9013 48.4151C44.5143 48.1976 45.3251 47.9603 46.1556 48.079C47.0124 48.2009 47.7342 48.7249 47.9946 49.4137C48.1593 49.8487 48.1264 50.3629 47.9056 50.8177C47.6815 51.2758 47.2992 51.6152 46.8543 51.7536C46.2907 51.9283 45.6579 51.7833 45.2756 51.3944C44.8505 50.9594 44.7846 50.2574 45.124 49.796C45.302 49.5554 45.5953 49.3939 45.9183 49.3709C46.2182 49.3478 46.5016 49.4434 46.6961 49.6312C46.7521 49.6839 46.7521 49.7729 46.6994 49.829C46.6466 49.885 46.5576 49.885 46.5016 49.829C46.3665 49.6971 46.1622 49.6279 45.9447 49.6477C45.7041 49.6675 45.4833 49.7828 45.3547 49.9608C45.0977 50.3101 45.157 50.8671 45.48 51.1999C45.7898 51.5163 46.3105 51.6317 46.7752 51.49C47.1476 51.3746 47.4672 51.0879 47.6584 50.699C47.8462 50.3101 47.8759 49.8784 47.7375 49.5159C47.5101 48.9193 46.8773 48.4678 46.1193 48.3591C45.3514 48.2503 44.5802 48.4744 43.9969 48.6821C42.4875 49.2193 41.0737 50.0827 39.9103 51.1835C39.8641 51.2263 39.7982 51.2329 39.7422 51.2032C39.6895 51.1736 39.6631 51.111 39.6763 51.0484C39.7785 50.6199 39.9432 50.1882 40.1838 49.7169C39.4522 50.2969 38.648 50.7979 38.0416 51.1406C37.0068 51.7306 35.9687 52.0469 34.9602 52.0865C34.9042 52.0898 34.8415 52.0898 34.7822 52.0898Z" fill="#F1DFC1"/>
<path d="M33.3189 51.793C33.2859 51.793 33.2562 51.7831 33.2299 51.7601C32.8937 51.4865 32.6663 51.1636 32.5543 50.801C32.317 50.043 32.6235 49.1202 33.2925 48.5534C33.7835 48.1381 34.4328 47.9338 35.0227 48.003C35.227 48.0261 35.4281 48.0854 35.6192 48.1744C35.6884 48.2073 35.7181 48.2897 35.6884 48.3622C35.6555 48.4314 35.5731 48.4611 35.5006 48.4282C35.3358 48.3524 35.1644 48.3029 34.9898 48.2798C34.4723 48.2172 33.9055 48.4018 33.4738 48.7643C32.8871 49.2587 32.6202 50.0628 32.8212 50.7153C32.9168 51.0218 33.1145 51.302 33.4045 51.5393C33.4639 51.5887 33.4738 51.6777 33.4243 51.737C33.4013 51.7765 33.3617 51.793 33.3189 51.793Z" fill="#F1DFC1"/>
<path d="M46.0519 51.7967C45.9827 51.7967 45.9234 51.7473 45.9135 51.6781C45.9036 51.6023 45.9564 51.5298 46.0322 51.5199C46.4342 51.4605 46.7737 51.2233 46.9912 50.8541C47.2318 50.4422 47.2845 49.9281 47.1296 49.5161C46.8692 48.8372 46.0684 48.4285 45.4323 48.3395C45.3565 48.3297 45.3038 48.2572 45.3137 48.1814C45.3236 48.1056 45.3961 48.0528 45.4719 48.0627C46.2101 48.1682 47.0901 48.6263 47.39 49.4172C47.5745 49.9083 47.5152 50.5114 47.2318 50.9959C46.9714 51.4408 46.5595 51.7275 46.0717 51.7967C46.0651 51.7967 46.0585 51.7967 46.0519 51.7967Z" fill="#F1DFC1"/>
<path d="M43.1168 52.0901H31.3019C31.2228 52.0901 31.1602 52.0274 31.1602 51.9484C31.1602 51.8693 31.2228 51.8066 31.3019 51.8066H43.1135C43.1926 51.8066 43.2553 51.8693 43.2553 51.9484C43.2553 52.0274 43.1926 52.0901 43.1168 52.0901Z" fill="#F1DFC1"/>
<path d="M34.4694 50.1982C34.8225 50.1982 35.1088 49.9119 35.1088 49.5588C35.1088 49.2057 34.8225 48.9194 34.4694 48.9194C34.1163 48.9194 33.8301 49.2057 33.8301 49.5588C33.8301 49.9119 34.1163 50.1982 34.4694 50.1982Z" fill="#F1DFC1"/>
<path d="M43.1149 52.0898C43.4681 52.0898 43.7543 51.8035 43.7543 51.4504C43.7543 51.0973 43.4681 50.811 43.1149 50.811C42.7618 50.811 42.4756 51.0973 42.4756 51.4504C42.4756 51.8035 42.7618 52.0898 43.1149 52.0898Z" fill="#F1DFC1"/>
<path d="M46.2458 50.7157C46.5989 50.7157 46.8852 50.4295 46.8852 50.0764C46.8852 49.7233 46.5989 49.437 46.2458 49.437C45.8927 49.437 45.6064 49.7233 45.6064 50.0764C45.6064 50.4295 45.8927 50.7157 46.2458 50.7157Z" fill="#F1DFC1"/>
<path d="M48.9554 24.9068C48.3325 24.9068 47.68 24.6069 47.2417 24.0895C46.8198 23.5918 46.6221 22.9624 46.6913 22.3592C46.7671 21.7133 47.1758 21.13 47.7327 20.8729C48.3259 20.5994 49.0741 20.7213 49.5157 21.1629C49.9837 21.6342 50.0562 22.435 49.6739 22.9492C49.3641 23.3644 48.7873 23.5325 48.3622 23.3315C48.1249 23.2194 47.9469 22.9755 47.8942 22.6921C47.8481 22.4383 47.914 22.1978 48.0755 22.0297C48.1282 21.9737 48.2172 21.9737 48.2732 22.0264C48.3292 22.0791 48.3292 22.1681 48.2765 22.2241C48.1776 22.3263 48.1414 22.4779 48.171 22.6427C48.2073 22.8371 48.3259 23.0019 48.4841 23.0777C48.7939 23.226 49.2191 23.0942 49.4498 22.7844C49.753 22.3757 49.6936 21.7397 49.3179 21.364C48.9587 21.0014 48.3424 20.9026 47.8514 21.13C47.3801 21.3475 47.034 21.8451 46.9714 22.3955C46.9121 22.9129 47.0934 23.4798 47.4559 23.9115C47.9502 24.4981 48.7544 24.7684 49.4069 24.5641C49.8716 24.419 50.2803 24.0433 50.5242 23.5391C50.7318 23.1074 50.8241 22.5801 50.801 21.9737C50.7647 21.0113 50.4582 20.016 49.8914 19.0207C49.4531 18.2528 48.7676 17.162 47.9799 16.3183C47.9305 16.2656 47.9305 16.1865 47.9733 16.1337C48.0161 16.081 48.0952 16.0678 48.1546 16.1041C48.6951 16.4369 49.1762 16.6742 49.6343 16.8357C48.6687 15.7185 47.9041 14.4101 47.4097 13.0226C47.1922 12.4096 46.9549 11.5989 47.0736 10.7684C47.1955 9.9148 47.7195 9.18976 48.4083 8.9294C48.8434 8.76462 49.3542 8.79757 49.8123 9.01838C50.2704 9.24249 50.6098 9.62479 50.7483 10.0697C50.9229 10.6333 50.7779 11.266 50.389 11.6483C49.954 12.0735 49.252 12.1394 48.7906 11.7999C48.55 11.622 48.3886 11.3254 48.3655 11.0057C48.3424 10.7058 48.438 10.4223 48.6258 10.2312C48.6819 10.1752 48.7676 10.1752 48.8236 10.2279C48.8796 10.2806 48.8796 10.3696 48.8236 10.4256C48.6918 10.5608 48.6225 10.7651 48.6423 10.9826C48.6621 11.2232 48.7774 11.444 48.9554 11.5725C49.3048 11.8296 49.8617 11.7703 50.1946 11.4473C50.511 11.1375 50.6263 10.6168 50.4813 10.1521C50.366 9.77968 50.0792 9.46 49.6903 9.26885C49.3015 9.081 48.873 9.05134 48.5072 9.18976C47.9107 9.41716 47.4592 10.0499 47.3504 10.8079C47.2417 11.5791 47.4658 12.347 47.6734 12.9303C48.2106 14.4398 49.0741 15.8536 50.1748 17.017C50.2177 17.0631 50.2242 17.129 50.1946 17.185C50.1649 17.2378 50.099 17.2641 50.0397 17.251C49.6113 17.1488 49.1795 16.984 48.7082 16.7434C49.2883 17.4751 49.7892 18.2792 50.132 18.8856C50.7219 19.9205 51.0416 20.9586 51.0778 21.9671C51.1009 22.6196 50.9987 23.1931 50.7713 23.6643C50.4945 24.2411 50.0265 24.6695 49.486 24.8376C49.3212 24.8804 49.14 24.9068 48.9554 24.9068Z" fill="#F1DFC1"/>
<path d="M49.266 24.449C48.6431 24.449 47.9905 24.1491 47.5522 23.6317C47.1304 23.1341 46.9326 22.5013 47.0018 21.9015C47.0249 21.6971 47.0842 21.4961 47.1732 21.305C47.2062 21.2358 47.2886 21.2061 47.3611 21.239C47.4303 21.272 47.4599 21.3544 47.427 21.4269C47.3512 21.5917 47.3017 21.7631 47.282 21.9377C47.2193 22.4551 47.4039 23.022 47.7664 23.4537C48.2608 24.0404 49.0649 24.3073 49.7175 24.1063C50.024 24.0107 50.3008 23.813 50.5414 23.5229C50.5908 23.4636 50.6798 23.4537 50.7391 23.5032C50.7984 23.5526 50.8083 23.6416 50.7589 23.7009C50.4821 24.0371 50.1624 24.2645 49.7999 24.3765C49.6318 24.4227 49.4505 24.449 49.266 24.449Z" fill="#F1DFC1"/>
<path d="M47.1982 11.6157C47.1916 11.6157 47.185 11.6157 47.1784 11.6157C47.1026 11.6058 47.0499 11.5333 47.0598 11.4575C47.162 10.7423 47.6266 9.83932 48.4143 9.53941C48.9054 9.35156 49.5085 9.41418 49.9929 9.69761C50.4378 9.95797 50.7246 10.3699 50.7938 10.8577C50.8037 10.9335 50.7509 11.006 50.6751 11.0159C50.5993 11.0258 50.5268 10.973 50.5169 10.8972C50.4576 10.4952 50.2203 10.1557 49.8512 9.93819C49.4393 9.69761 48.9251 9.64488 48.5132 9.79977C47.8343 10.0601 47.4256 10.861 47.3366 11.497C47.3267 11.563 47.2641 11.6157 47.1982 11.6157Z" fill="#F1DFC1"/>
<path d="M50.9464 25.7641C50.8673 25.7641 50.8047 25.7014 50.8047 25.6223V13.8107C50.8047 13.7316 50.8673 13.6689 50.9464 13.6689C51.0255 13.6689 51.0881 13.7316 51.0881 13.8107V25.6223C51.0881 25.7014 51.0255 25.7641 50.9464 25.7641Z" fill="#F1DFC1"/>
<path d="M48.5544 23.0941C48.2018 23.0941 47.915 22.8074 47.915 22.4548C47.915 22.1021 48.2018 21.8154 48.5544 21.8154C48.907 21.8154 49.1938 22.1021 49.1938 22.4548C49.1938 22.8074 48.9103 23.0941 48.5544 23.0941Z" fill="#F1DFC1"/>
<path d="M50.446 14.4496C50.7991 14.4496 51.0854 14.1634 51.0854 13.8103C51.0854 13.4571 50.7991 13.1709 50.446 13.1709C50.0929 13.1709 49.8066 13.4571 49.8066 13.8103C49.8066 14.1634 50.0929 14.4496 50.446 14.4496Z" fill="#F1DFC1"/>
<path d="M49.0739 11.3222C49.427 11.3222 49.7133 11.0359 49.7133 10.6828C49.7133 10.3297 49.427 10.0435 49.0739 10.0435C48.7208 10.0435 48.4346 10.3297 48.4346 10.6828C48.4346 11.0359 48.7208 11.3222 49.0739 11.3222Z" fill="#F1DFC1"/>
<path d="M48.9942 49.1165C48.7932 49.1165 48.5955 49.0803 48.4142 49.0111C47.7254 48.7474 47.2014 48.0257 47.0795 47.1721C46.9608 46.3416 47.1981 45.5308 47.4156 44.9178C47.91 43.5304 48.6746 42.222 49.6402 41.1048C49.1821 41.2662 48.7009 41.5035 48.1604 41.8364C48.1011 41.8726 48.022 41.8595 47.9792 41.8067C47.933 41.754 47.9363 41.6749 47.9858 41.6222C48.7734 40.7818 49.4589 39.6876 49.8972 38.9197C50.4641 37.9244 50.7706 36.9291 50.8069 35.9668C50.8299 35.3604 50.7344 34.8331 50.53 34.4014C50.2861 33.8938 49.8808 33.5214 49.4128 33.3764C48.7603 33.1721 47.9594 33.4423 47.4618 34.029C47.0959 34.4607 46.9147 35.0275 46.9773 35.545C47.0432 36.0953 47.3893 36.5897 47.8572 36.8105C48.345 37.0379 48.9646 36.939 49.3238 36.5765C49.6995 36.2008 49.7588 35.5647 49.4556 35.1561C49.2249 34.843 48.7998 34.7145 48.49 34.8628C48.3318 34.9386 48.2132 35.1033 48.1769 35.2978C48.1473 35.4626 48.1868 35.6142 48.2824 35.7163C48.3351 35.7724 48.3351 35.8613 48.2791 35.9141C48.2231 35.9668 48.1341 35.9668 48.0813 35.9108C47.9199 35.7427 47.8539 35.5021 47.9001 35.2484C47.9495 34.9682 48.1308 34.7243 48.3681 34.609C48.7932 34.4047 49.3699 34.5727 49.6797 34.9913C50.062 35.5054 49.9895 36.3063 49.5215 36.7775C49.0799 37.2192 48.3318 37.3411 47.7386 37.0676C47.1816 36.8105 46.773 36.2272 46.6972 35.5812C46.6247 34.9814 46.8257 34.3486 47.2475 33.851C47.8144 33.1787 48.7372 32.8755 49.4952 33.1128C50.0357 33.2808 50.5037 33.7093 50.7805 34.286C51.0079 34.7606 51.1101 35.3307 51.087 35.9833C51.0507 36.9918 50.7311 38.0299 50.1411 39.0647C49.7951 39.6711 49.2974 40.4753 48.7174 41.2069C49.1887 40.9663 49.6204 40.8016 50.0489 40.6994C50.1082 40.6829 50.1708 40.7126 50.2038 40.7653C50.2334 40.818 50.2268 40.8872 50.184 40.9334C49.0832 42.0968 48.2198 43.5106 47.6826 45.02C47.4749 45.6033 47.2508 46.3712 47.3596 47.1424C47.465 47.8971 47.9199 48.5332 48.5164 48.7606C48.8789 48.899 49.3106 48.8693 49.6995 48.6815C50.0884 48.4936 50.3751 48.1707 50.4905 47.7983C50.6355 47.3336 50.5201 46.8129 50.2038 46.5031C49.8709 46.1768 49.3172 46.1208 48.9646 46.3778C48.7899 46.5064 48.6713 46.7272 48.6515 46.9677C48.635 47.1853 48.7009 47.3896 48.8328 47.5247C48.8855 47.5807 48.8855 47.6697 48.8328 47.7225C48.7767 47.7752 48.6877 47.7752 48.635 47.7192C48.4439 47.5247 48.3483 47.2413 48.3746 46.9414C48.401 46.6217 48.5592 46.3251 48.7998 46.1471C49.2612 45.8077 49.9665 45.8736 50.3982 46.2987C50.7871 46.681 50.9321 47.3138 50.7574 47.8774C50.619 48.3223 50.2796 48.7046 49.8215 48.9287C49.5512 49.0506 49.2711 49.1132 48.9942 49.1165Z" fill="#F1DFC1"/>
<path d="M47.3001 36.712C47.2474 36.712 47.1979 36.6823 47.1749 36.6329C47.0859 36.4418 47.0266 36.2407 47.0035 36.0364C46.9343 35.4432 47.1386 34.7972 47.5539 34.3062C48.1207 33.6371 49.0435 33.3306 49.8015 33.5679C50.1608 33.68 50.4837 33.9074 50.7606 34.2435C50.81 34.3029 50.8001 34.3919 50.7408 34.4413C50.6815 34.4907 50.5925 34.4808 50.5431 34.4215C50.3025 34.1282 50.0256 33.9338 49.7191 33.8382C49.0666 33.6338 48.2657 33.9041 47.7681 34.4907C47.4023 34.9225 47.221 35.4893 47.2836 36.0067C47.3034 36.1814 47.3528 36.3528 47.4319 36.5176C47.4649 36.5868 47.4352 36.6725 47.366 36.7054C47.343 36.7087 47.3199 36.712 47.3001 36.712Z" fill="#F1DFC1"/>
<path d="M49.0125 48.504C48.8049 48.504 48.5973 48.4677 48.4094 48.3985C47.6218 48.0986 47.1571 47.1956 47.0549 46.4804C47.045 46.4046 47.0978 46.3321 47.1736 46.3222C47.2494 46.3091 47.3218 46.3651 47.3317 46.4409C47.4207 47.0769 47.8294 47.8778 48.5083 48.1382C48.9203 48.2963 49.4311 48.2436 49.8463 47.9997C50.2154 47.7822 50.4527 47.4428 50.5121 47.0407C50.522 46.9649 50.5945 46.9089 50.6703 46.922C50.7461 46.9319 50.7988 47.0044 50.7889 47.0802C50.7164 47.568 50.433 47.98 49.9881 48.2403C49.6914 48.415 49.3487 48.504 49.0125 48.504Z" fill="#F1DFC1"/>
<path d="M50.9445 44.2625C50.8654 44.2625 50.8027 44.1998 50.8027 44.1207V32.3058C50.8027 32.2267 50.8654 32.1641 50.9445 32.1641C51.0236 32.1641 51.0862 32.2267 51.0862 32.3058V44.1207C51.0862 44.1998 51.0236 44.2625 50.9445 44.2625Z" fill="#F1DFC1"/>
<path d="M48.5524 34.8403C48.1998 34.8403 47.9131 35.1271 47.9131 35.4797C47.9131 35.8323 48.1998 36.1191 48.5524 36.1191C48.9051 36.1191 49.1918 35.8323 49.1918 35.4797C49.1918 35.1271 48.9084 34.8403 48.5524 34.8403Z" fill="#F1DFC1"/>
<path d="M50.446 44.7631C50.7991 44.7631 51.0854 44.4768 51.0854 44.1237C51.0854 43.7706 50.7991 43.4844 50.446 43.4844C50.0929 43.4844 49.8066 43.7706 49.8066 44.1237C49.8066 44.4768 50.0929 44.7631 50.446 44.7631Z" fill="#F1DFC1"/>
<path d="M49.072 47.8905C49.4251 47.8905 49.7113 47.6043 49.7113 47.2512C49.7113 46.8981 49.4251 46.6118 49.072 46.6118C48.7189 46.6118 48.4326 46.8981 48.4326 47.2512C48.4326 47.6043 48.7189 47.8905 49.072 47.8905Z" fill="#F1DFC1"/>
<path d="M6.96874 24.9069C6.78418 24.9069 6.60621 24.8805 6.43484 24.8278C5.89435 24.6597 5.42636 24.2313 5.14953 23.6545C4.92212 23.18 4.81996 22.6098 4.84303 21.9573C4.87928 20.9488 5.19896 19.9107 5.78889 18.8758C6.13493 18.2694 6.63258 17.4653 7.21262 16.7336C6.74463 16.9742 6.3096 17.139 5.88116 17.2412C5.82184 17.2544 5.75922 17.228 5.72627 17.1753C5.69661 17.1225 5.7032 17.0533 5.74604 17.0072C6.84679 15.8438 7.71026 14.43 8.24746 12.9205C8.45508 12.3372 8.67919 11.5693 8.57043 10.7981C8.46167 10.0434 8.01017 9.40736 7.41365 9.17996C7.05113 9.04154 6.61939 9.0712 6.2305 9.25906C5.84162 9.44691 5.55489 9.76989 5.43955 10.1423C5.29454 10.607 5.41318 11.1277 5.72957 11.4375C6.06243 11.7638 6.6161 11.8198 6.96874 11.5627C7.1467 11.4342 7.26205 11.2134 7.28182 10.9728C7.2983 10.7553 7.23239 10.551 7.10056 10.4158C7.04783 10.3598 7.04783 10.2708 7.10056 10.2181C7.15659 10.1654 7.24557 10.1654 7.2983 10.2214C7.48945 10.4158 7.58502 10.6993 7.55866 10.9959C7.53229 11.3156 7.37411 11.6122 7.13023 11.7901C6.66883 12.1296 5.96356 12.0604 5.53182 11.6385C5.14294 11.2562 4.99793 10.6235 5.1726 10.0599C5.31102 9.61499 5.65047 9.23269 6.10857 9.00859C6.56666 8.78448 7.07749 8.75153 7.51252 8.9196C8.20131 9.18326 8.72533 9.90501 8.84727 10.7586C8.96591 11.5891 8.72862 12.3998 8.51111 13.0128C8.02005 14.4003 7.25546 15.7087 6.28653 16.8259C6.74463 16.6644 7.2258 16.4271 7.76629 16.0943C7.82561 16.058 7.90471 16.0712 7.94755 16.1239C7.99369 16.1767 7.99039 16.2558 7.94096 16.3085C7.15329 17.1489 6.46779 18.243 6.02947 19.0109C5.46261 20.0062 5.15612 21.0015 5.11987 21.9639C5.0968 22.5703 5.19237 23.0976 5.3967 23.5293C5.64058 24.0368 6.04595 24.4092 6.51393 24.5543C7.16647 24.7586 7.96732 24.4883 8.46497 23.9017C8.83079 23.47 9.01205 22.9031 8.94943 22.3857C8.88352 21.8353 8.53747 21.341 8.06949 21.1202C7.57843 20.8928 6.96214 20.9916 6.60292 21.3542C6.22721 21.7299 6.17119 22.3659 6.47109 22.7746C6.70508 23.0877 7.12693 23.2162 7.43672 23.0679C7.59491 22.9921 7.71356 22.8273 7.74981 22.6329C7.77947 22.4681 7.73992 22.3165 7.64435 22.2143C7.59162 22.1583 7.59162 22.0693 7.64764 22.0166C7.70367 21.9639 7.79265 21.9639 7.84539 22.0199C8.00687 22.188 8.07279 22.4285 8.02665 22.6823C7.97721 22.9624 7.79595 23.2063 7.55866 23.3217C7.13352 23.526 6.55678 23.3579 6.24698 22.9394C5.86469 22.4253 5.93719 21.6244 6.40517 21.1531C6.84679 20.7115 7.59491 20.5896 8.18813 20.8631C8.7451 21.1202 9.15376 21.7035 9.22956 22.3495C9.30207 22.9526 9.10103 23.582 8.67919 24.0797C8.24416 24.607 7.59162 24.9069 6.96874 24.9069Z" fill="#F1DFC1"/>
<path d="M6.66033 24.4488C6.47907 24.4488 6.29781 24.4224 6.12644 24.3697C5.76391 24.2576 5.44423 24.0302 5.16739 23.6941C5.11796 23.6348 5.12785 23.5458 5.18717 23.4963C5.24649 23.4469 5.33547 23.4568 5.38491 23.5161C5.62549 23.8094 5.90233 24.0039 6.20883 24.0994C6.86137 24.3038 7.66222 24.0368 8.15986 23.4469C8.52568 23.0152 8.70694 22.4483 8.64433 21.9309C8.62455 21.7562 8.57512 21.5848 8.49602 21.4201C8.46307 21.3509 8.49272 21.2652 8.56523 21.2322C8.63444 21.1993 8.72013 21.2289 8.75308 21.2981C8.84207 21.4893 8.90139 21.6903 8.92445 21.8946C8.99696 22.4945 8.79592 23.1272 8.37408 23.6249C7.93576 24.1489 7.28321 24.4488 6.66033 24.4488Z" fill="#F1DFC1"/>
<path d="M8.7286 11.6156C8.65939 11.6156 8.60007 11.5661 8.59019 11.4936C8.5012 10.8576 8.09254 10.0567 7.41363 9.79635C7.00168 9.64146 6.49084 9.69419 6.07559 9.93477C5.70647 10.1523 5.46919 10.4917 5.40987 10.8938C5.39998 10.9696 5.32747 11.0223 5.25167 11.0125C5.17587 11.0026 5.12314 10.9301 5.13303 10.8543C5.20553 10.3665 5.48896 9.95455 5.93388 9.69419C6.41834 9.41076 7.02145 9.34814 7.5125 9.536C8.30016 9.8359 8.76485 10.7389 8.86702 11.4541C8.87691 11.5299 8.82418 11.6024 8.74838 11.6123C8.74178 11.6156 8.73519 11.6156 8.7286 11.6156Z" fill="#F1DFC1"/>
<path d="M4.97961 25.7636C4.90051 25.7636 4.83789 25.7009 4.83789 25.6218V13.8102C4.83789 13.7311 4.90051 13.6685 4.97961 13.6685C5.0587 13.6685 5.12132 13.7311 5.12132 13.8102V25.6218C5.11802 25.7009 5.05541 25.7636 4.97961 25.7636Z" fill="#F1DFC1"/>
<path d="M7.37276 23.0941C7.72587 23.0941 8.01212 22.8079 8.01212 22.4548C8.01212 22.1017 7.72587 21.8154 7.37276 21.8154C7.01965 21.8154 6.7334 22.1017 6.7334 22.4548C6.7334 22.8079 7.01965 23.0941 7.37276 23.0941Z" fill="#F1DFC1"/>
<path d="M5.4792 14.4496C5.83231 14.4496 6.11856 14.1634 6.11856 13.8103C6.11856 13.4571 5.83231 13.1709 5.4792 13.1709C5.1261 13.1709 4.83984 13.4571 4.83984 13.8103C4.83984 14.1634 5.1261 14.4496 5.4792 14.4496Z" fill="#F1DFC1"/>
<path d="M6.85323 11.3222C7.20634 11.3222 7.49259 11.0359 7.49259 10.6828C7.49259 10.3297 7.20634 10.0435 6.85323 10.0435C6.50012 10.0435 6.21387 10.3297 6.21387 10.6828C6.21387 11.0359 6.50012 11.3222 6.85323 11.3222Z" fill="#F1DFC1"/>
<path d="M6.93054 49.1169C6.6537 49.1169 6.37027 49.051 6.10662 48.9224C5.64852 48.6983 5.30906 48.316 5.17064 47.8711C4.99597 47.3075 5.14099 46.6748 5.52988 46.2925C5.9649 45.8673 6.66688 45.8014 7.12827 46.1409C7.36886 46.3188 7.53034 46.6155 7.55671 46.9351C7.57978 47.235 7.48421 47.5185 7.29635 47.7129C7.24362 47.7689 7.15464 47.7689 7.09861 47.7162C7.04259 47.6635 7.04259 47.5745 7.09861 47.5185C7.23044 47.3833 7.29965 47.179 7.27988 46.9615C7.2601 46.7209 7.14475 46.5001 6.96679 46.3716C6.61745 46.1145 6.06048 46.1738 5.72761 46.4968C5.41123 46.8066 5.29588 47.3273 5.4376 47.792C5.55295 48.1644 5.83967 48.4841 6.22856 48.6752C6.61745 48.8631 7.04918 48.8928 7.4117 48.7543C8.00822 48.5269 8.45973 47.8942 8.56848 47.1362C8.67724 46.365 8.45313 45.5971 8.2455 45.0138C7.70831 43.5043 6.84485 42.0905 5.74409 40.9271C5.70125 40.881 5.69466 40.8151 5.72432 40.759C5.75398 40.7063 5.81989 40.6767 5.87922 40.6931C6.30765 40.7953 6.73938 40.9601 7.21066 41.2007C6.63063 40.469 6.13298 39.6649 5.78694 39.0585C5.19701 38.0236 4.87733 36.9855 4.84108 35.977C4.81801 35.3245 4.92018 34.751 5.14758 34.2798C5.42441 33.703 5.8924 33.2746 6.43289 33.1065C7.18759 32.8692 8.11368 33.1757 8.68053 33.8447C9.10238 34.3424 9.30012 34.9752 9.23091 35.575C9.15511 36.2209 8.74645 36.8042 8.18948 37.0613C7.59626 37.3348 6.84814 37.2129 6.40652 36.7713C5.93854 36.3 5.86603 35.4992 6.24833 34.985C6.55812 34.5698 7.13486 34.4017 7.56 34.6027C7.79729 34.7148 7.97526 34.962 8.02799 35.2421C8.07413 35.4959 8.00822 35.7365 7.84673 35.9045C7.794 35.9606 7.70501 35.9606 7.64899 35.9078C7.59296 35.8551 7.59296 35.7661 7.64569 35.7101C7.74456 35.6079 7.78081 35.4563 7.75115 35.2915C7.7149 35.0971 7.59626 34.9323 7.43807 34.8565C7.12827 34.7082 6.70313 34.84 6.47244 35.1531C6.16924 35.5585 6.22856 36.1978 6.60426 36.5736C6.96349 36.9361 7.57978 37.0349 8.07083 36.8075C8.54211 36.59 8.88816 36.0924 8.95078 35.542C9.0101 35.0246 8.82884 34.4577 8.46631 34.026C7.97196 33.4394 7.16782 33.1724 6.51528 33.3735C6.05059 33.5185 5.64193 33.8909 5.39805 34.3984C5.19042 34.8301 5.09814 35.3574 5.12121 35.9639C5.15746 36.9262 5.46396 37.9215 6.03081 38.9168C6.46914 39.6847 7.15464 40.7788 7.9423 41.6192C7.99174 41.672 7.99174 41.751 7.9489 41.8038C7.90605 41.8565 7.82695 41.8697 7.76763 41.8334C7.22714 41.5006 6.74597 41.2633 6.28788 41.1018C7.25351 42.219 8.0181 43.5274 8.51245 44.9149C8.72997 45.5279 8.96726 46.3386 8.84861 47.1691C8.72667 48.026 8.20266 48.7478 7.51386 49.0081C7.32931 49.0806 7.13157 49.1169 6.93054 49.1169Z" fill="#F1DFC1"/>
<path d="M8.62455 36.7118C8.60478 36.7118 8.585 36.7085 8.56523 36.6986C8.49602 36.6656 8.46636 36.5832 8.49602 36.5107C8.57182 36.3459 8.62126 36.1746 8.64433 35.9999C8.70694 35.4825 8.52239 34.9156 8.15986 34.4839C7.66551 33.8973 6.86137 33.6303 6.20883 33.8313C5.90233 33.9269 5.6222 34.1247 5.38491 34.4147C5.33547 34.474 5.24649 34.4839 5.18717 34.4344C5.12785 34.385 5.11796 34.296 5.16739 34.2367C5.44094 33.9005 5.76391 33.6731 6.12644 33.5611C6.88444 33.3238 7.80722 33.6303 8.37408 34.2993C8.78933 34.7904 8.99366 35.4363 8.92445 36.0295C8.90139 36.2339 8.84207 36.4349 8.75308 36.6261C8.72672 36.6821 8.67728 36.7118 8.62455 36.7118Z" fill="#F1DFC1"/>
<path d="M6.90939 48.5042C6.57323 48.5042 6.23049 48.4152 5.93388 48.2406C5.48896 47.9802 5.20224 47.5682 5.13303 47.0805C5.12314 47.0047 5.17587 46.9322 5.25167 46.9223C5.32747 46.9091 5.39998 46.9651 5.40987 47.0409C5.46919 47.443 5.70647 47.7825 6.07559 48C6.48755 48.2406 7.00168 48.2933 7.41363 48.1384C8.09254 47.878 8.5012 47.0772 8.59019 46.4411C8.60007 46.3653 8.67587 46.3126 8.74838 46.3225C8.82418 46.3324 8.87691 46.4049 8.86702 46.4807C8.76485 47.1958 8.30016 48.0988 7.5125 48.3987C7.32465 48.4713 7.11702 48.5042 6.90939 48.5042Z" fill="#F1DFC1"/>
<path d="M4.97961 44.2625C4.90051 44.2625 4.83789 44.1998 4.83789 44.1207V32.3058C4.83789 32.2267 4.90051 32.1641 4.97961 32.1641C5.0587 32.1641 5.12132 32.2267 5.12132 32.3058V44.1207C5.11802 44.1998 5.05541 44.2625 4.97961 44.2625Z" fill="#F1DFC1"/>
<path d="M7.37276 36.1191C7.72587 36.1191 8.01212 35.8328 8.01212 35.4797C8.01212 35.1266 7.72587 34.8403 7.37276 34.8403C7.01965 34.8403 6.7334 35.1266 6.7334 35.4797C6.7334 35.8328 7.01965 36.1191 7.37276 36.1191Z" fill="#F1DFC1"/>
<path d="M5.4792 44.7636C5.83231 44.7636 6.11856 44.4773 6.11856 44.1242C6.11856 43.7711 5.83231 43.4849 5.4792 43.4849C5.1261 43.4849 4.83984 43.7711 4.83984 44.1242C4.83984 44.4773 5.1261 44.7636 5.4792 44.7636Z" fill="#F1DFC1"/>
<path d="M6.85323 47.891C7.20634 47.891 7.49259 47.6048 7.49259 47.2517C7.49259 46.8986 7.20634 46.6123 6.85323 46.6123C6.50012 46.6123 6.21387 46.8986 6.21387 47.2517C6.21387 47.6048 6.50012 47.891 6.85323 47.891Z" fill="#F1DFC1"/>
<path d="M51.6224 52.7685H4.29991C4.22082 52.7685 4.1582 52.7059 4.1582 52.6268V5.30431C4.1582 5.22522 4.22082 5.1626 4.29991 5.1626H51.6224C51.7015 5.1626 51.7641 5.22522 51.7641 5.30431V52.6268C51.7641 52.7059 51.7015 52.7685 51.6224 52.7685ZM4.43833 52.4884H51.4807V5.44603H4.43833V52.4884Z" fill="#F1DFC1"/>
<path d="M26.0126 22.0529H25.9961C25.9335 22.0529 25.8774 22.0232 25.8379 21.9771C25.8807 22.0199 25.9434 22.0496 26.0126 22.0529Z" fill="#E9A39B"/>
<path d="M26.0222 20.6587C25.9464 20.6587 25.8772 20.6884 25.8311 20.7378C25.8739 20.6884 25.9299 20.6587 25.9958 20.6587H26.0222Z" fill="#E9A39B"/>
<path d="M29.6696 20.6587C29.6761 20.6587 29.6827 20.6587 29.6893 20.662C29.6761 20.6587 29.6597 20.6587 29.6465 20.6587H29.6696Z" fill="#E9A39B"/>
<path d="M29.8002 20.7049C29.7705 20.6852 29.731 20.6687 29.6914 20.6621C29.731 20.6654 29.7672 20.6786 29.8002 20.7049Z" fill="#E9A39B"/>
<path d="M29.6572 22.0531C29.6671 22.0531 29.677 22.0498 29.6869 22.0498C29.6803 22.0531 29.677 22.0531 29.6704 22.0531H29.6572Z" fill="#E9A39B"/>
<path d="M29.8002 22.0068C29.7705 22.0365 29.731 22.0497 29.6914 22.0497C29.7277 22.0431 29.7639 22.0299 29.8002 22.0068Z" fill="#E9A39B"/>
<path d="M26.0126 22.0529H25.9961C25.9335 22.0529 25.8774 22.0232 25.8379 21.9771C25.8807 22.0199 25.9434 22.0496 26.0126 22.0529Z" fill="#E9A39B"/>
<path d="M26.0222 20.6587C25.9464 20.6587 25.8772 20.6884 25.8311 20.7378C25.8739 20.6884 25.9299 20.6587 25.9958 20.6587H26.0222Z" fill="#E9A39B"/>
<path d="M29.6696 20.6587C29.6761 20.6587 29.6827 20.6587 29.6893 20.662C29.6761 20.6587 29.6597 20.6587 29.6465 20.6587H29.6696Z" fill="#E9A39B"/>
<path d="M29.8002 20.7049C29.7705 20.6852 29.731 20.6687 29.6914 20.6621C29.731 20.6654 29.7672 20.6786 29.8002 20.7049Z" fill="#E9A39B"/>
<path d="M29.6572 22.0531C29.6671 22.0531 29.677 22.0498 29.6869 22.0498C29.6803 22.0531 29.677 22.0531 29.6704 22.0531H29.6572Z" fill="#E9A39B"/>
<path d="M29.8002 22.0068C29.7705 22.0365 29.731 22.0497 29.6914 22.0497C29.7277 22.0431 29.7639 22.0299 29.8002 22.0068Z" fill="#E9A39B"/>
<path d="M28.0949 22.0532L27.8345 23.3583L27.8082 23.4967L27.7884 23.589L27.7093 24.001L27.6599 24.2448L27.5577 24.759L27.1919 26.5848L26.9579 27.7745H26.7568L27.3632 24.7293L27.5873 23.589L27.6104 23.4967L27.6401 23.3385L27.7093 22.9958L27.7258 22.9035L27.8147 22.4553L27.8938 22.0532H28.0949Z" fill="#E9A39B"/>
<path fill-rule="evenodd" clip-rule="evenodd" d="M27.777 21.9116H28.2668L27.9728 23.3852L27.946 23.5262L27.9265 23.617L27.8474 24.0289L27.7981 24.2722L27.798 24.2727L27.6959 24.7863L27.3301 26.6119L27.33 26.6124L27.0737 27.9157H26.584L27.224 24.7018L27.2241 24.7015L27.4488 23.558L27.4717 23.4663L27.5009 23.3104L27.5699 22.9692L27.5865 22.8758L27.777 21.9116Z" fill="#E9A39B"/>
<path d="M29.4206 14.394L28.1748 20.6591H28.3758L29.6018 14.4896C29.5392 14.4567 29.4799 14.4237 29.4206 14.394Z" fill="#E9A39B"/>
<path fill-rule="evenodd" clip-rule="evenodd" d="M29.3582 14.2669C29.3978 14.2475 29.4442 14.2476 29.4836 14.2674C29.5239 14.2875 29.5659 14.31 29.6066 14.3318C29.6274 14.343 29.6478 14.3539 29.6675 14.3643C29.7229 14.3935 29.7526 14.4556 29.7404 14.517L28.5144 20.6865C28.5012 20.7527 28.4431 20.8003 28.3757 20.8003H28.1746C28.1323 20.8003 28.0922 20.7814 28.0653 20.7486C28.0384 20.7159 28.0277 20.6729 28.0359 20.6313L29.2817 14.3663C29.2903 14.323 29.3186 14.2863 29.3582 14.2669Z" fill="#E9A39B"/>
<path d="M27.6241 13.771C27.5582 13.7611 27.4923 13.7512 27.4297 13.7446L27.5846 20.6556H27.779L27.7691 20.2865L27.6241 13.771Z" fill="#E9A39B"/>
<path fill-rule="evenodd" clip-rule="evenodd" d="M27.3347 13.6404C27.3646 13.6129 27.4049 13.5996 27.4453 13.6038C27.511 13.6107 27.5795 13.621 27.6442 13.6307L27.6459 13.631C27.7139 13.6412 27.7648 13.6989 27.7663 13.7677L27.9113 20.2826L27.9113 20.2832L27.9212 20.6517C27.9222 20.6898 27.9078 20.7268 27.8811 20.7541C27.8545 20.7815 27.818 20.7969 27.7798 20.7969H27.5854C27.5085 20.7969 27.4457 20.7355 27.444 20.6586L27.2891 13.7476C27.2882 13.707 27.3048 13.6679 27.3347 13.6404Z" fill="#E9A39B"/>
<path d="M27.9343 27.774H27.7399L27.6608 24.2444L27.6509 23.7533V23.6973L27.6476 23.5885L27.641 23.338L27.6245 22.5636L27.6113 22.0527H27.8058L27.8091 22.0264V22.0527L27.8157 22.4548L27.8354 23.3578L27.842 23.5885V23.6709L27.8684 24.8013L27.9343 27.774Z" fill="#E9A39B"/>
<path fill-rule="evenodd" clip-rule="evenodd" d="M27.4658 21.9116H27.8054V22.0177L27.9501 22.0267V22.0519L27.9567 22.4528L27.9764 23.3546L27.9831 23.5888L27.983 23.6696L28.0094 24.7983L28.0785 27.9157H27.6012L27.519 24.2478L27.509 23.7536L27.5091 23.6997L27.5058 23.5931L27.5058 23.5925L27.4992 23.3414L27.4827 22.5672L27.4658 21.9116Z" fill="#E9A39B"/>
<path d="M27.8054 22.0527L27.7263 22.903L27.7131 23.0283L27.6637 23.5885L27.6505 23.717V23.7533L27.5582 24.7585L27.2847 27.774H27.0869L27.1924 26.5843L27.3638 24.7288L27.4692 23.5885L27.5154 23.0381L27.5813 22.3493L27.6076 22.0527L27.6109 22.0132V22.0527H27.8054Z" fill="#E9A39B"/>
<path fill-rule="evenodd" clip-rule="evenodd" d="M27.466 22.0409L27.4692 22.0017L27.6102 22.0076V21.9116H27.9598L27.8662 22.9181L27.8531 23.0422L27.8036 23.6032L27.7911 23.7246V23.7601L27.4131 27.9157H26.9316L27.0508 26.5716L27.3276 23.5764L27.3738 23.025L27.4397 22.3367L27.466 22.0409Z" fill="#E9A39B"/>
<path d="M28.3421 13.9521L27.7654 20.2897L27.7324 20.6588H27.9302L28.5333 14.0214C28.4706 13.9983 28.408 13.9719 28.3421 13.9521Z" fill="#E9A39B"/>
<path fill-rule="evenodd" clip-rule="evenodd" d="M28.2637 13.8348C28.2989 13.811 28.3429 13.8043 28.3836 13.8165C28.4354 13.8321 28.4885 13.8524 28.5345 13.8701C28.5518 13.8768 28.5681 13.883 28.5829 13.8885C28.643 13.9106 28.6807 13.9703 28.6749 14.034L28.0718 20.6714C28.0652 20.7443 28.0041 20.8001 27.931 20.8001H27.7332C27.6935 20.8001 27.6557 20.7834 27.6289 20.7541C27.6021 20.7248 27.5888 20.6856 27.5924 20.6461L28.2021 13.9391C28.2059 13.8969 28.2286 13.8586 28.2637 13.8348Z" fill="#E9A39B"/>
<path d="M25.6865 13.8368L27.0443 20.6588H27.2454L25.881 13.8071C25.8151 13.817 25.7524 13.8236 25.6865 13.8368Z" fill="#E9A39B"/>
<path fill-rule="evenodd" clip-rule="evenodd" d="M25.8598 13.6676C25.9345 13.6564 26.0048 13.7058 26.0195 13.7798L27.3839 20.6315C27.3922 20.6731 27.3814 20.7161 27.3545 20.7488C27.3277 20.7816 27.2876 20.8006 27.2452 20.8006H27.0442C26.9767 20.8006 26.9187 20.7529 26.9055 20.6867L25.5477 13.8647C25.5324 13.7882 25.5821 13.7137 25.6586 13.6984C25.7081 13.6886 25.7591 13.6816 25.8052 13.6753C25.8244 13.6727 25.8428 13.6702 25.8598 13.6676Z" fill="#E9A39B"/>
<path d="M28.6584 27.7745H28.4573L27.8674 24.8018L27.7092 24.001L27.6499 23.7175V23.6978L27.6268 23.589L27.6103 23.4967L27.5148 23.0386L27.3203 22.0532H27.5213L27.5807 22.3498L27.6235 22.564L27.7092 22.9958L27.7125 23.0287L27.8081 23.4967L27.8278 23.589L27.841 23.6714L28.6584 27.7745Z" fill="#E9A39B"/>
<path fill-rule="evenodd" clip-rule="evenodd" d="M27.1484 21.9116H27.6375L27.7195 22.3219L27.7624 22.5361L27.8494 22.9747L27.8527 23.0073L27.9467 23.4676L27.9671 23.5628L27.9804 23.6462L28.8309 27.9157H28.3414L27.5708 24.029L27.5086 23.732V23.7124L27.4877 23.6137L27.4717 23.5234L27.3762 23.0658L27.1484 21.9116Z" fill="#E9A39B"/>
<path d="M31.8658 24.1982C31.5099 23.783 30.7618 23.46 30.2213 23.2722C29.8489 23.1436 29.5885 22.7185 29.5885 22.2373V22.0528H29.6577C29.6676 22.0528 29.6775 22.0495 29.6874 22.0495C29.7269 22.0429 29.7632 22.0297 29.7961 22.0066C29.7994 22.0033 29.8027 22 29.806 22C29.8159 21.9901 29.8225 21.9868 29.8291 21.9803C29.839 21.9704 29.8423 21.9671 29.8456 21.9605C29.8555 21.9506 29.8686 21.9308 29.8752 21.9176C29.9049 21.8682 29.9181 21.8089 29.9181 21.7463V20.9619C29.9181 20.896 29.9049 20.84 29.8752 20.7905C29.8653 20.7707 29.8522 20.7543 29.8357 20.7378C29.8258 20.7279 29.8093 20.7147 29.7961 20.7048C29.7665 20.6851 29.7269 20.6686 29.6874 20.662C29.6742 20.6587 29.6577 20.6587 29.6445 20.6587H26.0193C25.9435 20.6587 25.8743 20.6884 25.8282 20.7378C25.8117 20.7543 25.7985 20.7707 25.7886 20.7905C25.7589 20.84 25.7458 20.8993 25.7458 20.9619V21.7463C25.7458 21.8089 25.7589 21.8682 25.7886 21.9176C25.7985 21.9308 25.8084 21.9473 25.8183 21.9605C25.8216 21.9671 25.8282 21.9704 25.8314 21.9737C25.8776 22.0198 25.9402 22.0462 26.0061 22.0495H26.0753V22.2373C26.0753 22.7185 25.8183 23.1403 25.4459 23.2722C24.8955 23.4699 24.1177 23.8028 23.7585 24.2411C23.1356 24.9892 22.75 26.0405 22.75 27.2039V35.0245C22.75 35.7924 23.2542 36.412 23.8738 36.412H31.79C32.4096 36.412 32.9138 35.7891 32.9138 35.0245V27.2039C32.9171 26.0207 32.5118 24.9529 31.8658 24.1982ZM31.9317 27.774H23.2608V27.2698C23.2608 25.2364 24.9054 23.5885 26.9421 23.5885H27.4694L27.5188 23.0415L27.3244 22.0528H27.6111L27.6144 22.0132L27.6177 22.0528H27.8088L27.8121 22.0264V22.0528H28.1022L27.8418 23.3578L27.8484 23.5885H28.7349C28.791 23.5885 28.8437 23.5918 28.8997 23.5951C30.5904 23.694 31.9383 25.299 31.9383 27.2731V27.774H31.9317Z" fill="#E9A39B"/>
<path d="M25.7919 20.7905C25.7622 20.84 25.749 20.8993 25.749 20.9619V20.9322C25.749 20.8795 25.7622 20.8301 25.7919 20.7905Z" fill="#E9A39B"/>
<path d="M25.7919 21.9209C25.7622 21.8813 25.749 21.8319 25.749 21.7792V21.7495C25.749 21.8088 25.7622 21.8682 25.7919 21.9209Z" fill="#E9A39B"/>
<path d="M27.6097 22.0527H27.6064L27.6097 22.0132V22.0527Z" fill="#E9A39B"/>
<path d="M27.808 22.0264V22.0527H27.8047L27.808 22.0264Z" fill="#E9A39B"/>
<path d="M29.9208 21.7466V21.7762C29.9208 21.829 29.9076 21.8784 29.8779 21.918C29.9043 21.8685 29.9208 21.8092 29.9208 21.7466Z" fill="#E9A39B"/>
<path d="M29.9208 20.9322V20.9619C29.9208 20.896 29.9076 20.84 29.8779 20.7905C29.9043 20.8301 29.9208 20.8795 29.9208 20.9322Z" fill="#E9A39B"/>
<path d="M32.8025 42.4841C32.7431 42.4841 32.7194 42.4446 32.755 42.3853C33.016 41.9423 33.5381 40.9971 33.5381 40.8073C33.5381 40.744 33.5104 40.7084 33.4392 40.7084C33.364 40.7084 33.2256 40.7915 33.0635 40.9418L33.0279 40.9022C33.3561 40.5977 33.5855 40.4751 33.7318 40.4751C33.89 40.4751 33.9454 40.5858 33.9454 40.6807C33.9454 40.7796 33.8821 40.9576 33.7951 41.1632C34.0759 40.7638 34.3883 40.4751 34.772 40.4751C34.859 40.4751 35.0448 40.4949 35.0448 40.57C35.0448 40.6649 34.9064 40.8587 34.7482 40.8587C34.6138 40.8587 34.4714 40.831 34.2262 40.7598C34.0403 40.8983 33.807 41.2028 33.5934 41.5864C33.4115 41.9463 33.2098 42.2983 33.1228 42.4288C33.0991 42.4683 33.0714 42.4841 33.0279 42.4841H32.8025Z" fill="#A98B83"/>
<path d="M31.6231 42.5118C31.2671 42.5157 31.1445 42.2349 31.1445 42.0451C31.1445 41.353 32.0462 40.4751 32.6948 40.479C32.9005 40.479 32.9993 40.5818 32.9993 40.7242C32.9993 40.9971 32.7106 41.2344 31.5598 41.9581C31.5954 42.144 31.7338 42.2508 31.9315 42.2508C32.0897 42.2508 32.2479 42.2033 32.4813 42.0016L32.5168 42.0372C32.1846 42.3299 31.8287 42.5118 31.6231 42.5118ZM31.5519 41.883V41.8988C32.4022 41.3649 32.5999 41.1237 32.5999 40.8666C32.5999 40.744 32.5208 40.6451 32.3666 40.6451C31.9474 40.6451 31.5321 41.3609 31.5519 41.883Z" fill="#A98B83"/>
<path d="M29.9078 42.5118C29.5439 42.5118 29.4846 42.3417 29.4965 42.2191C29.5084 42.0728 29.6547 41.9265 29.9157 41.8039L29.9434 41.8276C29.892 41.8988 29.8445 41.9858 29.8445 42.0926C29.8445 42.2428 29.9276 42.3813 30.1569 42.3852C30.3547 42.3892 30.5129 42.2389 30.5129 42.0174C30.5129 41.7169 30.1846 41.4044 30.1846 41.1236C30.1846 40.7717 30.6394 40.479 31.1061 40.479C31.2445 40.479 31.4739 40.5146 31.4739 40.5897C31.4739 40.6965 31.375 40.8666 31.1931 40.8666C31.0626 40.8666 30.8569 40.7558 30.6315 40.6372C30.5445 40.6847 30.5168 40.7717 30.5168 40.8547C30.5168 41.175 30.8688 41.4954 30.849 41.8315C30.8293 42.1914 30.2954 42.5118 29.9078 42.5118Z" fill="#A98B83"/>
<path d="M28.7656 42.5158C28.5758 42.5158 28.5244 42.3655 28.5244 42.2666C28.5244 42.0135 28.6628 41.6932 28.8408 41.3649C28.6826 41.5706 28.5244 41.7604 28.3702 41.9265C28.0459 42.2824 27.7532 42.5158 27.5396 42.5158C27.4131 42.5158 27.2549 42.413 27.2549 42.2508C27.2509 41.9146 27.9707 41.0802 27.9707 40.7954C27.9707 40.748 27.9549 40.7084 27.8837 40.7084C27.8086 40.7084 27.6702 40.7915 27.508 40.9418L27.4724 40.9022C27.8007 40.5977 28.03 40.4751 28.1764 40.4751C28.3346 40.4751 28.3899 40.5858 28.3899 40.6807C28.3899 41.0604 27.7057 41.8474 27.7057 42.1401C27.7057 42.2033 27.7453 42.2587 27.8283 42.2587C27.943 42.2587 28.1091 42.1282 28.3267 41.8949C28.556 41.6536 28.8329 41.2977 29.1018 40.918C29.1651 40.8073 29.2323 40.7005 29.2916 40.5977C29.3114 40.5621 29.3391 40.5423 29.3826 40.5423L29.6357 40.5463C29.699 40.5463 29.7187 40.5858 29.6831 40.6412C29.5131 40.918 29.3272 41.2146 29.1848 41.4875C29.0543 41.7525 28.9476 41.9779 28.9476 42.148C28.9476 42.2192 28.9831 42.2627 29.0504 42.2627C29.1374 42.2627 29.2639 42.1757 29.3984 42.0491L29.434 42.0887C29.1057 42.3932 28.8882 42.5158 28.7656 42.5158Z" fill="#A98B83"/>
<path d="M24.7643 43.3066C24.705 43.3066 24.6299 43.3026 24.6299 43.2315C24.6299 43.1168 24.8078 42.9309 24.966 42.9309C25.1045 42.9309 25.2191 42.9625 25.4288 42.9823C25.579 42.9072 25.7451 42.7806 26.0892 41.9976L26.7062 40.6015H26.3898L26.4175 40.5462H26.7299C27.1056 39.7671 28.0508 39.2925 28.6677 39.2925C28.8576 39.2925 28.992 39.3162 28.992 39.3795C28.992 39.4902 28.8259 39.688 28.5807 39.688C28.4186 39.688 28.2367 39.6326 27.9045 39.5337C27.7344 39.597 27.4497 39.8106 27.2321 40.3049L27.1254 40.5462H27.5525L27.5248 40.6015H27.1016L26.6191 41.6891C26.2869 42.4405 25.3615 43.3066 24.7643 43.3066Z" fill="#A98B83"/>
<path d="M23.4499 43.3066C23.3906 43.3066 23.3154 43.3026 23.3154 43.2315C23.3154 43.1168 23.4934 42.9309 23.6516 42.9309C23.79 42.9309 23.9047 42.9625 24.1143 42.9823C24.2646 42.9072 24.4307 42.7806 24.7748 41.9976L25.3917 40.6015H25.0753L25.103 40.5462H25.4154C25.7911 39.7671 26.7363 39.2925 27.3533 39.2925C27.5431 39.2925 27.6776 39.3162 27.6776 39.3795C27.6776 39.4902 27.5115 39.688 27.2663 39.688C27.1041 39.688 26.9222 39.6326 26.59 39.5337C26.4199 39.597 26.1352 39.8106 25.9177 40.3049L25.8109 40.5462H26.238L26.2103 40.6015H25.7872L25.3047 41.6891C24.9725 42.4405 24.0471 43.3066 23.4499 43.3066Z" fill="#A98B83"/>
<path d="M23.6767 42.5156C23.5106 42.5156 23.4434 42.3693 23.4434 42.2506C23.4434 41.8552 24.1631 41.0088 24.1631 40.7953C24.1631 40.7478 24.1473 40.7083 24.0761 40.7083C24.001 40.7083 23.8626 40.7913 23.7004 40.9416L23.6648 40.902C23.9931 40.5975 24.2225 40.4749 24.3688 40.4749C24.527 40.4749 24.5823 40.5857 24.5823 40.6806C24.5823 41.0444 23.9061 41.8275 23.9061 42.0727C23.9061 42.1597 23.9535 42.2032 24.0366 42.2032C24.1078 42.2032 24.1948 42.1755 24.3292 42.0489L24.3648 42.0885C24.0366 42.393 23.823 42.5156 23.6767 42.5156ZM24.5191 40.206L25.1914 39.5614C25.2467 39.51 25.3021 39.4546 25.3377 39.4546C25.3654 39.4546 25.3733 39.4823 25.3733 39.5179C25.3733 39.6049 25.3535 39.6286 25.2547 39.7037L24.5428 40.2376L24.5191 40.206Z" fill="#A98B83"/>
<path d="M21.0074 42.5117C20.7306 42.5117 20.2679 42.492 20.0503 42.4643C20.0108 42.4603 20.0068 42.4524 20.0068 42.4366C20.0068 42.4129 20.1176 42.31 20.2046 42.2389L20.2837 42.1756C20.4181 42.0688 20.4695 41.9422 20.5407 41.8236C20.8888 41.2146 21.0628 40.7439 21.4147 40.1349C21.5176 39.953 21.6164 39.8106 21.8419 39.7038L22.1385 39.5654C22.008 39.5298 21.8695 39.514 21.7311 39.514C21.3752 39.514 21.0509 39.6089 20.778 39.7987L20.7424 39.7513C21.134 39.4784 21.5453 39.2886 22.1029 39.2886C22.8622 39.2886 23.4594 39.8897 23.4594 40.4987C23.4594 41.701 22.1424 42.5117 21.0074 42.5117ZM20.4537 42.1558C20.6356 42.1756 21.1379 42.2072 21.6323 42.2072C22.6012 42.2112 23.0876 41.614 23.0876 40.7914C23.0876 40.1626 22.708 39.7434 22.2057 39.5852C22.0554 39.6959 21.9605 39.8699 21.8735 40.0163C21.5255 40.6134 21.3712 41.0682 21.0311 41.6654C20.9283 41.8473 20.8255 41.9581 20.6396 42.0569L20.4537 42.1558Z" fill="#A98B83"/>
</svg>
