<svg width="56" height="57" viewBox="0 0 56 57" fill="none" xmlns="http://www.w3.org/2000/svg">
<path d="M0 47.7295C0.0659134 47.7164 0.135121 47.7098 0.20433 47.7098C0.74482 47.7098 1.18645 48.0987 1.18645 48.5765C1.18645 49.0544 0.748115 49.4433 0.20433 49.4433C0.135121 49.4433 0.0659134 49.4367 0 49.4235V50.7451C0.0659134 50.7319 0.135121 50.7253 0.20433 50.7253C0.74482 50.7253 1.18645 51.1142 1.18645 51.5921C1.18645 52.0699 0.748115 52.4588 0.20433 52.4588C0.135121 52.4588 0.0659134 52.4522 0 52.439V53.7606C0.0659134 53.7474 0.135121 53.7408 0.20433 53.7408C0.74482 53.7408 1.18645 54.1297 1.18645 54.6076C1.18645 55.0855 0.748115 55.4744 0.20433 55.4744C0.135121 55.4744 0.0659134 55.4678 0 55.4546V56.9607H2.62996C2.597 56.875 2.57722 56.786 2.57722 56.6905C2.57722 56.2126 3.01553 55.8237 3.55932 55.8237C4.1031 55.8237 4.54144 56.2126 4.54144 56.6905C4.54144 56.786 4.51836 56.875 4.4887 56.9607H6.15961C6.12665 56.875 6.10688 56.786 6.10688 56.6905C6.10688 56.2126 6.5452 55.8237 7.08899 55.8237C7.63277 55.8237 8.07109 56.2126 8.07109 56.6905C8.07109 56.786 8.04803 56.875 8.01837 56.9607H9.68927C9.65632 56.875 9.63653 56.786 9.63653 56.6905C9.63653 56.2126 10.0749 55.8237 10.6187 55.8237C11.1591 55.8237 11.6008 56.2126 11.6008 56.6905C11.6008 56.786 11.5777 56.875 11.548 56.9607H13.2189C13.186 56.875 13.1662 56.786 13.1662 56.6905C13.1662 56.2126 13.6045 55.8237 14.1483 55.8237C14.6888 55.8237 15.1304 56.2126 15.1304 56.6905C15.1304 56.786 15.1073 56.875 15.0777 56.9607H16.7486C16.7156 56.875 16.6959 56.786 16.6959 56.6905C16.6959 56.2126 17.1342 55.8237 17.678 55.8237C18.2185 55.8237 18.6601 56.2126 18.6601 56.6905C18.6601 56.786 18.637 56.875 18.6074 56.9607H20.2783C20.2453 56.875 20.2255 56.786 20.2255 56.6905C20.2255 56.2126 20.6639 55.8237 21.2076 55.8237C21.7481 55.8237 22.1897 56.2126 22.1897 56.6905C22.1897 56.786 22.1667 56.875 22.137 56.9607H23.8079C23.775 56.875 23.7552 56.786 23.7552 56.6905C23.7552 56.2126 24.1935 55.8237 24.7373 55.8237C25.2778 55.8237 25.7194 56.2126 25.7194 56.6905C25.7194 56.786 25.6963 56.875 25.6667 56.9607H27.3376C27.3046 56.875 27.2849 56.786 27.2849 56.6905C27.2849 56.2126 27.7232 55.8237 28.267 55.8237C28.8107 55.8237 29.2491 56.2126 29.2491 56.6905C29.2491 56.786 29.226 56.875 29.1963 56.9607H30.8672C30.8343 56.875 30.8145 56.786 30.8145 56.6905C30.8145 56.2126 31.2528 55.8237 31.7966 55.8237C32.3371 55.8237 32.7787 56.2126 32.7787 56.6905C32.7787 56.786 32.7556 56.875 32.726 56.9607H34.3969C34.3639 56.875 34.3442 56.786 34.3442 56.6905C34.3442 56.2126 34.7825 55.8237 35.3263 55.8237C35.8668 55.8237 36.3084 56.2126 36.3084 56.6905C36.3084 56.786 36.2853 56.875 36.2557 56.9607H37.9266C37.8936 56.875 37.8738 56.786 37.8738 56.6905C37.8738 56.2126 38.3122 55.8237 38.8559 55.8237C39.3964 55.8237 39.838 56.2126 39.838 56.6905C39.838 56.786 39.815 56.875 39.7853 56.9607H41.4562C41.4233 56.875 41.4035 56.786 41.4035 56.6905C41.4035 56.2126 41.8418 55.8237 42.3856 55.8237C42.9294 55.8237 43.3677 56.2126 43.3677 56.6905C43.3677 56.786 43.3446 56.875 43.315 56.9607H44.9859C44.9529 56.875 44.9332 56.786 44.9332 56.6905C44.9332 56.2126 45.3715 55.8237 45.9153 55.8237C46.4558 55.8237 46.8974 56.2126 46.8974 56.6905C46.8974 56.786 46.8743 56.875 46.8446 56.9607H48.5155C48.4826 56.875 48.4628 56.786 48.4628 56.6905C48.4628 56.2126 48.9011 55.8237 49.4449 55.8237C49.9854 55.8237 50.427 56.2126 50.427 56.6905C50.427 56.786 50.404 56.875 50.3743 56.9607H52.0452C52.0122 56.875 51.9925 56.786 51.9925 56.6905C51.9925 56.2126 52.4308 55.8237 52.9746 55.8237C53.5151 55.8237 53.9567 56.2126 53.9567 56.6905C53.9567 56.786 53.9336 56.875 53.904 56.9607H56V55.4744C55.4595 55.4744 55.0179 55.0855 55.0179 54.6076C55.0179 54.1297 55.4562 53.7408 56 53.7408V52.4588C55.4595 52.4588 55.0179 52.0699 55.0179 51.5921C55.0179 51.1142 55.4562 50.7253 56 50.7253V49.4433C55.4595 49.4433 55.0179 49.0544 55.0179 48.5765C55.0179 48.0987 55.4562 47.7098 56 47.7098V47.6999V46.4179C55.4595 46.4179 55.0179 46.029 55.0179 45.5511C55.0179 45.0732 55.4562 44.6843 56 44.6843V43.4023C55.4595 43.4023 55.0179 43.0134 55.0179 42.5356C55.0179 42.0577 55.4562 41.6688 56 41.6688V40.3868C55.4595 40.3868 55.0179 39.9979 55.0179 39.52C55.0179 39.0422 55.4562 38.6533 56 38.6533V37.3712C55.4595 37.3712 55.0179 36.9824 55.0179 36.5045C55.0179 36.0266 55.4562 35.6377 56 35.6377V34.3557C55.4595 34.3557 55.0179 33.9668 55.0179 33.4889C55.0179 33.0111 55.4562 32.6222 56 32.6222V31.3402C55.4595 31.3402 55.0179 30.9513 55.0179 30.4734C55.0179 29.9955 55.4562 29.6067 56 29.6067V28.3246C55.4595 28.3246 55.0179 27.9357 55.0179 27.4579C55.0179 26.98 55.4562 26.5911 56 26.5911V25.3091C55.4595 25.3091 55.0179 24.9202 55.0179 24.4423C55.0179 23.9645 55.4562 23.5756 56 23.5756V22.2936C55.4595 22.2936 55.0179 21.9047 55.0179 21.4268C55.0179 20.9489 55.4562 20.56 56 20.56V19.278C55.4595 19.278 55.0179 18.8891 55.0179 18.4113C55.0179 17.9334 55.4562 17.5445 56 17.5445V16.2625C55.4595 16.2625 55.0179 15.8736 55.0179 15.3957C55.0179 14.9179 55.4562 14.529 56 14.529V13.2469C55.4595 13.2469 55.0179 12.8581 55.0179 12.3802C55.0179 11.9023 55.4562 11.5134 56 11.5134V10.2314C55.4595 10.2314 55.0179 9.84252 55.0179 9.36465C55.0179 8.88678 55.4562 8.49789 56 8.49789V7.21588C55.4595 7.21588 55.0179 6.82699 55.0179 6.34911C55.0179 5.87124 55.4562 5.48235 56 5.48235V4.20034C55.4595 4.20034 55.0179 3.81145 55.0179 3.33358C55.0179 2.85571 55.4562 2.46682 56 2.46682V0.980469H53.9567C53.9567 1.45834 53.5184 1.84723 52.9746 1.84723C52.4341 1.84723 51.9925 1.45834 51.9925 0.980469H50.4303C50.4303 1.45834 49.992 1.84723 49.4482 1.84723C48.9077 1.84723 48.4661 1.45834 48.4661 0.980469H46.904C46.904 1.45834 46.4656 1.84723 45.9219 1.84723C45.3814 1.84723 44.9397 1.45834 44.9397 0.980469H43.3776C43.3776 1.45834 42.9393 1.84723 42.3955 1.84723C41.8517 1.84723 41.4134 1.45834 41.4134 0.980469H39.8512C39.8512 1.45834 39.4129 1.84723 38.8691 1.84723C38.3286 1.84723 37.887 1.45834 37.887 0.980469H36.3249C36.3249 1.45834 35.8865 1.84723 35.3428 1.84723C34.8023 1.84723 34.3606 1.45834 34.3606 0.980469H32.7985C32.7985 1.45834 32.3602 1.84723 31.8164 1.84723C31.2759 1.84723 30.8343 1.45834 30.8343 0.980469H29.2721C29.2721 1.45834 28.8338 1.84723 28.29 1.84723C27.7462 1.84723 27.3079 1.45834 27.3079 0.980469H25.7458C25.7458 1.45834 25.3074 1.84723 24.7637 1.84723C24.2232 1.84723 23.7816 1.45834 23.7816 0.980469H22.2194C22.2194 1.45834 21.7811 1.84723 21.2373 1.84723C20.6968 1.84723 20.2552 1.45834 20.2552 0.980469H18.693C18.693 1.45834 18.2547 1.84723 17.7109 1.84723C17.1704 1.84723 16.7288 1.45834 16.7288 0.980469H15.1667C15.1667 1.45834 14.7284 1.84723 14.1846 1.84723C13.6441 1.84723 13.2024 1.45834 13.2024 0.980469H11.6403C11.6403 1.45834 11.202 1.84723 10.6582 1.84723C10.1177 1.84723 9.67608 1.45834 9.67608 0.980469H8.11394C8.11394 1.45834 7.67562 1.84723 7.13183 1.84723C6.58805 1.84723 6.14973 1.45834 6.14973 0.980469H4.58757C4.58757 1.45834 4.14925 1.84723 3.60546 1.84723C3.06168 1.84723 2.62336 1.45834 2.62336 0.980469H0.0494431V2.48659C0.115356 2.47341 0.184564 2.46682 0.253773 2.46682C0.794263 2.46682 1.23588 2.85571 1.23588 3.33358C1.23588 3.81145 0.797558 4.20034 0.253773 4.20034C0.184564 4.20034 0.115356 4.19375 0.0494431 4.18057V5.50213C0.115356 5.48894 0.184564 5.48235 0.253773 5.48235C0.794263 5.48235 1.23588 5.87124 1.23588 6.34911C1.23588 6.82699 0.797558 7.21588 0.253773 7.21588C0.184564 7.21588 0.115356 7.20928 0.0494431 7.1961V8.51766C0.115356 8.50448 0.184564 8.49789 0.253773 8.49789C0.794263 8.49789 1.23588 8.88678 1.23588 9.36465C1.23588 9.84252 0.797558 10.2314 0.253773 10.2314C0.184564 10.2314 0.115356 10.2248 0.0494431 10.2116V11.5332C0.115356 11.52 0.184564 11.5134 0.253773 11.5134C0.794263 11.5134 1.23588 11.9023 1.23588 12.3802C1.23588 12.8581 0.797558 13.2469 0.253773 13.2469C0.184564 13.2469 0.115356 13.2404 0.0494431 13.2272V14.5487C0.115356 14.5356 0.184564 14.529 0.253773 14.529C0.794263 14.529 1.23588 14.9179 1.23588 15.3957C1.23588 15.8736 0.797558 16.2625 0.253773 16.2625C0.184564 16.2625 0.115356 16.2559 0.0494431 16.2427V17.5643C0.115356 17.5511 0.184564 17.5445 0.253773 17.5445C0.794263 17.5445 1.23588 17.9334 1.23588 18.4113C1.23588 18.8891 0.797558 19.278 0.253773 19.278C0.184564 19.278 0.115356 19.2714 0.0494431 19.2582V20.5798C0.115356 20.5666 0.184564 20.56 0.253773 20.56C0.794263 20.56 1.23588 20.9489 1.23588 21.4268C1.23588 21.9047 0.797558 22.2936 0.253773 22.2936C0.184564 22.2936 0.115356 22.287 0.0494431 22.2738V23.5954C0.115356 23.5822 0.184564 23.5756 0.253773 23.5756C0.794263 23.5756 1.23588 23.9645 1.23588 24.4423C1.23588 24.9202 0.797558 25.3091 0.253773 25.3091C0.184564 25.3091 0.115356 25.3025 0.0494431 25.2893V26.6109C0.115356 26.5977 0.184564 26.5911 0.253773 26.5911C0.794263 26.5911 1.23588 26.98 1.23588 27.4579C1.23588 27.9357 0.797558 28.3246 0.253773 28.3246C0.184564 28.3246 0.115356 28.318 0.0494431 28.3049V29.6264C0.115356 29.6132 0.184564 29.6067 0.253773 29.6067C0.794263 29.6067 1.23588 29.9955 1.23588 30.4734C1.23588 30.9513 0.797558 31.3402 0.253773 31.3402C0.184564 31.3402 0.115356 31.3336 0.0494431 31.3204V32.642C0.115356 32.6288 0.184564 32.6222 0.253773 32.6222C0.794263 32.6222 1.23588 33.0111 1.23588 33.4889C1.23588 33.9668 0.797558 34.3557 0.253773 34.3557C0.184564 34.3557 0.115356 34.3491 0.0494431 34.3359V35.6575C0.115356 35.6443 0.184564 35.6377 0.253773 35.6377C0.794263 35.6377 1.23588 36.0266 1.23588 36.5045C1.23588 36.9824 0.797558 37.3712 0.253773 37.3712C0.184564 37.3712 0.115356 37.3647 0.0494431 37.3515V38.673C0.115356 38.6599 0.184564 38.6533 0.253773 38.6533C0.794263 38.6533 1.23588 39.0422 1.23588 39.52C1.23588 39.9979 0.797558 40.3868 0.253773 40.3868C0.184564 40.3868 0.115356 40.3802 0.0494431 40.367V41.6886C0.115356 41.6754 0.184564 41.6688 0.253773 41.6688C0.794263 41.6688 1.23588 42.0577 1.23588 42.5356C1.23588 43.0134 0.797558 43.4023 0.253773 43.4023C0.184564 43.4023 0.115356 43.3957 0.0494431 43.3825V44.7041C0.115356 44.6909 0.184564 44.6843 0.253773 44.6843C0.794263 44.6843 1.23588 45.0732 1.23588 45.5511C1.23588 46.029 0.797558 46.4179 0.253773 46.4179C0.184564 46.4179 0.115356 46.4113 0.0494431 46.3981V47.7196C0.115356 47.7065 0.184564 47.6999 0.253773 47.6999" fill="#A98B83"/>
<path d="M52.4142 8.82441V48.0396C50.0084 48.1846 48.0969 50.1883 48.0969 52.6271C48.0969 52.8875 48.1199 53.1512 48.1694 53.4181H7.75459C7.80402 53.1512 7.82708 52.8875 7.82708 52.6271C7.82708 50.1883 5.9156 48.1846 3.50977 48.0396V8.82441C5.82333 8.68269 7.67879 6.82723 7.81721 4.51367H48.1035C48.2452 6.82723 50.1006 8.68269 52.4142 8.82441Z" fill="white"/>
<path d="M52.4142 8.82441V48.0396C50.0084 48.1846 48.0969 50.1883 48.0969 52.6271C48.0969 52.8875 48.1199 53.1512 48.1694 53.4181H7.75459C7.80402 53.1512 7.82708 52.8875 7.82708 52.6271C7.82708 50.1883 5.9156 48.1846 3.50977 48.0396V8.82441C5.82333 8.68269 7.67879 6.82723 7.81721 4.51367H48.1035C48.2452 6.82723 50.1006 8.68269 52.4142 8.82441Z" fill="#AB8C85"/>
<path d="M52.694 8.27045C50.4662 8.27045 48.6569 6.46113 48.6569 4.23326C48.6569 4.07836 48.5316 3.95312 48.3767 3.95312H7.54668C7.39178 3.95312 7.26654 4.07836 7.26654 4.23326C7.26654 6.46113 5.45392 8.27045 3.22934 8.27045C3.07445 8.27045 2.94922 8.39569 2.94922 8.55058V48.3128C2.94922 48.4644 3.07445 48.593 3.22934 48.593C5.45392 48.593 7.26654 50.4023 7.26654 52.6269C7.26654 52.9531 7.22041 53.2893 7.13472 53.6287C7.11495 53.7144 7.13141 53.8034 7.18415 53.8693C7.23688 53.9385 7.31929 53.9781 7.40827 53.9781H48.5151C48.6008 53.9781 48.6832 53.9385 48.7359 53.8693C48.7887 53.8034 48.8085 53.7144 48.7854 53.6287C48.6997 53.2893 48.6569 52.9531 48.6569 52.6269C48.6569 50.4023 50.4662 48.593 52.694 48.593C52.8489 48.593 52.9742 48.4644 52.9742 48.3128V8.55058C52.9742 8.39569 52.8489 8.27045 52.694 8.27045ZM52.4139 48.0393C50.0081 48.1843 48.0966 50.1881 48.0966 52.6269C48.0966 52.8872 48.1197 53.1509 48.1691 53.4178H7.75431C7.80374 53.1509 7.8268 52.8872 7.8268 52.6269C7.8268 50.1881 5.91532 48.1843 3.50949 48.0393V8.82412C5.82305 8.68241 7.67851 6.82695 7.81693 4.51339H48.1032C48.2449 6.82695 50.1004 8.68241 52.4139 8.82412V48.0393Z" fill="#F1DFC1"/>
<path d="M52.3278 8.9162V48.1347C51.1607 48.2098 50.0658 48.7253 49.2643 49.577C48.4629 50.4286 48.0147 51.5528 48.0104 52.7222C48.0104 52.9875 48.0346 53.2523 48.083 53.5132H7.66816C7.71649 53.2523 7.74076 52.9875 7.74067 52.7222C7.73746 51.5544 7.29149 50.4311 6.49271 49.5791C5.69393 48.7272 4.60177 48.2098 3.43652 48.1314V8.91291C4.55115 8.83539 5.59978 8.35604 6.38772 7.56386C7.17566 6.77168 7.64936 5.72049 7.72089 4.60547H48.017C48.0885 5.72531 48.5656 6.78072 49.3591 7.57418C50.1525 8.36764 51.2079 8.84474 52.3278 8.9162Z" fill="white"/>
<path d="M27.9626 7.3212C28.3157 7.3212 28.602 7.03495 28.602 6.68184C28.602 6.32873 28.3157 6.04248 27.9626 6.04248C27.6095 6.04248 27.3232 6.32873 27.3232 6.68184C27.3232 7.03495 27.6095 7.3212 27.9626 7.3212Z" fill="#F5CBD9"/>
<path d="M27.963 9.21305C27.8839 9.21305 27.8213 9.15043 27.8213 9.07133V8.09582C27.8213 8.01672 27.8839 7.9541 27.963 7.9541C28.0421 7.9541 28.1047 8.01672 28.1047 8.09582V9.07133C28.1014 9.15043 28.0388 9.21305 27.963 9.21305Z" fill="#F5CBD9"/>
<path d="M27.963 11.8991C27.8839 11.8991 27.8213 11.8365 27.8213 11.7574V9.67785C27.8213 9.59875 27.8839 9.53613 27.963 9.53613C28.0421 9.53613 28.1047 9.59875 28.1047 9.67785V11.7574C28.1014 11.8365 28.0388 11.8991 27.963 11.8991Z" fill="#F5CBD9"/>
<path d="M29.1593 8.89323C29.1098 8.89323 29.0637 8.86687 29.0373 8.82403L28.5496 7.97704C28.51 7.91112 28.5331 7.82544 28.6023 7.78589C28.6682 7.74634 28.7539 7.76941 28.7934 7.83862L29.2812 8.68561C29.3208 8.75152 29.2977 8.83721 29.2285 8.87676C29.2054 8.88664 29.1823 8.89323 29.1593 8.89323Z" fill="#F5CBD9"/>
<path d="M30.5006 11.2202C30.4512 11.2202 30.4051 11.1938 30.3787 11.151L29.3406 9.35155C29.301 9.28564 29.3241 9.19995 29.3933 9.1604C29.4592 9.12085 29.5449 9.14392 29.5845 9.21313L30.6226 11.0126C30.6621 11.0785 30.6391 11.1642 30.5699 11.2037C30.5501 11.2136 30.5237 11.2202 30.5006 11.2202Z" fill="#F5CBD9"/>
<path d="M30.0326 8.02C30.0095 8.02 29.9831 8.0134 29.9633 8.00022L29.1196 7.51246C29.0537 7.47291 29.0307 7.38723 29.0669 7.32131C29.1065 7.2554 29.1922 7.23233 29.2581 7.26858L30.1018 7.75634C30.1677 7.79589 30.1907 7.88158 30.1545 7.94749C30.1281 7.99363 30.082 8.02 30.0326 8.02Z" fill="#F5CBD9"/>
<path d="M31.3042 8.75157C31.2811 8.75157 31.2547 8.74498 31.235 8.73179L30.4868 8.30006C30.4209 8.26051 30.3979 8.17483 30.4341 8.10891C30.4737 8.043 30.5593 8.01993 30.6252 8.05618L31.3734 8.48792C31.4393 8.52746 31.4623 8.61315 31.4261 8.67906C31.3997 8.7285 31.3536 8.75157 31.3042 8.75157Z" fill="#F5CBD9"/>
<path d="M30.3565 6.82347H29.381C29.3019 6.82347 29.2393 6.76085 29.2393 6.68175C29.2393 6.60266 29.3019 6.54004 29.381 6.54004H30.3565C30.4356 6.54004 30.4982 6.60266 30.4982 6.68175C30.4949 6.76085 30.4323 6.82347 30.3565 6.82347Z" fill="#F5CBD9"/>
<path d="M32.8735 6.82396H30.962C30.8829 6.82396 30.8203 6.76134 30.8203 6.68224C30.8203 6.60315 30.8829 6.54053 30.962 6.54053H32.8735C32.9526 6.54053 33.0152 6.60315 33.0152 6.68224C33.0119 6.76134 32.9493 6.82396 32.8735 6.82396Z" fill="#F5CBD9"/>
<path d="M26.544 6.82347H25.5685C25.4894 6.82347 25.4268 6.76085 25.4268 6.68175C25.4268 6.60266 25.4894 6.54004 25.5685 6.54004H26.544C26.6231 6.54004 26.6857 6.60266 26.6857 6.68175C26.6857 6.76085 26.6231 6.82347 26.544 6.82347Z" fill="#F5CBD9"/>
<path d="M24.9624 6.82396H23.0509C22.9718 6.82396 22.9092 6.76134 22.9092 6.68224C22.9092 6.60315 22.9718 6.54053 23.0509 6.54053H24.9624C25.0415 6.54053 25.1041 6.60315 25.1041 6.68224C25.1041 6.76134 25.0415 6.82396 24.9624 6.82396Z" fill="#F5CBD9"/>
<path d="M25.8893 8.01984C25.8398 8.01984 25.7937 7.99348 25.7673 7.95064C25.7278 7.88472 25.7509 7.79903 25.8201 7.75949L26.6638 7.27173C26.7297 7.23218 26.8154 7.25525 26.8549 7.32446C26.8944 7.39037 26.8714 7.47606 26.8022 7.51561L25.9585 8.00337C25.9387 8.01326 25.9123 8.01984 25.8893 8.01984Z" fill="#F5CBD9"/>
<path d="M24.6637 8.72505C24.6143 8.72505 24.5681 8.69869 24.5418 8.65584C24.5022 8.58993 24.5253 8.50424 24.5945 8.46469L25.2965 8.05933C25.3624 8.01978 25.4481 8.04285 25.4876 8.11206C25.5272 8.17797 25.5041 8.26366 25.4349 8.30321L24.7329 8.70857C24.7131 8.72176 24.6868 8.72505 24.6637 8.72505Z" fill="#F5CBD9"/>
<path d="M26.765 8.89338C26.742 8.89338 26.7156 8.88679 26.6958 8.87361C26.6299 8.83406 26.6068 8.74837 26.6431 8.68246L27.1308 7.83547C27.1704 7.76956 27.2561 7.74649 27.322 7.78274C27.3879 7.82229 27.411 7.90798 27.3747 7.97389L26.887 8.82088C26.8606 8.87031 26.8112 8.89338 26.765 8.89338Z" fill="#F5CBD9"/>
<path d="M25.4203 11.2199C25.3972 11.2199 25.3709 11.2133 25.3511 11.2001C25.2852 11.1605 25.2621 11.0748 25.2984 11.0089L26.3398 9.2095C26.3793 9.14358 26.465 9.12051 26.5309 9.15677C26.5969 9.19632 26.6199 9.282 26.5837 9.34792L25.5422 11.1474C25.5159 11.1935 25.4697 11.2199 25.4203 11.2199Z" fill="#F5CBD9"/>
<path d="M27.9626 51.892C28.3157 51.892 28.602 51.6058 28.602 51.2526C28.602 50.8995 28.3157 50.6133 27.9626 50.6133C27.6095 50.6133 27.3232 50.8995 27.3232 51.2526C27.3232 51.6058 27.6095 51.892 27.9626 51.892Z" fill="#F5CBD9"/>
<path d="M27.963 49.9772C27.8839 49.9772 27.8213 49.9146 27.8213 49.8355V48.86C27.8213 48.7809 27.8839 48.7183 27.963 48.7183C28.0421 48.7183 28.1047 48.7809 28.1047 48.86V49.8355C28.1014 49.9146 28.0388 49.9772 27.963 49.9772Z" fill="#F5CBD9"/>
<path d="M27.963 48.3952C27.8839 48.3952 27.8213 48.3326 27.8213 48.2535V46.1739C27.8213 46.0948 27.8839 46.0322 27.963 46.0322C28.0421 46.0322 28.1047 46.0948 28.1047 46.1739V48.2535C28.1014 48.3326 28.0388 48.3952 27.963 48.3952Z" fill="#F5CBD9"/>
<path d="M27.252 50.1653C27.2026 50.1653 27.1565 50.139 27.1301 50.0961L26.6423 49.2524C26.6028 49.1865 26.6258 49.1008 26.6951 49.0613C26.761 49.0217 26.8467 49.0448 26.8862 49.114L27.374 49.9577C27.4135 50.0236 27.3905 50.1093 27.3212 50.1489C27.2982 50.1587 27.2751 50.1653 27.252 50.1653Z" fill="#F5CBD9"/>
<path d="M26.4639 48.7973C26.4145 48.7973 26.3683 48.771 26.342 48.7281L25.3005 46.9287C25.261 46.8628 25.2841 46.7771 25.3533 46.7375C25.4192 46.698 25.5049 46.7211 25.5444 46.7903L26.5858 48.5897C26.6254 48.6556 26.6023 48.7413 26.5331 48.7809C26.51 48.7907 26.487 48.7973 26.4639 48.7973Z" fill="#F5CBD9"/>
<path d="M26.7357 50.686C26.7126 50.686 26.6862 50.6794 26.6665 50.6662L25.8228 50.1785C25.7569 50.1389 25.7338 50.0532 25.7701 49.9873C25.8096 49.9214 25.8953 49.8983 25.9612 49.9346L26.8049 50.4224C26.8708 50.4619 26.8939 50.5476 26.8576 50.6135C26.8313 50.6596 26.7818 50.686 26.7357 50.686Z" fill="#F5CBD9"/>
<path d="M25.3667 49.8951C25.3436 49.8951 25.3172 49.8885 25.2975 49.8753L24.5493 49.4436C24.4834 49.4041 24.4604 49.3184 24.4966 49.2525C24.5362 49.1866 24.6219 49.1635 24.6878 49.1997L25.4359 49.6315C25.5018 49.671 25.5249 49.7567 25.4886 49.8226C25.4622 49.8688 25.4161 49.8951 25.3667 49.8951Z" fill="#F5CBD9"/>
<path d="M26.544 51.3913H25.5685C25.4894 51.3913 25.4268 51.3287 25.4268 51.2496C25.4268 51.1705 25.4894 51.1079 25.5685 51.1079H26.544C26.6231 51.1079 26.6857 51.1705 26.6857 51.2496C26.6857 51.3287 26.6231 51.3913 26.544 51.3913Z" fill="#F5CBD9"/>
<path d="M24.9624 51.3908H23.0509C22.9718 51.3908 22.9092 51.3282 22.9092 51.2491C22.9092 51.17 22.9718 51.1074 23.0509 51.1074H24.9624C25.0415 51.1074 25.1041 51.17 25.1041 51.2491C25.1041 51.3282 25.0415 51.3908 24.9624 51.3908Z" fill="#F5CBD9"/>
<path d="M30.3565 51.3908H29.381C29.3019 51.3908 29.2393 51.3282 29.2393 51.2491C29.2393 51.17 29.3019 51.1074 29.381 51.1074H30.3565C30.4356 51.1074 30.4982 51.17 30.4982 51.2491C30.4982 51.3282 30.4323 51.3908 30.3565 51.3908Z" fill="#F5CBD9"/>
<path d="M32.8735 51.3908H30.962C30.8829 51.3908 30.8203 51.3282 30.8203 51.2491C30.8203 51.17 30.8829 51.1074 30.962 51.1074H32.8735C32.9526 51.1074 33.0152 51.17 33.0152 51.2491C33.0152 51.3282 32.9493 51.3908 32.8735 51.3908Z" fill="#F5CBD9"/>
<path d="M29.1891 50.6859C29.1396 50.6859 29.0935 50.6595 29.0671 50.6167C29.0276 50.5507 29.0507 50.4651 29.1199 50.4255L29.9636 49.9377C30.0295 49.8982 30.1152 49.9213 30.1547 49.9905C30.1943 50.0564 30.1712 50.1421 30.102 50.1816L29.2583 50.6694C29.2352 50.6793 29.2121 50.6859 29.1891 50.6859Z" fill="#F5CBD9"/>
<path d="M30.5602 49.895C30.5108 49.895 30.4646 49.8686 30.4382 49.8258C30.3987 49.7599 30.4218 49.6742 30.491 49.6346L31.193 49.2292C31.2589 49.1897 31.3446 49.2128 31.3841 49.282C31.4237 49.3479 31.4006 49.4336 31.3314 49.4731L30.6294 49.8785C30.6063 49.8884 30.5833 49.895 30.5602 49.895Z" fill="#F5CBD9"/>
<path d="M28.6713 50.165C28.6482 50.165 28.6219 50.1584 28.6021 50.1452C28.5362 50.1057 28.5131 50.02 28.5493 49.9541L29.0371 49.1104C29.0766 49.0445 29.1623 49.0214 29.2282 49.0576C29.2942 49.0972 29.3172 49.1829 29.281 49.2488L28.7932 50.0925C28.7669 50.1419 28.7174 50.165 28.6713 50.165Z" fill="#F5CBD9"/>
<path d="M29.4623 48.7975C29.4392 48.7975 29.4129 48.7909 29.3931 48.7777C29.3272 48.7382 29.3041 48.6525 29.3404 48.5866L30.3785 46.7871C30.418 46.7212 30.5037 46.6982 30.5696 46.7344C30.6356 46.774 30.6586 46.8596 30.6224 46.9255L29.5842 48.725C29.5579 48.7711 29.5084 48.7975 29.4623 48.7975Z" fill="#F5CBD9"/>
<path d="M50.2468 28.3281C49.8941 28.3281 49.6074 28.6148 49.6074 28.9675C49.6074 29.3201 49.8941 29.6068 50.2468 29.6068C50.5994 29.6068 50.8861 29.3201 50.8861 28.9675C50.8861 28.6148 50.5994 28.3281 50.2468 28.3281Z" fill="#F5CBD9"/>
<path d="M48.8291 29.1057H47.8536C47.7745 29.1057 47.7119 29.0431 47.7119 28.964C47.7119 28.8849 47.7745 28.8223 47.8536 28.8223H48.8291C48.9082 28.8223 48.9709 28.8849 48.9709 28.964C48.9709 29.0431 48.9049 29.1057 48.8291 29.1057Z" fill="#F5CBD9"/>
<path d="M47.2467 29.1057H45.1671C45.088 29.1057 45.0254 29.0431 45.0254 28.964C45.0254 28.8849 45.088 28.8223 45.1671 28.8223H47.2467C47.3258 28.8223 47.3884 28.8849 47.3884 28.964C47.3884 29.0431 47.3225 29.1057 47.2467 29.1057Z" fill="#F5CBD9"/>
<path d="M48.1725 30.3021C48.123 30.3021 48.0769 30.2757 48.0505 30.2329C48.011 30.1669 48.0341 30.0813 48.1033 30.0417L48.947 29.554C49.0129 29.5144 49.0986 29.5375 49.1381 29.6067C49.1776 29.6726 49.1546 29.7583 49.0854 29.7978L48.2417 30.2856C48.2219 30.2988 48.1955 30.3021 48.1725 30.3021Z" fill="#F5CBD9"/>
<path d="M45.8453 31.6468C45.7959 31.6468 45.7498 31.6204 45.7234 31.5776C45.6838 31.5116 45.7069 31.426 45.7761 31.3864L47.5756 30.345C47.6415 30.3054 47.7272 30.3285 47.7667 30.3977C47.8063 30.4636 47.7832 30.5493 47.714 30.5889L45.9145 31.6303C45.8948 31.6402 45.8717 31.6468 45.8453 31.6468Z" fill="#F5CBD9"/>
<path d="M49.0492 31.179C49.0261 31.179 48.9998 31.1724 48.98 31.1593C48.9141 31.1197 48.891 31.034 48.9273 30.9681L49.415 30.1211C49.4546 30.0552 49.5403 30.0321 49.6062 30.0684C49.6721 30.1079 49.6952 30.1936 49.6589 30.2595L49.1712 31.1065C49.1448 31.156 49.0954 31.179 49.0492 31.179Z" fill="#F5CBD9"/>
<path d="M48.3158 32.4508C48.2927 32.4508 48.2664 32.4442 48.2466 32.431C48.1807 32.3914 48.1576 32.3058 48.1939 32.2398L48.6256 31.4917C48.6652 31.4258 48.7508 31.4027 48.8168 31.439C48.8827 31.4785 48.9058 31.5642 48.8695 31.6301L48.4378 32.3783C48.4114 32.4244 48.3652 32.4508 48.3158 32.4508Z" fill="#F5CBD9"/>
<path d="M50.2482 31.4987C50.1691 31.4987 50.1064 31.4361 50.1064 31.357V30.3815C50.1064 30.3024 50.1691 30.2397 50.2482 30.2397C50.3273 30.2397 50.3899 30.3024 50.3899 30.3815V31.357C50.3866 31.4361 50.324 31.4987 50.2482 31.4987Z" fill="#F5CBD9"/>
<path d="M50.2482 34.0162C50.1691 34.0162 50.1064 33.9536 50.1064 33.8745V31.963C50.1064 31.8839 50.1691 31.8213 50.2482 31.8213C50.3273 31.8213 50.3899 31.8839 50.3899 31.963V33.8745C50.3866 33.9536 50.324 34.0162 50.2482 34.0162Z" fill="#F5CBD9"/>
<path d="M50.2482 27.6916C50.1691 27.6916 50.1064 27.6289 50.1064 27.5498V26.5743C50.1064 26.4952 50.1691 26.4326 50.2482 26.4326C50.3273 26.4326 50.3899 26.4952 50.3899 26.5743V27.5498C50.3866 27.6289 50.324 27.6916 50.2482 27.6916Z" fill="#F5CBD9"/>
<path d="M50.2482 26.11C50.1691 26.11 50.1064 26.0473 50.1064 25.9682V24.0568C50.1064 23.9777 50.1691 23.915 50.2482 23.915C50.3273 23.915 50.3899 23.9777 50.3899 24.0568V25.9682C50.3866 26.0473 50.324 26.11 50.2482 26.11Z" fill="#F5CBD9"/>
<path d="M49.5372 27.8796C49.4877 27.8796 49.4416 27.8532 49.4152 27.8104L48.9275 26.9634C48.8879 26.8975 48.911 26.8118 48.9802 26.7722C49.0461 26.7327 49.1318 26.7557 49.1714 26.8249L49.6591 27.6719C49.6987 27.7378 49.6756 27.8235 49.6064 27.8631C49.5833 27.8763 49.5603 27.8796 49.5372 27.8796Z" fill="#F5CBD9"/>
<path d="M48.7458 26.5119C48.6964 26.5119 48.6502 26.4855 48.6239 26.4427L48.2185 25.7407C48.179 25.6748 48.202 25.5891 48.2712 25.5496C48.3372 25.51 48.4228 25.5331 48.4624 25.6023L48.8678 26.3043C48.9073 26.3702 48.8842 26.4559 48.815 26.4954C48.7919 26.5053 48.7689 26.5119 48.7458 26.5119Z" fill="#F5CBD9"/>
<path d="M49.0208 28.4004C48.9978 28.4004 48.9714 28.3938 48.9516 28.3806L48.1079 27.8928C48.042 27.8533 48.0189 27.7676 48.0552 27.7017C48.0947 27.6358 48.1804 27.6127 48.2464 27.649L49.09 28.1367C49.156 28.1763 49.179 28.2619 49.1428 28.3279C49.1164 28.374 49.067 28.4004 49.0208 28.4004Z" fill="#F5CBD9"/>
<path d="M47.6494 27.6093C47.6264 27.6093 47.6 27.6027 47.5802 27.5895L45.7808 26.5481C45.7149 26.5086 45.6918 26.4229 45.7281 26.357C45.7676 26.291 45.8533 26.268 45.9192 26.3042L47.7186 27.3457C47.7845 27.3852 47.8076 27.4709 47.7714 27.5368C47.745 27.5829 47.6956 27.6093 47.6494 27.6093Z" fill="#F5CBD9"/>
<path d="M5.67549 29.6068C6.02813 29.6068 6.31483 29.3201 6.31483 28.9675C6.31483 28.6148 6.02813 28.3281 5.67549 28.3281C5.32286 28.3281 5.03613 28.6148 5.03613 28.9675C5.03613 29.3201 5.32286 29.6068 5.67549 29.6068Z" fill="#F5CBD9"/>
<path d="M8.06936 29.1057H7.09386C7.01476 29.1057 6.95215 29.0431 6.95215 28.964C6.95215 28.8849 7.01476 28.8223 7.09386 28.8223H8.06936C8.14846 28.8223 8.21108 28.8849 8.21108 28.964C8.21108 29.0431 8.14517 29.1057 8.06936 29.1057Z" fill="#F5CBD9"/>
<path d="M10.7555 29.1057H8.67589C8.59679 29.1057 8.53418 29.0431 8.53418 28.964C8.53418 28.8849 8.59679 28.8223 8.67589 28.8223H10.7555C10.8346 28.8223 10.8972 28.8849 10.8972 28.964C10.8972 29.0431 10.8313 29.1057 10.7555 29.1057Z" fill="#F5CBD9"/>
<path d="M6.90197 28.4002C6.85254 28.4002 6.8064 28.3739 6.78003 28.331C6.74048 28.2651 6.76354 28.1794 6.83275 28.1399L7.67644 27.6521C7.74236 27.6126 7.82805 27.6356 7.8676 27.7048C7.90715 27.7707 7.88409 27.8564 7.81488 27.896L6.97119 28.3837C6.95141 28.3936 6.92504 28.4002 6.90197 28.4002Z" fill="#F5CBD9"/>
<path d="M8.27404 27.6097C8.2246 27.6097 8.17846 27.5833 8.1521 27.5404C8.11255 27.4745 8.13563 27.3888 8.20484 27.3493L10.0076 26.3079C10.0735 26.2683 10.1592 26.2914 10.1987 26.3606C10.2383 26.4265 10.2152 26.5122 10.146 26.5517L8.34325 27.5932C8.32018 27.6031 8.2971 27.6097 8.27404 27.6097Z" fill="#F5CBD9"/>
<path d="M6.38515 27.8797C6.36208 27.8797 6.33571 27.8731 6.31594 27.8599C6.25002 27.8204 6.22696 27.7347 6.26321 27.6688L6.75097 26.8218C6.79051 26.7559 6.87621 26.7328 6.94212 26.7691C7.00803 26.8086 7.03112 26.8943 6.99486 26.9602L6.50709 27.8072C6.48073 27.8566 6.43129 27.8797 6.38515 27.8797Z" fill="#F5CBD9"/>
<path d="M7.17812 26.5118C7.15505 26.5118 7.12868 26.5052 7.1089 26.492C7.04299 26.4525 7.01993 26.3668 7.05618 26.3009L7.48791 25.5528C7.52746 25.4868 7.61314 25.4638 7.67905 25.5C7.74496 25.5396 7.76804 25.6253 7.73179 25.6912L7.30006 26.4393C7.27369 26.4854 7.22426 26.5118 7.17812 26.5118Z" fill="#F5CBD9"/>
<path d="M5.67689 27.6916C5.59779 27.6916 5.53516 27.6289 5.53516 27.5498V26.5743C5.53516 26.4952 5.59779 26.4326 5.67689 26.4326C5.75598 26.4326 5.8186 26.4952 5.8186 26.5743V27.5498C5.8153 27.6289 5.75269 27.6916 5.67689 27.6916Z" fill="#F5CBD9"/>
<path d="M5.67689 26.11C5.59779 26.11 5.53516 26.0473 5.53516 25.9682V24.0568C5.53516 23.9777 5.59779 23.915 5.67689 23.915C5.75598 23.915 5.8186 23.9777 5.8186 24.0568V25.9682C5.8153 26.0473 5.75269 26.11 5.67689 26.11Z" fill="#F5CBD9"/>
<path d="M5.67689 31.4987C5.59779 31.4987 5.53516 31.4361 5.53516 31.357V30.3815C5.53516 30.3024 5.59779 30.2397 5.67689 30.2397C5.75598 30.2397 5.8186 30.3024 5.8186 30.3815V31.357C5.8153 31.4361 5.75269 31.4987 5.67689 31.4987Z" fill="#F5CBD9"/>
<path d="M5.67689 34.0162C5.59779 34.0162 5.53516 33.9536 5.53516 33.8745V31.963C5.53516 31.8839 5.59779 31.8213 5.67689 31.8213C5.75598 31.8213 5.8186 31.8839 5.8186 31.963V33.8745C5.8153 33.9536 5.75269 34.0162 5.67689 34.0162Z" fill="#F5CBD9"/>
<path d="M6.87507 31.1789C6.82564 31.1789 6.7795 31.1525 6.75314 31.1097L6.26538 30.2627C6.22584 30.1968 6.2489 30.1111 6.31811 30.0715C6.38402 30.032 6.46971 30.0551 6.50926 30.1243L6.99703 30.9713C7.03658 31.0372 7.0135 31.1229 6.94429 31.1624C6.92122 31.1723 6.89814 31.1789 6.87507 31.1789Z" fill="#F5CBD9"/>
<path d="M7.58077 32.4045C7.53133 32.4045 7.4852 32.3781 7.45883 32.3353L7.05347 31.6333C7.01392 31.5674 7.03698 31.4817 7.10619 31.4421C7.1721 31.4026 7.2578 31.4257 7.29735 31.4949L7.70271 32.1968C7.74225 32.2628 7.71919 32.3485 7.64998 32.388C7.62692 32.3979 7.60384 32.4045 7.58077 32.4045Z" fill="#F5CBD9"/>
<path d="M7.74837 30.3017C7.7253 30.3017 7.69893 30.2951 7.67916 30.282L6.83547 29.7942C6.76955 29.7547 6.74649 29.669 6.78275 29.603C6.82229 29.5371 6.90799 29.5141 6.9739 29.5503L7.81759 30.0381C7.8835 30.0776 7.90656 30.1633 7.87031 30.2292C7.84395 30.2787 7.79781 30.3017 7.74837 30.3017Z" fill="#F5CBD9"/>
<path d="M10.0726 31.6469C10.0496 31.6469 10.0232 31.6403 10.0034 31.6271L8.2007 30.5857C8.13479 30.5462 8.11173 30.4605 8.14798 30.3946C8.18753 30.3286 8.2732 30.3056 8.33911 30.3418L10.1419 31.3833C10.2078 31.4228 10.2308 31.5085 10.1946 31.5744C10.1682 31.6205 10.1221 31.6469 10.0726 31.6469Z" fill="#F5CBD9"/>
<path d="M21.5824 10.2512C21.5033 10.2512 21.4275 10.2479 21.3517 10.238C20.7057 10.1622 20.1224 9.75357 19.8653 9.1966C19.5918 8.60338 19.7137 7.85527 20.1553 7.41365C20.6233 6.94566 21.4242 6.87315 21.9383 7.25545C22.3536 7.56525 22.5216 8.14199 22.3206 8.56713C22.2085 8.80442 21.9614 8.98238 21.6812 9.03511C21.4275 9.08125 21.1869 9.01534 21.0188 8.85385C20.9628 8.80112 20.9628 8.71214 21.0155 8.65611C21.0683 8.60009 21.1572 8.60009 21.2133 8.65282C21.3154 8.75169 21.4637 8.78794 21.6318 8.75828C21.8263 8.72203 21.991 8.60338 22.0668 8.44519C22.2152 8.1354 22.0833 7.71025 21.7735 7.47956C21.3649 7.17636 20.7288 7.23568 20.3531 7.61139C19.9906 7.97061 19.8917 8.5902 20.1191 9.07796C20.3366 9.54924 20.8343 9.89528 21.3813 9.9579C21.8988 10.0205 22.4656 9.83596 22.8973 9.47344C23.484 8.97579 23.7509 8.17495 23.5499 7.5224C23.4049 7.05442 23.0292 6.64905 22.5249 6.40517C22.0932 6.19754 21.5659 6.10526 20.9595 6.12833C19.9972 6.16459 19.0019 6.47108 18.0066 7.03794C17.2387 7.47626 16.1478 8.16176 15.3041 8.94943C15.2514 8.99557 15.1723 8.99886 15.1196 8.95602C15.0635 8.90988 15.0536 8.83408 15.0899 8.77476C15.4228 8.23427 15.6601 7.7531 15.8216 7.295C14.7043 8.26063 13.3959 9.02523 12.0085 9.51958C11.3955 9.73709 10.5847 9.97108 9.75421 9.85573C8.89734 9.7338 8.1756 9.20979 7.91524 8.52099C7.75046 8.08596 7.7834 7.57184 8.00421 7.11703C8.22832 6.65894 8.61062 6.31948 9.05553 6.18107C9.61909 6.0064 10.2519 6.1514 10.6342 6.54029C11.0593 6.97532 11.1252 7.6773 10.7858 8.13869C10.6078 8.37928 10.3112 8.54076 9.99151 8.56383C9.69161 8.5902 9.40818 8.49462 9.21374 8.30348C9.15771 8.25074 9.15771 8.16176 9.21044 8.10574C9.26317 8.04971 9.35215 8.04971 9.40817 8.10574C9.54329 8.23756 9.74433 8.30677 9.96514 8.287C10.2057 8.26722 10.4265 8.15187 10.5551 7.97391C10.8121 7.62457 10.7528 7.0676 10.4298 6.73474C10.12 6.41835 9.59934 6.303 9.13465 6.44472C8.76224 6.56007 8.44254 6.84679 8.25139 7.23568C8.06354 7.62457 8.03388 8.0563 8.1723 8.41882C8.3997 9.01534 9.03248 9.46685 9.79048 9.5756C10.5617 9.68436 11.3296 9.46026 11.9129 9.25263C13.4223 8.71544 14.8361 7.85197 15.9995 6.75122C16.0456 6.70837 16.1116 6.70178 16.1676 6.73144C16.2203 6.7611 16.2467 6.82372 16.2335 6.88634C16.1313 7.31478 15.9666 7.74651 15.726 8.21779C16.4576 7.63775 17.2618 7.13681 17.8682 6.79406C18.903 6.20414 19.9411 5.88446 20.9496 5.8482C21.6022 5.82184 22.1756 5.9273 22.6469 6.1547C23.2236 6.43154 23.6488 6.89952 23.8201 7.44001C24.0574 8.19802 23.7509 9.1208 23.0819 9.68766C22.6535 10.0469 22.1064 10.2512 21.5824 10.2512Z" fill="#F1DFC1"/>
<path d="M21.1253 9.94167C21.0462 9.94167 20.9704 9.93837 20.8946 9.92849C20.6903 9.90542 20.4893 9.8461 20.2981 9.75711C20.2289 9.72416 20.1993 9.64176 20.2322 9.56926C20.2652 9.50005 20.3476 9.47039 20.4201 9.50334C20.5849 9.57914 20.7562 9.62858 20.9309 9.65165C21.4483 9.71097 22.0152 9.52971 22.4469 9.16719C23.0335 8.67284 23.3005 7.86869 23.0994 7.21615C23.0039 6.90965 22.8061 6.62952 22.5128 6.39223C22.4535 6.3428 22.4436 6.25381 22.493 6.19449C22.5425 6.13517 22.6314 6.12528 22.6908 6.17472C23.0269 6.44826 23.2543 6.77124 23.3664 7.13376C23.6037 7.89176 23.2972 8.81455 22.6282 9.38141C22.1964 9.73734 21.6493 9.94167 21.1253 9.94167Z" fill="#F1DFC1"/>
<path d="M10.4685 9.87557C10.4619 9.87557 10.4553 9.87557 10.4487 9.87557C9.73357 9.7734 8.83056 9.30542 8.53065 8.52105C8.34609 8.03329 8.40541 7.42689 8.68884 6.94242C8.9492 6.49751 9.36116 6.21079 9.84892 6.14158C9.92472 6.12839 9.99722 6.18442 10.0071 6.26022C10.017 6.33602 9.96427 6.40852 9.88847 6.41841C9.48639 6.47773 9.14695 6.71502 8.92944 7.08414C8.68885 7.4961 8.63611 8.01022 8.791 8.41888C9.05136 9.09779 9.85222 9.50646 10.4883 9.59544C10.5641 9.60533 10.6168 9.67783 10.6069 9.75363C10.597 9.82284 10.5377 9.87557 10.4685 9.87557Z" fill="#F1DFC1"/>
<path d="M24.6165 6.12522H12.8048C12.7257 6.12522 12.6631 6.06261 12.6631 5.98351C12.6631 5.90441 12.7257 5.8418 12.8048 5.8418H24.6165C24.6956 5.8418 24.7582 5.90441 24.7582 5.98351C24.7582 6.06261 24.6956 6.12522 24.6165 6.12522Z" fill="#F1DFC1"/>
<path d="M21.448 9.01554C21.8011 9.01554 22.0873 8.72929 22.0873 8.37618C22.0873 8.02307 21.8011 7.73682 21.448 7.73682C21.0948 7.73682 20.8086 8.02307 20.8086 8.37618C20.8086 8.72929 21.0948 9.01554 21.448 9.01554Z" fill="#F1DFC1"/>
<path d="M13.4428 6.48458C13.4428 6.83721 13.1561 7.12394 12.8034 7.12394C12.4508 7.12394 12.1641 6.83721 12.1641 6.48458C12.1641 6.13194 12.4508 5.84521 12.8034 5.84521C13.1561 5.84521 13.4428 6.13194 13.4428 6.48458Z" fill="#F1DFC1"/>
<path d="M9.67452 8.49845C10.0276 8.49845 10.3139 8.2122 10.3139 7.85909C10.3139 7.50598 10.0276 7.21973 9.67452 7.21973C9.32141 7.21973 9.03516 7.50598 9.03516 7.85909C9.03516 8.2122 9.32141 8.49845 9.67452 8.49845Z" fill="#F1DFC1"/>
<path d="M34.3274 10.2512C33.8001 10.2512 33.2695 10.0535 32.8378 9.68766C32.1655 9.1208 31.8623 8.19802 32.0996 7.44001C32.2677 6.89952 32.6961 6.43154 33.2728 6.1547C33.7474 5.9273 34.3175 5.82184 34.9701 5.8482C35.9786 5.88446 37.0167 6.20414 38.0516 6.79406C38.658 7.14011 39.4621 7.63775 40.1937 8.21779C39.9532 7.74651 39.7884 7.31478 39.6862 6.88634C39.673 6.82702 39.6994 6.7644 39.7521 6.73144C39.8048 6.70178 39.8741 6.70837 39.9202 6.75122C41.0836 7.85197 42.4974 8.71544 44.0068 9.25263C44.5902 9.46026 45.3581 9.68436 46.1292 9.5756C46.884 9.47014 47.52 9.01534 47.7474 8.41882C47.8858 8.0563 47.8562 7.62457 47.6683 7.23568C47.4805 6.84679 47.1575 6.56007 46.7851 6.44472C46.3204 6.29971 45.7997 6.41506 45.4899 6.73474C45.1636 7.0676 45.1076 7.62127 45.3646 7.97391C45.4932 8.14858 45.714 8.26722 45.9546 8.287C46.1721 8.30348 46.3764 8.23756 46.5115 8.10574C46.5676 8.053 46.6565 8.053 46.7093 8.10574C46.762 8.16176 46.762 8.25074 46.706 8.30348C46.5115 8.49462 46.2281 8.5902 45.9282 8.56383C45.6085 8.53747 45.3119 8.37928 45.1339 8.13869C44.7945 7.6773 44.8604 6.97203 45.2855 6.54029C45.6678 6.1514 46.3006 6.0064 46.8642 6.18107C47.3091 6.31948 47.6914 6.65894 47.9155 7.11703C48.1396 7.57513 48.1725 8.08596 48.0045 8.52099C47.7408 9.20979 47.0191 9.7338 46.1655 9.85573C45.335 9.97438 44.5242 9.73709 43.9112 9.51958C42.5238 9.02523 41.2154 8.26063 40.0982 7.295C40.2596 7.7531 40.4969 8.23427 40.8298 8.77476C40.8661 8.83408 40.8529 8.91318 40.8001 8.95602C40.7474 8.99886 40.6683 8.99886 40.6156 8.94943C39.7752 8.16176 38.681 7.47626 37.9131 7.03794C36.9178 6.47108 35.9226 6.16459 34.9602 6.12833C34.3505 6.10526 33.8265 6.20084 33.3948 6.40517C32.8872 6.64905 32.5148 7.05442 32.3698 7.5224C32.1655 8.17495 32.4357 8.97579 33.0224 9.47344C33.4541 9.83926 34.0242 10.0205 34.5384 9.9579C35.0887 9.89199 35.5864 9.54594 35.8039 9.07796C36.0313 8.5869 35.9324 7.97061 35.5699 7.61139C35.1942 7.23568 34.5581 7.17965 34.1495 7.47956C33.8364 7.71025 33.7078 8.1354 33.8562 8.44519C33.932 8.60338 34.0967 8.72203 34.2912 8.75828C34.4527 8.78794 34.6076 8.74839 34.7097 8.65282C34.7658 8.60009 34.8547 8.60009 34.9075 8.65611C34.9602 8.71214 34.9602 8.80112 34.9042 8.85385C34.7361 9.01534 34.4955 9.08125 34.2418 9.03511C33.9616 8.98568 33.7178 8.80442 33.6024 8.56713C33.3981 8.14199 33.5661 7.56525 33.9847 7.25545C34.4988 6.87315 35.2997 6.94566 35.7677 7.41365C36.2093 7.85527 36.3312 8.60338 36.0577 9.1966C35.8006 9.75357 35.2173 10.1622 34.5713 10.238C34.4856 10.2479 34.4065 10.2512 34.3274 10.2512Z" fill="#F1DFC1"/>
<path d="M34.7954 9.94155C34.2713 9.94155 33.7243 9.74051 33.2958 9.37799C32.6235 8.81113 32.3203 7.88834 32.5576 7.13034C32.6696 6.77111 32.8971 6.44814 33.2332 6.1713C33.2925 6.12186 33.3815 6.13175 33.4309 6.19108C33.4804 6.2504 33.4705 6.33938 33.4112 6.38882C33.1179 6.6294 32.9234 6.90624 32.8278 7.21273C32.6235 7.86527 32.8938 8.66612 33.4804 9.16377C33.9121 9.52959 34.4823 9.71085 34.9964 9.64823C35.1711 9.62846 35.3424 9.57902 35.5072 9.49993C35.5764 9.46697 35.6621 9.49663 35.6951 9.56584C35.728 9.63505 35.6984 9.72074 35.6291 9.75369C35.438 9.84268 35.237 9.902 35.0326 9.92507C34.9502 9.93825 34.8712 9.94155 34.7954 9.94155Z" fill="#F1DFC1"/>
<path d="M45.4511 9.87545C45.3819 9.87545 45.3226 9.82601 45.3127 9.75351C45.3028 9.67771 45.3556 9.6052 45.4314 9.59532C46.0674 9.50633 46.8683 9.09767 47.1286 8.41876C47.2868 8.0068 47.2341 7.49597 46.9902 7.08072C46.7727 6.71161 46.4332 6.47432 46.0312 6.415C45.9554 6.40511 45.9026 6.3326 45.9125 6.2568C45.9224 6.181 45.9949 6.12498 46.0707 6.13816C46.5585 6.21066 46.9704 6.49409 47.2308 6.93901C47.5142 7.42347 47.5768 8.02658 47.389 8.51763C47.0891 9.3053 46.1861 9.76999 45.4709 9.87215C45.4676 9.87545 45.4577 9.87545 45.4511 9.87545Z" fill="#F1DFC1"/>
<path d="M43.1165 6.12522H31.3048C31.2257 6.12522 31.1631 6.06261 31.1631 5.98351C31.1631 5.90441 31.2257 5.8418 31.3048 5.8418H43.1165C43.1956 5.8418 43.2582 5.90441 43.2582 5.98351C43.2549 6.06261 43.1923 6.12522 43.1165 6.12522Z" fill="#F1DFC1"/>
<path d="M34.4724 9.01554C34.8255 9.01554 35.1117 8.72929 35.1117 8.37618C35.1117 8.02307 34.8255 7.73682 34.4724 7.73682C34.1193 7.73682 33.833 8.02307 33.833 8.37618C33.833 8.72929 34.1193 9.01554 34.4724 9.01554Z" fill="#F1DFC1"/>
<path d="M42.4766 6.48458C42.4766 6.83721 42.7633 7.12394 43.1159 7.12394C43.4686 7.12394 43.7553 6.83721 43.7553 6.48458C43.7553 6.13194 43.4686 5.84521 43.1159 5.84521C42.7633 5.84521 42.4766 6.13194 42.4766 6.48458Z" fill="#F1DFC1"/>
<path d="M46.2448 8.49796C46.5979 8.49796 46.8842 8.21171 46.8842 7.8586C46.8842 7.50549 46.5979 7.21924 46.2448 7.21924C45.8917 7.21924 45.6055 7.50549 45.6055 7.8586C45.6055 8.21171 45.8917 8.49796 46.2448 8.49796Z" fill="#F1DFC1"/>
<path d="M21.135 52.09C21.0724 52.09 21.013 52.09 20.9504 52.0867C19.942 52.0504 18.9038 51.7308 17.869 51.1408C17.2626 50.7948 16.4584 50.2971 15.7268 49.7171C15.9674 50.1884 16.1322 50.6201 16.2343 51.0486C16.2475 51.1079 16.2211 51.1705 16.1684 51.2034C16.1157 51.2331 16.0465 51.2265 16.0003 51.1837C14.837 50.0829 13.4231 49.2195 11.9137 48.6823C11.3304 48.4746 10.5592 48.2505 9.7913 48.3593C9.03659 48.468 8.40052 48.9195 8.17312 49.5161C8.0347 49.8786 8.06436 50.3103 8.25221 50.6992C8.44006 51.0881 8.76306 51.3748 9.13547 51.4902C9.60016 51.6352 10.1209 51.5198 10.4307 51.2001C10.7569 50.8673 10.813 50.3136 10.5559 49.961C10.4274 49.783 10.2065 49.6677 9.96596 49.6479C9.74845 49.6314 9.54411 49.6973 9.40899 49.8292C9.35297 49.8852 9.26399 49.8819 9.21126 49.8292C9.15853 49.7731 9.15853 49.6841 9.21456 49.6314C9.409 49.4403 9.69242 49.3447 9.98903 49.3711C10.3087 49.3974 10.6053 49.5556 10.7833 49.7962C11.1228 50.2576 11.0568 50.9629 10.6317 51.3946C10.2494 51.7835 9.61663 51.9285 9.05307 51.7538C8.60816 51.6154 8.22586 51.276 8.00176 50.8179C7.77765 50.3598 7.74469 49.8489 7.91277 49.4139C8.17642 48.7251 8.89818 48.2011 9.75175 48.0792C10.5856 47.9605 11.393 48.1978 12.006 48.4153C13.3935 48.9097 14.7018 49.6743 15.8191 50.6399C15.6576 50.1818 15.4203 49.7006 15.0874 49.1601C15.0512 49.1008 15.0644 49.0217 15.1171 48.9789C15.1698 48.936 15.2489 48.936 15.3017 48.9855C16.142 49.7731 17.2362 50.4586 18.0041 50.8969C18.9994 51.4638 19.9947 51.7703 20.957 51.8066C21.5667 51.8296 22.0907 51.734 22.5225 51.5297C23.03 51.2858 23.4024 50.8805 23.5474 50.4125C23.7518 49.7599 23.4815 48.9591 22.8949 48.4614C22.4632 48.0956 21.8963 47.9144 21.3789 47.977C20.8285 48.0429 20.3341 48.3889 20.1166 48.8569C19.8892 49.3447 19.9881 49.9643 20.3506 50.3235C20.7263 50.6992 21.3624 50.7552 21.771 50.4553C22.0841 50.2246 22.2127 49.7995 22.0644 49.4897C21.9886 49.3315 21.8238 49.2129 21.6293 49.1766C21.4646 49.1469 21.3129 49.1865 21.2108 49.2821C21.1548 49.3348 21.0658 49.3348 21.0131 49.2788C20.9603 49.2228 20.9603 49.1338 21.0163 49.081C21.1844 48.9195 21.425 48.8536 21.6788 48.8998C21.9589 48.9492 22.2028 49.1305 22.3181 49.3678C22.5225 49.7929 22.3544 50.3696 21.9358 50.6794C21.4217 51.0617 20.6209 50.9892 20.1529 50.5212C19.7113 50.0796 19.5893 49.3315 19.8629 48.7383C20.1199 48.1813 20.7033 47.7727 21.3492 47.6969C21.9424 47.6276 22.5884 47.832 23.0794 48.2472C23.7518 48.8141 24.055 49.7369 23.8177 50.4949C23.6496 51.0354 23.2212 51.5034 22.6444 51.7802C22.2226 51.9878 21.7117 52.09 21.135 52.09Z" fill="#F1DFC1"/>
<path d="M22.6008 51.7936C22.5612 51.7936 22.5184 51.7772 22.492 51.7409C22.4426 51.6816 22.4524 51.5926 22.5118 51.5432C22.8051 51.3026 22.9995 51.0257 23.0984 50.7192C23.3027 50.0667 23.0325 49.2659 22.4458 48.7682C22.0141 48.4024 21.4473 48.2211 20.9298 48.2837C20.7552 48.3035 20.5838 48.353 20.419 48.4321C20.3498 48.465 20.2641 48.4354 20.2312 48.3661C20.1982 48.2969 20.2279 48.2112 20.3004 48.1783C20.4915 48.0893 20.6926 48.03 20.8969 48.0069C21.4901 47.9377 22.1361 48.142 22.6271 48.5573C23.2994 49.1241 23.6026 50.0469 23.3654 50.8049C23.2533 51.1675 23.0259 51.4871 22.6897 51.764C22.6634 51.7837 22.6304 51.7936 22.6008 51.7936Z" fill="#F1DFC1"/>
<path d="M9.8672 51.7967C9.86061 51.7967 9.85402 51.7967 9.84743 51.7967C9.35967 51.7242 8.94771 51.4408 8.68735 50.9959C8.40392 50.5114 8.34131 49.9083 8.52916 49.4172C8.82907 48.6296 9.73208 48.1649 10.4472 48.0627C10.523 48.0528 10.5955 48.1056 10.6054 48.1814C10.6153 48.2572 10.5626 48.3297 10.4868 48.3395C9.85073 48.4285 9.04987 48.8372 8.78951 49.5161C8.63132 49.9281 8.68407 50.4389 8.92795 50.8508C9.14546 51.22 9.48491 51.4573 9.88698 51.5166C9.96278 51.5265 10.0155 51.599 10.0056 51.6748C9.99573 51.7473 9.93641 51.7967 9.8672 51.7967Z" fill="#F1DFC1"/>
<path d="M24.6175 52.0901H12.8058C12.7267 52.0901 12.6641 52.0274 12.6641 51.9484C12.6641 51.8693 12.7267 51.8066 12.8058 51.8066H24.6175C24.6966 51.8066 24.7592 51.8693 24.7592 51.9484C24.7592 52.0274 24.6966 52.0901 24.6175 52.0901Z" fill="#F1DFC1"/>
<path d="M21.4499 50.1982C21.803 50.1982 22.0893 49.9119 22.0893 49.5588C22.0893 49.2057 21.803 48.9194 21.4499 48.9194C21.0968 48.9194 20.8105 49.2057 20.8105 49.5588C20.8105 49.9119 21.0968 50.1982 21.4499 50.1982Z" fill="#F1DFC1"/>
<path d="M12.8054 52.0902C13.1585 52.0902 13.4447 51.804 13.4447 51.4509C13.4447 51.0978 13.1585 50.8115 12.8054 50.8115C12.4523 50.8115 12.166 51.0978 12.166 51.4509C12.166 51.804 12.4523 52.0902 12.8054 52.0902Z" fill="#F1DFC1"/>
<path d="M9.67647 50.7157C10.0296 50.7157 10.3158 50.4295 10.3158 50.0764C10.3158 49.7233 10.0296 49.437 9.67647 49.437C9.32336 49.437 9.03711 49.7233 9.03711 50.0764C9.03711 50.4295 9.32336 50.7157 9.67647 50.7157Z" fill="#F1DFC1"/>
<path d="M34.7832 52.0898C34.2064 52.0898 33.6989 51.9876 33.2705 51.78C32.6937 51.5032 32.2686 51.0352 32.0972 50.4947C31.8599 49.7367 32.1664 48.8139 32.8355 48.247C33.3331 47.8252 33.9626 47.6274 34.5657 47.6967C35.2116 47.7725 35.795 48.1811 36.052 48.7381C36.3256 49.3313 36.2036 50.0794 35.762 50.521C35.2907 50.989 34.4899 51.0615 33.979 50.6792C33.5638 50.3694 33.3957 49.7927 33.5968 49.3676C33.7088 49.1303 33.9527 48.9523 34.2361 48.8996C34.4899 48.8534 34.7305 48.9193 34.8985 49.0808C34.9546 49.1336 34.9546 49.2226 34.9018 49.2786C34.8491 49.3346 34.7601 49.3346 34.7041 49.2819C34.6019 49.183 34.4503 49.1467 34.2856 49.1764C34.0911 49.2127 33.9263 49.3313 33.8505 49.4895C33.7022 49.7993 33.834 50.2244 34.1438 50.4551C34.5525 50.7583 35.1886 50.699 35.5643 50.3233C35.9268 49.9641 36.0257 49.3478 35.7983 48.8567C35.5807 48.3854 35.0831 48.0394 34.5327 47.9768C34.0153 47.9175 33.4484 48.0987 33.0167 48.4613C32.4301 48.9556 32.1631 49.7597 32.3642 50.4123C32.5092 50.8803 32.8849 51.2856 33.3891 51.5295C33.8209 51.7371 34.3482 51.8294 34.9546 51.8064C35.9169 51.7701 36.9122 51.4636 37.9075 50.8967C38.6754 50.4584 39.7663 49.7729 40.6099 48.9853C40.6627 48.9358 40.7418 48.9358 40.7945 48.9787C40.8505 49.0248 40.8604 49.1006 40.8242 49.1599C40.4913 49.7004 40.254 50.1816 40.0925 50.6397C41.2065 49.6741 42.5181 48.9095 43.9056 48.4151C44.5186 48.1976 45.3293 47.9603 46.1598 48.079C47.0167 48.2009 47.7385 48.7249 47.9988 49.4137C48.1636 49.8487 48.1307 50.3629 47.9098 50.8177C47.6857 51.2758 47.3034 51.6152 46.8585 51.7536C46.295 51.9283 45.6622 51.7833 45.2799 51.3944C44.8548 50.9594 44.7888 50.2574 45.1283 49.796C45.3063 49.5554 45.5996 49.3939 45.9226 49.3709C46.2225 49.3478 46.5059 49.4434 46.7003 49.6312C46.7564 49.6839 46.7564 49.7729 46.7036 49.829C46.6509 49.885 46.5619 49.885 46.5059 49.829C46.3708 49.6971 46.1664 49.6279 45.9489 49.6477C45.7083 49.6675 45.4875 49.7828 45.359 49.9608C45.1019 50.3101 45.1613 50.8671 45.4842 51.2C45.794 51.5163 46.3147 51.6317 46.7794 51.49C47.1518 51.3746 47.4715 51.0879 47.6627 50.699C47.8505 50.3101 47.8802 49.8784 47.7418 49.5159C47.5144 48.9193 46.8816 48.4678 46.1236 48.3591C45.3557 48.2503 44.5845 48.4744 44.0012 48.6821C42.4918 49.2193 41.0779 50.0827 39.9145 51.1835C39.8684 51.2263 39.8025 51.2329 39.7465 51.2032C39.6937 51.1736 39.6674 51.111 39.6806 51.0484C39.7827 50.6199 39.9475 50.1882 40.1881 49.7169C39.4565 50.2969 38.6523 50.7979 38.0459 51.1406C37.0111 51.7306 35.9729 52.0469 34.9645 52.0865C34.9051 52.0898 34.8458 52.0898 34.7832 52.0898Z" fill="#F1DFC1"/>
<path d="M33.3237 51.793C33.2908 51.793 33.2611 51.7831 33.2348 51.7601C32.8986 51.4865 32.6712 51.1636 32.5591 50.801C32.3219 50.043 32.6284 49.1202 33.2974 48.5534C33.7884 48.1381 34.4377 47.9338 35.0276 48.003C35.2319 48.0261 35.433 48.0854 35.6241 48.1744C35.6933 48.2073 35.723 48.2897 35.6933 48.3622C35.6604 48.4314 35.578 48.4611 35.5055 48.4282C35.3407 48.3524 35.1693 48.3029 34.9946 48.2798C34.4772 48.2172 33.9104 48.4018 33.4786 48.7643C32.892 49.2587 32.6251 50.0628 32.8261 50.7153C32.9217 51.0218 33.1194 51.302 33.4094 51.5393C33.4688 51.5887 33.4786 51.6777 33.4292 51.737C33.4028 51.7766 33.3633 51.793 33.3237 51.793Z" fill="#F1DFC1"/>
<path d="M46.0529 51.7967C45.9837 51.7967 45.9244 51.7473 45.9145 51.6781C45.9046 51.6023 45.9573 51.5298 46.0331 51.5199C46.4352 51.4605 46.7747 51.2233 46.9922 50.8541C47.2328 50.4422 47.2855 49.9281 47.1306 49.5161C46.8702 48.8372 46.0694 48.4285 45.4333 48.3395C45.3575 48.3297 45.3048 48.2572 45.3147 48.1814C45.3246 48.1056 45.3971 48.0528 45.4729 48.0627C46.2111 48.1682 47.091 48.6263 47.3909 49.4172C47.5755 49.9083 47.5162 50.5114 47.2327 50.9959C46.9724 51.4408 46.5604 51.7275 46.0727 51.7967C46.0661 51.7967 46.0595 51.7967 46.0529 51.7967Z" fill="#F1DFC1"/>
<path d="M43.1184 52.0896H31.3068C31.2277 52.0896 31.165 52.027 31.165 51.9479C31.165 51.8688 31.2277 51.8062 31.3068 51.8062H43.1184C43.1975 51.8062 43.2601 51.8688 43.2601 51.9479C43.2601 52.027 43.1942 52.0896 43.1184 52.0896Z" fill="#F1DFC1"/>
<path d="M34.4724 50.1982C34.8255 50.1982 35.1117 49.9119 35.1117 49.5588C35.1117 49.2057 34.8255 48.9194 34.4724 48.9194C34.1193 48.9194 33.833 49.2057 33.833 49.5588C33.833 49.9119 34.1193 50.1982 34.4724 50.1982Z" fill="#F1DFC1"/>
<path d="M43.1159 52.0898C43.469 52.0898 43.7553 51.8035 43.7553 51.4504C43.7553 51.0973 43.469 50.811 43.1159 50.811C42.7628 50.811 42.4766 51.0973 42.4766 51.4504C42.4766 51.8035 42.7628 52.0898 43.1159 52.0898Z" fill="#F1DFC1"/>
<path d="M46.2439 50.7157C46.597 50.7157 46.8832 50.4295 46.8832 50.0764C46.8832 49.7233 46.597 49.437 46.2439 49.437C45.8907 49.437 45.6045 49.7233 45.6045 50.0764C45.6045 50.4295 45.8907 50.7157 46.2439 50.7157Z" fill="#F1DFC1"/>
<path d="M48.9554 24.9068C48.3325 24.9068 47.68 24.6069 47.2417 24.0895C46.8198 23.5918 46.6221 22.9624 46.6913 22.3593C46.7671 21.7133 47.1758 21.13 47.7327 20.8729C48.3259 20.5994 49.0741 20.7213 49.5157 21.1629C49.9837 21.6342 50.0562 22.435 49.6739 22.9492C49.3641 23.3644 48.7873 23.5325 48.3622 23.3315C48.1249 23.2194 47.9469 22.9755 47.8942 22.6921C47.8481 22.4383 47.914 22.1978 48.0755 22.0297C48.1282 21.9737 48.2172 21.9737 48.2732 22.0264C48.3292 22.0791 48.3292 22.1681 48.2765 22.2241C48.1776 22.3263 48.1414 22.4779 48.171 22.6427C48.2073 22.8371 48.3259 23.0019 48.4841 23.0777C48.7939 23.226 49.2191 23.0942 49.4498 22.7844C49.753 22.3757 49.6937 21.7397 49.3179 21.364C48.9587 21.0014 48.3424 20.9026 47.8514 21.13C47.3801 21.3475 47.034 21.8451 46.9714 22.3955C46.9121 22.9129 47.0934 23.4798 47.4559 23.9115C47.9502 24.4981 48.7544 24.7684 49.4069 24.5641C49.8716 24.419 50.2803 24.0433 50.5242 23.5391C50.7318 23.1074 50.8241 22.5801 50.801 21.9737C50.7647 21.0113 50.4582 20.016 49.8914 19.0207C49.4531 18.2528 48.7676 17.162 47.9799 16.3183C47.9305 16.2656 47.9305 16.1865 47.9733 16.1337C48.0161 16.081 48.0952 16.0678 48.1546 16.1041C48.6951 16.4369 49.1762 16.6742 49.6343 16.8357C48.6687 15.7185 47.9041 14.4101 47.4097 13.0226C47.1922 12.4096 46.955 11.5989 47.0736 10.7684C47.1955 9.9148 47.7195 9.18976 48.4083 8.9294C48.8434 8.76462 49.3542 8.79757 49.8123 9.01838C50.2704 9.24249 50.6098 9.62479 50.7483 10.0697C50.9229 10.6333 50.7779 11.266 50.389 11.6483C49.954 12.0735 49.252 12.1394 48.7906 11.7999C48.55 11.622 48.3886 11.3254 48.3655 11.0057C48.3424 10.7058 48.438 10.4223 48.6258 10.2312C48.6819 10.1752 48.7676 10.1752 48.8236 10.2279C48.8796 10.2806 48.8796 10.3696 48.8236 10.4256C48.6918 10.5608 48.6226 10.7651 48.6423 10.9826C48.6621 11.2232 48.7774 11.444 48.9554 11.5725C49.3047 11.8296 49.8617 11.7703 50.1946 11.4473C50.511 11.1375 50.6263 10.6168 50.4813 10.1521C50.366 9.77968 50.0792 9.46 49.6904 9.26885C49.3015 9.081 48.873 9.05134 48.5072 9.18976C47.9107 9.41716 47.4592 10.0499 47.3504 10.8079C47.2417 11.5791 47.4658 12.347 47.6734 12.9303C48.2106 14.4398 49.0741 15.8536 50.1748 17.017C50.2177 17.0631 50.2242 17.129 50.1946 17.1851C50.1649 17.2378 50.099 17.2641 50.0397 17.251C49.6113 17.1488 49.1795 16.984 48.7082 16.7434C49.2883 17.4751 49.7892 18.2792 50.132 18.8856C50.7219 19.9205 51.0416 20.9586 51.0778 21.9671C51.1009 22.6196 50.9987 23.1931 50.7713 23.6643C50.4945 24.2411 50.0265 24.6695 49.486 24.8376C49.3179 24.8804 49.1367 24.9068 48.9554 24.9068Z" fill="#F1DFC1"/>
<path d="M49.266 24.449C48.6431 24.449 47.9905 24.1491 47.5522 23.6317C47.1304 23.1341 46.9326 22.5013 47.0018 21.9015C47.0249 21.6971 47.0842 21.4961 47.1732 21.305C47.2062 21.2358 47.2886 21.2061 47.3611 21.239C47.4303 21.272 47.4599 21.3544 47.427 21.4269C47.3512 21.5917 47.3018 21.7631 47.282 21.9377C47.2194 22.4551 47.4039 23.022 47.7664 23.4537C48.2608 24.0404 49.0649 24.3073 49.7175 24.1063C50.024 24.0107 50.3008 23.813 50.5414 23.5229C50.5908 23.4636 50.6798 23.4537 50.7391 23.5032C50.7985 23.5526 50.8083 23.6416 50.7589 23.7009C50.4821 24.0371 50.1624 24.2645 49.7999 24.3765C49.6285 24.4227 49.4472 24.449 49.266 24.449Z" fill="#F1DFC1"/>
<path d="M47.1962 11.6157C47.1897 11.6157 47.1831 11.6157 47.1765 11.6157C47.1007 11.6058 47.0479 11.5333 47.0578 11.4575C47.16 10.7423 47.6247 9.83932 48.4123 9.53941C48.9034 9.35156 49.5065 9.41418 49.991 9.69761C50.4359 9.95797 50.7226 10.3699 50.7918 10.8577C50.8017 10.9335 50.749 11.006 50.6732 11.0159C50.5974 11.0258 50.5249 10.973 50.515 10.8972C50.4557 10.4952 50.2184 10.1557 49.8493 9.93819C49.4373 9.69761 48.9232 9.64488 48.5112 9.79977C47.8323 10.0601 47.4236 10.861 47.3347 11.497C47.3248 11.563 47.2655 11.6157 47.1962 11.6157Z" fill="#F1DFC1"/>
<path d="M50.9444 25.7641C50.8653 25.7641 50.8027 25.7014 50.8027 25.6223V13.8107C50.8027 13.7316 50.8653 13.6689 50.9444 13.6689C51.0235 13.6689 51.0862 13.7316 51.0862 13.8107V25.6223C51.0862 25.7014 51.0235 25.7641 50.9444 25.7641Z" fill="#F1DFC1"/>
<path d="M48.5505 23.0941C48.1979 23.0941 47.9111 22.8074 47.9111 22.4548C47.9111 22.1021 48.1979 21.8154 48.5505 21.8154C48.9031 21.8154 49.1899 22.1021 49.1899 22.4548C49.1931 22.8074 48.9064 23.0941 48.5505 23.0941Z" fill="#F1DFC1"/>
<path d="M50.444 14.4496C50.7972 14.4496 51.0834 14.1634 51.0834 13.8103C51.0834 13.4571 50.7972 13.1709 50.444 13.1709C50.0909 13.1709 49.8047 13.4571 49.8047 13.8103C49.8047 14.1634 50.0909 14.4496 50.444 14.4496Z" fill="#F1DFC1"/>
<path d="M49.072 11.3222C49.4251 11.3222 49.7113 11.0359 49.7113 10.6828C49.7113 10.3297 49.4251 10.0435 49.072 10.0435C48.7189 10.0435 48.4326 10.3297 48.4326 10.6828C48.4326 11.0359 48.7189 11.3222 49.072 11.3222Z" fill="#F1DFC1"/>
<path d="M48.9942 49.117C48.7932 49.117 48.5955 49.0808 48.4142 49.0116C47.7254 48.7479 47.2014 48.0261 47.0795 47.1726C46.9608 46.3421 47.1981 45.5313 47.4156 44.9183C47.91 43.5309 48.6746 42.2225 49.6402 41.1052C49.1821 41.2667 48.7009 41.504 48.1604 41.8369C48.1011 41.8731 48.022 41.86 47.9792 41.8072C47.933 41.7545 47.9363 41.6754 47.9858 41.6227C48.7734 40.7823 49.4589 39.6881 49.8973 38.9202C50.4641 37.9249 50.7706 36.9296 50.8069 35.9673C50.8299 35.3609 50.7344 34.8336 50.53 34.4019C50.2861 33.8943 49.8808 33.5219 49.4128 33.3769C48.7602 33.1726 47.9594 33.4428 47.4618 34.0294C47.0959 34.4612 46.9147 35.028 46.9773 35.5454C47.0432 36.0958 47.3893 36.5902 47.8572 36.811C48.345 37.0384 48.9646 36.9395 49.3238 36.577C49.6995 36.2013 49.7588 35.5652 49.4556 35.1566C49.2249 34.8435 48.7998 34.7149 48.49 34.8632C48.3318 34.939 48.2132 35.1038 48.1769 35.2983C48.1472 35.4631 48.1868 35.6147 48.2824 35.7168C48.3351 35.7729 48.3351 35.8618 48.2791 35.9146C48.223 35.9673 48.1341 35.9673 48.0813 35.9113C47.9199 35.7432 47.8539 35.5026 47.9001 35.2488C47.9495 34.9687 48.1308 34.7248 48.3681 34.6095C48.7932 34.4051 49.3699 34.5732 49.6797 34.9918C50.062 35.5059 49.9895 36.3068 49.5215 36.778C49.0799 37.2197 48.3318 37.3416 47.7386 37.0681C47.1816 36.811 46.773 36.2277 46.6972 35.5817C46.6247 34.9819 46.8257 34.3491 47.2475 33.8515C47.8144 33.1792 48.7372 32.876 49.4952 33.1132C50.0357 33.2813 50.5037 33.7098 50.7805 34.2865C51.0079 34.7611 51.1101 35.3312 51.087 35.9838C51.0507 36.9922 50.7311 38.0304 50.1411 39.0652C49.7951 39.6716 49.2974 40.4758 48.7174 41.2074C49.1887 40.9668 49.6204 40.802 50.0488 40.6999C50.1082 40.6834 50.1708 40.7131 50.2038 40.7658C50.2334 40.8185 50.2268 40.8877 50.184 40.9339C49.0832 42.0972 48.2198 43.5111 47.6826 45.0205C47.4749 45.6038 47.2508 46.3717 47.3596 47.1429C47.4651 47.8976 47.9199 48.5337 48.5164 48.7611C48.8789 48.8995 49.3106 48.8698 49.6995 48.682C50.0884 48.4941 50.3751 48.1712 50.4905 47.7987C50.6355 47.3341 50.5201 46.8133 50.2038 46.5035C49.8709 46.1773 49.3172 46.1213 48.9646 46.3783C48.7899 46.5068 48.6713 46.7277 48.6515 46.9682C48.635 47.1858 48.7009 47.3901 48.8327 47.5252C48.8855 47.5812 48.8855 47.6702 48.8327 47.7229C48.7767 47.7757 48.6877 47.7757 48.635 47.7197C48.4439 47.5252 48.3483 47.2418 48.3747 46.9419C48.401 46.6222 48.5592 46.3256 48.7998 46.1476C49.2612 45.8082 49.9665 45.8741 50.3982 46.2992C50.7871 46.6815 50.9321 47.3143 50.7574 47.8778C50.619 48.3228 50.2795 48.7051 49.8214 48.9292C49.5545 49.0511 49.2711 49.117 48.9942 49.117Z" fill="#F1DFC1"/>
<path d="M47.303 36.712C47.2503 36.712 47.2009 36.6823 47.1778 36.6329C47.0888 36.4418 47.0295 36.2407 47.0064 36.0364C46.9372 35.4432 47.1415 34.7972 47.5568 34.3062C48.1237 33.6371 49.0464 33.3306 49.8044 33.5679C50.1637 33.68 50.4867 33.9074 50.7635 34.2435C50.8129 34.3029 50.803 34.3919 50.7437 34.4413C50.6844 34.4907 50.5954 34.4808 50.546 34.4215C50.3054 34.1282 50.0286 33.9338 49.7221 33.8382C49.0695 33.6338 48.2687 33.9041 47.771 34.4907C47.4052 34.9225 47.224 35.4893 47.2866 36.0067C47.3063 36.1814 47.3558 36.3528 47.4349 36.5176C47.4678 36.5868 47.4382 36.6725 47.369 36.7054C47.3426 36.7087 47.3228 36.712 47.303 36.712Z" fill="#F1DFC1"/>
<path d="M49.0125 48.504C48.8049 48.504 48.5973 48.4677 48.4094 48.3985C47.6218 48.0986 47.1571 47.1956 47.0549 46.4804C47.045 46.4046 47.0977 46.3321 47.1735 46.3222C47.2493 46.3091 47.3218 46.3651 47.3317 46.4409C47.4207 47.0769 47.8294 47.8778 48.5083 48.1382C48.9202 48.2963 49.4311 48.2436 49.8463 47.9997C50.2154 47.7822 50.4527 47.4428 50.5121 47.0407C50.5219 46.9649 50.5944 46.9089 50.6702 46.922C50.746 46.9319 50.7988 47.0044 50.7889 47.0802C50.7164 47.568 50.433 47.98 49.988 48.2403C49.6914 48.415 49.3487 48.504 49.0125 48.504Z" fill="#F1DFC1"/>
<path d="M50.9444 44.2626C50.8653 44.2626 50.8027 44.2 50.8027 44.1209V32.3092C50.8027 32.2301 50.8653 32.1675 50.9444 32.1675C51.0235 32.1675 51.0862 32.2301 51.0862 32.3092V44.1209C51.0862 44.2 51.0235 44.2626 50.9444 44.2626Z" fill="#F1DFC1"/>
<path d="M48.5524 34.8403C48.1998 34.8403 47.9131 35.1271 47.9131 35.4797C47.9131 35.8323 48.1998 36.1191 48.5524 36.1191C48.9051 36.1191 49.1918 35.8323 49.1918 35.4797C49.1918 35.1271 48.9084 34.8403 48.5524 34.8403Z" fill="#F1DFC1"/>
<path d="M50.446 44.7631C50.7991 44.7631 51.0854 44.4768 51.0854 44.1237C51.0854 43.7706 50.7991 43.4844 50.446 43.4844C50.0929 43.4844 49.8066 43.7706 49.8066 44.1237C49.8066 44.4768 50.0929 44.7631 50.446 44.7631Z" fill="#F1DFC1"/>
<path d="M49.072 47.8905C49.4251 47.8905 49.7113 47.6043 49.7113 47.2512C49.7113 46.8981 49.4251 46.6118 49.072 46.6118C48.7189 46.6118 48.4326 46.8981 48.4326 47.2512C48.4326 47.6043 48.7189 47.8905 49.072 47.8905Z" fill="#F1DFC1"/>
<path d="M6.96874 24.9069C6.78418 24.9069 6.60622 24.8805 6.43484 24.8278C5.89436 24.6597 5.42636 24.2313 5.14953 23.6545C4.92212 23.18 4.81996 22.6098 4.84303 21.9573C4.87928 20.9488 5.19896 19.9107 5.78889 18.8758C6.13493 18.2694 6.63258 17.4653 7.21262 16.7336C6.74463 16.9742 6.30961 17.139 5.88117 17.2412C5.82185 17.2544 5.75922 17.228 5.72627 17.1753C5.69661 17.1225 5.7032 17.0533 5.74604 17.0072C6.84679 15.8438 7.71027 14.43 8.24746 12.9205C8.45509 12.3372 8.67919 11.5693 8.57043 10.7981C8.46167 10.0434 8.01016 9.40736 7.41365 9.17996C7.05113 9.04154 6.6194 9.0712 6.23051 9.25906C5.84163 9.44691 5.55489 9.76989 5.43955 10.1423C5.29454 10.607 5.41318 11.1277 5.72957 11.4375C6.06243 11.7638 6.6161 11.8198 6.96874 11.5627C7.14671 11.4342 7.26206 11.2134 7.28183 10.9728C7.29831 10.7553 7.23238 10.551 7.10056 10.4158C7.04783 10.3598 7.04783 10.2708 7.10056 10.2181C7.15658 10.1654 7.24558 10.1654 7.29831 10.2214C7.48946 10.4158 7.58502 10.6993 7.55866 10.9959C7.53229 11.3156 7.37411 11.6122 7.13023 11.7901C6.66883 12.1296 5.96357 12.0604 5.53183 11.6385C5.14295 11.2562 4.99793 10.6235 5.1726 10.0599C5.31102 9.61499 5.65048 9.23269 6.10858 9.00859C6.56667 8.78448 7.07749 8.75153 7.51251 8.9196C8.20131 9.18326 8.72534 9.90501 8.84728 10.7586C8.96592 11.5891 8.72863 12.3998 8.51111 13.0128C8.02006 14.4003 7.25546 15.7087 6.28654 16.8259C6.74463 16.6644 7.2258 16.4271 7.76629 16.0943C7.82561 16.058 7.9047 16.0712 7.94755 16.1239C7.99369 16.1767 7.9904 16.2558 7.94097 16.3085C7.1533 17.1489 6.46779 18.243 6.02946 19.0109C5.46261 20.0062 5.15613 21.0015 5.11988 21.9639C5.09681 22.5703 5.19237 23.0976 5.3967 23.5293C5.64058 24.0368 6.04595 24.4092 6.51394 24.5543C7.16648 24.7586 7.96732 24.4883 8.46497 23.9017C8.83079 23.47 9.01206 22.9031 8.94944 22.3857C8.88353 21.8353 8.53747 21.341 8.06948 21.1202C7.57843 20.8928 6.96216 20.9916 6.60293 21.3542C6.22722 21.7299 6.17119 22.3659 6.47109 22.7746C6.70508 23.0877 7.12693 23.2162 7.43672 23.0679C7.59491 22.9921 7.71356 22.8273 7.74981 22.6329C7.77947 22.4681 7.73992 22.3165 7.64435 22.2143C7.59162 22.1583 7.59162 22.0693 7.64765 22.0166C7.70368 21.9639 7.79265 21.9639 7.84538 22.0199C8.00687 22.188 8.07278 22.4285 8.02664 22.6823C7.9772 22.9624 7.79595 23.2063 7.55866 23.3217C7.13352 23.526 6.55678 23.3579 6.24699 22.9394C5.86469 22.4253 5.93719 21.6244 6.40517 21.1531C6.84679 20.7115 7.59492 20.5896 8.18814 20.8631C8.74511 21.1202 9.15377 21.7035 9.22957 22.3495C9.30207 22.9526 9.10104 23.582 8.67919 24.0797C8.24417 24.607 7.59162 24.9069 6.96874 24.9069Z" fill="#F1DFC1"/>
<path d="M6.66034 24.4488C6.47908 24.4488 6.29782 24.4224 6.12645 24.3697C5.76392 24.2576 5.44423 24.0302 5.16739 23.6941C5.11796 23.6348 5.12785 23.5458 5.18717 23.4963C5.24649 23.4469 5.33549 23.4568 5.38492 23.5161C5.6255 23.8094 5.90234 24.0039 6.20884 24.0994C6.86138 24.3038 7.66222 24.0368 8.15987 23.4469C8.52569 23.0152 8.70696 22.4483 8.64434 21.9309C8.62457 21.7562 8.57513 21.5848 8.49603 21.4201C8.46308 21.3509 8.49272 21.2652 8.56523 21.2322C8.63444 21.1993 8.72013 21.2289 8.75308 21.2981C8.84207 21.4893 8.9014 21.6903 8.92447 21.8946C8.99697 22.4945 8.79594 23.1272 8.37409 23.6249C7.93577 24.1489 7.28322 24.4488 6.66034 24.4488Z" fill="#F1DFC1"/>
<path d="M8.72859 11.6156C8.65938 11.6156 8.60007 11.5661 8.59018 11.4936C8.5012 10.8576 8.09253 10.0567 7.41362 9.79635C7.00167 9.64146 6.49084 9.69419 6.07558 9.93477C5.70647 10.1523 5.46917 10.4917 5.40985 10.8938C5.39996 10.9696 5.32747 11.0223 5.25167 11.0125C5.17587 11.0026 5.12314 10.9301 5.13303 10.8543C5.20553 10.3665 5.48896 9.95455 5.93387 9.69419C6.41834 9.41076 7.02144 9.34814 7.51249 9.536C8.30016 9.8359 8.76486 10.7389 8.86703 11.4541C8.87691 11.5299 8.82417 11.6024 8.74837 11.6123C8.74177 11.6156 8.73518 11.6156 8.72859 11.6156Z" fill="#F1DFC1"/>
<path d="M4.9796 25.7636C4.90051 25.7636 4.83789 25.7009 4.83789 25.6218V13.8102C4.83789 13.7311 4.90051 13.6685 4.9796 13.6685C5.0587 13.6685 5.12133 13.7311 5.12133 13.8102V25.6218C5.12133 25.7009 5.0587 25.7636 4.9796 25.7636Z" fill="#F1DFC1"/>
<path d="M7.37276 23.0941C7.72587 23.0941 8.01212 22.8079 8.01212 22.4548C8.01212 22.1017 7.72587 21.8154 7.37276 21.8154C7.01965 21.8154 6.7334 22.1017 6.7334 22.4548C6.7334 22.8079 7.01965 23.0941 7.37276 23.0941Z" fill="#F1DFC1"/>
<path d="M5.4792 14.4496C5.83231 14.4496 6.11856 14.1634 6.11856 13.8103C6.11856 13.4571 5.83231 13.1709 5.4792 13.1709C5.1261 13.1709 4.83984 13.4571 4.83984 13.8103C4.83984 14.1634 5.1261 14.4496 5.4792 14.4496Z" fill="#F1DFC1"/>
<path d="M6.85323 11.3222C7.20634 11.3222 7.49259 11.0359 7.49259 10.6828C7.49259 10.3297 7.20634 10.0435 6.85323 10.0435C6.50012 10.0435 6.21387 10.3297 6.21387 10.6828C6.21387 11.0359 6.50012 11.3222 6.85323 11.3222Z" fill="#F1DFC1"/>
<path d="M6.93249 49.1169C6.65566 49.1169 6.37223 49.051 6.10858 48.9224C5.65048 48.6983 5.31102 48.316 5.1726 47.8711C4.99793 47.3075 5.14295 46.6748 5.53183 46.2925C5.96686 45.8673 6.66883 45.8014 7.13023 46.1409C7.37081 46.3188 7.53229 46.6155 7.55866 46.9351C7.58173 47.235 7.48616 47.5185 7.29831 47.7129C7.24558 47.7689 7.15658 47.7689 7.10056 47.7162C7.04453 47.6635 7.04453 47.5745 7.10056 47.5185C7.23238 47.3833 7.30161 47.179 7.28183 46.9615C7.26206 46.7209 7.14671 46.5001 6.96874 46.3716C6.6194 46.1145 6.06243 46.1738 5.72957 46.4968C5.41318 46.8066 5.29783 47.3273 5.43955 47.792C5.55489 48.1644 5.84163 48.4841 6.23052 48.6752C6.6194 48.8631 7.05113 48.8928 7.41365 48.7543C8.01017 48.5269 8.46168 47.8942 8.57043 47.1362C8.67919 46.365 8.45509 45.5971 8.24746 45.0138C7.71027 43.5043 6.84679 42.0905 5.74604 40.9271C5.7032 40.881 5.69661 40.8151 5.72627 40.7591C5.75593 40.7063 5.82185 40.6767 5.88117 40.6931C6.30961 40.7953 6.74134 40.9601 7.21262 41.2007C6.63258 40.469 6.13493 39.6649 5.78889 39.0585C5.19896 38.0236 4.87928 36.9855 4.84303 35.977C4.81996 35.3245 4.92212 34.751 5.14953 34.2798C5.42636 33.703 5.89436 33.2746 6.43484 33.1065C7.18955 32.8692 8.11564 33.1757 8.68249 33.8447C9.10434 34.3424 9.30207 34.9752 9.23286 35.575C9.15706 36.2209 8.74839 36.8042 8.19142 37.0613C7.5982 37.3348 6.85009 37.2129 6.40847 36.7713C5.94049 36.3 5.86799 35.4992 6.25029 34.985C6.56008 34.5698 7.13682 34.4017 7.56196 34.6027C7.79925 34.7148 7.97721 34.962 8.02994 35.2421C8.07608 35.4959 8.01017 35.7365 7.84868 35.9045C7.79595 35.9606 7.70697 35.9606 7.65095 35.9078C7.59492 35.8551 7.59492 35.7661 7.64765 35.7101C7.74652 35.6079 7.78277 35.4563 7.75311 35.2915C7.71686 35.0971 7.59821 34.9323 7.44002 34.8565C7.13023 34.7082 6.70509 34.84 6.47439 35.1531C6.17119 35.5585 6.2305 36.1978 6.60621 36.5736C6.96543 36.9361 7.58173 37.0349 8.07278 36.8075C8.54406 36.59 8.8901 36.0924 8.95272 35.542C9.01204 35.0246 8.83079 34.4577 8.46827 34.026C7.97392 33.4394 7.16978 33.1724 6.51724 33.3735C6.05255 33.5185 5.64388 33.8909 5.4 34.3984C5.19237 34.8301 5.10009 35.3574 5.12315 35.9639C5.15941 36.9262 5.46591 37.9215 6.03276 38.9168C6.47109 39.6847 7.15658 40.7788 7.94425 41.6192C7.99368 41.672 7.99369 41.751 7.95084 41.8038C7.908 41.8565 7.82891 41.8697 7.76959 41.8334C7.2291 41.5006 6.74793 41.2633 6.28983 41.1018C7.25547 42.219 8.02006 43.5274 8.51441 44.9149C8.73193 45.5279 8.9692 46.3386 8.85056 47.1691C8.72862 48.026 8.20461 48.7478 7.51581 49.0081C7.32796 49.0806 7.13353 49.1169 6.93249 49.1169Z" fill="#F1DFC1"/>
<path d="M8.62455 36.7118C8.60477 36.7118 8.585 36.7085 8.56523 36.6986C8.49602 36.6656 8.46637 36.5832 8.49603 36.5107C8.57183 36.3459 8.62127 36.1746 8.64434 35.9999C8.70696 35.4825 8.52239 34.9156 8.15987 34.4839C7.66552 33.8973 6.86138 33.6303 6.20884 33.8313C5.90234 33.9269 5.62221 34.1247 5.38492 34.4147C5.33549 34.474 5.24649 34.4839 5.18717 34.4344C5.12785 34.385 5.11796 34.296 5.16739 34.2367C5.44094 33.9005 5.76392 33.6731 6.12645 33.5611C6.88445 33.3238 7.80724 33.6303 8.37409 34.2993C8.78935 34.7904 8.99367 35.4363 8.92447 36.0296C8.9014 36.2339 8.84207 36.4349 8.75308 36.6261C8.72672 36.6821 8.67728 36.7118 8.62455 36.7118Z" fill="#F1DFC1"/>
<path d="M6.9094 48.5037C6.57324 48.5037 6.23048 48.4147 5.93387 48.2401C5.48896 47.9797 5.20224 47.5678 5.13303 47.08C5.12314 47.0042 5.17587 46.9317 5.25167 46.9218C5.32747 46.9086 5.39996 46.9646 5.40985 47.0404C5.46917 47.4425 5.70647 47.782 6.07558 47.9995C6.48754 48.2401 7.00167 48.2928 7.41362 48.1379C8.09253 47.8775 8.5012 47.0767 8.59018 46.4406C8.60007 46.3648 8.67586 46.3121 8.74837 46.322C8.82417 46.3319 8.87691 46.4044 8.86703 46.4802C8.76486 47.1953 8.30016 48.0984 7.51249 48.3983C7.32464 48.4708 7.12032 48.5037 6.9094 48.5037Z" fill="#F1DFC1"/>
<path d="M4.9796 44.2621C4.90051 44.2621 4.83789 44.1995 4.83789 44.1204V32.3087C4.83789 32.2296 4.90051 32.167 4.9796 32.167C5.0587 32.167 5.12133 32.2296 5.12133 32.3087V44.1204C5.12133 44.1995 5.0587 44.2621 4.9796 44.2621Z" fill="#F1DFC1"/>
<path d="M7.37276 36.1186C7.72587 36.1186 8.01212 35.8323 8.01212 35.4792C8.01212 35.1261 7.72587 34.8398 7.37276 34.8398C7.01965 34.8398 6.7334 35.1261 6.7334 35.4792C6.7334 35.8323 7.01965 36.1186 7.37276 36.1186Z" fill="#F1DFC1"/>
<path d="M5.4792 44.7631C5.83231 44.7631 6.11856 44.4768 6.11856 44.1237C6.11856 43.7706 5.83231 43.4844 5.4792 43.4844C5.1261 43.4844 4.83984 43.7706 4.83984 44.1237C4.83984 44.4768 5.1261 44.7631 5.4792 44.7631Z" fill="#F1DFC1"/>
<path d="M6.85323 47.8905C7.20634 47.8905 7.49259 47.6043 7.49259 47.2512C7.49259 46.8981 7.20634 46.6118 6.85323 46.6118C6.50012 46.6118 6.21387 46.8981 6.21387 47.2512C6.21387 47.6043 6.50012 47.8905 6.85323 47.8905Z" fill="#F1DFC1"/>
<path d="M51.6224 52.7685H4.29991C4.22082 52.7685 4.1582 52.7059 4.1582 52.6268V5.30431C4.1582 5.22522 4.22082 5.1626 4.29991 5.1626H51.6224C51.7015 5.1626 51.7641 5.22522 51.7641 5.30431V52.6268C51.7641 52.7059 51.7015 52.7685 51.6224 52.7685ZM4.44165 52.4884H51.484V5.44603H4.44165V52.4884Z" fill="#F1DFC1"/>
<path d="M27.9412 28.9376C27.9412 28.9508 27.9379 28.9607 27.9346 28.9706C27.9543 28.9838 27.9741 28.9969 27.9939 29.0101C27.9774 28.9838 27.9609 28.9574 27.9477 28.9277C27.9445 28.931 27.9412 28.9343 27.9412 28.9376Z" fill="#EAA49B"/>
<path fill-rule="evenodd" clip-rule="evenodd" d="M27.9535 28.8951C27.9642 28.8971 27.9732 28.9042 27.9776 28.9141C27.9897 28.9413 28.0049 28.9658 28.0216 28.9924C28.0298 29.0056 28.0277 29.0227 28.0166 29.0335C28.0055 29.0443 27.9883 29.0459 27.9754 29.0373L27.916 28.9978C27.9037 28.9895 27.8984 28.974 27.9031 28.9599C27.9064 28.95 27.908 28.9447 27.908 28.9374C27.908 28.925 27.9139 28.9163 27.9166 28.9127C27.9193 28.9091 27.9225 28.9059 27.9239 28.9045C27.924 28.9044 27.9241 28.9043 27.9242 28.9042C27.9319 28.8965 27.9428 28.8931 27.9535 28.8951Z" fill="#EAA49B"/>
<path d="M33.3283 22.4614L33.3118 22.4384L33.1701 22.5834L33.1635 22.59L32.9756 22.7811C32.9196 22.8404 32.8603 22.8997 32.8043 22.9558C32.6658 23.0942 32.5307 23.226 32.3956 23.3545L32.3989 23.3578L32.2011 23.5424L32.1945 23.549L32.0166 23.7171L32.0133 23.7138C31.9507 23.7731 31.8848 23.8291 31.8254 23.8819L31.8287 23.8852L31.8123 23.8983C31.8716 23.9115 31.9309 23.928 31.9902 23.9511C32.445 24.1455 32.6559 24.6695 32.4615 25.1243C32.2671 25.5791 31.743 25.79 31.2882 25.5956C30.9191 25.4374 30.7148 25.0617 30.7543 24.6827C30.4314 24.8673 30.1611 24.9562 29.9205 24.9562C29.8118 24.9562 29.7129 24.9398 29.6239 24.9101C29.6536 25.0222 29.6767 25.1342 29.6833 25.2496C29.7096 25.6813 29.5679 26.0801 29.2779 26.3701C28.2035 27.4445 26.6512 28.0739 25.6724 28.1399H25.6395C25.5043 28.1399 25.3725 28.0838 25.2802 27.9916C25.1748 27.8861 25.122 27.7444 25.1319 27.5961C25.1946 26.6865 25.6955 25.1968 26.9017 23.9906C27.1654 23.727 27.5279 23.582 27.9201 23.582C28.0717 23.582 28.22 23.605 28.365 23.6446C28.332 23.5523 28.3155 23.4534 28.3155 23.3447C28.1244 23.3447 27.9299 23.3051 27.7421 23.226C26.9907 22.9063 26.6413 22.0396 26.961 21.2882C27.2807 20.5368 28.1475 20.1874 28.8989 20.5071C29.2252 20.6455 29.4723 20.8861 29.6239 21.1761L29.7228 21.0706L29.7294 21.0641L29.914 20.8663L29.9173 20.8696C30.0458 20.7345 30.1743 20.6027 30.316 20.461C30.372 20.4049 30.4314 20.3489 30.4907 20.2896H30.4874L30.6785 20.105L30.695 20.0885L30.7016 20.0819C29.3438 19.3206 27.752 18.9515 26.0844 19.1163C21.7605 19.5448 18.5999 23.4007 19.0316 27.7246C19.4601 32.0485 23.316 35.2058 27.6399 34.7773C28.8791 34.6554 30.0227 34.2467 31.0147 33.6271L31.018 33.6304L31.0312 33.6173C31.5783 33.2745 32.0792 32.8724 32.5241 32.411C32.5703 32.3682 32.6131 32.3254 32.6592 32.2792C32.7614 32.1342 32.8965 32.0024 32.9394 31.8211L32.9525 31.7948C33.3316 29.6427 30.7445 29.9525 30.6884 28.3607C30.6423 27.0622 32.3 26.8117 33.1898 26.3009C33.4008 26.1295 33.6413 25.9318 33.7171 25.711C33.7468 25.6253 33.7864 25.5495 33.8226 25.4671C33.9907 24.9628 33.961 24.6069 33.9116 24.1158C33.849 23.5094 33.6413 22.9492 33.3283 22.4614ZM22.4789 22.2406C22.7525 21.6013 23.4907 21.3013 24.1334 21.5749C24.7727 21.8484 25.0726 22.5867 24.7991 23.2293C24.5255 23.8687 23.7873 24.1686 23.1447 23.895C22.5053 23.6215 22.2054 22.88 22.4789 22.2406ZM20.953 27.8465C20.2049 27.5269 19.8556 26.6601 20.1753 25.9087C20.4949 25.1573 21.3617 24.8079 22.1131 25.1276C22.8645 25.4473 23.2139 26.3141 22.8942 27.0655C22.5712 27.8169 21.7044 28.1662 20.953 27.8465ZM26.6183 31.3367C26.1997 32.3188 25.066 32.7736 24.0872 32.355C23.1051 31.9365 22.6503 30.8028 23.0688 29.8239C23.4874 28.8418 24.6211 28.387 25.5999 28.8056C26.582 29.2208 27.0368 30.3546 26.6183 31.3367ZM31.2322 31.6827C30.9785 32.2759 30.2962 32.5495 29.703 32.299C29.1098 32.0452 28.8363 31.363 29.0867 30.7698C29.3405 30.1766 30.0227 29.903 30.6159 30.1535C31.2092 30.404 31.486 31.0895 31.2322 31.6827Z" fill="#E9A39B"/>
<path d="M28.8981 20.5106C28.15 20.1909 27.28 20.5402 26.9603 21.2917C26.6406 22.0431 26.99 22.9098 27.7414 23.2295C27.9292 23.3086 28.1237 23.3482 28.3148 23.3482C28.3148 22.9889 28.5159 22.5242 29.0531 21.8486L29.0498 21.8453L29.2046 21.6608L29.2079 21.6575L29.3892 21.4433L29.3925 21.4466C29.4452 21.3839 29.5013 21.3213 29.5606 21.2587L29.5573 21.2554L29.6265 21.1796C29.4716 20.8896 29.2244 20.649 28.8981 20.5106Z" fill="white"/>
<path d="M29.0854 30.7667C28.8316 31.3599 29.1085 32.0454 29.7017 32.2959C30.2949 32.5497 30.9771 32.2728 31.2309 31.6796C31.4814 31.0864 31.2078 30.4009 30.6146 30.1504C30.0214 29.9 29.3392 30.1768 29.0854 30.7667Z" fill="white"/>
<path d="M31.2907 25.5957C31.7455 25.7902 32.2695 25.5792 32.464 25.1244C32.6584 24.6696 32.4475 24.1456 31.9927 23.9512C31.9334 23.9248 31.874 23.9083 31.8147 23.8984L31.6104 24.0698L31.4258 24.2247L31.4225 24.2214C31.1787 24.4159 30.9578 24.5708 30.7568 24.6861C30.7173 25.0618 30.9216 25.4375 31.2907 25.5957Z" fill="white"/>
<path d="M33.0655 22.3132C33.0952 22.2836 33.1216 22.2539 33.1512 22.2242L33.1545 22.2177C35.6856 19.5712 38.5462 15.8142 37.9991 15.2704C37.953 15.2242 37.8838 15.2012 37.7948 15.2012C36.8292 15.2012 33.4742 17.7949 31.0486 20.115C31.0189 20.1447 30.9859 20.1743 30.953 20.2073L30.9332 20.2238C30.9069 20.2468 30.8805 20.2732 30.8574 20.2963L32.97 22.4088C33.0062 22.3758 33.0359 22.3462 33.0655 22.3132Z" fill="#E9A39B"/>
<path d="M29.4035 21.8286C29.3738 21.8649 29.3474 21.8978 29.3211 21.9308C29.2914 21.9637 29.2651 22 29.2387 22.0329C28.7641 22.6361 28.5894 23.0282 28.5796 23.3216C28.573 23.516 28.6389 23.6643 28.741 23.7994C28.8399 23.928 28.9717 24.0433 29.1003 24.1685C29.2255 24.2938 29.3343 24.419 29.4595 24.5179C29.5913 24.62 29.733 24.6926 29.9209 24.6926C30.1582 24.6926 30.4647 24.5772 30.8964 24.2773C31.0019 24.2048 31.1139 24.1224 31.2326 24.0268C31.2655 24.0005 31.3018 23.9708 31.3347 23.9444L31.3611 23.9247C31.3842 23.9049 31.4105 23.8851 31.4369 23.862L29.7594 22.1845L29.4035 21.8286Z" fill="#E9A39B"/>
<path d="M27.5573 27.0687C27.3167 26.871 26.5126 27.573 26.3676 27.2665C26.2193 26.96 27.2475 26.6436 27.0168 26.3503C26.7861 26.057 26.3313 26.8743 26.2588 26.7787C26.183 26.6799 26.1402 26.67 26.3709 26.169C26.6016 25.6681 26.1995 25.3089 26.0775 25.6187C25.893 25.7736 25.6293 26.4525 25.4843 27.0325L25.481 27.0424C25.3887 27.4148 25.3459 27.7411 25.4052 27.8597C25.9292 28.2354 27.643 27.2434 27.643 27.2434C27.643 27.2434 27.7056 27.2533 27.6924 27.2138C27.6825 27.1874 27.6463 27.1445 27.5573 27.0687Z" fill="#E9A39B"/>
<path d="M33.1327 43.5791C32.8401 43.5791 32.7135 43.4526 32.7254 43.2904C32.7333 43.1757 32.8401 43.0255 33.0694 42.891L33.0971 42.9147C33.0576 42.974 33.022 43.0492 33.022 43.1322C33.022 43.2904 33.1288 43.4328 33.4175 43.4328C33.5677 43.4328 33.7457 43.3616 33.8564 43.2786C34.2005 43.0136 34.3903 42.3492 34.9915 41.2498L35.0824 41.0797C34.3903 41.926 33.8288 42.5192 33.5638 42.5153C33.37 42.5074 33.3067 42.3413 33.3067 42.1752C33.3146 41.4712 34.1491 40.4746 34.9282 40.4746C35.0785 40.4746 35.3751 40.5023 35.5807 40.5656L35.6045 40.5735C35.6401 40.5853 35.648 40.617 35.6282 40.6526L35.1022 41.6531C34.6079 42.5983 34.2836 43.0215 33.8841 43.3221C33.6468 43.4961 33.3858 43.5791 33.1327 43.5791ZM33.635 42.0723C33.635 42.1712 33.6627 42.2978 33.7694 42.2978C33.9474 42.2978 34.4536 41.7876 35.209 40.8464L35.2564 40.7554C35.0785 40.6882 34.8175 40.6209 34.6434 40.6209C34.074 40.6209 33.635 41.5661 33.635 42.0723Z" fill="#A98B83"/>
<path d="M30.9031 42.4836C30.8596 42.4836 30.8437 42.452 30.8675 42.4085C31.1166 41.9814 31.6584 41.0085 31.6584 40.791C31.6584 40.7277 31.6228 40.6882 31.5556 40.6882C31.4726 40.6882 31.346 40.7554 31.168 40.9175L31.1364 40.878C31.4251 40.617 31.6624 40.4746 31.7968 40.4746C31.9471 40.4746 31.9985 40.5893 31.9985 40.6803C31.9985 40.8385 31.7889 41.2893 31.5754 41.7006C31.7692 41.4514 31.9748 41.226 32.1765 41.0322C32.5245 40.6921 32.8528 40.4746 33.0426 40.4746C33.181 40.4746 33.2443 40.5853 33.2443 40.6921C33.2443 41.0481 32.5522 41.9181 32.5522 42.191C32.5522 42.2582 32.5918 42.2978 32.6629 42.2978C32.746 42.2978 32.8686 42.2226 33.0347 42.0723L33.0663 42.1119C32.7776 42.3769 32.5443 42.5153 32.4257 42.5153C32.2556 42.5153 32.2081 42.3808 32.2081 42.2859C32.2081 41.8786 32.9042 41.0639 32.9042 40.791C32.9042 40.7277 32.8726 40.6803 32.7974 40.6803C32.655 40.6803 32.4573 40.8345 32.2081 41.0718C31.9392 41.3249 31.6466 41.665 31.4132 42.013C31.3025 42.2108 31.2076 42.3729 31.1641 42.4401C31.1443 42.4718 31.1245 42.4836 31.0929 42.4836H30.9031Z" fill="#A98B83"/>
<path d="M30.0251 42.5156C29.8669 42.5156 29.8076 42.3811 29.8076 42.2783C29.8076 41.8987 30.559 41.0128 30.559 40.7874C30.559 40.728 30.5313 40.6885 30.4602 40.6885C30.3811 40.6885 30.2506 40.7557 30.0726 40.9179L30.0409 40.8783C30.3297 40.6173 30.5669 40.4749 30.7054 40.4749C30.8517 40.4749 30.9031 40.5896 30.9031 40.6806C30.9031 41.0326 30.1833 41.8552 30.1833 42.1359C30.1833 42.219 30.2268 42.2585 30.302 42.2585C30.3811 42.2585 30.4799 42.223 30.6421 42.0727L30.6737 42.1122C30.385 42.3732 30.1556 42.5156 30.0251 42.5156ZM30.8438 40.1981L31.5596 39.5416C31.615 39.4902 31.6506 39.4546 31.6743 39.4546C31.6941 39.4546 31.702 39.4783 31.702 39.506C31.702 39.5732 31.6861 39.593 31.6189 39.6444L30.8675 40.2297L30.8438 40.1981Z" fill="#A98B83"/>
<path d="M28.4828 42.5153C28.2415 42.5153 28.115 42.3452 28.115 42.0684C28.115 42.0051 28.1229 41.9379 28.1387 41.8627C27.8856 42.3175 27.5692 42.5113 27.3319 42.5153C27.1065 42.5153 26.9443 42.3611 26.9443 42.0882C26.9443 41.6255 27.4268 41.0955 27.8619 40.7554C27.763 40.7514 27.5138 40.7396 27.3794 40.7435C27.2014 40.7475 27.1183 40.8226 27.0155 40.9373L26.9839 40.9136C27.1025 40.7514 27.2093 40.6328 27.32 40.5379C27.3794 40.4944 27.4506 40.4786 27.5257 40.4786C27.6483 40.4786 27.9172 40.5062 28.1545 40.5062L28.1624 40.5418C27.6087 40.969 27.2647 41.582 27.2647 42.0091C27.2647 42.2029 27.3556 42.3452 27.5455 42.3452C27.7551 42.3492 28.0082 42.0763 28.2178 41.6057C28.2969 41.3921 28.4155 41.1786 28.5263 41.0283C28.5895 40.9452 28.9455 40.8108 28.8941 40.882C28.5619 41.3249 28.4353 41.7639 28.4393 42.0012C28.4393 42.191 28.5144 42.3413 28.7082 42.3452C28.9771 42.3452 29.3172 41.8707 29.5308 41.3921C29.4912 41.056 29.4754 40.8266 29.4952 40.7C29.511 40.5656 29.6573 40.4746 29.7799 40.4746C29.8432 40.4746 29.863 40.5062 29.863 40.5537C29.863 40.7119 29.7127 41.1153 29.6059 41.3565C29.3449 41.9379 28.9376 42.5113 28.4828 42.5153Z" fill="#A98B83"/>
<path d="M25.9524 42.5153C25.7823 42.5153 25.7388 42.3808 25.7388 42.2859C25.7388 41.9972 25.9563 41.574 26.1818 41.2062C25.5371 41.9814 25.0111 42.5192 24.758 42.5153C24.5682 42.5074 24.501 42.3413 24.501 42.1752C24.5089 41.4712 25.3433 40.4746 26.1224 40.4746C26.2727 40.4746 26.5496 40.5023 26.7552 40.5695L26.8066 40.5853C26.8501 40.5972 26.862 40.6288 26.8343 40.6684C26.7117 40.8503 26.4942 41.1825 26.34 41.4752C26.1541 41.8351 26.0869 42.0486 26.0869 42.1752C26.0869 42.2503 26.1224 42.2899 26.1936 42.2899C26.2767 42.2899 26.3993 42.2226 26.5614 42.0723L26.5931 42.1119C26.3044 42.3729 26.075 42.5153 25.9524 42.5153ZM24.8292 42.0723C24.8292 42.1712 24.8569 42.2978 24.9637 42.2978C25.1417 42.2978 25.6597 41.7876 26.4191 40.8424L26.4705 40.7673C26.2885 40.6961 26.0236 40.6209 25.8377 40.6209C25.2722 40.6209 24.8292 41.5661 24.8292 42.0723Z" fill="#A98B83"/>
<path d="M22.8122 42.4836C22.7687 42.4836 22.7529 42.452 22.7766 42.4085C23.0258 41.9814 23.5676 41.0085 23.5676 40.791C23.5676 40.7277 23.532 40.6882 23.4648 40.6882C23.3817 40.6882 23.2552 40.7554 23.0772 40.9175L23.0456 40.878C23.3343 40.617 23.5716 40.4746 23.706 40.4746C23.8563 40.4746 23.9077 40.5893 23.9077 40.6803C23.9077 40.7752 23.8365 40.969 23.7337 41.1983C24.0066 40.791 24.3348 40.4746 24.7778 40.4746C24.8727 40.4746 25.0111 40.4944 25.0111 40.5577C25.0111 40.6526 24.8727 40.8187 24.7264 40.8187C24.5998 40.8187 24.4535 40.7949 24.2281 40.7277C24.0066 40.8701 23.7456 41.226 23.5202 41.6334C23.3382 41.9893 23.1444 42.3334 23.0733 42.4401C23.0535 42.4718 23.0337 42.4836 23.0021 42.4836H22.8122Z" fill="#A98B83"/>
<path d="M20.5308 42.5117C20.1828 42.5117 19.7913 42.4919 19.5738 42.4642C19.5342 42.4603 19.5303 42.4524 19.5303 42.4365C19.5303 42.4128 19.6094 42.3495 19.6806 42.2942L19.7636 42.2309C19.8743 42.1478 19.9297 42.0411 20.0167 41.8947C20.3647 41.2857 20.5941 40.7083 20.9461 40.0993C21.0489 39.9173 21.1557 39.7829 21.3574 39.6761L21.6263 39.5337L21.654 39.5693C21.4958 39.6801 21.4167 39.8264 21.3258 39.9806C20.9777 40.5778 20.7602 41.1433 20.4201 41.7405C20.3173 41.9185 20.2303 42.0173 20.076 42.1083L19.9139 42.2072C20.0681 42.2269 20.5427 42.2625 20.9738 42.2625C22.002 42.2665 22.5913 41.6495 22.5873 40.7993C22.5873 39.9964 21.9902 39.4744 21.1834 39.4784C20.7919 39.4784 20.4676 39.6247 20.2619 39.771L20.2303 39.7275C20.5823 39.4784 20.9817 39.2925 21.4919 39.2925C22.3303 39.2925 22.8879 39.9213 22.8879 40.5422C22.8879 41.7286 21.6421 42.5117 20.5308 42.5117Z" fill="#A98B83"/>
</svg>
