<svg width="56" height="57" viewBox="0 0 56 57" fill="none" xmlns="http://www.w3.org/2000/svg">
<path d="M0 47.7293C0.0659134 47.7161 0.135121 47.7095 0.20433 47.7095C0.74482 47.7095 1.18645 48.0984 1.18645 48.5763C1.18645 49.0542 0.748115 49.443 0.20433 49.443C0.135121 49.443 0.0659134 49.4364 0 49.4233V50.7448C0.0659134 50.7316 0.135121 50.7251 0.20433 50.7251C0.74482 50.7251 1.18645 51.1139 1.18645 51.5918C1.18645 52.0697 0.748115 52.4586 0.20433 52.4586C0.135121 52.4586 0.0659134 52.452 0 52.4388V53.7604C0.0659134 53.7472 0.135121 53.7406 0.20433 53.7406C0.74482 53.7406 1.18645 54.1295 1.18645 54.6074C1.18645 55.0852 0.748115 55.4741 0.20433 55.4741C0.135121 55.4741 0.0659134 55.4675 0 55.4543V56.9605H2.62996C2.597 56.8748 2.57722 56.7858 2.57722 56.6902C2.57722 56.2123 3.01553 55.8235 3.55932 55.8235C4.1031 55.8235 4.54144 56.2123 4.54144 56.6902C4.54144 56.7858 4.51836 56.8748 4.4887 56.9605H6.15961C6.12665 56.8748 6.10688 56.7858 6.10688 56.6902C6.10688 56.2123 6.5452 55.8235 7.08899 55.8235C7.63277 55.8235 8.07109 56.2123 8.07109 56.6902C8.07109 56.7858 8.04803 56.8748 8.01837 56.9605H9.68927C9.65632 56.8748 9.63653 56.7858 9.63653 56.6902C9.63653 56.2123 10.0749 55.8235 10.6187 55.8235C11.1591 55.8235 11.6008 56.2123 11.6008 56.6902C11.6008 56.7858 11.5777 56.8748 11.548 56.9605H13.2189C13.186 56.8748 13.1662 56.7858 13.1662 56.6902C13.1662 56.2123 13.6045 55.8235 14.1483 55.8235C14.6888 55.8235 15.1304 56.2123 15.1304 56.6902C15.1304 56.7858 15.1073 56.8748 15.0777 56.9605H16.7486C16.7156 56.8748 16.6959 56.7858 16.6959 56.6902C16.6959 56.2123 17.1342 55.8235 17.678 55.8235C18.2185 55.8235 18.6601 56.2123 18.6601 56.6902C18.6601 56.7858 18.637 56.8748 18.6074 56.9605H20.2783C20.2453 56.8748 20.2255 56.7858 20.2255 56.6902C20.2255 56.2123 20.6639 55.8235 21.2076 55.8235C21.7481 55.8235 22.1897 56.2123 22.1897 56.6902C22.1897 56.7858 22.1667 56.8748 22.137 56.9605H23.8079C23.775 56.8748 23.7552 56.7858 23.7552 56.6902C23.7552 56.2123 24.1935 55.8235 24.7373 55.8235C25.2778 55.8235 25.7194 56.2123 25.7194 56.6902C25.7194 56.7858 25.6963 56.8748 25.6667 56.9605H27.3376C27.3046 56.8748 27.2849 56.7858 27.2849 56.6902C27.2849 56.2123 27.7232 55.8235 28.267 55.8235C28.8107 55.8235 29.2491 56.2123 29.2491 56.6902C29.2491 56.7858 29.226 56.8748 29.1963 56.9605H30.8672C30.8343 56.8748 30.8145 56.7858 30.8145 56.6902C30.8145 56.2123 31.2528 55.8235 31.7966 55.8235C32.3371 55.8235 32.7787 56.2123 32.7787 56.6902C32.7787 56.7858 32.7556 56.8748 32.726 56.9605H34.3969C34.3639 56.8748 34.3442 56.7858 34.3442 56.6902C34.3442 56.2123 34.7825 55.8235 35.3263 55.8235C35.8668 55.8235 36.3084 56.2123 36.3084 56.6902C36.3084 56.7858 36.2853 56.8748 36.2557 56.9605H37.9266C37.8936 56.8748 37.8738 56.7858 37.8738 56.6902C37.8738 56.2123 38.3122 55.8235 38.8559 55.8235C39.3964 55.8235 39.838 56.2123 39.838 56.6902C39.838 56.7858 39.815 56.8748 39.7853 56.9605H41.4562C41.4233 56.8748 41.4035 56.7858 41.4035 56.6902C41.4035 56.2123 41.8418 55.8235 42.3856 55.8235C42.9294 55.8235 43.3677 56.2123 43.3677 56.6902C43.3677 56.7858 43.3446 56.8748 43.315 56.9605H44.9859C44.9529 56.8748 44.9332 56.7858 44.9332 56.6902C44.9332 56.2123 45.3715 55.8235 45.9153 55.8235C46.4558 55.8235 46.8974 56.2123 46.8974 56.6902C46.8974 56.7858 46.8743 56.8748 46.8446 56.9605H48.5155C48.4826 56.8748 48.4628 56.7858 48.4628 56.6902C48.4628 56.2123 48.9011 55.8235 49.4449 55.8235C49.9854 55.8235 50.427 56.2123 50.427 56.6902C50.427 56.7858 50.404 56.8748 50.3743 56.9605H52.0452C52.0122 56.8748 51.9925 56.7858 51.9925 56.6902C51.9925 56.2123 52.4308 55.8235 52.9746 55.8235C53.5151 55.8235 53.9567 56.2123 53.9567 56.6902C53.9567 56.7858 53.9336 56.8748 53.904 56.9605H56V55.4741C55.4595 55.4741 55.0179 55.0852 55.0179 54.6074C55.0179 54.1295 55.4562 53.7406 56 53.7406V52.4586C55.4595 52.4586 55.0179 52.0697 55.0179 51.5918C55.0179 51.1139 55.4562 50.7251 56 50.7251V49.443C55.4595 49.443 55.0179 49.0542 55.0179 48.5763C55.0179 48.0984 55.4562 47.7095 56 47.7095V47.6996V46.4176C55.4595 46.4176 55.0179 46.0287 55.0179 45.5508C55.0179 45.073 55.4562 44.6841 56 44.6841V43.4021C55.4595 43.4021 55.0179 43.0132 55.0179 42.5353C55.0179 42.0574 55.4562 41.6686 56 41.6686V40.3865C55.4595 40.3865 55.0179 39.9977 55.0179 39.5198C55.0179 39.0419 55.4562 38.653 56 38.653V37.371C55.4595 37.371 55.0179 36.9821 55.0179 36.5042C55.0179 36.0264 55.4562 35.6375 56 35.6375V34.3555C55.4595 34.3555 55.0179 33.9666 55.0179 33.4887C55.0179 33.0108 55.4562 32.6219 56 32.6219V31.3399C55.4595 31.3399 55.0179 30.951 55.0179 30.4732C55.0179 29.9953 55.4562 29.6064 56 29.6064V28.3244C55.4595 28.3244 55.0179 27.9355 55.0179 27.4576C55.0179 26.9798 55.4562 26.5909 56 26.5909V25.3089C55.4595 25.3089 55.0179 24.92 55.0179 24.4421C55.0179 23.9642 55.4562 23.5753 56 23.5753V22.2933C55.4595 22.2933 55.0179 21.9044 55.0179 21.4266C55.0179 20.9487 55.4562 20.5598 56 20.5598V19.2778C55.4595 19.2778 55.0179 18.8889 55.0179 18.411C55.0179 17.9331 55.4562 17.5443 56 17.5443V16.2622C55.4595 16.2622 55.0179 15.8734 55.0179 15.3955C55.0179 14.9176 55.4562 14.5287 56 14.5287V13.2467C55.4595 13.2467 55.0179 12.8578 55.0179 12.3799C55.0179 11.9021 55.4562 11.5132 56 11.5132V10.2312C55.4595 10.2312 55.0179 9.84228 55.0179 9.36441C55.0179 8.88654 55.4562 8.49765 56 8.49765V7.21563C55.4595 7.21563 55.0179 6.82674 55.0179 6.34887C55.0179 5.871 55.4562 5.48211 56 5.48211V4.20009C55.4595 4.20009 55.0179 3.81121 55.0179 3.33333C55.0179 2.85546 55.4562 2.46657 56 2.46657V0.980225H53.9567C53.9567 1.4581 53.5184 1.84699 52.9746 1.84699C52.4341 1.84699 51.9925 1.4581 51.9925 0.980225H50.4303C50.4303 1.4581 49.992 1.84699 49.4482 1.84699C48.9077 1.84699 48.4661 1.4581 48.4661 0.980225H46.904C46.904 1.4581 46.4656 1.84699 45.9219 1.84699C45.3814 1.84699 44.9397 1.4581 44.9397 0.980225H43.3776C43.3776 1.4581 42.9393 1.84699 42.3955 1.84699C41.8517 1.84699 41.4134 1.4581 41.4134 0.980225H39.8512C39.8512 1.4581 39.4129 1.84699 38.8691 1.84699C38.3286 1.84699 37.887 1.4581 37.887 0.980225H36.3249C36.3249 1.4581 35.8865 1.84699 35.3428 1.84699C34.8023 1.84699 34.3606 1.4581 34.3606 0.980225H32.7985C32.7985 1.4581 32.3602 1.84699 31.8164 1.84699C31.2759 1.84699 30.8343 1.4581 30.8343 0.980225H29.2721C29.2721 1.4581 28.8338 1.84699 28.29 1.84699C27.7462 1.84699 27.3079 1.4581 27.3079 0.980225H25.7458C25.7458 1.4581 25.3074 1.84699 24.7637 1.84699C24.2232 1.84699 23.7816 1.4581 23.7816 0.980225H22.2194C22.2194 1.4581 21.7811 1.84699 21.2373 1.84699C20.6968 1.84699 20.2552 1.4581 20.2552 0.980225H18.693C18.693 1.4581 18.2547 1.84699 17.7109 1.84699C17.1704 1.84699 16.7288 1.4581 16.7288 0.980225H15.1667C15.1667 1.4581 14.7284 1.84699 14.1846 1.84699C13.6441 1.84699 13.2024 1.4581 13.2024 0.980225H11.6403C11.6403 1.4581 11.202 1.84699 10.6582 1.84699C10.1177 1.84699 9.67608 1.4581 9.67608 0.980225H8.11394C8.11394 1.4581 7.67562 1.84699 7.13183 1.84699C6.58805 1.84699 6.14973 1.4581 6.14973 0.980225H4.58757C4.58757 1.4581 4.14925 1.84699 3.60546 1.84699C3.06168 1.84699 2.62336 1.4581 2.62336 0.980225H0.0494431V2.48635C0.115356 2.47316 0.184564 2.46657 0.253773 2.46657C0.794263 2.46657 1.23588 2.85546 1.23588 3.33333C1.23588 3.81121 0.797558 4.20009 0.253773 4.20009C0.184564 4.20009 0.115356 4.1935 0.0494431 4.18032V5.50188C0.115356 5.4887 0.184564 5.48211 0.253773 5.48211C0.794263 5.48211 1.23588 5.871 1.23588 6.34887C1.23588 6.82674 0.797558 7.21563 0.253773 7.21563C0.184564 7.21563 0.115356 7.20904 0.0494431 7.19586V8.51742C0.115356 8.50424 0.184564 8.49765 0.253773 8.49765C0.794263 8.49765 1.23588 8.88654 1.23588 9.36441C1.23588 9.84228 0.797558 10.2312 0.253773 10.2312C0.184564 10.2312 0.115356 10.2246 0.0494431 10.2114V11.533C0.115356 11.5198 0.184564 11.5132 0.253773 11.5132C0.794263 11.5132 1.23588 11.9021 1.23588 12.3799C1.23588 12.8578 0.797558 13.2467 0.253773 13.2467C0.184564 13.2467 0.115356 13.2401 0.0494431 13.2269V14.5485C0.115356 14.5353 0.184564 14.5287 0.253773 14.5287C0.794263 14.5287 1.23588 14.9176 1.23588 15.3955C1.23588 15.8734 0.797558 16.2622 0.253773 16.2622C0.184564 16.2622 0.115356 16.2557 0.0494431 16.2425V17.564C0.115356 17.5508 0.184564 17.5443 0.253773 17.5443C0.794263 17.5443 1.23588 17.9331 1.23588 18.411C1.23588 18.8889 0.797558 19.2778 0.253773 19.2778C0.184564 19.2778 0.115356 19.2712 0.0494431 19.258V20.5796C0.115356 20.5664 0.184564 20.5598 0.253773 20.5598C0.794263 20.5598 1.23588 20.9487 1.23588 21.4266C1.23588 21.9044 0.797558 22.2933 0.253773 22.2933C0.184564 22.2933 0.115356 22.2867 0.0494431 22.2735V23.5951C0.115356 23.5819 0.184564 23.5753 0.253773 23.5753C0.794263 23.5753 1.23588 23.9642 1.23588 24.4421C1.23588 24.92 0.797558 25.3089 0.253773 25.3089C0.184564 25.3089 0.115356 25.3023 0.0494431 25.2891V26.6106C0.115356 26.5975 0.184564 26.5909 0.253773 26.5909C0.794263 26.5909 1.23588 26.9798 1.23588 27.4576C1.23588 27.9355 0.797558 28.3244 0.253773 28.3244C0.184564 28.3244 0.115356 28.3178 0.0494431 28.3046V29.6262C0.115356 29.613 0.184564 29.6064 0.253773 29.6064C0.794263 29.6064 1.23588 29.9953 1.23588 30.4732C1.23588 30.951 0.797558 31.3399 0.253773 31.3399C0.184564 31.3399 0.115356 31.3333 0.0494431 31.3202V32.6417C0.115356 32.6285 0.184564 32.6219 0.253773 32.6219C0.794263 32.6219 1.23588 33.0108 1.23588 33.4887C1.23588 33.9666 0.797558 34.3555 0.253773 34.3555C0.184564 34.3555 0.115356 34.3489 0.0494431 34.3357V35.6573C0.115356 35.6441 0.184564 35.6375 0.253773 35.6375C0.794263 35.6375 1.23588 36.0264 1.23588 36.5042C1.23588 36.9821 0.797558 37.371 0.253773 37.371C0.184564 37.371 0.115356 37.3644 0.0494431 37.3512V38.6728C0.115356 38.6596 0.184564 38.653 0.253773 38.653C0.794263 38.653 1.23588 39.0419 1.23588 39.5198C1.23588 39.9977 0.797558 40.3865 0.253773 40.3865C0.184564 40.3865 0.115356 40.3799 0.0494431 40.3668V41.6883C0.115356 41.6751 0.184564 41.6686 0.253773 41.6686C0.794263 41.6686 1.23588 42.0574 1.23588 42.5353C1.23588 43.0132 0.797558 43.4021 0.253773 43.4021C0.184564 43.4021 0.115356 43.3955 0.0494431 43.3823V44.7039C0.115356 44.6907 0.184564 44.6841 0.253773 44.6841C0.794263 44.6841 1.23588 45.073 1.23588 45.5508C1.23588 46.0287 0.797558 46.4176 0.253773 46.4176C0.184564 46.4176 0.115356 46.411 0.0494431 46.3978V47.7194C0.115356 47.7062 0.184564 47.6996 0.253773 47.6996" fill="#A98B83"/>
<path d="M52.414 8.82395V48.0391C50.0082 48.1841 48.0967 50.1879 48.0967 52.6267C48.0967 52.887 48.1198 53.1507 48.1692 53.4176H7.75444C7.80387 53.1507 7.82693 52.887 7.82693 52.6267C7.82693 50.1879 5.91545 48.1841 3.50961 48.0391V8.82395C5.82317 8.68224 7.67864 6.82677 7.81705 4.51321H48.1033C48.245 6.82677 50.1005 8.68224 52.414 8.82395Z" fill="white"/>
<path d="M52.414 8.82395V48.0391C50.0082 48.1841 48.0967 50.1879 48.0967 52.6267C48.0967 52.887 48.1198 53.1507 48.1692 53.4176H7.75444C7.80387 53.1507 7.82693 52.887 7.82693 52.6267C7.82693 50.1879 5.91545 48.1841 3.50961 48.0391V8.82395C5.82317 8.68224 7.67864 6.82677 7.81705 4.51321H48.1033C48.245 6.82677 50.1005 8.68224 52.414 8.82395Z" fill="#AB8C85"/>
<path d="M52.6937 8.27015C50.4659 8.27015 48.6565 6.46082 48.6565 4.23295C48.6565 4.07805 48.5313 3.95282 48.3764 3.95282H7.54638C7.39148 3.95282 7.26623 4.07805 7.26623 4.23295C7.26623 6.46082 5.45361 8.27015 3.22904 8.27015C3.07414 8.27015 2.94891 8.39538 2.94891 8.55028V48.3125C2.94891 48.4641 3.07414 48.5927 3.22904 48.5927C5.45361 48.5927 7.26623 50.402 7.26623 52.6266C7.26623 52.9528 7.2201 53.289 7.13442 53.6284C7.11464 53.7141 7.13111 53.8031 7.18384 53.869C7.23657 53.9382 7.31898 53.9778 7.40796 53.9778H48.5148C48.6005 53.9778 48.6829 53.9382 48.7356 53.869C48.7884 53.8031 48.8082 53.7141 48.7851 53.6284C48.6994 53.289 48.6565 52.9528 48.6565 52.6266C48.6565 50.402 50.4659 48.5927 52.6937 48.5927C52.8486 48.5927 52.9739 48.4641 52.9739 48.3125V8.55028C52.9739 8.39538 52.8486 8.27015 52.6937 8.27015ZM52.4136 48.039C50.0078 48.184 48.0963 50.1878 48.0963 52.6266C48.0963 52.8869 48.1194 53.1506 48.1688 53.4175H7.754C7.80344 53.1506 7.8265 52.8869 7.8265 52.6266C7.8265 50.1878 5.91502 48.184 3.50918 48.039V8.82382C5.82274 8.6821 7.6782 6.82664 7.81662 4.51308H48.1029C48.2446 6.82664 50.1001 8.6821 52.4136 8.82382V48.039Z" fill="#F1DFC1"/>
<path d="M52.3281 8.91611V48.1346C51.1611 48.2097 50.0662 48.7253 49.2647 49.5769C48.4633 50.4285 48.0151 51.5527 48.0108 52.7221C48.0107 52.9875 48.035 53.2522 48.0833 53.5131H7.66853C7.71686 53.2522 7.74113 52.9875 7.74103 52.7221C7.73783 51.5543 7.29186 50.431 6.49308 49.5791C5.69429 48.7271 4.60214 48.2097 3.43689 48.1313V8.91282C4.55151 8.8353 5.60015 8.35595 6.38809 7.56377C7.17602 6.77159 7.64973 5.7204 7.72126 4.60538H48.0174C48.0889 5.72522 48.566 6.78063 49.3594 7.57409C50.1529 8.36754 51.2083 8.84465 52.3281 8.91611Z" fill="white"/>
<path d="M27.9619 7.32096C28.315 7.32096 28.6013 7.03471 28.6013 6.6816C28.6013 6.32849 28.315 6.04224 27.9619 6.04224C27.6088 6.04224 27.3226 6.32849 27.3226 6.6816C27.3226 7.03471 27.6088 7.32096 27.9619 7.32096Z" fill="#F5CBD9"/>
<path d="M27.9633 9.21296C27.8842 9.21296 27.8215 9.15034 27.8215 9.07124V8.09572C27.8215 8.01663 27.8842 7.95401 27.9633 7.95401C28.0424 7.95401 28.105 8.01663 28.105 8.09572V9.07124C28.1017 9.15034 28.0391 9.21296 27.9633 9.21296Z" fill="#F5CBD9"/>
<path d="M27.9633 11.8987C27.8842 11.8987 27.8215 11.8361 27.8215 11.757V9.67739C27.8215 9.59829 27.8842 9.53568 27.9633 9.53568C28.0424 9.53568 28.105 9.59829 28.105 9.67739V11.757C28.1017 11.8361 28.0391 11.8987 27.9633 11.8987Z" fill="#F5CBD9"/>
<path d="M29.1592 8.8932C29.1098 8.8932 29.0636 8.86684 29.0372 8.82399L28.5495 7.97701C28.5099 7.91109 28.533 7.82541 28.6022 7.78586C28.6682 7.74631 28.7538 7.76938 28.7934 7.83859L29.2811 8.68558C29.3207 8.75149 29.2976 8.83718 29.2284 8.87673C29.2053 8.88661 29.1823 8.8932 29.1592 8.8932Z" fill="#F5CBD9"/>
<path d="M30.5003 11.2197C30.4508 11.2197 30.4047 11.1934 30.3783 11.1505L29.3402 9.35109C29.3007 9.28518 29.3237 9.19949 29.3929 9.15994C29.4588 9.12039 29.5445 9.14347 29.5841 9.21267L30.6222 11.0121C30.6618 11.078 30.6387 11.1637 30.5695 11.2033C30.5497 11.2131 30.5233 11.2197 30.5003 11.2197Z" fill="#F5CBD9"/>
<path d="M30.0325 8.0196C30.0094 8.0196 29.9831 8.01301 29.9633 7.99983L29.1196 7.51207C29.0537 7.47252 29.0306 7.38683 29.0669 7.32092C29.1064 7.255 29.1921 7.23193 29.258 7.26819L30.1017 7.75595C30.1676 7.79549 30.1907 7.88118 30.1544 7.9471C30.1281 7.99324 30.0819 8.0196 30.0325 8.0196Z" fill="#F5CBD9"/>
<path d="M31.3041 8.75138C31.281 8.75138 31.2547 8.74479 31.2349 8.73161L30.4868 8.29988C30.4209 8.26033 30.3978 8.17464 30.4341 8.10873C30.4736 8.04282 30.5593 8.01975 30.6252 8.056L31.3733 8.48773C31.4392 8.52728 31.4623 8.61297 31.426 8.67888C31.3997 8.72831 31.3535 8.75138 31.3041 8.75138Z" fill="#F5CBD9"/>
<path d="M30.3561 6.82328H29.3806C29.3015 6.82328 29.2389 6.76067 29.2389 6.68157C29.2389 6.60247 29.3015 6.53986 29.3806 6.53986H30.3561C30.4352 6.53986 30.4978 6.60247 30.4978 6.68157C30.4945 6.76067 30.4319 6.82328 30.3561 6.82328Z" fill="#F5CBD9"/>
<path d="M32.8735 6.82356H30.962C30.8829 6.82356 30.8203 6.76094 30.8203 6.68184C30.8203 6.60275 30.8829 6.54013 30.962 6.54013H32.8735C32.9526 6.54013 33.0152 6.60275 33.0152 6.68184C33.0119 6.76094 32.9493 6.82356 32.8735 6.82356Z" fill="#F5CBD9"/>
<path d="M26.5442 6.82338H25.5687C25.4896 6.82338 25.427 6.76076 25.427 6.68166C25.427 6.60257 25.4896 6.53995 25.5687 6.53995H26.5442C26.6233 6.53995 26.6859 6.60257 26.6859 6.68166C26.6859 6.76076 26.6233 6.82338 26.5442 6.82338Z" fill="#F5CBD9"/>
<path d="M24.9622 6.82356H23.0507C22.9716 6.82356 22.909 6.76094 22.909 6.68184C22.909 6.60275 22.9716 6.54013 23.0507 6.54013H24.9622C25.0413 6.54013 25.1039 6.60275 25.1039 6.68184C25.1039 6.76094 25.0413 6.82356 24.9622 6.82356Z" fill="#F5CBD9"/>
<path d="M25.8894 8.0196C25.84 8.0196 25.7938 7.99324 25.7675 7.95039C25.7279 7.88448 25.751 7.79879 25.8202 7.75924L26.6639 7.27149C26.7298 7.23194 26.8155 7.25501 26.8551 7.32421C26.8946 7.39013 26.8715 7.47582 26.8023 7.51536L25.9586 8.00312C25.9389 8.01301 25.9125 8.0196 25.8894 8.0196Z" fill="#F5CBD9"/>
<path d="M24.6635 8.72502C24.614 8.72502 24.5679 8.69865 24.5415 8.65581C24.502 8.5899 24.525 8.50421 24.5943 8.46466L25.2962 8.0593C25.3622 8.01975 25.4478 8.04282 25.4874 8.11203C25.5269 8.17794 25.5039 8.26363 25.4347 8.30317L24.7327 8.70854C24.7129 8.72173 24.6865 8.72502 24.6635 8.72502Z" fill="#F5CBD9"/>
<path d="M26.7645 8.89292C26.7414 8.89292 26.7151 8.88633 26.6953 8.87315C26.6294 8.8336 26.6063 8.74792 26.6426 8.682L27.1303 7.83502C27.1699 7.7691 27.2556 7.74603 27.3215 7.78229C27.3874 7.82183 27.4105 7.90752 27.3742 7.97343L26.8865 8.82042C26.8601 8.86985 26.8107 8.89292 26.7645 8.89292Z" fill="#F5CBD9"/>
<path d="M25.4202 11.2197C25.3971 11.2197 25.3707 11.2131 25.3509 11.1999C25.285 11.1603 25.262 11.0747 25.2982 11.0087L26.3396 9.20931C26.3792 9.1434 26.4649 9.12033 26.5308 9.15658C26.5967 9.19613 26.6198 9.28182 26.5835 9.34773L25.5421 11.1472C25.5157 11.1933 25.4696 11.2197 25.4202 11.2197Z" fill="#F5CBD9"/>
<path d="M27.9619 51.8918C28.315 51.8918 28.6013 51.6055 28.6013 51.2524C28.6013 50.8993 28.315 50.6131 27.9619 50.6131C27.6088 50.6131 27.3226 50.8993 27.3226 51.2524C27.3226 51.6055 27.6088 51.8918 27.9619 51.8918Z" fill="#F5CBD9"/>
<path d="M27.9633 49.9771C27.8842 49.9771 27.8215 49.9144 27.8215 49.8353V48.8598C27.8215 48.7807 27.8842 48.7181 27.9633 48.7181C28.0424 48.7181 28.105 48.7807 28.105 48.8598V49.8353C28.1017 49.9144 28.0391 49.9771 27.9633 49.9771Z" fill="#F5CBD9"/>
<path d="M27.9633 48.3949C27.8842 48.3949 27.8215 48.3322 27.8215 48.2531V46.1736C27.8215 46.0945 27.8842 46.0319 27.9633 46.0319C28.0424 46.0319 28.105 46.0945 28.105 46.1736V48.2531C28.1017 48.3322 28.0391 48.3949 27.9633 48.3949Z" fill="#F5CBD9"/>
<path d="M27.2522 50.165C27.2027 50.165 27.1566 50.1386 27.1302 50.0958L26.6425 49.2521C26.6029 49.1862 26.626 49.1005 26.6952 49.0609C26.7611 49.0214 26.8468 49.0445 26.8864 49.1137L27.3741 49.9574C27.4137 50.0233 27.3906 50.109 27.3214 50.1485C27.2983 50.1584 27.2752 50.165 27.2522 50.165Z" fill="#F5CBD9"/>
<path d="M26.4637 48.7968C26.4143 48.7968 26.3682 48.7705 26.3418 48.7276L25.3004 46.9282C25.2608 46.8623 25.2839 46.7766 25.3531 46.737C25.419 46.6975 25.5047 46.7206 25.5443 46.7898L26.5857 48.5892C26.6252 48.6551 26.6022 48.7408 26.533 48.7803C26.5099 48.7902 26.4868 48.7968 26.4637 48.7968Z" fill="#F5CBD9"/>
<path d="M26.7355 50.6855C26.7124 50.6855 26.686 50.6789 26.6662 50.6657L25.8226 50.1779C25.7566 50.1384 25.7336 50.0527 25.7698 49.9868C25.8094 49.9209 25.8951 49.8978 25.961 49.934L26.8047 50.4218C26.8706 50.4614 26.8937 50.547 26.8574 50.613C26.831 50.6591 26.7816 50.6855 26.7355 50.6855Z" fill="#F5CBD9"/>
<path d="M25.366 49.8946C25.3429 49.8946 25.3166 49.888 25.2968 49.8748L24.5487 49.4431C24.4827 49.4035 24.4597 49.3179 24.4959 49.2519C24.5355 49.186 24.6212 49.163 24.6871 49.1992L25.4352 49.6309C25.5011 49.6705 25.5242 49.7562 25.4879 49.8221C25.4616 49.8682 25.4154 49.8946 25.366 49.8946Z" fill="#F5CBD9"/>
<path d="M26.5442 51.3907H25.5687C25.4896 51.3907 25.427 51.3281 25.427 51.249C25.427 51.1699 25.4896 51.1073 25.5687 51.1073H26.5442C26.6233 51.1073 26.6859 51.1699 26.6859 51.249C26.6859 51.3281 26.6233 51.3907 26.5442 51.3907Z" fill="#F5CBD9"/>
<path d="M24.9622 51.3907H23.0507C22.9716 51.3907 22.909 51.3281 22.909 51.249C22.909 51.1699 22.9716 51.1073 23.0507 51.1073H24.9622C25.0413 51.1073 25.1039 51.1699 25.1039 51.249C25.1039 51.3281 25.0413 51.3907 24.9622 51.3907Z" fill="#F5CBD9"/>
<path d="M30.3561 51.3907H29.3806C29.3015 51.3907 29.2389 51.3281 29.2389 51.249C29.2389 51.1699 29.3015 51.1073 29.3806 51.1073H30.3561C30.4352 51.1073 30.4978 51.1699 30.4978 51.249C30.4978 51.3281 30.4319 51.3907 30.3561 51.3907Z" fill="#F5CBD9"/>
<path d="M32.8735 51.3907H30.962C30.8829 51.3907 30.8203 51.3281 30.8203 51.249C30.8203 51.1699 30.8829 51.1073 30.962 51.1073H32.8735C32.9526 51.1073 33.0152 51.1699 33.0152 51.249C33.0152 51.3281 32.9493 51.3907 32.8735 51.3907Z" fill="#F5CBD9"/>
<path d="M29.1887 50.6855C29.1393 50.6855 29.0931 50.6591 29.0668 50.6163C29.0272 50.5504 29.0503 50.4647 29.1195 50.4251L29.9632 49.9374C30.0291 49.8978 30.1148 49.9209 30.1543 49.9901C30.1939 50.056 30.1708 50.1417 30.1016 50.1813L29.2579 50.669C29.2349 50.6789 29.2118 50.6855 29.1887 50.6855Z" fill="#F5CBD9"/>
<path d="M30.5604 49.8945C30.511 49.8945 30.4648 49.8681 30.4385 49.8252C30.3989 49.7593 30.422 49.6736 30.4912 49.6341L31.1932 49.2287C31.2591 49.1892 31.3448 49.2123 31.3843 49.2815C31.4239 49.3474 31.4008 49.4331 31.3316 49.4726L30.6296 49.878C30.6066 49.8879 30.5835 49.8945 30.5604 49.8945Z" fill="#F5CBD9"/>
<path d="M28.6715 50.1647C28.6485 50.1647 28.6221 50.1581 28.6023 50.1449C28.5364 50.1054 28.5133 50.0197 28.5496 49.9538L29.0373 49.1101C29.0769 49.0442 29.1626 49.0211 29.2285 49.0574C29.2944 49.0969 29.3175 49.1826 29.2812 49.2485L28.7935 50.0922C28.7671 50.1416 28.7177 50.1647 28.6715 50.1647Z" fill="#F5CBD9"/>
<path d="M29.4622 48.7974C29.4392 48.7974 29.4128 48.7908 29.393 48.7776C29.3271 48.738 29.304 48.6523 29.3403 48.5864L30.3784 46.787C30.418 46.7211 30.5037 46.698 30.5696 46.7343C30.6355 46.7738 30.6586 46.8595 30.6223 46.9254L29.5842 48.7248C29.5578 48.771 29.5084 48.7974 29.4622 48.7974Z" fill="#F5CBD9"/>
<path d="M50.2474 28.3277C49.8947 28.3277 49.608 28.6144 49.608 28.967C49.608 29.3197 49.8947 29.6064 50.2474 29.6064C50.6 29.6064 50.8867 29.3197 50.8867 28.967C50.8867 28.6144 50.6 28.3277 50.2474 28.3277Z" fill="#F5CBD9"/>
<path d="M48.8296 29.1054H47.8541C47.775 29.1054 47.7124 29.0428 47.7124 28.9637C47.7124 28.8846 47.775 28.822 47.8541 28.822H48.8296C48.9087 28.822 48.9714 28.8846 48.9714 28.9637C48.9714 29.0428 48.9054 29.1054 48.8296 29.1054Z" fill="#F5CBD9"/>
<path d="M47.2471 29.1053H45.1675C45.0884 29.1053 45.0258 29.0427 45.0258 28.9636C45.0258 28.8845 45.0884 28.8219 45.1675 28.8219H47.2471C47.3262 28.8219 47.3888 28.8845 47.3888 28.9636C47.3888 29.0427 47.3229 29.1053 47.2471 29.1053Z" fill="#F5CBD9"/>
<path d="M48.1726 30.3019C48.1232 30.3019 48.077 30.2755 48.0507 30.2327C48.0111 30.1668 48.0342 30.0811 48.1034 30.0415L48.9471 29.5538C49.013 29.5142 49.0987 29.5373 49.1382 29.6065C49.1778 29.6724 49.1547 29.7581 49.0855 29.7977L48.2418 30.2854C48.222 30.2986 48.1957 30.3019 48.1726 30.3019Z" fill="#F5CBD9"/>
<path d="M45.8461 31.6463C45.7967 31.6463 45.7505 31.6199 45.7242 31.5771C45.6846 31.5112 45.7077 31.4255 45.7769 31.3859L47.5763 30.3445C47.6423 30.305 47.728 30.328 47.7675 30.3972C47.807 30.4632 47.784 30.5488 47.7148 30.5884L45.9153 31.6298C45.8956 31.6397 45.8725 31.6463 45.8461 31.6463Z" fill="#F5CBD9"/>
<path d="M49.0499 31.1787C49.0269 31.1787 49.0005 31.1721 48.9807 31.1589C48.9148 31.1193 48.8918 31.0337 48.928 30.9677L49.4158 30.1208C49.4553 30.0548 49.541 30.0318 49.6069 30.068C49.6728 30.1076 49.6959 30.1933 49.6596 30.2592L49.1719 31.1062C49.1455 31.1556 49.0961 31.1787 49.0499 31.1787Z" fill="#F5CBD9"/>
<path d="M48.3163 32.4506C48.2932 32.4506 48.2669 32.444 48.2471 32.4308C48.1812 32.3913 48.1581 32.3056 48.1944 32.2397L48.6261 31.4916C48.6656 31.4256 48.7513 31.4026 48.8172 31.4388C48.8832 31.4784 48.9062 31.5641 48.87 31.63L48.4383 32.3781C48.4119 32.4242 48.3657 32.4506 48.3163 32.4506Z" fill="#F5CBD9"/>
<path d="M50.2486 31.4984C50.1695 31.4984 50.1069 31.4358 50.1069 31.3567V30.3812C50.1069 30.3021 50.1695 30.2394 50.2486 30.2394C50.3277 30.2394 50.3904 30.3021 50.3904 30.3812V31.3567C50.3871 31.4358 50.3244 31.4984 50.2486 31.4984Z" fill="#F5CBD9"/>
<path d="M50.2486 34.016C50.1695 34.016 50.1069 33.9534 50.1069 33.8743V31.9628C50.1069 31.8837 50.1695 31.8211 50.2486 31.8211C50.3277 31.8211 50.3904 31.8837 50.3904 31.9628V33.8743C50.3871 33.9534 50.3244 34.016 50.2486 34.016Z" fill="#F5CBD9"/>
<path d="M50.2486 27.6914C50.1695 27.6914 50.1069 27.6288 50.1069 27.5497V26.5741C50.1069 26.495 50.1695 26.4324 50.2486 26.4324C50.3277 26.4324 50.3904 26.495 50.3904 26.5741V27.5497C50.3871 27.6288 50.3244 27.6914 50.2486 27.6914Z" fill="#F5CBD9"/>
<path d="M50.2486 26.1097C50.1695 26.1097 50.1069 26.0471 50.1069 25.968V24.0565C50.1069 23.9774 50.1695 23.9148 50.2486 23.9148C50.3277 23.9148 50.3904 23.9774 50.3904 24.0565V25.968C50.3871 26.0471 50.3244 26.1097 50.2486 26.1097Z" fill="#F5CBD9"/>
<path d="M49.5376 27.8795C49.4882 27.8795 49.442 27.8531 49.4157 27.8103L48.9279 26.9633C48.8884 26.8974 48.9114 26.8117 48.9806 26.7721C49.0466 26.7326 49.1322 26.7556 49.1718 26.8249L49.6595 27.6718C49.6991 27.7378 49.676 27.8234 49.6068 27.863C49.5838 27.8762 49.5607 27.8795 49.5376 27.8795Z" fill="#F5CBD9"/>
<path d="M48.7465 26.5117C48.6971 26.5117 48.651 26.4853 48.6246 26.4425L48.2192 25.7405C48.1797 25.6746 48.2028 25.5889 48.272 25.5494C48.3379 25.5098 48.4236 25.5329 48.4631 25.6021L48.8685 26.3041C48.908 26.37 48.885 26.4557 48.8158 26.4952C48.7927 26.5051 48.7696 26.5117 48.7465 26.5117Z" fill="#F5CBD9"/>
<path d="M49.0209 28.4003C48.9978 28.4003 48.9715 28.3937 48.9517 28.3806L48.108 27.8928C48.0421 27.8533 48.019 27.7676 48.0553 27.7017C48.0948 27.6357 48.1805 27.6127 48.2464 27.6489L49.0901 28.1367C49.156 28.1762 49.1791 28.2619 49.1428 28.3278C49.1165 28.374 49.067 28.4003 49.0209 28.4003Z" fill="#F5CBD9"/>
<path d="M47.6502 27.6091C47.6271 27.6091 47.6007 27.6025 47.581 27.5893L45.7815 26.5479C45.7156 26.5083 45.6925 26.4226 45.7288 26.3567C45.7683 26.2908 45.854 26.2677 45.9199 26.304L47.7194 27.3454C47.7853 27.385 47.8084 27.4707 47.7721 27.5366C47.7457 27.5827 47.6963 27.6091 47.6502 27.6091Z" fill="#F5CBD9"/>
<path d="M5.67571 29.6064C6.02834 29.6064 6.31505 29.3197 6.31505 28.967C6.31505 28.6144 6.02834 28.3277 5.67571 28.3277C5.32307 28.3277 5.03635 28.6144 5.03635 28.967C5.03635 29.3197 5.32307 29.6064 5.67571 29.6064Z" fill="#F5CBD9"/>
<path d="M8.06988 29.1053H7.09438C7.01528 29.1053 6.95267 29.0427 6.95267 28.9636C6.95267 28.8845 7.01528 28.8219 7.09438 28.8219H8.06988C8.14898 28.8219 8.2116 28.8845 8.2116 28.9636C8.2116 29.0427 8.14568 29.1053 8.06988 29.1053Z" fill="#F5CBD9"/>
<path d="M10.7552 29.1054H8.67565C8.59655 29.1054 8.53394 29.0428 8.53394 28.9637C8.53394 28.8846 8.59655 28.822 8.67565 28.822H10.7552C10.8343 28.822 10.8969 28.8846 10.8969 28.9637C10.8969 29.0428 10.831 29.1054 10.7552 29.1054Z" fill="#F5CBD9"/>
<path d="M6.90249 28.4001C6.85305 28.4001 6.80692 28.3737 6.78055 28.3309C6.741 28.265 6.76406 28.1793 6.83327 28.1397L7.67696 27.652C7.74288 27.6124 7.82857 27.6355 7.86812 27.7047C7.90767 27.7706 7.8846 27.8563 7.8154 27.8959L6.97171 28.3836C6.95193 28.3935 6.92556 28.4001 6.90249 28.4001Z" fill="#F5CBD9"/>
<path d="M8.27419 27.6093C8.22475 27.6093 8.17862 27.583 8.15225 27.5401C8.1127 27.4742 8.13578 27.3885 8.20499 27.349L10.0077 26.3076C10.0736 26.268 10.1593 26.2911 10.1989 26.3603C10.2384 26.4262 10.2154 26.5119 10.1461 26.5514L8.3434 27.5929C8.32033 27.6028 8.29726 27.6093 8.27419 27.6093Z" fill="#F5CBD9"/>
<path d="M6.38531 27.8795C6.36224 27.8795 6.33586 27.8729 6.31609 27.8597C6.25018 27.8201 6.22711 27.7345 6.26337 27.6685L6.75112 26.8216C6.79067 26.7556 6.87636 26.7326 6.94227 26.7688C7.00819 26.8084 7.03127 26.8941 6.99502 26.96L6.50724 27.807C6.48088 27.8564 6.43144 27.8795 6.38531 27.8795Z" fill="#F5CBD9"/>
<path d="M7.17827 26.5117C7.1552 26.5117 7.12883 26.5051 7.10906 26.4919C7.04314 26.4524 7.02008 26.3667 7.05634 26.3008L7.48807 25.5526C7.52762 25.4867 7.61329 25.4637 7.6792 25.4999C7.74512 25.5395 7.7682 25.6251 7.73194 25.6911L7.30021 26.4392C7.27385 26.4853 7.22441 26.5117 7.17827 26.5117Z" fill="#F5CBD9"/>
<path d="M5.67704 27.6914C5.59794 27.6914 5.53531 27.6288 5.53531 27.5497V26.5741C5.53531 26.495 5.59794 26.4324 5.67704 26.4324C5.75614 26.4324 5.81875 26.495 5.81875 26.5741V27.5497C5.81546 27.6288 5.75284 27.6914 5.67704 27.6914Z" fill="#F5CBD9"/>
<path d="M5.67704 26.1097C5.59794 26.1097 5.53531 26.0471 5.53531 25.968V24.0565C5.53531 23.9774 5.59794 23.9148 5.67704 23.9148C5.75614 23.9148 5.81875 23.9774 5.81875 24.0565V25.968C5.81546 26.0471 5.75284 26.1097 5.67704 26.1097Z" fill="#F5CBD9"/>
<path d="M5.67704 31.4984C5.59794 31.4984 5.53531 31.4358 5.53531 31.3567V30.3812C5.53531 30.3021 5.59794 30.2394 5.67704 30.2394C5.75614 30.2394 5.81875 30.3021 5.81875 30.3812V31.3567C5.81546 31.4358 5.75284 31.4984 5.67704 31.4984Z" fill="#F5CBD9"/>
<path d="M5.67704 34.016C5.59794 34.016 5.53531 33.9534 5.53531 33.8743V31.9628C5.53531 31.8837 5.59794 31.8211 5.67704 31.8211C5.75614 31.8211 5.81875 31.8837 5.81875 31.9628V33.8743C5.81546 33.9534 5.75284 34.016 5.67704 34.016Z" fill="#F5CBD9"/>
<path d="M6.87523 31.1784C6.82579 31.1784 6.77965 31.1521 6.75329 31.1092L6.26554 30.2622C6.22599 30.1963 6.24905 30.1106 6.31826 30.0711C6.38417 30.0315 6.46986 30.0546 6.50941 30.1238L6.99719 30.9708C7.03673 31.0367 7.01365 31.1224 6.94444 31.1619C6.92137 31.1718 6.8983 31.1784 6.87523 31.1784Z" fill="#F5CBD9"/>
<path d="M7.58129 32.4043C7.53185 32.4043 7.48571 32.3779 7.45935 32.3351L7.05399 31.6331C7.01444 31.5672 7.0375 31.4815 7.10671 31.442C7.17262 31.4024 7.25832 31.4255 7.29786 31.4947L7.70323 32.1967C7.74277 32.2626 7.71971 32.3483 7.6505 32.3878C7.62743 32.3977 7.60436 32.4043 7.58129 32.4043Z" fill="#F5CBD9"/>
<path d="M7.74853 30.3016C7.72546 30.3016 7.69908 30.295 7.67931 30.2818L6.83562 29.7941C6.76971 29.7545 6.74665 29.6688 6.7829 29.6029C6.82245 29.537 6.90814 29.5139 6.97405 29.5502L7.81774 30.038C7.88366 30.0775 7.90672 30.1632 7.87046 30.2291C7.8441 30.2785 7.79796 30.3016 7.74853 30.3016Z" fill="#F5CBD9"/>
<path d="M10.0725 31.6465C10.0494 31.6465 10.023 31.64 10.0033 31.6268L8.20055 30.5853C8.13464 30.5458 8.11158 30.4601 8.14783 30.3942C8.18738 30.3283 8.27305 30.3052 8.33896 30.3415L10.1417 31.3829C10.2076 31.4224 10.2307 31.5081 10.1944 31.574C10.1681 31.6202 10.1219 31.6465 10.0725 31.6465Z" fill="#F5CBD9"/>
<path d="M21.5827 10.2511C21.5036 10.2511 21.4278 10.2478 21.352 10.2379C20.7061 10.1621 20.1228 9.75348 19.8657 9.19651C19.5922 8.60329 19.7141 7.85517 20.1557 7.41355C20.6237 6.94557 21.4246 6.87306 21.9387 7.25536C22.3539 7.56515 22.522 8.1419 22.321 8.56704C22.2089 8.80433 21.9617 8.98229 21.6816 9.03502C21.4278 9.08116 21.1873 9.01525 21.0192 8.85376C20.9632 8.80103 20.9632 8.71205 21.0159 8.65602C21.0686 8.59999 21.1576 8.6 21.2136 8.65273C21.3158 8.7516 21.4641 8.78785 21.6322 8.75819C21.8266 8.72194 21.9914 8.60329 22.0672 8.4451C22.2155 8.1353 22.0837 7.71016 21.7739 7.47947C21.3652 7.17626 20.7292 7.23559 20.3535 7.61129C19.9909 7.97052 19.8921 8.59011 20.1195 9.07787C20.337 9.54915 20.8346 9.89519 21.3817 9.95781C21.8991 10.0204 22.466 9.83587 22.8977 9.47335C23.4843 8.9757 23.7513 8.17485 23.5503 7.52231C23.4053 7.05433 23.0295 6.64896 22.5253 6.40508C22.0936 6.19745 21.5663 6.10517 20.9599 6.12824C19.9975 6.1645 19.0022 6.47099 18.0069 7.03785C17.2391 7.47617 16.1482 8.16167 15.3045 8.94933C15.2518 8.99547 15.1727 8.99877 15.1199 8.95593C15.0639 8.90979 15.054 8.83399 15.0903 8.77466C15.4231 8.23417 15.6604 7.75301 15.8219 7.29491C14.7047 8.26054 13.3963 9.02514 12.0088 9.51949C11.3958 9.737 10.5851 9.97099 9.75458 9.85564C8.89771 9.7337 8.17597 9.20969 7.91561 8.5209C7.75083 8.08587 7.78377 7.57175 8.00458 7.11694C8.22869 6.65885 8.61098 6.31939 9.0559 6.18097C9.61946 6.0063 10.2522 6.15131 10.6345 6.5402C11.0597 6.97523 11.1256 7.67721 10.7861 8.1386C10.6082 8.37918 10.3116 8.54067 9.99188 8.56374C9.69197 8.59011 9.40855 8.49453 9.21411 8.30338C9.15808 8.25065 9.15808 8.16167 9.21081 8.10564C9.26354 8.04962 9.35251 8.04962 9.40854 8.10564C9.54366 8.23747 9.7447 8.30668 9.96551 8.28691C10.2061 8.26713 10.4269 8.15178 10.5554 7.97382C10.8125 7.62448 10.7532 7.06751 10.4302 6.73465C10.1204 6.41826 9.5997 6.30291 9.13501 6.44463C8.7626 6.55998 8.4429 6.8467 8.25176 7.23559C8.0639 7.62448 8.03424 8.05621 8.17266 8.41873C8.40006 9.01525 9.03284 9.46675 9.79085 9.57551C10.562 9.68427 11.3299 9.46017 11.9133 9.25254C13.4227 8.71534 14.8365 7.85188 15.9999 6.75112C16.046 6.70828 16.1119 6.70169 16.168 6.73135C16.2207 6.76101 16.2471 6.82363 16.2339 6.88625C16.1317 7.31468 15.9669 7.74642 15.7264 8.2177C16.458 7.63766 17.2621 7.13672 17.8685 6.79397C18.9034 6.20404 19.9415 5.88436 20.95 5.84811C21.6025 5.82175 22.176 5.92721 22.6473 6.15461C23.224 6.43144 23.6491 6.89943 23.8205 7.43992C24.0578 8.19792 23.7513 9.12071 23.0823 9.68757C22.6538 10.0468 22.1068 10.2511 21.5827 10.2511Z" fill="#F1DFC1"/>
<path d="M21.1258 9.94152C21.0467 9.94152 20.9709 9.93822 20.8951 9.92833C20.6907 9.90526 20.4897 9.84594 20.2986 9.75696C20.2293 9.724 20.1997 9.64161 20.2326 9.56911C20.2656 9.4999 20.348 9.47023 20.4205 9.50319C20.5853 9.57899 20.7566 9.62843 20.9313 9.6515C21.4487 9.71082 22.0156 9.52956 22.4473 9.16703C23.0339 8.67268 23.3009 7.86854 23.0999 7.216C23.0043 6.9095 22.8066 6.62937 22.5132 6.39208C22.4539 6.34265 22.444 6.25366 22.4935 6.19434C22.5429 6.13502 22.6319 6.12513 22.6912 6.17457C23.0274 6.44811 23.2548 6.77108 23.3668 7.13361C23.6041 7.89161 23.2976 8.8144 22.6286 9.38125C22.1968 9.73719 21.6498 9.94152 21.1258 9.94152Z" fill="#F1DFC1"/>
<path d="M10.4684 9.87542C10.4618 9.87542 10.4552 9.87542 10.4486 9.87542C9.73348 9.77325 8.83047 9.30527 8.53056 8.5209C8.346 8.03314 8.40532 7.42674 8.68875 6.94227C8.9491 6.49736 9.36107 6.21063 9.84883 6.14142C9.92463 6.12824 9.99713 6.18427 10.007 6.26007C10.0169 6.33587 9.96418 6.40837 9.88837 6.41826C9.4863 6.47758 9.14686 6.71487 8.92934 7.08399C8.68876 7.49594 8.63601 8.01007 8.79091 8.41873C9.05127 9.09764 9.85212 9.5063 10.4882 9.59529C10.564 9.60517 10.6167 9.67768 10.6068 9.75348C10.5969 9.82269 10.5376 9.87542 10.4684 9.87542Z" fill="#F1DFC1"/>
<path d="M24.6164 6.12501H12.8047C12.7256 6.12501 12.663 6.06239 12.663 5.9833C12.663 5.9042 12.7256 5.84158 12.8047 5.84158H24.6164C24.6955 5.84158 24.7581 5.9042 24.7581 5.9833C24.7581 6.06239 24.6955 6.12501 24.6164 6.12501Z" fill="#F1DFC1"/>
<path d="M21.4484 9.01538C21.8015 9.01538 22.0877 8.72913 22.0877 8.37602C22.0877 8.02292 21.8015 7.73666 21.4484 7.73666C21.0953 7.73666 20.809 8.02292 20.809 8.37602C20.809 8.72913 21.0953 9.01538 21.4484 9.01538Z" fill="#F1DFC1"/>
<path d="M13.4429 6.4843C13.4429 6.83694 13.1562 7.12366 12.8036 7.12366C12.4509 7.12366 12.1642 6.83694 12.1642 6.4843C12.1642 6.13166 12.4509 5.84494 12.8036 5.84494C13.1562 5.84494 13.4429 6.13166 13.4429 6.4843Z" fill="#F1DFC1"/>
<path d="M9.67494 8.49802C10.0281 8.49802 10.3143 8.21177 10.3143 7.85866C10.3143 7.50555 10.0281 7.2193 9.67494 7.2193C9.32184 7.2193 9.03558 7.50555 9.03558 7.85866C9.03558 8.21177 9.32184 8.49802 9.67494 8.49802Z" fill="#F1DFC1"/>
<path d="M34.3279 10.2511C33.8006 10.2511 33.27 10.0534 32.8382 9.68757C32.1659 9.12071 31.8627 8.19792 32.1 7.43992C32.2681 6.89943 32.6965 6.43144 33.2733 6.15461C33.7478 5.92721 34.318 5.82175 34.9705 5.84811C35.979 5.88436 37.0171 6.20404 38.052 6.79397C38.6584 7.14001 39.4625 7.63766 40.1942 8.2177C39.9536 7.74642 39.7888 7.31468 39.6866 6.88625C39.6734 6.82693 39.6998 6.76431 39.7525 6.73135C39.8053 6.70169 39.8745 6.70828 39.9206 6.75112C41.084 7.85188 42.4978 8.71534 44.0073 9.25254C44.5906 9.46017 45.3585 9.68427 46.1297 9.57551C46.8844 9.47005 47.5204 9.01525 47.7478 8.41873C47.8863 8.05621 47.8566 7.62448 47.6687 7.23559C47.4809 6.8467 47.1579 6.55998 46.7855 6.44463C46.3208 6.29962 45.8001 6.41497 45.4903 6.73465C45.164 7.06751 45.108 7.62118 45.3651 7.97382C45.4936 8.14849 45.7144 8.26713 45.955 8.28691C46.1725 8.30339 46.3768 8.23747 46.512 8.10564C46.568 8.05291 46.657 8.05291 46.7097 8.10564C46.7624 8.16167 46.7624 8.25065 46.7064 8.30338C46.512 8.49453 46.2285 8.59011 45.9286 8.56374C45.6089 8.53738 45.3123 8.37918 45.1344 8.1386C44.7949 7.67721 44.8608 6.97193 45.286 6.5402C45.6683 6.15131 46.301 6.0063 46.8646 6.18097C47.3095 6.31939 47.6918 6.65885 47.9159 7.11694C48.14 7.57504 48.173 8.08587 48.0049 8.5209C47.7412 9.20969 47.0195 9.7337 46.1659 9.85564C45.3354 9.97429 44.5247 9.737 43.9117 9.51949C42.5242 9.02514 41.2158 8.26054 40.0986 7.29491C40.2601 7.75301 40.4974 8.23417 40.8302 8.77466C40.8665 8.83399 40.8533 8.91308 40.8006 8.95593C40.7478 8.99877 40.6687 8.99877 40.616 8.94933C39.7756 8.16167 38.6814 7.47617 37.9135 7.03785C36.9183 6.47099 35.923 6.1645 34.9606 6.12824C34.3509 6.10517 33.8269 6.20075 33.3952 6.40508C32.8877 6.64896 32.5153 7.05433 32.3703 7.52231C32.1659 8.17485 32.4362 8.9757 33.0228 9.47335C33.4545 9.83917 34.0247 10.0204 34.5388 9.95781C35.0892 9.8919 35.5868 9.54585 35.8043 9.07787C36.0317 8.58681 35.9329 7.97052 35.5703 7.61129C35.1946 7.23559 34.5586 7.17956 34.1499 7.47947C33.8368 7.71016 33.7083 8.1353 33.8566 8.4451C33.9324 8.60329 34.0972 8.72194 34.2916 8.75819C34.4531 8.78785 34.608 8.7483 34.7102 8.65273C34.7662 8.6 34.8552 8.59999 34.9079 8.65602C34.9606 8.71205 34.9606 8.80103 34.9046 8.85376C34.7365 9.01525 34.496 9.08116 34.2422 9.03502C33.9621 8.98559 33.7182 8.80433 33.6028 8.56704C33.3985 8.1419 33.5666 7.56515 33.9851 7.25536C34.4992 6.87306 35.3001 6.94557 35.7681 7.41355C36.2097 7.85517 36.3316 8.60329 36.0581 9.19651C35.801 9.75348 35.2177 10.1621 34.5718 10.2379C34.4861 10.2478 34.407 10.2511 34.3279 10.2511Z" fill="#F1DFC1"/>
<path d="M34.796 9.94139C34.272 9.94139 33.7249 9.74036 33.2965 9.37783C32.6242 8.81098 32.321 7.88819 32.5583 7.13019C32.6703 6.77096 32.8977 6.44798 33.2339 6.17115C33.2932 6.12171 33.3822 6.1316 33.4316 6.19092C33.481 6.25025 33.4712 6.33923 33.4118 6.38866C33.1185 6.62925 32.9241 6.90608 32.8285 7.21258C32.6242 7.86512 32.8944 8.66597 33.4811 9.16362C33.9128 9.52943 34.4829 9.7107 34.9971 9.64808C35.1717 9.6283 35.3431 9.57887 35.5079 9.49977C35.5771 9.46682 35.6628 9.49648 35.6957 9.56569C35.7287 9.6349 35.699 9.72058 35.6298 9.75354C35.4387 9.84252 35.2376 9.90185 35.0333 9.92492C34.9509 9.9381 34.8718 9.94139 34.796 9.94139Z" fill="#F1DFC1"/>
<path d="M45.451 9.8753C45.3818 9.8753 45.3225 9.82586 45.3126 9.75336C45.3027 9.67755 45.3555 9.60505 45.4313 9.59516C46.0673 9.50618 46.8682 9.09752 47.1285 8.41861C47.2867 8.00665 47.234 7.49582 46.9901 7.08057C46.7726 6.71145 46.4331 6.47417 46.0311 6.41484C45.9553 6.40496 45.9026 6.33245 45.9124 6.25665C45.9223 6.18085 45.9948 6.12482 46.0706 6.13801C46.5584 6.21051 46.9703 6.49394 47.2307 6.93885C47.5141 7.42332 47.5767 8.02642 47.3889 8.51748C47.089 9.30514 46.186 9.76983 45.4708 9.872C45.4675 9.8753 45.4576 9.8753 45.451 9.8753Z" fill="#F1DFC1"/>
<path d="M43.1168 6.12501H31.3052C31.2261 6.12501 31.1635 6.06239 31.1635 5.9833C31.1635 5.9042 31.2261 5.84158 31.3052 5.84158H43.1168C43.1959 5.84158 43.2586 5.9042 43.2586 5.9833C43.2553 6.06239 43.1927 6.12501 43.1168 6.12501Z" fill="#F1DFC1"/>
<path d="M34.4732 9.01529C34.8263 9.01529 35.1126 8.72904 35.1126 8.37593C35.1126 8.02282 34.8263 7.73657 34.4732 7.73657C34.1201 7.73657 33.8338 8.02282 33.8338 8.37593C33.8338 8.72904 34.1201 9.01529 34.4732 9.01529Z" fill="#F1DFC1"/>
<path d="M42.477 6.48436C42.477 6.837 42.7637 7.12372 43.1164 7.12372C43.469 7.12372 43.7557 6.837 43.7557 6.48436C43.7557 6.13173 43.469 5.845 43.1164 5.845C42.7637 5.845 42.477 6.13173 42.477 6.48436Z" fill="#F1DFC1"/>
<path d="M46.245 8.49796C46.5981 8.49796 46.8843 8.21171 46.8843 7.8586C46.8843 7.50549 46.5981 7.21924 46.245 7.21924C45.8919 7.21924 45.6056 7.50549 45.6056 7.8586C45.6056 8.21171 45.8919 8.49796 46.245 8.49796Z" fill="#F1DFC1"/>
<path d="M21.1351 52.0894C21.0725 52.0894 21.0132 52.0894 20.9506 52.0862C19.9421 52.0499 18.904 51.7302 17.8691 51.1403C17.2627 50.7943 16.4586 50.2966 15.727 49.7166C15.9675 50.1878 16.1323 50.6196 16.2345 51.048C16.2477 51.1073 16.2213 51.17 16.1686 51.2029C16.1158 51.2326 16.0466 51.226 16.0005 51.1831C14.8371 50.0824 13.4233 49.2189 11.9139 48.6817C11.3305 48.4741 10.5593 48.25 9.79145 48.3587C9.03675 48.4675 8.40067 48.919 8.17327 49.5155C8.03485 49.8781 8.06451 50.3098 8.25236 50.6987C8.44021 51.0876 8.76321 51.3743 9.13562 51.4896C9.60031 51.6346 10.121 51.5193 10.4308 51.1996C10.7571 50.8668 10.8131 50.3131 10.5561 49.9604C10.4275 49.7825 10.2067 49.6671 9.96611 49.6474C9.7486 49.6309 9.54427 49.6968 9.40914 49.8286C9.35312 49.8846 9.26414 49.8814 9.21141 49.8286C9.15868 49.7726 9.15869 49.6836 9.21471 49.6309C9.40916 49.4397 9.69258 49.3442 9.98919 49.3705C10.3089 49.3969 10.6055 49.5551 10.7835 49.7957C11.1229 50.2571 11.057 50.9623 10.6318 51.3941C10.2495 51.783 9.61679 51.928 9.05323 51.7533C8.60831 51.6149 8.22601 51.2754 8.00191 50.8173C7.7778 50.3592 7.74484 49.8484 7.91292 49.4134C8.17657 48.7246 8.89833 48.2006 9.75191 48.0786C10.5857 47.96 11.3931 48.1973 12.0061 48.4148C13.3936 48.9091 14.702 49.6737 15.8192 50.6394C15.6577 50.1813 15.4205 49.7001 15.0876 49.1596C15.0513 49.1003 15.0645 49.0212 15.1172 48.9783C15.17 48.9355 15.2491 48.9355 15.3018 48.9849C16.1422 49.7726 17.2364 50.4581 18.0043 50.8964C18.9995 51.4633 19.9948 51.7698 20.9572 51.806C21.5669 51.8291 22.0909 51.7335 22.5226 51.5292C23.0302 51.2853 23.4026 50.8799 23.5476 50.412C23.7519 49.7594 23.4817 48.9586 22.895 48.4609C22.4633 48.0951 21.8964 47.9138 21.379 47.9765C20.8286 48.0424 20.3343 48.3884 20.1168 48.8564C19.8894 49.3442 19.9882 49.9637 20.3508 50.323C20.7265 50.6987 21.3625 50.7547 21.7712 50.4548C22.0843 50.2241 22.2128 49.799 22.0645 49.4892C21.9887 49.331 21.8239 49.2123 21.6295 49.1761C21.4647 49.1464 21.3131 49.186 21.2109 49.2815C21.1549 49.3343 21.0659 49.3343 21.0132 49.2782C20.9605 49.2222 20.9605 49.1332 21.0165 49.0805C21.1846 48.919 21.4252 48.8531 21.6789 48.8992C21.9591 48.9487 22.2029 49.1299 22.3183 49.3672C22.5226 49.7924 22.3545 50.3691 21.936 50.6789C21.4219 51.0612 20.621 50.9887 20.153 50.5207C19.7114 50.0791 19.5895 49.331 19.863 48.7377C20.1201 48.1808 20.7034 47.7721 21.3494 47.6963C21.9426 47.6271 22.5885 47.8314 23.0796 48.2467C23.7519 48.8136 24.0551 49.7363 23.8178 50.4943C23.6497 51.0348 23.2213 51.5028 22.6446 51.7797C22.2227 51.9873 21.7119 52.0894 21.1351 52.0894Z" fill="#F1DFC1"/>
<path d="M22.6013 51.7929C22.5617 51.7929 22.5189 51.7765 22.4925 51.7402C22.4431 51.6809 22.453 51.5919 22.5123 51.5425C22.8056 51.3019 23.0001 51.0251 23.0989 50.7186C23.3033 50.066 23.033 49.2652 22.4464 48.7675C22.0146 48.4017 21.4478 48.2204 20.9304 48.2831C20.7557 48.3028 20.5843 48.3523 20.4195 48.4314C20.3503 48.4643 20.2646 48.4347 20.2317 48.3655C20.1987 48.2962 20.2284 48.2106 20.3009 48.1776C20.4921 48.0886 20.6931 48.0293 20.8974 48.0062C21.4906 47.937 22.1366 48.1414 22.6276 48.5566C23.3 49.1235 23.6032 50.0462 23.3659 50.8042C23.2538 51.1668 23.0264 51.4865 22.6903 51.7633C22.6639 51.7831 22.6309 51.7929 22.6013 51.7929Z" fill="#F1DFC1"/>
<path d="M9.86705 51.7961C9.86046 51.7961 9.85387 51.7961 9.84728 51.7961C9.35952 51.7236 8.94755 51.4401 8.6872 50.9952C8.40377 50.5108 8.34116 49.9077 8.52901 49.4166C8.82892 48.6289 9.73193 48.1643 10.4471 48.0621C10.5229 48.0522 10.5954 48.1049 10.6053 48.1807C10.6152 48.2565 10.5624 48.329 10.4866 48.3389C9.85057 48.4279 9.04972 48.8366 8.78936 49.5155C8.63117 49.9274 8.68391 50.4383 8.92779 50.8502C9.14531 51.2193 9.48475 51.4566 9.88682 51.5159C9.96262 51.5258 10.0154 51.5983 10.0055 51.6741C9.99558 51.7466 9.93626 51.7961 9.86705 51.7961Z" fill="#F1DFC1"/>
<path d="M24.6181 52.0894H12.8064C12.7273 52.0894 12.6647 52.0268 12.6647 51.9477C12.6647 51.8686 12.7273 51.806 12.8064 51.806H24.6181C24.6972 51.806 24.7598 51.8686 24.7598 51.9477C24.7598 52.0268 24.6972 52.0894 24.6181 52.0894Z" fill="#F1DFC1"/>
<path d="M21.4502 50.1977C21.8033 50.1977 22.0896 49.9114 22.0896 49.5583C22.0896 49.2052 21.8033 48.919 21.4502 48.919C21.0971 48.919 20.8109 49.2052 20.8109 49.5583C20.8109 49.9114 21.0971 50.1977 21.4502 50.1977Z" fill="#F1DFC1"/>
<path d="M12.8051 52.0895C13.1582 52.0895 13.4444 51.8032 13.4444 51.4501C13.4444 51.097 13.1582 50.8108 12.8051 50.8108C12.452 50.8108 12.1657 51.097 12.1657 51.4501C12.1657 51.8032 12.452 52.0895 12.8051 52.0895Z" fill="#F1DFC1"/>
<path d="M9.67662 50.7152C10.0297 50.7152 10.316 50.4289 10.316 50.0758C10.316 49.7227 10.0297 49.4365 9.67662 49.4365C9.32351 49.4365 9.03726 49.7227 9.03726 50.0758C9.03726 50.4289 9.32351 50.7152 9.67662 50.7152Z" fill="#F1DFC1"/>
<path d="M34.7833 52.0895C34.2066 52.0895 33.6991 51.9873 33.2706 51.7797C32.6939 51.5029 32.2688 51.0349 32.0974 50.4944C31.8601 49.7364 32.1666 48.8136 32.8356 48.2467C33.3333 47.8249 33.9627 47.6271 34.5658 47.6964C35.2118 47.7722 35.7951 48.1808 36.0522 48.7378C36.3257 49.331 36.2038 50.0791 35.7622 50.5207C35.2909 50.9887 34.49 51.0612 33.9792 50.6789C33.5639 50.3691 33.3959 49.7924 33.5969 49.3673C33.709 49.13 33.9528 48.952 34.2363 48.8993C34.49 48.8531 34.7306 48.919 34.8987 49.0805C34.9547 49.1333 34.9547 49.2222 34.902 49.2783C34.8493 49.3343 34.7603 49.3343 34.7042 49.2816C34.6021 49.1827 34.4505 49.1464 34.2857 49.1761C34.0913 49.2124 33.9265 49.331 33.8507 49.4892C33.7024 49.799 33.8342 50.2241 34.144 50.4548C34.5526 50.758 35.1887 50.6987 35.5644 50.323C35.9269 49.9638 36.0258 49.3475 35.7984 48.8564C35.5809 48.3851 35.0833 48.0391 34.5329 47.9765C34.0155 47.9172 33.4486 48.0984 33.0169 48.4609C32.4302 48.9553 32.1633 49.7594 32.3643 50.412C32.5093 50.88 32.885 51.2853 33.3893 51.5292C33.821 51.7368 34.3483 51.8291 34.9547 51.8061C35.9171 51.7698 36.9124 51.4633 37.9076 50.8964C38.6755 50.4581 39.7664 49.7726 40.6101 48.985C40.6628 48.9355 40.7419 48.9355 40.7947 48.9784C40.8507 49.0245 40.8606 49.1003 40.8243 49.1596C40.4914 49.7001 40.2542 50.1813 40.0927 50.6394C41.2066 49.6738 42.5183 48.9092 43.9058 48.4148C44.5188 48.1973 45.3295 47.96 46.16 48.0786C47.0169 48.2006 47.7386 48.7246 47.999 49.4134C48.1638 49.8484 48.1308 50.3625 47.91 50.8174C47.6859 51.2754 47.3036 51.6149 46.8587 51.7533C46.2951 51.928 45.6624 51.783 45.2801 51.3941C44.8549 50.9591 44.789 50.2571 45.1285 49.7957C45.3064 49.5551 45.5997 49.3936 45.9227 49.3706C46.2226 49.3475 46.506 49.4431 46.7005 49.6309C46.7565 49.6836 46.7565 49.7726 46.7038 49.8287C46.6511 49.8847 46.5621 49.8847 46.506 49.8287C46.3709 49.6968 46.1666 49.6276 45.9491 49.6474C45.7085 49.6672 45.4877 49.7825 45.3592 49.9605C45.1021 50.3098 45.1614 50.8668 45.4844 51.1996C45.7942 51.516 46.3149 51.6314 46.7796 51.4897C47.152 51.3743 47.4717 51.0876 47.6628 50.6987C47.8507 50.3098 47.8803 49.8781 47.7419 49.5156C47.5145 48.919 46.8818 48.4675 46.1237 48.3588C45.3559 48.25 44.5847 48.4741 44.0013 48.6818C42.4919 49.2189 41.0781 50.0824 39.9147 51.1832C39.8686 51.226 39.8026 51.2326 39.7466 51.2029C39.6939 51.1733 39.6675 51.1107 39.6807 51.048C39.7829 50.6196 39.9477 50.1879 40.1882 49.7166C39.4566 50.2966 38.6525 50.7976 38.0461 51.1403C37.0112 51.7303 35.9731 52.0466 34.9646 52.0862C34.9053 52.0895 34.846 52.0895 34.7833 52.0895Z" fill="#F1DFC1"/>
<path d="M33.3247 51.7929C33.2918 51.7929 33.2621 51.783 33.2357 51.76C32.8996 51.4864 32.6722 51.1634 32.5601 50.8009C32.3228 50.0429 32.6293 49.1201 33.2984 48.5533C33.7894 48.138 34.4387 47.9337 35.0286 48.0029C35.2329 48.026 35.434 48.0853 35.6251 48.1743C35.6943 48.2072 35.724 48.2896 35.6943 48.3621C35.6613 48.4313 35.579 48.461 35.5064 48.428C35.3417 48.3522 35.1703 48.3028 34.9956 48.2797C34.4782 48.2171 33.9114 48.4017 33.4796 48.7642C32.893 49.2585 32.626 50.0627 32.8271 50.7152C32.9226 51.0217 33.1204 51.3018 33.4104 51.5391C33.4697 51.5886 33.4796 51.6776 33.4302 51.7369C33.4038 51.7764 33.3643 51.7929 33.3247 51.7929Z" fill="#F1DFC1"/>
<path d="M46.053 51.7962C45.9837 51.7962 45.9244 51.7468 45.9145 51.6776C45.9047 51.6018 45.9574 51.5293 46.0332 51.5194C46.4353 51.4601 46.7747 51.2228 46.9922 50.8537C47.2328 50.4417 47.2855 49.9276 47.1306 49.5156C46.8703 48.8367 46.0694 48.428 45.4334 48.3391C45.3576 48.3292 45.3048 48.2567 45.3147 48.1809C45.3246 48.1051 45.3971 48.0523 45.4729 48.0622C46.2112 48.1677 47.0911 48.6258 47.391 49.4167C47.5756 49.9078 47.5162 50.5109 47.2328 50.9954C46.9725 51.4403 46.5605 51.727 46.0727 51.7962C46.0661 51.7962 46.0595 51.7962 46.053 51.7962Z" fill="#F1DFC1"/>
<path d="M43.119 52.0894H31.3073C31.2282 52.0894 31.1656 52.0268 31.1656 51.9477C31.1656 51.8686 31.2282 51.806 31.3073 51.806H43.119C43.1981 51.806 43.2607 51.8686 43.2607 51.9477C43.2607 52.0268 43.1948 52.0894 43.119 52.0894Z" fill="#F1DFC1"/>
<path d="M34.473 50.1977C34.8261 50.1977 35.1124 49.9114 35.1124 49.5583C35.1124 49.2052 34.8261 48.9189 34.473 48.9189C34.1199 48.9189 33.8337 49.2052 33.8337 49.5583C33.8337 49.9114 34.1199 50.1977 34.473 50.1977Z" fill="#F1DFC1"/>
<path d="M43.1162 52.0895C43.4693 52.0895 43.7556 51.8032 43.7556 51.4501C43.7556 51.097 43.4693 50.8108 43.1162 50.8108C42.7631 50.8108 42.4769 51.097 42.4769 51.4501C42.4769 51.8032 42.7631 52.0895 43.1162 52.0895Z" fill="#F1DFC1"/>
<path d="M46.2448 50.7152C46.5979 50.7152 46.8842 50.4289 46.8842 50.0758C46.8842 49.7227 46.5979 49.4365 46.2448 49.4365C45.8917 49.4365 45.6055 49.7227 45.6055 50.0758C45.6055 50.4289 45.8917 50.7152 46.2448 50.7152Z" fill="#F1DFC1"/>
<path d="M48.9554 24.9066C48.3325 24.9066 47.68 24.6067 47.2417 24.0892C46.8198 23.5916 46.6221 22.9621 46.6913 22.359C46.7671 21.7131 47.1758 21.1297 47.7327 20.8727C48.3259 20.5991 49.0741 20.7211 49.5157 21.1627C49.9837 21.634 50.0562 22.4348 49.6739 22.9489C49.3641 23.3642 48.7873 23.5323 48.3622 23.3312C48.1249 23.2192 47.9469 22.9753 47.8942 22.6919C47.8481 22.4381 47.914 22.1975 48.0755 22.0294C48.1282 21.9734 48.2172 21.9734 48.2732 22.0261C48.3292 22.0789 48.3292 22.1679 48.2765 22.2239C48.1776 22.326 48.1414 22.4777 48.171 22.6424C48.2073 22.8369 48.3259 23.0017 48.4841 23.0775C48.7939 23.2258 49.2191 23.0939 49.4498 22.7841C49.753 22.3755 49.6937 21.7394 49.3179 21.3637C48.9587 21.0012 48.3424 20.9023 47.8514 21.1297C47.3801 21.3472 47.034 21.8449 46.9714 22.3953C46.9121 22.9127 47.0934 23.4795 47.4559 23.9113C47.9502 24.4979 48.7544 24.7681 49.4069 24.5638C49.8716 24.4188 50.2803 24.0431 50.5242 23.5389C50.7318 23.1071 50.8241 22.5798 50.801 21.9734C50.7647 21.0111 50.4582 20.0158 49.8914 19.0205C49.4531 18.2526 48.7676 17.1617 47.9799 16.318C47.9305 16.2653 47.9305 16.1862 47.9733 16.1335C48.0161 16.0808 48.0952 16.0676 48.1546 16.1038C48.6951 16.4367 49.1762 16.674 49.6343 16.8355C48.6687 15.7182 47.9041 14.4099 47.4097 13.0224C47.1922 12.4094 46.955 11.5986 47.0736 10.7681C47.1955 9.91456 47.7195 9.18951 48.4083 8.92916C48.8434 8.76437 49.3542 8.79733 49.8123 9.01814C50.2704 9.24225 50.6098 9.62454 50.7483 10.0695C50.9229 10.633 50.7779 11.2658 50.389 11.6481C49.954 12.0732 49.252 12.1391 48.7906 11.7997C48.55 11.6217 48.3886 11.3251 48.3655 11.0054C48.3424 10.7055 48.438 10.4221 48.6258 10.2309C48.6819 10.1749 48.7676 10.1749 48.8236 10.2276C48.8796 10.2804 48.8796 10.3694 48.8236 10.4254C48.6918 10.5605 48.6226 10.7648 48.6423 10.9824C48.6621 11.2229 48.7774 11.4438 48.9554 11.5723C49.3047 11.8293 49.8617 11.77 50.1946 11.447C50.511 11.1373 50.6263 10.6165 50.4813 10.1518C50.366 9.77944 50.0792 9.45976 49.6904 9.26861C49.3015 9.08076 48.873 9.0511 48.5072 9.18951C47.9107 9.41691 47.4592 10.0497 47.3504 10.8077C47.2417 11.5789 47.4658 12.3468 47.6734 12.9301C48.2106 14.4395 49.0741 15.8534 50.1748 17.0167C50.2177 17.0629 50.2242 17.1288 50.1946 17.1848C50.1649 17.2375 50.099 17.2639 50.0397 17.2507C49.6113 17.1486 49.1795 16.9838 48.7082 16.7432C49.2883 17.4748 49.7892 18.279 50.132 18.8854C50.7219 19.9202 51.0416 20.9583 51.0778 21.9668C51.1009 22.6194 50.9987 23.1928 50.7713 23.6641C50.4945 24.2408 50.0265 24.6693 49.486 24.8374C49.3179 24.8802 49.1367 24.9066 48.9554 24.9066Z" fill="#F1DFC1"/>
<path d="M49.2655 24.4486C48.6426 24.4486 47.9901 24.1487 47.5518 23.6312C47.1299 23.1336 46.9322 22.5008 47.0014 21.901C47.0244 21.6967 47.0838 21.4957 47.1728 21.3045C47.2057 21.2353 47.2881 21.2056 47.3606 21.2386C47.4298 21.2715 47.4595 21.3539 47.4265 21.4264C47.3507 21.5912 47.3013 21.7626 47.2815 21.9373C47.2189 22.4547 47.4034 23.0215 47.766 23.4533C48.2603 24.0399 49.0645 24.3069 49.717 24.1058C50.0235 24.0102 50.3003 23.8125 50.5409 23.5225C50.5904 23.4632 50.6793 23.4533 50.7387 23.5027C50.798 23.5521 50.8079 23.6411 50.7584 23.7005C50.4816 24.0366 50.1619 24.264 49.7994 24.3761C49.628 24.4222 49.4468 24.4486 49.2655 24.4486Z" fill="#F1DFC1"/>
<path d="M47.1961 11.6154C47.1895 11.6154 47.1829 11.6154 47.1763 11.6154C47.1005 11.6055 47.0478 11.533 47.0577 11.4572C47.1598 10.742 47.6245 9.83902 48.4122 9.53911C48.9032 9.35126 49.5063 9.41388 49.9908 9.6973C50.4357 9.95766 50.7224 10.3696 50.7917 10.8574C50.8015 10.9332 50.7488 11.0057 50.673 11.0156C50.5972 11.0255 50.5247 10.9727 50.5148 10.8969C50.4555 10.4949 50.2182 10.1554 49.8491 9.93789C49.4371 9.6973 48.923 9.64457 48.5111 9.79947C47.8322 10.0598 47.4235 10.8607 47.3345 11.4967C47.3246 11.5627 47.2653 11.6154 47.1961 11.6154Z" fill="#F1DFC1"/>
<path d="M50.9443 25.7636C50.8652 25.7636 50.8026 25.701 50.8026 25.6219V13.8102C50.8026 13.7311 50.8652 13.6685 50.9443 13.6685C51.0234 13.6685 51.086 13.7311 51.086 13.8102V25.6219C51.086 25.701 51.0234 25.7636 50.9443 25.7636Z" fill="#F1DFC1"/>
<path d="M48.5501 23.094C48.1975 23.094 47.9108 22.8073 47.9108 22.4547C47.9108 22.102 48.1975 21.8153 48.5501 21.8153C48.9028 21.8153 49.1895 22.102 49.1895 22.4547C49.1928 22.8073 48.9061 23.094 48.5501 23.094Z" fill="#F1DFC1"/>
<path d="M50.4436 14.4494C50.7967 14.4494 51.083 14.1632 51.083 13.8101C51.083 13.457 50.7967 13.1707 50.4436 13.1707C50.0905 13.1707 49.8042 13.457 49.8042 13.8101C49.8042 14.1632 50.0905 14.4494 50.4436 14.4494Z" fill="#F1DFC1"/>
<path d="M49.0719 11.3217C49.425 11.3217 49.7113 11.0355 49.7113 10.6824C49.7113 10.3293 49.425 10.043 49.0719 10.043C48.7188 10.043 48.4326 10.3293 48.4326 10.6824C48.4326 11.0355 48.7188 11.3217 49.0719 11.3217Z" fill="#F1DFC1"/>
<path d="M48.9946 49.117C48.7936 49.117 48.5958 49.0807 48.4146 49.0115C47.7258 48.7479 47.2018 48.0261 47.0798 47.1726C46.9612 46.342 47.1985 45.5313 47.416 44.9183C47.9103 43.5308 48.6749 42.2225 49.6406 41.1052C49.1825 41.2667 48.7013 41.504 48.1608 41.8369C48.1015 41.8731 48.0224 41.8599 47.9795 41.8072C47.9334 41.7545 47.9367 41.6754 47.9861 41.6226C48.7738 40.7823 49.4593 39.6881 49.8976 38.9202C50.4645 37.9249 50.771 36.9296 50.8072 35.9673C50.8303 35.3609 50.7347 34.8336 50.5304 34.4018C50.2865 33.8943 49.8811 33.5219 49.4132 33.3769C48.7606 33.1726 47.9598 33.4428 47.4621 34.0294C47.0963 34.4612 46.915 35.028 46.9777 35.5454C47.0436 36.0958 47.3896 36.5902 47.8576 36.811C48.3454 37.0384 48.965 36.9395 49.3242 36.577C49.6999 36.2013 49.7592 35.5652 49.456 35.1565C49.2253 34.8435 48.8002 34.7149 48.4904 34.8632C48.3322 34.939 48.2135 35.1038 48.1773 35.2983C48.1476 35.463 48.1872 35.6146 48.2827 35.7168C48.3355 35.7728 48.3355 35.8618 48.2794 35.9146C48.2234 35.9673 48.1344 35.9673 48.0817 35.9113C47.9202 35.7432 47.8543 35.5026 47.9004 35.2488C47.9499 34.9687 48.1311 34.7248 48.3684 34.6095C48.7936 34.4051 49.3703 34.5732 49.6801 34.9918C50.0624 35.5059 49.9899 36.3067 49.5219 36.778C49.0803 37.2196 48.3322 37.3416 47.739 37.068C47.182 36.811 46.7733 36.2276 46.6975 35.5817C46.625 34.9819 46.826 34.3491 47.2479 33.8515C47.8147 33.1791 48.7375 32.8759 49.4955 33.1132C50.036 33.2813 50.504 33.7097 50.7809 34.2865C51.0083 34.7611 51.1104 35.3312 51.0874 35.9838C51.0511 36.9922 50.7314 38.0304 50.1415 39.0652C49.7955 39.6716 49.2978 40.4758 48.7178 41.2074C49.189 40.9668 49.6208 40.802 50.0492 40.6999C50.1085 40.6834 50.1712 40.713 50.2041 40.7658C50.2338 40.8185 50.2272 40.8877 50.1843 40.9339C49.0836 42.0972 48.2201 43.5111 47.6829 45.0205C47.4753 45.6038 47.2512 46.3717 47.36 47.1429C47.4654 47.8976 47.9202 48.5337 48.5167 48.7611C48.8793 48.8995 49.311 48.8698 49.6999 48.682C50.0888 48.4941 50.3755 48.1711 50.4908 47.7987C50.6359 47.334 50.5205 46.8133 50.2041 46.5035C49.8713 46.1773 49.3176 46.1212 48.9649 46.3783C48.7903 46.5068 48.6716 46.7276 48.6519 46.9682C48.6354 47.1857 48.7013 47.3901 48.8331 47.5252C48.8858 47.5812 48.8858 47.6702 48.8331 47.7229C48.7771 47.7757 48.6881 47.7757 48.6354 47.7196C48.4442 47.5252 48.3487 47.2418 48.375 46.9419C48.4014 46.6222 48.5596 46.3256 48.8002 46.1476C49.2616 45.8082 49.9668 45.8741 50.3986 46.2992C50.7874 46.6815 50.9325 47.3143 50.7578 47.8778C50.6194 48.3227 50.2799 48.705 49.8218 48.9291C49.5549 49.0511 49.2715 49.117 48.9946 49.117Z" fill="#F1DFC1"/>
<path d="M47.303 36.7118C47.2502 36.7118 47.2008 36.6821 47.1777 36.6327C47.0887 36.4415 47.0294 36.2405 47.0063 36.0362C46.9371 35.443 47.1415 34.797 47.5567 34.306C48.1236 33.6369 49.0464 33.3304 49.8044 33.5677C50.1636 33.6798 50.4866 33.9072 50.7634 34.2433C50.8128 34.3027 50.803 34.3916 50.7436 34.4411C50.6843 34.4905 50.5953 34.4806 50.5459 34.4213C50.3053 34.128 50.0285 33.9335 49.722 33.838C49.0694 33.6336 48.2686 33.9039 47.7709 34.4905C47.4051 34.9222 47.2239 35.4891 47.2865 36.0065C47.3063 36.1812 47.3557 36.3526 47.4348 36.5173C47.4677 36.5866 47.4381 36.6722 47.3689 36.7052C47.3425 36.7085 47.3227 36.7118 47.303 36.7118Z" fill="#F1DFC1"/>
<path d="M49.0134 48.5039C48.8057 48.5039 48.5981 48.4677 48.4102 48.3984C47.6226 48.0985 47.1579 47.1955 47.0557 46.4804C47.0458 46.4046 47.0986 46.3321 47.1744 46.3222C47.2502 46.309 47.3227 46.365 47.3326 46.4408C47.4215 47.0769 47.8302 47.8777 48.5091 48.1381C48.9211 48.2963 49.4319 48.2436 49.8471 47.9997C50.2163 47.7822 50.4536 47.4427 50.5129 47.0406C50.5228 46.9648 50.5953 46.9088 50.6711 46.922C50.7469 46.9319 50.7996 47.0044 50.7897 47.0802C50.7172 47.5679 50.4338 47.9799 49.9889 48.2403C49.6922 48.4149 49.3495 48.5039 49.0134 48.5039Z" fill="#F1DFC1"/>
<path d="M50.9448 44.2626C50.8657 44.2626 50.803 44.1999 50.803 44.1208V32.3092C50.803 32.2301 50.8657 32.1674 50.9448 32.1674C51.0238 32.1674 51.0865 32.2301 51.0865 32.3092V44.1208C51.0865 44.1999 51.0238 44.2626 50.9448 44.2626Z" fill="#F1DFC1"/>
<path d="M48.5528 34.8401C48.2002 34.8401 47.9135 35.1269 47.9135 35.4795C47.9135 35.8321 48.2002 36.1189 48.5528 36.1189C48.9054 36.1189 49.1922 35.8321 49.1922 35.4795C49.1922 35.1269 48.9087 34.8401 48.5528 34.8401Z" fill="#F1DFC1"/>
<path d="M50.4463 44.7632C50.7994 44.7632 51.0857 44.477 51.0857 44.1239C51.0857 43.7707 50.7994 43.4845 50.4463 43.4845C50.0932 43.4845 49.8069 43.7707 49.8069 44.1239C49.8069 44.477 50.0932 44.7632 50.4463 44.7632Z" fill="#F1DFC1"/>
<path d="M49.0723 47.8907C49.4255 47.8907 49.7117 47.6044 49.7117 47.2513C49.7117 46.8982 49.4255 46.6119 49.0723 46.6119C48.7192 46.6119 48.433 46.8982 48.433 47.2513C48.433 47.6044 48.7192 47.8907 49.0723 47.8907Z" fill="#F1DFC1"/>
<path d="M6.96859 24.9068C6.78403 24.9068 6.60607 24.8804 6.43469 24.8277C5.8942 24.6596 5.42621 24.2312 5.14937 23.6544C4.92197 23.1798 4.81981 22.6097 4.84288 21.9571C4.87913 20.9487 5.19881 19.9105 5.78873 18.8757C6.13478 18.2693 6.63243 17.4652 7.21247 16.7335C6.74448 16.9741 6.30946 17.1389 5.88102 17.241C5.8217 17.2542 5.75907 17.2279 5.72612 17.1751C5.69645 17.1224 5.70304 17.0532 5.74589 17.0071C6.84664 15.8437 7.71012 14.4298 8.24731 12.9204C8.45494 12.3371 8.67904 11.5692 8.57028 10.798C8.46152 10.0433 8.01001 9.40724 7.4135 9.17984C7.05097 9.04142 6.61925 9.07108 6.23036 9.25894C5.84147 9.44679 5.55474 9.76976 5.43939 10.1422C5.29438 10.6069 5.41303 11.1276 5.72941 11.4374C6.06228 11.7636 6.61595 11.8197 6.96859 11.5626C7.14656 11.4341 7.26191 11.2133 7.28168 10.9727C7.29816 10.7552 7.23223 10.5508 7.1004 10.4157C7.04767 10.3597 7.04767 10.2707 7.1004 10.218C7.15643 10.1652 7.24543 10.1652 7.29816 10.2213C7.4893 10.4157 7.58487 10.6991 7.55851 10.9958C7.53214 11.3154 7.37395 11.612 7.13007 11.79C6.66868 12.1295 5.96341 12.0603 5.53168 11.6384C5.14279 11.2561 4.99777 10.6233 5.17245 10.0598C5.31086 9.61487 5.65033 9.23257 6.10842 9.00846C6.56652 8.78436 7.07733 8.7514 7.51236 8.91948C8.20116 9.18314 8.72518 9.90489 8.84712 10.7585C8.96577 11.589 8.72847 12.3997 8.51096 13.0127C8.0199 14.4002 7.25531 15.7086 6.28638 16.8258C6.74448 16.6643 7.22565 16.427 7.76614 16.0942C7.82546 16.0579 7.90455 16.0711 7.94739 16.1238C7.99353 16.1765 7.99025 16.2556 7.94082 16.3084C7.15315 17.1488 6.46764 18.2429 6.02931 19.0108C5.46246 20.0061 5.15598 21.0014 5.11972 21.9637C5.09665 22.5701 5.19222 23.0975 5.39655 23.5292C5.64043 24.0367 6.0458 24.4091 6.51379 24.5541C7.16633 24.7585 7.96717 24.4882 8.46482 23.9016C8.83063 23.4699 9.01191 22.903 8.94929 22.3856C8.88338 21.8352 8.53732 21.3409 8.06933 21.1201C7.57828 20.8926 6.962 20.9915 6.60277 21.354C6.22707 21.7297 6.17103 22.3658 6.47094 22.7745C6.70493 23.0876 7.12678 23.2161 7.43657 23.0678C7.59476 22.992 7.71341 22.8272 7.74966 22.6328C7.77932 22.468 7.73977 22.3164 7.6442 22.2142C7.59147 22.1582 7.59147 22.0692 7.6475 22.0165C7.70352 21.9637 7.7925 21.9637 7.84523 22.0198C8.00672 22.1878 8.07263 22.4284 8.02649 22.6822C7.97705 22.9623 7.79579 23.2062 7.55851 23.3216C7.13337 23.5259 6.55663 23.3578 6.24684 22.9393C5.86454 22.4251 5.93704 21.6243 6.40502 21.153C6.84664 20.7114 7.59477 20.5894 8.18799 20.863C8.74496 21.1201 9.15361 21.7034 9.22941 22.3493C9.30192 22.9524 9.10089 23.5819 8.67904 24.0796C8.24401 24.6069 7.59147 24.9068 6.96859 24.9068Z" fill="#F1DFC1"/>
<path d="M6.66056 24.4488C6.47929 24.4488 6.29803 24.4225 6.12666 24.3698C5.76414 24.2577 5.44444 24.0303 5.16761 23.6941C5.11817 23.6348 5.12806 23.5458 5.18738 23.4964C5.2467 23.447 5.3357 23.4568 5.38513 23.5162C5.62572 23.8095 5.90255 24.0039 6.20905 24.0995C6.86159 24.3038 7.66244 24.0369 8.16008 23.447C8.5259 23.0152 8.70717 22.4484 8.64456 21.931C8.62478 21.7563 8.57534 21.5849 8.49625 21.4201C8.46329 21.3509 8.49294 21.2652 8.56544 21.2323C8.63465 21.1993 8.72034 21.229 8.7533 21.2982C8.84228 21.4893 8.90161 21.6904 8.92468 21.8947C8.99718 22.4945 8.79615 23.1273 8.37431 23.6249C7.93598 24.1489 7.28344 24.4488 6.66056 24.4488Z" fill="#F1DFC1"/>
<path d="M8.72823 11.6154C8.65902 11.6154 8.5997 11.5659 8.58981 11.4934C8.50083 10.8574 8.09217 10.0565 7.41326 9.79617C7.0013 9.64127 6.49047 9.69401 6.07522 9.93459C5.7061 10.1521 5.46881 10.4916 5.40949 10.8936C5.3996 10.9694 5.3271 11.0222 5.2513 11.0123C5.1755 11.0024 5.12277 10.9299 5.13266 10.8541C5.20517 10.3663 5.48859 9.95436 5.93351 9.69401C6.41797 9.41058 7.02107 9.34796 7.51212 9.53581C8.29979 9.83572 8.76449 10.7387 8.86666 11.4539C8.87655 11.5297 8.8238 11.6022 8.748 11.6121C8.74141 11.6154 8.73482 11.6154 8.72823 11.6154Z" fill="#F1DFC1"/>
<path d="M4.9793 25.7636C4.9002 25.7636 4.83759 25.7009 4.83759 25.6218V13.8102C4.83759 13.7311 4.9002 13.6685 4.9793 13.6685C5.05839 13.6685 5.12103 13.7311 5.12103 13.8102V25.6218C5.12103 25.7009 5.05839 25.7636 4.9793 25.7636Z" fill="#F1DFC1"/>
<path d="M7.37255 23.0943C7.72565 23.0943 8.01191 22.808 8.01191 22.4549C8.01191 22.1018 7.72565 21.8156 7.37255 21.8156C7.01944 21.8156 6.73318 22.1018 6.73318 22.4549C6.73318 22.808 7.01944 23.0943 7.37255 23.0943Z" fill="#F1DFC1"/>
<path d="M5.47905 14.4497C5.83216 14.4497 6.11841 14.1635 6.11841 13.8104C6.11841 13.4573 5.83216 13.171 5.47905 13.171C5.12594 13.171 4.83969 13.4573 4.83969 13.8104C4.83969 14.1635 5.12594 14.4497 5.47905 14.4497Z" fill="#F1DFC1"/>
<path d="M6.85301 11.3219C7.20612 11.3219 7.49237 11.0357 7.49237 10.6826C7.49237 10.3295 7.20612 10.0432 6.85301 10.0432C6.49991 10.0432 6.21365 10.3295 6.21365 10.6826C6.21365 11.0357 6.49991 11.3219 6.85301 11.3219Z" fill="#F1DFC1"/>
<path d="M6.93219 49.1169C6.65535 49.1169 6.37193 49.051 6.10827 48.9224C5.65017 48.6983 5.31071 48.316 5.17229 47.8711C4.99762 47.3076 5.14264 46.6748 5.53153 46.2925C5.96656 45.8674 6.66853 45.8014 7.12992 46.1409C7.37051 46.3189 7.53199 46.6155 7.55835 46.9352C7.58142 47.2351 7.48586 47.5185 7.298 47.7129C7.24527 47.769 7.15628 47.769 7.10025 47.7162C7.04422 47.6635 7.04422 47.5745 7.10025 47.5185C7.23208 47.3834 7.3013 47.179 7.28153 46.9615C7.26176 46.7209 7.1464 46.5001 6.96844 46.3716C6.6191 46.1145 6.06212 46.1739 5.72926 46.4968C5.41288 46.8066 5.29753 47.3273 5.43924 47.792C5.55459 48.1644 5.84132 48.4841 6.23021 48.6753C6.6191 48.8631 7.05082 48.8928 7.41334 48.7544C8.00986 48.527 8.46137 47.8942 8.57013 47.1362C8.67888 46.365 8.45479 45.5971 8.24716 45.0138C7.70996 43.5044 6.84649 42.0905 5.74574 40.9271C5.70289 40.881 5.6963 40.8151 5.72596 40.7591C5.75562 40.7063 5.82155 40.6767 5.88087 40.6932C6.30931 40.7953 6.74103 40.9601 7.21231 41.2007C6.63228 40.469 6.13463 39.6649 5.78858 39.0585C5.19866 38.0237 4.87898 36.9855 4.84273 35.9771C4.81966 35.3245 4.92182 34.7511 5.14922 34.2798C5.42606 33.703 5.89405 33.2746 6.43454 33.1065C7.18925 32.8692 8.11533 33.1757 8.68219 33.8448C9.10403 34.3424 9.30177 34.9752 9.23256 35.575C9.15676 36.2209 8.74809 36.8043 8.19112 37.0613C7.5979 37.3349 6.84979 37.2129 6.40817 36.7713C5.94018 36.3 5.86769 35.4992 6.24998 34.9851C6.55978 34.5698 7.13651 34.4017 7.56165 34.6028C7.79894 34.7148 7.9769 34.962 8.02963 35.2421C8.07577 35.4959 8.00986 35.7365 7.84837 35.9045C7.79564 35.9606 7.70667 35.9606 7.65064 35.9078C7.59462 35.8551 7.59461 35.7661 7.64734 35.7101C7.74621 35.6079 7.78247 35.4563 7.75281 35.2916C7.71656 35.0971 7.59791 34.9323 7.43971 34.8565C7.12992 34.7082 6.70478 34.84 6.47409 35.1531C6.17088 35.5585 6.23019 36.1979 6.6059 36.5736C6.96513 36.9361 7.58142 37.035 8.07248 36.8076C8.54376 36.59 8.8898 36.0924 8.95242 35.542C9.01174 35.0246 8.83049 34.4577 8.46796 34.026C7.97361 33.4394 7.16947 33.1724 6.51693 33.3735C6.05224 33.5185 5.64357 33.8909 5.39969 34.3984C5.19207 34.8302 5.09978 35.3575 5.12285 35.9639C5.1591 36.9262 5.4656 37.9215 6.03246 38.9168C6.47078 39.6847 7.15628 40.7788 7.94394 41.6192C7.99338 41.672 7.99338 41.7511 7.95054 41.8038C7.9077 41.8565 7.8286 41.8697 7.76928 41.8335C7.22879 41.5006 6.74763 41.2633 6.28953 41.1018C7.25516 42.219 8.01976 43.5274 8.51411 44.9149C8.73162 45.5279 8.96889 46.3386 8.85025 47.1691C8.72831 48.026 8.2043 48.7478 7.51551 49.0081C7.32766 49.0806 7.13322 49.1169 6.93219 49.1169Z" fill="#F1DFC1"/>
<path d="M8.62461 36.7118C8.60484 36.7118 8.58506 36.7085 8.56529 36.6986C8.49608 36.6656 8.46643 36.5832 8.49609 36.5107C8.57189 36.3459 8.62133 36.1746 8.6444 35.9999C8.70702 35.4825 8.52245 34.9156 8.15993 34.4839C7.66558 33.8973 6.86144 33.6303 6.2089 33.8313C5.9024 33.9269 5.62227 34.1247 5.38498 34.4147C5.33555 34.474 5.24655 34.4839 5.18723 34.4344C5.12791 34.385 5.11802 34.296 5.16746 34.2367C5.441 33.9005 5.76398 33.6731 6.12651 33.5611C6.88451 33.3238 7.8073 33.6303 8.37416 34.2993C8.78941 34.7904 8.99374 35.4363 8.92453 36.0295C8.90146 36.2339 8.84213 36.4349 8.75315 36.6261C8.72678 36.6821 8.67734 36.7118 8.62461 36.7118Z" fill="#F1DFC1"/>
<path d="M6.90888 48.5039C6.57272 48.5039 6.22996 48.415 5.93335 48.2403C5.48844 47.9799 5.20172 47.568 5.13251 47.0802C5.12262 47.0044 5.17535 46.9319 5.25115 46.922C5.32695 46.9088 5.39945 46.9649 5.40933 47.0407C5.46866 47.4427 5.70595 47.7822 6.07506 47.9997C6.48702 48.2403 7.00115 48.293 7.41311 48.1381C8.09201 47.8778 8.50068 47.0769 8.58966 46.4408C8.59955 46.365 8.67534 46.3123 8.74785 46.3222C8.82365 46.3321 8.87639 46.4046 8.86651 46.4804C8.76434 47.1956 8.29964 48.0986 7.51197 48.3985C7.32412 48.471 7.1198 48.5039 6.90888 48.5039Z" fill="#F1DFC1"/>
<path d="M4.9793 44.2621C4.9002 44.2621 4.83759 44.1995 4.83759 44.1204V32.3087C4.83759 32.2296 4.9002 32.167 4.9793 32.167C5.05839 32.167 5.12103 32.2296 5.12103 32.3087V44.1204C5.12103 44.1995 5.05839 44.2621 4.9793 44.2621Z" fill="#F1DFC1"/>
<path d="M7.37239 36.1188C7.7255 36.1188 8.01175 35.8325 8.01175 35.4794C8.01175 35.1263 7.7255 34.8401 7.37239 34.8401C7.01928 34.8401 6.73303 35.1263 6.73303 35.4794C6.73303 35.8325 7.01928 36.1188 7.37239 36.1188Z" fill="#F1DFC1"/>
<path d="M5.4789 44.7633C5.83201 44.7633 6.11826 44.477 6.11826 44.1239C6.11826 43.7708 5.83201 43.4845 5.4789 43.4845C5.12579 43.4845 4.83954 43.7708 4.83954 44.1239C4.83954 44.477 5.12579 44.7633 5.4789 44.7633Z" fill="#F1DFC1"/>
<path d="M6.85286 47.8906C7.20597 47.8906 7.49222 47.6043 7.49222 47.2512C7.49222 46.8981 7.20597 46.6119 6.85286 46.6119C6.49975 46.6119 6.2135 46.8981 6.2135 47.2512C6.2135 47.6043 6.49975 47.8906 6.85286 47.8906Z" fill="#F1DFC1"/>
<path d="M51.6226 52.7682H4.30007C4.22097 52.7682 4.15836 52.7055 4.15836 52.6265V5.30395C4.15836 5.22485 4.22097 5.16223 4.30007 5.16223H51.6226C51.7017 5.16223 51.7643 5.22485 51.7643 5.30395V52.6265C51.7643 52.7055 51.7017 52.7682 51.6226 52.7682ZM4.4418 52.488H51.4842V5.44566H4.4418V52.488Z" fill="#F1DFC1"/>
<path d="M27.9414 28.9375C27.9414 28.9507 27.9381 28.9606 27.9348 28.9705C27.9546 28.9837 27.9743 28.9969 27.9941 29.01C27.9776 28.9837 27.9611 28.9573 27.948 28.9276C27.9447 28.9309 27.9414 28.9342 27.9414 28.9375Z" fill="#EAA49B"/>
<path fill-rule="evenodd" clip-rule="evenodd" d="M27.9533 28.8951C27.964 28.897 27.973 28.9042 27.9774 28.9141C27.9895 28.9413 28.0047 28.9657 28.0214 28.9924C28.0296 29.0056 28.0275 29.0227 28.0164 29.0335C28.0053 29.0443 27.9881 29.0459 27.9752 29.0373L27.9158 28.9977C27.9035 28.9895 27.8981 28.974 27.9028 28.9599C27.9061 28.95 27.9078 28.9446 27.9078 28.9373C27.9078 28.925 27.9137 28.9162 27.9164 28.9127C27.9191 28.909 27.9223 28.9059 27.9237 28.9044C27.9238 28.9043 27.9239 28.9042 27.924 28.9042C27.9317 28.8965 27.9426 28.8931 27.9533 28.8951Z" fill="#EAA49B"/>
<path d="M33.3287 22.4613L33.3122 22.4382L33.1705 22.5832L33.1639 22.5898L32.9761 22.7809C32.9201 22.8403 32.8607 22.8996 32.8047 22.9556C32.6663 23.094 32.5312 23.2259 32.396 23.3544L32.3993 23.3577L32.2016 23.5422L32.195 23.5488L32.017 23.7169L32.0137 23.7136C31.9511 23.7729 31.8852 23.829 31.8259 23.8817L31.8292 23.885L31.8127 23.8982C31.872 23.9114 31.9314 23.9278 31.9907 23.9509C32.4455 24.1454 32.6564 24.6694 32.462 25.1242C32.2675 25.579 31.7435 25.7899 31.2887 25.5955C30.9196 25.4373 30.7153 25.0616 30.7548 24.6826C30.4318 24.8671 30.1616 24.9561 29.921 24.9561C29.8122 24.9561 29.7134 24.9396 29.6244 24.91C29.654 25.022 29.6771 25.1341 29.6837 25.2494C29.7101 25.6811 29.5684 26.0799 29.2783 26.3699C28.204 27.4443 26.6517 28.0738 25.6729 28.1397H25.6399C25.5048 28.1397 25.373 28.0837 25.2807 27.9914C25.1752 27.8859 25.1225 27.7442 25.1324 27.5959C25.195 26.6863 25.6959 25.1967 26.9022 23.9905C27.1658 23.7268 27.5283 23.5818 27.9205 23.5818C28.0721 23.5818 28.2204 23.6049 28.3654 23.6444C28.3325 23.5521 28.316 23.4533 28.316 23.3445C28.1248 23.3445 27.9304 23.305 27.7426 23.2259C26.9911 22.9062 26.6418 22.0394 26.9615 21.288C27.2812 20.5366 28.1479 20.1873 28.8993 20.5069C29.2256 20.6454 29.4728 20.8859 29.6244 21.176L29.7233 21.0705L29.7299 21.0639L29.9144 20.8662L29.9177 20.8695C30.0462 20.7343 30.1748 20.6025 30.3165 20.4608C30.3725 20.4048 30.4318 20.3487 30.4912 20.2894H30.4879L30.679 20.1049L30.6955 20.0884L30.7021 20.0818C29.3443 19.3205 27.7525 18.9514 26.0848 19.1162C21.7609 19.5446 18.6004 23.4005 19.0321 27.7245C19.4605 32.0484 23.3165 35.2056 27.6404 34.7772C28.8796 34.6552 30.0232 34.2466 31.0152 33.627L31.0185 33.6303L31.0316 33.6171C31.5787 33.2744 32.0797 32.8723 32.5246 32.4109C32.5707 32.368 32.6136 32.3252 32.6597 32.2791C32.7619 32.1341 32.897 32.0022 32.9398 31.821L32.953 31.7946C33.332 29.6425 30.7449 29.9523 30.6889 28.3605C30.6427 27.062 32.3005 26.8116 33.1903 26.3007C33.4012 26.1294 33.6418 25.9316 33.7176 25.7108C33.7473 25.6251 33.7868 25.5493 33.8231 25.4669C33.9911 24.9627 33.9615 24.6068 33.9121 24.1157C33.8494 23.5093 33.6418 22.949 33.3287 22.4613ZM22.4794 22.2405C22.7529 21.6011 23.4912 21.3012 24.1338 21.5747C24.7732 21.8483 25.0731 22.5865 24.7995 23.2292C24.526 23.8685 23.7878 24.1684 23.1451 23.8949C22.5058 23.6213 22.2058 22.8798 22.4794 22.2405ZM20.9535 27.8464C20.2054 27.5267 19.856 26.66 20.1757 25.9085C20.4954 25.1571 21.3622 24.8078 22.1136 25.1275C22.865 25.4471 23.2143 26.3139 22.8946 27.0653C22.5717 27.8167 21.7049 28.1661 20.9535 27.8464ZM26.6187 31.3365C26.2002 32.3186 25.0665 32.7734 24.0877 32.3549C23.1056 31.9363 22.6507 30.8026 23.0693 29.8238C23.4878 28.8417 24.6216 28.3869 25.6004 28.8054C26.5825 29.2207 27.0373 30.3544 26.6187 31.3365ZM31.2327 31.6825C30.9789 32.2758 30.2967 32.5493 29.7035 32.2988C29.1103 32.0451 28.8367 31.3629 29.0872 30.7697C29.341 30.1764 30.0232 29.9029 30.6164 30.1534C31.2096 30.4038 31.4864 31.0893 31.2327 31.6825Z" fill="#E9A39B"/>
<path d="M28.8988 20.5103C28.1506 20.1907 27.2806 20.54 26.9609 21.2914C26.6412 22.0428 26.9906 22.9096 27.742 23.2293C27.9298 23.3084 28.1243 23.3479 28.3154 23.3479C28.3154 22.9887 28.5165 22.524 29.0537 21.8484L29.0504 21.8451L29.2053 21.6605L29.2086 21.6572L29.3898 21.443L29.3931 21.4463C29.4458 21.3837 29.5019 21.3211 29.5612 21.2585L29.5579 21.2552L29.6271 21.1794C29.4722 20.8893 29.225 20.6488 28.8988 20.5103Z" fill="white"/>
<path d="M29.0862 30.7665C28.8325 31.3597 29.1093 32.0452 29.7025 32.2957C30.2957 32.5494 30.9779 32.2726 31.2317 31.6794C31.4822 31.0862 31.2086 30.4007 30.6154 30.1502C30.0222 29.8997 29.34 30.1766 29.0862 30.7665Z" fill="white"/>
<path d="M31.2913 25.5954C31.7461 25.7898 32.2701 25.5789 32.4646 25.1241C32.659 24.6693 32.4481 24.1453 31.9933 23.9509C31.934 23.9245 31.8747 23.908 31.8153 23.8981L31.611 24.0695L31.4264 24.2244L31.4231 24.2211C31.1793 24.4156 30.9585 24.5704 30.7574 24.6858C30.7179 25.0615 30.9222 25.4372 31.2913 25.5954Z" fill="white"/>
<path d="M33.0658 22.313C33.0955 22.2834 33.1219 22.2537 33.1515 22.2241L33.1548 22.2175C35.6859 19.571 38.5465 15.814 37.9994 15.2702C37.9533 15.2241 37.8841 15.201 37.7951 15.201C36.8295 15.201 33.4745 17.7947 31.0489 20.1148C31.0192 20.1445 30.9863 20.1742 30.9533 20.2071L30.9335 20.2236C30.9072 20.2467 30.8808 20.273 30.8577 20.2961L32.9703 22.4086C33.0065 22.3757 33.0362 22.346 33.0658 22.313Z" fill="#E9A39B"/>
<path d="M29.4041 21.8284C29.3745 21.8647 29.3481 21.8976 29.3218 21.9306C29.2921 21.9636 29.2657 21.9998 29.2394 22.0328C28.7648 22.6359 28.5901 23.0281 28.5802 23.3214C28.5736 23.5158 28.6395 23.6641 28.7417 23.7992C28.8406 23.9278 28.9724 24.0431 29.1009 24.1684C29.2262 24.2936 29.3349 24.4188 29.4602 24.5177C29.592 24.6199 29.7337 24.6924 29.9216 24.6924C30.1589 24.6924 30.4653 24.577 30.8971 24.2771C31.0025 24.2046 31.1146 24.1222 31.2332 24.0266C31.2662 24.0003 31.3024 23.9706 31.3354 23.9442L31.3618 23.9245C31.3848 23.9047 31.4112 23.8849 31.4376 23.8619L29.7601 22.1844L29.4041 21.8284Z" fill="#E9A39B"/>
<path d="M27.5578 27.0686C27.3172 26.8709 26.5131 27.5728 26.3681 27.2663C26.2198 26.9598 27.248 26.6435 27.0173 26.3501C26.7866 26.0568 26.3318 26.8742 26.2593 26.7786C26.1835 26.6797 26.1407 26.6698 26.3714 26.1689C26.6021 25.6679 26.2 25.3087 26.0781 25.6185C25.8935 25.7734 25.6298 26.4523 25.4848 27.0323L25.4815 27.0422C25.3893 27.4146 25.3464 27.7409 25.4057 27.8596C25.9298 28.2353 27.6435 27.2433 27.6435 27.2433C27.6435 27.2433 27.7061 27.2532 27.6929 27.2136C27.6831 27.1872 27.6468 27.1444 27.5578 27.0686Z" fill="#E9A39B"/>
<path d="M33.1327 43.5791C32.8401 43.5791 32.7135 43.4526 32.7254 43.2904C32.7333 43.1757 32.8401 43.0254 33.0694 42.891L33.0971 42.9147C33.0576 42.974 33.022 43.0492 33.022 43.1322C33.022 43.2904 33.1288 43.4328 33.4175 43.4328C33.5677 43.4328 33.7457 43.3616 33.8564 43.2785C34.2005 43.0136 34.3903 42.3492 34.9915 41.2497L35.0824 41.0797C34.3903 41.926 33.8288 42.5192 33.5638 42.5153C33.37 42.5074 33.3067 42.3413 33.3067 42.1752C33.3146 41.4712 34.1491 40.4746 34.9282 40.4746C35.0785 40.4746 35.3751 40.5023 35.5807 40.5656L35.6045 40.5735C35.6401 40.5853 35.648 40.617 35.6282 40.6526L35.1022 41.6531C34.6079 42.5983 34.2836 43.0215 33.8841 43.3221C33.6468 43.4961 33.3858 43.5791 33.1327 43.5791ZM33.635 42.0723C33.635 42.1712 33.6627 42.2978 33.7694 42.2978C33.9474 42.2978 34.4536 41.7876 35.209 40.8463L35.2564 40.7554C35.0785 40.6882 34.8175 40.6209 34.6434 40.6209C34.074 40.6209 33.635 41.5661 33.635 42.0723Z" fill="#A98B83"/>
<path d="M30.9035 42.4836C30.86 42.4836 30.8441 42.452 30.8679 42.4085C31.117 41.9814 31.6588 41.0085 31.6588 40.791C31.6588 40.7277 31.6232 40.6882 31.556 40.6882C31.4729 40.6882 31.3464 40.7554 31.1684 40.9175L31.1368 40.878C31.4255 40.617 31.6628 40.4746 31.7972 40.4746C31.9475 40.4746 31.9989 40.5893 31.9989 40.6802C31.9989 40.8384 31.7893 41.2893 31.5758 41.7006C31.7696 41.4514 31.9752 41.226 32.1769 41.0322C32.5249 40.6921 32.8532 40.4746 33.043 40.4746C33.1814 40.4746 33.2447 40.5853 33.2447 40.6921C33.2447 41.048 32.5526 41.9181 32.5526 42.191C32.5526 42.2582 32.5922 42.2978 32.6633 42.2978C32.7464 42.2978 32.869 42.2226 33.0351 42.0723L33.0667 42.1119C32.778 42.3769 32.5447 42.5153 32.4261 42.5153C32.256 42.5153 32.2085 42.3808 32.2085 42.2859C32.2085 41.8785 32.9046 41.0639 32.9046 40.791C32.9046 40.7277 32.8729 40.6802 32.7978 40.6802C32.6554 40.6802 32.4577 40.8345 32.2085 41.0718C31.9396 41.3249 31.647 41.665 31.4136 42.013C31.3029 42.2108 31.208 42.3729 31.1645 42.4401C31.1447 42.4718 31.1249 42.4836 31.0933 42.4836H30.9035Z" fill="#A98B83"/>
<path d="M30.0248 42.5155C29.8666 42.5155 29.8073 42.381 29.8073 42.2782C29.8073 41.8985 30.5587 41.0126 30.5587 40.7872C30.5587 40.7279 30.531 40.6884 30.4598 40.6884C30.3807 40.6884 30.2502 40.7556 30.0722 40.9177L30.0406 40.8782C30.3293 40.6172 30.5666 40.4748 30.705 40.4748C30.8513 40.4748 30.9027 40.5895 30.9027 40.6804C30.9027 41.0324 30.183 41.855 30.183 42.1358C30.183 42.2189 30.2265 42.2584 30.3016 42.2584C30.3807 42.2584 30.4796 42.2228 30.6417 42.0725L30.6734 42.1121C30.3847 42.3731 30.1553 42.5155 30.0248 42.5155ZM30.8434 40.198L31.5592 39.5415C31.6146 39.49 31.6502 39.4545 31.6739 39.4545C31.6937 39.4545 31.7016 39.4782 31.7016 39.5059C31.7016 39.5731 31.6858 39.5929 31.6186 39.6443L30.8671 40.2296L30.8434 40.198Z" fill="#A98B83"/>
<path d="M28.483 42.5153C28.2418 42.5153 28.1152 42.3452 28.1152 42.0684C28.1152 42.0051 28.1231 41.9379 28.1389 41.8627C27.8858 42.3175 27.5694 42.5113 27.3322 42.5153C27.1067 42.5153 26.9446 42.361 26.9446 42.0882C26.9446 41.6254 27.4271 41.0955 27.8621 40.7554C27.7632 40.7514 27.5141 40.7396 27.3796 40.7435C27.2016 40.7475 27.1186 40.8226 27.0158 40.9373L26.9841 40.9136C27.1028 40.7514 27.2096 40.6328 27.3203 40.5379C27.3796 40.4944 27.4508 40.4785 27.5259 40.4785C27.6485 40.4785 27.9175 40.5062 28.1547 40.5062L28.1627 40.5418C27.609 40.9689 27.2649 41.5819 27.2649 42.0091C27.2649 42.2028 27.3559 42.3452 27.5457 42.3452C27.7553 42.3492 28.0084 42.0763 28.218 41.6057C28.2971 41.3921 28.4158 41.1785 28.5265 41.0283C28.5898 40.9452 28.9457 40.8108 28.8943 40.8819C28.5621 41.3249 28.4355 41.7639 28.4395 42.0011C28.4395 42.191 28.5146 42.3413 28.7084 42.3452C28.9773 42.3452 29.3175 41.8706 29.531 41.3921C29.4915 41.056 29.4757 40.8266 29.4954 40.7C29.5112 40.5656 29.6576 40.4746 29.7802 40.4746C29.8435 40.4746 29.8632 40.5062 29.8632 40.5537C29.8632 40.7119 29.7129 41.1153 29.6062 41.3565C29.3451 41.9379 28.9378 42.5113 28.483 42.5153Z" fill="#A98B83"/>
<path d="M25.9519 42.5153C25.7818 42.5153 25.7383 42.3808 25.7383 42.2859C25.7383 41.9972 25.9558 41.574 26.1812 41.2062C25.5366 41.9814 25.0106 42.5192 24.7575 42.5153C24.5677 42.5074 24.5005 42.3413 24.5005 42.1752C24.5084 41.4712 25.3428 40.4746 26.1219 40.4746C26.2722 40.4746 26.549 40.5023 26.7547 40.5695L26.8061 40.5853C26.8496 40.5972 26.8615 40.6288 26.8338 40.6684C26.7112 40.8503 26.4937 41.1825 26.3394 41.4752C26.1536 41.835 26.0863 42.0486 26.0863 42.1752C26.0863 42.2503 26.1219 42.2898 26.1931 42.2898C26.2762 42.2898 26.3988 42.2226 26.5609 42.0723L26.5925 42.1119C26.3038 42.3729 26.0745 42.5153 25.9519 42.5153ZM24.8287 42.0723C24.8287 42.1712 24.8564 42.2978 24.9632 42.2978C25.1411 42.2978 25.6592 41.7876 26.4185 40.8424L26.4699 40.7672C26.288 40.6961 26.0231 40.6209 25.8372 40.6209C25.2716 40.6209 24.8287 41.5661 24.8287 42.0723Z" fill="#A98B83"/>
<path d="M22.8118 42.4836C22.7683 42.4836 22.7525 42.452 22.7762 42.4085C23.0254 41.9814 23.5672 41.0085 23.5672 40.791C23.5672 40.7277 23.5316 40.6882 23.4644 40.6882C23.3813 40.6882 23.2548 40.7554 23.0768 40.9175L23.0451 40.878C23.3338 40.617 23.5711 40.4746 23.7056 40.4746C23.8559 40.4746 23.9073 40.5893 23.9073 40.6802C23.9073 40.7752 23.8361 40.9689 23.7333 41.1983C24.0062 40.791 24.3344 40.4746 24.7774 40.4746C24.8723 40.4746 25.0107 40.4944 25.0107 40.5576C25.0107 40.6526 24.8723 40.8187 24.7259 40.8187C24.5994 40.8187 24.4531 40.7949 24.2276 40.7277C24.0062 40.8701 23.7451 41.226 23.5197 41.6334C23.3378 41.9893 23.144 42.3334 23.0728 42.4401C23.0531 42.4718 23.0333 42.4836 23.0016 42.4836H22.8118Z" fill="#A98B83"/>
<path d="M20.5308 42.5114C20.1828 42.5114 19.7912 42.4917 19.5737 42.464C19.5342 42.46 19.5302 42.4521 19.5302 42.4363C19.5302 42.4126 19.6093 42.3493 19.6805 42.2939L19.7635 42.2307C19.8743 42.1476 19.9296 42.0408 20.0167 41.8945C20.3647 41.2855 20.5941 40.7081 20.946 40.099C21.0489 39.9171 21.1556 39.7826 21.3573 39.6759L21.6263 39.5335L21.6539 39.5691C21.4957 39.6798 21.4167 39.8261 21.3257 39.9804C20.9777 40.5775 20.7602 41.1431 20.42 41.7403C20.3172 41.9182 20.2302 42.0171 20.076 42.1081L19.9138 42.2069C20.0681 42.2267 20.5426 42.2623 20.9737 42.2623C22.002 42.2662 22.5912 41.6493 22.5873 40.799C22.5873 39.9962 21.9901 39.4742 21.1833 39.4781C20.7918 39.4781 20.4675 39.6244 20.2619 39.7708L20.2302 39.7273C20.5822 39.4781 20.9816 39.2922 21.4918 39.2922C22.3302 39.2922 22.8878 39.9211 22.8878 40.542C22.8878 41.7284 21.6421 42.5114 20.5308 42.5114Z" fill="#A98B83"/>
</svg>
