<svg width="57" height="56" viewBox="0 0 57 56" fill="none" xmlns="http://www.w3.org/2000/svg">
<path d="M0.5 46.7491C0.565913 46.7359 0.635121 46.7293 0.70433 46.7293C1.24482 46.7293 1.68643 47.1182 1.68643 47.5961C1.68643 48.0739 1.24812 48.4628 0.70433 48.4628C0.635121 48.4628 0.565913 48.4562 0.5 48.443V49.7646C0.565913 49.7514 0.635121 49.7448 0.70433 49.7448C1.24482 49.7448 1.68643 50.1337 1.68643 50.6116C1.68643 51.0895 1.24812 51.4784 0.70433 51.4784C0.635121 51.4784 0.565913 51.4718 0.5 51.4586V52.7801C0.565913 52.767 0.635121 52.7604 0.70433 52.7604C1.24482 52.7604 1.68643 53.1493 1.68643 53.6271C1.68643 54.105 1.24812 54.4939 0.70433 54.4939C0.635121 54.4939 0.565913 54.4873 0.5 54.4741V55.9802H3.12994C3.09698 55.8946 3.07722 55.8056 3.07722 55.71C3.07722 55.2321 3.51553 54.8432 4.05932 54.8432C4.6031 54.8432 5.04142 55.2321 5.04142 55.71C5.04142 55.8056 5.01836 55.8946 4.9887 55.9802H6.65961C6.62665 55.8946 6.60686 55.8056 6.60686 55.71C6.60686 55.2321 7.0452 54.8432 7.58899 54.8432C8.13277 54.8432 8.57109 55.2321 8.57109 55.71C8.57109 55.8056 8.54803 55.8946 8.51837 55.9802H10.1893C10.1563 55.8946 10.1365 55.8056 10.1365 55.71C10.1365 55.2321 10.5749 54.8432 11.1186 54.8432C11.6591 54.8432 12.1008 55.2321 12.1008 55.71C12.1008 55.8056 12.0777 55.8946 12.048 55.9802H13.7189C13.686 55.8946 13.6662 55.8056 13.6662 55.71C13.6662 55.2321 14.1045 54.8432 14.6483 54.8432C15.1888 54.8432 15.6304 55.2321 15.6304 55.71C15.6304 55.8056 15.6073 55.8946 15.5777 55.9802H17.2486C17.2156 55.8946 17.1959 55.8056 17.1959 55.71C17.1959 55.2321 17.6342 54.8432 18.178 54.8432C18.7185 54.8432 19.1601 55.2321 19.1601 55.71C19.1601 55.8056 19.137 55.8946 19.1073 55.9802H20.7782C20.7453 55.8946 20.7255 55.8056 20.7255 55.71C20.7255 55.2321 21.1638 54.8432 21.7076 54.8432C22.2481 54.8432 22.6897 55.2321 22.6897 55.71C22.6897 55.8056 22.6667 55.8946 22.637 55.9802H24.3079C24.275 55.8946 24.2552 55.8056 24.2552 55.71C24.2552 55.2321 24.6935 54.8432 25.2373 54.8432C25.7778 54.8432 26.2194 55.2321 26.2194 55.71C26.2194 55.8056 26.1963 55.8946 26.1667 55.9802H27.8376C27.8046 55.8946 27.7848 55.8056 27.7848 55.71C27.7848 55.2321 28.2232 54.8432 28.7669 54.8432C29.3107 54.8432 29.7491 55.2321 29.7491 55.71C29.7491 55.8056 29.726 55.8946 29.6963 55.9802H31.3672C31.3343 55.8946 31.3145 55.8056 31.3145 55.71C31.3145 55.2321 31.7528 54.8432 32.2966 54.8432C32.8371 54.8432 33.2787 55.2321 33.2787 55.71C33.2787 55.8056 33.2556 55.8946 33.226 55.9802H34.8969C34.8639 55.8946 34.8442 55.8056 34.8442 55.71C34.8442 55.2321 35.2825 54.8432 35.8263 54.8432C36.3668 54.8432 36.8084 55.2321 36.8084 55.71C36.8084 55.8056 36.7853 55.8946 36.7557 55.9802H38.4266C38.3936 55.8946 38.3738 55.8056 38.3738 55.71C38.3738 55.2321 38.8121 54.8432 39.3559 54.8432C39.8964 54.8432 40.338 55.2321 40.338 55.71C40.338 55.8056 40.315 55.8946 40.2853 55.9802H41.9562C41.9233 55.8946 41.9035 55.8056 41.9035 55.71C41.9035 55.2321 42.3418 54.8432 42.8856 54.8432C43.4294 54.8432 43.8677 55.2321 43.8677 55.71C43.8677 55.8056 43.8446 55.8946 43.815 55.9802H45.4859C45.4529 55.8946 45.4331 55.8056 45.4331 55.71C45.4331 55.2321 45.8715 54.8432 46.4153 54.8432C46.9558 54.8432 47.3974 55.2321 47.3974 55.71C47.3974 55.8056 47.3743 55.8946 47.3446 55.9802H49.0155C48.9826 55.8946 48.9628 55.8056 48.9628 55.71C48.9628 55.2321 49.4011 54.8432 49.9449 54.8432C50.4854 54.8432 50.927 55.2321 50.927 55.71C50.927 55.8056 50.904 55.8946 50.8743 55.9802H52.5452C52.5122 55.8946 52.4925 55.8056 52.4925 55.71C52.4925 55.2321 52.9308 54.8432 53.4746 54.8432C54.0151 54.8432 54.4567 55.2321 54.4567 55.71C54.4567 55.8056 54.4336 55.8946 54.404 55.9802H56.5V54.4939C55.9595 54.4939 55.5179 54.105 55.5179 53.6271C55.5179 53.1493 55.9562 52.7604 56.5 52.7604V51.4784C55.9595 51.4784 55.5179 51.0895 55.5179 50.6116C55.5179 50.1337 55.9562 49.7448 56.5 49.7448V48.4628C55.9595 48.4628 55.5179 48.0739 55.5179 47.5961C55.5179 47.1182 55.9562 46.7293 56.5 46.7293V46.7194V45.4374C55.9595 45.4374 55.5179 45.0485 55.5179 44.5706C55.5179 44.0928 55.9562 43.7039 56.5 43.7039V42.4219C55.9595 42.4219 55.5179 42.033 55.5179 41.5551C55.5179 41.0772 55.9562 40.6883 56.5 40.6883V39.4063C55.9595 39.4063 55.5179 39.0174 55.5179 38.5396C55.5179 38.0617 55.9562 37.6728 56.5 37.6728V36.3908C55.9595 36.3908 55.5179 36.0019 55.5179 35.524C55.5179 35.0461 55.9562 34.6573 56.5 34.6573V33.3752C55.9595 33.3752 55.5179 32.9864 55.5179 32.5085C55.5179 32.0306 55.9562 31.6417 56.5 31.6417V30.3597C55.9595 30.3597 55.5179 29.9708 55.5179 29.4929C55.5179 29.0151 55.9562 28.6262 56.5 28.6262V27.3442C55.9595 27.3442 55.5179 26.9553 55.5179 26.4774C55.5179 25.9995 55.9562 25.6106 56.5 25.6106V24.3286C55.9595 24.3286 55.5179 23.9397 55.5179 23.4619C55.5179 22.984 55.9562 22.5951 56.5 22.5951V21.3131C55.9595 21.3131 55.5179 20.9242 55.5179 20.4463C55.5179 19.9685 55.9562 19.5796 56.5 19.5796V18.2976C55.9595 18.2976 55.5179 17.9087 55.5179 17.4308C55.5179 16.9529 55.9562 16.564 56.5 16.564V15.282C55.9595 15.282 55.5179 14.8931 55.5179 14.4153C55.5179 13.9374 55.9562 13.5485 56.5 13.5485V12.2665C55.9595 12.2665 55.5179 11.8776 55.5179 11.3997C55.5179 10.9218 55.9562 10.533 56.5 10.533V9.25094C55.9595 9.25094 55.5179 8.86205 55.5179 8.38418C55.5179 7.90631 55.9562 7.51742 56.5 7.51742V6.23541C55.9595 6.23541 55.5179 5.84652 55.5179 5.36865C55.5179 4.89077 55.9562 4.50188 56.5 4.50188V3.21987C55.9595 3.21987 55.5179 2.83098 55.5179 2.35311C55.5179 1.87524 55.9562 1.48635 56.5 1.48635V0H54.4567C54.4567 0.477872 54.0184 0.866763 53.4746 0.866763C52.9341 0.866763 52.4925 0.477872 52.4925 0H50.9303C50.9303 0.477872 50.492 0.866763 49.9482 0.866763C49.4077 0.866763 48.9661 0.477872 48.9661 0H47.404C47.404 0.477872 46.9656 0.866763 46.4218 0.866763C45.8814 0.866763 45.4397 0.477872 45.4397 0H43.8776C43.8776 0.477872 43.4393 0.866763 42.8955 0.866763C42.3517 0.866763 41.9134 0.477872 41.9134 0H40.3512C40.3512 0.477872 39.9129 0.866763 39.3691 0.866763C38.8286 0.866763 38.387 0.477872 38.387 0H36.8249C36.8249 0.477872 36.3865 0.866763 35.8428 0.866763C35.3023 0.866763 34.8606 0.477872 34.8606 0H33.2985C33.2985 0.477872 32.8602 0.866763 32.3164 0.866763C31.7759 0.866763 31.3343 0.477872 31.3343 0H29.7721C29.7721 0.477872 29.3338 0.866763 28.79 0.866763C28.2462 0.866763 27.8079 0.477872 27.8079 0H26.2458C26.2458 0.477872 25.8074 0.866763 25.2637 0.866763C24.7232 0.866763 24.2815 0.477872 24.2815 0H22.7194C22.7194 0.477872 22.2811 0.866763 21.7373 0.866763C21.1968 0.866763 20.7552 0.477872 20.7552 0H19.193C19.193 0.477872 18.7547 0.866763 18.2109 0.866763C17.6704 0.866763 17.2288 0.477872 17.2288 0H15.6667C15.6667 0.477872 15.2283 0.866763 14.6846 0.866763C14.1441 0.866763 13.7024 0.477872 13.7024 0H12.1403C12.1403 0.477872 11.702 0.866763 11.1582 0.866763C10.6177 0.866763 10.1761 0.477872 10.1761 0H8.61394C8.61394 0.477872 8.17562 0.866763 7.63183 0.866763C7.08805 0.866763 6.64971 0.477872 6.64971 0H5.08757C5.08757 0.477872 4.64925 0.866763 4.10546 0.866763C3.56168 0.866763 3.12334 0.477872 3.12334 0H0.549423V1.50612C0.615336 1.49294 0.684544 1.48635 0.753753 1.48635C1.29424 1.48635 1.73588 1.87524 1.73588 2.35311C1.73588 2.83098 1.29754 3.21987 0.753753 3.21987C0.684544 3.21987 0.615336 3.21328 0.549423 3.2001V4.52166C0.615336 4.50848 0.684544 4.50188 0.753753 4.50188C1.29424 4.50188 1.73588 4.89077 1.73588 5.36865C1.73588 5.84652 1.29754 6.23541 0.753753 6.23541C0.684544 6.23541 0.615336 6.22881 0.549423 6.21563V7.5372C0.615336 7.52401 0.684544 7.51742 0.753753 7.51742C1.29424 7.51742 1.73588 7.90631 1.73588 8.38418C1.73588 8.86205 1.29754 9.25094 0.753753 9.25094C0.684544 9.25094 0.615336 9.24435 0.549423 9.23117V10.5527C0.615336 10.5396 0.684544 10.533 0.753753 10.533C1.29424 10.533 1.73588 10.9218 1.73588 11.3997C1.73588 11.8776 1.29754 12.2665 0.753753 12.2665C0.684544 12.2665 0.615336 12.2599 0.549423 12.2467V13.5683C0.615336 13.5551 0.684544 13.5485 0.753753 13.5485C1.29424 13.5485 1.73588 13.9374 1.73588 14.4153C1.73588 14.8931 1.29754 15.282 0.753753 15.282C0.684544 15.282 0.615336 15.2754 0.549423 15.2622V16.5838C0.615336 16.5706 0.684544 16.564 0.753753 16.564C1.29424 16.564 1.73588 16.9529 1.73588 17.4308C1.73588 17.9087 1.29754 18.2976 0.753753 18.2976C0.684544 18.2976 0.615336 18.291 0.549423 18.2778V19.5993C0.615336 19.5862 0.684544 19.5796 0.753753 19.5796C1.29424 19.5796 1.73588 19.9685 1.73588 20.4463C1.73588 20.9242 1.29754 21.3131 0.753753 21.3131C0.684544 21.3131 0.615336 21.3065 0.549423 21.2933V22.6149C0.615336 22.6017 0.684544 22.5951 0.753753 22.5951C1.29424 22.5951 1.73588 22.984 1.73588 23.4619C1.73588 23.9397 1.29754 24.3286 0.753753 24.3286C0.684544 24.3286 0.615336 24.322 0.549423 24.3089V25.6304C0.615336 25.6172 0.684544 25.6106 0.753753 25.6106C1.29424 25.6106 1.73588 25.9995 1.73588 26.4774C1.73588 26.9553 1.29754 27.3442 0.753753 27.3442C0.684544 27.3442 0.615336 27.3376 0.549423 27.3244V28.646C0.615336 28.6328 0.684544 28.6262 0.753753 28.6262C1.29424 28.6262 1.73588 29.0151 1.73588 29.4929C1.73588 29.9708 1.29754 30.3597 0.753753 30.3597C0.684544 30.3597 0.615336 30.3531 0.549423 30.3399V31.6615C0.615336 31.6483 0.684544 31.6417 0.753753 31.6417C1.29424 31.6417 1.73588 32.0306 1.73588 32.5085C1.73588 32.9864 1.29754 33.3752 0.753753 33.3752C0.684544 33.3752 0.615336 33.3686 0.549423 33.3555V34.677C0.615336 34.6638 0.684544 34.6573 0.753753 34.6573C1.29424 34.6573 1.73588 35.0461 1.73588 35.524C1.73588 36.0019 1.29754 36.3908 0.753753 36.3908C0.684544 36.3908 0.615336 36.3842 0.549423 36.371V37.6926C0.615336 37.6794 0.684544 37.6728 0.753753 37.6728C1.29424 37.6728 1.73588 38.0617 1.73588 38.5396C1.73588 39.0174 1.29754 39.4063 0.753753 39.4063C0.684544 39.4063 0.615336 39.3997 0.549423 39.3865V40.7081C0.615336 40.6949 0.684544 40.6883 0.753753 40.6883C1.29424 40.6883 1.73588 41.0772 1.73588 41.5551C1.73588 42.033 1.29754 42.4219 0.753753 42.4219C0.684544 42.4219 0.615336 42.4153 0.549423 42.4021V43.7236C0.615336 43.7105 0.684544 43.7039 0.753753 43.7039C1.29424 43.7039 1.73588 44.0928 1.73588 44.5706C1.73588 45.0485 1.29754 45.4374 0.753753 45.4374C0.684544 45.4374 0.615336 45.4308 0.549423 45.4176V46.7392C0.615336 46.726 0.684544 46.7194 0.753753 46.7194" fill="#A98B83"/>
<path d="M52.9142 7.84394V47.0591C50.5084 47.2041 48.5969 49.2079 48.5969 51.6467C48.5969 51.907 48.6199 52.1707 48.6694 52.4376H8.25459C8.30402 52.1707 8.3271 51.907 8.3271 51.6467C8.3271 49.2079 6.4156 47.2041 4.00977 47.0591V7.84394C6.32333 7.70222 8.17879 5.84676 8.31721 3.5332H48.6035C48.7452 5.84676 50.6006 7.70222 52.9142 7.84394Z" fill="white"/>
<path d="M52.9142 7.84394V47.0591C50.5084 47.2041 48.5969 49.2079 48.5969 51.6467C48.5969 51.907 48.6199 52.1707 48.6694 52.4376H8.25459C8.30402 52.1707 8.3271 51.907 8.3271 51.6467C8.3271 49.2079 6.4156 47.2041 4.00977 47.0591V7.84394C6.32333 7.70222 8.17879 5.84676 8.31721 3.5332H48.6035C48.7452 5.84676 50.6006 7.70222 52.9142 7.84394Z" fill="#AB8C85"/>
<path d="M53.194 7.28998C50.9662 7.28998 49.1569 5.48066 49.1569 3.25279C49.1569 3.09789 49.0316 2.97266 48.8767 2.97266H8.04666C7.89176 2.97266 7.76654 3.09789 7.76654 3.25279C7.76654 5.48066 5.95392 7.28998 3.72934 7.28998C3.57445 7.28998 3.44922 7.41522 3.44922 7.57011V47.3324C3.44922 47.484 3.57445 47.6125 3.72934 47.6125C5.95392 47.6125 7.76654 49.4218 7.76654 51.6464C7.76654 51.9727 7.72039 52.3088 7.6347 52.6483C7.61493 52.734 7.63141 52.8229 7.68415 52.8889C7.73688 52.9581 7.81927 52.9976 7.90825 52.9976H49.0151C49.1008 52.9976 49.1832 52.9581 49.2359 52.8889C49.2887 52.8229 49.3084 52.734 49.2854 52.6483C49.1997 52.3088 49.1569 51.9727 49.1569 51.6464C49.1569 49.4218 50.9662 47.6125 53.194 47.6125C53.3489 47.6125 53.4742 47.484 53.4742 47.3324V7.57011C53.4742 7.41522 53.3489 7.28998 53.194 7.28998ZM52.9139 47.0588C50.5081 47.2038 48.5966 49.2076 48.5966 51.6464C48.5966 51.9067 48.6196 52.1704 48.6691 52.4373H8.25429C8.30372 52.1704 8.3268 51.9067 8.3268 51.6464C8.3268 49.2076 6.4153 47.2038 4.00947 47.0588V7.84365C6.32303 7.70194 8.17849 5.84648 8.31691 3.53292H48.6032C48.7449 5.84648 50.6003 7.70194 52.9139 7.84365V47.0588Z" fill="#F1DFC1"/>
<path d="M52.862 7.93574V47.1542C51.6949 47.2294 50.6 47.7449 49.7985 48.5965C48.9971 49.4481 48.5489 50.5723 48.5446 51.7418C48.5445 52.0071 48.5688 52.2718 48.6171 52.5327H8.20234C8.25067 52.2718 8.27494 52.0071 8.27485 51.7418C8.27164 50.5739 7.82567 49.4507 7.02689 48.5987C6.22811 47.7467 5.13595 47.2293 3.9707 47.1509V7.93244C5.08533 7.85492 6.13396 7.37558 6.9219 6.5834C7.70984 5.79121 8.18354 4.74002 8.25507 3.625H48.5512C48.6227 4.74484 49.0998 5.80026 49.8932 6.59371C50.6867 7.38717 51.7421 7.86427 52.862 7.93574Z" fill="white"/>
<path d="M28.4597 6.34073C28.8128 6.34073 29.099 6.05448 29.099 5.70137C29.099 5.34826 28.8128 5.06201 28.4597 5.06201C28.1066 5.06201 27.8203 5.34826 27.8203 5.70137C27.8203 6.05448 28.1066 6.34073 28.4597 6.34073Z" fill="#F5CBD9"/>
<path d="M28.4591 8.23258C28.38 8.23258 28.3174 8.16996 28.3174 8.09086V7.11535C28.3174 7.03625 28.38 6.97363 28.4591 6.97363C28.5382 6.97363 28.6008 7.03625 28.6008 7.11535V8.09086C28.6008 8.16996 28.5382 8.23258 28.4591 8.23258Z" fill="#F5CBD9"/>
<path d="M28.4591 10.9187C28.38 10.9187 28.3174 10.856 28.3174 10.7769V8.69738C28.3174 8.61828 28.38 8.55566 28.4591 8.55566C28.5382 8.55566 28.6008 8.61828 28.6008 8.69738V10.7769C28.6008 10.856 28.5382 10.9187 28.4591 10.9187Z" fill="#F5CBD9"/>
<path d="M29.6553 7.91277C29.6059 7.91277 29.5598 7.8864 29.5334 7.84356L29.0457 6.99657C29.0061 6.93066 29.0292 6.84497 29.0984 6.80542C29.1643 6.76587 29.25 6.78894 29.2895 6.85815L29.7773 7.70514C29.8168 7.77105 29.7938 7.85674 29.7246 7.89629C29.7048 7.90618 29.6817 7.91277 29.6553 7.91277Z" fill="#F5CBD9"/>
<path d="M31.0007 10.2397C30.9512 10.2397 30.9051 10.2134 30.8787 10.1705L29.8406 8.37108C29.801 8.30517 29.8241 8.21948 29.8933 8.17993C29.9592 8.14038 30.0449 8.16345 30.0844 8.23266L31.1226 10.0321C31.1621 10.098 31.1391 10.1837 31.0699 10.2232C31.0468 10.2331 31.0237 10.2397 31.0007 10.2397Z" fill="#F5CBD9"/>
<path d="M30.5326 7.03953C30.5095 7.03953 30.4831 7.03294 30.4633 7.01975L29.6196 6.53199C29.5537 6.49245 29.5307 6.40676 29.5669 6.34085C29.6065 6.27493 29.6921 6.25186 29.7581 6.28811L30.6018 6.77587C30.6677 6.81542 30.6907 6.90111 30.6545 6.96702C30.6281 7.01316 30.582 7.03953 30.5326 7.03953Z" fill="#F5CBD9"/>
<path d="M31.8042 7.7711C31.7811 7.7711 31.7547 7.76451 31.735 7.75133L30.9868 7.31959C30.9209 7.28005 30.8979 7.19436 30.9341 7.12844C30.9737 7.06253 31.0593 7.03946 31.1253 7.07571L31.8734 7.50745C31.9393 7.54699 31.9624 7.63268 31.9261 7.69859C31.8997 7.74803 31.8536 7.7711 31.8042 7.7711Z" fill="#F5CBD9"/>
<path d="M30.8516 5.84349H29.8761C29.797 5.84349 29.7344 5.78087 29.7344 5.70177C29.7344 5.62268 29.797 5.56006 29.8761 5.56006H30.8516C30.9307 5.56006 30.9933 5.62268 30.9933 5.70177C30.9933 5.78087 30.9307 5.84349 30.8516 5.84349Z" fill="#F5CBD9"/>
<path d="M33.3696 5.84349H31.4581C31.379 5.84349 31.3164 5.78087 31.3164 5.70177C31.3164 5.62268 31.379 5.56006 31.4581 5.56006H33.3696C33.4487 5.56006 33.5113 5.62268 33.5113 5.70177C33.5113 5.78087 33.4487 5.84349 33.3696 5.84349Z" fill="#F5CBD9"/>
<path d="M27.044 5.843H26.0685C25.9894 5.843 25.9268 5.78038 25.9268 5.70128C25.9268 5.62219 25.9894 5.55957 26.0685 5.55957H27.044C27.1231 5.55957 27.1857 5.62219 27.1857 5.70128C27.1824 5.78038 27.1198 5.843 27.044 5.843Z" fill="#F5CBD9"/>
<path d="M25.4624 5.84349H23.5509C23.4718 5.84349 23.4092 5.78087 23.4092 5.70177C23.4092 5.62268 23.4718 5.56006 23.5509 5.56006H25.4624C25.5415 5.56006 25.6041 5.62268 25.6041 5.70177C25.6008 5.78087 25.5382 5.84349 25.4624 5.84349Z" fill="#F5CBD9"/>
<path d="M26.3893 7.03938C26.3398 7.03938 26.2937 7.01301 26.2673 6.97017C26.2278 6.90425 26.2508 6.81857 26.3201 6.77902L27.1637 6.29126C27.2297 6.25171 27.3154 6.27478 27.3549 6.34399C27.3945 6.4099 27.3714 6.49559 27.3022 6.53514L26.4585 7.0229C26.4354 7.03279 26.4123 7.03938 26.3893 7.03938Z" fill="#F5CBD9"/>
<path d="M25.1637 7.74458C25.1142 7.74458 25.0681 7.71822 25.0417 7.67537C25.0022 7.60946 25.0253 7.52377 25.0945 7.48423L25.7965 7.07886C25.8624 7.03931 25.9481 7.06238 25.9876 7.13159C26.0271 7.1975 26.0041 7.28319 25.9349 7.32274L25.2329 7.7281C25.2098 7.74129 25.1868 7.74458 25.1637 7.74458Z" fill="#F5CBD9"/>
<path d="M27.265 7.91291C27.242 7.91291 27.2156 7.90632 27.1958 7.89314C27.1299 7.85359 27.1068 7.7679 27.1431 7.70199L27.6309 6.855C27.6704 6.78909 27.7561 6.76602 27.822 6.80228C27.8879 6.84182 27.911 6.92751 27.8747 6.99342L27.387 7.84041C27.3606 7.88984 27.3112 7.91291 27.265 7.91291Z" fill="#F5CBD9"/>
<path d="M25.9203 10.2394C25.8973 10.2394 25.8709 10.2328 25.8511 10.2196C25.7852 10.1801 25.7621 10.0944 25.7984 10.0285L26.8398 8.22903C26.8794 8.16311 26.965 8.14005 27.031 8.1763C27.0969 8.21585 27.1199 8.30153 27.0837 8.36745L26.0423 10.1669C26.0159 10.213 25.9698 10.2394 25.9203 10.2394Z" fill="#F5CBD9"/>
<path d="M28.4597 50.9115C28.8128 50.9115 29.099 50.6253 29.099 50.2722C29.099 49.9191 28.8128 49.6328 28.4597 49.6328C28.1066 49.6328 27.8203 49.9191 27.8203 50.2722C27.8203 50.6253 28.1066 50.9115 28.4597 50.9115Z" fill="#F5CBD9"/>
<path d="M28.4591 48.9967C28.38 48.9967 28.3174 48.9341 28.3174 48.855V47.8795C28.3174 47.8004 28.38 47.7378 28.4591 47.7378C28.5382 47.7378 28.6008 47.8004 28.6008 47.8795V48.855C28.6008 48.9341 28.5382 48.9967 28.4591 48.9967Z" fill="#F5CBD9"/>
<path d="M28.4591 47.4148C28.38 47.4148 28.3174 47.3521 28.3174 47.273V45.1935C28.3174 45.1144 28.38 45.0518 28.4591 45.0518C28.5382 45.0518 28.6008 45.1144 28.6008 45.1935V47.273C28.6008 47.3521 28.5382 47.4148 28.4591 47.4148Z" fill="#F5CBD9"/>
<path d="M27.752 49.1849C27.7026 49.1849 27.6565 49.1585 27.6301 49.1157L27.1423 48.272C27.1028 48.206 27.1259 48.1204 27.1951 48.0808C27.261 48.0413 27.3467 48.0643 27.3862 48.1335L27.874 48.9772C27.9135 49.0431 27.8904 49.1288 27.8212 49.1684C27.7982 49.1783 27.7751 49.1849 27.752 49.1849Z" fill="#F5CBD9"/>
<path d="M26.9639 47.8169C26.9145 47.8169 26.8683 47.7905 26.842 47.7477L25.8005 45.9482C25.761 45.8823 25.7841 45.7966 25.8533 45.7571C25.9192 45.7175 26.0049 45.7406 26.0444 45.8098L27.0859 47.6092C27.1254 47.6752 27.1023 47.7608 27.0331 47.8004C27.0101 47.8103 26.987 47.8169 26.9639 47.8169Z" fill="#F5CBD9"/>
<path d="M27.2308 49.7055C27.2077 49.7055 27.1814 49.699 27.1616 49.6858L26.3179 49.198C26.252 49.1585 26.2289 49.0728 26.2652 49.0069C26.3047 48.9409 26.3904 48.9179 26.4563 48.9541L27.3 49.4419C27.3659 49.4814 27.389 49.5671 27.3527 49.633C27.3264 49.6792 27.2802 49.7055 27.2308 49.7055Z" fill="#F5CBD9"/>
<path d="M25.8667 48.9147C25.8436 48.9147 25.8172 48.9081 25.7975 48.8949L25.0493 48.4631C24.9834 48.4236 24.9604 48.3379 24.9966 48.272C25.0362 48.2061 25.1218 48.183 25.1877 48.2193L25.9359 48.651C26.0018 48.6905 26.0248 48.7762 25.9886 48.8421C25.9622 48.8883 25.9128 48.9147 25.8667 48.9147Z" fill="#F5CBD9"/>
<path d="M27.044 50.4109H26.0685C25.9894 50.4109 25.9268 50.3483 25.9268 50.2692C25.9268 50.1901 25.9894 50.1274 26.0685 50.1274H27.044C27.1231 50.1274 27.1857 50.1901 27.1857 50.2692C27.1824 50.3483 27.1198 50.4109 27.044 50.4109Z" fill="#F5CBD9"/>
<path d="M25.4624 50.4104H23.5509C23.4718 50.4104 23.4092 50.3478 23.4092 50.2687C23.4092 50.1896 23.4718 50.127 23.5509 50.127H25.4624C25.5415 50.127 25.6041 50.1896 25.6041 50.2687C25.6008 50.3478 25.5382 50.4104 25.4624 50.4104Z" fill="#F5CBD9"/>
<path d="M30.8516 50.4104H29.8761C29.797 50.4104 29.7344 50.3478 29.7344 50.2687C29.7344 50.1896 29.797 50.127 29.8761 50.127H30.8516C30.9307 50.127 30.9933 50.1896 30.9933 50.2687C30.9933 50.3478 30.9307 50.4104 30.8516 50.4104Z" fill="#F5CBD9"/>
<path d="M33.3696 50.4109H31.4581C31.379 50.4109 31.3164 50.3483 31.3164 50.2692C31.3164 50.1901 31.379 50.1274 31.4581 50.1274H33.3696C33.4487 50.1274 33.5113 50.1901 33.5113 50.2692C33.5113 50.3483 33.4487 50.4109 33.3696 50.4109Z" fill="#F5CBD9"/>
<path d="M29.6891 49.7054C29.6396 49.7054 29.5935 49.679 29.5671 49.6362C29.5276 49.5703 29.5507 49.4846 29.6199 49.445L30.4636 48.9573C30.5295 48.9177 30.6152 48.9408 30.6547 49.01C30.6943 49.0759 30.6712 49.1616 30.602 49.2012L29.7583 49.6889C29.7352 49.6988 29.7121 49.7054 29.6891 49.7054Z" fill="#F5CBD9"/>
<path d="M31.0563 48.9145C31.0068 48.9145 30.9607 48.8881 30.9343 48.8453C30.8948 48.7794 30.9179 48.6937 30.9871 48.6541L31.689 48.2488C31.755 48.2092 31.8406 48.2323 31.8802 48.3015C31.9197 48.3674 31.8967 48.4531 31.8275 48.4927L31.1255 48.898C31.1057 48.9079 31.0826 48.9145 31.0563 48.9145Z" fill="#F5CBD9"/>
<path d="M29.1693 49.1845C29.1463 49.1845 29.1199 49.1779 29.1001 49.1647C29.0342 49.1252 29.0111 49.0395 29.0474 48.9736L29.5351 48.1299C29.5747 48.064 29.6604 48.0409 29.7263 48.0772C29.7922 48.1167 29.8153 48.2024 29.779 48.2683L29.2913 49.112C29.2649 49.1615 29.2188 49.1845 29.1693 49.1845Z" fill="#F5CBD9"/>
<path d="M29.9584 47.817C29.9353 47.817 29.909 47.8104 29.8892 47.7972C29.8233 47.7577 29.8002 47.672 29.8365 47.6061L30.8746 45.8067C30.9141 45.7407 30.9998 45.7177 31.0657 45.7539C31.1317 45.7935 31.1547 45.8792 31.1185 45.9451L30.0803 47.7445C30.054 47.7907 30.0078 47.817 29.9584 47.817Z" fill="#F5CBD9"/>
<path d="M50.7448 27.3477C50.3922 27.3477 50.1055 27.6344 50.1055 27.987C50.1055 28.3397 50.3922 28.6264 50.7448 28.6264C51.0975 28.6264 51.3842 28.3397 51.3842 27.987C51.3875 27.6344 51.1008 27.3477 50.7448 27.3477Z" fill="#F5CBD9"/>
<path d="M49.3292 28.1252H48.3536C48.2745 28.1252 48.2119 28.0626 48.2119 27.9835C48.2119 27.9044 48.2745 27.8418 48.3536 27.8418H49.3292C49.4082 27.8418 49.4709 27.9044 49.4709 27.9835C49.4709 28.0626 49.405 28.1252 49.3292 28.1252Z" fill="#F5CBD9"/>
<path d="M47.7467 28.1252H45.6671C45.588 28.1252 45.5254 28.0626 45.5254 27.9835C45.5254 27.9044 45.588 27.8418 45.6671 27.8418H47.7467C47.8258 27.8418 47.8884 27.9044 47.8884 27.9835C47.8884 28.0626 47.8225 28.1252 47.7467 28.1252Z" fill="#F5CBD9"/>
<path d="M48.6725 29.3216C48.623 29.3216 48.5769 29.2952 48.5505 29.2524C48.511 29.1865 48.5341 29.1008 48.6033 29.0612L49.447 28.5735C49.5129 28.5339 49.5986 28.557 49.6381 28.6262C49.6777 28.6921 49.6546 28.7778 49.5854 28.8174L48.7417 29.3051C48.7186 29.3183 48.6955 29.3216 48.6725 29.3216Z" fill="#F5CBD9"/>
<path d="M46.3453 30.6663C46.2959 30.6663 46.2498 30.6399 46.2234 30.5971C46.1838 30.5312 46.2069 30.4455 46.2761 30.4059L48.0756 29.3645C48.1415 29.325 48.2272 29.348 48.2667 29.4172C48.3063 29.4831 48.2832 29.5688 48.214 29.6084L46.4145 30.6498C46.3948 30.6597 46.3684 30.6663 46.3453 30.6663Z" fill="#F5CBD9"/>
<path d="M49.5473 30.1986C49.5242 30.1986 49.4978 30.192 49.4781 30.1788C49.4121 30.1392 49.3891 30.0535 49.4253 29.9876L49.9131 29.1407C49.9526 29.0747 50.0383 29.0517 50.1042 29.0879C50.1701 29.1275 50.1932 29.2132 50.157 29.2791L49.6692 30.1261C49.6428 30.1722 49.5967 30.1986 49.5473 30.1986Z" fill="#F5CBD9"/>
<path d="M48.8158 31.4703C48.7927 31.4703 48.7664 31.4637 48.7466 31.4505C48.6807 31.411 48.6576 31.3253 48.6939 31.2594L49.1256 30.5113C49.1652 30.4453 49.2509 30.4223 49.3168 30.4585C49.3827 30.4981 49.4057 30.5838 49.3695 30.6497L48.9378 31.3978C48.9114 31.4439 48.862 31.4703 48.8158 31.4703Z" fill="#F5CBD9"/>
<path d="M50.7433 30.5182C50.6642 30.5182 50.6016 30.4556 50.6016 30.3765V29.401C50.6016 29.3219 50.6642 29.2593 50.7433 29.2593C50.8224 29.2593 50.885 29.3219 50.885 29.401V30.3765C50.885 30.4556 50.8224 30.5182 50.7433 30.5182Z" fill="#F5CBD9"/>
<path d="M50.7433 33.0357C50.6642 33.0357 50.6016 32.9731 50.6016 32.894V30.9825C50.6016 30.9034 50.6642 30.8408 50.7433 30.8408C50.8224 30.8408 50.885 30.9034 50.885 30.9825V32.894C50.885 32.9731 50.8224 33.0357 50.7433 33.0357Z" fill="#F5CBD9"/>
<path d="M50.7433 26.7111C50.6642 26.7111 50.6016 26.6485 50.6016 26.5694V25.5939C50.6016 25.5148 50.6642 25.4521 50.7433 25.4521C50.8224 25.4521 50.885 25.5148 50.885 25.5939V26.5694C50.885 26.6485 50.8224 26.7111 50.7433 26.7111Z" fill="#F5CBD9"/>
<path d="M50.7433 25.1295C50.6642 25.1295 50.6016 25.0669 50.6016 24.9878V23.0763C50.6016 22.9972 50.6642 22.9346 50.7433 22.9346C50.8224 22.9346 50.885 22.9972 50.885 23.0763V24.9878C50.885 25.0669 50.8224 25.1295 50.7433 25.1295Z" fill="#F5CBD9"/>
<path d="M50.0372 26.8991C49.9878 26.8991 49.9416 26.8727 49.9153 26.8299L49.4275 25.9829C49.3879 25.917 49.411 25.8313 49.4802 25.7917C49.5461 25.7522 49.6318 25.7753 49.6714 25.8445L50.1591 26.6915C50.1987 26.7574 50.1756 26.8431 50.1064 26.8826C50.0833 26.8958 50.0603 26.8991 50.0372 26.8991Z" fill="#F5CBD9"/>
<path d="M49.2458 25.5314C49.1964 25.5314 49.1502 25.5051 49.1239 25.4622L48.7185 24.7602C48.679 24.6943 48.702 24.6086 48.7712 24.5691C48.8371 24.5295 48.9228 24.5526 48.9624 24.6218L49.3677 25.3238C49.4073 25.3897 49.3842 25.4754 49.315 25.5149C49.292 25.5248 49.2689 25.5314 49.2458 25.5314Z" fill="#F5CBD9"/>
<path d="M49.5179 27.4199C49.4948 27.4199 49.4685 27.4133 49.4487 27.4001L48.605 26.9124C48.5391 26.8728 48.516 26.7871 48.5523 26.7212C48.5918 26.6553 48.6775 26.6322 48.7434 26.6685L49.5871 27.1562C49.653 27.1958 49.6761 27.2815 49.6398 27.3474C49.6135 27.3935 49.5673 27.4199 49.5179 27.4199Z" fill="#F5CBD9"/>
<path d="M48.1494 26.6288C48.1263 26.6288 48.1 26.6223 48.0802 26.6091L46.2808 25.5676C46.2149 25.5281 46.1918 25.4424 46.2281 25.3765C46.2676 25.3106 46.3533 25.2875 46.4192 25.3238L48.2186 26.3652C48.2845 26.4047 48.3076 26.4904 48.2714 26.5563C48.245 26.6025 48.1956 26.6288 48.1494 26.6288Z" fill="#F5CBD9"/>
<path d="M6.17552 28.6264C6.52816 28.6264 6.81488 28.3397 6.81488 27.987C6.81488 27.6344 6.52816 27.3477 6.17552 27.3477C5.82288 27.3477 5.53616 27.6344 5.53616 27.987C5.53287 28.3397 5.81959 28.6264 6.17552 28.6264Z" fill="#F5CBD9"/>
<path d="M8.56743 28.1252H7.59191C7.51281 28.1252 7.4502 28.0626 7.4502 27.9835C7.4502 27.9044 7.51281 27.8418 7.59191 27.8418H8.56743C8.64653 27.8418 8.70914 27.9044 8.70914 27.9835C8.70914 28.0626 8.64653 28.1252 8.56743 28.1252Z" fill="#F5CBD9"/>
<path d="M11.2525 28.1252H9.17296C9.09387 28.1252 9.03125 28.0626 9.03125 27.9835C9.03125 27.9044 9.09387 27.8418 9.17296 27.8418H11.2525C11.3316 27.8418 11.3942 27.9044 11.3942 27.9835C11.3942 28.0626 11.3316 28.1252 11.2525 28.1252Z" fill="#F5CBD9"/>
<path d="M7.4049 27.4197C7.35546 27.4197 7.30933 27.3934 7.28296 27.3505C7.24341 27.2846 7.26647 27.1989 7.33568 27.1594L8.17937 26.6716C8.24529 26.6321 8.33098 26.6552 8.37053 26.7244C8.41008 26.7903 8.387 26.876 8.31779 26.9155L7.4741 27.4033C7.45103 27.4132 7.42797 27.4197 7.4049 27.4197Z" fill="#F5CBD9"/>
<path d="M8.77208 26.6292C8.72265 26.6292 8.67651 26.6028 8.65014 26.56C8.6106 26.4941 8.63368 26.4084 8.70289 26.3688L10.5056 25.3274C10.5715 25.2878 10.6572 25.3109 10.6968 25.3801C10.7363 25.446 10.7132 25.5317 10.644 25.5713L8.8413 26.6127C8.82152 26.6226 8.79845 26.6292 8.77208 26.6292Z" fill="#F5CBD9"/>
<path d="M6.88027 26.8992C6.8572 26.8992 6.83083 26.8927 6.81105 26.8795C6.74514 26.8399 6.72208 26.7542 6.75833 26.6883L7.24608 25.8413C7.28563 25.7754 7.37133 25.7524 7.43724 25.7886C7.50315 25.8282 7.52621 25.9138 7.48996 25.9798L7.00221 26.8267C6.97584 26.8762 6.9297 26.8992 6.88027 26.8992Z" fill="#F5CBD9"/>
<path d="M7.67323 25.5313C7.65016 25.5313 7.62381 25.5247 7.60404 25.5116C7.53812 25.472 7.51504 25.3863 7.5513 25.3204L7.98303 24.5723C8.02258 24.5064 8.10827 24.4833 8.17418 24.5196C8.24009 24.5591 8.26318 24.6448 8.22692 24.7107L7.79519 25.4588C7.76883 25.505 7.72267 25.5313 7.67323 25.5313Z" fill="#F5CBD9"/>
<path d="M6.17687 26.7111C6.09777 26.7111 6.03516 26.6485 6.03516 26.5694V25.5939C6.03516 25.5148 6.09777 25.4521 6.17687 25.4521C6.25596 25.4521 6.31858 25.5148 6.31858 25.5939V26.5694C6.31528 26.6485 6.25267 26.7111 6.17687 26.7111Z" fill="#F5CBD9"/>
<path d="M6.17687 25.1295C6.09777 25.1295 6.03516 25.0669 6.03516 24.9878V23.0763C6.03516 22.9972 6.09777 22.9346 6.17687 22.9346C6.25596 22.9346 6.31858 22.9972 6.31858 23.0763V24.9878C6.31528 25.0669 6.25267 25.1295 6.17687 25.1295Z" fill="#F5CBD9"/>
<path d="M6.17687 30.5182C6.09777 30.5182 6.03516 30.4556 6.03516 30.3765V29.401C6.03516 29.3219 6.09777 29.2593 6.17687 29.2593C6.25596 29.2593 6.31858 29.3219 6.31858 29.401V30.3765C6.31528 30.4556 6.25267 30.5182 6.17687 30.5182Z" fill="#F5CBD9"/>
<path d="M6.17687 33.0357C6.09777 33.0357 6.03516 32.9731 6.03516 32.894V30.9825C6.03516 30.9034 6.09777 30.8408 6.17687 30.8408C6.25596 30.8408 6.31858 30.9034 6.31858 30.9825V32.894C6.31528 32.9731 6.25267 33.0357 6.17687 33.0357Z" fill="#F5CBD9"/>
<path d="M7.37507 30.1984C7.32564 30.1984 7.2795 30.172 7.25314 30.1292L6.76538 29.2822C6.72584 29.2163 6.7489 29.1306 6.81811 29.0911C6.88402 29.0515 6.96971 29.0746 7.00926 29.1438L7.49701 29.9908C7.53656 30.0567 7.5135 30.1424 7.44429 30.1819C7.42122 30.1918 7.39814 30.1984 7.37507 30.1984Z" fill="#F5CBD9"/>
<path d="M8.07688 31.424C8.02744 31.424 7.9813 31.3976 7.95494 31.3548L7.54956 30.6528C7.51001 30.5869 7.53309 30.5012 7.6023 30.4617C7.66821 30.4221 7.75391 30.4452 7.79345 30.5144L8.19882 31.2164C8.23836 31.2823 8.21528 31.368 8.14607 31.4075C8.1263 31.4174 8.10324 31.424 8.07688 31.424Z" fill="#F5CBD9"/>
<path d="M8.24837 29.3213C8.2253 29.3213 8.19893 29.3147 8.17916 29.3015L7.33547 28.8137C7.26955 28.7742 7.24649 28.6885 7.28275 28.6226C7.32229 28.5567 7.40797 28.5336 7.47388 28.5699L8.31757 29.0576C8.38348 29.0972 8.40656 29.1828 8.37031 29.2488C8.34395 29.2982 8.29781 29.3213 8.24837 29.3213Z" fill="#F5CBD9"/>
<path d="M10.5727 30.6664C10.5496 30.6664 10.5232 30.6598 10.5034 30.6467L8.70072 29.6052C8.6348 29.5657 8.61172 29.48 8.64798 29.4141C8.68752 29.3482 8.77322 29.3251 8.83913 29.3614L10.6419 30.4028C10.7078 30.4423 10.7308 30.528 10.6946 30.5939C10.6682 30.6401 10.6221 30.6664 10.5727 30.6664Z" fill="#F5CBD9"/>
<path d="M22.0824 9.27075C22.0033 9.27075 21.9275 9.26745 21.8517 9.25757C21.2057 9.18176 20.6224 8.7731 20.3653 8.21613C20.0918 7.62291 20.2137 6.8748 20.6554 6.43318C21.1233 5.96519 21.9242 5.89269 22.4383 6.27498C22.8536 6.58478 23.0216 7.16152 22.8206 7.58666C22.7086 7.82395 22.4614 8.00191 22.1813 8.05465C21.9275 8.10078 21.6869 8.03487 21.5188 7.87339C21.4628 7.82065 21.4628 7.73167 21.5155 7.67564C21.5683 7.61962 21.6572 7.61962 21.7133 7.67235C21.8154 7.77122 21.9637 7.80747 22.1318 7.77781C22.3263 7.74156 22.491 7.62291 22.5668 7.46472C22.7151 7.15493 22.5833 6.72979 22.2735 6.49909C21.8649 6.19589 21.2288 6.25521 20.8531 6.63092C20.4906 6.99014 20.395 7.60973 20.6191 8.09749C20.8366 8.56877 21.3343 8.91482 21.8814 8.97743C22.3988 9.04005 22.9656 8.85549 23.3974 8.49297C23.984 7.99532 24.2509 7.19448 24.0499 6.54193C23.9049 6.07395 23.5292 5.66858 23.0249 5.4247C22.5932 5.21708 22.0659 5.1248 21.4595 5.14787C20.4972 5.18412 19.5019 5.49062 18.5066 6.05747C17.7387 6.49579 16.6478 7.18129 15.8041 7.96896C15.7514 8.0151 15.6723 8.01839 15.6196 7.97555C15.5636 7.92941 15.5537 7.85361 15.5899 7.79429C15.9228 7.2538 16.1601 6.77263 16.3215 6.31453C15.2043 7.28016 13.8959 8.04476 12.5085 8.53911C11.8955 8.75662 11.0847 8.99061 10.2542 8.87527C9.39735 8.75333 8.6756 8.22932 8.41524 7.54052C8.25045 7.10549 8.28342 6.59137 8.50423 6.13657C8.72833 5.67847 9.11063 5.33902 9.55555 5.2006C10.1191 5.02593 10.7519 5.17094 11.1342 5.55982C11.5593 5.99485 11.6252 6.69683 11.2858 7.15822C11.1078 7.39881 10.8112 7.5603 10.4915 7.58336C10.1916 7.60973 9.90818 7.51416 9.71373 7.32301C9.65771 7.27028 9.6577 7.18129 9.71043 7.12527C9.76316 7.06924 9.85216 7.06924 9.90818 7.12527C10.0433 7.25709 10.2443 7.3263 10.4652 7.30653C10.7057 7.28676 10.9265 7.17141 11.0551 6.99344C11.3121 6.6441 11.2528 6.08713 10.9298 5.75427C10.62 5.43789 10.0993 5.32254 9.63464 5.46425C9.26223 5.5796 8.94255 5.86632 8.7514 6.25521C8.56355 6.6441 8.53389 7.07583 8.67231 7.43835C8.89971 8.03487 9.53247 8.48638 10.2905 8.59513C11.0617 8.70389 11.8296 8.47979 12.4129 8.27216C13.9223 7.73497 15.3362 6.8715 16.4995 5.77075C16.5457 5.7279 16.6116 5.72131 16.6676 5.75097C16.7203 5.78063 16.7467 5.84325 16.7335 5.90587C16.6313 6.33431 16.4666 6.76604 16.226 7.23732C16.9576 6.65728 17.7618 6.15634 18.3682 5.81359C19.403 5.22367 20.4411 4.90399 21.4496 4.86773C22.1022 4.84137 22.6756 4.94683 23.1469 5.17423C23.7236 5.45107 24.1488 5.91905 24.3201 6.45954C24.5574 7.21755 24.2509 8.14033 23.5819 8.70719C23.1535 9.06642 22.6064 9.27075 22.0824 9.27075Z" fill="#F1DFC1"/>
<path d="M21.6224 8.9612C21.5433 8.9612 21.4675 8.9579 21.3917 8.94802C21.1874 8.92495 20.9863 8.86563 20.7952 8.77664C20.726 8.74369 20.6963 8.66129 20.7293 8.58879C20.7622 8.51958 20.8446 8.48992 20.9171 8.52288C21.0819 8.59868 21.2533 8.64811 21.428 8.67118C21.9454 8.7305 22.5122 8.54924 22.944 8.18672C23.5306 7.69237 23.7975 6.88823 23.5965 6.23568C23.5009 5.92919 23.3032 5.64905 23.0099 5.41177C22.9506 5.36233 22.9407 5.27335 22.9901 5.21402C23.0395 5.1547 23.1285 5.14482 23.1878 5.19425C23.524 5.46779 23.7514 5.79077 23.8635 6.15329C24.1007 6.91129 23.7942 7.83408 23.1252 8.40094C22.6935 8.75687 22.1497 8.9612 21.6224 8.9612Z" fill="#F1DFC1"/>
<path d="M10.9685 8.8951C10.9619 8.8951 10.9553 8.8951 10.9487 8.8951C10.2336 8.79294 9.33056 8.32495 9.03065 7.54058C8.84609 7.05282 8.90541 6.44642 9.18884 5.96196C9.4492 5.51704 9.86116 5.23032 10.3489 5.16111C10.4247 5.14793 10.4972 5.20395 10.5071 5.27975C10.517 5.35555 10.4643 5.42806 10.3885 5.43794C9.98639 5.49727 9.64693 5.73455 9.42942 6.10367C9.18883 6.51563 9.13611 7.02975 9.291 7.43841C9.55136 8.11732 10.3522 8.52599 10.9883 8.61497C11.0641 8.62486 11.1168 8.69736 11.1069 8.77316C11.097 8.84237 11.0377 8.8951 10.9685 8.8951Z" fill="#F1DFC1"/>
<path d="M25.1165 5.14476H13.3048C13.2257 5.14476 13.1631 5.08214 13.1631 5.00304C13.1631 4.92395 13.2257 4.86133 13.3048 4.86133H25.1165C25.1956 4.86133 25.2582 4.92395 25.2582 5.00304C25.2582 5.08214 25.1956 5.14476 25.1165 5.14476Z" fill="#F1DFC1"/>
<path d="M21.948 8.03507C22.3011 8.03507 22.5873 7.74882 22.5873 7.39571C22.5873 7.0426 22.3011 6.75635 21.948 6.75635C21.5948 6.75635 21.3086 7.0426 21.3086 7.39571C21.3086 7.74882 21.5948 8.03507 21.948 8.03507Z" fill="#F1DFC1"/>
<path d="M13.9428 5.50411C13.9428 5.85674 13.6561 6.14347 13.3034 6.14347C12.9508 6.14347 12.6641 5.85674 12.6641 5.50411C12.6641 5.15147 12.9508 4.86475 13.3034 4.86475C13.6561 4.86475 13.9428 5.15147 13.9428 5.50411Z" fill="#F1DFC1"/>
<path d="M10.1745 7.51798C10.5276 7.51798 10.8139 7.23173 10.8139 6.87862C10.8139 6.52551 10.5276 6.23926 10.1745 6.23926C9.82141 6.23926 9.53516 6.52551 9.53516 6.87862C9.53516 7.23173 9.82141 7.51798 10.1745 7.51798Z" fill="#F1DFC1"/>
<path d="M34.8255 9.27075C34.2982 9.27075 33.7676 9.07301 33.3359 8.70719C32.6636 8.14033 32.3603 7.21755 32.5976 6.45954C32.7657 5.91905 33.1941 5.45107 33.7709 5.17423C34.2455 4.94683 34.8156 4.84137 35.4682 4.86773C36.4766 4.90399 37.5148 5.22367 38.5496 5.81359C39.156 6.15964 39.9601 6.65728 40.6918 7.23732C40.4512 6.76604 40.2864 6.33431 40.1843 5.90587C40.1711 5.84655 40.1974 5.78393 40.2502 5.75097C40.3029 5.72131 40.3721 5.7279 40.4183 5.77075C41.5816 6.8715 42.9955 7.73497 44.5049 8.27216C45.0882 8.47979 45.8561 8.70389 46.6273 8.59513C47.382 8.48967 48.0181 8.03487 48.2455 7.43835C48.3839 7.07583 48.3542 6.6441 48.1664 6.25521C47.9785 5.86632 47.6555 5.5796 47.2831 5.46425C46.8184 5.31924 46.2977 5.43459 45.9879 5.75427C45.6617 6.08713 45.6056 6.6408 45.8627 6.99344C45.9912 7.16811 46.212 7.28676 46.4526 7.30653C46.6701 7.32301 46.8745 7.25709 47.0096 7.12527C47.0656 7.07254 47.1546 7.07254 47.2073 7.12527C47.2601 7.18129 47.2601 7.27028 47.204 7.32301C47.0096 7.51416 46.7262 7.60973 46.4263 7.58336C46.1066 7.557 45.81 7.39881 45.632 7.15822C45.2926 6.69683 45.3585 5.99156 45.7836 5.55982C46.1659 5.17094 46.7987 5.02593 47.3622 5.2006C47.8071 5.33902 48.1894 5.67847 48.4136 6.13657C48.6377 6.59466 48.6706 7.10549 48.5025 7.54052C48.2389 8.22932 47.5171 8.75333 46.6636 8.87527C45.833 8.99391 45.0223 8.75662 44.4093 8.53911C43.0218 8.04476 41.7134 7.28016 40.5962 6.31453C40.7577 6.77263 40.995 7.2538 41.3279 7.79429C41.3641 7.85361 41.3509 7.93271 41.2982 7.97555C41.2455 8.01839 41.1664 8.01839 41.1136 7.96896C40.2732 7.18129 39.1791 6.49579 38.4112 6.05747C37.4159 5.49062 36.4206 5.18412 35.4583 5.14787C34.8486 5.1248 34.3246 5.22037 33.8928 5.4247C33.3853 5.66858 33.0129 6.07395 32.8679 6.54193C32.6635 7.19448 32.9338 7.99532 33.5204 8.49297C33.9522 8.85879 34.5223 9.04005 35.0364 8.97743C35.5868 8.91152 36.0845 8.56547 36.302 8.09749C36.5294 7.60643 36.4305 6.99014 36.068 6.63092C35.6923 6.25521 35.0562 6.19918 34.6475 6.49909C34.3344 6.72979 34.2059 7.15493 34.3542 7.46472C34.43 7.62291 34.5948 7.74156 34.7892 7.77781C34.9507 7.80747 35.1056 7.76792 35.2078 7.67235C35.2638 7.61962 35.3528 7.61962 35.4055 7.67564C35.4583 7.73167 35.4583 7.82065 35.4022 7.87339C35.2342 8.03487 34.9936 8.10078 34.7398 8.05465C34.4597 8.00521 34.2158 7.82395 34.1037 7.58666C33.8994 7.16152 34.0675 6.58478 34.4861 6.27498C35.0002 5.89269 35.801 5.96519 36.269 6.43318C36.7106 6.8748 36.8326 7.62291 36.559 8.21613C36.302 8.7731 35.7186 9.18176 35.0727 9.25757C34.987 9.26745 34.9079 9.27075 34.8255 9.27075Z" fill="#F1DFC1"/>
<path d="M35.2983 8.96108C34.7743 8.96108 34.2272 8.76004 33.7987 8.39752C33.1264 7.83066 32.8232 6.90788 33.0605 6.14987C33.1726 5.79064 33.4 5.46767 33.7361 5.19083C33.7954 5.1414 33.8844 5.15128 33.9339 5.21061C33.9833 5.26993 33.9734 5.35891 33.9141 5.40835C33.6208 5.64893 33.4263 5.92577 33.3308 6.23226C33.1264 6.88481 33.3967 7.68565 33.9833 8.1833C34.415 8.54912 34.9852 8.73038 35.4993 8.66776C35.674 8.64799 35.8454 8.59855 36.0101 8.51946C36.0794 8.4865 36.165 8.51616 36.198 8.58537C36.231 8.65458 36.2013 8.74027 36.1321 8.77322C35.9409 8.86221 35.7399 8.92153 35.5356 8.9446C35.4532 8.95778 35.3741 8.96108 35.2983 8.96108Z" fill="#F1DFC1"/>
<path d="M45.9531 8.89498C45.8839 8.89498 45.8246 8.84554 45.8147 8.77304C45.8048 8.69724 45.8575 8.62474 45.9333 8.61485C46.5694 8.52587 47.3702 8.1172 47.6306 7.43829C47.7888 7.02633 47.736 6.51551 47.4922 6.10025C47.2746 5.73114 46.9352 5.49385 46.5331 5.43453C46.4573 5.42464 46.4046 5.35213 46.4145 5.27633C46.4244 5.20053 46.4969 5.14451 46.5727 5.15769C47.0604 5.23019 47.4724 5.51362 47.7327 5.95854C48.0162 6.443 48.0788 7.04611 47.8909 7.53716C47.591 8.32483 46.688 8.78952 45.9729 8.89168C45.9663 8.89498 45.9597 8.89498 45.9531 8.89498Z" fill="#F1DFC1"/>
<path d="M43.6145 5.14476H31.8028C31.7237 5.14476 31.6611 5.08214 31.6611 5.00304C31.6611 4.92395 31.7237 4.86133 31.8028 4.86133H43.6145C43.6936 4.86133 43.7562 4.92395 43.7562 5.00304C43.7562 5.08214 43.6936 5.14476 43.6145 5.14476Z" fill="#F1DFC1"/>
<path d="M34.9704 8.03458C35.3235 8.03458 35.6098 7.74833 35.6098 7.39522C35.6098 7.04211 35.3235 6.75586 34.9704 6.75586C34.6173 6.75586 34.3311 7.04211 34.3311 7.39522C34.3311 7.74833 34.6173 8.03458 34.9704 8.03458Z" fill="#F1DFC1"/>
<path d="M42.9766 5.50362C42.9766 5.85625 43.2633 6.14298 43.6159 6.14298C43.9686 6.14298 44.2553 5.85625 44.2553 5.50362C44.2553 5.15098 43.9686 4.86426 43.6159 4.86426C43.2633 4.86426 42.9766 5.15098 42.9766 5.50362Z" fill="#F1DFC1"/>
<path d="M46.7448 7.51749C47.0979 7.51749 47.3842 7.23124 47.3842 6.87813C47.3842 6.52502 47.0979 6.23877 46.7448 6.23877C46.3917 6.23877 46.1055 6.52502 46.1055 6.87813C46.1055 7.23124 46.3917 7.51749 46.7448 7.51749Z" fill="#F1DFC1"/>
<path d="M21.635 51.1095C21.5724 51.1095 21.5131 51.1095 21.4505 51.1062C20.442 51.07 19.4038 50.7503 18.369 50.1604C17.7626 49.8143 16.9584 49.3167 16.2268 48.7366C16.4674 49.2079 16.6322 49.6396 16.7343 50.0681C16.7475 50.1274 16.7212 50.19 16.6684 50.223C16.6157 50.2526 16.5465 50.246 16.5003 50.2032C15.337 49.1025 13.9231 48.239 12.4137 47.7018C11.8304 47.4942 11.0592 47.2701 10.2913 47.3788C9.53659 47.4876 8.90054 47.9391 8.67314 48.5356C8.53472 48.8981 8.56438 49.3299 8.75223 49.7187C8.94008 50.1076 9.26306 50.3944 9.63547 50.5097C10.1002 50.6547 10.6209 50.5394 10.9307 50.2197C11.2569 49.8868 11.313 49.3331 11.0559 48.9805C10.9274 48.8025 10.7066 48.6872 10.466 48.6674C10.2485 48.6509 10.0441 48.7169 9.90901 48.8487C9.85299 48.9047 9.76399 48.9014 9.71126 48.8487C9.65853 48.7927 9.65853 48.7037 9.71456 48.6509C9.909 48.4598 10.1924 48.3642 10.4891 48.3906C10.8087 48.417 11.1053 48.5751 11.2833 48.8157C11.6228 49.2771 11.5535 49.9824 11.1317 50.4141C10.7494 50.803 10.1166 50.948 9.55307 50.7734C9.10816 50.6349 8.72586 50.2955 8.50176 49.8374C8.27765 49.3793 8.24469 48.8685 8.41277 48.4334C8.67642 47.7446 9.39818 47.2206 10.2518 47.0987C11.0856 46.98 11.893 47.2173 12.506 47.4348C13.8935 47.9292 15.2019 48.6938 16.3191 49.6594C16.1576 49.2013 15.9203 48.7202 15.5874 48.1797C15.5512 48.1203 15.5644 48.0412 15.6171 47.9984C15.6698 47.9556 15.7489 47.9556 15.8017 48.005C16.6421 48.7927 17.7362 49.4782 18.5041 49.9165C19.4994 50.4833 20.4947 50.7898 21.457 50.8261C22.0667 50.8492 22.5907 50.7536 23.0225 50.5492C23.53 50.3054 23.9024 49.9 24.0474 49.432C24.2518 48.7795 23.9815 47.9786 23.3949 47.481C22.9632 47.1152 22.393 46.9339 21.8789 46.9965C21.3285 47.0624 20.8342 47.4085 20.6166 47.8765C20.3892 48.3642 20.4881 48.9838 20.8506 49.343C21.2263 49.7187 21.8624 49.7748 22.2711 49.4749C22.5842 49.2442 22.7127 48.819 22.5644 48.5092C22.4886 48.351 22.3238 48.2324 22.1294 48.1961C21.9646 48.1665 21.813 48.206 21.7108 48.3016C21.6548 48.3543 21.5658 48.3543 21.5131 48.2983C21.4603 48.2423 21.4603 48.1533 21.5163 48.1006C21.6844 47.9391 21.925 47.8732 22.1788 47.9193C22.4589 47.9687 22.7028 48.15 22.8181 48.3873C23.0225 48.8124 22.8544 49.3892 22.4359 49.699C21.9217 50.0813 21.1209 50.0088 20.6529 49.5408C20.2113 49.0992 20.0893 48.351 20.3629 47.7578C20.6199 47.2008 21.2033 46.7922 21.8492 46.7164C22.4424 46.6472 23.0884 46.8515 23.5794 47.2668C24.2518 47.8336 24.555 48.7564 24.3177 49.5144C24.1496 50.0549 23.7212 50.5229 23.1444 50.7997C22.7193 51.0073 22.2118 51.1095 21.635 51.1095Z" fill="#F1DFC1"/>
<path d="M23.0988 50.8132C23.0593 50.8132 23.0164 50.7967 22.99 50.7604C22.9406 50.7011 22.9505 50.6121 23.0098 50.5627C23.3031 50.3221 23.4976 50.0453 23.5964 49.7388C23.8008 49.0862 23.5305 48.2854 22.9439 47.7877C22.5122 47.4219 21.9453 47.2407 21.4279 47.3033C21.2532 47.3231 21.0818 47.3725 20.9171 47.4516C20.8478 47.4845 20.7622 47.4549 20.7292 47.3857C20.6963 47.3165 20.7259 47.2308 20.7984 47.1978C20.9896 47.1088 21.1906 47.0495 21.3949 47.0264C21.9881 46.9572 22.6341 47.1616 23.1252 47.5768C23.7975 48.1437 24.1007 49.0665 23.8634 49.8245C23.7513 50.187 23.5239 50.5067 23.1878 50.7835C23.1614 50.8033 23.1285 50.8132 23.0988 50.8132Z" fill="#F1DFC1"/>
<path d="M10.3672 50.8162C10.3606 50.8162 10.354 50.8162 10.3474 50.8162C9.85967 50.7437 9.44771 50.4603 9.18735 50.0154C8.90392 49.5309 8.84131 48.9278 9.02916 48.4368C9.32907 47.6491 10.2321 47.1844 10.9472 47.0822C11.023 47.0724 11.0955 47.1251 11.1054 47.2009C11.1153 47.2767 11.0626 47.3492 10.9868 47.3591C10.3507 47.4481 9.54987 47.8567 9.28951 48.5356C9.13132 48.9476 9.18405 49.4584 9.42793 49.8704C9.64544 50.2395 9.98491 50.4768 10.387 50.5361C10.4628 50.546 10.5155 50.6185 10.5056 50.6943C10.4957 50.7668 10.4364 50.8162 10.3672 50.8162Z" fill="#F1DFC1"/>
<path d="M25.1175 51.1096H13.3058C13.2267 51.1096 13.1641 51.047 13.1641 50.9679C13.1641 50.8888 13.2267 50.8262 13.3058 50.8262H25.1175C25.1966 50.8262 25.2592 50.8888 25.2592 50.9679C25.2592 51.047 25.1966 51.1096 25.1175 51.1096Z" fill="#F1DFC1"/>
<path d="M21.9499 49.2177C22.303 49.2177 22.5893 48.9314 22.5893 48.5783C22.5893 48.2252 22.303 47.939 21.9499 47.939C21.5968 47.939 21.3105 48.2252 21.3105 48.5783C21.3105 48.9314 21.5968 49.2177 21.9499 49.2177Z" fill="#F1DFC1"/>
<path d="M13.3024 51.1098C13.6556 51.1098 13.9418 50.8235 13.9418 50.4704C13.9418 50.1173 13.6556 49.8311 13.3024 49.8311C12.9493 49.8311 12.6631 50.1173 12.6631 50.4704C12.6631 50.8235 12.9493 51.1098 13.3024 51.1098Z" fill="#F1DFC1"/>
<path d="M10.1745 49.7353C10.5276 49.7353 10.8139 49.449 10.8139 49.0959C10.8139 48.7428 10.5276 48.4565 10.1745 48.4565C9.82141 48.4565 9.53516 48.7428 9.53516 49.0959C9.53516 49.449 9.82141 49.7353 10.1745 49.7353Z" fill="#F1DFC1"/>
<path d="M35.2822 51.1093C34.7055 51.1093 34.1979 51.0071 33.7695 50.7995C33.1928 50.5227 32.7676 50.0547 32.5963 49.5142C32.359 48.7562 32.6655 47.8334 33.3345 47.2666C33.8321 46.8447 34.4616 46.647 35.0647 46.7162C35.7107 46.792 36.294 47.2006 36.5511 47.7576C36.8246 48.3508 36.7027 49.099 36.261 49.5406C35.7898 50.0086 34.9889 50.0811 34.4781 49.6988C34.0628 49.389 33.8948 48.8122 34.0958 48.3871C34.2078 48.1498 34.4517 47.9718 34.7319 47.9191C34.9856 47.873 35.2262 47.9389 35.3943 48.1004C35.4503 48.1531 35.4503 48.2421 35.3976 48.2981C35.3448 48.3541 35.2559 48.3541 35.1998 48.3014C35.0977 48.2025 34.9461 48.1663 34.7813 48.1959C34.5868 48.2322 34.4221 48.3508 34.3462 48.509C34.1979 48.8188 34.3298 49.244 34.6396 49.4747C35.0482 49.7779 35.6843 49.7185 36.06 49.3428C36.4225 48.9836 36.5214 48.3673 36.294 47.8763C36.0765 47.405 35.5788 47.0589 35.0285 46.9963C34.511 46.937 33.9442 47.1183 33.5125 47.4808C32.9258 47.9751 32.6589 48.7793 32.8599 49.4318C33.0049 49.8998 33.3806 50.3052 33.8849 50.549C34.3166 50.7567 34.8439 50.849 35.4503 50.8259C36.4126 50.7896 37.4079 50.4831 38.4032 49.9163C39.1711 49.478 40.262 48.7925 41.1057 48.0048C41.1584 47.9554 41.2375 47.9554 41.2902 47.9982C41.3463 48.0443 41.3561 48.1201 41.3199 48.1795C40.987 48.72 40.7497 49.2011 40.5882 49.6592C41.7022 48.6936 43.0139 47.929 44.4013 47.4346C45.0143 47.2171 45.8251 46.9798 46.6556 47.0985C47.5125 47.2204 48.2342 47.7444 48.4946 48.4332C48.6594 48.8683 48.6264 49.3824 48.4056 49.8372C48.1815 50.2953 47.7992 50.6347 47.3543 50.7732C46.7907 50.9478 46.1579 50.8028 45.7756 50.4139C45.3505 49.9789 45.2846 49.2769 45.624 48.8155C45.802 48.5749 46.0953 48.4135 46.4183 48.3904C46.7182 48.3673 47.0016 48.4629 47.1961 48.6507C47.2521 48.7035 47.2521 48.7925 47.1994 48.8485C47.1466 48.9045 47.0577 48.9045 47.0016 48.8485C46.8665 48.7167 46.6622 48.6475 46.4447 48.6672C46.2041 48.687 45.9833 48.8023 45.8547 48.9803C45.5977 49.3297 45.657 49.8866 45.98 50.2195C46.2898 50.5359 46.8105 50.6512 47.2752 50.5095C47.6476 50.3942 47.9673 50.1074 48.1584 49.7185C48.3463 49.3297 48.3759 48.8979 48.2375 48.5354C48.0101 47.9389 47.3773 47.4874 46.6193 47.3786C45.8514 47.2699 45.0803 47.494 44.4969 47.7016C42.9875 48.2388 41.5737 49.1023 40.4103 50.203C40.3641 50.2459 40.2982 50.2524 40.2422 50.2228C40.1895 50.1931 40.1631 50.1305 40.1763 50.0679C40.2785 49.6394 40.4433 49.2077 40.6838 48.7364C39.9522 49.3165 39.1481 49.8174 38.5416 50.1602C37.5068 50.7501 36.4687 51.0665 35.4602 51.106C35.4042 51.1093 35.3416 51.1093 35.2822 51.1093Z" fill="#F1DFC1"/>
<path d="M33.8189 50.8126C33.7859 50.8126 33.7562 50.8027 33.7299 50.7796C33.3937 50.5061 33.1663 50.1831 33.0543 49.8206C32.817 49.0626 33.1235 48.1398 33.7925 47.5729C34.2835 47.1577 34.9328 46.9533 35.5227 47.0225C35.727 47.0456 35.9281 47.1049 36.1192 47.1939C36.1884 47.2269 36.2181 47.3093 36.1884 47.3818C36.1555 47.451 36.0731 47.4806 36.0006 47.4477C35.8358 47.3719 35.6644 47.3224 35.4898 47.2994C34.9723 47.2368 34.4055 47.4213 33.9738 47.7838C33.3871 48.2782 33.1202 49.0823 33.3212 49.7349C33.4168 50.0414 33.6145 50.3215 33.9045 50.5588C33.9639 50.6082 33.9738 50.6972 33.9243 50.7565C33.9013 50.7961 33.8617 50.8126 33.8189 50.8126Z" fill="#F1DFC1"/>
<path d="M46.5519 50.8162C46.4827 50.8162 46.4234 50.7668 46.4135 50.6976C46.4036 50.6218 46.4563 50.5493 46.5321 50.5394C46.9342 50.4801 47.2737 50.2428 47.4912 49.8737C47.7318 49.4617 47.7845 48.9476 47.6296 48.5356C47.3693 47.8567 46.5684 47.4481 45.9323 47.3591C45.8565 47.3492 45.8038 47.2767 45.8137 47.2009C45.8236 47.1251 45.8961 47.0724 45.9719 47.0822C46.7101 47.1877 47.5901 47.6458 47.89 48.4368C48.0745 48.9278 48.0152 49.5309 47.7318 50.0154C47.4714 50.4603 47.0594 50.747 46.5717 50.8162C46.5651 50.8162 46.5585 50.8162 46.5519 50.8162Z" fill="#F1DFC1"/>
<path d="M43.6136 51.1096H31.8019C31.7228 51.1096 31.6602 51.047 31.6602 50.9679C31.6602 50.8888 31.7228 50.8262 31.8019 50.8262H43.6136C43.6926 50.8262 43.7553 50.8888 43.7553 50.9679C43.7553 51.047 43.6926 51.1096 43.6136 51.1096Z" fill="#F1DFC1"/>
<path d="M34.9694 49.2177C35.3225 49.2177 35.6088 48.9314 35.6088 48.5783C35.6088 48.2252 35.3225 47.939 34.9694 47.939C34.6163 47.939 34.3301 48.2252 34.3301 48.5783C34.3301 48.9314 34.6163 49.2177 34.9694 49.2177Z" fill="#F1DFC1"/>
<path d="M43.6149 51.1093C43.9681 51.1093 44.2543 50.823 44.2543 50.4699C44.2543 50.1168 43.9681 49.8306 43.6149 49.8306C43.2618 49.8306 42.9756 50.1168 42.9756 50.4699C42.9756 50.823 43.2618 51.1093 43.6149 51.1093Z" fill="#F1DFC1"/>
<path d="M46.7439 49.7353C47.097 49.7353 47.3832 49.449 47.3832 49.0959C47.3832 48.7428 47.097 48.4565 46.7439 48.4565C46.3907 48.4565 46.1045 48.7428 46.1045 49.0959C46.1045 49.449 46.3907 49.7353 46.7439 49.7353Z" fill="#F1DFC1"/>
<path d="M49.4554 23.9263C48.8325 23.9263 48.18 23.6264 47.7417 23.109C47.3198 22.6114 47.1221 21.9819 47.1913 21.3788C47.2671 20.7328 47.6758 20.1495 48.2327 19.8924C48.8259 19.6189 49.5741 19.7408 50.0157 20.1825C50.4837 20.6537 50.5562 21.4546 50.1739 21.9687C49.8641 22.384 49.2873 22.552 48.8622 22.351C48.6249 22.239 48.4469 21.9951 48.3942 21.7116C48.3481 21.4579 48.414 21.2173 48.5755 21.0492C48.6282 20.9932 48.7172 20.9932 48.7732 21.0459C48.8292 21.0987 48.8292 21.1876 48.7765 21.2437C48.6776 21.3458 48.6414 21.4974 48.671 21.6622C48.7073 21.8567 48.8259 22.0214 48.9841 22.0972C49.2939 22.2455 49.7191 22.1137 49.9498 21.8039C50.253 21.3953 50.1937 20.7592 49.8179 20.3835C49.4587 20.021 48.8424 19.9221 48.3514 20.1495C47.8801 20.367 47.534 20.8647 47.4714 21.415C47.4121 21.9325 47.5934 22.4993 47.9559 22.931C48.4502 23.5177 49.2544 23.7879 49.9069 23.5836C50.3716 23.4386 50.7803 23.0629 51.0242 22.5586C51.2318 22.1269 51.3241 21.5996 51.301 20.9932C51.2647 20.0309 50.9582 19.0356 50.3914 18.0403C49.9531 17.2724 49.2676 16.1815 48.4799 15.3378C48.4305 15.2851 48.4305 15.206 48.4733 15.1533C48.5162 15.1005 48.5952 15.0874 48.6546 15.1236C49.1951 15.4565 49.6762 15.6938 50.1343 15.8552C49.1687 14.738 48.4041 13.4296 47.9097 12.0422C47.6922 11.4292 47.455 10.6184 47.5736 9.78791C47.6955 8.93434 48.2195 8.20929 48.9083 7.94893C49.3434 7.78415 49.8542 7.81711 50.3123 8.03792C50.7704 8.26202 51.1098 8.64432 51.2483 9.08923C51.4229 9.65279 51.2779 10.2856 50.889 10.6679C50.454 11.093 49.752 11.1589 49.2906 10.8195C49.05 10.6415 48.8886 10.3449 48.8655 10.0252C48.8424 9.7253 48.938 9.44187 49.1258 9.25072C49.1819 9.19469 49.2676 9.19469 49.3236 9.24742C49.3796 9.30016 49.3796 9.38914 49.3236 9.44516C49.1918 9.58029 49.1225 9.78462 49.1423 10.0021C49.1621 10.2427 49.2774 10.4635 49.4554 10.5921C49.8048 10.8491 50.3617 10.7898 50.6946 10.4668C51.011 10.157 51.1263 9.63631 50.9813 9.17162C50.866 8.79921 50.5792 8.47953 50.1903 8.28838C49.8014 8.10053 49.373 8.07087 49.0072 8.20929C48.4107 8.43669 47.9592 9.06946 47.8504 9.82746C47.7417 10.5986 47.9658 11.3665 48.1734 11.9499C48.7106 13.4593 49.5741 14.8731 50.6748 16.0365C50.7177 16.0826 50.7242 16.1486 50.6946 16.2046C50.6649 16.2573 50.6023 16.2837 50.5397 16.2705C50.1113 16.1683 49.6795 16.0035 49.2082 15.763C49.7883 16.4946 50.2892 17.2987 50.632 17.9051C51.2219 18.94 51.5416 19.9781 51.5778 20.9866C51.6009 21.6391 51.4987 22.2126 51.2713 22.6839C50.9945 23.2606 50.5265 23.689 49.986 23.8571C49.8212 23.9 49.64 23.9263 49.4554 23.9263Z" fill="#F1DFC1"/>
<path d="M49.766 23.4686C49.1431 23.4686 48.4905 23.1687 48.0522 22.6512C47.6304 22.1536 47.4326 21.5208 47.5018 20.921C47.5249 20.7167 47.5842 20.5156 47.6732 20.3245C47.7062 20.2553 47.7886 20.2256 47.8611 20.2586C47.9303 20.2915 47.9599 20.3739 47.927 20.4464C47.8512 20.6112 47.8017 20.7826 47.782 20.9573C47.7193 21.4747 47.9039 22.0415 48.2664 22.4733C48.7608 23.0599 49.5649 23.3268 50.2175 23.1258C50.524 23.0302 50.8008 22.8325 51.0414 22.5425C51.0908 22.4832 51.1798 22.4733 51.2391 22.5227C51.2985 22.5721 51.3083 22.6611 51.2589 22.7204C50.9821 23.0566 50.6624 23.284 50.2999 23.3961C50.1285 23.4422 49.9505 23.4686 49.766 23.4686Z" fill="#F1DFC1"/>
<path d="M47.6963 10.6352C47.6897 10.6352 47.6831 10.6352 47.6765 10.6352C47.6007 10.6253 47.5479 10.5528 47.5578 10.477C47.66 9.76186 48.1247 8.85885 48.9124 8.55895C49.4034 8.37109 50.0065 8.43371 50.491 8.71714C50.9359 8.9775 51.2226 9.38945 51.2918 9.87721C51.3017 9.95301 51.249 10.0255 51.1732 10.0354C51.0974 10.0453 51.0249 9.99256 51.015 9.91676C50.9557 9.51469 50.7184 9.17524 50.3493 8.95772C49.9373 8.71714 49.4232 8.66441 49.0112 8.8193C48.3323 9.07966 47.9237 9.88051 47.8347 10.5166C47.8281 10.5825 47.7655 10.6352 47.6963 10.6352Z" fill="#F1DFC1"/>
<path d="M51.4464 24.7836C51.3673 24.7836 51.3047 24.721 51.3047 24.6419V12.8302C51.3047 12.7511 51.3673 12.6885 51.4464 12.6885C51.5255 12.6885 51.5881 12.7511 51.5881 12.8302V24.6419C51.5881 24.721 51.5255 24.7836 51.4464 24.7836Z" fill="#F1DFC1"/>
<path d="M49.0544 22.1137C48.7018 22.1137 48.415 21.827 48.415 21.4743C48.415 21.1217 48.7018 20.835 49.0544 20.835C49.407 20.835 49.6938 21.1217 49.6938 21.4743C49.6938 21.827 49.407 22.1137 49.0544 22.1137Z" fill="#F1DFC1"/>
<path d="M50.946 13.4691C51.2991 13.4691 51.5854 13.1829 51.5854 12.8298C51.5854 12.4767 51.2991 12.1904 50.946 12.1904C50.5929 12.1904 50.3066 12.4767 50.3066 12.8298C50.3066 13.1829 50.5929 13.4691 50.946 13.4691Z" fill="#F1DFC1"/>
<path d="M49.5739 10.3417C49.927 10.3417 50.2133 10.0555 50.2133 9.70235C50.2133 9.34924 49.927 9.06299 49.5739 9.06299C49.2208 9.06299 48.9346 9.34924 48.9346 9.70235C48.9346 10.0555 49.2208 10.3417 49.5739 10.3417Z" fill="#F1DFC1"/>
<path d="M49.4942 48.1365C49.2932 48.1365 49.0954 48.1003 48.9142 48.0311C48.2254 47.7674 47.7014 47.0457 47.5794 46.1921C47.4608 45.3616 47.6981 44.5509 47.9156 43.9379C48.41 42.5504 49.1746 41.242 50.1402 40.1248C49.6821 40.2863 49.2009 40.5236 48.6604 40.8564C48.6011 40.8927 48.522 40.8795 48.4792 40.8268C48.433 40.774 48.4363 40.6949 48.4858 40.6422C49.2734 39.8018 49.9589 38.7076 50.3972 37.9397C50.9641 36.9445 51.2706 35.9492 51.3068 34.9868C51.3299 34.3804 51.2344 33.8531 51.03 33.4214C50.7861 32.9139 50.3808 32.5414 49.9128 32.3964C49.2602 32.1921 48.4594 32.4623 47.9618 33.049C47.5959 33.4807 47.4147 34.0476 47.4773 34.565C47.5432 35.1154 47.8892 35.6097 48.3572 35.8305C48.845 36.0579 49.4646 35.9591 49.8238 35.5965C50.1995 35.2208 50.2588 34.5848 49.9556 34.1761C49.7249 33.863 49.2998 33.7345 48.99 33.8828C48.8318 33.9586 48.7132 34.1234 48.6769 34.3178C48.6472 34.4826 48.6868 34.6342 48.7824 34.7364C48.8351 34.7924 48.8351 34.8814 48.7791 34.9341C48.723 34.9868 48.6341 34.9868 48.5813 34.9308C48.4199 34.7627 48.3539 34.5221 48.4001 34.2684C48.4495 33.9882 48.6308 33.7444 48.8681 33.629C49.2932 33.4247 49.8699 33.5928 50.1797 34.0113C50.562 34.5254 50.4895 35.3263 50.0215 35.7976C49.5799 36.2392 48.8318 36.3611 48.2386 36.0876C47.6816 35.8305 47.273 35.2472 47.1972 34.6012C47.1247 34.0014 47.3257 33.3687 47.7475 32.871C48.3144 32.1987 49.2372 31.8955 49.9952 32.1328C50.5357 32.3009 51.0037 32.7293 51.2805 33.306C51.5079 33.7806 51.6101 34.3508 51.587 35.0033C51.5507 36.0118 51.2311 37.0499 50.6411 38.0848C50.2951 38.6912 49.7974 39.4953 49.2174 40.2269C49.6887 39.9864 50.1204 39.8216 50.5488 39.7194C50.6082 39.7029 50.6708 39.7326 50.7038 39.7853C50.7334 39.8381 50.7268 39.9073 50.684 39.9534C49.5832 41.1168 48.7198 42.5306 48.1826 44.04C47.9749 44.6234 47.7508 45.3913 47.8596 46.1624C47.9651 46.9171 48.4198 47.5532 49.0164 47.7806C49.3789 47.919 49.8106 47.8894 50.1995 47.7015C50.5884 47.5137 50.8751 47.1907 50.9905 46.8183C51.1355 46.3536 51.0201 45.8329 50.7038 45.5231C50.3709 45.1968 49.8172 45.1408 49.4646 45.3978C49.2899 45.5264 49.1713 45.7472 49.1515 45.9878C49.135 46.2053 49.2009 46.4096 49.3327 46.5447C49.3855 46.6008 49.3855 46.6897 49.3327 46.7425C49.2767 46.7952 49.1877 46.7952 49.135 46.7392C48.9439 46.5447 48.8483 46.2613 48.8746 45.9614C48.901 45.6417 49.0592 45.3451 49.2998 45.1672C49.7612 44.8277 50.4665 44.8936 50.8982 45.3187C51.2871 45.701 51.4321 46.3338 51.2574 46.8974C51.119 47.3423 50.7795 47.7246 50.3214 47.9487C50.0512 48.0706 49.7678 48.1333 49.4942 48.1365Z" fill="#F1DFC1"/>
<path d="M47.8001 35.7315C47.7474 35.7315 47.6979 35.7019 47.6749 35.6524C47.5859 35.4613 47.5266 35.2603 47.5035 35.0559C47.4343 34.4627 47.6386 33.8168 48.0539 33.3257C48.6207 32.6567 49.5435 32.3502 50.3015 32.5875C50.6607 32.6995 50.9837 32.9269 51.2605 33.2631C51.31 33.3224 51.3001 33.4114 51.2408 33.4608C51.1815 33.5103 51.0925 33.5004 51.043 33.441C50.8025 33.1477 50.5256 32.9533 50.2191 32.8577C49.5666 32.6534 48.7657 32.9236 48.2681 33.5103C47.9023 33.942 47.721 34.5088 47.7836 35.0263C47.8034 35.2009 47.8528 35.3723 47.9319 35.5371C47.9649 35.6063 47.9352 35.692 47.866 35.7249C47.8396 35.7282 47.8199 35.7315 47.8001 35.7315Z" fill="#F1DFC1"/>
<path d="M49.5125 47.5235C49.3049 47.5235 49.0973 47.4872 48.9094 47.418C48.1218 47.1181 47.6571 46.2151 47.5549 45.5C47.545 45.4242 47.5978 45.3517 47.6736 45.3418C47.7494 45.3286 47.8219 45.3846 47.8317 45.4604C47.9207 46.0965 48.3294 46.8973 49.0083 47.1577C49.4203 47.3159 49.9311 47.2631 50.3463 47.0193C50.7155 46.8018 50.9527 46.4623 51.0121 46.0602C51.0219 45.9844 51.0945 45.9284 51.1703 45.9416C51.2461 45.9515 51.2988 46.024 51.2889 46.0998C51.2164 46.5875 50.933 46.9995 50.4881 47.2598C50.1914 47.4345 49.8454 47.5235 49.5125 47.5235Z" fill="#F1DFC1"/>
<path d="M51.4445 43.282C51.3654 43.282 51.3027 43.2194 51.3027 43.1403V31.3253C51.3027 31.2462 51.3654 31.1836 51.4445 31.1836C51.5236 31.1836 51.5862 31.2462 51.5862 31.3253V43.1403C51.5862 43.2194 51.5236 43.282 51.4445 43.282Z" fill="#F1DFC1"/>
<path d="M49.0524 33.8599C48.6998 33.8599 48.4131 34.1466 48.4131 34.4992C48.4131 34.8519 48.6998 35.1386 49.0524 35.1386C49.4051 35.1386 49.6918 34.8519 49.6918 34.4992C49.6918 34.1466 49.4051 33.8599 49.0524 33.8599Z" fill="#F1DFC1"/>
<path d="M50.946 43.7826C51.2991 43.7826 51.5854 43.4964 51.5854 43.1433C51.5854 42.7902 51.2991 42.5039 50.946 42.5039C50.5929 42.5039 50.3066 42.7902 50.3066 43.1433C50.3066 43.4964 50.5929 43.7826 50.946 43.7826Z" fill="#F1DFC1"/>
<path d="M49.572 46.9101C49.9251 46.9101 50.2113 46.6238 50.2113 46.2707C50.2113 45.9176 49.9251 45.6313 49.572 45.6313C49.2189 45.6313 48.9326 45.9176 48.9326 46.2707C48.9326 46.6238 49.2189 46.9101 49.572 46.9101Z" fill="#F1DFC1"/>
<path d="M7.46872 23.9264C7.28416 23.9264 7.1062 23.9001 6.93482 23.8473C6.39434 23.6793 5.92636 23.2508 5.64953 22.6741C5.42212 22.1995 5.31996 21.6293 5.34303 20.9768C5.37928 19.9683 5.69896 18.9302 6.28889 17.8954C6.63493 17.289 7.13258 16.4848 7.71262 15.7532C7.24463 15.9938 6.80959 16.1585 6.38115 16.2607C6.32183 16.2739 6.25922 16.2475 6.22627 16.1948C6.19661 16.1421 6.2032 16.0728 6.24604 16.0267C7.34679 14.8633 8.21025 13.4495 8.74744 11.9401C8.95507 11.3567 9.17919 10.5889 9.07043 9.81767C8.96167 9.06296 8.51016 8.4269 7.91365 8.19949C7.55113 8.06108 7.11938 8.09074 6.73049 8.27859C6.34161 8.46644 6.05489 8.78942 5.93955 9.16183C5.79454 9.62652 5.91318 10.1472 6.22957 10.457C6.56243 10.7833 7.11608 10.8393 7.46872 10.5823C7.64669 10.4537 7.76204 10.2329 7.78181 9.99234C7.79829 9.77482 7.73238 9.57049 7.60056 9.43537C7.54783 9.37934 7.54783 9.29036 7.60056 9.23763C7.65658 9.1849 7.74556 9.1849 7.79829 9.24092C7.98944 9.43537 8.08502 9.7188 8.05866 10.0154C8.03229 10.3351 7.87411 10.6317 7.63023 10.8097C7.16883 11.1491 6.46355 11.0799 6.03181 10.6581C5.64293 10.2758 5.49793 9.643 5.6726 9.07944C5.81102 8.63452 6.15046 8.25222 6.60856 8.02812C7.06665 7.80401 7.57749 7.77106 8.01251 7.93914C8.70131 8.20279 9.22532 8.92454 9.34726 9.77812C9.4659 10.6086 9.22863 11.4194 9.01111 12.0324C8.52006 13.4198 7.75546 14.7282 6.78654 15.8454C7.24463 15.684 7.7258 15.4467 8.26629 15.1138C8.32561 15.0776 8.4047 15.0907 8.44755 15.1435C8.49369 15.1962 8.49038 15.2753 8.44095 15.328C7.65328 16.1684 6.96779 17.2626 6.52946 18.0305C5.96261 19.0258 5.65611 20.0211 5.61986 20.9834C5.59679 21.5898 5.69237 22.1171 5.8967 22.5488C6.14058 23.0564 6.54593 23.4288 7.01392 23.5738C7.66646 23.7781 8.46732 23.5079 8.96497 22.9212C9.33079 22.4895 9.51204 21.9227 9.44942 21.4052C9.38351 20.8549 9.03747 20.3605 8.56948 20.1397C8.07843 19.9123 7.46213 20.0112 7.10291 20.3737C6.7272 20.7494 6.67119 21.3855 6.97109 21.7941C7.20508 22.1072 7.62693 22.2357 7.93672 22.0874C8.09491 22.0116 8.21354 21.8469 8.24979 21.6524C8.27945 21.4876 8.23992 21.336 8.14435 21.2339C8.09162 21.1778 8.0916 21.0889 8.14763 21.0361C8.20365 20.9834 8.29265 20.9834 8.34538 21.0394C8.50687 21.2075 8.57278 21.4481 8.52664 21.7018C8.4772 21.982 8.29595 22.2259 8.05866 22.3412C7.63352 22.5455 7.05676 22.3775 6.74697 21.9589C6.36467 21.4448 6.43719 20.6439 6.90517 20.1727C7.34679 19.731 8.0949 19.6091 8.68812 19.8826C9.24509 20.1397 9.65377 20.723 9.72957 21.369C9.80207 21.9721 9.60102 22.6016 9.17917 23.0992C8.74415 23.6265 8.0916 23.9264 7.46872 23.9264Z" fill="#F1DFC1"/>
<path d="M7.16032 23.4683C6.97906 23.4683 6.7978 23.442 6.62643 23.3892C6.2639 23.2772 5.94423 23.0498 5.66739 22.7136C5.61796 22.6543 5.62785 22.5653 5.68717 22.5159C5.74649 22.4664 5.83546 22.4763 5.8849 22.5356C6.12548 22.829 6.40232 23.0234 6.70882 23.119C7.36136 23.3233 8.16222 23.0564 8.65987 22.4664C9.02569 22.0347 9.20694 21.4678 9.14432 20.9504C9.12455 20.7758 9.07511 20.6044 8.99601 20.4396C8.96306 20.3704 8.99272 20.2847 9.06523 20.2517C9.13444 20.2188 9.22013 20.2484 9.25308 20.3177C9.34207 20.5088 9.4014 20.7098 9.42447 20.9142C9.49697 21.514 9.29592 22.1468 8.87407 22.6444C8.43575 23.1684 7.7832 23.4683 7.16032 23.4683Z" fill="#F1DFC1"/>
<path d="M9.22859 10.6351C9.15938 10.6351 9.10007 10.5857 9.09018 10.5132C9.0012 9.87709 8.59253 9.07624 7.91362 8.81588C7.50167 8.66099 6.99084 8.71372 6.57558 8.9543C6.20647 9.17182 5.96917 9.51127 5.90985 9.91334C5.89996 9.98914 5.82747 10.0419 5.75167 10.032C5.67587 10.0221 5.62314 9.9496 5.63303 9.8738C5.70553 9.38604 5.98896 8.97408 6.43387 8.71372C6.91834 8.43029 7.52144 8.36768 8.01249 8.55553C8.80016 8.85543 9.26484 9.75845 9.36701 10.4736C9.37689 10.5494 9.32417 10.6219 9.24837 10.6318C9.24178 10.6351 9.23518 10.6351 9.22859 10.6351Z" fill="#F1DFC1"/>
<path d="M5.4796 24.7831C5.40051 24.7831 5.33789 24.7205 5.33789 24.6414V12.8297C5.33789 12.7506 5.40051 12.688 5.4796 12.688C5.5587 12.688 5.62131 12.7506 5.62131 12.8297V24.6414C5.61802 24.7205 5.5554 24.7831 5.4796 24.7831Z" fill="#F1DFC1"/>
<path d="M7.87276 22.1137C8.22587 22.1137 8.51212 21.8274 8.51212 21.4743C8.51212 21.1212 8.22587 20.835 7.87276 20.835C7.51965 20.835 7.2334 21.1212 7.2334 21.4743C7.2334 21.8274 7.51965 22.1137 7.87276 22.1137Z" fill="#F1DFC1"/>
<path d="M5.9792 13.4691C6.33231 13.4691 6.61856 13.1829 6.61856 12.8298C6.61856 12.4767 6.33231 12.1904 5.9792 12.1904C5.6261 12.1904 5.33984 12.4767 5.33984 12.8298C5.33984 13.1829 5.6261 13.4691 5.9792 13.4691Z" fill="#F1DFC1"/>
<path d="M7.35323 10.3417C7.70634 10.3417 7.99259 10.0555 7.99259 9.70235C7.99259 9.34924 7.70634 9.06299 7.35323 9.06299C7.00012 9.06299 6.71387 9.34924 6.71387 9.70235C6.71387 10.0555 7.00012 10.3417 7.35323 10.3417Z" fill="#F1DFC1"/>
<path d="M7.43052 48.1364C7.15368 48.1364 6.87026 48.0705 6.6066 47.942C6.14851 47.7178 5.80906 47.3356 5.67064 46.8906C5.49597 46.3271 5.64097 45.6943 6.02986 45.312C6.46489 44.8869 7.16688 44.821 7.62827 45.1604C7.86886 45.3384 8.03034 45.635 8.05671 45.9547C8.07978 46.2546 7.98421 46.538 7.79636 46.7324C7.74362 46.7885 7.65463 46.7885 7.5986 46.7357C7.54258 46.683 7.54258 46.594 7.5986 46.538C7.73043 46.4029 7.79963 46.1985 7.77986 45.981C7.76009 45.7404 7.64475 45.5196 7.46679 45.3911C7.11745 45.134 6.56048 45.1934 6.22761 45.5163C5.91123 45.8261 5.79588 46.3468 5.93759 46.8115C6.05294 47.1839 6.33965 47.5036 6.72854 47.6948C7.11743 47.8826 7.54917 47.9123 7.9117 47.7739C8.50821 47.5465 8.95972 46.9137 9.06848 46.1557C9.17724 45.3845 8.95312 44.6166 8.74549 44.0333C8.2083 42.5239 7.34484 41.11 6.24409 39.9467C6.20124 39.9005 6.19465 39.8346 6.22431 39.7786C6.25398 39.7259 6.31988 39.6962 6.3792 39.7127C6.80764 39.8148 7.23938 39.9796 7.71066 40.2202C7.13063 39.4886 6.63298 38.6844 6.28693 38.078C5.69701 37.0432 5.37733 36.005 5.34108 34.9966C5.31801 34.344 5.42017 33.7706 5.64757 33.2993C5.92441 32.7226 6.39238 32.2941 6.93287 32.126C7.68758 31.8887 8.61366 32.1952 9.18052 32.8643C9.60237 33.3619 9.80012 33.9947 9.73091 34.5945C9.65511 35.2404 9.24644 35.8238 8.68947 36.0808C8.09625 36.3544 7.34814 36.2324 6.90652 35.7908C6.43854 35.3195 6.36602 34.5187 6.74831 34.0046C7.05811 33.5893 7.63486 33.4212 8.06 33.6223C8.29729 33.7343 8.47525 33.9815 8.52798 34.2616C8.57412 34.5154 8.50821 34.756 8.34673 34.9241C8.294 34.9801 8.205 34.9801 8.14897 34.9274C8.09295 34.8746 8.09296 34.7856 8.1457 34.7296C8.24457 34.6274 8.2808 34.4759 8.25114 34.3111C8.21489 34.1166 8.09626 33.9518 7.93807 33.876C7.62827 33.7277 7.20313 33.8596 6.97244 34.1727C6.66924 34.578 6.72855 35.2174 7.10425 35.5931C7.46348 35.9556 8.07977 36.0545 8.57083 35.8271C9.04211 35.6096 9.38815 35.1119 9.45077 34.5615C9.51009 34.0441 9.32884 33.4773 8.96631 33.0455C8.47196 32.4589 7.66781 32.192 7.01526 32.393C6.55057 32.538 6.14193 32.9104 5.89805 33.4179C5.69042 33.8497 5.59813 34.377 5.6212 34.9834C5.65745 35.9457 5.96395 36.941 6.53081 37.9363C6.96913 38.7042 7.65463 39.7984 8.44229 40.6388C8.49173 40.6915 8.49173 40.7706 8.44889 40.8233C8.40605 40.876 8.32696 40.8892 8.26763 40.853C7.72714 40.5201 7.24598 40.2828 6.78788 40.1213C7.75351 41.2386 8.51811 42.5469 9.01246 43.9344C9.22997 44.5474 9.46725 45.3581 9.3486 46.1887C9.22666 47.0455 8.70266 47.7673 8.01386 48.0276C7.8293 48.1001 7.63156 48.1364 7.43052 48.1364Z" fill="#F1DFC1"/>
<path d="M9.12455 35.7313C9.10477 35.7313 9.085 35.728 9.06523 35.7181C8.99602 35.6851 8.96635 35.6028 8.99601 35.5303C9.07181 35.3655 9.12125 35.1941 9.14432 35.0194C9.20694 34.502 9.02239 33.9351 8.65987 33.5034C8.16552 32.9168 7.36136 32.6498 6.70882 32.8509C6.40232 32.9464 6.12219 33.1442 5.8849 33.4342C5.83546 33.4935 5.74649 33.5034 5.68717 33.454C5.62785 33.4045 5.61796 33.3156 5.66739 33.2562C5.94094 32.9201 6.2639 32.6927 6.62643 32.5806C7.38443 32.3433 8.30722 32.6498 8.87407 33.3189C9.28933 33.8099 9.49367 34.4559 9.42447 35.0491C9.4014 35.2534 9.34207 35.4544 9.25308 35.6456C9.22672 35.7016 9.17728 35.7313 9.12455 35.7313Z" fill="#F1DFC1"/>
<path d="M7.40938 47.5237C7.07322 47.5237 6.73048 47.4348 6.43387 47.2601C5.98896 46.9997 5.70224 46.5878 5.63303 46.1C5.62314 46.0242 5.67587 45.9517 5.75167 45.9418C5.82747 45.9286 5.89996 45.9847 5.90985 46.0605C5.96917 46.4625 6.20647 46.802 6.57558 47.0195C6.98754 47.2601 7.50167 47.3128 7.91362 47.1579C8.59253 46.8976 9.0012 46.0967 9.09018 45.4607C9.10007 45.3849 9.17586 45.3321 9.24837 45.342C9.32417 45.3519 9.37689 45.4244 9.36701 45.5002C9.26484 46.2154 8.80016 47.1184 8.01249 47.4183C7.82464 47.4908 7.617 47.5237 7.40938 47.5237Z" fill="#F1DFC1"/>
<path d="M5.4796 43.282C5.40051 43.282 5.33789 43.2194 5.33789 43.1403V31.3253C5.33789 31.2462 5.40051 31.1836 5.4796 31.1836C5.5587 31.1836 5.62131 31.2462 5.62131 31.3253V43.1403C5.61802 43.2194 5.5554 43.282 5.4796 43.282Z" fill="#F1DFC1"/>
<path d="M7.87276 35.1386C8.22587 35.1386 8.51212 34.8523 8.51212 34.4992C8.51212 34.1461 8.22587 33.8599 7.87276 33.8599C7.51965 33.8599 7.2334 34.1461 7.2334 34.4992C7.2334 34.8523 7.51965 35.1386 7.87276 35.1386Z" fill="#F1DFC1"/>
<path d="M5.9792 43.7831C6.33231 43.7831 6.61856 43.4969 6.61856 43.1438C6.61856 42.7906 6.33231 42.5044 5.9792 42.5044C5.6261 42.5044 5.33984 42.7906 5.33984 43.1438C5.33984 43.4969 5.6261 43.7831 5.9792 43.7831Z" fill="#F1DFC1"/>
<path d="M7.35323 46.9106C7.70634 46.9106 7.99259 46.6243 7.99259 46.2712C7.99259 45.9181 7.70634 45.6318 7.35323 45.6318C7.00012 45.6318 6.71387 45.9181 6.71387 46.2712C6.71387 46.6243 7.00012 46.9106 7.35323 46.9106Z" fill="#F1DFC1"/>
<path d="M52.1224 51.7881H4.79991C4.72082 51.7881 4.6582 51.7254 4.6582 51.6464V4.32384C4.6582 4.24475 4.72082 4.18213 4.79991 4.18213H52.1224C52.2015 4.18213 52.2641 4.24475 52.2641 4.32384V51.6464C52.2641 51.7254 52.2015 51.7881 52.1224 51.7881ZM4.93833 51.5079H51.9807V4.46556H4.93833V51.5079Z" fill="#F1DFC1"/>
<path d="M28.2961 29.7697C28.2632 29.7993 28.2269 29.8257 28.1939 29.8553C28.1247 29.9114 28.0489 29.9674 27.9764 30.0201L26.4736 33.7673H24.9708L23.2603 29.8652C23.1812 29.8026 23.1054 29.7367 23.0296 29.6675L22.9967 29.6938C21.3324 31.1341 20.8907 33.3553 20.7754 34.5253H30.5075C30.1878 31.1077 28.7641 29.9344 28.395 29.684C28.362 29.7136 28.3291 29.7433 28.2961 29.7697Z" fill="#E9A39B"/>
<path d="M22.0312 26.7674C22.0312 28.8009 23.6857 30.4553 25.7191 30.4553C27.7525 30.4553 29.4069 28.8009 29.4069 26.7674C29.4069 24.734 27.7525 23.0796 25.7191 23.0796C23.6857 23.0796 22.0312 24.734 22.0312 26.7674Z" fill="#E9A39B"/>
<path d="M36.3674 31.5525L36.3773 31.48C36.0576 30.6989 35.8961 29.7729 35.7412 28.8764C35.6456 28.3261 35.5566 27.7955 35.4314 27.3176C35.3919 27.11 35.3259 26.9122 35.2435 26.7244C35.1546 26.4904 35.0491 26.2795 34.9206 26.0982C34.7822 25.9038 34.4064 25.3731 33.5562 25.1985C33.2826 25.1095 32.9893 25.0601 32.6861 25.0601C32.0764 25.0601 31.5425 25.2611 31.1042 25.5973C30.6889 25.8576 30.3791 26.2564 30.1484 26.8298C30.0001 27.1528 29.8914 27.5054 29.8255 27.868C29.809 27.9701 29.7958 28.0657 29.7925 28.1613C29.7727 28.2799 29.753 28.4052 29.7332 28.5337C29.6475 29.1368 29.7101 29.9212 29.8255 30.666C30.3132 31.4471 30.801 32.6698 30.9724 34.5252H36.5354C36.4959 34.0144 36.3674 33.141 35.9719 32.271C36.1565 32.1787 36.2718 32.1029 36.285 32.093L36.3179 32.0271L36.2784 31.9678C36.2718 31.9645 35.6555 31.6448 35.4907 31.2131C35.7082 31.4273 35.962 31.513 36.3015 31.5756L36.3674 31.5525Z" fill="#E9A39B"/>
<path d="M27.3834 20.7856H31.9578C32.4949 20.7856 32.93 20.3506 32.93 19.8134V14.5074C32.93 13.9702 32.4949 13.5352 31.9578 13.5352H22.107C21.5698 13.5352 21.1348 13.9702 21.1348 14.5074V19.8134C21.1348 20.3506 21.5698 20.7856 22.107 20.7856H26.0651L25.9333 22.4532L27.3834 20.7856Z" fill="#E9A39B"/>
<path d="M36.2183 22.473V18.8411C36.2183 18.505 35.9447 18.2314 35.6086 18.2314H33.3675V20.1462C33.3675 20.723 32.8962 21.1943 32.3195 21.1943H29.3633V22.4697C29.3633 22.8058 29.6368 23.0794 29.973 23.0794H32.9786L33.8849 24.1208L33.8025 23.0794H35.6086C35.9447 23.0827 36.2183 22.8091 36.2183 22.473Z" fill="#E9A39B"/>
<path d="M24.9678 33.7641H26.4706L26.0982 31.3154H26.085L26.4508 30.6431H24.9875L25.3534 31.3154H25.3402L24.9678 33.7641Z" fill="#E9A39B"/>
<path d="M44.0836 41.5313C43.7197 41.5313 43.6604 41.3612 43.6723 41.2386C43.6841 41.0923 43.8305 40.946 44.0915 40.8234L44.1192 40.8471C44.0677 40.9183 44.0203 41.0053 44.0203 41.1121C44.0203 41.2624 44.1033 41.4008 44.3327 41.4048C44.5305 41.4087 44.6887 41.2584 44.6887 41.037C44.6887 40.7364 44.3604 40.424 44.3604 40.1432C44.3604 39.7912 44.8152 39.4985 45.2819 39.4985C45.4203 39.4985 45.6497 39.5341 45.6497 39.6093C45.6497 39.716 45.5508 39.8861 45.3689 39.8861C45.2384 39.8861 45.0327 39.7754 44.8073 39.6567C44.7203 39.7042 44.6926 39.7912 44.6926 39.8742C44.6926 40.1946 45.0446 40.5149 45.0248 40.8511C45.005 41.211 44.4711 41.5313 44.0836 41.5313Z" fill="#A98B83"/>
<path d="M41.4597 41.5037C41.4004 41.5037 41.3766 41.4641 41.4122 41.4048C41.6732 40.9619 42.1953 40.0167 42.1953 39.8268C42.1953 39.7636 42.1676 39.728 42.0964 39.728C42.0213 39.728 41.8829 39.811 41.7207 39.9613L41.6851 39.9217C42.0134 39.6172 42.2427 39.4946 42.3891 39.4946C42.5473 39.4946 42.6026 39.6054 42.6026 39.7003C42.6026 39.8703 42.4128 40.2895 42.2111 40.6811C42.4049 40.4319 42.6026 40.2144 42.7885 40.0325C43.1365 39.6963 43.4529 39.4946 43.6467 39.4946C43.7732 39.4946 43.8563 39.5975 43.8563 39.724C43.8603 40.0958 43.1998 40.9381 43.1998 41.1675C43.1998 41.2387 43.2354 41.2822 43.3105 41.2822C43.3896 41.2822 43.5162 41.1952 43.6506 41.0686L43.6862 41.1082C43.358 41.4127 43.1405 41.5353 43.0179 41.5353C42.8281 41.5353 42.7766 41.385 42.7766 41.2862C42.7766 40.8432 43.441 40.0958 43.441 39.8387C43.441 39.7754 43.4134 39.728 43.3422 39.728C43.2196 39.728 43.0495 39.8624 42.8241 40.072C42.567 40.3172 42.2704 40.6653 42.0331 41.0133C41.9264 41.211 41.8314 41.3692 41.78 41.4483C41.7563 41.4878 41.7286 41.5037 41.6851 41.5037H41.4597Z" fill="#A98B83"/>
<path d="M40.0534 41.5353C39.7647 41.5353 39.5986 41.3178 39.5986 41.0449C39.5986 40.3489 40.5201 39.4946 41.0619 39.4946C41.406 39.4946 41.4732 39.7794 41.4732 39.9494C41.4732 40.8234 40.441 41.5353 40.0534 41.5353ZM39.9941 40.8749C39.9941 41.0726 40.0495 41.3415 40.3382 41.3415C40.7969 41.3415 41.0777 40.5268 41.0777 40.0958C41.0777 39.8189 40.9512 39.6963 40.7455 39.6963C40.2986 39.6963 39.9941 40.3765 39.9941 40.8749Z" fill="#A98B83"/>
<path d="M38.6376 41.5351C38.4715 41.5351 38.4043 41.3888 38.4043 41.2702C38.4043 40.8747 39.1241 40.0284 39.1241 39.8148C39.1241 39.7673 39.1083 39.7278 39.0371 39.7278C38.9619 39.7278 38.8235 39.8108 38.6614 39.9611L38.6258 39.9216C38.954 39.6171 39.1834 39.4945 39.3297 39.4945C39.4879 39.4945 39.5433 39.6052 39.5433 39.7001C39.5433 40.064 38.867 40.847 38.867 41.0922C38.867 41.1792 38.9145 41.2227 38.9975 41.2227C39.0687 41.2227 39.1557 41.195 39.2902 41.0685L39.3258 41.108C38.9975 41.4125 38.784 41.5351 38.6376 41.5351ZM39.48 39.2255L40.1523 38.5809C40.2077 38.5295 40.2631 38.4741 40.2986 38.4741C40.3263 38.4741 40.3342 38.5018 40.3342 38.5374C40.3342 38.6244 40.3145 38.6481 40.2156 38.7233L39.5037 39.2572L39.48 39.2255Z" fill="#A98B83"/>
<path d="M35.9587 41.5037C35.8994 41.5037 35.8757 41.4641 35.9113 41.4048C36.1723 40.9619 36.6943 40.0167 36.6943 39.8268C36.6943 39.7636 36.6666 39.728 36.5954 39.728C36.5203 39.728 36.3819 39.811 36.2197 39.9613L36.1841 39.9217C36.5124 39.6172 36.7418 39.4946 36.8881 39.4946C37.0463 39.4946 37.1017 39.6054 37.1017 39.7003C37.1017 39.8703 36.9118 40.2895 36.7101 40.6811C36.9039 40.4319 37.1017 40.2144 37.2875 40.0325C37.6355 39.6963 37.9519 39.4946 38.1457 39.4946C38.2723 39.4946 38.3553 39.5975 38.3553 39.724C38.3593 40.0958 37.6988 40.9381 37.6988 41.1675C37.6988 41.2387 37.7344 41.2822 37.8096 41.2822C37.8887 41.2822 38.0152 41.1952 38.1497 41.0686L38.1853 41.1082C37.857 41.4127 37.6395 41.5353 37.5169 41.5353C37.3271 41.5353 37.2757 41.385 37.2757 41.2862C37.2757 40.8432 37.9401 40.0958 37.9401 39.8387C37.9401 39.7754 37.9124 39.728 37.8412 39.728C37.7186 39.728 37.5485 39.8624 37.3231 40.072C37.0661 40.3172 36.7694 40.6653 36.5322 41.0133C36.4254 41.211 36.3305 41.3692 36.2791 41.4483C36.2553 41.4878 36.2276 41.5037 36.1841 41.5037H35.9587Z" fill="#A98B83"/>
<path d="M35.0888 41.5351C34.9227 41.5351 34.8555 41.3888 34.8555 41.2702C34.8555 40.8747 35.5752 40.0284 35.5752 39.8148C35.5752 39.7673 35.5594 39.7278 35.4882 39.7278C35.4131 39.7278 35.2747 39.8108 35.1125 39.9611L35.0769 39.9216C35.4052 39.6171 35.6346 39.4945 35.7809 39.4945C35.9391 39.4945 35.9944 39.6052 35.9944 39.7001C35.9944 40.064 35.3182 40.847 35.3182 41.0922C35.3182 41.1792 35.3656 41.2227 35.4487 41.2227C35.5199 41.2227 35.6069 41.195 35.7413 41.0685L35.7769 41.108C35.4487 41.4125 35.2351 41.5351 35.0888 41.5351ZM35.9312 39.2255L36.6035 38.5809C36.6589 38.5295 36.7142 38.4741 36.7498 38.4741C36.7775 38.4741 36.7854 38.5018 36.7854 38.5374C36.7854 38.6244 36.7656 38.6481 36.6668 38.7233L35.9549 39.2572L35.9312 39.2255Z" fill="#A98B83"/>
<path d="M31.9305 42.5715C31.8711 42.5715 31.8435 42.5319 31.8711 42.4766L32.8954 40.5268C33.109 40.1155 33.1604 39.9336 33.1604 39.8308C33.1604 39.7754 33.1446 39.7319 33.0774 39.7319C33.0062 39.7319 32.8757 39.811 32.7135 39.9929L32.6779 39.9573C32.9903 39.6251 33.1841 39.4946 33.3305 39.4946C33.4768 39.4946 33.5559 39.6054 33.5559 39.7319C33.5559 39.8347 33.5005 40.072 33.2395 40.5862L33.1762 40.7088C33.6943 40.1037 34.2163 39.4946 34.5881 39.4986C34.7384 39.4986 34.8412 39.6528 34.8412 39.8268C34.8412 40.5466 33.9316 41.5314 33.2355 41.5314C33.0536 41.5314 32.935 41.4167 32.8717 41.3059L32.2587 42.5161C32.2389 42.5556 32.2112 42.5715 32.1677 42.5715H31.9305ZM33.0615 40.9342C33.1525 41.1675 33.3502 41.3494 33.5519 41.3494C34.0779 41.3494 34.4536 40.4675 34.4536 39.9929C34.4536 39.811 34.4062 39.7319 34.3152 39.7319C34.1016 39.7319 33.548 40.3212 33.0734 40.9184L33.0615 40.9342Z" fill="#A98B83"/>
<path d="M30.6182 41.5352C29.7838 41.5352 29.3408 40.9262 29.3408 40.2025C29.3408 39.2138 30.3691 38.3081 31.2589 38.3081C32.0499 38.3081 32.4928 38.8895 32.4809 39.6448C32.4651 40.6375 31.5041 41.5352 30.6182 41.5352ZM29.6809 39.9217C29.6809 40.7759 30.1792 41.3058 30.9583 41.3058C31.7216 41.3058 32.1408 40.6296 32.1408 39.9731C32.1487 39.0239 31.5753 38.5098 30.9504 38.5098C30.1871 38.5098 29.6809 39.2217 29.6809 39.9217Z" fill="#A98B83"/>
<path d="M26.9688 41.5313C26.6128 41.5353 26.4902 41.2545 26.4902 41.0647C26.4902 40.3726 27.3919 39.4946 28.0405 39.4985C28.2462 39.4985 28.345 39.6014 28.345 39.7437C28.345 40.0166 28.0563 40.2539 26.9055 40.9776C26.9411 41.1635 27.0795 41.2703 27.2772 41.2703C27.4354 41.2703 27.5936 41.2228 27.827 41.0211L27.8626 41.0567C27.5303 41.3494 27.1744 41.5313 26.9688 41.5313ZM26.8976 40.9025V40.9183C27.7479 40.3844 27.9456 40.1432 27.9456 39.8861C27.9456 39.7635 27.8665 39.6647 27.7123 39.6647C27.2931 39.6647 26.8778 40.3805 26.8976 40.9025Z" fill="#A98B83"/>
<path d="M24.0837 42.6031C23.708 42.5991 23.6447 42.4291 23.6566 42.3065C23.6684 42.1602 23.8306 41.9743 24.0916 41.8517L24.1193 41.8754C24.0679 41.9466 24.0204 42.0336 24.0204 42.1404C24.0204 42.2907 24.1074 42.441 24.4238 42.441C24.5939 42.441 24.7797 42.346 24.8628 42.2788C25.2069 42.002 25.373 41.3138 25.9108 40.3172L25.982 40.1867C25.3453 40.9737 24.8114 41.5472 24.5425 41.5353C24.3684 41.5274 24.2854 41.3811 24.2893 41.1715C24.3012 40.424 25.1317 39.4946 25.9504 39.4946C26.0888 39.4946 26.4012 39.5223 26.595 39.5816L26.591 39.5856L26.599 39.5816L26.6148 39.5856C26.6662 39.5975 26.6741 39.641 26.6504 39.6884L26.0967 40.7443C25.6261 41.646 25.2583 42.0415 24.8984 42.3223C24.6809 42.4924 24.3724 42.6031 24.0837 42.6031ZM24.6848 41.0607C24.6848 41.1359 24.6888 41.2822 24.7995 41.2822C24.9775 41.2822 25.4402 40.7918 26.1323 39.9059L26.1956 39.7912C25.9939 39.7201 25.7289 39.6568 25.5905 39.6568C25.0329 39.6568 24.6848 40.6653 24.6848 41.0607Z" fill="#A98B83"/>
<path d="M21.7888 41.5037C21.7295 41.5037 21.7057 41.4641 21.7413 41.4048C22.0023 40.9619 22.5244 40.0167 22.5244 39.8268C22.5244 39.7636 22.4967 39.728 22.4255 39.728C22.3504 39.728 22.212 39.811 22.0498 39.9613L22.0142 39.9217C22.3425 39.6172 22.5718 39.4946 22.7182 39.4946C22.8764 39.4946 22.9317 39.6054 22.9317 39.7003C22.9317 39.8703 22.7419 40.2895 22.5402 40.6811C22.734 40.4319 22.9317 40.2144 23.1176 40.0325C23.4656 39.6963 23.782 39.4946 23.9758 39.4946C24.1023 39.4946 24.1854 39.5975 24.1854 39.724C24.1894 40.0958 23.5289 40.9381 23.5289 41.1675C23.5289 41.2387 23.5645 41.2822 23.6396 41.2822C23.7187 41.2822 23.8453 41.1952 23.9798 41.0686L24.0153 41.1082C23.6871 41.4127 23.4696 41.5353 23.347 41.5353C23.1572 41.5353 23.1057 41.385 23.1057 41.2862C23.1057 40.8432 23.7701 40.0958 23.7701 39.8387C23.7701 39.7754 23.7425 39.728 23.6713 39.728C23.5487 39.728 23.3786 39.8624 23.1532 40.072C22.8961 40.3172 22.5995 40.6653 22.3622 41.0133C22.2555 41.211 22.1605 41.3692 22.1091 41.4483C22.0854 41.4878 22.0577 41.5037 22.0142 41.5037H21.7888Z" fill="#A98B83"/>
<path d="M20.9715 41.5353C20.7817 41.5353 20.7303 41.385 20.7303 41.2862C20.7303 41.0093 20.9122 40.6415 21.106 40.3093C20.5088 41.033 19.9907 41.5472 19.7376 41.5353C19.5636 41.5274 19.4806 41.3811 19.4845 41.1715C19.4964 40.424 20.3269 39.4946 21.1455 39.4946C21.2839 39.4946 21.5647 39.5223 21.7585 39.5816L21.8258 39.6014C21.8811 39.6172 21.8969 39.6528 21.8653 39.7003C21.7269 39.9059 21.5212 40.2381 21.3828 40.5071C21.2523 40.772 21.1534 40.9816 21.1534 41.1675C21.1534 41.2387 21.1851 41.2822 21.2563 41.2822C21.3393 41.2822 21.4698 41.1952 21.6043 41.0686L21.6399 41.1082C21.3116 41.4127 21.0941 41.5353 20.9715 41.5353ZM19.88 41.0607C19.88 41.1359 19.8839 41.2822 19.9947 41.2822C20.1726 41.2822 20.671 40.7878 21.367 39.8941L21.4184 39.815C21.2207 39.7359 20.9399 39.6568 20.7856 39.6568C20.228 39.6568 19.88 40.6653 19.88 41.0607Z" fill="#A98B83"/>
<path d="M17.021 41.5035C16.9617 41.5035 16.9379 41.46 16.9656 41.4086L17.9306 39.629C18.2865 38.9725 19.1645 38.312 19.9871 38.312C20.1769 38.312 20.3114 38.3357 20.3114 38.399C20.3114 38.5098 20.1453 38.7075 19.9001 38.7075C19.7379 38.7075 19.556 38.6521 19.1882 38.5533C18.8876 38.6838 18.7097 38.8894 18.4447 39.3996L17.7684 40.6928C17.9662 40.4357 18.1639 40.2143 18.3537 40.0324C18.7018 39.6962 19.0182 39.4945 19.2119 39.4945C19.3385 39.4945 19.4215 39.5973 19.4215 39.7239C19.4255 40.0956 18.765 40.938 18.765 41.1674C18.765 41.2386 18.8006 41.2821 18.8758 41.2821C18.9549 41.2821 19.0814 41.1951 19.2159 41.0685L19.2515 41.1081C18.9232 41.4126 18.7057 41.5352 18.5831 41.5352C18.3933 41.5352 18.3419 41.3849 18.3419 41.286C18.3419 40.8431 19.0063 40.0956 19.0063 39.8386C19.0063 39.7753 18.9786 39.7278 18.9074 39.7278C18.7848 39.7278 18.6148 39.8623 18.3893 40.0719C18.1362 40.3131 17.8396 40.6572 17.6063 41.0052L17.3769 41.4442C17.3571 41.4838 17.3295 41.5035 17.286 41.5035H17.021Z" fill="#A98B83"/>
<path d="M15.958 41.5313C15.6021 41.5353 15.4795 41.2545 15.4795 41.0646C15.4795 40.3488 16.306 39.4985 17.0733 39.4985C17.2117 39.4985 17.4411 39.5262 17.4411 39.6014C17.4411 39.7516 17.2829 39.8861 17.1603 39.8861C17.0298 39.8861 16.8162 39.807 16.5275 39.6923C16.2151 39.7991 15.8789 40.4042 15.8987 40.9025C15.9066 41.1319 16.0411 41.2703 16.2665 41.2703C16.4247 41.2703 16.5829 41.2228 16.8162 41.0211L16.8518 41.0567C16.5196 41.3494 16.1637 41.5313 15.958 41.5313Z" fill="#A98B83"/>
<path d="M14.5166 41.5349C14.394 41.5349 14.3426 41.4242 14.3386 41.3451L14.2951 40.7321L13.4963 41.6021C13.4014 41.7089 13.3658 41.7445 13.3302 41.7445C13.2629 41.7445 13.2432 41.6694 13.2432 41.6061C13.2432 41.5231 13.2629 41.4479 13.3776 41.3609L14.2912 40.6767L14.2358 39.8976C14.2279 39.775 14.1884 39.7315 14.1369 39.7315C14.0618 39.7315 13.9511 39.8106 13.7692 39.9925L13.7336 39.9569C14.0658 39.6247 14.2635 39.4942 14.3703 39.4942C14.4929 39.4942 14.5443 39.605 14.5482 39.6841L14.5997 40.3682L15.2206 39.6287C15.3115 39.518 15.3511 39.4863 15.3867 39.4863C15.4539 39.4863 15.4737 39.5615 15.4737 39.6247C15.4737 39.7078 15.4539 39.7829 15.3392 39.8699L14.6036 40.4355L14.655 41.1315C14.6629 41.2541 14.6985 41.2976 14.7499 41.2976C14.8251 41.2976 14.9358 41.2185 15.1177 41.0366L15.1533 41.0722C14.8211 41.4044 14.6234 41.5349 14.5166 41.5349Z" fill="#A98B83"/>
<path d="M10.5583 41.5037C10.5069 41.5037 10.5029 41.4918 10.5029 41.4641C10.5029 41.4285 10.7165 41.2427 10.7837 41.1952C10.8865 41.1082 10.9696 40.9619 11.0368 40.8432C11.2425 40.4833 11.373 40.1867 11.5154 39.8783H11.1911V39.815H11.547C11.638 39.6212 11.7368 39.4195 11.8673 39.1941C11.9702 39.0122 12.069 38.8777 12.2945 38.7828L12.5199 38.6879H11.543C11.4046 38.6879 11.3532 38.7393 11.2623 38.8461L11.2267 38.8263C11.369 38.6285 11.4521 38.4822 11.547 38.3992C11.6063 38.3517 11.6854 38.3398 11.7447 38.3398H13.8922C14.0504 38.3398 14.1137 38.3913 14.1137 38.4783C14.1176 38.6246 13.9317 38.8105 13.6312 39.0359L13.5995 38.9884C13.7221 38.9054 13.8012 38.8263 13.8012 38.767C13.8012 38.6879 13.7261 38.6879 13.5877 38.6879H12.6346C12.4882 38.7946 12.4131 38.9291 12.3261 39.0754C12.1679 39.3483 12.0572 39.5817 11.9543 39.815H13.2515V39.8783H11.9227C11.812 40.1314 11.6973 40.3845 11.5272 40.685C11.4244 40.867 11.3216 40.9777 11.1357 41.0766L10.9854 41.1557H12.7928C12.9312 41.1557 12.9826 41.1043 13.0736 40.9975L13.1091 41.0172C12.9668 41.215 12.8837 41.3613 12.7888 41.4444C12.7295 41.4918 12.6504 41.5037 12.5911 41.5037H10.5583Z" fill="#A98B83"/>
</svg>
