<svg width="57" height="56" viewBox="0 0 57 56" fill="none" xmlns="http://www.w3.org/2000/svg">
<path d="M0.5 46.7491C0.565913 46.7359 0.635121 46.7293 0.70433 46.7293C1.24482 46.7293 1.68643 47.1182 1.68643 47.5961C1.68643 48.0739 1.24812 48.4628 0.70433 48.4628C0.635121 48.4628 0.565913 48.4562 0.5 48.443V49.7646C0.565913 49.7514 0.635121 49.7448 0.70433 49.7448C1.24482 49.7448 1.68643 50.1337 1.68643 50.6116C1.68643 51.0895 1.24812 51.4784 0.70433 51.4784C0.635121 51.4784 0.565913 51.4718 0.5 51.4586V52.7801C0.565913 52.767 0.635121 52.7604 0.70433 52.7604C1.24482 52.7604 1.68643 53.1493 1.68643 53.6271C1.68643 54.105 1.24812 54.4939 0.70433 54.4939C0.635121 54.4939 0.565913 54.4873 0.5 54.4741V55.9802H3.12994C3.09698 55.8946 3.07722 55.8056 3.07722 55.71C3.07722 55.2321 3.51553 54.8432 4.05932 54.8432C4.6031 54.8432 5.04142 55.2321 5.04142 55.71C5.04142 55.8056 5.01836 55.8946 4.9887 55.9802H6.65961C6.62665 55.8946 6.60686 55.8056 6.60686 55.71C6.60686 55.2321 7.0452 54.8432 7.58899 54.8432C8.13277 54.8432 8.57109 55.2321 8.57109 55.71C8.57109 55.8056 8.54803 55.8946 8.51837 55.9802H10.1893C10.1563 55.8946 10.1365 55.8056 10.1365 55.71C10.1365 55.2321 10.5749 54.8432 11.1186 54.8432C11.6591 54.8432 12.1008 55.2321 12.1008 55.71C12.1008 55.8056 12.0777 55.8946 12.048 55.9802H13.7189C13.686 55.8946 13.6662 55.8056 13.6662 55.71C13.6662 55.2321 14.1045 54.8432 14.6483 54.8432C15.1888 54.8432 15.6304 55.2321 15.6304 55.71C15.6304 55.8056 15.6073 55.8946 15.5777 55.9802H17.2486C17.2156 55.8946 17.1959 55.8056 17.1959 55.71C17.1959 55.2321 17.6342 54.8432 18.178 54.8432C18.7185 54.8432 19.1601 55.2321 19.1601 55.71C19.1601 55.8056 19.137 55.8946 19.1073 55.9802H20.7782C20.7453 55.8946 20.7255 55.8056 20.7255 55.71C20.7255 55.2321 21.1638 54.8432 21.7076 54.8432C22.2481 54.8432 22.6897 55.2321 22.6897 55.71C22.6897 55.8056 22.6667 55.8946 22.637 55.9802H24.3079C24.275 55.8946 24.2552 55.8056 24.2552 55.71C24.2552 55.2321 24.6935 54.8432 25.2373 54.8432C25.7778 54.8432 26.2194 55.2321 26.2194 55.71C26.2194 55.8056 26.1963 55.8946 26.1667 55.9802H27.8376C27.8046 55.8946 27.7848 55.8056 27.7848 55.71C27.7848 55.2321 28.2232 54.8432 28.7669 54.8432C29.3107 54.8432 29.7491 55.2321 29.7491 55.71C29.7491 55.8056 29.726 55.8946 29.6963 55.9802H31.3672C31.3343 55.8946 31.3145 55.8056 31.3145 55.71C31.3145 55.2321 31.7528 54.8432 32.2966 54.8432C32.8371 54.8432 33.2787 55.2321 33.2787 55.71C33.2787 55.8056 33.2556 55.8946 33.226 55.9802H34.8969C34.8639 55.8946 34.8442 55.8056 34.8442 55.71C34.8442 55.2321 35.2825 54.8432 35.8263 54.8432C36.3668 54.8432 36.8084 55.2321 36.8084 55.71C36.8084 55.8056 36.7853 55.8946 36.7557 55.9802H38.4266C38.3936 55.8946 38.3738 55.8056 38.3738 55.71C38.3738 55.2321 38.8121 54.8432 39.3559 54.8432C39.8964 54.8432 40.338 55.2321 40.338 55.71C40.338 55.8056 40.315 55.8946 40.2853 55.9802H41.9562C41.9233 55.8946 41.9035 55.8056 41.9035 55.71C41.9035 55.2321 42.3418 54.8432 42.8856 54.8432C43.4294 54.8432 43.8677 55.2321 43.8677 55.71C43.8677 55.8056 43.8446 55.8946 43.815 55.9802H45.4859C45.4529 55.8946 45.4331 55.8056 45.4331 55.71C45.4331 55.2321 45.8715 54.8432 46.4153 54.8432C46.9558 54.8432 47.3974 55.2321 47.3974 55.71C47.3974 55.8056 47.3743 55.8946 47.3446 55.9802H49.0155C48.9826 55.8946 48.9628 55.8056 48.9628 55.71C48.9628 55.2321 49.4011 54.8432 49.9449 54.8432C50.4854 54.8432 50.927 55.2321 50.927 55.71C50.927 55.8056 50.904 55.8946 50.8743 55.9802H52.5452C52.5122 55.8946 52.4925 55.8056 52.4925 55.71C52.4925 55.2321 52.9308 54.8432 53.4746 54.8432C54.0151 54.8432 54.4567 55.2321 54.4567 55.71C54.4567 55.8056 54.4336 55.8946 54.404 55.9802H56.5V54.4939C55.9595 54.4939 55.5179 54.105 55.5179 53.6271C55.5179 53.1493 55.9562 52.7604 56.5 52.7604V51.4784C55.9595 51.4784 55.5179 51.0895 55.5179 50.6116C55.5179 50.1337 55.9562 49.7448 56.5 49.7448V48.4628C55.9595 48.4628 55.5179 48.0739 55.5179 47.5961C55.5179 47.1182 55.9562 46.7293 56.5 46.7293V46.7194V45.4374C55.9595 45.4374 55.5179 45.0485 55.5179 44.5706C55.5179 44.0928 55.9562 43.7039 56.5 43.7039V42.4219C55.9595 42.4219 55.5179 42.033 55.5179 41.5551C55.5179 41.0772 55.9562 40.6883 56.5 40.6883V39.4063C55.9595 39.4063 55.5179 39.0174 55.5179 38.5396C55.5179 38.0617 55.9562 37.6728 56.5 37.6728V36.3908C55.9595 36.3908 55.5179 36.0019 55.5179 35.524C55.5179 35.0461 55.9562 34.6573 56.5 34.6573V33.3752C55.9595 33.3752 55.5179 32.9864 55.5179 32.5085C55.5179 32.0306 55.9562 31.6417 56.5 31.6417V30.3597C55.9595 30.3597 55.5179 29.9708 55.5179 29.4929C55.5179 29.0151 55.9562 28.6262 56.5 28.6262V27.3442C55.9595 27.3442 55.5179 26.9553 55.5179 26.4774C55.5179 25.9995 55.9562 25.6106 56.5 25.6106V24.3286C55.9595 24.3286 55.5179 23.9397 55.5179 23.4619C55.5179 22.984 55.9562 22.5951 56.5 22.5951V21.3131C55.9595 21.3131 55.5179 20.9242 55.5179 20.4463C55.5179 19.9685 55.9562 19.5796 56.5 19.5796V18.2976C55.9595 18.2976 55.5179 17.9087 55.5179 17.4308C55.5179 16.9529 55.9562 16.564 56.5 16.564V15.282C55.9595 15.282 55.5179 14.8931 55.5179 14.4153C55.5179 13.9374 55.9562 13.5485 56.5 13.5485V12.2665C55.9595 12.2665 55.5179 11.8776 55.5179 11.3997C55.5179 10.9218 55.9562 10.533 56.5 10.533V9.25094C55.9595 9.25094 55.5179 8.86205 55.5179 8.38418C55.5179 7.90631 55.9562 7.51742 56.5 7.51742V6.23541C55.9595 6.23541 55.5179 5.84652 55.5179 5.36865C55.5179 4.89077 55.9562 4.50189 56.5 4.50189V3.21987C55.9595 3.21987 55.5179 2.83098 55.5179 2.35311C55.5179 1.87524 55.9562 1.48635 56.5 1.48635V0H54.4567C54.4567 0.477872 54.0184 0.866763 53.4746 0.866763C52.9341 0.866763 52.4925 0.477872 52.4925 0H50.9303C50.9303 0.477872 50.492 0.866763 49.9482 0.866763C49.4077 0.866763 48.9661 0.477872 48.9661 0H47.404C47.404 0.477872 46.9656 0.866763 46.4218 0.866763C45.8814 0.866763 45.4397 0.477872 45.4397 0H43.8776C43.8776 0.477872 43.4393 0.866763 42.8955 0.866763C42.3517 0.866763 41.9134 0.477872 41.9134 0H40.3512C40.3512 0.477872 39.9129 0.866763 39.3691 0.866763C38.8286 0.866763 38.387 0.477872 38.387 0H36.8249C36.8249 0.477872 36.3865 0.866763 35.8428 0.866763C35.3023 0.866763 34.8606 0.477872 34.8606 0H33.2985C33.2985 0.477872 32.8602 0.866763 32.3164 0.866763C31.7759 0.866763 31.3343 0.477872 31.3343 0H29.7721C29.7721 0.477872 29.3338 0.866763 28.79 0.866763C28.2462 0.866763 27.8079 0.477872 27.8079 0H26.2458C26.2458 0.477872 25.8074 0.866763 25.2637 0.866763C24.7232 0.866763 24.2815 0.477872 24.2815 0H22.7194C22.7194 0.477872 22.2811 0.866763 21.7373 0.866763C21.1968 0.866763 20.7552 0.477872 20.7552 0H19.193C19.193 0.477872 18.7547 0.866763 18.2109 0.866763C17.6704 0.866763 17.2288 0.477872 17.2288 0H15.6667C15.6667 0.477872 15.2283 0.866763 14.6846 0.866763C14.1441 0.866763 13.7024 0.477872 13.7024 0H12.1403C12.1403 0.477872 11.702 0.866763 11.1582 0.866763C10.6177 0.866763 10.1761 0.477872 10.1761 0H8.61394C8.61394 0.477872 8.17562 0.866763 7.63183 0.866763C7.08805 0.866763 6.64971 0.477872 6.64971 0H5.08757C5.08757 0.477872 4.64925 0.866763 4.10546 0.866763C3.56168 0.866763 3.12334 0.477872 3.12334 0H0.549423V1.50612C0.615336 1.49294 0.684544 1.48635 0.753753 1.48635C1.29424 1.48635 1.73588 1.87524 1.73588 2.35311C1.73588 2.83098 1.29754 3.21987 0.753753 3.21987C0.684544 3.21987 0.615336 3.21328 0.549423 3.2001V4.52166C0.615336 4.50848 0.684544 4.50189 0.753753 4.50189C1.29424 4.50189 1.73588 4.89077 1.73588 5.36865C1.73588 5.84652 1.29754 6.23541 0.753753 6.23541C0.684544 6.23541 0.615336 6.22881 0.549423 6.21563V7.5372C0.615336 7.52401 0.684544 7.51742 0.753753 7.51742C1.29424 7.51742 1.73588 7.90631 1.73588 8.38418C1.73588 8.86205 1.29754 9.25094 0.753753 9.25094C0.684544 9.25094 0.615336 9.24435 0.549423 9.23117V10.5527C0.615336 10.5396 0.684544 10.533 0.753753 10.533C1.29424 10.533 1.73588 10.9218 1.73588 11.3997C1.73588 11.8776 1.29754 12.2665 0.753753 12.2665C0.684544 12.2665 0.615336 12.2599 0.549423 12.2467V13.5683C0.615336 13.5551 0.684544 13.5485 0.753753 13.5485C1.29424 13.5485 1.73588 13.9374 1.73588 14.4153C1.73588 14.8931 1.29754 15.282 0.753753 15.282C0.684544 15.282 0.615336 15.2754 0.549423 15.2622V16.5838C0.615336 16.5706 0.684544 16.564 0.753753 16.564C1.29424 16.564 1.73588 16.9529 1.73588 17.4308C1.73588 17.9087 1.29754 18.2976 0.753753 18.2976C0.684544 18.2976 0.615336 18.291 0.549423 18.2778V19.5993C0.615336 19.5862 0.684544 19.5796 0.753753 19.5796C1.29424 19.5796 1.73588 19.9685 1.73588 20.4463C1.73588 20.9242 1.29754 21.3131 0.753753 21.3131C0.684544 21.3131 0.615336 21.3065 0.549423 21.2933V22.6149C0.615336 22.6017 0.684544 22.5951 0.753753 22.5951C1.29424 22.5951 1.73588 22.984 1.73588 23.4619C1.73588 23.9397 1.29754 24.3286 0.753753 24.3286C0.684544 24.3286 0.615336 24.322 0.549423 24.3089V25.6304C0.615336 25.6172 0.684544 25.6106 0.753753 25.6106C1.29424 25.6106 1.73588 25.9995 1.73588 26.4774C1.73588 26.9553 1.29754 27.3442 0.753753 27.3442C0.684544 27.3442 0.615336 27.3376 0.549423 27.3244V28.646C0.615336 28.6328 0.684544 28.6262 0.753753 28.6262C1.29424 28.6262 1.73588 29.0151 1.73588 29.4929C1.73588 29.9708 1.29754 30.3597 0.753753 30.3597C0.684544 30.3597 0.615336 30.3531 0.549423 30.3399V31.6615C0.615336 31.6483 0.684544 31.6417 0.753753 31.6417C1.29424 31.6417 1.73588 32.0306 1.73588 32.5085C1.73588 32.9864 1.29754 33.3752 0.753753 33.3752C0.684544 33.3752 0.615336 33.3686 0.549423 33.3555V34.677C0.615336 34.6638 0.684544 34.6573 0.753753 34.6573C1.29424 34.6573 1.73588 35.0461 1.73588 35.524C1.73588 36.0019 1.29754 36.3908 0.753753 36.3908C0.684544 36.3908 0.615336 36.3842 0.549423 36.371V37.6926C0.615336 37.6794 0.684544 37.6728 0.753753 37.6728C1.29424 37.6728 1.73588 38.0617 1.73588 38.5396C1.73588 39.0174 1.29754 39.4063 0.753753 39.4063C0.684544 39.4063 0.615336 39.3997 0.549423 39.3865V40.7081C0.615336 40.6949 0.684544 40.6883 0.753753 40.6883C1.29424 40.6883 1.73588 41.0772 1.73588 41.5551C1.73588 42.033 1.29754 42.4219 0.753753 42.4219C0.684544 42.4219 0.615336 42.4153 0.549423 42.4021V43.7236C0.615336 43.7105 0.684544 43.7039 0.753753 43.7039C1.29424 43.7039 1.73588 44.0928 1.73588 44.5706C1.73588 45.0485 1.29754 45.4374 0.753753 45.4374C0.684544 45.4374 0.615336 45.4308 0.549423 45.4176V46.7392C0.615336 46.726 0.684544 46.7194 0.753753 46.7194" fill="#A98B83"/>
<path d="M52.914 7.84372V47.0589C50.5082 47.2039 48.5967 49.2077 48.5967 51.6465C48.5967 51.9068 48.6198 52.1705 48.6692 52.4374H8.25444C8.30387 52.1705 8.32695 51.9068 8.32695 51.6465C8.32695 49.2077 6.41545 47.2039 4.00961 47.0589V7.84372C6.32317 7.70201 8.17864 5.84655 8.31705 3.53299H48.6033C48.745 5.84655 50.6005 7.70201 52.914 7.84372Z" fill="white"/>
<path d="M52.914 7.84372V47.0589C50.5082 47.2039 48.5967 49.2077 48.5967 51.6465C48.5967 51.9068 48.6198 52.1705 48.6692 52.4374H8.25444C8.30387 52.1705 8.32695 51.9068 8.32695 51.6465C8.32695 49.2077 6.41545 47.2039 4.00961 47.0589V7.84372C6.32317 7.70201 8.17864 5.84655 8.31705 3.53299H48.6033C48.745 5.84655 50.6005 7.70201 52.914 7.84372Z" fill="#AB8C85"/>
<path d="M53.1937 7.28992C50.9659 7.28992 49.1565 5.4806 49.1565 3.25273C49.1565 3.09783 49.0313 2.9726 48.8764 2.9726H8.04636C7.89146 2.9726 7.76623 3.09783 7.76623 3.25273C7.76623 5.4806 5.95361 7.28992 3.72904 7.28992C3.57414 7.28992 3.44891 7.41516 3.44891 7.57005V47.3323C3.44891 47.4839 3.57414 47.6124 3.72904 47.6124C5.95361 47.6124 7.76623 49.4218 7.76623 51.6463C7.76623 51.9726 7.72008 52.3088 7.6344 52.6482C7.61462 52.7339 7.63111 52.8229 7.68384 52.8888C7.73657 52.958 7.81896 52.9976 7.90794 52.9976H49.0148C49.1005 52.9976 49.1829 52.958 49.2356 52.8888C49.2884 52.8229 49.3081 52.7339 49.2851 52.6482C49.1994 52.3088 49.1565 51.9726 49.1565 51.6463C49.1565 49.4218 50.9659 47.6124 53.1937 47.6124C53.3486 47.6124 53.4739 47.4839 53.4739 47.3323V7.57005C53.4739 7.41516 53.3486 7.28992 53.1937 7.28992ZM52.9136 47.0588C50.5078 47.2038 48.5963 49.2075 48.5963 51.6463C48.5963 51.9067 48.6193 52.1703 48.6688 52.4373H8.25398C8.30342 52.1703 8.3265 51.9067 8.3265 51.6463C8.3265 49.2075 6.415 47.2038 4.00916 47.0588V7.84359C6.32272 7.70188 8.17818 5.84642 8.3166 3.53286H48.6029C48.7446 5.84642 50.6 7.70188 52.9136 7.84359V47.0588Z" fill="#F1DFC1"/>
<path d="M52.8618 7.93589V47.1543C51.6948 47.2295 50.5998 47.745 49.7984 48.5967C48.9969 49.4483 48.5487 50.5725 48.5445 51.7419C48.5444 52.0072 48.5686 52.272 48.617 52.5329H8.20219C8.25052 52.272 8.27479 52.0072 8.27469 51.7419C8.27149 50.574 7.82552 49.4508 7.02674 48.5988C6.22796 47.7468 5.1358 47.2295 3.97055 47.1511V7.93259C5.08517 7.85508 6.13381 7.37573 6.92175 6.58355C7.70969 5.79137 8.18339 4.74018 8.25492 3.62515H48.5511C48.6225 4.74499 49.0996 5.80041 49.8931 6.59386C50.6865 7.38732 51.742 7.86443 52.8618 7.93589Z" fill="white"/>
<path d="M28.4597 6.34073C28.8128 6.34073 29.099 6.05448 29.099 5.70137C29.099 5.34826 28.8128 5.06201 28.4597 5.06201C28.1066 5.06201 27.8203 5.34826 27.8203 5.70137C27.8203 6.05448 28.1066 6.34073 28.4597 6.34073Z" fill="#F5CBD9"/>
<path d="M28.4587 8.23273C28.3796 8.23273 28.317 8.17011 28.317 8.09102V7.1155C28.317 7.0364 28.3796 6.97379 28.4587 6.97379C28.5378 6.97379 28.6004 7.0364 28.6004 7.1155V8.09102C28.6004 8.17011 28.5378 8.23273 28.4587 8.23273Z" fill="#F5CBD9"/>
<path d="M28.4587 10.9184C28.3796 10.9184 28.317 10.8558 28.317 10.7767V8.69716C28.317 8.61807 28.3796 8.55545 28.4587 8.55545C28.5378 8.55545 28.6004 8.61807 28.6004 8.69716V10.7767C28.6004 10.8558 28.5378 10.9184 28.4587 10.9184Z" fill="#F5CBD9"/>
<path d="M29.6547 7.91298C29.6052 7.91298 29.5591 7.88661 29.5327 7.84377L29.045 6.99678C29.0054 6.93087 29.0285 6.84518 29.0977 6.80563C29.1636 6.76609 29.2493 6.78916 29.2889 6.85837L29.7766 7.70535C29.8162 7.77127 29.7931 7.85695 29.7239 7.8965C29.7041 7.90639 29.681 7.91298 29.6547 7.91298Z" fill="#F5CBD9"/>
<path d="M31.0003 10.2395C30.9509 10.2395 30.9047 10.2131 30.8784 10.1703L29.8402 8.37087C29.8007 8.30495 29.8237 8.21927 29.8929 8.17972C29.9589 8.14017 30.0445 8.16324 30.0841 8.23245L31.1222 10.0319C31.1618 10.0978 31.1387 10.1835 31.0695 10.223C31.0464 10.2329 31.0234 10.2395 31.0003 10.2395Z" fill="#F5CBD9"/>
<path d="M30.5325 7.03937C30.5094 7.03937 30.4831 7.03278 30.4633 7.0196L29.6196 6.53184C29.5537 6.49229 29.5306 6.40661 29.5669 6.34069C29.6064 6.27478 29.6921 6.25171 29.758 6.28796L30.6017 6.77572C30.6676 6.81527 30.6907 6.90096 30.6544 6.96687C30.6281 7.01301 30.5819 7.03937 30.5325 7.03937Z" fill="#F5CBD9"/>
<path d="M31.8041 7.77116C31.781 7.77116 31.7547 7.76457 31.7349 7.75139L30.9868 7.31965C30.9209 7.28011 30.8978 7.19442 30.934 7.1285C30.9736 7.06259 31.0593 7.03952 31.1252 7.07577L31.8733 7.50751C31.9392 7.54706 31.9623 7.63274 31.926 7.69865C31.8997 7.74809 31.8535 7.77116 31.8041 7.77116Z" fill="#F5CBD9"/>
<path d="M30.8516 5.84333H29.8761C29.797 5.84333 29.7344 5.78072 29.7344 5.70162C29.7344 5.62252 29.797 5.55991 29.8761 5.55991H30.8516C30.9307 5.55991 30.9933 5.62252 30.9933 5.70162C30.9933 5.78072 30.9307 5.84333 30.8516 5.84333Z" fill="#F5CBD9"/>
<path d="M33.369 5.84343H31.4575C31.3784 5.84343 31.3158 5.78081 31.3158 5.70171C31.3158 5.62262 31.3784 5.56 31.4575 5.56H33.369C33.4481 5.56 33.5107 5.62262 33.5107 5.70171C33.5107 5.78081 33.4481 5.84343 33.369 5.84343Z" fill="#F5CBD9"/>
<path d="M27.0442 5.84315H26.0687C25.9896 5.84315 25.927 5.78053 25.927 5.70144C25.927 5.62234 25.9896 5.55972 26.0687 5.55972H27.0442C27.1233 5.55972 27.1859 5.62234 27.1859 5.70144C27.1827 5.78053 27.12 5.84315 27.0442 5.84315Z" fill="#F5CBD9"/>
<path d="M25.4622 5.84333H23.5507C23.4716 5.84333 23.409 5.78072 23.409 5.70162C23.409 5.62252 23.4716 5.55991 23.5507 5.55991H25.4622C25.5413 5.55991 25.6039 5.62252 25.6039 5.70162C25.6006 5.78072 25.538 5.84333 25.4622 5.84333Z" fill="#F5CBD9"/>
<path d="M26.3894 7.03938C26.34 7.03938 26.2939 7.01301 26.2675 6.97017C26.2279 6.90425 26.251 6.81857 26.3202 6.77902L27.1639 6.29126C27.2298 6.25171 27.3155 6.27478 27.3551 6.34399C27.3946 6.4099 27.3715 6.49559 27.3023 6.53514L26.4586 7.0229C26.4356 7.03279 26.4125 7.03938 26.3894 7.03938Z" fill="#F5CBD9"/>
<path d="M25.1635 7.7448C25.114 7.7448 25.0679 7.71843 25.0415 7.67559C25.002 7.60967 25.0251 7.52399 25.0943 7.48444L25.7963 7.07907C25.8622 7.03952 25.9478 7.06259 25.9874 7.1318C26.0269 7.19772 26.0039 7.2834 25.9347 7.32295L25.2327 7.72832C25.2096 7.7415 25.1865 7.7448 25.1635 7.7448Z" fill="#F5CBD9"/>
<path d="M27.2645 7.9127C27.2414 7.9127 27.2151 7.90611 27.1953 7.89293C27.1294 7.85338 27.1063 7.76769 27.1426 7.70178L27.6303 6.85479C27.6699 6.78888 27.7556 6.76581 27.8215 6.80206C27.8874 6.84161 27.9105 6.92729 27.8742 6.99321L27.3864 7.8402C27.3601 7.88963 27.3107 7.9127 27.2645 7.9127Z" fill="#F5CBD9"/>
<path d="M25.9202 10.2394C25.8971 10.2394 25.8707 10.2329 25.851 10.2197C25.785 10.1801 25.762 10.0944 25.7982 10.0285L26.8397 8.22909C26.8792 8.16318 26.9649 8.14011 27.0308 8.17636C27.0967 8.21591 27.1198 8.3016 27.0835 8.36751L26.0421 10.1669C26.0157 10.2131 25.9696 10.2394 25.9202 10.2394Z" fill="#F5CBD9"/>
<path d="M28.4597 50.9116C28.8128 50.9116 29.099 50.6253 29.099 50.2722C29.099 49.9191 28.8128 49.6328 28.4597 49.6328C28.1066 49.6328 27.8203 49.9191 27.8203 50.2722C27.8203 50.6253 28.1066 50.9116 28.4597 50.9116Z" fill="#F5CBD9"/>
<path d="M28.4587 48.9968C28.3796 48.9968 28.317 48.9342 28.317 48.8551V47.8796C28.317 47.8005 28.3796 47.7379 28.4587 47.7379C28.5378 47.7379 28.6004 47.8005 28.6004 47.8796V48.8551C28.6004 48.9342 28.5378 48.9968 28.4587 48.9968Z" fill="#F5CBD9"/>
<path d="M28.4587 47.4146C28.3796 47.4146 28.317 47.352 28.317 47.2729V45.1933C28.317 45.1143 28.3796 45.0516 28.4587 45.0516C28.5378 45.0516 28.6004 45.1143 28.6004 45.1933V47.2729C28.6004 47.352 28.5378 47.4146 28.4587 47.4146Z" fill="#F5CBD9"/>
<path d="M27.7522 49.1848C27.7028 49.1848 27.6566 49.1584 27.6303 49.1156L27.1425 48.2719C27.1029 48.206 27.126 48.1203 27.1952 48.0807C27.2611 48.0412 27.3468 48.0642 27.3864 48.1335L27.8741 48.9771C27.9137 49.0431 27.8906 49.1287 27.8214 49.1683C27.7983 49.1782 27.7753 49.1848 27.7522 49.1848Z" fill="#F5CBD9"/>
<path d="M26.9638 47.8166C26.9143 47.8166 26.8682 47.7902 26.8418 47.7474L25.8004 45.948C25.7608 45.882 25.7839 45.7964 25.8531 45.7568C25.919 45.7173 26.0047 45.7403 26.0443 45.8095L27.0857 47.609C27.1252 47.6749 27.1022 47.7606 27.033 47.8001C27.0099 47.81 26.9868 47.8166 26.9638 47.8166Z" fill="#F5CBD9"/>
<path d="M27.2309 49.7053C27.2079 49.7053 27.1815 49.6987 27.1617 49.6855L26.318 49.1977C26.2521 49.1582 26.2291 49.0725 26.2653 49.0066C26.3049 48.9407 26.3905 48.9176 26.4565 48.9539L27.3002 49.4416C27.3661 49.4812 27.3891 49.5668 27.3529 49.6328C27.3265 49.6789 27.2804 49.7053 27.2309 49.7053Z" fill="#F5CBD9"/>
<path d="M25.866 48.9144C25.8429 48.9144 25.8166 48.9078 25.7968 48.8946L25.0487 48.4629C24.9827 48.4233 24.9597 48.3376 24.9959 48.2717C25.0355 48.2058 25.1212 48.1827 25.1871 48.219L25.9352 48.6507C26.0011 48.6903 26.0242 48.776 25.9879 48.8419C25.9616 48.888 25.9121 48.9144 25.866 48.9144Z" fill="#F5CBD9"/>
<path d="M27.0442 50.4105H26.0687C25.9896 50.4105 25.927 50.3479 25.927 50.2688C25.927 50.1897 25.9896 50.1271 26.0687 50.1271H27.0442C27.1233 50.1271 27.1859 50.1897 27.1859 50.2688C27.1827 50.3479 27.12 50.4105 27.0442 50.4105Z" fill="#F5CBD9"/>
<path d="M25.4622 50.4105H23.5507C23.4716 50.4105 23.409 50.3479 23.409 50.2688C23.409 50.1897 23.4716 50.127 23.5507 50.127H25.4622C25.5413 50.127 25.6039 50.1897 25.6039 50.2688C25.6006 50.3479 25.538 50.4105 25.4622 50.4105Z" fill="#F5CBD9"/>
<path d="M30.8516 50.4105H29.8761C29.797 50.4105 29.7344 50.3479 29.7344 50.2688C29.7344 50.1897 29.797 50.127 29.8761 50.127H30.8516C30.9307 50.127 30.9933 50.1897 30.9933 50.2688C30.9933 50.3479 30.9307 50.4105 30.8516 50.4105Z" fill="#F5CBD9"/>
<path d="M33.369 50.4105H31.4575C31.3784 50.4105 31.3158 50.3479 31.3158 50.2688C31.3158 50.1897 31.3784 50.1271 31.4575 50.1271H33.369C33.4481 50.1271 33.5107 50.1897 33.5107 50.2688C33.5107 50.3479 33.4481 50.4105 33.369 50.4105Z" fill="#F5CBD9"/>
<path d="M29.6887 49.7053C29.6393 49.7053 29.5931 49.6789 29.5668 49.6361C29.5272 49.5701 29.5503 49.4845 29.6195 49.4449L30.4632 48.9572C30.5291 48.9176 30.6148 48.9407 30.6543 49.0099C30.6939 49.0758 30.6708 49.1615 30.6016 49.201L29.7579 49.6888C29.7348 49.6987 29.7118 49.7053 29.6887 49.7053Z" fill="#F5CBD9"/>
<path d="M31.0559 48.9142C31.0065 48.9142 30.9603 48.8879 30.934 48.845C30.8944 48.7791 30.9175 48.6934 30.9867 48.6539L31.6887 48.2485C31.7546 48.209 31.8403 48.232 31.8798 48.3012C31.9194 48.3672 31.8963 48.4528 31.8271 48.4924L31.1251 48.8978C31.1053 48.9076 31.0823 48.9142 31.0559 48.9142Z" fill="#F5CBD9"/>
<path d="M29.1693 49.1845C29.1462 49.1845 29.1198 49.1779 29.1001 49.1647C29.0341 49.1251 29.0111 49.0395 29.0473 48.9735L29.5351 48.1298C29.5746 48.0639 29.6603 48.0409 29.7262 48.0771C29.7922 48.1167 29.8152 48.2024 29.779 48.2683L29.2912 49.112C29.2648 49.1614 29.2187 49.1845 29.1693 49.1845Z" fill="#F5CBD9"/>
<path d="M29.9577 47.8171C29.9347 47.8171 29.9083 47.8105 29.8885 47.7973C29.8226 47.7578 29.7995 47.6721 29.8358 47.6062L30.8739 45.8068C30.9135 45.7408 30.9992 45.7178 31.0651 45.754C31.131 45.7936 31.1541 45.8793 31.1178 45.9452L30.0797 47.7446C30.0533 47.7907 30.0072 47.8171 29.9577 47.8171Z" fill="#F5CBD9"/>
<path d="M50.7451 27.3474C50.3925 27.3474 50.1057 27.6342 50.1057 27.9868C50.1057 28.3394 50.3925 28.6262 50.7451 28.6262C51.0977 28.6262 51.3845 28.3394 51.3845 27.9868C51.3878 27.6342 51.101 27.3474 50.7451 27.3474Z" fill="#F5CBD9"/>
<path d="M49.3296 28.1252H48.3541C48.275 28.1252 48.2124 28.0625 48.2124 27.9834C48.2124 27.9044 48.275 27.8417 48.3541 27.8417H49.3296C49.4087 27.8417 49.4714 27.9044 49.4714 27.9834C49.4714 28.0625 49.4054 28.1252 49.3296 28.1252Z" fill="#F5CBD9"/>
<path d="M47.7471 28.1251H45.6675C45.5884 28.1251 45.5258 28.0625 45.5258 27.9834C45.5258 27.9043 45.5884 27.8416 45.6675 27.8416H47.7471C47.8262 27.8416 47.8888 27.9043 47.8888 27.9834C47.8888 28.0625 47.8229 28.1251 47.7471 28.1251Z" fill="#F5CBD9"/>
<path d="M48.6726 29.3217C48.6232 29.3217 48.577 29.2953 48.5507 29.2525C48.5111 29.1865 48.5342 29.1009 48.6034 29.0613L49.4471 28.5735C49.513 28.534 49.5987 28.5571 49.6382 28.6263C49.6778 28.6922 49.6547 28.7779 49.5855 28.8174L48.7418 29.3052C48.7187 29.3184 48.6957 29.3217 48.6726 29.3217Z" fill="#F5CBD9"/>
<path d="M46.3461 30.6661C46.2967 30.6661 46.2506 30.6397 46.2242 30.5969C46.1846 30.531 46.2077 30.4453 46.2769 30.4057L48.0763 29.3643C48.1423 29.3247 48.228 29.3478 48.2675 29.417C48.3071 29.4829 48.284 29.5686 48.2148 29.6082L46.4153 30.6496C46.3956 30.6595 46.3692 30.6661 46.3461 30.6661Z" fill="#F5CBD9"/>
<path d="M49.5477 30.1984C49.5246 30.1984 49.4983 30.1918 49.4785 30.1787C49.4126 30.1391 49.3895 30.0534 49.4257 29.9875L49.9135 29.1405C49.9531 29.0746 50.0387 29.0515 50.1047 29.0878C50.1706 29.1273 50.1936 29.213 50.1574 29.2789L49.6696 30.1259C49.6433 30.1721 49.5971 30.1984 49.5477 30.1984Z" fill="#F5CBD9"/>
<path d="M48.8163 31.4704C48.7932 31.4704 48.7669 31.4638 48.7471 31.4506C48.6812 31.411 48.6581 31.3253 48.6944 31.2594L49.1261 30.5113C49.1656 30.4454 49.2513 30.4223 49.3173 30.4586C49.3832 30.4981 49.4062 30.5838 49.37 30.6497L48.9382 31.3978C48.9119 31.444 48.8624 31.4704 48.8163 31.4704Z" fill="#F5CBD9"/>
<path d="M50.7442 30.5182C50.6651 30.5182 50.6024 30.4555 50.6024 30.3764V29.4009C50.6024 29.3218 50.6651 29.2592 50.7442 29.2592C50.8233 29.2592 50.8859 29.3218 50.8859 29.4009V30.3764C50.8859 30.4555 50.8233 30.5182 50.7442 30.5182Z" fill="#F5CBD9"/>
<path d="M50.7442 33.0358C50.6651 33.0358 50.6024 32.9732 50.6024 32.8941V30.9826C50.6024 30.9035 50.6651 30.8409 50.7442 30.8409C50.8233 30.8409 50.8859 30.9035 50.8859 30.9826V32.8941C50.8859 32.9732 50.8233 33.0358 50.7442 33.0358Z" fill="#F5CBD9"/>
<path d="M50.7442 26.7112C50.6651 26.7112 50.6024 26.6485 50.6024 26.5694V25.5939C50.6024 25.5148 50.6651 25.4522 50.7442 25.4522C50.8233 25.4522 50.8859 25.5148 50.8859 25.5939V26.5694C50.8859 26.6485 50.8233 26.7112 50.7442 26.7112Z" fill="#F5CBD9"/>
<path d="M50.7442 25.1295C50.6651 25.1295 50.6024 25.0669 50.6024 24.9878V23.0763C50.6024 22.9972 50.6651 22.9346 50.7442 22.9346C50.8233 22.9346 50.8859 22.9972 50.8859 23.0763V24.9878C50.8859 25.0669 50.8233 25.1295 50.7442 25.1295Z" fill="#F5CBD9"/>
<path d="M50.0376 26.8992C49.9882 26.8992 49.9421 26.8729 49.9157 26.83L49.4279 25.9831C49.3884 25.9171 49.4114 25.8314 49.4807 25.7919C49.5466 25.7524 49.6322 25.7754 49.6718 25.8446L50.1596 26.6916C50.1991 26.7575 50.176 26.8432 50.1068 26.8828C50.0838 26.8959 50.0607 26.8992 50.0376 26.8992Z" fill="#F5CBD9"/>
<path d="M49.2465 25.5315C49.1971 25.5315 49.151 25.5051 49.1246 25.4623L48.7192 24.7603C48.6797 24.6944 48.7028 24.6087 48.772 24.5692C48.8379 24.5296 48.9236 24.5527 48.9631 24.6219L49.3685 25.3239C49.408 25.3898 49.385 25.4755 49.3158 25.515C49.2927 25.5249 49.2696 25.5315 49.2465 25.5315Z" fill="#F5CBD9"/>
<path d="M49.5186 27.4201C49.4956 27.4201 49.4692 27.4135 49.4494 27.4003L48.6057 26.9126C48.5398 26.873 48.5168 26.7873 48.553 26.7214C48.5926 26.6555 48.6783 26.6324 48.7442 26.6687L49.5879 27.1565C49.6538 27.196 49.6768 27.2817 49.6406 27.3476C49.6142 27.3937 49.5681 27.4201 49.5186 27.4201Z" fill="#F5CBD9"/>
<path d="M48.1502 26.6288C48.1271 26.6288 48.1007 26.6223 48.081 26.6091L46.2815 25.5676C46.2156 25.5281 46.1925 25.4424 46.2288 25.3765C46.2683 25.3106 46.354 25.2875 46.4199 25.3238L48.2194 26.3652C48.2853 26.4047 48.3083 26.4904 48.2721 26.5563C48.2457 26.6025 48.1963 26.6288 48.1502 26.6288Z" fill="#F5CBD9"/>
<path d="M6.17574 28.6262C6.52837 28.6262 6.8151 28.3394 6.8151 27.9868C6.8151 27.6342 6.52837 27.3474 6.17574 27.3474C5.8231 27.3474 5.53637 27.6342 5.53637 27.9868C5.53308 28.3394 5.8198 28.6262 6.17574 28.6262Z" fill="#F5CBD9"/>
<path d="M8.56765 28.1251H7.59212C7.51302 28.1251 7.45041 28.0625 7.45041 27.9834C7.45041 27.9043 7.51302 27.8416 7.59212 27.8416H8.56765C8.64674 27.8416 8.70936 27.9043 8.70936 27.9834C8.70936 28.0625 8.64674 28.1251 8.56765 28.1251Z" fill="#F5CBD9"/>
<path d="M11.2531 28.1252H9.17354C9.09445 28.1252 9.03183 28.0625 9.03183 27.9834C9.03183 27.9044 9.09445 27.8417 9.17354 27.8417H11.2531C11.3322 27.8417 11.3948 27.9044 11.3948 27.9834C11.3948 28.0625 11.3322 28.1252 11.2531 28.1252Z" fill="#F5CBD9"/>
<path d="M7.40475 27.4199C7.35531 27.4199 7.30917 27.3935 7.28281 27.3507C7.24326 27.2847 7.26632 27.1991 7.33553 27.1595L8.17922 26.6718C8.24513 26.6322 8.33083 26.6553 8.37038 26.7245C8.40992 26.7904 8.38684 26.8761 8.31763 26.9156L7.47394 27.4034C7.45087 27.4133 7.42782 27.4199 7.40475 27.4199Z" fill="#F5CBD9"/>
<path d="M8.77193 26.6291C8.72249 26.6291 8.67636 26.6028 8.64999 26.5599C8.61044 26.494 8.63352 26.4083 8.70273 26.3688L10.5055 25.3273C10.5714 25.2878 10.6571 25.3109 10.6966 25.3801C10.7362 25.446 10.7131 25.5317 10.6439 25.5712L8.84115 26.6126C8.82137 26.6225 8.79829 26.6291 8.77193 26.6291Z" fill="#F5CBD9"/>
<path d="M6.88079 26.8992C6.85772 26.8992 6.83135 26.8927 6.81157 26.8795C6.74566 26.8399 6.7226 26.7542 6.75885 26.6883L7.2466 25.8413C7.28615 25.7754 7.37184 25.7524 7.43776 25.7886C7.50367 25.8282 7.52673 25.9138 7.49048 25.9798L7.00273 26.8267C6.97636 26.8762 6.93022 26.8992 6.88079 26.8992Z" fill="#F5CBD9"/>
<path d="M7.67375 25.5315C7.65068 25.5315 7.62433 25.5249 7.60456 25.5117C7.53864 25.4721 7.51556 25.3864 7.55181 25.3205L7.98355 24.5724C8.02309 24.5065 8.10879 24.4834 8.1747 24.5197C8.24061 24.5592 8.26369 24.6449 8.22744 24.7108L7.79571 25.4589C7.76935 25.5051 7.72319 25.5315 7.67375 25.5315Z" fill="#F5CBD9"/>
<path d="M6.17702 26.7112C6.09792 26.7112 6.03531 26.6485 6.03531 26.5694V25.5939C6.03531 25.5148 6.09792 25.4522 6.17702 25.4522C6.25612 25.4522 6.31873 25.5148 6.31873 25.5939V26.5694C6.31544 26.6485 6.25282 26.7112 6.17702 26.7112Z" fill="#F5CBD9"/>
<path d="M6.17702 25.1295C6.09792 25.1295 6.03531 25.0669 6.03531 24.9878V23.0763C6.03531 22.9972 6.09792 22.9346 6.17702 22.9346C6.25612 22.9346 6.31873 22.9972 6.31873 23.0763V24.9878C6.31544 25.0669 6.25282 25.1295 6.17702 25.1295Z" fill="#F5CBD9"/>
<path d="M6.17702 30.5182C6.09792 30.5182 6.03531 30.4555 6.03531 30.3764V29.4009C6.03531 29.3218 6.09792 29.2592 6.17702 29.2592C6.25612 29.2592 6.31873 29.3218 6.31873 29.4009V30.3764C6.31544 30.4555 6.25282 30.5182 6.17702 30.5182Z" fill="#F5CBD9"/>
<path d="M6.17702 33.0358C6.09792 33.0358 6.03531 32.9732 6.03531 32.8941V30.9826C6.03531 30.9035 6.09792 30.8409 6.17702 30.8409C6.25612 30.8409 6.31873 30.9035 6.31873 30.9826V32.8941C6.31544 32.9732 6.25282 33.0358 6.17702 33.0358Z" fill="#F5CBD9"/>
<path d="M7.37523 30.1982C7.32579 30.1982 7.27965 30.1718 7.25329 30.129L6.76554 29.282C6.72599 29.2161 6.74905 29.1304 6.81826 29.0909C6.88417 29.0513 6.96986 29.0744 7.00941 29.1436L7.49716 29.9906C7.53671 30.0565 7.51365 30.1422 7.44444 30.1817C7.42137 30.1916 7.3983 30.1982 7.37523 30.1982Z" fill="#F5CBD9"/>
<path d="M8.07663 31.4242C8.0272 31.4242 7.98106 31.3978 7.95469 31.355L7.54931 30.653C7.50977 30.5871 7.53285 30.5014 7.60206 30.4618C7.66797 30.4223 7.75366 30.4453 7.79321 30.5146L8.19857 31.2165C8.23812 31.2824 8.21504 31.3681 8.14583 31.4077C8.12606 31.4176 8.103 31.4242 8.07663 31.4242Z" fill="#F5CBD9"/>
<path d="M8.24853 29.3214C8.22546 29.3214 8.19908 29.3148 8.17931 29.3016L7.33562 28.8139C7.26971 28.7743 7.24665 28.6886 7.2829 28.6227C7.32245 28.5568 7.40812 28.5337 7.47403 28.57L8.31772 29.0577C8.38364 29.0973 8.40672 29.183 8.37046 29.2489C8.3441 29.2983 8.29796 29.3214 8.24853 29.3214Z" fill="#F5CBD9"/>
<path d="M10.5725 30.6663C10.5494 30.6663 10.5231 30.6597 10.5033 30.6465L8.70056 29.6051C8.63465 29.5656 8.61157 29.4799 8.64782 29.414C8.68737 29.3481 8.77306 29.325 8.83898 29.3612L10.6417 30.4027C10.7076 30.4422 10.7307 30.5279 10.6944 30.5938C10.6681 30.64 10.6219 30.6663 10.5725 30.6663Z" fill="#F5CBD9"/>
<path d="M22.0828 9.2709C22.0037 9.2709 21.9279 9.2676 21.8521 9.25772C21.2061 9.18192 20.6228 8.77325 20.3657 8.21629C20.0922 7.62306 20.2141 6.87495 20.6557 6.43333C21.1237 5.96534 21.9246 5.89284 22.4387 6.27514C22.8539 6.58493 23.022 7.16167 22.821 7.58681C22.7089 7.8241 22.4617 8.00207 22.1816 8.0548C21.9279 8.10094 21.6873 8.03503 21.5192 7.87354C21.4632 7.82081 21.4632 7.73182 21.5159 7.6758C21.5686 7.61977 21.6576 7.61977 21.7136 7.6725C21.8158 7.77137 21.9641 7.80762 22.1322 7.77796C22.3266 7.74171 22.4914 7.62306 22.5672 7.46487C22.7155 7.15508 22.5837 6.72994 22.2739 6.49924C21.8652 6.19604 21.2292 6.25536 20.8535 6.63107C20.4909 6.9903 20.3954 7.60988 20.6195 8.09764C20.837 8.56892 21.3346 8.91497 21.8817 8.97759C22.3991 9.0402 22.966 8.85565 23.3977 8.49312C23.9843 7.99548 24.2513 7.19463 24.0503 6.54209C23.9052 6.0741 23.5295 5.66874 23.0253 5.42486C22.5936 5.21723 22.0663 5.12495 21.4599 5.14802C20.4975 5.18427 19.5022 5.49077 18.5069 6.05762C17.739 6.49595 16.6482 7.18145 15.8045 7.96911C15.7518 8.01525 15.6727 8.01855 15.62 7.9757C15.5639 7.92956 15.554 7.85376 15.5903 7.79444C15.9231 7.25395 16.1604 6.77278 16.3219 6.31469C15.2047 7.28032 13.8963 8.04491 12.5088 8.53926C11.8958 8.75678 11.0851 8.99077 10.2546 8.87542C9.39772 8.75348 8.67596 8.22947 8.4156 7.54067C8.25082 7.10565 8.28378 6.59152 8.50459 6.13672C8.7287 5.67862 9.111 5.33917 9.55591 5.20075C10.1195 5.02608 10.7522 5.17109 11.1345 5.55998C11.5597 5.99501 11.6256 6.69698 11.2861 7.15838C11.1082 7.39896 10.8116 7.56045 10.4919 7.58352C10.192 7.60988 9.90854 7.51431 9.7141 7.32316C9.65807 7.27043 9.65807 7.18145 9.7108 7.12542C9.76353 7.06939 9.85252 7.06939 9.90855 7.12542C10.0437 7.25725 10.2447 7.32646 10.4655 7.30668C10.7061 7.28691 10.9269 7.17156 11.0554 6.99359C11.3125 6.64425 11.2532 6.08729 10.9302 5.75442C10.6204 5.43804 10.0997 5.32269 9.635 5.4644C9.26259 5.57975 8.94292 5.86647 8.75177 6.25536C8.56391 6.64425 8.53426 7.07598 8.67268 7.43851C8.90008 8.03502 9.53284 8.48653 10.2908 8.59529C11.062 8.70404 11.8299 8.47994 12.4133 8.27231C13.9227 7.73512 15.3365 6.87165 16.4999 5.7709C16.546 5.72806 16.6119 5.72147 16.668 5.75113C16.7207 5.78079 16.7471 5.84341 16.7339 5.90602C16.6317 6.33446 16.4669 6.76619 16.2263 7.23747C16.958 6.65744 17.7621 6.15649 18.3685 5.81374C19.4034 5.22382 20.4415 4.90414 21.45 4.86789C22.1025 4.84152 22.676 4.94698 23.1472 5.17438C23.724 5.45122 24.1491 5.91921 24.3205 6.4597C24.5578 7.2177 24.2513 8.14049 23.5823 8.70734C23.1538 9.06657 22.6068 9.2709 22.0828 9.2709Z" fill="#F1DFC1"/>
<path d="M21.6232 8.96129C21.5441 8.96129 21.4683 8.958 21.3925 8.94811C21.1882 8.92504 20.9872 8.86572 20.796 8.77673C20.7268 8.74378 20.6972 8.66139 20.7301 8.58888C20.7631 8.51967 20.8454 8.49001 20.9179 8.52297C21.0827 8.59877 21.2541 8.6482 21.4288 8.67127C21.9462 8.7306 22.5131 8.54933 22.9448 8.18681C23.5314 7.69246 23.7984 6.88832 23.5973 6.23577C23.5018 5.92928 23.304 5.64915 23.0107 5.41186C22.9514 5.36242 22.9415 5.27344 22.9909 5.21411C23.0404 5.15479 23.1293 5.14491 23.1887 5.19434C23.5248 5.46788 23.7522 5.79086 23.8643 6.15338C24.1016 6.91139 23.7951 7.83417 23.126 8.40103C22.6943 8.75696 22.1505 8.96129 21.6232 8.96129Z" fill="#F1DFC1"/>
<path d="M10.9684 8.89519C10.9618 8.89519 10.9552 8.89519 10.9486 8.89519C10.2335 8.79303 9.33047 8.32504 9.03056 7.54067C8.846 7.05291 8.90532 6.44651 9.18875 5.96205C9.4491 5.51713 9.86107 5.23041 10.3488 5.1612C10.4246 5.14802 10.4971 5.20404 10.507 5.27984C10.5169 5.35564 10.4642 5.42815 10.3884 5.43803C9.9863 5.49736 9.64684 5.73465 9.42932 6.10376C9.18874 6.51572 9.13601 7.02984 9.29091 7.43851C9.55127 8.11741 10.3521 8.52608 10.9882 8.61506C11.064 8.62495 11.1167 8.69745 11.1068 8.77325C11.0969 8.84246 11.0376 8.89519 10.9684 8.89519Z" fill="#F1DFC1"/>
<path d="M25.1164 5.14479H13.3047C13.2256 5.14479 13.163 5.08217 13.163 5.00307C13.163 4.92398 13.2256 4.86136 13.3047 4.86136H25.1164C25.1955 4.86136 25.2581 4.92398 25.2581 5.00307C25.2581 5.08217 25.1955 5.14479 25.1164 5.14479Z" fill="#F1DFC1"/>
<path d="M21.9484 8.03516C22.3015 8.03516 22.5877 7.74891 22.5877 7.3958C22.5877 7.04269 22.3015 6.75644 21.9484 6.75644C21.5953 6.75644 21.309 7.04269 21.309 7.3958C21.309 7.74891 21.5953 8.03516 21.9484 8.03516Z" fill="#F1DFC1"/>
<path d="M13.9429 5.50408C13.9429 5.85671 13.6562 6.14344 13.3036 6.14344C12.9509 6.14344 12.6642 5.85671 12.6642 5.50408C12.6642 5.15144 12.9509 4.86472 13.3036 4.86472C13.6562 4.86472 13.9429 5.15144 13.9429 5.50408Z" fill="#F1DFC1"/>
<path d="M10.1747 7.5178C10.5278 7.5178 10.814 7.23154 10.814 6.87844C10.814 6.52533 10.5278 6.23907 10.1747 6.23907C9.82156 6.23907 9.53531 6.52533 9.53531 6.87844C9.53531 7.23154 9.82156 7.5178 10.1747 7.5178Z" fill="#F1DFC1"/>
<path d="M34.8256 9.2709C34.2983 9.2709 33.7677 9.07316 33.336 8.70734C32.6637 8.14049 32.3605 7.2177 32.5977 6.4597C32.7658 5.91921 33.1943 5.45122 33.771 5.17438C34.2456 4.94698 34.8157 4.84152 35.4683 4.86789C36.4768 4.90414 37.5149 5.22382 38.5497 5.81374C39.1561 6.15979 39.9603 6.65744 40.6919 7.23747C40.4513 6.76619 40.2865 6.33446 40.1844 5.90602C40.1712 5.8467 40.1976 5.78408 40.2503 5.75113C40.303 5.72147 40.3722 5.72806 40.4184 5.7709C41.5818 6.87165 42.9956 7.73512 44.505 8.27231C45.0883 8.47994 45.8562 8.70404 46.6274 8.59529C47.3821 8.48983 48.0182 8.03502 48.2456 7.43851C48.384 7.07598 48.3544 6.64425 48.1665 6.25536C47.9786 5.86647 47.6557 5.57975 47.2832 5.4644C46.8186 5.31939 46.2978 5.43474 45.988 5.75442C45.6618 6.08729 45.6057 6.64096 45.8628 6.99359C45.9913 7.16826 46.2122 7.28691 46.4527 7.30668C46.6703 7.32316 46.8746 7.25725 47.0097 7.12542C47.0657 7.07269 47.1547 7.07269 47.2074 7.12542C47.2602 7.18145 47.2602 7.27043 47.2042 7.32316C47.0097 7.51431 46.7263 7.60988 46.4264 7.58352C46.1067 7.55715 45.8101 7.39896 45.6321 7.15838C45.2927 6.69698 45.3586 5.99171 45.7837 5.55998C46.166 5.17109 46.7988 5.02608 47.3624 5.20075C47.8073 5.33917 48.1896 5.67862 48.4137 6.13672C48.6378 6.59482 48.6707 7.10565 48.5026 7.54067C48.239 8.22947 47.5173 8.75348 46.6637 8.87542C45.8332 8.99406 45.0224 8.75678 44.4094 8.53926C43.022 8.04491 41.7136 7.28032 40.5963 6.31469C40.7578 6.77278 40.9951 7.25395 41.328 7.79444C41.3642 7.85376 41.351 7.93286 41.2983 7.9757C41.2456 8.01855 41.1665 8.01854 41.1138 7.96911C40.2734 7.18145 39.1792 6.49595 38.4113 6.05762C37.416 5.49077 36.4207 5.18427 35.4584 5.14802C34.8487 5.12495 34.3247 5.22052 33.893 5.42486C33.3854 5.66874 33.013 6.0741 32.868 6.54209C32.6637 7.19463 32.9339 7.99548 33.5205 8.49312C33.9523 8.85894 34.5224 9.0402 35.0365 8.97759C35.5869 8.91167 36.0846 8.56563 36.3021 8.09764C36.5295 7.60659 36.4306 6.9903 36.0681 6.63107C35.6924 6.25536 35.0563 6.19934 34.6477 6.49924C34.3346 6.72994 34.206 7.15508 34.3543 7.46487C34.4301 7.62306 34.5949 7.74171 34.7894 7.77796C34.9509 7.80762 35.1058 7.76808 35.2079 7.6725C35.264 7.61977 35.3529 7.61977 35.4057 7.6758C35.4584 7.73182 35.4584 7.82081 35.4024 7.87354C35.2343 8.03503 34.9937 8.10094 34.7399 8.0548C34.4598 8.00536 34.2159 7.8241 34.1039 7.58681C33.8995 7.16167 34.0676 6.58493 34.4862 6.27514C35.0003 5.89284 35.8011 5.96534 36.2691 6.43333C36.7107 6.87495 36.8327 7.62306 36.5591 8.21629C36.3021 8.77325 35.7187 9.18192 35.0728 9.25772C34.9871 9.2676 34.908 9.2709 34.8256 9.2709Z" fill="#F1DFC1"/>
<path d="M35.2982 8.96108C34.7742 8.96108 34.2271 8.76004 33.7987 8.39752C33.1264 7.83066 32.8232 6.90788 33.0605 6.14987C33.1725 5.79064 33.3999 5.46767 33.7361 5.19083C33.7954 5.1414 33.8844 5.15128 33.9338 5.21061C33.9833 5.26993 33.9734 5.35891 33.9141 5.40835C33.6208 5.64893 33.4263 5.92577 33.3307 6.23226C33.1264 6.88481 33.3966 7.68565 33.9833 8.1833C34.415 8.54912 34.9852 8.73038 35.4993 8.66776C35.674 8.64799 35.8453 8.59855 36.0101 8.51946C36.0793 8.4865 36.165 8.51616 36.198 8.58537C36.2309 8.65458 36.2013 8.74027 36.1321 8.77322C35.9409 8.86221 35.7399 8.92153 35.5355 8.9446C35.4531 8.95778 35.374 8.96108 35.2982 8.96108Z" fill="#F1DFC1"/>
<path d="M45.9531 8.89507C45.8839 8.89507 45.8246 8.84564 45.8147 8.77313C45.8048 8.69733 45.8576 8.62483 45.9334 8.61494C46.5694 8.52596 47.3703 8.11729 47.6306 7.43838C47.7888 7.02643 47.7361 6.5156 47.4922 6.10034C47.2747 5.73123 46.9353 5.49394 46.5332 5.43462C46.4574 5.42473 46.4047 5.35223 46.4145 5.27643C46.4244 5.20063 46.4969 5.1446 46.5727 5.15778C47.0605 5.23029 47.4725 5.51371 47.7328 5.95863C48.0162 6.44309 48.0788 7.0462 47.891 7.53725C47.5911 8.32492 46.6881 8.78961 45.9729 8.89178C45.9663 8.89507 45.9597 8.89507 45.9531 8.89507Z" fill="#F1DFC1"/>
<path d="M43.6144 5.14479H31.8028C31.7237 5.14479 31.661 5.08217 31.661 5.00307C31.661 4.92398 31.7237 4.86136 31.8028 4.86136H43.6144C43.6935 4.86136 43.7562 4.92398 43.7562 5.00307C43.7562 5.08217 43.6935 5.14479 43.6144 5.14479Z" fill="#F1DFC1"/>
<path d="M34.9708 8.03479C35.3239 8.03479 35.6101 7.74854 35.6101 7.39543C35.6101 7.04232 35.3239 6.75607 34.9708 6.75607C34.6177 6.75607 34.3314 7.04232 34.3314 7.39543C34.3314 7.74854 34.6177 8.03479 34.9708 8.03479Z" fill="#F1DFC1"/>
<path d="M42.9765 5.50386C42.9765 5.8565 43.2633 6.14322 43.6159 6.14322C43.9685 6.14322 44.2552 5.8565 44.2552 5.50386C44.2552 5.15123 43.9685 4.8645 43.6159 4.8645C43.2633 4.8645 42.9765 5.15123 42.9765 5.50386Z" fill="#F1DFC1"/>
<path d="M46.7448 7.51773C47.0979 7.51773 47.3841 7.23148 47.3841 6.87837C47.3841 6.52527 47.0979 6.23901 46.7448 6.23901C46.3917 6.23901 46.1054 6.52527 46.1054 6.87837C46.1054 7.23148 46.3917 7.51773 46.7448 7.51773Z" fill="#F1DFC1"/>
<path d="M21.6352 51.1092C21.5725 51.1092 21.5132 51.1092 21.4506 51.1059C20.4421 51.0697 19.404 50.75 18.3691 50.1601C17.7627 49.814 16.9586 49.3164 16.227 48.7364C16.4675 49.2076 16.6323 49.6394 16.7345 50.0678C16.7477 50.1271 16.7213 50.1897 16.6686 50.2227C16.6159 50.2524 16.5466 50.2458 16.5005 50.2029C15.3371 49.1022 13.9233 48.2387 12.4139 47.7015C11.8305 47.4939 11.0593 47.2698 10.2915 47.3785C9.53675 47.4873 8.90069 47.9388 8.67329 48.5353C8.53487 48.8978 8.56453 49.3296 8.75238 49.7185C8.94023 50.1074 9.26321 50.3941 9.63562 50.5094C10.1003 50.6544 10.621 50.5391 10.9308 50.2194C11.2571 49.8865 11.3131 49.3329 11.0561 48.9802C10.9275 48.8023 10.7067 48.6869 10.4661 48.6671C10.2486 48.6507 10.0443 48.7166 9.90916 48.8484C9.85314 48.9044 9.76414 48.9011 9.71141 48.8484C9.65868 48.7924 9.65869 48.7034 9.71471 48.6507C9.90916 48.4595 10.1926 48.3639 10.4892 48.3903C10.8089 48.4167 11.1055 48.5749 11.2835 48.8155C11.6229 49.2768 11.5537 49.9821 11.1318 50.4139C10.7495 50.8027 10.1168 50.9478 9.55323 50.7731C9.10831 50.6347 8.72601 50.2952 8.50191 49.8371C8.2778 49.379 8.24484 48.8682 8.41292 48.4332C8.67657 47.7444 9.39833 47.2203 10.2519 47.0984C11.0857 46.9798 11.8932 47.2171 12.5062 47.4346C13.8936 47.9289 15.202 48.6935 16.3192 49.6591C16.1578 49.201 15.9205 48.7199 15.5876 48.1794C15.5513 48.1201 15.5645 48.041 15.6173 47.9981C15.67 47.9553 15.7491 47.9553 15.8018 48.0047C16.6422 48.7924 17.7364 49.4779 18.5043 49.9162C19.4996 50.4831 20.4948 50.7896 21.4572 50.8258C22.0669 50.8489 22.5909 50.7533 23.0226 50.549C23.5302 50.3051 23.9026 49.8997 24.0476 49.4317C24.2519 48.7792 23.9817 47.9784 23.395 47.4807C22.9633 47.1149 22.3932 46.9336 21.879 46.9962C21.3287 47.0622 20.8343 47.4082 20.6168 47.8762C20.3894 48.3639 20.4883 48.9835 20.8508 49.3428C21.2265 49.7185 21.8626 49.7745 22.2712 49.4746C22.5843 49.2439 22.7128 48.8188 22.5645 48.509C22.4887 48.3508 22.324 48.2321 22.1295 48.1959C21.9647 48.1662 21.8131 48.2058 21.711 48.3013C21.6549 48.3541 21.5659 48.3541 21.5132 48.298C21.4605 48.242 21.4605 48.153 21.5165 48.1003C21.6846 47.9388 21.9252 47.8729 22.1789 47.919C22.4591 47.9685 22.7029 48.1497 22.8183 48.387C23.0226 48.8122 22.8546 49.3889 22.436 49.6987C21.9219 50.081 21.121 50.0085 20.653 49.5405C20.2114 49.0989 20.0895 48.3508 20.363 47.7575C20.6201 47.2006 21.2034 46.7919 21.8494 46.7161C22.4426 46.6469 23.0885 46.8512 23.5796 47.2665C24.2519 47.8333 24.5551 48.7561 24.3178 49.5141C24.1497 50.0546 23.7213 50.5226 23.1446 50.7994C22.7194 51.0071 22.2119 51.1092 21.6352 51.1092Z" fill="#F1DFC1"/>
<path d="M23.099 50.8127C23.0595 50.8127 23.0166 50.7963 22.9903 50.76C22.9408 50.7007 22.9507 50.6117 23.01 50.5623C23.3033 50.3217 23.4978 50.0449 23.5966 49.7384C23.801 49.0858 23.5307 48.285 22.9441 47.7873C22.5124 47.4215 21.9455 47.2402 21.4281 47.3029C21.2534 47.3226 21.082 47.3721 20.9173 47.4512C20.8481 47.4841 20.7624 47.4545 20.7294 47.3852C20.6965 47.316 20.7261 47.2303 20.7986 47.1974C20.9898 47.1084 21.1908 47.0491 21.3951 47.026C21.9884 46.9568 22.6343 47.1611 23.1254 47.5764C23.7977 48.1433 24.1009 49.066 23.8636 49.824C23.7515 50.1866 23.5241 50.5062 23.188 50.7831C23.1616 50.8029 23.1287 50.8127 23.099 50.8127Z" fill="#F1DFC1"/>
<path d="M10.3671 50.8159C10.3605 50.8159 10.3539 50.8159 10.3473 50.8159C9.85952 50.7434 9.44755 50.4599 9.1872 50.015C8.90377 49.5306 8.84116 48.9275 9.02901 48.4364C9.32892 47.6487 10.2319 47.184 10.9471 47.0819C11.0229 47.072 11.0954 47.1247 11.1053 47.2005C11.1152 47.2763 11.0624 47.3488 10.9866 47.3587C10.3506 47.4477 9.54972 47.8564 9.28936 48.5353C9.13117 48.9472 9.18389 49.4581 9.42777 49.87C9.64529 50.2391 9.98475 50.4764 10.3868 50.5357C10.4626 50.5456 10.5154 50.6181 10.5055 50.6939C10.4956 50.7664 10.4363 50.8159 10.3671 50.8159Z" fill="#F1DFC1"/>
<path d="M25.1181 51.1092H13.3064C13.2273 51.1092 13.1647 51.0466 13.1647 50.9675C13.1647 50.8884 13.2273 50.8258 13.3064 50.8258H25.1181C25.1972 50.8258 25.2598 50.8884 25.2598 50.9675C25.2598 51.0466 25.1972 51.1092 25.1181 51.1092Z" fill="#F1DFC1"/>
<path d="M21.9502 49.2175C22.3033 49.2175 22.5896 48.9312 22.5896 48.5781C22.5896 48.225 22.3033 47.9388 21.9502 47.9388C21.5971 47.9388 21.3109 48.225 21.3109 48.5781C21.3109 48.9312 21.5971 49.2175 21.9502 49.2175Z" fill="#F1DFC1"/>
<path d="M13.303 51.1093C13.6561 51.1093 13.9423 50.823 13.9423 50.4699C13.9423 50.1168 13.6561 49.8306 13.303 49.8306C12.9499 49.8306 12.6636 50.1168 12.6636 50.4699C12.6636 50.823 12.9499 51.1093 13.303 51.1093Z" fill="#F1DFC1"/>
<path d="M10.1744 49.735C10.5275 49.735 10.8137 49.4487 10.8137 49.0956C10.8137 48.7425 10.5275 48.4563 10.1744 48.4563C9.82126 48.4563 9.535 48.7425 9.535 49.0956C9.535 49.4487 9.82126 49.735 10.1744 49.735Z" fill="#F1DFC1"/>
<path d="M35.2831 51.1093C34.7063 51.1093 34.1988 51.0071 33.7703 50.7995C33.1936 50.5226 32.7684 50.0546 32.5971 49.5141C32.3598 48.7561 32.6663 47.8334 33.3353 47.2665C33.833 46.8447 34.4624 46.6469 35.0655 46.7161C35.7115 46.7919 36.2948 47.2006 36.5519 47.7576C36.8254 48.3508 36.7035 49.0989 36.2619 49.5405C35.7906 50.0085 34.9897 50.081 34.4789 49.6987C34.0637 49.3889 33.8956 48.8122 34.0966 48.387C34.2087 48.1497 34.4525 47.9718 34.7327 47.919C34.9864 47.8729 35.227 47.9388 35.3951 48.1003C35.4511 48.153 35.4511 48.242 35.3984 48.298C35.3457 48.3541 35.2567 48.3541 35.2007 48.3013C35.0985 48.2025 34.9469 48.1662 34.7821 48.1959C34.5877 48.2321 34.4229 48.3508 34.3471 48.509C34.1988 48.8188 34.3306 49.2439 34.6404 49.4746C35.0491 49.7778 35.6851 49.7185 36.0608 49.3428C36.4233 48.9835 36.5222 48.3673 36.2948 47.8762C36.0773 47.4049 35.5797 47.0589 35.0293 46.9963C34.5119 46.9369 33.945 47.1182 33.5133 47.4807C32.9267 47.9751 32.6597 48.7792 32.8607 49.4318C33.0058 49.8997 33.3815 50.3051 33.8857 50.549C34.3174 50.7566 34.8447 50.8489 35.4511 50.8258C36.4135 50.7896 37.4087 50.4831 38.404 49.9162C39.1719 49.4779 40.2628 48.7924 41.1065 48.0047C41.1592 47.9553 41.2383 47.9553 41.2911 47.9981C41.3471 48.0443 41.357 48.1201 41.3207 48.1794C40.9879 48.7199 40.7506 49.2011 40.5891 49.6592C41.703 48.6935 43.0147 47.9289 44.4022 47.4346C45.0152 47.2171 45.8259 46.9798 46.6564 47.0984C47.5133 47.2204 48.235 47.7444 48.4954 48.4332C48.6602 48.8682 48.6272 49.3823 48.4064 49.8371C48.1823 50.2952 47.8 50.6347 47.3551 50.7731C46.7915 50.9478 46.1588 50.8028 45.7765 50.4139C45.3513 49.9788 45.2854 49.2769 45.6249 48.8155C45.8028 48.5749 46.0961 48.4134 46.4191 48.3903C46.719 48.3673 47.0025 48.4628 47.1969 48.6507C47.2529 48.7034 47.2529 48.7924 47.2002 48.8484C47.1475 48.9045 47.0585 48.9045 47.0025 48.8484C46.8673 48.7166 46.663 48.6474 46.4455 48.6672C46.2049 48.6869 45.9841 48.8023 45.8556 48.9803C45.5985 49.3296 45.6578 49.8866 45.9808 50.2194C46.2906 50.5358 46.8113 50.6512 47.276 50.5094C47.6484 50.3941 47.9681 50.1074 48.1592 49.7185C48.3471 49.3296 48.3767 48.8979 48.2383 48.5353C48.0109 47.9388 47.3782 47.4873 46.6202 47.3786C45.8523 47.2698 45.0811 47.4939 44.4978 47.7015C42.9883 48.2387 41.5745 49.1022 40.4111 50.2029C40.365 50.2458 40.2991 50.2524 40.243 50.2227C40.1903 50.1931 40.1639 50.1304 40.1771 50.0678C40.2793 49.6394 40.4441 49.2077 40.6847 48.7364C39.953 49.3164 39.1489 49.8174 38.5425 50.1601C37.5076 50.75 36.4695 51.0664 35.461 51.106C35.405 51.1093 35.3424 51.1093 35.2831 51.1093Z" fill="#F1DFC1"/>
<path d="M33.8198 50.8126C33.7868 50.8126 33.7572 50.8027 33.7308 50.7796C33.3946 50.5061 33.1672 50.1831 33.0552 49.8206C32.8179 49.0626 33.1244 48.1398 33.7934 47.5729C34.2845 47.1577 34.9337 46.9534 35.5236 47.0226C35.728 47.0456 35.929 47.105 36.1201 47.1939C36.1894 47.2269 36.219 47.3093 36.1894 47.3818C36.1564 47.451 36.074 47.4807 36.0015 47.4477C35.8367 47.3719 35.6654 47.3225 35.4907 47.2994C34.9733 47.2368 34.4064 47.4213 33.9747 47.7839C33.3881 48.2782 33.1211 49.0824 33.3221 49.7349C33.4177 50.0414 33.6154 50.3215 33.9055 50.5588C33.9648 50.6083 33.9747 50.6972 33.9252 50.7566C33.9022 50.7961 33.8626 50.8126 33.8198 50.8126Z" fill="#F1DFC1"/>
<path d="M46.5527 50.816C46.4835 50.816 46.4242 50.7666 46.4143 50.6974C46.4044 50.6216 46.4571 50.549 46.5329 50.5392C46.935 50.4798 47.2744 50.2425 47.4919 49.8734C47.7325 49.4615 47.7853 48.9473 47.6304 48.5354C47.37 47.8565 46.5692 47.4478 45.9331 47.3588C45.8573 47.3489 45.8046 47.2764 45.8145 47.2006C45.8243 47.1248 45.8968 47.0721 45.9726 47.082C46.7109 47.1875 47.5908 47.6456 47.8907 48.4365C48.0753 48.9276 48.016 49.5307 47.7325 50.0151C47.4722 50.4601 47.0602 50.7468 46.5725 50.816C46.5659 50.816 46.5593 50.816 46.5527 50.816Z" fill="#F1DFC1"/>
<path d="M43.6142 51.1094H31.8025C31.7234 51.1094 31.6608 51.0468 31.6608 50.9677C31.6608 50.8886 31.7234 50.826 31.8025 50.826H43.6142C43.6933 50.826 43.7559 50.8886 43.7559 50.9677C43.7559 51.0468 43.6933 51.1094 43.6142 51.1094Z" fill="#F1DFC1"/>
<path d="M34.9705 49.2174C35.3236 49.2174 35.6099 48.9312 35.6099 48.5781C35.6099 48.225 35.3236 47.9387 34.9705 47.9387C34.6174 47.9387 34.3311 48.225 34.3311 48.5781C34.3311 48.9312 34.6174 49.2174 34.9705 49.2174Z" fill="#F1DFC1"/>
<path d="M43.6156 51.1093C43.9687 51.1093 44.255 50.823 44.255 50.4699C44.255 50.1168 43.9687 49.8305 43.6156 49.8305C43.2625 49.8305 42.9763 50.1168 42.9763 50.4699C42.9763 50.823 43.2625 51.1093 43.6156 51.1093Z" fill="#F1DFC1"/>
<path d="M46.7445 49.735C47.0976 49.735 47.3839 49.4487 47.3839 49.0956C47.3839 48.7425 47.0976 48.4563 46.7445 48.4563C46.3914 48.4563 46.1052 48.7425 46.1052 49.0956C46.1052 49.4487 46.3914 49.735 46.7445 49.735Z" fill="#F1DFC1"/>
<path d="M49.4554 23.9263C48.8325 23.9263 48.18 23.6264 47.7417 23.109C47.3198 22.6114 47.1221 21.9819 47.1913 21.3788C47.2671 20.7328 47.6758 20.1495 48.2327 19.8924C48.8259 19.6189 49.5741 19.7408 50.0157 20.1825C50.4837 20.6537 50.5562 21.4546 50.1739 21.9687C49.8641 22.384 49.2873 22.552 48.8622 22.351C48.6249 22.239 48.4469 21.9951 48.3942 21.7116C48.3481 21.4579 48.414 21.2173 48.5755 21.0492C48.6282 20.9932 48.7172 20.9932 48.7732 21.0459C48.8292 21.0987 48.8292 21.1876 48.7765 21.2437C48.6776 21.3458 48.6414 21.4974 48.671 21.6622C48.7073 21.8567 48.8259 22.0214 48.9841 22.0972C49.2939 22.2455 49.7191 22.1137 49.9498 21.8039C50.253 21.3953 50.1937 20.7592 49.8179 20.3835C49.4587 20.021 48.8424 19.9221 48.3514 20.1495C47.8801 20.367 47.534 20.8647 47.4714 21.415C47.4121 21.9325 47.5934 22.4993 47.9559 22.931C48.4502 23.5177 49.2544 23.7879 49.9069 23.5836C50.3716 23.4386 50.7803 23.0629 51.0242 22.5586C51.2318 22.1269 51.3241 21.5996 51.301 20.9932C51.2647 20.0309 50.9582 19.0356 50.3914 18.0403C49.9531 17.2724 49.2676 16.1815 48.4799 15.3378C48.4305 15.2851 48.4305 15.206 48.4733 15.1533C48.5162 15.1005 48.5952 15.0874 48.6546 15.1236C49.1951 15.4565 49.6762 15.6938 50.1343 15.8552C49.1687 14.738 48.4041 13.4296 47.9097 12.0422C47.6922 11.4292 47.455 10.6184 47.5736 9.78791C47.6955 8.93434 48.2195 8.20929 48.9083 7.94893C49.3434 7.78415 49.8542 7.81711 50.3123 8.03792C50.7704 8.26202 51.1098 8.64432 51.2483 9.08923C51.4229 9.65279 51.2779 10.2856 50.889 10.6679C50.454 11.093 49.752 11.1589 49.2906 10.8195C49.05 10.6415 48.8886 10.3449 48.8655 10.0252C48.8424 9.7253 48.938 9.44187 49.1258 9.25072C49.1819 9.19469 49.2676 9.19469 49.3236 9.24742C49.3796 9.30016 49.3796 9.38914 49.3236 9.44516C49.1918 9.58029 49.1225 9.78462 49.1423 10.0021C49.1621 10.2427 49.2774 10.4635 49.4554 10.5921C49.8048 10.8491 50.3617 10.7898 50.6946 10.4668C51.011 10.157 51.1263 9.63631 50.9813 9.17162C50.866 8.79921 50.5792 8.47953 50.1903 8.28838C49.8014 8.10053 49.373 8.07087 49.0072 8.20929C48.4107 8.43669 47.9592 9.06946 47.8504 9.82746C47.7417 10.5986 47.9658 11.3665 48.1734 11.9499C48.7106 13.4593 49.5741 14.8731 50.6748 16.0365C50.7177 16.0826 50.7242 16.1486 50.6946 16.2046C50.6649 16.2573 50.6023 16.2837 50.5397 16.2705C50.1113 16.1683 49.6795 16.0035 49.2082 15.763C49.7883 16.4946 50.2892 17.2987 50.632 17.9051C51.2219 18.94 51.5416 19.9781 51.5778 20.9866C51.6009 21.6391 51.4987 22.2126 51.2713 22.6839C50.9945 23.2606 50.5265 23.689 49.986 23.8571C49.8212 23.9 49.64 23.9263 49.4554 23.9263Z" fill="#F1DFC1"/>
<path d="M49.7655 23.4683C49.1426 23.4683 48.4901 23.1684 48.0517 22.651C47.6299 22.1534 47.4322 21.5206 47.5014 20.9208C47.5244 20.7165 47.5838 20.5154 47.6728 20.3243C47.7057 20.2551 47.7881 20.2254 47.8606 20.2584C47.9298 20.2913 47.9595 20.3737 47.9265 20.4462C47.8507 20.611 47.8013 20.7824 47.7815 20.957C47.7189 21.4745 47.9034 22.0413 48.266 22.4731C48.7603 23.0597 49.5645 23.3266 50.217 23.1256C50.5235 23.03 50.8003 22.8323 51.0409 22.5423C51.0904 22.4829 51.1794 22.4731 51.2387 22.5225C51.298 22.5719 51.3079 22.6609 51.2584 22.7202C50.9816 23.0564 50.6619 23.2838 50.2994 23.3958C50.128 23.442 49.9501 23.4683 49.7655 23.4683Z" fill="#F1DFC1"/>
<path d="M47.6961 10.6352C47.6895 10.6352 47.6829 10.6352 47.6763 10.6352C47.6005 10.6253 47.5478 10.5528 47.5577 10.477C47.6598 9.7618 48.1245 8.85879 48.9122 8.55888C49.4033 8.37103 50.0064 8.43365 50.4908 8.71708C50.9357 8.97744 51.2225 9.38939 51.2917 9.87715C51.3016 9.95295 51.2488 10.0255 51.173 10.0353C51.0972 10.0452 51.0247 9.9925 51.0148 9.9167C50.9555 9.51463 50.7182 9.17517 50.3491 8.95766C49.9372 8.71708 49.423 8.66435 49.0111 8.81924C48.3322 9.0796 47.9235 9.88045 47.8345 10.5165C47.8279 10.5824 47.7653 10.6352 47.6961 10.6352Z" fill="#F1DFC1"/>
<path d="M51.4464 24.7834C51.3673 24.7834 51.3047 24.7208 51.3047 24.6417V12.83C51.3047 12.7509 51.3673 12.6883 51.4464 12.6883C51.5255 12.6883 51.5881 12.7509 51.5881 12.83V24.6417C51.5881 24.7208 51.5255 24.7834 51.4464 24.7834Z" fill="#F1DFC1"/>
<path d="M49.0546 22.1138C48.702 22.1138 48.4153 21.8271 48.4153 21.4744C48.4153 21.1218 48.702 20.8351 49.0546 20.8351C49.4072 20.8351 49.694 21.1218 49.694 21.4744C49.694 21.8271 49.4072 22.1138 49.0546 22.1138Z" fill="#F1DFC1"/>
<path d="M50.9458 13.4692C51.299 13.4692 51.5852 13.183 51.5852 12.8298C51.5852 12.4767 51.299 12.1905 50.9458 12.1905C50.5927 12.1905 50.3065 12.4767 50.3065 12.8298C50.3065 13.183 50.5927 13.4692 50.9458 13.4692Z" fill="#F1DFC1"/>
<path d="M49.5741 10.3415C49.9273 10.3415 50.2135 10.0552 50.2135 9.70214C50.2135 9.34903 49.9273 9.06277 49.5741 9.06277C49.221 9.06277 48.9348 9.34903 48.9348 9.70214C48.9348 10.0552 49.221 10.3415 49.5741 10.3415Z" fill="#F1DFC1"/>
<path d="M49.4946 48.1368C49.2936 48.1368 49.0958 48.1005 48.9146 48.0313C48.2258 47.7677 47.7018 47.0459 47.5798 46.1923C47.4612 45.3618 47.6985 44.5511 47.916 43.9381C48.4103 42.5506 49.1749 41.2423 50.1406 40.125C49.6825 40.2865 49.2013 40.5238 48.6608 40.8567C48.6015 40.8929 48.5224 40.8797 48.4795 40.827C48.4334 40.7743 48.4367 40.6952 48.4861 40.6424C49.2738 39.802 49.9593 38.7079 50.3976 37.94C50.9645 36.9447 51.271 35.9494 51.3072 34.9871C51.3303 34.3807 51.2347 33.8534 51.0304 33.4216C50.7865 32.9141 50.3811 32.5417 49.9132 32.3967C49.2606 32.1923 48.4598 32.4626 47.9621 33.0492C47.5963 33.481 47.415 34.0478 47.4776 34.5652C47.5436 35.1156 47.8896 35.61 48.3576 35.8308C48.8453 36.0582 49.4649 35.9593 49.8242 35.5968C50.1999 35.2211 50.2592 34.585 49.956 34.1763C49.7253 33.8632 49.3002 33.7347 48.9904 33.883C48.8322 33.9588 48.7135 34.1236 48.6773 34.318C48.6476 34.4828 48.6872 34.6344 48.7827 34.7366C48.8355 34.7926 48.8355 34.8816 48.7794 34.9343C48.7234 34.9871 48.6344 34.9871 48.5817 34.931C48.4202 34.763 48.3543 34.5224 48.4004 34.2686C48.4499 33.9885 48.6311 33.7446 48.8684 33.6293C49.2936 33.4249 49.8703 33.593 50.1801 34.0116C50.5624 34.5257 50.4899 35.3265 50.0219 35.7978C49.5803 36.2394 48.8322 36.3614 48.2389 36.0878C47.682 35.8308 47.2733 35.2474 47.1975 34.6015C47.125 34.0017 47.326 33.3689 47.7479 32.8713C48.3147 32.1989 49.2375 31.8957 49.9955 32.133C50.536 32.3011 51.004 32.7295 51.2809 33.3063C51.5083 33.7809 51.6104 34.351 51.5874 35.0035C51.5511 36.012 51.2314 37.0502 50.6415 38.085C50.2955 38.6914 49.7978 39.4955 49.2178 40.2272C49.689 39.9866 50.1208 39.8218 50.5492 39.7197C50.6085 39.7032 50.6712 39.7328 50.7041 39.7856C50.7338 39.8383 50.7272 39.9075 50.6843 39.9536C49.5836 41.117 48.7201 42.5309 48.1829 44.0403C47.9753 44.6236 47.7512 45.3915 47.86 46.1627C47.9654 46.9174 48.4202 47.5535 49.0167 47.7809C49.3792 47.9193 49.811 47.8896 50.1999 47.7018C50.5888 47.5139 50.8755 47.1909 50.9908 46.8185C51.1359 46.3538 51.0205 45.8331 50.7041 45.5233C50.3713 45.1971 49.8176 45.141 49.4649 45.3981C49.2903 45.5266 49.1716 45.7474 49.1519 45.988C49.1354 46.2055 49.2013 46.4099 49.3331 46.545C49.3858 46.601 49.3858 46.69 49.3331 46.7427C49.2771 46.7955 49.1881 46.7955 49.1354 46.7394C48.9442 46.545 48.8486 46.2616 48.875 45.9616C48.9014 45.642 49.0596 45.3454 49.3002 45.1674C49.7616 44.8279 50.4668 44.8939 50.8986 45.319C51.2874 45.7013 51.4325 46.3341 51.2578 46.8976C51.1194 47.3425 50.7799 47.7248 50.3218 47.9489C50.0516 48.0709 49.7681 48.1335 49.4946 48.1368Z" fill="#F1DFC1"/>
<path d="M47.8004 35.7316C47.7477 35.7316 47.6983 35.7019 47.6752 35.6525C47.5862 35.4613 47.5269 35.2603 47.5038 35.056C47.4346 34.4627 47.6389 33.8168 48.0542 33.3257C48.621 32.6567 49.5438 32.3502 50.3018 32.5875C50.6611 32.6995 50.984 32.9269 51.2609 33.2631C51.3103 33.3224 51.3004 33.4114 51.2411 33.4608C51.1818 33.5103 51.0928 33.5004 51.0433 33.4411C50.8028 33.1478 50.5259 32.9533 50.2194 32.8577C49.5669 32.6534 48.766 32.9237 48.2684 33.5103C47.9026 33.942 47.7213 34.5089 47.7839 35.0263C47.8037 35.201 47.8531 35.3723 47.9322 35.5371C47.9652 35.6063 47.9355 35.692 47.8663 35.725C47.84 35.7283 47.8202 35.7316 47.8004 35.7316Z" fill="#F1DFC1"/>
<path d="M49.5134 47.5237C49.3057 47.5237 49.0981 47.4874 48.9103 47.4182C48.1226 47.1183 47.6579 46.2153 47.5557 45.5001C47.5458 45.4243 47.5986 45.3518 47.6744 45.342C47.7502 45.3288 47.8227 45.3848 47.8326 45.4606C47.9216 46.0967 48.3302 46.8975 49.0091 47.1579C49.4211 47.3161 49.9319 47.2633 50.3472 47.0194C50.7163 46.8019 50.9536 46.4625 51.0129 46.0604C51.0228 45.9846 51.0953 45.9286 51.1711 45.9418C51.2469 45.9517 51.2996 46.0242 51.2897 46.1C51.2172 46.5877 50.9338 46.9997 50.4889 47.26C50.1923 47.4347 49.8462 47.5237 49.5134 47.5237Z" fill="#F1DFC1"/>
<path d="M51.4448 43.2822C51.3657 43.2822 51.303 43.2196 51.303 43.1405V31.3255C51.303 31.2464 51.3657 31.1838 51.4448 31.1838C51.5239 31.1838 51.5865 31.2464 51.5865 31.3255V43.1405C51.5865 43.2196 51.5239 43.2822 51.4448 43.2822Z" fill="#F1DFC1"/>
<path d="M49.0528 33.8599C48.7002 33.8599 48.4135 34.1466 48.4135 34.4993C48.4135 34.8519 48.7002 35.1386 49.0528 35.1386C49.4054 35.1386 49.6922 34.8519 49.6922 34.4993C49.6922 34.1466 49.4054 33.8599 49.0528 33.8599Z" fill="#F1DFC1"/>
<path d="M50.9463 43.783C51.2994 43.783 51.5857 43.4967 51.5857 43.1436C51.5857 42.7905 51.2994 42.5043 50.9463 42.5043C50.5932 42.5043 50.3069 42.7905 50.3069 43.1436C50.3069 43.4967 50.5932 43.783 50.9463 43.783Z" fill="#F1DFC1"/>
<path d="M49.5723 46.9104C49.9255 46.9104 50.2117 46.6242 50.2117 46.2711C50.2117 45.918 49.9255 45.6317 49.5723 45.6317C49.2192 45.6317 48.933 45.918 48.933 46.2711C48.933 46.6242 49.2192 46.9104 49.5723 46.9104Z" fill="#F1DFC1"/>
<path d="M7.46857 23.9265C7.28401 23.9265 7.10605 23.9002 6.93467 23.8475C6.39418 23.6794 5.92621 23.2509 5.64937 22.6742C5.42197 22.1996 5.31981 21.6295 5.34288 20.9769C5.37913 19.9684 5.69881 18.9303 6.28873 17.8955C6.63478 17.2891 7.13243 16.4849 7.71247 15.7533C7.24448 15.9939 6.80944 16.1587 6.381 16.2608C6.32168 16.274 6.25907 16.2476 6.22612 16.1949C6.19645 16.1422 6.20304 16.073 6.24589 16.0268C7.34664 14.8635 8.2101 13.4496 8.74729 11.9402C8.95492 11.3569 9.17904 10.589 9.07028 9.81779C8.96152 9.06308 8.51001 8.42702 7.9135 8.19962C7.55097 8.0612 7.11923 8.09086 6.73034 8.27871C6.34145 8.46656 6.05474 8.78954 5.93939 9.16195C5.79438 9.62664 5.91303 10.1474 6.22941 10.4571C6.56228 10.7834 7.11593 10.8394 7.46857 10.5824C7.64653 10.4539 7.76189 10.233 7.78166 9.99246C7.79814 9.77494 7.73223 9.57061 7.6004 9.43549C7.54767 9.37947 7.54767 9.29048 7.6004 9.23775C7.65643 9.18502 7.74541 9.18502 7.79814 9.24105C7.98928 9.43549 8.08487 9.71892 8.05851 10.0155C8.03214 10.3352 7.87395 10.6318 7.63007 10.8098C7.16868 11.1492 6.46339 11.08 6.03166 10.6582C5.64277 10.2759 5.49777 9.64312 5.67245 9.07956C5.81086 8.63464 6.15031 8.25235 6.6084 8.02824C7.0665 7.80413 7.57733 7.77118 8.01236 7.93926C8.70116 8.20291 9.22516 8.92466 9.3471 9.77824C9.46575 10.6088 9.22847 11.4195 9.01096 12.0325C8.5199 13.42 7.75531 14.7283 6.78638 15.8456C7.24448 15.6841 7.72565 15.4468 8.26614 15.1139C8.32546 15.0777 8.40455 15.0909 8.44739 15.1436C8.49353 15.1963 8.49023 15.2754 8.4408 15.3281C7.65313 16.1685 6.96764 17.2627 6.52931 18.0306C5.96246 19.0259 5.65596 20.0212 5.6197 20.9835C5.59663 21.5899 5.69222 22.1172 5.89655 22.549C6.14043 23.0565 6.54578 23.4289 7.01376 23.5739C7.66631 23.7782 8.46717 23.508 8.96482 22.9214C9.33063 22.4896 9.51189 21.9228 9.44927 21.4054C9.38336 20.855 9.03732 20.3606 8.56933 20.1398C8.07828 19.9124 7.46198 20.0113 7.10275 20.3738C6.72705 20.7495 6.67103 21.3856 6.97094 21.7942C7.20493 22.1073 7.62678 22.2359 7.93657 22.0876C8.09476 22.0118 8.21339 21.847 8.24964 21.6525C8.2793 21.4878 8.23977 21.3362 8.1442 21.234C8.09147 21.178 8.09145 21.089 8.14748 21.0362C8.2035 20.9835 8.2925 20.9835 8.34523 21.0395C8.50672 21.2076 8.57263 21.4482 8.52649 21.702C8.47705 21.9821 8.29579 22.226 8.05851 22.3413C7.63337 22.5457 7.05661 22.3776 6.74682 21.959C6.36452 21.4449 6.43704 20.6441 6.90502 20.1728C7.34664 19.7312 8.09475 19.6092 8.68797 19.8828C9.24494 20.1398 9.65361 20.7232 9.72941 21.3691C9.80192 21.9722 9.60087 22.6017 9.17902 23.0993C8.74399 23.6266 8.09145 23.9265 7.46857 23.9265Z" fill="#F1DFC1"/>
<path d="M7.16054 23.4686C6.97927 23.4686 6.79801 23.4423 6.62664 23.3895C6.26412 23.2775 5.94444 23.0501 5.66761 22.7139C5.61817 22.6546 5.62806 22.5656 5.68738 22.5162C5.7467 22.4667 5.83568 22.4766 5.88511 22.5359C6.1257 22.8293 6.40253 23.0237 6.70903 23.1193C7.36157 23.3236 8.16244 23.0567 8.66008 22.4667C9.0259 22.035 9.20715 21.4682 9.14454 20.9507C9.12476 20.7761 9.07532 20.6047 8.99623 20.4399C8.96327 20.3707 8.99294 20.285 9.06544 20.2521C9.13465 20.2191 9.22034 20.2488 9.2533 20.318C9.34228 20.5091 9.40161 20.7101 9.42468 20.9145C9.49718 21.5143 9.29613 22.1471 8.87429 22.6447C8.43596 23.1687 7.78342 23.4686 7.16054 23.4686Z" fill="#F1DFC1"/>
<path d="M9.22823 10.6352C9.15902 10.6352 9.0997 10.5857 9.08981 10.5132C9.00083 9.87715 8.59217 9.0763 7.91326 8.81595C7.5013 8.66105 6.99047 8.71378 6.57522 8.95437C6.2061 9.17188 5.96881 9.51133 5.90949 9.9134C5.8996 9.9892 5.8271 10.0419 5.7513 10.032C5.6755 10.0222 5.62277 9.94966 5.63266 9.87386C5.70517 9.3861 5.98859 8.97414 6.43351 8.71378C6.91797 8.43035 7.52107 8.36774 8.01212 8.55559C8.79979 8.8555 9.26447 9.75851 9.36664 10.4737C9.37653 10.5495 9.3238 10.622 9.248 10.6319C9.24141 10.6352 9.23482 10.6352 9.22823 10.6352Z" fill="#F1DFC1"/>
<path d="M5.4793 24.7833C5.4002 24.7833 5.33759 24.7207 5.33759 24.6416V12.8299C5.33759 12.7509 5.4002 12.6882 5.4793 12.6882C5.55839 12.6882 5.62101 12.7509 5.62101 12.8299V24.6416C5.61771 24.7207 5.5551 24.7833 5.4793 24.7833Z" fill="#F1DFC1"/>
<path d="M7.87255 22.114C8.22565 22.114 8.51191 21.8278 8.51191 21.4747C8.51191 21.1216 8.22565 20.8353 7.87255 20.8353C7.51944 20.8353 7.23318 21.1216 7.23318 21.4747C7.23318 21.8278 7.51944 22.114 7.87255 22.114Z" fill="#F1DFC1"/>
<path d="M5.97905 13.4695C6.33216 13.4695 6.61841 13.1833 6.61841 12.8302C6.61841 12.477 6.33216 12.1908 5.97905 12.1908C5.62594 12.1908 5.33969 12.477 5.33969 12.8302C5.33969 13.1833 5.62594 13.4695 5.97905 13.4695Z" fill="#F1DFC1"/>
<path d="M7.35301 10.3417C7.70612 10.3417 7.99237 10.0555 7.99237 9.70235C7.99237 9.34924 7.70612 9.06299 7.35301 9.06299C6.99991 9.06299 6.71365 9.34924 6.71365 9.70235C6.71365 10.0555 6.99991 10.3417 7.35301 10.3417Z" fill="#F1DFC1"/>
<path d="M7.43006 48.1367C7.15323 48.1367 6.8698 48.0708 6.60615 47.9422C6.14805 47.7181 5.80861 47.3358 5.67019 46.8909C5.49552 46.3274 5.64051 45.6946 6.0294 45.3123C6.46443 44.8871 7.16642 44.8212 7.62782 45.1607C7.8684 45.3387 8.02988 45.6353 8.05625 45.9549C8.07932 46.2548 7.98375 46.5383 7.7959 46.7327C7.74317 46.7887 7.65417 46.7887 7.59815 46.736C7.54212 46.6833 7.54212 46.5943 7.59815 46.5383C7.72997 46.4031 7.79918 46.1988 7.7794 45.9813C7.75963 45.7407 7.6443 45.5199 7.46633 45.3914C7.11699 45.1343 6.56002 45.1936 6.22716 45.5166C5.91077 45.8264 5.79542 46.3471 5.93714 46.8118C6.05248 47.1842 6.33919 47.5039 6.72808 47.6951C7.11697 47.8829 7.54871 47.9126 7.91124 47.7741C8.50775 47.5467 8.95926 46.914 9.06802 46.156C9.17678 45.3848 8.95266 44.6169 8.74503 44.0336C8.20784 42.5241 7.34438 41.1103 6.24363 39.9469C6.20079 39.9008 6.1942 39.8349 6.22386 39.7789C6.25352 39.7261 6.31942 39.6965 6.37874 39.7129C6.80718 39.8151 7.23893 39.9799 7.71021 40.2205C7.13017 39.4888 6.63252 38.6847 6.28648 38.0783C5.69655 37.0434 5.37687 36.0053 5.34062 34.9968C5.31755 34.3443 5.41971 33.7709 5.64711 33.2996C5.92395 32.7228 6.39192 32.2944 6.93241 32.1263C7.68712 31.889 8.61321 32.1955 9.18006 32.8645C9.60191 33.3622 9.79966 33.995 9.73045 34.5948C9.65465 35.2407 9.24598 35.8241 8.68901 36.0811C8.09579 36.3547 7.34768 36.2327 6.90606 35.7911C6.43808 35.3198 6.36556 34.519 6.74786 34.0048C7.05765 33.5896 7.63441 33.4215 8.05955 33.6225C8.29683 33.7346 8.4748 33.9818 8.52753 34.2619C8.57367 34.5157 8.50776 34.7563 8.34627 34.9243C8.29354 34.9804 8.20454 34.9804 8.14852 34.9276C8.09249 34.8749 8.09251 34.7859 8.14524 34.7299C8.24411 34.6277 8.28034 34.4761 8.25068 34.3113C8.21443 34.1169 8.0958 33.9521 7.93761 33.8763C7.62782 33.728 7.20268 33.8598 6.97198 34.1729C6.66878 34.5783 6.72809 35.2177 7.10379 35.5934C7.46302 35.9559 8.07932 36.0547 8.57037 35.8273C9.04165 35.6098 9.38769 35.1122 9.45031 34.5618C9.50963 34.0444 9.32838 33.4775 8.96586 33.0458C8.47151 32.4592 7.66735 32.1922 7.01481 32.3933C6.55012 32.5383 6.14147 32.9107 5.89759 33.4182C5.68996 33.8499 5.59767 34.3773 5.62074 34.9837C5.657 35.946 5.9635 36.9413 6.53035 37.9366C6.96868 38.7045 7.65417 39.7986 8.44184 40.639C8.49127 40.6918 8.49128 40.7709 8.44843 40.8236C8.40559 40.8763 8.3265 40.8895 8.26718 40.8532C7.72669 40.5204 7.24552 40.2831 6.78742 40.1216C7.75305 41.2388 8.51765 42.5472 9.012 43.9347C9.22951 44.5477 9.46679 45.3584 9.34814 46.1889C9.2262 47.0458 8.7022 47.7676 8.0134 48.0279C7.82885 48.1004 7.6311 48.1367 7.43006 48.1367Z" fill="#F1DFC1"/>
<path d="M9.12461 35.7316C9.10484 35.7316 9.08506 35.7283 9.06529 35.7184C8.99608 35.6854 8.96641 35.603 8.99607 35.5305C9.07187 35.3657 9.12131 35.1944 9.14438 35.0197C9.207 34.5023 9.02245 33.9354 8.65993 33.5037C8.16558 32.9171 7.36142 32.6501 6.70888 32.8511C6.40238 32.9467 6.12225 33.1445 5.88496 33.4345C5.83553 33.4938 5.74655 33.5037 5.68723 33.4543C5.62791 33.4048 5.61802 33.3158 5.66746 33.2565C5.941 32.9204 6.26396 32.693 6.62649 32.5809C7.38449 32.3436 8.30728 32.6501 8.87414 33.3191C9.28939 33.8102 9.49374 34.4561 9.42453 35.0494C9.40146 35.2537 9.34213 35.4547 9.25315 35.6459C9.22678 35.7019 9.17734 35.7316 9.12461 35.7316Z" fill="#F1DFC1"/>
<path d="M7.40886 47.5237C7.0727 47.5237 6.72996 47.4348 6.43335 47.2601C5.98844 46.9997 5.70172 46.5878 5.63251 46.1C5.62262 46.0242 5.67535 45.9517 5.75115 45.9418C5.82695 45.9286 5.89945 45.9847 5.90933 46.0605C5.96866 46.4625 6.20595 46.802 6.57506 47.0195C6.98702 47.2601 7.50115 47.3128 7.91311 47.1579C8.59201 46.8976 9.00068 46.0967 9.08966 45.4607C9.09955 45.3849 9.17534 45.3321 9.24785 45.342C9.32365 45.3519 9.37637 45.4244 9.36649 45.5002C9.26432 46.2154 8.79964 47.1184 8.01197 47.4183C7.82412 47.4908 7.61649 47.5237 7.40886 47.5237Z" fill="#F1DFC1"/>
<path d="M5.4793 43.2821C5.4002 43.2821 5.33759 43.2194 5.33759 43.1403V31.3254C5.33759 31.2463 5.4002 31.1837 5.4793 31.1837C5.55839 31.1837 5.62101 31.2463 5.62101 31.3254V43.1403C5.61771 43.2194 5.5551 43.2821 5.4793 43.2821Z" fill="#F1DFC1"/>
<path d="M7.87239 35.1386C8.2255 35.1386 8.51175 34.8523 8.51175 34.4992C8.51175 34.1461 8.2255 33.8599 7.87239 33.8599C7.51928 33.8599 7.23303 34.1461 7.23303 34.4992C7.23303 34.8523 7.51928 35.1386 7.87239 35.1386Z" fill="#F1DFC1"/>
<path d="M5.9789 43.783C6.33201 43.783 6.61826 43.4968 6.61826 43.1437C6.61826 42.7906 6.33201 42.5043 5.9789 42.5043C5.62579 42.5043 5.33954 42.7906 5.33954 43.1437C5.33954 43.4968 5.62579 43.783 5.9789 43.783Z" fill="#F1DFC1"/>
<path d="M7.35286 46.9104C7.70597 46.9104 7.99222 46.6242 7.99222 46.271C7.99222 45.9179 7.70597 45.6317 7.35286 45.6317C6.99975 45.6317 6.7135 45.9179 6.7135 46.271C6.7135 46.6242 6.99975 46.9104 7.35286 46.9104Z" fill="#F1DFC1"/>
<path d="M52.1226 51.7879H4.80007C4.72097 51.7879 4.65836 51.7253 4.65836 51.6462V4.32372C4.65836 4.24462 4.72097 4.18201 4.80007 4.18201H52.1226C52.2017 4.18201 52.2643 4.24462 52.2643 4.32372V51.6462C52.2643 51.7253 52.2017 51.7879 52.1226 51.7879ZM4.93848 51.5078H51.9809V4.46543H4.93848V51.5078Z" fill="#F1DFC1"/>
<path d="M28.296 29.7696C28.263 29.7993 28.2267 29.8256 28.1938 29.8553C28.1246 29.9113 28.0488 29.9674 27.9763 30.0201L26.4735 33.7673H24.9706L23.2602 29.8652C23.1811 29.8026 23.1053 29.7367 23.0295 29.6674L22.9965 29.6938C21.3322 31.134 20.8906 33.3553 20.7752 34.5253H30.5074C30.1877 31.1077 28.764 29.9344 28.3948 29.6839C28.3619 29.7136 28.3289 29.7433 28.296 29.7696Z" fill="#E9A39B"/>
<path d="M22.0309 26.7673C22.0309 28.8007 23.6854 30.4551 25.7188 30.4551C27.7522 30.4551 29.4066 28.8007 29.4066 26.7673C29.4066 24.7339 27.7522 23.0794 25.7188 23.0794C23.6854 23.0794 22.0309 24.7339 22.0309 26.7673Z" fill="#E9A39B"/>
<path d="M36.3675 31.5525L36.3774 31.48C36.0577 30.6989 35.8962 29.7728 35.7413 28.8764C35.6458 28.326 35.5568 27.7954 35.4316 27.3176C35.392 27.1099 35.3261 26.9122 35.2437 26.7243C35.1547 26.4903 35.0493 26.2794 34.9207 26.0982C34.7823 25.9037 34.4066 25.3731 33.5563 25.1984C33.2828 25.1095 32.9895 25.06 32.6863 25.06C32.0766 25.06 31.5427 25.2611 31.1043 25.5972C30.6891 25.8576 30.3793 26.2564 30.1486 26.8298C30.0003 27.1528 29.8915 27.5054 29.8256 27.8679C29.8091 27.9701 29.796 28.0657 29.7927 28.1613C29.7729 28.2799 29.7531 28.4051 29.7333 28.5337C29.6477 29.1368 29.7103 29.9211 29.8256 30.666C30.3134 31.447 30.8011 32.6697 30.9725 34.5252H36.5356C36.496 34.0144 36.3675 33.141 35.972 32.271C36.1566 32.1787 36.272 32.1029 36.2851 32.093L36.3181 32.0271L36.2785 31.9678C36.272 31.9645 35.6557 31.6448 35.4909 31.213C35.7084 31.4273 35.9622 31.5129 36.3016 31.5756L36.3675 31.5525Z" fill="#E9A39B"/>
<path d="M27.3835 20.7856H31.9579C32.4951 20.7856 32.9301 20.3506 32.9301 19.8134V14.5074C32.9301 13.9702 32.4951 13.5352 31.9579 13.5352H22.1071C21.57 13.5352 21.1349 13.9702 21.1349 14.5074V19.8134C21.1349 20.3506 21.57 20.7856 22.1071 20.7856H26.0652L25.9334 22.4532L27.3835 20.7856Z" fill="#E9A39B"/>
<path d="M36.2183 22.473V18.8411C36.2183 18.505 35.9447 18.2314 35.6086 18.2314H33.3675V20.1462C33.3675 20.723 32.8962 21.1943 32.3195 21.1943H29.3633V22.4697C29.3633 22.8058 29.6368 23.0794 29.973 23.0794H32.9786L33.8849 24.1208L33.8025 23.0794H35.6086C35.9447 23.0827 36.2183 22.8091 36.2183 22.473Z" fill="#E9A39B"/>
<path d="M24.9673 33.7639H26.4701L26.0977 31.3152H26.0845L26.4503 30.6429H24.987L25.3528 31.3152H25.3397L24.9673 33.7639Z" fill="#E9A39B"/>
<path d="M44.0839 41.5313C43.7201 41.5313 43.6608 41.3612 43.6726 41.2386C43.6845 41.0923 43.8308 40.946 44.0918 40.8234L44.1195 40.8471C44.0681 40.9183 44.0207 41.0053 44.0207 41.1121C44.0207 41.2624 44.1037 41.4008 44.3331 41.4048C44.5308 41.4087 44.689 41.2584 44.689 41.037C44.689 40.7364 44.3608 40.424 44.3608 40.1432C44.3608 39.7912 44.8156 39.4985 45.2822 39.4985C45.4207 39.4985 45.65 39.5341 45.65 39.6093C45.65 39.716 45.5512 39.8861 45.3692 39.8861C45.2387 39.8861 45.0331 39.7754 44.8077 39.6567C44.7207 39.7042 44.693 39.7912 44.693 39.8742C44.693 40.1946 45.0449 40.5149 45.0252 40.8511C45.0054 41.211 44.4715 41.5313 44.0839 41.5313Z" fill="#A98B83"/>
<path d="M41.4596 41.5036C41.4003 41.5036 41.3765 41.4641 41.4121 41.4048C41.6732 40.9618 42.1952 40.0166 42.1952 39.8268C42.1952 39.7635 42.1675 39.7279 42.0963 39.7279C42.0212 39.7279 41.8828 39.811 41.7206 39.9613L41.685 39.9217C42.0133 39.6172 42.2426 39.4946 42.389 39.4946C42.5472 39.4946 42.6025 39.6053 42.6025 39.7002C42.6025 39.8703 42.4127 40.2895 42.211 40.681C42.4048 40.4319 42.6025 40.2144 42.7884 40.0325C43.1364 39.6963 43.4528 39.4946 43.6466 39.4946C43.7732 39.4946 43.8562 39.5974 43.8562 39.724C43.8602 40.0957 43.1997 40.9381 43.1997 41.1675C43.1997 41.2387 43.2353 41.2822 43.3104 41.2822C43.3895 41.2822 43.5161 41.1952 43.6506 41.0686L43.6862 41.1082C43.3579 41.4127 43.1404 41.5353 43.0178 41.5353C42.828 41.5353 42.7765 41.385 42.7765 41.2861C42.7765 40.8432 43.441 40.0957 43.441 39.8387C43.441 39.7754 43.4133 39.7279 43.3421 39.7279C43.2195 39.7279 43.0494 39.8624 42.824 40.072C42.5669 40.3172 42.2703 40.6652 42.033 41.0132C41.9263 41.211 41.8313 41.3692 41.7799 41.4483C41.7562 41.4878 41.7285 41.5036 41.685 41.5036H41.4596Z" fill="#A98B83"/>
<path d="M40.054 41.5353C39.7653 41.5353 39.5992 41.3178 39.5992 41.0449C39.5992 40.3488 40.5206 39.4946 41.0624 39.4946C41.4065 39.4946 41.4737 39.7793 41.4737 39.9494C41.4737 40.8234 40.4415 41.5353 40.054 41.5353ZM39.9946 40.8748C39.9946 41.0726 40.05 41.3415 40.3387 41.3415C40.7975 41.3415 41.0782 40.5268 41.0782 40.0957C41.0782 39.8189 40.9517 39.6963 40.746 39.6963C40.2992 39.6963 39.9946 40.3765 39.9946 40.8748Z" fill="#A98B83"/>
<path d="M38.6378 41.5352C38.4717 41.5352 38.4044 41.3889 38.4044 41.2703C38.4044 40.8748 39.1242 40.0285 39.1242 39.8149C39.1242 39.7674 39.1084 39.7279 39.0372 39.7279C38.9621 39.7279 38.8237 39.8109 38.6615 39.9612L38.6259 39.9217C38.9542 39.6172 39.1835 39.4946 39.3299 39.4946C39.4881 39.4946 39.5434 39.6053 39.5434 39.7002C39.5434 40.064 38.8672 40.8471 38.8672 41.0923C38.8672 41.1793 38.9146 41.2228 38.9977 41.2228C39.0689 41.2228 39.1559 41.1951 39.2903 41.0686L39.3259 41.1081C38.9977 41.4126 38.7841 41.5352 38.6378 41.5352ZM39.4802 39.2256L40.1525 38.581C40.2078 38.5296 40.2632 38.4742 40.2988 38.4742C40.3265 38.4742 40.3344 38.5019 40.3344 38.5375C40.3344 38.6245 40.3146 38.6482 40.2157 38.7234L39.5039 39.2573L39.4802 39.2256Z" fill="#A98B83"/>
<path d="M35.9593 41.5036C35.9 41.5036 35.8762 41.4641 35.9118 41.4048C36.1729 40.9618 36.6949 40.0166 36.6949 39.8268C36.6949 39.7635 36.6672 39.7279 36.596 39.7279C36.5209 39.7279 36.3825 39.811 36.2203 39.9613L36.1847 39.9217C36.513 39.6172 36.7423 39.4946 36.8887 39.4946C37.0469 39.4946 37.1022 39.6053 37.1022 39.7002C37.1022 39.8703 36.9124 40.2895 36.7107 40.681C36.9045 40.4319 37.1022 40.2144 37.2881 40.0325C37.6361 39.6963 37.9525 39.4946 38.1463 39.4946C38.2729 39.4946 38.3559 39.5974 38.3559 39.724C38.3599 40.0957 37.6994 40.9381 37.6994 41.1675C37.6994 41.2387 37.735 41.2822 37.8101 41.2822C37.8892 41.2822 38.0158 41.1952 38.1503 41.0686L38.1858 41.1082C37.8576 41.4127 37.6401 41.5353 37.5175 41.5353C37.3277 41.5353 37.2762 41.385 37.2762 41.2861C37.2762 40.8432 37.9406 40.0957 37.9406 39.8387C37.9406 39.7754 37.913 39.7279 37.8418 39.7279C37.7192 39.7279 37.5491 39.8624 37.3237 40.072C37.0666 40.3172 36.77 40.6652 36.5327 41.0132C36.426 41.211 36.331 41.3692 36.2796 41.4483C36.2559 41.4878 36.2282 41.5036 36.1847 41.5036H35.9593Z" fill="#A98B83"/>
<path d="M35.0894 41.5352C34.9233 41.5352 34.856 41.3889 34.856 41.2703C34.856 40.8748 35.5758 40.0285 35.5758 39.8149C35.5758 39.7674 35.56 39.7279 35.4888 39.7279C35.4137 39.7279 35.2753 39.8109 35.1131 39.9612L35.0775 39.9217C35.4058 39.6172 35.6351 39.4946 35.7815 39.4946C35.9397 39.4946 35.995 39.6053 35.995 39.7002C35.995 40.064 35.3188 40.8471 35.3188 41.0923C35.3188 41.1793 35.3662 41.2228 35.4493 41.2228C35.5205 41.2228 35.6075 41.1951 35.7419 41.0686L35.7775 41.1081C35.4493 41.4126 35.2357 41.5352 35.0894 41.5352ZM35.9318 39.2256L36.6041 38.581C36.6594 38.5296 36.7148 38.4742 36.7504 38.4742C36.7781 38.4742 36.786 38.5019 36.786 38.5375C36.786 38.6245 36.7662 38.6482 36.6673 38.7234L35.9555 39.2573L35.9318 39.2256Z" fill="#A98B83"/>
<path d="M31.931 42.5714C31.8717 42.5714 31.844 42.5319 31.8717 42.4765L32.8959 40.5268C33.1095 40.1155 33.1609 39.9336 33.1609 39.8308C33.1609 39.7754 33.1451 39.7319 33.0779 39.7319C33.0067 39.7319 32.8762 39.811 32.714 39.9929L32.6784 39.9573C32.9909 39.6251 33.1847 39.4946 33.331 39.4946C33.4773 39.4946 33.5564 39.6053 33.5564 39.7319C33.5564 39.8347 33.501 40.072 33.24 40.5861L33.1767 40.7087C33.6948 40.1036 34.2169 39.4946 34.5886 39.4986C34.7389 39.4986 34.8417 39.6528 34.8417 39.8268C34.8417 40.5466 33.9321 41.5313 33.2361 41.5313C33.0541 41.5313 32.9355 41.4166 32.8722 41.3059L32.2592 42.5161C32.2395 42.5556 32.2118 42.5714 32.1683 42.5714H31.931ZM33.0621 40.9341C33.153 41.1675 33.3508 41.3494 33.5524 41.3494C34.0784 41.3494 34.4541 40.4675 34.4541 39.9929C34.4541 39.811 34.4067 39.7319 34.3157 39.7319C34.1022 39.7319 33.5485 40.3212 33.0739 40.9183L33.0621 40.9341Z" fill="#A98B83"/>
<path d="M30.6184 41.5352C29.784 41.5352 29.341 40.9261 29.341 40.2024C29.341 39.2137 30.3693 38.308 31.2591 38.308C32.0501 38.308 32.493 38.8894 32.4811 39.6448C32.4653 40.6374 31.5043 41.5352 30.6184 41.5352ZM29.6811 39.9216C29.6811 40.7758 30.1795 41.3058 30.9585 41.3058C31.7218 41.3058 32.141 40.6295 32.141 39.973C32.1489 39.0239 31.5755 38.5097 30.9506 38.5097C30.1874 38.5097 29.6811 39.2216 29.6811 39.9216Z" fill="#A98B83"/>
<path d="M26.9695 41.5313C26.6136 41.5353 26.491 41.2545 26.491 41.0647C26.491 40.3726 27.3927 39.4946 28.0412 39.4985C28.2469 39.4985 28.3458 39.6014 28.3458 39.7437C28.3458 40.0166 28.0571 40.2539 26.9062 40.9776C26.9418 41.1635 27.0802 41.2703 27.278 41.2703C27.4362 41.2703 27.5944 41.2228 27.8277 41.0211L27.8633 41.0567C27.5311 41.3494 27.1751 41.5313 26.9695 41.5313ZM26.8983 40.9025V40.9183C27.7486 40.3844 27.9463 40.1432 27.9463 39.8861C27.9463 39.7635 27.8672 39.6647 27.713 39.6647C27.2938 39.6647 26.8785 40.3805 26.8983 40.9025Z" fill="#A98B83"/>
<path d="M24.0841 42.6031C23.7084 42.5991 23.6451 42.4291 23.6569 42.3065C23.6688 42.1601 23.831 41.9743 24.092 41.8517L24.1197 41.8754C24.0682 41.9466 24.0208 42.0336 24.0208 42.1404C24.0208 42.2906 24.1078 42.4409 24.4242 42.4409C24.5942 42.4409 24.7801 42.346 24.8632 42.2788C25.2072 42.0019 25.3733 41.3138 25.9112 40.3172L25.9824 40.1867C25.3456 40.9737 24.8117 41.5471 24.5428 41.5353C24.3688 41.5274 24.2858 41.381 24.2897 41.1714C24.3016 40.424 25.1321 39.4946 25.9507 39.4946C26.0891 39.4946 26.4016 39.5223 26.5954 39.5816L26.5914 39.5856L26.5993 39.5816L26.6151 39.5856C26.6666 39.5974 26.6745 39.6409 26.6507 39.6884L26.0971 40.7443C25.6264 41.646 25.2586 42.0415 24.8988 42.3223C24.6812 42.4923 24.3728 42.6031 24.0841 42.6031ZM24.6852 41.0607C24.6852 41.1358 24.6891 41.2822 24.7999 41.2822C24.9778 41.2822 25.4406 40.7918 26.1327 39.9059L26.1959 39.7912C25.9942 39.72 25.7293 39.6567 25.5908 39.6567C25.0332 39.6567 24.6852 40.6652 24.6852 41.0607Z" fill="#A98B83"/>
<path d="M21.7889 41.5036C21.7296 41.5036 21.7059 41.4641 21.7415 41.4048C22.0025 40.9618 22.5245 40.0166 22.5245 39.8268C22.5245 39.7635 22.4969 39.7279 22.4257 39.7279C22.3505 39.7279 22.2121 39.811 22.05 39.9613L22.0144 39.9217C22.3426 39.6172 22.572 39.4946 22.7183 39.4946C22.8765 39.4946 22.9319 39.6053 22.9319 39.7002C22.9319 39.8703 22.7421 40.2895 22.5404 40.681C22.7341 40.4319 22.9319 40.2144 23.1178 40.0325C23.4658 39.6963 23.7822 39.4946 23.9759 39.4946C24.1025 39.4946 24.1856 39.5974 24.1856 39.724C24.1895 40.0957 23.5291 40.9381 23.5291 41.1675C23.5291 41.2387 23.5646 41.2822 23.6398 41.2822C23.7189 41.2822 23.8454 41.1952 23.9799 41.0686L24.0155 41.1082C23.6872 41.4127 23.4697 41.5353 23.3471 41.5353C23.1573 41.5353 23.1059 41.385 23.1059 41.2861C23.1059 40.8432 23.7703 40.0957 23.7703 39.8387C23.7703 39.7754 23.7426 39.7279 23.6714 39.7279C23.5488 39.7279 23.3788 39.8624 23.1533 40.072C22.8963 40.3172 22.5997 40.6652 22.3624 41.0132C22.2556 41.211 22.1607 41.3692 22.1093 41.4483C22.0856 41.4878 22.0579 41.5036 22.0144 41.5036H21.7889Z" fill="#A98B83"/>
<path d="M20.9718 41.5353C20.782 41.5353 20.7306 41.385 20.7306 41.2861C20.7306 41.0093 20.9125 40.6415 21.1063 40.3093C20.5091 41.033 19.991 41.5471 19.7379 41.5353C19.5639 41.5274 19.4809 41.381 19.4848 41.1714C19.4967 40.424 20.3272 39.4946 21.1458 39.4946C21.2842 39.4946 21.565 39.5223 21.7588 39.5816L21.8261 39.6014C21.8814 39.6172 21.8972 39.6528 21.8656 39.7002C21.7272 39.9059 21.5215 40.2381 21.3831 40.507C21.2526 40.772 21.1537 40.9816 21.1537 41.1675C21.1537 41.2387 21.1854 41.2822 21.2566 41.2822C21.3396 41.2822 21.4701 41.1952 21.6046 41.0686L21.6402 41.1082C21.3119 41.4127 21.0944 41.5353 20.9718 41.5353ZM19.8803 41.0607C19.8803 41.1358 19.8843 41.2822 19.995 41.2822C20.173 41.2822 20.6713 40.7878 21.3673 39.894L21.4187 39.8149C21.221 39.7358 20.9402 39.6567 20.7859 39.6567C20.2283 39.6567 19.8803 40.6652 19.8803 41.0607Z" fill="#A98B83"/>
<path d="M17.0212 41.5035C16.9619 41.5035 16.9381 41.46 16.9658 41.4086L17.9308 39.6289C18.2867 38.9724 19.1647 38.312 19.9873 38.312C20.1771 38.312 20.3116 38.3357 20.3116 38.399C20.3116 38.5097 20.1455 38.7075 19.9003 38.7075C19.7381 38.7075 19.5562 38.6521 19.1884 38.5532C18.8879 38.6837 18.7099 38.8894 18.4449 39.3996L17.7687 40.6928C17.9664 40.4357 18.1641 40.2142 18.354 40.0323C18.702 39.6962 19.0184 39.4945 19.2122 39.4945C19.3387 39.4945 19.4218 39.5973 19.4218 39.7238C19.4257 40.0956 18.7653 40.938 18.7653 41.1673C18.7653 41.2385 18.8009 41.282 18.876 41.282C18.9551 41.282 19.0816 41.195 19.2161 41.0685L19.2517 41.108C18.9235 41.4125 18.7059 41.5351 18.5833 41.5351C18.3935 41.5351 18.3421 41.3849 18.3421 41.286C18.3421 40.8431 19.0065 40.0956 19.0065 39.8385C19.0065 39.7753 18.9788 39.7278 18.9076 39.7278C18.785 39.7278 18.615 39.8623 18.3896 40.0719C18.1364 40.3131 17.8398 40.6572 17.6065 41.0052L17.3771 41.4442C17.3574 41.4837 17.3297 41.5035 17.2862 41.5035H17.0212Z" fill="#A98B83"/>
<path d="M15.9584 41.5313C15.6025 41.5353 15.4799 41.2545 15.4799 41.0646C15.4799 40.3488 16.3064 39.4985 17.0736 39.4985C17.2121 39.4985 17.4414 39.5262 17.4414 39.6014C17.4414 39.7516 17.2832 39.8861 17.1606 39.8861C17.0301 39.8861 16.8166 39.807 16.5279 39.6923C16.2155 39.7991 15.8793 40.4042 15.8991 40.9025C15.907 41.1319 16.0414 41.2703 16.2669 41.2703C16.4251 41.2703 16.5832 41.2228 16.8166 41.0211L16.8522 41.0567C16.52 41.3494 16.164 41.5313 15.9584 41.5313Z" fill="#A98B83"/>
<path d="M14.5174 41.535C14.3948 41.535 14.3434 41.4243 14.3395 41.3452L14.296 40.7322L13.4971 41.6023C13.4022 41.709 13.3666 41.7446 13.331 41.7446C13.2638 41.7446 13.244 41.6695 13.244 41.6062C13.244 41.5232 13.2638 41.448 13.3785 41.361L14.292 40.6768L14.2366 39.8977C14.2287 39.7752 14.1892 39.7316 14.1378 39.7316C14.0626 39.7316 13.9519 39.8107 13.77 39.9927L13.7344 39.9571C14.0666 39.6249 14.2643 39.4944 14.3711 39.4944C14.4937 39.4944 14.5451 39.6051 14.5491 39.6842L14.6005 40.3684L15.2214 39.6288C15.3123 39.5181 15.3519 39.4865 15.3875 39.4865C15.4547 39.4865 15.4745 39.5616 15.4745 39.6249C15.4745 39.7079 15.4547 39.7831 15.34 39.8701L14.6044 40.4356L14.6559 41.1316C14.6638 41.2542 14.6994 41.2978 14.7508 41.2978C14.8259 41.2978 14.9366 41.2187 15.1186 41.0367L15.1542 41.0723C14.822 41.4045 14.6242 41.535 14.5174 41.535Z" fill="#A98B83"/>
<path d="M10.5587 41.5034C10.5073 41.5034 10.5033 41.4916 10.5033 41.4639C10.5033 41.4283 10.7169 41.2424 10.7841 41.195C10.8869 41.108 10.97 40.9616 11.0372 40.843C11.2428 40.4831 11.3734 40.1865 11.5157 39.878H11.1914V39.8147H11.5474C11.6383 39.621 11.7372 39.4193 11.8677 39.1938C11.9705 39.0119 12.0694 38.8775 12.2948 38.7825L12.5202 38.6876H11.5434C11.405 38.6876 11.3536 38.739 11.2626 38.8458L11.227 38.826C11.3694 38.6283 11.4524 38.482 11.5474 38.3989C11.6067 38.3515 11.6858 38.3396 11.7451 38.3396H13.8926C14.0508 38.3396 14.114 38.391 14.114 38.478C14.118 38.6243 13.9321 38.8102 13.6315 39.0356L13.5999 38.9882C13.7225 38.9051 13.8016 38.826 13.8016 38.7667C13.8016 38.6876 13.7265 38.6876 13.588 38.6876H12.6349C12.4886 38.7944 12.4135 38.9289 12.3265 39.0752C12.1683 39.3481 12.0575 39.5814 11.9547 39.8147H13.2519V39.878H11.9231C11.8123 40.1311 11.6976 40.3842 11.5276 40.6848C11.4248 40.8667 11.3219 40.9775 11.1361 41.0763L10.9858 41.1554H12.7931C12.9315 41.1554 12.983 41.104 13.0739 40.9972L13.1095 41.017C12.9671 41.2147 12.8841 41.3611 12.7892 41.4441C12.7299 41.4916 12.6508 41.5034 12.5914 41.5034H10.5587Z" fill="#A98B83"/>
</svg>
