<svg width="66" height="67" viewBox="0 0 66 67" fill="none" xmlns="http://www.w3.org/2000/svg">
<g filter="url(#filter0_d_1039_40591)">
<path d="M5 50.7178C5.06591 50.7046 5.13512 50.698 5.20433 50.698C5.74482 50.698 6.18644 51.0869 6.18644 51.5648C6.18644 52.0427 5.74812 52.4316 5.20433 52.4316C5.13512 52.4316 5.06591 52.425 5 52.4118V53.7333C5.06591 53.7202 5.13512 53.7136 5.20433 53.7136C5.74482 53.7136 6.18644 54.1025 6.18644 54.5803C6.18644 55.0582 5.74812 55.4471 5.20433 55.4471C5.13512 55.4471 5.06591 55.4405 5 55.4273V56.7489C5.06591 56.7357 5.13512 56.7291 5.20433 56.7291C5.74482 56.7291 6.18644 57.118 6.18644 57.5959C6.18644 58.0738 5.74812 58.4626 5.20433 58.4626C5.13512 58.4626 5.06591 58.456 5 58.4428V59.949H7.62994C7.59699 59.8633 7.57721 59.7743 7.57721 59.6787C7.57721 59.2009 8.01553 58.812 8.55932 58.812C9.1031 58.812 9.54143 59.2009 9.54143 59.6787C9.54143 59.7743 9.51836 59.8633 9.4887 59.949H11.1596C11.1266 59.8633 11.1069 59.7743 11.1069 59.6787C11.1069 59.2009 11.5452 58.812 12.089 58.812C12.6328 58.812 13.0711 59.2009 13.0711 59.6787C13.0711 59.7743 13.048 59.8633 13.0184 59.949H14.6893C14.6563 59.8633 14.6365 59.7743 14.6365 59.6787C14.6365 59.2009 15.0749 58.812 15.6186 58.812C16.1591 58.812 16.6008 59.2009 16.6008 59.6787C16.6008 59.7743 16.5777 59.8633 16.548 59.949H18.2189C18.186 59.8633 18.1662 59.7743 18.1662 59.6787C18.1662 59.2009 18.6045 58.812 19.1483 58.812C19.6888 58.812 20.1304 59.2009 20.1304 59.6787C20.1304 59.7743 20.1073 59.8633 20.0777 59.949H21.7486C21.7156 59.8633 21.6959 59.7743 21.6959 59.6787C21.6959 59.2009 22.1342 58.812 22.678 58.812C23.2185 58.812 23.6601 59.2009 23.6601 59.6787C23.6601 59.7743 23.637 59.8633 23.6073 59.949H25.2782C25.2453 59.8633 25.2255 59.7743 25.2255 59.6787C25.2255 59.2009 25.6638 58.812 26.2076 58.812C26.7481 58.812 27.1897 59.2009 27.1897 59.6787C27.1897 59.7743 27.1667 59.8633 27.137 59.949H28.8079C28.775 59.8633 28.7552 59.7743 28.7552 59.6787C28.7552 59.2009 29.1935 58.812 29.7373 58.812C30.2778 58.812 30.7194 59.2009 30.7194 59.6787C30.7194 59.7743 30.6963 59.8633 30.6667 59.949H32.3376C32.3046 59.8633 32.2848 59.7743 32.2848 59.6787C32.2848 59.2009 32.7232 58.812 33.2669 58.812C33.8107 58.812 34.2491 59.2009 34.2491 59.6787C34.2491 59.7743 34.226 59.8633 34.1963 59.949H35.8672C35.8343 59.8633 35.8145 59.7743 35.8145 59.6787C35.8145 59.2009 36.2528 58.812 36.7966 58.812C37.3371 58.812 37.7787 59.2009 37.7787 59.6787C37.7787 59.7743 37.7556 59.8633 37.726 59.949H39.3969C39.3639 59.8633 39.3442 59.7743 39.3442 59.6787C39.3442 59.2009 39.7825 58.812 40.3263 58.812C40.8668 58.812 41.3084 59.2009 41.3084 59.6787C41.3084 59.7743 41.2853 59.8633 41.2556 59.949H42.9266C42.8936 59.8633 42.8738 59.7743 42.8738 59.6787C42.8738 59.2009 43.3121 58.812 43.8559 58.812C44.3964 58.812 44.838 59.2009 44.838 59.6787C44.838 59.7743 44.815 59.8633 44.7853 59.949H46.4562C46.4233 59.8633 46.4035 59.7743 46.4035 59.6787C46.4035 59.2009 46.8418 58.812 47.3856 58.812C47.9294 58.812 48.3677 59.2009 48.3677 59.6787C48.3677 59.7743 48.3446 59.8633 48.315 59.949H49.9859C49.9529 59.8633 49.9331 59.7743 49.9331 59.6787C49.9331 59.2009 50.3715 58.812 50.9153 58.812C51.4557 58.812 51.8974 59.2009 51.8974 59.6787C51.8974 59.7743 51.8743 59.8633 51.8446 59.949H53.5155C53.4826 59.8633 53.4628 59.7743 53.4628 59.6787C53.4628 59.2009 53.9011 58.812 54.4449 58.812C54.9854 58.812 55.427 59.2009 55.427 59.6787C55.427 59.7743 55.404 59.8633 55.3743 59.949H57.0452C57.0122 59.8633 56.9925 59.7743 56.9925 59.6787C56.9925 59.2009 57.4308 58.812 57.9746 58.812C58.5151 58.812 58.9567 59.2009 58.9567 59.6787C58.9567 59.7743 58.9336 59.8633 58.9039 59.949H61V58.4626C60.4595 58.4626 60.0179 58.0738 60.0179 57.5959C60.0179 57.118 60.4562 56.7291 61 56.7291V55.4471C60.4595 55.4471 60.0179 55.0582 60.0179 54.5803C60.0179 54.1025 60.4562 53.7136 61 53.7136V52.4316C60.4595 52.4316 60.0179 52.0427 60.0179 51.5648C60.0179 51.0869 60.4562 50.698 61 50.698V50.6882V49.4061C60.4595 49.4061 60.0179 49.0172 60.0179 48.5394C60.0179 48.0615 60.4562 47.6726 61 47.6726V46.3906C60.4595 46.3906 60.0179 46.0017 60.0179 45.5238C60.0179 45.046 60.4562 44.6571 61 44.6571V43.3751C60.4595 43.3751 60.0179 42.9862 60.0179 42.5083C60.0179 42.0304 60.4562 41.6415 61 41.6415V40.3595C60.4595 40.3595 60.0179 39.9706 60.0179 39.4928C60.0179 39.0149 60.4562 38.626 61 38.626V37.344C60.4595 37.344 60.0179 36.9551 60.0179 36.4772C60.0179 35.9994 60.4562 35.6105 61 35.6105V34.3284C60.4595 34.3284 60.0179 33.9396 60.0179 33.4617C60.0179 32.9838 60.4562 32.5949 61 32.5949V31.3129C60.4595 31.3129 60.0179 30.924 60.0179 30.4462C60.0179 29.9683 60.4562 29.5794 61 29.5794V28.2974C60.4595 28.2974 60.0179 27.9085 60.0179 27.4306C60.0179 26.9527 60.4562 26.5639 61 26.5639V25.2818C60.4595 25.2818 60.0179 24.8929 60.0179 24.4151C60.0179 23.9372 60.4562 23.5483 61 23.5483V22.2663C60.4595 22.2663 60.0179 21.8774 60.0179 21.3995C60.0179 20.9217 60.4562 20.5328 61 20.5328V19.2508C60.4595 19.2508 60.0179 18.8619 60.0179 18.384C60.0179 17.9061 60.4562 17.5172 61 17.5172V16.2352C60.4595 16.2352 60.0179 15.8463 60.0179 15.3685C60.0179 14.8906 60.4562 14.5017 61 14.5017V13.2197C60.4595 13.2197 60.0179 12.8308 60.0179 12.3529C60.0179 11.8751 60.4562 11.4862 61 11.4862V10.2042C60.4595 10.2042 60.0179 9.81527 60.0179 9.3374C60.0179 8.85953 60.4562 8.47063 61 8.47063V7.18861C60.4595 7.18861 60.0179 6.79973 60.0179 6.32186C60.0179 5.84399 60.4562 5.4551 61 5.4551V3.96875H58.9567C58.9567 4.44662 58.5184 4.83551 57.9746 4.83551C57.4341 4.83551 56.9925 4.44662 56.9925 3.96875H55.4303C55.4303 4.44662 54.992 4.83551 54.4482 4.83551C53.9077 4.83551 53.4661 4.44662 53.4661 3.96875H51.904C51.904 4.44662 51.4656 4.83551 50.9218 4.83551C50.3814 4.83551 49.9397 4.44662 49.9397 3.96875H48.3776C48.3776 4.44662 47.9393 4.83551 47.3955 4.83551C46.8517 4.83551 46.4134 4.44662 46.4134 3.96875H44.8512C44.8512 4.44662 44.4129 4.83551 43.8691 4.83551C43.3286 4.83551 42.887 4.44662 42.887 3.96875H41.3249C41.3249 4.44662 40.8865 4.83551 40.3428 4.83551C39.8023 4.83551 39.3606 4.44662 39.3606 3.96875H37.7985C37.7985 4.44662 37.3602 4.83551 36.8164 4.83551C36.2759 4.83551 35.8343 4.44662 35.8343 3.96875H34.2721C34.2721 4.44662 33.8338 4.83551 33.29 4.83551C32.7462 4.83551 32.3079 4.44662 32.3079 3.96875H30.7458C30.7458 4.44662 30.3074 4.83551 29.7637 4.83551C29.2232 4.83551 28.7815 4.44662 28.7815 3.96875H27.2194C27.2194 4.44662 26.7811 4.83551 26.2373 4.83551C25.6968 4.83551 25.2552 4.44662 25.2552 3.96875H23.693C23.693 4.44662 23.2547 4.83551 22.7109 4.83551C22.1704 4.83551 21.7288 4.44662 21.7288 3.96875H20.1667C20.1667 4.44662 19.7283 4.83551 19.1846 4.83551C18.6441 4.83551 18.2024 4.44662 18.2024 3.96875H16.6403C16.6403 4.44662 16.202 4.83551 15.6582 4.83551C15.1177 4.83551 14.6761 4.44662 14.6761 3.96875H13.1139C13.1139 4.44662 12.6756 4.83551 12.1318 4.83551C11.588 4.83551 11.1497 4.44662 11.1497 3.96875H9.58757C9.58757 4.44662 9.14924 4.83551 8.60546 4.83551C8.06167 4.83551 7.62335 4.44662 7.62335 3.96875H5.04943V5.47487C5.11535 5.46169 5.18455 5.4551 5.25376 5.4551C5.79425 5.4551 6.23588 5.84399 6.23588 6.32186C6.23588 6.79973 5.79755 7.18861 5.25376 7.18861C5.18455 7.18861 5.11535 7.18202 5.04943 7.16884V8.49041C5.11535 8.47723 5.18455 8.47063 5.25376 8.47063C5.79425 8.47063 6.23588 8.85953 6.23588 9.3374C6.23588 9.81527 5.79755 10.2042 5.25376 10.2042C5.18455 10.2042 5.11535 10.1976 5.04943 10.1844V11.5059C5.11535 11.4928 5.18455 11.4862 5.25376 11.4862C5.79425 11.4862 6.23588 11.8751 6.23588 12.3529C6.23588 12.8308 5.79755 13.2197 5.25376 13.2197C5.18455 13.2197 5.11535 13.2131 5.04943 13.1999V14.5215C5.11535 14.5083 5.18455 14.5017 5.25376 14.5017C5.79425 14.5017 6.23588 14.8906 6.23588 15.3685C6.23588 15.8463 5.79755 16.2352 5.25376 16.2352C5.18455 16.2352 5.11535 16.2286 5.04943 16.2154V17.537C5.11535 17.5238 5.18455 17.5172 5.25376 17.5172C5.79425 17.5172 6.23588 17.9061 6.23588 18.384C6.23588 18.8619 5.79755 19.2508 5.25376 19.2508C5.18455 19.2508 5.11535 19.2442 5.04943 19.231V20.5526C5.11535 20.5394 5.18455 20.5328 5.25376 20.5328C5.79425 20.5328 6.23588 20.9217 6.23588 21.3995C6.23588 21.8774 5.79755 22.2663 5.25376 22.2663C5.18455 22.2663 5.11535 22.2597 5.04943 22.2465V23.5681C5.11535 23.5549 5.18455 23.5483 5.25376 23.5483C5.79425 23.5483 6.23588 23.9372 6.23588 24.4151C6.23588 24.8929 5.79755 25.2818 5.25376 25.2818C5.18455 25.2818 5.11535 25.2752 5.04943 25.2621V26.5836C5.11535 26.5704 5.18455 26.5639 5.25376 26.5639C5.79425 26.5639 6.23588 26.9527 6.23588 27.4306C6.23588 27.9085 5.79755 28.2974 5.25376 28.2974C5.18455 28.2974 5.11535 28.2908 5.04943 28.2776V29.5992C5.11535 29.586 5.18455 29.5794 5.25376 29.5794C5.79425 29.5794 6.23588 29.9683 6.23588 30.4462C6.23588 30.924 5.79755 31.3129 5.25376 31.3129C5.18455 31.3129 5.11535 31.3063 5.04943 31.2931V32.6147C5.11535 32.6015 5.18455 32.5949 5.25376 32.5949C5.79425 32.5949 6.23588 32.9838 6.23588 33.4617C6.23588 33.9396 5.79755 34.3284 5.25376 34.3284C5.18455 34.3284 5.11535 34.3219 5.04943 34.3087V35.6302C5.11535 35.6171 5.18455 35.6105 5.25376 35.6105C5.79425 35.6105 6.23588 35.9994 6.23588 36.4772C6.23588 36.9551 5.79755 37.344 5.25376 37.344C5.18455 37.344 5.11535 37.3374 5.04943 37.3242V38.6458C5.11535 38.6326 5.18455 38.626 5.25376 38.626C5.79425 38.626 6.23588 39.0149 6.23588 39.4928C6.23588 39.9706 5.79755 40.3595 5.25376 40.3595C5.18455 40.3595 5.11535 40.3529 5.04943 40.3397V41.6613C5.11535 41.6481 5.18455 41.6415 5.25376 41.6415C5.79425 41.6415 6.23588 42.0304 6.23588 42.5083C6.23588 42.9862 5.79755 43.3751 5.25376 43.3751C5.18455 43.3751 5.11535 43.3685 5.04943 43.3553V44.6769C5.11535 44.6637 5.18455 44.6571 5.25376 44.6571C5.79425 44.6571 6.23588 45.046 6.23588 45.5238C6.23588 46.0017 5.79755 46.3906 5.25376 46.3906C5.18455 46.3906 5.11535 46.384 5.04943 46.3708V47.6924C5.11535 47.6792 5.18455 47.6726 5.25376 47.6726C5.79425 47.6726 6.23588 48.0615 6.23588 48.5394C6.23588 49.0172 5.79755 49.4061 5.25376 49.4061C5.18455 49.4061 5.11535 49.3995 5.04943 49.3864V50.7079C5.11535 50.6947 5.18455 50.6882 5.25376 50.6882" fill="#A98B83"/>
<path d="M57.4152 11.8161V51.0313C55.0093 51.1763 53.0978 53.18 53.0978 55.6188C53.0978 55.8792 53.1209 56.1428 53.1703 56.4098H12.7556C12.805 56.1428 12.8281 55.8792 12.8281 55.6188C12.8281 53.18 10.9166 51.1763 8.51074 51.0313V11.8161C10.8243 11.6744 12.6798 9.81893 12.8182 7.50537H53.1044C53.2462 9.81893 55.1016 11.6744 57.4152 11.8161Z" fill="white"/>
<path d="M57.4152 11.8161V51.0313C55.0093 51.1763 53.0978 53.18 53.0978 55.6188C53.0978 55.8792 53.1209 56.1428 53.1703 56.4098H12.7556C12.805 56.1428 12.8281 55.8792 12.8281 55.6188C12.8281 53.18 10.9166 51.1763 8.51074 51.0313V11.8161C10.8243 11.6744 12.6798 9.81893 12.8182 7.50537H53.1044C53.2462 9.81893 55.1016 11.6744 57.4152 11.8161Z" fill="#AB8C85"/>
<path d="M57.694 11.2622C55.4662 11.2622 53.6568 9.45283 53.6568 7.22496C53.6568 7.07006 53.5316 6.94482 53.3767 6.94482H12.5467C12.3918 6.94482 12.2665 7.07006 12.2665 7.22496C12.2665 9.45283 10.4539 11.2622 8.22935 11.2622C8.07445 11.2622 7.94922 11.3874 7.94922 11.5423V51.3045C7.94922 51.4561 8.07445 51.5847 8.22935 51.5847C10.4539 51.5847 12.2665 53.394 12.2665 55.6186C12.2665 55.9448 12.2204 56.281 12.1347 56.6204C12.1149 56.7061 12.1314 56.7951 12.1841 56.861C12.2369 56.9302 12.3193 56.9698 12.4083 56.9698H53.5151C53.6008 56.9698 53.6832 56.9302 53.7359 56.861C53.7887 56.7951 53.8084 56.7061 53.7854 56.6204C53.6997 56.281 53.6568 55.9448 53.6568 55.6186C53.6568 53.394 55.4662 51.5847 57.694 51.5847C57.8489 51.5847 57.9742 51.4561 57.9742 51.3045V11.5423C57.9742 11.3874 57.8489 11.2622 57.694 11.2622ZM57.4139 51.031C55.0081 51.176 53.0966 53.1798 53.0966 55.6186C53.0966 55.8789 53.1197 56.1426 53.1691 56.4095H12.7543C12.8037 56.1426 12.8268 55.8789 12.8268 55.6186C12.8268 53.1798 10.9153 51.176 8.50948 51.031V11.8158C10.823 11.6741 12.6785 9.81865 12.8169 7.50509H53.1032C53.2449 9.81865 55.1003 11.6741 57.4139 11.8158V51.031Z" fill="#F1DFC1"/>
<path d="M57.5162 11.9045V51.1229C56.3492 51.1981 55.2543 51.7136 54.4528 52.5653C53.6514 53.4169 53.2032 54.5411 53.1989 55.7105C53.1988 55.9758 53.2231 56.2406 53.2714 56.5015H12.8566C12.905 56.2406 12.9292 55.9758 12.9291 55.7105C12.9259 54.5426 12.48 53.4194 11.6812 52.5674C10.8824 51.7154 9.79025 51.1981 8.625 51.1196V11.9012C9.73962 11.8237 10.7883 11.3443 11.5762 10.5521C12.3641 9.75996 12.8378 8.70877 12.9094 7.59375H53.2055C53.277 8.71359 53.7541 9.76901 54.5475 10.5625C55.341 11.3559 56.3964 11.833 57.5162 11.9045Z" fill="white"/>
<path d="M32.9626 10.3095C33.3157 10.3095 33.602 10.0232 33.602 9.67011C33.602 9.317 33.3157 9.03076 32.9626 9.03076C32.6095 9.03076 32.3232 9.317 32.3232 9.67011C32.3232 10.0232 32.6095 10.3095 32.9626 10.3095Z" fill="#F5CBD9"/>
<path d="M32.962 12.2043C32.8829 12.2043 32.8203 12.1416 32.8203 12.0625V11.087C32.8203 11.0079 32.8829 10.9453 32.962 10.9453C33.0411 10.9453 33.1037 11.0079 33.1037 11.087V12.0625C33.1004 12.1383 33.0378 12.2043 32.962 12.2043Z" fill="#F5CBD9"/>
<path d="M32.962 14.8869C32.8829 14.8869 32.8203 14.8243 32.8203 14.7452V12.6656C32.8203 12.5865 32.8829 12.5239 32.962 12.5239C33.0411 12.5239 33.1037 12.5865 33.1037 12.6656V14.7452C33.1004 14.8243 33.0378 14.8869 32.962 14.8869Z" fill="#F5CBD9"/>
<path d="M34.1573 11.8815C34.1079 11.8815 34.0617 11.8551 34.0354 11.8123L33.5476 10.9653C33.5081 10.8994 33.5311 10.8137 33.6003 10.7742C33.6663 10.7346 33.7519 10.7577 33.7915 10.8269L34.2792 11.6739C34.3188 11.7398 34.2957 11.8255 34.2265 11.865C34.2034 11.8749 34.1804 11.8815 34.1573 11.8815Z" fill="#F5CBD9"/>
<path d="M35.4997 14.208C35.4502 14.208 35.4041 14.1816 35.3777 14.1388L34.3396 12.3394C34.3001 12.2734 34.3231 12.1877 34.3923 12.1482C34.4582 12.1086 34.5439 12.1317 34.5835 12.2009L35.6216 14.0004C35.6612 14.0663 35.6381 14.152 35.5689 14.1915C35.5458 14.2014 35.5227 14.208 35.4997 14.208Z" fill="#F5CBD9"/>
<path d="M35.0326 11.0083C35.0095 11.0083 34.9831 11.0017 34.9633 10.9885L34.1197 10.5007C34.0537 10.4612 34.0307 10.3755 34.0669 10.3096C34.1065 10.2437 34.1922 10.2206 34.2581 10.2569L35.1018 10.7446C35.1677 10.7842 35.1907 10.8699 35.1545 10.9358C35.1281 10.9819 35.082 11.0083 35.0326 11.0083Z" fill="#F5CBD9"/>
<path d="M36.3042 11.7399C36.2811 11.7399 36.2547 11.7333 36.235 11.7201L35.4868 11.2883C35.4209 11.2488 35.3979 11.1631 35.4341 11.0972C35.4737 11.0313 35.5593 11.0082 35.6253 11.0445L36.3734 11.4762C36.4393 11.5157 36.4624 11.6014 36.4261 11.6673C36.3997 11.7168 36.3536 11.7399 36.3042 11.7399Z" fill="#F5CBD9"/>
<path d="M35.3506 9.81175H34.3751C34.296 9.81175 34.2334 9.74913 34.2334 9.67003C34.2334 9.59094 34.296 9.52832 34.3751 9.52832H35.3506C35.4297 9.52832 35.4923 9.59094 35.4923 9.67003C35.4923 9.74913 35.4297 9.81175 35.3506 9.81175Z" fill="#F5CBD9"/>
<path d="M37.8686 9.81175H35.9571C35.878 9.81175 35.8154 9.74913 35.8154 9.67003C35.8154 9.59094 35.878 9.52832 35.9571 9.52832H37.8686C37.9477 9.52832 38.0103 9.59094 38.0103 9.67003C38.0103 9.74913 37.9477 9.81175 37.8686 9.81175Z" fill="#F5CBD9"/>
<path d="M31.545 9.81175H30.5695C30.4904 9.81175 30.4277 9.74913 30.4277 9.67003C30.4277 9.59094 30.4904 9.52832 30.5695 9.52832H31.545C31.6241 9.52832 31.6867 9.59094 31.6867 9.67003C31.6834 9.74913 31.6208 9.81175 31.545 9.81175Z" fill="#F5CBD9"/>
<path d="M29.9624 9.81175H28.0509C27.9718 9.81175 27.9092 9.74913 27.9092 9.67003C27.9092 9.59094 27.9718 9.52832 28.0509 9.52832H29.9624C30.0415 9.52832 30.1041 9.59094 30.1041 9.67003C30.1008 9.74913 30.0382 9.81175 29.9624 9.81175Z" fill="#F5CBD9"/>
<path d="M30.8883 11.0081C30.8389 11.0081 30.7927 10.9818 30.7664 10.9389C30.7268 10.873 30.7499 10.7873 30.8191 10.7478L31.6628 10.26C31.7287 10.2205 31.8144 10.2435 31.8539 10.3127C31.8935 10.3787 31.8704 10.4643 31.8012 10.5039L30.9575 10.9916C30.9377 11.0015 30.9114 11.0081 30.8883 11.0081Z" fill="#F5CBD9"/>
<path d="M29.6627 11.7133C29.6133 11.7133 29.5671 11.687 29.5408 11.6441C29.5012 11.5782 29.5243 11.4925 29.5935 11.453L30.2955 11.0476C30.3614 11.0081 30.4471 11.0311 30.4866 11.1003C30.5262 11.1663 30.5031 11.2519 30.4339 11.2915L29.7319 11.6969C29.7089 11.71 29.6858 11.7133 29.6627 11.7133Z" fill="#F5CBD9"/>
<path d="M31.765 11.8817C31.742 11.8817 31.7156 11.8751 31.6958 11.8619C31.6299 11.8223 31.6068 11.7367 31.6431 11.6707L32.1309 10.8237C32.1704 10.7578 32.2561 10.7348 32.322 10.771C32.3879 10.8106 32.411 10.8963 32.3747 10.9622L31.887 11.8092C31.8606 11.8586 31.8112 11.8817 31.765 11.8817Z" fill="#F5CBD9"/>
<path d="M30.4213 14.2081C30.3982 14.2081 30.3719 14.2015 30.3521 14.1884C30.2862 14.1488 30.2631 14.0631 30.2993 13.9972L31.3408 12.1978C31.3803 12.1319 31.466 12.1088 31.5319 12.145C31.5978 12.1846 31.6209 12.2703 31.5847 12.3362L30.5432 14.1356C30.5169 14.1818 30.4707 14.2081 30.4213 14.2081Z" fill="#F5CBD9"/>
<path d="M32.9626 54.8803C33.3157 54.8803 33.602 54.594 33.602 54.2409C33.602 53.8878 33.3157 53.6016 32.9626 53.6016C32.6095 53.6016 32.3232 53.8878 32.3232 54.2409C32.3232 54.594 32.6095 54.8803 32.9626 54.8803Z" fill="#F5CBD9"/>
<path d="M32.962 52.9655C32.8829 52.9655 32.8203 52.9029 32.8203 52.8238V51.8483C32.8203 51.7692 32.8829 51.7065 32.962 51.7065C33.0411 51.7065 33.1037 51.7692 33.1037 51.8483V52.8238C33.1004 52.9029 33.0378 52.9655 32.962 52.9655Z" fill="#F5CBD9"/>
<path d="M32.962 51.3835C32.8829 51.3835 32.8203 51.3209 32.8203 51.2418V49.1622C32.8203 49.0831 32.8829 49.0205 32.962 49.0205C33.0411 49.0205 33.1037 49.0831 33.1037 49.1622V51.2418C33.1004 51.3209 33.0378 51.3835 32.962 51.3835Z" fill="#F5CBD9"/>
<path d="M32.253 53.1531C32.2036 53.1531 32.1574 53.1268 32.1311 53.0839L31.6433 52.2402C31.6038 52.1743 31.6268 52.0886 31.696 52.0491C31.762 52.0095 31.8476 52.0326 31.8872 52.1018L32.3749 52.9455C32.4145 53.0114 32.3914 53.0971 32.3222 53.1366C32.2991 53.1498 32.2761 53.1531 32.253 53.1531Z" fill="#F5CBD9"/>
<path d="M31.4629 51.7856C31.4135 51.7856 31.3674 51.7593 31.341 51.7164L30.2996 49.917C30.26 49.8511 30.2831 49.7654 30.3523 49.7258C30.4182 49.6863 30.5039 49.7093 30.5434 49.7786L31.5849 51.578C31.6244 51.6439 31.6014 51.7296 31.5321 51.7691C31.5091 51.779 31.486 51.7856 31.4629 51.7856Z" fill="#F5CBD9"/>
<path d="M31.7318 53.6738C31.7087 53.6738 31.6823 53.6672 31.6626 53.654L30.8189 53.1663C30.753 53.1267 30.7299 53.041 30.7661 52.9751C30.8057 52.9092 30.8914 52.8861 30.9573 52.9224L31.801 53.4102C31.8669 53.4497 31.89 53.5354 31.8537 53.6013C31.8273 53.6474 31.7812 53.6738 31.7318 53.6738Z" fill="#F5CBD9"/>
<path d="M30.3657 52.8829C30.3426 52.8829 30.3163 52.8763 30.2965 52.8631L29.5484 52.4314C29.4825 52.3919 29.4594 52.3062 29.4956 52.2403C29.5352 52.1744 29.6209 52.1513 29.6868 52.1875L30.4349 52.6193C30.5008 52.6588 30.5239 52.7445 30.4876 52.8104C30.4613 52.8566 30.4118 52.8829 30.3657 52.8829Z" fill="#F5CBD9"/>
<path d="M31.545 54.3791H30.5695C30.4904 54.3791 30.4277 54.3165 30.4277 54.2374C30.4277 54.1583 30.4904 54.0957 30.5695 54.0957H31.545C31.6241 54.0957 31.6867 54.1583 31.6867 54.2374C31.6867 54.3165 31.6208 54.3791 31.545 54.3791Z" fill="#F5CBD9"/>
<path d="M29.9624 54.3791H28.0509C27.9718 54.3791 27.9092 54.3165 27.9092 54.2374C27.9092 54.1583 27.9718 54.0957 28.0509 54.0957H29.9624C30.0415 54.0957 30.1041 54.1583 30.1041 54.2374C30.1041 54.3165 30.0382 54.3791 29.9624 54.3791Z" fill="#F5CBD9"/>
<path d="M35.3506 54.3791H34.3751C34.296 54.3791 34.2334 54.3165 34.2334 54.2374C34.2334 54.1583 34.296 54.0957 34.3751 54.0957H35.3506C35.4297 54.0957 35.4923 54.1583 35.4923 54.2374C35.4923 54.3165 35.4297 54.3791 35.3506 54.3791Z" fill="#F5CBD9"/>
<path d="M37.8686 54.3791H35.9571C35.878 54.3791 35.8154 54.3165 35.8154 54.2374C35.8154 54.1583 35.878 54.0957 35.9571 54.0957H37.8686C37.9477 54.0957 38.0103 54.1583 38.0103 54.2374C38.0103 54.3165 37.9477 54.3791 37.8686 54.3791Z" fill="#F5CBD9"/>
<path d="M34.1871 53.6737C34.1377 53.6737 34.0916 53.6473 34.0652 53.6044C34.0256 53.5385 34.0487 53.4529 34.1179 53.4133L34.9616 52.9255C35.0275 52.886 35.1132 52.9091 35.1528 52.9783C35.1923 53.0442 35.1692 53.1299 35.1 53.1694L34.2563 53.6572C34.2333 53.6671 34.2102 53.6737 34.1871 53.6737Z" fill="#F5CBD9"/>
<path d="M35.5563 52.8828C35.5068 52.8828 35.4607 52.8564 35.4343 52.8136C35.3948 52.7476 35.4178 52.662 35.4871 52.6224L36.189 52.217C36.255 52.1775 36.3406 52.2006 36.3802 52.2698C36.4197 52.3357 36.3967 52.4214 36.3275 52.4609L35.6255 52.8663C35.6057 52.8762 35.5826 52.8828 35.5563 52.8828Z" fill="#F5CBD9"/>
<path d="M33.6684 53.1533C33.6453 53.1533 33.6189 53.1467 33.5991 53.1335C33.5332 53.0939 33.5102 53.0083 33.5464 52.9423L34.0342 52.0987C34.0737 52.0327 34.1594 52.0097 34.2253 52.0459C34.2912 52.0855 34.3143 52.1712 34.2781 52.2371L33.7903 53.0808C33.7639 53.1302 33.7178 53.1533 33.6684 53.1533Z" fill="#F5CBD9"/>
<path d="M34.4584 51.7853C34.4353 51.7853 34.409 51.7787 34.3892 51.7655C34.3233 51.726 34.3002 51.6403 34.3365 51.5744L35.3746 49.7749C35.4141 49.709 35.4998 49.6859 35.5657 49.7222C35.6317 49.7617 35.6547 49.8474 35.6185 49.9133L34.5803 51.7128C34.554 51.7589 34.5078 51.7853 34.4584 51.7853Z" fill="#F5CBD9"/>
<path d="M55.2458 31.3164C54.8932 31.3164 54.6064 31.6031 54.6064 31.9558C54.6064 32.3084 54.8932 32.5951 55.2458 32.5951C55.5984 32.5951 55.8852 32.3084 55.8852 31.9558C55.8885 31.6031 55.6017 31.3164 55.2458 31.3164Z" fill="#F5CBD9"/>
<path d="M53.8301 32.0969H52.8546C52.7755 32.0969 52.7129 32.0343 52.7129 31.9552C52.7129 31.8761 52.7755 31.8135 52.8546 31.8135H53.8301C53.9092 31.8135 53.9718 31.8761 53.9718 31.9552C53.9718 32.0343 53.9059 32.0969 53.8301 32.0969Z" fill="#F5CBD9"/>
<path d="M52.2476 32.0969H50.1681C50.089 32.0969 50.0264 32.0343 50.0264 31.9552C50.0264 31.8761 50.089 31.8135 50.1681 31.8135H52.2476C52.3267 31.8135 52.3894 31.8761 52.3894 31.9552C52.3894 32.0343 52.3234 32.0969 52.2476 32.0969Z" fill="#F5CBD9"/>
<path d="M53.1735 33.2904C53.124 33.2904 53.0779 33.264 53.0515 33.2211C53.012 33.1552 53.035 33.0695 53.1042 33.03L53.9479 32.5422C54.0138 32.5027 54.0995 32.5258 54.1391 32.595C54.1786 32.6609 54.1556 32.7466 54.0864 32.7861L53.2427 33.2739C53.2196 33.2871 53.1965 33.2904 53.1735 33.2904Z" fill="#F5CBD9"/>
<path d="M50.8483 34.635C50.7988 34.635 50.7527 34.6087 50.7263 34.5658C50.6868 34.4999 50.7098 34.4142 50.7791 34.3747L52.5785 33.3332C52.6444 33.2937 52.7301 33.3168 52.7696 33.386C52.8092 33.4519 52.7861 33.5376 52.7169 33.5771L50.9175 34.6186C50.8977 34.6285 50.8713 34.635 50.8483 34.635Z" fill="#F5CBD9"/>
<path d="M54.0473 34.1668C54.0242 34.1668 53.9978 34.1602 53.978 34.147C53.9121 34.1075 53.8891 34.0218 53.9253 33.9559L54.4131 33.1089C54.4526 33.043 54.5383 33.0199 54.6042 33.0562C54.6701 33.0957 54.6932 33.1814 54.657 33.2473L54.1692 34.0943C54.1428 34.1437 54.0967 34.1668 54.0473 34.1668Z" fill="#F5CBD9"/>
<path d="M53.3178 35.439C53.2947 35.439 53.2683 35.4325 53.2486 35.4193C53.1826 35.3797 53.1596 35.294 53.1958 35.2281L53.6276 34.48C53.6671 34.4141 53.7528 34.391 53.8187 34.4273C53.8846 34.4668 53.9077 34.5525 53.8714 34.6184L53.4397 35.3665C53.4133 35.4127 53.3639 35.439 53.3178 35.439Z" fill="#F5CBD9"/>
<path d="M55.2452 34.4865C55.1661 34.4865 55.1035 34.4239 55.1035 34.3448V33.3693C55.1035 33.2902 55.1661 33.2275 55.2452 33.2275C55.3243 33.2275 55.3869 33.2902 55.3869 33.3693V34.3448C55.3869 34.4239 55.3243 34.4865 55.2452 34.4865Z" fill="#F5CBD9"/>
<path d="M55.2452 37.0045C55.1661 37.0045 55.1035 36.9419 55.1035 36.8628V34.9513C55.1035 34.8722 55.1661 34.8096 55.2452 34.8096C55.3243 34.8096 55.3869 34.8722 55.3869 34.9513V36.8628C55.3869 36.9419 55.3243 37.0045 55.2452 37.0045Z" fill="#F5CBD9"/>
<path d="M55.2452 30.6803C55.1661 30.6803 55.1035 30.6177 55.1035 30.5386V29.5631C55.1035 29.484 55.1661 29.4214 55.2452 29.4214C55.3243 29.4214 55.3869 29.484 55.3869 29.5631V30.5386C55.3869 30.6177 55.3243 30.6803 55.2452 30.6803Z" fill="#F5CBD9"/>
<path d="M55.2452 29.0982C55.1661 29.0982 55.1035 29.0356 55.1035 28.9565V27.045C55.1035 26.9659 55.1661 26.9033 55.2452 26.9033C55.3243 26.9033 55.3869 26.9659 55.3869 27.045V28.9565C55.3869 29.0356 55.3243 29.0982 55.2452 29.0982Z" fill="#F5CBD9"/>
<path d="M54.5401 30.8678C54.4907 30.8678 54.4445 30.8415 54.4182 30.7986L53.9304 29.9517C53.8909 29.8857 53.9139 29.8 53.9832 29.7605C54.0491 29.721 54.1348 29.744 54.1743 29.8132L54.6621 30.6602C54.7016 30.7261 54.6785 30.8118 54.6093 30.8514C54.5863 30.8645 54.5632 30.8678 54.5401 30.8678Z" fill="#F5CBD9"/>
<path d="M53.7468 29.5002C53.6974 29.5002 53.6512 29.4738 53.6249 29.431L53.2195 28.729C53.1799 28.6631 53.203 28.5774 53.2722 28.5378C53.3381 28.4983 53.4238 28.5214 53.4634 28.5906L53.8687 29.2926C53.9083 29.3585 53.8852 29.4441 53.816 29.4837C53.7929 29.4936 53.7699 29.5002 53.7468 29.5002Z" fill="#F5CBD9"/>
<path d="M54.0189 31.3887C53.9958 31.3887 53.9694 31.3821 53.9497 31.3689L53.106 30.8811C53.0401 30.8416 53.017 30.7559 53.0533 30.69C53.0928 30.6241 53.1785 30.601 53.2444 30.6372L54.0881 31.125C54.154 31.1646 54.1771 31.2502 54.1408 31.3161C54.1145 31.3623 54.0683 31.3887 54.0189 31.3887Z" fill="#F5CBD9"/>
<path d="M52.6514 30.5976C52.6283 30.5976 52.6019 30.591 52.5822 30.5778L50.7827 29.5364C50.7168 29.4968 50.6938 29.4111 50.73 29.3452C50.7696 29.2793 50.8552 29.2563 50.9212 29.2925L52.7206 30.3339C52.7865 30.3735 52.8096 30.4592 52.7733 30.5251C52.747 30.5712 52.6975 30.5976 52.6514 30.5976Z" fill="#F5CBD9"/>
<path d="M10.6774 32.5951C11.0301 32.5951 11.3168 32.3084 11.3168 31.9558C11.3168 31.6031 11.0301 31.3164 10.6774 31.3164C10.3248 31.3164 10.0381 31.6031 10.0381 31.9558C10.0381 32.3084 10.3215 32.5951 10.6774 32.5951Z" fill="#F5CBD9"/>
<path d="M13.0665 32.0969H12.0909C12.0118 32.0969 11.9492 32.0343 11.9492 31.9552C11.9492 31.8761 12.0118 31.8135 12.0909 31.8135H13.0665C13.1455 31.8135 13.2082 31.8761 13.2082 31.9552C13.2082 32.0343 13.1455 32.0969 13.0665 32.0969Z" fill="#F5CBD9"/>
<path d="M15.7535 32.0969H13.6739C13.5948 32.0969 13.5322 32.0343 13.5322 31.9552C13.5322 31.8761 13.5948 31.8135 13.6739 31.8135H15.7535C15.8326 31.8135 15.8952 31.8761 15.8952 31.9552C15.8952 32.0343 15.8326 32.0969 15.7535 32.0969Z" fill="#F5CBD9"/>
<path d="M11.9039 31.3885C11.8545 31.3885 11.8083 31.3621 11.782 31.3193C11.7424 31.2534 11.7655 31.1677 11.8347 31.1281L12.6784 30.6404C12.7443 30.6008 12.83 30.6239 12.8696 30.6931C12.9091 30.759 12.886 30.8447 12.8168 30.8843L11.9731 31.372C11.9501 31.3819 11.927 31.3885 11.9039 31.3885Z" fill="#F5CBD9"/>
<path d="M13.2711 30.5979C13.2217 30.5979 13.1755 30.5716 13.1492 30.5287C13.1096 30.4628 13.1327 30.3771 13.2019 30.3376L15.0046 29.2961C15.0705 29.2566 15.1562 29.2797 15.1958 29.3489C15.2353 29.4148 15.2123 29.5005 15.1431 29.54L13.3403 30.5815C13.3205 30.5913 13.2975 30.5979 13.2711 30.5979Z" fill="#F5CBD9"/>
<path d="M11.3861 30.868C11.3631 30.868 11.3367 30.8614 11.3169 30.8482C11.251 30.8087 11.2279 30.723 11.2642 30.6571L11.7519 29.8101C11.7915 29.7442 11.8772 29.7211 11.9431 29.7574C12.009 29.7969 12.0321 29.8826 11.9958 29.9485L11.5081 30.7955C11.4817 30.8449 11.4323 30.868 11.3861 30.868Z" fill="#F5CBD9"/>
<path d="M12.1771 29.5001C12.1541 29.5001 12.1277 29.4935 12.1079 29.4803C12.042 29.4407 12.019 29.3551 12.0552 29.2892L12.4869 28.541C12.5265 28.4751 12.6122 28.4521 12.6781 28.4883C12.744 28.5279 12.7671 28.6135 12.7308 28.6794L12.2991 29.4276C12.2727 29.4737 12.2233 29.5001 12.1771 29.5001Z" fill="#F5CBD9"/>
<path d="M10.6769 30.6803C10.5978 30.6803 10.5352 30.6177 10.5352 30.5386V29.5631C10.5352 29.484 10.5978 29.4214 10.6769 29.4214C10.756 29.4214 10.8186 29.484 10.8186 29.5631V30.5386C10.8153 30.6177 10.7527 30.6803 10.6769 30.6803Z" fill="#F5CBD9"/>
<path d="M10.6769 29.0982C10.5978 29.0982 10.5352 29.0356 10.5352 28.9565V27.045C10.5352 26.9659 10.5978 26.9033 10.6769 26.9033C10.756 26.9033 10.8186 26.9659 10.8186 27.045V28.9565C10.8153 29.0356 10.7527 29.0982 10.6769 29.0982Z" fill="#F5CBD9"/>
<path d="M10.6769 34.4865C10.5978 34.4865 10.5352 34.4239 10.5352 34.3448V33.3693C10.5352 33.2902 10.5978 33.2275 10.6769 33.2275C10.756 33.2275 10.8186 33.2902 10.8186 33.3693V34.3448C10.8153 34.4239 10.7527 34.4865 10.6769 34.4865Z" fill="#F5CBD9"/>
<path d="M10.6769 37.0045C10.5978 37.0045 10.5352 36.9419 10.5352 36.8628V34.9513C10.5352 34.8722 10.5978 34.8096 10.6769 34.8096C10.756 34.8096 10.8186 34.8722 10.8186 34.9513V36.8628C10.8153 36.9419 10.7527 37.0045 10.6769 37.0045Z" fill="#F5CBD9"/>
<path d="M11.8741 34.1672C11.8247 34.1672 11.7785 34.1408 11.7522 34.0979L11.2644 33.251C11.2249 33.185 11.2479 33.0994 11.3171 33.0598C11.383 33.0203 11.4687 33.0433 11.5083 33.1125L11.996 33.9595C12.0356 34.0254 12.0125 34.1111 11.9433 34.1507C11.9202 34.1606 11.8972 34.1672 11.8741 34.1672Z" fill="#F5CBD9"/>
<path d="M12.5788 35.3927C12.5294 35.3927 12.4832 35.3664 12.4569 35.3236L12.0515 34.6216C12.012 34.5557 12.035 34.47 12.1042 34.4304C12.1702 34.3909 12.2558 34.414 12.2954 34.4832L12.7008 35.1851C12.7403 35.2511 12.7172 35.3367 12.648 35.3763C12.6283 35.3862 12.6052 35.3927 12.5788 35.3927Z" fill="#F5CBD9"/>
<path d="M12.7474 33.2905C12.7243 33.2905 12.698 33.2839 12.6782 33.2707L11.8345 32.783C11.7686 32.7434 11.7455 32.6577 11.7818 32.5918C11.8213 32.5259 11.907 32.5028 11.9729 32.5391L12.8166 33.0268C12.8825 33.0664 12.9056 33.1521 12.8693 33.218C12.843 33.2674 12.7968 33.2905 12.7474 33.2905Z" fill="#F5CBD9"/>
<path d="M15.0746 34.6347C15.0515 34.6347 15.0252 34.6281 15.0054 34.6149L13.2027 33.5735C13.1367 33.5339 13.1137 33.4483 13.1499 33.3823C13.1895 33.3164 13.2752 33.2934 13.3411 33.3296L15.1438 34.371C15.2097 34.4106 15.2328 34.4963 15.1965 34.5622C15.1702 34.6083 15.124 34.6347 15.0746 34.6347Z" fill="#F5CBD9"/>
<path d="M26.5834 13.2395C26.5043 13.2395 26.4285 13.2362 26.3527 13.2263C25.7067 13.1505 25.1234 12.7419 24.8663 12.1849C24.5928 11.5917 24.7147 10.8435 25.1563 10.4019C25.6243 9.93394 26.4252 9.86144 26.9393 10.2437C27.3545 10.5535 27.5226 11.1303 27.3216 11.5554C27.2095 11.7927 26.9624 11.9707 26.6822 12.0234C26.4285 12.0695 26.1879 12.0036 26.0198 11.8421C25.9638 11.7894 25.9638 11.7004 26.0165 11.6444C26.0692 11.5884 26.1582 11.5884 26.2142 11.6411C26.3164 11.74 26.4647 11.7762 26.6328 11.7466C26.8272 11.7103 26.992 11.5917 27.0678 11.4335C27.2161 11.1237 27.0843 10.6985 26.7745 10.4678C26.3658 10.1646 25.7298 10.224 25.3541 10.5997C24.9915 10.9589 24.8927 11.5785 25.1201 12.0662C25.3376 12.5375 25.8352 12.8836 26.3823 12.9462C26.8997 13.0088 27.4666 12.8243 27.8983 12.4617C28.485 11.9641 28.7519 11.1632 28.5509 10.5107C28.4059 10.0427 28.0302 9.63733 27.5259 9.39345C27.0942 9.18583 26.5669 9.09355 25.9605 9.11662C24.9981 9.15287 24.0028 9.45937 23.0076 10.0262C22.2397 10.4645 21.1488 11.15 20.3051 11.9377C20.2524 11.9838 20.1733 11.9872 20.1205 11.9443C20.0645 11.8982 20.0546 11.8224 20.0909 11.763C20.4237 11.2225 20.661 10.7414 20.8225 10.2833C19.7053 11.2489 18.3969 12.0135 17.0094 12.5079C16.3964 12.7254 15.5857 12.9594 14.7552 12.844C13.8983 12.7221 13.1766 12.1981 12.9162 11.5093C12.7514 11.0742 12.7844 10.5601 13.0052 10.1053C13.2293 9.64722 13.6116 9.30777 14.0565 9.16935C14.6201 8.99468 15.2528 9.13969 15.6351 9.52858C16.0603 9.9636 16.1262 10.6656 15.7867 11.127C15.6088 11.3676 15.3122 11.5291 14.9925 11.5521C14.6926 11.5785 14.4092 11.4829 14.2147 11.2918C14.1587 11.239 14.1587 11.15 14.2114 11.094C14.2641 11.038 14.3531 11.038 14.4092 11.094C14.5443 11.2258 14.7453 11.2951 14.9661 11.2753C15.2067 11.2555 15.4275 11.1402 15.556 10.9622C15.8131 10.6129 15.7538 10.0559 15.4308 9.72302C15.121 9.40664 14.6003 9.2913 14.1356 9.43301C13.7632 9.54836 13.4435 9.83508 13.2524 10.224C13.0645 10.6129 13.0349 11.0446 13.1733 11.4071C13.4007 12.0036 14.0334 12.4551 14.7914 12.5639C15.5626 12.6727 16.3305 12.4485 16.9139 12.2409C18.4233 11.7037 19.8371 10.8403 21.0005 9.7395C21.0466 9.69666 21.1125 9.69007 21.1686 9.71973C21.2213 9.74939 21.2477 9.81201 21.2345 9.87463C21.1323 10.3031 20.9675 10.7348 20.727 11.2061C21.4586 10.626 22.2627 10.1251 22.8691 9.78235C23.904 9.19242 24.9421 8.87274 25.9506 8.83648C26.6031 8.81012 27.1766 8.91559 27.6479 9.14299C28.2246 9.41983 28.6497 9.88781 28.8211 10.4283C29.0584 11.1863 28.7519 12.1091 28.0829 12.6759C27.6544 13.0352 27.1074 13.2395 26.5834 13.2395Z" fill="#F1DFC1"/>
<path d="M26.1253 12.9299C26.0462 12.9299 25.9704 12.9267 25.8946 12.9168C25.6903 12.8937 25.4893 12.8344 25.2981 12.7454C25.2289 12.7124 25.1993 12.63 25.2322 12.5575C25.2652 12.4883 25.3476 12.4587 25.4201 12.4916C25.5848 12.5674 25.7562 12.6169 25.9309 12.6399C26.4483 12.6992 27.0152 12.518 27.4469 12.1555C28.0335 11.6611 28.3005 10.857 28.0994 10.2044C28.0039 9.89794 27.8061 9.6178 27.5128 9.38052C27.4535 9.33108 27.4436 9.2421 27.493 9.18277C27.5425 9.12345 27.6315 9.11357 27.6908 9.163C28.0269 9.43654 28.2543 9.75952 28.3664 10.122C28.6037 10.88 28.2972 11.8028 27.6282 12.3697C27.1964 12.7256 26.6494 12.9299 26.1253 12.9299Z" fill="#F1DFC1"/>
<path d="M15.4685 12.8638C15.4619 12.8638 15.4553 12.8638 15.4487 12.8638C14.7336 12.7617 13.8306 12.2937 13.5307 11.5093C13.3461 11.0216 13.4054 10.4152 13.6888 9.9307C13.9492 9.48579 14.3612 9.19907 14.8489 9.12986C14.9247 9.11668 14.9972 9.1727 15.0071 9.2485C15.017 9.3243 14.9643 9.39681 14.8885 9.40669C14.4864 9.46602 14.1469 9.7033 13.9294 10.0724C13.6888 10.4844 13.6361 10.9985 13.791 11.4072C14.0514 12.0861 14.8522 12.4947 15.4883 12.5837C15.5641 12.5936 15.6168 12.6661 15.6069 12.7419C15.597 12.8111 15.5377 12.8638 15.4685 12.8638Z" fill="#F1DFC1"/>
<path d="M29.6155 9.11351H17.8038C17.7247 9.11351 17.6621 9.05089 17.6621 8.97179C17.6621 8.89269 17.7247 8.83008 17.8038 8.83008H29.6155C29.6946 8.83008 29.7572 8.89269 29.7572 8.97179C29.7572 9.05089 29.6946 9.11351 29.6155 9.11351Z" fill="#F1DFC1"/>
<path d="M26.4489 12.0038C26.802 12.0038 27.0883 11.7176 27.0883 11.3645C27.0883 11.0113 26.802 10.7251 26.4489 10.7251C26.0958 10.7251 25.8096 11.0113 25.8096 11.3645C25.8096 11.7176 26.0958 12.0038 26.4489 12.0038Z" fill="#F1DFC1"/>
<path d="M18.4438 9.47286C18.4438 9.82549 18.157 10.1122 17.8044 10.1122C17.4518 10.1122 17.165 9.82549 17.165 9.47286C17.165 9.12022 17.4518 8.8335 17.8044 8.8335C18.157 8.8335 18.4438 9.12022 18.4438 9.47286Z" fill="#F1DFC1"/>
<path d="M14.6735 11.4862C15.0266 11.4862 15.3129 11.2 15.3129 10.8469C15.3129 10.4938 15.0266 10.2075 14.6735 10.2075C14.3204 10.2075 14.0342 10.4938 14.0342 10.8469C14.0342 11.2 14.3204 11.4862 14.6735 11.4862Z" fill="#F1DFC1"/>
<path d="M39.3275 13.2395C38.8001 13.2395 38.2695 13.0418 37.8378 12.6759C37.1655 12.1091 36.8623 11.1863 37.0996 10.4283C37.2677 9.88781 37.6961 9.41983 38.2728 9.14299C38.7474 8.91559 39.3176 8.81012 39.9701 8.83648C40.9786 8.87274 42.0167 9.19242 43.0516 9.78235C43.658 10.1284 44.4621 10.626 45.1937 11.2061C44.9532 10.7348 44.7884 10.3031 44.6862 9.87463C44.673 9.81531 44.6994 9.75269 44.7521 9.71973C44.8049 9.69007 44.8741 9.69666 44.9202 9.7395C46.0836 10.8403 47.4974 11.7037 49.0068 12.2409C49.5902 12.4485 50.3581 12.6727 51.1292 12.5639C51.8839 12.4584 52.52 12.0036 52.7474 11.4071C52.8858 11.0446 52.8562 10.6129 52.6683 10.224C52.4805 9.83508 52.1575 9.54836 51.7851 9.43301C51.3204 9.288 50.7997 9.40334 50.4899 9.72302C50.1636 10.0559 50.1076 10.6096 50.3646 10.9622C50.4932 11.1369 50.714 11.2555 50.9546 11.2753C51.1721 11.2918 51.3764 11.2258 51.5115 11.094C51.5676 11.0413 51.6565 11.0413 51.7093 11.094C51.762 11.15 51.762 11.239 51.706 11.2918C51.5115 11.4829 51.2281 11.5785 50.9282 11.5521C50.6085 11.5258 50.3119 11.3676 50.134 11.127C49.7945 10.6656 49.8604 9.96031 50.2855 9.52858C50.6678 9.13969 51.3006 8.99468 51.8642 9.16935C52.3091 9.30777 52.6914 9.64722 52.9155 10.1053C53.1396 10.5634 53.1726 11.0742 53.0045 11.5093C52.7408 12.1981 52.0191 12.7221 51.1655 12.844C50.335 12.9627 49.5242 12.7254 48.9113 12.5079C47.5238 12.0135 46.2154 11.2489 45.0982 10.2833C45.2597 10.7414 45.4969 11.2225 45.8298 11.763C45.8661 11.8224 45.8529 11.9015 45.8001 11.9443C45.7474 11.9872 45.6683 11.9871 45.6156 11.9377C44.7752 11.15 43.681 10.4645 42.9131 10.0262C41.9178 9.45937 40.9225 9.15287 39.9602 9.11662C39.3505 9.09355 38.8265 9.18912 38.3948 9.39345C37.8872 9.63733 37.5148 10.0427 37.3698 10.5107C37.1655 11.1632 37.4357 11.9641 38.0224 12.4617C38.4541 12.8275 39.0242 13.0088 39.5384 12.9462C40.0887 12.8803 40.5864 12.5342 40.8039 12.0662C41.0313 11.5752 40.9324 10.9589 40.5699 10.5997C40.1942 10.224 39.5581 10.1679 39.1495 10.4678C38.8364 10.6985 38.7079 11.1237 38.8562 11.4335C38.932 11.5917 39.0968 11.7103 39.2912 11.7466C39.4527 11.7762 39.6076 11.7367 39.7098 11.6411C39.7658 11.5884 39.8548 11.5884 39.9075 11.6444C39.9602 11.7004 39.9602 11.7894 39.9042 11.8421C39.7361 12.0036 39.4955 12.0695 39.2418 12.0234C38.9616 11.974 38.7178 11.7927 38.6057 11.5554C38.4014 11.1303 38.5694 10.5535 38.988 10.2437C39.5021 9.86144 40.303 9.93394 40.771 10.4019C41.2126 10.8435 41.3345 11.5917 41.061 12.1849C40.8039 12.7419 40.2206 13.1505 39.5746 13.2263C39.4856 13.2362 39.4065 13.2395 39.3275 13.2395Z" fill="#F1DFC1"/>
<path d="M39.7963 12.9298C39.2723 12.9298 38.7252 12.7288 38.2968 12.3663C37.6245 11.7994 37.3213 10.8766 37.5586 10.1186C37.6706 9.7594 37.898 9.43642 38.2342 9.15958C38.2935 9.11015 38.3825 9.12003 38.4319 9.17936C38.4814 9.23868 38.4715 9.32766 38.4121 9.3771C38.1188 9.61768 37.9244 9.89452 37.8288 10.201C37.6245 10.8536 37.8947 11.6544 38.4813 12.1521C38.9131 12.5179 39.4832 12.6991 39.9974 12.6365C40.172 12.6167 40.3434 12.5673 40.5082 12.4882C40.5774 12.4552 40.6631 12.4849 40.696 12.5541C40.729 12.6233 40.6993 12.709 40.6301 12.742C40.439 12.831 40.2379 12.8903 40.0336 12.9134C39.9512 12.9265 39.8721 12.9298 39.7963 12.9298Z" fill="#F1DFC1"/>
<path d="M50.4492 12.8637C50.38 12.8637 50.3206 12.8143 50.3108 12.7418C50.3009 12.666 50.3536 12.5935 50.4294 12.5836C51.0655 12.4946 51.8663 12.086 52.1267 11.407C52.2849 10.9951 52.2321 10.4843 51.9883 10.069C51.7707 9.69989 51.4313 9.4626 51.0292 9.40327C50.9534 9.39339 50.9007 9.32089 50.9106 9.24509C50.9205 9.16929 50.993 9.11326 51.0688 9.12644C51.5565 9.19894 51.9685 9.48238 52.2288 9.92729C52.5123 10.4118 52.5749 11.0149 52.387 11.5059C52.0871 12.2936 51.1841 12.7583 50.469 12.8604C50.4624 12.8637 50.4558 12.8637 50.4492 12.8637Z" fill="#F1DFC1"/>
<path d="M48.1168 9.11351H36.3019C36.2228 9.11351 36.1602 9.05089 36.1602 8.97179C36.1602 8.89269 36.2228 8.83008 36.3019 8.83008H48.1135C48.1926 8.83008 48.2553 8.89269 48.2553 8.97179C48.2553 9.05089 48.1926 9.11351 48.1168 9.11351Z" fill="#F1DFC1"/>
<path d="M39.4704 12.0038C39.8235 12.0038 40.1098 11.7176 40.1098 11.3645C40.1098 11.0113 39.8235 10.7251 39.4704 10.7251C39.1173 10.7251 38.8311 11.0113 38.8311 11.3645C38.8311 11.7176 39.1173 12.0038 39.4704 12.0038Z" fill="#F1DFC1"/>
<path d="M47.4756 9.47286C47.4756 9.82549 47.7623 10.1122 48.1149 10.1122C48.4676 10.1122 48.7543 9.82549 48.7543 9.47286C48.7543 9.12022 48.4676 8.8335 48.1149 8.8335C47.7623 8.8335 47.4756 9.12022 47.4756 9.47286Z" fill="#F1DFC1"/>
<path d="M51.2458 11.4862C51.5989 11.4862 51.8852 11.2 51.8852 10.8469C51.8852 10.4938 51.5989 10.2075 51.2458 10.2075C50.8927 10.2075 50.6064 10.4938 50.6064 10.8469C50.6064 11.2 50.8927 11.4862 51.2458 11.4862Z" fill="#F1DFC1"/>
<path d="M26.135 55.0783C26.0724 55.0783 26.013 55.0783 25.9504 55.075C24.942 55.0387 23.9038 54.719 22.869 54.1291C22.2626 53.7831 21.4584 53.2854 20.7268 52.7054C20.9674 53.1767 21.1322 53.6084 21.2343 54.0368C21.2475 54.0961 21.2211 54.1588 21.1684 54.1917C21.1157 54.2214 21.0465 54.2148 21.0003 54.172C19.837 53.0712 18.4231 52.2077 16.9137 51.6705C16.3304 51.4629 15.5592 51.2388 14.7913 51.3476C14.0366 51.4563 13.4005 51.9078 13.1731 52.5044C13.0347 52.8669 13.0644 53.2986 13.2522 53.6875C13.4401 54.0764 13.7631 54.3631 14.1355 54.4785C14.6002 54.6235 15.1209 54.5081 15.4307 54.1884C15.7569 53.8556 15.813 53.3019 15.5559 52.9493C15.4274 52.7713 15.2066 52.6559 14.966 52.6362C14.7485 52.6197 14.5441 52.6856 14.409 52.8174C14.353 52.8735 14.264 52.8702 14.2113 52.8174C14.1585 52.7614 14.1585 52.6724 14.2146 52.6197C14.409 52.4285 14.6924 52.333 14.989 52.3593C15.3087 52.3857 15.6053 52.5439 15.7833 52.7845C16.1228 53.2459 16.0568 53.9512 15.6317 54.3829C15.2494 54.7718 14.6166 54.9168 14.0531 54.7421C13.6082 54.6037 13.2259 54.2642 13.0018 53.8061C12.7776 53.348 12.7447 52.8372 12.9128 52.4022C13.1764 51.7134 13.8982 51.1894 14.7518 51.0674C15.5856 50.9488 16.393 51.1861 17.006 51.4036C18.3935 51.8979 19.7018 52.6625 20.8191 53.6282C20.6576 53.1701 20.4203 52.6889 20.0874 52.1484C20.0512 52.0891 20.0644 52.01 20.1171 51.9672C20.1698 51.9243 20.2489 51.9243 20.3017 51.9737C21.1421 52.7614 22.2362 53.4469 23.0041 53.8852C23.9994 54.4521 24.9947 54.7586 25.957 54.7948C26.5667 54.8179 27.0907 54.7223 27.5225 54.518C28.03 54.2741 28.4024 53.8688 28.5474 53.4008C28.7518 52.7482 28.4815 51.9474 27.8949 51.4497C27.4631 51.0839 26.8963 50.9026 26.3789 50.9653C25.8285 51.0312 25.3341 51.3772 25.1166 51.8452C24.8892 52.333 24.9881 52.9526 25.3506 53.3118C25.7263 53.6875 26.3624 53.7435 26.7711 53.4436C27.0841 53.2129 27.2127 52.7878 27.0644 52.478C26.9886 52.3198 26.8238 52.2011 26.6293 52.1649C26.4646 52.1352 26.313 52.1748 26.2108 52.2704C26.1548 52.3231 26.0658 52.3231 26.0131 52.2671C25.9603 52.211 25.9603 52.1221 26.0163 52.0693C26.1844 51.9078 26.425 51.8419 26.6788 51.8881C26.9589 51.9375 27.2028 52.1188 27.3181 52.356C27.5225 52.7812 27.3544 53.3579 26.9358 53.6677C26.4217 54.05 25.6209 53.9775 25.1529 53.5095C24.7113 53.0679 24.5893 52.3198 24.8629 51.7266C25.1199 51.1696 25.7033 50.7609 26.3492 50.6851C26.9424 50.6159 27.5884 50.8203 28.0794 51.2355C28.7518 51.8024 29.055 52.7252 28.8177 53.4832C28.6496 54.0236 28.2211 54.4916 27.6444 54.7685C27.2193 54.9761 26.7117 55.0783 26.135 55.0783Z" fill="#F1DFC1"/>
<path d="M27.5998 54.7848C27.5602 54.7848 27.5174 54.7684 27.491 54.7321C27.4416 54.6728 27.4515 54.5838 27.5108 54.5344C27.8041 54.2938 27.9986 54.017 28.0974 53.7105C28.3018 53.0579 28.0315 52.2571 27.4449 51.7594C27.0131 51.3936 26.4463 51.2123 25.9289 51.275C25.7542 51.2947 25.5828 51.3442 25.418 51.4233C25.3488 51.4562 25.2631 51.4266 25.2302 51.3573C25.1972 51.2881 25.2269 51.2025 25.2994 51.1695C25.4905 51.0805 25.6916 51.0212 25.8959 50.9981C26.4891 50.9289 27.1351 51.1332 27.6261 51.5485C28.2985 52.1154 28.6017 53.0381 28.3644 53.7961C28.2523 54.1587 28.0249 54.4783 27.6888 54.7552C27.6624 54.7717 27.6294 54.7848 27.5998 54.7848Z" fill="#F1DFC1"/>
<path d="M14.8672 54.785C14.8606 54.785 14.854 54.785 14.8474 54.785C14.3597 54.7125 13.9477 54.4291 13.6874 53.9841C13.4039 53.4997 13.3413 52.8966 13.5292 52.4055C13.8291 51.6179 14.7321 51.1532 15.4472 51.051C15.523 51.0411 15.5955 51.0939 15.6054 51.1697C15.6153 51.2455 15.5626 51.318 15.4868 51.3278C14.8507 51.4168 14.0499 51.8255 13.7895 52.5044C13.6313 52.9164 13.6841 53.4272 13.9279 53.8391C14.1454 54.2083 14.4849 54.4455 14.887 54.5049C14.9628 54.5148 15.0155 54.5873 15.0056 54.6631C14.9957 54.7356 14.9364 54.785 14.8672 54.785Z" fill="#F1DFC1"/>
<path d="M29.6155 55.0783H17.8038C17.7247 55.0783 17.6621 55.0157 17.6621 54.9366C17.6621 54.8575 17.7247 54.7949 17.8038 54.7949H29.6155C29.6946 54.7949 29.7572 54.8575 29.7572 54.9366C29.7572 55.0157 29.6946 55.0783 29.6155 55.0783Z" fill="#F1DFC1"/>
<path d="M26.448 53.1864C26.8011 53.1864 27.0873 52.9002 27.0873 52.5471C27.0873 52.194 26.8011 51.9077 26.448 51.9077C26.0948 51.9077 25.8086 52.194 25.8086 52.5471C25.8086 52.9002 26.0948 53.1864 26.448 53.1864Z" fill="#F1DFC1"/>
<path d="M17.8044 55.078C18.1575 55.078 18.4438 54.7918 18.4438 54.4387C18.4438 54.0856 18.1575 53.7993 17.8044 53.7993C17.4513 53.7993 17.165 54.0856 17.165 54.4387C17.165 54.7918 17.4513 55.078 17.8044 55.078Z" fill="#F1DFC1"/>
<path d="M14.6735 53.704C15.0266 53.704 15.3129 53.4178 15.3129 53.0647C15.3129 52.7115 15.0266 52.4253 14.6735 52.4253C14.3204 52.4253 14.0342 52.7115 14.0342 53.0647C14.0342 53.4178 14.3204 53.704 14.6735 53.704Z" fill="#F1DFC1"/>
<path d="M39.7822 55.0781C39.2055 55.0781 38.698 54.9759 38.2695 54.7683C37.6928 54.4914 37.2676 54.0234 37.0963 53.483C36.859 52.725 37.1655 51.8022 37.8345 51.2353C38.3321 50.8135 38.9616 50.6157 39.5647 50.6849C40.2107 50.7607 40.794 51.1694 41.0511 51.7264C41.3246 52.3196 41.2027 53.0677 40.761 53.5093C40.2898 53.9773 39.4889 54.0498 38.9781 53.6675C38.5628 53.3577 38.3947 52.781 38.5958 52.3558C38.7078 52.1186 38.9517 51.9406 39.2318 51.8879C39.4856 51.8417 39.7262 51.9076 39.8943 52.0691C39.9503 52.1219 39.9503 52.2108 39.8976 52.2669C39.8448 52.3229 39.7559 52.3229 39.6998 52.2702C39.5977 52.1713 39.4461 52.135 39.2813 52.1647C39.0868 52.2009 38.9221 52.3196 38.8463 52.4778C38.698 52.7876 38.8298 53.2127 39.1396 53.4434C39.5482 53.7466 40.1843 53.6873 40.56 53.3116C40.9225 52.9524 41.0214 52.3361 40.794 51.845C40.5765 51.3737 40.0788 51.0277 39.5285 50.9651C39.011 50.9057 38.4442 51.087 38.0125 51.4495C37.4258 51.9439 37.1589 52.748 37.3599 53.4006C37.5049 53.8686 37.8806 54.2739 38.3849 54.5178C38.8166 54.7254 39.3439 54.8177 39.9503 54.7946C40.9126 54.7584 41.9079 54.4519 42.9032 53.885C43.6711 53.4467 44.762 52.7612 45.6057 51.9735C45.6584 51.9241 45.7375 51.9241 45.7902 51.967C45.8462 52.0131 45.8561 52.0889 45.8199 52.1482C45.487 52.6887 45.2497 53.1699 45.0882 53.628C46.2022 52.6623 47.5139 51.8977 48.9013 51.4034C49.5143 51.1859 50.3251 50.9486 51.1556 51.0672C52.0124 51.1892 52.7342 51.7132 52.9946 52.402C53.1593 52.837 53.1264 53.3511 52.9056 53.8059C52.6815 54.264 52.2992 54.6035 51.8543 54.7419C51.2907 54.9166 50.6579 54.7716 50.2756 54.3827C49.8505 53.9477 49.7846 53.2457 50.124 52.7843C50.302 52.5437 50.5953 52.3822 50.9183 52.3591C51.2182 52.3361 51.5016 52.4316 51.6961 52.6195C51.7521 52.6722 51.7521 52.7612 51.6994 52.8172C51.6466 52.8733 51.5576 52.8733 51.5016 52.8172C51.3665 52.6854 51.1622 52.6162 50.9447 52.636C50.7041 52.6557 50.4833 52.7711 50.3547 52.9491C50.0977 53.2984 50.157 53.8521 50.48 54.1882C50.7898 54.5046 51.3105 54.62 51.7752 54.4783C52.1476 54.3629 52.4672 54.0762 52.6584 53.6873C52.8462 53.2984 52.8759 52.8667 52.7375 52.5042C52.5101 51.9076 51.8773 51.4561 51.1193 51.3474C50.3514 51.2386 49.5802 51.4627 48.9969 51.6703C47.4875 52.2075 46.0737 53.071 44.9103 54.1718C44.8641 54.2146 44.7982 54.2212 44.7422 54.1915C44.6895 54.1619 44.6631 54.0992 44.6763 54.0366C44.7785 53.6082 44.9432 53.1765 45.1838 52.7052C44.4522 53.2852 43.648 53.7862 43.0416 54.1289C42.0068 54.7188 40.9687 55.0352 39.9602 55.0748C39.9042 55.0781 39.8415 55.0781 39.7822 55.0781Z" fill="#F1DFC1"/>
<path d="M38.3189 54.7847C38.2859 54.7847 38.2562 54.7748 38.2299 54.7518C37.8937 54.4782 37.6663 54.1553 37.5543 53.7927C37.317 53.0347 37.6235 52.1119 38.2925 51.5451C38.7835 51.1298 39.4328 50.9255 40.0227 50.9947C40.227 51.0178 40.4281 51.0771 40.6192 51.1661C40.6884 51.199 40.7181 51.2814 40.6884 51.3539C40.6555 51.4232 40.5731 51.4528 40.5006 51.4198C40.3358 51.344 40.1644 51.2946 39.9898 51.2716C39.4723 51.2089 38.9055 51.3935 38.4738 51.756C37.8871 52.2504 37.6202 53.0545 37.8212 53.707C37.9168 54.0135 38.1145 54.2937 38.4045 54.531C38.4639 54.5804 38.4738 54.6694 38.4243 54.7287C38.4013 54.765 38.3617 54.7847 38.3189 54.7847Z" fill="#F1DFC1"/>
<path d="M51.049 54.7845C50.9798 54.7845 50.9205 54.7351 50.9106 54.6659C50.9007 54.5901 50.9534 54.5175 51.0292 54.5077C51.4313 54.4483 51.7707 54.2111 51.9883 53.8419C52.2288 53.43 52.2816 52.9159 52.1267 52.5039C51.8663 51.825 51.0655 51.4163 50.4294 51.3274C50.3536 51.3175 50.3009 51.245 50.3108 51.1692C50.3206 51.0934 50.3932 51.0406 50.469 51.0505C51.2072 51.156 52.0871 51.6141 52.387 52.405C52.5716 52.8961 52.5123 53.4992 52.2288 53.9837C51.9685 54.4286 51.5565 54.7153 51.0688 54.7845C51.0622 54.7845 51.0556 54.7845 51.049 54.7845Z" fill="#F1DFC1"/>
<path d="M48.1168 55.0779H36.3019C36.2228 55.0779 36.1602 55.0152 36.1602 54.9361C36.1602 54.857 36.2228 54.7944 36.3019 54.7944H48.1135C48.1926 54.7944 48.2553 54.857 48.2553 54.9361C48.2553 55.0152 48.1926 55.0779 48.1168 55.0779Z" fill="#F1DFC1"/>
<path d="M39.4704 53.1864C39.8235 53.1864 40.1098 52.9002 40.1098 52.5471C40.1098 52.194 39.8235 51.9077 39.4704 51.9077C39.1173 51.9077 38.8311 52.194 38.8311 52.5471C38.8311 52.9002 39.1173 53.1864 39.4704 53.1864Z" fill="#F1DFC1"/>
<path d="M48.1179 55.078C48.471 55.078 48.7572 54.7918 48.7572 54.4387C48.7572 54.0856 48.471 53.7993 48.1179 53.7993C47.7648 53.7993 47.4785 54.0856 47.4785 54.4387C47.4785 54.7918 47.7648 55.078 48.1179 55.078Z" fill="#F1DFC1"/>
<path d="M51.2458 53.704C51.5989 53.704 51.8852 53.4178 51.8852 53.0647C51.8852 52.7115 51.5989 52.4253 51.2458 52.4253C50.8927 52.4253 50.6064 52.7115 50.6064 53.0647C50.6064 53.4178 50.8927 53.704 51.2458 53.704Z" fill="#F1DFC1"/>
<path d="M53.9554 27.8951C53.3325 27.8951 52.68 27.5952 52.2417 27.0778C51.8198 26.5801 51.6221 25.9506 51.6913 25.3475C51.7671 24.7016 52.1758 24.1182 52.7327 23.8612C53.3259 23.5876 54.0741 23.7096 54.5157 24.1512C54.9837 24.6225 55.0562 25.4233 54.6739 25.9374C54.3641 26.3527 53.7873 26.5208 53.3622 26.3198C53.1249 26.2077 52.9469 25.9638 52.8942 25.6804C52.8481 25.4266 52.914 25.186 53.0755 25.018C53.1282 24.9619 53.2172 24.9619 53.2732 25.0147C53.3292 25.0674 53.3292 25.1564 53.2765 25.2124C53.1776 25.3146 53.1414 25.4662 53.171 25.6309C53.2073 25.8254 53.3259 25.9902 53.4841 26.066C53.7939 26.2143 54.2191 26.0825 54.4498 25.7727C54.753 25.364 54.6936 24.7279 54.3179 24.3522C53.9587 23.9897 53.3424 23.8908 52.8514 24.1182C52.3801 24.3358 52.034 24.8334 51.9714 25.3838C51.9121 25.9012 52.0934 26.4681 52.4559 26.8998C52.9502 27.4864 53.7544 27.7567 54.4069 27.5523C54.8716 27.4073 55.2803 27.0316 55.5242 26.5274C55.7318 26.0956 55.8241 25.5683 55.801 24.9619C55.7647 23.9996 55.4582 23.0043 54.8914 22.009C54.4531 21.2411 53.7676 20.1503 52.9799 19.3066C52.9305 19.2538 52.9305 19.1747 52.9733 19.122C53.0161 19.0693 53.0952 19.0561 53.1546 19.0924C53.6951 19.4252 54.1762 19.6625 54.6343 19.824C53.6687 18.7068 52.9041 17.3984 52.4097 16.0109C52.1922 15.3979 51.9549 14.5872 52.0736 13.7567C52.1955 12.9031 52.7195 12.178 53.4083 11.9177C53.8434 11.7529 54.3542 11.7859 54.8123 12.0067C55.2704 12.2308 55.6098 12.6131 55.7483 13.058C55.9229 13.6215 55.7779 14.2543 55.389 14.6366C54.954 15.0617 54.252 15.1277 53.7906 14.7882C53.55 14.6102 53.3886 14.3136 53.3655 13.9939C53.3424 13.694 53.438 13.4106 53.6258 13.2195C53.6819 13.1634 53.7676 13.1634 53.8236 13.2162C53.8796 13.2689 53.8796 13.3579 53.8236 13.4139C53.6918 13.549 53.6225 13.7534 53.6423 13.9709C53.6621 14.2115 53.7774 14.4323 53.9554 14.5608C54.3048 14.8179 54.8617 14.7585 55.1946 14.4356C55.511 14.1258 55.6263 13.6051 55.4813 13.1404C55.366 12.768 55.0792 12.4483 54.6903 12.2571C54.3015 12.0693 53.873 12.0396 53.5072 12.178C52.9107 12.4054 52.4592 13.0382 52.3504 13.7962C52.2417 14.5674 52.4658 15.3353 52.6734 15.9186C53.2106 17.428 54.0741 18.8419 55.1748 20.0052C55.2177 20.0514 55.2242 20.1173 55.1946 20.1733C55.1649 20.2261 55.099 20.2524 55.0397 20.2392C54.6113 20.1371 54.1795 19.9723 53.7082 19.7317C54.2883 20.4634 54.7892 21.2675 55.132 21.8739C55.7219 22.9087 56.0416 23.9469 56.0778 24.9553C56.1009 25.6079 55.9987 26.1813 55.7713 26.6526C55.4945 27.2294 55.0265 27.6578 54.486 27.8259C54.3212 27.8687 54.14 27.8951 53.9554 27.8951Z" fill="#F1DFC1"/>
<path d="M54.264 27.4368C53.6411 27.4368 52.9886 27.1369 52.5503 26.6195C52.1284 26.1218 51.9307 25.4891 51.9999 24.8893C52.023 24.6849 52.0823 24.4839 52.1713 24.2927C52.2042 24.2235 52.2866 24.1939 52.3591 24.2268C52.4283 24.2598 52.458 24.3422 52.425 24.4147C52.3492 24.5795 52.2998 24.7509 52.28 24.9255C52.2174 25.4429 52.402 26.0098 52.7645 26.4415C53.2588 27.0282 54.063 27.2951 54.7155 27.0941C55.022 26.9985 55.2988 26.8008 55.5394 26.5107C55.5889 26.4514 55.6778 26.4415 55.7372 26.491C55.7965 26.5404 55.8064 26.6294 55.7569 26.6887C55.4801 27.0249 55.1604 27.2523 54.7979 27.3643C54.6298 27.4104 54.4486 27.4368 54.264 27.4368Z" fill="#F1DFC1"/>
<path d="M52.1982 14.6035C52.1916 14.6035 52.185 14.6035 52.1784 14.6035C52.1026 14.5936 52.0499 14.5211 52.0598 14.4453C52.162 13.7301 52.6266 12.8271 53.4143 12.5272C53.9054 12.3394 54.5085 12.402 54.9929 12.6854C55.4378 12.9458 55.7246 13.3577 55.7938 13.8455C55.8037 13.9213 55.7509 13.9938 55.6751 14.0037C55.5993 14.0136 55.5268 13.9608 55.5169 13.885C55.4576 13.483 55.2203 13.1435 54.8512 12.926C54.4393 12.6854 53.9251 12.6327 53.5132 12.7876C52.8343 13.0479 52.4256 13.8488 52.3366 14.4848C52.3267 14.5507 52.2641 14.6035 52.1982 14.6035Z" fill="#F1DFC1"/>
<path d="M55.9454 28.7518C55.8663 28.7518 55.8037 28.6892 55.8037 28.6101V16.7984C55.8037 16.7194 55.8663 16.6567 55.9454 16.6567C56.0245 16.6567 56.0871 16.7194 56.0871 16.7984V28.6101C56.0871 28.6892 56.0245 28.7518 55.9454 28.7518Z" fill="#F1DFC1"/>
<path d="M53.5534 26.0824C53.2008 26.0824 52.9141 25.7957 52.9141 25.4431C52.9141 25.0904 53.2008 24.8037 53.5534 24.8037C53.9061 24.8037 54.1928 25.0904 54.1928 25.4431C54.1928 25.7957 53.9094 26.0824 53.5534 26.0824Z" fill="#F1DFC1"/>
<path d="M55.4431 17.4379C55.7962 17.4379 56.0824 17.1516 56.0824 16.7985C56.0824 16.4454 55.7962 16.1592 55.4431 16.1592C55.09 16.1592 54.8037 16.4454 54.8037 16.7985C54.8037 17.1516 55.09 17.4379 55.4431 17.4379Z" fill="#F1DFC1"/>
<path d="M54.0739 14.3105C54.427 14.3105 54.7133 14.0242 54.7133 13.6711C54.7133 13.318 54.427 13.0317 54.0739 13.0317C53.7208 13.0317 53.4346 13.318 53.4346 13.6711C53.4346 14.0242 53.7208 14.3105 54.0739 14.3105Z" fill="#F1DFC1"/>
<path d="M53.9952 52.1053C53.7942 52.1053 53.5964 52.069 53.4152 51.9998C52.7264 51.7362 52.2024 51.0144 52.0804 50.1608C51.9618 49.3303 52.1991 48.5196 52.4166 47.9066C52.9109 46.5191 53.6755 45.2108 54.6412 44.0935C54.1831 44.255 53.7019 44.4923 53.1614 44.8252C53.1021 44.8614 53.023 44.8482 52.9802 44.7955C52.934 44.7428 52.9373 44.6637 52.9867 44.6109C53.7744 43.7706 54.4599 42.6764 54.8982 41.9085C55.4651 40.9132 55.7716 39.9179 55.8078 38.9556C55.8309 38.3492 55.7353 37.8219 55.531 37.3901C55.2871 36.8826 54.8818 36.5102 54.4138 36.3652C53.7612 36.1608 52.9604 36.4311 52.4627 37.0177C52.0969 37.4495 51.9156 38.0163 51.9783 38.5337C52.0442 39.0841 52.3902 39.5785 52.8582 39.7993C53.346 40.0267 53.9656 39.9278 54.3248 39.5653C54.7005 39.1896 54.7598 38.5535 54.4566 38.1448C54.2259 37.8318 53.8008 37.7032 53.491 37.8515C53.3328 37.9273 53.2141 38.0921 53.1779 38.2866C53.1482 38.4513 53.1878 38.603 53.2833 38.7051C53.3361 38.7611 53.3361 38.8501 53.2801 38.9028C53.224 38.9556 53.135 38.9556 53.0823 38.8995C52.9208 38.7315 52.8549 38.4909 52.901 38.2371C52.9505 37.957 53.1318 37.7131 53.369 37.5978C53.7942 37.3934 54.3709 37.5615 54.6807 37.9801C55.063 38.4942 54.9905 39.295 54.5225 39.7663C54.0809 40.2079 53.3328 40.3299 52.7396 40.0563C52.1826 39.7993 51.7739 39.2159 51.6981 38.57C51.6256 37.9702 51.8267 37.3374 52.2485 36.8398C52.8154 36.1674 53.7382 35.8642 54.4962 36.1015C55.0367 36.2696 55.5046 36.698 55.7815 37.2748C56.0089 37.7494 56.111 38.3195 56.088 38.9721C56.0517 39.9805 55.732 41.0187 55.1421 42.0535C54.7961 42.6599 54.2984 43.4641 53.7184 44.1957C54.1897 43.9551 54.6214 43.7903 55.0498 43.6882C55.1092 43.6717 55.1718 43.7014 55.2047 43.7541C55.2344 43.8068 55.2278 43.876 55.185 43.9221C54.0842 45.0855 53.2207 46.4994 52.6835 48.0088C52.4759 48.5921 52.2518 49.36 52.3606 50.1312C52.466 50.8859 52.9208 51.522 53.5173 51.7494C53.8799 51.8878 54.3116 51.8581 54.7005 51.6703C55.0894 51.4824 55.3761 51.1594 55.4915 50.787C55.6365 50.3223 55.5211 49.8016 55.2047 49.4918C54.8719 49.1656 54.3182 49.1095 53.9656 49.3666C53.7909 49.4951 53.6722 49.7159 53.6525 49.9565C53.636 50.174 53.7019 50.3784 53.8337 50.5135C53.8865 50.5695 53.8865 50.6585 53.8337 50.7112C53.7777 50.764 53.6887 50.764 53.636 50.7079C53.4448 50.5135 53.3493 50.2301 53.3756 49.9302C53.402 49.6105 53.5602 49.3139 53.8008 49.1359C54.2622 48.7964 54.9674 48.8624 55.3992 49.2875C55.7881 49.6698 55.9331 50.3026 55.7584 50.8661C55.62 51.311 55.2805 51.6933 54.8224 51.9174C54.5522 52.0394 54.272 52.1053 53.9952 52.1053Z" fill="#F1DFC1"/>
<path d="M52.3001 39.6998C52.2474 39.6998 52.1979 39.6701 52.1749 39.6207C52.0859 39.4295 52.0266 39.2285 52.0035 39.0242C51.9343 38.431 52.1386 37.785 52.5539 37.294C53.1207 36.6249 54.0435 36.3184 54.8015 36.5557C55.1608 36.6678 55.4837 36.8952 55.7606 37.2313C55.81 37.2907 55.8001 37.3797 55.7408 37.4291C55.6815 37.4785 55.5925 37.4686 55.5431 37.4093C55.3025 37.116 55.0256 36.9215 54.7191 36.826C54.0666 36.6216 53.2657 36.8919 52.7681 37.4785C52.4023 37.9102 52.221 38.4771 52.2836 38.9945C52.3034 39.1692 52.3528 39.3406 52.4319 39.5054C52.4649 39.5746 52.4352 39.6603 52.366 39.6932C52.343 39.6965 52.3199 39.6998 52.3001 39.6998Z" fill="#F1DFC1"/>
<path d="M54.0145 51.4918C53.8069 51.4918 53.5992 51.4555 53.4114 51.3863C52.6237 51.0864 52.159 50.1834 52.0569 49.4682C52.047 49.3924 52.0997 49.3199 52.1755 49.31C52.2513 49.2969 52.3238 49.3529 52.3337 49.4287C52.4227 50.0647 52.8313 50.8656 53.5102 51.126C53.9222 51.2841 54.433 51.2314 54.8483 50.9875C55.2174 50.77 55.4547 50.4306 55.514 50.0285C55.5239 49.9527 55.5964 49.8967 55.6722 49.9098C55.748 49.9197 55.8007 49.9922 55.7909 50.068C55.7183 50.5558 55.4349 50.9678 54.99 51.2281C54.6934 51.4028 54.3506 51.4918 54.0145 51.4918Z" fill="#F1DFC1"/>
<path d="M55.9454 47.2538C55.8663 47.2538 55.8037 47.1912 55.8037 47.1121V35.3004C55.8037 35.2213 55.8663 35.1587 55.9454 35.1587C56.0245 35.1587 56.0871 35.2213 56.0871 35.3004V47.1121C56.0871 47.1912 56.0245 47.2538 55.9454 47.2538Z" fill="#F1DFC1"/>
<path d="M53.5544 37.8281C53.2018 37.8281 52.915 38.1148 52.915 38.4675C52.915 38.8201 53.2018 39.1068 53.5544 39.1068C53.907 39.1068 54.1938 38.8201 54.1938 38.4675C54.1938 38.1148 53.9103 37.8281 53.5544 37.8281Z" fill="#F1DFC1"/>
<path d="M55.445 47.7514C55.7981 47.7514 56.0844 47.4651 56.0844 47.112C56.0844 46.7589 55.7981 46.4727 55.445 46.4727C55.0919 46.4727 54.8057 46.7589 54.8057 47.112C54.8057 47.4651 55.0919 47.7514 55.445 47.7514Z" fill="#F1DFC1"/>
<path d="M54.0739 50.8788C54.427 50.8788 54.7133 50.5926 54.7133 50.2395C54.7133 49.8863 54.427 49.6001 54.0739 49.6001C53.7208 49.6001 53.4346 49.8863 53.4346 50.2395C53.4346 50.5926 53.7208 50.8788 54.0739 50.8788Z" fill="#F1DFC1"/>
<path d="M11.9697 27.8952C11.7852 27.8952 11.6072 27.8688 11.4358 27.8161C10.8953 27.648 10.4273 27.2196 10.1505 26.6428C9.9231 26.1682 9.82094 25.5981 9.84401 24.9456C9.88026 23.9371 10.1999 22.8989 10.7899 21.8641C11.1359 21.2577 11.6336 20.4535 12.2136 19.7219C11.7456 19.9625 11.3106 20.1273 10.8821 20.2295C10.8228 20.2426 10.7602 20.2163 10.7272 20.1635C10.6976 20.1108 10.7042 20.0416 10.747 19.9955C11.8478 18.8321 12.7112 17.4182 13.2484 15.9088C13.4561 15.3255 13.6802 14.5576 13.5714 13.7864C13.4627 13.0317 13.0111 12.3956 12.4146 12.1682C12.0521 12.0298 11.6204 12.0595 11.2315 12.2473C10.8426 12.4352 10.5559 12.7582 10.4405 13.1306C10.2955 13.5953 10.4142 14.116 10.7305 14.4258C11.0634 14.752 11.6171 14.8081 11.9697 14.551C12.1477 14.4225 12.263 14.2017 12.2828 13.9611C12.2993 13.7436 12.2334 13.5392 12.1015 13.4041C12.0488 13.3481 12.0488 13.2591 12.1015 13.2064C12.1576 13.1537 12.2465 13.1536 12.2993 13.2097C12.4904 13.4041 12.586 13.6875 12.5596 13.9842C12.5333 14.3038 12.3751 14.6004 12.1312 14.7784C11.6698 15.1179 10.9645 15.052 10.5328 14.6268C10.1439 14.2445 9.9989 13.6117 10.1736 13.0482C10.312 12.6033 10.6514 12.221 11.1095 11.9969C11.5676 11.7728 12.0785 11.7398 12.5135 11.9079C13.2023 12.1715 13.7263 12.8933 13.8482 13.7469C13.9669 14.5774 13.7296 15.3881 13.5121 16.0011C13.021 17.3886 12.2564 18.697 11.2875 19.8142C11.7456 19.6527 12.2268 19.4154 12.7673 19.0825C12.8266 19.0463 12.9057 19.0595 12.9485 19.1122C12.9947 19.1649 12.9914 19.244 12.9419 19.2968C12.1543 20.1372 11.4688 21.2313 11.0304 21.9992C10.4636 22.9945 10.1571 23.9898 10.1208 24.9521C10.0978 25.5585 10.1933 26.0858 10.3977 26.5176C10.6416 27.0251 11.0469 27.3975 11.5149 27.5425C12.1675 27.7469 12.9683 27.4766 13.4659 26.89C13.8318 26.4583 14.013 25.8914 13.9504 25.374C13.8845 24.8236 13.5384 24.3293 13.0705 24.1084C12.5794 23.881 11.9631 23.9799 11.6039 24.3424C11.2282 24.7181 11.1722 25.3542 11.4721 25.7629C11.7061 26.076 12.1279 26.2045 12.4377 26.0562C12.5959 25.9804 12.7145 25.8156 12.7508 25.6212C12.7804 25.4564 12.7409 25.3048 12.6453 25.2026C12.5926 25.1466 12.5926 25.0576 12.6486 25.0049C12.7046 24.9521 12.7936 24.9521 12.8464 25.0082C13.0078 25.1763 13.0738 25.4168 13.0276 25.6706C12.9782 25.9507 12.7969 26.1946 12.5596 26.3099C12.1345 26.5143 11.5578 26.3462 11.248 25.9277C10.8657 25.4135 10.9382 24.6127 11.4062 24.1414C11.8478 23.6998 12.5959 23.5778 13.1891 23.8514C13.7461 24.1085 14.1547 24.6918 14.2305 25.3377C14.303 25.9408 14.102 26.5703 13.6802 27.068C13.2451 27.5953 12.5926 27.8952 11.9697 27.8952Z" fill="#F1DFC1"/>
<path d="M11.6594 27.4371C11.4781 27.4371 11.2968 27.4107 11.1255 27.358C10.7629 27.2459 10.4433 27.0185 10.1664 26.6823C10.117 26.623 10.1269 26.5341 10.1862 26.4846C10.2455 26.4352 10.3345 26.4451 10.3839 26.5044C10.6245 26.7977 10.9014 26.9922 11.2079 27.0877C11.8604 27.2921 12.6612 27.0251 13.1589 26.4352C13.5247 26.0034 13.706 25.4366 13.6433 24.9192C13.6236 24.7445 13.5741 24.5731 13.495 24.4083C13.4621 24.3391 13.4917 24.2535 13.5643 24.2205C13.6335 24.1875 13.7192 24.2172 13.7521 24.2864C13.8411 24.4776 13.9004 24.6786 13.9235 24.8829C13.996 25.4827 13.7949 26.1155 13.3731 26.6132C12.9348 27.1372 12.2822 27.4371 11.6594 27.4371Z" fill="#F1DFC1"/>
<path d="M13.7306 14.6038C13.6613 14.6038 13.602 14.5544 13.5921 14.4819C13.5032 13.8458 13.0945 13.045 12.4156 12.7846C12.0036 12.6297 11.4928 12.6825 11.0775 12.923C10.7084 13.1406 10.4711 13.48 10.4118 13.8821C10.4019 13.9579 10.3294 14.0106 10.2536 14.0007C10.1778 13.9908 10.1251 13.9183 10.135 13.8425C10.2075 13.3548 10.4909 12.9428 10.9358 12.6825C11.4203 12.399 12.0234 12.3364 12.5145 12.5243C13.3021 12.8242 13.7668 13.7272 13.869 14.4424C13.8789 14.5182 13.8261 14.5907 13.7503 14.6005C13.7437 14.6038 13.7371 14.6038 13.7306 14.6038Z" fill="#F1DFC1"/>
<path d="M9.97961 28.7518C9.90051 28.7518 9.83789 28.6892 9.83789 28.6101V16.7984C9.83789 16.7194 9.90051 16.6567 9.97961 16.6567C10.0587 16.6567 10.1213 16.7194 10.1213 16.7984V28.6101C10.118 28.6892 10.0554 28.7518 9.97961 28.7518Z" fill="#F1DFC1"/>
<path d="M12.3728 26.0824C12.7259 26.0824 13.0121 25.7962 13.0121 25.4431C13.0121 25.0899 12.7259 24.8037 12.3728 24.8037C12.0197 24.8037 11.7334 25.0899 11.7334 25.4431C11.7334 25.7962 12.0197 26.0824 12.3728 26.0824Z" fill="#F1DFC1"/>
<path d="M10.4802 17.4379C10.8333 17.4379 11.1195 17.1516 11.1195 16.7985C11.1195 16.4454 10.8333 16.1592 10.4802 16.1592C10.1271 16.1592 9.84082 16.4454 9.84082 16.7985C9.84082 17.1516 10.1271 17.4379 10.4802 17.4379Z" fill="#F1DFC1"/>
<path d="M11.8513 14.3105C12.2044 14.3105 12.4906 14.0242 12.4906 13.6711C12.4906 13.318 12.2044 13.0317 11.8513 13.0317C11.4982 13.0317 11.2119 13.318 11.2119 13.6711C11.2119 14.0242 11.4982 14.3105 11.8513 14.3105Z" fill="#F1DFC1"/>
<path d="M11.9305 52.1052C11.6537 52.1052 11.3703 52.0392 11.1066 51.9107C10.6485 51.6866 10.3091 51.3043 10.1706 50.8594C9.99597 50.2958 10.141 49.6631 10.5299 49.2808C10.9649 48.8556 11.6669 48.7897 12.1283 49.1292C12.3689 49.3071 12.5303 49.6037 12.5567 49.9234C12.5798 50.2233 12.4842 50.5067 12.2964 50.7012C12.2436 50.7572 12.1546 50.7572 12.0986 50.7045C12.0426 50.6518 12.0426 50.5628 12.0986 50.5068C12.2304 50.3716 12.2996 50.1673 12.2799 49.9498C12.2601 49.7092 12.1448 49.4884 11.9668 49.3599C11.6174 49.1028 11.0605 49.1621 10.7276 49.4851C10.4112 49.7949 10.2959 50.3156 10.4376 50.7803C10.5529 51.1527 10.8397 51.4724 11.2286 51.6635C11.6174 51.8514 12.0492 51.8811 12.4117 51.7426C13.0082 51.5152 13.4597 50.8825 13.5685 50.1245C13.6772 49.3533 13.4531 48.5854 13.2455 48.002C12.7083 46.4926 11.8448 45.0788 10.7441 43.9154C10.7012 43.8693 10.6947 43.8034 10.7243 43.7473C10.754 43.6946 10.8199 43.6649 10.8792 43.6814C11.3077 43.7836 11.7394 43.9484 12.2107 44.1889C11.6306 43.4573 11.133 42.6532 10.7869 42.0468C10.197 41.0119 9.87733 39.9738 9.84108 38.9653C9.81801 38.3128 9.92018 37.7393 10.1476 37.268C10.4244 36.6913 10.8924 36.2629 11.4329 36.0948C12.1876 35.8575 13.1137 36.164 13.6805 36.833C14.1024 37.3307 14.3001 37.9634 14.2309 38.5633C14.1551 39.2092 13.7464 39.7925 13.1895 40.0496C12.5963 40.3231 11.8481 40.2012 11.4065 39.7596C10.9385 39.2883 10.866 38.4874 11.2483 37.9733C11.5581 37.5581 12.1349 37.39 12.56 37.591C12.7973 37.7031 12.9753 37.9503 13.028 38.2304C13.0741 38.4842 13.0082 38.7247 12.8467 38.8928C12.794 38.9489 12.705 38.9488 12.649 38.8961C12.593 38.8434 12.593 38.7544 12.6457 38.6984C12.7446 38.5962 12.7808 38.4446 12.7512 38.2798C12.7149 38.0854 12.5963 37.9206 12.4381 37.8448C12.1283 37.6965 11.7031 37.8283 11.4724 38.1414C11.1692 38.5468 11.2286 39.1861 11.6043 39.5618C11.9635 39.9244 12.5798 40.0232 13.0708 39.7958C13.5421 39.5783 13.8882 39.0807 13.9508 38.5303C14.0101 38.0129 13.8288 37.446 13.4663 37.0143C12.972 36.4277 12.1678 36.1607 11.5153 36.3617C11.0506 36.5067 10.6419 36.8792 10.398 37.3867C10.1904 37.8184 10.0981 38.3457 10.1212 38.9521C10.1575 39.9145 10.464 40.9098 11.0308 41.9051C11.4691 42.6729 12.1546 43.7671 12.9423 44.6075C12.9917 44.6602 12.9917 44.7393 12.9489 44.7921C12.9061 44.8448 12.827 44.858 12.7676 44.8217C12.2271 44.4889 11.746 44.2516 11.2879 44.0901C12.2535 45.2073 13.0181 46.5157 13.5125 47.9032C13.73 48.5162 13.9673 49.3269 13.8486 50.1574C13.7267 51.0143 13.2027 51.736 12.5139 51.9964C12.3293 52.0689 12.1316 52.1052 11.9305 52.1052Z" fill="#F1DFC1"/>
<path d="M13.6236 39.7C13.6038 39.7 13.584 39.6967 13.5643 39.6869C13.495 39.6539 13.4654 39.5715 13.495 39.499C13.5708 39.3342 13.6203 39.1629 13.6433 38.9882C13.706 38.4708 13.5214 37.9039 13.1589 37.4722C12.6645 36.8855 11.8604 36.6186 11.2079 36.8196C10.9014 36.9152 10.6212 37.1129 10.3839 37.403C10.3345 37.4623 10.2455 37.4722 10.1862 37.4227C10.1269 37.3733 10.117 37.2843 10.1664 37.225C10.44 36.8888 10.7629 36.6614 11.1255 36.5494C11.8835 36.3121 12.8062 36.6186 13.3731 37.2876C13.7884 37.7787 13.9927 38.4246 13.9235 39.0178C13.9004 39.2222 13.8411 39.4232 13.7521 39.6143C13.7257 39.6704 13.6763 39.7 13.6236 39.7Z" fill="#F1DFC1"/>
<path d="M11.9113 51.492C11.5752 51.492 11.2324 51.403 10.9358 51.2284C10.4909 50.968 10.2042 50.556 10.135 50.0683C10.1251 49.9925 10.1778 49.92 10.2536 49.9101C10.3294 49.8969 10.4019 49.9529 10.4118 50.0287C10.4711 50.4308 10.7084 50.7702 11.0775 50.9878C11.4895 51.2283 12.0036 51.2811 12.4156 51.1262C13.0945 50.8658 13.5032 50.065 13.5921 49.4289C13.602 49.3531 13.6778 49.3004 13.7503 49.3103C13.8261 49.3202 13.8789 49.3927 13.869 49.4685C13.7668 50.1836 13.3021 51.0866 12.5145 51.3865C12.3266 51.459 12.119 51.492 11.9113 51.492Z" fill="#F1DFC1"/>
<path d="M9.97961 47.2538C9.90051 47.2538 9.83789 47.1912 9.83789 47.1121V35.3004C9.83789 35.2213 9.90051 35.1587 9.97961 35.1587C10.0587 35.1587 10.1213 35.2213 10.1213 35.3004V47.1121C10.118 47.1912 10.0554 47.2538 9.97961 47.2538Z" fill="#F1DFC1"/>
<path d="M12.3728 39.1068C12.7259 39.1068 13.0121 38.8206 13.0121 38.4675C13.0121 38.1144 12.7259 37.8281 12.3728 37.8281C12.0197 37.8281 11.7334 38.1144 11.7334 38.4675C11.7334 38.8206 12.0197 39.1068 12.3728 39.1068Z" fill="#F1DFC1"/>
<path d="M10.4802 47.7514C10.8333 47.7514 11.1195 47.4651 11.1195 47.112C11.1195 46.7589 10.8333 46.4727 10.4802 46.4727C10.1271 46.4727 9.84082 46.7589 9.84082 47.112C9.84082 47.4651 10.1271 47.7514 10.4802 47.7514Z" fill="#F1DFC1"/>
<path d="M11.8513 50.8793C12.2044 50.8793 12.4906 50.5931 12.4906 50.2399C12.4906 49.8868 12.2044 49.6006 11.8513 49.6006C11.4982 49.6006 11.2119 49.8868 11.2119 50.2399C11.2119 50.5931 11.4982 50.8793 11.8513 50.8793Z" fill="#F1DFC1"/>
<path d="M56.6234 55.7568H9.30089C9.22179 55.7568 9.15918 55.6942 9.15918 55.6151V8.29259C9.15918 8.21349 9.22179 8.15088 9.30089 8.15088H56.6234C56.7025 8.15088 56.7651 8.21349 56.7651 8.29259V55.6151C56.7651 55.6942 56.7025 55.7568 56.6234 55.7568ZM9.43931 55.4767H56.4817V8.4343H9.43931V55.4767Z" fill="#F1DFC1"/>
<path d="M44.7888 37.1297C45.125 37.1297 45.3952 37.4032 45.3952 37.7361C45.3952 38.0723 45.1217 38.3425 44.7888 38.3425H43.7902H43.7869H43.7836H43.2695H41.0219H39.8057H34.8095H34.8062H34.8029H25.5289H24.3128H22.0652H21.551H21.5477H21.5444H20.5459C20.2097 38.3425 19.9395 38.0723 19.9395 37.7361C19.9395 37.3999 20.213 37.1297 20.5459 37.1297H20.7139L20.2295 35.6269C20.1273 35.3072 20.302 34.9644 20.6217 34.8623C20.9413 34.7601 21.2841 34.9348 21.3863 35.2544L21.9136 36.8891L31.9522 22.3157L30.8086 20.302C30.6438 20.012 30.746 19.6396 31.036 19.4748C31.326 19.31 31.6984 19.4122 31.8632 19.7022L32.6673 21.1193L33.4715 19.7022C33.6363 19.4122 34.0087 19.31 34.2987 19.4748C34.5887 19.6396 34.6909 20.012 34.5261 20.302L33.3825 22.3157L43.4211 36.8891L43.9484 35.2544C44.0506 34.9348 44.3933 34.7601 44.713 34.8623C45.0327 34.9644 45.2073 35.3072 45.1052 35.6269L44.6207 37.1297H44.7888ZM42.1094 37.1297L41.0186 35.5445V37.1297H42.1094ZM39.8025 37.1297V33.7813L33.2737 24.2996V28.2874L35.2907 37.1297H39.8025ZM34.0416 37.1297L32.664 31.0887L31.2864 37.1297H34.0416ZM32.0576 28.2841V24.2964L25.5256 33.778V37.1264H30.0407L32.0576 28.2841ZM24.3128 37.1297V35.5445L23.2219 37.1297H24.3128Z" fill="#E9A39B"/>
<path d="M39.8022 33.7815V37.1298H35.2871L33.2734 28.2843V24.2998L39.8022 33.7815Z" fill="#F1DFC1"/>
<path d="M32.0574 24.2998V28.2843L30.0405 37.1298H25.5254V33.7815L32.0574 24.2998Z" fill="#F1DFC1"/>
</g>
<defs>
<filter id="filter0_d_1039_40591" x="0" y="0.96875" width="66" height="65.9805" filterUnits="userSpaceOnUse" color-interpolation-filters="sRGB">
<feFlood flood-opacity="0" result="BackgroundImageFix"/>
<feColorMatrix in="SourceAlpha" type="matrix" values="0 0 0 0 0 0 0 0 0 0 0 0 0 0 0 0 0 0 127 0" result="hardAlpha"/>
<feOffset dy="2"/>
<feGaussianBlur stdDeviation="2.5"/>
<feComposite in2="hardAlpha" operator="out"/>
<feColorMatrix type="matrix" values="0 0 0 0 0 0 0 0 0 0 0 0 0 0 0 0 0 0 0.3 0"/>
<feBlend mode="normal" in2="BackgroundImageFix" result="effect1_dropShadow_1039_40591"/>
<feBlend mode="normal" in="SourceGraphic" in2="effect1_dropShadow_1039_40591" result="shape"/>
</filter>
</defs>
</svg>
