<svg width="56" height="57" viewBox="0 0 56 57" fill="none" xmlns="http://www.w3.org/2000/svg">
<path d="M0 47.7178C0.0659134 47.7046 0.135121 47.698 0.20433 47.698C0.74482 47.698 1.18644 48.0869 1.18644 48.5648C1.18644 49.0426 0.748115 49.4315 0.20433 49.4315C0.135121 49.4315 0.0659134 49.4249 0 49.4118V50.7333C0.0659134 50.7201 0.135121 50.7136 0.20433 50.7136C0.74482 50.7136 1.18644 51.1024 1.18644 51.5803C1.18644 52.0582 0.748115 52.4471 0.20433 52.4471C0.135121 52.4471 0.0659134 52.4405 0 52.4273V53.7489C0.0659134 53.7357 0.135121 53.7291 0.20433 53.7291C0.74482 53.7291 1.18644 54.118 1.18644 54.5959C1.18644 55.0737 0.748115 55.4626 0.20433 55.4626C0.135121 55.4626 0.0659134 55.456 0 55.4428V56.949H2.62994C2.59699 56.8633 2.57721 56.7743 2.57721 56.6787C2.57721 56.2008 3.01553 55.8119 3.55932 55.8119C4.1031 55.8119 4.54143 56.2008 4.54143 56.6787C4.54143 56.7743 4.51836 56.8633 4.4887 56.949H6.1596C6.12664 56.8633 6.10687 56.7743 6.10687 56.6787C6.10687 56.2008 6.5452 55.8119 7.08898 55.8119C7.63277 55.8119 8.07109 56.2008 8.07109 56.6787C8.07109 56.7743 8.04802 56.8633 8.01836 56.949H9.68926C9.65631 56.8633 9.63653 56.7743 9.63653 56.6787C9.63653 56.2008 10.0749 55.8119 10.6186 55.8119C11.1591 55.8119 11.6008 56.2008 11.6008 56.6787C11.6008 56.7743 11.5777 56.8633 11.548 56.949H13.2189C13.186 56.8633 13.1662 56.7743 13.1662 56.6787C13.1662 56.2008 13.6045 55.8119 14.1483 55.8119C14.6888 55.8119 15.1304 56.2008 15.1304 56.6787C15.1304 56.7743 15.1073 56.8633 15.0777 56.949H16.7486C16.7156 56.8633 16.6959 56.7743 16.6959 56.6787C16.6959 56.2008 17.1342 55.8119 17.678 55.8119C18.2185 55.8119 18.6601 56.2008 18.6601 56.6787C18.6601 56.7743 18.637 56.8633 18.6073 56.949H20.2782C20.2453 56.8633 20.2255 56.7743 20.2255 56.6787C20.2255 56.2008 20.6638 55.8119 21.2076 55.8119C21.7481 55.8119 22.1897 56.2008 22.1897 56.6787C22.1897 56.7743 22.1667 56.8633 22.137 56.949H23.8079C23.775 56.8633 23.7552 56.7743 23.7552 56.6787C23.7552 56.2008 24.1935 55.8119 24.7373 55.8119C25.2778 55.8119 25.7194 56.2008 25.7194 56.6787C25.7194 56.7743 25.6963 56.8633 25.6667 56.949H27.3376C27.3046 56.8633 27.2848 56.7743 27.2848 56.6787C27.2848 56.2008 27.7232 55.8119 28.2669 55.8119C28.8107 55.8119 29.2491 56.2008 29.2491 56.6787C29.2491 56.7743 29.226 56.8633 29.1963 56.949H30.8672C30.8343 56.8633 30.8145 56.7743 30.8145 56.6787C30.8145 56.2008 31.2528 55.8119 31.7966 55.8119C32.3371 55.8119 32.7787 56.2008 32.7787 56.6787C32.7787 56.7743 32.7556 56.8633 32.726 56.949H34.3969C34.3639 56.8633 34.3442 56.7743 34.3442 56.6787C34.3442 56.2008 34.7825 55.8119 35.3263 55.8119C35.8668 55.8119 36.3084 56.2008 36.3084 56.6787C36.3084 56.7743 36.2853 56.8633 36.2556 56.949H37.9266C37.8936 56.8633 37.8738 56.7743 37.8738 56.6787C37.8738 56.2008 38.3121 55.8119 38.8559 55.8119C39.3964 55.8119 39.838 56.2008 39.838 56.6787C39.838 56.7743 39.815 56.8633 39.7853 56.949H41.4562C41.4233 56.8633 41.4035 56.7743 41.4035 56.6787C41.4035 56.2008 41.8418 55.8119 42.3856 55.8119C42.9294 55.8119 43.3677 56.2008 43.3677 56.6787C43.3677 56.7743 43.3446 56.8633 43.315 56.949H44.9859C44.9529 56.8633 44.9331 56.7743 44.9331 56.6787C44.9331 56.2008 45.3715 55.8119 45.9153 55.8119C46.4557 55.8119 46.8974 56.2008 46.8974 56.6787C46.8974 56.7743 46.8743 56.8633 46.8446 56.949H48.5155C48.4826 56.8633 48.4628 56.7743 48.4628 56.6787C48.4628 56.2008 48.9011 55.8119 49.4449 55.8119C49.9854 55.8119 50.427 56.2008 50.427 56.6787C50.427 56.7743 50.404 56.8633 50.3743 56.949H52.0452C52.0122 56.8633 51.9925 56.7743 51.9925 56.6787C51.9925 56.2008 52.4308 55.8119 52.9746 55.8119C53.5151 55.8119 53.9567 56.2008 53.9567 56.6787C53.9567 56.7743 53.9336 56.8633 53.904 56.949H56V55.4626C55.4595 55.4626 55.0179 55.0737 55.0179 54.5959C55.0179 54.118 55.4562 53.7291 56 53.7291V52.4471C55.4595 52.4471 55.0179 52.0582 55.0179 51.5803C55.0179 51.1024 55.4562 50.7136 56 50.7136V49.4315C55.4595 49.4315 55.0179 49.0426 55.0179 48.5648C55.0179 48.0869 55.4562 47.698 56 47.698V47.6881V46.4061C55.4595 46.4061 55.0179 46.0172 55.0179 45.5394C55.0179 45.0615 55.4562 44.6726 56 44.6726V43.3906C55.4595 43.3906 55.0179 43.0017 55.0179 42.5238C55.0179 42.046 55.4562 41.6571 56 41.6571V40.375C55.4595 40.375 55.0179 39.9862 55.0179 39.5083C55.0179 39.0304 55.4562 38.6415 56 38.6415V37.3595C55.4595 37.3595 55.0179 36.9706 55.0179 36.4927C55.0179 36.0149 55.4562 35.626 56 35.626V34.344C55.4595 34.344 55.0179 33.9551 55.0179 33.4772C55.0179 32.9993 55.4562 32.6104 56 32.6104V31.3284C55.4595 31.3284 55.0179 30.9395 55.0179 30.4617C55.0179 29.9838 55.4562 29.5949 56 29.5949V28.3129C55.4595 28.3129 55.0179 27.924 55.0179 27.4461C55.0179 26.9683 55.4562 26.5794 56 26.5794V25.2974C55.4595 25.2974 55.0179 24.9085 55.0179 24.4306C55.0179 23.9527 55.4562 23.5638 56 23.5638V22.2818C55.4595 22.2818 55.0179 21.8929 55.0179 21.4151C55.0179 20.9372 55.4562 20.5483 56 20.5483V19.2663C55.4595 19.2663 55.0179 18.8774 55.0179 18.3995C55.0179 17.9217 55.4562 17.5328 56 17.5328V16.2507C55.4595 16.2507 55.0179 15.8619 55.0179 15.384C55.0179 14.9061 55.4562 14.5172 56 14.5172V13.2352C55.4595 13.2352 55.0179 12.8463 55.0179 12.3685C55.0179 11.8906 55.4562 11.5017 56 11.5017V10.2197C55.4595 10.2197 55.0179 9.83078 55.0179 9.35291C55.0179 8.87504 55.4562 8.48615 56 8.48615V7.20414C55.4595 7.20414 55.0179 6.81525 55.0179 6.33738C55.0179 5.85951 55.4562 5.47062 56 5.47062V4.1886C55.4595 4.1886 55.0179 3.79972 55.0179 3.32184C55.0179 2.84397 55.4562 2.45508 56 2.45508V0.968731H53.9567C53.9567 1.4466 53.5184 1.83549 52.9746 1.83549C52.4341 1.83549 51.9925 1.4466 51.9925 0.968731H50.4303C50.4303 1.4466 49.992 1.83549 49.4482 1.83549C48.9077 1.83549 48.4661 1.4466 48.4661 0.968731H46.904C46.904 1.4466 46.4656 1.83549 45.9218 1.83549C45.3814 1.83549 44.9397 1.4466 44.9397 0.968731H43.3776C43.3776 1.4466 42.9393 1.83549 42.3955 1.83549C41.8517 1.83549 41.4134 1.4466 41.4134 0.968731H39.8512C39.8512 1.4466 39.4129 1.83549 38.8691 1.83549C38.3286 1.83549 37.887 1.4466 37.887 0.968731H36.3249C36.3249 1.4466 35.8865 1.83549 35.3428 1.83549C34.8023 1.83549 34.3606 1.4466 34.3606 0.968731H32.7985C32.7985 1.4466 32.3602 1.83549 31.8164 1.83549C31.2759 1.83549 30.8343 1.4466 30.8343 0.968731H29.2721C29.2721 1.4466 28.8338 1.83549 28.29 1.83549C27.7462 1.83549 27.3079 1.4466 27.3079 0.968731H25.7458C25.7458 1.4466 25.3074 1.83549 24.7637 1.83549C24.2232 1.83549 23.7815 1.4466 23.7815 0.968731H22.2194C22.2194 1.4466 21.7811 1.83549 21.2373 1.83549C20.6968 1.83549 20.2552 1.4466 20.2552 0.968731H18.693C18.693 1.4466 18.2547 1.83549 17.7109 1.83549C17.1704 1.83549 16.7288 1.4466 16.7288 0.968731H15.1667C15.1667 1.4466 14.7283 1.83549 14.1846 1.83549C13.6441 1.83549 13.2024 1.4466 13.2024 0.968731H11.6403C11.6403 1.4466 11.202 1.83549 10.6582 1.83549C10.1177 1.83549 9.67608 1.4466 9.67608 0.968731H8.11393C8.11393 1.4466 7.67561 1.83549 7.13183 1.83549C6.58804 1.83549 6.14971 1.4466 6.14971 0.968731H4.58757C4.58757 1.4466 4.14924 1.83549 3.60546 1.83549C3.06167 1.83549 2.62335 1.4466 2.62335 0.968731H0.049433V2.47485C0.115346 2.46167 0.184554 2.45508 0.253763 2.45508C0.794253 2.45508 1.23588 2.84397 1.23588 3.32184C1.23588 3.79972 0.797548 4.1886 0.253763 4.1886C0.184554 4.1886 0.115346 4.18201 0.049433 4.16882V5.49039C0.115346 5.47721 0.184554 5.47062 0.253763 5.47062C0.794253 5.47062 1.23588 5.85951 1.23588 6.33738C1.23588 6.81525 0.797548 7.20414 0.253763 7.20414C0.184554 7.20414 0.115346 7.19755 0.049433 7.18437V8.50592C0.115346 8.49274 0.184554 8.48615 0.253763 8.48615C0.794253 8.48615 1.23588 8.87504 1.23588 9.35291C1.23588 9.83078 0.797548 10.2197 0.253763 10.2197C0.184554 10.2197 0.115346 10.2131 0.049433 10.1999V11.5215C0.115346 11.5083 0.184554 11.5017 0.253763 11.5017C0.794253 11.5017 1.23588 11.8906 1.23588 12.3685C1.23588 12.8463 0.797548 13.2352 0.253763 13.2352C0.184554 13.2352 0.115346 13.2286 0.049433 13.2154V14.537C0.115346 14.5238 0.184554 14.5172 0.253763 14.5172C0.794253 14.5172 1.23588 14.9061 1.23588 15.384C1.23588 15.8619 0.797548 16.2507 0.253763 16.2507C0.184554 16.2507 0.115346 16.2442 0.049433 16.231V17.5525C0.115346 17.5394 0.184554 17.5328 0.253763 17.5328C0.794253 17.5328 1.23588 17.9217 1.23588 18.3995C1.23588 18.8774 0.797548 19.2663 0.253763 19.2663C0.184554 19.2663 0.115346 19.2597 0.049433 19.2465V20.5681C0.115346 20.5549 0.184554 20.5483 0.253763 20.5483C0.794253 20.5483 1.23588 20.9372 1.23588 21.4151C1.23588 21.8929 0.797548 22.2818 0.253763 22.2818C0.184554 22.2818 0.115346 22.2752 0.049433 22.262V23.5836C0.115346 23.5704 0.184554 23.5638 0.253763 23.5638C0.794253 23.5638 1.23588 23.9527 1.23588 24.4306C1.23588 24.9085 0.797548 25.2974 0.253763 25.2974C0.184554 25.2974 0.115346 25.2908 0.049433 25.2776V26.5992C0.115346 26.586 0.184554 26.5794 0.253763 26.5794C0.794253 26.5794 1.23588 26.9683 1.23588 27.4461C1.23588 27.924 0.797548 28.3129 0.253763 28.3129C0.184554 28.3129 0.115346 28.3063 0.049433 28.2931V29.6147C0.115346 29.6015 0.184554 29.5949 0.253763 29.5949C0.794253 29.5949 1.23588 29.9838 1.23588 30.4617C1.23588 30.9395 0.797548 31.3284 0.253763 31.3284C0.184554 31.3284 0.115346 31.3218 0.049433 31.3087V32.6302C0.115346 32.617 0.184554 32.6104 0.253763 32.6104C0.794253 32.6104 1.23588 32.9993 1.23588 33.4772C1.23588 33.9551 0.797548 34.344 0.253763 34.344C0.184554 34.344 0.115346 34.3374 0.049433 34.3242V35.6458C0.115346 35.6326 0.184554 35.626 0.253763 35.626C0.794253 35.626 1.23588 36.0149 1.23588 36.4927C1.23588 36.9706 0.797548 37.3595 0.253763 37.3595C0.184554 37.3595 0.115346 37.3529 0.049433 37.3397V38.6613C0.115346 38.6481 0.184554 38.6415 0.253763 38.6415C0.794253 38.6415 1.23588 39.0304 1.23588 39.5083C1.23588 39.9862 0.797548 40.375 0.253763 40.375C0.184554 40.375 0.115346 40.3685 0.049433 40.3553V41.6768C0.115346 41.6637 0.184554 41.6571 0.253763 41.6571C0.794253 41.6571 1.23588 42.046 1.23588 42.5238C1.23588 43.0017 0.797548 43.3906 0.253763 43.3906C0.184554 43.3906 0.115346 43.384 0.049433 43.3708V44.6924C0.115346 44.6792 0.184554 44.6726 0.253763 44.6726C0.794253 44.6726 1.23588 45.0615 1.23588 45.5394C1.23588 46.0172 0.797548 46.4061 0.253763 46.4061C0.184554 46.4061 0.115346 46.3995 0.049433 46.3863V47.7079C0.115346 47.6947 0.184554 47.6881 0.253763 47.6881" fill="#A98B83"/>
<path d="M52.415 8.81593V48.0311C50.0091 48.1761 48.0976 50.1799 48.0976 52.6187C48.0976 52.879 48.1207 53.1427 48.1701 53.4096H7.75535C7.80479 53.1427 7.82786 52.879 7.82786 52.6187C7.82786 50.1799 5.91637 48.1761 3.51053 48.0311V8.81593C5.82409 8.67422 7.67955 6.81876 7.81796 4.5052H48.1042C48.2459 6.81876 50.1014 8.67422 52.415 8.81593Z" fill="white"/>
<path d="M52.415 8.81593V48.0311C50.0091 48.1761 48.0976 50.1799 48.0976 52.6187C48.0976 52.879 48.1207 53.1427 48.1701 53.4096H7.75535C7.80479 53.1427 7.82786 52.879 7.82786 52.6187C7.82786 50.1799 5.91637 48.1761 3.51053 48.0311V8.81593C5.82409 8.67422 7.67955 6.81876 7.81796 4.5052H48.1042C48.2459 6.81876 50.1014 8.67422 52.415 8.81593Z" fill="#AB8C85"/>
<path d="M52.6942 8.26206C50.4663 8.26206 48.657 6.45273 48.657 4.22486C48.657 4.06997 48.5318 3.94473 48.3769 3.94473H7.54683C7.39193 3.94473 7.26669 4.06997 7.26669 4.22486C7.26669 6.45273 5.45408 8.26206 3.2295 8.26206C3.0746 8.26206 2.94937 8.38729 2.94937 8.54219V48.3044C2.94937 48.456 3.0746 48.5846 3.2295 48.5846C5.45408 48.5846 7.26669 50.3939 7.26669 52.6185C7.26669 52.9447 7.22056 53.2809 7.13487 53.6203C7.1151 53.706 7.13157 53.795 7.1843 53.8609C7.23703 53.9301 7.31943 53.9697 7.40841 53.9697H48.5153C48.601 53.9697 48.6834 53.9301 48.7361 53.8609C48.7888 53.795 48.8086 53.706 48.7855 53.6203C48.6998 53.2809 48.657 52.9447 48.657 52.6185C48.657 50.3939 50.4663 48.5846 52.6942 48.5846C52.8491 48.5846 52.9743 48.456 52.9743 48.3044V8.54219C52.9743 8.38729 52.8491 8.26206 52.6942 8.26206ZM52.4141 48.0309C50.0082 48.1759 48.0967 50.1797 48.0967 52.6185C48.0967 52.8788 48.1198 53.1425 48.1692 53.4094H7.75446C7.80389 53.1425 7.82696 52.8788 7.82696 52.6185C7.82696 50.1797 5.91547 48.1759 3.50963 48.0309V8.81573C5.82319 8.67401 7.67865 6.81856 7.81707 4.505H48.1033C48.245 6.81856 50.1005 8.67401 52.4141 8.81573V48.0309Z" fill="#F1DFC1"/>
<path d="M52.5165 8.9047V48.1232C51.3495 48.1983 50.2545 48.7138 49.4531 49.5655C48.6516 50.4171 48.2034 51.5413 48.1992 52.7107C48.1991 52.976 48.2233 53.2408 48.2717 53.5017H7.85688C7.90521 53.2408 7.92948 52.976 7.92939 52.7107C7.92618 51.5428 7.48021 50.4196 6.68143 49.5676C5.88265 48.7156 4.79049 48.1983 3.62524 48.1199V8.90141C4.73987 8.82389 5.7885 8.34454 6.57644 7.55236C7.36438 6.76018 7.83808 5.70899 7.90961 4.59397H48.2058C48.2772 5.71381 48.7543 6.76922 49.5478 7.56268C50.3412 8.35613 51.3967 8.83324 52.5165 8.9047Z" fill="white"/>
<path d="M27.9622 7.30948C28.3153 7.30948 28.6016 7.02322 28.6016 6.67012C28.6016 6.31701 28.3153 6.03077 27.9622 6.03077C27.6091 6.03077 27.3229 6.31701 27.3229 6.67012C27.3229 7.02322 27.6091 7.30948 27.9622 7.30948Z" fill="#F5CBD9"/>
<path d="M27.9619 9.20444C27.8828 9.20444 27.8202 9.14183 27.8202 9.06273V8.08721C27.8202 8.00812 27.8828 7.9455 27.9619 7.9455C28.041 7.9455 28.1036 8.00812 28.1036 8.08721V9.06273C28.1003 9.13853 28.0377 9.20444 27.9619 9.20444Z" fill="#F5CBD9"/>
<path d="M27.9619 11.8872C27.8828 11.8872 27.8202 11.8245 27.8202 11.7454V9.66588C27.8202 9.58678 27.8828 9.52417 27.9619 9.52417C28.041 9.52417 28.1036 9.58678 28.1036 9.66588V11.7454C28.1003 11.8245 28.0377 11.8872 27.9619 11.8872Z" fill="#F5CBD9"/>
<path d="M29.1576 8.88143C29.1081 8.88143 29.062 8.85506 29.0356 8.81221L28.5479 7.96523C28.5083 7.89932 28.5314 7.81363 28.6006 7.77408C28.6665 7.73453 28.7522 7.7576 28.7918 7.82681L29.2795 8.6738C29.3191 8.73971 29.296 8.82541 29.2268 8.86496C29.2037 8.87484 29.1807 8.88143 29.1576 8.88143Z" fill="#F5CBD9"/>
<path d="M30.4991 11.2081C30.4497 11.2081 30.4036 11.1818 30.3772 11.1389L29.3391 9.3395C29.2995 9.27359 29.3226 9.1879 29.3918 9.14835C29.4577 9.1088 29.5434 9.13186 29.5829 9.20107L30.6211 11.0005C30.6606 11.0664 30.6375 11.1521 30.5683 11.1917C30.5453 11.2016 30.5222 11.2081 30.4991 11.2081Z" fill="#F5CBD9"/>
<path d="M30.032 8.00814C30.0089 8.00814 29.9826 8.00154 29.9628 7.98836L29.1191 7.5006C29.0532 7.46106 29.0301 7.37536 29.0664 7.30945C29.1059 7.24354 29.1916 7.22048 29.2575 7.25673L30.1012 7.74448C30.1671 7.78403 30.1902 7.86972 30.1539 7.93563C30.1276 7.98177 30.0814 8.00814 30.032 8.00814Z" fill="#F5CBD9"/>
<path d="M31.3036 8.73983C31.2805 8.73983 31.2542 8.73323 31.2344 8.72004L30.4863 8.28831C30.4204 8.24876 30.3973 8.16308 30.4336 8.09717C30.4731 8.03125 30.5588 8.00818 30.6247 8.04444L31.3728 8.47617C31.4387 8.51572 31.4618 8.60141 31.4256 8.66732C31.3992 8.71676 31.3531 8.73983 31.3036 8.73983Z" fill="#F5CBD9"/>
<path d="M30.3504 6.81186H29.3749C29.2958 6.81186 29.2332 6.74924 29.2332 6.67014C29.2332 6.59105 29.2958 6.52843 29.3749 6.52843H30.3504C30.4295 6.52843 30.4921 6.59105 30.4921 6.67014C30.4921 6.74924 30.4295 6.81186 30.3504 6.81186Z" fill="#F5CBD9"/>
<path d="M32.8687 6.81186H30.9572C30.8781 6.81186 30.8155 6.74924 30.8155 6.67014C30.8155 6.59105 30.8781 6.52843 30.9572 6.52843H32.8687C32.9478 6.52843 33.0104 6.59105 33.0104 6.67014C33.0104 6.74924 32.9478 6.81186 32.8687 6.81186Z" fill="#F5CBD9"/>
<path d="M26.5448 6.81186H25.5693C25.4902 6.81186 25.4276 6.74924 25.4276 6.67014C25.4276 6.59105 25.4902 6.52843 25.5693 6.52843H26.5448C26.6239 6.52843 26.6866 6.59105 26.6866 6.67014C26.6833 6.74924 26.6206 6.81186 26.5448 6.81186Z" fill="#F5CBD9"/>
<path d="M24.9622 6.81186H23.0507C22.9716 6.81186 22.909 6.74924 22.909 6.67014C22.909 6.59105 22.9716 6.52843 23.0507 6.52843H24.9622C25.0413 6.52843 25.1039 6.59105 25.1039 6.67014C25.1006 6.74924 25.038 6.81186 24.9622 6.81186Z" fill="#F5CBD9"/>
<path d="M25.8884 8.00808C25.8389 8.00808 25.7928 7.9817 25.7664 7.93886C25.7269 7.87295 25.7499 7.78726 25.8192 7.74772L26.6628 7.25995C26.7288 7.2204 26.8144 7.24348 26.854 7.31268C26.8935 7.3786 26.8705 7.46429 26.8013 7.50384L25.9576 7.99159C25.9378 8.00148 25.9114 8.00808 25.8884 8.00808Z" fill="#F5CBD9"/>
<path d="M24.6625 8.7135C24.613 8.7135 24.5669 8.68713 24.5405 8.64429C24.501 8.57838 24.5241 8.49268 24.5933 8.45314L25.2952 8.04778C25.3612 8.00823 25.4468 8.0313 25.4864 8.10051C25.5259 8.16642 25.5029 8.2521 25.4337 8.29165L24.7317 8.69702C24.7086 8.71021 24.6855 8.7135 24.6625 8.7135Z" fill="#F5CBD9"/>
<path d="M26.7645 8.88152C26.7415 8.88152 26.7151 8.87493 26.6953 8.86175C26.6294 8.8222 26.6064 8.73651 26.6426 8.67059L27.1304 7.8236C27.1699 7.75769 27.2556 7.73463 27.3215 7.77088C27.3874 7.81043 27.4105 7.89611 27.3742 7.96203L26.8865 8.80902C26.8601 8.85845 26.8107 8.88152 26.7645 8.88152Z" fill="#F5CBD9"/>
<path d="M25.4208 11.2082C25.3977 11.2082 25.3714 11.2016 25.3516 11.1885C25.2857 11.1489 25.2626 11.0632 25.2989 10.9973L26.3403 9.19788C26.3798 9.13196 26.4655 9.10888 26.5314 9.14513C26.5974 9.18468 26.6204 9.27037 26.5842 9.33629L25.5427 11.1357C25.5164 11.1818 25.4702 11.2082 25.4208 11.2082Z" fill="#F5CBD9"/>
<path d="M27.9622 51.8803C28.3153 51.8803 28.6016 51.594 28.6016 51.2409C28.6016 50.8878 28.3153 50.6016 27.9622 50.6016C27.6091 50.6016 27.3229 50.8878 27.3229 51.2409C27.3229 51.594 27.6091 51.8803 27.9622 51.8803Z" fill="#F5CBD9"/>
<path d="M27.9619 49.9655C27.8828 49.9655 27.8202 49.9029 27.8202 49.8238V48.8483C27.8202 48.7692 27.8828 48.7065 27.9619 48.7065C28.041 48.7065 28.1036 48.7692 28.1036 48.8483V49.8238C28.1003 49.9029 28.0377 49.9655 27.9619 49.9655Z" fill="#F5CBD9"/>
<path d="M27.9619 48.3837C27.8828 48.3837 27.8202 48.3211 27.8202 48.242V46.1624C27.8202 46.0833 27.8828 46.0207 27.9619 46.0207C28.041 46.0207 28.1036 46.0833 28.1036 46.1624V48.242C28.1003 48.3211 28.0377 48.3837 27.9619 48.3837Z" fill="#F5CBD9"/>
<path d="M27.2526 50.1533C27.2031 50.1533 27.157 50.1269 27.1306 50.0841L26.6429 49.2404C26.6033 49.1745 26.6264 49.0888 26.6956 49.0492C26.7615 49.0097 26.8472 49.0328 26.8867 49.102L27.3745 49.9457C27.414 50.0116 27.391 50.0973 27.3218 50.1368C27.2987 50.15 27.2756 50.1533 27.2526 50.1533Z" fill="#F5CBD9"/>
<path d="M26.4625 48.7857C26.413 48.7857 26.3669 48.7593 26.3405 48.7165L25.2991 46.917C25.2596 46.8511 25.2826 46.7655 25.3518 46.7259C25.4177 46.6864 25.5034 46.7094 25.543 46.7786L26.5844 48.5781C26.624 48.644 26.6009 48.7297 26.5317 48.7692C26.5086 48.7791 26.4855 48.7857 26.4625 48.7857Z" fill="#F5CBD9"/>
<path d="M26.7318 50.6742C26.7087 50.6742 26.6823 50.6676 26.6626 50.6544L25.8189 50.1666C25.753 50.1271 25.7299 50.0414 25.7661 49.9755C25.8057 49.9096 25.8914 49.8865 25.9573 49.9227L26.801 50.4105C26.8669 50.4501 26.89 50.5357 26.8537 50.6016C26.8273 50.6478 26.7812 50.6742 26.7318 50.6742Z" fill="#F5CBD9"/>
<path d="M25.3658 49.8831C25.3427 49.8831 25.3164 49.8765 25.2966 49.8633L24.5485 49.4316C24.4826 49.3921 24.4595 49.3064 24.4958 49.2405C24.5353 49.1746 24.621 49.1515 24.6869 49.1877L25.435 49.6195C25.5009 49.659 25.524 49.7447 25.4878 49.8106C25.4614 49.8568 25.412 49.8831 25.3658 49.8831Z" fill="#F5CBD9"/>
<path d="M26.5448 51.3793H25.5693C25.4902 51.3793 25.4276 51.3167 25.4276 51.2376C25.4276 51.1585 25.4902 51.0959 25.5693 51.0959H26.5448C26.6239 51.0959 26.6866 51.1585 26.6866 51.2376C26.6866 51.3167 26.6206 51.3793 26.5448 51.3793Z" fill="#F5CBD9"/>
<path d="M24.9622 51.3793H23.0507C22.9716 51.3793 22.909 51.3167 22.909 51.2376C22.909 51.1585 22.9716 51.0959 23.0507 51.0959H24.9622C25.0413 51.0959 25.1039 51.1585 25.1039 51.2376C25.1039 51.3167 25.038 51.3793 24.9622 51.3793Z" fill="#F5CBD9"/>
<path d="M30.3504 51.3793H29.3749C29.2958 51.3793 29.2332 51.3167 29.2332 51.2376C29.2332 51.1585 29.2958 51.0959 29.3749 51.0959H30.3504C30.4295 51.0959 30.4921 51.1585 30.4921 51.2376C30.4921 51.3167 30.4295 51.3793 30.3504 51.3793Z" fill="#F5CBD9"/>
<path d="M32.8687 51.3793H30.9572C30.8781 51.3793 30.8155 51.3167 30.8155 51.2376C30.8155 51.1585 30.8781 51.0959 30.9572 51.0959H32.8687C32.9478 51.0959 33.0104 51.1585 33.0104 51.2376C33.0104 51.3167 32.9478 51.3793 32.8687 51.3793Z" fill="#F5CBD9"/>
<path d="M29.1873 50.6741C29.1379 50.6741 29.0917 50.6477 29.0654 50.6048C29.0258 50.5389 29.0489 50.4533 29.1181 50.4137L29.9618 49.9259C30.0277 49.8864 30.1134 49.9095 30.1529 49.9787C30.1925 50.0446 30.1694 50.1303 30.1002 50.1698L29.2565 50.6576C29.2334 50.6675 29.2104 50.6741 29.1873 50.6741Z" fill="#F5CBD9"/>
<path d="M30.5557 49.8832C30.5063 49.8832 30.4601 49.8568 30.4338 49.814C30.3942 49.7481 30.4173 49.6624 30.4865 49.6228L31.1885 49.2174C31.2544 49.1779 31.3401 49.201 31.3796 49.2702C31.4192 49.3361 31.3961 49.4218 31.3269 49.4613L30.6249 49.8667C30.6052 49.8766 30.5821 49.8832 30.5557 49.8832Z" fill="#F5CBD9"/>
<path d="M28.6683 50.1534C28.6453 50.1534 28.6189 50.1468 28.5991 50.1336C28.5332 50.0941 28.5101 50.0084 28.5464 49.9425L29.0341 49.0988C29.0737 49.0329 29.1594 49.0098 29.2253 49.046C29.2912 49.0856 29.3143 49.1713 29.278 49.2372L28.7903 50.0809C28.7639 50.1303 28.7178 50.1534 28.6683 50.1534Z" fill="#F5CBD9"/>
<path d="M29.458 48.7857C29.4349 48.7857 29.4086 48.7791 29.3888 48.7659C29.3229 48.7264 29.2998 48.6407 29.3361 48.5748L30.3742 46.7753C30.4137 46.7094 30.4994 46.6864 30.5653 46.7226C30.6313 46.7622 30.6543 46.8478 30.6181 46.9137L29.5799 48.7132C29.5536 48.7593 29.5074 48.7857 29.458 48.7857Z" fill="#F5CBD9"/>
<path d="M50.2452 28.3163C49.8925 28.3163 49.6058 28.603 49.6058 28.9556C49.6058 29.3082 49.8925 29.595 50.2452 29.595C50.5978 29.595 50.8845 29.3082 50.8845 28.9556C50.8878 28.603 50.6011 28.3163 50.2452 28.3163Z" fill="#F5CBD9"/>
<path d="M48.8301 29.0972H47.8546C47.7755 29.0972 47.7128 29.0346 47.7128 28.9555C47.7128 28.8764 47.7755 28.8137 47.8546 28.8137H48.8301C48.9092 28.8137 48.9718 28.8764 48.9718 28.9555C48.9718 29.0346 48.9059 29.0972 48.8301 29.0972Z" fill="#F5CBD9"/>
<path d="M47.2475 29.0972H45.1679C45.0888 29.0972 45.0262 29.0346 45.0262 28.9555C45.0262 28.8764 45.0888 28.8137 45.1679 28.8137H47.2475C47.3266 28.8137 47.3892 28.8764 47.3892 28.9555C47.3892 29.0346 47.3233 29.0972 47.2475 29.0972Z" fill="#F5CBD9"/>
<path d="M48.1736 30.2904C48.1241 30.2904 48.078 30.264 48.0516 30.2212C48.0121 30.1552 48.0352 30.0696 48.1044 30.03L48.9481 29.5423C49.014 29.5027 49.0997 29.5258 49.1392 29.595C49.1788 29.6609 49.1557 29.7466 49.0865 29.7861L48.2428 30.2739C48.2197 30.2871 48.1967 30.2904 48.1736 30.2904Z" fill="#F5CBD9"/>
<path d="M45.8479 31.6349C45.7984 31.6349 45.7523 31.6085 45.7259 31.5657C45.6864 31.4998 45.7094 31.4141 45.7787 31.3745L47.5781 30.3331C47.644 30.2935 47.7297 30.3166 47.7692 30.3858C47.8088 30.4517 47.7857 30.5374 47.7165 30.577L45.9171 31.6184C45.8973 31.6283 45.8709 31.6349 45.8479 31.6349Z" fill="#F5CBD9"/>
<path d="M49.0472 31.1668C49.0242 31.1668 48.9978 31.1602 48.978 31.1471C48.9121 31.1075 48.889 31.0218 48.9253 30.9559L49.413 30.1089C49.4526 30.043 49.5383 30.0199 49.6042 30.0562C49.6701 30.0957 49.6932 30.1814 49.6569 30.2474L49.1692 31.0943C49.1428 31.1438 49.0967 31.1668 49.0472 31.1668Z" fill="#F5CBD9"/>
<path d="M48.3172 32.4392C48.2941 32.4392 48.2677 32.4326 48.248 32.4194C48.1821 32.3799 48.159 32.2942 48.1953 32.2283L48.627 31.4802C48.6665 31.4143 48.7522 31.3912 48.8181 31.4274C48.884 31.467 48.9071 31.5527 48.8709 31.6186L48.4391 32.3667C48.4128 32.4129 48.3633 32.4392 48.3172 32.4392Z" fill="#F5CBD9"/>
<path d="M50.2446 31.4866C50.1655 31.4866 50.1029 31.424 50.1029 31.3449V30.3693C50.1029 30.2903 50.1655 30.2276 50.2446 30.2276C50.3237 30.2276 50.3863 30.2903 50.3863 30.3693V31.3449C50.3863 31.424 50.3237 31.4866 50.2446 31.4866Z" fill="#F5CBD9"/>
<path d="M50.2446 34.0046C50.1655 34.0046 50.1029 33.942 50.1029 33.8629V31.9514C50.1029 31.8723 50.1655 31.8097 50.2446 31.8097C50.3237 31.8097 50.3863 31.8723 50.3863 31.9514V33.8629C50.3863 33.942 50.3237 34.0046 50.2446 34.0046Z" fill="#F5CBD9"/>
<path d="M50.2446 27.6802C50.1655 27.6802 50.1029 27.6176 50.1029 27.5385V26.563C50.1029 26.4839 50.1655 26.4213 50.2446 26.4213C50.3237 26.4213 50.3863 26.4839 50.3863 26.563V27.5385C50.3863 27.6176 50.3237 27.6802 50.2446 27.6802Z" fill="#F5CBD9"/>
<path d="M50.2446 26.0983C50.1655 26.0983 50.1029 26.0357 50.1029 25.9566V24.0451C50.1029 23.966 50.1655 23.9034 50.2446 23.9034C50.3237 23.9034 50.3863 23.966 50.3863 24.0451V25.9566C50.3863 26.0357 50.3237 26.0983 50.2446 26.0983Z" fill="#F5CBD9"/>
<path d="M49.5397 27.868C49.4903 27.868 49.4442 27.8417 49.4178 27.7988L48.93 26.9519C48.8905 26.8859 48.9135 26.8002 48.9828 26.7607C49.0487 26.7211 49.1344 26.7442 49.1739 26.8134L49.6617 27.6604C49.7012 27.7263 49.6781 27.812 49.6089 27.8516C49.5859 27.8647 49.5628 27.868 49.5397 27.868Z" fill="#F5CBD9"/>
<path d="M48.747 26.5004C48.6975 26.5004 48.6514 26.474 48.625 26.4312L48.2197 25.7292C48.1801 25.6633 48.2032 25.5776 48.2724 25.5381C48.3383 25.4985 48.424 25.5216 48.4635 25.5908L48.8689 26.2928C48.9085 26.3587 48.8854 26.4444 48.8162 26.4839C48.7931 26.4938 48.77 26.5004 48.747 26.5004Z" fill="#F5CBD9"/>
<path d="M49.0185 28.3888C48.9954 28.3888 48.969 28.3822 48.9492 28.369L48.1056 27.8812C48.0396 27.8417 48.0166 27.756 48.0528 27.6901C48.0924 27.6242 48.1781 27.6011 48.244 27.6373L49.0877 28.1251C49.1536 28.1647 49.1767 28.2503 49.1404 28.3163C49.114 28.3624 49.0679 28.3888 49.0185 28.3888Z" fill="#F5CBD9"/>
<path d="M47.6508 27.5977C47.6278 27.5977 47.6014 27.5911 47.5816 27.5779L45.7822 26.5365C45.7163 26.4969 45.6932 26.4112 45.7295 26.3453C45.769 26.2794 45.8547 26.2564 45.9206 26.2926L47.72 27.334C47.786 27.3736 47.809 27.4593 47.7728 27.5252C47.7464 27.5713 47.697 27.5977 47.6508 27.5977Z" fill="#F5CBD9"/>
<path d="M5.67723 29.595C6.02987 29.595 6.31659 29.3082 6.31659 28.9556C6.31659 28.603 6.02987 28.3163 5.67723 28.3163C5.3246 28.3163 5.03787 28.603 5.03787 28.9556C5.03787 29.3082 5.3213 29.595 5.67723 29.595Z" fill="#F5CBD9"/>
<path d="M8.06648 29.0972H7.09096C7.01186 29.0972 6.94925 29.0346 6.94925 28.9555C6.94925 28.8764 7.01186 28.8137 7.09096 28.8137H8.06648C8.14558 28.8137 8.20819 28.8764 8.20819 28.9555C8.20819 29.0346 8.14558 29.0972 8.06648 29.0972Z" fill="#F5CBD9"/>
<path d="M10.7535 29.0972H8.67397C8.59487 29.0972 8.53226 29.0346 8.53226 28.9555C8.53226 28.8764 8.59487 28.8137 8.67397 28.8137H10.7535C10.8326 28.8137 10.8953 28.8764 10.8953 28.9555C10.8953 29.0346 10.8326 29.0972 10.7535 29.0972Z" fill="#F5CBD9"/>
<path d="M6.90335 28.3888C6.85391 28.3888 6.80777 28.3624 6.7814 28.3196C6.74185 28.2536 6.76493 28.1679 6.83413 28.1284L7.67782 27.6406C7.74374 27.6011 7.82943 27.6242 7.86897 27.6934C7.90852 27.7593 7.88545 27.845 7.81624 27.8845L6.97255 28.3723C6.94948 28.3822 6.92642 28.3888 6.90335 28.3888Z" fill="#F5CBD9"/>
<path d="M8.27053 27.5978C8.22109 27.5978 8.17496 27.5715 8.14859 27.5287C8.10904 27.4627 8.13211 27.377 8.20132 27.3375L10.0041 26.2961C10.07 26.2565 10.1556 26.2796 10.1952 26.3488C10.2347 26.4147 10.2117 26.5004 10.1425 26.54L8.33974 27.5814C8.31997 27.5913 8.29689 27.5978 8.27053 27.5978Z" fill="#F5CBD9"/>
<path d="M6.38564 27.8681C6.36257 27.8681 6.33621 27.8615 6.31643 27.8484C6.25052 27.8088 6.22745 27.7231 6.2637 27.6572L6.75146 26.8102C6.79101 26.7443 6.87669 26.7212 6.94261 26.7575C7.00852 26.797 7.03159 26.8827 6.99534 26.9486L6.50758 27.7956C6.48122 27.8451 6.43178 27.8681 6.38564 27.8681Z" fill="#F5CBD9"/>
<path d="M7.17678 26.5003C7.15371 26.5003 7.12734 26.4937 7.10757 26.4805C7.04166 26.441 7.01859 26.3553 7.05484 26.2894L7.48657 25.5413C7.52612 25.4754 7.61181 25.4523 7.67772 25.4886C7.74363 25.5281 7.7667 25.6138 7.73045 25.6797L7.29872 26.4278C7.27235 26.474 7.22292 26.5003 7.17678 26.5003Z" fill="#F5CBD9"/>
<path d="M5.67669 27.6802C5.59759 27.6802 5.53497 27.6176 5.53497 27.5385V26.563C5.53497 26.4839 5.59759 26.4213 5.67669 26.4213C5.75579 26.4213 5.8184 26.4839 5.8184 26.563V27.5385C5.81511 27.6176 5.75249 27.6802 5.67669 27.6802Z" fill="#F5CBD9"/>
<path d="M5.67669 26.0983C5.59759 26.0983 5.53497 26.0357 5.53497 25.9566V24.0451C5.53497 23.966 5.59759 23.9034 5.67669 23.9034C5.75579 23.9034 5.8184 23.966 5.8184 24.0451V25.9566C5.81511 26.0357 5.75249 26.0983 5.67669 26.0983Z" fill="#F5CBD9"/>
<path d="M5.67669 31.4866C5.59759 31.4866 5.53497 31.424 5.53497 31.3449V30.3693C5.53497 30.2903 5.59759 30.2276 5.67669 30.2276C5.75579 30.2276 5.8184 30.2903 5.8184 30.3693V31.3449C5.81511 31.424 5.75249 31.4866 5.67669 31.4866Z" fill="#F5CBD9"/>
<path d="M5.67669 34.0046C5.59759 34.0046 5.53497 33.942 5.53497 33.8629V31.9514C5.53497 31.8723 5.59759 31.8097 5.67669 31.8097C5.75579 31.8097 5.8184 31.8723 5.8184 31.9514V33.8629C5.81511 33.942 5.75249 34.0046 5.67669 34.0046Z" fill="#F5CBD9"/>
<path d="M6.87365 31.167C6.82421 31.167 6.77807 31.1406 6.7517 31.0978L6.26395 30.2508C6.2244 30.1849 6.24747 30.0992 6.31668 30.0596C6.38259 30.0201 6.46828 30.0432 6.50783 30.1124L6.99559 30.9594C7.03513 31.0253 7.01206 31.111 6.94285 31.1505C6.91978 31.1604 6.89672 31.167 6.87365 31.167Z" fill="#F5CBD9"/>
<path d="M7.57861 32.393C7.52917 32.393 7.48303 32.3666 7.45667 32.3238L7.0513 31.6218C7.01175 31.5559 7.03482 31.4702 7.10403 31.4306C7.16995 31.3911 7.25563 31.4142 7.29518 31.4834L7.70055 32.1854C7.7401 32.2513 7.71702 32.337 7.64782 32.3765C7.62804 32.3864 7.60497 32.393 7.57861 32.393Z" fill="#F5CBD9"/>
<path d="M7.74679 30.2905C7.72372 30.2905 7.69735 30.2839 7.67758 30.2707L6.83389 29.7829C6.76797 29.7434 6.7449 29.6577 6.78116 29.5918C6.8207 29.5259 6.90639 29.5028 6.97231 29.5391L7.816 30.0268C7.88191 30.0664 7.90498 30.152 7.86873 30.218C7.84236 30.2674 7.79622 30.2905 7.74679 30.2905Z" fill="#F5CBD9"/>
<path d="M10.0741 31.635C10.0511 31.635 10.0247 31.6284 10.0049 31.6152L8.2022 30.5738C8.13629 30.5342 8.11322 30.4485 8.14947 30.3826C8.18902 30.3167 8.27471 30.2936 8.34062 30.3299L10.1434 31.3713C10.2093 31.4109 10.2323 31.4965 10.1961 31.5625C10.1697 31.6086 10.1236 31.635 10.0741 31.635Z" fill="#F5CBD9"/>
<path d="M21.5834 10.2396C21.5043 10.2396 21.4285 10.2363 21.3527 10.2264C20.7068 10.1506 20.1234 9.74191 19.8664 9.18494C19.5928 8.59172 19.7148 7.8436 20.1564 7.40198C20.6244 6.934 21.4252 6.8615 21.9393 7.24379C22.3546 7.55359 22.5227 8.13032 22.3216 8.55546C22.2096 8.79275 21.9624 8.97072 21.6823 9.02345C21.4285 9.06959 21.1879 9.00368 21.0199 8.8422C20.9638 8.78946 20.9638 8.70048 21.0166 8.64445C21.0693 8.58843 21.1583 8.58842 21.2143 8.64115C21.3165 8.74002 21.4648 8.77628 21.6328 8.74662C21.8273 8.71037 21.9921 8.59172 22.0679 8.43353C22.2162 8.12373 22.0844 7.69859 21.7746 7.4679C21.3659 7.1647 20.7298 7.22402 20.3541 7.59972C19.9916 7.95895 19.8927 8.57854 20.1201 9.0663C20.3377 9.53758 20.8353 9.88362 21.3824 9.94624C21.8998 10.0089 22.4667 9.82431 22.8984 9.46178C23.485 8.96414 23.752 8.16329 23.5509 7.51074C23.4059 7.04276 23.0302 6.63739 22.526 6.39351C22.0942 6.18588 21.5669 6.0936 20.9605 6.11667C19.9982 6.15292 19.0029 6.45942 18.0076 7.02628C17.2397 7.4646 16.1489 8.1501 15.3052 8.93776C15.2524 8.9839 15.1733 8.9872 15.1206 8.94436C15.0646 8.89822 15.0547 8.82241 15.0909 8.76309C15.4238 8.2226 15.6611 7.74144 15.8226 7.28334C14.7054 8.24897 13.397 9.01356 12.0095 9.50791C11.3965 9.72542 10.5858 9.95942 9.75526 9.84407C8.89839 9.72213 8.17664 9.19812 7.91628 8.50933C7.7515 8.0743 7.78445 7.56017 8.00526 7.10537C8.22936 6.64727 8.61166 6.30782 9.05658 6.1694C9.62014 5.99473 10.2529 6.13974 10.6352 6.52863C11.0603 6.96366 11.1263 7.66564 10.7868 8.12703C10.6088 8.36761 10.3122 8.52911 9.99255 8.55218C9.69264 8.57854 9.40921 8.48296 9.21477 8.29181C9.15874 8.23908 9.15874 8.1501 9.21147 8.09407C9.2642 8.03805 9.35319 8.03805 9.40922 8.09407C9.54434 8.2259 9.74538 8.29511 9.96618 8.27534C10.2068 8.25557 10.4276 8.14021 10.5561 7.96225C10.8132 7.61291 10.7538 7.05594 10.4309 6.72307C10.1211 6.40669 9.60036 6.29135 9.13568 6.43306C8.76326 6.54841 8.44358 6.83513 8.25243 7.22402C8.06458 7.61291 8.03492 8.04464 8.17334 8.40716C8.40074 9.00368 9.03351 9.45519 9.79151 9.56395C10.5627 9.6727 11.3306 9.44859 11.9139 9.24096C13.4233 8.70376 14.8372 7.84031 16.0006 6.73956C16.0467 6.69671 16.1126 6.69012 16.1686 6.71978C16.2214 6.74945 16.2477 6.81206 16.2345 6.87468C16.1324 7.30312 15.9676 7.73484 15.727 8.20612C16.4586 7.62609 17.2628 7.12515 17.8692 6.7824C18.904 6.19248 19.9422 5.87279 20.9506 5.83654C21.6032 5.81017 22.1766 5.91564 22.6479 6.14304C23.2247 6.41988 23.6498 6.88786 23.8212 7.42835C24.0585 8.18635 23.752 9.10913 23.0829 9.67599C22.6545 10.0352 22.1074 10.2396 21.5834 10.2396Z" fill="#F1DFC1"/>
<path d="M21.1257 9.92977C21.0466 9.92977 20.9708 9.92648 20.895 9.91659C20.6906 9.89352 20.4896 9.83419 20.2985 9.74521C20.2293 9.71225 20.1996 9.62986 20.2325 9.55736C20.2655 9.48815 20.3479 9.45848 20.4204 9.49144C20.5852 9.56724 20.7566 9.61668 20.9312 9.63975C21.4486 9.69907 22.0155 9.51782 22.4472 9.15529C23.0339 8.66094 23.3008 7.8568 23.0998 7.20425C23.0042 6.89776 22.8065 6.61762 22.5132 6.38034C22.4538 6.3309 22.4439 6.24192 22.4934 6.18259C22.5428 6.12327 22.6318 6.11339 22.6911 6.16282C23.0273 6.43636 23.2547 6.75934 23.3667 7.12186C23.604 7.87987 23.2975 8.80264 22.6285 9.3695C22.1968 9.72543 21.6497 9.92977 21.1257 9.92977Z" fill="#F1DFC1"/>
<path d="M10.4686 9.8639C10.462 9.8639 10.4554 9.8639 10.4488 9.8639C9.73366 9.76174 8.83065 9.29376 8.53074 8.50939C8.34618 8.02163 8.40551 7.41522 8.68893 6.93076C8.94929 6.48585 9.36125 6.19912 9.84901 6.12992C9.92481 6.11673 9.99731 6.17275 10.0072 6.24855C10.0171 6.32435 9.96436 6.39686 9.88856 6.40675C9.48648 6.46607 9.14703 6.70336 8.92952 7.07247C8.68893 7.48443 8.6362 7.99856 8.7911 8.40722C9.05146 9.08613 9.8523 9.4948 10.4884 9.58378C10.5642 9.59367 10.6169 9.66617 10.607 9.74197C10.5971 9.81117 10.5378 9.8639 10.4686 9.8639Z" fill="#F1DFC1"/>
<path d="M24.6154 6.11338H12.8037C12.7246 6.11338 12.662 6.05076 12.662 5.97166C12.662 5.89256 12.7246 5.82995 12.8037 5.82995H24.6154C24.6945 5.82995 24.7571 5.89256 24.7571 5.97166C24.7571 6.05076 24.6945 6.11338 24.6154 6.11338Z" fill="#F1DFC1"/>
<path d="M21.4494 9.00365C21.8025 9.00365 22.0887 8.7174 22.0887 8.36429C22.0887 8.01118 21.8025 7.72493 21.4494 7.72493C21.0962 7.72493 20.81 8.01118 20.81 8.36429C20.81 8.7174 21.0962 9.00365 21.4494 9.00365Z" fill="#F1DFC1"/>
<path d="M13.4436 6.47249C13.4436 6.82513 13.1569 7.11185 12.8043 7.11185C12.4516 7.11185 12.1649 6.82513 12.1649 6.47249C12.1649 6.11985 12.4516 5.83313 12.8043 5.83313C13.1569 5.83313 13.4436 6.11985 13.4436 6.47249Z" fill="#F1DFC1"/>
<path d="M9.67336 8.48612C10.0265 8.48612 10.3127 8.19987 10.3127 7.84676C10.3127 7.49365 10.0265 7.2074 9.67336 7.2074C9.32025 7.2074 9.034 7.49365 9.034 7.84676C9.034 8.19987 9.32025 8.48612 9.67336 8.48612Z" fill="#F1DFC1"/>
<path d="M34.3277 10.2396C33.8004 10.2396 33.2698 10.0418 32.838 9.67599C32.1657 9.10913 31.8625 8.18635 32.0998 7.42835C32.2679 6.88786 32.6963 6.41988 33.273 6.14304C33.7476 5.91564 34.3178 5.81017 34.9703 5.83654C35.9788 5.87279 37.0169 6.19248 38.0518 6.7824C38.6582 7.12845 39.4623 7.62609 40.194 8.20612C39.9534 7.73484 39.7886 7.30312 39.6864 6.87468C39.6732 6.81536 39.6996 6.75274 39.7523 6.71978C39.8051 6.69012 39.8743 6.69671 39.9204 6.73956C41.0838 7.84031 42.4976 8.70376 44.007 9.24096C44.5904 9.44859 45.3583 9.6727 46.1295 9.56395C46.8842 9.45849 47.5202 9.00368 47.7476 8.40716C47.886 8.04464 47.8564 7.61291 47.6685 7.22402C47.4807 6.83513 47.1577 6.54841 46.7853 6.43306C46.3206 6.28805 45.7999 6.40339 45.4901 6.72307C45.1638 7.05594 45.1078 7.60961 45.3649 7.96225C45.4934 8.13692 45.7142 8.25557 45.9548 8.27534C46.1723 8.29182 46.3766 8.2259 46.5118 8.09407C46.5678 8.04134 46.6568 8.04134 46.7095 8.09407C46.7622 8.1501 46.7622 8.23908 46.7062 8.29181C46.5118 8.48296 46.2283 8.57854 45.9284 8.55218C45.6087 8.52581 45.3121 8.36761 45.1342 8.12703C44.7947 7.66564 44.8606 6.96036 45.2858 6.52863C45.6681 6.13974 46.3008 5.99473 46.8644 6.1694C47.3093 6.30782 47.6916 6.64727 47.9157 7.10537C48.1398 7.56347 48.1728 8.0743 48.0047 8.50933C47.741 9.19812 47.0193 9.72213 46.1657 9.84407C45.3352 9.96272 44.5245 9.72542 43.9115 9.50791C42.524 9.01356 41.2156 8.24897 40.0984 7.28334C40.2599 7.74144 40.4972 8.2226 40.83 8.76309C40.8663 8.82241 40.8531 8.90152 40.8004 8.94436C40.7476 8.9872 40.6685 8.9872 40.6158 8.93776C39.7754 8.1501 38.6812 7.4646 37.9134 7.02628C36.9181 6.45942 35.9228 6.15292 34.9604 6.11667C34.3507 6.0936 33.8267 6.18917 33.395 6.39351C32.8875 6.63739 32.515 7.04276 32.37 7.51074C32.1657 8.16329 32.436 8.96414 33.0226 9.46178C33.4543 9.8276 34.0245 10.0089 34.5386 9.94624C35.089 9.88032 35.5866 9.53428 35.8041 9.0663C36.0315 8.57524 35.9327 7.95895 35.5701 7.59972C35.1944 7.22402 34.5584 7.16799 34.1497 7.4679C33.8366 7.69859 33.7081 8.12373 33.8564 8.43353C33.9322 8.59172 34.097 8.71037 34.2914 8.74662C34.4529 8.77628 34.6078 8.73673 34.71 8.64115C34.766 8.58842 34.855 8.58843 34.9077 8.64445C34.9604 8.70048 34.9604 8.78946 34.9044 8.8422C34.7363 9.00368 34.4957 9.06959 34.242 9.02345C33.9618 8.97402 33.718 8.79275 33.6059 8.55546C33.4016 8.13032 33.5697 7.55359 33.9882 7.24379C34.5023 6.8615 35.3032 6.934 35.7712 7.40198C36.2128 7.8436 36.3347 8.59172 36.0612 9.18494C35.8041 9.74191 35.2208 10.1506 34.5748 10.2264C34.4859 10.2363 34.4068 10.2396 34.3277 10.2396Z" fill="#F1DFC1"/>
<path d="M34.7971 9.92988C34.2731 9.92988 33.7261 9.72884 33.2976 9.36632C32.6253 8.79946 32.3221 7.87668 32.5594 7.11868C32.6714 6.75945 32.8988 6.43648 33.235 6.15964C33.2943 6.1102 33.3833 6.12009 33.4327 6.17941C33.4822 6.23873 33.4723 6.32772 33.413 6.37715C33.1197 6.61774 32.9252 6.89457 32.8296 7.20107C32.6253 7.85361 32.8955 8.65447 33.4822 9.15211C33.9139 9.51793 34.4841 9.69918 34.9982 9.63657C35.1729 9.61679 35.3442 9.56735 35.509 9.48826C35.5782 9.4553 35.6639 9.48496 35.6969 9.55417C35.7298 9.62338 35.7002 9.70907 35.6309 9.74203C35.4398 9.83101 35.2388 9.89034 35.0344 9.91341C34.952 9.92659 34.8729 9.92988 34.7971 9.92988Z" fill="#F1DFC1"/>
<path d="M45.45 9.86378C45.3808 9.86378 45.3214 9.81435 45.3116 9.74184C45.3017 9.66604 45.3544 9.59354 45.4302 9.58366C46.0663 9.49467 46.8671 9.08601 47.1275 8.4071C47.2857 7.99514 47.2329 7.48431 46.989 7.06906C46.7715 6.69994 46.4321 6.46265 46.03 6.40333C45.9542 6.39344 45.9015 6.32094 45.9114 6.24514C45.9213 6.16934 45.9938 6.11331 46.0696 6.12649C46.5573 6.199 46.9693 6.48243 47.2296 6.92735C47.5131 7.41181 47.5757 8.01491 47.3878 8.50597C47.0879 9.29363 46.1849 9.75832 45.4698 9.86048C45.4632 9.86378 45.4566 9.86378 45.45 9.86378Z" fill="#F1DFC1"/>
<path d="M43.1172 6.11338H31.3022C31.2231 6.11338 31.1605 6.05076 31.1605 5.97166C31.1605 5.89256 31.2231 5.82995 31.3022 5.82995H43.1139C43.193 5.82995 43.2556 5.89256 43.2556 5.97166C43.2556 6.05076 43.193 6.11338 43.1172 6.11338Z" fill="#F1DFC1"/>
<path d="M34.4706 9.00367C34.8237 9.00367 35.11 8.71742 35.11 8.36431C35.11 8.0112 34.8237 7.72495 34.4706 7.72495C34.1175 7.72495 33.8312 8.0112 33.8312 8.36431C33.8312 8.71742 34.1175 9.00367 34.4706 9.00367Z" fill="#F1DFC1"/>
<path d="M42.4761 6.47249C42.4761 6.82513 42.7628 7.11185 43.1155 7.11185C43.4681 7.11185 43.7548 6.82513 43.7548 6.47249C43.7548 6.11985 43.4681 5.83313 43.1155 5.83313C42.7628 5.83313 42.4761 6.11985 42.4761 6.47249Z" fill="#F1DFC1"/>
<path d="M46.2464 8.48612C46.5995 8.48612 46.8857 8.19987 46.8857 7.84676C46.8857 7.49365 46.5995 7.2074 46.2464 7.2074C45.8933 7.2074 45.607 7.49365 45.607 7.84676C45.607 8.19987 45.8933 8.48612 46.2464 8.48612Z" fill="#F1DFC1"/>
<path d="M21.1353 52.0781C21.0727 52.0781 21.0134 52.078 20.9508 52.0748C19.9423 52.0385 18.9042 51.7188 17.8693 51.1289C17.2629 50.7829 16.4588 50.2852 15.7271 49.7052C15.9677 50.1764 16.1325 50.6082 16.2347 51.0366C16.2478 51.0959 16.2215 51.1586 16.1688 51.1915C16.116 51.2212 16.0468 51.2146 16.0007 51.1717C14.8373 50.071 13.4235 49.2075 11.914 48.6703C11.3307 48.4627 10.5595 48.2386 9.79163 48.3474C9.03693 48.4561 8.40087 48.9076 8.17346 49.5041C8.03505 49.8667 8.0647 50.2984 8.25256 50.6873C8.44041 51.0762 8.76339 51.3629 9.1358 51.4782C9.60049 51.6232 10.1212 51.5079 10.431 51.1882C10.7573 50.8554 10.8133 50.3017 10.5562 49.949C10.4277 49.7711 10.2069 49.6557 9.96631 49.636C9.74879 49.6195 9.54446 49.6854 9.40934 49.8172C9.35331 49.8733 9.26433 49.87 9.2116 49.8172C9.15887 49.7612 9.15887 49.6722 9.21489 49.6195C9.40934 49.4283 9.69277 49.3328 9.98938 49.3591C10.3091 49.3855 10.6057 49.5437 10.7836 49.7843C11.1231 50.2457 11.0572 50.9509 10.632 51.3827C10.2497 51.7716 9.61697 51.9166 9.05341 51.7419C8.60849 51.6035 8.22619 51.264 8.00209 50.8059C7.77798 50.3478 7.74502 49.837 7.9131 49.402C8.17676 48.7132 8.89851 48.1891 9.75209 48.0672C10.5859 47.9486 11.3933 48.1859 12.0063 48.4034C13.3938 48.8977 14.7022 49.6623 15.8194 50.628C15.6579 50.1699 15.4206 49.6887 15.0878 49.1482C15.0515 49.0889 15.0647 49.0098 15.1174 48.9669C15.1702 48.9241 15.2493 48.9241 15.302 48.9735C16.1424 49.7612 17.2366 50.4467 18.0044 50.885C18.9997 51.4519 19.995 51.7584 20.9574 51.7946C21.5671 51.8177 22.0911 51.7221 22.5228 51.5178C23.0303 51.2739 23.4027 50.8685 23.5478 50.4005C23.7521 49.748 23.4818 48.9472 22.8952 48.4495C22.4635 48.0837 21.8966 47.9024 21.3792 47.965C20.8288 48.031 20.3345 48.377 20.117 48.845C19.8896 49.3328 19.9884 49.9524 20.351 50.3116C20.7267 50.6873 21.3627 50.7433 21.7714 50.4434C22.0845 50.2127 22.213 49.7876 22.0647 49.4778C21.9889 49.3196 21.8241 49.2009 21.6297 49.1647C21.4649 49.135 21.3133 49.1746 21.2111 49.2701C21.1551 49.3229 21.0661 49.3229 21.0134 49.2668C20.9607 49.2108 20.9607 49.1218 21.0167 49.0691C21.1848 48.9076 21.4253 48.8417 21.6791 48.8878C21.9592 48.9373 22.2031 49.1185 22.3185 49.3558C22.5228 49.781 22.3547 50.3577 21.9362 50.6675C21.422 51.0498 20.6212 50.9773 20.1532 50.5093C19.7116 50.0677 19.5897 49.3196 19.8632 48.7263C20.1203 48.1694 20.7036 47.7607 21.3495 47.6849C21.9428 47.6157 22.5887 47.82 23.0798 48.2353C23.7521 48.8021 24.0553 49.7249 23.818 50.4829C23.6499 51.0234 23.2215 51.4914 22.6447 51.7683C22.2196 51.9759 21.7121 52.0781 21.1353 52.0781Z" fill="#F1DFC1"/>
<path d="M22.5996 51.7847C22.5601 51.7847 22.5172 51.7682 22.4909 51.732C22.4414 51.6726 22.4513 51.5836 22.5106 51.5342C22.804 51.2936 22.9984 51.0168 23.0973 50.7103C23.3016 50.0578 23.0314 49.2569 22.4447 48.7593C22.013 48.3934 21.4461 48.2122 20.9287 48.2748C20.754 48.2946 20.5827 48.344 20.4179 48.4231C20.3487 48.4561 20.263 48.4264 20.23 48.3572C20.1971 48.288 20.2267 48.2023 20.2992 48.1694C20.4904 48.0804 20.6914 48.021 20.8958 47.998C21.489 47.9288 22.1349 48.1331 22.626 48.5483C23.2983 49.1152 23.6015 50.038 23.3642 50.796C23.2522 51.1585 23.0248 51.4782 22.6886 51.755C22.6622 51.7715 22.6293 51.7847 22.5996 51.7847Z" fill="#F1DFC1"/>
<path d="M9.86778 51.7846C9.86119 51.7846 9.8546 51.7846 9.84801 51.7846C9.36025 51.7121 8.94829 51.4287 8.68793 50.9838C8.4045 50.4993 8.34189 49.8962 8.52974 49.4051C8.82965 48.6175 9.73266 48.1528 10.4478 48.0506C10.5236 48.0407 10.5961 48.0935 10.606 48.1693C10.6159 48.2451 10.5632 48.3176 10.4874 48.3275C9.8513 48.4164 9.05045 48.8251 8.7901 49.504C8.6319 49.916 8.68463 50.4268 8.92851 50.8387C9.14603 51.2079 9.48548 51.4452 9.88756 51.5045C9.96336 51.5144 10.0161 51.5869 10.0062 51.6627C9.99631 51.7352 9.93699 51.7846 9.86778 51.7846Z" fill="#F1DFC1"/>
<path d="M24.6155 52.078H12.8039C12.7248 52.078 12.6621 52.0153 12.6621 51.9363C12.6621 51.8572 12.7248 51.7945 12.8039 51.7945H24.6155C24.6946 51.7945 24.7572 51.8572 24.7572 51.9363C24.7572 52.0153 24.6946 52.078 24.6155 52.078Z" fill="#F1DFC1"/>
<path d="M21.448 50.1862C21.8011 50.1862 22.0873 49.9 22.0873 49.5468C22.0873 49.1937 21.8011 48.9075 21.448 48.9075C21.0949 48.9075 20.8086 49.1937 20.8086 49.5468C20.8086 49.9 21.0949 50.1862 21.448 50.1862Z" fill="#F1DFC1"/>
<path d="M12.8044 52.078C13.1575 52.078 13.4438 51.7918 13.4438 51.4387C13.4438 51.0856 13.1575 50.7993 12.8044 50.7993C12.4513 50.7993 12.165 51.0856 12.165 51.4387C12.165 51.7918 12.4513 52.078 12.8044 52.078Z" fill="#F1DFC1"/>
<path d="M9.67351 50.7037C10.0266 50.7037 10.3129 50.4175 10.3129 50.0644C10.3129 49.7113 10.0266 49.425 9.67351 49.425C9.3204 49.425 9.03415 49.7113 9.03415 50.0644C9.03415 50.4175 9.3204 50.7037 9.67351 50.7037Z" fill="#F1DFC1"/>
<path d="M34.783 52.0779C34.2062 52.0779 33.6987 51.9758 33.2703 51.7681C32.6935 51.4913 32.2684 51.0233 32.097 50.4828C31.8597 49.7248 32.1662 48.802 32.8352 48.2352C33.3329 47.8133 33.9624 47.6156 34.5655 47.6848C35.2114 47.7606 35.7948 48.1692 36.0518 48.7262C36.3254 49.3194 36.2034 50.0676 35.7618 50.5092C35.2905 50.9772 34.4897 51.0497 33.9788 50.6674C33.5636 50.3576 33.3955 49.7808 33.5965 49.3557C33.7086 49.1184 33.9525 48.9404 34.2326 48.8877C34.4864 48.8416 34.727 48.9075 34.895 49.069C34.9511 49.1217 34.9511 49.2107 34.8983 49.2667C34.8456 49.3227 34.7566 49.3227 34.7006 49.27C34.5984 49.1711 34.4468 49.1349 34.282 49.1645C34.0876 49.2008 33.9228 49.3194 33.847 49.4776C33.6987 49.7874 33.8305 50.2126 34.1403 50.4433C34.549 50.7465 35.1851 50.6872 35.5608 50.3114C35.9233 49.9522 36.0222 49.3359 35.7948 48.8449C35.5772 48.3736 35.0796 48.0275 34.5292 47.9649C34.0118 47.9056 33.4449 48.0869 33.0132 48.4494C32.4266 48.9437 32.1596 49.7479 32.3607 50.4004C32.5057 50.8684 32.8814 51.2738 33.3856 51.5177C33.8174 51.7253 34.3447 51.8176 34.9511 51.7945C35.9134 51.7582 36.9087 51.4517 37.904 50.8849C38.6719 50.4466 39.7627 49.761 40.6064 48.9734C40.6592 48.9239 40.7383 48.924 40.791 48.9668C40.847 49.0129 40.8569 49.0887 40.8206 49.1481C40.4878 49.6886 40.2505 50.1697 40.089 50.6278C41.2029 49.6622 42.5146 48.8976 43.9021 48.4032C44.5151 48.1857 45.3258 47.9484 46.1563 48.0671C47.0132 48.189 47.735 48.713 47.9953 49.4018C48.1601 49.8369 48.1271 50.351 47.9063 50.8058C47.6822 51.2639 47.2999 51.6033 46.855 51.7418C46.2915 51.9164 45.6587 51.7714 45.2764 51.3825C44.8513 50.9475 44.7853 50.2455 45.1248 49.7841C45.3028 49.5435 45.5961 49.3821 45.919 49.359C46.219 49.3359 46.5024 49.4315 46.6968 49.6193C46.7529 49.6721 46.7529 49.7611 46.7001 49.8171C46.6474 49.8731 46.5584 49.8731 46.5024 49.8171C46.3673 49.6853 46.1629 49.616 45.9454 49.6358C45.7048 49.6556 45.484 49.7709 45.3555 49.9489C45.0984 50.2982 45.1578 50.8519 45.4807 51.1881C45.7905 51.5045 46.3112 51.6198 46.7759 51.4781C47.1483 51.3628 47.468 51.076 47.6592 50.6871C47.847 50.2982 47.8767 49.8665 47.7383 49.504C47.5109 48.9075 46.8781 48.456 46.1201 48.3472C45.3522 48.2385 44.581 48.4626 43.9977 48.6702C42.4883 49.2074 41.0744 50.0709 39.911 51.1716C39.8649 51.2145 39.799 51.221 39.743 51.1914C39.6902 51.1617 39.6639 51.0991 39.677 51.0365C39.7792 50.608 39.944 50.1763 40.1846 49.705C39.4529 50.2851 38.6488 50.786 38.0424 51.1288C37.0076 51.7187 35.9694 52.0351 34.9609 52.0746C34.9049 52.0779 34.8423 52.0779 34.783 52.0779Z" fill="#F1DFC1"/>
<path d="M33.3192 51.7846C33.2862 51.7846 33.2566 51.7747 33.2302 51.7516C32.894 51.4781 32.6666 51.1551 32.5546 50.7926C32.3173 50.0346 32.6238 49.1118 33.2928 48.5449C33.7839 48.1297 34.4331 47.9254 35.023 47.9946C35.2274 48.0176 35.4284 48.077 35.6196 48.166C35.6888 48.1989 35.7184 48.2813 35.6888 48.3538C35.6558 48.423 35.5734 48.4527 35.5009 48.4197C35.3361 48.3439 35.1648 48.2945 34.9901 48.2714C34.4727 48.2088 33.9058 48.3934 33.4741 48.7559C32.8875 49.2502 32.6205 50.0544 32.8215 50.7069C32.9171 51.0134 33.1149 51.2935 33.4049 51.5308C33.4642 51.5803 33.4741 51.6693 33.4247 51.7286C33.4016 51.7648 33.362 51.7846 33.3192 51.7846Z" fill="#F1DFC1"/>
<path d="M46.0499 51.7845C45.9807 51.7845 45.9213 51.7351 45.9115 51.6659C45.9016 51.5901 45.9543 51.5176 46.0301 51.5077C46.4322 51.4484 46.7716 51.2111 46.9891 50.842C47.2297 50.43 47.2825 49.9159 47.1276 49.5039C46.8672 48.825 46.0664 48.4164 45.4303 48.3274C45.3545 48.3175 45.3018 48.245 45.3116 48.1692C45.3215 48.0934 45.394 48.0406 45.4698 48.0505C46.2081 48.156 47.088 48.6141 47.3879 49.4051C47.5725 49.8961 47.5132 50.4992 47.2297 50.9837C46.9694 51.4286 46.5574 51.7153 46.0697 51.7845C46.0631 51.7845 46.0565 51.7845 46.0499 51.7845Z" fill="#F1DFC1"/>
<path d="M43.1173 52.0779H31.3023C31.2232 52.0779 31.1606 52.0153 31.1606 51.9362C31.1606 51.8571 31.2232 51.7945 31.3023 51.7945H43.114C43.1931 51.7945 43.2557 51.8571 43.2557 51.9362C43.2557 52.0153 43.1931 52.0779 43.1173 52.0779Z" fill="#F1DFC1"/>
<path d="M34.4707 50.1861C34.8238 50.1861 35.1101 49.8999 35.1101 49.5468C35.1101 49.1937 34.8238 48.9074 34.4707 48.9074C34.1176 48.9074 33.8313 49.1937 33.8313 49.5468C33.8313 49.8999 34.1176 50.1861 34.4707 50.1861Z" fill="#F1DFC1"/>
<path d="M43.1179 52.0779C43.471 52.0779 43.7573 51.7917 43.7573 51.4386C43.7573 51.0855 43.471 50.7992 43.1179 50.7992C42.7648 50.7992 42.4785 51.0855 42.4785 51.4386C42.4785 51.7917 42.7648 52.0779 43.1179 52.0779Z" fill="#F1DFC1"/>
<path d="M46.2465 50.7037C46.5996 50.7037 46.8858 50.4174 46.8858 50.0643C46.8858 49.7112 46.5996 49.425 46.2465 49.425C45.8934 49.425 45.6071 49.7112 45.6071 50.0643C45.6071 50.4174 45.8934 50.7037 46.2465 50.7037Z" fill="#F1DFC1"/>
<path d="M48.9552 24.8953C48.3323 24.8953 47.6797 24.5954 47.2414 24.078C46.8196 23.5803 46.6218 22.9508 46.691 22.3477C46.7668 21.7018 47.1755 21.1185 47.7325 20.8614C48.3257 20.5879 49.0738 20.7098 49.5154 21.1514C49.9834 21.6227 50.0559 22.4235 49.6736 22.9377C49.3638 23.3529 48.7871 23.521 48.3619 23.32C48.1247 23.2079 47.9467 22.964 47.894 22.6806C47.8478 22.4268 47.9137 22.1863 48.0752 22.0182C48.1279 21.9621 48.2169 21.9621 48.273 22.0149C48.329 22.0676 48.329 22.1566 48.2763 22.2126C48.1774 22.3148 48.1411 22.4664 48.1708 22.6312C48.207 22.8256 48.3257 22.9904 48.4839 23.0662C48.7937 23.2145 49.2188 23.0827 49.4495 22.7729C49.7527 22.3642 49.6934 21.7281 49.3177 21.3524C48.9585 20.9899 48.3422 20.8911 47.8511 21.1185C47.3798 21.336 47.0338 21.8336 46.9712 22.384C46.9119 22.9014 47.0931 23.4683 47.4556 23.9C47.95 24.4866 48.7541 24.7569 49.4067 24.5525C49.8714 24.4075 50.28 24.0318 50.5239 23.5276C50.7315 23.0959 50.8238 22.5686 50.8007 21.9622C50.7645 20.9998 50.458 20.0045 49.8911 19.0092C49.4528 18.2413 48.7673 17.1505 47.9797 16.3068C47.9302 16.254 47.9302 16.1749 47.9731 16.1222C48.0159 16.0695 48.095 16.0563 48.1543 16.0926C48.6948 16.4254 49.176 16.6627 49.6341 16.8242C48.6684 15.707 47.9038 14.3986 47.4095 13.0111C47.192 12.3981 46.9547 11.5874 47.0733 10.7569C47.1953 9.9033 47.7193 9.17825 48.4081 8.91789C48.8431 8.75311 49.3539 8.78607 49.812 9.00688C50.2701 9.23099 50.6096 9.61329 50.748 10.0582C50.9227 10.6218 50.7777 11.2545 50.3888 11.6368C49.9538 12.062 49.2518 12.1279 48.7904 11.7884C48.5498 11.6105 48.3883 11.3138 48.3652 10.9942C48.3422 10.6943 48.4377 10.4108 48.6256 10.2197C48.6816 10.1637 48.7673 10.1637 48.8233 10.2164C48.8794 10.2691 48.8794 10.3581 48.8233 10.4141C48.6915 10.5492 48.6223 10.7536 48.6421 10.9711C48.6618 11.2117 48.7772 11.4325 48.9552 11.561C49.3045 11.8181 49.8615 11.7588 50.1943 11.4358C50.5107 11.126 50.6261 10.6053 50.4811 10.1406C50.3657 9.76818 50.079 9.4485 49.6901 9.25736C49.3012 9.0695 48.8728 9.03982 48.507 9.17824C47.9104 9.40564 47.4589 10.0384 47.3502 10.7964C47.2414 11.5676 47.4655 12.3355 47.6731 12.9188C48.2103 14.4283 49.0738 15.8421 50.1746 17.0055C50.2174 17.0516 50.224 17.1175 50.1943 17.1735C50.1647 17.2263 50.0988 17.2526 50.0394 17.2395C49.611 17.1373 49.1793 16.9725 48.708 16.7319C49.288 17.4636 49.789 18.2677 50.1317 18.8741C50.7216 19.909 51.0413 20.9471 51.0776 21.9556C51.1006 22.6081 50.9985 23.1816 50.7711 23.6528C50.4942 24.2296 50.0263 24.658 49.4858 24.8261C49.321 24.8689 49.1397 24.8953 48.9552 24.8953Z" fill="#F1DFC1"/>
<path d="M49.2639 24.4371C48.641 24.4371 47.9884 24.1371 47.5501 23.6197C47.1283 23.1221 46.9305 22.4893 46.9997 21.8895C47.0228 21.6852 47.0821 21.4841 47.1711 21.293C47.2041 21.2238 47.2864 21.1941 47.359 21.2271C47.4282 21.26 47.4578 21.3424 47.4249 21.4149C47.3491 21.5797 47.2996 21.7511 47.2799 21.9258C47.2172 22.4432 47.4018 23.01 47.7643 23.4418C48.2587 24.0284 49.0628 24.2953 49.7154 24.0943C50.0219 23.9987 50.2987 23.801 50.5393 23.511C50.5887 23.4517 50.6777 23.4418 50.737 23.4912C50.7963 23.5406 50.8062 23.6296 50.7568 23.6889C50.48 24.0251 50.1603 24.2525 49.7977 24.3646C49.6297 24.4107 49.4484 24.4371 49.2639 24.4371Z" fill="#F1DFC1"/>
<path d="M47.1977 11.6038C47.1911 11.6038 47.1845 11.6038 47.1779 11.6038C47.1021 11.5939 47.0494 11.5213 47.0593 11.4455C47.1614 10.7304 47.6261 9.82739 48.4138 9.52749C48.9048 9.33963 49.5079 9.40224 49.9924 9.68567C50.4373 9.94603 50.724 10.358 50.7933 10.8458C50.8031 10.9216 50.7504 10.9941 50.6746 11.0039C50.5988 11.0138 50.5263 10.9611 50.5164 10.8853C50.4571 10.4832 50.2198 10.1438 49.8507 9.92625C49.4387 9.68567 48.9246 9.63294 48.5127 9.78784C47.8337 10.0482 47.4251 10.849 47.3361 11.4851C47.3262 11.551 47.2636 11.6038 47.1977 11.6038Z" fill="#F1DFC1"/>
<path d="M50.9455 25.7521C50.8664 25.7521 50.8037 25.6895 50.8037 25.6104V13.7987C50.8037 13.7196 50.8664 13.657 50.9455 13.657C51.0246 13.657 51.0872 13.7196 51.0872 13.7987V25.6104C51.0872 25.6895 51.0246 25.7521 50.9455 25.7521Z" fill="#F1DFC1"/>
<path d="M48.5536 23.0828C48.2009 23.0828 47.9142 22.796 47.9142 22.4434C47.9142 22.0908 48.2009 21.8041 48.5536 21.8041C48.9062 21.8041 49.1929 22.0908 49.1929 22.4434C49.1929 22.796 48.9095 23.0828 48.5536 23.0828Z" fill="#F1DFC1"/>
<path d="M50.4433 14.4382C50.7964 14.4382 51.0826 14.152 51.0826 13.7989C51.0826 13.4458 50.7964 13.1595 50.4433 13.1595C50.0902 13.1595 49.8039 13.4458 49.8039 13.7989C49.8039 14.152 50.0902 14.4382 50.4433 14.4382Z" fill="#F1DFC1"/>
<path d="M49.0737 11.3105C49.4268 11.3105 49.713 11.0242 49.713 10.6711C49.713 10.318 49.4268 10.0318 49.0737 10.0318C48.7206 10.0318 48.4343 10.318 48.4343 10.6711C48.4343 11.0242 48.7206 11.3105 49.0737 11.3105Z" fill="#F1DFC1"/>
<path d="M48.9948 49.1054C48.7937 49.1054 48.596 49.0691 48.4147 48.9999C47.7259 48.7363 47.2019 48.0145 47.08 47.1609C46.9613 46.3304 47.1986 45.5197 47.4161 44.9067C47.9105 43.5192 48.6751 42.2109 49.6407 41.0936C49.1826 41.2551 48.7014 41.4924 48.161 41.8253C48.1016 41.8615 48.0225 41.8483 47.9797 41.7956C47.9336 41.7429 47.9368 41.6638 47.9863 41.611C48.7739 40.7706 49.4594 39.6765 49.8978 38.9086C50.4646 37.9133 50.7711 36.918 50.8074 35.9557C50.8304 35.3493 50.7349 34.822 50.5305 34.3902C50.2867 33.8827 49.8813 33.5103 49.4133 33.3653C48.7608 33.1609 47.9599 33.4312 47.4623 34.0178C47.0965 34.4496 46.9152 35.0164 46.9778 35.5338C47.0437 36.0842 47.3898 36.5786 47.8578 36.7994C48.3455 37.0268 48.9651 36.9279 49.3243 36.5654C49.7 36.1897 49.7593 35.5536 49.4561 35.1449C49.2255 34.8319 48.8003 34.7033 48.4905 34.8516C48.3323 34.9274 48.2137 35.0922 48.1774 35.2867C48.1478 35.4514 48.1873 35.603 48.2829 35.7052C48.3356 35.7612 48.3356 35.8502 48.2796 35.9029C48.2236 35.9557 48.1346 35.9557 48.0819 35.8996C47.9204 35.7316 47.8545 35.491 47.9006 35.2372C47.95 34.9571 48.1313 34.7132 48.3686 34.5978C48.7937 34.3935 49.3705 34.5616 49.6803 34.9802C50.0626 35.4943 49.99 36.2951 49.5221 36.7664C49.0804 37.208 48.3323 37.33 47.7391 37.0564C47.1821 36.7994 46.7735 36.216 46.6977 35.5701C46.6252 34.9703 46.8262 34.3375 47.2481 33.8399C47.8149 33.1675 48.7377 32.8643 49.4957 33.1016C50.0362 33.2697 50.5042 33.6981 50.781 34.2749C51.0084 34.7495 51.1106 35.3196 51.0875 35.9722C51.0513 36.9806 50.7316 38.0188 50.1417 39.0536C49.7956 39.66 49.298 40.4641 48.7179 41.1958C49.1892 40.9552 49.6209 40.7904 50.0494 40.6883C50.1087 40.6718 50.1713 40.7014 50.2043 40.7542C50.2339 40.8069 50.2273 40.8761 50.1845 40.9222C49.0837 42.0856 48.2203 43.4995 47.6831 45.0089C47.4755 45.5922 47.2514 46.3601 47.3601 47.1313C47.4656 47.886 47.9204 48.522 48.5169 48.7495C48.8794 48.8879 49.3111 48.8582 49.7 48.6704C50.0889 48.4825 50.3756 48.1595 50.491 47.7871C50.636 47.3224 50.5207 46.8017 50.2043 46.4919C49.8714 46.1657 49.3177 46.1096 48.9651 46.3667C48.7904 46.4952 48.6718 46.716 48.652 46.9566C48.6355 47.1741 48.7014 47.3785 48.8333 47.5136C48.886 47.5696 48.886 47.6586 48.8333 47.7113C48.7772 47.7641 48.6883 47.7641 48.6355 47.708C48.4444 47.5136 48.3488 47.2302 48.3752 46.9303C48.4015 46.6106 48.5597 46.314 48.8003 46.136C49.2617 45.7965 49.967 45.8625 50.3987 46.2876C50.7876 46.6699 50.9326 47.3027 50.7579 47.8662C50.6195 48.3111 50.2801 48.6934 49.822 48.9175C49.5517 49.0395 49.2716 49.1054 48.9948 49.1054Z" fill="#F1DFC1"/>
<path d="M47.2998 36.7003C47.247 36.7003 47.1976 36.6706 47.1745 36.6212C47.0856 36.4301 47.0262 36.229 47.0032 36.0247C46.934 35.4315 47.1383 34.7855 47.5535 34.2945C48.1204 33.6254 49.0432 33.319 49.8012 33.5562C50.1604 33.6683 50.4834 33.8957 50.7602 34.2318C50.8097 34.2912 50.7998 34.3802 50.7405 34.4296C50.6811 34.479 50.5922 34.4691 50.5427 34.4098C50.3021 34.1165 50.0253 33.9221 49.7188 33.8265C49.0663 33.6222 48.2654 33.8924 47.7678 34.479C47.4019 34.9108 47.2207 35.4776 47.2833 35.995C47.3031 36.1697 47.3525 36.3411 47.4316 36.5059C47.4646 36.5751 47.4349 36.6608 47.3657 36.6937C47.3426 36.697 47.3196 36.7003 47.2998 36.7003Z" fill="#F1DFC1"/>
<path d="M49.0143 48.4923C48.8067 48.4923 48.599 48.456 48.4112 48.3868C47.6235 48.0869 47.1588 47.1839 47.0567 46.4687C47.0468 46.3929 47.0995 46.3204 47.1753 46.3106C47.2511 46.2974 47.3236 46.3534 47.3335 46.4292C47.4225 47.0653 47.8312 47.8661 48.5101 48.1265C48.922 48.2847 49.4328 48.2319 49.8481 47.988C50.2172 47.7705 50.4545 47.4311 50.5138 47.029C50.5237 46.9532 50.5962 46.8972 50.672 46.9104C50.7478 46.9203 50.8006 46.9928 50.7907 47.0686C50.7182 47.5563 50.4347 47.9683 49.9898 48.2286C49.6932 48.4033 49.3505 48.4923 49.0143 48.4923Z" fill="#F1DFC1"/>
<path d="M50.9454 44.2541C50.8663 44.2541 50.8036 44.1915 50.8036 44.1124V32.3007C50.8036 32.2216 50.8663 32.159 50.9454 32.159C51.0245 32.159 51.0871 32.2216 51.0871 32.3007V44.1124C51.0871 44.1915 51.0245 44.2541 50.9454 44.2541Z" fill="#F1DFC1"/>
<path d="M48.5535 34.8284C48.2008 34.8284 47.9141 35.1151 47.9141 35.4678C47.9141 35.8204 48.2008 36.1071 48.5535 36.1071C48.9061 36.1071 49.1928 35.8204 49.1928 35.4678C49.1928 35.1151 48.9094 34.8284 48.5535 34.8284Z" fill="#F1DFC1"/>
<path d="M50.4447 44.7517C50.7978 44.7517 51.084 44.4655 51.084 44.1124C51.084 43.7593 50.7978 43.473 50.4447 43.473C50.0915 43.473 49.8053 43.7593 49.8053 44.1124C49.8053 44.4655 50.0915 44.7517 50.4447 44.7517Z" fill="#F1DFC1"/>
<path d="M49.0736 47.8793C49.4267 47.8793 49.713 47.5931 49.713 47.24C49.713 46.8869 49.4267 46.6006 49.0736 46.6006C48.7205 46.6006 48.4343 46.8869 48.4343 47.24C48.4343 47.5931 48.7205 47.8793 49.0736 47.8793Z" fill="#F1DFC1"/>
<path d="M6.96947 24.8951C6.78491 24.8951 6.60695 24.8688 6.43557 24.816C5.89508 24.648 5.42709 24.2195 5.15026 23.6428C4.92286 23.1682 4.82069 22.5981 4.84376 21.9455C4.88002 20.9371 5.19969 19.8989 5.78962 18.8641C6.13566 18.2577 6.63331 17.4535 7.21335 16.7219C6.74536 16.9625 6.31033 17.1273 5.8819 17.2294C5.82257 17.2426 5.75996 17.2162 5.727 17.1635C5.69734 17.1108 5.70393 17.0416 5.74677 16.9954C6.84753 15.8321 7.711 14.4182 8.24819 12.9088C8.45582 12.3255 8.67992 11.5576 8.57116 10.7864C8.46241 10.0317 8.0109 9.39561 7.41439 9.16821C7.05186 9.02979 6.62013 9.05945 6.23124 9.24731C5.84235 9.43516 5.55563 9.75813 5.44028 10.1305C5.29527 10.5952 5.41391 11.1159 5.7303 11.4257C6.06316 11.752 6.61683 11.808 6.96947 11.551C7.14743 11.4224 7.26278 11.2016 7.28256 10.9611C7.29903 10.7435 7.23312 10.5392 7.10129 10.4041C7.04856 10.3481 7.04856 10.2591 7.10129 10.2064C7.15732 10.1536 7.2463 10.1536 7.29904 10.2096C7.49018 10.4041 7.58576 10.6875 7.55939 10.9841C7.53303 11.3038 7.37484 11.6004 7.13096 11.7784C6.66956 12.1178 5.96429 12.0519 5.53256 11.6268C5.14367 11.2445 4.99866 10.6117 5.17333 10.0482C5.31175 9.60324 5.6512 9.22094 6.1093 8.99683C6.5674 8.77273 7.07822 8.73978 7.51325 8.90786C8.20205 9.17152 8.72606 9.89325 8.848 10.7468C8.96664 11.5773 8.72935 12.3881 8.51184 13.0011C8.02078 14.3886 7.25619 15.6969 6.28726 16.8142C6.74536 16.6527 7.22653 16.4154 7.76702 16.0825C7.82634 16.0463 7.90544 16.0595 7.94828 16.1122C7.99442 16.1649 7.99112 16.244 7.94169 16.2967C7.15402 17.1371 6.46852 18.2313 6.0302 18.9992C5.46335 19.9945 5.15685 20.9898 5.1206 21.9521C5.09753 22.5585 5.1931 23.0858 5.39743 23.5175C5.64131 24.0251 6.04668 24.3975 6.51466 24.5425C7.16721 24.7468 7.96805 24.4766 8.4657 23.89C8.83152 23.4582 9.01278 22.8914 8.95016 22.374C8.88425 21.8236 8.53821 21.3292 8.07022 21.1084C7.57917 20.881 6.96288 20.9799 6.60365 21.3424C6.22794 21.7181 6.17192 22.3542 6.47182 22.7628C6.70582 23.0759 7.12766 23.2045 7.43745 23.0562C7.59564 22.9804 7.71429 22.8156 7.75054 22.6211C7.7802 22.4563 7.74066 22.3047 7.64508 22.2026C7.59235 22.1466 7.59235 22.0576 7.64838 22.0048C7.7044 21.9521 7.79339 21.9521 7.84612 22.0081C8.00761 22.1762 8.07352 22.4168 8.02738 22.6706C7.97795 22.9507 7.79668 23.1946 7.55939 23.3099C7.13425 23.5142 6.55751 23.3462 6.24772 22.9276C5.86542 22.4135 5.93792 21.6127 6.40591 21.1414C6.84753 20.6998 7.59564 20.5778 8.18886 20.8514C8.74583 21.1084 9.1545 21.6918 9.2303 22.3377C9.3028 22.9408 9.10177 23.5703 8.67992 24.0679C8.24489 24.5952 7.59235 24.8951 6.96947 24.8951Z" fill="#F1DFC1"/>
<path d="M6.65987 24.437C6.47861 24.437 6.29735 24.4107 6.12598 24.3579C5.76345 24.2459 5.44377 24.0185 5.16694 23.6823C5.1175 23.623 5.12739 23.534 5.18671 23.4846C5.24603 23.4351 5.33502 23.445 5.38445 23.5043C5.62504 23.7977 5.90187 23.9921 6.20837 24.0877C6.86091 24.292 7.66176 24.025 8.1594 23.4351C8.52522 23.0034 8.70649 22.4365 8.64387 21.9191C8.62409 21.7445 8.57466 21.5731 8.49556 21.4083C8.46261 21.3391 8.49227 21.2534 8.56477 21.2204C8.63398 21.1875 8.71967 21.2172 8.75263 21.2864C8.84161 21.4775 8.90093 21.6785 8.924 21.8829C8.9965 22.4827 8.79547 23.1155 8.37362 23.6131C7.9353 24.1371 7.28276 24.437 6.65987 24.437Z" fill="#F1DFC1"/>
<path d="M8.7308 11.6038C8.66159 11.6038 8.60227 11.5544 8.59238 11.4819C8.5034 10.8458 8.09474 10.045 7.41583 9.78462C7.00387 9.62972 6.49304 9.68245 6.07779 9.92303C5.70867 10.1405 5.47139 10.48 5.41206 10.8821C5.40218 10.9579 5.32967 11.0106 5.25387 11.0007C5.17807 10.9908 5.12534 10.9183 5.13522 10.8425C5.20773 10.3548 5.49116 9.94281 5.93607 9.68246C6.42054 9.39903 7.02364 9.33642 7.5147 9.52427C8.30236 9.82418 8.76705 10.7272 8.86922 11.4424C8.8791 11.5182 8.82637 11.5907 8.75057 11.6005C8.74398 11.6038 8.73739 11.6038 8.7308 11.6038Z" fill="#F1DFC1"/>
<path d="M4.97973 25.7521C4.90063 25.7521 4.83801 25.6895 4.83801 25.6104V13.7987C4.83801 13.7196 4.90063 13.657 4.97973 13.657C5.05883 13.657 5.12144 13.7196 5.12144 13.7987V25.6104C5.11814 25.6895 5.05553 25.7521 4.97973 25.7521Z" fill="#F1DFC1"/>
<path d="M7.37288 23.0827C7.72599 23.0827 8.01224 22.7965 8.01224 22.4434C8.01224 22.0902 7.72599 21.804 7.37288 21.804C7.01977 21.804 6.73352 22.0902 6.73352 22.4434C6.73352 22.7965 7.01977 23.0827 7.37288 23.0827Z" fill="#F1DFC1"/>
<path d="M5.47994 14.438C5.83305 14.438 6.1193 14.1518 6.1193 13.7987C6.1193 13.4456 5.83305 13.1593 5.47994 13.1593C5.12683 13.1593 4.84058 13.4456 4.84058 13.7987C4.84058 14.1518 5.12683 14.438 5.47994 14.438Z" fill="#F1DFC1"/>
<path d="M6.85094 11.3106C7.20405 11.3106 7.4903 11.0243 7.4903 10.6712C7.4903 10.3181 7.20405 10.0318 6.85094 10.0318C6.49783 10.0318 6.21158 10.3181 6.21158 10.6712C6.21158 11.0243 6.49783 11.3106 6.85094 11.3106Z" fill="#F1DFC1"/>
<path d="M6.93072 49.1052C6.65388 49.1052 6.37046 49.0393 6.1068 48.9108C5.6487 48.6867 5.30925 48.3044 5.17083 47.8595C4.99616 47.2959 5.14117 46.6631 5.53006 46.2809C5.96509 45.8557 6.66706 45.7898 7.12846 46.1293C7.36904 46.3072 7.53053 46.6038 7.55689 46.9235C7.57996 47.2234 7.48439 47.5068 7.29654 47.7013C7.24381 47.7573 7.15482 47.7573 7.0988 47.7046C7.04277 47.6519 7.04277 47.5629 7.0988 47.5069C7.23062 47.3717 7.29983 47.1674 7.28006 46.9499C7.26028 46.7093 7.14494 46.4885 6.96697 46.3599C6.61763 46.1029 6.06066 46.1622 5.7278 46.4852C5.41141 46.795 5.29607 47.3157 5.43778 47.7804C5.55313 48.1528 5.83985 48.4725 6.22874 48.6636C6.61763 48.8515 7.04936 48.8811 7.41188 48.7427C8.0084 48.5153 8.45991 47.8825 8.56867 47.1245C8.67742 46.3534 8.45331 45.5855 8.24569 45.0021C7.70849 43.4927 6.84503 42.0789 5.74428 40.9155C5.70143 40.8694 5.69484 40.8035 5.7245 40.7474C5.75416 40.6947 5.82008 40.665 5.8794 40.6815C6.30784 40.7837 6.73957 40.9485 7.21085 41.189C6.63081 40.4574 6.13317 39.6533 5.78712 39.0469C5.1972 38.012 4.87751 36.9739 4.84126 35.9654C4.81819 35.3129 4.92036 34.7394 5.14776 34.2681C5.4246 33.6914 5.89258 33.263 6.43307 33.0949C7.18778 32.8576 8.11386 33.1641 8.68072 33.8331C9.10256 34.3308 9.3003 34.9635 9.23109 35.5634C9.15529 36.2093 8.74663 36.7926 8.18966 37.0497C7.59644 37.3232 6.84832 37.2013 6.4067 36.7597C5.93872 36.2884 5.86622 35.4875 6.24851 34.9734C6.55831 34.5582 7.13505 34.3901 7.56019 34.5911C7.79748 34.7032 7.97545 34.9504 8.02818 35.2305C8.07432 35.4843 8.0084 35.7248 7.84691 35.8929C7.79418 35.9489 7.7052 35.9489 7.64917 35.8962C7.59315 35.8435 7.59315 35.7545 7.64588 35.6985C7.74475 35.5963 7.781 35.4447 7.75134 35.2799C7.71508 35.0855 7.59644 34.9207 7.43825 34.8449C7.12846 34.6966 6.70332 34.8284 6.47262 35.1415C6.16942 35.5469 6.22874 36.1862 6.60445 36.5619C6.96367 36.9245 7.57996 37.0233 8.07102 36.7959C8.5423 36.5784 8.88834 36.0808 8.95096 35.5304C9.01028 35.013 8.82902 34.4461 8.4665 34.0144C7.97215 33.4278 7.168 33.1608 6.51546 33.3618C6.05077 33.5068 5.64211 33.8793 5.39823 34.3868C5.1906 34.8185 5.09833 35.3458 5.12139 35.9522C5.15765 36.9146 5.46414 37.9099 6.031 38.9051C6.46932 39.673 7.15482 40.7672 7.94249 41.6076C7.99192 41.6603 7.99192 41.7394 7.94908 41.7922C7.90624 41.8449 7.82714 41.8581 7.76782 41.8218C7.22733 41.489 6.74616 41.2517 6.28806 41.0902C7.25369 42.2074 8.01829 43.5158 8.51264 44.9033C8.73015 45.5163 8.96744 46.327 8.8488 47.1575C8.72686 48.0144 8.20284 48.7361 7.51405 48.9965C7.32949 49.069 7.13175 49.1052 6.93072 49.1052Z" fill="#F1DFC1"/>
<path d="M8.62416 36.7003C8.60438 36.7003 8.58461 36.697 8.56483 36.6871C8.49562 36.6541 8.46596 36.5717 8.49563 36.4992C8.57143 36.3345 8.62086 36.1631 8.64393 35.9884C8.70655 35.471 8.52199 34.9041 8.15947 34.4724C7.66512 33.8858 6.86097 33.6188 6.20843 33.8199C5.90193 33.9154 5.6218 34.1132 5.38451 34.4032C5.33508 34.4625 5.24609 34.4724 5.18677 34.423C5.12745 34.3735 5.11756 34.2845 5.167 34.2252C5.44054 33.8891 5.76352 33.6617 6.12604 33.5496C6.88404 33.3123 7.80683 33.6188 8.37368 34.2878C8.78894 34.7789 8.99327 35.4248 8.92406 36.0181C8.90099 36.2224 8.84167 36.4234 8.75269 36.6146C8.72632 36.6706 8.67689 36.7003 8.62416 36.7003Z" fill="#F1DFC1"/>
<path d="M6.91165 48.4922C6.57549 48.4922 6.23275 48.4033 5.93614 48.2286C5.49122 47.9682 5.20449 47.5563 5.13529 47.0685C5.1254 46.9927 5.17813 46.9202 5.25393 46.9103C5.32973 46.8971 5.40224 46.9532 5.41213 47.029C5.47145 47.431 5.70873 47.7705 6.07785 47.988C6.48981 48.2286 7.00393 48.2813 7.41589 48.1264C8.0948 47.8661 8.50346 47.0652 8.59244 46.4291C8.60233 46.3533 8.67813 46.3006 8.75063 46.3105C8.82643 46.3204 8.87917 46.3929 8.86928 46.4687C8.76711 47.1838 8.30242 48.0869 7.51476 48.3868C7.32691 48.4593 7.11928 48.4922 6.91165 48.4922Z" fill="#F1DFC1"/>
<path d="M4.97973 44.254C4.90063 44.254 4.83801 44.1914 4.83801 44.1123V32.3006C4.83801 32.2215 4.90063 32.1589 4.97973 32.1589C5.05883 32.1589 5.12144 32.2215 5.12144 32.3006V44.1123C5.11814 44.1914 5.05553 44.254 4.97973 44.254Z" fill="#F1DFC1"/>
<path d="M7.37294 36.1071C7.72605 36.1071 8.0123 35.8209 8.0123 35.4678C8.0123 35.1147 7.72605 34.8284 7.37294 34.8284C7.01983 34.8284 6.73358 35.1147 6.73358 35.4678C6.73358 35.8209 7.01983 36.1071 7.37294 36.1071Z" fill="#F1DFC1"/>
<path d="M5.48 44.7516C5.83311 44.7516 6.11936 44.4654 6.11936 44.1123C6.11936 43.7592 5.83311 43.4729 5.48 43.4729C5.12689 43.4729 4.84064 43.7592 4.84064 44.1123C4.84064 44.4654 5.12689 44.7516 5.48 44.7516Z" fill="#F1DFC1"/>
<path d="M6.851 47.8794C7.20411 47.8794 7.49036 47.5931 7.49036 47.24C7.49036 46.8869 7.20411 46.6007 6.851 46.6007C6.49789 46.6007 6.21164 46.8869 6.21164 47.24C6.21164 47.5931 6.49789 47.8794 6.851 47.8794Z" fill="#F1DFC1"/>
<path d="M51.6237 52.7569H4.3012C4.2221 52.7569 4.15948 52.6943 4.15948 52.6152V5.29268C4.15948 5.21359 4.2221 5.15097 4.3012 5.15097H51.6237C51.7028 5.15097 51.7654 5.21359 51.7654 5.29268V52.6152C51.7654 52.6943 51.7028 52.7569 51.6237 52.7569ZM4.43961 52.4768H51.482V5.43439H4.43961V52.4768Z" fill="#F1DFC1"/>
<path d="M39.7886 34.1298C40.1248 34.1298 40.395 34.4033 40.395 34.7362C40.395 35.0724 40.1215 35.3426 39.7886 35.3426H38.7901H38.7868H38.7835H38.2693H36.0217H34.8056H29.8094H29.8061H29.8028H20.5288H19.3127H17.065H16.5509H16.5476H16.5443H15.5457C15.2095 35.3426 14.9393 35.0724 14.9393 34.7362C14.9393 34.4 15.2128 34.1298 15.5457 34.1298H15.7138L15.2293 32.627C15.1272 32.3073 15.3018 31.9645 15.6215 31.8624C15.9412 31.7602 16.2839 31.9349 16.3861 32.2545L16.9134 33.8892L26.952 19.3157L25.8084 17.3021C25.6436 17.0121 25.7458 16.6397 26.0358 16.4749C26.3258 16.3101 26.6982 16.4123 26.863 16.7023L27.6672 18.1194L28.4713 16.7023C28.6361 16.4123 29.0085 16.3101 29.2985 16.4749C29.5886 16.6397 29.6907 17.0121 29.5259 17.3021L28.3823 19.3157L38.4209 33.8892L38.9483 32.2545C39.0504 31.9349 39.3932 31.7602 39.7128 31.8624C40.0325 31.9645 40.2072 32.3073 40.105 32.627L39.6206 34.1298H39.7886ZM37.1093 34.1298L36.0184 32.5446V34.1298H37.1093ZM34.8023 34.1298V30.7814L28.2736 21.2997V25.2875L30.2905 34.1298H34.8023ZM29.0415 34.1298L27.6639 28.0888L26.2863 34.1298H29.0415ZM27.0575 25.2842V21.2964L20.5255 30.7781V34.1265H25.0405L27.0575 25.2842ZM19.3127 34.1298V32.5446L18.2218 34.1298H19.3127Z" fill="#E9A39B"/>
<path d="M34.8019 30.7813V34.1297H30.2869L28.2732 25.2842V21.2997L34.8019 30.7813Z" fill="#F1DFC1"/>
<path d="M27.0572 21.2997V25.2842L25.0403 34.1297H20.5252V30.7813L27.0572 21.2997Z" fill="#F1DFC1"/>
</svg>
