<svg width="66" height="67" viewBox="0 0 66 67" fill="none" xmlns="http://www.w3.org/2000/svg">
<g filter="url(#filter0_d_1039_39980)">
<path d="M5 52.7128C5.06591 52.6996 5.13512 52.693 5.20433 52.693C5.74482 52.693 6.18643 53.0819 6.18643 53.5598C6.18643 54.0377 5.74812 54.4266 5.20433 54.4266C5.13512 54.4266 5.06591 54.42 5 54.4068V55.7283C5.06591 55.7152 5.13512 55.7086 5.20433 55.7086C5.74482 55.7086 6.18643 56.0975 6.18643 56.5753C6.18643 57.0532 5.74812 57.4421 5.20433 57.4421C5.13512 57.4421 5.06591 57.4355 5 57.4223V58.7439C5.06591 58.7307 5.13512 58.7241 5.20433 58.7241C5.74482 58.7241 6.18643 59.113 6.18643 59.5909C6.18643 60.0687 5.74812 60.4576 5.20433 60.4576C5.13512 60.4576 5.06591 60.451 5 60.4379V61.944H7.62994C7.59698 61.8583 7.57722 61.7693 7.57722 61.6737C7.57722 61.1959 8.01553 60.807 8.55932 60.807C9.1031 60.807 9.54142 61.1959 9.54142 61.6737C9.54142 61.7693 9.51836 61.8583 9.4887 61.944H11.1596C11.1266 61.8583 11.1069 61.7693 11.1069 61.6737C11.1069 61.1959 11.5452 60.807 12.089 60.807C12.6328 60.807 13.0711 61.1959 13.0711 61.6737C13.0711 61.7693 13.048 61.8583 13.0184 61.944H14.6893C14.6563 61.8583 14.6365 61.7693 14.6365 61.6737C14.6365 61.1959 15.0749 60.807 15.6186 60.807C16.1591 60.807 16.6008 61.1959 16.6008 61.6737C16.6008 61.7693 16.5777 61.8583 16.548 61.944H18.2189C18.186 61.8583 18.1662 61.7693 18.1662 61.6737C18.1662 61.1959 18.6045 60.807 19.1483 60.807C19.6888 60.807 20.1304 61.1959 20.1304 61.6737C20.1304 61.7693 20.1073 61.8583 20.0777 61.944H21.7486C21.7156 61.8583 21.6959 61.7693 21.6959 61.6737C21.6959 61.1959 22.1342 60.807 22.678 60.807C23.2185 60.807 23.6601 61.1959 23.6601 61.6737C23.6601 61.7693 23.637 61.8583 23.6073 61.944H25.2782C25.2453 61.8583 25.2255 61.7693 25.2255 61.6737C25.2255 61.1959 25.6638 60.807 26.2076 60.807C26.7481 60.807 27.1897 61.1959 27.1897 61.6737C27.1897 61.7693 27.1667 61.8583 27.137 61.944H28.8079C28.775 61.8583 28.7552 61.7693 28.7552 61.6737C28.7552 61.1959 29.1935 60.807 29.7373 60.807C30.2778 60.807 30.7194 61.1959 30.7194 61.6737C30.7194 61.7693 30.6963 61.8583 30.6667 61.944H32.3376C32.3046 61.8583 32.2848 61.7693 32.2848 61.6737C32.2848 61.1959 32.7232 60.807 33.2669 60.807C33.8107 60.807 34.2491 61.1959 34.2491 61.6737C34.2491 61.7693 34.226 61.8583 34.1963 61.944H35.8672C35.8343 61.8583 35.8145 61.7693 35.8145 61.6737C35.8145 61.1959 36.2528 60.807 36.7966 60.807C37.3371 60.807 37.7787 61.1959 37.7787 61.6737C37.7787 61.7693 37.7556 61.8583 37.726 61.944H39.3969C39.3639 61.8583 39.3442 61.7693 39.3442 61.6737C39.3442 61.1959 39.7825 60.807 40.3263 60.807C40.8668 60.807 41.3084 61.1959 41.3084 61.6737C41.3084 61.7693 41.2853 61.8583 41.2557 61.944H42.9266C42.8936 61.8583 42.8738 61.7693 42.8738 61.6737C42.8738 61.1959 43.3121 60.807 43.8559 60.807C44.3964 60.807 44.838 61.1959 44.838 61.6737C44.838 61.7693 44.815 61.8583 44.7853 61.944H46.4562C46.4233 61.8583 46.4035 61.7693 46.4035 61.6737C46.4035 61.1959 46.8418 60.807 47.3856 60.807C47.9294 60.807 48.3677 61.1959 48.3677 61.6737C48.3677 61.7693 48.3446 61.8583 48.315 61.944H49.9859C49.9529 61.8583 49.9331 61.7693 49.9331 61.6737C49.9331 61.1959 50.3715 60.807 50.9153 60.807C51.4558 60.807 51.8974 61.1959 51.8974 61.6737C51.8974 61.7693 51.8743 61.8583 51.8446 61.944H53.5155C53.4826 61.8583 53.4628 61.7693 53.4628 61.6737C53.4628 61.1959 53.9011 60.807 54.4449 60.807C54.9854 60.807 55.427 61.1959 55.427 61.6737C55.427 61.7693 55.404 61.8583 55.3743 61.944H57.0452C57.0122 61.8583 56.9925 61.7693 56.9925 61.6737C56.9925 61.1959 57.4308 60.807 57.9746 60.807C58.5151 60.807 58.9567 61.1959 58.9567 61.6737C58.9567 61.7693 58.9336 61.8583 58.904 61.944H61V60.4576C60.4595 60.4576 60.0179 60.0687 60.0179 59.5909C60.0179 59.113 60.4562 58.7241 61 58.7241V57.4421C60.4595 57.4421 60.0179 57.0532 60.0179 56.5753C60.0179 56.0975 60.4562 55.7086 61 55.7086V54.4266C60.4595 54.4266 60.0179 54.0377 60.0179 53.5598C60.0179 53.0819 60.4562 52.693 61 52.693V52.6832V51.4011C60.4595 51.4011 60.0179 51.0122 60.0179 50.5344C60.0179 50.0565 60.4562 49.6676 61 49.6676V48.3856C60.4595 48.3856 60.0179 47.9967 60.0179 47.5188C60.0179 47.041 60.4562 46.6521 61 46.6521V45.3701C60.4595 45.3701 60.0179 44.9812 60.0179 44.5033C60.0179 44.0254 60.4562 43.6365 61 43.6365V42.3545C60.4595 42.3545 60.0179 41.9656 60.0179 41.4878C60.0179 41.0099 60.4562 40.621 61 40.621V39.339C60.4595 39.339 60.0179 38.9501 60.0179 38.4722C60.0179 37.9943 60.4562 37.6055 61 37.6055V36.3234C60.4595 36.3234 60.0179 35.9346 60.0179 35.4567C60.0179 34.9788 60.4562 34.5899 61 34.5899V33.3079C60.4595 33.3079 60.0179 32.919 60.0179 32.4411C60.0179 31.9633 60.4562 31.5744 61 31.5744V30.2891C60.4595 30.2891 60.0179 29.9002 60.0179 29.4223C60.0179 28.9444 60.4562 28.5556 61 28.5556V27.2735C60.4595 27.2735 60.0179 26.8847 60.0179 26.4068C60.0179 25.9289 60.4562 25.54 61 25.54V24.258C60.4595 24.258 60.0179 23.8691 60.0179 23.3912C60.0179 22.9134 60.4562 22.5245 61 22.5245V21.2425C60.4595 21.2425 60.0179 20.8536 60.0179 20.3757C60.0179 19.8978 60.4562 19.5089 61 19.5089V18.2269C60.4595 18.2269 60.0179 17.838 60.0179 17.3602C60.0179 16.8823 60.4562 16.4934 61 16.4934V15.2114C60.4595 15.2114 60.0179 14.8225 60.0179 14.3446C60.0179 13.8668 60.4562 13.4779 61 13.4779V12.1959C60.4595 12.1959 60.0179 11.807 60.0179 11.3291C60.0179 10.8512 60.4562 10.4623 61 10.4623V9.18032C60.4595 9.18032 60.0179 8.79143 60.0179 8.31356C60.0179 7.83569 60.4562 7.4468 61 7.4468V5.96045H58.9567C58.9567 6.43832 58.5184 6.82721 57.9746 6.82721C57.4341 6.82721 56.9925 6.43832 56.9925 5.96045H55.4303C55.4303 6.43832 54.992 6.82721 54.4482 6.82721C53.9077 6.82721 53.4661 6.43832 53.4661 5.96045H51.904C51.904 6.43832 51.4656 6.82721 50.9218 6.82721C50.3814 6.82721 49.9397 6.43832 49.9397 5.96045H48.3776C48.3776 6.43832 47.9393 6.82721 47.3955 6.82721C46.8517 6.82721 46.4134 6.43832 46.4134 5.96045H44.8512C44.8512 6.43832 44.4129 6.82721 43.8691 6.82721C43.3286 6.82721 42.887 6.43832 42.887 5.96045H41.3249C41.3249 6.43832 40.8865 6.82721 40.3428 6.82721C39.8023 6.82721 39.3606 6.43832 39.3606 5.96045H37.7985C37.7985 6.43832 37.3602 6.82721 36.8164 6.82721C36.2759 6.82721 35.8343 6.43832 35.8343 5.96045H34.2721C34.2721 6.43832 33.8338 6.82721 33.29 6.82721C32.7462 6.82721 32.3079 6.43832 32.3079 5.96045H30.7458C30.7458 6.43832 30.3074 6.82721 29.7637 6.82721C29.2232 6.82721 28.7815 6.43832 28.7815 5.96045H27.2194C27.2194 6.43832 26.7811 6.82721 26.2373 6.82721C25.6968 6.82721 25.2552 6.43832 25.2552 5.96045H23.693C23.693 6.43832 23.2547 6.82721 22.7109 6.82721C22.1704 6.82721 21.7288 6.43832 21.7288 5.96045H20.1667C20.1667 6.43832 19.7283 6.82721 19.1846 6.82721C18.6441 6.82721 18.2024 6.43832 18.2024 5.96045H16.6403C16.6403 6.43832 16.202 6.82721 15.6582 6.82721C15.1177 6.82721 14.6761 6.43832 14.6761 5.96045H13.1139C13.1139 6.43832 12.6756 6.82721 12.1318 6.82721C11.588 6.82721 11.1497 6.43832 11.1497 5.96045H9.58757C9.58757 6.43832 9.14925 6.82721 8.60546 6.82721C8.06168 6.82721 7.62334 6.43832 7.62334 5.96045H5.04942V7.46657C5.11534 7.45339 5.18454 7.4468 5.25375 7.4468C5.79424 7.4468 6.23588 7.83569 6.23588 8.31356C6.23588 8.79143 5.79754 9.18032 5.25375 9.18032C5.18454 9.18032 5.11534 9.17373 5.04942 9.16055V10.4821C5.11534 10.4689 5.18454 10.4623 5.25375 10.4623C5.79424 10.4623 6.23588 10.8512 6.23588 11.3291C6.23588 11.807 5.79754 12.1959 5.25375 12.1959C5.18454 12.1959 5.11534 12.1893 5.04942 12.1761V13.4976C5.11534 13.4845 5.18454 13.4779 5.25375 13.4779C5.79424 13.4779 6.23588 13.8668 6.23588 14.3446C6.23588 14.8225 5.79754 15.2114 5.25375 15.2114C5.18454 15.2114 5.11534 15.2048 5.04942 15.1916V16.5132C5.11534 16.5 5.18454 16.4934 5.25375 16.4934C5.79424 16.4934 6.23588 16.8823 6.23588 17.3602C6.23588 17.838 5.79754 18.2269 5.25375 18.2269C5.18454 18.2269 5.11534 18.2203 5.04942 18.2072V19.5287C5.11534 19.5155 5.18454 19.5089 5.25375 19.5089C5.79424 19.5089 6.23588 19.8978 6.23588 20.3757C6.23588 20.8536 5.79754 21.2425 5.25375 21.2425C5.18454 21.2425 5.11534 21.2359 5.04942 21.2227V22.5443C5.11534 22.5311 5.18454 22.5245 5.25375 22.5245C5.79424 22.5245 6.23588 22.9134 6.23588 23.3912C6.23588 23.8691 5.79754 24.258 5.25375 24.258C5.18454 24.258 5.11534 24.2514 5.04942 24.2382V25.5598C5.11534 25.5466 5.18454 25.54 5.25375 25.54C5.79424 25.54 6.23588 25.9289 6.23588 26.4068C6.23588 26.8847 5.79754 27.2735 5.25375 27.2735C5.18454 27.2735 5.11534 27.267 5.04942 27.2538V28.5753C5.11534 28.5621 5.18454 28.5556 5.25375 28.5556C5.79424 28.5556 6.23588 28.9444 6.23588 29.4223C6.23588 29.9002 5.79754 30.2891 5.25375 30.2891C5.18454 30.2891 5.11534 30.2825 5.04942 30.2693V31.5909C5.11534 31.5777 5.18454 31.5711 5.25375 31.5711C5.79424 31.5711 6.23588 31.96 6.23588 32.4379C6.23588 32.9157 5.79754 33.3046 5.25375 33.3046C5.18454 33.3046 5.11534 33.298 5.04942 33.2848V34.6064C5.11534 34.5932 5.18454 34.5866 5.25375 34.5866C5.79424 34.5866 6.23588 34.9755 6.23588 35.4534C6.23588 35.9313 5.79754 36.3201 5.25375 36.3201C5.18454 36.3201 5.11534 36.3136 5.04942 36.3004V37.6219C5.11534 37.6088 5.18454 37.6022 5.25375 37.6022C5.79424 37.6022 6.23588 37.9911 6.23588 38.4689C6.23588 38.9468 5.79754 39.3357 5.25375 39.3357C5.18454 39.3357 5.11534 39.3291 5.04942 39.3159V40.6375C5.11534 40.6243 5.18454 40.6177 5.25375 40.6177C5.79424 40.6177 6.23588 41.0066 6.23588 41.4845C6.23588 41.9623 5.79754 42.3512 5.25375 42.3512C5.18454 42.3512 5.11534 42.3446 5.04942 42.3315V43.653C5.11534 43.6398 5.18454 43.6332 5.25375 43.6332C5.79424 43.6332 6.23588 44.0221 6.23588 44.5C6.23588 44.9779 5.79754 45.3668 5.25375 45.3668C5.18454 45.3668 5.11534 45.3602 5.04942 45.347V46.6686C5.11534 46.6554 5.18454 46.6488 5.25375 46.6488C5.79424 46.6488 6.23588 47.0377 6.23588 47.5155C6.23588 47.9934 5.79754 48.3823 5.25375 48.3823C5.18454 48.3823 5.11534 48.3757 5.04942 48.3625V49.6841C5.11534 49.6709 5.18454 49.6643 5.25375 49.6643C5.79424 49.6643 6.23588 50.0532 6.23588 50.5311C6.23588 51.0089 5.79754 51.3978 5.25375 51.3978C5.18454 51.3978 5.11534 51.3912 5.04942 51.3781V52.6996C5.11534 52.6864 5.18454 52.6799 5.25375 52.6799" fill="#A98B83"/>
<path d="M57.4152 13.8107V53.0259C55.0093 53.1709 53.0979 55.1747 53.0979 57.6135C53.0979 57.8738 53.1209 58.1375 53.1704 58.4044H12.7556C12.805 58.1375 12.8281 57.8738 12.8281 57.6135C12.8281 55.1747 10.9166 53.1709 8.51074 53.0259V13.8107C10.8243 13.669 12.6798 11.8136 12.8182 9.5H53.1044C53.2461 11.8136 55.1016 13.669 57.4152 13.8107Z" fill="white"/>
<path d="M57.4152 13.8107V53.0259C55.0093 53.1709 53.0979 55.1747 53.0979 57.6135C53.0979 57.8738 53.1209 58.1375 53.1704 58.4044H12.7556C12.805 58.1375 12.8281 57.8738 12.8281 57.6135C12.8281 55.1747 10.9166 53.1709 8.51074 53.0259V13.8107C10.8243 13.669 12.6798 11.8136 12.8182 9.5H53.1044C53.2461 11.8136 55.1016 13.669 57.4152 13.8107Z" fill="#AB8C85"/>
<path d="M57.694 13.2573C55.4662 13.2573 53.6569 11.4479 53.6569 9.22008C53.6569 9.06518 53.5316 8.93994 53.3767 8.93994H12.5467C12.3918 8.93994 12.2665 9.06518 12.2665 9.22008C12.2665 11.4479 10.4539 13.2573 8.22934 13.2573C8.07445 13.2573 7.94922 13.3825 7.94922 13.5374V53.2996C7.94922 53.4512 8.07445 53.5798 8.22934 53.5798C10.4539 53.5798 12.2665 55.3891 12.2665 57.6137C12.2665 57.9399 12.2204 58.2761 12.1347 58.6156C12.1149 58.7012 12.1314 58.7902 12.1841 58.8561C12.2369 58.9253 12.3193 58.9649 12.4082 58.9649H53.5151C53.6008 58.9649 53.6832 58.9253 53.7359 58.8561C53.7887 58.7902 53.8084 58.7012 53.7854 58.6156C53.6997 58.2761 53.6569 57.9399 53.6569 57.6137C53.6569 55.3891 55.4662 53.5798 57.694 53.5798C57.8489 53.5798 57.9742 53.4512 57.9742 53.2996V13.5374C57.9742 13.3825 57.8489 13.2573 57.694 13.2573ZM57.4139 53.0261C55.0081 53.1711 53.0966 55.1749 53.0966 57.6137C53.0966 57.874 53.1196 58.1377 53.1691 58.4046H12.7543C12.8037 58.1377 12.8268 57.874 12.8268 57.6137C12.8268 55.1749 10.9153 53.1711 8.50947 53.0261V13.8109C10.823 13.6692 12.6785 11.8138 12.8169 9.50021H53.1032C53.2449 11.8138 55.1003 13.6692 57.4139 13.8109V53.0261Z" fill="#F1DFC1"/>
<path d="M57.3551 13.7614V52.9799C56.1881 53.0551 55.0931 53.5706 54.2917 54.4222C53.4902 55.2738 53.0421 56.398 53.0378 57.5674C53.0377 57.8328 53.062 58.0975 53.1103 58.3584H12.6955C12.7438 58.0975 12.7681 57.8328 12.768 57.5674C12.7648 56.3996 12.3188 55.2764 11.5201 54.4244C10.7213 53.5724 9.62911 53.055 8.46387 52.9766V13.7581C9.57849 13.6806 10.6271 13.2013 11.4151 12.4091C12.203 11.6169 12.6767 10.5657 12.7482 9.45068H53.0444C53.1158 10.5705 53.5929 11.6259 54.3864 12.4194C55.1799 13.2129 56.2353 13.69 57.3551 13.7614Z" fill="white"/>
<path d="M32.9597 12.308C33.3128 12.308 33.599 12.0218 33.599 11.6687C33.599 11.3155 33.3128 11.0293 32.9597 11.0293C32.6066 11.0293 32.3203 11.3155 32.3203 11.6687C32.3203 12.0218 32.6066 12.308 32.9597 12.308Z" fill="#F5CBD9"/>
<path d="M32.9591 14.1999C32.88 14.1999 32.8174 14.1373 32.8174 14.0582V13.0826C32.8174 13.0035 32.88 12.9409 32.9591 12.9409C33.0382 12.9409 33.1008 13.0035 33.1008 13.0826V14.0582C33.1008 14.1373 33.0382 14.1999 32.9591 14.1999Z" fill="#F5CBD9"/>
<path d="M32.9591 16.8854C32.88 16.8854 32.8174 16.8228 32.8174 16.7437V14.6642C32.8174 14.5851 32.88 14.5225 32.9591 14.5225C33.0382 14.5225 33.1008 14.5851 33.1008 14.6642V16.7437C33.1008 16.8228 33.0382 16.8854 32.9591 16.8854Z" fill="#F5CBD9"/>
<path d="M34.1553 13.88C34.1059 13.88 34.0598 13.8537 34.0334 13.8108L33.5457 12.9638C33.5061 12.8979 33.5292 12.8123 33.5984 12.7727C33.6643 12.7332 33.75 12.7562 33.7895 12.8254L34.2773 13.6724C34.3168 13.7383 34.2938 13.824 34.2246 13.8636C34.2048 13.8735 34.1817 13.88 34.1553 13.88Z" fill="#F5CBD9"/>
<path d="M35.4997 16.2036C35.4502 16.2036 35.4041 16.1772 35.3777 16.1344L34.3396 14.3349C34.3 14.269 34.3231 14.1833 34.3923 14.1438C34.4583 14.1043 34.5439 14.1273 34.5835 14.1965L35.6216 15.996C35.6612 16.0619 35.6381 16.1476 35.5689 16.1871C35.5458 16.2003 35.5227 16.2036 35.4997 16.2036Z" fill="#F5CBD9"/>
<path d="M35.0326 13.0034C35.0095 13.0034 34.9831 12.9968 34.9633 12.9836L34.1196 12.4959C34.0537 12.4563 34.0307 12.3706 34.0669 12.3047C34.1065 12.2388 34.1921 12.2157 34.2581 12.252L35.1018 12.7397C35.1677 12.7793 35.1907 12.865 35.1545 12.9309C35.1281 12.977 35.082 13.0034 35.0326 13.0034Z" fill="#F5CBD9"/>
<path d="M36.3042 13.7384C36.2811 13.7384 36.2547 13.7318 36.235 13.7186L35.4868 13.2869C35.4209 13.2473 35.3979 13.1616 35.4341 13.0957C35.4737 13.0298 35.5593 13.0067 35.6253 13.043L36.3734 13.4747C36.4393 13.5143 36.4624 13.6 36.4261 13.6659C36.3997 13.712 36.3536 13.7384 36.3042 13.7384Z" fill="#F5CBD9"/>
<path d="M35.3506 11.8069H34.3751C34.296 11.8069 34.2334 11.7442 34.2334 11.6651C34.2334 11.5861 34.296 11.5234 34.3751 11.5234H35.3506C35.4297 11.5234 35.4923 11.5861 35.4923 11.6651C35.4923 11.7442 35.4297 11.8069 35.3506 11.8069Z" fill="#F5CBD9"/>
<path d="M37.8686 11.8069H35.9571C35.878 11.8069 35.8154 11.7442 35.8154 11.6651C35.8154 11.5861 35.878 11.5234 35.9571 11.5234H37.8686C37.9477 11.5234 38.0103 11.5861 38.0103 11.6651C38.0103 11.7442 37.9477 11.8069 37.8686 11.8069Z" fill="#F5CBD9"/>
<path d="M31.545 11.8069H30.5694C30.4903 11.8069 30.4277 11.7442 30.4277 11.6651C30.4277 11.5861 30.4903 11.5234 30.5694 11.5234H31.545C31.6241 11.5234 31.6867 11.5861 31.6867 11.6651C31.6834 11.7442 31.6208 11.8069 31.545 11.8069Z" fill="#F5CBD9"/>
<path d="M29.9624 11.8069H28.0509C27.9718 11.8069 27.9092 11.7442 27.9092 11.6651C27.9092 11.5861 27.9718 11.5234 28.0509 11.5234H29.9624C30.0415 11.5234 30.1041 11.5861 30.1041 11.6651C30.1008 11.7442 30.0382 11.8069 29.9624 11.8069Z" fill="#F5CBD9"/>
<path d="M30.8883 13.0032C30.8389 13.0032 30.7927 12.9769 30.7664 12.934C30.7268 12.8681 30.7499 12.7824 30.8191 12.7429L31.6628 12.2551C31.7287 12.2156 31.8144 12.2386 31.8539 12.3079C31.8935 12.3738 31.8704 12.4595 31.8012 12.499L30.9575 12.9868C30.9344 12.9967 30.9114 13.0032 30.8883 13.0032Z" fill="#F5CBD9"/>
<path d="M29.6627 13.7119C29.6133 13.7119 29.5671 13.6855 29.5408 13.6427C29.5012 13.5767 29.5243 13.4911 29.5935 13.4515L30.2955 13.0461C30.3614 13.0066 30.4471 13.0297 30.4866 13.0989C30.5262 13.1648 30.5031 13.2505 30.4339 13.29L29.7319 13.6954C29.7089 13.7053 29.6858 13.7119 29.6627 13.7119Z" fill="#F5CBD9"/>
<path d="M31.765 13.8797C31.742 13.8797 31.7156 13.8731 31.6958 13.8599C31.6299 13.8204 31.6068 13.7347 31.6431 13.6688L32.1309 12.8218C32.1704 12.7559 32.2561 12.7328 32.322 12.7691C32.3879 12.8086 32.411 12.8943 32.3747 12.9602L31.887 13.8072C31.8606 13.8533 31.8112 13.8797 31.765 13.8797Z" fill="#F5CBD9"/>
<path d="M30.4213 16.2033C30.3982 16.2033 30.3719 16.1967 30.3521 16.1835C30.2862 16.1439 30.2631 16.0582 30.2993 15.9923L31.3408 14.1929C31.3803 14.127 31.466 14.1039 31.5319 14.1402C31.5979 14.1797 31.6209 14.2654 31.5847 14.3313L30.5432 16.1308C30.5169 16.1802 30.4707 16.2033 30.4213 16.2033Z" fill="#F5CBD9"/>
<path d="M32.9597 56.8749C33.3128 56.8749 33.599 56.5887 33.599 56.2356C33.599 55.8824 33.3128 55.5962 32.9597 55.5962C32.6066 55.5962 32.3203 55.8824 32.3203 56.2356C32.3203 56.5887 32.6066 56.8749 32.9597 56.8749Z" fill="#F5CBD9"/>
<path d="M32.9591 54.9601C32.88 54.9601 32.8174 54.8975 32.8174 54.8184V53.8429C32.8174 53.7638 32.88 53.7012 32.9591 53.7012C33.0382 53.7012 33.1008 53.7638 33.1008 53.8429V54.8184C33.1008 54.8975 33.0382 54.9601 32.9591 54.9601Z" fill="#F5CBD9"/>
<path d="M32.9591 53.3781C32.88 53.3781 32.8174 53.3155 32.8174 53.2364V51.1568C32.8174 51.0778 32.88 51.0151 32.9591 51.0151C33.0382 51.0151 33.1008 51.0778 33.1008 51.1568V53.2364C33.1008 53.3155 33.0382 53.3781 32.9591 53.3781Z" fill="#F5CBD9"/>
<path d="M32.253 55.1512C32.2036 55.1512 32.1574 55.1248 32.1311 55.082L31.6433 54.2383C31.6038 54.1724 31.6268 54.0867 31.6961 54.0471C31.762 54.0076 31.8476 54.0306 31.8872 54.0999L32.375 54.9435C32.4145 55.0095 32.3914 55.0951 32.3222 55.1347C32.2991 55.1446 32.2761 55.1512 32.253 55.1512Z" fill="#F5CBD9"/>
<path d="M31.4629 53.7803C31.4135 53.7803 31.3674 53.7539 31.341 53.711L30.2996 51.9116C30.26 51.8457 30.2831 51.76 30.3523 51.7205C30.4182 51.6809 30.5039 51.704 30.5435 51.7732L31.5849 53.5726C31.6244 53.6385 31.6014 53.7242 31.5322 53.7638C31.5091 53.7737 31.486 53.7803 31.4629 53.7803Z" fill="#F5CBD9"/>
<path d="M31.7318 55.6689C31.7087 55.6689 31.6823 55.6623 31.6626 55.6491L30.8189 55.1614C30.753 55.1218 30.7299 55.0362 30.7661 54.9702C30.8057 54.9043 30.8914 54.8813 30.9573 54.9175L31.801 55.4053C31.8669 55.4448 31.89 55.5305 31.8537 55.5964C31.8273 55.6426 31.7812 55.6689 31.7318 55.6689Z" fill="#F5CBD9"/>
<path d="M30.3657 54.878C30.3426 54.878 30.3163 54.8714 30.2965 54.8583L29.5484 54.4265C29.4824 54.387 29.4594 54.3013 29.4956 54.2354C29.5352 54.1695 29.6209 54.1464 29.6868 54.1826L30.4349 54.6144C30.5008 54.6539 30.5239 54.7396 30.4876 54.8055C30.4613 54.8517 30.4118 54.878 30.3657 54.878Z" fill="#F5CBD9"/>
<path d="M31.545 56.3772H30.5694C30.4903 56.3772 30.4277 56.3146 30.4277 56.2355C30.4277 56.1564 30.4903 56.0938 30.5694 56.0938H31.545C31.6241 56.0938 31.6867 56.1564 31.6867 56.2355C31.6834 56.3146 31.6208 56.3772 31.545 56.3772Z" fill="#F5CBD9"/>
<path d="M29.9624 56.3772H28.0509C27.9718 56.3772 27.9092 56.3146 27.9092 56.2355C27.9092 56.1564 27.9718 56.0938 28.0509 56.0938H29.9624C30.0415 56.0938 30.1041 56.1564 30.1041 56.2355C30.1008 56.3146 30.0382 56.3772 29.9624 56.3772Z" fill="#F5CBD9"/>
<path d="M35.3506 56.3772H34.3751C34.296 56.3772 34.2334 56.3146 34.2334 56.2355C34.2334 56.1564 34.296 56.0938 34.3751 56.0938H35.3506C35.4297 56.0938 35.4923 56.1564 35.4923 56.2355C35.4923 56.3146 35.4297 56.3772 35.3506 56.3772Z" fill="#F5CBD9"/>
<path d="M37.8686 56.3772H35.9571C35.878 56.3772 35.8154 56.3146 35.8154 56.2355C35.8154 56.1564 35.878 56.0938 35.9571 56.0938H37.8686C37.9477 56.0938 38.0103 56.1564 38.0103 56.2355C38.0103 56.3146 37.9477 56.3772 37.8686 56.3772Z" fill="#F5CBD9"/>
<path d="M34.1871 55.6688C34.1377 55.6688 34.0916 55.6424 34.0652 55.5996C34.0256 55.5336 34.0487 55.448 34.1179 55.4084L34.9616 54.9207C35.0275 54.8811 35.1132 54.9042 35.1528 54.9734C35.1923 55.0393 35.1692 55.125 35.1 55.1645L34.2563 55.6523C34.2333 55.6622 34.2102 55.6688 34.1871 55.6688Z" fill="#F5CBD9"/>
<path d="M35.5563 54.8779C35.5068 54.8779 35.4607 54.8515 35.4343 54.8087C35.3948 54.7428 35.4179 54.6571 35.4871 54.6175L36.189 54.2122C36.255 54.1726 36.3406 54.1957 36.3802 54.2649C36.4197 54.3308 36.3967 54.4165 36.3275 54.456L35.6255 54.8614C35.6057 54.8713 35.5826 54.8779 35.5563 54.8779Z" fill="#F5CBD9"/>
<path d="M33.6684 55.1513C33.6453 55.1513 33.6189 55.1447 33.5991 55.1316C33.5332 55.092 33.5102 55.0063 33.5464 54.9404L34.0342 54.0967C34.0737 54.0308 34.1594 54.0077 34.2253 54.044C34.2912 54.0835 34.3143 54.1692 34.278 54.2351L33.7903 55.0788C33.7639 55.125 33.7178 55.1513 33.6684 55.1513Z" fill="#F5CBD9"/>
<path d="M34.4584 53.7804C34.4353 53.7804 34.409 53.7738 34.3892 53.7606C34.3233 53.7211 34.3002 53.6354 34.3365 53.5695L35.3746 51.77C35.4141 51.7041 35.4998 51.6811 35.5658 51.7173C35.6317 51.7569 35.6547 51.8426 35.6185 51.9085L34.5803 53.7079C34.554 53.754 34.5078 53.7804 34.4584 53.7804Z" fill="#F5CBD9"/>
<path d="M55.2458 33.311C54.8932 33.311 54.6064 33.5977 54.6064 33.9504C54.6064 34.303 54.8932 34.5897 55.2458 34.5897C55.5984 34.5897 55.8852 34.303 55.8852 33.9504C55.8885 33.5977 55.6017 33.311 55.2458 33.311Z" fill="#F5CBD9"/>
<path d="M53.8301 34.092H52.8546C52.7755 34.092 52.7129 34.0294 52.7129 33.9503C52.7129 33.8712 52.7755 33.8086 52.8546 33.8086H53.8301C53.9092 33.8086 53.9718 33.8712 53.9718 33.9503C53.9685 34.0294 53.9059 34.092 53.8301 34.092Z" fill="#F5CBD9"/>
<path d="M52.2476 34.092H50.1681C50.089 34.092 50.0264 34.0294 50.0264 33.9503C50.0264 33.8712 50.089 33.8086 50.1681 33.8086H52.2476C52.3267 33.8086 52.3894 33.8712 52.3894 33.9503C52.3861 34.0294 52.3234 34.092 52.2476 34.092Z" fill="#F5CBD9"/>
<path d="M53.1735 35.2884C53.124 35.2884 53.0779 35.262 53.0515 35.2192C53.012 35.1533 53.035 35.0676 53.1042 35.028L53.9479 34.5403C54.0138 34.5007 54.0995 34.5238 54.1391 34.593C54.1786 34.6589 54.1556 34.7446 54.0864 34.7842L53.2427 35.2719C53.2196 35.2818 53.1965 35.2884 53.1735 35.2884Z" fill="#F5CBD9"/>
<path d="M50.8483 36.6297C50.7988 36.6297 50.7527 36.6033 50.7263 36.5605C50.6868 36.4945 50.7098 36.4089 50.779 36.3693L52.5785 35.3279C52.6444 35.2883 52.7301 35.3114 52.7696 35.3806C52.8092 35.4465 52.7861 35.5322 52.7169 35.5718L50.9175 36.6132C50.8977 36.6264 50.8713 36.6297 50.8483 36.6297Z" fill="#F5CBD9"/>
<path d="M54.0473 36.1649C54.0242 36.1649 53.9978 36.1583 53.9781 36.1451C53.9121 36.1055 53.8891 36.0199 53.9253 35.9539L54.4131 35.107C54.4526 35.041 54.5383 35.018 54.6042 35.0542C54.6701 35.0938 54.6932 35.1795 54.657 35.2454L54.1692 36.0924C54.1428 36.1385 54.0967 36.1649 54.0473 36.1649Z" fill="#F5CBD9"/>
<path d="M53.3178 37.4371C53.2947 37.4371 53.2683 37.4305 53.2486 37.4173C53.1826 37.3778 53.1596 37.2921 53.1958 37.2262L53.6276 36.4781C53.6671 36.4121 53.7528 36.3891 53.8187 36.4253C53.8846 36.4649 53.9077 36.5506 53.8714 36.6165L53.4397 37.3646C53.4133 37.4107 53.3639 37.4371 53.3178 37.4371Z" fill="#F5CBD9"/>
<path d="M55.2452 36.4845C55.1661 36.4845 55.1035 36.4219 55.1035 36.3428V35.3673C55.1035 35.2882 55.1661 35.2256 55.2452 35.2256C55.3243 35.2256 55.387 35.2882 55.387 35.3673V36.3428C55.387 36.4219 55.3243 36.4845 55.2452 36.4845Z" fill="#F5CBD9"/>
<path d="M55.2452 39.0025C55.1661 39.0025 55.1035 38.9399 55.1035 38.8608V36.9493C55.1035 36.8702 55.1661 36.8076 55.2452 36.8076C55.3243 36.8076 55.387 36.8702 55.387 36.9493V38.8608C55.387 38.9399 55.3243 39.0025 55.2452 39.0025Z" fill="#F5CBD9"/>
<path d="M55.2452 32.675C55.1661 32.675 55.1035 32.6123 55.1035 32.5332V31.5577C55.1035 31.4786 55.1661 31.416 55.2452 31.416C55.3243 31.416 55.387 31.4786 55.387 31.5577V32.5332C55.387 32.6123 55.3243 32.675 55.2452 32.675Z" fill="#F5CBD9"/>
<path d="M55.2452 31.0929C55.1661 31.0929 55.1035 31.0303 55.1035 30.9512V29.0397C55.1035 28.9606 55.1661 28.8979 55.2452 28.8979C55.3243 28.8979 55.387 28.9606 55.387 29.0397V30.9512C55.387 31.0303 55.3243 31.0929 55.2452 31.0929Z" fill="#F5CBD9"/>
<path d="M54.5401 32.8659C54.4907 32.8659 54.4446 32.8395 54.4182 32.7967L53.9304 31.9497C53.8909 31.8838 53.914 31.7981 53.9832 31.7585C54.0491 31.719 54.1347 31.7421 54.1743 31.8113L54.6621 32.6583C54.7016 32.7242 54.6785 32.8099 54.6093 32.8494C54.5863 32.8593 54.5632 32.8659 54.5401 32.8659Z" fill="#F5CBD9"/>
<path d="M53.7468 31.4948C53.6973 31.4948 53.6512 31.4684 53.6248 31.4256L53.2195 30.7236C53.1799 30.6577 53.203 30.572 53.2722 30.5325C53.3381 30.4929 53.4238 30.516 53.4634 30.5852L53.8687 31.2872C53.9083 31.3531 53.8852 31.4388 53.816 31.4783C53.7929 31.4882 53.7699 31.4948 53.7468 31.4948Z" fill="#F5CBD9"/>
<path d="M54.0189 33.3833C53.9958 33.3833 53.9694 33.3767 53.9497 33.3635L53.106 32.8758C53.0401 32.8362 53.017 32.7505 53.0533 32.6846C53.0928 32.6187 53.1785 32.5956 53.2444 32.6319L54.0881 33.1196C54.154 33.1592 54.1771 33.2449 54.1408 33.3108C54.1145 33.3602 54.0683 33.3833 54.0189 33.3833Z" fill="#F5CBD9"/>
<path d="M52.6514 32.5927C52.6283 32.5927 52.6019 32.5861 52.5822 32.5729L50.7827 31.5315C50.7168 31.492 50.6938 31.4063 50.73 31.3404C50.7696 31.2744 50.8552 31.2514 50.9211 31.2876L52.7206 32.3291C52.7865 32.3686 52.8096 32.4543 52.7733 32.5202C52.7469 32.5696 52.6975 32.5927 52.6514 32.5927Z" fill="#F5CBD9"/>
<path d="M10.6775 34.5932C11.0301 34.5932 11.3168 34.3065 11.3168 33.9538C11.3168 33.6012 11.0301 33.3145 10.6775 33.3145C10.3248 33.3145 10.0381 33.6012 10.0381 33.9538C10.0348 34.3065 10.3215 34.5932 10.6775 34.5932Z" fill="#F5CBD9"/>
<path d="M13.0665 34.092H12.0909C12.0118 34.092 11.9492 34.0294 11.9492 33.9503C11.9492 33.8712 12.0118 33.8086 12.0909 33.8086H13.0665C13.1456 33.8086 13.2082 33.8712 13.2082 33.9503C13.2082 34.0294 13.1456 34.092 13.0665 34.092Z" fill="#F5CBD9"/>
<path d="M15.7535 34.092H13.6739C13.5948 34.092 13.5322 34.0294 13.5322 33.9503C13.5322 33.8712 13.5948 33.8086 13.6739 33.8086H15.7535C15.8326 33.8086 15.8952 33.8712 15.8952 33.9503C15.8952 34.0294 15.8326 34.092 15.7535 34.092Z" fill="#F5CBD9"/>
<path d="M11.9039 33.3831C11.8545 33.3831 11.8084 33.3568 11.782 33.3139C11.7424 33.248 11.7655 33.1623 11.8347 33.1228L12.6784 32.635C12.7443 32.5955 12.83 32.6185 12.8696 32.6877C12.9091 32.7537 12.886 32.8393 12.8168 32.8789L11.9731 33.3666C11.95 33.3765 11.927 33.3831 11.9039 33.3831Z" fill="#F5CBD9"/>
<path d="M13.2711 32.5926C13.2217 32.5926 13.1755 32.5662 13.1492 32.5233C13.1096 32.4574 13.1327 32.3718 13.2019 32.3322L15.0046 31.2908C15.0705 31.2512 15.1562 31.2743 15.1958 31.3435C15.2353 31.4094 15.2123 31.4951 15.143 31.5346L13.3403 32.5761C13.3205 32.586 13.2975 32.5926 13.2711 32.5926Z" fill="#F5CBD9"/>
<path d="M11.3832 32.866C11.3601 32.866 11.3338 32.8595 11.314 32.8463C11.2481 32.8067 11.225 32.721 11.2613 32.6551L11.749 31.8081C11.7886 31.7422 11.8743 31.7191 11.9402 31.7554C12.0061 31.7949 12.0291 31.8806 11.9929 31.9465L11.5051 32.7935C11.4788 32.8397 11.4326 32.866 11.3832 32.866Z" fill="#F5CBD9"/>
<path d="M12.1742 31.4947C12.1511 31.4947 12.1248 31.4881 12.105 31.4749C12.0391 31.4354 12.016 31.3497 12.0523 31.2838L12.484 30.5357C12.5236 30.4698 12.6092 30.4467 12.6752 30.4829C12.7411 30.5225 12.7642 30.6082 12.7279 30.6741L12.2962 31.4222C12.2698 31.4716 12.2236 31.4947 12.1742 31.4947Z" fill="#F5CBD9"/>
<path d="M10.6769 32.675C10.5978 32.675 10.5352 32.6123 10.5352 32.5332V31.5577C10.5352 31.4786 10.5978 31.416 10.6769 31.416C10.756 31.416 10.8186 31.4786 10.8186 31.5577V32.5332C10.8153 32.6123 10.7527 32.675 10.6769 32.675Z" fill="#F5CBD9"/>
<path d="M10.6769 31.0929C10.5978 31.0929 10.5352 31.0303 10.5352 30.9512V29.0397C10.5352 28.9606 10.5978 28.8979 10.6769 28.8979C10.756 28.8979 10.8186 28.9606 10.8186 29.0397V30.9512C10.8153 31.0303 10.7527 31.0929 10.6769 31.0929Z" fill="#F5CBD9"/>
<path d="M10.6769 36.4845C10.5978 36.4845 10.5352 36.4219 10.5352 36.3428V35.3673C10.5352 35.2882 10.5978 35.2256 10.6769 35.2256C10.756 35.2256 10.8186 35.2882 10.8186 35.3673V36.3428C10.8153 36.4219 10.7527 36.4845 10.6769 36.4845Z" fill="#F5CBD9"/>
<path d="M10.6769 39.0025C10.5978 39.0025 10.5352 38.9399 10.5352 38.8608V36.9493C10.5352 36.8702 10.5978 36.8076 10.6769 36.8076C10.756 36.8076 10.8186 36.8702 10.8186 36.9493V38.8608C10.8153 38.9399 10.7527 39.0025 10.6769 39.0025Z" fill="#F5CBD9"/>
<path d="M11.8741 36.1652C11.8247 36.1652 11.7785 36.1388 11.7522 36.096L11.2644 35.249C11.2249 35.1831 11.2479 35.0974 11.3171 35.0579C11.383 35.0183 11.4687 35.0414 11.5083 35.1106L11.996 35.9576C12.0356 36.0235 12.0125 36.1092 11.9433 36.1487C11.9202 36.1586 11.8972 36.1652 11.8741 36.1652Z" fill="#F5CBD9"/>
<path d="M12.5788 37.3908C12.5294 37.3908 12.4833 37.3644 12.4569 37.3216L12.0515 36.6196C12.012 36.5537 12.035 36.468 12.1043 36.4285C12.1702 36.3889 12.2559 36.412 12.2954 36.4812L12.7008 37.1832C12.7403 37.2491 12.7172 37.3348 12.648 37.3743C12.6283 37.3842 12.6052 37.3908 12.5788 37.3908Z" fill="#F5CBD9"/>
<path d="M12.7474 35.2886C12.7243 35.2886 12.698 35.282 12.6782 35.2688L11.8345 34.781C11.7686 34.7415 11.7455 34.6558 11.7818 34.5899C11.8213 34.5239 11.907 34.5009 11.9729 34.5371L12.8166 35.0249C12.8825 35.0644 12.9056 35.1501 12.8693 35.216C12.843 35.2622 12.7968 35.2886 12.7474 35.2886Z" fill="#F5CBD9"/>
<path d="M15.0746 36.6298C15.0515 36.6298 15.0252 36.6232 15.0054 36.61L13.2027 35.5686C13.1368 35.5291 13.1137 35.4434 13.1499 35.3775C13.1895 35.3116 13.2752 35.2885 13.3411 35.3247L15.1438 36.3662C15.2097 36.4057 15.2328 36.4914 15.1965 36.5573C15.1702 36.6067 15.124 36.6298 15.0746 36.6298Z" fill="#F5CBD9"/>
<path d="M26.5834 15.2341C26.5043 15.2341 26.4285 15.2308 26.3527 15.2209C25.7067 15.1451 25.1234 14.7365 24.8663 14.1795C24.5928 13.5863 24.7147 12.8382 25.1563 12.3966C25.6243 11.9286 26.4252 11.8561 26.9393 12.2384C27.3546 12.5482 27.5226 13.1249 27.3216 13.55C27.2095 13.7873 26.9624 13.9653 26.6822 14.018C26.4285 14.0642 26.1879 13.9982 26.0198 13.8368C25.9638 13.784 25.9638 13.6951 26.0165 13.639C26.0692 13.583 26.1582 13.583 26.2142 13.6357C26.3164 13.7346 26.4647 13.7709 26.6328 13.7412C26.8272 13.7049 26.992 13.5863 27.0678 13.4281C27.2161 13.1183 27.0843 12.6932 26.7745 12.4625C26.3659 12.1593 25.7298 12.2186 25.3541 12.5943C24.9915 12.9535 24.896 13.5731 25.1201 14.0609C25.3376 14.5322 25.8352 14.8782 26.3823 14.9408C26.8998 15.0034 27.4666 14.8189 27.8983 14.4563C28.485 13.9587 28.7519 13.1579 28.5509 12.5053C28.4059 12.0373 28.0302 11.632 27.5259 11.3881C27.0942 11.1805 26.5669 11.0882 25.9605 11.1112C24.9981 11.1475 24.0028 11.454 23.0075 12.0209C22.2397 12.4592 21.1488 13.1447 20.3051 13.9323C20.2524 13.9785 20.1733 13.9818 20.1206 13.9389C20.0645 13.8928 20.0546 13.817 20.0909 13.7577C20.4238 13.2172 20.661 12.736 20.8225 12.2779C19.7053 13.2435 18.3969 14.0081 17.0094 14.5025C16.3965 14.72 15.5857 14.954 14.7552 14.8386C13.8983 14.7167 13.1766 14.1927 12.9162 13.5039C12.7514 13.0689 12.7844 12.5547 13.0052 12.0999C13.2293 11.6418 13.6116 11.3024 14.0565 11.164C14.6201 10.9893 15.2528 11.1343 15.6351 11.5232C16.0603 11.9582 16.1262 12.6602 15.7867 13.1216C15.6088 13.3622 15.3122 13.5237 14.9925 13.5468C14.6926 13.5731 14.4092 13.4775 14.2147 13.2864C14.1587 13.2337 14.1587 13.1447 14.2114 13.0886C14.2641 13.0326 14.3531 13.0326 14.4092 13.0886C14.5443 13.2205 14.7453 13.2897 14.9661 13.2699C15.2067 13.2501 15.4275 13.1348 15.556 12.9568C15.8131 12.6075 15.7538 12.0505 15.4308 11.7176C15.121 11.4013 14.6003 11.2859 14.1356 11.4276C13.7632 11.543 13.4435 11.8297 13.2524 12.2186C13.0645 12.6075 13.0349 13.0392 13.1733 13.4017C13.4007 13.9983 14.0334 14.4498 14.7915 14.5585C15.5626 14.6673 16.3305 14.4432 16.9139 14.2355C18.4233 13.6984 19.8371 12.8349 21.0005 11.7341C21.0466 11.6913 21.1126 11.6847 21.1686 11.7144C21.2213 11.744 21.2477 11.8066 21.2345 11.8692C21.1323 12.2977 20.9675 12.7294 20.727 13.2007C21.4586 12.6207 22.2627 12.1197 22.8691 11.777C23.904 11.187 24.9421 10.8674 25.9506 10.8311C26.6031 10.8047 27.1766 10.9102 27.6479 11.1376C28.2246 11.4145 28.6497 11.8824 28.8211 12.4229C29.0584 13.1809 28.7519 14.1037 28.0829 14.6706C27.6545 15.0331 27.1074 15.2341 26.5834 15.2341Z" fill="#F1DFC1"/>
<path d="M26.1234 14.9246C26.0443 14.9246 25.9685 14.9213 25.8927 14.9114C25.6883 14.8883 25.4873 14.829 25.2962 14.74C25.227 14.7071 25.1973 14.6247 25.2303 14.5522C25.2632 14.483 25.3456 14.4533 25.4181 14.4862C25.5829 14.562 25.7543 14.6115 25.9289 14.6346C26.4464 14.6939 27.0132 14.5126 27.4449 14.1501C28.0316 13.6557 28.2985 12.8516 28.0975 12.1991C28.0019 11.8926 27.8042 11.6124 27.5109 11.3751C27.4515 11.3257 27.4417 11.2367 27.4911 11.1774C27.5405 11.1181 27.6295 11.1082 27.6888 11.1576C28.025 11.4312 28.2524 11.7541 28.3644 12.1167C28.6017 12.8747 28.2952 13.7975 27.6262 14.3643C27.1945 14.7235 26.6507 14.9246 26.1234 14.9246Z" fill="#F1DFC1"/>
<path d="M15.4685 14.8585C15.4619 14.8585 15.4553 14.8585 15.4487 14.8585C14.7336 14.7563 13.8306 14.2883 13.5307 13.504C13.3461 13.0162 13.4054 12.4098 13.6888 11.9253C13.9492 11.4804 14.3612 11.1937 14.8489 11.1245C14.9247 11.1113 14.9972 11.1673 15.0071 11.2431C15.017 11.3189 14.9643 11.3914 14.8885 11.4013C14.4864 11.4606 14.1469 11.6979 13.9294 12.067C13.6888 12.479 13.6361 12.9931 13.791 13.4018C14.0514 14.0807 14.8522 14.4894 15.4883 14.5783C15.5641 14.5882 15.6168 14.6607 15.6069 14.7365C15.597 14.809 15.5377 14.8585 15.4685 14.8585Z" fill="#F1DFC1"/>
<path d="M29.6155 11.1081H17.8038C17.7247 11.1081 17.6621 11.0455 17.6621 10.9664C17.6621 10.8873 17.7247 10.8247 17.8038 10.8247H29.6155C29.6946 10.8247 29.7572 10.8873 29.7572 10.9664C29.7572 11.0455 29.6946 11.1081 29.6155 11.1081Z" fill="#F1DFC1"/>
<path d="M26.4489 14.0019C26.802 14.0019 27.0883 13.7156 27.0883 13.3625C27.0883 13.0094 26.802 12.7231 26.4489 12.7231C26.0958 12.7231 25.8096 13.0094 25.8096 13.3625C25.8096 13.7156 26.0958 14.0019 26.4489 14.0019Z" fill="#F1DFC1"/>
<path d="M18.4438 11.4709C18.4438 11.8235 18.157 12.1103 17.8044 12.1103C17.4518 12.1103 17.165 11.8235 17.165 11.4709C17.165 11.1183 17.4518 10.8315 17.8044 10.8315C18.157 10.8315 18.4438 11.1183 18.4438 11.4709Z" fill="#F1DFC1"/>
<path d="M14.6735 13.4814C15.0266 13.4814 15.3129 13.1951 15.3129 12.842C15.3129 12.4889 15.0266 12.2026 14.6735 12.2026C14.3204 12.2026 14.0342 12.4889 14.0342 12.842C14.0342 13.1951 14.3204 13.4814 14.6735 13.4814Z" fill="#F1DFC1"/>
<path d="M39.3245 15.2346C38.7972 15.2346 38.2666 15.0369 37.8349 14.6711C37.1626 14.1042 36.8594 13.1814 37.0966 12.4234C37.2647 11.8829 37.6932 11.4149 38.2699 11.1381C38.7445 10.9107 39.3146 10.8052 39.9672 10.8316C40.9757 10.8679 42.0138 11.1875 43.0486 11.7775C43.655 12.1235 44.4592 12.6212 45.1908 13.2012C44.9502 12.7299 44.7854 12.2982 44.6833 11.8697C44.6701 11.8104 44.6965 11.7478 44.7492 11.7148C44.8019 11.6852 44.8711 11.6918 44.9173 11.7346C46.0807 12.8354 47.4945 13.6988 49.0039 14.236C49.5872 14.4437 50.3551 14.6678 51.1263 14.559C51.881 14.4535 52.5171 13.9987 52.7445 13.4022C52.8829 13.0397 52.8533 12.608 52.6654 12.2191C52.4775 11.8302 52.1546 11.5435 51.7821 11.4281C51.3175 11.2831 50.7967 11.3985 50.4869 11.7181C50.1607 12.051 50.1047 12.6047 50.3617 12.9573C50.4902 13.132 50.7111 13.2506 50.9516 13.2704C51.1692 13.2869 51.3735 13.221 51.5086 13.0891C51.5646 13.0364 51.6536 13.0364 51.7064 13.0891C51.7591 13.1452 51.7591 13.2341 51.7031 13.2869C51.5086 13.478 51.2252 13.5736 50.9253 13.5472C50.6056 13.5209 50.309 13.3627 50.131 13.1221C49.7916 12.6607 49.8575 11.9554 50.2826 11.5237C50.6649 11.1348 51.2977 10.9898 51.8613 11.1645C52.3062 11.3029 52.6885 11.6423 52.9126 12.1004C53.1367 12.5585 53.1696 13.0694 53.0015 13.5044C52.7379 14.1932 52.0162 14.7172 51.1626 14.8391C50.3321 14.9578 49.5213 14.7205 48.9083 14.503C47.5209 14.0086 46.2125 13.244 45.0952 12.2784C45.2567 12.7365 45.494 13.2177 45.8269 13.7582C45.8631 13.8175 45.8499 13.8966 45.7972 13.9394C45.7445 13.9823 45.6654 13.9823 45.6127 13.9328C44.7723 13.1452 43.6781 12.4597 42.9102 12.0213C41.9149 11.4545 40.9196 11.148 39.9573 11.1117C39.3476 11.0887 38.8236 11.1842 38.3919 11.3886C37.8843 11.6324 37.5119 12.0378 37.3669 12.5058C37.1626 13.1583 37.4328 13.9592 38.0194 14.4568C38.4512 14.8227 39.0213 15.0039 39.5354 14.9413C40.0858 14.8754 40.5835 14.5293 40.801 14.0614C41.0284 13.5703 40.9295 12.954 40.567 12.5948C40.1913 12.2191 39.5552 12.1631 39.1466 12.463C38.8335 12.6937 38.7049 13.1188 38.8532 13.4286C38.929 13.5868 39.0938 13.7054 39.2883 13.7417C39.4498 13.7713 39.6047 13.7318 39.7068 13.6362C39.7629 13.5835 39.8518 13.5835 39.9046 13.6395C39.9573 13.6955 39.9573 13.7845 39.9013 13.8372C39.7332 13.9987 39.4926 14.0647 39.2388 14.0185C38.9587 13.9691 38.7148 13.7878 38.6028 13.5505C38.3984 13.1254 38.5665 12.5487 38.9851 12.2389C39.4992 11.8566 40.3 11.9291 40.768 12.397C41.2096 12.8387 41.3316 13.5868 41.058 14.18C40.801 14.737 40.2176 15.1456 39.5717 15.2214C39.486 15.2313 39.4069 15.2346 39.3245 15.2346Z" fill="#F1DFC1"/>
<path d="M39.7963 14.9245C39.2723 14.9245 38.7252 14.7234 38.2968 14.3609C37.6245 13.794 37.3213 12.8713 37.5586 12.1133C37.6706 11.754 37.898 11.431 38.2342 11.1542C38.2935 11.1048 38.3825 11.1147 38.4319 11.174C38.4814 11.2333 38.4715 11.3223 38.4121 11.3717C38.1188 11.6123 37.9244 11.8891 37.8288 12.1956C37.6245 12.8482 37.8947 13.649 38.4813 14.1467C38.9131 14.5125 39.4832 14.6938 39.9974 14.6311C40.172 14.6114 40.3434 14.5619 40.5082 14.4828C40.5774 14.4499 40.6631 14.4795 40.696 14.5487C40.729 14.618 40.6993 14.7036 40.6301 14.7366C40.439 14.8256 40.2379 14.8849 40.0336 14.908C39.9512 14.9212 39.8721 14.9245 39.7963 14.9245Z" fill="#F1DFC1"/>
<path d="M50.4492 14.8588C50.38 14.8588 50.3206 14.8094 50.3108 14.7369C50.3009 14.6611 50.3536 14.5886 50.4294 14.5787C51.0655 14.4897 51.8663 14.0811 52.1267 13.4022C52.2849 12.9902 52.2321 12.4794 51.9882 12.0641C51.7707 11.695 51.4313 11.4577 51.0292 11.3984C50.9534 11.3885 50.9007 11.316 50.9106 11.2402C50.9205 11.1644 50.993 11.1084 51.0688 11.1216C51.5565 11.1941 51.9685 11.4775 52.2288 11.9224C52.5123 12.4069 52.5749 13.01 52.387 13.501C52.0871 14.2887 51.1841 14.7534 50.4689 14.8556C50.4624 14.8589 50.4558 14.8588 50.4492 14.8588Z" fill="#F1DFC1"/>
<path d="M48.1136 11.1081H36.3019C36.2228 11.1081 36.1602 11.0455 36.1602 10.9664C36.1602 10.8873 36.2228 10.8247 36.3019 10.8247H48.1136C48.1926 10.8247 48.2553 10.8873 48.2553 10.9664C48.2553 11.0455 48.1926 11.1081 48.1136 11.1081Z" fill="#F1DFC1"/>
<path d="M39.4704 14.0019C39.8235 14.0019 40.1098 13.7156 40.1098 13.3625C40.1098 13.0094 39.8235 12.7231 39.4704 12.7231C39.1173 12.7231 38.8311 13.0094 38.8311 13.3625C38.8311 13.7156 39.1173 14.0019 39.4704 14.0019Z" fill="#F1DFC1"/>
<path d="M47.4756 11.4709C47.4756 11.8235 47.7623 12.1103 48.1149 12.1103C48.4676 12.1103 48.7543 11.8235 48.7543 11.4709C48.7543 11.1183 48.4676 10.8315 48.1149 10.8315C47.7623 10.8315 47.4756 11.1183 47.4756 11.4709Z" fill="#F1DFC1"/>
<path d="M51.2458 13.4814C51.5989 13.4814 51.8851 13.1951 51.8851 12.842C51.8851 12.4889 51.5989 12.2026 51.2458 12.2026C50.8927 12.2026 50.6064 12.4889 50.6064 12.842C50.6064 13.1951 50.8927 13.4814 51.2458 13.4814Z" fill="#F1DFC1"/>
<path d="M26.135 57.0763C26.0724 57.0763 26.0131 57.0763 25.9505 57.073C24.942 57.0368 23.9038 56.7171 22.869 56.1272C22.2626 55.7811 21.4584 55.2835 20.7268 54.7034C20.9674 55.1747 21.1322 55.6064 21.2343 56.0349C21.2475 56.0942 21.2212 56.1568 21.1684 56.1898C21.1157 56.2194 21.0465 56.2128 21.0003 56.17C19.837 55.0692 18.4231 54.2058 16.9137 53.6686C16.3304 53.461 15.5592 53.2369 14.7913 53.3456C14.0366 53.4544 13.4005 53.9059 13.1731 54.5024C13.0347 54.8649 13.0644 55.2966 13.2522 55.6855C13.4401 56.0744 13.7631 56.3611 14.1355 56.4765C14.6002 56.6215 15.1209 56.5062 15.4307 56.1865C15.7569 55.8536 15.813 55.2999 15.5559 54.9473C15.4274 54.7693 15.2066 54.654 14.966 54.6342C14.7485 54.6177 14.5441 54.6837 14.409 54.8155C14.353 54.8715 14.264 54.8682 14.2113 54.8155C14.1585 54.7595 14.1585 54.6705 14.2146 54.6177C14.409 54.4266 14.6924 54.331 14.9891 54.3574C15.3087 54.3837 15.6053 54.5419 15.7833 54.7825C16.1228 55.2439 16.0535 55.9492 15.6317 56.3809C15.2494 56.7698 14.6166 56.9148 14.0531 56.7402C13.6082 56.6017 13.2259 56.2623 13.0018 55.8042C12.7776 55.3461 12.7447 54.8353 12.9128 54.4002C13.1764 53.7114 13.8982 53.1874 14.7518 53.0655C15.5856 52.9468 16.393 53.1841 17.006 53.4016C18.3935 53.896 19.7019 54.6606 20.8191 55.6262C20.6576 55.1681 20.4203 54.687 20.0874 54.1465C20.0512 54.0871 20.0644 54.008 20.1171 53.9652C20.1698 53.9224 20.2489 53.9223 20.3017 53.9718C21.1421 54.7594 22.2362 55.445 23.0041 55.8833C23.9994 56.4501 24.9947 56.7566 25.957 56.7929C26.5667 56.816 27.0907 56.7204 27.5225 56.516C28.03 56.2722 28.4024 55.8668 28.5474 55.3988C28.7518 54.7463 28.4815 53.9454 27.8949 53.4478C27.4632 53.082 26.893 52.9007 26.3789 52.9633C25.8285 53.0292 25.3342 53.3753 25.1166 53.8433C24.8892 54.331 24.9881 54.9506 25.3506 55.3098C25.7263 55.6855 26.3624 55.7416 26.7711 55.4417C27.0842 55.211 27.2127 54.7858 27.0644 54.476C26.9886 54.3178 26.8238 54.1992 26.6294 54.1629C26.4646 54.1333 26.313 54.1728 26.2108 54.2684C26.1548 54.3211 26.0658 54.3211 26.0131 54.2651C25.9603 54.2091 25.9603 54.1201 26.0163 54.0674C26.1844 53.9059 26.425 53.84 26.6788 53.8861C26.9589 53.9355 27.2028 54.1168 27.3181 54.3541C27.5225 54.7792 27.3544 55.356 26.9359 55.6658C26.4217 56.0481 25.6209 55.9756 25.1529 55.5076C24.7113 55.0659 24.5893 54.3178 24.8629 53.7246C25.1199 53.1676 25.7033 52.759 26.3492 52.6832C26.9424 52.614 27.5884 52.8183 28.0794 53.2336C28.7518 53.8004 29.055 54.7232 28.8177 55.4812C28.6496 56.0217 28.2212 56.4897 27.6444 56.7665C27.2193 56.9708 26.7118 57.0763 26.135 57.0763Z" fill="#F1DFC1"/>
<path d="M27.5998 56.7795C27.5602 56.7795 27.5174 56.763 27.491 56.7267C27.4416 56.6674 27.4515 56.5784 27.5108 56.529C27.8041 56.2884 27.9985 56.0116 28.0974 55.7051C28.3017 55.0525 28.0315 54.2517 27.4449 53.7541C27.0131 53.3882 26.4463 53.207 25.9289 53.2696C25.7542 53.2894 25.5828 53.3388 25.418 53.4179C25.3488 53.4508 25.2632 53.4212 25.2302 53.352C25.1972 53.2828 25.2269 53.1971 25.2994 53.1641C25.4905 53.0751 25.6916 53.0158 25.8959 52.9928C26.4891 52.9235 27.1351 53.1279 27.6261 53.5431C28.2984 54.11 28.6016 55.0328 28.3644 55.7908C28.2523 56.1533 28.0249 56.473 27.6887 56.7498C27.6624 56.7696 27.6294 56.7795 27.5998 56.7795Z" fill="#F1DFC1"/>
<path d="M14.8672 56.783C14.8606 56.783 14.854 56.783 14.8474 56.783C14.3597 56.7105 13.9477 56.4271 13.6873 55.9822C13.4039 55.4977 13.3413 54.8946 13.5292 54.4036C13.8291 53.6159 14.7321 53.1512 15.4472 53.049C15.523 53.0392 15.5955 53.0919 15.6054 53.1677C15.6153 53.2435 15.5626 53.316 15.4868 53.3259C14.8507 53.4149 14.0499 53.8235 13.7895 54.5024C13.6313 54.9144 13.684 55.4252 13.9279 55.8372C14.1454 56.2063 14.4849 56.4436 14.887 56.5029C14.9628 56.5128 15.0155 56.5853 15.0056 56.6611C14.9957 56.7336 14.9364 56.783 14.8672 56.783Z" fill="#F1DFC1"/>
<path d="M29.6155 57.0764H17.8038C17.7247 57.0764 17.6621 57.0138 17.6621 56.9347C17.6621 56.8556 17.7247 56.793 17.8038 56.793H29.6155C29.6946 56.793 29.7572 56.8556 29.7572 56.9347C29.7572 57.0138 29.6946 57.0764 29.6155 57.0764Z" fill="#F1DFC1"/>
<path d="M26.448 55.1811C26.8011 55.1811 27.0873 54.8948 27.0873 54.5417C27.0873 54.1886 26.8011 53.9023 26.448 53.9023C26.0948 53.9023 25.8086 54.1886 25.8086 54.5417C25.8086 54.8948 26.0948 55.1811 26.448 55.1811Z" fill="#F1DFC1"/>
<path d="M17.8015 57.0727C18.1546 57.0727 18.4408 56.7864 18.4408 56.4333C18.4408 56.0802 18.1546 55.7939 17.8015 55.7939C17.4484 55.7939 17.1621 56.0802 17.1621 56.4333C17.1621 56.7864 17.4484 57.0727 17.8015 57.0727Z" fill="#F1DFC1"/>
<path d="M14.6735 55.7021C15.0266 55.7021 15.3129 55.4158 15.3129 55.0627C15.3129 54.7096 15.0266 54.4233 14.6735 54.4233C14.3204 54.4233 14.0342 54.7096 14.0342 55.0627C14.0342 55.4158 14.3204 55.7021 14.6735 55.7021Z" fill="#F1DFC1"/>
<path d="M39.7822 57.0761C39.2055 57.0761 38.6979 56.9739 38.2695 56.7663C37.6928 56.4895 37.2676 56.0215 37.0963 55.481C36.859 54.723 37.1655 53.8002 37.8345 53.2334C38.3321 52.8115 38.9616 52.6138 39.5647 52.683C40.2107 52.7588 40.794 53.1674 41.0511 53.7244C41.3246 54.3176 41.2027 55.0657 40.761 55.5074C40.2898 55.9754 39.4889 56.0479 38.9781 55.6656C38.5628 55.3558 38.3948 54.779 38.5958 54.3539C38.7078 54.1166 38.9517 53.9386 39.2319 53.8859C39.4856 53.8398 39.7262 53.9057 39.8943 54.0672C39.9503 54.1199 39.9503 54.2089 39.8976 54.2649C39.8448 54.3209 39.7559 54.3209 39.6998 54.2682C39.5977 54.1693 39.4461 54.1331 39.2813 54.1627C39.0868 54.199 38.9221 54.3176 38.8463 54.4758C38.6979 54.7856 38.8298 55.2108 39.1396 55.4415C39.5482 55.7447 40.1843 55.6853 40.56 55.3096C40.9225 54.9504 41.0214 54.3341 40.794 53.8431C40.5765 53.3718 40.0788 53.0257 39.5285 52.9631C39.011 52.9038 38.4442 53.085 38.0125 53.4476C37.4258 53.9419 37.1589 54.7461 37.3599 55.3986C37.5049 55.8666 37.8806 56.272 38.3849 56.5158C38.8166 56.7235 39.3439 56.8158 39.9503 56.7927C40.9126 56.7564 41.9079 56.4499 42.9032 55.8831C43.6711 55.4448 44.762 54.7592 45.6057 53.9716C45.6584 53.9221 45.7375 53.9222 45.7902 53.965C45.8463 54.0111 45.8561 54.0869 45.8199 54.1463C45.487 54.6868 45.2497 55.1679 45.0882 55.626C46.2022 54.6604 47.5139 53.8958 48.9013 53.4014C49.5143 53.1839 50.3251 52.9466 51.1556 53.0653C52.0125 53.1872 52.7342 53.7112 52.9946 54.4C53.1594 54.8351 53.1264 55.3492 52.9056 55.804C52.6815 56.2621 52.2992 56.6015 51.8543 56.74C51.2907 56.9146 50.6579 56.7696 50.2756 56.3807C49.8505 55.9457 49.7846 55.2437 50.124 54.7823C50.302 54.5417 50.5953 54.3803 50.9183 54.3572C51.2182 54.3341 51.5016 54.4297 51.6961 54.6175C51.7521 54.6703 51.7521 54.7593 51.6994 54.8153C51.6466 54.8713 51.5577 54.8713 51.5016 54.8153C51.3665 54.6835 51.1622 54.6142 50.9447 54.634C50.7041 54.6538 50.4833 54.7691 50.3547 54.9471C50.0977 55.2964 50.157 55.8534 50.48 56.1863C50.7898 56.5027 51.3105 56.618 51.7752 56.4763C52.1476 56.3609 52.4673 56.0742 52.6584 55.6853C52.8463 55.2964 52.8759 54.8647 52.7375 54.5022C52.5101 53.9057 51.8773 53.4542 51.1193 53.3454C50.3514 53.2367 49.5803 53.4608 48.9969 53.6684C47.4875 54.2056 46.0737 55.069 44.9103 56.1698C44.8641 56.2126 44.7982 56.2192 44.7422 56.1896C44.6895 56.1599 44.6631 56.0973 44.6763 56.0347C44.7785 55.6062 44.9433 55.1745 45.1838 54.7032C44.4522 55.2833 43.6481 55.7842 43.0417 56.127C42.0068 56.7169 40.9687 57.0333 39.9602 57.0728C39.9042 57.0728 39.8416 57.0761 39.7822 57.0761Z" fill="#F1DFC1"/>
<path d="M38.3189 56.7798C38.2859 56.7798 38.2562 56.77 38.2299 56.7469C37.8937 56.4733 37.6663 56.1504 37.5543 55.7878C37.317 55.0298 37.6235 54.1071 38.2925 53.5402C38.7835 53.1249 39.4328 52.9206 40.0227 52.9898C40.227 53.0129 40.4281 53.0722 40.6192 53.1612C40.6884 53.1942 40.7181 53.2765 40.6884 53.3491C40.6555 53.4183 40.5731 53.4479 40.5006 53.415C40.3358 53.3392 40.1644 53.2897 39.9898 53.2667C39.4723 53.204 38.9055 53.3886 38.4738 53.7511C37.8871 54.2455 37.6202 55.0496 37.8212 55.7022C37.9168 56.0087 38.1145 56.2888 38.4045 56.5261C38.4639 56.5755 38.4738 56.6645 38.4243 56.7238C38.4013 56.7634 38.3617 56.7798 38.3189 56.7798Z" fill="#F1DFC1"/>
<path d="M51.049 56.7826C50.9798 56.7826 50.9205 56.7331 50.9106 56.6639C50.9007 56.5881 50.9534 56.5156 51.0292 56.5057C51.4313 56.4464 51.7707 56.2091 51.9882 55.84C52.2288 55.428 52.2816 54.9139 52.1267 54.5019C51.8663 53.823 51.0655 53.4144 50.4294 53.3254C50.3536 53.3155 50.3009 53.243 50.3108 53.1672C50.3206 53.0914 50.3931 53.0387 50.4689 53.0486C51.2072 53.154 52.0871 53.6121 52.387 54.4031C52.5716 54.8941 52.5123 55.4972 52.2288 55.9817C51.9685 56.4266 51.5565 56.7133 51.0688 56.7826C51.0622 56.7826 51.0556 56.7826 51.049 56.7826Z" fill="#F1DFC1"/>
<path d="M48.1136 57.0759H36.3019C36.2228 57.0759 36.1602 57.0133 36.1602 56.9342C36.1602 56.8551 36.2228 56.7925 36.3019 56.7925H48.1136C48.1926 56.7925 48.2553 56.8551 48.2553 56.9342C48.2553 57.0133 48.1926 57.0759 48.1136 57.0759Z" fill="#F1DFC1"/>
<path d="M39.4704 55.1811C39.8235 55.1811 40.1098 54.8948 40.1098 54.5417C40.1098 54.1886 39.8235 53.9023 39.4704 53.9023C39.1173 53.9023 38.8311 54.1886 38.8311 54.5417C38.8311 54.8948 39.1173 55.1811 39.4704 55.1811Z" fill="#F1DFC1"/>
<path d="M48.1149 57.0727C48.4681 57.0727 48.7543 56.7864 48.7543 56.4333C48.7543 56.0802 48.4681 55.7939 48.1149 55.7939C47.7618 55.7939 47.4756 56.0802 47.4756 56.4333C47.4756 56.7864 47.7618 57.0727 48.1149 57.0727Z" fill="#F1DFC1"/>
<path d="M51.2458 55.7016C51.5989 55.7016 51.8851 55.4153 51.8851 55.0622C51.8851 54.7091 51.5989 54.4229 51.2458 54.4229C50.8927 54.4229 50.6064 54.7091 50.6064 55.0622C50.6064 55.4153 50.8927 55.7016 51.2458 55.7016Z" fill="#F1DFC1"/>
<path d="M53.9554 29.8936C53.3325 29.8936 52.68 29.5937 52.2417 29.0763C51.8198 28.5786 51.6221 27.9492 51.6913 27.3461C51.7671 26.7001 52.1758 26.1168 52.7327 25.8597C53.3259 25.5862 54.0741 25.7081 54.5157 26.1497C54.9837 26.621 55.0562 27.4219 54.6739 27.936C54.3641 28.3512 53.7873 28.5193 53.3622 28.3183C53.1249 28.2062 52.9469 27.9624 52.8942 27.6789C52.8481 27.4252 52.914 27.1846 53.0755 27.0165C53.1282 26.9605 53.2172 26.9605 53.2732 27.0132C53.3292 27.0659 53.3292 27.1549 53.2765 27.2109C53.1776 27.3131 53.1414 27.4647 53.171 27.6295C53.2073 27.8239 53.3259 27.9887 53.4841 28.0645C53.7939 28.2128 54.2191 28.081 54.4498 27.7712C54.753 27.3625 54.6937 26.7265 54.3179 26.3508C53.9587 25.9882 53.3424 25.8894 52.8514 26.1168C52.3801 26.3343 52.034 26.8319 51.9714 27.3823C51.9121 27.8997 52.0934 28.4666 52.4559 28.8983C52.9502 29.485 53.7544 29.7552 54.4069 29.5509C54.8716 29.4059 55.2803 29.0302 55.5242 28.5259C55.7318 28.0942 55.8241 27.5669 55.801 26.9605C55.7647 25.9981 55.4582 25.0028 54.8914 24.0076C54.4531 23.2397 53.7676 22.1488 52.9799 21.3051C52.9305 21.2524 52.9305 21.1733 52.9733 21.1205C53.0162 21.0678 53.0952 21.0546 53.1546 21.0909C53.6951 21.4237 54.1762 21.661 54.6343 21.8225C53.6687 20.7053 52.9041 19.3969 52.4097 18.0094C52.1922 17.3964 51.955 16.5857 52.0736 15.7552C52.1955 14.9016 52.7195 14.1766 53.4083 13.9162C53.8434 13.7514 54.3542 13.7844 54.8123 14.0052C55.2704 14.2293 55.6098 14.6116 55.7483 15.0565C55.9229 15.6201 55.7779 16.2528 55.389 16.6351C54.954 17.0603 54.252 17.1262 53.7906 16.7867C53.55 16.6088 53.3886 16.3122 53.3655 15.9925C53.3424 15.6926 53.438 15.4091 53.6258 15.218C53.6819 15.162 53.7676 15.162 53.8236 15.2147C53.8796 15.2674 53.8796 15.3564 53.8236 15.4124C53.6918 15.5476 53.6225 15.7519 53.6423 15.9694C53.6621 16.21 53.7774 16.4308 53.9554 16.5593C54.3048 16.8164 54.8617 16.7571 55.1946 16.4341C55.511 16.1243 55.6263 15.6036 55.4813 15.1389C55.366 14.7665 55.0792 14.4468 54.6903 14.2557C54.3014 14.0678 53.873 14.0382 53.5072 14.1766C52.9107 14.404 52.4592 15.0367 52.3504 15.7947C52.2417 16.5659 52.4658 17.3338 52.6734 17.9172C53.2106 19.4266 54.0741 20.8404 55.1748 22.0038C55.2177 22.0499 55.2242 22.1158 55.1946 22.1719C55.1649 22.2246 55.1023 22.251 55.0397 22.2378C54.6113 22.1356 54.1795 21.9708 53.7082 21.7302C54.2883 22.4619 54.7892 23.266 55.132 23.8724C55.7219 24.9073 56.0416 25.9454 56.0778 26.9539C56.1009 27.6064 55.9987 28.1799 55.7713 28.6512C55.4945 29.2279 55.0265 29.6563 54.486 29.8244C54.3212 29.8673 54.14 29.8936 53.9554 29.8936Z" fill="#F1DFC1"/>
<path d="M54.264 29.4324C53.6411 29.4324 52.9886 29.1325 52.5503 28.6151C52.1284 28.1175 51.9307 27.4847 51.9999 26.8849C52.023 26.6806 52.0823 26.4795 52.1713 26.2884C52.2042 26.2191 52.2866 26.1895 52.3591 26.2224C52.4283 26.2554 52.458 26.3378 52.425 26.4103C52.3492 26.5751 52.2998 26.7465 52.28 26.9211C52.2174 27.4385 52.402 28.0054 52.7645 28.4371C53.2588 29.0238 54.063 29.2907 54.7155 29.0897C55.022 28.9941 55.2988 28.7964 55.5394 28.5063C55.5889 28.447 55.6779 28.4371 55.7372 28.4866C55.7965 28.536 55.8064 28.625 55.757 28.6843C55.4801 29.0205 55.1604 29.2479 54.7979 29.3599C54.6265 29.4061 54.4486 29.4324 54.264 29.4324Z" fill="#F1DFC1"/>
<path d="M52.1953 16.5991C52.1887 16.5991 52.1821 16.5991 52.1755 16.5991C52.0997 16.5892 52.047 16.5167 52.0569 16.4409C52.159 15.7257 52.6237 14.8227 53.4114 14.5228C53.9024 14.335 54.5055 14.3976 54.99 14.681C55.4349 14.9414 55.7216 15.3533 55.7909 15.8411C55.8007 15.9169 55.748 15.9894 55.6722 15.9993C55.5964 16.0092 55.5239 15.9564 55.514 15.8806C55.4547 15.4786 55.2174 15.1391 54.8483 14.9216C54.4363 14.681 53.9222 14.6283 53.5103 14.7832C52.8313 15.0435 52.4227 15.8444 52.3337 16.4804C52.3271 16.5496 52.2645 16.5991 52.1953 16.5991Z" fill="#F1DFC1"/>
<path d="M55.9454 30.7475C55.8663 30.7475 55.8037 30.6848 55.8037 30.6057V18.7941C55.8037 18.715 55.8663 18.6523 55.9454 18.6523C56.0245 18.6523 56.0872 18.715 56.0872 18.7941V30.6057C56.0872 30.6848 56.0245 30.7475 55.9454 30.7475Z" fill="#F1DFC1"/>
<path d="M53.5534 28.081C53.2008 28.081 52.9141 27.7942 52.9141 27.4416C52.9141 27.089 53.2008 26.8022 53.5534 26.8022C53.9061 26.8022 54.1928 27.089 54.1928 27.4416C54.1928 27.7942 53.9061 28.081 53.5534 28.081Z" fill="#F1DFC1"/>
<path d="M55.4431 19.433C55.7962 19.433 56.0824 19.1468 56.0824 18.7937C56.0824 18.4405 55.7962 18.1543 55.4431 18.1543C55.09 18.1543 54.8037 18.4405 54.8037 18.7937C54.8037 19.1468 55.09 19.433 55.4431 19.433Z" fill="#F1DFC1"/>
<path d="M54.0739 16.3056C54.427 16.3056 54.7133 16.0193 54.7133 15.6662C54.7133 15.3131 54.427 15.0269 54.0739 15.0269C53.7208 15.0269 53.4346 15.3131 53.4346 15.6662C53.4346 16.0193 53.7208 16.3056 54.0739 16.3056Z" fill="#F1DFC1"/>
<path d="M53.9952 54.0999C53.7942 54.0999 53.5964 54.0637 53.4152 53.9945C52.7264 53.7308 52.2024 53.0091 52.0804 52.1555C51.9618 51.325 52.1991 50.5142 52.4166 49.9012C52.9109 48.5138 53.6755 47.2054 54.6412 46.0882C54.1831 46.2496 53.7019 46.4869 53.1614 46.8198C53.1021 46.856 53.023 46.8429 52.9802 46.7901C52.934 46.7374 52.9373 46.6583 52.9867 46.6056C53.7744 45.7652 54.4599 44.671 54.8982 43.9031C55.4651 42.9078 55.7716 41.9125 55.8078 40.9502C55.8309 40.3438 55.7353 39.8165 55.531 39.3848C55.2871 38.8772 54.8817 38.5048 54.4138 38.3598C53.7612 38.1555 52.9604 38.4257 52.4627 39.0124C52.0969 39.4441 51.9156 40.0109 51.9783 40.5284C52.0442 41.0787 52.3902 41.5731 52.8582 41.7939C53.346 42.0213 53.9655 41.9224 54.3248 41.5599C54.7005 41.1842 54.7598 40.5481 54.4566 40.1395C54.2259 39.8264 53.8008 39.6979 53.491 39.8462C53.3328 39.922 53.2141 40.0867 53.1779 40.2812C53.1482 40.446 53.1878 40.5976 53.2833 40.6997C53.3361 40.7558 53.3361 40.8447 53.28 40.8975C53.224 40.9502 53.135 40.9502 53.0823 40.8942C52.9208 40.7261 52.8549 40.4855 52.901 40.2318C52.9505 39.9516 53.1318 39.7077 53.369 39.5924C53.7942 39.3881 54.3709 39.5561 54.6807 39.9747C55.063 40.4888 54.9905 41.2897 54.5225 41.7609C54.0809 42.2026 53.3328 42.3245 52.7396 42.051C52.1826 41.7939 51.7739 41.2106 51.6981 40.5646C51.6256 39.9648 51.8267 39.332 52.2485 38.8344C52.8154 38.1621 53.7381 37.8589 54.4962 38.0962C55.0366 38.2642 55.5046 38.6927 55.7815 39.2694C56.0089 39.744 56.111 40.3141 56.088 40.9667C56.0517 41.9752 55.732 43.0133 55.1421 44.0481C54.7961 44.6545 54.2984 45.4587 53.7184 46.1903C54.1897 45.9497 54.6214 45.785 55.0498 45.6828C55.1091 45.6663 55.1718 45.696 55.2047 45.7487C55.2344 45.8014 55.2278 45.8706 55.1849 45.9168C54.0842 47.0802 53.2207 48.494 52.6835 50.0034C52.4759 50.5867 52.2518 51.3546 52.3606 52.1258C52.466 52.8805 52.9208 53.5166 53.5173 53.744C53.8799 53.8824 54.3116 53.8527 54.7005 53.6649C55.0894 53.477 55.3761 53.1541 55.4915 52.7817C55.6365 52.317 55.5211 51.7963 55.2047 51.4865C54.8719 51.1602 54.3182 51.1042 53.9656 51.3612C53.7909 51.4898 53.6722 51.7106 53.6525 51.9512C53.636 52.1687 53.7019 52.373 53.8337 52.5081C53.8865 52.5641 53.8865 52.6531 53.8337 52.7059C53.7777 52.7586 53.6887 52.7586 53.636 52.7026C53.4448 52.5081 53.3493 52.2247 53.3756 51.9248C53.402 51.6051 53.5602 51.3085 53.8008 51.1305C54.2622 50.7911 54.9674 50.857 55.3992 51.2821C55.7881 51.6644 55.9331 52.2972 55.7584 52.8608C55.62 53.3057 55.2805 53.688 54.8224 53.9121C54.5522 54.034 54.2687 54.0999 53.9952 54.0999Z" fill="#F1DFC1"/>
<path d="M52.3001 41.6983C52.2474 41.6983 52.1979 41.6687 52.1749 41.6192C52.0859 41.4281 52.0266 41.2271 52.0035 41.0227C51.9343 40.4295 52.1386 39.7836 52.5539 39.2925C53.1207 38.6235 54.0435 38.317 54.8015 38.5543C55.1607 38.6663 55.4837 38.8937 55.7605 39.2299C55.81 39.2892 55.8001 39.3782 55.7408 39.4276C55.6815 39.4771 55.5925 39.4672 55.543 39.4078C55.3025 39.1145 55.0256 38.9201 54.7191 38.8245C54.0666 38.6202 53.2657 38.8904 52.7681 39.4771C52.4023 39.9088 52.221 40.4756 52.2836 40.9931C52.3034 41.1677 52.3528 41.3391 52.4319 41.5039C52.4649 41.5731 52.4352 41.6588 52.366 41.6917C52.3396 41.6917 52.3199 41.6983 52.3001 41.6983Z" fill="#F1DFC1"/>
<path d="M54.0145 53.4903C53.8069 53.4903 53.5992 53.454 53.4114 53.3848C52.6237 53.0849 52.159 52.1819 52.0569 51.4668C52.047 51.391 52.0997 51.3185 52.1755 51.3086C52.2513 51.2954 52.3238 51.3514 52.3337 51.4272C52.4227 52.0633 52.8313 52.8641 53.5103 53.1245C53.9222 53.2827 54.433 53.2299 54.8483 52.9861C55.2174 52.7685 55.4547 52.4291 55.514 52.027C55.5239 51.9512 55.5964 51.8952 55.6722 51.9084C55.748 51.9183 55.8007 51.9908 55.7909 52.0666C55.7183 52.5543 55.4349 52.9663 54.99 53.2267C54.6934 53.398 54.3473 53.4903 54.0145 53.4903Z" fill="#F1DFC1"/>
<path d="M55.9454 49.2489C55.8663 49.2489 55.8037 49.1863 55.8037 49.1072V37.2955C55.8037 37.2164 55.8663 37.1538 55.9454 37.1538C56.0245 37.1538 56.0872 37.2164 56.0872 37.2955V49.1072C56.0872 49.1863 56.0245 49.2489 55.9454 49.2489Z" fill="#F1DFC1"/>
<path d="M53.5544 39.8232C53.2018 39.8232 52.915 40.11 52.915 40.4626C52.915 40.8152 53.2018 41.102 53.5544 41.102C53.907 41.102 54.1938 40.8152 54.1938 40.4626C54.1938 40.11 53.907 39.8232 53.5544 39.8232Z" fill="#F1DFC1"/>
<path d="M55.445 49.7465C55.7981 49.7465 56.0844 49.4602 56.0844 49.1071C56.0844 48.754 55.7981 48.4678 55.445 48.4678C55.0919 48.4678 54.8057 48.754 54.8057 49.1071C54.8057 49.4602 55.0919 49.7465 55.445 49.7465Z" fill="#F1DFC1"/>
<path d="M54.0739 52.8774C54.427 52.8774 54.7133 52.5911 54.7133 52.238C54.7133 51.8849 54.427 51.5986 54.0739 51.5986C53.7208 51.5986 53.4346 51.8849 53.4346 52.238C53.4346 52.5911 53.7208 52.8774 54.0739 52.8774Z" fill="#F1DFC1"/>
<path d="M11.9697 29.8937C11.7851 29.8937 11.6072 29.8673 11.4358 29.8146C10.8953 29.6465 10.4273 29.2181 10.1505 28.6414C9.9231 28.1668 9.82094 27.5966 9.84401 26.9441C9.88026 25.9356 10.1999 24.8975 10.7899 23.8626C11.1359 23.2562 11.6336 22.4521 12.2136 21.7204C11.7456 21.961 11.3106 22.1258 10.8821 22.228C10.8228 22.2412 10.7602 22.2148 10.7272 22.1621C10.6976 22.1093 10.7042 22.0401 10.747 21.994C11.8478 20.8306 12.7112 19.4168 13.2484 17.9074C13.456 17.324 13.6802 16.5561 13.5714 15.7849C13.4627 15.0302 13.0111 14.3942 12.4146 14.1668C12.0521 14.0284 11.6204 14.058 11.2315 14.2459C10.8426 14.4337 10.5559 14.7567 10.4405 15.1291C10.2955 15.5938 10.4142 16.1145 10.7305 16.4243C11.0634 16.7506 11.6171 16.8066 11.9697 16.5495C12.1477 16.421 12.263 16.2002 12.2828 15.9596C12.2993 15.7421 12.2334 15.5378 12.1015 15.4026C12.0488 15.3466 12.0488 15.2576 12.1015 15.2049C12.1576 15.1522 12.2465 15.1522 12.2993 15.2082C12.4904 15.4026 12.586 15.6861 12.5596 15.9827C12.5333 16.3024 12.3751 16.599 12.1312 16.7769C11.6698 17.1164 10.9645 17.0472 10.5328 16.6253C10.1439 16.2431 9.9989 15.6103 10.1736 15.0467C10.312 14.6018 10.6514 14.2195 11.1095 13.9954C11.5676 13.7713 12.0785 13.7383 12.5135 13.9064C13.2023 14.1701 13.7263 14.8918 13.8482 15.7454C13.9669 16.5759 13.7296 17.3866 13.5121 17.9996C13.021 19.3871 12.2564 20.6955 11.2875 21.8127C11.7456 21.6512 12.2268 21.414 12.7673 21.0811C12.8266 21.0448 12.9057 21.058 12.9485 21.1107C12.9947 21.1635 12.9914 21.2426 12.9419 21.2953C12.1543 22.1357 11.4688 23.2299 11.0304 23.9978C10.4636 24.993 10.1571 25.9883 10.1208 26.9507C10.0978 27.5571 10.1933 28.0844 10.3977 28.5161C10.6416 29.0236 11.0469 29.3961 11.5149 29.5411C12.1674 29.7454 12.9683 29.4752 13.4659 28.8885C13.8318 28.4568 14.013 27.8899 13.9504 27.3725C13.8845 26.8221 13.5384 26.3278 13.0705 26.107C12.5794 25.8796 11.9631 25.9784 11.6039 26.341C11.2282 26.7167 11.1722 27.3527 11.4721 27.7614C11.7061 28.0745 12.1279 28.203 12.4377 28.0547C12.5959 27.9789 12.7145 27.8141 12.7508 27.6197C12.7804 27.4549 12.7409 27.3033 12.6453 27.2011C12.5926 27.1451 12.5926 27.0561 12.6486 27.0034C12.7046 26.9507 12.7936 26.9507 12.8464 27.0067C13.0078 27.1748 13.0738 27.4154 13.0276 27.6691C12.9782 27.9493 12.7969 28.1931 12.5596 28.3085C12.1345 28.5128 11.5577 28.3447 11.2479 27.9262C10.8656 27.4121 10.9382 26.6112 11.4062 26.1399C11.8478 25.6983 12.5959 25.5764 13.1891 25.8499C13.7461 26.107 14.1547 26.6903 14.2305 27.3363C14.303 27.9394 14.102 28.5689 13.6802 29.0665C13.2451 29.5938 12.5926 29.8937 11.9697 29.8937Z" fill="#F1DFC1"/>
<path d="M11.6593 29.4322C11.4781 29.4322 11.2968 29.4058 11.1254 29.3531C10.7629 29.241 10.4433 29.0136 10.1664 28.6775C10.117 28.6181 10.1269 28.5292 10.1862 28.4797C10.2455 28.4303 10.3345 28.4402 10.3839 28.4995C10.6245 28.7928 10.9013 28.9873 11.2078 29.0828C11.8604 29.2872 12.6612 29.0202 13.1589 28.4303C13.5247 27.9986 13.706 27.4317 13.6433 26.9143C13.6236 26.7396 13.5741 26.5682 13.495 26.4035C13.4621 26.3342 13.4917 26.2486 13.5643 26.2156C13.6335 26.1827 13.7192 26.2123 13.7521 26.2815C13.8411 26.4727 13.9004 26.6737 13.9235 26.878C13.996 27.4778 13.7949 28.1106 13.3731 28.6083C12.9348 29.1323 12.2822 29.4322 11.6593 29.4322Z" fill="#F1DFC1"/>
<path d="M13.7305 16.599C13.6613 16.599 13.602 16.5495 13.5921 16.477C13.5032 15.841 13.0945 15.0401 12.4156 14.7798C12.0036 14.6249 11.4928 14.6776 11.0775 14.9182C10.7084 15.1357 10.4711 15.4751 10.4118 15.8772C10.4019 15.953 10.3294 16.0057 10.2536 15.9959C10.1778 15.986 10.1251 15.9135 10.135 15.8377C10.2075 15.3499 10.4909 14.9379 10.9358 14.6776C11.4203 14.3942 12.0234 14.3315 12.5144 14.5194C13.3021 14.8193 13.7668 15.7223 13.869 16.4375C13.8788 16.5133 13.8261 16.5858 13.7503 16.5957C13.7437 16.599 13.7371 16.599 13.7305 16.599Z" fill="#F1DFC1"/>
<path d="M9.9796 30.747C9.90051 30.747 9.83789 30.6843 9.83789 30.6052V18.7936C9.83789 18.7145 9.90051 18.6519 9.9796 18.6519C10.0587 18.6519 10.1213 18.7145 10.1213 18.7936V30.6052C10.118 30.6843 10.0554 30.747 9.9796 30.747Z" fill="#F1DFC1"/>
<path d="M12.3728 28.081C12.7259 28.081 13.0121 27.7947 13.0121 27.4416C13.0121 27.0885 12.7259 26.8022 12.3728 26.8022C12.0197 26.8022 11.7334 27.0885 11.7334 27.4416C11.7334 27.7947 12.0197 28.081 12.3728 28.081Z" fill="#F1DFC1"/>
<path d="M10.4802 19.433C10.8333 19.433 11.1195 19.1468 11.1195 18.7937C11.1195 18.4405 10.8333 18.1543 10.4802 18.1543C10.1271 18.1543 9.84082 18.4405 9.84082 18.7937C9.84082 19.1468 10.1271 19.433 10.4802 19.433Z" fill="#F1DFC1"/>
<path d="M11.8513 16.3056C12.2044 16.3056 12.4906 16.0193 12.4906 15.6662C12.4906 15.3131 12.2044 15.0269 11.8513 15.0269C11.4982 15.0269 11.2119 15.3131 11.2119 15.6662C11.2119 16.0193 11.4982 16.3056 11.8513 16.3056Z" fill="#F1DFC1"/>
<path d="M11.9305 54.1003C11.6537 54.1003 11.3703 54.0343 11.1066 53.9058C10.6485 53.6817 10.3091 53.2994 10.1706 52.8545C9.99597 52.2909 10.141 51.6582 10.5299 51.2759C10.9649 50.8507 11.6669 50.7848 12.1283 51.1243C12.3689 51.3022 12.5303 51.5989 12.5567 51.9185C12.5798 52.2184 12.4842 52.5019 12.2964 52.6963C12.2436 52.7523 12.1546 52.7523 12.0986 52.6996C12.0426 52.6469 12.0426 52.5579 12.0986 52.5019C12.2304 52.3667 12.2996 52.1624 12.2799 51.9449C12.2601 51.7043 12.1448 51.4835 11.9668 51.355C11.6174 51.0979 11.0605 51.1572 10.7276 51.4802C10.4112 51.79 10.2959 52.3107 10.4376 52.7754C10.5529 53.1478 10.8397 53.4675 11.2285 53.6586C11.6174 53.8465 12.0492 53.8762 12.4117 53.7377C13.0082 53.5103 13.4597 52.8776 13.5685 52.1196C13.6772 51.3484 13.4531 50.5805 13.2455 49.9971C12.7083 48.4877 11.8448 47.0739 10.7441 45.9105C10.7012 45.8644 10.6947 45.7985 10.7243 45.7424C10.754 45.6897 10.8199 45.6601 10.8792 45.6765C11.3076 45.7787 11.7394 45.9435 12.2107 46.1841C11.6306 45.4524 11.133 44.6483 10.7869 44.0419C10.197 43.007 9.87733 41.9689 9.84108 40.9604C9.81801 40.3079 9.92017 39.7344 10.1476 39.2632C10.4244 38.6864 10.8924 38.258 11.4329 38.0899C12.1876 37.8526 13.1137 38.1591 13.6805 38.8281C14.1024 39.3258 14.3001 39.9585 14.2309 40.5584C14.1551 41.2043 13.7464 41.7876 13.1895 42.0447C12.5962 42.3182 11.8481 42.1963 11.4065 41.7547C10.9385 41.2834 10.866 40.4826 11.2483 39.9684C11.5581 39.5532 12.1349 39.3851 12.56 39.5861C12.7973 39.6982 12.9753 39.9421 13.028 40.2255C13.0741 40.4793 13.0082 40.7198 12.8467 40.8879C12.794 40.944 12.705 40.944 12.649 40.8912C12.5929 40.8385 12.593 40.7495 12.6457 40.6935C12.7446 40.5913 12.7808 40.4397 12.7511 40.2749C12.7149 40.0805 12.5963 39.9157 12.4381 39.8399C12.1283 39.6916 11.7031 39.8234 11.4724 40.1365C11.1692 40.5419 11.2285 41.1812 11.6043 41.5569C11.9635 41.9195 12.5798 42.0183 13.0708 41.7909C13.5421 41.5734 13.8881 41.0758 13.9508 40.5254C14.0101 40.008 13.8288 39.4411 13.4663 39.0094C12.972 38.4228 12.1678 38.1558 11.5153 38.3569C11.0506 38.5019 10.6419 38.8743 10.398 39.3818C10.1904 39.8135 10.0981 40.3408 10.1212 40.9472C10.1575 41.9096 10.464 42.9049 11.0308 43.9002C11.4691 44.6681 12.1546 45.7622 12.9423 46.6026C12.9917 46.6553 12.9917 46.7344 12.9489 46.7872C12.906 46.8399 12.827 46.8531 12.7676 46.8168C12.2271 46.484 11.746 46.2467 11.2879 46.0852C12.2535 47.2024 13.0181 48.5108 13.5125 49.8983C13.73 50.5113 13.9672 51.322 13.8486 52.1525C13.7267 53.0094 13.2027 53.7312 12.5139 53.9915C12.3293 54.0673 12.1316 54.1003 11.9305 54.1003Z" fill="#F1DFC1"/>
<path d="M13.6236 41.6986C13.6038 41.6986 13.584 41.6953 13.5643 41.6854C13.495 41.6524 13.4654 41.57 13.495 41.4975C13.5708 41.3328 13.6203 41.1614 13.6433 40.9867C13.706 40.4693 13.5214 39.9024 13.1589 39.4707C12.6645 38.8841 11.8604 38.6171 11.2078 38.8182C10.9013 38.9137 10.6212 39.1115 10.3839 39.4015C10.3345 39.4608 10.2455 39.4707 10.1862 39.4213C10.1269 39.3718 10.117 39.2828 10.1664 39.2235C10.44 38.8874 10.7629 38.66 11.1254 38.5479C11.8835 38.3106 12.8062 38.6171 13.3731 39.2861C13.7884 39.7772 13.9927 40.4231 13.9235 41.0164C13.9004 41.2207 13.8411 41.4217 13.7521 41.6129C13.7257 41.6656 13.6763 41.6986 13.6236 41.6986Z" fill="#F1DFC1"/>
<path d="M11.9113 53.4905C11.5752 53.4905 11.2324 53.4016 10.9358 53.2269C10.4909 52.9665 10.2042 52.5546 10.135 52.0668C10.1251 51.991 10.1778 51.9185 10.2536 51.9086C10.3294 51.8954 10.4019 51.9515 10.4118 52.0273C10.4711 52.4293 10.7084 52.7688 11.0775 52.9863C11.4895 53.2269 12.0036 53.2796 12.4156 53.1247C13.0945 52.8644 13.5032 52.0635 13.5921 51.4275C13.602 51.3517 13.6778 51.2989 13.7503 51.3088C13.8261 51.3187 13.8788 51.3912 13.869 51.467C13.7668 52.1822 13.3021 53.0852 12.5144 53.3851C12.3266 53.4543 12.119 53.4905 11.9113 53.4905Z" fill="#F1DFC1"/>
<path d="M9.9796 49.2489C9.90051 49.2489 9.83789 49.1863 9.83789 49.1072V37.2955C9.83789 37.2164 9.90051 37.1538 9.9796 37.1538C10.0587 37.1538 10.1213 37.2164 10.1213 37.2955V49.1072C10.118 49.1863 10.0554 49.2489 9.9796 49.2489Z" fill="#F1DFC1"/>
<path d="M12.3728 41.102C12.7259 41.102 13.0121 40.8157 13.0121 40.4626C13.0121 40.1095 12.7259 39.8232 12.3728 39.8232C12.0197 39.8232 11.7334 40.1095 11.7334 40.4626C11.7334 40.8157 12.0197 41.102 12.3728 41.102Z" fill="#F1DFC1"/>
<path d="M10.4802 49.7465C10.8333 49.7465 11.1195 49.4602 11.1195 49.1071C11.1195 48.754 10.8333 48.4678 10.4802 48.4678C10.1271 48.4678 9.84082 48.754 9.84082 49.1071C9.84082 49.4602 10.1271 49.7465 10.4802 49.7465Z" fill="#F1DFC1"/>
<path d="M11.8513 52.8774C12.2044 52.8774 12.4906 52.5911 12.4906 52.238C12.4906 51.8849 12.2044 51.5986 11.8513 51.5986C11.4982 51.5986 11.2119 51.8849 11.2119 52.238C11.2119 52.5911 11.4982 52.8774 11.8513 52.8774Z" fill="#F1DFC1"/>
<path d="M56.6234 57.7553H9.30089C9.22179 57.7553 9.15918 57.6927 9.15918 57.6136V10.2911C9.15918 10.212 9.22179 10.1494 9.30089 10.1494H56.6234C56.7025 10.1494 56.7651 10.212 56.7651 10.2911V57.6136C56.7651 57.6927 56.7025 57.7553 56.6234 57.7553ZM9.4393 57.4752H56.4817V10.4295H9.4393V57.4752Z" fill="#F1DFC1"/>
<path d="M38.446 43.6494H28.5557V44.6711H38.446V43.6494Z" fill="#F5D09B"/>
<path d="M38.446 43.6494H28.5557V44.6711H38.446V43.6494Z" fill="#F5D09B"/>
<path d="M28.5557 43.6496L30.5265 42.6279H36.4719L38.4427 43.6496H28.5557Z" fill="#F5D09B"/>
<path d="M36.3933 22.0005H30.6094V42.371H36.3933V22.0005Z" fill="#F5D09B"/>
<path d="M38.8548 19.021H28.1406V21.5784H38.8548V19.021Z" fill="#F5D09B"/>
<path d="M28.141 19.021C26.9974 19.021 26.0713 19.9471 26.0713 21.0907C26.0713 22.2343 26.9974 23.1604 28.141 23.1604C29.2846 23.1604 30.2106 22.2343 30.2106 21.0907C30.2106 19.9471 29.2846 19.021 28.141 19.021Z" fill="#F5D09B"/>
<path d="M38.8587 19.021C40.0023 19.021 40.9284 19.9471 40.9284 21.0907C40.9284 22.2343 40.0023 23.1604 38.8587 23.1604C37.7151 23.1604 36.7891 22.2343 36.7891 21.0907C36.7891 19.9471 37.7151 19.021 38.8587 19.021Z" fill="#F5D09B"/>
<path d="M28.1406 22.7616C27.2178 22.7616 26.4697 22.0102 26.4697 21.0907C26.4697 20.1679 27.2211 19.4165 28.1406 19.4165C29.0634 19.4165 29.8115 20.1679 29.8115 21.0907C29.8148 22.0135 29.0634 22.7616 28.1406 22.7616ZM28.1406 19.6439C27.3431 19.6439 26.6938 20.2931 26.6938 21.0907C26.6938 21.8883 27.3431 22.5375 28.1406 22.5375C28.9382 22.5375 29.5874 21.8883 29.5874 21.0907C29.5874 20.2931 28.9382 19.6439 28.1406 19.6439Z" fill="#F5D09B"/>
<path d="M28.141 22.1322C27.5676 22.1322 27.0996 21.6642 27.0996 21.0907C27.0996 20.5173 27.5676 20.0493 28.141 20.0493C28.7145 20.0493 29.1825 20.5173 29.1825 21.0907C29.1858 21.6642 28.7178 22.1322 28.141 22.1322ZM28.141 20.2734C27.6928 20.2734 27.327 20.6392 27.327 21.0907C27.327 21.539 27.6928 21.9048 28.141 21.9048C28.5892 21.9048 28.9551 21.539 28.9551 21.0907C28.9584 20.6392 28.5925 20.2734 28.141 20.2734Z" fill="#F5D09B"/>
<path d="M28.1424 21.5026C27.915 21.5026 27.7305 21.3181 27.7305 21.0907C27.7305 20.8633 27.915 20.6787 28.1424 20.6787C28.3698 20.6787 28.5544 20.8633 28.5544 21.0907C28.5577 21.3181 28.3698 21.5026 28.1424 21.5026ZM28.1424 20.9028C28.0403 20.9028 27.9579 20.9852 27.9579 21.0874C27.9579 21.1895 28.0403 21.2719 28.1424 21.2719C28.2446 21.2719 28.327 21.1895 28.327 21.0874C28.3303 20.9885 28.2446 20.9028 28.1424 20.9028Z" fill="#F5D09B"/>
<path d="M38.8584 22.7616C39.7812 22.7616 40.5293 22.0102 40.5293 21.0907C40.5293 20.1679 39.7779 19.4165 38.8584 19.4165C37.9356 19.4165 37.1875 20.1679 37.1875 21.0907C37.1842 22.0135 37.9356 22.7616 38.8584 22.7616ZM38.8584 19.6439C39.656 19.6439 40.3052 20.2931 40.3052 21.0907C40.3052 21.8883 39.656 22.5375 38.8584 22.5375C38.0609 22.5375 37.4116 21.8883 37.4116 21.0907C37.4116 20.2931 38.0609 19.6439 38.8584 19.6439Z" fill="#F5D09B"/>
<path d="M38.8588 22.1322C39.4323 22.1322 39.9003 21.6642 39.9003 21.0907C39.9003 20.5173 39.4323 20.0493 38.8588 20.0493C38.2854 20.0493 37.8174 20.5173 37.8174 21.0907C37.8141 21.6642 38.2821 22.1322 38.8588 22.1322ZM38.8588 20.2734C39.307 20.2734 39.6729 20.6392 39.6729 21.0907C39.6729 21.539 39.307 21.9048 38.8588 21.9048C38.4106 21.9048 38.0448 21.539 38.0448 21.0907C38.0415 20.6392 38.4073 20.2734 38.8588 20.2734Z" fill="#F5D09B"/>
<path d="M38.8583 21.5026C39.0857 21.5026 39.2702 21.3181 39.2702 21.0907C39.2702 20.8633 39.0857 20.6787 38.8583 20.6787C38.6309 20.6787 38.4463 20.8633 38.4463 21.0907C38.443 21.3181 38.6309 21.5026 38.8583 21.5026ZM38.8583 20.9028C38.9605 20.9028 39.0428 20.9852 39.0428 21.0874C39.0428 21.1895 38.9605 21.2719 38.8583 21.2719C38.7561 21.2719 38.6737 21.1895 38.6737 21.0874C38.6704 20.9885 38.7561 20.9028 38.8583 20.9028Z" fill="#F5D09B"/>
<path d="M30.6295 22.4222C30.3988 22.4222 30.2109 22.2343 30.2109 22.0036V21.9937C30.2109 21.763 30.3988 21.5752 30.6295 21.5752H36.3672C36.5979 21.5752 36.7858 21.763 36.7858 21.9937V22.0036C36.7858 22.2343 36.5979 22.4222 36.3672 22.4222H30.6295Z" fill="#F5D09B"/>
<path d="M30.6295 42.7894C30.3988 42.7894 30.2109 42.6015 30.2109 42.3708V42.3609C30.2109 42.1302 30.3988 41.9424 30.6295 41.9424H36.3672C36.5979 41.9424 36.7858 42.1302 36.7858 42.3609V42.3708C36.7858 42.6015 36.5979 42.7894 36.3672 42.7894H30.6295Z" fill="#F5D09B"/>
<path d="M31.0252 20.9162C30.6528 20.9162 30.3496 20.613 30.3496 20.2406V20.2274C30.3496 19.855 30.6528 19.5518 31.0252 19.5518H35.9786C36.351 19.5518 36.6542 19.855 36.6542 20.2274V20.2406C36.6542 20.613 36.351 20.9162 35.9786 20.9162H31.0252Z" fill="#F5D09B"/>
<path d="M30.6161 41.9454C30.4908 41.9454 30.3887 41.8432 30.3887 41.718V41.7147C30.3887 41.5895 30.4908 41.4873 30.6161 41.4873H36.3835C36.5087 41.4873 36.6109 41.5895 36.6109 41.7147V41.718C36.6109 41.8432 36.5087 41.9454 36.3835 41.9454H30.6161Z" fill="#F5D09B"/>
<path d="M30.6161 22.8805C30.4908 22.8805 30.3887 22.7783 30.3887 22.6531V22.6498C30.3887 22.5245 30.4908 22.4224 30.6161 22.4224H36.3835C36.5087 22.4224 36.6109 22.5245 36.6109 22.6498V22.6531C36.6109 22.7783 36.5087 22.8805 36.3835 22.8805H30.6161Z" fill="#F5D09B"/>
<path d="M31.275 41.0096H31.2684C31.0542 41.0096 30.8828 40.8383 30.8828 40.624V23.7469C30.8828 23.5327 31.0542 23.3613 31.2684 23.3613H31.275C31.4892 23.3613 31.6606 23.5327 31.6606 23.7469V40.624C31.6606 40.835 31.4892 41.0096 31.275 41.0096Z" fill="#F5D09B"/>
<path d="M35.7245 41.0096H35.7311C35.9453 41.0096 36.1166 40.8383 36.1166 40.624V23.7469C36.1166 23.5327 35.9453 23.3613 35.7311 23.3613H35.7245C35.5102 23.3613 35.3389 23.5327 35.3389 23.7469V40.624C35.3389 40.835 35.5102 41.0096 35.7245 41.0096Z" fill="#F5D09B"/>
<path d="M32.7086 41.0096H32.702C32.4878 41.0096 32.3164 40.8383 32.3164 40.624V23.7469C32.3164 23.5327 32.4878 23.3613 32.702 23.3613H32.7086C32.9228 23.3613 33.0942 23.5327 33.0942 23.7469V40.624C33.0942 40.835 32.9228 41.0096 32.7086 41.0096Z" fill="#F5D09B"/>
<path d="M34.2909 41.0096H34.2975C34.5117 41.0096 34.683 40.8383 34.683 40.624V23.7469C34.683 23.5327 34.5117 23.3613 34.2975 23.3613H34.2909C34.0766 23.3613 33.9053 23.5327 33.9053 23.7469V40.624C33.9053 40.835 34.0766 41.0096 34.2909 41.0096Z" fill="#F5D09B"/>
<path d="M36.7873 42.3742V42.3643C36.7873 42.1402 36.6126 41.959 36.3918 41.9491V41.9458C36.5137 41.9425 36.6093 41.8436 36.6093 41.7217V41.7184C36.6093 41.5964 36.5104 41.4976 36.3918 41.4943V32.7476L35.436 37.0484C34.7374 40.2024 32.3216 42.6939 29.1907 43.4914L28.5547 43.6529V44.6746H38.445V43.6529L36.6225 42.7071C36.7214 42.628 36.7873 42.5093 36.7873 42.3742Z" fill="#F5D09B"/>
<path d="M38.445 43.6494H28.5547V44.6711H38.445V43.6494Z" fill="white"/>
<path d="M38.445 43.6494H28.5547V44.6711H38.445V43.6494Z" fill="#F1DFC1"/>
<path d="M28.5547 43.6496L30.5255 42.6279H36.4709L38.4417 43.6496H28.5547Z" fill="#E9A39B"/>
<path d="M36.3923 22.0005H30.6084V42.371H36.3923V22.0005Z" fill="#E9A39B"/>
<path d="M38.8539 19.021H28.1396V21.5784H38.8539V19.021Z" fill="#E9A39B"/>
<path d="M28.14 19.021C26.9964 19.021 26.0703 19.9471 26.0703 21.0907C26.0703 22.2343 26.9964 23.1604 28.14 23.1604C29.2836 23.1604 30.2097 22.2343 30.2097 21.0907C30.2097 19.9471 29.2836 19.021 28.14 19.021Z" fill="#E9A39B"/>
<path d="M38.8578 19.021C40.0014 19.021 40.9274 19.9471 40.9274 21.0907C40.9274 22.2343 40.0014 23.1604 38.8578 23.1604C37.7142 23.1604 36.7881 22.2343 36.7881 21.0907C36.7881 19.9471 37.7142 19.021 38.8578 19.021Z" fill="#E9A39B"/>
<path d="M28.1396 22.7621C27.2168 22.7621 26.4688 22.0107 26.4688 21.0912C26.4688 20.1684 27.2201 19.417 28.1396 19.417C29.0624 19.417 29.8105 20.1684 29.8105 21.0912C29.8138 22.014 29.0624 22.7621 28.1396 22.7621ZM28.1396 19.6444C27.3421 19.6444 26.6929 20.2936 26.6929 21.0912C26.6929 21.8887 27.3421 22.538 28.1396 22.538C28.9372 22.538 29.5864 21.8887 29.5864 21.0912C29.5864 20.2936 28.9372 19.6444 28.1396 19.6444Z" fill="#F1DFC1"/>
<path d="M28.1401 22.1327C27.5666 22.1327 27.0986 21.6647 27.0986 21.0912C27.0986 20.5178 27.5666 20.0498 28.1401 20.0498C28.7135 20.0498 29.1815 20.5178 29.1815 21.0912C29.1848 21.6647 28.7168 22.1327 28.1401 22.1327ZM28.1401 20.2739C27.6918 20.2739 27.326 20.6397 27.326 21.0912C27.326 21.5394 27.6918 21.9053 28.1401 21.9053C28.5883 21.9053 28.9541 21.5394 28.9541 21.0912C28.9574 20.6397 28.5916 20.2739 28.1401 20.2739Z" fill="#F1DFC1"/>
<path d="M28.1415 21.5031C27.914 21.5031 27.7295 21.3186 27.7295 21.0912C27.7295 20.8638 27.914 20.6792 28.1415 20.6792C28.3689 20.6792 28.5534 20.8638 28.5534 21.0912C28.5567 21.3186 28.3689 21.5031 28.1415 21.5031ZM28.1415 20.9033C28.0393 20.9033 27.9569 20.9857 27.9569 21.0879C27.9569 21.19 28.0393 21.2724 28.1415 21.2724C28.2436 21.2724 28.326 21.19 28.326 21.0879C28.3293 20.989 28.2436 20.9033 28.1415 20.9033Z" fill="#F1DFC1"/>
<path d="M38.8574 22.7616C39.7802 22.7616 40.5283 22.0102 40.5283 21.0907C40.5283 20.1679 39.7769 19.4165 38.8574 19.4165C37.9347 19.4165 37.1865 20.1679 37.1865 21.0907C37.1832 22.0135 37.9347 22.7616 38.8574 22.7616ZM38.8574 19.6439C39.655 19.6439 40.3042 20.2931 40.3042 21.0907C40.3042 21.8883 39.655 22.5375 38.8574 22.5375C38.0599 22.5375 37.4106 21.8883 37.4106 21.0907C37.4106 20.2931 38.0599 19.6439 38.8574 19.6439Z" fill="#F1DFC1"/>
<path d="M38.8578 22.1322C39.4313 22.1322 39.8993 21.6642 39.8993 21.0907C39.8993 20.5173 39.4313 20.0493 38.8578 20.0493C38.2844 20.0493 37.8164 20.5173 37.8164 21.0907C37.8131 21.6642 38.2811 22.1322 38.8578 22.1322ZM38.8578 20.2734C39.3061 20.2734 39.6719 20.6392 39.6719 21.0907C39.6719 21.539 39.3061 21.9048 38.8578 21.9048C38.4096 21.9048 38.0438 21.539 38.0438 21.0907C38.0405 20.6392 38.4063 20.2734 38.8578 20.2734Z" fill="#F1DFC1"/>
<path d="M38.8573 21.5026C39.0847 21.5026 39.2693 21.3181 39.2693 21.0907C39.2693 20.8633 39.0847 20.6787 38.8573 20.6787C38.6299 20.6787 38.4454 20.8633 38.4454 21.0907C38.4421 21.3181 38.6299 21.5026 38.8573 21.5026ZM38.8573 20.9028C38.9595 20.9028 39.0419 20.9852 39.0419 21.0874C39.0419 21.1895 38.9595 21.2719 38.8573 21.2719C38.7551 21.2719 38.6728 21.1895 38.6728 21.0874C38.6695 20.9885 38.7551 20.9028 38.8573 20.9028Z" fill="#F1DFC1"/>
<path d="M30.6285 22.4222C30.3978 22.4222 30.21 22.2343 30.21 22.0036V21.9937C30.21 21.763 30.3978 21.5752 30.6285 21.5752H36.3663C36.597 21.5752 36.7848 21.763 36.7848 21.9937V22.0036C36.7848 22.2343 36.597 22.4222 36.3663 22.4222H30.6285Z" fill="#E9A39B"/>
<path d="M30.6285 42.7894C30.3978 42.7894 30.21 42.6015 30.21 42.3708V42.3609C30.21 42.1302 30.3978 41.9424 30.6285 41.9424H36.3663C36.597 41.9424 36.7848 42.1302 36.7848 42.3609V42.3708C36.7848 42.6015 36.597 42.7894 36.3663 42.7894H30.6285Z" fill="#E9A39B"/>
<path d="M31.0242 20.9162C30.6518 20.9162 30.3486 20.613 30.3486 20.2406V20.2274C30.3486 19.855 30.6518 19.5518 31.0242 19.5518H35.9776C36.3501 19.5518 36.6532 19.855 36.6532 20.2274V20.2406C36.6532 20.613 36.3501 20.9162 35.9776 20.9162H31.0242Z" fill="#F1DFC1"/>
<path d="M30.6151 41.9459C30.4899 41.9459 30.3877 41.8437 30.3877 41.7185V41.7152C30.3877 41.59 30.4899 41.4878 30.6151 41.4878H36.3825C36.5078 41.4878 36.6099 41.59 36.6099 41.7152V41.7185C36.6099 41.8437 36.5078 41.9459 36.3825 41.9459H30.6151Z" fill="#F1DFC1"/>
<path d="M30.6151 22.8805C30.4899 22.8805 30.3877 22.7783 30.3877 22.6531V22.6498C30.3877 22.5245 30.4899 22.4224 30.6151 22.4224H36.3825C36.5078 22.4224 36.6099 22.5245 36.6099 22.6498V22.6531C36.6099 22.7783 36.5078 22.8805 36.3825 22.8805H30.6151Z" fill="#F1DFC1"/>
<path d="M31.274 41.0096H31.2674C31.0532 41.0096 30.8818 40.8383 30.8818 40.624V23.7469C30.8818 23.5327 31.0532 23.3613 31.2674 23.3613H31.274C31.4882 23.3613 31.6596 23.5327 31.6596 23.7469V40.624C31.6596 40.835 31.4882 41.0096 31.274 41.0096Z" fill="#F1DFC1"/>
<path d="M35.7235 41.0096H35.7301C35.9443 41.0096 36.1157 40.8383 36.1157 40.624V23.7469C36.1157 23.5327 35.9443 23.3613 35.7301 23.3613H35.7235C35.5093 23.3613 35.3379 23.5327 35.3379 23.7469V40.624C35.3379 40.835 35.5093 41.0096 35.7235 41.0096Z" fill="#F1DFC1"/>
<path d="M32.7076 41.0096H32.701C32.4868 41.0096 32.3154 40.8383 32.3154 40.624V23.7469C32.3154 23.5327 32.4868 23.3613 32.701 23.3613H32.7076C32.9218 23.3613 33.0932 23.5327 33.0932 23.7469V40.624C33.0932 40.835 32.9218 41.0096 32.7076 41.0096Z" fill="#F1DFC1"/>
<path d="M34.2899 41.0096H34.2965C34.5107 41.0096 34.6821 40.8383 34.6821 40.624V23.7469C34.6821 23.5327 34.5107 23.3613 34.2965 23.3613H34.2899C34.0757 23.3613 33.9043 23.5327 33.9043 23.7469V40.624C33.9043 40.835 34.0757 41.0096 34.2899 41.0096Z" fill="#F1DFC1"/>
</g>
<defs>
<filter id="filter0_d_1039_39980" x="0" y="0.960449" width="66" height="65.9834" filterUnits="userSpaceOnUse" color-interpolation-filters="sRGB">
<feFlood flood-opacity="0" result="BackgroundImageFix"/>
<feColorMatrix in="SourceAlpha" type="matrix" values="0 0 0 0 0 0 0 0 0 0 0 0 0 0 0 0 0 0 127 0" result="hardAlpha"/>
<feOffset/>
<feGaussianBlur stdDeviation="2.5"/>
<feComposite in2="hardAlpha" operator="out"/>
<feColorMatrix type="matrix" values="0 0 0 0 0 0 0 0 0 0 0 0 0 0 0 0 0 0 0.3 0"/>
<feBlend mode="normal" in2="BackgroundImageFix" result="effect1_dropShadow_1039_39980"/>
<feBlend mode="normal" in="SourceGraphic" in2="effect1_dropShadow_1039_39980" result="shape"/>
</filter>
</defs>
</svg>
