<svg width="56" height="57" viewBox="0 0 56 57" fill="none" xmlns="http://www.w3.org/2000/svg">
<path d="M0 47.7128C0.0659134 47.6997 0.135121 47.6931 0.20433 47.6931C0.74482 47.6931 1.18643 48.0819 1.18643 48.5598C1.18643 49.0377 0.748115 49.4266 0.20433 49.4266C0.135121 49.4266 0.0659134 49.42 0 49.4068V50.7284C0.0659134 50.7152 0.135121 50.7086 0.20433 50.7086C0.74482 50.7086 1.18643 51.0975 1.18643 51.5754C1.18643 52.0532 0.748115 52.4421 0.20433 52.4421C0.135121 52.4421 0.0659134 52.4355 0 52.4223V53.7439C0.0659134 53.7307 0.135121 53.7241 0.20433 53.7241C0.74482 53.7241 1.18643 54.113 1.18643 54.5909C1.18643 55.0688 0.748115 55.4577 0.20433 55.4577C0.135121 55.4577 0.0659134 55.4511 0 55.4379V56.944H2.62994C2.59698 56.8583 2.57722 56.7693 2.57722 56.6738C2.57722 56.1959 3.01553 55.807 3.55932 55.807C4.1031 55.807 4.54142 56.1959 4.54142 56.6738C4.54142 56.7693 4.51836 56.8583 4.4887 56.944H6.15961C6.12665 56.8583 6.10686 56.7693 6.10686 56.6738C6.10686 56.1959 6.5452 55.807 7.08899 55.807C7.63277 55.807 8.07109 56.1959 8.07109 56.6738C8.07109 56.7693 8.04803 56.8583 8.01837 56.944H9.68925C9.6563 56.8583 9.63653 56.7693 9.63653 56.6738C9.63653 56.1959 10.0749 55.807 10.6186 55.807C11.1591 55.807 11.6008 56.1959 11.6008 56.6738C11.6008 56.7693 11.5777 56.8583 11.548 56.944H13.2189C13.186 56.8583 13.1662 56.7693 13.1662 56.6738C13.1662 56.1959 13.6045 55.807 14.1483 55.807C14.6888 55.807 15.1304 56.1959 15.1304 56.6738C15.1304 56.7693 15.1073 56.8583 15.0777 56.944H16.7486C16.7156 56.8583 16.6959 56.7693 16.6959 56.6738C16.6959 56.1959 17.1342 55.807 17.678 55.807C18.2185 55.807 18.6601 56.1959 18.6601 56.6738C18.6601 56.7693 18.637 56.8583 18.6073 56.944H20.2782C20.2453 56.8583 20.2255 56.7693 20.2255 56.6738C20.2255 56.1959 20.6638 55.807 21.2076 55.807C21.7481 55.807 22.1897 56.1959 22.1897 56.6738C22.1897 56.7693 22.1667 56.8583 22.137 56.944H23.8079C23.775 56.8583 23.7552 56.7693 23.7552 56.6738C23.7552 56.1959 24.1935 55.807 24.7373 55.807C25.2778 55.807 25.7194 56.1959 25.7194 56.6738C25.7194 56.7693 25.6963 56.8583 25.6667 56.944H27.3376C27.3046 56.8583 27.2848 56.7693 27.2848 56.6738C27.2848 56.1959 27.7232 55.807 28.2669 55.807C28.8107 55.807 29.2491 56.1959 29.2491 56.6738C29.2491 56.7693 29.226 56.8583 29.1963 56.944H30.8672C30.8343 56.8583 30.8145 56.7693 30.8145 56.6738C30.8145 56.1959 31.2528 55.807 31.7966 55.807C32.3371 55.807 32.7787 56.1959 32.7787 56.6738C32.7787 56.7693 32.7556 56.8583 32.726 56.944H34.3969C34.3639 56.8583 34.3442 56.7693 34.3442 56.6738C34.3442 56.1959 34.7825 55.807 35.3263 55.807C35.8668 55.807 36.3084 56.1959 36.3084 56.6738C36.3084 56.7693 36.2853 56.8583 36.2557 56.944H37.9266C37.8936 56.8583 37.8738 56.7693 37.8738 56.6738C37.8738 56.1959 38.3121 55.807 38.8559 55.807C39.3964 55.807 39.838 56.1959 39.838 56.6738C39.838 56.7693 39.815 56.8583 39.7853 56.944H41.4562C41.4233 56.8583 41.4035 56.7693 41.4035 56.6738C41.4035 56.1959 41.8418 55.807 42.3856 55.807C42.9294 55.807 43.3677 56.1959 43.3677 56.6738C43.3677 56.7693 43.3446 56.8583 43.315 56.944H44.9859C44.9529 56.8583 44.9331 56.7693 44.9331 56.6738C44.9331 56.1959 45.3715 55.807 45.9153 55.807C46.4558 55.807 46.8974 56.1959 46.8974 56.6738C46.8974 56.7693 46.8743 56.8583 46.8446 56.944H48.5155C48.4826 56.8583 48.4628 56.7693 48.4628 56.6738C48.4628 56.1959 48.9011 55.807 49.4449 55.807C49.9854 55.807 50.427 56.1959 50.427 56.6738C50.427 56.7693 50.404 56.8583 50.3743 56.944H52.0452C52.0122 56.8583 51.9925 56.7693 51.9925 56.6738C51.9925 56.1959 52.4308 55.807 52.9746 55.807C53.5151 55.807 53.9567 56.1959 53.9567 56.6738C53.9567 56.7693 53.9336 56.8583 53.904 56.944H56V55.4577C55.4595 55.4577 55.0179 55.0688 55.0179 54.5909C55.0179 54.113 55.4562 53.7241 56 53.7241V52.4421C55.4595 52.4421 55.0179 52.0532 55.0179 51.5754C55.0179 51.0975 55.4562 50.7086 56 50.7086V49.4266C55.4595 49.4266 55.0179 49.0377 55.0179 48.5598C55.0179 48.0819 55.4562 47.6931 56 47.6931V47.6832V46.4012C55.4595 46.4012 55.0179 46.0123 55.0179 45.5344C55.0179 45.0565 55.4562 44.6676 56 44.6676V43.3856C55.4595 43.3856 55.0179 42.9967 55.0179 42.5189C55.0179 42.041 55.4562 41.6521 56 41.6521V40.3701C55.4595 40.3701 55.0179 39.9812 55.0179 39.5033C55.0179 39.0255 55.4562 38.6366 56 38.6366V37.3545C55.4595 37.3545 55.0179 36.9657 55.0179 36.4878C55.0179 36.0099 55.4562 35.621 56 35.621V34.339C55.4595 34.339 55.0179 33.9501 55.0179 33.4722C55.0179 32.9944 55.4562 32.6055 56 32.6055V31.3235C55.4595 31.3235 55.0179 30.9346 55.0179 30.4567C55.0179 29.9788 55.4562 29.59 56 29.59V28.3079C55.4595 28.3079 55.0179 27.9191 55.0179 27.4412C55.0179 26.9633 55.4562 26.5744 56 26.5744V25.2891C55.4595 25.2891 55.0179 24.9002 55.0179 24.4223C55.0179 23.9445 55.4562 23.5556 56 23.5556V22.2736C55.4595 22.2736 55.0179 21.8847 55.0179 21.4068C55.0179 20.9289 55.4562 20.54 56 20.54V19.258C55.4595 19.258 55.0179 18.8691 55.0179 18.3913C55.0179 17.9134 55.4562 17.5245 56 17.5245V16.2425C55.4595 16.2425 55.0179 15.8536 55.0179 15.3757C55.0179 14.8979 55.4562 14.509 56 14.509V13.227C55.4595 13.227 55.0179 12.8381 55.0179 12.3602C55.0179 11.8823 55.4562 11.4934 56 11.4934V10.2114C55.4595 10.2114 55.0179 9.82253 55.0179 9.34466C55.0179 8.86679 55.4562 8.4779 56 8.4779V7.19589C55.4595 7.19589 55.0179 6.807 55.0179 6.32913C55.0179 5.85125 55.4562 5.46236 56 5.46236V4.18035C55.4595 4.18035 55.0179 3.79146 55.0179 3.31359C55.0179 2.83572 55.4562 2.44683 56 2.44683V0.96048H53.9567C53.9567 1.43835 53.5184 1.82724 52.9746 1.82724C52.4341 1.82724 51.9925 1.43835 51.9925 0.96048H50.4303C50.4303 1.43835 49.992 1.82724 49.4482 1.82724C48.9077 1.82724 48.4661 1.43835 48.4661 0.96048H46.904C46.904 1.43835 46.4656 1.82724 45.9218 1.82724C45.3814 1.82724 44.9397 1.43835 44.9397 0.96048H43.3776C43.3776 1.43835 42.9393 1.82724 42.3955 1.82724C41.8517 1.82724 41.4134 1.43835 41.4134 0.96048H39.8512C39.8512 1.43835 39.4129 1.82724 38.8691 1.82724C38.3286 1.82724 37.887 1.43835 37.887 0.96048H36.3249C36.3249 1.43835 35.8865 1.82724 35.3428 1.82724C34.8023 1.82724 34.3606 1.43835 34.3606 0.96048H32.7985C32.7985 1.43835 32.3602 1.82724 31.8164 1.82724C31.2759 1.82724 30.8343 1.43835 30.8343 0.96048H29.2721C29.2721 1.43835 28.8338 1.82724 28.29 1.82724C27.7462 1.82724 27.3079 1.43835 27.3079 0.96048H25.7458C25.7458 1.43835 25.3074 1.82724 24.7637 1.82724C24.2232 1.82724 23.7815 1.43835 23.7815 0.96048H22.2194C22.2194 1.43835 21.7811 1.82724 21.2373 1.82724C20.6968 1.82724 20.2552 1.43835 20.2552 0.96048H18.693C18.693 1.43835 18.2547 1.82724 17.7109 1.82724C17.1704 1.82724 16.7288 1.43835 16.7288 0.96048H15.1667C15.1667 1.43835 14.7283 1.82724 14.1846 1.82724C13.6441 1.82724 13.2024 1.43835 13.2024 0.96048H11.6403C11.6403 1.43835 11.202 1.82724 10.6582 1.82724C10.1177 1.82724 9.67608 1.43835 9.67608 0.96048H8.11394C8.11394 1.43835 7.67562 1.82724 7.13183 1.82724C6.58805 1.82724 6.14971 1.43835 6.14971 0.96048H4.58757C4.58757 1.43835 4.14925 1.82724 3.60546 1.82724C3.06168 1.82724 2.62334 1.43835 2.62334 0.96048H0.049423V2.4666C0.115336 2.45342 0.184544 2.44683 0.253753 2.44683C0.794243 2.44683 1.23588 2.83572 1.23588 3.31359C1.23588 3.79146 0.797538 4.18035 0.253753 4.18035C0.184544 4.18035 0.115336 4.17376 0.049423 4.16058V5.48214C0.115336 5.46895 0.184544 5.46236 0.253753 5.46236C0.794243 5.46236 1.23588 5.85125 1.23588 6.32913C1.23588 6.807 0.797538 7.19589 0.253753 7.19589C0.184544 7.19589 0.115336 7.1893 0.049423 7.17612V8.49767C0.115336 8.48449 0.184544 8.4779 0.253753 8.4779C0.794243 8.4779 1.23588 8.86679 1.23588 9.34466C1.23588 9.82253 0.797538 10.2114 0.253753 10.2114C0.184544 10.2114 0.115336 10.2048 0.049423 10.1917V11.5132C0.115336 11.5 0.184544 11.4934 0.253753 11.4934C0.794243 11.4934 1.23588 11.8823 1.23588 12.3602C1.23588 12.8381 0.797538 13.227 0.253753 13.227C0.184544 13.227 0.115336 13.2204 0.049423 13.2072V14.5288C0.115336 14.5156 0.184544 14.509 0.253753 14.509C0.794243 14.509 1.23588 14.8979 1.23588 15.3757C1.23588 15.8536 0.797538 16.2425 0.253753 16.2425C0.184544 16.2425 0.115336 16.2359 0.049423 16.2227V17.5443C0.115336 17.5311 0.184544 17.5245 0.253753 17.5245C0.794243 17.5245 1.23588 17.9134 1.23588 18.3913C1.23588 18.8691 0.797538 19.258 0.253753 19.258C0.184544 19.258 0.115336 19.2514 0.049423 19.2383V20.5598C0.115336 20.5466 0.184544 20.54 0.253753 20.54C0.794243 20.54 1.23588 20.9289 1.23588 21.4068C1.23588 21.8847 0.797538 22.2736 0.253753 22.2736C0.184544 22.2736 0.115336 22.267 0.049423 22.2538V23.5754C0.115336 23.5622 0.184544 23.5556 0.253753 23.5556C0.794243 23.5556 1.23588 23.9445 1.23588 24.4223C1.23588 24.9002 0.797538 25.2891 0.253753 25.2891C0.184544 25.2891 0.115336 25.2825 0.049423 25.2693V26.5909C0.115336 26.5777 0.184544 26.5711 0.253753 26.5711C0.794243 26.5711 1.23588 26.96 1.23588 27.4379C1.23588 27.9158 0.797538 28.3046 0.253753 28.3046C0.184544 28.3046 0.115336 28.2981 0.049423 28.2849V29.6064C0.115336 29.5933 0.184544 29.5867 0.253753 29.5867C0.794243 29.5867 1.23588 29.9756 1.23588 30.4534C1.23588 30.9313 0.797538 31.3202 0.253753 31.3202C0.184544 31.3202 0.115336 31.3136 0.049423 31.3004V32.622C0.115336 32.6088 0.184544 32.6022 0.253753 32.6022C0.794243 32.6022 1.23588 32.9911 1.23588 33.469C1.23588 33.9468 0.797538 34.3357 0.253753 34.3357C0.184544 34.3357 0.115336 34.3291 0.049423 34.3159V35.6375C0.115336 35.6243 0.184544 35.6177 0.253753 35.6177C0.794243 35.6177 1.23588 36.0066 1.23588 36.4845C1.23588 36.9624 0.797538 37.3513 0.253753 37.3513C0.184544 37.3513 0.115336 37.3447 0.049423 37.3315V38.653C0.115336 38.6399 0.184544 38.6333 0.253753 38.6333C0.794243 38.6333 1.23588 39.0222 1.23588 39.5C1.23588 39.9779 0.797538 40.3668 0.253753 40.3668C0.184544 40.3668 0.115336 40.3602 0.049423 40.347V41.6686C0.115336 41.6554 0.184544 41.6488 0.253753 41.6488C0.794243 41.6488 1.23588 42.0377 1.23588 42.5156C1.23588 42.9934 0.797538 43.3823 0.253753 43.3823C0.184544 43.3823 0.115336 43.3757 0.049423 43.3626V44.6841C0.115336 44.6709 0.184544 44.6643 0.253753 44.6643C0.794243 44.6643 1.23588 45.0532 1.23588 45.5311C1.23588 46.009 0.797538 46.3979 0.253753 46.3979C0.184544 46.3979 0.115336 46.3913 0.049423 46.3781V47.6997C0.115336 47.6865 0.184544 47.6799 0.253753 47.6799" fill="#A98B83"/>
<path d="M52.415 8.81075V48.0259C50.0091 48.1709 48.0976 50.1747 48.0976 52.6135C48.0976 52.8738 48.1207 53.1375 48.1701 53.4044H7.75535C7.80479 53.1375 7.82787 52.8738 7.82787 52.6135C7.82787 50.1747 5.91637 48.1709 3.51053 48.0259V8.81075C5.82409 8.66903 7.67955 6.81357 7.81797 4.50002H48.1042C48.2459 6.81357 50.1014 8.66903 52.415 8.81075Z" fill="white"/>
<path d="M52.415 8.81075V48.0259C50.0091 48.1709 48.0976 50.1747 48.0976 52.6135C48.0976 52.8738 48.1207 53.1375 48.1701 53.4044H7.75535C7.80479 53.1375 7.82787 52.8738 7.82787 52.6135C7.82787 50.1747 5.91637 48.1709 3.51053 48.0259V8.81075C5.82409 8.66903 7.67955 6.81357 7.81797 4.50002H48.1042C48.2459 6.81357 50.1014 8.66903 52.415 8.81075Z" fill="#AB8C85"/>
<path d="M52.6942 8.2571C50.4663 8.2571 48.657 6.44778 48.657 4.21991C48.657 4.06501 48.5318 3.93977 48.3769 3.93977H7.54681C7.39192 3.93977 7.26669 4.06501 7.26669 4.21991C7.26669 6.44778 5.45407 8.2571 3.2295 8.2571C3.0746 8.2571 2.94937 8.38234 2.94937 8.53724V48.2995C2.94937 48.4511 3.0746 48.5796 3.2295 48.5796C5.45407 48.5796 7.26669 50.3889 7.26669 52.6135C7.26669 52.9398 7.22054 53.2759 7.13485 53.6154C7.11508 53.7011 7.13157 53.7901 7.1843 53.856C7.23703 53.9252 7.31942 53.9647 7.4084 53.9647H48.5153C48.601 53.9647 48.6834 53.9252 48.7361 53.856C48.7888 53.7901 48.8086 53.7011 48.7855 53.6154C48.6998 53.2759 48.657 52.9398 48.657 52.6135C48.657 50.3889 50.4663 48.5796 52.6942 48.5796C52.8491 48.5796 52.9743 48.4511 52.9743 48.2995V8.53724C52.9743 8.38234 52.8491 8.2571 52.6942 8.2571ZM52.4141 48.0259C50.0082 48.1709 48.0967 50.1747 48.0967 52.6135C48.0967 52.8739 48.1198 53.1375 48.1692 53.4045H7.75444C7.80388 53.1375 7.82696 52.8739 7.82696 52.6135C7.82696 50.1747 5.91546 48.1709 3.50962 48.0259V8.81077C5.82318 8.66906 7.67864 6.8136 7.81706 4.50004H48.1033C48.245 6.8136 50.1005 8.66906 52.4141 8.81077V48.0259Z" fill="#F1DFC1"/>
<path d="M52.3549 8.76136V47.9798C51.1879 48.055 50.093 48.5705 49.2915 49.4221C48.49 50.2738 48.0419 51.3979 48.0376 52.5674C48.0375 52.8327 48.0618 53.0975 48.1101 53.3583H7.69532C7.74365 53.0975 7.76792 52.8327 7.76783 52.5674C7.76462 51.3995 7.31865 50.2763 6.51987 49.4243C5.72109 48.5723 4.62893 48.0549 3.46368 47.9765V8.75806C4.57831 8.68055 5.62694 8.2012 6.41488 7.40902C7.20282 6.61684 7.67652 5.56565 7.74805 4.45062H48.0442C48.1157 5.57046 48.5928 6.62588 49.3862 7.41933C50.1797 8.21279 51.2351 8.6899 52.3549 8.76136Z" fill="white"/>
<path d="M27.9599 7.30819C28.3131 7.30819 28.5993 7.02193 28.5993 6.66883C28.5993 6.31572 28.3131 6.02946 27.9599 6.02946C27.6068 6.02946 27.3206 6.31572 27.3206 6.66883C27.3206 7.02193 27.6068 7.30819 27.9599 7.30819Z" fill="#F5CBD9"/>
<path d="M27.9594 9.1998C27.8803 9.1998 27.8177 9.13719 27.8177 9.05809V8.08258C27.8177 8.00348 27.8803 7.94086 27.9594 7.94086C28.0385 7.94086 28.1011 8.00348 28.1011 8.08258V9.05809C28.1011 9.13719 28.0385 9.1998 27.9594 9.1998Z" fill="#F5CBD9"/>
<path d="M27.9594 11.8857C27.8803 11.8857 27.8177 11.8231 27.8177 11.744V9.6644C27.8177 9.58531 27.8803 9.52269 27.9594 9.52269C28.0385 9.52269 28.1011 9.58531 28.1011 9.6644V11.744C28.1011 11.8231 28.0385 11.8857 27.9594 11.8857Z" fill="#F5CBD9"/>
<path d="M29.155 8.88011C29.1055 8.88011 29.0594 8.85374 29.033 8.8109L28.5453 7.96391C28.5057 7.898 28.5288 7.81231 28.598 7.77277C28.6639 7.73322 28.7496 7.75629 28.7891 7.8255L29.2769 8.67248C29.3164 8.73839 29.2934 8.82408 29.2242 8.86363C29.2044 8.87352 29.1813 8.88011 29.155 8.88011Z" fill="#F5CBD9"/>
<path d="M30.4992 11.2037C30.4497 11.2037 30.4036 11.1773 30.3772 11.1344L29.3391 9.335C29.2995 9.26909 29.3226 9.18341 29.3918 9.14386C29.4577 9.10431 29.5434 9.12738 29.583 9.19659L30.6211 10.996C30.6606 11.0619 30.6376 11.1476 30.5684 11.1872C30.5453 11.2004 30.5222 11.2037 30.4992 11.2037Z" fill="#F5CBD9"/>
<path d="M30.032 8.00344C30.009 8.00344 29.9826 7.99685 29.9628 7.98367L29.1191 7.49591C29.0532 7.45637 29.0302 7.37067 29.0664 7.30476C29.106 7.23885 29.1916 7.21577 29.2575 7.25203L30.1012 7.73979C30.1671 7.77934 30.1902 7.86502 30.154 7.93093C30.1276 7.97707 30.0815 8.00344 30.032 8.00344Z" fill="#F5CBD9"/>
<path d="M31.3037 8.73843C31.2806 8.73843 31.2542 8.73184 31.2344 8.71865L30.4863 8.28692C30.4204 8.24737 30.3973 8.16168 30.4336 8.09577C30.4731 8.02985 30.5588 8.00679 30.6247 8.04305L31.3729 8.47478C31.4388 8.51433 31.4618 8.60001 31.4256 8.66592C31.3992 8.71206 31.3531 8.73843 31.3037 8.73843Z" fill="#F5CBD9"/>
<path d="M30.3505 6.80721H29.3749C29.2959 6.80721 29.2332 6.74458 29.2332 6.66548C29.2332 6.58639 29.2959 6.52377 29.3749 6.52377H30.3505C30.4295 6.52377 30.4922 6.58639 30.4922 6.66548C30.4922 6.74458 30.4295 6.80721 30.3505 6.80721Z" fill="#F5CBD9"/>
<path d="M32.8687 6.80721H30.9573C30.8782 6.80721 30.8156 6.74458 30.8156 6.66548C30.8156 6.58639 30.8782 6.52377 30.9573 6.52377H32.8687C32.9478 6.52377 33.0105 6.58639 33.0105 6.66548C33.0105 6.74458 32.9478 6.80721 32.8687 6.80721Z" fill="#F5CBD9"/>
<path d="M26.5449 6.80721H25.5694C25.4903 6.80721 25.4276 6.74458 25.4276 6.66548C25.4276 6.58639 25.4903 6.52377 25.5694 6.52377H26.5449C26.624 6.52377 26.6866 6.58639 26.6866 6.66548C26.6833 6.74458 26.6207 6.80721 26.5449 6.80721Z" fill="#F5CBD9"/>
<path d="M24.9622 6.80721H23.0508C22.9717 6.80721 22.909 6.74458 22.909 6.66548C22.909 6.58639 22.9717 6.52377 23.0508 6.52377H24.9622C25.0413 6.52377 25.104 6.58639 25.104 6.66548C25.1007 6.74458 25.038 6.80721 24.9622 6.80721Z" fill="#F5CBD9"/>
<path d="M25.8884 8.00341C25.839 8.00341 25.7928 7.97705 25.7665 7.9342C25.7269 7.86829 25.75 7.78261 25.8192 7.74306L26.6629 7.25529C26.7288 7.21575 26.8145 7.23882 26.854 7.30803C26.8936 7.37394 26.8705 7.45962 26.8013 7.49917L25.9576 7.98693C25.9345 7.99682 25.9115 8.00341 25.8884 8.00341Z" fill="#F5CBD9"/>
<path d="M24.6625 8.71204C24.6131 8.71204 24.5669 8.68567 24.5406 8.64283C24.501 8.57691 24.5241 8.49123 24.5933 8.45168L25.2953 8.04631C25.3612 8.00676 25.4469 8.02983 25.4864 8.09904C25.526 8.16496 25.5029 8.25065 25.4337 8.2902L24.7317 8.69556C24.7086 8.70544 24.6856 8.71204 24.6625 8.71204Z" fill="#F5CBD9"/>
<path d="M26.7646 8.88005C26.7415 8.88005 26.7152 8.87346 26.6954 8.86027C26.6295 8.82072 26.6064 8.73504 26.6426 8.66913L27.1304 7.82214C27.17 7.75623 27.2556 7.73315 27.3215 7.76941C27.3875 7.80896 27.4105 7.89465 27.3743 7.96056L26.8865 8.80754C26.8601 8.85368 26.8107 8.88005 26.7646 8.88005Z" fill="#F5CBD9"/>
<path d="M25.4208 11.2036C25.3978 11.2036 25.3714 11.197 25.3516 11.1838C25.2857 11.1443 25.2626 11.0586 25.2989 10.9927L26.3403 9.19325C26.3799 9.12733 26.4656 9.10426 26.5315 9.14052C26.5974 9.18006 26.6205 9.26575 26.5842 9.33166L25.5428 11.1311C25.5164 11.1805 25.4703 11.2036 25.4208 11.2036Z" fill="#F5CBD9"/>
<path d="M27.9599 51.8752C28.3131 51.8752 28.5993 51.589 28.5993 51.2359C28.5993 50.8828 28.3131 50.5965 27.9599 50.5965C27.6068 50.5965 27.3206 50.8828 27.3206 51.2359C27.3206 51.589 27.6068 51.8752 27.9599 51.8752Z" fill="#F5CBD9"/>
<path d="M27.9594 49.9605C27.8803 49.9605 27.8177 49.8979 27.8177 49.8188V48.8432C27.8177 48.7641 27.8803 48.7015 27.9594 48.7015C28.0385 48.7015 28.1011 48.7641 28.1011 48.8432V49.8188C28.1011 49.8979 28.0385 49.9605 27.9594 49.9605Z" fill="#F5CBD9"/>
<path d="M27.9594 48.3784C27.8803 48.3784 27.8177 48.3158 27.8177 48.2367V46.1572C27.8177 46.0781 27.8803 46.0154 27.9594 46.0154C28.0385 46.0154 28.1011 46.0781 28.1011 46.1572V48.2367C28.1011 48.3158 28.0385 48.3784 27.9594 48.3784Z" fill="#F5CBD9"/>
<path d="M27.2526 50.1515C27.2032 50.1515 27.157 50.1251 27.1307 50.0823L26.6429 49.2386C26.6033 49.1727 26.6264 49.087 26.6956 49.0474C26.7615 49.0079 26.8472 49.0309 26.8868 49.1001L27.3745 49.9438C27.4141 50.0097 27.391 50.0954 27.3218 50.135C27.2987 50.1449 27.2757 50.1515 27.2526 50.1515Z" fill="#F5CBD9"/>
<path d="M26.4625 48.7806C26.4131 48.7806 26.3669 48.7543 26.3406 48.7114L25.2991 46.912C25.2596 46.8461 25.2827 46.7604 25.3519 46.7208C25.4178 46.6813 25.5035 46.7044 25.543 46.7736L26.5844 48.573C26.624 48.6389 26.6009 48.7246 26.5317 48.7642C26.5087 48.774 26.4856 48.7806 26.4625 48.7806Z" fill="#F5CBD9"/>
<path d="M26.7318 50.6691C26.7087 50.6691 26.6824 50.6625 26.6626 50.6494L25.8189 50.1616C25.753 50.1221 25.7299 50.0364 25.7662 49.9705C25.8057 49.9045 25.8914 49.8815 25.9573 49.9177L26.801 50.4055C26.8669 50.445 26.89 50.5307 26.8537 50.5966C26.8274 50.6428 26.7812 50.6691 26.7318 50.6691Z" fill="#F5CBD9"/>
<path d="M25.3658 49.8781C25.3428 49.8781 25.3164 49.8715 25.2966 49.8583L24.5485 49.4266C24.4826 49.3871 24.4595 49.3014 24.4958 49.2355C24.5353 49.1695 24.621 49.1465 24.6869 49.1827L25.435 49.6145C25.501 49.654 25.524 49.7397 25.4878 49.8056C25.4614 49.8518 25.412 49.8781 25.3658 49.8781Z" fill="#F5CBD9"/>
<path d="M26.5449 51.3775H25.5694C25.4903 51.3775 25.4276 51.3148 25.4276 51.2357C25.4276 51.1567 25.4903 51.094 25.5694 51.094H26.5449C26.624 51.094 26.6866 51.1567 26.6866 51.2357C26.6833 51.3148 26.6207 51.3775 26.5449 51.3775Z" fill="#F5CBD9"/>
<path d="M24.9622 51.3775H23.0508C22.9717 51.3775 22.909 51.3148 22.909 51.2357C22.909 51.1567 22.9717 51.094 23.0508 51.094H24.9622C25.0413 51.094 25.104 51.1567 25.104 51.2357C25.1007 51.3148 25.038 51.3775 24.9622 51.3775Z" fill="#F5CBD9"/>
<path d="M30.3505 51.3775H29.3749C29.2959 51.3775 29.2332 51.3148 29.2332 51.2357C29.2332 51.1567 29.2959 51.094 29.3749 51.094H30.3505C30.4295 51.094 30.4922 51.1567 30.4922 51.2357C30.4922 51.3148 30.4295 51.3775 30.3505 51.3775Z" fill="#F5CBD9"/>
<path d="M32.8687 51.3775H30.9573C30.8782 51.3775 30.8156 51.3148 30.8156 51.2357C30.8156 51.1567 30.8782 51.094 30.9573 51.094H32.8687C32.9478 51.094 33.0105 51.1567 33.0105 51.2357C33.0105 51.3148 32.9478 51.3775 32.8687 51.3775Z" fill="#F5CBD9"/>
<path d="M29.1873 50.669C29.1379 50.669 29.0918 50.6427 29.0654 50.5998C29.0259 50.5339 29.0489 50.4482 29.1181 50.4087L29.9618 49.9209C30.0277 49.8814 30.1134 49.9044 30.153 49.9737C30.1925 50.0396 30.1694 50.1253 30.1002 50.1648L29.2565 50.6526C29.2335 50.6624 29.2104 50.669 29.1873 50.669Z" fill="#F5CBD9"/>
<path d="M30.5557 49.878C30.5063 49.878 30.4602 49.8517 30.4338 49.8088C30.3943 49.7429 30.4173 49.6572 30.4865 49.6177L31.1885 49.2123C31.2544 49.1728 31.3401 49.1958 31.3797 49.265C31.4192 49.3309 31.3961 49.4166 31.3269 49.4562L30.625 49.8616C30.6052 49.8714 30.5821 49.878 30.5557 49.878Z" fill="#F5CBD9"/>
<path d="M28.6684 50.1516C28.6453 50.1516 28.6189 50.145 28.5991 50.1318C28.5332 50.0922 28.5102 50.0065 28.5464 49.9406L29.0342 49.0969C29.0737 49.031 29.1594 49.008 29.2253 49.0442C29.2912 49.0838 29.3143 49.1695 29.278 49.2354L28.7903 50.0791C28.7639 50.1252 28.7178 50.1516 28.6684 50.1516Z" fill="#F5CBD9"/>
<path d="M29.458 48.7806C29.435 48.7806 29.4086 48.774 29.3888 48.7609C29.3229 48.7213 29.2998 48.6356 29.3361 48.5697L30.3742 46.7703C30.4138 46.7044 30.4995 46.6813 30.5654 46.7175C30.6313 46.7571 30.6544 46.8428 30.6181 46.9087L29.58 48.7081C29.5536 48.7543 29.5075 48.7806 29.458 48.7806Z" fill="#F5CBD9"/>
<path d="M50.2452 28.3111C49.8926 28.3111 49.6058 28.5978 49.6058 28.9505C49.6058 29.3031 49.8926 29.5898 50.2452 29.5898C50.5978 29.5898 50.8846 29.3031 50.8846 28.9505C50.8879 28.5978 50.6011 28.3111 50.2452 28.3111Z" fill="#F5CBD9"/>
<path d="M48.8301 29.0921H47.8546C47.7755 29.0921 47.7129 29.0295 47.7129 28.9504C47.7129 28.8713 47.7755 28.8087 47.8546 28.8087H48.8301C48.9092 28.8087 48.9718 28.8713 48.9718 28.9504C48.9685 29.0295 48.9059 29.0921 48.8301 29.0921Z" fill="#F5CBD9"/>
<path d="M47.2475 29.0921H45.1679C45.0888 29.0921 45.0262 29.0295 45.0262 28.9504C45.0262 28.8713 45.0888 28.8087 45.1679 28.8087H47.2475C47.3266 28.8087 47.3892 28.8713 47.3892 28.9504C47.3859 29.0295 47.3233 29.0921 47.2475 29.0921Z" fill="#F5CBD9"/>
<path d="M48.1736 30.2885C48.1242 30.2885 48.078 30.2621 48.0517 30.2193C48.0121 30.1534 48.0352 30.0677 48.1044 30.0281L48.9481 29.5404C49.014 29.5008 49.0997 29.5239 49.1392 29.5931C49.1788 29.659 49.1557 29.7447 49.0865 29.7843L48.2428 30.272C48.2198 30.2819 48.1967 30.2885 48.1736 30.2885Z" fill="#F5CBD9"/>
<path d="M45.8479 31.6298C45.7985 31.6298 45.7523 31.6035 45.726 31.5606C45.6864 31.4947 45.7095 31.409 45.7787 31.3695L47.5781 30.328C47.644 30.2885 47.7297 30.3116 47.7693 30.3808C47.8088 30.4467 47.7857 30.5324 47.7165 30.5719L45.9171 31.6134C45.8973 31.6265 45.871 31.6298 45.8479 31.6298Z" fill="#F5CBD9"/>
<path d="M49.0473 31.165C49.0242 31.165 48.9978 31.1584 48.9781 31.1452C48.9121 31.1057 48.8891 31.02 48.9253 30.9541L49.4131 30.1071C49.4526 30.0412 49.5383 30.0181 49.6042 30.0543C49.6701 30.0939 49.6932 30.1796 49.657 30.2455L49.1692 31.0925C49.1428 31.1386 49.0967 31.165 49.0473 31.165Z" fill="#F5CBD9"/>
<path d="M48.3172 32.4374C48.2942 32.4374 48.2678 32.4308 48.248 32.4176C48.1821 32.378 48.159 32.2923 48.1953 32.2264L48.627 31.4783C48.6666 31.4124 48.7523 31.3893 48.8182 31.4256C48.8841 31.4651 48.9071 31.5508 48.8709 31.6167L48.4392 32.3648C48.4128 32.411 48.3634 32.4374 48.3172 32.4374Z" fill="#F5CBD9"/>
<path d="M50.2446 31.4847C50.1655 31.4847 50.1029 31.4221 50.1029 31.343V30.3675C50.1029 30.2884 50.1655 30.2258 50.2446 30.2258C50.3237 30.2258 50.3863 30.2884 50.3863 30.3675V31.343C50.3863 31.4221 50.3237 31.4847 50.2446 31.4847Z" fill="#F5CBD9"/>
<path d="M50.2446 34.0028C50.1655 34.0028 50.1029 33.9402 50.1029 33.8611V31.9496C50.1029 31.8705 50.1655 31.8079 50.2446 31.8079C50.3237 31.8079 50.3863 31.8705 50.3863 31.9496V33.8611C50.3863 33.9402 50.3237 34.0028 50.2446 34.0028Z" fill="#F5CBD9"/>
<path d="M50.2446 27.6751C50.1655 27.6751 50.1029 27.6124 50.1029 27.5333V26.5578C50.1029 26.4787 50.1655 26.4161 50.2446 26.4161C50.3237 26.4161 50.3863 26.4787 50.3863 26.5578V27.5333C50.3863 27.6124 50.3237 27.6751 50.2446 27.6751Z" fill="#F5CBD9"/>
<path d="M50.2446 26.093C50.1655 26.093 50.1029 26.0304 50.1029 25.9513V24.0398C50.1029 23.9607 50.1655 23.8981 50.2446 23.8981C50.3237 23.8981 50.3863 23.9607 50.3863 24.0398V25.9513C50.3863 26.0304 50.3237 26.093 50.2446 26.093Z" fill="#F5CBD9"/>
<path d="M49.5398 27.8662C49.4903 27.8662 49.4442 27.8398 49.4178 27.797L48.9301 26.95C48.8905 26.8841 48.9136 26.7984 48.9828 26.7588C49.0487 26.7193 49.1344 26.7423 49.1739 26.8116L49.6617 27.6585C49.7012 27.7245 49.6782 27.8101 49.609 27.8497C49.5859 27.8596 49.5628 27.8662 49.5398 27.8662Z" fill="#F5CBD9"/>
<path d="M48.747 26.4951C48.6976 26.4951 48.6514 26.4688 48.6251 26.4259L48.2197 25.7239C48.1802 25.658 48.2032 25.5723 48.2724 25.5328C48.3383 25.4932 48.424 25.5163 48.4636 25.5855L48.8689 26.2875C48.9085 26.3534 48.8854 26.4391 48.8162 26.4786C48.7931 26.4885 48.7701 26.4951 48.747 26.4951Z" fill="#F5CBD9"/>
<path d="M49.0185 28.3836C48.9954 28.3836 48.969 28.377 48.9493 28.3638L48.1056 27.8761C48.0397 27.8365 48.0166 27.7508 48.0529 27.6849C48.0924 27.619 48.1781 27.5959 48.244 27.6322L49.0877 28.1199C49.1536 28.1595 49.1767 28.2452 49.1404 28.3111C49.1141 28.3605 49.0679 28.3836 49.0185 28.3836Z" fill="#F5CBD9"/>
<path d="M47.6509 27.5926C47.6278 27.5926 47.6014 27.5861 47.5817 27.5729L45.7822 26.5314C45.7163 26.4919 45.6932 26.4062 45.7295 26.3403C45.769 26.2744 45.8547 26.2513 45.9206 26.2876L47.7201 27.329C47.786 27.3685 47.809 27.4542 47.7728 27.5201C47.7464 27.5696 47.697 27.5926 47.6509 27.5926Z" fill="#F5CBD9"/>
<path d="M5.67729 29.5931C6.02993 29.5931 6.31665 29.3064 6.31665 28.9537C6.31665 28.6011 6.02993 28.3144 5.67729 28.3144C5.32465 28.3144 5.03793 28.6011 5.03793 28.9537C5.03464 29.3064 5.32136 29.5931 5.67729 29.5931Z" fill="#F5CBD9"/>
<path d="M8.06652 29.0921H7.09099C7.0119 29.0921 6.94928 29.0295 6.94928 28.9504C6.94928 28.8713 7.0119 28.8087 7.09099 28.8087H8.06652C8.14561 28.8087 8.20823 28.8713 8.20823 28.9504C8.20823 29.0295 8.14561 29.0921 8.06652 29.0921Z" fill="#F5CBD9"/>
<path d="M10.7536 29.0921H8.674C8.5949 29.0921 8.53229 29.0295 8.53229 28.9504C8.53229 28.8713 8.5949 28.8087 8.674 28.8087H10.7536C10.8327 28.8087 10.8953 28.8713 10.8953 28.9504C10.8953 29.0295 10.8327 29.0921 10.7536 29.0921Z" fill="#F5CBD9"/>
<path d="M6.90337 28.3835C6.85394 28.3835 6.8078 28.3571 6.78144 28.3143C6.74189 28.2484 6.76495 28.1627 6.83416 28.1231L7.67785 27.6354C7.74376 27.5958 7.82945 27.6189 7.869 27.6881C7.90855 27.754 7.88547 27.8397 7.81626 27.8792L6.97257 28.367C6.9495 28.3769 6.92644 28.3835 6.90337 28.3835Z" fill="#F5CBD9"/>
<path d="M8.27056 27.5925C8.22112 27.5925 8.17498 27.5662 8.14862 27.5233C8.10907 27.4574 8.13215 27.3717 8.20136 27.3322L10.0041 26.2908C10.07 26.2512 10.1557 26.2743 10.1952 26.3435C10.2348 26.4094 10.2117 26.4951 10.1425 26.5346L8.33977 27.5761C8.32 27.586 8.29692 27.5925 8.27056 27.5925Z" fill="#F5CBD9"/>
<path d="M6.38314 27.8663C6.36007 27.8663 6.3337 27.8597 6.31392 27.8465C6.24801 27.8069 6.22495 27.7213 6.2612 27.6553L6.74895 26.8084C6.7885 26.7424 6.87419 26.7194 6.94011 26.7556C7.00602 26.7952 7.02908 26.8809 6.99283 26.9468L6.50508 27.7938C6.47871 27.8399 6.43257 27.8663 6.38314 27.8663Z" fill="#F5CBD9"/>
<path d="M7.1743 26.495C7.15123 26.495 7.12488 26.4885 7.10511 26.4753C7.03919 26.4357 7.01611 26.35 7.05236 26.2841L7.4841 25.536C7.52364 25.4701 7.60934 25.447 7.67525 25.4833C7.74116 25.5228 7.76424 25.6085 7.72799 25.6744L7.29626 26.4225C7.26989 26.472 7.22374 26.495 7.1743 26.495Z" fill="#F5CBD9"/>
<path d="M5.67672 27.6751C5.59762 27.6751 5.535 27.6124 5.535 27.5333V26.5578C5.535 26.4787 5.59762 26.4161 5.67672 26.4161C5.75581 26.4161 5.81843 26.4787 5.81843 26.5578V27.5333C5.81513 27.6124 5.75252 27.6751 5.67672 27.6751Z" fill="#F5CBD9"/>
<path d="M5.67672 26.093C5.59762 26.093 5.535 26.0304 5.535 25.9513V24.0398C5.535 23.9607 5.59762 23.8981 5.67672 23.8981C5.75581 23.8981 5.81843 23.9607 5.81843 24.0398V25.9513C5.81513 26.0304 5.75252 26.093 5.67672 26.093Z" fill="#F5CBD9"/>
<path d="M5.67672 31.4847C5.59762 31.4847 5.535 31.4221 5.535 31.343V30.3675C5.535 30.2884 5.59762 30.2258 5.67672 30.2258C5.75581 30.2258 5.81843 30.2884 5.81843 30.3675V31.343C5.81513 31.4221 5.75252 31.4847 5.67672 31.4847Z" fill="#F5CBD9"/>
<path d="M5.67672 34.0028C5.59762 34.0028 5.535 33.9402 5.535 33.8611V31.9496C5.535 31.8705 5.59762 31.8079 5.67672 31.8079C5.75581 31.8079 5.81843 31.8705 5.81843 31.9496V33.8611C5.81513 33.9402 5.75252 34.0028 5.67672 34.0028Z" fill="#F5CBD9"/>
<path d="M6.87367 31.1651C6.82424 31.1651 6.7781 31.1387 6.75173 31.0959L6.26398 30.2489C6.22443 30.183 6.24749 30.0973 6.3167 30.0578C6.38261 30.0182 6.46831 30.0413 6.50786 30.1105L6.99561 30.9575C7.03516 31.0234 7.0121 31.1091 6.94289 31.1486C6.91982 31.1585 6.89674 31.1651 6.87367 31.1651Z" fill="#F5CBD9"/>
<path d="M7.57865 32.3911C7.52921 32.3911 7.48307 32.3647 7.45671 32.3219L7.05133 31.6199C7.01178 31.554 7.03486 31.4683 7.10407 31.4288C7.16998 31.3892 7.25568 31.4123 7.29522 31.4815L7.70059 32.1835C7.74013 32.2494 7.71705 32.3351 7.64784 32.3746C7.62807 32.3845 7.60501 32.3911 7.57865 32.3911Z" fill="#F5CBD9"/>
<path d="M7.74682 30.2886C7.72375 30.2886 7.69738 30.282 7.6776 30.2688L6.83391 29.7811C6.768 29.7415 6.74494 29.6558 6.78119 29.5899C6.82074 29.524 6.90641 29.5009 6.97232 29.5372L7.81601 30.0249C7.88193 30.0645 7.90501 30.1502 7.86876 30.2161C7.84239 30.2622 7.79625 30.2886 7.74682 30.2886Z" fill="#F5CBD9"/>
<path d="M10.0742 31.6298C10.0511 31.6298 10.0247 31.6232 10.005 31.61L8.20224 30.5686C8.13633 30.529 8.11325 30.4434 8.1495 30.3774C8.18905 30.3115 8.27474 30.2885 8.34066 30.3247L10.1434 31.3661C10.2093 31.4057 10.2324 31.4914 10.1961 31.5573C10.1698 31.6067 10.1236 31.6298 10.0742 31.6298Z" fill="#F5CBD9"/>
<path d="M21.5834 10.2341C21.5043 10.2341 21.4285 10.2308 21.3527 10.2209C20.7068 10.1451 20.1234 9.73648 19.8664 9.17951C19.5928 8.58629 19.7148 7.83818 20.1564 7.39656C20.6244 6.92857 21.4252 6.85607 21.9394 7.23837C22.3546 7.54816 22.5227 8.1249 22.3216 8.55004C22.2096 8.78733 21.9624 8.9653 21.6823 9.01803C21.4285 9.06417 21.1879 8.99825 21.0199 8.83676C20.9638 8.78403 20.9638 8.69506 21.0166 8.63903C21.0693 8.583 21.1583 8.583 21.2143 8.63573C21.3165 8.7346 21.4648 8.77086 21.6328 8.74119C21.8273 8.70494 21.9921 8.58629 22.0679 8.4281C22.2162 8.11831 22.0844 7.69317 21.7746 7.46247C21.3659 7.15927 20.7298 7.21859 20.3541 7.5943C19.9916 7.95353 19.896 8.57312 20.1201 9.06087C20.3377 9.53216 20.8353 9.87819 21.3824 9.94081C21.8998 10.0034 22.4667 9.81887 22.8984 9.45635C23.485 8.9587 23.752 8.15786 23.5509 7.50532C23.4059 7.03733 23.0302 6.63196 22.526 6.38808C22.0942 6.18045 21.5669 6.08818 20.9605 6.11125C19.9982 6.1475 19.0029 6.454 18.0076 7.02085C17.2397 7.45918 16.1489 8.14467 15.3052 8.93234C15.2524 8.97848 15.1734 8.98178 15.1206 8.93894C15.0646 8.8928 15.0547 8.81699 15.091 8.75767C15.4238 8.21718 15.6611 7.73601 15.8226 7.27792C14.7053 8.24355 13.397 9.00814 12.0095 9.50249C11.3965 9.72001 10.5858 9.954 9.75526 9.83865C8.89839 9.71671 8.17663 9.1927 7.91627 8.50391C7.75149 8.06888 7.78445 7.55475 8.00526 7.09995C8.22937 6.64185 8.61167 6.3024 9.05658 6.16398C9.62014 5.98931 10.2529 6.13432 10.6352 6.52321C11.0603 6.95823 11.1263 7.66021 10.7868 8.12161C10.6088 8.36219 10.3122 8.52368 9.99256 8.54675C9.69266 8.57312 9.40921 8.47754 9.21477 8.28639C9.15874 8.23366 9.15874 8.14467 9.21147 8.08865C9.2642 8.03262 9.3532 8.03262 9.40922 8.08865C9.54434 8.22048 9.74538 8.28968 9.96619 8.26991C10.2068 8.25013 10.4276 8.13479 10.5561 7.95682C10.8132 7.60748 10.7538 7.05051 10.4309 6.71765C10.1211 6.40126 9.60037 6.28591 9.13568 6.42763C8.76327 6.54298 8.44359 6.82971 8.25244 7.2186C8.06459 7.60749 8.03493 8.03922 8.17335 8.40174C8.40075 8.99826 9.03351 9.44976 9.79151 9.55851C10.5627 9.66727 11.3306 9.44317 11.9139 9.23554C13.4233 8.69835 14.8372 7.83489 16.0006 6.73413C16.0467 6.69129 16.1126 6.6847 16.1686 6.71436C16.2214 6.74402 16.2477 6.80663 16.2345 6.86925C16.1324 7.29768 15.9676 7.72942 15.727 8.2007C16.4587 7.62066 17.2628 7.11972 17.8692 6.77697C18.904 6.18704 19.9422 5.86737 20.9507 5.83111C21.6032 5.80475 22.1766 5.91022 22.6479 6.13762C23.2247 6.41445 23.6498 6.88244 23.8212 7.42293C24.0585 8.18093 23.752 9.10371 23.0829 9.67057C22.6545 10.0331 22.1074 10.2341 21.5834 10.2341Z" fill="#F1DFC1"/>
<path d="M21.1231 9.92445C21.044 9.92445 20.9682 9.92116 20.8924 9.91127C20.6881 9.8882 20.487 9.82888 20.2959 9.7399C20.2267 9.70694 20.197 9.62455 20.23 9.55204C20.2629 9.48283 20.3453 9.45317 20.4178 9.48612C20.5826 9.56192 20.754 9.61136 20.9287 9.63443C21.4461 9.69376 22.0129 9.51249 22.4447 9.14997C23.0313 8.65562 23.2982 7.85147 23.0972 7.19893C23.0016 6.89243 22.8039 6.6123 22.5106 6.37501C22.4513 6.32558 22.4414 6.2366 22.4908 6.17728C22.5402 6.11796 22.6292 6.10807 22.6885 6.15751C23.0247 6.43105 23.2521 6.75401 23.3642 7.11654C23.6014 7.87454 23.2949 8.79733 22.6259 9.36419C22.1942 9.72341 21.6504 9.92445 21.1231 9.92445Z" fill="#F1DFC1"/>
<path d="M10.4686 9.85848C10.462 9.85848 10.4554 9.85848 10.4488 9.85848C9.73365 9.75631 8.83065 9.28833 8.53074 8.50396C8.34619 8.0162 8.4055 7.4098 8.68893 6.92533C8.94929 6.48042 9.36125 6.1937 9.84901 6.12449C9.92481 6.1113 9.99731 6.16733 10.0072 6.24313C10.0171 6.31893 9.96436 6.39143 9.88856 6.40132C9.48649 6.46064 9.14702 6.69793 8.92951 7.06704C8.68892 7.479 8.6362 7.99313 8.79109 8.4018C9.05145 9.0807 9.85231 9.48936 10.4884 9.57834C10.5642 9.58823 10.6169 9.66074 10.607 9.73654C10.5971 9.80904 10.5378 9.85848 10.4686 9.85848Z" fill="#F1DFC1"/>
<path d="M24.6154 6.10795H12.8037C12.7246 6.10795 12.662 6.04533 12.662 5.96624C12.662 5.88714 12.7246 5.82452 12.8037 5.82452H24.6154C24.6945 5.82452 24.7571 5.88714 24.7571 5.96624C24.7571 6.04533 24.6945 6.10795 24.6154 6.10795Z" fill="#F1DFC1"/>
<path d="M21.4494 9.00164C21.8025 9.00164 22.0887 8.7154 22.0887 8.36229C22.0887 8.00918 21.8025 7.72293 21.4494 7.72293C21.0962 7.72293 20.81 8.00918 20.81 8.36229C20.81 8.7154 21.0962 9.00164 21.4494 9.00164Z" fill="#F1DFC1"/>
<path d="M13.4436 6.47049C13.4436 6.82313 13.1569 7.10985 12.8043 7.10985C12.4516 7.10985 12.1649 6.82313 12.1649 6.47049C12.1649 6.11785 12.4516 5.83113 12.8043 5.83113C13.1569 5.83113 13.4436 6.11785 13.4436 6.47049Z" fill="#F1DFC1"/>
<path d="M9.67336 8.48093C10.0265 8.48093 10.3127 8.19468 10.3127 7.84157C10.3127 7.48846 10.0265 7.20221 9.67336 7.20221C9.32025 7.20221 9.034 7.48846 9.034 7.84157C9.034 8.19468 9.32025 8.48093 9.67336 8.48093Z" fill="#F1DFC1"/>
<path d="M34.3252 10.2343C33.7979 10.2343 33.2673 10.0365 32.8356 9.67069C32.1633 9.10383 31.8601 8.18105 32.0973 7.42305C32.2654 6.88256 32.6939 6.41458 33.2706 6.13774C33.7452 5.91034 34.3153 5.80487 34.9679 5.83124C35.9764 5.86749 37.0145 6.18717 38.0493 6.77709C38.6557 7.12314 39.4599 7.62078 40.1915 8.20082C39.9509 7.72954 39.7861 7.29781 39.684 6.86937C39.6708 6.81005 39.6972 6.74744 39.7499 6.71448C39.8026 6.68482 39.8718 6.69141 39.918 6.73426C41.0814 7.83501 42.4952 8.69847 44.0046 9.23567C44.5879 9.44329 45.3558 9.66739 46.127 9.55864C46.8817 9.45317 47.5178 8.99838 47.7452 8.40186C47.8836 8.03934 47.854 7.60761 47.6661 7.21872C47.4783 6.82983 47.1553 6.5431 46.7828 6.42775C46.3182 6.28274 45.7974 6.39809 45.4877 6.71777C45.1614 7.05063 45.1054 7.60431 45.3624 7.95695C45.4909 8.13162 45.7118 8.25025 45.9524 8.27003C46.1699 8.28651 46.3742 8.2206 46.5093 8.08877C46.5653 8.03604 46.6543 8.03604 46.7071 8.08877C46.7598 8.1448 46.7598 8.23378 46.7038 8.28651C46.5093 8.47766 46.2259 8.57324 45.926 8.54687C45.6063 8.52051 45.3097 8.36231 45.1317 8.12173C44.7923 7.66034 44.8582 6.95506 45.2833 6.52333C45.6656 6.13444 46.2984 5.98943 46.862 6.1641C47.3069 6.30252 47.6892 6.64197 47.9133 7.10007C48.1374 7.55817 48.1703 8.069 48.0022 8.50403C47.7386 9.19282 47.0169 9.71683 46.1633 9.83877C45.3328 9.95741 44.522 9.72013 43.909 9.50262C42.5216 9.00826 41.2132 8.24367 40.0959 7.27804C40.2574 7.73614 40.4947 8.2173 40.8276 8.75779C40.8638 8.81711 40.8507 8.89621 40.7979 8.93906C40.7452 8.9819 40.6661 8.9819 40.6134 8.93246C39.773 8.1448 38.6788 7.4593 37.9109 7.02098C36.9156 6.45412 35.9203 6.14762 34.958 6.11137C34.3483 6.0883 33.8243 6.18387 33.3926 6.3882C32.885 6.63208 32.5126 7.03746 32.3676 7.50544C32.1633 8.15798 32.4335 8.95882 33.0202 9.45647C33.4519 9.82229 34.022 10.0036 34.5362 9.94093C35.0865 9.87502 35.5842 9.52898 35.8017 9.061C36.0291 8.56994 35.9302 7.95365 35.5677 7.59442C35.192 7.21871 34.5559 7.16269 34.1473 7.4626C33.8342 7.69329 33.7056 8.11843 33.8539 8.42822C33.9297 8.58642 34.0945 8.70506 34.289 8.74132C34.4505 8.77098 34.6054 8.73143 34.7075 8.63585C34.7636 8.58312 34.8525 8.58313 34.9053 8.63915C34.958 8.69518 34.958 8.78415 34.902 8.83688C34.7339 8.99837 34.4933 9.06429 34.2395 9.01815C33.9594 8.96872 33.7155 8.78745 33.6035 8.55016C33.3991 8.12502 33.5672 7.54829 33.9858 7.23849C34.4999 6.85619 35.3007 6.92869 35.7687 7.39668C36.2103 7.8383 36.3323 8.58642 36.0587 9.17964C35.8017 9.7366 35.2183 10.1453 34.5724 10.2211C34.4867 10.231 34.4076 10.2343 34.3252 10.2343Z" fill="#F1DFC1"/>
<path d="M34.7972 9.92446C34.2732 9.92446 33.7261 9.72342 33.2976 9.3609C32.6253 8.79405 32.3221 7.87126 32.5594 7.11325C32.6715 6.75402 32.8989 6.43105 33.235 6.15421C33.2943 6.10478 33.3833 6.11466 33.4328 6.17398C33.4822 6.23331 33.4723 6.32229 33.413 6.37173C33.1197 6.61231 32.9252 6.88915 32.8297 7.19564C32.6253 7.84819 32.8956 8.64903 33.4822 9.14667C33.9139 9.51249 34.4841 9.69376 34.9982 9.63114C35.1729 9.61136 35.3443 9.56193 35.509 9.48284C35.5783 9.44988 35.6639 9.47954 35.6969 9.54875C35.7299 9.61796 35.7002 9.70364 35.631 9.7366C35.4398 9.82558 35.2388 9.8849 35.0345 9.90797C34.9521 9.92116 34.873 9.92446 34.7972 9.92446Z" fill="#F1DFC1"/>
<path d="M45.45 9.8586C45.3808 9.8586 45.3215 9.80917 45.3116 9.73666C45.3017 9.66086 45.3544 9.58835 45.4302 9.57847C46.0663 9.48948 46.8671 9.08083 47.1275 8.40192C47.2857 7.98996 47.2329 7.47913 46.9891 7.06388C46.7716 6.69476 46.4321 6.45747 46.03 6.39815C45.9542 6.38826 45.9015 6.31576 45.9114 6.23996C45.9213 6.16416 45.9938 6.10813 46.0696 6.12131C46.5573 6.19382 46.9693 6.47724 47.2297 6.92216C47.5131 7.40662 47.5757 8.00973 47.3879 8.50079C47.0879 9.28845 46.1849 9.75315 45.4698 9.85531C45.4632 9.85861 45.4566 9.8586 45.45 9.8586Z" fill="#F1DFC1"/>
<path d="M43.1139 6.10795H31.3022C31.2231 6.10795 31.1605 6.04533 31.1605 5.96624C31.1605 5.88714 31.2231 5.82452 31.3022 5.82452H43.1139C43.193 5.82452 43.2556 5.88714 43.2556 5.96624C43.2556 6.04533 43.193 6.10795 43.1139 6.10795Z" fill="#F1DFC1"/>
<path d="M34.4706 9.00166C34.8237 9.00166 35.11 8.71542 35.11 8.36231C35.11 8.0092 34.8237 7.72295 34.4706 7.72295C34.1175 7.72295 33.8313 8.0092 33.8313 8.36231C33.8313 8.71542 34.1175 9.00166 34.4706 9.00166Z" fill="#F1DFC1"/>
<path d="M42.4761 6.47049C42.4761 6.82313 42.7629 7.10985 43.1155 7.10985C43.4681 7.10985 43.7548 6.82313 43.7548 6.47049C43.7548 6.11785 43.4681 5.83113 43.1155 5.83113C42.7629 5.83113 42.4761 6.11785 42.4761 6.47049Z" fill="#F1DFC1"/>
<path d="M46.2464 8.48093C46.5995 8.48093 46.8858 8.19468 46.8858 7.84157C46.8858 7.48846 46.5995 7.20221 46.2464 7.20221C45.8933 7.20221 45.6071 7.48846 45.6071 7.84157C45.6071 8.19468 45.8933 8.48093 46.2464 8.48093Z" fill="#F1DFC1"/>
<path d="M21.1353 52.0763C21.0727 52.0763 21.0134 52.0763 20.9508 52.073C19.9423 52.0368 18.9042 51.7171 17.8693 51.1272C17.2629 50.7811 16.4588 50.2835 15.7271 49.7034C15.9677 50.1747 16.1325 50.6064 16.2347 51.0349C16.2478 51.0942 16.2215 51.1568 16.1688 51.1898C16.116 51.2194 16.0468 51.2128 16.0007 51.17C14.8373 50.0693 13.4235 49.2058 11.914 48.6686C11.3307 48.461 10.5595 48.2369 9.79164 48.3456C9.03693 48.4544 8.40087 48.9059 8.17347 49.5024C8.03505 49.8649 8.06471 50.2967 8.25256 50.6855C8.44042 51.0744 8.76339 51.3612 9.1358 51.4765C9.60049 51.6215 10.1212 51.5062 10.431 51.1865C10.7573 50.8536 10.8133 50.3 10.5562 49.9473C10.4277 49.7693 10.2069 49.654 9.96632 49.6342C9.7488 49.6177 9.54447 49.6837 9.40935 49.8155C9.35332 49.8715 9.26433 49.8682 9.2116 49.8155C9.15887 49.7595 9.15887 49.6705 9.21489 49.6177C9.40934 49.4266 9.69278 49.331 9.98939 49.3574C10.3091 49.3838 10.6057 49.5419 10.7836 49.7825C11.1231 50.2439 11.0539 50.9492 10.632 51.3809C10.2497 51.7698 9.61697 51.9148 9.05341 51.7402C8.60849 51.6017 8.2262 51.2623 8.00209 50.8042C7.77799 50.3461 7.74502 49.8353 7.9131 49.4002C8.17675 48.7114 8.89851 48.1874 9.75209 48.0655C10.5859 47.9468 11.3933 48.1841 12.0063 48.4016C13.3938 48.896 14.7022 49.6606 15.8194 50.6262C15.6579 50.1681 15.4206 49.687 15.0878 49.1465C15.0515 49.0871 15.0647 49.008 15.1174 48.9652C15.1702 48.9224 15.2493 48.9224 15.302 48.9718C16.1424 49.7595 17.2366 50.445 18.0045 50.8833C18.9998 51.4501 19.995 51.7566 20.9574 51.7929C21.5671 51.816 22.0911 51.7204 22.5228 51.516C23.0303 51.2722 23.4027 50.8668 23.5478 50.3988C23.7521 49.7463 23.4818 48.9454 22.8952 48.4478C22.4635 48.082 21.8933 47.9007 21.3792 47.9633C20.8288 48.0292 20.3345 48.3753 20.117 48.8433C19.8896 49.331 19.9884 49.9506 20.351 50.3098C20.7267 50.6855 21.3627 50.7416 21.7714 50.4417C22.0845 50.211 22.213 49.7858 22.0647 49.476C21.9889 49.3178 21.8241 49.1992 21.6297 49.1629C21.4649 49.1333 21.3133 49.1728 21.2111 49.2684C21.1551 49.3211 21.0661 49.3211 21.0134 49.2651C20.9607 49.2091 20.9607 49.1201 21.0167 49.0674C21.1848 48.9059 21.4254 48.84 21.6791 48.8861C21.9592 48.9355 22.2031 49.1168 22.3185 49.3541C22.5228 49.7792 22.3547 50.356 21.9362 50.6658C21.4221 51.0481 20.6212 50.9756 20.1532 50.5076C19.7116 50.066 19.5897 49.3178 19.8632 48.7246C20.1203 48.1676 20.7036 47.759 21.3496 47.6832C21.9428 47.614 22.5887 47.8183 23.0798 48.2336C23.7521 48.8004 24.0553 49.7232 23.818 50.4812C23.6499 51.0217 23.2215 51.4897 22.6447 51.7665C22.2196 51.9709 21.7121 52.0763 21.1353 52.0763Z" fill="#F1DFC1"/>
<path d="M22.5996 51.7797C22.5601 51.7797 22.5172 51.7632 22.4909 51.7269C22.4414 51.6676 22.4513 51.5786 22.5106 51.5292C22.804 51.2886 22.9984 51.0118 23.0973 50.7053C23.3016 50.0527 23.0313 49.2519 22.4447 48.7542C22.013 48.3884 21.4461 48.2071 20.9287 48.2698C20.7541 48.2895 20.5827 48.339 20.4179 48.4181C20.3487 48.451 20.263 48.4214 20.23 48.3522C20.1971 48.2829 20.2267 48.1973 20.2992 48.1643C20.4904 48.0753 20.6914 48.016 20.8958 47.9929C21.489 47.9237 22.1349 48.128 22.626 48.5433C23.2983 49.1102 23.6015 50.0329 23.3642 50.7909C23.2522 51.1535 23.0248 51.4732 22.6886 51.75C22.6622 51.7698 22.6293 51.7797 22.5996 51.7797Z" fill="#F1DFC1"/>
<path d="M9.86778 51.783C9.86119 51.783 9.8546 51.783 9.84801 51.783C9.36025 51.7105 8.94829 51.4271 8.68793 50.9822C8.4045 50.4977 8.34189 49.8946 8.52974 49.4036C8.82965 48.6159 9.73264 48.1512 10.4478 48.049C10.5236 48.0391 10.5961 48.0919 10.606 48.1677C10.6159 48.2435 10.5632 48.316 10.4874 48.3259C9.85131 48.4149 9.05045 48.8235 8.79009 49.5024C8.6319 49.9144 8.68463 50.4252 8.92851 50.8372C9.14602 51.2063 9.48549 51.4436 9.88756 51.5029C9.96336 51.5128 10.0161 51.5853 10.0062 51.6611C9.99631 51.7336 9.93699 51.783 9.86778 51.783Z" fill="#F1DFC1"/>
<path d="M24.6155 52.0762H12.8039C12.7248 52.0762 12.6621 52.0136 12.6621 51.9345C12.6621 51.8554 12.7248 51.7928 12.8039 51.7928H24.6155C24.6946 51.7928 24.7572 51.8554 24.7572 51.9345C24.7572 52.0136 24.6946 52.0762 24.6155 52.0762Z" fill="#F1DFC1"/>
<path d="M21.448 50.1813C21.8011 50.1813 22.0873 49.895 22.0873 49.5419C22.0873 49.1888 21.8011 48.9026 21.448 48.9026C21.0949 48.9026 20.8086 49.1888 20.8086 49.5419C20.8086 49.895 21.0949 50.1813 21.448 50.1813Z" fill="#F1DFC1"/>
<path d="M12.8019 52.0729C13.155 52.0729 13.4413 51.7866 13.4413 51.4335C13.4413 51.0804 13.155 50.7942 12.8019 50.7942C12.4488 50.7942 12.1625 51.0804 12.1625 51.4335C12.1625 51.7866 12.4488 52.0729 12.8019 52.0729Z" fill="#F1DFC1"/>
<path d="M9.67351 50.702C10.0266 50.702 10.3129 50.4158 10.3129 50.0627C10.3129 49.7096 10.0266 49.4233 9.67351 49.4233C9.3204 49.4233 9.03415 49.7096 9.03415 50.0627C9.03415 50.4158 9.3204 50.702 9.67351 50.702Z" fill="#F1DFC1"/>
<path d="M34.783 52.0762C34.2062 52.0762 33.6987 51.974 33.2703 51.7664C32.6935 51.4895 32.2684 51.0216 32.097 50.4811C31.8597 49.7231 32.1662 48.8003 32.8353 48.2334C33.3329 47.8116 33.9624 47.6138 34.5655 47.683C35.2114 47.7588 35.7948 48.1675 36.0518 48.7245C36.3254 49.3177 36.2034 50.0658 35.7618 50.5074C35.2905 50.9754 34.4897 51.0479 33.9788 50.6656C33.5636 50.3558 33.3955 49.7791 33.5966 49.3539C33.7086 49.1167 33.9525 48.9387 34.2326 48.886C34.4864 48.8398 34.727 48.9057 34.8951 49.0672C34.9511 49.12 34.9511 49.2089 34.8983 49.265C34.8456 49.321 34.7566 49.321 34.7006 49.2683C34.5984 49.1694 34.4468 49.1331 34.282 49.1628C34.0876 49.1991 33.9228 49.3177 33.847 49.4759C33.6987 49.7857 33.8305 50.2108 34.1403 50.4415C34.549 50.7447 35.1851 50.6854 35.5608 50.3097C35.9233 49.9505 36.0222 49.3342 35.7948 48.8431C35.5773 48.3718 35.0796 48.0258 34.5292 47.9632C34.0118 47.9038 33.445 48.0851 33.0132 48.4476C32.4266 48.942 32.1596 49.7461 32.3607 50.3987C32.5057 50.8667 32.8814 51.272 33.3856 51.5159C33.8174 51.7235 34.3447 51.8158 34.9511 51.7927C35.9134 51.7565 36.9087 51.45 37.904 50.8831C38.6719 50.4448 39.7627 49.7593 40.6064 48.9716C40.6592 48.9222 40.7383 48.9222 40.791 48.9651C40.847 49.0112 40.8569 49.087 40.8207 49.1463C40.4878 49.6868 40.2505 50.168 40.089 50.6261C41.2029 49.6604 42.5146 48.8959 43.9021 48.4015C44.5151 48.184 45.3258 47.9467 46.1563 48.0653C47.0132 48.1873 47.735 48.7113 47.9953 49.4001C48.1601 49.8351 48.1272 50.3492 47.9063 50.804C47.6822 51.2621 47.2999 51.6016 46.855 51.74C46.2915 51.9147 45.6587 51.7697 45.2764 51.3808C44.8513 50.9458 44.7853 50.2438 45.1248 49.7824C45.3028 49.5418 45.5961 49.3803 45.9191 49.3572C46.219 49.3342 46.5024 49.4298 46.6968 49.6176C46.7529 49.6703 46.7529 49.7593 46.7001 49.8153C46.6474 49.8714 46.5584 49.8714 46.5024 49.8153C46.3673 49.6835 46.1629 49.6143 45.9454 49.6341C45.7048 49.6539 45.484 49.7692 45.3555 49.9472C45.0984 50.2965 45.1578 50.8535 45.4807 51.1863C45.7905 51.5027 46.3112 51.6181 46.7759 51.4764C47.1483 51.361 47.468 51.0743 47.6592 50.6854C47.847 50.2965 47.8767 49.8648 47.7383 49.5023C47.5109 48.9057 46.8781 48.4542 46.1201 48.3455C45.3522 48.2367 44.581 48.4608 43.9977 48.6684C42.4883 49.2056 41.0744 50.0691 39.9111 51.1699C39.8649 51.2127 39.799 51.2193 39.743 51.1896C39.6902 51.16 39.6639 51.0974 39.6771 51.0347C39.7792 50.6063 39.944 50.1746 40.1846 49.7033C39.453 50.2833 38.6488 50.7843 38.0424 51.127C37.0076 51.7169 35.9694 52.0333 34.961 52.0729C34.9049 52.0729 34.8423 52.0762 34.783 52.0762Z" fill="#F1DFC1"/>
<path d="M33.3192 51.7797C33.2862 51.7797 33.2566 51.7698 33.2302 51.7467C32.894 51.4732 32.6666 51.1502 32.5546 50.7877C32.3173 50.0297 32.6238 49.1069 33.2928 48.54C33.7839 48.1248 34.4331 47.9205 35.023 47.9897C35.2274 48.0127 35.4284 48.0721 35.6196 48.161C35.6888 48.194 35.7184 48.2764 35.6888 48.3489C35.6558 48.4181 35.5734 48.4478 35.5009 48.4148C35.3361 48.339 35.1648 48.2896 34.9901 48.2665C34.4727 48.2039 33.9058 48.3884 33.4741 48.751C32.8875 49.2453 32.6205 50.0495 32.8215 50.702C32.9171 51.0085 33.1149 51.2886 33.4049 51.5259C33.4642 51.5753 33.4741 51.6643 33.4247 51.7237C33.4016 51.7632 33.362 51.7797 33.3192 51.7797Z" fill="#F1DFC1"/>
<path d="M46.0499 51.7828C45.9807 51.7828 45.9213 51.7334 45.9115 51.6641C45.9016 51.5883 45.9543 51.5158 46.0301 51.506C46.4322 51.4466 46.7716 51.2093 46.9891 50.8402C47.2297 50.4283 47.2825 49.9141 47.1276 49.5022C46.8672 48.8233 46.0663 48.4146 45.4303 48.3256C45.3545 48.3157 45.3018 48.2432 45.3116 48.1674C45.3215 48.0916 45.394 48.0389 45.4698 48.0488C46.2081 48.1543 47.088 48.6124 47.3879 49.4033C47.5725 49.8944 47.5132 50.4975 47.2297 50.9819C46.9694 51.4269 46.5574 51.7136 46.0696 51.7828C46.0631 51.7828 46.0565 51.7828 46.0499 51.7828Z" fill="#F1DFC1"/>
<path d="M43.114 52.0762H31.3023C31.2232 52.0762 31.1606 52.0135 31.1606 51.9344C31.1606 51.8553 31.2232 51.7927 31.3023 51.7927H43.114C43.1931 51.7927 43.2557 51.8553 43.2557 51.9344C43.2557 52.0135 43.1931 52.0762 43.114 52.0762Z" fill="#F1DFC1"/>
<path d="M34.4707 50.1812C34.8238 50.1812 35.1101 49.895 35.1101 49.5419C35.1101 49.1887 34.8238 48.9025 34.4707 48.9025C34.1176 48.9025 33.8313 49.1887 33.8313 49.5419C33.8313 49.895 34.1176 50.1812 34.4707 50.1812Z" fill="#F1DFC1"/>
<path d="M43.1156 52.0728C43.4687 52.0728 43.7549 51.7865 43.7549 51.4334C43.7549 51.0803 43.4687 50.7941 43.1156 50.7941C42.7624 50.7941 42.4762 51.0803 42.4762 51.4334C42.4762 51.7865 42.7624 52.0728 43.1156 52.0728Z" fill="#F1DFC1"/>
<path d="M46.2465 50.7018C46.5996 50.7018 46.8858 50.4155 46.8858 50.0624C46.8858 49.7093 46.5996 49.4231 46.2465 49.4231C45.8934 49.4231 45.6071 49.7093 45.6071 50.0624C45.6071 50.4155 45.8934 50.7018 46.2465 50.7018Z" fill="#F1DFC1"/>
<path d="M48.9552 24.8937C48.3323 24.8937 47.6798 24.5938 47.2414 24.0764C46.8196 23.5787 46.6219 22.9492 46.6911 22.3461C46.7669 21.7002 47.1755 21.1168 47.7325 20.8598C48.3257 20.5862 49.0738 20.7082 49.5155 21.1498C49.9834 21.6211 50.0559 22.4219 49.6736 22.936C49.3639 23.3513 48.7871 23.5194 48.362 23.3183C48.1247 23.2063 47.9467 22.9624 47.894 22.679C47.8479 22.4252 47.9138 22.1846 48.0753 22.0166C48.128 21.9605 48.217 21.9605 48.273 22.0133C48.329 22.066 48.329 22.155 48.2763 22.211C48.1774 22.3132 48.1412 22.4648 48.1708 22.6296C48.2071 22.824 48.3257 22.9888 48.4839 23.0646C48.7937 23.2129 49.2188 23.0811 49.4495 22.7713C49.7527 22.3626 49.6934 21.7265 49.3177 21.3508C48.9585 20.9883 48.3422 20.8894 47.8512 21.1168C47.3799 21.3344 47.0338 21.832 46.9712 22.3824C46.9119 22.8998 47.0931 23.4667 47.4557 23.8984C47.95 24.485 48.7542 24.7553 49.4067 24.5509C49.8714 24.4059 50.2801 24.0302 50.5239 23.526C50.7316 23.0942 50.8239 22.5669 50.8008 21.9605C50.7645 20.9982 50.458 20.0029 49.8912 19.0076C49.4529 18.2397 48.7674 17.1489 47.9797 16.3052C47.9303 16.2524 47.9302 16.1733 47.9731 16.1206C48.0159 16.0679 48.095 16.0547 48.1544 16.0909C48.6948 16.4238 49.176 16.6611 49.6341 16.8226C48.6685 15.7054 47.9039 14.397 47.4095 13.0095C47.192 12.3965 46.9547 11.5858 47.0734 10.7553C47.1953 9.90168 47.7193 9.17664 48.4081 8.91628C48.8432 8.7515 49.354 8.78445 49.8121 9.00526C50.2702 9.22936 50.6096 9.61166 50.748 10.0566C50.9227 10.6201 50.7777 11.2529 50.3888 11.6352C49.9538 12.0603 49.2518 12.1263 48.7904 11.7868C48.5498 11.6088 48.3883 11.3122 48.3653 10.9925C48.3422 10.6926 48.4378 10.4092 48.6256 10.2181C48.6817 10.162 48.7674 10.162 48.8234 10.2148C48.8794 10.2675 48.8794 10.3565 48.8234 10.4125C48.6916 10.5476 48.6223 10.752 48.6421 10.9695C48.6619 11.2101 48.7772 11.4309 48.9552 11.5594C49.3045 11.8165 49.8615 11.7571 50.1944 11.4342C50.5108 11.1244 50.6261 10.6037 50.4811 10.139C50.3657 9.76656 50.079 9.44688 49.6901 9.25573C49.3012 9.06788 48.8728 9.03821 48.507 9.17663C47.9105 9.40403 47.459 10.0368 47.3502 10.7948C47.2414 11.566 47.4655 12.3339 47.6732 12.9172C48.2104 14.4266 49.0738 15.8405 50.1746 17.0038C50.2174 17.05 50.224 17.1159 50.1944 17.1719C50.1647 17.2247 50.1021 17.251 50.0395 17.2378C49.611 17.1357 49.1793 16.9709 48.708 16.7303C49.2881 17.4619 49.789 18.2661 50.1318 18.8725C50.7217 19.9073 51.0414 20.9455 51.0776 21.9539C51.1007 22.6065 50.9985 23.1799 50.7711 23.6512C50.4943 24.228 50.0263 24.6564 49.4858 24.8245C49.321 24.8673 49.1398 24.8937 48.9552 24.8937Z" fill="#F1DFC1"/>
<path d="M49.2639 24.4323C48.641 24.4323 47.9885 24.1324 47.5501 23.615C47.1283 23.1173 46.9305 22.4845 46.9998 21.8847C47.0228 21.6804 47.0822 21.4794 47.1711 21.2882C47.2041 21.219 47.2865 21.1893 47.359 21.2223C47.4282 21.2553 47.4578 21.3376 47.4249 21.4102C47.3491 21.5749 47.2997 21.7463 47.2799 21.921C47.2173 22.4384 47.4018 23.0053 47.7644 23.437C48.2587 24.0236 49.0628 24.2906 49.7154 24.0895C50.0219 23.9939 50.2987 23.7962 50.5393 23.5062C50.5887 23.4469 50.6777 23.437 50.7371 23.4864C50.7964 23.5359 50.8063 23.6248 50.7568 23.6842C50.48 24.0203 50.1603 24.2477 49.7978 24.3598C49.6264 24.4059 49.4484 24.4323 49.2639 24.4323Z" fill="#F1DFC1"/>
<path d="M47.1952 11.5989C47.1886 11.5989 47.182 11.5989 47.1755 11.5989C47.0997 11.589 47.0469 11.5165 47.0568 11.4407C47.159 10.7256 47.6237 9.82254 48.4113 9.52263C48.9024 9.33478 49.5055 9.3974 49.9899 9.68082C50.4349 9.94118 50.7216 10.3531 50.7908 10.8409C50.8007 10.9167 50.748 10.9892 50.6722 10.9991C50.5964 11.009 50.5238 10.9562 50.5139 10.8804C50.4546 10.4784 50.2174 10.1389 49.8482 9.9214C49.4363 9.68082 48.9222 9.62809 48.5102 9.78299C47.8313 10.0433 47.4226 10.8442 47.3336 11.4803C47.327 11.5495 47.2644 11.5989 47.1952 11.5989Z" fill="#F1DFC1"/>
<path d="M50.9455 25.7473C50.8664 25.7473 50.8038 25.6846 50.8038 25.6055V13.7939C50.8038 13.7148 50.8664 13.6522 50.9455 13.6522C51.0246 13.6522 51.0872 13.7148 51.0872 13.7939V25.6055C51.0872 25.6846 51.0246 25.7473 50.9455 25.7473Z" fill="#F1DFC1"/>
<path d="M48.5536 23.0811C48.201 23.0811 47.9142 22.7944 47.9142 22.4418C47.9142 22.0891 48.201 21.8024 48.5536 21.8024C48.9062 21.8024 49.193 22.0891 49.193 22.4418C49.193 22.7944 48.9062 23.0811 48.5536 23.0811Z" fill="#F1DFC1"/>
<path d="M50.4433 14.433C50.7964 14.433 51.0827 14.1468 51.0827 13.7937C51.0827 13.4406 50.7964 13.1543 50.4433 13.1543C50.0902 13.1543 49.804 13.4406 49.804 13.7937C49.804 14.1468 50.0902 14.433 50.4433 14.433Z" fill="#F1DFC1"/>
<path d="M49.0737 11.3057C49.4268 11.3057 49.7131 11.0194 49.7131 10.6663C49.7131 10.3132 49.4268 10.0269 49.0737 10.0269C48.7206 10.0269 48.4344 10.3132 48.4344 10.6663C48.4344 11.0194 48.7206 11.3057 49.0737 11.3057Z" fill="#F1DFC1"/>
<path d="M48.9948 49.1002C48.7937 49.1002 48.596 49.064 48.4147 48.9948C47.7259 48.7311 47.2019 48.0094 47.08 47.1558C46.9614 46.3253 47.1986 45.5146 47.4162 44.9016C47.9105 43.5141 48.6751 42.2057 49.6407 41.0885C49.1826 41.25 48.7015 41.4872 48.161 41.8201C48.1017 41.8564 48.0226 41.8432 47.9797 41.7904C47.9336 41.7377 47.9369 41.6586 47.9863 41.6059C48.774 40.7655 49.4595 39.6713 49.8978 38.9034C50.4646 37.9081 50.7711 36.9129 50.8074 35.9505C50.8305 35.3441 50.7349 34.8168 50.5306 34.3851C50.2867 33.8775 49.8813 33.5051 49.4133 33.3601C48.7608 33.1558 47.9599 33.426 47.4623 34.0127C47.0965 34.4444 46.9152 35.0113 46.9778 35.5287C47.0437 36.0791 47.3898 36.5734 47.8578 36.7942C48.3455 37.0216 48.9651 36.9227 49.3243 36.5602C49.7001 36.1845 49.7594 35.5485 49.4562 35.1398C49.2255 34.8267 48.8003 34.6982 48.4906 34.8465C48.3324 34.9223 48.2137 35.0871 48.1775 35.2815C48.1478 35.4463 48.1873 35.5979 48.2829 35.7C48.3357 35.7561 48.3356 35.8451 48.2796 35.8978C48.2236 35.9505 48.1346 35.9505 48.0819 35.8945C47.9204 35.7264 47.8545 35.4858 47.9006 35.2321C47.95 34.9519 48.1313 34.7081 48.3686 34.5927C48.7938 34.3884 49.3705 34.5565 49.6803 34.975C50.0626 35.4891 49.9901 36.29 49.5221 36.7613C49.0805 37.2029 48.3323 37.3248 47.7391 37.0513C47.1822 36.7942 46.7735 36.2109 46.6977 35.5649C46.6252 34.9651 46.8262 34.3323 47.2481 33.8347C47.8149 33.1624 48.7377 32.8592 49.4957 33.0965C50.0362 33.2646 50.5042 33.693 50.781 34.2697C51.0084 34.7443 51.1106 35.3145 51.0875 35.967C51.0513 36.9755 50.7316 38.0136 50.1417 39.0484C49.7956 39.6549 49.298 40.459 48.718 41.1906C49.1892 40.9501 49.621 40.7853 50.0494 40.6831C50.1087 40.6666 50.1713 40.6963 50.2043 40.749C50.234 40.8017 50.2274 40.871 50.1845 40.9171C49.0838 42.0805 48.2203 43.4943 47.6831 45.0037C47.4755 45.5871 47.2514 46.3549 47.3601 47.1261C47.4656 47.8808 47.9204 48.5169 48.5169 48.7443C48.8794 48.8827 49.3112 48.8531 49.7001 48.6652C50.0889 48.4774 50.3757 48.1544 50.491 47.782C50.636 47.3173 50.5207 46.7966 50.2043 46.4868C49.8714 46.1605 49.3178 46.1045 48.9651 46.3615C48.7905 46.4901 48.6718 46.7109 48.652 46.9515C48.6356 47.169 48.7015 47.3733 48.8333 47.5084C48.886 47.5645 48.886 47.6534 48.8333 47.7062C48.7773 47.7589 48.6883 47.7589 48.6356 47.7029C48.4444 47.5084 48.3488 47.225 48.3752 46.9251C48.4016 46.6054 48.5598 46.3088 48.8003 46.1308C49.2617 45.7914 49.967 45.8573 50.3987 46.2824C50.7876 46.6647 50.9326 47.2975 50.758 47.8611C50.6196 48.306 50.2801 48.6883 49.822 48.9124C49.5517 49.0343 49.2683 49.1002 48.9948 49.1002Z" fill="#F1DFC1"/>
<path d="M47.2998 36.6986C47.2471 36.6986 47.1976 36.6689 47.1746 36.6195C47.0856 36.4283 47.0263 36.2273 47.0032 36.023C46.934 35.4297 47.1383 34.7838 47.5536 34.2927C48.1204 33.6237 49.0432 33.3172 49.8012 33.5545C50.1604 33.6666 50.4834 33.894 50.7602 34.2301C50.8097 34.2894 50.7998 34.3784 50.7405 34.4279C50.6811 34.4773 50.5922 34.4674 50.5427 34.4081C50.3022 34.1148 50.0253 33.9203 49.7188 33.8248C49.0663 33.6204 48.2654 33.8907 47.7678 34.4773C47.402 34.909 47.2207 35.4759 47.2833 35.9933C47.3031 36.168 47.3525 36.3393 47.4316 36.5041C47.4646 36.5733 47.4349 36.659 47.3657 36.692C47.3393 36.692 47.3196 36.6986 47.2998 36.6986Z" fill="#F1DFC1"/>
<path d="M49.0143 48.4906C48.8067 48.4906 48.5991 48.4543 48.4112 48.3851C47.6236 48.0852 47.1589 47.1822 47.0567 46.467C47.0468 46.3912 47.0996 46.3187 47.1754 46.3088C47.2512 46.2956 47.3237 46.3517 47.3335 46.4275C47.4225 47.0635 47.8312 47.8644 48.5101 48.1247C48.9221 48.2829 49.4329 48.2302 49.8481 47.9863C50.2173 47.7688 50.4545 47.4294 50.5139 47.0273C50.5237 46.9515 50.5963 46.8955 50.6721 46.9086C50.7479 46.9185 50.8006 46.991 50.7907 47.0668C50.7182 47.5546 50.4348 47.9666 49.9899 48.2269C49.6932 48.3983 49.3472 48.4906 49.0143 48.4906Z" fill="#F1DFC1"/>
<path d="M50.9454 44.2491C50.8663 44.2491 50.8037 44.1864 50.8037 44.1073V32.2957C50.8037 32.2166 50.8663 32.1539 50.9454 32.1539C51.0245 32.1539 51.0871 32.2166 51.0871 32.2957V44.1073C51.0871 44.1864 51.0245 44.2491 50.9454 44.2491Z" fill="#F1DFC1"/>
<path d="M48.5535 34.8235C48.2009 34.8235 47.9142 35.1102 47.9142 35.4629C47.9142 35.8155 48.2009 36.1022 48.5535 36.1022C48.9062 36.1022 49.1929 35.8155 49.1929 35.4629C49.1929 35.1102 48.9062 34.8235 48.5535 34.8235Z" fill="#F1DFC1"/>
<path d="M50.4447 44.7467C50.7978 44.7467 51.084 44.4605 51.084 44.1074C51.084 43.7543 50.7978 43.468 50.4447 43.468C50.0916 43.468 49.8053 43.7543 49.8053 44.1074C49.8053 44.4605 50.0916 44.7467 50.4447 44.7467Z" fill="#F1DFC1"/>
<path d="M49.0737 47.8776C49.4268 47.8776 49.713 47.5914 49.713 47.2382C49.713 46.8851 49.4268 46.5989 49.0737 46.5989C48.7205 46.5989 48.4343 46.8851 48.4343 47.2382C48.4343 47.5914 48.7205 47.8776 49.0737 47.8776Z" fill="#F1DFC1"/>
<path d="M6.96945 24.8935C6.7849 24.8935 6.60693 24.8671 6.43556 24.8144C5.89507 24.6463 5.42709 24.2179 5.15026 23.6412C4.92286 23.1666 4.82069 22.5964 4.84376 21.9439C4.88002 20.9354 5.19969 19.8973 5.78962 18.8624C6.13566 18.256 6.63331 17.4519 7.21335 16.7203C6.74537 16.9608 6.31032 17.1256 5.88189 17.2278C5.82257 17.241 5.75996 17.2146 5.727 17.1619C5.69734 17.1091 5.70393 17.0399 5.74677 16.9938C6.84753 15.8304 7.71098 14.4166 8.24818 12.9072C8.4558 12.3238 8.67992 11.5559 8.57116 10.7847C8.46241 10.03 8.0109 9.39398 7.41438 9.16657C7.05186 9.02816 6.62012 9.05782 6.23123 9.24568C5.84234 9.43353 5.55563 9.7565 5.44028 10.1289C5.29527 10.5936 5.41392 11.1143 5.7303 11.4241C6.06316 11.7504 6.61682 11.8064 6.96945 11.5493C7.14742 11.4208 7.26277 11.2 7.28255 10.9594C7.29902 10.7419 7.23312 10.5376 7.10129 10.4024C7.04856 10.3464 7.04856 10.2574 7.10129 10.2047C7.15732 10.152 7.24629 10.152 7.29902 10.208C7.49017 10.4025 7.58576 10.6859 7.55939 10.9825C7.53303 11.3022 7.37484 11.5988 7.13096 11.7767C6.66956 12.1162 5.96428 12.047 5.53255 11.6252C5.14366 11.2429 4.99866 10.6101 5.17333 10.0465C5.31175 9.60161 5.65119 9.21931 6.10929 8.9952C6.56739 8.7711 7.07822 8.73814 7.51325 8.90622C8.20204 9.16988 8.72605 9.89162 8.84799 10.7452C8.96663 11.5757 8.72936 12.3864 8.51184 12.9994C8.02079 14.3869 7.25619 15.6953 6.28727 16.8125C6.74537 16.651 7.22653 16.4138 7.76702 16.0809C7.82634 16.0446 7.90543 16.0578 7.94828 16.1106C7.99442 16.1633 7.99112 16.2424 7.94168 16.2951C7.15402 17.1355 6.46852 18.2297 6.0302 18.9976C5.46334 19.9929 5.15684 20.9881 5.12059 21.9505C5.09752 22.5569 5.1931 23.0842 5.39743 23.5159C5.64131 24.0235 6.04666 24.3959 6.51465 24.5409C7.16719 24.7452 7.96805 24.475 8.4657 23.8883C8.83152 23.4566 9.01277 22.8897 8.95015 22.3723C8.88424 21.8219 8.5382 21.3276 8.07022 21.1068C7.57916 20.8794 6.96287 20.9783 6.60364 21.3408C6.22793 21.7165 6.17192 22.3525 6.47182 22.7612C6.70582 23.0743 7.12766 23.2028 7.43745 23.0545C7.59565 22.9787 7.71427 22.8139 7.75053 22.6195C7.78019 22.4547 7.74066 22.3031 7.64508 22.2009C7.59235 22.1449 7.59233 22.0559 7.64836 22.0032C7.70439 21.9505 7.79338 21.9505 7.84611 22.0065C8.0076 22.1746 8.07351 22.4152 8.02737 22.6689C7.97794 22.9491 7.79668 23.1929 7.55939 23.3083C7.13425 23.5126 6.55749 23.3445 6.2477 22.926C5.8654 22.4119 5.93792 21.611 6.40591 21.1397C6.84753 20.6981 7.59564 20.5762 8.18886 20.8497C8.74582 21.1068 9.1545 21.6901 9.2303 22.3361C9.3028 22.9392 9.10175 23.5687 8.67991 24.0663C8.24488 24.5936 7.59234 24.8935 6.96945 24.8935Z" fill="#F1DFC1"/>
<path d="M6.65986 24.4322C6.4786 24.4322 6.29734 24.4058 6.12597 24.3531C5.76344 24.241 5.44377 24.0136 5.16694 23.6775C5.1175 23.6182 5.12739 23.5292 5.18671 23.4798C5.24603 23.4303 5.33501 23.4402 5.38444 23.4995C5.62503 23.7928 5.90186 23.9873 6.20836 24.0829C6.8609 24.2872 7.66176 24.0202 8.15941 23.4303C8.52523 22.9986 8.70648 22.4317 8.64386 21.9143C8.62409 21.7396 8.57465 21.5683 8.49555 21.4035C8.4626 21.3343 8.49227 21.2486 8.56477 21.2156C8.63398 21.1827 8.71967 21.2123 8.75263 21.2815C8.84161 21.4727 8.90094 21.6737 8.92401 21.8781C8.99651 22.4779 8.79546 23.1106 8.37362 23.6083C7.93529 24.1323 7.28275 24.4322 6.65986 24.4322Z" fill="#F1DFC1"/>
<path d="M8.73079 11.5988C8.66158 11.5988 8.60226 11.5493 8.59238 11.4768C8.50339 10.8408 8.09473 10.0399 7.41582 9.77957C7.00386 9.62468 6.49304 9.6774 6.07778 9.91798C5.70867 10.1355 5.47137 10.475 5.41205 10.877C5.40216 10.9528 5.32966 11.0056 5.25386 10.9957C5.17806 10.9858 5.12534 10.9133 5.13522 10.8375C5.20773 10.3497 5.49115 9.93776 5.93607 9.67741C6.42053 9.39398 7.02363 9.33136 7.51469 9.51921C8.30235 9.81912 8.76704 10.7221 8.8692 11.4373C8.87909 11.5131 8.82636 11.5856 8.75056 11.5955C8.74397 11.5988 8.73738 11.5988 8.73079 11.5988Z" fill="#F1DFC1"/>
<path d="M4.97972 25.7471C4.90063 25.7471 4.83801 25.6845 4.83801 25.6054V13.7937C4.83801 13.7146 4.90063 13.652 4.97972 13.652C5.05882 13.652 5.12144 13.7146 5.12144 13.7937V25.6054C5.11814 25.6845 5.05552 25.7471 4.97972 25.7471Z" fill="#F1DFC1"/>
<path d="M7.37291 23.0811C7.72602 23.0811 8.01227 22.7948 8.01227 22.4417C8.01227 22.0886 7.72602 21.8024 7.37291 21.8024C7.0198 21.8024 6.73355 22.0886 6.73355 22.4417C6.73355 22.7948 7.0198 23.0811 7.37291 23.0811Z" fill="#F1DFC1"/>
<path d="M5.47994 14.433C5.83305 14.433 6.1193 14.1467 6.1193 13.7936C6.1193 13.4405 5.83305 13.1543 5.47994 13.1543C5.12683 13.1543 4.84058 13.4405 4.84058 13.7936C4.84058 14.1467 5.12683 14.433 5.47994 14.433Z" fill="#F1DFC1"/>
<path d="M6.85094 11.3055C7.20405 11.3055 7.4903 11.0192 7.4903 10.6661C7.4903 10.313 7.20405 10.0268 6.85094 10.0268C6.49783 10.0268 6.21158 10.313 6.21158 10.6661C6.21158 11.0192 6.49783 11.3055 6.85094 11.3055Z" fill="#F1DFC1"/>
<path d="M6.9307 49.1003C6.65387 49.1003 6.37044 49.0343 6.10679 48.9058C5.64869 48.6817 5.30925 48.2994 5.17083 47.8545C4.99616 47.2909 5.14116 46.6582 5.53004 46.2759C5.96507 45.8507 6.66706 45.7848 7.12846 46.1243C7.36904 46.3022 7.53052 46.5989 7.55689 46.9185C7.57996 47.2184 7.48439 47.5019 7.29654 47.6963C7.24381 47.7523 7.15481 47.7523 7.09879 47.6996C7.04276 47.6469 7.04276 47.5579 7.09879 47.5019C7.23061 47.3667 7.29982 47.1624 7.28004 46.9449C7.26027 46.7043 7.14494 46.4835 6.96697 46.355C6.61763 46.0979 6.06066 46.1572 5.7278 46.4802C5.41141 46.79 5.29606 47.3107 5.43778 47.7754C5.55312 48.1478 5.83984 48.4675 6.22872 48.6586C6.61761 48.8465 7.04936 48.8762 7.41188 48.7377C8.00839 48.5103 8.4599 47.8776 8.56866 47.1196C8.67742 46.3484 8.4533 45.5805 8.24567 44.9971C7.70848 43.4877 6.84502 42.0739 5.74427 40.9105C5.70143 40.8644 5.69484 40.7985 5.7245 40.7424C5.75416 40.6897 5.82006 40.6601 5.87938 40.6765C6.30782 40.7787 6.73957 40.9435 7.21085 41.1841C6.63081 40.4524 6.13316 39.6483 5.78712 39.0419C5.19719 38.007 4.87751 36.9689 4.84126 35.9604C4.81819 35.3079 4.92035 34.7344 5.14776 34.2632C5.42459 33.6864 5.89256 33.258 6.43305 33.0899C7.18776 32.8526 8.11385 33.1591 8.6807 33.8281C9.10255 34.3258 9.3003 34.9585 9.23109 35.5584C9.15529 36.2043 8.74662 36.7876 8.18965 37.0447C7.59643 37.3182 6.84832 37.1963 6.4067 36.7547C5.93872 36.2834 5.8662 35.4826 6.2485 34.9684C6.55829 34.5532 7.13505 34.3851 7.56019 34.5861C7.79748 34.6982 7.97544 34.9421 8.02817 35.2255C8.07431 35.4793 8.0084 35.7198 7.84691 35.8879C7.79418 35.944 7.70518 35.944 7.64916 35.8912C7.59313 35.8385 7.59315 35.7495 7.64588 35.6935C7.74475 35.5913 7.78098 35.4397 7.75132 35.2749C7.71507 35.0805 7.59644 34.9157 7.43825 34.8399C7.12846 34.6916 6.70332 34.8234 6.47262 35.1365C6.16942 35.5419 6.22873 36.1812 6.60444 36.5569C6.96366 36.9195 7.57996 37.0183 8.07101 36.7909C8.54229 36.5734 8.88833 36.0758 8.95095 35.5254C9.01027 35.008 8.82902 34.4411 8.4665 34.0094C7.97215 33.4228 7.16799 33.1558 6.51545 33.3569C6.05076 33.5019 5.64211 33.8743 5.39823 34.3818C5.1906 34.8135 5.09832 35.3408 5.12138 35.9472C5.15764 36.9096 5.46414 37.9049 6.03099 38.9002C6.46932 39.6681 7.15481 40.7622 7.94248 41.6026C7.99191 41.6553 7.99192 41.7344 7.94907 41.7872C7.90623 41.8399 7.82714 41.8531 7.76782 41.8168C7.22733 41.484 6.74616 41.2467 6.28806 41.0852C7.2537 42.2024 8.01829 43.5108 8.51264 44.8983C8.73015 45.5113 8.96743 46.322 8.84879 47.1525C8.72685 48.0094 8.20284 48.7312 7.51404 48.9915C7.32949 49.0673 7.13174 49.1003 6.9307 49.1003Z" fill="#F1DFC1"/>
<path d="M8.62415 36.6985C8.60438 36.6985 8.58461 36.6952 8.56483 36.6853C8.49562 36.6524 8.46595 36.57 8.49562 36.4975C8.57142 36.3327 8.62085 36.1613 8.64392 35.9867C8.70654 35.4692 8.52199 34.9024 8.15947 34.4707C7.66512 33.884 6.86096 33.6171 6.20842 33.8181C5.90192 33.9137 5.62179 34.1114 5.3845 34.4014C5.33507 34.4608 5.24609 34.4707 5.18677 34.4212C5.12745 34.3718 5.11756 34.2828 5.167 34.2235C5.44054 33.8873 5.76351 33.6599 6.12603 33.5479C6.88403 33.3106 7.80682 33.6171 8.37368 34.2861C8.78893 34.7771 8.99328 35.4231 8.92407 36.0163C8.901 36.2207 8.84167 36.4217 8.75269 36.6128C8.72632 36.6656 8.67688 36.6985 8.62415 36.6985Z" fill="#F1DFC1"/>
<path d="M6.91164 48.4905C6.57548 48.4905 6.23274 48.4015 5.93613 48.2268C5.49122 47.9665 5.20449 47.5545 5.13529 47.0668C5.1254 46.991 5.17812 46.9185 5.25392 46.9086C5.32973 46.8954 5.40222 46.9514 5.41211 47.0272C5.47143 47.4293 5.70873 47.7687 6.07784 47.9862C6.4898 48.2268 7.00392 48.2796 7.41588 48.1247C8.09479 47.8643 8.50346 47.0635 8.59244 46.4274C8.60233 46.3516 8.67812 46.2989 8.75062 46.3088C8.82643 46.3186 8.87915 46.3912 8.86926 46.467C8.7671 47.1821 8.30241 48.0851 7.51475 48.385C7.3269 48.4542 7.11926 48.4905 6.91164 48.4905Z" fill="#F1DFC1"/>
<path d="M4.97972 44.2491C4.90063 44.2491 4.83801 44.1865 4.83801 44.1074V32.2957C4.83801 32.2166 4.90063 32.154 4.97972 32.154C5.05882 32.154 5.12144 32.2166 5.12144 32.2957V44.1074C5.11814 44.1865 5.05552 44.2491 4.97972 44.2491Z" fill="#F1DFC1"/>
<path d="M7.37297 36.1022C7.72608 36.1022 8.01233 35.8159 8.01233 35.4628C8.01233 35.1097 7.72608 34.8235 7.37297 34.8235C7.01986 34.8235 6.73361 35.1097 6.73361 35.4628C6.73361 35.8159 7.01986 36.1022 7.37297 36.1022Z" fill="#F1DFC1"/>
<path d="M5.48 44.7467C5.83311 44.7467 6.11936 44.4605 6.11936 44.1074C6.11936 43.7543 5.83311 43.468 5.48 43.468C5.12689 43.468 4.84064 43.7543 4.84064 44.1074C4.84064 44.4605 5.12689 44.7467 5.48 44.7467Z" fill="#F1DFC1"/>
<path d="M6.851 47.8776C7.20411 47.8776 7.49036 47.5914 7.49036 47.2383C7.49036 46.8852 7.20411 46.5989 6.851 46.5989C6.49789 46.5989 6.21164 46.8852 6.21164 47.2383C6.21164 47.5914 6.49789 47.8776 6.851 47.8776Z" fill="#F1DFC1"/>
<path d="M51.6237 52.7553H4.3012C4.2221 52.7553 4.15948 52.6926 4.15948 52.6135V5.29103C4.15948 5.21194 4.2221 5.14932 4.3012 5.14932H51.6237C51.7028 5.14932 51.7654 5.21194 51.7654 5.29103V52.6135C51.7654 52.6926 51.7028 52.7553 51.6237 52.7553ZM4.43961 52.4751H51.482V5.42945H4.43961V52.4751Z" fill="#F1DFC1"/>
<path d="M33.4455 38.6495H23.5552V39.6712H33.4455V38.6495Z" fill="#F5D09B"/>
<path d="M33.4455 38.6495H23.5552V39.6712H33.4455V38.6495Z" fill="#F5D09B"/>
<path d="M23.5552 38.6495L25.5261 37.6278H31.4714L33.4422 38.6495H23.5552Z" fill="#F5D09B"/>
<path d="M31.3925 17.0003H25.6086V37.3708H31.3925V17.0003Z" fill="#F5D09B"/>
<path d="M33.8543 14.021H23.1401V16.5784H33.8543V14.021Z" fill="#F5D09B"/>
<path d="M23.1403 14.021C21.9967 14.021 21.0706 14.9471 21.0706 16.0907C21.0706 17.2343 21.9967 18.1603 23.1403 18.1603C24.2839 18.1603 25.21 17.2343 25.21 16.0907C25.21 14.9471 24.2839 14.021 23.1403 14.021Z" fill="#F5D09B"/>
<path d="M33.8576 14.021C35.0012 14.021 35.9273 14.9471 35.9273 16.0907C35.9273 17.2343 35.0012 18.1603 33.8576 18.1603C32.714 18.1603 31.788 17.2343 31.788 16.0907C31.788 14.9471 32.714 14.021 33.8576 14.021Z" fill="#F5D09B"/>
<path d="M23.1395 17.7618C22.2167 17.7618 21.4686 17.0103 21.4686 16.0909C21.4686 15.1681 22.22 14.4167 23.1395 14.4167C24.0623 14.4167 24.8104 15.1681 24.8104 16.0909C24.8137 17.0136 24.0623 17.7618 23.1395 17.7618ZM23.1395 14.6441C22.3419 14.6441 21.6927 15.2933 21.6927 16.0909C21.6927 16.8884 22.3419 17.5377 23.1395 17.5377C23.937 17.5377 24.5863 16.8884 24.5863 16.0909C24.5863 15.2933 23.937 14.6441 23.1395 14.6441Z" fill="#F5D09B"/>
<path d="M23.1401 17.1322C22.5667 17.1322 22.0987 16.6642 22.0987 16.0907C22.0987 15.5173 22.5667 15.0493 23.1401 15.0493C23.7136 15.0493 24.1816 15.5173 24.1816 16.0907C24.1849 16.6642 23.7169 17.1322 23.1401 17.1322ZM23.1401 15.2734C22.6919 15.2734 22.3261 15.6392 22.3261 16.0907C22.3261 16.5389 22.6919 16.9047 23.1401 16.9047C23.5883 16.9047 23.9542 16.5389 23.9542 16.0907C23.9575 15.6392 23.5916 15.2734 23.1401 15.2734Z" fill="#F5D09B"/>
<path d="M23.1408 16.5027C22.9134 16.5027 22.7289 16.3181 22.7289 16.0907C22.7289 15.8633 22.9134 15.6787 23.1408 15.6787C23.3682 15.6787 23.5528 15.8633 23.5528 16.0907C23.5561 16.3181 23.3682 16.5027 23.1408 16.5027ZM23.1408 15.9028C23.0387 15.9028 22.9563 15.9852 22.9563 16.0874C22.9563 16.1896 23.0387 16.272 23.1408 16.272C23.243 16.272 23.3254 16.1896 23.3254 16.0874C23.3287 15.9885 23.243 15.9028 23.1408 15.9028Z" fill="#F5D09B"/>
<path d="M33.858 17.7615C34.7808 17.7615 35.5289 17.0101 35.5289 16.0906C35.5289 15.1679 34.7775 14.4164 33.858 14.4164C32.9352 14.4164 32.1871 15.1679 32.1871 16.0906C32.1838 17.0134 32.9352 17.7615 33.858 17.7615ZM33.858 14.6438C34.6555 14.6438 35.3048 15.2931 35.3048 16.0906C35.3048 16.8882 34.6555 17.5374 33.858 17.5374C33.0604 17.5374 32.4112 16.8882 32.4112 16.0906C32.4112 15.2931 33.0604 14.6438 33.858 14.6438Z" fill="#F5D09B"/>
<path d="M33.8587 17.1322C34.4321 17.1322 34.9001 16.6642 34.9001 16.0908C34.9001 15.5173 34.4321 15.0493 33.8587 15.0493C33.2852 15.0493 32.8172 15.5173 32.8172 16.0908C32.814 16.6642 33.2819 17.1322 33.8587 17.1322ZM33.8587 15.2734C34.3069 15.2734 34.6727 15.6393 34.6727 16.0908C34.6727 16.539 34.3069 16.9048 33.8587 16.9048C33.4105 16.9048 33.0446 16.539 33.0446 16.0908C33.0414 15.6393 33.4072 15.2734 33.8587 15.2734Z" fill="#F5D09B"/>
<path d="M33.8574 16.5027C34.0848 16.5027 34.2694 16.3181 34.2694 16.0907C34.2694 15.8633 34.0848 15.6787 33.8574 15.6787C33.63 15.6787 33.4454 15.8633 33.4454 16.0907C33.4422 16.3181 33.63 16.5027 33.8574 16.5027ZM33.8574 15.9028C33.9596 15.9028 34.042 15.9852 34.042 16.0874C34.042 16.1896 33.9596 16.272 33.8574 16.272C33.7552 16.272 33.6728 16.1896 33.6728 16.0874C33.6696 15.9885 33.7552 15.9028 33.8574 15.9028Z" fill="#F5D09B"/>
<path d="M25.6287 17.4221C25.398 17.4221 25.2101 17.2342 25.2101 17.0036V16.9937C25.2101 16.763 25.398 16.5751 25.6287 16.5751H31.3665C31.5971 16.5751 31.785 16.763 31.785 16.9937V17.0036C31.785 17.2342 31.5971 17.4221 31.3665 17.4221H25.6287Z" fill="#F5D09B"/>
<path d="M25.6287 37.7894C25.398 37.7894 25.2101 37.6015 25.2101 37.3708V37.3609C25.2101 37.1302 25.398 36.9424 25.6287 36.9424H31.3665C31.5971 36.9424 31.785 37.1302 31.785 37.3609V37.3708C31.785 37.6015 31.5971 37.7894 31.3665 37.7894H25.6287Z" fill="#F5D09B"/>
<path d="M26.0241 15.916C25.6517 15.916 25.3485 15.6128 25.3485 15.2404V15.2272C25.3485 14.8548 25.6517 14.5516 26.0241 14.5516H30.9775C31.35 14.5516 31.6532 14.8548 31.6532 15.2272V15.2404C31.6532 15.6128 31.35 15.916 30.9775 15.916H26.0241Z" fill="#F5D09B"/>
<path d="M25.6152 36.9456C25.49 36.9456 25.3878 36.8435 25.3878 36.7182V36.7149C25.3878 36.5897 25.49 36.4875 25.6152 36.4875H31.3826C31.5079 36.4875 31.61 36.5897 31.61 36.7149V36.7182C31.61 36.8435 31.5079 36.9456 31.3826 36.9456H25.6152Z" fill="#F5D09B"/>
<path d="M25.6152 17.8802C25.49 17.8802 25.3878 17.7781 25.3878 17.6528V17.6495C25.3878 17.5243 25.49 17.4221 25.6152 17.4221H31.3826C31.5079 17.4221 31.61 17.5243 31.61 17.6495V17.6528C31.61 17.7781 31.5079 17.8802 31.3826 17.8802H25.6152Z" fill="#F5D09B"/>
<path d="M26.2744 36.0097H26.2678C26.0536 36.0097 25.8822 35.8383 25.8822 35.6241V18.7469C25.8822 18.5327 26.0536 18.3614 26.2678 18.3614H26.2744C26.4886 18.3614 26.66 18.5327 26.66 18.7469V35.6241C26.66 35.835 26.4886 36.0097 26.2744 36.0097Z" fill="#F5D09B"/>
<path d="M30.7234 36.0097H30.73C30.9442 36.0097 31.1155 35.8383 31.1155 35.6241V18.7469C31.1155 18.5327 30.9442 18.3614 30.73 18.3614H30.7234C30.5091 18.3614 30.3378 18.5327 30.3378 18.7469V35.6241C30.3378 35.835 30.5091 36.0097 30.7234 36.0097Z" fill="#F5D09B"/>
<path d="M27.7078 36.0097H27.7012C27.487 36.0097 27.3156 35.8383 27.3156 35.6241V18.7469C27.3156 18.5327 27.487 18.3614 27.7012 18.3614H27.7078C27.922 18.3614 28.0934 18.5327 28.0934 18.7469V35.6241C28.0934 35.835 27.922 36.0097 27.7078 36.0097Z" fill="#F5D09B"/>
<path d="M29.2899 36.0097H29.2965C29.5107 36.0097 29.682 35.8383 29.682 35.6241V18.7469C29.682 18.5327 29.5107 18.3614 29.2965 18.3614H29.2899C29.0756 18.3614 28.9043 18.5327 28.9043 18.7469V35.6241C28.9043 35.835 29.0756 36.0097 29.2899 36.0097Z" fill="#F5D09B"/>
<path d="M31.7871 37.3742V37.3643C31.7871 37.1402 31.6124 36.9589 31.3916 36.949V36.9457C31.5135 36.9424 31.6091 36.8435 31.6091 36.7216V36.7183C31.6091 36.5964 31.5102 36.4975 31.3916 36.4942V27.7475L30.4358 32.0484C29.7372 35.2023 27.3214 37.6938 24.1905 38.4914L23.5545 38.6529V39.6745H33.4448V38.6529L31.6223 37.707C31.7212 37.6279 31.7871 37.5093 31.7871 37.3742Z" fill="#F5D09B"/>
<path d="M33.4448 38.6496H23.5545V39.6713H33.4448V38.6496Z" fill="white"/>
<path d="M33.4448 38.6496H23.5545V39.6713H33.4448V38.6496Z" fill="#F1DFC1"/>
<path d="M23.5545 38.6496L25.5253 37.6279H31.4707L33.4415 38.6496H23.5545Z" fill="#E9A39B"/>
<path d="M31.3917 17.0004H25.6078V37.3709H31.3917V17.0004Z" fill="#E9A39B"/>
<path d="M33.8535 14.0211H23.1393V16.5785H33.8535V14.0211Z" fill="#E9A39B"/>
<path d="M23.1395 14.0211C21.9959 14.0211 21.0699 14.9472 21.0699 16.0908C21.0699 17.2343 21.9959 18.1604 23.1395 18.1604C24.2831 18.1604 25.2092 17.2343 25.2092 16.0908C25.2092 14.9472 24.2831 14.0211 23.1395 14.0211Z" fill="#E9A39B"/>
<path d="M33.8569 14.0211C35.0005 14.0211 35.9266 14.9472 35.9266 16.0908C35.9266 17.2343 35.0005 18.1604 33.8569 18.1604C32.7133 18.1604 31.7872 17.2343 31.7872 16.0908C31.7872 14.9472 32.7133 14.0211 33.8569 14.0211Z" fill="#E9A39B"/>
<path d="M23.1387 17.7619C22.2159 17.7619 21.4678 17.0104 21.4678 16.0909C21.4678 15.1682 22.2192 14.4167 23.1387 14.4167C24.0615 14.4167 24.8096 15.1682 24.8096 16.0909C24.8129 17.0137 24.0615 17.7619 23.1387 17.7619ZM23.1387 14.6442C22.3412 14.6442 21.6919 15.2934 21.6919 16.0909C21.6919 16.8885 22.3412 17.5377 23.1387 17.5377C23.9363 17.5377 24.5855 16.8885 24.5855 16.0909C24.5855 15.2934 23.9363 14.6442 23.1387 14.6442Z" fill="#F1DFC1"/>
<path d="M23.1393 17.1322C22.5659 17.1322 22.0979 16.6643 22.0979 16.0908C22.0979 15.5174 22.5659 15.0494 23.1393 15.0494C23.7128 15.0494 24.1808 15.5174 24.1808 16.0908C24.1841 16.6643 23.7161 17.1322 23.1393 17.1322ZM23.1393 15.2735C22.6911 15.2735 22.3253 15.6393 22.3253 16.0908C22.3253 16.539 22.6911 16.9048 23.1393 16.9048C23.5875 16.9048 23.9534 16.539 23.9534 16.0908C23.9567 15.6393 23.5908 15.2735 23.1393 15.2735Z" fill="#F1DFC1"/>
<path d="M23.1401 16.5028C22.9127 16.5028 22.7281 16.3182 22.7281 16.0908C22.7281 15.8634 22.9127 15.6788 23.1401 15.6788C23.3675 15.6788 23.552 15.8634 23.552 16.0908C23.5553 16.3182 23.3675 16.5028 23.1401 16.5028ZM23.1401 15.9029C23.0379 15.9029 22.9555 15.9853 22.9555 16.0875C22.9555 16.1897 23.0379 16.2721 23.1401 16.2721C23.2422 16.2721 23.3246 16.1897 23.3246 16.0875C23.3279 15.9886 23.2422 15.9029 23.1401 15.9029Z" fill="#F1DFC1"/>
<path d="M33.8572 17.7616C34.78 17.7616 35.5281 17.0102 35.5281 16.0907C35.5281 15.1679 34.7767 14.4165 33.8572 14.4165C32.9344 14.4165 32.1863 15.1679 32.1863 16.0907C32.183 17.0135 32.9344 17.7616 33.8572 17.7616ZM33.8572 14.6439C34.6548 14.6439 35.304 15.2932 35.304 16.0907C35.304 16.8883 34.6548 17.5375 33.8572 17.5375C33.0597 17.5375 32.4104 16.8883 32.4104 16.0907C32.4104 15.2932 33.0597 14.6439 33.8572 14.6439Z" fill="#F1DFC1"/>
<path d="M33.8579 17.1323C34.4314 17.1323 34.8993 16.6643 34.8993 16.0909C34.8993 15.5174 34.4314 15.0494 33.8579 15.0494C33.2845 15.0494 32.8165 15.5174 32.8165 16.0909C32.8132 16.6643 33.2812 17.1323 33.8579 17.1323ZM33.8579 15.2735C34.3061 15.2735 34.6719 15.6393 34.6719 16.0909C34.6719 16.5391 34.3061 16.9049 33.8579 16.9049C33.4097 16.9049 33.0439 16.5391 33.0439 16.0909C33.0406 15.6393 33.4064 15.2735 33.8579 15.2735Z" fill="#F1DFC1"/>
<path d="M33.8566 16.5028C34.084 16.5028 34.2686 16.3182 34.2686 16.0908C34.2686 15.8634 34.084 15.6788 33.8566 15.6788C33.6292 15.6788 33.4447 15.8634 33.4447 16.0908C33.4414 16.3182 33.6292 16.5028 33.8566 16.5028ZM33.8566 15.9029C33.9588 15.9029 34.0412 15.9853 34.0412 16.0875C34.0412 16.1897 33.9588 16.2721 33.8566 16.2721C33.7545 16.2721 33.6721 16.1897 33.6721 16.0875C33.6688 15.9886 33.7545 15.9029 33.8566 15.9029Z" fill="#F1DFC1"/>
<path d="M25.6279 17.4222C25.3972 17.4222 25.2094 17.2344 25.2094 17.0037V16.9938C25.2094 16.7631 25.3972 16.5752 25.6279 16.5752H31.3657C31.5964 16.5752 31.7842 16.7631 31.7842 16.9938V17.0037C31.7842 17.2344 31.5964 17.4222 31.3657 17.4222H25.6279Z" fill="#E9A39B"/>
<path d="M25.6279 37.7895C25.3972 37.7895 25.2094 37.6016 25.2094 37.3709V37.361C25.2094 37.1303 25.3972 36.9425 25.6279 36.9425H31.3657C31.5964 36.9425 31.7842 37.1303 31.7842 37.361V37.3709C31.7842 37.6016 31.5964 37.7895 31.3657 37.7895H25.6279Z" fill="#E9A39B"/>
<path d="M26.0234 15.9161C25.651 15.9161 25.3478 15.6129 25.3478 15.2405V15.2273C25.3478 14.8549 25.651 14.5517 26.0234 14.5517H30.9768C31.3492 14.5517 31.6524 14.8549 31.6524 15.2273V15.2405C31.6524 15.6129 31.3492 15.9161 30.9768 15.9161H26.0234Z" fill="#F1DFC1"/>
<path d="M25.6145 36.9457C25.4892 36.9457 25.3871 36.8436 25.3871 36.7183V36.715C25.3871 36.5898 25.4892 36.4876 25.6145 36.4876H31.3819C31.5071 36.4876 31.6093 36.5898 31.6093 36.715V36.7183C31.6093 36.8436 31.5071 36.9457 31.3819 36.9457H25.6145Z" fill="#F1DFC1"/>
<path d="M25.6145 17.8803C25.4892 17.8803 25.3871 17.7782 25.3871 17.6529V17.6496C25.3871 17.5244 25.4892 17.4222 25.6145 17.4222H31.3819C31.5071 17.4222 31.6093 17.5244 31.6093 17.6496V17.6529C31.6093 17.7782 31.5071 17.8803 31.3819 17.8803H25.6145Z" fill="#F1DFC1"/>
<path d="M26.2736 36.0098H26.267C26.0528 36.0098 25.8814 35.8384 25.8814 35.6242V18.747C25.8814 18.5328 26.0528 18.3615 26.267 18.3615H26.2736C26.4878 18.3615 26.6592 18.5328 26.6592 18.747V35.6242C26.6592 35.8351 26.4878 36.0098 26.2736 36.0098Z" fill="#F1DFC1"/>
<path d="M30.7226 36.0098H30.7292C30.9434 36.0098 31.1148 35.8384 31.1148 35.6242V18.747C31.1148 18.5328 30.9434 18.3615 30.7292 18.3615H30.7226C30.5084 18.3615 30.337 18.5328 30.337 18.747V35.6242C30.337 35.8351 30.5084 36.0098 30.7226 36.0098Z" fill="#F1DFC1"/>
<path d="M27.7071 36.0098H27.7005C27.4862 36.0098 27.3149 35.8384 27.3149 35.6242V18.747C27.3149 18.5328 27.4862 18.3615 27.7005 18.3615H27.7071C27.9213 18.3615 28.0927 18.5328 28.0927 18.747V35.6242C28.0927 35.8351 27.9213 36.0098 27.7071 36.0098Z" fill="#F1DFC1"/>
<path d="M29.2891 36.0098H29.2957C29.5099 36.0098 29.6813 35.8384 29.6813 35.6242V18.747C29.6813 18.5328 29.5099 18.3615 29.2957 18.3615H29.2891C29.0749 18.3615 28.9035 18.5328 28.9035 18.747V35.6242C28.9035 35.8351 29.0749 36.0098 29.2891 36.0098Z" fill="#F1DFC1"/>
</svg>
