<svg width="56" height="57" viewBox="0 0 56 57" fill="none" xmlns="http://www.w3.org/2000/svg">
<path d="M0 47.7128C0.0659134 47.6997 0.135121 47.6931 0.20433 47.6931C0.74482 47.6931 1.18645 48.0819 1.18645 48.5598C1.18645 49.0377 0.748115 49.4266 0.20433 49.4266C0.135121 49.4266 0.0659134 49.42 0 49.4068V50.7284C0.0659134 50.7152 0.135121 50.7086 0.20433 50.7086C0.74482 50.7086 1.18645 51.0975 1.18645 51.5754C1.18645 52.0532 0.748115 52.4421 0.20433 52.4421C0.135121 52.4421 0.0659134 52.4355 0 52.4223V53.7439C0.0659134 53.7307 0.135121 53.7241 0.20433 53.7241C0.74482 53.7241 1.18645 54.113 1.18645 54.5909C1.18645 55.0688 0.748115 55.4577 0.20433 55.4577C0.135121 55.4577 0.0659134 55.4511 0 55.4379V56.944H2.62996C2.597 56.8583 2.57722 56.7693 2.57722 56.6738C2.57722 56.1959 3.01553 55.807 3.55932 55.807C4.1031 55.807 4.54144 56.1959 4.54144 56.6738C4.54144 56.7693 4.51836 56.8583 4.4887 56.944H6.15961C6.12665 56.8583 6.10688 56.7693 6.10688 56.6738C6.10688 56.1959 6.5452 55.807 7.08899 55.807C7.63277 55.807 8.07109 56.1959 8.07109 56.6738C8.07109 56.7693 8.04803 56.8583 8.01837 56.944H9.68927C9.65632 56.8583 9.63653 56.7693 9.63653 56.6738C9.63653 56.1959 10.0749 55.807 10.6187 55.807C11.1591 55.807 11.6008 56.1959 11.6008 56.6738C11.6008 56.7693 11.5777 56.8583 11.548 56.944H13.2189C13.186 56.8583 13.1662 56.7693 13.1662 56.6738C13.1662 56.1959 13.6045 55.807 14.1483 55.807C14.6888 55.807 15.1304 56.1959 15.1304 56.6738C15.1304 56.7693 15.1073 56.8583 15.0777 56.944H16.7486C16.7156 56.8583 16.6959 56.7693 16.6959 56.6738C16.6959 56.1959 17.1342 55.807 17.678 55.807C18.2185 55.807 18.6601 56.1959 18.6601 56.6738C18.6601 56.7693 18.637 56.8583 18.6074 56.944H20.2783C20.2453 56.8583 20.2255 56.7693 20.2255 56.6738C20.2255 56.1959 20.6639 55.807 21.2076 55.807C21.7481 55.807 22.1897 56.1959 22.1897 56.6738C22.1897 56.7693 22.1667 56.8583 22.137 56.944H23.8079C23.775 56.8583 23.7552 56.7693 23.7552 56.6738C23.7552 56.1959 24.1935 55.807 24.7373 55.807C25.2778 55.807 25.7194 56.1959 25.7194 56.6738C25.7194 56.7693 25.6963 56.8583 25.6667 56.944H27.3376C27.3046 56.8583 27.2849 56.7693 27.2849 56.6738C27.2849 56.1959 27.7232 55.807 28.267 55.807C28.8107 55.807 29.2491 56.1959 29.2491 56.6738C29.2491 56.7693 29.226 56.8583 29.1963 56.944H30.8672C30.8343 56.8583 30.8145 56.7693 30.8145 56.6738C30.8145 56.1959 31.2528 55.807 31.7966 55.807C32.3371 55.807 32.7787 56.1959 32.7787 56.6738C32.7787 56.7693 32.7556 56.8583 32.726 56.944H34.3969C34.3639 56.8583 34.3442 56.7693 34.3442 56.6738C34.3442 56.1959 34.7825 55.807 35.3263 55.807C35.8668 55.807 36.3084 56.1959 36.3084 56.6738C36.3084 56.7693 36.2853 56.8583 36.2557 56.944H37.9266C37.8936 56.8583 37.8738 56.7693 37.8738 56.6738C37.8738 56.1959 38.3122 55.807 38.8559 55.807C39.3964 55.807 39.838 56.1959 39.838 56.6738C39.838 56.7693 39.815 56.8583 39.7853 56.944H41.4562C41.4233 56.8583 41.4035 56.7693 41.4035 56.6738C41.4035 56.1959 41.8418 55.807 42.3856 55.807C42.9294 55.807 43.3677 56.1959 43.3677 56.6738C43.3677 56.7693 43.3446 56.8583 43.315 56.944H44.9859C44.9529 56.8583 44.9332 56.7693 44.9332 56.6738C44.9332 56.1959 45.3715 55.807 45.9153 55.807C46.4558 55.807 46.8974 56.1959 46.8974 56.6738C46.8974 56.7693 46.8743 56.8583 46.8446 56.944H48.5155C48.4826 56.8583 48.4628 56.7693 48.4628 56.6738C48.4628 56.1959 48.9011 55.807 49.4449 55.807C49.9854 55.807 50.427 56.1959 50.427 56.6738C50.427 56.7693 50.404 56.8583 50.3743 56.944H52.0452C52.0122 56.8583 51.9925 56.7693 51.9925 56.6738C51.9925 56.1959 52.4308 55.807 52.9746 55.807C53.5151 55.807 53.9567 56.1959 53.9567 56.6738C53.9567 56.7693 53.9336 56.8583 53.904 56.944H56V55.4577C55.4595 55.4577 55.0179 55.0688 55.0179 54.5909C55.0179 54.113 55.4562 53.7241 56 53.7241V52.4421C55.4595 52.4421 55.0179 52.0532 55.0179 51.5754C55.0179 51.0975 55.4562 50.7086 56 50.7086V49.4266C55.4595 49.4266 55.0179 49.0377 55.0179 48.5598C55.0179 48.0819 55.4562 47.6931 56 47.6931V47.6832V46.4012C55.4595 46.4012 55.0179 46.0123 55.0179 45.5344C55.0179 45.0565 55.4562 44.6676 56 44.6676V43.3856C55.4595 43.3856 55.0179 42.9967 55.0179 42.5189C55.0179 42.041 55.4562 41.6521 56 41.6521V40.3701C55.4595 40.3701 55.0179 39.9812 55.0179 39.5033C55.0179 39.0255 55.4562 38.6366 56 38.6366V37.3545C55.4595 37.3545 55.0179 36.9657 55.0179 36.4878C55.0179 36.0099 55.4562 35.621 56 35.621V34.339C55.4595 34.339 55.0179 33.9501 55.0179 33.4722C55.0179 32.9944 55.4562 32.6055 56 32.6055V31.3235C55.4595 31.3235 55.0179 30.9346 55.0179 30.4567C55.0179 29.9788 55.4562 29.59 56 29.59V28.3079C55.4595 28.3079 55.0179 27.9191 55.0179 27.4412C55.0179 26.9633 55.4562 26.5744 56 26.5744V25.2891C55.4595 25.2891 55.0179 24.9002 55.0179 24.4223C55.0179 23.9445 55.4562 23.5556 56 23.5556V22.2736C55.4595 22.2736 55.0179 21.8847 55.0179 21.4068C55.0179 20.9289 55.4562 20.54 56 20.54V19.258C55.4595 19.258 55.0179 18.8691 55.0179 18.3913C55.0179 17.9134 55.4562 17.5245 56 17.5245V16.2425C55.4595 16.2425 55.0179 15.8536 55.0179 15.3757C55.0179 14.8979 55.4562 14.509 56 14.509V13.227C55.4595 13.227 55.0179 12.8381 55.0179 12.3602C55.0179 11.8823 55.4562 11.4934 56 11.4934V10.2114C55.4595 10.2114 55.0179 9.82253 55.0179 9.34466C55.0179 8.86679 55.4562 8.4779 56 8.4779V7.19589C55.4595 7.19589 55.0179 6.807 55.0179 6.32913C55.0179 5.85125 55.4562 5.46236 56 5.46236V4.18035C55.4595 4.18035 55.0179 3.79146 55.0179 3.31359C55.0179 2.83572 55.4562 2.44683 56 2.44683V0.96048H53.9567C53.9567 1.43835 53.5184 1.82724 52.9746 1.82724C52.4341 1.82724 51.9925 1.43835 51.9925 0.96048H50.4303C50.4303 1.43835 49.992 1.82724 49.4482 1.82724C48.9077 1.82724 48.4661 1.43835 48.4661 0.96048H46.904C46.904 1.43835 46.4656 1.82724 45.9219 1.82724C45.3814 1.82724 44.9397 1.43835 44.9397 0.96048H43.3776C43.3776 1.43835 42.9393 1.82724 42.3955 1.82724C41.8517 1.82724 41.4134 1.43835 41.4134 0.96048H39.8512C39.8512 1.43835 39.4129 1.82724 38.8691 1.82724C38.3286 1.82724 37.887 1.43835 37.887 0.96048H36.3249C36.3249 1.43835 35.8865 1.82724 35.3428 1.82724C34.8023 1.82724 34.3606 1.43835 34.3606 0.96048H32.7985C32.7985 1.43835 32.3602 1.82724 31.8164 1.82724C31.2759 1.82724 30.8343 1.43835 30.8343 0.96048H29.2721C29.2721 1.43835 28.8338 1.82724 28.29 1.82724C27.7462 1.82724 27.3079 1.43835 27.3079 0.96048H25.7458C25.7458 1.43835 25.3074 1.82724 24.7637 1.82724C24.2232 1.82724 23.7816 1.43835 23.7816 0.96048H22.2194C22.2194 1.43835 21.7811 1.82724 21.2373 1.82724C20.6968 1.82724 20.2552 1.43835 20.2552 0.96048H18.693C18.693 1.43835 18.2547 1.82724 17.7109 1.82724C17.1704 1.82724 16.7288 1.43835 16.7288 0.96048H15.1667C15.1667 1.43835 14.7284 1.82724 14.1846 1.82724C13.6441 1.82724 13.2024 1.43835 13.2024 0.96048H11.6403C11.6403 1.43835 11.202 1.82724 10.6582 1.82724C10.1177 1.82724 9.67608 1.43835 9.67608 0.96048H8.11394C8.11394 1.43835 7.67562 1.82724 7.13183 1.82724C6.58805 1.82724 6.14973 1.43835 6.14973 0.96048H4.58757C4.58757 1.43835 4.14925 1.82724 3.60546 1.82724C3.06168 1.82724 2.62336 1.43835 2.62336 0.96048H0.0494431V2.4666C0.115356 2.45342 0.184564 2.44683 0.253773 2.44683C0.794263 2.44683 1.23588 2.83572 1.23588 3.31359C1.23588 3.79146 0.797558 4.18035 0.253773 4.18035C0.184564 4.18035 0.115356 4.17376 0.0494431 4.16058V5.48214C0.115356 5.46895 0.184564 5.46236 0.253773 5.46236C0.794263 5.46236 1.23588 5.85125 1.23588 6.32913C1.23588 6.807 0.797558 7.19589 0.253773 7.19589C0.184564 7.19589 0.115356 7.1893 0.0494431 7.17612V8.49767C0.115356 8.48449 0.184564 8.4779 0.253773 8.4779C0.794263 8.4779 1.23588 8.86679 1.23588 9.34466C1.23588 9.82253 0.797558 10.2114 0.253773 10.2114C0.184564 10.2114 0.115356 10.2048 0.0494431 10.1917V11.5132C0.115356 11.5 0.184564 11.4934 0.253773 11.4934C0.794263 11.4934 1.23588 11.8823 1.23588 12.3602C1.23588 12.8381 0.797558 13.227 0.253773 13.227C0.184564 13.227 0.115356 13.2204 0.0494431 13.2072V14.5288C0.115356 14.5156 0.184564 14.509 0.253773 14.509C0.794263 14.509 1.23588 14.8979 1.23588 15.3757C1.23588 15.8536 0.797558 16.2425 0.253773 16.2425C0.184564 16.2425 0.115356 16.2359 0.0494431 16.2227V17.5443C0.115356 17.5311 0.184564 17.5245 0.253773 17.5245C0.794263 17.5245 1.23588 17.9134 1.23588 18.3913C1.23588 18.8691 0.797558 19.258 0.253773 19.258C0.184564 19.258 0.115356 19.2514 0.0494431 19.2383V20.5598C0.115356 20.5466 0.184564 20.54 0.253773 20.54C0.794263 20.54 1.23588 20.9289 1.23588 21.4068C1.23588 21.8847 0.797558 22.2736 0.253773 22.2736C0.184564 22.2736 0.115356 22.267 0.0494431 22.2538V23.5754C0.115356 23.5622 0.184564 23.5556 0.253773 23.5556C0.794263 23.5556 1.23588 23.9445 1.23588 24.4223C1.23588 24.9002 0.797558 25.2891 0.253773 25.2891C0.184564 25.2891 0.115356 25.2825 0.0494431 25.2693V26.5909C0.115356 26.5777 0.184564 26.5711 0.253773 26.5711C0.794263 26.5711 1.23588 26.96 1.23588 27.4379C1.23588 27.9158 0.797558 28.3046 0.253773 28.3046C0.184564 28.3046 0.115356 28.2981 0.0494431 28.2849V29.6064C0.115356 29.5933 0.184564 29.5867 0.253773 29.5867C0.794263 29.5867 1.23588 29.9756 1.23588 30.4534C1.23588 30.9313 0.797558 31.3202 0.253773 31.3202C0.184564 31.3202 0.115356 31.3136 0.0494431 31.3004V32.622C0.115356 32.6088 0.184564 32.6022 0.253773 32.6022C0.794263 32.6022 1.23588 32.9911 1.23588 33.469C1.23588 33.9468 0.797558 34.3357 0.253773 34.3357C0.184564 34.3357 0.115356 34.3291 0.0494431 34.3159V35.6375C0.115356 35.6243 0.184564 35.6177 0.253773 35.6177C0.794263 35.6177 1.23588 36.0066 1.23588 36.4845C1.23588 36.9624 0.797558 37.3513 0.253773 37.3513C0.184564 37.3513 0.115356 37.3447 0.0494431 37.3315V38.653C0.115356 38.6399 0.184564 38.6333 0.253773 38.6333C0.794263 38.6333 1.23588 39.0222 1.23588 39.5C1.23588 39.9779 0.797558 40.3668 0.253773 40.3668C0.184564 40.3668 0.115356 40.3602 0.0494431 40.347V41.6686C0.115356 41.6554 0.184564 41.6488 0.253773 41.6488C0.794263 41.6488 1.23588 42.0377 1.23588 42.5156C1.23588 42.9934 0.797558 43.3823 0.253773 43.3823C0.184564 43.3823 0.115356 43.3757 0.0494431 43.3626V44.6841C0.115356 44.6709 0.184564 44.6643 0.253773 44.6643C0.794263 44.6643 1.23588 45.0532 1.23588 45.5311C1.23588 46.009 0.797558 46.3979 0.253773 46.3979C0.184564 46.3979 0.115356 46.3913 0.0494431 46.3781V47.6997C0.115356 47.6865 0.184564 47.6799 0.253773 47.6799" fill="#A98B83"/>
<path d="M52.415 8.81075V48.0259C50.0091 48.1709 48.0976 50.1747 48.0976 52.6135C48.0976 52.8738 48.1207 53.1375 48.1701 53.4044H7.75535C7.80479 53.1375 7.82785 52.8738 7.82785 52.6135C7.82785 50.1747 5.91637 48.1709 3.51053 48.0259V8.81075C5.82409 8.66903 7.67955 6.81357 7.81797 4.50002H48.1042C48.2459 6.81357 50.1014 8.66903 52.415 8.81075Z" fill="white"/>
<path d="M52.415 8.81075V48.0259C50.0091 48.1709 48.0976 50.1747 48.0976 52.6135C48.0976 52.8738 48.1207 53.1375 48.1701 53.4044H7.75535C7.80479 53.1375 7.82785 52.8738 7.82785 52.6135C7.82785 50.1747 5.91637 48.1709 3.51053 48.0259V8.81075C5.82409 8.66903 7.67955 6.81357 7.81797 4.50002H48.1042C48.2459 6.81357 50.1014 8.66903 52.415 8.81075Z" fill="#AB8C85"/>
<path d="M52.6942 8.2571C50.4663 8.2571 48.657 6.44778 48.657 4.21991C48.657 4.06501 48.5318 3.93977 48.3769 3.93977H7.54683C7.39194 3.93977 7.26669 4.06501 7.26669 4.21991C7.26669 6.44778 5.45407 8.2571 3.2295 8.2571C3.0746 8.2571 2.94937 8.38234 2.94937 8.53724V48.2995C2.94937 48.4511 3.0746 48.5796 3.2295 48.5796C5.45407 48.5796 7.26669 50.3889 7.26669 52.6135C7.26669 52.9398 7.22056 53.2759 7.13487 53.6154C7.1151 53.7011 7.13157 53.7901 7.1843 53.856C7.23703 53.9252 7.31944 53.9647 7.40842 53.9647H48.5153C48.601 53.9647 48.6834 53.9252 48.7361 53.856C48.7888 53.7901 48.8086 53.7011 48.7855 53.6154C48.6999 53.2759 48.657 52.9398 48.657 52.6135C48.657 50.3889 50.4663 48.5796 52.6942 48.5796C52.8491 48.5796 52.9743 48.4511 52.9743 48.2995V8.53724C52.9743 8.38234 52.8491 8.2571 52.6942 8.2571ZM52.4141 48.0259C50.0082 48.1709 48.0967 50.1747 48.0967 52.6135C48.0967 52.8739 48.1198 53.1375 48.1693 53.4045H7.75446C7.8039 53.1375 7.82696 52.8739 7.82696 52.6135C7.82696 50.1747 5.91548 48.1709 3.50964 48.0259V8.81077C5.8232 8.66906 7.67866 6.8136 7.81708 4.50004H48.1033C48.245 6.8136 50.1005 8.66906 52.4141 8.81077V48.0259Z" fill="#F1DFC1"/>
<path d="M52.3221 8.76136V47.9798C51.1551 48.055 50.0601 48.5705 49.2587 49.4221C48.4572 50.2738 48.009 51.3979 48.0048 52.5674C48.0047 52.8327 48.0289 53.0975 48.0773 53.3583H7.66248C7.71081 53.0975 7.73508 52.8327 7.73499 52.5674C7.73179 51.3995 7.28582 50.2763 6.48704 49.4243C5.68825 48.5723 4.59609 48.0549 3.43085 47.9765V8.75806C4.54547 8.68055 5.59411 8.2012 6.38204 7.40902C7.16998 6.61684 7.64369 5.56565 7.71522 4.45062H48.0114C48.0828 5.57046 48.5599 6.62588 49.3534 7.41933C50.1468 8.21279 51.2023 8.6899 52.3221 8.76136Z" fill="white"/>
<path d="M27.9623 7.30809C28.3154 7.30809 28.6016 7.02184 28.6016 6.66873C28.6016 6.31563 28.3154 6.02937 27.9623 6.02937C27.6092 6.02937 27.3229 6.31563 27.3229 6.66873C27.3229 7.02184 27.6092 7.30809 27.9623 7.30809Z" fill="#F5CBD9"/>
<path d="M27.962 9.1998C27.8829 9.1998 27.8202 9.13719 27.8202 9.05809V8.08258C27.8202 8.00348 27.8829 7.94086 27.962 7.94086C28.041 7.94086 28.1037 8.00348 28.1037 8.08258V9.05809C28.1004 9.13719 28.0378 9.1998 27.962 9.1998Z" fill="#F5CBD9"/>
<path d="M27.962 11.8857C27.8829 11.8857 27.8202 11.8231 27.8202 11.744V9.66442C27.8202 9.58532 27.8829 9.52271 27.962 9.52271C28.041 9.52271 28.1037 9.58532 28.1037 9.66442V11.744C28.1004 11.8231 28.0378 11.8857 27.962 11.8857Z" fill="#F5CBD9"/>
<path d="M29.1576 8.8802C29.1082 8.8802 29.062 8.85384 29.0357 8.81099L28.5479 7.964C28.5084 7.89809 28.5314 7.81241 28.6007 7.77286C28.6666 7.73331 28.7522 7.75638 28.7918 7.82559L29.2796 8.67257C29.3191 8.73848 29.296 8.82418 29.2268 8.86372C29.2037 8.87361 29.1807 8.8802 29.1576 8.8802Z" fill="#F5CBD9"/>
<path d="M30.4991 11.2037C30.4497 11.2037 30.4036 11.1773 30.3772 11.1344L29.3391 9.335C29.2995 9.26909 29.3226 9.18341 29.3918 9.14386C29.4577 9.10431 29.5434 9.12738 29.583 9.19659L30.6211 10.996C30.6606 11.0619 30.6376 11.1476 30.5684 11.1872C30.5486 11.2004 30.5222 11.2037 30.4991 11.2037Z" fill="#F5CBD9"/>
<path d="M30.032 8.00344C30.009 8.00344 29.9826 7.99685 29.9628 7.98367L29.1191 7.49591C29.0532 7.45637 29.0302 7.37067 29.0664 7.30476C29.106 7.23885 29.1916 7.21577 29.2576 7.25203L30.1013 7.73979C30.1672 7.77934 30.1902 7.86502 30.154 7.93093C30.1276 7.97707 30.0815 8.00344 30.032 8.00344Z" fill="#F5CBD9"/>
<path d="M31.3036 8.73843C31.2806 8.73843 31.2542 8.73184 31.2344 8.71865L30.4863 8.28692C30.4204 8.24737 30.3973 8.16168 30.4336 8.09577C30.4731 8.02985 30.5588 8.00679 30.6247 8.04305L31.3729 8.47478C31.4388 8.51433 31.4618 8.60001 31.4256 8.66592C31.3992 8.71206 31.3531 8.73843 31.3036 8.73843Z" fill="#F5CBD9"/>
<path d="M30.3549 6.80722H29.3794C29.3003 6.80722 29.2377 6.7446 29.2377 6.6655C29.2377 6.5864 29.3003 6.52379 29.3794 6.52379H30.3549C30.434 6.52379 30.4966 6.5864 30.4966 6.6655C30.4966 6.7446 30.4307 6.80722 30.3549 6.80722Z" fill="#F5CBD9"/>
<path d="M32.8732 6.80722H30.9617C30.8827 6.80722 30.82 6.7446 30.82 6.6655C30.82 6.5864 30.8827 6.52379 30.9617 6.52379H32.8732C32.9523 6.52379 33.0149 6.5864 33.0149 6.6655C33.0149 6.7446 32.949 6.80722 32.8732 6.80722Z" fill="#F5CBD9"/>
<path d="M26.5449 6.80722H25.5694C25.4903 6.80722 25.4276 6.7446 25.4276 6.6655C25.4276 6.5864 25.4903 6.52379 25.5694 6.52379H26.5449C26.624 6.52379 26.6866 6.5864 26.6866 6.6655C26.6866 6.7446 26.624 6.80722 26.5449 6.80722Z" fill="#F5CBD9"/>
<path d="M24.9622 6.80722H23.0507C22.9716 6.80722 22.909 6.7446 22.909 6.6655C22.909 6.5864 22.9716 6.52379 23.0507 6.52379H24.9622C25.0413 6.52379 25.1039 6.5864 25.1039 6.6655C25.1039 6.7446 25.0413 6.80722 24.9622 6.80722Z" fill="#F5CBD9"/>
<path d="M25.8884 8.00342C25.8389 8.00342 25.7928 7.97706 25.7664 7.93422C25.7269 7.8683 25.75 7.78262 25.8192 7.74307L26.6629 7.25531C26.7288 7.21576 26.8145 7.23883 26.854 7.30804C26.8936 7.37396 26.8705 7.45964 26.8013 7.49919L25.9576 7.98695C25.9378 7.99684 25.9115 8.00342 25.8884 8.00342Z" fill="#F5CBD9"/>
<path d="M24.6625 8.71204C24.6131 8.71204 24.5669 8.68567 24.5406 8.64283C24.501 8.57691 24.5241 8.49123 24.5933 8.45168L25.2953 8.04631C25.3612 8.00676 25.4469 8.02983 25.4864 8.09904C25.526 8.16496 25.5029 8.25065 25.4337 8.2902L24.7317 8.69556C24.7119 8.70544 24.6856 8.71204 24.6625 8.71204Z" fill="#F5CBD9"/>
<path d="M26.7646 8.88005C26.7415 8.88005 26.7151 8.87346 26.6954 8.86027C26.6294 8.82072 26.6064 8.73504 26.6426 8.66913L27.1304 7.82214C27.1699 7.75623 27.2556 7.73315 27.3215 7.76941C27.3875 7.80896 27.4105 7.89465 27.3743 7.96056L26.8865 8.80754C26.8602 8.85368 26.8107 8.88005 26.7646 8.88005Z" fill="#F5CBD9"/>
<path d="M25.4208 11.2036C25.3978 11.2036 25.3714 11.197 25.3516 11.1838C25.2857 11.1443 25.2626 11.0586 25.2989 10.9927L26.3403 9.19326C26.3799 9.12735 26.4656 9.10428 26.5315 9.14053C26.5974 9.18008 26.6204 9.26576 26.5842 9.33168L25.5428 11.1311C25.5164 11.1806 25.4703 11.2036 25.4208 11.2036Z" fill="#F5CBD9"/>
<path d="M27.9623 51.8752C28.3154 51.8752 28.6016 51.589 28.6016 51.2359C28.6016 50.8827 28.3154 50.5965 27.9623 50.5965C27.6092 50.5965 27.3229 50.8827 27.3229 51.2359C27.3229 51.589 27.6092 51.8752 27.9623 51.8752Z" fill="#F5CBD9"/>
<path d="M27.962 49.9605C27.8829 49.9605 27.8202 49.8979 27.8202 49.8188V48.8432C27.8202 48.7642 27.8829 48.7015 27.962 48.7015C28.041 48.7015 28.1037 48.7642 28.1037 48.8432V49.8188C28.1004 49.8979 28.0378 49.9605 27.962 49.9605Z" fill="#F5CBD9"/>
<path d="M27.962 48.3784C27.8829 48.3784 27.8202 48.3158 27.8202 48.2367V46.1572C27.8202 46.0781 27.8829 46.0154 27.962 46.0154C28.041 46.0154 28.1037 46.0781 28.1037 46.1572V48.2367C28.1004 48.3158 28.0378 48.3784 27.962 48.3784Z" fill="#F5CBD9"/>
<path d="M27.2526 50.1515C27.2031 50.1515 27.157 50.1251 27.1306 50.0823L26.6429 49.2386C26.6033 49.1727 26.6264 49.087 26.6956 49.0474C26.7615 49.0079 26.8472 49.0309 26.8868 49.1001L27.3745 49.9438C27.4141 50.0098 27.391 50.0954 27.3218 50.135C27.2987 50.1449 27.2756 50.1515 27.2526 50.1515Z" fill="#F5CBD9"/>
<path d="M26.4625 48.7806C26.4131 48.7806 26.3669 48.7543 26.3406 48.7114L25.2991 46.912C25.2596 46.8461 25.2826 46.7604 25.3519 46.7208C25.4178 46.6813 25.5035 46.7044 25.543 46.7736L26.5844 48.573C26.624 48.6389 26.6009 48.7246 26.5317 48.7642C26.5086 48.7741 26.4856 48.7806 26.4625 48.7806Z" fill="#F5CBD9"/>
<path d="M26.7356 50.6691C26.7125 50.6691 26.6862 50.6626 26.6664 50.6494L25.8227 50.1616C25.7568 50.1221 25.7337 50.0364 25.77 49.9705C25.8095 49.9045 25.8952 49.8815 25.9611 49.9177L26.8048 50.4055C26.8707 50.445 26.8938 50.5307 26.8576 50.5966C26.8312 50.6461 26.7818 50.6691 26.7356 50.6691Z" fill="#F5CBD9"/>
<path d="M25.3659 49.8781C25.3428 49.8781 25.3164 49.8715 25.2966 49.8583L24.5485 49.4266C24.4826 49.3871 24.4595 49.3014 24.4958 49.2355C24.5353 49.1696 24.621 49.1465 24.6869 49.1827L25.435 49.6145C25.501 49.654 25.524 49.7397 25.4878 49.8056C25.4614 49.8518 25.4153 49.8781 25.3659 49.8781Z" fill="#F5CBD9"/>
<path d="M26.5449 51.3775H25.5694C25.4903 51.3775 25.4276 51.3148 25.4276 51.2358C25.4276 51.1567 25.4903 51.094 25.5694 51.094H26.5449C26.624 51.094 26.6866 51.1567 26.6866 51.2358C26.6866 51.3148 26.624 51.3775 26.5449 51.3775Z" fill="#F5CBD9"/>
<path d="M24.9622 51.3775H23.0507C22.9716 51.3775 22.909 51.3148 22.909 51.2358C22.909 51.1567 22.9716 51.094 23.0507 51.094H24.9622C25.0413 51.094 25.1039 51.1567 25.1039 51.2358C25.1039 51.3148 25.0413 51.3775 24.9622 51.3775Z" fill="#F5CBD9"/>
<path d="M30.3549 51.3775H29.3794C29.3003 51.3775 29.2377 51.3148 29.2377 51.2358C29.2377 51.1567 29.3003 51.094 29.3794 51.094H30.3549C30.434 51.094 30.4966 51.1567 30.4966 51.2358C30.4934 51.3148 30.4307 51.3775 30.3549 51.3775Z" fill="#F5CBD9"/>
<path d="M32.8732 51.3775H30.9617C30.8827 51.3775 30.82 51.3148 30.82 51.2358C30.82 51.1567 30.8827 51.094 30.9617 51.094H32.8732C32.9523 51.094 33.0149 51.1567 33.0149 51.2358C33.0116 51.3148 32.949 51.3775 32.8732 51.3775Z" fill="#F5CBD9"/>
<path d="M29.1873 50.6691C29.1379 50.6691 29.0918 50.6427 29.0654 50.5998C29.0259 50.5339 29.0489 50.4482 29.1181 50.4087L29.9618 49.9209C30.0277 49.8814 30.1134 49.9045 30.153 49.9737C30.1925 50.0396 30.1695 50.1253 30.1002 50.1648L29.2566 50.6526C29.2335 50.6625 29.2104 50.6691 29.1873 50.6691Z" fill="#F5CBD9"/>
<path d="M30.5584 49.8779C30.5089 49.8779 30.4628 49.8515 30.4364 49.8087C30.3969 49.7428 30.4199 49.6571 30.4891 49.6176L31.1911 49.2122C31.257 49.1726 31.3427 49.1957 31.3823 49.2649C31.4218 49.3308 31.3987 49.4165 31.3295 49.4561L30.6276 49.8614C30.6045 49.8713 30.5814 49.8779 30.5584 49.8779Z" fill="#F5CBD9"/>
<path d="M28.6708 50.1516C28.6477 50.1516 28.6214 50.145 28.6016 50.1318C28.5357 50.0923 28.5126 50.0066 28.5489 49.9407L29.0366 49.097C29.0762 49.0311 29.1618 49.008 29.2278 49.0442C29.2937 49.0838 29.3168 49.1695 29.2805 49.2354L28.7927 50.0791C28.7664 50.1252 28.7169 50.1516 28.6708 50.1516Z" fill="#F5CBD9"/>
<path d="M29.4619 48.7806C29.4388 48.7806 29.4125 48.7741 29.3927 48.7609C29.3268 48.7213 29.3037 48.6356 29.34 48.5697L30.3781 46.7703C30.4176 46.7044 30.5033 46.6813 30.5692 46.7176C30.6352 46.7571 30.6582 46.8428 30.622 46.9087L29.5838 48.7081C29.5575 48.7543 29.508 48.7806 29.4619 48.7806Z" fill="#F5CBD9"/>
<path d="M50.2476 28.3111C49.895 28.3111 49.6082 28.5978 49.6082 28.9505C49.6082 29.3031 49.895 29.5898 50.2476 29.5898C50.6002 29.5898 50.887 29.3031 50.887 28.9505C50.887 28.5978 50.6002 28.3111 50.2476 28.3111Z" fill="#F5CBD9"/>
<path d="M48.8301 29.0921H47.8546C47.7755 29.0921 47.7129 29.0295 47.7129 28.9504C47.7129 28.8713 47.7755 28.8087 47.8546 28.8087H48.8301C48.9092 28.8087 48.9718 28.8713 48.9718 28.9504C48.9718 29.0295 48.9059 29.0921 48.8301 29.0921Z" fill="#F5CBD9"/>
<path d="M47.2475 29.0921H45.1679C45.0888 29.0921 45.0262 29.0295 45.0262 28.9504C45.0262 28.8713 45.0888 28.8087 45.1679 28.8087H47.2475C47.3266 28.8087 47.3892 28.8713 47.3892 28.9504C47.3859 29.0295 47.3233 29.0921 47.2475 29.0921Z" fill="#F5CBD9"/>
<path d="M48.1736 30.2885C48.1242 30.2885 48.078 30.2621 48.0517 30.2193C48.0121 30.1534 48.0352 30.0677 48.1044 30.0281L48.9481 29.5404C49.014 29.5008 49.0997 29.5239 49.1392 29.5931C49.1788 29.659 49.1557 29.7447 49.0865 29.7843L48.2428 30.272C48.223 30.2819 48.1967 30.2885 48.1736 30.2885Z" fill="#F5CBD9"/>
<path d="M45.8479 31.6298C45.7985 31.6298 45.7523 31.6035 45.7259 31.5606C45.6864 31.4947 45.7095 31.409 45.7787 31.3695L47.5781 30.328C47.644 30.2885 47.7297 30.3116 47.7693 30.3808C47.8088 30.4467 47.7858 30.5324 47.7165 30.5719L45.9171 31.6134C45.8973 31.6265 45.8743 31.6298 45.8479 31.6298Z" fill="#F5CBD9"/>
<path d="M49.0511 31.165C49.028 31.165 49.0016 31.1584 48.9819 31.1452C48.9159 31.1057 48.8929 31.02 48.9291 30.9541L49.4169 30.1071C49.4564 30.0412 49.5421 30.0181 49.608 30.0543C49.674 30.0939 49.697 30.1796 49.6608 30.2455L49.173 31.0925C49.1466 31.1386 49.0972 31.165 49.0511 31.165Z" fill="#F5CBD9"/>
<path d="M48.3172 32.4374C48.2941 32.4374 48.2678 32.4308 48.248 32.4176C48.1821 32.378 48.159 32.2923 48.1953 32.2264L48.627 31.4783C48.6666 31.4124 48.7523 31.3893 48.8182 31.4256C48.8841 31.4651 48.9072 31.5508 48.8709 31.6167L48.4392 32.3648C48.4128 32.411 48.3667 32.4374 48.3172 32.4374Z" fill="#F5CBD9"/>
<path d="M50.2471 31.4847C50.1681 31.4847 50.1054 31.4221 50.1054 31.343V30.3675C50.1054 30.2884 50.1681 30.2258 50.2471 30.2258C50.3262 30.2258 50.3889 30.2884 50.3889 30.3675V31.343C50.3856 31.4221 50.3229 31.4847 50.2471 31.4847Z" fill="#F5CBD9"/>
<path d="M50.2471 34.0028C50.1681 34.0028 50.1054 33.9402 50.1054 33.8611V31.9496C50.1054 31.8705 50.1681 31.8079 50.2471 31.8079C50.3262 31.8079 50.3889 31.8705 50.3889 31.9496V33.8611C50.3856 33.9402 50.3229 34.0028 50.2471 34.0028Z" fill="#F5CBD9"/>
<path d="M50.2471 27.6751C50.1681 27.6751 50.1054 27.6124 50.1054 27.5333V26.5578C50.1054 26.4787 50.1681 26.4161 50.2471 26.4161C50.3262 26.4161 50.3889 26.4787 50.3889 26.5578V27.5333C50.3856 27.6124 50.3229 27.6751 50.2471 27.6751Z" fill="#F5CBD9"/>
<path d="M50.2471 26.093C50.1681 26.093 50.1054 26.0304 50.1054 25.9513V24.0398C50.1054 23.9607 50.1681 23.8981 50.2471 23.8981C50.3262 23.8981 50.3889 23.9607 50.3889 24.0398V25.9513C50.3856 26.0304 50.3229 26.093 50.2471 26.093Z" fill="#F5CBD9"/>
<path d="M49.5397 27.8662C49.4903 27.8662 49.4442 27.8398 49.4178 27.797L48.9301 26.95C48.8905 26.8841 48.9136 26.7984 48.9828 26.7588C49.0487 26.7193 49.1344 26.7423 49.1739 26.8116L49.6617 27.6585C49.7012 27.7245 49.6782 27.8101 49.609 27.8497C49.5859 27.8596 49.5628 27.8662 49.5397 27.8662Z" fill="#F5CBD9"/>
<path d="M48.747 26.4951C48.6976 26.4951 48.6514 26.4688 48.6251 26.4259L48.2197 25.7239C48.1801 25.658 48.2032 25.5723 48.2724 25.5328C48.3383 25.4932 48.424 25.5163 48.4636 25.5855L48.869 26.2875C48.9085 26.3534 48.8854 26.4391 48.8162 26.4786C48.7931 26.4885 48.7701 26.4951 48.747 26.4951Z" fill="#F5CBD9"/>
<path d="M49.0209 28.3836C48.9978 28.3836 48.9714 28.377 48.9517 28.3638L48.108 27.876C48.0421 27.8365 48.019 27.7508 48.0552 27.6849C48.0948 27.619 48.1805 27.5959 48.2464 27.6322L49.0901 28.1199C49.156 28.1595 49.1791 28.2452 49.1428 28.3111C49.1164 28.3605 49.067 28.3836 49.0209 28.3836Z" fill="#F5CBD9"/>
<path d="M47.6509 27.5926C47.6278 27.5926 47.6014 27.5861 47.5817 27.5729L45.7822 26.5314C45.7163 26.4919 45.6932 26.4062 45.7295 26.3403C45.769 26.2744 45.8547 26.2513 45.9206 26.2876L47.7201 27.329C47.786 27.3685 47.8091 27.4542 47.7728 27.5201C47.7464 27.5696 47.697 27.5926 47.6509 27.5926Z" fill="#F5CBD9"/>
<path d="M5.67726 29.5931C6.0299 29.5931 6.3166 29.3064 6.3166 28.9537C6.3166 28.6011 6.0299 28.3144 5.67726 28.3144C5.32463 28.3144 5.0379 28.6011 5.0379 28.9537C5.0379 29.3064 5.32463 29.5931 5.67726 29.5931Z" fill="#F5CBD9"/>
<path d="M8.07098 29.0921H7.09548C7.01638 29.0921 6.95377 29.0295 6.95377 28.9504C6.95377 28.8713 7.01638 28.8087 7.09548 28.8087H8.07098C8.15008 28.8087 8.21269 28.8713 8.21269 28.9504C8.2094 29.0295 8.14678 29.0921 8.07098 29.0921Z" fill="#F5CBD9"/>
<path d="M10.756 29.0921H8.67641C8.59731 29.0921 8.5347 29.0295 8.5347 28.9504C8.5347 28.8713 8.59731 28.8087 8.67641 28.8087H10.756C10.8351 28.8087 10.8977 28.8713 10.8977 28.9504C10.8944 29.0295 10.8318 29.0921 10.756 29.0921Z" fill="#F5CBD9"/>
<path d="M6.90405 28.3835C6.85461 28.3835 6.80847 28.3571 6.78211 28.3143C6.74256 28.2484 6.76562 28.1627 6.83483 28.1231L7.67852 27.6354C7.74443 27.5958 7.83013 27.6189 7.86967 27.6881C7.90922 27.754 7.88616 27.8397 7.81695 27.8792L6.97326 28.367C6.95349 28.3769 6.92711 28.3835 6.90405 28.3835Z" fill="#F5CBD9"/>
<path d="M8.27504 27.5925C8.22561 27.5925 8.17947 27.5662 8.1531 27.5233C8.11356 27.4574 8.13664 27.3717 8.20585 27.3322L10.0086 26.2908C10.0745 26.2512 10.1602 26.2743 10.1997 26.3435C10.2393 26.4094 10.2162 26.4951 10.147 26.5346L8.34426 27.5761C8.32119 27.586 8.29811 27.5925 8.27504 27.5925Z" fill="#F5CBD9"/>
<path d="M6.38567 27.8663C6.3626 27.8663 6.33623 27.8597 6.31646 27.8465C6.25054 27.8069 6.22748 27.7213 6.26373 27.6553L6.75149 26.8084C6.79103 26.7424 6.87673 26.7194 6.94264 26.7556C7.00855 26.7952 7.03163 26.8809 6.99538 26.9468L6.50761 27.7938C6.48124 27.8399 6.43181 27.8663 6.38567 27.8663Z" fill="#F5CBD9"/>
<path d="M7.17681 26.495C7.15374 26.495 7.12737 26.4885 7.10759 26.4753C7.04168 26.4357 7.01862 26.35 7.05487 26.2841L7.4866 25.536C7.52615 25.4701 7.61182 25.447 7.67774 25.4833C7.74365 25.5228 7.76673 25.6085 7.73048 25.6744L7.29875 26.4225C7.27238 26.472 7.22295 26.495 7.17681 26.495Z" fill="#F5CBD9"/>
<path d="M5.67674 27.6751C5.59764 27.6751 5.535 27.6124 5.535 27.5333V26.5578C5.535 26.4787 5.59764 26.4161 5.67674 26.4161C5.75583 26.4161 5.81845 26.4787 5.81845 26.5578V27.5333C5.81515 27.6124 5.75254 27.6751 5.67674 27.6751Z" fill="#F5CBD9"/>
<path d="M5.67674 26.093C5.59764 26.093 5.535 26.0304 5.535 25.9513V24.0398C5.535 23.9607 5.59764 23.8981 5.67674 23.8981C5.75583 23.8981 5.81845 23.9607 5.81845 24.0398V25.9513C5.81515 26.0304 5.75254 26.093 5.67674 26.093Z" fill="#F5CBD9"/>
<path d="M5.67674 31.4847C5.59764 31.4847 5.535 31.4221 5.535 31.343V30.3675C5.535 30.2884 5.59764 30.2258 5.67674 30.2258C5.75583 30.2258 5.81845 30.2884 5.81845 30.3675V31.343C5.81515 31.4221 5.75254 31.4847 5.67674 31.4847Z" fill="#F5CBD9"/>
<path d="M5.67674 34.0028C5.59764 34.0028 5.535 33.9402 5.535 33.8611V31.9496C5.535 31.8705 5.59764 31.8079 5.67674 31.8079C5.75583 31.8079 5.81845 31.8705 5.81845 31.9496V33.8611C5.81515 33.9402 5.75254 34.0028 5.67674 34.0028Z" fill="#F5CBD9"/>
<path d="M6.87367 31.1651C6.82424 31.1651 6.7781 31.1387 6.75173 31.0959L6.26398 30.2489C6.22443 30.183 6.24749 30.0973 6.3167 30.0578C6.38261 30.0182 6.46831 30.0413 6.50786 30.1105L6.99563 30.9575C7.03518 31.0234 7.0121 31.1091 6.94289 31.1486C6.91982 31.1585 6.89674 31.1651 6.87367 31.1651Z" fill="#F5CBD9"/>
<path d="M7.58312 32.3911C7.53368 32.3911 7.48755 32.3647 7.46118 32.3219L7.05582 31.6199C7.01627 31.554 7.03933 31.4683 7.10854 31.4288C7.17445 31.3892 7.26015 31.4123 7.2997 31.4815L7.70506 32.1835C7.7446 32.2494 7.72154 32.3351 7.65233 32.3746C7.62926 32.3845 7.60619 32.3911 7.58312 32.3911Z" fill="#F5CBD9"/>
<path d="M7.74682 30.2886C7.72375 30.2886 7.69738 30.282 7.6776 30.2688L6.83391 29.7811C6.768 29.7415 6.74494 29.6558 6.78119 29.5899C6.82074 29.524 6.90643 29.5009 6.97234 29.5372L7.81603 30.0249C7.88195 30.0645 7.90501 30.1502 7.86876 30.2161C7.84239 30.2622 7.79625 30.2886 7.74682 30.2886Z" fill="#F5CBD9"/>
<path d="M10.0742 31.6298C10.0511 31.6298 10.0247 31.6232 10.0049 31.61L8.20223 30.5686C8.13631 30.529 8.11325 30.4434 8.14951 30.3774C8.18905 30.3115 8.27473 30.2885 8.34064 30.3247L10.1434 31.3661C10.2093 31.4057 10.2324 31.4914 10.1961 31.5573C10.1697 31.6067 10.1236 31.6298 10.0742 31.6298Z" fill="#F5CBD9"/>
<path d="M21.5834 10.234C21.5043 10.234 21.4285 10.2307 21.3527 10.2209C20.7068 10.1451 20.1234 9.73639 19.8664 9.17942C19.5928 8.5862 19.7148 7.83808 20.1564 7.39646C20.6244 6.92848 21.4252 6.85598 21.9393 7.23828C22.3546 7.54807 22.5227 8.12481 22.3216 8.54995C22.2096 8.78724 21.9624 8.96521 21.6823 9.01794C21.4285 9.06408 21.1879 8.99816 21.0199 8.83667C20.9638 8.78394 20.9638 8.69496 21.0166 8.63894C21.0693 8.58291 21.1583 8.58291 21.2143 8.63564C21.3165 8.73451 21.4648 8.77076 21.6329 8.7411C21.8273 8.70485 21.9921 8.5862 22.0679 8.42801C22.2162 8.11822 22.0844 7.69308 21.7746 7.46238C21.3659 7.15918 20.7298 7.2185 20.3541 7.59421C19.9916 7.95343 19.8927 8.57302 20.1201 9.06078C20.3376 9.53206 20.8353 9.8781 21.3824 9.94072C21.8998 10.0033 22.4666 9.81878 22.8984 9.45626C23.485 8.95861 23.752 8.15777 23.5509 7.50523C23.4059 7.03724 23.0302 6.63187 22.526 6.38799C22.0942 6.18036 21.5669 6.08809 20.9605 6.11116C19.9982 6.14741 19.0029 6.45391 18.0076 7.02076C17.2397 7.45909 16.1489 8.14458 15.3052 8.93225C15.2524 8.97839 15.1733 8.98169 15.1206 8.93884C15.0646 8.89271 15.0547 8.8169 15.0909 8.75758C15.4238 8.21709 15.6611 7.73592 15.8226 7.27782C14.7054 8.24346 13.397 9.00805 12.0095 9.5024C11.3965 9.71992 10.5858 9.9539 9.75525 9.83856C8.89838 9.71662 8.17664 9.19261 7.91628 8.50381C7.7515 8.06879 7.78444 7.55466 8.00525 7.09986C8.22936 6.64176 8.61166 6.30231 9.05657 6.16389C9.62013 5.98922 10.2529 6.13422 10.6352 6.52311C11.0604 6.95814 11.1263 7.66012 10.7868 8.12152C10.6088 8.3621 10.3122 8.52359 9.99255 8.54666C9.69264 8.57302 9.40922 8.47745 9.21478 8.2863C9.15875 8.23357 9.15875 8.14458 9.21148 8.08856C9.26421 8.03253 9.35318 8.03253 9.40921 8.08856C9.54433 8.22038 9.74537 8.28959 9.96618 8.26981C10.2068 8.25004 10.4276 8.1347 10.5561 7.95673C10.8132 7.60739 10.7539 7.05042 10.4309 6.71756C10.1211 6.40117 9.60037 6.28582 9.13568 6.42754C8.76327 6.54289 8.44358 6.82962 8.25243 7.21851C8.06457 7.60739 8.03492 8.03913 8.17333 8.40165C8.40074 8.99817 9.03352 9.44967 9.79152 9.55842C10.5627 9.66718 11.3306 9.44308 11.9139 9.23545C13.4233 8.69826 14.8372 7.83479 16.0005 6.73404C16.0467 6.6912 16.1126 6.68461 16.1686 6.71427C16.2214 6.74393 16.2477 6.80654 16.2345 6.86916C16.1324 7.29759 15.9676 7.72933 15.727 8.20061C16.4587 7.62057 17.2628 7.11963 17.8692 6.77688C18.904 6.18695 19.9422 5.86727 20.9506 5.83102C21.6032 5.80466 22.1766 5.91013 22.6479 6.13753C23.2247 6.41436 23.6498 6.88235 23.8212 7.42284C24.0585 8.18084 23.752 9.10362 23.0829 9.67047C22.6545 10.033 22.1074 10.234 21.5834 10.234Z" fill="#F1DFC1"/>
<path d="M21.1257 9.92426C21.0466 9.92426 20.9708 9.92096 20.895 9.91107C20.6906 9.888 20.4896 9.82868 20.2985 9.7397C20.2293 9.70674 20.1996 9.62435 20.2325 9.55184C20.2655 9.48263 20.3479 9.45297 20.4204 9.48593C20.5852 9.56173 20.7566 9.61117 20.9312 9.63424C21.4486 9.69356 22.0155 9.51229 22.4472 9.14977C23.0339 8.65542 23.3008 7.85127 23.0998 7.19873C23.0042 6.89223 22.8065 6.6121 22.5131 6.37481C22.4538 6.32538 22.4439 6.2364 22.4934 6.17708C22.5428 6.11776 22.6318 6.10787 22.6911 6.15731C23.0273 6.43085 23.2547 6.75382 23.3667 7.11634C23.604 7.87434 23.2975 8.79713 22.6285 9.36399C22.1968 9.72322 21.6497 9.92426 21.1257 9.92426Z" fill="#F1DFC1"/>
<path d="M10.4686 9.85855C10.462 9.85855 10.4554 9.85855 10.4488 9.85855C9.73367 9.75639 8.83065 9.28841 8.53074 8.50404C8.34619 8.01628 8.4055 7.40987 8.68893 6.92541C8.94929 6.48049 9.36125 6.19377 9.84901 6.12456C9.92481 6.11138 9.99731 6.1674 10.0072 6.2432C10.0171 6.319 9.96436 6.39151 9.88856 6.4014C9.48649 6.46072 9.14704 6.698 8.92953 7.06712C8.68894 7.47908 8.6362 7.99321 8.79109 8.40187C9.05145 9.08078 9.85231 9.48943 10.4884 9.57842C10.5642 9.5883 10.6169 9.66081 10.607 9.73661C10.5971 9.80912 10.5378 9.85855 10.4686 9.85855Z" fill="#F1DFC1"/>
<path d="M24.6154 6.11127H12.8037C12.7246 6.11127 12.662 6.04866 12.662 5.96956C12.662 5.89047 12.7246 5.82785 12.8037 5.82785H24.6154C24.6945 5.82785 24.7571 5.89047 24.7571 5.96956C24.7571 6.04536 24.6945 6.11127 24.6154 6.11127Z" fill="#F1DFC1"/>
<path d="M21.4494 9.00155C21.8025 9.00155 22.0887 8.71531 22.0887 8.3622C22.0887 8.00909 21.8025 7.72284 21.4494 7.72284C21.0962 7.72284 20.81 8.00909 20.81 8.3622C20.81 8.71531 21.0962 9.00155 21.4494 9.00155Z" fill="#F1DFC1"/>
<path d="M13.4436 6.4704C13.4436 6.82304 13.1569 7.10976 12.8043 7.10976C12.4516 7.10976 12.1649 6.82304 12.1649 6.4704C12.1649 6.11776 12.4516 5.83104 12.8043 5.83104C13.1569 5.83104 13.4436 6.11776 13.4436 6.4704Z" fill="#F1DFC1"/>
<path d="M9.67784 8.48101C10.031 8.48101 10.3172 8.19475 10.3172 7.84165C10.3172 7.48854 10.031 7.20229 9.67784 7.20229C9.32473 7.20229 9.03848 7.48854 9.03848 7.84165C9.03848 8.19475 9.32473 8.48101 9.67784 8.48101Z" fill="#F1DFC1"/>
<path d="M34.329 10.2376C33.8017 10.2376 33.2711 10.0399 32.8394 9.67406C32.167 9.1072 31.8638 8.18441 32.1011 7.42641C32.2692 6.88592 32.6976 6.41794 33.2744 6.1411C33.749 5.9137 34.3191 5.80824 34.9716 5.83461C35.9801 5.87086 37.0183 6.19054 38.0531 6.78046C38.6595 7.12651 39.4637 7.62416 40.1953 8.20419C39.9547 7.73291 39.7899 7.30118 39.6878 6.87274C39.6746 6.81342 39.7009 6.7508 39.7537 6.71784C39.8064 6.68818 39.8756 6.69477 39.9218 6.73762C41.0851 7.83837 42.499 8.70183 44.0084 9.23903C44.5917 9.44666 45.3596 9.67077 46.1308 9.56201C46.8855 9.45655 47.5216 9.00174 47.749 8.40523C47.8874 8.0427 47.8577 7.61097 47.6699 7.22208C47.482 6.83319 47.159 6.54647 46.7866 6.43112C46.3219 6.28611 45.8012 6.40146 45.4914 6.72114C45.1652 7.05401 45.1091 7.60768 45.3662 7.96032C45.4947 8.13499 45.7155 8.25363 45.9561 8.2734C46.1736 8.28988 46.378 8.22397 46.5131 8.09214C46.5691 8.03941 46.6581 8.03941 46.7108 8.09214C46.7636 8.14817 46.7636 8.23715 46.7075 8.28988C46.5131 8.48103 46.2297 8.5766 45.9297 8.55024C45.6101 8.52387 45.3135 8.36569 45.1355 8.1251C44.796 7.66371 44.8619 6.95843 45.2871 6.5267C45.6694 6.13781 46.3022 5.9928 46.8657 6.16747C47.3106 6.30589 47.6929 6.64534 47.917 7.10344C48.1412 7.56154 48.1741 8.07236 48.006 8.50739C47.7424 9.19618 47.0206 9.7202 46.167 9.84214C45.3365 9.96079 44.5258 9.72349 43.9128 9.50598C42.5253 9.01163 41.2169 8.24703 40.0997 7.2814C40.2612 7.7395 40.4985 8.22067 40.8314 8.76116C40.8676 8.82049 40.8544 8.89958 40.8017 8.94242C40.749 8.98526 40.6699 8.98527 40.6171 8.93583C39.7767 8.14817 38.6826 7.46266 37.9147 7.02434C36.9194 6.45748 35.9241 6.15099 34.9618 6.11474C34.3521 6.09167 33.8281 6.18724 33.3963 6.39158C32.8888 6.63546 32.5164 7.04082 32.3714 7.5088C32.167 8.16135 32.4373 8.9622 33.0239 9.45984C33.4556 9.82566 34.0258 10.0069 34.5399 9.94431C35.0903 9.87839 35.5879 9.53234 35.8055 9.06436C36.0329 8.5733 35.934 7.95702 35.5715 7.59779C35.1958 7.22209 34.5597 7.16606 34.151 7.46597C33.8379 7.69666 33.7094 8.1218 33.8577 8.4316C33.9335 8.58979 34.0983 8.70843 34.2927 8.74468C34.4542 8.77434 34.6091 8.7348 34.7113 8.63922C34.7673 8.58649 34.8563 8.58649 34.909 8.64251C34.9618 8.69854 34.9618 8.78753 34.9057 8.84026C34.7377 9.00174 34.4971 9.06766 34.2433 9.02152C33.9632 8.97209 33.7193 8.79082 33.604 8.55353C33.3996 8.12839 33.5677 7.55165 33.9862 7.24185C34.5004 6.85956 35.3012 6.93207 35.7692 7.40005C36.2108 7.84167 36.3328 8.58979 36.0592 9.18301C35.8022 9.73998 35.2188 10.1486 34.5729 10.2244C34.4872 10.231 34.4081 10.2376 34.329 10.2376Z" fill="#F1DFC1"/>
<path d="M34.7971 9.92453C34.2731 9.92453 33.726 9.7235 33.2976 9.36098C32.6253 8.79412 32.3221 7.87133 32.5594 7.11333C32.6714 6.7541 32.8988 6.43112 33.235 6.15429C33.2943 6.10485 33.3833 6.11474 33.4327 6.17406C33.4821 6.23338 33.4723 6.32237 33.4129 6.3718C33.1196 6.61239 32.9252 6.88922 32.8296 7.19572C32.6253 7.84826 32.8955 8.6491 33.4822 9.14675C33.9139 9.51257 34.484 9.69383 34.9982 9.63121C35.1728 9.61144 35.3442 9.56201 35.509 9.48292C35.5782 9.44996 35.6639 9.47961 35.6968 9.54882C35.7298 9.61803 35.7001 9.70372 35.6309 9.73668C35.4398 9.82566 35.2387 9.88498 35.0344 9.90805C34.952 9.92123 34.8729 9.92453 34.7971 9.92453Z" fill="#F1DFC1"/>
<path d="M45.4512 9.85868C45.382 9.85868 45.3227 9.80924 45.3128 9.73674C45.3029 9.66094 45.3556 9.58843 45.4314 9.57854C46.0675 9.48956 46.8684 9.0809 47.1287 8.402C47.2869 7.99004 47.2342 7.47921 46.9903 7.06396C46.7728 6.69484 46.4333 6.45755 46.0313 6.39822C45.9555 6.38834 45.9027 6.31584 45.9126 6.24004C45.9225 6.16424 45.995 6.10821 46.0708 6.12139C46.5586 6.19389 46.9705 6.47732 47.2309 6.92223C47.5143 7.4067 47.5769 8.00981 47.3891 8.50086C47.0892 9.28853 46.1862 9.75322 45.471 9.85539C45.4677 9.85868 45.4578 9.85868 45.4512 9.85868Z" fill="#F1DFC1"/>
<path d="M43.1177 6.11144H31.306C31.2269 6.11144 31.1643 6.04883 31.1643 5.96973C31.1643 5.89063 31.2269 5.82802 31.306 5.82802H43.1177C43.1968 5.82802 43.2594 5.89063 43.2594 5.96973C43.2561 6.04553 43.1935 6.11144 43.1177 6.11144Z" fill="#F1DFC1"/>
<path d="M34.4744 9.00173C34.8275 9.00173 35.1137 8.71549 35.1137 8.36238C35.1137 8.00927 34.8275 7.72302 34.4744 7.72302C34.1213 7.72302 33.835 8.00927 33.835 8.36238C33.835 8.71549 34.1213 9.00173 34.4744 9.00173Z" fill="#F1DFC1"/>
<path d="M42.4799 6.47055C42.4799 6.82319 42.7666 7.10991 43.1192 7.10991C43.4719 7.10991 43.7586 6.82319 43.7586 6.47055C43.7586 6.11792 43.4719 5.83119 43.1192 5.83119C42.7666 5.83119 42.4799 6.11792 42.4799 6.47055Z" fill="#F1DFC1"/>
<path d="M46.2457 8.48101C46.5988 8.48101 46.885 8.19475 46.885 7.84165C46.885 7.48854 46.5988 7.20229 46.2457 7.20229C45.8926 7.20229 45.6063 7.48854 45.6063 7.84165C45.6063 8.19475 45.8926 8.48101 46.2457 8.48101Z" fill="#F1DFC1"/>
<path d="M21.1353 52.0763C21.0727 52.0763 21.0134 52.0763 20.9508 52.073C19.9423 52.0367 18.9042 51.7171 17.8693 51.1271C17.2629 50.7811 16.4588 50.2834 15.7271 49.7034C15.9677 50.1747 16.1325 50.6064 16.2347 51.0349C16.2478 51.0942 16.2215 51.1568 16.1687 51.1897C16.116 51.2194 16.0468 51.2128 16.0007 51.17C14.8373 50.0692 13.4235 49.2058 11.914 48.6686C11.3307 48.4609 10.5595 48.2368 9.79164 48.3456C9.03693 48.4543 8.40085 48.9059 8.17345 49.5024C8.03503 49.8649 8.06469 50.2966 8.25254 50.6855C8.4404 51.0744 8.76339 51.3611 9.1358 51.4765C9.60049 51.6215 10.1212 51.5061 10.431 51.1864C10.7573 50.8536 10.8133 50.2999 10.5562 49.9473C10.4277 49.7693 10.2069 49.654 9.9663 49.6342C9.74878 49.6177 9.54445 49.6836 9.40933 49.8155C9.3533 49.8715 9.26433 49.8682 9.2116 49.8155C9.15887 49.7594 9.15887 49.6704 9.21489 49.6177C9.40934 49.4266 9.69276 49.331 9.98937 49.3574C10.309 49.3837 10.6057 49.5419 10.7836 49.7825C11.1231 50.2439 11.0572 50.9492 10.632 51.3809C10.2497 51.7698 9.61697 51.9148 9.05341 51.7401C8.60849 51.6017 8.2262 51.2623 8.00209 50.8042C7.77799 50.3461 7.74502 49.8352 7.9131 49.4002C8.17675 48.7114 8.89851 48.1874 9.75209 48.0655C10.5859 47.9468 11.3933 48.1841 12.0063 48.4016C13.3938 48.896 14.7022 49.6606 15.8194 50.6262C15.6579 50.1681 15.4206 49.6869 15.0878 49.1464C15.0515 49.0871 15.0647 49.008 15.1174 48.9652C15.1702 48.9223 15.2493 48.9223 15.302 48.9718C16.1424 49.7594 17.2365 50.4449 18.0044 50.8833C18.9997 51.4501 19.995 51.7566 20.9574 51.7929C21.5671 51.8159 22.0911 51.7203 22.5228 51.516C23.0303 51.2721 23.4027 50.8668 23.5478 50.3988C23.7521 49.7462 23.4818 48.9454 22.8952 48.4477C22.4635 48.0819 21.8966 47.9007 21.3792 47.9633C20.8288 48.0292 20.3345 48.3752 20.117 48.8432C19.8896 49.331 19.9884 49.9506 20.351 50.3098C20.7267 50.6855 21.3627 50.7415 21.7714 50.4416C22.0845 50.2109 22.213 49.7858 22.0647 49.476C21.9889 49.3178 21.8241 49.1992 21.6297 49.1629C21.4649 49.1333 21.3133 49.1728 21.2111 49.2684C21.1551 49.3211 21.0661 49.3211 21.0134 49.2651C20.9607 49.2091 20.9607 49.1201 21.0167 49.0673C21.1848 48.9058 21.4254 48.8399 21.6791 48.8861C21.9592 48.9355 22.2031 49.1168 22.3185 49.3541C22.5228 49.7792 22.3547 50.3559 21.9362 50.6657C21.422 51.048 20.6212 50.9755 20.1532 50.5075C19.7116 50.0659 19.5897 49.3178 19.8632 48.7246C20.1203 48.1676 20.7036 47.759 21.3496 47.6832C21.9428 47.614 22.5887 47.8183 23.0798 48.2335C23.7521 48.8004 24.0553 49.7232 23.818 50.4812C23.6499 51.0217 23.2215 51.4897 22.6447 51.7665C22.2229 51.9708 21.7121 52.0763 21.1353 52.0763Z" fill="#F1DFC1"/>
<path d="M22.5984 51.7796C22.5589 51.7796 22.516 51.7631 22.4896 51.7269C22.4402 51.6676 22.4501 51.5786 22.5094 51.5291C22.8027 51.2886 22.9972 51.0117 23.0961 50.7052C23.3004 50.0527 23.0301 49.2518 22.4435 48.7542C22.0118 48.3884 21.4449 48.2071 20.9275 48.2697C20.7528 48.2895 20.5815 48.3389 20.4167 48.418C20.3475 48.451 20.2618 48.4213 20.2288 48.3521C20.1959 48.2829 20.2255 48.1972 20.298 48.1643C20.4892 48.0753 20.6902 48.016 20.8945 47.9929C21.4878 47.9237 22.1337 48.128 22.6248 48.5433C23.2971 49.1101 23.6003 50.0329 23.363 50.7909C23.2509 51.1534 23.0236 51.4731 22.6874 51.75C22.661 51.7697 22.6281 51.7796 22.5984 51.7796Z" fill="#F1DFC1"/>
<path d="M9.86778 51.783C9.86119 51.783 9.8546 51.783 9.84801 51.783C9.36025 51.7105 8.94829 51.4271 8.68793 50.9821C8.4045 50.4977 8.34189 49.8946 8.52974 49.4035C8.82965 48.6159 9.73266 48.1512 10.4478 48.049C10.5236 48.0391 10.5961 48.0919 10.606 48.1677C10.6159 48.2435 10.5632 48.316 10.4874 48.3258C9.85131 48.4148 9.05045 48.8235 8.79009 49.5024C8.6319 49.9144 8.68465 50.4252 8.92853 50.8371C9.14604 51.2063 9.48549 51.4435 9.88756 51.5029C9.96336 51.5128 10.0161 51.5853 10.0062 51.6611C9.99631 51.7336 9.93699 51.783 9.86778 51.783Z" fill="#F1DFC1"/>
<path d="M24.6155 52.0762H12.8039C12.7248 52.0762 12.6621 52.0136 12.6621 51.9345C12.6621 51.8554 12.7248 51.7928 12.8039 51.7928H24.6155C24.6946 51.7928 24.7572 51.8554 24.7572 51.9345C24.7572 52.0136 24.6946 52.0762 24.6155 52.0762Z" fill="#F1DFC1"/>
<path d="M21.448 50.1813C21.8011 50.1813 22.0873 49.895 22.0873 49.5419C22.0873 49.1888 21.8011 48.9025 21.448 48.9025C21.0949 48.9025 20.8086 49.1888 20.8086 49.5419C20.8086 49.895 21.0949 50.1813 21.448 50.1813Z" fill="#F1DFC1"/>
<path d="M12.8044 52.0728C13.1575 52.0728 13.4438 51.7866 13.4438 51.4335C13.4438 51.0804 13.1575 50.7941 12.8044 50.7941C12.4513 50.7941 12.165 51.0804 12.165 51.4335C12.165 51.7866 12.4513 52.0728 12.8044 52.0728Z" fill="#F1DFC1"/>
<path d="M9.678 50.702C10.0311 50.702 10.3174 50.4157 10.3174 50.0626C10.3174 49.7095 10.0311 49.4233 9.678 49.4233C9.32489 49.4233 9.03864 49.7095 9.03864 50.0626C9.03864 50.4157 9.32489 50.702 9.678 50.702Z" fill="#F1DFC1"/>
<path d="M34.7842 52.0761C34.2075 52.0761 33.7 51.974 33.2715 51.7663C32.6948 51.4895 32.2696 51.0215 32.0983 50.481C31.861 49.723 32.1675 48.8002 32.8365 48.2334C33.3341 47.8115 33.9636 47.6138 34.5667 47.683C35.2127 47.7588 35.796 48.1675 36.0531 48.7244C36.3266 49.3177 36.2047 50.0658 35.763 50.5074C35.2918 50.9754 34.4909 51.0479 33.9801 50.6656C33.5648 50.3558 33.3968 49.7791 33.5978 49.3539C33.7098 49.1166 33.9537 48.9387 34.2372 48.8859C34.4909 48.8398 34.7315 48.9057 34.8996 49.0672C34.9556 49.1199 34.9556 49.2089 34.9029 49.2649C34.8502 49.321 34.7612 49.321 34.7051 49.2682C34.603 49.1694 34.4514 49.1331 34.2866 49.1628C34.0922 49.199 33.9274 49.3177 33.8516 49.4759C33.7033 49.7857 33.8351 50.2108 34.1449 50.4415C34.5535 50.7447 35.1896 50.6854 35.5653 50.3097C35.9278 49.9504 36.0267 49.3341 35.7993 48.8431C35.5818 48.3718 35.0841 48.0258 34.5338 47.9631C34.0164 47.9038 33.4495 48.0851 33.0178 48.4476C32.4311 48.942 32.1642 49.7461 32.3652 50.3986C32.5102 50.8666 32.8859 51.272 33.3902 51.5159C33.8219 51.7235 34.3492 51.8158 34.9556 51.7927C35.9179 51.7565 36.9132 51.45 37.9085 50.8831C38.6764 50.4448 39.7673 49.7593 40.611 48.9716C40.6637 48.9222 40.7428 48.9222 40.7955 48.965C40.8516 49.0112 40.8614 49.087 40.8252 49.1463C40.4923 49.6868 40.2551 50.1679 40.0936 50.626C41.2075 49.6604 42.5192 48.8958 43.9067 48.4015C44.5196 48.184 45.3304 47.9467 46.1609 48.0653C47.0178 48.1872 47.7395 48.7113 47.9999 49.4001C48.1647 49.8351 48.1317 50.3492 47.9109 50.804C47.6868 51.2621 47.3045 51.6016 46.8596 51.74C46.296 51.9147 45.6632 51.7696 45.2809 51.3808C44.8558 50.9457 44.7899 50.2437 45.1293 49.7824C45.3073 49.5418 45.6006 49.3803 45.9236 49.3572C46.2235 49.3341 46.5069 49.4297 46.7014 49.6176C46.7574 49.6703 46.7574 49.7593 46.7047 49.8153C46.6519 49.8713 46.5629 49.8713 46.5069 49.8153C46.3718 49.6835 46.1675 49.6143 45.95 49.634C45.7094 49.6538 45.4886 49.7692 45.36 49.9471C45.103 50.2965 45.1623 50.8534 45.4853 51.1863C45.7951 51.5027 46.3158 51.618 46.7805 51.4763C47.1529 51.361 47.4726 51.0743 47.6637 50.6854C47.8516 50.2965 47.8812 49.8647 47.7428 49.5022C47.5154 48.9057 46.8826 48.4542 46.1246 48.3454C45.3567 48.2367 44.5856 48.4608 44.0022 48.6684C42.4928 49.2056 41.079 50.0691 39.9156 51.1698C39.8694 51.2127 39.8035 51.2193 39.7475 51.1896C39.6948 51.1599 39.6684 51.0973 39.6816 51.0347C39.7838 50.6063 39.9485 50.1745 40.1891 49.7033C39.4575 50.2833 38.6533 50.7842 38.0469 51.127C37.0121 51.7169 35.974 52.0333 34.9655 52.0728C34.9062 52.0728 34.8468 52.0761 34.7842 52.0761Z" fill="#F1DFC1"/>
<path d="M33.3249 51.7797C33.292 51.7797 33.2623 51.7698 33.236 51.7467C32.8998 51.4732 32.6724 51.1502 32.5603 50.7877C32.323 50.0297 32.6296 49.1069 33.2986 48.54C33.7896 48.1248 34.4389 47.9204 35.0288 47.9896C35.2331 48.0127 35.4342 48.072 35.6253 48.161C35.6945 48.194 35.7242 48.2764 35.6945 48.3489C35.6616 48.4181 35.5792 48.4477 35.5067 48.4148C35.3419 48.339 35.1705 48.2895 34.9958 48.2665C34.4784 48.2039 33.9116 48.3884 33.4798 48.7509C32.8932 49.2453 32.6262 50.0494 32.8273 50.702C32.9229 51.0085 33.1206 51.2886 33.4106 51.5259C33.4699 51.5753 33.4798 51.6643 33.4304 51.7236C33.404 51.7632 33.3645 51.7797 33.3249 51.7797Z" fill="#F1DFC1"/>
<path d="M46.0511 51.7828C45.9819 51.7828 45.9226 51.7333 45.9127 51.6641C45.9028 51.5883 45.9556 51.5158 46.0314 51.5059C46.4334 51.4466 46.7729 51.2093 46.9904 50.8402C47.231 50.4282 47.2837 49.9141 47.1288 49.5022C46.8685 48.8233 46.0676 48.4146 45.4315 48.3256C45.3557 48.3157 45.303 48.2432 45.3129 48.1674C45.3228 48.0916 45.3953 48.0389 45.4711 48.0488C46.2093 48.1542 47.0893 48.6123 47.3892 49.4033C47.5737 49.8943 47.5144 50.4974 47.231 50.9819C46.9706 51.4268 46.5587 51.7136 46.0709 51.7828C46.0643 51.7828 46.0577 51.7828 46.0511 51.7828Z" fill="#F1DFC1"/>
<path d="M43.1197 52.0761H31.308C31.2289 52.0761 31.1663 52.0135 31.1663 51.9344C31.1663 51.8553 31.2289 51.7927 31.308 51.7927H43.1197C43.1988 51.7927 43.2614 51.8553 43.2614 51.9344C43.2581 52.0135 43.1955 52.0761 43.1197 52.0761Z" fill="#F1DFC1"/>
<path d="M34.4745 50.1812C34.8276 50.1812 35.1138 49.8949 35.1138 49.5418C35.1138 49.1887 34.8276 48.9024 34.4745 48.9024C34.1214 48.9024 33.8351 49.1887 33.8351 49.5418C33.8351 49.8949 34.1214 50.1812 34.4745 50.1812Z" fill="#F1DFC1"/>
<path d="M43.1192 52.0729C43.4723 52.0729 43.7585 51.7866 43.7585 51.4335C43.7585 51.0804 43.4723 50.7942 43.1192 50.7942C42.766 50.7942 42.4798 51.0804 42.4798 51.4335C42.4798 51.7866 42.766 52.0729 43.1192 52.0729Z" fill="#F1DFC1"/>
<path d="M46.2477 50.7018C46.6008 50.7018 46.8871 50.4155 46.8871 50.0624C46.8871 49.7093 46.6008 49.423 46.2477 49.423C45.8946 49.423 45.6084 49.7093 45.6084 50.0624C45.6084 50.4155 45.8946 50.7018 46.2477 50.7018Z" fill="#F1DFC1"/>
<path d="M48.9563 24.8937C48.3334 24.8937 47.6809 24.5938 47.2426 24.0764C46.8207 23.5787 46.623 22.9492 46.6922 22.3461C46.768 21.7002 47.1767 21.1168 47.7336 20.8598C48.3269 20.5862 49.075 20.7082 49.5166 21.1498C49.9846 21.6211 50.0571 22.4219 49.6748 22.936C49.365 23.3513 48.7882 23.5194 48.3631 23.3183C48.1258 23.2063 47.9479 22.9624 47.8951 22.679C47.849 22.4252 47.9149 22.1846 48.0764 22.0166C48.1291 21.9605 48.2181 21.9605 48.2741 22.0133C48.3302 22.066 48.3301 22.155 48.2774 22.211C48.1785 22.3132 48.1423 22.4648 48.172 22.6296C48.2082 22.824 48.3269 22.9888 48.485 23.0646C48.7948 23.2129 49.22 23.0811 49.4507 22.7713C49.7539 22.3626 49.6946 21.7265 49.3189 21.3508C48.9596 20.9883 48.3433 20.8894 47.8523 21.1168C47.381 21.3344 47.035 21.832 46.9723 22.3824C46.913 22.8998 47.0943 23.4667 47.4568 23.8984C47.9511 24.485 48.7553 24.7553 49.4078 24.5509C49.8725 24.4059 50.2812 24.0302 50.5251 23.526C50.7327 23.0942 50.825 22.5669 50.8019 21.9605C50.7657 20.9982 50.4592 20.0029 49.8923 19.0076C49.454 18.2397 48.7685 17.1489 47.9808 16.3052C47.9314 16.2524 47.9314 16.1733 47.9742 16.1206C48.0171 16.0679 48.0962 16.0547 48.1555 16.0909C48.696 16.4238 49.1771 16.6611 49.6352 16.8226C48.6696 15.7054 47.905 14.397 47.4107 13.0095C47.1931 12.3965 46.9559 11.5858 47.0745 10.7553C47.1964 9.90168 47.7205 9.17664 48.4093 8.91628C48.8443 8.7515 49.3551 8.78445 49.8132 9.00526C50.2713 9.22936 50.6108 9.61166 50.7492 10.0566C50.9238 10.6201 50.7788 11.2529 50.39 11.6352C49.9549 12.0603 49.2529 12.1263 48.7915 11.7868C48.551 11.6088 48.3895 11.3122 48.3664 10.9925C48.3433 10.6926 48.4389 10.4092 48.6268 10.2181C48.6828 10.162 48.7685 10.162 48.8245 10.2148C48.8805 10.2675 48.8805 10.3565 48.8245 10.4125C48.6927 10.5476 48.6235 10.752 48.6433 10.9695C48.663 11.2101 48.7784 11.4309 48.9563 11.5594C49.3057 11.8165 49.8626 11.7571 50.1955 11.4342C50.5119 11.1244 50.6272 10.6037 50.4822 10.139C50.3669 9.76656 50.0802 9.44688 49.6913 9.25573C49.3024 9.06788 48.8739 9.03821 48.5081 9.17663C47.9116 9.40403 47.4601 10.0368 47.3513 10.7948C47.2426 11.566 47.4667 12.3339 47.6743 12.9172C48.2115 14.4266 49.075 15.8405 50.1757 17.0038C50.2186 17.05 50.2252 17.1159 50.1955 17.1719C50.1658 17.2247 50.0999 17.251 50.0406 17.2378C49.6122 17.1357 49.1804 16.9709 48.7091 16.7303C49.2892 17.4619 49.7901 18.2661 50.1329 18.8725C50.7228 19.9073 51.0425 20.9455 51.0787 21.9539C51.1018 22.6065 50.9996 23.1799 50.7722 23.6512C50.4954 24.228 50.0274 24.6564 49.4869 24.8245C49.3189 24.8673 49.1376 24.8937 48.9563 24.8937Z" fill="#F1DFC1"/>
<path d="M49.267 24.4323C48.6441 24.4323 47.9916 24.1324 47.5532 23.615C47.1314 23.1173 46.9336 22.4845 47.0028 21.8847C47.0259 21.6804 47.0852 21.4794 47.1742 21.2882C47.2072 21.219 47.2896 21.1893 47.3621 21.2223C47.4313 21.2553 47.461 21.3376 47.428 21.4102C47.3522 21.5749 47.3028 21.7463 47.283 21.921C47.2204 22.4384 47.4049 23.0053 47.7674 23.437C48.2618 24.0236 49.0659 24.2906 49.7185 24.0895C50.025 23.9939 50.3018 23.7962 50.5424 23.5062C50.5918 23.4469 50.6808 23.437 50.7401 23.4864C50.7995 23.5359 50.8093 23.6248 50.7599 23.6842C50.4831 24.0203 50.1634 24.2477 49.8009 24.3598C49.6295 24.4092 49.4482 24.4323 49.267 24.4323Z" fill="#F1DFC1"/>
<path d="M47.1963 11.599C47.1897 11.599 47.1832 11.599 47.1766 11.599C47.1008 11.5891 47.048 11.5166 47.0579 11.4408C47.1601 10.7256 47.6248 9.8226 48.4124 9.52269C48.9035 9.33484 49.5066 9.39746 49.9911 9.68089C50.436 9.94124 50.7227 10.3532 50.7919 10.841C50.8018 10.9168 50.7491 10.9893 50.6733 10.9992C50.5975 11.009 50.525 10.9563 50.5151 10.8805C50.4558 10.4784 50.2185 10.139 49.8493 9.92146C49.4374 9.68088 48.9233 9.62815 48.5113 9.78305C47.8324 10.0434 47.4237 10.8443 47.3347 11.4803C47.3249 11.5495 47.2655 11.599 47.1963 11.599Z" fill="#F1DFC1"/>
<path d="M50.9441 25.7473C50.865 25.7473 50.8024 25.6846 50.8024 25.6055V13.7939C50.8024 13.7148 50.865 13.6522 50.9441 13.6522C51.0232 13.6522 51.0858 13.7148 51.0858 13.7939V25.6055C51.0858 25.6846 51.0232 25.7473 50.9441 25.7473Z" fill="#F1DFC1"/>
<path d="M48.551 23.0811C48.1983 23.0811 47.9116 22.7943 47.9116 22.4417C47.9116 22.0891 48.1983 21.8024 48.551 21.8024C48.9036 21.8024 49.1903 22.0891 49.1903 22.4417C49.1936 22.7943 48.9069 23.0811 48.551 23.0811Z" fill="#F1DFC1"/>
<path d="M50.4419 14.433C50.795 14.433 51.0813 14.1468 51.0813 13.7937C51.0813 13.4406 50.795 13.1543 50.4419 13.1543C50.0888 13.1543 49.8026 13.4406 49.8026 13.7937C49.8026 14.1468 50.0888 14.433 50.4419 14.433Z" fill="#F1DFC1"/>
<path d="M49.0709 11.3057C49.424 11.3057 49.7103 11.0195 49.7103 10.6664C49.7103 10.3132 49.424 10.027 49.0709 10.027C48.7178 10.027 48.4315 10.3132 48.4315 10.6664C48.4315 11.0195 48.7178 11.3057 49.0709 11.3057Z" fill="#F1DFC1"/>
<path d="M48.9941 49.1003C48.7931 49.1003 48.5953 49.0641 48.4141 48.9949C47.7253 48.7312 47.2013 48.0095 47.0793 47.1559C46.9607 46.3254 47.1979 45.5147 47.4155 44.9017C47.9098 43.5142 48.6744 42.2058 49.64 41.0886C49.1819 41.2501 48.7008 41.4874 48.1603 41.8202C48.101 41.8565 48.0219 41.8433 47.979 41.7906C47.9329 41.7378 47.9362 41.6587 47.9856 41.606C48.7733 40.7656 49.4588 39.6714 49.8971 38.9035C50.464 37.9083 50.7705 36.913 50.8067 35.9506C50.8298 35.3442 50.7342 34.8169 50.5299 34.3852C50.286 33.8777 49.8806 33.5052 49.4126 33.3602C48.7601 33.1559 47.9592 33.4261 47.4616 34.0128C47.0958 34.4445 46.9145 35.0114 46.9771 35.5288C47.0431 36.0792 47.3891 36.5735 47.8571 36.7943C48.3448 37.0217 48.9644 36.9229 49.3237 36.5603C49.6994 36.1846 49.7587 35.5486 49.4555 35.1399C49.2248 34.8268 48.7996 34.6983 48.4898 34.8466C48.3317 34.9224 48.213 35.0872 48.1768 35.2816C48.1471 35.4464 48.1866 35.598 48.2822 35.7002C48.335 35.7562 48.3349 35.8452 48.2789 35.8979C48.2229 35.9506 48.1339 35.9506 48.0812 35.8946C47.9197 35.7265 47.8538 35.4859 47.8999 35.2322C47.9494 34.952 48.1306 34.7082 48.3679 34.5928C48.7931 34.3885 49.3698 34.5566 49.6796 34.9751C50.0619 35.4892 49.9894 36.2901 49.5214 36.7614C49.0798 37.203 48.3317 37.3249 47.7384 37.0514C47.1815 36.7943 46.7728 36.211 46.697 35.565C46.6245 34.9652 46.8255 34.3325 47.2474 33.8348C47.8142 33.1625 48.737 32.8593 49.495 33.0966C50.0355 33.2647 50.5035 33.6931 50.7803 34.2698C51.0077 34.7444 51.1099 35.3146 51.0868 35.9671C51.0506 36.9756 50.7309 38.0137 50.141 39.0486C49.7949 39.655 49.2973 40.4591 48.7173 41.1907C49.1885 40.9502 49.6203 40.7854 50.0487 40.6832C50.108 40.6667 50.1706 40.6964 50.2036 40.7491C50.2333 40.8019 50.2267 40.8711 50.1838 40.9172C49.0831 42.0806 48.2196 43.4944 47.6824 45.0038C47.4748 45.5872 47.2507 46.3551 47.3594 47.1262C47.4649 47.881 47.9197 48.517 48.5162 48.7444C48.8787 48.8828 49.3105 48.8532 49.6994 48.6653C50.0882 48.4775 50.375 48.1545 50.4903 47.7821C50.6353 47.3174 50.52 46.7967 50.2036 46.4869C49.8707 46.1606 49.3171 46.1046 48.9644 46.3616C48.7898 46.4902 48.6711 46.711 48.6513 46.9516C48.6349 47.1691 48.7008 47.3734 48.8326 47.5085C48.8853 47.5646 48.8853 47.6535 48.8326 47.7063C48.7766 47.759 48.6876 47.759 48.6349 47.703C48.4437 47.5085 48.3481 47.2251 48.3745 46.9252C48.4009 46.6055 48.5591 46.3089 48.7996 46.1309C49.261 45.7915 49.9663 45.8574 50.398 46.2826C50.7869 46.6648 50.9319 47.2976 50.7573 47.8612C50.6189 48.3061 50.2794 48.6884 49.8213 48.9125C49.5543 49.0344 49.2709 49.1003 48.9941 49.1003Z" fill="#F1DFC1"/>
<path d="M47.3036 36.6987C47.2509 36.6987 47.2014 36.669 47.1784 36.6196C47.0894 36.4284 47.03 36.2274 47.007 36.0231C46.9378 35.4299 47.1421 34.7839 47.5573 34.2929C48.1242 33.6238 49.047 33.3173 49.805 33.5546C50.1642 33.6667 50.4872 33.8941 50.764 34.2302C50.8135 34.2896 50.8036 34.3785 50.7443 34.428C50.685 34.4774 50.596 34.4675 50.5465 34.4082C50.3059 34.1149 50.0291 33.9204 49.7226 33.8249C49.0701 33.6205 48.2692 33.8908 47.7716 34.4774C47.4058 34.9091 47.2245 35.476 47.2871 35.9934C47.3069 36.1681 47.3563 36.3395 47.4354 36.5042C47.4684 36.5735 47.4387 36.6591 47.3695 36.6921C47.3431 36.6921 47.3234 36.6987 47.3036 36.6987Z" fill="#F1DFC1"/>
<path d="M49.0136 48.4907C48.806 48.4907 48.5984 48.4544 48.4105 48.3852C47.6229 48.0853 47.1582 47.1823 47.056 46.4671C47.0461 46.3913 47.0988 46.3188 47.1746 46.3089C47.2504 46.2958 47.3229 46.3518 47.3328 46.4276C47.4218 47.0636 47.8305 47.8645 48.5094 48.1249C48.9213 48.283 49.4322 48.2303 49.8474 47.9864C50.2165 47.7689 50.4538 47.4295 50.5132 47.0274C50.523 46.9516 50.5955 46.8956 50.6713 46.9087C50.7471 46.9186 50.7999 46.9911 50.79 47.0669C50.7175 47.5547 50.434 47.9667 49.9891 48.227C49.6925 48.3984 49.3498 48.4907 49.0136 48.4907Z" fill="#F1DFC1"/>
<path d="M50.9447 44.2492C50.8656 44.2492 50.803 44.1865 50.803 44.1074V32.2925C50.803 32.2134 50.8656 32.1508 50.9447 32.1508C51.0238 32.1508 51.0864 32.2134 51.0864 32.2925V44.1074C51.0864 44.1865 51.0238 44.2492 50.9447 44.2492Z" fill="#F1DFC1"/>
<path d="M48.5528 34.8235C48.2002 34.8235 47.9135 35.1102 47.9135 35.4628C47.9135 35.8155 48.2002 36.1022 48.5528 36.1022C48.9054 36.1022 49.1922 35.8155 49.1922 35.4628C49.1922 35.1102 48.9087 34.8235 48.5528 34.8235Z" fill="#F1DFC1"/>
<path d="M50.444 44.7468C50.7971 44.7468 51.0833 44.4606 51.0833 44.1075C51.0833 43.7544 50.7971 43.4681 50.444 43.4681C50.0909 43.4681 49.8046 43.7544 49.8046 44.1075C49.8046 44.4606 50.0909 44.7468 50.444 44.7468Z" fill="#F1DFC1"/>
<path d="M49.073 47.8777C49.4261 47.8777 49.7123 47.5915 49.7123 47.2384C49.7123 46.8853 49.4261 46.599 49.073 46.599C48.7198 46.599 48.4336 46.8853 48.4336 47.2384C48.4336 47.5915 48.7198 47.8777 49.073 47.8777Z" fill="#F1DFC1"/>
<path d="M6.96947 24.8935C6.78492 24.8935 6.60695 24.8671 6.43558 24.8144C5.89509 24.6463 5.42709 24.2179 5.15026 23.6412C4.92286 23.1666 4.82069 22.5964 4.84376 21.9439C4.88002 20.9354 5.19969 19.8973 5.78962 18.8624C6.13566 18.256 6.63331 17.4519 7.21335 16.7203C6.74537 16.9608 6.31034 17.1256 5.88191 17.2278C5.82259 17.241 5.75996 17.2146 5.727 17.1619C5.69734 17.1091 5.70393 17.0399 5.74677 16.9938C6.84753 15.8304 7.711 14.4166 8.2482 12.9072C8.45582 12.3238 8.67992 11.5559 8.57116 10.7847C8.46241 10.03 8.0109 9.39398 7.41438 9.16657C7.05186 9.02816 6.62014 9.05782 6.23125 9.24568C5.84236 9.43353 5.55563 9.7565 5.44028 10.1289C5.29527 10.5936 5.41392 11.1143 5.7303 11.4241C6.06316 11.7504 6.61684 11.8064 6.96947 11.5493C7.14744 11.4208 7.26279 11.2 7.28257 10.9594C7.29904 10.7419 7.23312 10.5376 7.10129 10.4024C7.04856 10.3464 7.04856 10.2574 7.10129 10.2047C7.15732 10.152 7.24631 10.152 7.29904 10.208C7.49019 10.4025 7.58576 10.6859 7.55939 10.9825C7.53303 11.3022 7.37484 11.5988 7.13096 11.7767C6.66956 12.1162 5.9643 12.0503 5.53257 11.6252C5.14368 11.2429 4.99866 10.6101 5.17333 10.0465C5.31175 9.60161 5.65121 9.21931 6.10931 8.9952C6.56741 8.7711 7.07822 8.73814 7.51325 8.90622C8.20204 9.16988 8.72607 9.89162 8.84801 10.7452C8.96665 11.5757 8.72936 12.3864 8.51184 12.9994C8.02079 14.3869 7.25619 15.6953 6.28727 16.8125C6.74537 16.651 7.22653 16.4138 7.76702 16.0809C7.82634 16.0446 7.90543 16.0578 7.94828 16.1106C7.99442 16.1633 7.99114 16.2424 7.9417 16.2951C7.15404 17.1355 6.46852 18.2297 6.0302 18.9976C5.46334 19.9929 5.15686 20.9881 5.12061 21.9505C5.09754 22.5569 5.1931 23.0842 5.39743 23.5159C5.64131 24.0235 6.04669 24.3959 6.51467 24.5409C7.16721 24.7452 7.96805 24.475 8.4657 23.8883C8.83152 23.4566 9.01279 22.8897 8.95017 22.3723C8.88426 21.8219 8.5382 21.3276 8.07022 21.1068C7.57916 20.8794 6.96289 20.9783 6.60366 21.3408C6.22795 21.7165 6.17192 22.3525 6.47182 22.7612C6.70582 23.0743 7.12766 23.2028 7.43745 23.0545C7.59565 22.9787 7.71429 22.8139 7.75055 22.6195C7.78021 22.4547 7.74066 22.3031 7.64508 22.2009C7.59235 22.1449 7.59235 22.0559 7.64838 22.0032C7.70441 21.9505 7.79338 21.9505 7.84611 22.0065C8.0076 22.1746 8.07351 22.4152 8.02737 22.6689C7.97794 22.9491 7.79668 23.1929 7.55939 23.3083C7.13425 23.5126 6.55751 23.3445 6.24772 22.926C5.86542 22.4119 5.93792 21.611 6.40591 21.1397C6.84753 20.6981 7.59566 20.5762 8.18888 20.8497C8.74584 21.1068 9.1545 21.6901 9.2303 22.3361C9.3028 22.9392 9.10177 23.5687 8.67993 24.0663C8.2449 24.5936 7.59236 24.8935 6.96947 24.8935Z" fill="#F1DFC1"/>
<path d="M6.65988 24.4322C6.47862 24.4322 6.29736 24.4058 6.12599 24.3531C5.76346 24.241 5.44377 24.0136 5.16694 23.6775C5.1175 23.6182 5.12739 23.5292 5.18671 23.4798C5.24603 23.4303 5.33503 23.4402 5.38446 23.4995C5.62505 23.7928 5.90188 23.9873 6.20838 24.0829C6.86092 24.2872 7.66176 24.0202 8.15941 23.4303C8.52523 22.9986 8.7065 22.4317 8.64388 21.9143C8.62411 21.7396 8.57467 21.5683 8.49557 21.4035C8.46262 21.3343 8.49227 21.2486 8.56477 21.2156C8.63398 21.1827 8.71967 21.2123 8.75263 21.2815C8.84161 21.4727 8.90094 21.6737 8.92401 21.8781C8.99651 22.4779 8.79548 23.1106 8.37364 23.6083C7.93531 24.1356 7.28277 24.4322 6.65988 24.4322Z" fill="#F1DFC1"/>
<path d="M8.73079 11.5988C8.66158 11.5988 8.60226 11.5493 8.59238 11.4768C8.50339 10.8408 8.09473 10.0399 7.41582 9.77957C7.00386 9.62468 6.49304 9.6774 6.07778 9.91798C5.70867 10.1355 5.47137 10.475 5.41205 10.877C5.40216 10.9528 5.32966 11.0056 5.25386 10.9957C5.17806 10.9858 5.12534 10.9133 5.13522 10.8375C5.20773 10.3497 5.49115 9.93776 5.93607 9.67741C6.42053 9.39398 7.02363 9.33136 7.51469 9.51921C8.30235 9.81912 8.76706 10.7221 8.86922 11.4373C8.87911 11.5131 8.82636 11.5856 8.75056 11.5955C8.74397 11.5988 8.73738 11.5988 8.73079 11.5988Z" fill="#F1DFC1"/>
<path d="M4.97972 25.7471C4.90063 25.7471 4.83801 25.6845 4.83801 25.6054V13.7937C4.83801 13.7146 4.90063 13.652 4.97972 13.652C5.05882 13.652 5.12146 13.7146 5.12146 13.7937V25.6054C5.12146 25.6845 5.05882 25.7471 4.97972 25.7471Z" fill="#F1DFC1"/>
<path d="M7.37291 23.0811C7.72602 23.0811 8.01227 22.7948 8.01227 22.4417C8.01227 22.0886 7.72602 21.8024 7.37291 21.8024C7.0198 21.8024 6.73355 22.0886 6.73355 22.4417C6.73355 22.7948 7.0198 23.0811 7.37291 23.0811Z" fill="#F1DFC1"/>
<path d="M5.47994 14.433C5.83305 14.433 6.1193 14.1467 6.1193 13.7936C6.1193 13.4405 5.83305 13.1543 5.47994 13.1543C5.12683 13.1543 4.84058 13.4405 4.84058 13.7936C4.84058 14.1467 5.12683 14.433 5.47994 14.433Z" fill="#F1DFC1"/>
<path d="M6.85094 11.3055C7.20405 11.3055 7.4903 11.0192 7.4903 10.6661C7.4903 10.313 7.20405 10.0268 6.85094 10.0268C6.49783 10.0268 6.21158 10.313 6.21158 10.6661C6.21158 11.0192 6.49783 11.3055 6.85094 11.3055Z" fill="#F1DFC1"/>
<path d="M6.93329 49.1005C6.65645 49.1005 6.37302 49.0346 6.10937 48.906C5.65127 48.6819 5.31181 48.2996 5.17339 47.8547C4.99872 47.2912 5.14374 46.6584 5.53263 46.2761C5.96766 45.8509 6.66963 45.785 7.13102 46.1245C7.3716 46.3025 7.53309 46.5991 7.55945 46.9187C7.58252 47.2186 7.48695 47.5021 7.2991 47.6965C7.24637 47.7525 7.15738 47.7525 7.10135 47.6998C7.04532 47.6471 7.04532 47.5581 7.10135 47.5021C7.23318 47.367 7.3024 47.1626 7.28263 46.9451C7.26285 46.7045 7.1475 46.4837 6.96953 46.3552C6.62019 46.0981 6.06322 46.1574 5.73036 46.4804C5.41398 46.7902 5.29863 47.3109 5.44034 47.7756C5.55569 48.148 5.84242 48.4677 6.23131 48.6589C6.6202 48.8467 7.05192 48.8764 7.41444 48.7379C8.01096 48.5105 8.46247 47.8778 8.57122 47.1198C8.67998 46.3486 8.45588 45.5807 8.24826 44.9974C7.71106 43.4879 6.84759 42.0741 5.74683 40.9107C5.70399 40.8646 5.6974 40.7987 5.72706 40.7427C5.75672 40.6899 5.82265 40.6603 5.88197 40.6767C6.31041 40.7789 6.74213 40.9437 7.21341 41.1843C6.63337 40.4526 6.13573 39.6485 5.78968 39.0421C5.19976 38.0073 4.88008 36.9691 4.84382 35.9606C4.82075 35.3081 4.92292 34.7347 5.15032 34.2634C5.42716 33.6866 5.89515 33.2582 6.43564 33.0901C7.19035 32.8528 8.11643 33.1593 8.68329 33.8283C9.10513 34.326 9.30287 34.9588 9.23366 35.5586C9.15786 36.2045 8.74918 36.7879 8.19222 37.0449C7.59899 37.3185 6.85089 37.1965 6.40927 36.7549C5.94128 36.2836 5.86878 35.4828 6.25108 34.9686C6.56087 34.5534 7.13761 34.3853 7.56275 34.5863C7.80004 34.6984 7.978 34.9423 8.03073 35.2257C8.07687 35.4795 8.01096 35.7201 7.84947 35.8881C7.79674 35.9442 7.70777 35.9442 7.65174 35.8914C7.59571 35.8387 7.59571 35.7497 7.64844 35.6937C7.74731 35.5915 7.78357 35.4399 7.75391 35.2751C7.71765 35.0807 7.59901 34.9159 7.44081 34.8401C7.13102 34.6918 6.70588 34.8236 6.47518 35.1367C6.17198 35.5421 6.23129 36.1815 6.607 36.5572C6.96623 36.9197 7.58252 37.0186 8.07358 36.7911C8.54486 36.5736 8.8909 36.076 8.95351 35.5256C9.01284 35.0082 8.83158 34.4413 8.46906 34.0096C7.97471 33.423 7.17057 33.156 6.51803 33.3571C6.05334 33.5021 5.64467 33.8745 5.40079 34.382C5.19317 34.8137 5.10088 35.3411 5.12395 35.9475C5.1602 36.9098 5.4667 37.9051 6.03356 38.9004C6.47188 39.6683 7.15738 40.7624 7.94504 41.6028C7.99447 41.6556 7.99448 41.7347 7.95164 41.7874C7.90879 41.8401 7.8297 41.8533 7.77038 41.817C7.22989 41.4842 6.74873 41.2469 6.29063 41.0854C7.25626 42.2026 8.02085 43.511 8.5152 44.8985C8.73272 45.5115 8.96999 46.3222 8.85135 47.1527C8.72941 48.0096 8.2054 48.7314 7.51661 48.9917C7.32875 49.0675 7.13432 49.1005 6.93329 49.1005Z" fill="#F1DFC1"/>
<path d="M8.62415 36.6986C8.60438 36.6986 8.58461 36.6953 8.56483 36.6855C8.49562 36.6525 8.46597 36.5701 8.49564 36.4976C8.57144 36.3328 8.62087 36.1615 8.64394 35.9868C8.70656 35.4694 8.52199 34.9025 8.15947 34.4708C7.66512 33.8841 6.86098 33.6172 6.20844 33.8182C5.90194 33.9138 5.62181 34.1115 5.38452 34.4016C5.33509 34.4609 5.24609 34.4708 5.18677 34.4213C5.12745 34.3719 5.11756 34.2829 5.167 34.2236C5.44054 33.8874 5.76353 33.66 6.12605 33.548C6.88405 33.3107 7.80684 33.6172 8.3737 34.2862C8.78895 34.7773 8.99328 35.4232 8.92407 36.0164C8.901 36.2208 8.84167 36.4218 8.75269 36.613C8.72632 36.6657 8.67688 36.6986 8.62415 36.6986Z" fill="#F1DFC1"/>
<path d="M6.91166 48.4907C6.5755 48.4907 6.23274 48.4017 5.93613 48.227C5.49122 47.9667 5.20449 47.5547 5.13529 47.067C5.1254 46.9912 5.17812 46.9187 5.25392 46.9088C5.32973 46.8956 5.40222 46.9516 5.41211 47.0274C5.47143 47.4295 5.70873 47.7689 6.07784 47.9865C6.4898 48.227 7.00392 48.2798 7.41588 48.1249C8.09479 47.8645 8.50346 47.0637 8.59244 46.4276C8.60233 46.3518 8.67812 46.2991 8.75062 46.309C8.82643 46.3188 8.87917 46.3914 8.86928 46.4672C8.76712 47.1823 8.30241 48.0853 7.51475 48.3852C7.3269 48.4544 7.12258 48.4907 6.91166 48.4907Z" fill="#F1DFC1"/>
<path d="M4.97972 44.2491C4.90063 44.2491 4.83801 44.1864 4.83801 44.1074V32.2924C4.83801 32.2133 4.90063 32.1507 4.97972 32.1507C5.05882 32.1507 5.12146 32.2133 5.12146 32.2924V44.1074C5.12146 44.1864 5.05882 44.2491 4.97972 44.2491Z" fill="#F1DFC1"/>
<path d="M7.37297 36.1022C7.72608 36.1022 8.01233 35.8159 8.01233 35.4628C8.01233 35.1097 7.72608 34.8234 7.37297 34.8234C7.01986 34.8234 6.73361 35.1097 6.73361 35.4628C6.73361 35.8159 7.01986 36.1022 7.37297 36.1022Z" fill="#F1DFC1"/>
<path d="M5.48 44.7469C5.83311 44.7469 6.11936 44.4606 6.11936 44.1075C6.11936 43.7544 5.83311 43.4681 5.48 43.4681C5.12689 43.4681 4.84064 43.7544 4.84064 44.1075C4.84064 44.4606 5.12689 44.7469 5.48 44.7469Z" fill="#F1DFC1"/>
<path d="M6.851 47.8778C7.20411 47.8778 7.49036 47.5915 7.49036 47.2384C7.49036 46.8853 7.20411 46.599 6.851 46.599C6.49789 46.599 6.21164 46.8853 6.21164 47.2384C6.21164 47.5915 6.49789 47.8778 6.851 47.8778Z" fill="#F1DFC1"/>
<path d="M51.6237 52.7553H4.3012C4.2221 52.7553 4.15948 52.6926 4.15948 52.6135V5.29103C4.15948 5.21194 4.2221 5.14932 4.3012 5.14932H51.6237C51.7028 5.14932 51.7654 5.21194 51.7654 5.29103V52.6135C51.7654 52.6926 51.7028 52.7553 51.6237 52.7553ZM4.44293 52.4751H51.4853V5.42945H4.44293V52.4751Z" fill="#F1DFC1"/>
<path d="M27.9406 28.921C27.9406 28.9341 27.9373 28.944 27.934 28.9539C27.9538 28.9671 27.9736 28.9803 27.9933 28.9935C27.9769 28.9671 27.9604 28.9407 27.9472 28.9111C27.9439 28.9144 27.9406 28.9177 27.9406 28.921Z" fill="#EAA49B" stroke="#EAA49B" stroke-width="0.2" stroke-miterlimit="10" stroke-linejoin="round"/>
<path d="M24.5443 38.5442H14.654V39.5659H24.5443V38.5442Z" fill="#F5D09B"/>
<path d="M24.5443 38.5442H14.654V39.5659H24.5443V38.5442Z" fill="#F5D09B"/>
<path d="M14.654 38.5442L16.6248 37.5225H22.5735L24.5443 38.5442H14.654Z" fill="#F5D09B"/>
<path d="M22.4912 16.895H16.7073V37.2655H22.4912V16.895Z" fill="#F5D09B"/>
<path d="M24.9563 13.9157H14.242V16.4732H24.9563V13.9157Z" fill="#F5D09B"/>
<path d="M14.2423 13.9157C13.0987 13.9157 12.1726 14.8418 12.1726 15.9854C12.1726 17.129 13.0987 18.0551 14.2423 18.0551C15.3859 18.0551 16.3119 17.129 16.3119 15.9854C16.3119 14.8418 15.3859 13.9157 14.2423 13.9157Z" fill="#F5D09B"/>
<path d="M24.9564 13.9157C26.1 13.9157 27.0261 14.8418 27.0261 15.9854C27.0261 17.129 26.1 18.0551 24.9564 18.0551C23.8128 18.0551 22.8867 17.129 22.8867 15.9854C22.8867 14.8418 23.8161 13.9157 24.9564 13.9157Z" fill="#F5D09B"/>
<path d="M14.2417 17.6564C13.3189 17.6564 12.5708 16.905 12.5708 15.9855C12.5708 15.0627 13.3222 14.3146 14.2417 14.3146C15.1645 14.3146 15.9126 15.066 15.9126 15.9855C15.9126 16.9083 15.1645 17.6564 14.2417 17.6564ZM14.2417 14.5387C13.4442 14.5387 12.7949 15.1879 12.7949 15.9855C12.7949 16.783 13.4442 17.4323 14.2417 17.4323C15.0393 17.4323 15.6885 16.783 15.6885 15.9855C15.6885 15.1879 15.0393 14.5387 14.2417 14.5387Z" fill="#F5D09B"/>
<path d="M14.2422 17.0268C13.6687 17.0268 13.2007 16.5588 13.2007 15.9854C13.2007 15.412 13.6687 14.944 14.2422 14.944C14.8156 14.944 15.2836 15.412 15.2836 15.9854C15.2836 16.5588 14.8156 17.0268 14.2422 17.0268ZM14.2422 15.1681C13.794 15.1681 13.4281 15.5339 13.4281 15.9854C13.4281 16.4336 13.794 16.7994 14.2422 16.7994C14.6904 16.7994 15.0562 16.4336 15.0562 15.9854C15.0562 15.5339 14.6904 15.1681 14.2422 15.1681Z" fill="#F5D09B"/>
<path d="M14.243 16.3974C14.0156 16.3974 13.8311 16.2128 13.8311 15.9854C13.8311 15.758 14.0156 15.5735 14.243 15.5735C14.4704 15.5735 14.655 15.758 14.655 15.9854C14.655 16.2128 14.4704 16.3974 14.243 16.3974ZM14.243 15.7976C14.1409 15.7976 14.0585 15.88 14.0585 15.9821C14.0585 16.0843 14.1409 16.1667 14.243 16.1667C14.3452 16.1667 14.4276 16.0843 14.4276 15.9821C14.4276 15.8833 14.3452 15.7976 14.243 15.7976Z" fill="#F5D09B"/>
<path d="M24.9584 17.6564C25.8811 17.6564 26.6293 16.905 26.6293 15.9855C26.6293 15.0627 25.8778 14.3146 24.9584 14.3146C24.0356 14.3146 23.2874 15.066 23.2874 15.9855C23.2874 16.9083 24.0389 17.6564 24.9584 17.6564ZM24.9584 14.5387C25.7559 14.5387 26.4051 15.1879 26.4051 15.9855C26.4051 16.783 25.7559 17.4323 24.9584 17.4323C24.1608 17.4323 23.5115 16.783 23.5115 15.9855C23.5148 15.1879 24.1641 14.5387 24.9584 14.5387Z" fill="#F5D09B"/>
<path d="M24.9571 17.0269C25.5305 17.0269 25.9985 16.5589 25.9985 15.9855C25.9985 15.412 25.5305 14.9441 24.9571 14.9441C24.3836 14.9441 23.9156 15.412 23.9156 15.9855C23.9156 16.5589 24.3836 17.0269 24.9571 17.0269ZM24.9571 15.1682C25.4053 15.1682 25.7711 15.534 25.7711 15.9855C25.7711 16.4337 25.4053 16.7995 24.9571 16.7995C24.5089 16.7995 24.1431 16.4337 24.1431 15.9855C24.1431 15.534 24.5089 15.1682 24.9571 15.1682Z" fill="#F5D09B"/>
<path d="M24.9576 16.3974C25.185 16.3974 25.3696 16.2128 25.3696 15.9854C25.3696 15.758 25.185 15.5735 24.9576 15.5735C24.7302 15.5735 24.5457 15.758 24.5457 15.9854C24.5457 16.2128 24.7302 16.3974 24.9576 16.3974ZM24.9576 15.7976C25.0598 15.7976 25.1422 15.88 25.1422 15.9822C25.1422 16.0843 25.0598 16.1667 24.9576 16.1667C24.8554 16.1667 24.7731 16.0843 24.7731 15.9822C24.7731 15.8833 24.8554 15.7976 24.9576 15.7976Z" fill="#F5D09B"/>
<path d="M16.7307 17.3168C16.5 17.3168 16.3121 17.129 16.3121 16.8983V16.8884C16.3121 16.6577 16.5 16.4698 16.7307 16.4698H22.4717C22.7024 16.4698 22.8903 16.6577 22.8903 16.8884V16.8983C22.8903 17.129 22.7024 17.3168 22.4717 17.3168H16.7307Z" fill="#F5D09B"/>
<path d="M16.7307 37.6874C16.5 37.6874 16.3121 37.4995 16.3121 37.2688V37.259C16.3121 37.0283 16.5 36.8404 16.7307 36.8404H22.4717C22.7024 36.8404 22.8903 37.0283 22.8903 37.259V37.2688C22.8903 37.4995 22.7024 37.6874 22.4717 37.6874H16.7307Z" fill="#F5D09B"/>
<path d="M17.1229 15.8141C16.7505 15.8141 16.4473 15.5109 16.4473 15.1384V15.1253C16.4473 14.7529 16.7505 14.4496 17.1229 14.4496H22.0763C22.4487 14.4496 22.7519 14.7529 22.7519 15.1253V15.1384C22.7519 15.5109 22.4487 15.8141 22.0763 15.8141H17.1229Z" fill="#F5D09B"/>
<path d="M16.7172 36.8404C16.5919 36.8404 16.4898 36.7382 16.4898 36.613V36.6097C16.4898 36.4844 16.5919 36.3823 16.7172 36.3823H22.4846C22.6098 36.3823 22.712 36.4844 22.712 36.6097V36.613C22.712 36.7382 22.6098 36.8404 22.4846 36.8404H16.7172Z" fill="#F5D09B"/>
<path d="M16.7172 17.775C16.5919 17.775 16.4898 17.6728 16.4898 17.5476V17.5443C16.4898 17.419 16.5919 17.3169 16.7172 17.3169H22.4846C22.6098 17.3169 22.712 17.419 22.712 17.5443V17.5476C22.712 17.6728 22.6098 17.775 22.4846 17.775H16.7172Z" fill="#F5D09B"/>
<path d="M17.3763 35.9044H17.3697C17.1555 35.9044 16.9841 35.733 16.9841 35.5188V18.6417C16.9841 18.4274 17.1555 18.2561 17.3697 18.2561H17.3763C17.5905 18.2561 17.7619 18.4274 17.7619 18.6417V35.5188C17.7619 35.7297 17.5872 35.9044 17.3763 35.9044Z" fill="#F5D09B"/>
<path d="M21.8253 35.9044H21.8319C22.0461 35.9044 22.2175 35.733 22.2175 35.5188V18.6417C22.2175 18.4274 22.0461 18.2561 21.8319 18.2561H21.8253C21.6111 18.2561 21.4397 18.4274 21.4397 18.6417V35.5188C21.4397 35.7297 21.6111 35.9044 21.8253 35.9044Z" fill="#F5D09B"/>
<path d="M18.8098 35.9044H18.8032C18.589 35.9044 18.4176 35.733 18.4176 35.5188V18.6417C18.4176 18.4274 18.589 18.2561 18.8032 18.2561H18.8098C19.024 18.2561 19.1954 18.4274 19.1954 18.6417V35.5188C19.1954 35.7297 19.0207 35.9044 18.8098 35.9044Z" fill="#F5D09B"/>
<path d="M20.3918 35.9044H20.3984C20.6126 35.9044 20.784 35.733 20.784 35.5188V18.6417C20.784 18.4274 20.6126 18.2561 20.3984 18.2561H20.3918C20.1776 18.2561 20.0062 18.4274 20.0062 18.6417V35.5188C20.0062 35.7297 20.1776 35.9044 20.3918 35.9044Z" fill="#F5D09B"/>
<path d="M22.8857 37.2688V37.2589C22.8857 37.0348 22.711 36.8536 22.4902 36.8437V36.8404C22.6121 36.8371 22.7077 36.7382 22.7077 36.6163V36.613C22.7077 36.491 22.6088 36.3922 22.4902 36.3889V27.6422L21.5345 31.943C20.8358 35.097 18.4201 37.5885 15.2892 38.386L14.6531 38.5475V39.5692H24.5434V38.5475L22.7209 37.6017C22.8198 37.5226 22.8857 37.4039 22.8857 37.2688Z" fill="#F5D09B"/>
<path d="M24.5434 38.5443H14.6531V39.5659H24.5434V38.5443Z" fill="white"/>
<path d="M24.5434 38.5443H14.6531V39.5659H24.5434V38.5443Z" fill="#E9A39B"/>
<path d="M14.6531 38.5442L16.6239 37.5226H22.5726L24.5434 38.5442H14.6531Z" fill="#F1DFC1"/>
<path d="M22.4903 16.895H16.7065V37.2656H22.4903V16.895Z" fill="#F1DFC1"/>
<path d="M24.9554 13.9157H14.2411V16.4732H24.9554V13.9157Z" fill="#F1DFC1"/>
<path d="M14.2414 13.9157C13.0978 13.9157 12.1717 14.8418 12.1717 15.9854C12.1717 17.129 13.0978 18.0551 14.2414 18.0551C15.385 18.0551 16.3111 17.129 16.3111 15.9854C16.3111 14.8418 15.385 13.9157 14.2414 13.9157Z" fill="#F1DFC1"/>
<path d="M24.9555 13.9157C26.0991 13.9157 27.0252 14.8418 27.0252 15.9854C27.0252 17.129 26.0991 18.0551 24.9555 18.0551C23.8119 18.0551 22.8858 17.129 22.8858 15.9854C22.8858 14.8418 23.8152 13.9157 24.9555 13.9157Z" fill="#F1DFC1"/>
<path d="M14.2408 17.6564C13.318 17.6564 12.5699 16.905 12.5699 15.9855C12.5699 15.0627 13.3213 14.3146 14.2408 14.3146C15.1636 14.3146 15.9117 15.066 15.9117 15.9855C15.9117 16.9083 15.1636 17.6564 14.2408 17.6564ZM14.2408 14.5387C13.4433 14.5387 12.794 15.188 12.794 15.9855C12.794 16.7831 13.4433 17.4323 14.2408 17.4323C15.0384 17.4323 15.6876 16.7831 15.6876 15.9855C15.6876 15.188 15.0384 14.5387 14.2408 14.5387Z" fill="#E9A39B"/>
<path d="M14.2413 17.0269C13.6679 17.0269 13.1999 16.5589 13.1999 15.9854C13.1999 15.412 13.6679 14.944 14.2413 14.944C14.8147 14.944 15.2827 15.412 15.2827 15.9854C15.2827 16.5589 14.8147 17.0269 14.2413 17.0269ZM14.2413 15.1681C13.7931 15.1681 13.4273 15.5339 13.4273 15.9854C13.4273 16.4336 13.7931 16.7995 14.2413 16.7995C14.6895 16.7995 15.0553 16.4336 15.0553 15.9854C15.0553 15.5339 14.6895 15.1681 14.2413 15.1681Z" fill="#E9A39B"/>
<path d="M14.2422 16.3974C14.0148 16.3974 13.8302 16.2129 13.8302 15.9855C13.8302 15.7581 14.0148 15.5735 14.2422 15.5735C14.4696 15.5735 14.6541 15.7581 14.6541 15.9855C14.6541 16.2129 14.4696 16.3974 14.2422 16.3974ZM14.2422 15.7976C14.14 15.7976 14.0576 15.88 14.0576 15.9822C14.0576 16.0843 14.14 16.1667 14.2422 16.1667C14.3443 16.1667 14.4267 16.0843 14.4267 15.9822C14.4267 15.8833 14.3443 15.7976 14.2422 15.7976Z" fill="#E9A39B"/>
<path d="M24.9575 17.6564C25.8803 17.6564 26.6284 16.905 26.6284 15.9855C26.6284 15.0627 25.877 14.3146 24.9575 14.3146C24.0347 14.3146 23.2866 15.066 23.2866 15.9855C23.2866 16.9083 24.038 17.6564 24.9575 17.6564ZM24.9575 14.5387C25.755 14.5387 26.4043 15.188 26.4043 15.9855C26.4043 16.7831 25.755 17.4323 24.9575 17.4323C24.1599 17.4323 23.5107 16.7831 23.5107 15.9855C23.514 15.188 24.1632 14.5387 24.9575 14.5387Z" fill="#E9A39B"/>
<path d="M24.9562 17.027C25.5297 17.027 25.9976 16.559 25.9976 15.9855C25.9976 15.4121 25.5297 14.9441 24.9562 14.9441C24.3828 14.9441 23.9148 15.4121 23.9148 15.9855C23.9148 16.559 24.3828 17.027 24.9562 17.027ZM24.9562 15.1682C25.4044 15.1682 25.7702 15.534 25.7702 15.9855C25.7702 16.4337 25.4044 16.7996 24.9562 16.7996C24.508 16.7996 24.1422 16.4337 24.1422 15.9855C24.1422 15.534 24.508 15.1682 24.9562 15.1682Z" fill="#E9A39B"/>
<path d="M24.9567 16.3974C25.1841 16.3974 25.3687 16.2129 25.3687 15.9855C25.3687 15.7581 25.1841 15.5735 24.9567 15.5735C24.7293 15.5735 24.5448 15.7581 24.5448 15.9855C24.5448 16.2129 24.7293 16.3974 24.9567 16.3974ZM24.9567 15.7976C25.0589 15.7976 25.1413 15.88 25.1413 15.9822C25.1413 16.0844 25.0589 16.1667 24.9567 16.1667C24.8546 16.1667 24.7722 16.0844 24.7722 15.9822C24.7722 15.8833 24.8546 15.7976 24.9567 15.7976Z" fill="#E9A39B"/>
<path d="M16.7298 17.3169C16.4991 17.3169 16.3112 17.129 16.3112 16.8983V16.8884C16.3112 16.6577 16.4991 16.4699 16.7298 16.4699H22.4708C22.7015 16.4699 22.8894 16.6577 22.8894 16.8884V16.8983C22.8894 17.129 22.7015 17.3169 22.4708 17.3169H16.7298Z" fill="#F1DFC1"/>
<path d="M16.7298 37.6874C16.4991 37.6874 16.3112 37.4996 16.3112 37.2689V37.259C16.3112 37.0283 16.4991 36.8404 16.7298 36.8404H22.4708C22.7015 36.8404 22.8894 37.0283 22.8894 37.259V37.2689C22.8894 37.4996 22.7015 37.6874 22.4708 37.6874H16.7298Z" fill="#F1DFC1"/>
<path d="M17.122 15.8141C16.7496 15.8141 16.4464 15.5109 16.4464 15.1385V15.1253C16.4464 14.7529 16.7496 14.4497 17.122 14.4497H22.0754C22.4478 14.4497 22.751 14.7529 22.751 15.1253V15.1385C22.751 15.5109 22.4478 15.8141 22.0754 15.8141H17.122Z" fill="#E9A39B"/>
<path d="M16.7163 36.8404C16.5911 36.8404 16.4889 36.7382 16.4889 36.613V36.6097C16.4889 36.4845 16.5911 36.3823 16.7163 36.3823H22.4837C22.6089 36.3823 22.7111 36.4845 22.7111 36.6097V36.613C22.7111 36.7382 22.6089 36.8404 22.4837 36.8404H16.7163Z" fill="#E9A39B"/>
<path d="M16.7163 17.775C16.5911 17.775 16.4889 17.6728 16.4889 17.5476V17.5443C16.4889 17.4191 16.5911 17.3169 16.7163 17.3169H22.4837C22.6089 17.3169 22.7111 17.4191 22.7111 17.5443V17.5476C22.7111 17.6728 22.6089 17.775 22.4837 17.775H16.7163Z" fill="#E9A39B"/>
<path d="M17.3754 35.9044H17.3688C17.1546 35.9044 16.9832 35.733 16.9832 35.5188V18.6417C16.9832 18.4275 17.1546 18.2561 17.3688 18.2561H17.3754C17.5896 18.2561 17.761 18.4275 17.761 18.6417V35.5188C17.761 35.7297 17.5864 35.9044 17.3754 35.9044Z" fill="#E9A39B"/>
<path d="M21.8245 35.9044H21.831C22.0452 35.9044 22.2166 35.733 22.2166 35.5188V18.6417C22.2166 18.4275 22.0452 18.2561 21.831 18.2561H21.8245C21.6102 18.2561 21.4388 18.4275 21.4388 18.6417V35.5188C21.4388 35.7297 21.6102 35.9044 21.8245 35.9044Z" fill="#E9A39B"/>
<path d="M18.8089 35.9044H18.8023C18.5881 35.9044 18.4167 35.733 18.4167 35.5188V18.6417C18.4167 18.4275 18.5881 18.2561 18.8023 18.2561H18.8089C19.0231 18.2561 19.1945 18.4275 19.1945 18.6417V35.5188C19.1945 35.7297 19.0198 35.9044 18.8089 35.9044Z" fill="#E9A39B"/>
<path d="M20.3909 35.9044H20.3975C20.6117 35.9044 20.7831 35.733 20.7831 35.5188V18.6417C20.7831 18.4275 20.6117 18.2561 20.3975 18.2561H20.3909C20.1767 18.2561 20.0053 18.4275 20.0053 18.6417V35.5188C20.0053 35.7297 20.1767 35.9044 20.3909 35.9044Z" fill="#E9A39B"/>
<path d="M40.9925 38.5442H31.1022V39.5659H40.9925V38.5442Z" fill="#F5D09B"/>
<path d="M40.9925 38.5442H31.1022V39.5659H40.9925V38.5442Z" fill="#F5D09B"/>
<path d="M31.1022 38.5442L33.0731 37.5225H39.0217L40.9925 38.5442H31.1022Z" fill="#F5D09B"/>
<path d="M38.9395 16.895H33.1556V37.2655H38.9395V16.895Z" fill="#F5D09B"/>
<path d="M41.4045 13.9157H30.6903V16.4732H41.4045V13.9157Z" fill="#F5D09B"/>
<path d="M30.6905 13.9157C29.5469 13.9157 28.6208 14.8418 28.6208 15.9854C28.6208 17.129 29.5469 18.0551 30.6905 18.0551C31.8341 18.0551 32.7602 17.129 32.7602 15.9854C32.7602 14.8418 31.8341 13.9157 30.6905 13.9157Z" fill="#F5D09B"/>
<path d="M41.4046 13.9157C42.5482 13.9157 43.4743 14.8418 43.4743 15.9854C43.4743 17.129 42.5482 18.0551 41.4046 18.0551C40.261 18.0551 39.335 17.129 39.335 15.9854C39.335 14.8418 40.2643 13.9157 41.4046 13.9157Z" fill="#F5D09B"/>
<path d="M30.689 17.6564C29.7662 17.6564 29.0181 16.905 29.0181 15.9855C29.0181 15.0627 29.7695 14.3146 30.689 14.3146C31.6118 14.3146 32.3599 15.066 32.3599 15.9855C32.3599 16.9083 31.6118 17.6564 30.689 17.6564ZM30.689 14.5387C29.8915 14.5387 29.2422 15.1879 29.2422 15.9855C29.2422 16.783 29.8915 17.4323 30.689 17.4323C31.4866 17.4323 32.1358 16.783 32.1358 15.9855C32.1325 15.1879 31.4866 14.5387 30.689 14.5387Z" fill="#F5D09B"/>
<path d="M30.6897 17.0269C30.1162 17.0269 29.6483 16.5589 29.6483 15.9855C29.6483 15.412 30.1162 14.9441 30.6897 14.9441C31.2631 14.9441 31.7311 15.412 31.7311 15.9855C31.7311 16.5589 31.2631 17.0269 30.6897 17.0269ZM30.6897 15.1682C30.2415 15.1682 29.8757 15.534 29.8757 15.9855C29.8757 16.4337 30.2415 16.7995 30.6897 16.7995C31.1379 16.7995 31.5037 16.4337 31.5037 15.9855C31.5037 15.534 31.1379 15.1682 30.6897 15.1682Z" fill="#F5D09B"/>
<path d="M30.6903 16.3974C30.4629 16.3974 30.2784 16.2128 30.2784 15.9854C30.2784 15.758 30.4629 15.5735 30.6903 15.5735C30.9177 15.5735 31.1023 15.758 31.1023 15.9854C31.1023 16.2128 30.9177 16.3974 30.6903 16.3974ZM30.6903 15.7976C30.5882 15.7976 30.5058 15.88 30.5058 15.9821C30.5058 16.0843 30.5882 16.1667 30.6903 16.1667C30.7925 16.1667 30.8749 16.0843 30.8749 15.9821C30.8749 15.8833 30.7925 15.7976 30.6903 15.7976Z" fill="#F5D09B"/>
<path d="M41.4056 17.6564C42.3284 17.6564 43.0766 16.905 43.0766 15.9855C43.0766 15.0627 42.3251 14.3146 41.4056 14.3146C40.4829 14.3146 39.7347 15.066 39.7347 15.9855C39.7347 16.9083 40.4862 17.6564 41.4056 17.6564ZM41.4056 14.5387C42.2032 14.5387 42.8525 15.1879 42.8525 15.9855C42.8525 16.783 42.2032 17.4323 41.4056 17.4323C40.6081 17.4323 39.9588 16.783 39.9588 15.9855C39.9621 15.1879 40.6114 14.5387 41.4056 14.5387Z" fill="#F5D09B"/>
<path d="M41.4063 17.0269C41.9798 17.0269 42.4478 16.5589 42.4478 15.9855C42.4478 15.412 41.9798 14.9441 41.4063 14.9441C40.8329 14.9441 40.3649 15.412 40.3649 15.9855C40.3649 16.5589 40.8329 17.0269 41.4063 17.0269ZM41.4063 15.1682C41.8545 15.1682 42.2204 15.534 42.2204 15.9855C42.2204 16.4337 41.8545 16.7995 41.4063 16.7995C40.9581 16.7995 40.5923 16.4337 40.5923 15.9855C40.5923 15.534 40.9581 15.1682 41.4063 15.1682Z" fill="#F5D09B"/>
<path d="M41.405 16.3974C41.6324 16.3974 41.817 16.2128 41.817 15.9854C41.817 15.758 41.6324 15.5735 41.405 15.5735C41.1776 15.5735 40.9931 15.758 40.9931 15.9854C40.9931 16.2128 41.1776 16.3974 41.405 16.3974ZM41.405 15.7976C41.5072 15.7976 41.5896 15.88 41.5896 15.9821C41.5896 16.0843 41.5072 16.1667 41.405 16.1667C41.3029 16.1667 41.2205 16.0843 41.2205 15.9821C41.2205 15.8833 41.3029 15.7976 41.405 15.7976Z" fill="#F5D09B"/>
<path d="M33.1789 17.3168C32.9482 17.3168 32.7603 17.129 32.7603 16.8983V16.8884C32.7603 16.6577 32.9482 16.4698 33.1789 16.4698H38.9167C39.1473 16.4698 39.3352 16.6577 39.3352 16.8884V16.8983C39.3352 17.129 39.1473 17.3168 38.9167 17.3168H33.1789Z" fill="#F5D09B"/>
<path d="M33.1789 37.6874C32.9482 37.6874 32.7603 37.4995 32.7603 37.2688V37.259C32.7603 37.0283 32.9482 36.8404 33.1789 36.8404H38.9167C39.1473 36.8404 39.3352 37.0283 39.3352 37.259V37.2688C39.3352 37.4995 39.1473 37.6874 38.9167 37.6874H33.1789Z" fill="#F5D09B"/>
<path d="M33.5711 15.8141C33.1987 15.8141 32.8955 15.5109 32.8955 15.1384V15.1253C32.8955 14.7529 33.1987 14.4496 33.5711 14.4496H38.5245C38.897 14.4496 39.2002 14.7529 39.2002 15.1253V15.1384C39.2002 15.5109 38.897 15.8141 38.5245 15.8141H33.5711Z" fill="#F5D09B"/>
<path d="M33.1654 36.8404C33.0402 36.8404 32.938 36.7382 32.938 36.613V36.6097C32.938 36.4844 33.0402 36.3823 33.1654 36.3823H38.9328C39.0581 36.3823 39.1602 36.4844 39.1602 36.6097V36.613C39.1602 36.7382 39.0581 36.8404 38.9328 36.8404H33.1654Z" fill="#F5D09B"/>
<path d="M33.1654 17.775C33.0402 17.775 32.938 17.6728 32.938 17.5476V17.5443C32.938 17.419 33.0402 17.3169 33.1654 17.3169H38.9328C39.0581 17.3169 39.1602 17.419 39.1602 17.5443V17.5476C39.1602 17.6728 39.0581 17.775 38.9328 17.775H33.1654Z" fill="#F5D09B"/>
<path d="M33.8246 35.9044H33.818C33.6037 35.9044 33.4324 35.733 33.4324 35.5188V18.6417C33.4324 18.4274 33.6037 18.2561 33.818 18.2561H33.8246C34.0388 18.2561 34.2101 18.4274 34.2101 18.6417V35.5188C34.2101 35.7297 34.0355 35.9044 33.8246 35.9044Z" fill="#F5D09B"/>
<path d="M38.2736 35.9044H38.2802C38.4944 35.9044 38.6657 35.733 38.6657 35.5188V18.6417C38.6657 18.4274 38.4944 18.2561 38.2802 18.2561H38.2736C38.0593 18.2561 37.888 18.4274 37.888 18.6417V35.5188C37.888 35.7297 38.0593 35.9044 38.2736 35.9044Z" fill="#F5D09B"/>
<path d="M35.258 35.9044H35.2514C35.0372 35.9044 34.8658 35.733 34.8658 35.5188V18.6417C34.8658 18.4274 35.0372 18.2561 35.2514 18.2561H35.258C35.4722 18.2561 35.6436 18.4274 35.6436 18.6417V35.5188C35.6436 35.7297 35.469 35.9044 35.258 35.9044Z" fill="#F5D09B"/>
<path d="M36.8401 35.9044H36.8467C37.0609 35.9044 37.2323 35.733 37.2323 35.5188V18.6417C37.2323 18.4274 37.0609 18.2561 36.8467 18.2561H36.8401C36.6259 18.2561 36.4545 18.4274 36.4545 18.6417V35.5188C36.4545 35.7297 36.6259 35.9044 36.8401 35.9044Z" fill="#F5D09B"/>
<path d="M39.3344 37.2688V37.2589C39.3344 37.0348 39.1598 36.8536 38.9389 36.8437V36.8404C39.0609 36.8371 39.1565 36.7382 39.1565 36.6163V36.613C39.1565 36.491 39.0576 36.3922 38.9389 36.3889V27.6422L37.9832 31.943C37.2845 35.097 34.8688 37.5885 31.7379 38.386L31.1018 38.5475V39.5692H40.9921V38.5475L39.1696 37.6017C39.2685 37.5226 39.3344 37.4039 39.3344 37.2688Z" fill="#F5D09B"/>
<path d="M40.9921 38.5443H31.1018V39.5659H40.9921V38.5443Z" fill="white"/>
<path d="M40.9921 38.5443H31.1018V39.5659H40.9921V38.5443Z" fill="#E9A39B"/>
<path d="M31.1018 38.5442L33.0727 37.5226H39.0213L40.9921 38.5442H31.1018Z" fill="#F1DFC1"/>
<path d="M38.9391 16.895H33.1552V37.2656H38.9391V16.895Z" fill="#F1DFC1"/>
<path d="M41.4041 13.9157H30.6899V16.4732H41.4041V13.9157Z" fill="#F1DFC1"/>
<path d="M30.6901 13.9157C29.5465 13.9157 28.6204 14.8418 28.6204 15.9854C28.6204 17.129 29.5465 18.0551 30.6901 18.0551C31.8337 18.0551 32.7598 17.129 32.7598 15.9854C32.7598 14.8418 31.8337 13.9157 30.6901 13.9157Z" fill="#F1DFC1"/>
<path d="M41.4042 13.9157C42.5478 13.9157 43.4739 14.8418 43.4739 15.9854C43.4739 17.129 42.5478 18.0551 41.4042 18.0551C40.2606 18.0551 39.3346 17.129 39.3346 15.9854C39.3346 14.8418 40.2639 13.9157 41.4042 13.9157Z" fill="#F1DFC1"/>
<path d="M30.6906 17.6564C29.7678 17.6564 29.0197 16.905 29.0197 15.9855C29.0197 15.0627 29.7711 14.3146 30.6906 14.3146C31.6133 14.3146 32.3615 15.066 32.3615 15.9855C32.3615 16.9083 31.6133 17.6564 30.6906 17.6564ZM30.6906 14.5387C29.893 14.5387 29.2438 15.188 29.2438 15.9855C29.2438 16.7831 29.893 17.4323 30.6906 17.4323C31.4881 17.4323 32.1374 16.7831 32.1374 15.9855C32.1341 15.188 31.4881 14.5387 30.6906 14.5387Z" fill="#E9A39B"/>
<path d="M30.6893 17.027C30.1158 17.027 29.6479 16.559 29.6479 15.9855C29.6479 15.4121 30.1158 14.9441 30.6893 14.9441C31.2627 14.9441 31.7307 15.4121 31.7307 15.9855C31.7307 16.559 31.2627 17.027 30.6893 17.027ZM30.6893 15.1682C30.2411 15.1682 29.8753 15.534 29.8753 15.9855C29.8753 16.4337 30.2411 16.7996 30.6893 16.7996C31.1375 16.7996 31.5033 16.4337 31.5033 15.9855C31.5033 15.534 31.1375 15.1682 30.6893 15.1682Z" fill="#E9A39B"/>
<path d="M30.6899 16.3974C30.4625 16.3974 30.278 16.2129 30.278 15.9855C30.278 15.7581 30.4625 15.5735 30.6899 15.5735C30.9173 15.5735 31.1019 15.7581 31.1019 15.9855C31.1019 16.2129 30.9173 16.3974 30.6899 16.3974ZM30.6899 15.7976C30.5878 15.7976 30.5054 15.88 30.5054 15.9822C30.5054 16.0843 30.5878 16.1667 30.6899 16.1667C30.7921 16.1667 30.8745 16.0843 30.8745 15.9822C30.8745 15.8833 30.7921 15.7976 30.6899 15.7976Z" fill="#E9A39B"/>
<path d="M41.4053 17.6564C42.328 17.6564 43.0762 16.905 43.0762 15.9855C43.0762 15.0627 42.3247 14.3146 41.4053 14.3146C40.4825 14.3146 39.7343 15.066 39.7343 15.9855C39.7343 16.9083 40.4858 17.6564 41.4053 17.6564ZM41.4053 14.5387C42.2028 14.5387 42.8521 15.188 42.8521 15.9855C42.8521 16.7831 42.2028 17.4323 41.4053 17.4323C40.6077 17.4323 39.9584 16.7831 39.9584 15.9855C39.9617 15.188 40.611 14.5387 41.4053 14.5387Z" fill="#E9A39B"/>
<path d="M41.4059 17.027C41.9794 17.027 42.4474 16.559 42.4474 15.9855C42.4474 15.4121 41.9794 14.9441 41.4059 14.9441C40.8325 14.9441 40.3645 15.4121 40.3645 15.9855C40.3645 16.559 40.8325 17.027 41.4059 17.027ZM41.4059 15.1682C41.8541 15.1682 42.22 15.534 42.22 15.9855C42.22 16.4337 41.8541 16.7996 41.4059 16.7996C40.9577 16.7996 40.5919 16.4337 40.5919 15.9855C40.5919 15.534 40.9577 15.1682 41.4059 15.1682Z" fill="#E9A39B"/>
<path d="M41.4046 16.3974C41.632 16.3974 41.8166 16.2129 41.8166 15.9855C41.8166 15.7581 41.632 15.5735 41.4046 15.5735C41.1772 15.5735 40.9927 15.7581 40.9927 15.9855C40.9927 16.2129 41.1772 16.3974 41.4046 16.3974ZM41.4046 15.7976C41.5068 15.7976 41.5892 15.88 41.5892 15.9822C41.5892 16.0843 41.5068 16.1667 41.4046 16.1667C41.3025 16.1667 41.2201 16.0843 41.2201 15.9822C41.2201 15.8833 41.3025 15.7976 41.4046 15.7976Z" fill="#E9A39B"/>
<path d="M33.1785 17.3169C32.9478 17.3169 32.76 17.129 32.76 16.8983V16.8884C32.76 16.6577 32.9478 16.4699 33.1785 16.4699H38.9163C39.147 16.4699 39.3348 16.6577 39.3348 16.8884V16.8983C39.3348 17.129 39.147 17.3169 38.9163 17.3169H33.1785Z" fill="#F1DFC1"/>
<path d="M33.1785 37.6874C32.9478 37.6874 32.76 37.4996 32.76 37.2689V37.259C32.76 37.0283 32.9478 36.8404 33.1785 36.8404H38.9163C39.147 36.8404 39.3348 37.0283 39.3348 37.259V37.2689C39.3348 37.4996 39.147 37.6874 38.9163 37.6874H33.1785Z" fill="#F1DFC1"/>
<path d="M33.5707 15.8141C33.1983 15.8141 32.8951 15.5109 32.8951 15.1385V15.1253C32.8951 14.7529 33.1983 14.4497 33.5707 14.4497H38.5241C38.8966 14.4497 39.1998 14.7529 39.1998 15.1253V15.1385C39.1998 15.5109 38.8966 15.8141 38.5241 15.8141H33.5707Z" fill="#E9A39B"/>
<path d="M33.165 36.8404C33.0398 36.8404 32.9376 36.7382 32.9376 36.613V36.6097C32.9376 36.4845 33.0398 36.3823 33.165 36.3823H38.9324C39.0577 36.3823 39.1598 36.4845 39.1598 36.6097V36.613C39.1598 36.7382 39.0577 36.8404 38.9324 36.8404H33.165Z" fill="#E9A39B"/>
<path d="M33.165 17.775C33.0398 17.775 32.9376 17.6728 32.9376 17.5476V17.5443C32.9376 17.4191 33.0398 17.3169 33.165 17.3169H38.9324C39.0577 17.3169 39.1598 17.4191 39.1598 17.5443V17.5476C39.1598 17.6728 39.0577 17.775 38.9324 17.775H33.165Z" fill="#E9A39B"/>
<path d="M33.8242 35.9044H33.8176C33.6033 35.9044 33.432 35.733 33.432 35.5188V18.6417C33.432 18.4275 33.6033 18.2561 33.8176 18.2561H33.8242C34.0384 18.2561 34.2097 18.4275 34.2097 18.6417V35.5188C34.2097 35.7297 34.0351 35.9044 33.8242 35.9044Z" fill="#E9A39B"/>
<path d="M38.2732 35.9044H38.2798C38.494 35.9044 38.6653 35.733 38.6653 35.5188V18.6417C38.6653 18.4275 38.494 18.2561 38.2798 18.2561H38.2732C38.0589 18.2561 37.8876 18.4275 37.8876 18.6417V35.5188C37.8876 35.7297 38.0589 35.9044 38.2732 35.9044Z" fill="#E9A39B"/>
<path d="M35.2576 35.9044H35.251C35.0368 35.9044 34.8654 35.733 34.8654 35.5188V18.6417C34.8654 18.4275 35.0368 18.2561 35.251 18.2561H35.2576C35.4719 18.2561 35.6432 18.4275 35.6432 18.6417V35.5188C35.6432 35.7297 35.4686 35.9044 35.2576 35.9044Z" fill="#E9A39B"/>
<path d="M36.8397 35.9044H36.8463C37.0605 35.9044 37.2319 35.733 37.2319 35.5188V18.6417C37.2319 18.4275 37.0605 18.2561 36.8463 18.2561H36.8397C36.6255 18.2561 36.4541 18.4275 36.4541 18.6417V35.5188C36.4541 35.7297 36.6255 35.9044 36.8397 35.9044Z" fill="#E9A39B"/>
</svg>
