<svg width="56" height="57" viewBox="0 0 56 57" fill="none" xmlns="http://www.w3.org/2000/svg">
<path d="M0 47.7112C0.0659134 47.698 0.135121 47.6914 0.20433 47.6914C0.74482 47.6914 1.18644 48.0803 1.18644 48.5582C1.18644 49.0361 0.748115 49.4249 0.20433 49.4249C0.135121 49.4249 0.0659134 49.4184 0 49.4052V50.7267C0.0659134 50.7135 0.135121 50.707 0.20433 50.707C0.74482 50.707 1.18644 51.0958 1.18644 51.5737C1.18644 52.0516 0.748115 52.4405 0.20433 52.4405C0.135121 52.4405 0.0659134 52.4339 0 52.4207V53.7423C0.0659134 53.7291 0.135121 53.7225 0.20433 53.7225C0.74482 53.7225 1.18644 54.1114 1.18644 54.5892C1.18644 55.0671 0.748115 55.456 0.20433 55.456C0.135121 55.456 0.0659134 55.4494 0 55.4362V56.9424H2.62994C2.59699 56.8567 2.57721 56.7677 2.57721 56.6721C2.57721 56.1942 3.01553 55.8054 3.55932 55.8054C4.09981 55.8054 4.54143 56.1942 4.54143 56.6721C4.54143 56.7677 4.51836 56.8567 4.4887 56.9424H6.1596C6.12664 56.8567 6.10687 56.7677 6.10687 56.6721C6.10687 56.1942 6.5452 55.8054 7.08898 55.8054C7.63277 55.8054 8.07109 56.1942 8.07109 56.6721C8.07109 56.7677 8.04802 56.8567 8.01836 56.9424H9.68926C9.65631 56.8567 9.63653 56.7677 9.63653 56.6721C9.63653 56.1942 10.0749 55.8054 10.6186 55.8054C11.1591 55.8054 11.6008 56.1942 11.6008 56.6721C11.6008 56.7677 11.5777 56.8567 11.548 56.9424H13.2189C13.186 56.8567 13.1662 56.7677 13.1662 56.6721C13.1662 56.1942 13.6045 55.8054 14.1483 55.8054C14.6888 55.8054 15.1304 56.1942 15.1304 56.6721C15.1304 56.7677 15.1073 56.8567 15.0777 56.9424H16.7486C16.7156 56.8567 16.6959 56.7677 16.6959 56.6721C16.6959 56.1942 17.1342 55.8054 17.678 55.8054C18.2185 55.8054 18.6601 56.1942 18.6601 56.6721C18.6601 56.7677 18.637 56.8567 18.6073 56.9424H20.2782C20.2453 56.8567 20.2255 56.7677 20.2255 56.6721C20.2255 56.1942 20.6638 55.8054 21.2076 55.8054C21.7481 55.8054 22.1897 56.1942 22.1897 56.6721C22.1897 56.7677 22.1667 56.8567 22.137 56.9424H23.8079C23.775 56.8567 23.7552 56.7677 23.7552 56.6721C23.7552 56.1942 24.1935 55.8054 24.7373 55.8054C25.2778 55.8054 25.7194 56.1942 25.7194 56.6721C25.7194 56.7677 25.6963 56.8567 25.6667 56.9424H27.3376C27.3046 56.8567 27.2848 56.7677 27.2848 56.6721C27.2848 56.1942 27.7232 55.8054 28.2669 55.8054C28.8107 55.8054 29.2491 56.1942 29.2491 56.6721C29.2491 56.7677 29.226 56.8567 29.1963 56.9424H30.8672C30.8343 56.8567 30.8145 56.7677 30.8145 56.6721C30.8145 56.1942 31.2528 55.8054 31.7966 55.8054C32.3371 55.8054 32.7787 56.1942 32.7787 56.6721C32.7787 56.7677 32.7556 56.8567 32.726 56.9424H34.3969C34.3639 56.8567 34.3442 56.7677 34.3442 56.6721C34.3442 56.1942 34.7825 55.8054 35.3263 55.8054C35.8668 55.8054 36.3084 56.1942 36.3084 56.6721C36.3084 56.7677 36.2853 56.8567 36.2556 56.9424H37.9266C37.8936 56.8567 37.8738 56.7677 37.8738 56.6721C37.8738 56.1942 38.3121 55.8054 38.8559 55.8054C39.3964 55.8054 39.838 56.1942 39.838 56.6721C39.838 56.7677 39.815 56.8567 39.7853 56.9424H41.4562C41.4233 56.8567 41.4035 56.7677 41.4035 56.6721C41.4035 56.1942 41.8418 55.8054 42.3856 55.8054C42.9294 55.8054 43.3677 56.1942 43.3677 56.6721C43.3677 56.7677 43.3446 56.8567 43.315 56.9424H44.9859C44.9529 56.8567 44.9331 56.7677 44.9331 56.6721C44.9331 56.1942 45.3715 55.8054 45.9153 55.8054C46.4557 55.8054 46.8974 56.1942 46.8974 56.6721C46.8974 56.7677 46.8743 56.8567 46.8446 56.9424H48.5155C48.4826 56.8567 48.4628 56.7677 48.4628 56.6721C48.4628 56.1942 48.9011 55.8054 49.4449 55.8054C49.9854 55.8054 50.427 56.1942 50.427 56.6721C50.427 56.7677 50.404 56.8567 50.3743 56.9424H52.0452C52.0122 56.8567 51.9925 56.7677 51.9925 56.6721C51.9925 56.1942 52.4308 55.8054 52.9746 55.8054C53.5151 55.8054 53.9567 56.1942 53.9567 56.6721C53.9567 56.7677 53.9336 56.8567 53.904 56.9424H56V55.456C55.4595 55.456 55.0179 55.0671 55.0179 54.5892C55.0179 54.1114 55.4562 53.7225 56 53.7225V52.4405C55.4595 52.4405 55.0179 52.0516 55.0179 51.5737C55.0179 51.0958 55.4562 50.707 56 50.707V49.4249C55.4595 49.4249 55.0179 49.0361 55.0179 48.5582C55.0179 48.0803 55.4562 47.6914 56 47.6914V47.6815V46.3995C55.4595 46.3995 55.0179 46.0106 55.0179 45.5328C55.0179 45.0549 55.4562 44.666 56 44.666V43.384C55.4595 43.384 55.0179 42.9951 55.0179 42.5172C55.0179 42.0393 55.4562 41.6505 56 41.6505V40.3684C55.4595 40.3684 55.0179 39.9795 55.0179 39.5017C55.0179 39.0238 55.4562 38.6349 56 38.6349V37.3529C55.4595 37.3529 55.0179 36.964 55.0179 36.4861C55.0179 36.0083 55.4562 35.6194 56 35.6194V34.3374C55.4595 34.3374 55.0179 33.9485 55.0179 33.4706C55.0179 32.9927 55.4562 32.6038 56 32.6038V31.3218C55.4595 31.3218 55.0179 30.9329 55.0179 30.4551C55.0179 29.9772 55.4562 29.5883 56 29.5883V28.3063C55.4595 28.3063 55.0179 27.9174 55.0179 27.4395C55.0179 26.9617 55.4562 26.5728 56 26.5728V25.2908C55.4595 25.2908 55.0179 24.9019 55.0179 24.424C55.0179 23.9461 55.4562 23.5572 56 23.5572V22.2752C55.4595 22.2752 55.0179 21.8863 55.0179 21.4085C55.0179 20.9306 55.4562 20.5417 56 20.5417V19.2597C55.4595 19.2597 55.0179 18.8708 55.0179 18.3929C55.0179 17.9151 55.4562 17.5262 56 17.5262V16.2442C55.4595 16.2442 55.0179 15.8553 55.0179 15.3774C55.0179 14.8995 55.4562 14.5106 56 14.5106V13.2286C55.4595 13.2286 55.0179 12.8397 55.0179 12.3618C55.0179 11.884 55.4562 11.4951 56 11.4951V10.2131C55.4595 10.2131 55.0179 9.82418 55.0179 9.34631C55.0179 8.86844 55.4562 8.47955 56 8.47955V7.19754C55.4595 7.19754 55.0179 6.80865 55.0179 6.33077C55.0179 5.8529 55.4562 5.46401 56 5.46401V4.182C55.4595 4.182 55.0179 3.79311 55.0179 3.31524C55.0179 2.83737 55.4562 2.44848 56 2.44848V0.962128H53.9567C53.9567 1.44 53.5184 1.82889 52.9746 1.82889C52.4341 1.82889 51.9925 1.44 51.9925 0.962128H50.4303C50.4303 1.44 49.992 1.82889 49.4482 1.82889C48.9077 1.82889 48.4661 1.44 48.4661 0.962128H46.904C46.904 1.44 46.4656 1.82889 45.9218 1.82889C45.3814 1.82889 44.9397 1.44 44.9397 0.962128H43.3776C43.3776 1.44 42.9393 1.82889 42.3955 1.82889C41.8517 1.82889 41.4134 1.44 41.4134 0.962128H39.8512C39.8512 1.44 39.4129 1.82889 38.8691 1.82889C38.3286 1.82889 37.887 1.44 37.887 0.962128H36.3249C36.3249 1.44 35.8865 1.82889 35.3428 1.82889C34.8023 1.82889 34.3606 1.44 34.3606 0.962128H32.7985C32.7985 1.44 32.3602 1.82889 31.8164 1.82889C31.2759 1.82889 30.8343 1.44 30.8343 0.962128H29.2721C29.2721 1.44 28.8338 1.82889 28.29 1.82889C27.7462 1.82889 27.3079 1.44 27.3079 0.962128H25.7458C25.7458 1.44 25.3074 1.82889 24.7637 1.82889C24.2232 1.82889 23.7815 1.44 23.7815 0.962128H22.2194C22.2194 1.44 21.7811 1.82889 21.2373 1.82889C20.6968 1.82889 20.2552 1.44 20.2552 0.962128H18.693C18.693 1.44 18.2547 1.82889 17.7109 1.82889C17.1704 1.82889 16.7288 1.44 16.7288 0.962128H15.1667C15.1667 1.44 14.7283 1.82889 14.1846 1.82889C13.6441 1.82889 13.2024 1.44 13.2024 0.962128H11.6403C11.6403 1.44 11.202 1.82889 10.6582 1.82889C10.1177 1.82889 9.67608 1.44 9.67608 0.962128H8.11393C8.11393 1.44 7.67561 1.82889 7.13183 1.82889C6.58804 1.82889 6.14971 1.44 6.14971 0.962128H4.58757C4.58757 1.44 4.14924 1.82889 3.60546 1.82889C3.06497 1.82889 2.62335 1.44 2.62335 0.962128H0.049433V2.46825C0.115346 2.45507 0.184554 2.44848 0.253763 2.44848C0.794253 2.44848 1.23588 2.83737 1.23588 3.31524C1.23588 3.79311 0.797548 4.182 0.253763 4.182C0.184554 4.182 0.115346 4.17541 0.049433 4.16223V5.48379C0.115346 5.4706 0.184554 5.46401 0.253763 5.46401C0.794253 5.46401 1.23588 5.8529 1.23588 6.33077C1.23588 6.80865 0.797548 7.19754 0.253763 7.19754C0.184554 7.19754 0.115346 7.19095 0.049433 7.17776V8.49933C0.115346 8.48615 0.184554 8.47955 0.253763 8.47955C0.794253 8.47955 1.23588 8.86844 1.23588 9.34631C1.23588 9.82418 0.797548 10.2131 0.253763 10.2131C0.184554 10.2131 0.115346 10.2065 0.049433 10.1933V11.5149C0.115346 11.5017 0.184554 11.4951 0.253763 11.4951C0.794253 11.4951 1.23588 11.884 1.23588 12.3618C1.23588 12.8397 0.797548 13.2286 0.253763 13.2286C0.184554 13.2286 0.115346 13.222 0.049433 13.2088V14.5304C0.115346 14.5172 0.184554 14.5106 0.253763 14.5106C0.794253 14.5106 1.23588 14.8995 1.23588 15.3774C1.23588 15.8553 0.797548 16.2442 0.253763 16.2442C0.184554 16.2442 0.115346 16.2376 0.049433 16.2244V17.5459C0.115346 17.5328 0.184554 17.5262 0.253763 17.5262C0.794253 17.5262 1.23588 17.9151 1.23588 18.3929C1.23588 18.8708 0.797548 19.2597 0.253763 19.2597C0.184554 19.2597 0.115346 19.2531 0.049433 19.2399V20.5615C0.115346 20.5483 0.184554 20.5417 0.253763 20.5417C0.794253 20.5417 1.23588 20.9306 1.23588 21.4085C1.23588 21.8863 0.797548 22.2752 0.253763 22.2752C0.184554 22.2752 0.115346 22.2686 0.049433 22.2554V23.577C0.115346 23.5638 0.184554 23.5572 0.253763 23.5572C0.794253 23.5572 1.23588 23.9461 1.23588 24.424C1.23588 24.9019 0.797548 25.2908 0.253763 25.2908C0.184554 25.2908 0.115346 25.2842 0.049433 25.271V26.5925C0.115346 26.5794 0.184554 26.5728 0.253763 26.5728C0.794253 26.5728 1.23588 26.9617 1.23588 27.4395C1.23588 27.9174 0.797548 28.3063 0.253763 28.3063C0.184554 28.3063 0.115346 28.2997 0.049433 28.2865V29.6081C0.115346 29.5949 0.184554 29.5883 0.253763 29.5883C0.794253 29.5883 1.23588 29.9772 1.23588 30.4551C1.23588 30.9329 0.797548 31.3218 0.253763 31.3218C0.184554 31.3218 0.115346 31.3152 0.049433 31.3021V32.6236C0.115346 32.6104 0.184554 32.6038 0.253763 32.6038C0.794253 32.6038 1.23588 32.9927 1.23588 33.4706C1.23588 33.9485 0.797548 34.3374 0.253763 34.3374C0.184554 34.3374 0.115346 34.3308 0.049433 34.3176V35.6392C0.115346 35.626 0.184554 35.6194 0.253763 35.6194C0.794253 35.6194 1.23588 36.0083 1.23588 36.4861C1.23588 36.964 0.797548 37.3529 0.253763 37.3529C0.184554 37.3529 0.115346 37.3463 0.049433 37.3331V38.6547C0.115346 38.6415 0.184554 38.6349 0.253763 38.6349C0.794253 38.6349 1.23588 39.0238 1.23588 39.5017C1.23588 39.9795 0.797548 40.3684 0.253763 40.3684C0.184554 40.3684 0.115346 40.3618 0.049433 40.3487V41.6702C0.115346 41.6571 0.184554 41.6505 0.253763 41.6505C0.794253 41.6505 1.23588 42.0393 1.23588 42.5172C1.23588 42.9951 0.797548 43.384 0.253763 43.384C0.184554 43.384 0.115346 43.3774 0.049433 43.3642V44.6858C0.115346 44.6726 0.184554 44.666 0.253763 44.666C0.794253 44.666 1.23588 45.0549 1.23588 45.5328C1.23588 46.0106 0.797548 46.3995 0.253763 46.3995C0.184554 46.3995 0.115346 46.3929 0.049433 46.3797V47.7013C0.115346 47.6881 0.184554 47.6815 0.253763 47.6815" fill="#A98B83"/>
<path d="M52.4149 8.8058V48.021C50.0091 48.166 48.0976 50.1697 48.0976 52.6085C48.0976 52.8689 48.1207 53.1325 48.1701 53.3995H7.75532C7.80476 53.1325 7.82783 52.8689 7.82783 52.6085C7.82783 50.1697 5.91634 48.166 3.5105 48.021V8.8058C5.82406 8.66408 7.67952 6.80862 7.81793 4.49506H48.1042C48.2459 6.80862 50.1014 8.66408 52.4149 8.8058Z" fill="white"/>
<path d="M52.4149 8.8058V48.021C50.0091 48.166 48.0976 50.1697 48.0976 52.6085C48.0976 52.8689 48.1207 53.1325 48.1701 53.3995H7.75532C7.80476 53.1325 7.82783 52.8689 7.82783 52.6085C7.82783 50.1697 5.91634 48.166 3.5105 48.021V8.8058C5.82406 8.66408 7.67952 6.80862 7.81793 4.49506H48.1042C48.2459 6.80862 50.1014 8.66408 52.4149 8.8058Z" fill="#AB8C85"/>
<path d="M52.6942 8.25216C50.4663 8.25216 48.657 6.44284 48.657 4.21496C48.657 4.06007 48.5317 3.93483 48.3768 3.93483H7.5468C7.3919 3.93483 7.26666 4.06007 7.26666 4.21496C7.26666 6.44284 5.45405 8.25216 3.22947 8.25216C3.07457 8.25216 2.94934 8.37739 2.94934 8.53228V48.2945C2.94934 48.4461 3.07457 48.5747 3.22947 48.5747C5.45405 48.5747 7.26666 50.384 7.26666 52.6086C7.26666 52.9348 7.22053 53.271 7.13484 53.6104C7.11507 53.6961 7.13154 53.7851 7.18427 53.851C7.237 53.9202 7.3194 53.9598 7.40838 53.9598H48.5153C48.6009 53.9598 48.6833 53.9202 48.7361 53.851C48.7888 53.7851 48.8086 53.6961 48.7855 53.6104C48.6998 53.271 48.657 52.9348 48.657 52.6086C48.657 50.384 50.4663 48.5747 52.6942 48.5747C52.8491 48.5747 52.9743 48.4461 52.9743 48.2945V8.53228C52.9743 8.37739 52.8491 8.25216 52.6942 8.25216ZM52.414 48.021C50.0082 48.166 48.0967 50.1698 48.0967 52.6086C48.0967 52.8689 48.1198 53.1326 48.1692 53.3995H7.75443C7.80386 53.1326 7.82693 52.8689 7.82693 52.6086C7.82693 50.1698 5.91544 48.166 3.5096 48.021V8.80583C5.82316 8.66411 7.67862 6.80865 7.81704 4.49509H48.1033C48.245 6.80865 50.1005 8.66411 52.414 8.80583V48.021Z" fill="#F1DFC1"/>
<path d="M52.5165 8.89809V48.1165C51.3495 48.1917 50.2545 48.7072 49.4531 49.5589C48.6516 50.4105 48.2034 51.5347 48.1992 52.7041C48.1991 52.9694 48.2233 53.2342 48.2717 53.4951H7.85688C7.90521 53.2342 7.92948 52.9694 7.92939 52.7041C7.92618 51.5362 7.48021 50.413 6.68143 49.561C5.88265 48.709 4.79049 48.1917 3.62524 48.1133V8.8948C4.73987 8.81728 5.7885 8.33793 6.57644 7.54575C7.36438 6.75357 7.83808 5.70238 7.90961 4.58736H48.2058C48.2772 5.70719 48.7543 6.76261 49.5478 7.55607C50.3412 8.34952 51.3967 8.82663 52.5165 8.89809Z" fill="white"/>
<path d="M27.9622 7.30289C28.3153 7.30289 28.6016 7.01664 28.6016 6.66353C28.6016 6.31042 28.3153 6.02417 27.9622 6.02417C27.6091 6.02417 27.3229 6.31042 27.3229 6.66353C27.3229 7.01664 27.6091 7.30289 27.9622 7.30289Z" fill="#F5CBD9"/>
<path d="M27.9594 9.19468C27.8803 9.19468 27.8177 9.13206 27.8177 9.05297V8.07744C27.8177 7.99835 27.8803 7.93573 27.9594 7.93573C28.0385 7.93573 28.1011 7.99835 28.1011 8.07744V9.05297C28.1011 9.13206 28.0385 9.19468 27.9594 9.19468Z" fill="#F5CBD9"/>
<path d="M27.9594 11.8806C27.8803 11.8806 27.8177 11.8179 27.8177 11.7388V9.65927C27.8177 9.58018 27.8803 9.51756 27.9594 9.51756C28.0385 9.51756 28.1011 9.58018 28.1011 9.65927V11.7388C28.1011 11.8179 28.0385 11.8806 27.9594 11.8806Z" fill="#F5CBD9"/>
<path d="M29.1549 8.87491C29.1055 8.87491 29.0594 8.84854 29.033 8.8057L28.5452 7.95871C28.5057 7.8928 28.5288 7.80711 28.598 7.76757C28.6639 7.72802 28.7496 7.75108 28.7891 7.82029L29.2769 8.66728C29.3164 8.73319 29.2933 8.81888 29.2241 8.85843C29.2044 8.86832 29.1813 8.87491 29.1549 8.87491Z" fill="#F5CBD9"/>
<path d="M30.4991 11.2015C30.4497 11.2015 30.4036 11.1752 30.3772 11.1323L29.3391 9.33291C29.2995 9.267 29.3226 9.1813 29.3918 9.14175C29.4577 9.10221 29.5434 9.12528 29.5829 9.19449L30.6211 10.9939C30.6606 11.0598 30.6375 11.1455 30.5683 11.1851C30.5453 11.195 30.5222 11.2015 30.4991 11.2015Z" fill="#F5CBD9"/>
<path d="M30.032 8.00155C30.0089 8.00155 29.9826 7.99496 29.9628 7.98177L29.1191 7.49401C29.0532 7.45446 29.0301 7.36878 29.0664 7.30287C29.1059 7.23695 29.1916 7.21388 29.2575 7.25014L30.1012 7.73789C30.1671 7.77744 30.1902 7.86313 30.1539 7.92904C30.1276 7.97518 30.0814 8.00155 30.032 8.00155Z" fill="#F5CBD9"/>
<path d="M31.3036 8.73323C31.2805 8.73323 31.2542 8.72664 31.2344 8.71346L30.4863 8.28173C30.4204 8.24218 30.3973 8.15648 30.4336 8.09057C30.4731 8.02466 30.5588 8.00159 30.6247 8.03784L31.3728 8.46957C31.4387 8.50912 31.4618 8.59481 31.4256 8.66073C31.3992 8.71016 31.3531 8.73323 31.3036 8.73323Z" fill="#F5CBD9"/>
<path d="M30.3504 6.80526H29.3749C29.2958 6.80526 29.2332 6.74264 29.2332 6.66355C29.2332 6.58445 29.2958 6.52184 29.3749 6.52184H30.3504C30.4295 6.52184 30.4922 6.58445 30.4922 6.66355C30.4922 6.74264 30.4295 6.80526 30.3504 6.80526Z" fill="#F5CBD9"/>
<path d="M32.8687 6.80526H30.9572C30.8781 6.80526 30.8155 6.74264 30.8155 6.66355C30.8155 6.58445 30.8781 6.52184 30.9572 6.52184H32.8687C32.9478 6.52184 33.0104 6.58445 33.0104 6.66355C33.0104 6.74264 32.9478 6.80526 32.8687 6.80526Z" fill="#F5CBD9"/>
<path d="M26.5448 6.80526H25.5693C25.4902 6.80526 25.4276 6.74264 25.4276 6.66355C25.4276 6.58445 25.4902 6.52184 25.5693 6.52184H26.5448C26.6239 6.52184 26.6866 6.58445 26.6866 6.66355C26.6833 6.74264 26.6206 6.80526 26.5448 6.80526Z" fill="#F5CBD9"/>
<path d="M24.9622 6.80526H23.0507C22.9716 6.80526 22.909 6.74264 22.909 6.66355C22.909 6.58445 22.9716 6.52184 23.0507 6.52184H24.9622C25.0413 6.52184 25.1039 6.58445 25.1039 6.66355C25.1006 6.74264 25.038 6.80526 24.9622 6.80526Z" fill="#F5CBD9"/>
<path d="M25.8884 8.00148C25.8389 8.00148 25.7928 7.97512 25.7664 7.93227C25.7269 7.86636 25.7499 7.78067 25.8192 7.74112L26.6628 7.25336C26.7288 7.21381 26.8144 7.23688 26.854 7.30609C26.8935 7.372 26.8705 7.4577 26.8013 7.49724L25.9576 7.985C25.9345 7.99488 25.9114 8.00148 25.8884 8.00148Z" fill="#F5CBD9"/>
<path d="M24.6625 8.70691C24.613 8.70691 24.5669 8.68054 24.5405 8.6377C24.501 8.57179 24.5241 8.4861 24.5933 8.44655L25.2952 8.04118C25.3612 8.00164 25.4468 8.02471 25.4864 8.09392C25.5259 8.15983 25.5029 8.24551 25.4337 8.28506L24.7317 8.69043C24.7086 8.70361 24.6855 8.70691 24.6625 8.70691Z" fill="#F5CBD9"/>
<path d="M26.7645 8.87492C26.7415 8.87492 26.7151 8.86833 26.6953 8.85515C26.6294 8.8156 26.6064 8.72991 26.6426 8.664L27.1304 7.81701C27.1699 7.7511 27.2556 7.72803 27.3215 7.76428C27.3874 7.80383 27.4105 7.88951 27.3742 7.95542L26.8865 8.80241C26.8601 8.85185 26.8107 8.87492 26.7645 8.87492Z" fill="#F5CBD9"/>
<path d="M25.4208 11.2016C25.3977 11.2016 25.3714 11.195 25.3516 11.1819C25.2857 11.1423 25.2626 11.0566 25.2989 10.9907L26.3403 9.19128C26.3798 9.12537 26.4655 9.1023 26.5314 9.13855C26.5974 9.1781 26.6204 9.26379 26.5842 9.3297L25.5427 11.1291C25.5164 11.1753 25.4702 11.2016 25.4208 11.2016Z" fill="#F5CBD9"/>
<path d="M27.9622 51.8737C28.3153 51.8737 28.6016 51.5874 28.6016 51.2343C28.6016 50.8812 28.3153 50.595 27.9622 50.595C27.6091 50.595 27.3229 50.8812 27.3229 51.2343C27.3229 51.5874 27.6091 51.8737 27.9622 51.8737Z" fill="#F5CBD9"/>
<path d="M27.9594 49.9589C27.8803 49.9589 27.8177 49.8963 27.8177 49.8172V48.8417C27.8177 48.7626 27.8803 48.7 27.9594 48.7C28.0385 48.7 28.1011 48.7626 28.1011 48.8417V49.8172C28.1011 49.8963 28.0385 49.9589 27.9594 49.9589Z" fill="#F5CBD9"/>
<path d="M27.9594 48.3771C27.8803 48.3771 27.8177 48.3145 27.8177 48.2354V46.1558C27.8177 46.0767 27.8803 46.0141 27.9594 46.0141C28.0385 46.0141 28.1011 46.0767 28.1011 46.1558V48.2354C28.1011 48.3145 28.0385 48.3771 27.9594 48.3771Z" fill="#F5CBD9"/>
<path d="M27.2526 50.1467C27.2031 50.1467 27.157 50.1203 27.1306 50.0775L26.6429 49.2338C26.6033 49.1679 26.6264 49.0822 26.6956 49.0427C26.7615 49.0031 26.8472 49.0262 26.8868 49.0954L27.3745 49.9391C27.4141 50.005 27.391 50.0907 27.3218 50.1302C27.2987 50.1401 27.2757 50.1467 27.2526 50.1467Z" fill="#F5CBD9"/>
<path d="M26.4625 48.7791C26.4131 48.7791 26.3669 48.7527 26.3406 48.7099L25.2991 46.9105C25.2596 46.8446 25.2827 46.7589 25.3519 46.7193C25.4178 46.6798 25.5035 46.7028 25.543 46.772L26.5844 48.5715C26.624 48.6374 26.6009 48.7231 26.5317 48.7626C26.5086 48.7725 26.4856 48.7791 26.4625 48.7791Z" fill="#F5CBD9"/>
<path d="M26.7318 50.6676C26.7087 50.6676 26.6823 50.661 26.6626 50.6478L25.8189 50.16C25.753 50.1205 25.7299 50.0348 25.7661 49.9689C25.8057 49.903 25.8914 49.8799 25.9573 49.9162L26.801 50.4039C26.8669 50.4435 26.89 50.5291 26.8537 50.5951C26.8273 50.6412 26.7812 50.6676 26.7318 50.6676Z" fill="#F5CBD9"/>
<path d="M25.3658 49.8765C25.3427 49.8765 25.3164 49.87 25.2966 49.8568L24.5485 49.425C24.4826 49.3855 24.4595 49.2998 24.4958 49.2339C24.5353 49.168 24.621 49.1449 24.6869 49.1812L25.435 49.6129C25.5009 49.6524 25.524 49.7381 25.4878 49.804C25.4614 49.8502 25.412 49.8765 25.3658 49.8765Z" fill="#F5CBD9"/>
<path d="M26.5448 51.3727H25.5693C25.4902 51.3727 25.4276 51.3101 25.4276 51.231C25.4276 51.1519 25.4902 51.0893 25.5693 51.0893H26.5448C26.6239 51.0893 26.6866 51.1519 26.6866 51.231C26.6866 51.3101 26.6206 51.3727 26.5448 51.3727Z" fill="#F5CBD9"/>
<path d="M24.9622 51.3727H23.0507C22.9716 51.3727 22.909 51.3101 22.909 51.231C22.909 51.1519 22.9716 51.0893 23.0507 51.0893H24.9622C25.0413 51.0893 25.1039 51.1519 25.1039 51.231C25.1039 51.3101 25.038 51.3727 24.9622 51.3727Z" fill="#F5CBD9"/>
<path d="M30.3504 51.3727H29.3749C29.2958 51.3727 29.2332 51.3101 29.2332 51.231C29.2332 51.1519 29.2958 51.0893 29.3749 51.0893H30.3504C30.4295 51.0893 30.4922 51.1519 30.4922 51.231C30.4922 51.3101 30.4295 51.3727 30.3504 51.3727Z" fill="#F5CBD9"/>
<path d="M32.8687 51.3727H30.9572C30.8781 51.3727 30.8155 51.3101 30.8155 51.231C30.8155 51.1519 30.8781 51.0893 30.9572 51.0893H32.8687C32.9478 51.0893 33.0104 51.1519 33.0104 51.231C33.0104 51.3101 32.9478 51.3727 32.8687 51.3727Z" fill="#F5CBD9"/>
<path d="M29.1873 50.6675C29.1379 50.6675 29.0917 50.6411 29.0654 50.5983C29.0258 50.5323 29.0489 50.4467 29.1181 50.4071L29.9618 49.9193C30.0277 49.8798 30.1134 49.9029 30.1529 49.9721C30.1925 50.038 30.1694 50.1237 30.1002 50.1632L29.2565 50.651C29.2334 50.6609 29.2104 50.6675 29.1873 50.6675Z" fill="#F5CBD9"/>
<path d="M30.5557 49.8766C30.5063 49.8766 30.4601 49.8502 30.4338 49.8074C30.3942 49.7415 30.4173 49.6558 30.4865 49.6162L31.1885 49.2109C31.2544 49.1713 31.3401 49.1944 31.3796 49.2636C31.4192 49.3295 31.3961 49.4152 31.3269 49.4547L30.6249 49.8601C30.6052 49.87 30.5821 49.8766 30.5557 49.8766Z" fill="#F5CBD9"/>
<path d="M28.6684 50.1468C28.6453 50.1468 28.6189 50.1402 28.5991 50.127C28.5332 50.0875 28.5102 50.0018 28.5464 49.9359L29.0342 49.0922C29.0737 49.0263 29.1594 49.0032 29.2253 49.0395C29.2912 49.079 29.3143 49.1647 29.2781 49.2306L28.7903 50.0743C28.7639 50.1237 28.7178 50.1468 28.6684 50.1468Z" fill="#F5CBD9"/>
<path d="M29.458 48.7791C29.435 48.7791 29.4086 48.7725 29.3888 48.7593C29.3229 48.7198 29.2998 48.6341 29.3361 48.5682L30.3742 46.7687C30.4138 46.7028 30.4995 46.6798 30.5654 46.716C30.6313 46.7556 30.6544 46.8412 30.6181 46.9072L29.58 48.7066C29.5536 48.7527 29.5075 48.7791 29.458 48.7791Z" fill="#F5CBD9"/>
<path d="M50.2452 28.3096C49.8925 28.3096 49.6058 28.5964 49.6058 28.949C49.6058 29.3016 49.8925 29.5884 50.2452 29.5884C50.5978 29.5884 50.8845 29.3016 50.8845 28.949C50.8878 28.5964 50.6011 28.3096 50.2452 28.3096Z" fill="#F5CBD9"/>
<path d="M48.8301 29.0874H47.8546C47.7755 29.0874 47.7128 29.0248 47.7128 28.9457C47.7128 28.8666 47.7755 28.804 47.8546 28.804H48.8301C48.9092 28.804 48.9718 28.8666 48.9718 28.9457C48.9685 29.0248 48.9059 29.0874 48.8301 29.0874Z" fill="#F5CBD9"/>
<path d="M47.2475 29.0874H45.1679C45.0888 29.0874 45.0262 29.0248 45.0262 28.9457C45.0262 28.8666 45.0888 28.804 45.1679 28.804H47.2475C47.3266 28.804 47.3892 28.8666 47.3892 28.9457C47.3859 29.0248 47.3233 29.0874 47.2475 29.0874Z" fill="#F5CBD9"/>
<path d="M48.1736 30.2838C48.1241 30.2838 48.078 30.2574 48.0516 30.2146C48.0121 30.1486 48.0352 30.063 48.1044 30.0234L48.9481 29.5356C49.014 29.4961 49.0997 29.5192 49.1392 29.5884C49.1788 29.6543 49.1557 29.74 49.0865 29.7795L48.2428 30.2673C48.2197 30.2805 48.1967 30.2838 48.1736 30.2838Z" fill="#F5CBD9"/>
<path d="M45.8478 31.6283C45.7984 31.6283 45.7523 31.6019 45.7259 31.5591C45.6863 31.4932 45.7094 31.4075 45.7786 31.3679L47.5781 30.3265C47.644 30.2869 47.7297 30.31 47.7692 30.3792C47.8088 30.4451 47.7857 30.5308 47.7165 30.5704L45.917 31.6118C45.8973 31.6217 45.8709 31.6283 45.8478 31.6283Z" fill="#F5CBD9"/>
<path d="M49.0472 31.1604C49.0241 31.1604 48.9978 31.1538 48.978 31.1406C48.9121 31.1011 48.889 31.0154 48.9253 30.9495L49.413 30.1025C49.4526 30.0366 49.5383 30.0135 49.6042 30.0498C49.6701 30.0893 49.6932 30.175 49.6569 30.2409L49.1691 31.0879C49.1428 31.1373 49.0966 31.1604 49.0472 31.1604Z" fill="#F5CBD9"/>
<path d="M48.3172 32.4326C48.2942 32.4326 48.2678 32.426 48.248 32.4128C48.1821 32.3733 48.159 32.2876 48.1953 32.2217L48.627 31.4736C48.6666 31.4077 48.7522 31.3846 48.8182 31.4208C48.8841 31.4604 48.9071 31.5461 48.8709 31.612L48.4392 32.3601C48.4128 32.4062 48.3634 32.4326 48.3172 32.4326Z" fill="#F5CBD9"/>
<path d="M50.2446 31.48C50.1655 31.48 50.1029 31.4174 50.1029 31.3383V30.3628C50.1029 30.2837 50.1655 30.221 50.2446 30.221C50.3237 30.221 50.3863 30.2837 50.3863 30.3628V31.3383C50.3863 31.4174 50.3237 31.48 50.2446 31.48Z" fill="#F5CBD9"/>
<path d="M50.2446 33.998C50.1655 33.998 50.1029 33.9354 50.1029 33.8563V31.9448C50.1029 31.8657 50.1655 31.8031 50.2446 31.8031C50.3237 31.8031 50.3863 31.8657 50.3863 31.9448V33.8563C50.3863 33.9354 50.3237 33.998 50.2446 33.998Z" fill="#F5CBD9"/>
<path d="M50.2446 27.6736C50.1655 27.6736 50.1029 27.611 50.1029 27.5319V26.5564C50.1029 26.4773 50.1655 26.4146 50.2446 26.4146C50.3237 26.4146 50.3863 26.4773 50.3863 26.5564V27.5319C50.3863 27.611 50.3237 27.6736 50.2446 27.6736Z" fill="#F5CBD9"/>
<path d="M50.2446 26.0917C50.1655 26.0917 50.1029 26.0291 50.1029 25.95V24.0385C50.1029 23.9594 50.1655 23.8968 50.2446 23.8968C50.3237 23.8968 50.3863 23.9594 50.3863 24.0385V25.95C50.3863 26.0291 50.3237 26.0917 50.2446 26.0917Z" fill="#F5CBD9"/>
<path d="M49.5398 27.8614C49.4903 27.8614 49.4442 27.8351 49.4178 27.7922L48.9301 26.9452C48.8905 26.8793 48.9136 26.7936 48.9828 26.7541C49.0487 26.7145 49.1344 26.7376 49.1739 26.8068L49.6617 27.6538C49.7012 27.7197 49.6782 27.8054 49.609 27.845C49.5859 27.8581 49.5628 27.8614 49.5398 27.8614Z" fill="#F5CBD9"/>
<path d="M48.747 26.4937C48.6975 26.4937 48.6514 26.4674 48.625 26.4245L48.2197 25.7225C48.1801 25.6566 48.2032 25.5709 48.2724 25.5314C48.3383 25.4918 48.424 25.5149 48.4635 25.5841L48.8689 26.2861C48.9085 26.352 48.8854 26.4377 48.8162 26.4772C48.7931 26.4871 48.77 26.4937 48.747 26.4937Z" fill="#F5CBD9"/>
<path d="M49.0185 28.3821C48.9954 28.3821 48.969 28.3756 48.9492 28.3624L48.1056 27.8746C48.0396 27.8351 48.0166 27.7494 48.0528 27.6835C48.0924 27.6176 48.1781 27.5945 48.244 27.6307L49.0877 28.1185C49.1536 28.158 49.1767 28.2437 49.1404 28.3096C49.114 28.3558 49.0679 28.3821 49.0185 28.3821Z" fill="#F5CBD9"/>
<path d="M47.6508 27.5911C47.6278 27.5911 47.6014 27.5845 47.5816 27.5713L45.7822 26.5299C45.7163 26.4903 45.6932 26.4047 45.7295 26.3387C45.769 26.2728 45.8547 26.2498 45.9206 26.286L47.72 27.3274C47.786 27.367 47.809 27.4527 47.7728 27.5186C47.7464 27.5647 47.697 27.5911 47.6508 27.5911Z" fill="#F5CBD9"/>
<path d="M5.67729 29.5884C6.02993 29.5884 6.31665 29.3016 6.31665 28.949C6.31665 28.5964 6.02993 28.3096 5.67729 28.3096C5.32465 28.3096 5.03793 28.5964 5.03793 28.949C5.03464 29.3016 5.32136 29.5884 5.67729 29.5884Z" fill="#F5CBD9"/>
<path d="M8.06651 29.0874H7.09099C7.0119 29.0874 6.94928 29.0248 6.94928 28.9457C6.94928 28.8666 7.0119 28.804 7.09099 28.804H8.06651C8.14561 28.804 8.20822 28.8666 8.20822 28.9457C8.20822 29.0248 8.14561 29.0874 8.06651 29.0874Z" fill="#F5CBD9"/>
<path d="M10.7536 29.0874H8.674C8.5949 29.0874 8.53229 29.0248 8.53229 28.9457C8.53229 28.8666 8.5949 28.804 8.674 28.804H10.7536C10.8327 28.804 10.8953 28.8666 10.8953 28.9457C10.8953 29.0248 10.8327 29.0874 10.7536 29.0874Z" fill="#F5CBD9"/>
<path d="M6.90338 28.3822C6.85394 28.3822 6.8078 28.3558 6.78143 28.313C6.74189 28.247 6.76496 28.1614 6.83417 28.1218L7.67786 27.6341C7.74377 27.5945 7.82946 27.6176 7.869 27.6868C7.90855 27.7527 7.88548 27.8384 7.81627 27.8779L6.97258 28.3657C6.94951 28.3756 6.92645 28.3822 6.90338 28.3822Z" fill="#F5CBD9"/>
<path d="M8.27056 27.5913C8.22112 27.5913 8.17499 27.5649 8.14862 27.522C8.10907 27.4561 8.13214 27.3704 8.20135 27.3309L10.0041 26.2895C10.07 26.2499 10.1557 26.273 10.1952 26.3422C10.2348 26.4081 10.2117 26.4938 10.1425 26.5333L8.33977 27.5748C8.32 27.5847 8.29692 27.5913 8.27056 27.5913Z" fill="#F5CBD9"/>
<path d="M6.38314 27.8615C6.36007 27.8615 6.3337 27.8549 6.31393 27.8417C6.24801 27.8022 6.22495 27.7165 6.2612 27.6506L6.74896 26.8036C6.7885 26.7377 6.87419 26.7146 6.94011 26.7509C7.00602 26.7904 7.02909 26.8761 6.99283 26.942L6.50508 27.789C6.47871 27.8385 6.43257 27.8615 6.38314 27.8615Z" fill="#F5CBD9"/>
<path d="M7.17684 26.4937C7.15377 26.4937 7.1274 26.4871 7.10763 26.474C7.04172 26.4344 7.01865 26.3487 7.0549 26.2828L7.48663 25.5347C7.52618 25.4688 7.61187 25.4457 7.67778 25.482C7.74369 25.5215 7.76676 25.6072 7.73051 25.6731L7.29878 26.4212C7.26912 26.4674 7.22298 26.4937 7.17684 26.4937Z" fill="#F5CBD9"/>
<path d="M5.67669 27.6736C5.59759 27.6736 5.53497 27.611 5.53497 27.5319V26.5564C5.53497 26.4773 5.59759 26.4146 5.67669 26.4146C5.75579 26.4146 5.8184 26.4773 5.8184 26.5564V27.5319C5.81511 27.611 5.75249 27.6736 5.67669 27.6736Z" fill="#F5CBD9"/>
<path d="M5.67669 26.0917C5.59759 26.0917 5.53497 26.0291 5.53497 25.95V24.0385C5.53497 23.9594 5.59759 23.8968 5.67669 23.8968C5.75579 23.8968 5.8184 23.9594 5.8184 24.0385V25.95C5.81511 26.0291 5.75249 26.0917 5.67669 26.0917Z" fill="#F5CBD9"/>
<path d="M5.67669 31.48C5.59759 31.48 5.53497 31.4174 5.53497 31.3383V30.3628C5.53497 30.2837 5.59759 30.221 5.67669 30.221C5.75579 30.221 5.8184 30.2837 5.8184 30.3628V31.3383C5.81511 31.4174 5.75249 31.48 5.67669 31.48Z" fill="#F5CBD9"/>
<path d="M5.67669 33.998C5.59759 33.998 5.53497 33.9354 5.53497 33.8563V31.9448C5.53497 31.8657 5.59759 31.8031 5.67669 31.8031C5.75579 31.8031 5.8184 31.8657 5.8184 31.9448V33.8563C5.81511 33.9354 5.75249 33.998 5.67669 33.998Z" fill="#F5CBD9"/>
<path d="M6.87368 31.1605C6.82424 31.1605 6.7781 31.1342 6.75173 31.0913L6.26398 30.2443C6.22443 30.1784 6.2475 30.0927 6.31671 30.0532C6.38262 30.0136 6.46831 30.0367 6.50786 30.1059L6.99562 30.9529C7.03516 31.0188 7.01209 31.1045 6.94288 31.1441C6.91981 31.1539 6.89675 31.1605 6.87368 31.1605Z" fill="#F5CBD9"/>
<path d="M7.57864 32.3864C7.5292 32.3864 7.48306 32.36 7.4567 32.3172L7.05133 31.6152C7.01178 31.5493 7.03485 31.4636 7.10406 31.424C7.16998 31.3845 7.25566 31.4076 7.29521 31.4768L7.70058 32.1787C7.74013 32.2447 7.71705 32.3304 7.64785 32.3699C7.62807 32.3798 7.60501 32.3864 7.57864 32.3864Z" fill="#F5CBD9"/>
<path d="M7.74679 30.2839C7.72372 30.2839 7.69735 30.2773 7.67758 30.2641L6.83389 29.7763C6.76797 29.7368 6.7449 29.6511 6.78116 29.5852C6.8207 29.5193 6.90639 29.4962 6.97231 29.5324L7.816 30.0202C7.88191 30.0597 7.90498 30.1454 7.86873 30.2113C7.84236 30.2608 7.79622 30.2839 7.74679 30.2839Z" fill="#F5CBD9"/>
<path d="M10.0742 31.6284C10.0511 31.6284 10.0247 31.6218 10.005 31.6086L8.20224 30.5672C8.13632 30.5276 8.11325 30.4419 8.1495 30.376C8.18905 30.3101 8.27474 30.287 8.34065 30.3233L10.1434 31.3647C10.2093 31.4043 10.2324 31.4899 10.1961 31.5559C10.1697 31.602 10.1236 31.6284 10.0742 31.6284Z" fill="#F5CBD9"/>
<path d="M21.5835 10.2329C21.5044 10.2329 21.4286 10.2296 21.3528 10.2198C20.7068 10.144 20.1235 9.73531 19.8664 9.17834C19.5929 8.58512 19.7148 7.837 20.1565 7.39538C20.6244 6.9274 21.4253 6.85489 21.9394 7.23719C22.3547 7.54698 22.5227 8.12372 22.3217 8.54887C22.2097 8.78615 21.9625 8.96411 21.6823 9.01684C21.4286 9.06298 21.188 8.99707 21.0199 8.83559C20.9639 8.78286 20.9639 8.69387 21.0166 8.63784C21.0694 8.58182 21.1583 8.58181 21.2144 8.63455C21.3165 8.73342 21.4648 8.76967 21.6329 8.74001C21.8274 8.70376 21.9921 8.58512 22.0679 8.42693C22.2162 8.11713 22.0844 7.69199 21.7746 7.46129C21.366 7.15809 20.7299 7.21742 20.3542 7.59312C19.9917 7.95235 19.8928 8.57193 20.1202 9.05969C20.3377 9.53097 20.8354 9.87702 21.3824 9.93964C21.8999 10.0023 22.4667 9.8177 22.8984 9.45517C23.4851 8.95753 23.752 8.15668 23.551 7.50413C23.406 7.03615 23.0303 6.63079 22.526 6.38691C22.0943 6.17928 21.567 6.087 20.9606 6.11007C19.9983 6.14632 19.003 6.45281 18.0077 7.01967C17.2398 7.45799 16.1489 8.1435 15.3052 8.93116C15.2525 8.9773 15.1734 8.9806 15.1207 8.93775C15.0646 8.89161 15.0548 8.81582 15.091 8.75649C15.4239 8.216 15.6612 7.73483 15.8226 7.27673C14.7054 8.24236 13.397 9.00696 12.0096 9.50131C11.3966 9.71882 10.5858 9.95282 9.75532 9.83747C8.89845 9.71553 8.1767 9.19152 7.91634 8.50272C7.75156 8.06769 7.78451 7.55358 8.00532 7.09877C8.22942 6.64067 8.61172 6.30121 9.05664 6.16279C9.6202 5.98812 10.253 6.13314 10.6353 6.52203C11.0604 6.95706 11.1263 7.65903 10.7869 8.12042C10.6089 8.36101 10.3123 8.5225 9.99261 8.54557C9.6927 8.57193 9.40927 8.47635 9.21483 8.28521C9.1588 8.23247 9.1588 8.1435 9.21154 8.08747C9.26427 8.03145 9.35325 8.03145 9.40928 8.08747C9.5444 8.2193 9.74544 8.28851 9.96625 8.26873C10.2068 8.24896 10.4276 8.1336 10.5562 7.95564C10.8132 7.6063 10.7539 7.04934 10.4309 6.71647C10.1211 6.40009 9.60043 6.28474 9.13574 6.42645C8.76333 6.5418 8.44364 6.82852 8.25249 7.21741C8.06464 7.6063 8.03498 8.03803 8.1734 8.40056C8.4008 8.99707 9.03357 9.44858 9.79157 9.55734C10.5628 9.6661 11.3306 9.44199 11.914 9.23436C13.4234 8.69717 14.8372 7.8337 16.0006 6.73295C16.0468 6.6901 16.1127 6.68351 16.1687 6.71318C16.2214 6.74284 16.2478 6.80545 16.2346 6.86807C16.1324 7.29651 15.9677 7.72824 15.7271 8.19952C16.4587 7.61949 17.2629 7.11854 17.8693 6.77579C18.9041 6.18587 19.9422 5.86619 20.9507 5.82994C21.6032 5.80357 22.1767 5.90903 22.648 6.13643C23.2247 6.41327 23.6499 6.88125 23.8212 7.42174C24.0585 8.17975 23.752 9.10254 23.083 9.66939C22.6546 10.0286 22.1075 10.2329 21.5835 10.2329Z" fill="#F1DFC1"/>
<path d="M21.1231 9.92317C21.044 9.92317 20.9682 9.91988 20.8924 9.91C20.6881 9.88693 20.4871 9.8276 20.2959 9.73862C20.2267 9.70566 20.1971 9.62326 20.23 9.55076C20.263 9.48155 20.3454 9.4519 20.4179 9.48485C20.5827 9.56065 20.754 9.61008 20.9287 9.63315C21.4461 9.69247 22.013 9.51121 22.4447 9.14869C23.0313 8.65434 23.2983 7.8502 23.0972 7.19766C23.0017 6.89116 22.8039 6.61103 22.5106 6.37374C22.4513 6.32431 22.4414 6.23532 22.4908 6.176C22.5403 6.11668 22.6293 6.10679 22.6886 6.15623C23.0247 6.42977 23.2521 6.75274 23.3642 7.11527C23.6015 7.87327 23.295 8.79606 22.626 9.36291C22.1942 9.71885 21.6504 9.92317 21.1231 9.92317Z" fill="#F1DFC1"/>
<path d="M10.4687 9.85731C10.4621 9.85731 10.4555 9.85731 10.4489 9.85731C9.73375 9.75514 8.83074 9.28715 8.53083 8.50278C8.34628 8.01503 8.4056 7.40862 8.68902 6.92416C8.94938 6.47924 9.36134 6.19252 9.8491 6.12331C9.9249 6.11013 9.9974 6.16616 10.0073 6.24196C10.0172 6.31776 9.96445 6.39026 9.88865 6.40015C9.48658 6.45947 9.14712 6.69676 8.92961 7.06588C8.68902 7.47784 8.63629 7.99196 8.79119 8.40062C9.05155 9.07953 9.85239 9.48819 10.4885 9.57718C10.5643 9.58706 10.617 9.65957 10.6071 9.73537C10.5972 9.80458 10.5379 9.85731 10.4687 9.85731Z" fill="#F1DFC1"/>
<path d="M24.6154 6.10678H12.8038C12.7247 6.10678 12.662 6.04417 12.662 5.96507C12.662 5.88597 12.7247 5.82335 12.8038 5.82335H24.6154C24.6945 5.82335 24.7572 5.88597 24.7572 5.96507C24.7572 6.04417 24.6945 6.10678 24.6154 6.10678Z" fill="#F1DFC1"/>
<path d="M21.4494 8.99706C21.8025 8.99706 22.0888 8.71081 22.0888 8.3577C22.0888 8.00459 21.8025 7.71834 21.4494 7.71834C21.0963 7.71834 20.8101 8.00459 20.8101 8.3577C20.8101 8.71081 21.0963 8.99706 21.4494 8.99706Z" fill="#F1DFC1"/>
<path d="M13.4437 6.46588C13.4437 6.81852 13.157 7.10524 12.8043 7.10524C12.4517 7.10524 12.165 6.81852 12.165 6.46588C12.165 6.11325 12.4517 5.82652 12.8043 5.82652C13.157 5.82652 13.4437 6.11325 13.4437 6.46588Z" fill="#F1DFC1"/>
<path d="M9.67342 8.4795C10.0265 8.4795 10.3128 8.19326 10.3128 7.84015C10.3128 7.48704 10.0265 7.20079 9.67342 7.20079C9.32031 7.20079 9.03406 7.48704 9.03406 7.84015C9.03406 8.19326 9.32031 8.4795 9.67342 8.4795Z" fill="#F1DFC1"/>
<path d="M34.3278 10.2329C33.8005 10.2329 33.2698 10.0352 32.8381 9.66939C32.1658 9.10254 31.8626 8.17975 32.0999 7.42174C32.268 6.88125 32.6964 6.41327 33.2731 6.13643C33.7477 5.90903 34.3179 5.80357 34.9704 5.82994C35.9789 5.86619 37.017 6.18587 38.0519 6.77579C38.6583 7.12184 39.4624 7.61949 40.194 8.19952C39.9535 7.72824 39.7887 7.29651 39.6865 6.86807C39.6733 6.80875 39.6997 6.74613 39.7524 6.71318C39.8052 6.68351 39.8744 6.6901 39.9205 6.73295C41.0839 7.8337 42.4977 8.69717 44.0071 9.23436C44.5905 9.44199 45.3584 9.6661 46.1295 9.55734C46.8843 9.45188 47.5203 8.99707 47.7477 8.40056C47.8861 8.03803 47.8565 7.6063 47.6686 7.21741C47.4808 6.82852 47.1578 6.5418 46.7854 6.42645C46.3207 6.28144 45.8 6.39679 45.4902 6.71647C45.1639 7.04934 45.1079 7.603 45.3649 7.95564C45.4935 8.13031 45.7143 8.24896 45.9549 8.26873C46.1724 8.28521 46.3767 8.2193 46.5118 8.08747C46.5679 8.03474 46.6569 8.03474 46.7096 8.08747C46.7623 8.1435 46.7623 8.23247 46.7063 8.28521C46.5118 8.47635 46.2284 8.57193 45.9285 8.54557C45.6088 8.5192 45.3122 8.36101 45.1343 8.12042C44.7948 7.65903 44.8607 6.95376 45.2859 6.52203C45.6682 6.13314 46.3009 5.98812 46.8645 6.16279C47.3094 6.30121 47.6917 6.64067 47.9158 7.09877C48.1399 7.55687 48.1729 8.06769 48.0048 8.50272C47.7411 9.19152 47.0194 9.71553 46.1658 9.83747C45.3353 9.95612 44.5246 9.71882 43.9116 9.50131C42.5241 9.00696 41.2157 8.24236 40.0985 7.27673C40.26 7.73483 40.4972 8.216 40.8301 8.75649C40.8664 8.81582 40.8532 8.89491 40.8004 8.93775C40.7477 8.9806 40.6686 8.9806 40.6159 8.93116C39.7755 8.1435 38.6813 7.45799 37.9134 7.01967C36.9182 6.45281 35.9229 6.14632 34.9605 6.11007C34.3508 6.087 33.8268 6.18258 33.3951 6.38691C32.8875 6.63079 32.5151 7.03615 32.3701 7.50413C32.1658 8.15668 32.436 8.95753 33.0227 9.45517C33.4544 9.82099 34.0246 10.0023 34.5387 9.93964C35.0891 9.87372 35.5867 9.52767 35.8042 9.05969C36.0316 8.56864 35.9327 7.95235 35.5702 7.59312C35.1945 7.21742 34.5585 7.16138 34.1498 7.46129C33.8367 7.69199 33.7082 8.11713 33.8565 8.42693C33.9323 8.58512 34.0971 8.70376 34.2915 8.74001C34.453 8.76967 34.6079 8.73012 34.7101 8.63455C34.7661 8.58181 34.8551 8.58182 34.9078 8.63784C34.9605 8.69387 34.9605 8.78286 34.9045 8.83559C34.7364 8.99707 34.4958 9.06298 34.2421 9.01684C33.9619 8.96741 33.7181 8.78615 33.606 8.54887C33.4017 8.12372 33.5698 7.54698 33.9883 7.23719C34.5024 6.85489 35.3033 6.9274 35.7713 7.39538C36.2129 7.837 36.3348 8.58512 36.0613 9.17834C35.8042 9.73531 35.2209 10.144 34.5749 10.2198C34.4859 10.2296 34.4069 10.2329 34.3278 10.2329Z" fill="#F1DFC1"/>
<path d="M34.7972 9.92328C34.2732 9.92328 33.7261 9.72225 33.2977 9.35973C32.6254 8.79287 32.3222 7.87008 32.5595 7.11208C32.6715 6.75285 32.8989 6.42987 33.2351 6.15304C33.2944 6.1036 33.3834 6.11349 33.4328 6.17281C33.4823 6.23213 33.4724 6.32112 33.4131 6.37055C33.1197 6.61114 32.9253 6.88797 32.8297 7.19447C32.6254 7.84701 32.8956 8.64786 33.4823 9.14551C33.914 9.51133 34.4842 9.69259 34.9983 9.62997C35.1729 9.6102 35.3443 9.56076 35.5091 9.48166C35.5783 9.44871 35.664 9.47837 35.697 9.54758C35.7299 9.61679 35.7002 9.70248 35.631 9.73544C35.4399 9.82442 35.2389 9.88374 35.0345 9.90681C34.9521 9.91999 34.873 9.92328 34.7972 9.92328Z" fill="#F1DFC1"/>
<path d="M45.4501 9.85718C45.3809 9.85718 45.3216 9.80775 45.3117 9.73524C45.3018 9.65944 45.3545 9.58693 45.4303 9.57705C46.0664 9.48806 46.8672 9.0794 47.1276 8.40049C47.2858 7.98853 47.2331 7.4777 46.9892 7.06245C46.7717 6.69334 46.4322 6.45605 46.0301 6.39673C45.9543 6.38684 45.9016 6.31433 45.9115 6.23853C45.9214 6.16273 45.9939 6.10671 46.0697 6.11989C46.5574 6.1924 46.9694 6.47582 47.2298 6.92074C47.5132 7.4052 47.5758 8.00831 47.388 8.49937C47.088 9.28703 46.185 9.75172 45.4699 9.85388C45.4633 9.85718 45.4567 9.85718 45.4501 9.85718Z" fill="#F1DFC1"/>
<path d="M43.1173 6.10678H31.3023C31.2232 6.10678 31.1606 6.04417 31.1606 5.96507C31.1606 5.88597 31.2232 5.82335 31.3023 5.82335H43.114C43.1931 5.82335 43.2557 5.88597 43.2557 5.96507C43.2557 6.04417 43.1931 6.10678 43.1173 6.10678Z" fill="#F1DFC1"/>
<path d="M34.4707 8.99707C34.8238 8.99707 35.1101 8.71082 35.1101 8.35771C35.1101 8.00461 34.8238 7.71835 34.4707 7.71835C34.1176 7.71835 33.8314 8.00461 33.8314 8.35771C33.8314 8.71082 34.1176 8.99707 34.4707 8.99707Z" fill="#F1DFC1"/>
<path d="M42.4762 6.46588C42.4762 6.81852 42.7629 7.10524 43.1156 7.10524C43.4682 7.10524 43.7549 6.81852 43.7549 6.46588C43.7549 6.11325 43.4682 5.82652 43.1156 5.82652C42.7629 5.82652 42.4762 6.11325 42.4762 6.46588Z" fill="#F1DFC1"/>
<path d="M46.2465 8.4795C46.5996 8.4795 46.8858 8.19326 46.8858 7.84015C46.8858 7.48704 46.5996 7.20079 46.2465 7.20079C45.8934 7.20079 45.6071 7.48704 45.6071 7.84015C45.6071 8.19326 45.8934 8.4795 46.2465 8.4795Z" fill="#F1DFC1"/>
<path d="M21.1354 52.0715C21.0727 52.0715 21.0134 52.0715 20.9508 52.0682C19.9423 52.0319 18.9042 51.7122 17.8694 51.1223C17.2629 50.7763 16.4588 50.2786 15.7272 49.6986C15.9678 50.1699 16.1325 50.6016 16.2347 51.03C16.2479 51.0893 16.2215 51.152 16.1688 51.1849C16.1161 51.2146 16.0468 51.208 16.0007 51.1651C14.8373 50.0644 13.4235 49.2009 11.9141 48.6637C11.3307 48.4561 10.5596 48.232 9.79166 48.3408C9.03696 48.4495 8.4009 48.901 8.17349 49.4975C8.03508 49.8601 8.06473 50.2918 8.25259 50.6807C8.44044 51.0696 8.76342 51.3563 9.13583 51.4716C9.60052 51.6167 10.1212 51.5013 10.431 51.1816C10.7573 50.8488 10.8133 50.2951 10.5563 49.9425C10.4277 49.7645 10.2069 49.6491 9.96634 49.6294C9.74882 49.6129 9.54449 49.6788 9.40937 49.8106C9.35334 49.8666 9.26436 49.8634 9.21163 49.8106C9.1589 49.7546 9.1589 49.6656 9.21492 49.6129C9.40937 49.4217 9.6928 49.3262 9.98941 49.3525C10.3091 49.3789 10.6057 49.5371 10.7837 49.7777C11.1231 50.2391 11.0539 50.9443 10.6321 51.3761C10.2498 51.765 9.617 51.91 9.05344 51.7353C8.60852 51.5969 8.22622 51.2574 8.00212 50.7993C7.77801 50.3412 7.74505 49.8304 7.91313 49.3954C8.17679 48.7066 8.89854 48.1826 9.75212 48.0606C10.5859 47.942 11.3934 48.1793 12.0064 48.3968C13.3938 48.8911 14.7022 49.6557 15.8194 50.6214C15.658 50.1633 15.4207 49.6821 15.0878 49.1416C15.0516 49.0823 15.0647 49.0032 15.1175 48.9603C15.1702 48.9175 15.2493 48.9175 15.302 48.9669C16.1424 49.7546 17.2366 50.4401 18.0045 50.8784C18.9998 51.4453 19.9951 51.7518 20.9574 51.788C21.5671 51.8111 22.0911 51.7155 22.5228 51.5112C23.0304 51.2673 23.4028 50.8619 23.5478 50.394C23.7521 49.7414 23.4819 48.9406 22.8952 48.4429C22.4635 48.0771 21.8967 47.8958 21.3792 47.9585C20.8289 48.0244 20.3345 48.3704 20.117 48.8384C19.8896 49.3262 19.9885 49.9457 20.351 50.305C20.7267 50.6807 21.3628 50.7367 21.7714 50.4368C22.0845 50.2061 22.213 49.781 22.0647 49.4712C21.9889 49.313 21.8242 49.1943 21.6297 49.1581C21.4649 49.1284 21.3133 49.168 21.2112 49.2635C21.1551 49.3163 21.0661 49.3163 21.0134 49.2603C20.9607 49.2042 20.9607 49.1152 21.0167 49.0625C21.1848 48.901 21.4254 48.8351 21.6791 48.8813C21.9593 48.9307 22.2032 49.1119 22.3185 49.3492C22.5228 49.7744 22.3548 50.3511 21.9362 50.6609C21.4221 51.0432 20.6212 50.9707 20.1532 50.5027C19.7116 50.0611 19.5897 49.313 19.8632 48.7198C20.1203 48.1628 20.7036 47.7541 21.3496 47.6783C21.9428 47.6091 22.5887 47.8135 23.0798 48.2287C23.7521 48.7956 24.0553 49.7184 23.818 50.4764C23.65 51.0168 23.2215 51.4848 22.6448 51.7617C22.2196 51.9693 21.7121 52.0715 21.1354 52.0715Z" fill="#F1DFC1"/>
<path d="M22.5997 51.7748C22.5601 51.7748 22.5173 51.7583 22.4909 51.7221C22.4415 51.6627 22.4513 51.5738 22.5107 51.5243C22.804 51.2837 22.9984 51.0069 23.0973 50.7004C23.3016 50.0479 23.0314 49.247 22.4448 48.7494C22.013 48.3835 21.4462 48.2023 20.9287 48.2649C20.7541 48.2847 20.5827 48.3341 20.4179 48.4132C20.3487 48.4462 20.263 48.4165 20.2301 48.3473C20.1971 48.2781 20.2268 48.1924 20.2993 48.1595C20.4904 48.0705 20.6915 48.0111 20.8958 47.9881C21.489 47.9189 22.135 48.1232 22.626 48.5385C23.2983 49.1053 23.6015 50.0281 23.3642 50.7861C23.2522 51.1486 23.0248 51.4683 22.6886 51.7451C22.6623 51.7649 22.6293 51.7748 22.5997 51.7748Z" fill="#F1DFC1"/>
<path d="M9.86781 51.7782C9.86122 51.7782 9.85463 51.7782 9.84804 51.7782C9.36028 51.7057 8.94832 51.4222 8.68796 50.9773C8.40454 50.4928 8.34192 49.8897 8.52977 49.3987C8.82968 48.611 9.73269 48.1463 10.4478 48.0442C10.5236 48.0343 10.5962 48.087 10.606 48.1628C10.6159 48.2386 10.5632 48.3111 10.4874 48.321C9.85133 48.41 9.05049 48.8187 8.79013 49.4976C8.63194 49.9095 8.68467 50.4203 8.92854 50.8323C9.14606 51.2014 9.48551 51.4387 9.88759 51.498C9.96339 51.5079 10.0161 51.5804 10.0062 51.6562C9.99634 51.7287 9.93702 51.7782 9.86781 51.7782Z" fill="#F1DFC1"/>
<path d="M24.6156 52.0714H12.8039C12.7248 52.0714 12.6622 52.0088 12.6622 51.9297C12.6622 51.8506 12.7248 51.7879 12.8039 51.7879H24.6156C24.6947 51.7879 24.7573 51.8506 24.7573 51.9297C24.7573 52.0088 24.6947 52.0714 24.6156 52.0714Z" fill="#F1DFC1"/>
<path d="M21.448 50.1796C21.8011 50.1796 22.0874 49.8934 22.0874 49.5402C22.0874 49.1871 21.8011 48.9009 21.448 48.9009C21.0949 48.9009 20.8087 49.1871 20.8087 49.5402C20.8087 49.8934 21.0949 50.1796 21.448 50.1796Z" fill="#F1DFC1"/>
<path d="M12.8045 52.0714C13.1576 52.0714 13.4438 51.7852 13.4438 51.4321C13.4438 51.079 13.1576 50.7927 12.8045 50.7927C12.4514 50.7927 12.1651 51.079 12.1651 51.4321C12.1651 51.7852 12.4514 52.0714 12.8045 52.0714Z" fill="#F1DFC1"/>
<path d="M9.67354 50.6972C10.0266 50.6972 10.3129 50.4109 10.3129 50.0578C10.3129 49.7047 10.0266 49.4184 9.67354 49.4184C9.32043 49.4184 9.03418 49.7047 9.03418 50.0578C9.03418 50.4109 9.32043 50.6972 9.67354 50.6972Z" fill="#F1DFC1"/>
<path d="M34.783 52.0713C34.2063 52.0713 33.6987 51.9692 33.2703 51.7615C32.6936 51.4847 32.2684 51.0167 32.097 50.4762C31.8598 49.7182 32.1663 48.7954 32.8353 48.2286C33.3329 47.8067 33.9624 47.609 34.5655 47.6782C35.2115 47.754 35.7948 48.1627 36.0518 48.7196C36.3254 49.3128 36.2035 50.061 35.7618 50.5026C35.2906 50.9706 34.4897 51.0431 33.9789 50.6608C33.5636 50.351 33.3955 49.7742 33.5966 49.3491C33.7086 49.1118 33.9525 48.9338 34.2326 48.8811C34.4864 48.835 34.727 48.9009 34.8951 49.0624C34.9511 49.1151 34.9511 49.2041 34.8984 49.2601C34.8456 49.3161 34.7567 49.3161 34.7006 49.2634C34.5985 49.1645 34.4469 49.1283 34.2821 49.1579C34.0876 49.1942 33.9229 49.3128 33.8471 49.471C33.6987 49.7808 33.8306 50.206 34.1404 50.4367C34.549 50.7399 35.1851 50.6805 35.5608 50.3048C35.9233 49.9456 36.0222 49.3293 35.7948 48.8383C35.5773 48.367 35.0796 48.0209 34.5292 47.9583C34.0118 47.899 33.445 48.0803 33.0132 48.4428C32.4266 48.9371 32.1597 49.7413 32.3607 50.3938C32.5057 50.8618 32.8814 51.2672 33.3856 51.5111C33.8174 51.7187 34.3447 51.811 34.9511 51.7879C35.9134 51.7516 36.9087 51.4451 37.904 50.8783C38.6719 50.44 39.7628 49.7545 40.6065 48.9668C40.6592 48.9174 40.7383 48.9174 40.791 48.9602C40.847 49.0063 40.8569 49.0821 40.8207 49.1415C40.4878 49.682 40.2505 50.1631 40.089 50.6212C41.203 49.6556 42.5147 48.891 43.9021 48.3967C44.5151 48.1791 45.3259 47.9418 46.1564 48.0605C47.0132 48.1824 47.735 48.7064 47.9954 49.3952C48.1601 49.8303 48.1272 50.3444 47.9064 50.7992C47.6823 51.2573 47.3 51.5967 46.8551 51.7352C46.2915 51.9098 45.6587 51.7648 45.2764 51.3759C44.8513 50.9409 44.7854 50.2389 45.1248 49.7775C45.3028 49.537 45.5961 49.3755 45.9191 49.3524C46.219 49.3293 46.5024 49.4249 46.6969 49.6128C46.7529 49.6655 46.7529 49.7545 46.7002 49.8105C46.6474 49.8665 46.5584 49.8665 46.5024 49.8105C46.3673 49.6787 46.163 49.6095 45.9454 49.6292C45.7049 49.649 45.4841 49.7644 45.3555 49.9423C45.0985 50.2917 45.1578 50.8486 45.4808 51.1815C45.7905 51.4979 46.3113 51.6132 46.776 51.4715C47.1484 51.3562 47.468 51.0694 47.6592 50.6805C47.847 50.2917 47.8767 49.8599 47.7383 49.4974C47.5109 48.9009 46.8781 48.4494 46.1201 48.3406C45.3522 48.2319 44.581 48.456 43.9977 48.6636C42.4883 49.2008 41.0744 50.0643 39.9111 51.165C39.8649 51.2079 39.799 51.2144 39.743 51.1848C39.6903 51.1551 39.6639 51.0925 39.6771 51.0299C39.7792 50.6014 39.944 50.1697 40.1846 49.6984C39.453 50.2785 38.6488 50.7794 38.0424 51.1222C37.0076 51.7121 35.9695 52.0285 34.961 52.068C34.905 52.0713 34.8423 52.0713 34.783 52.0713Z" fill="#F1DFC1"/>
<path d="M33.3192 51.7748C33.2862 51.7748 33.2565 51.7649 33.2302 51.7419C32.894 51.4683 32.6666 51.1453 32.5546 50.7828C32.3173 50.0248 32.6238 49.102 33.2928 48.5352C33.7838 48.1199 34.4331 47.9156 35.023 47.9848C35.2274 48.0079 35.4284 48.0672 35.6195 48.1562C35.6887 48.1891 35.7184 48.2715 35.6888 48.344C35.6558 48.4132 35.5734 48.4429 35.5009 48.4099C35.3361 48.3341 35.1647 48.2847 34.9901 48.2616C34.4727 48.199 33.9058 48.3836 33.4741 48.7461C32.8874 49.2404 32.6205 50.0446 32.8215 50.6971C32.9171 51.0036 33.1148 51.2838 33.4048 51.521C33.4642 51.5705 33.4741 51.6595 33.4246 51.7188C33.4016 51.7583 33.362 51.7748 33.3192 51.7748Z" fill="#F1DFC1"/>
<path d="M46.0499 51.7779C45.9807 51.7779 45.9214 51.7285 45.9115 51.6593C45.9016 51.5835 45.9543 51.511 46.0301 51.5011C46.4322 51.4418 46.7717 51.2045 46.9892 50.8354C47.2298 50.4234 47.2825 49.9093 47.1276 49.4973C46.8672 48.8184 46.0664 48.4097 45.4303 48.3208C45.3545 48.3109 45.3018 48.2384 45.3117 48.1626C45.3216 48.0868 45.3941 48.034 45.4699 48.0439C46.2081 48.1494 47.088 48.6075 47.388 49.3984C47.5725 49.8895 47.5132 50.4926 47.2298 50.9771C46.9694 51.422 46.5574 51.7087 46.0697 51.7779C46.0631 51.7779 46.0565 51.7779 46.0499 51.7779Z" fill="#F1DFC1"/>
<path d="M43.1173 52.0713H31.3023C31.2232 52.0713 31.1606 52.0087 31.1606 51.9296C31.1606 51.8505 31.2232 51.7879 31.3023 51.7879H43.114C43.1931 51.7879 43.2557 51.8505 43.2557 51.9296C43.2557 52.0087 43.1931 52.0713 43.1173 52.0713Z" fill="#F1DFC1"/>
<path d="M34.4707 50.1795C34.8238 50.1795 35.1101 49.8933 35.1101 49.5402C35.1101 49.1871 34.8238 48.9008 34.4707 48.9008C34.1176 48.9008 33.8314 49.1871 33.8314 49.5402C33.8314 49.8933 34.1176 50.1795 34.4707 50.1795Z" fill="#F1DFC1"/>
<path d="M43.1179 52.0713C43.471 52.0713 43.7572 51.7851 43.7572 51.432C43.7572 51.0789 43.471 50.7926 43.1179 50.7926C42.7648 50.7926 42.4785 51.0789 42.4785 51.432C42.4785 51.7851 42.7648 52.0713 43.1179 52.0713Z" fill="#F1DFC1"/>
<path d="M46.2465 50.6969C46.5996 50.6969 46.8858 50.4107 46.8858 50.0576C46.8858 49.7044 46.5996 49.4182 46.2465 49.4182C45.8934 49.4182 45.6071 49.7044 45.6071 50.0576C45.6071 50.4107 45.8934 50.6969 46.2465 50.6969Z" fill="#F1DFC1"/>
<path d="M48.9552 24.8887C48.3323 24.8887 47.6797 24.5888 47.2414 24.0714C46.8196 23.5737 46.6218 22.9442 46.691 22.3411C46.7668 21.6952 47.1755 21.1119 47.7325 20.8548C48.3257 20.5812 49.0738 20.7032 49.5154 21.1448C49.9834 21.6161 50.0559 22.4169 49.6736 22.9311C49.3638 23.3463 48.7871 23.5144 48.3619 23.3134C48.1247 23.2013 47.9467 22.9574 47.894 22.674C47.8478 22.4202 47.9137 22.1796 48.0752 22.0116C48.1279 21.9555 48.2169 21.9555 48.273 22.0083C48.329 22.061 48.329 22.15 48.2763 22.206C48.1774 22.3082 48.1411 22.4598 48.1708 22.6246C48.207 22.819 48.3257 22.9838 48.4839 23.0596C48.7937 23.2079 49.2188 23.0761 49.4495 22.7663C49.7527 22.3576 49.6934 21.7215 49.3177 21.3458C48.9585 20.9833 48.3422 20.8844 47.8511 21.1118C47.3798 21.3294 47.0338 21.827 46.9712 22.3774C46.9119 22.8948 47.0931 23.4617 47.4556 23.8934C47.95 24.48 48.7541 24.7503 49.4067 24.5459C49.8714 24.4009 50.28 24.0252 50.5239 23.521C50.7315 23.0892 50.8238 22.5619 50.8007 21.9555C50.7645 20.9932 50.458 19.9979 49.8911 19.0026C49.4528 18.2347 48.7673 17.1439 47.9797 16.3002C47.9302 16.2474 47.9302 16.1683 47.9731 16.1156C48.0159 16.0629 48.095 16.0497 48.1543 16.086C48.6948 16.4188 49.176 16.6561 49.6341 16.8176C48.6684 15.7004 47.9038 14.392 47.4095 13.0045C47.192 12.3915 46.9547 11.5808 47.0733 10.7503C47.1953 9.89669 47.7193 9.17165 48.4081 8.91129C48.8431 8.74651 49.3539 8.77946 49.812 9.00027C50.2701 9.22437 50.6096 9.60667 50.748 10.0516C50.9227 10.6151 50.7777 11.2479 50.3888 11.6302C49.9538 12.0554 49.2518 12.1213 48.7904 11.7818C48.5498 11.6038 48.3883 11.3072 48.3652 10.9876C48.3422 10.6877 48.4377 10.4042 48.6256 10.2131C48.6816 10.157 48.7673 10.157 48.8233 10.2098C48.8794 10.2625 48.8794 10.3515 48.8233 10.4075C48.6915 10.5426 48.6223 10.747 48.6421 10.9645C48.6618 11.2051 48.7772 11.4259 48.9552 11.5544C49.3045 11.8115 49.8615 11.7522 50.1943 11.4292C50.5107 11.1194 50.6261 10.5987 50.4811 10.134C50.3657 9.76157 50.079 9.44189 49.6901 9.25074C49.3012 9.06289 48.8728 9.03322 48.507 9.17164C47.9104 9.39904 47.4589 10.0318 47.3502 10.7898C47.2414 11.561 47.4655 12.3289 47.6731 12.9122C48.2103 14.4216 49.0738 15.8355 50.1746 16.9989C50.2174 17.045 50.224 17.1109 50.1943 17.1669C50.1647 17.2197 50.0988 17.246 50.0394 17.2329C49.611 17.1307 49.1793 16.9659 48.708 16.7253C49.288 17.457 49.789 18.2611 50.1317 18.8675C50.7216 19.9023 51.0413 20.9405 51.0776 21.949C51.1006 22.6015 50.9985 23.1749 50.7711 23.6462C50.4942 24.223 50.0263 24.6514 49.4858 24.8195C49.321 24.8623 49.1397 24.8887 48.9552 24.8887Z" fill="#F1DFC1"/>
<path d="M49.2638 24.4305C48.6409 24.4305 47.9884 24.1306 47.5501 23.6131C47.1282 23.1155 46.9305 22.4827 46.9997 21.8829C47.0228 21.6786 47.0821 21.4775 47.1711 21.2864C47.204 21.2172 47.2864 21.1875 47.3589 21.2205C47.4281 21.2534 47.4578 21.3358 47.4248 21.4083C47.349 21.5731 47.2996 21.7445 47.2798 21.9192C47.2172 22.4366 47.4018 23.0034 47.7643 23.4352C48.2586 24.0218 49.0628 24.2887 49.7153 24.0877C50.0218 23.9921 50.2987 23.7944 50.5392 23.5044C50.5887 23.4451 50.6777 23.4352 50.737 23.4846C50.7963 23.534 50.8062 23.623 50.7568 23.6823C50.4799 24.0185 50.1602 24.2459 49.7977 24.358C49.6296 24.4041 49.4484 24.4305 49.2638 24.4305Z" fill="#F1DFC1"/>
<path d="M47.1952 11.5972C47.1886 11.5972 47.182 11.5972 47.1754 11.5972C47.0996 11.5873 47.0468 11.5148 47.0567 11.439C47.1589 10.7239 47.6236 9.82086 48.4113 9.52095C48.9023 9.3331 49.5054 9.39572 49.9899 9.67915C50.4348 9.9395 50.7215 10.3515 50.7907 10.8392C50.8006 10.915 50.7479 10.9875 50.6721 10.9974C50.5963 11.0073 50.5238 10.9546 50.5139 10.8788C50.4546 10.4767 50.2173 10.1372 49.8482 9.91973C49.4362 9.67915 48.9221 9.62641 48.5101 9.78131C47.8312 10.0417 47.4226 10.8425 47.3336 11.4786C47.327 11.5445 47.2644 11.5972 47.1952 11.5972Z" fill="#F1DFC1"/>
<path d="M50.9455 25.7455C50.8664 25.7455 50.8037 25.6829 50.8037 25.6038V13.7921C50.8037 13.713 50.8664 13.6504 50.9455 13.6504C51.0246 13.6504 51.0872 13.713 51.0872 13.7921V25.6038C51.0872 25.6829 51.0246 25.7455 50.9455 25.7455Z" fill="#F1DFC1"/>
<path d="M48.5535 23.0762C48.2009 23.0762 47.9142 22.7894 47.9142 22.4368C47.9142 22.0842 48.2009 21.7974 48.5535 21.7974C48.9062 21.7974 49.1929 22.0842 49.1929 22.4368C49.1929 22.7894 48.9062 23.0762 48.5535 23.0762Z" fill="#F1DFC1"/>
<path d="M50.4433 14.4316C50.7964 14.4316 51.0826 14.1454 51.0826 13.7923C51.0826 13.4392 50.7964 13.1529 50.4433 13.1529C50.0902 13.1529 49.8039 13.4392 49.8039 13.7923C49.8039 14.1454 50.0902 14.4316 50.4433 14.4316Z" fill="#F1DFC1"/>
<path d="M49.0737 11.3039C49.4268 11.3039 49.713 11.0176 49.713 10.6645C49.713 10.3114 49.4268 10.0252 49.0737 10.0252C48.7206 10.0252 48.4343 10.3114 48.4343 10.6645C48.4343 11.0176 48.7206 11.3039 49.0737 11.3039Z" fill="#F1DFC1"/>
<path d="M48.9948 49.0988C48.7938 49.0988 48.596 49.0625 48.4147 48.9933C47.726 48.7297 47.2019 48.0079 47.08 47.1543C46.9614 46.3238 47.1986 45.5131 47.4162 44.9001C47.9105 43.5126 48.6751 42.2042 49.6407 41.087C49.1826 41.2485 48.7015 41.4858 48.161 41.8186C48.1017 41.8549 48.0226 41.8417 47.9797 41.789C47.9336 41.7363 47.9369 41.6572 47.9863 41.6044C48.774 40.764 49.4595 39.6699 49.8978 38.902C50.4647 37.9067 50.7712 36.9114 50.8074 35.9491C50.8305 35.3427 50.7349 34.8153 50.5306 34.3836C50.2867 33.8761 49.8813 33.5037 49.4133 33.3587C48.7608 33.1543 47.9599 33.4246 47.4623 34.0112C47.0965 34.4429 46.9152 35.0098 46.9778 35.5272C47.0438 36.0776 47.3898 36.5719 47.8578 36.7927C48.3455 37.0201 48.9651 36.9213 49.3244 36.5588C49.7001 36.1831 49.7594 35.547 49.4562 35.1383C49.2255 34.8252 48.8003 34.6967 48.4905 34.845C48.3324 34.9208 48.2137 35.0856 48.1775 35.28C48.1478 35.4448 48.1873 35.5964 48.2829 35.6986C48.3357 35.7546 48.3357 35.8436 48.2796 35.8963C48.2236 35.9491 48.1346 35.9491 48.0819 35.893C47.9204 35.725 47.8545 35.4844 47.9006 35.2306C47.9501 34.9505 48.1313 34.7066 48.3686 34.5912C48.7938 34.3869 49.3705 34.555 49.6803 34.9735C50.0626 35.4877 49.9901 36.2885 49.5221 36.7598C49.0805 37.2014 48.3324 37.3233 47.7391 37.0498C47.1822 36.7927 46.7735 36.2094 46.6977 35.5635C46.6252 34.9637 46.8262 34.3309 47.2481 33.8332C47.8149 33.1609 48.7377 32.8577 49.4957 33.095C50.0362 33.2631 50.5042 33.6915 50.781 34.2683C51.0084 34.7428 51.1106 35.313 51.0875 35.9655C51.0513 36.974 50.7316 38.0121 50.1417 39.047C49.7956 39.6534 49.298 40.4575 48.718 41.1892C49.1892 40.9486 49.621 40.7838 50.0494 40.6816C50.1087 40.6652 50.1713 40.6948 50.2043 40.7475C50.234 40.8003 50.2274 40.8695 50.1845 40.9156C49.0838 42.079 48.2203 43.4928 47.6831 45.0023C47.4755 45.5856 47.2514 46.3535 47.3601 47.1247C47.4656 47.8794 47.9204 48.5154 48.5169 48.7428C48.8794 48.8813 49.3112 48.8516 49.7001 48.6638C50.089 48.4759 50.3757 48.1529 50.491 47.7805C50.636 47.3158 50.5207 46.7951 50.2043 46.4853C49.8714 46.159 49.3178 46.103 48.9651 46.3601C48.7905 46.4886 48.6718 46.7094 48.652 46.95C48.6356 47.1675 48.7015 47.3718 48.8333 47.507C48.886 47.563 48.886 47.652 48.8333 47.7047C48.7773 47.7574 48.6883 47.7574 48.6356 47.7014C48.4444 47.507 48.3488 47.2235 48.3752 46.9236C48.4016 46.604 48.5598 46.3073 48.8003 46.1294C49.2617 45.7899 49.967 45.8558 50.3987 46.281C50.7876 46.6633 50.9326 47.296 50.758 47.8596C50.6196 48.3045 50.2801 48.6868 49.822 48.9109C49.5518 49.0329 49.2716 49.0988 48.9948 49.0988Z" fill="#F1DFC1"/>
<path d="M47.2998 36.6937C47.2471 36.6937 47.1976 36.664 47.1746 36.6146C47.0856 36.4235 47.0263 36.2224 47.0032 36.0181C46.934 35.4249 47.1383 34.7789 47.5536 34.2879C48.1204 33.6188 49.0432 33.3123 49.8012 33.5496C50.1604 33.6617 50.4834 33.8891 50.7603 34.2252C50.8097 34.2846 50.7998 34.3735 50.7405 34.423C50.6812 34.4724 50.5922 34.4625 50.5427 34.4032C50.3022 34.1099 50.0253 33.9154 49.7188 33.8199C49.0663 33.6155 48.2654 33.8858 47.7678 34.4724C47.402 34.9041 47.2207 35.471 47.2833 35.9884C47.3031 36.1631 47.3525 36.3345 47.4316 36.4992C47.4646 36.5685 47.4349 36.6541 47.3657 36.6871C47.3426 36.6904 47.3196 36.6937 47.2998 36.6937Z" fill="#F1DFC1"/>
<path d="M49.0144 48.4857C48.8067 48.4857 48.5991 48.4494 48.4113 48.3802C47.6236 48.0803 47.1589 47.1773 47.0567 46.4621C47.0468 46.3863 47.0996 46.3138 47.1754 46.3039C47.2512 46.2908 47.3237 46.3468 47.3336 46.4226C47.4226 47.0586 47.8312 47.8595 48.5101 48.1199C48.9221 48.278 49.4329 48.2253 49.8482 47.9814C50.2173 47.7639 50.4546 47.4245 50.5139 47.0224C50.5238 46.9466 50.5963 46.8906 50.6721 46.9038C50.7479 46.9136 50.8006 46.9861 50.7907 47.0619C50.7182 47.5497 50.4348 47.9617 49.9899 48.222C49.6933 48.3967 49.3505 48.4857 49.0144 48.4857Z" fill="#F1DFC1"/>
<path d="M50.9454 44.2442C50.8663 44.2442 50.8037 44.1815 50.8037 44.1025V32.2875C50.8037 32.2084 50.8663 32.1458 50.9454 32.1458C51.0245 32.1458 51.0871 32.2084 51.0871 32.2875V44.1025C51.0871 44.1815 51.0245 44.2442 50.9454 44.2442Z" fill="#F1DFC1"/>
<path d="M48.5535 34.8218C48.2008 34.8218 47.9141 35.1085 47.9141 35.4612C47.9141 35.8138 48.2008 36.1005 48.5535 36.1005C48.9061 36.1005 49.1928 35.8138 49.1928 35.4612C49.1928 35.1085 48.9061 34.8218 48.5535 34.8218Z" fill="#F1DFC1"/>
<path d="M50.4447 44.7451C50.7978 44.7451 51.084 44.4589 51.084 44.1058C51.084 43.7527 50.7978 43.4664 50.4447 43.4664C50.0916 43.4664 49.8053 43.7527 49.8053 44.1058C49.8053 44.4589 50.0916 44.7451 50.4447 44.7451Z" fill="#F1DFC1"/>
<path d="M49.0736 47.8727C49.4267 47.8727 49.713 47.5865 49.713 47.2334C49.713 46.8803 49.4267 46.594 49.0736 46.594C48.7205 46.594 48.4343 46.8803 48.4343 47.2334C48.4343 47.5865 48.7205 47.8727 49.0736 47.8727Z" fill="#F1DFC1"/>
<path d="M6.96947 24.8885C6.78491 24.8885 6.60695 24.8622 6.43557 24.8094C5.89508 24.6414 5.42709 24.2129 5.15026 23.6362C4.92286 23.1616 4.82069 22.5915 4.84376 21.9389C4.88002 20.9304 5.19969 19.8923 5.78962 18.8575C6.13566 18.2511 6.63331 17.4469 7.21335 16.7153C6.74536 16.9559 6.31033 17.1206 5.8819 17.2228C5.82257 17.236 5.75996 17.2096 5.727 17.1569C5.69734 17.1042 5.70393 17.035 5.74677 16.9888C6.84753 15.8254 7.711 14.4116 8.24819 12.9022C8.45582 12.3189 8.67992 11.551 8.57116 10.7798C8.46241 10.0251 8.0109 9.38901 7.41439 9.16161C7.05186 9.02319 6.62013 9.05286 6.23124 9.24071C5.84235 9.42856 5.55563 9.75154 5.44028 10.1239C5.29527 10.5886 5.41391 11.1093 5.7303 11.4191C6.06316 11.7454 6.61683 11.8014 6.96947 11.5444C7.14743 11.4158 7.26278 11.195 7.28256 10.9545C7.29903 10.7369 7.23312 10.5326 7.10129 10.3975C7.04856 10.3415 7.04856 10.2525 7.10129 10.1997C7.15732 10.147 7.2463 10.147 7.29904 10.203C7.49018 10.3975 7.58576 10.6809 7.55939 10.9775C7.53303 11.2972 7.37484 11.5938 7.13096 11.7718C6.66956 12.1112 5.96429 12.042 5.53256 11.6202C5.14367 11.2379 4.99866 10.6051 5.17333 10.0416C5.31175 9.59664 5.6512 9.21434 6.1093 8.99023C6.5674 8.76613 7.07822 8.73317 7.51325 8.90125C8.20205 9.1649 8.72606 9.88666 8.848 10.7402C8.96664 11.5707 8.72935 12.3815 8.51184 12.9945C8.02078 14.3819 7.25619 15.6903 6.28726 16.8076C6.74536 16.6461 7.22653 16.4088 7.76702 16.0759C7.82634 16.0397 7.90544 16.0529 7.94828 16.1056C7.99442 16.1583 7.99112 16.2374 7.94169 16.2901C7.15402 17.1305 6.46852 18.2247 6.0302 18.9926C5.46335 19.9879 5.15685 20.9832 5.1206 21.9455C5.09753 22.5519 5.1931 23.0792 5.39743 23.5109C5.64131 24.0185 6.04668 24.3909 6.51466 24.5359C7.16721 24.7402 7.96805 24.47 8.4657 23.8834C8.83152 23.4516 9.01278 22.8848 8.95016 22.3674C8.88425 21.817 8.53821 21.3226 8.07022 21.1018C7.57917 20.8744 6.96288 20.9733 6.60365 21.3358C6.22794 21.7115 6.17192 22.3476 6.47182 22.7562C6.70582 23.0693 7.12766 23.1979 7.43745 23.0496C7.59564 22.9738 7.71429 22.809 7.75054 22.6145C7.7802 22.4497 7.74066 22.2981 7.64508 22.196C7.59235 22.14 7.59235 22.051 7.64838 21.9982C7.7044 21.9455 7.79339 21.9455 7.84612 22.0015C8.00761 22.1696 8.07352 22.4102 8.02738 22.664C7.97795 22.9441 7.79668 23.188 7.55939 23.3033C7.13425 23.5077 6.55751 23.3396 6.24772 22.921C5.86542 22.4069 5.93792 21.6061 6.40591 21.1348C6.84753 20.6932 7.59564 20.5712 8.18886 20.8448C8.74583 21.1018 9.1545 21.6851 9.2303 22.3311C9.3028 22.9342 9.10177 23.5637 8.67992 24.0613C8.24489 24.5886 7.59235 24.8885 6.96947 24.8885Z" fill="#F1DFC1"/>
<path d="M6.65984 24.4304C6.47858 24.4304 6.29732 24.404 6.12595 24.3513C5.76342 24.2393 5.44374 24.0119 5.16691 23.6757C5.11747 23.6164 5.12736 23.5274 5.18668 23.478C5.246 23.4285 5.33499 23.4384 5.38442 23.4977C5.62501 23.7911 5.90184 23.9855 6.20834 24.0811C6.86088 24.2854 7.66173 24.0185 8.15937 23.4285C8.52519 22.9968 8.70646 22.4299 8.64384 21.9125C8.62406 21.7379 8.57463 21.5665 8.49553 21.4017C8.46258 21.3325 8.49224 21.2468 8.56474 21.2138C8.63395 21.1809 8.71964 21.2105 8.7526 21.2798C8.84158 21.4709 8.9009 21.6719 8.92397 21.8763C8.99647 22.4761 8.79544 23.1089 8.37359 23.6065C7.93527 24.1305 7.28273 24.4304 6.65984 24.4304Z" fill="#F1DFC1"/>
<path d="M8.7308 11.5972C8.66159 11.5972 8.60227 11.5478 8.59238 11.4753C8.5034 10.8392 8.09474 10.0384 7.41583 9.77801C7.00387 9.62311 6.49304 9.67585 6.07779 9.91643C5.70867 10.1339 5.47139 10.4734 5.41206 10.8755C5.40218 10.9513 5.32967 11.004 5.25387 10.9941C5.17807 10.9842 5.12534 10.9117 5.13522 10.8359C5.20773 10.3482 5.49116 9.9362 5.93607 9.67584C6.42054 9.39242 7.02364 9.3298 7.5147 9.51766C8.30236 9.81756 8.76705 10.7206 8.86922 11.4357C8.8791 11.5115 8.82637 11.584 8.75057 11.5939C8.74398 11.5972 8.73739 11.5972 8.7308 11.5972Z" fill="#F1DFC1"/>
<path d="M4.97973 25.7455C4.90063 25.7455 4.83801 25.6829 4.83801 25.6038V13.7921C4.83801 13.713 4.90063 13.6504 4.97973 13.6504C5.05883 13.6504 5.12144 13.713 5.12144 13.7921V25.6038C5.11814 25.6829 5.05553 25.7455 4.97973 25.7455Z" fill="#F1DFC1"/>
<path d="M7.37288 23.0761C7.72599 23.0761 8.01224 22.7899 8.01224 22.4368C8.01224 22.0837 7.72599 21.7974 7.37288 21.7974C7.01977 21.7974 6.73352 22.0837 6.73352 22.4368C6.73352 22.7899 7.01977 23.0761 7.37288 23.0761Z" fill="#F1DFC1"/>
<path d="M5.47994 14.4316C5.83305 14.4316 6.1193 14.1453 6.1193 13.7922C6.1193 13.4391 5.83305 13.1529 5.47994 13.1529C5.12683 13.1529 4.84058 13.4391 4.84058 13.7922C4.84058 14.1453 5.12683 14.4316 5.47994 14.4316Z" fill="#F1DFC1"/>
<path d="M6.85097 11.3039C7.20408 11.3039 7.49033 11.0177 7.49033 10.6646C7.49033 10.3115 7.20408 10.0252 6.85097 10.0252C6.49786 10.0252 6.21161 10.3115 6.21161 10.6646C6.21161 11.0177 6.49786 11.3039 6.85097 11.3039Z" fill="#F1DFC1"/>
<path d="M6.93072 49.0986C6.65388 49.0986 6.37046 49.0327 6.1068 48.9042C5.6487 48.6801 5.30925 48.2978 5.17083 47.8529C4.99616 47.2893 5.14117 46.6565 5.53006 46.2742C5.96509 45.8491 6.66706 45.7832 7.12846 46.1226C7.36904 46.3006 7.53053 46.5972 7.55689 46.9169C7.57996 47.2168 7.48439 47.5002 7.29654 47.6947C7.24381 47.7507 7.15482 47.7507 7.0988 47.698C7.04277 47.6452 7.04277 47.5563 7.0988 47.5002C7.23062 47.3651 7.29983 47.1608 7.28006 46.9433C7.26028 46.7027 7.14494 46.4819 6.96697 46.3533C6.61763 46.0963 6.06066 46.1556 5.7278 46.4786C5.41141 46.7884 5.29607 47.3091 5.43778 47.7738C5.55313 48.1462 5.83985 48.4659 6.22874 48.657C6.61763 48.8449 7.04936 48.8745 7.41188 48.7361C8.0084 48.5087 8.45991 47.8759 8.56867 47.1179C8.67742 46.3467 8.45331 45.5789 8.24569 44.9955C7.70849 43.4861 6.84503 42.0723 5.74428 40.9089C5.70143 40.8628 5.69484 40.7968 5.7245 40.7408C5.75416 40.6881 5.82008 40.6584 5.8794 40.6749C6.30784 40.7771 6.73957 40.9418 7.21085 41.1824C6.63081 40.4508 6.13317 39.6466 5.78712 39.0402C5.1972 38.0054 4.87751 36.9673 4.84126 35.9588C4.81819 35.3062 4.92036 34.7328 5.14776 34.2615C5.4246 33.6848 5.89258 33.2563 6.43307 33.0883C7.18778 32.851 8.11386 33.1575 8.68072 33.8265C9.10256 34.3241 9.3003 34.9569 9.23109 35.5567C9.15529 36.2027 8.74663 36.786 8.18966 37.0431C7.59644 37.3166 6.84832 37.1947 6.4067 36.753C5.93872 36.2818 5.86622 35.4809 6.24851 34.9668C6.55831 34.5515 7.13505 34.3835 7.56019 34.5845C7.79748 34.6966 7.97545 34.9404 8.02818 35.2239C8.07432 35.4776 8.0084 35.7182 7.84691 35.8863C7.79418 35.9423 7.7052 35.9423 7.64917 35.8896C7.59315 35.8369 7.59315 35.7479 7.64588 35.6918C7.74475 35.5897 7.781 35.4381 7.75134 35.2733C7.71508 35.0789 7.59644 34.9141 7.43825 34.8383C7.12846 34.69 6.70332 34.8218 6.47262 35.1349C6.16942 35.5402 6.22874 36.1796 6.60445 36.5553C6.96367 36.9178 7.57996 37.0167 8.07102 36.7893C8.5423 36.5718 8.88834 36.0741 8.95096 35.5238C9.01028 35.0063 8.82902 34.4395 8.4665 34.0078C7.97215 33.4211 7.168 33.1542 6.51546 33.3552C6.05077 33.5002 5.64211 33.8726 5.39823 34.3802C5.1906 34.8119 5.09833 35.3392 5.12139 35.9456C5.15765 36.9079 5.46414 37.9032 6.031 38.8985C6.46932 39.6664 7.15482 40.7606 7.94249 41.601C7.99192 41.6537 7.99192 41.7328 7.94908 41.7855C7.90624 41.8383 7.82714 41.8515 7.76782 41.8152C7.22733 41.4823 6.74616 41.245 6.28806 41.0836C7.25369 42.2008 8.01829 43.5092 8.51264 44.8966C8.73015 45.5096 8.96744 46.3204 8.8488 47.1509C8.72686 48.0078 8.20284 48.7295 7.51405 48.9899C7.32949 49.0624 7.13175 49.0986 6.93072 49.0986Z" fill="#F1DFC1"/>
<path d="M8.62413 36.6937C8.60435 36.6937 8.58458 36.6904 8.5648 36.6805C8.49559 36.6475 8.46593 36.5651 8.49559 36.4926C8.5714 36.3278 8.62083 36.1565 8.6439 35.9818C8.70652 35.4644 8.52196 34.8975 8.15944 34.4658C7.66508 33.8792 6.86094 33.6122 6.2084 33.8132C5.9019 33.9088 5.62177 34.1066 5.38448 34.3966C5.33505 34.4559 5.24606 34.4658 5.18674 34.4164C5.12742 34.3669 5.11753 34.2779 5.16697 34.2186C5.44051 33.8825 5.76348 33.6551 6.12601 33.543C6.88401 33.3057 7.8068 33.6122 8.37365 34.2812C8.78891 34.7723 8.99324 35.4182 8.92403 36.0115C8.90096 36.2158 8.84164 36.4168 8.75266 36.608C8.72629 36.664 8.67686 36.6937 8.62413 36.6937Z" fill="#F1DFC1"/>
<path d="M6.91165 48.4857C6.57549 48.4857 6.23275 48.3967 5.93614 48.2221C5.49122 47.9617 5.20449 47.5497 5.13529 47.062C5.1254 46.9862 5.17813 46.9137 5.25393 46.9038C5.32973 46.8906 5.40224 46.9466 5.41213 47.0224C5.47145 47.4245 5.70873 47.764 6.07785 47.9815C6.48981 48.222 7.00393 48.2748 7.41589 48.1199C8.0948 47.8595 8.50346 47.0587 8.59244 46.4226C8.60233 46.3468 8.67813 46.2941 8.75063 46.304C8.82643 46.3139 8.87917 46.3864 8.86928 46.4622C8.76711 47.1773 8.30242 48.0803 7.51476 48.3802C7.32691 48.4527 7.11928 48.4857 6.91165 48.4857Z" fill="#F1DFC1"/>
<path d="M4.97973 44.2441C4.90063 44.2441 4.83801 44.1815 4.83801 44.1024V32.2874C4.83801 32.2083 4.90063 32.1457 4.97973 32.1457C5.05883 32.1457 5.12144 32.2083 5.12144 32.2874V44.1024C5.11814 44.1815 5.05553 44.2441 4.97973 44.2441Z" fill="#F1DFC1"/>
<path d="M7.37294 36.1005C7.72605 36.1005 8.0123 35.8143 8.0123 35.4611C8.0123 35.108 7.72605 34.8218 7.37294 34.8218C7.01983 34.8218 6.73358 35.108 6.73358 35.4611C6.73358 35.8143 7.01983 36.1005 7.37294 36.1005Z" fill="#F1DFC1"/>
<path d="M5.48 44.745C5.83311 44.745 6.11936 44.4588 6.11936 44.1057C6.11936 43.7526 5.83311 43.4663 5.48 43.4663C5.12689 43.4663 4.84064 43.7526 4.84064 44.1057C4.84064 44.4588 5.12689 44.745 5.48 44.745Z" fill="#F1DFC1"/>
<path d="M6.85103 47.8728C7.20414 47.8728 7.49039 47.5865 7.49039 47.2334C7.49039 46.8803 7.20414 46.5941 6.85103 46.5941C6.49792 46.5941 6.21167 46.8803 6.21167 47.2334C6.21167 47.5865 6.49792 47.8728 6.85103 47.8728Z" fill="#F1DFC1"/>
<path d="M51.6237 52.7503H4.3012C4.2221 52.7503 4.15948 52.6877 4.15948 52.6086V5.28608C4.15948 5.20699 4.2221 5.14436 4.3012 5.14436H51.6237C51.7028 5.14436 51.7654 5.20699 51.7654 5.28608V52.6086C51.7654 52.6877 51.7028 52.7503 51.6237 52.7503ZM4.43961 52.4702H51.482V5.4278H4.43961V52.4702Z" fill="#F1DFC1"/>
<path d="M15.8547 20.8054L27.6795 14.0163L39.5044 20.8054H15.8547Z" fill="#E9A39B"/>
<path d="M21.6581 19.2564L27.6793 15.8025L33.7005 19.2564H21.6581Z" fill="#F1DFC1"/>
<path d="M19.2983 24.3185H16.8002V36.5949H19.2983V24.3185Z" fill="#E9A39B"/>
<path d="M24.1002 24.3185H21.6053V36.5949H24.1002V24.3185Z" fill="#E9A39B"/>
<path d="M28.9022 24.3185H26.4041V36.5949H28.9022V24.3185Z" fill="#E9A39B"/>
<path d="M33.7073 24.3185H31.2092V36.5949H33.7073V24.3185Z" fill="#E9A39B"/>
<path d="M38.5091 24.3185H36.0143V36.5949H38.5091V24.3185Z" fill="#E9A39B"/>
<path d="M39.468 20.7131H15.8907V23.9429H39.468V20.7131Z" fill="#F1DFC1"/>
<path d="M39.468 36.9739H15.8907V37.9692H39.468V36.9739Z" fill="#F1DFC1"/>
<path d="M40.3615 37.9692H14.9948V38.9645H40.3615V37.9692Z" fill="#E9A39B"/>
<path d="M41.0732 38.9645H14.286V39.9598H41.0732V38.9645Z" fill="#F1DFC1"/>
<path d="M41.8608 39.9565H13.4949V40.9518H41.8608V39.9565Z" fill="#E9A39B"/>
<path d="M19.668 36.2192H16.4778V36.9706H19.668V36.2192Z" fill="#E9A39B"/>
<path d="M24.4729 36.2191H21.2827V36.9706H24.4729V36.2191Z" fill="#E9A39B"/>
<path d="M29.2748 36.2191H26.0846V36.9706H29.2748V36.2191Z" fill="#E9A39B"/>
<path d="M34.0767 36.2191H30.8865V36.9706H34.0767V36.2191Z" fill="#E9A39B"/>
<path d="M38.8779 36.2191H35.6877V36.9706H38.8779V36.2191Z" fill="#E9A39B"/>
<path d="M19.668 23.9428H16.4778V24.6942H19.668V23.9428Z" fill="#E9A39B"/>
<path d="M24.4729 23.9428H21.2827V24.6942H24.4729V23.9428Z" fill="#E9A39B"/>
<path d="M29.2748 23.9428H26.0846V24.6942H29.2748V23.9428Z" fill="#E9A39B"/>
<path d="M34.0767 23.9428H30.8865V24.6942H34.0767V23.9428Z" fill="#E9A39B"/>
<path d="M38.8779 23.9428H35.6877V24.6942H38.8779V23.9428Z" fill="#E9A39B"/>
</svg>
