<svg width="66" height="67" viewBox="0 0 66 67" fill="none" xmlns="http://www.w3.org/2000/svg">
<g filter="url(#filter0_d_1039_38753)">
<path d="M5 52.711C5.06591 52.6978 5.13512 52.6912 5.20433 52.6912C5.74482 52.6912 6.18644 53.0801 6.18644 53.558C6.18644 54.0358 5.74812 54.4247 5.20433 54.4247C5.13512 54.4247 5.06591 54.4181 5 54.405V55.7265C5.06591 55.7133 5.13512 55.7067 5.20433 55.7067C5.74482 55.7067 6.18644 56.0956 6.18644 56.5735C6.18644 57.0514 5.74812 57.4403 5.20433 57.4403C5.13512 57.4403 5.06591 57.4337 5 57.4205V58.7421C5.06591 58.7289 5.13512 58.7223 5.20433 58.7223C5.74482 58.7223 6.18644 59.1112 6.18644 59.589C6.18644 60.0669 5.74812 60.4558 5.20433 60.4558C5.13512 60.4558 5.06591 60.4492 5 60.436V61.9421H7.62994C7.59699 61.8565 7.57721 61.7675 7.57721 61.6719C7.57721 61.194 8.01553 60.8051 8.55932 60.8051C9.09981 60.8051 9.54143 61.194 9.54143 61.6719C9.54143 61.7675 9.51836 61.8565 9.4887 61.9421H11.1596C11.1266 61.8565 11.1069 61.7675 11.1069 61.6719C11.1069 61.194 11.5452 60.8051 12.089 60.8051C12.6328 60.8051 13.0711 61.194 13.0711 61.6719C13.0711 61.7675 13.048 61.8565 13.0184 61.9421H14.6893C14.6563 61.8565 14.6365 61.7675 14.6365 61.6719C14.6365 61.194 15.0749 60.8051 15.6186 60.8051C16.1591 60.8051 16.6008 61.194 16.6008 61.6719C16.6008 61.7675 16.5777 61.8565 16.548 61.9421H18.2189C18.186 61.8565 18.1662 61.7675 18.1662 61.6719C18.1662 61.194 18.6045 60.8051 19.1483 60.8051C19.6888 60.8051 20.1304 61.194 20.1304 61.6719C20.1304 61.7675 20.1073 61.8565 20.0777 61.9421H21.7486C21.7156 61.8565 21.6959 61.7675 21.6959 61.6719C21.6959 61.194 22.1342 60.8051 22.678 60.8051C23.2185 60.8051 23.6601 61.194 23.6601 61.6719C23.6601 61.7675 23.637 61.8565 23.6073 61.9421H25.2782C25.2453 61.8565 25.2255 61.7675 25.2255 61.6719C25.2255 61.194 25.6638 60.8051 26.2076 60.8051C26.7481 60.8051 27.1897 61.194 27.1897 61.6719C27.1897 61.7675 27.1667 61.8565 27.137 61.9421H28.8079C28.775 61.8565 28.7552 61.7675 28.7552 61.6719C28.7552 61.194 29.1935 60.8051 29.7373 60.8051C30.2778 60.8051 30.7194 61.194 30.7194 61.6719C30.7194 61.7675 30.6963 61.8565 30.6667 61.9421H32.3376C32.3046 61.8565 32.2848 61.7675 32.2848 61.6719C32.2848 61.194 32.7232 60.8051 33.2669 60.8051C33.8107 60.8051 34.2491 61.194 34.2491 61.6719C34.2491 61.7675 34.226 61.8565 34.1963 61.9421H35.8672C35.8343 61.8565 35.8145 61.7675 35.8145 61.6719C35.8145 61.194 36.2528 60.8051 36.7966 60.8051C37.3371 60.8051 37.7787 61.194 37.7787 61.6719C37.7787 61.7675 37.7556 61.8565 37.726 61.9421H39.3969C39.3639 61.8565 39.3442 61.7675 39.3442 61.6719C39.3442 61.194 39.7825 60.8051 40.3263 60.8051C40.8668 60.8051 41.3084 61.194 41.3084 61.6719C41.3084 61.7675 41.2853 61.8565 41.2556 61.9421H42.9266C42.8936 61.8565 42.8738 61.7675 42.8738 61.6719C42.8738 61.194 43.3121 60.8051 43.8559 60.8051C44.3964 60.8051 44.838 61.194 44.838 61.6719C44.838 61.7675 44.815 61.8565 44.7853 61.9421H46.4562C46.4233 61.8565 46.4035 61.7675 46.4035 61.6719C46.4035 61.194 46.8418 60.8051 47.3856 60.8051C47.9294 60.8051 48.3677 61.194 48.3677 61.6719C48.3677 61.7675 48.3446 61.8565 48.315 61.9421H49.9859C49.9529 61.8565 49.9331 61.7675 49.9331 61.6719C49.9331 61.194 50.3715 60.8051 50.9153 60.8051C51.4557 60.8051 51.8974 61.194 51.8974 61.6719C51.8974 61.7675 51.8743 61.8565 51.8446 61.9421H53.5155C53.4826 61.8565 53.4628 61.7675 53.4628 61.6719C53.4628 61.194 53.9011 60.8051 54.4449 60.8051C54.9854 60.8051 55.427 61.194 55.427 61.6719C55.427 61.7675 55.404 61.8565 55.3743 61.9421H57.0452C57.0122 61.8565 56.9925 61.7675 56.9925 61.6719C56.9925 61.194 57.4308 60.8051 57.9746 60.8051C58.5151 60.8051 58.9567 61.194 58.9567 61.6719C58.9567 61.7675 58.9336 61.8565 58.9039 61.9421H61V60.4558C60.4595 60.4558 60.0179 60.0669 60.0179 59.589C60.0179 59.1112 60.4562 58.7223 61 58.7223V57.4403C60.4595 57.4403 60.0179 57.0514 60.0179 56.5735C60.0179 56.0956 60.4562 55.7067 61 55.7067V54.4247C60.4595 54.4247 60.0179 54.0358 60.0179 53.558C60.0179 53.0801 60.4562 52.6912 61 52.6912V52.6813V51.3993C60.4595 51.3993 60.0179 51.0104 60.0179 50.5325C60.0179 50.0547 60.4562 49.6658 61 49.6658V48.3838C60.4595 48.3838 60.0179 47.9949 60.0179 47.517C60.0179 47.0391 60.4562 46.6502 61 46.6502V45.3682C60.4595 45.3682 60.0179 44.9793 60.0179 44.5015C60.0179 44.0236 60.4562 43.6347 61 43.6347V42.3527C60.4595 42.3527 60.0179 41.9638 60.0179 41.4859C60.0179 41.0081 60.4562 40.6192 61 40.6192V39.3372C60.4595 39.3372 60.0179 38.9483 60.0179 38.4704C60.0179 37.9925 60.4562 37.6036 61 37.6036V36.3216C60.4595 36.3216 60.0179 35.9327 60.0179 35.4549C60.0179 34.977 60.4562 34.5881 61 34.5881V33.3061C60.4595 33.3061 60.0179 32.9172 60.0179 32.4393C60.0179 31.9614 60.4562 31.5726 61 31.5726V30.2905C60.4595 30.2905 60.0179 29.9017 60.0179 29.4238C60.0179 28.9459 60.4562 28.557 61 28.557V27.275C60.4595 27.275 60.0179 26.8861 60.0179 26.4082C60.0179 25.9304 60.4562 25.5415 61 25.5415V24.2595C60.4595 24.2595 60.0179 23.8706 60.0179 23.3927C60.0179 22.9148 60.4562 22.5259 61 22.5259V21.2439C60.4595 21.2439 60.0179 20.855 60.0179 20.3772C60.0179 19.8993 60.4562 19.5104 61 19.5104V18.2284C60.4595 18.2284 60.0179 17.8395 60.0179 17.3616C60.0179 16.8838 60.4562 16.4949 61 16.4949V15.2129C60.4595 15.2129 60.0179 14.824 60.0179 14.3461C60.0179 13.8682 60.4562 13.4793 61 13.4793V12.1973C60.4595 12.1973 60.0179 11.8084 60.0179 11.3306C60.0179 10.8527 60.4562 10.4638 61 10.4638V9.18179C60.4595 9.18179 60.0179 8.7929 60.0179 8.31503C60.0179 7.83715 60.4562 7.44826 61 7.44826V5.96191H58.9567C58.9567 6.43979 58.5184 6.82868 57.9746 6.82868C57.4341 6.82868 56.9925 6.43979 56.9925 5.96191H55.4303C55.4303 6.43979 54.992 6.82868 54.4482 6.82868C53.9077 6.82868 53.4661 6.43979 53.4661 5.96191H51.904C51.904 6.43979 51.4656 6.82868 50.9218 6.82868C50.3814 6.82868 49.9397 6.43979 49.9397 5.96191H48.3776C48.3776 6.43979 47.9393 6.82868 47.3955 6.82868C46.8517 6.82868 46.4134 6.43979 46.4134 5.96191H44.8512C44.8512 6.43979 44.4129 6.82868 43.8691 6.82868C43.3286 6.82868 42.887 6.43979 42.887 5.96191H41.3249C41.3249 6.43979 40.8865 6.82868 40.3428 6.82868C39.8023 6.82868 39.3606 6.43979 39.3606 5.96191H37.7985C37.7985 6.43979 37.3602 6.82868 36.8164 6.82868C36.2759 6.82868 35.8343 6.43979 35.8343 5.96191H34.2721C34.2721 6.43979 33.8338 6.82868 33.29 6.82868C32.7462 6.82868 32.3079 6.43979 32.3079 5.96191H30.7458C30.7458 6.43979 30.3074 6.82868 29.7637 6.82868C29.2232 6.82868 28.7815 6.43979 28.7815 5.96191H27.2194C27.2194 6.43979 26.7811 6.82868 26.2373 6.82868C25.6968 6.82868 25.2552 6.43979 25.2552 5.96191H23.693C23.693 6.43979 23.2547 6.82868 22.7109 6.82868C22.1704 6.82868 21.7288 6.43979 21.7288 5.96191H20.1667C20.1667 6.43979 19.7283 6.82868 19.1846 6.82868C18.6441 6.82868 18.2024 6.43979 18.2024 5.96191H16.6403C16.6403 6.43979 16.202 6.82868 15.6582 6.82868C15.1177 6.82868 14.6761 6.43979 14.6761 5.96191H13.1139C13.1139 6.43979 12.6756 6.82868 12.1318 6.82868C11.588 6.82868 11.1497 6.43979 11.1497 5.96191H9.58757C9.58757 6.43979 9.14924 6.82868 8.60546 6.82868C8.06497 6.82868 7.62335 6.43979 7.62335 5.96191H5.04943V7.46804C5.11535 7.45485 5.18455 7.44826 5.25376 7.44826C5.79425 7.44826 6.23588 7.83715 6.23588 8.31503C6.23588 8.7929 5.79755 9.18179 5.25376 9.18179C5.18455 9.18179 5.11535 9.1752 5.04943 9.16202V10.4836C5.11535 10.4704 5.18455 10.4638 5.25376 10.4638C5.79425 10.4638 6.23588 10.8527 6.23588 11.3306C6.23588 11.8084 5.79755 12.1973 5.25376 12.1973C5.18455 12.1973 5.11535 12.1907 5.04943 12.1776V13.4991C5.11535 13.4859 5.18455 13.4793 5.25376 13.4793C5.79425 13.4793 6.23588 13.8682 6.23588 14.3461C6.23588 14.824 5.79755 15.2129 5.25376 15.2129C5.18455 15.2129 5.11535 15.2063 5.04943 15.1931V16.5147C5.11535 16.5015 5.18455 16.4949 5.25376 16.4949C5.79425 16.4949 6.23588 16.8838 6.23588 17.3616C6.23588 17.8395 5.79755 18.2284 5.25376 18.2284C5.18455 18.2284 5.11535 18.2218 5.04943 18.2086V19.5302C5.11535 19.517 5.18455 19.5104 5.25376 19.5104C5.79425 19.5104 6.23588 19.8993 6.23588 20.3772C6.23588 20.855 5.79755 21.2439 5.25376 21.2439C5.18455 21.2439 5.11535 21.2373 5.04943 21.2242V22.5457C5.11535 22.5325 5.18455 22.5259 5.25376 22.5259C5.79425 22.5259 6.23588 22.9148 6.23588 23.3927C6.23588 23.8706 5.79755 24.2595 5.25376 24.2595C5.18455 24.2595 5.11535 24.2529 5.04943 24.2397V25.5613C5.11535 25.5481 5.18455 25.5415 5.25376 25.5415C5.79425 25.5415 6.23588 25.9304 6.23588 26.4082C6.23588 26.8861 5.79755 27.275 5.25376 27.275C5.18455 27.275 5.11535 27.2684 5.04943 27.2552V28.5768C5.11535 28.5636 5.18455 28.557 5.25376 28.557C5.79425 28.557 6.23588 28.9459 6.23588 29.4238C6.23588 29.9017 5.79755 30.2905 5.25376 30.2905C5.18455 30.2905 5.11535 30.284 5.04943 30.2708V31.5923C5.11535 31.5792 5.18455 31.5726 5.25376 31.5726C5.79425 31.5726 6.23588 31.9614 6.23588 32.4393C6.23588 32.9172 5.79755 33.3061 5.25376 33.3061C5.18455 33.3061 5.11535 33.2995 5.04943 33.2863V34.6079C5.11535 34.5947 5.18455 34.5881 5.25376 34.5881C5.79425 34.5881 6.23588 34.977 6.23588 35.4549C6.23588 35.9327 5.79755 36.3216 5.25376 36.3216C5.18455 36.3216 5.11535 36.315 5.04943 36.3018V37.6234C5.11535 37.6102 5.18455 37.6036 5.25376 37.6036C5.79425 37.6036 6.23588 37.9925 6.23588 38.4704C6.23588 38.9483 5.79755 39.3372 5.25376 39.3372C5.18455 39.3372 5.11535 39.3306 5.04943 39.3174V40.6389C5.11535 40.6258 5.18455 40.6192 5.25376 40.6192C5.79425 40.6192 6.23588 41.0081 6.23588 41.4859C6.23588 41.9638 5.79755 42.3527 5.25376 42.3527C5.18455 42.3527 5.11535 42.3461 5.04943 42.3329V43.6545C5.11535 43.6413 5.18455 43.6347 5.25376 43.6347C5.79425 43.6347 6.23588 44.0236 6.23588 44.5015C6.23588 44.9793 5.79755 45.3682 5.25376 45.3682C5.18455 45.3682 5.11535 45.3616 5.04943 45.3485V46.67C5.11535 46.6568 5.18455 46.6502 5.25376 46.6502C5.79425 46.6502 6.23588 47.0391 6.23588 47.517C6.23588 47.9949 5.79755 48.3838 5.25376 48.3838C5.18455 48.3838 5.11535 48.3772 5.04943 48.364V49.6856C5.11535 49.6724 5.18455 49.6658 5.25376 49.6658C5.79425 49.6658 6.23588 50.0547 6.23588 50.5325C6.23588 51.0104 5.79755 51.3993 5.25376 51.3993C5.18455 51.3993 5.11535 51.3927 5.04943 51.3795V52.7011C5.11535 52.6879 5.18455 52.6813 5.25376 52.6813" fill="#A98B83"/>
<path d="M57.4152 13.8054V53.0205C55.0093 53.1655 53.0978 55.1693 53.0978 57.6081C53.0978 57.8685 53.1209 58.1321 53.1703 58.3991H12.7556C12.805 58.1321 12.8281 57.8685 12.8281 57.6081C12.8281 55.1693 10.9166 53.1655 8.51074 53.0205V13.8054C10.8243 13.6637 12.6798 11.8082 12.8182 9.49463H53.1044C53.2462 11.8082 55.1016 13.6637 57.4152 13.8054Z" fill="white"/>
<path d="M57.4152 13.8054V53.0205C55.0093 53.1655 53.0978 55.1693 53.0978 57.6081C53.0978 57.8685 53.1209 58.1321 53.1703 58.3991H12.7556C12.805 58.1321 12.8281 57.8685 12.8281 57.6081C12.8281 55.1693 10.9166 53.1655 8.51074 53.0205V13.8054C10.8243 13.6637 12.6798 11.8082 12.8182 9.49463H53.1044C53.2462 11.8082 55.1016 13.6637 57.4152 13.8054Z" fill="#AB8C85"/>
<path d="M57.694 13.2519C55.4662 13.2519 53.6568 11.4426 53.6568 9.2147C53.6568 9.05981 53.5316 8.93457 53.3767 8.93457H12.5467C12.3918 8.93457 12.2665 9.05981 12.2665 9.2147C12.2665 11.4426 10.4539 13.2519 8.22935 13.2519C8.07445 13.2519 7.94922 13.3771 7.94922 13.532V53.2943C7.94922 53.4459 8.07445 53.5744 8.22935 53.5744C10.4539 53.5744 12.2665 55.3837 12.2665 57.6083C12.2665 57.9346 12.2204 58.2707 12.1347 58.6102C12.1149 58.6959 12.1314 58.7849 12.1841 58.8508C12.2369 58.92 12.3193 58.9595 12.4083 58.9595H53.5151C53.6008 58.9595 53.6832 58.92 53.7359 58.8508C53.7887 58.7849 53.8084 58.6959 53.7854 58.6102C53.6997 58.2707 53.6568 57.9346 53.6568 57.6083C53.6568 55.3837 55.4662 53.5744 57.694 53.5744C57.8489 53.5744 57.9742 53.4459 57.9742 53.2943V13.532C57.9742 13.3771 57.8489 13.2519 57.694 13.2519ZM57.4139 53.0207C55.0081 53.1657 53.0966 55.1695 53.0966 57.6083C53.0966 57.8687 53.1197 58.1323 53.1691 58.3993H12.7543C12.8037 58.1323 12.8268 57.8687 12.8268 57.6083C12.8268 55.1695 10.9153 53.1657 8.50948 53.0207V13.8056C10.823 13.6639 12.6785 11.8084 12.8169 9.49483H53.1032C53.2449 11.8084 55.1003 13.6639 57.4139 13.8056V53.0207Z" fill="#F1DFC1"/>
<path d="M57.5162 13.8976V53.1161C56.3492 53.1913 55.2543 53.7068 54.4528 54.5584C53.6514 55.41 53.2032 56.5342 53.1989 57.7037C53.1988 57.969 53.2231 58.2338 53.2714 58.4946H12.8566C12.905 58.2338 12.9292 57.969 12.9291 57.7037C12.9259 56.5358 12.48 55.4126 11.6812 54.5606C10.8824 53.7086 9.79025 53.1912 8.625 53.1128V13.8944C9.73962 13.8168 10.7883 13.3375 11.5762 12.5453C12.3641 11.7531 12.8378 10.7019 12.9094 9.58691H53.2055C53.277 10.7068 53.7541 11.7622 54.5475 12.5556C55.341 13.3491 56.3964 13.8262 57.5162 13.8976Z" fill="white"/>
<path d="M32.9626 12.3026C33.3157 12.3026 33.602 12.0164 33.602 11.6633C33.602 11.3102 33.3157 11.0239 32.9626 11.0239C32.6095 11.0239 32.3232 11.3102 32.3232 11.6633C32.3232 12.0164 32.6095 12.3026 32.9626 12.3026Z" fill="#F5CBD9"/>
<path d="M32.9591 14.1945C32.88 14.1945 32.8174 14.1319 32.8174 14.0528V13.0773C32.8174 12.9982 32.88 12.9355 32.9591 12.9355C33.0382 12.9355 33.1008 12.9982 33.1008 13.0773V14.0528C33.1008 14.1319 33.0382 14.1945 32.9591 14.1945Z" fill="#F5CBD9"/>
<path d="M32.9591 16.8801C32.88 16.8801 32.8174 16.8175 32.8174 16.7384V14.6588C32.8174 14.5797 32.88 14.5171 32.9591 14.5171C33.0382 14.5171 33.1008 14.5797 33.1008 14.6588V16.7384C33.1008 16.8175 33.0382 16.8801 32.9591 16.8801Z" fill="#F5CBD9"/>
<path d="M34.1554 13.8747C34.1059 13.8747 34.0598 13.8483 34.0334 13.8055L33.5457 12.9585C33.5061 12.8926 33.5292 12.8069 33.5984 12.7673C33.6643 12.7278 33.75 12.7508 33.7895 12.8201L34.2773 13.667C34.3168 13.733 34.2938 13.8187 34.2246 13.8582C34.2048 13.8681 34.1817 13.8747 34.1554 13.8747Z" fill="#F5CBD9"/>
<path d="M35.4997 16.2012C35.4502 16.2012 35.4041 16.1748 35.3777 16.1319L34.3396 14.3325C34.3001 14.2666 34.3231 14.1809 34.3923 14.1414C34.4582 14.1018 34.5439 14.1249 34.5835 14.1941L35.6216 15.9935C35.6612 16.0594 35.6381 16.1451 35.5689 16.1847C35.5458 16.1946 35.5227 16.2012 35.4997 16.2012Z" fill="#F5CBD9"/>
<path d="M35.0326 13.0014C35.0095 13.0014 34.9831 12.9948 34.9633 12.9817L34.1197 12.4939C34.0537 12.4544 34.0307 12.3687 34.0669 12.3028C34.1065 12.2368 34.1922 12.2138 34.2581 12.25L35.1018 12.7378C35.1677 12.7773 35.1907 12.863 35.1545 12.9289C35.1281 12.9751 35.082 13.0014 35.0326 13.0014Z" fill="#F5CBD9"/>
<path d="M36.3042 13.733C36.2811 13.733 36.2547 13.7264 36.235 13.7132L35.4868 13.2815C35.4209 13.242 35.3979 13.1563 35.4341 13.0904C35.4737 13.0244 35.5593 13.0014 35.6253 13.0376L36.3734 13.4694C36.4393 13.5089 36.4624 13.5946 36.4261 13.6605C36.3997 13.7099 36.3536 13.733 36.3042 13.733Z" fill="#F5CBD9"/>
<path d="M35.3506 11.8049H34.3751C34.296 11.8049 34.2334 11.7423 34.2334 11.6632C34.2334 11.5841 34.296 11.5215 34.3751 11.5215H35.3506C35.4297 11.5215 35.4923 11.5841 35.4923 11.6632C35.4923 11.7423 35.4297 11.8049 35.3506 11.8049Z" fill="#F5CBD9"/>
<path d="M37.8686 11.8049H35.9571C35.878 11.8049 35.8154 11.7423 35.8154 11.6632C35.8154 11.5841 35.878 11.5215 35.9571 11.5215H37.8686C37.9477 11.5215 38.0103 11.5841 38.0103 11.6632C38.0103 11.7423 37.9477 11.8049 37.8686 11.8049Z" fill="#F5CBD9"/>
<path d="M31.545 11.8049H30.5695C30.4904 11.8049 30.4277 11.7423 30.4277 11.6632C30.4277 11.5841 30.4904 11.5215 30.5695 11.5215H31.545C31.6241 11.5215 31.6867 11.5841 31.6867 11.6632C31.6834 11.7423 31.6208 11.8049 31.545 11.8049Z" fill="#F5CBD9"/>
<path d="M29.9624 11.8049H28.0509C27.9718 11.8049 27.9092 11.7423 27.9092 11.6632C27.9092 11.5841 27.9718 11.5215 28.0509 11.5215H29.9624C30.0415 11.5215 30.1041 11.5841 30.1041 11.6632C30.1008 11.7423 30.0382 11.8049 29.9624 11.8049Z" fill="#F5CBD9"/>
<path d="M30.8883 13.0013C30.8389 13.0013 30.7927 12.9749 30.7664 12.9321C30.7268 12.8662 30.7499 12.7805 30.8191 12.7409L31.6628 12.2532C31.7287 12.2136 31.8144 12.2367 31.8539 12.3059C31.8935 12.3718 31.8704 12.4575 31.8012 12.4971L30.9575 12.9848C30.9344 12.9947 30.9114 13.0013 30.8883 13.0013Z" fill="#F5CBD9"/>
<path d="M29.6627 13.7065C29.6133 13.7065 29.5671 13.6801 29.5408 13.6373C29.5012 13.5714 29.5243 13.4857 29.5935 13.4461L30.2955 13.0408C30.3614 13.0012 30.4471 13.0243 30.4866 13.0935C30.5262 13.1594 30.5031 13.2451 30.4339 13.2846L29.7319 13.69C29.7089 13.7032 29.6858 13.7065 29.6627 13.7065Z" fill="#F5CBD9"/>
<path d="M31.765 13.8748C31.742 13.8748 31.7156 13.8682 31.6958 13.8551C31.6299 13.8155 31.6068 13.7298 31.6431 13.6639L32.1309 12.8169C32.1704 12.751 32.2561 12.7279 32.322 12.7642C32.3879 12.8037 32.411 12.8894 32.3747 12.9553L31.887 13.8023C31.8606 13.8518 31.8112 13.8748 31.765 13.8748Z" fill="#F5CBD9"/>
<path d="M30.4213 16.2013C30.3982 16.2013 30.3719 16.1947 30.3521 16.1815C30.2862 16.142 30.2631 16.0563 30.2993 15.9904L31.3408 14.1909C31.3803 14.125 31.466 14.102 31.5319 14.1382C31.5978 14.1778 31.6209 14.2635 31.5847 14.3294L30.5432 16.1288C30.5169 16.1749 30.4707 16.2013 30.4213 16.2013Z" fill="#F5CBD9"/>
<path d="M32.9626 56.8734C33.3157 56.8734 33.602 56.5872 33.602 56.2341C33.602 55.881 33.3157 55.5947 32.9626 55.5947C32.6095 55.5947 32.3232 55.881 32.3232 56.2341C32.3232 56.5872 32.6095 56.8734 32.9626 56.8734Z" fill="#F5CBD9"/>
<path d="M32.9591 54.9587C32.88 54.9587 32.8174 54.896 32.8174 54.8169V53.8414C32.8174 53.7623 32.88 53.6997 32.9591 53.6997C33.0382 53.6997 33.1008 53.7623 33.1008 53.8414V54.8169C33.1008 54.896 33.0382 54.9587 32.9591 54.9587Z" fill="#F5CBD9"/>
<path d="M32.9591 53.3767C32.88 53.3767 32.8174 53.314 32.8174 53.2349V51.1554C32.8174 51.0763 32.88 51.0137 32.9591 51.0137C33.0382 51.0137 33.1008 51.0763 33.1008 51.1554V53.2349C33.1008 53.314 33.0382 53.3767 32.9591 53.3767Z" fill="#F5CBD9"/>
<path d="M32.253 55.1463C32.2036 55.1463 32.1574 55.1199 32.1311 55.0771L31.6433 54.2334C31.6038 54.1675 31.6268 54.0818 31.696 54.0422C31.762 54.0027 31.8476 54.0258 31.8872 54.095L32.3749 54.9387C32.4145 55.0046 32.3914 55.0903 32.3222 55.1298C32.2991 55.1397 32.2761 55.1463 32.253 55.1463Z" fill="#F5CBD9"/>
<path d="M31.4629 53.7788C31.4135 53.7788 31.3674 53.7524 31.341 53.7096L30.2996 51.9101C30.26 51.8442 30.2831 51.7585 30.3523 51.719C30.4182 51.6794 30.5039 51.7025 30.5434 51.7717L31.5849 53.5712C31.6244 53.6371 31.6014 53.7228 31.5321 53.7623C31.5091 53.7722 31.486 53.7788 31.4629 53.7788Z" fill="#F5CBD9"/>
<path d="M31.7318 55.667C31.7087 55.667 31.6823 55.6604 31.6626 55.6472L30.8189 55.1594C30.753 55.1199 30.7299 55.0342 30.7661 54.9683C30.8057 54.9024 30.8914 54.8793 30.9573 54.9156L31.801 55.4033C31.8669 55.4429 31.89 55.5285 31.8537 55.5945C31.8273 55.6406 31.7812 55.667 31.7318 55.667Z" fill="#F5CBD9"/>
<path d="M30.3657 54.8761C30.3426 54.8761 30.3163 54.8695 30.2965 54.8563L29.5484 54.4246C29.4825 54.385 29.4594 54.2993 29.4956 54.2334C29.5352 54.1675 29.6209 54.1444 29.6868 54.1807L30.4349 54.6124C30.5008 54.652 30.5239 54.7377 30.4876 54.8036C30.4613 54.8497 30.4118 54.8761 30.3657 54.8761Z" fill="#F5CBD9"/>
<path d="M31.545 56.3723H30.5695C30.4904 56.3723 30.4277 56.3097 30.4277 56.2306C30.4277 56.1515 30.4904 56.0889 30.5695 56.0889H31.545C31.6241 56.0889 31.6867 56.1515 31.6867 56.2306C31.6867 56.3097 31.6208 56.3723 31.545 56.3723Z" fill="#F5CBD9"/>
<path d="M29.9624 56.3723H28.0509C27.9718 56.3723 27.9092 56.3097 27.9092 56.2306C27.9092 56.1515 27.9718 56.0889 28.0509 56.0889H29.9624C30.0415 56.0889 30.1041 56.1515 30.1041 56.2306C30.1041 56.3097 30.0382 56.3723 29.9624 56.3723Z" fill="#F5CBD9"/>
<path d="M35.3506 56.3723H34.3751C34.296 56.3723 34.2334 56.3097 34.2334 56.2306C34.2334 56.1515 34.296 56.0889 34.3751 56.0889H35.3506C35.4297 56.0889 35.4923 56.1515 35.4923 56.2306C35.4923 56.3097 35.4297 56.3723 35.3506 56.3723Z" fill="#F5CBD9"/>
<path d="M37.8686 56.3723H35.9571C35.878 56.3723 35.8154 56.3097 35.8154 56.2306C35.8154 56.1515 35.878 56.0889 35.9571 56.0889H37.8686C37.9477 56.0889 38.0103 56.1515 38.0103 56.2306C38.0103 56.3097 37.9477 56.3723 37.8686 56.3723Z" fill="#F5CBD9"/>
<path d="M34.1871 55.6668C34.1377 55.6668 34.0916 55.6405 34.0652 55.5976C34.0256 55.5317 34.0487 55.446 34.1179 55.4065L34.9616 54.9187C35.0275 54.8792 35.1132 54.9022 35.1528 54.9714C35.1923 55.0373 35.1692 55.123 35.1 55.1626L34.2563 55.6503C34.2333 55.6602 34.2102 55.6668 34.1871 55.6668Z" fill="#F5CBD9"/>
<path d="M35.5563 54.8759C35.5068 54.8759 35.4607 54.8496 35.4343 54.8067C35.3948 54.7408 35.4178 54.6551 35.4871 54.6156L36.189 54.2102C36.255 54.1707 36.3406 54.1937 36.3802 54.2629C36.4197 54.3288 36.3967 54.4145 36.3275 54.4541L35.6255 54.8595C35.6057 54.8693 35.5826 54.8759 35.5563 54.8759Z" fill="#F5CBD9"/>
<path d="M33.6684 55.1464C33.6453 55.1464 33.6189 55.1399 33.5991 55.1267C33.5332 55.0871 33.5102 55.0014 33.5464 54.9355L34.0342 54.0918C34.0737 54.0259 34.1594 54.0028 34.2253 54.0391C34.2912 54.0786 34.3143 54.1643 34.2781 54.2302L33.7903 55.0739C33.7639 55.1234 33.7178 55.1464 33.6684 55.1464Z" fill="#F5CBD9"/>
<path d="M34.4584 53.7784C34.4353 53.7784 34.409 53.7719 34.3892 53.7587C34.3233 53.7191 34.3002 53.6334 34.3365 53.5675L35.3746 51.7681C35.4141 51.7022 35.4998 51.6791 35.5657 51.7154C35.6317 51.7549 35.6547 51.8406 35.6185 51.9065L34.5803 53.7059C34.554 53.7521 34.5078 53.7784 34.4584 53.7784Z" fill="#F5CBD9"/>
<path d="M55.2458 33.3096C54.8932 33.3096 54.6064 33.5963 54.6064 33.9489C54.6064 34.3016 54.8932 34.5883 55.2458 34.5883C55.5984 34.5883 55.8852 34.3016 55.8852 33.9489C55.8885 33.5963 55.6017 33.3096 55.2458 33.3096Z" fill="#F5CBD9"/>
<path d="M53.8301 34.0871H52.8546C52.7755 34.0871 52.7129 34.0245 52.7129 33.9454C52.7129 33.8663 52.7755 33.8037 52.8546 33.8037H53.8301C53.9092 33.8037 53.9718 33.8663 53.9718 33.9454C53.9685 34.0245 53.9059 34.0871 53.8301 34.0871Z" fill="#F5CBD9"/>
<path d="M52.2476 34.0871H50.1681C50.089 34.0871 50.0264 34.0245 50.0264 33.9454C50.0264 33.8663 50.089 33.8037 50.1681 33.8037H52.2476C52.3267 33.8037 52.3894 33.8663 52.3894 33.9454C52.3861 34.0245 52.3234 34.0871 52.2476 34.0871Z" fill="#F5CBD9"/>
<path d="M53.1735 35.2835C53.124 35.2835 53.0779 35.2572 53.0515 35.2143C53.012 35.1484 53.035 35.0627 53.1042 35.0232L53.9479 34.5354C54.0138 34.4959 54.0995 34.5189 54.1391 34.5881C54.1786 34.654 54.1556 34.7397 54.0864 34.7793L53.2427 35.267C53.2196 35.2802 53.1965 35.2835 53.1735 35.2835Z" fill="#F5CBD9"/>
<path d="M50.8483 36.6282C50.7988 36.6282 50.7527 36.6018 50.7263 36.559C50.6868 36.4931 50.7098 36.4074 50.7791 36.3678L52.5785 35.3264C52.6444 35.2869 52.7301 35.3099 52.7696 35.3791C52.8092 35.4451 52.7861 35.5307 52.7169 35.5703L50.9175 36.6117C50.8977 36.6216 50.8713 36.6282 50.8483 36.6282Z" fill="#F5CBD9"/>
<path d="M54.0473 36.16C54.0242 36.16 53.9978 36.1534 53.978 36.1402C53.9121 36.1007 53.8891 36.015 53.9253 35.9491L54.4131 35.1021C54.4526 35.0362 54.5383 35.0131 54.6042 35.0493C54.6701 35.0889 54.6932 35.1746 54.657 35.2405L54.1692 36.0875C54.1428 36.1369 54.0967 36.16 54.0473 36.16Z" fill="#F5CBD9"/>
<path d="M53.3178 37.4322C53.2947 37.4322 53.2683 37.4256 53.2486 37.4124C53.1826 37.3729 53.1596 37.2872 53.1958 37.2213L53.6276 36.4732C53.6671 36.4073 53.7528 36.3842 53.8187 36.4204C53.8846 36.46 53.9077 36.5457 53.8714 36.6116L53.4397 37.3597C53.4133 37.4058 53.3639 37.4322 53.3178 37.4322Z" fill="#F5CBD9"/>
<path d="M55.2452 36.4797C55.1661 36.4797 55.1035 36.417 55.1035 36.3379V35.3624C55.1035 35.2833 55.1661 35.2207 55.2452 35.2207C55.3243 35.2207 55.3869 35.2833 55.3869 35.3624V36.3379C55.3869 36.417 55.3243 36.4797 55.2452 36.4797Z" fill="#F5CBD9"/>
<path d="M55.2452 38.9977C55.1661 38.9977 55.1035 38.935 55.1035 38.8559V36.9444C55.1035 36.8653 55.1661 36.8027 55.2452 36.8027C55.3243 36.8027 55.3869 36.8653 55.3869 36.9444V38.8559C55.3869 38.935 55.3243 38.9977 55.2452 38.9977Z" fill="#F5CBD9"/>
<path d="M55.2452 32.6735C55.1661 32.6735 55.1035 32.6109 55.1035 32.5318V31.5563C55.1035 31.4772 55.1661 31.4146 55.2452 31.4146C55.3243 31.4146 55.3869 31.4772 55.3869 31.5563V32.5318C55.3869 32.6109 55.3243 32.6735 55.2452 32.6735Z" fill="#F5CBD9"/>
<path d="M55.2452 31.0914C55.1661 31.0914 55.1035 31.0288 55.1035 30.9497V29.0382C55.1035 28.9591 55.1661 28.8965 55.2452 28.8965C55.3243 28.8965 55.3869 28.9591 55.3869 29.0382V30.9497C55.3869 31.0288 55.3243 31.0914 55.2452 31.0914Z" fill="#F5CBD9"/>
<path d="M54.5401 32.861C54.4907 32.861 54.4445 32.8346 54.4182 32.7918L53.9304 31.9448C53.8909 31.8789 53.9139 31.7932 53.9832 31.7537C54.0491 31.7141 54.1348 31.7372 54.1743 31.8064L54.6621 32.6534C54.7016 32.7193 54.6785 32.805 54.6093 32.8445C54.5863 32.8577 54.5632 32.861 54.5401 32.861Z" fill="#F5CBD9"/>
<path d="M53.7468 31.4933C53.6974 31.4933 53.6512 31.467 53.6249 31.4241L53.2195 30.7222C53.1799 30.6562 53.203 30.5706 53.2722 30.531C53.3381 30.4915 53.4238 30.5145 53.4634 30.5837L53.8687 31.2857C53.9083 31.3516 53.8852 31.4373 53.816 31.4769C53.7929 31.4867 53.7699 31.4933 53.7468 31.4933Z" fill="#F5CBD9"/>
<path d="M54.0189 33.3818C53.9958 33.3818 53.9694 33.3752 53.9497 33.362L53.106 32.8743C53.0401 32.8347 53.017 32.749 53.0533 32.6831C53.0928 32.6172 53.1785 32.5941 53.2444 32.6304L54.0881 33.1182C54.154 33.1577 54.1771 33.2434 54.1408 33.3093C54.1145 33.3554 54.0683 33.3818 54.0189 33.3818Z" fill="#F5CBD9"/>
<path d="M52.6514 32.5908C52.6283 32.5908 52.6019 32.5842 52.5822 32.571L50.7827 31.5296C50.7168 31.49 50.6938 31.4043 50.73 31.3384C50.7696 31.2725 50.8552 31.2494 50.9212 31.2857L52.7206 32.3271C52.7865 32.3667 52.8096 32.4523 52.7733 32.5183C52.747 32.5644 52.6975 32.5908 52.6514 32.5908Z" fill="#F5CBD9"/>
<path d="M10.6775 34.5883C11.0301 34.5883 11.3168 34.3016 11.3168 33.9489C11.3168 33.5963 11.0301 33.3096 10.6775 33.3096C10.3248 33.3096 10.0381 33.5963 10.0381 33.9489C10.0348 34.3016 10.3215 34.5883 10.6775 34.5883Z" fill="#F5CBD9"/>
<path d="M13.0665 34.0871H12.0909C12.0118 34.0871 11.9492 34.0245 11.9492 33.9454C11.9492 33.8663 12.0118 33.8037 12.0909 33.8037H13.0665C13.1455 33.8037 13.2082 33.8663 13.2082 33.9454C13.2082 34.0245 13.1455 34.0871 13.0665 34.0871Z" fill="#F5CBD9"/>
<path d="M15.7535 34.0871H13.6739C13.5948 34.0871 13.5322 34.0245 13.5322 33.9454C13.5322 33.8663 13.5948 33.8037 13.6739 33.8037H15.7535C15.8326 33.8037 15.8952 33.8663 15.8952 33.9454C15.8952 34.0245 15.8326 34.0871 15.7535 34.0871Z" fill="#F5CBD9"/>
<path d="M11.9039 33.3817C11.8545 33.3817 11.8083 33.3553 11.782 33.3125C11.7424 33.2465 11.7655 33.1608 11.8347 33.1213L12.6784 32.6335C12.7443 32.594 12.83 32.6171 12.8696 32.6863C12.9091 32.7522 12.886 32.8379 12.8168 32.8774L11.9731 33.3652C11.9501 33.3751 11.927 33.3817 11.9039 33.3817Z" fill="#F5CBD9"/>
<path d="M13.2711 32.5911C13.2217 32.5911 13.1755 32.5647 13.1492 32.5219C13.1096 32.456 13.1327 32.3703 13.2019 32.3307L15.0046 31.2893C15.0705 31.2498 15.1562 31.2728 15.1958 31.342C15.2353 31.408 15.2123 31.4936 15.1431 31.5332L13.3403 32.5746C13.3205 32.5845 13.2975 32.5911 13.2711 32.5911Z" fill="#F5CBD9"/>
<path d="M11.3832 32.8612C11.3601 32.8612 11.3338 32.8546 11.314 32.8414C11.2481 32.8018 11.225 32.7162 11.2613 32.6502L11.749 31.8032C11.7886 31.7373 11.8743 31.7143 11.9402 31.7505C12.0061 31.7901 12.0291 31.8758 11.9929 31.9417L11.5051 32.7887C11.4788 32.8381 11.4326 32.8612 11.3832 32.8612Z" fill="#F5CBD9"/>
<path d="M12.1771 31.4932C12.1541 31.4932 12.1277 31.4866 12.1079 31.4735C12.042 31.4339 12.019 31.3482 12.0552 31.2823L12.4869 30.5342C12.5265 30.4683 12.6122 30.4452 12.6781 30.4815C12.744 30.521 12.7671 30.6067 12.7308 30.6726L12.2991 31.4207C12.2694 31.4669 12.2233 31.4932 12.1771 31.4932Z" fill="#F5CBD9"/>
<path d="M10.6769 32.6735C10.5978 32.6735 10.5352 32.6109 10.5352 32.5318V31.5563C10.5352 31.4772 10.5978 31.4146 10.6769 31.4146C10.756 31.4146 10.8186 31.4772 10.8186 31.5563V32.5318C10.8153 32.6109 10.7527 32.6735 10.6769 32.6735Z" fill="#F5CBD9"/>
<path d="M10.6769 31.0914C10.5978 31.0914 10.5352 31.0288 10.5352 30.9497V29.0382C10.5352 28.9591 10.5978 28.8965 10.6769 28.8965C10.756 28.8965 10.8186 28.9591 10.8186 29.0382V30.9497C10.8153 31.0288 10.7527 31.0914 10.6769 31.0914Z" fill="#F5CBD9"/>
<path d="M10.6769 36.4797C10.5978 36.4797 10.5352 36.417 10.5352 36.3379V35.3624C10.5352 35.2833 10.5978 35.2207 10.6769 35.2207C10.756 35.2207 10.8186 35.2833 10.8186 35.3624V36.3379C10.8153 36.417 10.7527 36.4797 10.6769 36.4797Z" fill="#F5CBD9"/>
<path d="M10.6769 38.9977C10.5978 38.9977 10.5352 38.935 10.5352 38.8559V36.9444C10.5352 36.8653 10.5978 36.8027 10.6769 36.8027C10.756 36.8027 10.8186 36.8653 10.8186 36.9444V38.8559C10.8153 38.935 10.7527 38.9977 10.6769 38.9977Z" fill="#F5CBD9"/>
<path d="M11.8741 36.1603C11.8247 36.1603 11.7785 36.134 11.7522 36.0911L11.2644 35.2441C11.2249 35.1782 11.2479 35.0925 11.3171 35.053C11.383 35.0134 11.4687 35.0365 11.5083 35.1057L11.996 35.9527C12.0356 36.0186 12.0125 36.1043 11.9433 36.1438C11.9202 36.1537 11.8972 36.1603 11.8741 36.1603Z" fill="#F5CBD9"/>
<path d="M12.5788 37.3859C12.5294 37.3859 12.4832 37.3596 12.4569 37.3167L12.0515 36.6147C12.012 36.5488 12.035 36.4631 12.1042 36.4236C12.1702 36.384 12.2558 36.4071 12.2954 36.4763L12.7008 37.1783C12.7403 37.2442 12.7172 37.3299 12.648 37.3694C12.6283 37.3793 12.6052 37.3859 12.5788 37.3859Z" fill="#F5CBD9"/>
<path d="M12.7474 35.2837C12.7243 35.2837 12.698 35.2771 12.6782 35.2639L11.8345 34.7761C11.7686 34.7366 11.7455 34.6509 11.7818 34.585C11.8213 34.5191 11.907 34.496 11.9729 34.5323L12.8166 35.02C12.8825 35.0596 12.9056 35.1452 12.8693 35.2112C12.843 35.2606 12.7968 35.2837 12.7474 35.2837Z" fill="#F5CBD9"/>
<path d="M15.0746 36.6279C15.0515 36.6279 15.0252 36.6213 15.0054 36.6081L13.2027 35.5667C13.1367 35.5271 13.1137 35.4414 13.1499 35.3755C13.1895 35.3096 13.2752 35.2865 13.3411 35.3228L15.1438 36.3642C15.2097 36.4038 15.2328 36.4895 15.1965 36.5554C15.1702 36.6015 15.124 36.6279 15.0746 36.6279Z" fill="#F5CBD9"/>
<path d="M26.5834 15.2327C26.5043 15.2327 26.4285 15.2294 26.3527 15.2195C25.7067 15.1437 25.1234 14.735 24.8663 14.178C24.5928 13.5848 24.7147 12.8367 25.1563 12.3951C25.6243 11.9271 26.4252 11.8546 26.9393 12.2369C27.3545 12.5467 27.5226 13.1234 27.3216 13.5486C27.2095 13.7859 26.9624 13.9638 26.6822 14.0166C26.4285 14.0627 26.1879 13.9968 26.0198 13.8353C25.9638 13.7826 25.9638 13.6936 26.0165 13.6376C26.0692 13.5815 26.1582 13.5815 26.2142 13.6343C26.3164 13.7331 26.4647 13.7694 26.6328 13.7397C26.8272 13.7035 26.992 13.5848 27.0678 13.4266C27.2161 13.1168 27.0843 12.6917 26.7745 12.461C26.3658 12.1578 25.7298 12.2171 25.3541 12.5928C24.9915 12.9521 24.8927 13.5716 25.1201 14.0594C25.3376 14.5307 25.8352 14.8767 26.3823 14.9393C26.8997 15.002 27.4666 14.8174 27.8983 14.4549C28.485 13.9572 28.7519 13.1564 28.5509 12.5038C28.4059 12.0359 28.0302 11.6305 27.5259 11.3866C27.0942 11.179 26.5669 11.0867 25.9605 11.1098C24.9981 11.146 24.0028 11.4525 23.0076 12.0194C22.2397 12.4577 21.1488 13.1432 20.3051 13.9309C20.2524 13.977 20.1733 13.9803 20.1205 13.9375C20.0645 13.8913 20.0546 13.8155 20.0909 13.7562C20.4237 13.2157 20.661 12.7345 20.8225 12.2764C19.7053 13.2421 18.3969 14.0067 17.0094 14.501C16.3964 14.7185 15.5857 14.9525 14.7552 14.8372C13.8983 14.7152 13.1766 14.1912 12.9162 13.5024C12.7514 13.0674 12.7844 12.5533 13.0052 12.0985C13.2293 11.6404 13.6116 11.3009 14.0565 11.1625C14.6201 10.9878 15.2528 11.1329 15.6351 11.5217C16.0603 11.9568 16.1262 12.6587 15.7867 13.1201C15.6088 13.3607 15.3122 13.5222 14.9925 13.5453C14.6926 13.5716 14.4092 13.4761 14.2147 13.2849C14.1587 13.2322 14.1587 13.1432 14.2114 13.0872C14.2641 13.0312 14.3531 13.0312 14.4092 13.0872C14.5443 13.219 14.7453 13.2882 14.9661 13.2684C15.2067 13.2487 15.4275 13.1333 15.556 12.9553C15.8131 12.606 15.7538 12.049 15.4308 11.7162C15.121 11.3998 14.6003 11.2844 14.1356 11.4262C13.7632 11.5415 13.4435 11.8282 13.2524 12.2171C13.0645 12.606 13.0349 13.0377 13.1733 13.4003C13.4007 13.9968 14.0334 14.4483 14.7914 14.557C15.5626 14.6658 16.3305 14.4417 16.9139 14.2341C18.4233 13.6969 19.8371 12.8334 21.0005 11.7327C21.0466 11.6898 21.1125 11.6832 21.1686 11.7129C21.2213 11.7425 21.2477 11.8052 21.2345 11.8678C21.1323 12.2962 20.9675 12.728 20.727 13.1992C21.4586 12.6192 22.2627 12.1183 22.8691 11.7755C23.904 11.1856 24.9421 10.8659 25.9506 10.8296C26.6031 10.8033 27.1766 10.9087 27.6479 11.1361C28.2246 11.413 28.6497 11.881 28.8211 12.4215C29.0584 13.1795 28.7519 14.1022 28.0829 14.6691C27.6544 15.0283 27.1074 15.2327 26.5834 15.2327Z" fill="#F1DFC1"/>
<path d="M26.1234 14.9231C26.0443 14.9231 25.9685 14.9198 25.8927 14.9099C25.6884 14.8869 25.4873 14.8275 25.2962 14.7386C25.227 14.7056 25.1973 14.6232 25.2303 14.5507C25.2632 14.4815 25.3456 14.4518 25.4181 14.4848C25.5829 14.5606 25.7543 14.61 25.9289 14.6331C26.4464 14.6924 27.0132 14.5112 27.445 14.1486C28.0316 13.6543 28.2985 12.8501 28.0975 12.1976C28.0019 11.8911 27.8042 11.611 27.5109 11.3737C27.4515 11.3242 27.4417 11.2353 27.4911 11.1759C27.5405 11.1166 27.6295 11.1067 27.6888 11.1562C28.025 11.4297 28.2524 11.7527 28.3644 12.1152C28.6017 12.8732 28.2952 13.796 27.6262 14.3629C27.1945 14.7188 26.6507 14.9231 26.1234 14.9231Z" fill="#F1DFC1"/>
<path d="M15.4685 14.857C15.4619 14.857 15.4553 14.857 15.4487 14.857C14.7336 14.7549 13.8306 14.2869 13.5307 13.5025C13.3461 13.0147 13.4054 12.4083 13.6888 11.9239C13.9492 11.479 14.3612 11.1922 14.8489 11.123C14.9247 11.1098 14.9972 11.1659 15.0071 11.2417C15.017 11.3175 14.9643 11.39 14.8885 11.3999C14.4864 11.4592 14.1469 11.6965 13.9294 12.0656C13.6888 12.4775 13.6361 12.9917 13.791 13.4003C14.0514 14.0792 14.8522 14.4879 15.4883 14.5769C15.5641 14.5868 15.6168 14.6593 15.6069 14.7351C15.597 14.8043 15.5377 14.857 15.4685 14.857Z" fill="#F1DFC1"/>
<path d="M29.6155 11.1067H17.8038C17.7247 11.1067 17.6621 11.0441 17.6621 10.965C17.6621 10.8859 17.7247 10.8232 17.8038 10.8232H29.6155C29.6946 10.8232 29.7572 10.8859 29.7572 10.965C29.7572 11.0441 29.6946 11.1067 29.6155 11.1067Z" fill="#F1DFC1"/>
<path d="M26.4489 13.997C26.802 13.997 27.0883 13.7107 27.0883 13.3576C27.0883 13.0045 26.802 12.7183 26.4489 12.7183C26.0958 12.7183 25.8096 13.0045 25.8096 13.3576C25.8096 13.7107 26.0958 13.997 26.4489 13.997Z" fill="#F1DFC1"/>
<path d="M18.4438 11.466C18.4438 11.8187 18.157 12.1054 17.8044 12.1054C17.4518 12.1054 17.165 11.8187 17.165 11.466C17.165 11.1134 17.4518 10.8267 17.8044 10.8267C18.157 10.8267 18.4438 11.1134 18.4438 11.466Z" fill="#F1DFC1"/>
<path d="M14.6735 13.4794C15.0266 13.4794 15.3129 13.1932 15.3129 12.84C15.3129 12.4869 15.0266 12.2007 14.6735 12.2007C14.3204 12.2007 14.0342 12.4869 14.0342 12.84C14.0342 13.1932 14.3204 13.4794 14.6735 13.4794Z" fill="#F1DFC1"/>
<path d="M39.3275 15.2327C38.8001 15.2327 38.2695 15.0349 37.8378 14.6691C37.1655 14.1022 36.8623 13.1795 37.0996 12.4215C37.2677 11.881 37.6961 11.413 38.2728 11.1361C38.7474 10.9087 39.3176 10.8033 39.9701 10.8296C40.9786 10.8659 42.0167 11.1856 43.0516 11.7755C43.658 12.1215 44.4621 12.6192 45.1937 13.1992C44.9532 12.728 44.7884 12.2962 44.6862 11.8678C44.673 11.8085 44.6994 11.7458 44.7521 11.7129C44.8049 11.6832 44.8741 11.6898 44.9202 11.7327C46.0836 12.8334 47.4974 13.6969 49.0068 14.2341C49.5902 14.4417 50.3581 14.6658 51.1292 14.557C51.8839 14.4516 52.52 13.9968 52.7474 13.4003C52.8858 13.0377 52.8562 12.606 52.6683 12.2171C52.4805 11.8282 52.1575 11.5415 51.7851 11.4262C51.3204 11.2812 50.7997 11.3965 50.4899 11.7162C50.1636 12.049 50.1076 12.6027 50.3646 12.9553C50.4932 13.13 50.714 13.2487 50.9546 13.2684C51.1721 13.2849 51.3764 13.219 51.5115 13.0872C51.5676 13.0345 51.6565 13.0345 51.7093 13.0872C51.762 13.1432 51.762 13.2322 51.706 13.2849C51.5115 13.4761 51.2281 13.5716 50.9282 13.5453C50.6085 13.5189 50.3119 13.3607 50.134 13.1201C49.7945 12.6587 49.8604 11.9535 50.2855 11.5217C50.6678 11.1329 51.3006 10.9878 51.8642 11.1625C52.3091 11.3009 52.6914 11.6404 52.9155 12.0985C53.1396 12.5566 53.1726 13.0674 53.0045 13.5024C52.7408 14.1912 52.0191 14.7152 51.1655 14.8372C50.335 14.9558 49.5242 14.7185 48.9113 14.501C47.5238 14.0067 46.2154 13.2421 45.0982 12.2764C45.2597 12.7345 45.4969 13.2157 45.8298 13.7562C45.8661 13.8155 45.8529 13.8946 45.8001 13.9375C45.7474 13.9803 45.6683 13.9803 45.6156 13.9309C44.7752 13.1432 43.681 12.4577 42.9131 12.0194C41.9178 11.4525 40.9225 11.146 39.9602 11.1098C39.3505 11.0867 38.8265 11.1823 38.3948 11.3866C37.8872 11.6305 37.5148 12.0359 37.3698 12.5038C37.1655 13.1564 37.4357 13.9572 38.0224 14.4549C38.4541 14.8207 39.0242 15.002 39.5384 14.9393C40.0887 14.8734 40.5864 14.5274 40.8039 14.0594C41.0313 13.5683 40.9324 12.9521 40.5699 12.5928C40.1942 12.2171 39.5581 12.1611 39.1495 12.461C38.8364 12.6917 38.7079 13.1168 38.8562 13.4266C38.932 13.5848 39.0968 13.7035 39.2912 13.7397C39.4527 13.7694 39.6076 13.7298 39.7098 13.6343C39.7658 13.5815 39.8548 13.5815 39.9075 13.6376C39.9602 13.6936 39.9602 13.7826 39.9042 13.8353C39.7361 13.9968 39.4955 14.0627 39.2418 14.0166C38.9616 13.9671 38.7178 13.7859 38.6057 13.5486C38.4014 13.1234 38.5694 12.5467 38.988 12.2369C39.5021 11.8546 40.303 11.9271 40.771 12.3951C41.2126 12.8367 41.3345 13.5848 41.061 14.178C40.8039 14.735 40.2206 15.1437 39.5746 15.2195C39.4856 15.2294 39.4065 15.2327 39.3275 15.2327Z" fill="#F1DFC1"/>
<path d="M39.7963 14.923C39.2723 14.923 38.7252 14.722 38.2968 14.3594C37.6245 13.7926 37.3213 12.8698 37.5586 12.1118C37.6706 11.7526 37.898 11.4296 38.2342 11.1527C38.2935 11.1033 38.3825 11.1132 38.4319 11.1725C38.4814 11.2318 38.4715 11.3208 38.4121 11.3703C38.1188 11.6108 37.9244 11.8877 37.8288 12.1942C37.6245 12.8467 37.8947 13.6476 38.4813 14.1452C38.9131 14.511 39.4832 14.6923 39.9974 14.6297C40.172 14.6099 40.3434 14.5605 40.5082 14.4814C40.5774 14.4484 40.6631 14.4781 40.696 14.5473C40.729 14.6165 40.6993 14.7022 40.6301 14.7351C40.439 14.8241 40.2379 14.8834 40.0336 14.9065C39.9512 14.9197 39.8721 14.923 39.7963 14.923Z" fill="#F1DFC1"/>
<path d="M50.4492 14.8569C50.38 14.8569 50.3206 14.8075 50.3108 14.735C50.3009 14.6592 50.3536 14.5866 50.4294 14.5768C51.0655 14.4878 51.8663 14.0791 52.1267 13.4002C52.2849 12.9882 52.2321 12.4774 51.9883 12.0622C51.7707 11.693 51.4313 11.4558 51.0292 11.3964C50.9534 11.3866 50.9007 11.314 50.9106 11.2382C50.9205 11.1624 50.993 11.1064 51.0688 11.1196C51.5565 11.1921 51.9685 11.4755 52.2288 11.9204C52.5123 12.4049 52.5749 13.008 52.387 13.4991C52.0871 14.2867 51.1841 14.7514 50.469 14.8536C50.4624 14.8569 50.4558 14.8569 50.4492 14.8569Z" fill="#F1DFC1"/>
<path d="M48.1168 11.1067H36.3019C36.2228 11.1067 36.1602 11.0441 36.1602 10.965C36.1602 10.8859 36.2228 10.8232 36.3019 10.8232H48.1135C48.1926 10.8232 48.2553 10.8859 48.2553 10.965C48.2553 11.0441 48.1926 11.1067 48.1168 11.1067Z" fill="#F1DFC1"/>
<path d="M39.4704 13.997C39.8235 13.997 40.1098 13.7107 40.1098 13.3576C40.1098 13.0045 39.8235 12.7183 39.4704 12.7183C39.1173 12.7183 38.8311 13.0045 38.8311 13.3576C38.8311 13.7107 39.1173 13.997 39.4704 13.997Z" fill="#F1DFC1"/>
<path d="M47.4756 11.466C47.4756 11.8187 47.7623 12.1054 48.1149 12.1054C48.4676 12.1054 48.7543 11.8187 48.7543 11.466C48.7543 11.1134 48.4676 10.8267 48.1149 10.8267C47.7623 10.8267 47.4756 11.1134 47.4756 11.466Z" fill="#F1DFC1"/>
<path d="M51.2458 13.4794C51.5989 13.4794 51.8852 13.1932 51.8852 12.84C51.8852 12.4869 51.5989 12.2007 51.2458 12.2007C50.8927 12.2007 50.6064 12.4869 50.6064 12.84C50.6064 13.1932 50.8927 13.4794 51.2458 13.4794Z" fill="#F1DFC1"/>
<path d="M26.135 57.0714C26.0724 57.0714 26.013 57.0714 25.9504 57.0681C24.942 57.0319 23.9038 56.7122 22.869 56.1223C22.2626 55.7762 21.4584 55.2786 20.7268 54.6985C20.9674 55.1698 21.1322 55.6016 21.2343 56.03C21.2475 56.0893 21.2211 56.1519 21.1684 56.1849C21.1157 56.2146 21.0465 56.208 21.0003 56.1651C19.837 55.0644 18.4231 54.2009 16.9137 53.6637C16.3304 53.4561 15.5592 53.232 14.7913 53.3407C14.0366 53.4495 13.4005 53.901 13.1731 54.4975C13.0347 54.86 13.0644 55.2918 13.2522 55.6807C13.4401 56.0695 13.7631 56.3563 14.1355 56.4716C14.6002 56.6166 15.1209 56.5013 15.4307 56.1816C15.7569 55.8487 15.813 55.2951 15.5559 54.9424C15.4274 54.7645 15.2066 54.6491 14.966 54.6293C14.7485 54.6129 14.5441 54.6788 14.409 54.8106C14.353 54.8666 14.264 54.8633 14.2113 54.8106C14.1585 54.7546 14.1585 54.6656 14.2146 54.6129C14.409 54.4217 14.6924 54.3261 14.989 54.3525C15.3087 54.3789 15.6053 54.5371 15.7833 54.7777C16.1228 55.239 16.0535 55.9443 15.6317 56.376C15.2494 56.7649 14.6166 56.9099 14.0531 56.7353C13.6082 56.5969 13.2259 56.2574 13.0018 55.7993C12.7776 55.3412 12.7447 54.8304 12.9128 54.3954C13.1764 53.7066 13.8982 53.1825 14.7518 53.0606C15.5856 52.942 16.393 53.1793 17.006 53.3968C18.3935 53.8911 19.7018 54.6557 20.8191 55.6213C20.6576 55.1632 20.4203 54.6821 20.0874 54.1416C20.0512 54.0823 20.0644 54.0032 20.1171 53.9603C20.1698 53.9175 20.2489 53.9175 20.3017 53.9669C21.1421 54.7546 22.2362 55.4401 23.0041 55.8784C23.9994 56.4453 24.9947 56.7517 25.957 56.788C26.5667 56.8111 27.0907 56.7155 27.5225 56.5112C28.03 56.2673 28.4024 55.8619 28.5474 55.3939C28.7518 54.7414 28.4815 53.9405 27.8949 53.4429C27.4631 53.0771 26.8963 52.8958 26.3789 52.9584C25.8285 53.0243 25.3341 53.3704 25.1166 53.8384C24.8892 54.3261 24.9881 54.9457 25.3506 55.3049C25.7263 55.6807 26.3624 55.7367 26.7711 55.4368C27.0841 55.2061 27.2127 54.7809 27.0644 54.4711C26.9886 54.313 26.8238 54.1943 26.6293 54.1581C26.4646 54.1284 26.313 54.1679 26.2108 54.2635C26.1548 54.3162 26.0658 54.3163 26.0131 54.2602C25.9603 54.2042 25.9603 54.1152 26.0163 54.0625C26.1844 53.901 26.425 53.8351 26.6788 53.8812C26.9589 53.9307 27.2028 54.1119 27.3181 54.3492C27.5225 54.7743 27.3544 55.3511 26.9358 55.6609C26.4217 56.0432 25.6209 55.9707 25.1529 55.5027C24.7113 55.0611 24.5893 54.313 24.8629 53.7197C25.1199 53.1628 25.7033 52.7541 26.3492 52.6783C26.9424 52.6091 27.5884 52.8134 28.0794 53.2287C28.7518 53.7955 29.055 54.7183 28.8177 55.4763C28.6496 56.0168 28.2211 56.4848 27.6444 56.7616C27.2193 56.9693 26.7117 57.0714 26.135 57.0714Z" fill="#F1DFC1"/>
<path d="M27.5998 56.7746C27.5602 56.7746 27.5174 56.7581 27.491 56.7219C27.4416 56.6625 27.4515 56.5736 27.5108 56.5241C27.8041 56.2835 27.9986 56.0067 28.0974 55.7002C28.3018 55.0477 28.0315 54.2468 27.4449 53.7492C27.0131 53.3834 26.4463 53.2021 25.9289 53.2647C25.7542 53.2845 25.5828 53.3339 25.418 53.413C25.3488 53.446 25.2631 53.4163 25.2302 53.3471C25.1972 53.2779 25.2269 53.1922 25.2994 53.1593C25.4905 53.0703 25.6916 53.0109 25.8959 52.9879C26.4891 52.9187 27.1351 53.123 27.6261 53.5383C28.2985 54.1051 28.6017 55.0279 28.3644 55.7859C28.2523 56.1484 28.0249 56.4681 27.6888 56.7449C27.6624 56.7647 27.6294 56.7746 27.5998 56.7746Z" fill="#F1DFC1"/>
<path d="M14.8672 56.7781C14.8606 56.7781 14.854 56.7781 14.8474 56.7781C14.3597 56.7056 13.9477 56.4222 13.6874 55.9773C13.4039 55.4928 13.3413 54.8897 13.5292 54.3987C13.8291 53.611 14.7321 53.1463 15.4472 53.0442C15.523 53.0343 15.5955 53.087 15.6054 53.1628C15.6153 53.2386 15.5626 53.3111 15.4868 53.321C14.8507 53.41 14.0499 53.8186 13.7895 54.4976C13.6313 54.9095 13.6841 55.4203 13.9279 55.8323C14.1454 56.2014 14.4849 56.4387 14.887 56.498C14.9628 56.5079 15.0155 56.5804 15.0056 56.6562C14.9957 56.7287 14.9364 56.7781 14.8672 56.7781Z" fill="#F1DFC1"/>
<path d="M29.6155 57.0715H17.8038C17.7247 57.0715 17.6621 57.0089 17.6621 56.9298C17.6621 56.8507 17.7247 56.7881 17.8038 56.7881H29.6155C29.6946 56.7881 29.7572 56.8507 29.7572 56.9298C29.7572 57.0089 29.6946 57.0715 29.6155 57.0715Z" fill="#F1DFC1"/>
<path d="M26.448 55.1796C26.8011 55.1796 27.0873 54.8933 27.0873 54.5402C27.0873 54.1871 26.8011 53.9009 26.448 53.9009C26.0948 53.9009 25.8086 54.1871 25.8086 54.5402C25.8086 54.8933 26.0948 55.1796 26.448 55.1796Z" fill="#F1DFC1"/>
<path d="M17.8044 57.0712C18.1575 57.0712 18.4438 56.7849 18.4438 56.4318C18.4438 56.0787 18.1575 55.7925 17.8044 55.7925C17.4513 55.7925 17.165 56.0787 17.165 56.4318C17.165 56.7849 17.4513 57.0712 17.8044 57.0712Z" fill="#F1DFC1"/>
<path d="M14.6735 55.6972C15.0266 55.6972 15.3129 55.4109 15.3129 55.0578C15.3129 54.7047 15.0266 54.4185 14.6735 54.4185C14.3204 54.4185 14.0342 54.7047 14.0342 55.0578C14.0342 55.4109 14.3204 55.6972 14.6735 55.6972Z" fill="#F1DFC1"/>
<path d="M39.7822 57.0712C39.2055 57.0712 38.698 56.9691 38.2695 56.7614C37.6928 56.4846 37.2676 56.0166 37.0963 55.4761C36.859 54.7181 37.1655 53.7953 37.8345 53.2285C38.3321 52.8066 38.9616 52.6089 39.5647 52.6781C40.2107 52.7539 40.794 53.1626 41.0511 53.7195C41.3246 54.3128 41.2027 55.0609 40.761 55.5025C40.2898 55.9705 39.4889 56.043 38.9781 55.6607C38.5628 55.3509 38.3947 54.7742 38.5958 54.349C38.7078 54.1117 38.9517 53.9338 39.2318 53.881C39.4856 53.8349 39.7262 53.9008 39.8943 54.0623C39.9503 54.115 39.9503 54.204 39.8976 54.26C39.8448 54.3161 39.7559 54.316 39.6998 54.2633C39.5977 54.1644 39.4461 54.1282 39.2813 54.1579C39.0868 54.1941 38.9221 54.3128 38.8463 54.4709C38.698 54.7807 38.8298 55.2059 39.1396 55.4366C39.5482 55.7398 40.1843 55.6805 40.56 55.3048C40.9225 54.9455 41.0214 54.3292 40.794 53.8382C40.5765 53.3669 40.0788 53.0209 39.5285 52.9582C39.011 52.8989 38.4442 53.0802 38.0125 53.4427C37.4258 53.9371 37.1589 54.7412 37.3599 55.3937C37.5049 55.8617 37.8806 56.2671 38.3849 56.511C38.8166 56.7186 39.3439 56.8109 39.9503 56.7878C40.9126 56.7515 41.9079 56.4451 42.9032 55.8782C43.6711 55.4399 44.762 54.7544 45.6057 53.9667C45.6584 53.9173 45.7375 53.9173 45.7902 53.9601C45.8462 54.0063 45.8561 54.0821 45.8199 54.1414C45.487 54.6819 45.2497 55.163 45.0882 55.6211C46.2022 54.6555 47.5139 53.8909 48.9013 53.3966C49.5143 53.1791 50.3251 52.9418 51.1556 53.0604C52.0124 53.1823 52.7342 53.7064 52.9946 54.3952C53.1593 54.8302 53.1264 55.3443 52.9056 55.7991C52.6815 56.2572 52.2992 56.5967 51.8543 56.7351C51.2907 56.9097 50.6579 56.7647 50.2756 56.3758C49.8505 55.9408 49.7846 55.2388 50.124 54.7775C50.302 54.5369 50.5953 54.3754 50.9183 54.3523C51.2182 54.3292 51.5016 54.4248 51.6961 54.6127C51.7521 54.6654 51.7521 54.7544 51.6994 54.8104C51.6466 54.8664 51.5576 54.8664 51.5016 54.8104C51.3665 54.6786 51.1622 54.6094 50.9447 54.6291C50.7041 54.6489 50.4833 54.7643 50.3547 54.9422C50.0977 55.2916 50.157 55.8485 50.48 56.1814C50.7898 56.4978 51.3105 56.6131 51.7752 56.4714C52.1476 56.3561 52.4672 56.0694 52.6584 55.6805C52.8462 55.2916 52.8759 54.8598 52.7375 54.4973C52.5101 53.9008 51.8773 53.4493 51.1193 53.3405C50.3514 53.2318 49.5802 53.4559 48.9969 53.6635C47.4875 54.2007 46.0737 55.0642 44.9103 56.1649C44.8641 56.2078 44.7982 56.2144 44.7422 56.1847C44.6895 56.155 44.6631 56.0924 44.6763 56.0298C44.7785 55.6014 44.9432 55.1696 45.1838 54.6983C44.4522 55.2784 43.648 55.7793 43.0416 56.1221C42.0068 56.712 40.9687 57.0284 39.9602 57.0679C39.9042 57.0712 39.8415 57.0712 39.7822 57.0712Z" fill="#F1DFC1"/>
<path d="M38.3189 56.775C38.2859 56.775 38.2562 56.7651 38.2299 56.742C37.8937 56.4685 37.6663 56.1455 37.5543 55.783C37.317 55.025 37.6235 54.1022 38.2925 53.5353C38.7835 53.1201 39.4328 52.9157 40.0227 52.9849C40.227 53.008 40.4281 53.0673 40.6192 53.1563C40.6884 53.1893 40.7181 53.2717 40.6884 53.3442C40.6555 53.4134 40.5731 53.443 40.5006 53.4101C40.3358 53.3343 40.1644 53.2848 39.9898 53.2618C39.4723 53.1992 38.9055 53.3837 38.4738 53.7462C37.8871 54.2406 37.6202 55.0447 37.8212 55.6973C37.9168 56.0038 38.1145 56.2839 38.4045 56.5212C38.4639 56.5706 38.4738 56.6596 38.4243 56.7189C38.4013 56.7585 38.3617 56.775 38.3189 56.775Z" fill="#F1DFC1"/>
<path d="M51.049 56.7777C50.9798 56.7777 50.9205 56.7282 50.9106 56.659C50.9007 56.5832 50.9534 56.5107 51.0292 56.5008C51.4313 56.4415 51.7707 56.2042 51.9883 55.8351C52.2288 55.4231 52.2816 54.909 52.1267 54.4971C51.8663 53.8182 51.0655 53.4095 50.4294 53.3205C50.3536 53.3106 50.3009 53.2381 50.3108 53.1623C50.3206 53.0865 50.3932 53.0338 50.469 53.0437C51.2072 53.1491 52.0871 53.6072 52.387 54.3982C52.5716 54.8892 52.5123 55.4924 52.2288 55.9768C51.9685 56.4217 51.5565 56.7085 51.0688 56.7777C51.0622 56.7777 51.0556 56.7777 51.049 56.7777Z" fill="#F1DFC1"/>
<path d="M48.1168 57.071H36.3019C36.2228 57.071 36.1602 57.0084 36.1602 56.9293C36.1602 56.8502 36.2228 56.7876 36.3019 56.7876H48.1135C48.1926 56.7876 48.2553 56.8502 48.2553 56.9293C48.2553 57.0084 48.1926 57.071 48.1168 57.071Z" fill="#F1DFC1"/>
<path d="M39.4704 55.1796C39.8235 55.1796 40.1098 54.8933 40.1098 54.5402C40.1098 54.1871 39.8235 53.9009 39.4704 53.9009C39.1173 53.9009 38.8311 54.1871 38.8311 54.5402C38.8311 54.8933 39.1173 55.1796 39.4704 55.1796Z" fill="#F1DFC1"/>
<path d="M48.1179 57.0712C48.471 57.0712 48.7572 56.7849 48.7572 56.4318C48.7572 56.0787 48.471 55.7925 48.1179 55.7925C47.7648 55.7925 47.4785 56.0787 47.4785 56.4318C47.4785 56.7849 47.7648 57.0712 48.1179 57.0712Z" fill="#F1DFC1"/>
<path d="M51.2458 55.6967C51.5989 55.6967 51.8852 55.4104 51.8852 55.0573C51.8852 54.7042 51.5989 54.418 51.2458 54.418C50.8927 54.418 50.6064 54.7042 50.6064 55.0573C50.6064 55.4104 50.8927 55.6967 51.2458 55.6967Z" fill="#F1DFC1"/>
<path d="M53.9554 29.8882C53.3325 29.8882 52.68 29.5883 52.2417 29.0709C51.8198 28.5733 51.6221 27.9438 51.6913 27.3407C51.7671 26.6947 52.1758 26.1114 52.7327 25.8543C53.3259 25.5808 54.0741 25.7027 54.5157 26.1444C54.9837 26.6156 55.0562 27.4165 54.6739 27.9306C54.3641 28.3459 53.7873 28.5139 53.3622 28.3129C53.1249 28.2009 52.9469 27.957 52.8942 27.6736C52.8481 27.4198 52.914 27.1792 53.0755 27.0111C53.1282 26.9551 53.2172 26.9551 53.2732 27.0078C53.3292 27.0606 53.3292 27.1495 53.2765 27.2056C53.1776 27.3077 53.1414 27.4593 53.171 27.6241C53.2073 27.8186 53.3259 27.9833 53.4841 28.0591C53.7939 28.2075 54.2191 28.0756 54.4498 27.7658C54.753 27.3572 54.6936 26.7211 54.3179 26.3454C53.9587 25.9829 53.3424 25.884 52.8514 26.1114C52.3801 26.3289 52.034 26.8266 51.9714 27.3769C51.9121 27.8944 52.0934 28.4612 52.4559 28.893C52.9502 29.4796 53.7544 29.7498 54.4069 29.5455C54.8716 29.4005 55.2803 29.0248 55.5242 28.5205C55.7318 28.0888 55.8241 27.5615 55.801 26.9551C55.7647 25.9928 55.4582 24.9975 54.8914 24.0022C54.4531 23.2343 53.7676 22.1434 52.9799 21.2997C52.9305 21.247 52.9305 21.1679 52.9733 21.1152C53.0161 21.0624 53.0952 21.0493 53.1546 21.0855C53.6951 21.4184 54.1762 21.6557 54.6343 21.8172C53.6687 20.6999 52.9041 19.3915 52.4097 18.0041C52.1922 17.3911 51.9549 16.5803 52.0736 15.7498C52.1955 14.8962 52.7195 14.1712 53.4083 13.9108C53.8434 13.7461 54.3542 13.779 54.8123 13.9998C55.2704 14.2239 55.6098 14.6062 55.7483 15.0511C55.9229 15.6147 55.7779 16.2475 55.389 16.6298C54.954 17.0549 54.252 17.1208 53.7906 16.7814C53.55 16.6034 53.3886 16.3068 53.3655 15.9871C53.3424 15.6872 53.438 15.4038 53.6258 15.2126C53.6819 15.1566 53.7676 15.1566 53.8236 15.2093C53.8796 15.2621 53.8796 15.351 53.8236 15.4071C53.6918 15.5422 53.6225 15.7465 53.6423 15.964C53.6621 16.2046 53.7774 16.4254 53.9554 16.554C54.3048 16.811 54.8617 16.7517 55.1946 16.4287C55.511 16.1189 55.6263 15.5982 55.4813 15.1335C55.366 14.7611 55.0792 14.4414 54.6903 14.2503C54.3015 14.0624 53.873 14.0328 53.5072 14.1712C52.9107 14.3986 52.4592 15.0314 52.3504 15.7894C52.2417 16.5606 52.4658 17.3284 52.6734 17.9118C53.2106 19.4212 54.0741 20.835 55.1748 21.9984C55.2177 22.0445 55.2242 22.1105 55.1946 22.1665C55.1649 22.2192 55.099 22.2456 55.0397 22.2324C54.6113 22.1302 54.1795 21.9655 53.7082 21.7249C54.2883 22.4565 54.7892 23.2607 55.132 23.8671C55.7219 24.9019 56.0416 25.94 56.0778 26.9485C56.1009 27.6011 55.9987 28.1745 55.7713 28.6458C55.4945 29.2225 55.0265 29.651 54.486 29.819C54.3212 29.8619 54.14 29.8882 53.9554 29.8882Z" fill="#F1DFC1"/>
<path d="M54.264 29.43C53.6411 29.43 52.9886 29.1301 52.5503 28.6127C52.1284 28.115 51.9307 27.4822 51.9999 26.8824C52.023 26.6781 52.0823 26.4771 52.1713 26.2859C52.2042 26.2167 52.2866 26.187 52.3591 26.22C52.4283 26.253 52.458 26.3354 52.425 26.4079C52.3492 26.5726 52.2998 26.744 52.28 26.9187C52.2174 27.4361 52.402 28.003 52.7645 28.4347C53.2588 29.0213 54.063 29.2883 54.7155 29.0872C55.022 28.9917 55.2988 28.7939 55.5394 28.5039C55.5889 28.4446 55.6778 28.4347 55.7372 28.4841C55.7965 28.5336 55.8064 28.6225 55.7569 28.6819C55.4801 29.018 55.1604 29.2454 54.7979 29.3575C54.6298 29.4036 54.4486 29.43 54.264 29.43Z" fill="#F1DFC1"/>
<path d="M52.1953 16.5966C52.1887 16.5966 52.1821 16.5966 52.1755 16.5966C52.0997 16.5868 52.047 16.5143 52.0569 16.4385C52.159 15.7233 52.6237 14.8203 53.4114 14.5204C53.9024 14.3325 54.5055 14.3951 54.99 14.6786C55.4349 14.9389 55.7216 15.3509 55.7909 15.8386C55.8007 15.9144 55.748 15.9869 55.6722 15.9968C55.5964 16.0067 55.5239 15.954 55.514 15.8782C55.4547 15.4761 55.2174 15.1367 54.8483 14.9192C54.4363 14.6786 53.9222 14.6258 53.5102 14.7807C52.8313 15.0411 52.4227 15.8419 52.3337 16.478C52.3271 16.5439 52.2645 16.5966 52.1953 16.5966Z" fill="#F1DFC1"/>
<path d="M55.9454 30.745C55.8663 30.745 55.8037 30.6824 55.8037 30.6033V18.7916C55.8037 18.7125 55.8663 18.6499 55.9454 18.6499C56.0245 18.6499 56.0871 18.7125 56.0871 18.7916V30.6033C56.0871 30.6824 56.0245 30.745 55.9454 30.745Z" fill="#F1DFC1"/>
<path d="M53.5534 28.0756C53.2008 28.0756 52.9141 27.7889 52.9141 27.4362C52.9141 27.0836 53.2008 26.7969 53.5534 26.7969C53.9061 26.7969 54.1928 27.0836 54.1928 27.4362C54.1928 27.7889 53.9061 28.0756 53.5534 28.0756Z" fill="#F1DFC1"/>
<path d="M55.4431 19.4311C55.7962 19.4311 56.0824 19.1448 56.0824 18.7917C56.0824 18.4386 55.7962 18.1523 55.4431 18.1523C55.09 18.1523 54.8037 18.4386 54.8037 18.7917C54.8037 19.1448 55.09 19.4311 55.4431 19.4311Z" fill="#F1DFC1"/>
<path d="M54.0739 16.3036C54.427 16.3036 54.7133 16.0174 54.7133 15.6643C54.7133 15.3112 54.427 15.0249 54.0739 15.0249C53.7208 15.0249 53.4346 15.3112 53.4346 15.6643C53.4346 16.0174 53.7208 16.3036 54.0739 16.3036Z" fill="#F1DFC1"/>
<path d="M53.9952 54.0985C53.7942 54.0985 53.5964 54.0622 53.4152 53.993C52.7264 53.7294 52.2024 53.0076 52.0804 52.154C51.9618 51.3235 52.1991 50.5128 52.4166 49.8998C52.9109 48.5123 53.6755 47.2039 54.6412 46.0867C54.1831 46.2482 53.7019 46.4855 53.1614 46.8183C53.1021 46.8546 53.023 46.8414 52.9802 46.7887C52.934 46.7359 52.9373 46.6568 52.9867 46.6041C53.7744 45.7637 54.4599 44.6696 54.8982 43.9017C55.4651 42.9064 55.7716 41.9111 55.8078 40.9487C55.8309 40.3423 55.7353 39.815 55.531 39.3833C55.2871 38.8758 54.8818 38.5034 54.4138 38.3584C53.7612 38.154 52.9604 38.4243 52.4627 39.0109C52.0969 39.4426 51.9156 40.0095 51.9783 40.5269C52.0442 41.0773 52.3902 41.5716 52.8582 41.7924C53.346 42.0198 53.9656 41.921 54.3248 41.5584C54.7005 41.1827 54.7598 40.5467 54.4566 40.138C54.2259 39.8249 53.8008 39.6964 53.491 39.8447C53.3328 39.9205 53.2141 40.0853 53.1779 40.2797C53.1482 40.4445 53.1878 40.5961 53.2833 40.6983C53.3361 40.7543 53.3361 40.8433 53.2801 40.896C53.224 40.9487 53.135 40.9487 53.0823 40.8927C52.9208 40.7246 52.8549 40.4841 52.901 40.2303C52.9505 39.9502 53.1318 39.7063 53.369 39.5909C53.7942 39.3866 54.3709 39.5547 54.6807 39.9732C55.063 40.4874 54.9905 41.2882 54.5225 41.7595C54.0809 42.2011 53.3328 42.323 52.7396 42.0495C52.1826 41.7924 51.7739 41.2091 51.6981 40.5632C51.6256 39.9633 51.8267 39.3306 52.2485 38.8329C52.8154 38.1606 53.7382 37.8574 54.4962 38.0947C55.0367 38.2628 55.5046 38.6912 55.7815 39.268C56.0089 39.7425 56.111 40.3127 56.088 40.9652C56.0517 41.9737 55.732 43.0118 55.1421 44.0467C54.7961 44.6531 54.2984 45.4572 53.7184 46.1889C54.1897 45.9483 54.6214 45.7835 55.0498 45.6813C55.1092 45.6649 55.1718 45.6945 55.2047 45.7472C55.2344 45.8 55.2278 45.8692 55.185 45.9153C54.0842 47.0787 53.2207 48.4925 52.6835 50.0019C52.4759 50.5853 52.2518 51.3532 52.3606 52.1244C52.466 52.8791 52.9208 53.5151 53.5173 53.7425C53.8799 53.8809 54.3116 53.8513 54.7005 53.6634C55.0894 53.4756 55.3761 53.1526 55.4915 52.7802C55.6365 52.3155 55.5211 51.7948 55.2047 51.485C54.8719 51.1587 54.3182 51.1027 53.9656 51.3598C53.7909 51.4883 53.6722 51.7091 53.6525 51.9497C53.636 52.1672 53.7019 52.3715 53.8337 52.5067C53.8865 52.5627 53.8865 52.6517 53.8337 52.7044C53.7777 52.7571 53.6887 52.7571 53.636 52.7011C53.4448 52.5067 53.3493 52.2232 53.3756 51.9233C53.402 51.6036 53.5602 51.307 53.8008 51.1291C54.2622 50.7896 54.9674 50.8555 55.3992 51.2807C55.7881 51.663 55.9331 52.2957 55.7584 52.8593C55.62 53.3042 55.2805 53.6865 54.8224 53.9106C54.5522 54.0326 54.272 54.0985 53.9952 54.0985Z" fill="#F1DFC1"/>
<path d="M52.3001 41.6934C52.2474 41.6934 52.1979 41.6638 52.1749 41.6144C52.0859 41.4232 52.0266 41.2222 52.0035 41.0178C51.9343 40.4246 52.1386 39.7787 52.5539 39.2876C53.1207 38.6186 54.0435 38.3121 54.8015 38.5494C55.1608 38.6614 55.4837 38.8888 55.7606 39.225C55.81 39.2843 55.8001 39.3733 55.7408 39.4227C55.6815 39.4722 55.5925 39.4623 55.5431 39.403C55.3025 39.1096 55.0256 38.9152 54.7191 38.8196C54.0666 38.6153 53.2657 38.8855 52.7681 39.4722C52.4023 39.9039 52.221 40.4707 52.2836 40.9882C52.3034 41.1628 52.3528 41.3342 52.4319 41.499C52.4649 41.5682 52.4352 41.6539 52.366 41.6869C52.343 41.6902 52.3199 41.6934 52.3001 41.6934Z" fill="#F1DFC1"/>
<path d="M54.0145 53.4854C53.8069 53.4854 53.5992 53.4492 53.4114 53.38C52.6237 53.08 52.159 52.177 52.0569 51.4619C52.047 51.3861 52.0997 51.3136 52.1755 51.3037C52.2513 51.2905 52.3238 51.3465 52.3337 51.4223C52.4227 52.0584 52.8313 52.8592 53.5102 53.1196C53.9222 53.2778 54.433 53.2251 54.8483 52.9812C55.2174 52.7637 55.4547 52.4242 55.514 52.0221C55.5239 51.9463 55.5964 51.8903 55.6722 51.9035C55.748 51.9134 55.8007 51.9859 55.7909 52.0617C55.7183 52.5494 55.4349 52.9614 54.99 53.2218C54.6934 53.3964 54.3506 53.4854 54.0145 53.4854Z" fill="#F1DFC1"/>
<path d="M55.9454 49.2439C55.8663 49.2439 55.8037 49.1813 55.8037 49.1022V37.2872C55.8037 37.2081 55.8663 37.1455 55.9454 37.1455C56.0245 37.1455 56.0871 37.2081 56.0871 37.2872V49.1022C56.0871 49.1813 56.0245 49.2439 55.9454 49.2439Z" fill="#F1DFC1"/>
<path d="M53.5544 39.8218C53.2018 39.8218 52.915 40.1085 52.915 40.4611C52.915 40.8138 53.2018 41.1005 53.5544 41.1005C53.907 41.1005 54.1938 40.8138 54.1938 40.4611C54.1938 40.1085 53.907 39.8218 53.5544 39.8218Z" fill="#F1DFC1"/>
<path d="M55.445 49.745C55.7981 49.745 56.0844 49.4588 56.0844 49.1057C56.0844 48.7526 55.7981 48.4663 55.445 48.4663C55.0919 48.4663 54.8057 48.7526 54.8057 49.1057C54.8057 49.4588 55.0919 49.745 55.445 49.745Z" fill="#F1DFC1"/>
<path d="M54.0739 52.8725C54.427 52.8725 54.7133 52.5862 54.7133 52.2331C54.7133 51.88 54.427 51.5938 54.0739 51.5938C53.7208 51.5938 53.4346 51.88 53.4346 52.2331C53.4346 52.5862 53.7208 52.8725 54.0739 52.8725Z" fill="#F1DFC1"/>
<path d="M11.9697 29.8883C11.7852 29.8883 11.6072 29.862 11.4358 29.8092C10.8953 29.6412 10.4273 29.2127 10.1505 28.636C9.9231 28.1614 9.82094 27.5913 9.84401 26.9387C9.88026 25.9302 10.1999 24.8921 10.7899 23.8573C11.1359 23.2509 11.6336 22.4467 12.2136 21.7151C11.7456 21.9557 11.3106 22.1204 10.8821 22.2226C10.8228 22.2358 10.7602 22.2094 10.7272 22.1567C10.6976 22.104 10.7042 22.0348 10.747 21.9886C11.8478 20.8252 12.7112 19.4114 13.2484 17.902C13.4561 17.3187 13.6802 16.5508 13.5714 15.7796C13.4627 15.0249 13.0111 14.3888 12.4146 14.1614C12.0521 14.023 11.6204 14.0527 11.2315 14.2405C10.8426 14.4284 10.5559 14.7513 10.4405 15.1237C10.2955 15.5884 10.4142 16.1091 10.7305 16.4189C11.0634 16.7452 11.6171 16.8012 11.9697 16.5442C12.1477 16.4156 12.263 16.1948 12.2828 15.9543C12.2993 15.7367 12.2334 15.5324 12.1015 15.3973C12.0488 15.3413 12.0488 15.2523 12.1015 15.1995C12.1576 15.1468 12.2465 15.1468 12.2993 15.2028C12.4904 15.3973 12.586 15.6807 12.5596 15.9773C12.5333 16.297 12.3751 16.5936 12.1312 16.7716C11.6698 17.111 10.9645 17.0418 10.5328 16.62C10.1439 16.2377 9.9989 15.6049 10.1736 15.0414C10.312 14.5964 10.6514 14.2141 11.1095 13.99C11.5676 13.7659 12.0785 13.733 12.5135 13.901C13.2023 14.1647 13.7263 14.8865 13.8482 15.74C13.9669 16.5705 13.7296 17.3813 13.5121 17.9943C13.021 19.3817 12.2564 20.6901 11.2875 21.8074C11.7456 21.6459 12.2268 21.4086 12.7673 21.0757C12.8266 21.0395 12.9057 21.0527 12.9485 21.1054C12.9947 21.1581 12.9914 21.2372 12.9419 21.2899C12.1543 22.1303 11.4688 23.2245 11.0304 23.9924C10.4636 24.9877 10.1571 25.983 10.1208 26.9453C10.0978 27.5517 10.1933 28.079 10.3977 28.5108C10.6416 29.0183 11.0469 29.3907 11.5149 29.5357C12.1675 29.74 12.9683 29.4698 13.4659 28.8832C13.8318 28.4514 14.013 27.8846 13.9504 27.3672C13.8845 26.8168 13.5384 26.3224 13.0705 26.1016C12.5794 25.8742 11.9631 25.9731 11.6039 26.3356C11.2282 26.7113 11.1722 27.3474 11.4721 27.756C11.7061 28.0691 12.1279 28.1977 12.4377 28.0494C12.5959 27.9736 12.7145 27.8088 12.7508 27.6143C12.7804 27.4495 12.7409 27.2979 12.6453 27.1958C12.5926 27.1398 12.5926 27.0508 12.6486 26.998C12.7046 26.9453 12.7936 26.9453 12.8464 27.0013C13.0078 27.1694 13.0738 27.41 13.0276 27.6638C12.9782 27.9439 12.7969 28.1878 12.5596 28.3031C12.1345 28.5075 11.5578 28.3394 11.248 27.9208C10.8657 27.4067 10.9382 26.6059 11.4062 26.1346C11.8478 25.693 12.5959 25.571 13.1891 25.8446C13.7461 26.1016 14.1547 26.6849 14.2305 27.3309C14.303 27.934 14.102 28.5635 13.6802 29.0611C13.2451 29.5884 12.5926 29.8883 11.9697 29.8883Z" fill="#F1DFC1"/>
<path d="M11.6594 29.4302C11.4781 29.4302 11.2968 29.4039 11.1255 29.3511C10.7629 29.2391 10.4433 29.0117 10.1664 28.6755C10.117 28.6162 10.1269 28.5272 10.1862 28.4778C10.2455 28.4283 10.3345 28.4382 10.3839 28.4976C10.6245 28.7909 10.9014 28.9853 11.2079 29.0809C11.8604 29.2852 12.6612 29.0183 13.1589 28.4283C13.5247 27.9966 13.706 27.4298 13.6433 26.9123C13.6236 26.7377 13.5741 26.5663 13.495 26.4015C13.4621 26.3323 13.4917 26.2466 13.5643 26.2137C13.6335 26.1807 13.7192 26.2104 13.7521 26.2796C13.8411 26.4707 13.9004 26.6718 13.9235 26.8761C13.996 27.4759 13.7949 28.1087 13.3731 28.6063C12.9348 29.1303 12.2822 29.4302 11.6594 29.4302Z" fill="#F1DFC1"/>
<path d="M13.7306 16.597C13.6613 16.597 13.602 16.5476 13.5921 16.4751C13.5032 15.839 13.0945 15.0382 12.4156 14.7778C12.0036 14.6229 11.4928 14.6756 11.0775 14.9162C10.7084 15.1337 10.4711 15.4732 10.4118 15.8753C10.4019 15.9511 10.3294 16.0038 10.2536 15.9939C10.1778 15.984 10.1251 15.9115 10.135 15.8357C10.2075 15.348 10.4909 14.936 10.9358 14.6756C11.4203 14.3922 12.0234 14.3296 12.5145 14.5174C13.3021 14.8174 13.7668 15.7204 13.869 16.4355C13.8789 16.5113 13.8261 16.5838 13.7503 16.5937C13.7437 16.597 13.7371 16.597 13.7306 16.597Z" fill="#F1DFC1"/>
<path d="M9.97961 30.745C9.90051 30.745 9.83789 30.6824 9.83789 30.6033V18.7916C9.83789 18.7125 9.90051 18.6499 9.97961 18.6499C10.0587 18.6499 10.1213 18.7125 10.1213 18.7916V30.6033C10.118 30.6824 10.0554 30.745 9.97961 30.745Z" fill="#F1DFC1"/>
<path d="M12.3728 28.0756C12.7259 28.0756 13.0121 27.7893 13.0121 27.4362C13.0121 27.0831 12.7259 26.7969 12.3728 26.7969C12.0197 26.7969 11.7334 27.0831 11.7334 27.4362C11.7334 27.7893 12.0197 28.0756 12.3728 28.0756Z" fill="#F1DFC1"/>
<path d="M10.4802 19.4311C10.8333 19.4311 11.1195 19.1448 11.1195 18.7917C11.1195 18.4386 10.8333 18.1523 10.4802 18.1523C10.1271 18.1523 9.84082 18.4386 9.84082 18.7917C9.84082 19.1448 10.1271 19.4311 10.4802 19.4311Z" fill="#F1DFC1"/>
<path d="M11.8513 16.3036C12.2044 16.3036 12.4906 16.0174 12.4906 15.6643C12.4906 15.3112 12.2044 15.0249 11.8513 15.0249C11.4982 15.0249 11.2119 15.3112 11.2119 15.6643C11.2119 16.0174 11.4982 16.3036 11.8513 16.3036Z" fill="#F1DFC1"/>
<path d="M11.9305 54.0983C11.6537 54.0983 11.3703 54.0324 11.1066 53.9039C10.6485 53.6798 10.3091 53.2975 10.1706 52.8525C9.99597 52.289 10.141 51.6562 10.5299 51.2739C10.9649 50.8488 11.6669 50.7829 12.1283 51.1223C12.3689 51.3003 12.5303 51.5969 12.5567 51.9166C12.5798 52.2165 12.4842 52.4999 12.2964 52.6944C12.2436 52.7504 12.1546 52.7504 12.0986 52.6976C12.0426 52.6449 12.0426 52.5559 12.0986 52.4999C12.2304 52.3648 12.2996 52.1605 12.2799 51.9429C12.2601 51.7024 12.1448 51.4816 11.9668 51.353C11.6174 51.096 11.0605 51.1553 10.7276 51.4783C10.4112 51.788 10.2959 52.3088 10.4376 52.7735C10.5529 53.1459 10.8397 53.4655 11.2286 53.6567C11.6174 53.8445 12.0492 53.8742 12.4117 53.7358C13.0082 53.5084 13.4597 52.8756 13.5685 52.1176C13.6772 51.3464 13.4531 50.5785 13.2455 49.9952C12.7083 48.4858 11.8448 47.0719 10.7441 45.9086C10.7012 45.8624 10.6947 45.7965 10.7243 45.7405C10.754 45.6878 10.8199 45.6581 10.8792 45.6746C11.3077 45.7767 11.7394 45.9415 12.2107 46.1821C11.6306 45.4505 11.133 44.6463 10.7869 44.0399C10.197 43.0051 9.87733 41.967 9.84108 40.9585C9.81801 40.3059 9.92018 39.7325 10.1476 39.2612C10.4244 38.6845 10.8924 38.256 11.4329 38.088C12.1876 37.8507 13.1137 38.1572 13.6805 38.8262C14.1024 39.3238 14.3001 39.9566 14.2309 40.5564C14.1551 41.2024 13.7464 41.7857 13.1895 42.0428C12.5963 42.3163 11.8481 42.1944 11.4065 41.7527C10.9385 41.2815 10.866 40.4806 11.2483 39.9665C11.5581 39.5512 12.1349 39.3832 12.56 39.5842C12.7973 39.6962 12.9753 39.9401 13.028 40.2235C13.0741 40.4773 13.0082 40.7179 12.8467 40.886C12.794 40.942 12.705 40.942 12.649 40.8893C12.593 40.8365 12.593 40.7476 12.6457 40.6915C12.7446 40.5894 12.7808 40.4378 12.7512 40.273C12.7149 40.0785 12.5963 39.9138 12.4381 39.838C12.1283 39.6896 11.7031 39.8215 11.4724 40.1346C11.1692 40.5399 11.2286 41.1793 11.6043 41.555C11.9635 41.9175 12.5798 42.0164 13.0708 41.789C13.5421 41.5715 13.8882 41.0738 13.9508 40.5235C14.0101 40.006 13.8288 39.4392 13.4663 39.0074C12.972 38.4208 12.1678 38.1539 11.5153 38.3549C11.0506 38.4999 10.6419 38.8723 10.398 39.3799C10.1904 39.8116 10.0981 40.3389 10.1212 40.9453C10.1575 41.9076 10.464 42.9029 11.0308 43.8982C11.4691 44.6661 12.1546 45.7603 12.9423 46.6007C12.9917 46.6534 12.9917 46.7325 12.9489 46.7852C12.9061 46.838 12.827 46.8511 12.7676 46.8149C12.2271 46.482 11.746 46.2447 11.2879 46.0832C12.2535 47.2005 13.0181 48.5089 13.5125 49.8963C13.73 50.5093 13.9673 51.3201 13.8486 52.1506C13.7267 53.0074 13.2027 53.7292 12.5139 53.9896C12.3293 54.0621 12.1316 54.0983 11.9305 54.0983Z" fill="#F1DFC1"/>
<path d="M13.6236 41.6937C13.6038 41.6937 13.584 41.6904 13.5643 41.6805C13.495 41.6475 13.4654 41.5652 13.495 41.4926C13.5708 41.3279 13.6203 41.1565 13.6433 40.9818C13.706 40.4644 13.5214 39.8975 13.1589 39.4658C12.6645 38.8792 11.8604 38.6122 11.2079 38.8133C10.9014 38.9089 10.6212 39.1066 10.3839 39.3966C10.3345 39.4559 10.2455 39.4658 10.1862 39.4164C10.1269 39.3669 10.117 39.278 10.1664 39.2186C10.44 38.8825 10.7629 38.6551 11.1255 38.543C11.8835 38.3057 12.8062 38.6122 13.3731 39.2813C13.7884 39.7723 13.9927 40.4183 13.9235 41.0115C13.9004 41.2158 13.8411 41.4168 13.7521 41.608C13.7257 41.664 13.6763 41.6937 13.6236 41.6937Z" fill="#F1DFC1"/>
<path d="M11.9113 53.4857C11.5752 53.4857 11.2324 53.3967 10.9358 53.222C10.4909 52.9616 10.2042 52.5497 10.135 52.0619C10.1251 51.9861 10.1778 51.9136 10.2536 51.9037C10.3294 51.8906 10.4019 51.9466 10.4118 52.0224C10.4711 52.4245 10.7084 52.7639 11.0775 52.9814C11.4895 53.222 12.0036 53.2747 12.4156 53.1198C13.0945 52.8595 13.5032 52.0586 13.5921 51.4226C13.602 51.3468 13.6778 51.294 13.7503 51.3039C13.8261 51.3138 13.8789 51.3863 13.869 51.4621C13.7668 52.1773 13.3021 53.0803 12.5145 53.3802C12.3266 53.4527 12.119 53.4857 11.9113 53.4857Z" fill="#F1DFC1"/>
<path d="M9.97961 49.2439C9.90051 49.2439 9.83789 49.1813 9.83789 49.1022V37.2872C9.83789 37.2081 9.90051 37.1455 9.97961 37.1455C10.0587 37.1455 10.1213 37.2081 10.1213 37.2872V49.1022C10.118 49.1813 10.0554 49.2439 9.97961 49.2439Z" fill="#F1DFC1"/>
<path d="M12.3728 41.1005C12.7259 41.1005 13.0121 40.8142 13.0121 40.4611C13.0121 40.108 12.7259 39.8218 12.3728 39.8218C12.0197 39.8218 11.7334 40.108 11.7334 40.4611C11.7334 40.8142 12.0197 41.1005 12.3728 41.1005Z" fill="#F1DFC1"/>
<path d="M10.4802 49.745C10.8333 49.745 11.1195 49.4588 11.1195 49.1057C11.1195 48.7526 10.8333 48.4663 10.4802 48.4663C10.1271 48.4663 9.84082 48.7526 9.84082 49.1057C9.84082 49.4588 10.1271 49.745 10.4802 49.745Z" fill="#F1DFC1"/>
<path d="M11.8513 52.8725C12.2044 52.8725 12.4906 52.5862 12.4906 52.2331C12.4906 51.88 12.2044 51.5938 11.8513 51.5938C11.4982 51.5938 11.2119 51.88 11.2119 52.2331C11.2119 52.5862 11.4982 52.8725 11.8513 52.8725Z" fill="#F1DFC1"/>
<path d="M56.6234 57.75H9.30089C9.22179 57.75 9.15918 57.6874 9.15918 57.6083V10.2858C9.15918 10.2067 9.22179 10.144 9.30089 10.144H56.6234C56.7025 10.144 56.7651 10.2067 56.7651 10.2858V57.6083C56.7651 57.6874 56.7025 57.75 56.6234 57.75ZM9.43931 57.4698H56.4817V10.4275H9.43931V57.4698Z" fill="#F1DFC1"/>
<path d="M20.8545 25.8052L32.6793 19.0161L44.5042 25.8052H20.8545Z" fill="#E9A39B"/>
<path d="M26.6582 24.2561L32.6794 20.8022L38.7006 24.2561H26.6582Z" fill="#F1DFC1"/>
<path d="M24.2989 29.3184H21.8008V41.5947H24.2989V29.3184Z" fill="#E9A39B"/>
<path d="M29.1003 29.3184H26.6055V41.5947H29.1003V29.3184Z" fill="#E9A39B"/>
<path d="M33.9024 29.3184H31.4043V41.5947H33.9024V29.3184Z" fill="#E9A39B"/>
<path d="M38.7071 29.3184H36.209V41.5947H38.7071V29.3184Z" fill="#E9A39B"/>
<path d="M43.5095 29.3184H41.0146V41.5947H43.5095V29.3184Z" fill="#E9A39B"/>
<path d="M44.4678 25.7129H20.8906V28.9426H44.4678V25.7129Z" fill="#F1DFC1"/>
<path d="M44.4678 41.9736H20.8906V42.9689H44.4678V41.9736Z" fill="#F1DFC1"/>
<path d="M45.3619 42.9692H19.9951V43.9645H45.3619V42.9692Z" fill="#E9A39B"/>
<path d="M46.0733 43.9644H19.2861V44.9597H46.0733V43.9644Z" fill="#F1DFC1"/>
<path d="M46.8609 44.9565H18.4951V45.9518H46.8609V44.9565Z" fill="#E9A39B"/>
<path d="M24.6677 41.2188H21.4775V41.9702H24.6677V41.2188Z" fill="#E9A39B"/>
<path d="M29.4724 41.2188H26.2822V41.9702H29.4724V41.2188Z" fill="#E9A39B"/>
<path d="M34.2742 41.2188H31.084V41.9702H34.2742V41.2188Z" fill="#E9A39B"/>
<path d="M39.0769 41.2188H35.8867V41.9702H39.0769V41.2188Z" fill="#E9A39B"/>
<path d="M43.8777 41.2188H40.6875V41.9702H43.8777V41.2188Z" fill="#E9A39B"/>
<path d="M24.6677 28.9424H21.4775V29.6938H24.6677V28.9424Z" fill="#E9A39B"/>
<path d="M29.4724 28.9424H26.2822V29.6938H29.4724V28.9424Z" fill="#E9A39B"/>
<path d="M34.2742 28.9424H31.084V29.6938H34.2742V28.9424Z" fill="#E9A39B"/>
<path d="M39.0769 28.9424H35.8867V29.6938H39.0769V28.9424Z" fill="#E9A39B"/>
<path d="M43.8777 28.9424H40.6875V29.6938H43.8777V28.9424Z" fill="#E9A39B"/>
</g>
<defs>
<filter id="filter0_d_1039_38753" x="0" y="0.961914" width="66" height="65.9805" filterUnits="userSpaceOnUse" color-interpolation-filters="sRGB">
<feFlood flood-opacity="0" result="BackgroundImageFix"/>
<feColorMatrix in="SourceAlpha" type="matrix" values="0 0 0 0 0 0 0 0 0 0 0 0 0 0 0 0 0 0 127 0" result="hardAlpha"/>
<feOffset/>
<feGaussianBlur stdDeviation="2.5"/>
<feComposite in2="hardAlpha" operator="out"/>
<feColorMatrix type="matrix" values="0 0 0 0 0 0 0 0 0 0 0 0 0 0 0 0 0 0 0.3 0"/>
<feBlend mode="normal" in2="BackgroundImageFix" result="effect1_dropShadow_1039_38753"/>
<feBlend mode="normal" in="SourceGraphic" in2="effect1_dropShadow_1039_38753" result="shape"/>
</filter>
</defs>
</svg>
