<svg width="66" height="67" viewBox="0 0 66 67" fill="none" xmlns="http://www.w3.org/2000/svg">
<g filter="url(#filter0_d_1039_39588)">
<path d="M5 52.7128C5.06591 52.6996 5.13512 52.693 5.20433 52.693C5.74482 52.693 6.18645 53.0819 6.18645 53.5598C6.18645 54.0377 5.74812 54.4266 5.20433 54.4266C5.13512 54.4266 5.06591 54.42 5 54.4068V55.7283C5.06591 55.7152 5.13512 55.7086 5.20433 55.7086C5.74482 55.7086 6.18645 56.0975 6.18645 56.5753C6.18645 57.0532 5.74812 57.4421 5.20433 57.4421C5.13512 57.4421 5.06591 57.4355 5 57.4223V58.7439C5.06591 58.7307 5.13512 58.7241 5.20433 58.7241C5.74482 58.7241 6.18645 59.113 6.18645 59.5909C6.18645 60.0687 5.74812 60.4576 5.20433 60.4576C5.13512 60.4576 5.06591 60.451 5 60.4379V61.944H7.62996C7.597 61.8583 7.57722 61.7693 7.57722 61.6737C7.57722 61.1959 8.01553 60.807 8.55932 60.807C9.1031 60.807 9.54144 61.1959 9.54144 61.6737C9.54144 61.7693 9.51836 61.8583 9.4887 61.944H11.1596C11.1266 61.8583 11.1069 61.7693 11.1069 61.6737C11.1069 61.1959 11.5452 60.807 12.089 60.807C12.6328 60.807 13.0711 61.1959 13.0711 61.6737C13.0711 61.7693 13.048 61.8583 13.0184 61.944H14.6893C14.6563 61.8583 14.6365 61.7693 14.6365 61.6737C14.6365 61.1959 15.0749 60.807 15.6187 60.807C16.1591 60.807 16.6008 61.1959 16.6008 61.6737C16.6008 61.7693 16.5777 61.8583 16.548 61.944H18.2189C18.186 61.8583 18.1662 61.7693 18.1662 61.6737C18.1662 61.1959 18.6045 60.807 19.1483 60.807C19.6888 60.807 20.1304 61.1959 20.1304 61.6737C20.1304 61.7693 20.1073 61.8583 20.0777 61.944H21.7486C21.7156 61.8583 21.6959 61.7693 21.6959 61.6737C21.6959 61.1959 22.1342 60.807 22.678 60.807C23.2185 60.807 23.6601 61.1959 23.6601 61.6737C23.6601 61.7693 23.637 61.8583 23.6074 61.944H25.2783C25.2453 61.8583 25.2255 61.7693 25.2255 61.6737C25.2255 61.1959 25.6639 60.807 26.2076 60.807C26.7481 60.807 27.1897 61.1959 27.1897 61.6737C27.1897 61.7693 27.1667 61.8583 27.137 61.944H28.8079C28.775 61.8583 28.7552 61.7693 28.7552 61.6737C28.7552 61.1959 29.1935 60.807 29.7373 60.807C30.2778 60.807 30.7194 61.1959 30.7194 61.6737C30.7194 61.7693 30.6963 61.8583 30.6667 61.944H32.3376C32.3046 61.8583 32.2849 61.7693 32.2849 61.6737C32.2849 61.1959 32.7232 60.807 33.267 60.807C33.8107 60.807 34.2491 61.1959 34.2491 61.6737C34.2491 61.7693 34.226 61.8583 34.1963 61.944H35.8672C35.8343 61.8583 35.8145 61.7693 35.8145 61.6737C35.8145 61.1959 36.2528 60.807 36.7966 60.807C37.3371 60.807 37.7787 61.1959 37.7787 61.6737C37.7787 61.7693 37.7556 61.8583 37.726 61.944H39.3969C39.3639 61.8583 39.3442 61.7693 39.3442 61.6737C39.3442 61.1959 39.7825 60.807 40.3263 60.807C40.8668 60.807 41.3084 61.1959 41.3084 61.6737C41.3084 61.7693 41.2853 61.8583 41.2557 61.944H42.9266C42.8936 61.8583 42.8738 61.7693 42.8738 61.6737C42.8738 61.1959 43.3122 60.807 43.8559 60.807C44.3964 60.807 44.838 61.1959 44.838 61.6737C44.838 61.7693 44.815 61.8583 44.7853 61.944H46.4562C46.4233 61.8583 46.4035 61.7693 46.4035 61.6737C46.4035 61.1959 46.8418 60.807 47.3856 60.807C47.9294 60.807 48.3677 61.1959 48.3677 61.6737C48.3677 61.7693 48.3446 61.8583 48.315 61.944H49.9859C49.9529 61.8583 49.9332 61.7693 49.9332 61.6737C49.9332 61.1959 50.3715 60.807 50.9153 60.807C51.4558 60.807 51.8974 61.1959 51.8974 61.6737C51.8974 61.7693 51.8743 61.8583 51.8446 61.944H53.5155C53.4826 61.8583 53.4628 61.7693 53.4628 61.6737C53.4628 61.1959 53.9011 60.807 54.4449 60.807C54.9854 60.807 55.427 61.1959 55.427 61.6737C55.427 61.7693 55.404 61.8583 55.3743 61.944H57.0452C57.0122 61.8583 56.9925 61.7693 56.9925 61.6737C56.9925 61.1959 57.4308 60.807 57.9746 60.807C58.5151 60.807 58.9567 61.1959 58.9567 61.6737C58.9567 61.7693 58.9336 61.8583 58.904 61.944H61V60.4576C60.4595 60.4576 60.0179 60.0687 60.0179 59.5909C60.0179 59.113 60.4562 58.7241 61 58.7241V57.4421C60.4595 57.4421 60.0179 57.0532 60.0179 56.5753C60.0179 56.0975 60.4562 55.7086 61 55.7086V54.4266C60.4595 54.4266 60.0179 54.0377 60.0179 53.5598C60.0179 53.0819 60.4562 52.693 61 52.693V52.6832V51.4011C60.4595 51.4011 60.0179 51.0122 60.0179 50.5344C60.0179 50.0565 60.4562 49.6676 61 49.6676V48.3856C60.4595 48.3856 60.0179 47.9967 60.0179 47.5188C60.0179 47.041 60.4562 46.6521 61 46.6521V45.3701C60.4595 45.3701 60.0179 44.9812 60.0179 44.5033C60.0179 44.0254 60.4562 43.6365 61 43.6365V42.3545C60.4595 42.3545 60.0179 41.9656 60.0179 41.4878C60.0179 41.0099 60.4562 40.621 61 40.621V39.339C60.4595 39.339 60.0179 38.9501 60.0179 38.4722C60.0179 37.9943 60.4562 37.6055 61 37.6055V36.3234C60.4595 36.3234 60.0179 35.9346 60.0179 35.4567C60.0179 34.9788 60.4562 34.5899 61 34.5899V33.3079C60.4595 33.3079 60.0179 32.919 60.0179 32.4411C60.0179 31.9633 60.4562 31.5744 61 31.5744V30.2891C60.4595 30.2891 60.0179 29.9002 60.0179 29.4223C60.0179 28.9444 60.4562 28.5556 61 28.5556V27.2735C60.4595 27.2735 60.0179 26.8847 60.0179 26.4068C60.0179 25.9289 60.4562 25.54 61 25.54V24.258C60.4595 24.258 60.0179 23.8691 60.0179 23.3912C60.0179 22.9134 60.4562 22.5245 61 22.5245V21.2425C60.4595 21.2425 60.0179 20.8536 60.0179 20.3757C60.0179 19.8978 60.4562 19.5089 61 19.5089V18.2269C60.4595 18.2269 60.0179 17.838 60.0179 17.3602C60.0179 16.8823 60.4562 16.4934 61 16.4934V15.2114C60.4595 15.2114 60.0179 14.8225 60.0179 14.3446C60.0179 13.8668 60.4562 13.4779 61 13.4779V12.1959C60.4595 12.1959 60.0179 11.807 60.0179 11.3291C60.0179 10.8512 60.4562 10.4623 61 10.4623V9.18032C60.4595 9.18032 60.0179 8.79143 60.0179 8.31356C60.0179 7.83569 60.4562 7.4468 61 7.4468V5.96045H58.9567C58.9567 6.43832 58.5184 6.82721 57.9746 6.82721C57.4341 6.82721 56.9925 6.43832 56.9925 5.96045H55.4303C55.4303 6.43832 54.992 6.82721 54.4482 6.82721C53.9077 6.82721 53.4661 6.43832 53.4661 5.96045H51.904C51.904 6.43832 51.4656 6.82721 50.9219 6.82721C50.3814 6.82721 49.9397 6.43832 49.9397 5.96045H48.3776C48.3776 6.43832 47.9393 6.82721 47.3955 6.82721C46.8517 6.82721 46.4134 6.43832 46.4134 5.96045H44.8512C44.8512 6.43832 44.4129 6.82721 43.8691 6.82721C43.3286 6.82721 42.887 6.43832 42.887 5.96045H41.3249C41.3249 6.43832 40.8865 6.82721 40.3428 6.82721C39.8023 6.82721 39.3606 6.43832 39.3606 5.96045H37.7985C37.7985 6.43832 37.3602 6.82721 36.8164 6.82721C36.2759 6.82721 35.8343 6.43832 35.8343 5.96045H34.2721C34.2721 6.43832 33.8338 6.82721 33.29 6.82721C32.7462 6.82721 32.3079 6.43832 32.3079 5.96045H30.7458C30.7458 6.43832 30.3074 6.82721 29.7637 6.82721C29.2232 6.82721 28.7816 6.43832 28.7816 5.96045H27.2194C27.2194 6.43832 26.7811 6.82721 26.2373 6.82721C25.6968 6.82721 25.2552 6.43832 25.2552 5.96045H23.693C23.693 6.43832 23.2547 6.82721 22.7109 6.82721C22.1704 6.82721 21.7288 6.43832 21.7288 5.96045H20.1667C20.1667 6.43832 19.7284 6.82721 19.1846 6.82721C18.6441 6.82721 18.2024 6.43832 18.2024 5.96045H16.6403C16.6403 6.43832 16.202 6.82721 15.6582 6.82721C15.1177 6.82721 14.6761 6.43832 14.6761 5.96045H13.1139C13.1139 6.43832 12.6756 6.82721 12.1318 6.82721C11.588 6.82721 11.1497 6.43832 11.1497 5.96045H9.58757C9.58757 6.43832 9.14925 6.82721 8.60546 6.82721C8.06168 6.82721 7.62336 6.43832 7.62336 5.96045H5.04944V7.46657C5.11536 7.45339 5.18456 7.4468 5.25377 7.4468C5.79426 7.4468 6.23588 7.83569 6.23588 8.31356C6.23588 8.79143 5.79756 9.18032 5.25377 9.18032C5.18456 9.18032 5.11536 9.17373 5.04944 9.16055V10.4821C5.11536 10.4689 5.18456 10.4623 5.25377 10.4623C5.79426 10.4623 6.23588 10.8512 6.23588 11.3291C6.23588 11.807 5.79756 12.1959 5.25377 12.1959C5.18456 12.1959 5.11536 12.1893 5.04944 12.1761V13.4976C5.11536 13.4845 5.18456 13.4779 5.25377 13.4779C5.79426 13.4779 6.23588 13.8668 6.23588 14.3446C6.23588 14.8225 5.79756 15.2114 5.25377 15.2114C5.18456 15.2114 5.11536 15.2048 5.04944 15.1916V16.5132C5.11536 16.5 5.18456 16.4934 5.25377 16.4934C5.79426 16.4934 6.23588 16.8823 6.23588 17.3602C6.23588 17.838 5.79756 18.2269 5.25377 18.2269C5.18456 18.2269 5.11536 18.2203 5.04944 18.2072V19.5287C5.11536 19.5155 5.18456 19.5089 5.25377 19.5089C5.79426 19.5089 6.23588 19.8978 6.23588 20.3757C6.23588 20.8536 5.79756 21.2425 5.25377 21.2425C5.18456 21.2425 5.11536 21.2359 5.04944 21.2227V22.5443C5.11536 22.5311 5.18456 22.5245 5.25377 22.5245C5.79426 22.5245 6.23588 22.9134 6.23588 23.3912C6.23588 23.8691 5.79756 24.258 5.25377 24.258C5.18456 24.258 5.11536 24.2514 5.04944 24.2382V25.5598C5.11536 25.5466 5.18456 25.54 5.25377 25.54C5.79426 25.54 6.23588 25.9289 6.23588 26.4068C6.23588 26.8847 5.79756 27.2735 5.25377 27.2735C5.18456 27.2735 5.11536 27.267 5.04944 27.2538V28.5753C5.11536 28.5621 5.18456 28.5556 5.25377 28.5556C5.79426 28.5556 6.23588 28.9444 6.23588 29.4223C6.23588 29.9002 5.79756 30.2891 5.25377 30.2891C5.18456 30.2891 5.11536 30.2825 5.04944 30.2693V31.5909C5.11536 31.5777 5.18456 31.5711 5.25377 31.5711C5.79426 31.5711 6.23588 31.96 6.23588 32.4379C6.23588 32.9157 5.79756 33.3046 5.25377 33.3046C5.18456 33.3046 5.11536 33.298 5.04944 33.2848V34.6064C5.11536 34.5932 5.18456 34.5866 5.25377 34.5866C5.79426 34.5866 6.23588 34.9755 6.23588 35.4534C6.23588 35.9313 5.79756 36.3201 5.25377 36.3201C5.18456 36.3201 5.11536 36.3136 5.04944 36.3004V37.6219C5.11536 37.6088 5.18456 37.6022 5.25377 37.6022C5.79426 37.6022 6.23588 37.9911 6.23588 38.4689C6.23588 38.9468 5.79756 39.3357 5.25377 39.3357C5.18456 39.3357 5.11536 39.3291 5.04944 39.3159V40.6375C5.11536 40.6243 5.18456 40.6177 5.25377 40.6177C5.79426 40.6177 6.23588 41.0066 6.23588 41.4845C6.23588 41.9623 5.79756 42.3512 5.25377 42.3512C5.18456 42.3512 5.11536 42.3446 5.04944 42.3315V43.653C5.11536 43.6398 5.18456 43.6332 5.25377 43.6332C5.79426 43.6332 6.23588 44.0221 6.23588 44.5C6.23588 44.9779 5.79756 45.3668 5.25377 45.3668C5.18456 45.3668 5.11536 45.3602 5.04944 45.347V46.6686C5.11536 46.6554 5.18456 46.6488 5.25377 46.6488C5.79426 46.6488 6.23588 47.0377 6.23588 47.5155C6.23588 47.9934 5.79756 48.3823 5.25377 48.3823C5.18456 48.3823 5.11536 48.3757 5.04944 48.3625V49.6841C5.11536 49.6709 5.18456 49.6643 5.25377 49.6643C5.79426 49.6643 6.23588 50.0532 6.23588 50.5311C6.23588 51.0089 5.79756 51.3978 5.25377 51.3978C5.18456 51.3978 5.11536 51.3912 5.04944 51.3781V52.6996C5.11536 52.6864 5.18456 52.6799 5.25377 52.6799" fill="#A98B83"/>
<path d="M57.4152 13.8107V53.0259C55.0093 53.1709 53.0978 55.1747 53.0978 57.6135C53.0978 57.8738 53.1209 58.1375 53.1704 58.4044H12.7556C12.805 58.1375 12.8281 57.8738 12.8281 57.6135C12.8281 55.1747 10.9166 53.1709 8.51074 53.0259V13.8107C10.8243 13.669 12.6798 11.8136 12.8182 9.5H53.1044C53.2461 11.8136 55.1016 13.669 57.4152 13.8107Z" fill="white"/>
<path d="M57.4152 13.8107V53.0259C55.0093 53.1709 53.0978 55.1747 53.0978 57.6135C53.0978 57.8738 53.1209 58.1375 53.1704 58.4044H12.7556C12.805 58.1375 12.8281 57.8738 12.8281 57.6135C12.8281 55.1747 10.9166 53.1709 8.51074 53.0259V13.8107C10.8243 13.669 12.6798 11.8136 12.8182 9.5H53.1044C53.2461 11.8136 55.1016 13.669 57.4152 13.8107Z" fill="#AB8C85"/>
<path d="M57.694 13.2573C55.4662 13.2573 53.6569 11.4479 53.6569 9.22008C53.6569 9.06518 53.5316 8.93994 53.3767 8.93994H12.5467C12.3918 8.93994 12.2665 9.06518 12.2665 9.22008C12.2665 11.4479 10.4539 13.2573 8.22934 13.2573C8.07445 13.2573 7.94922 13.3825 7.94922 13.5374V53.2996C7.94922 53.4512 8.07445 53.5798 8.22934 53.5798C10.4539 53.5798 12.2665 55.3891 12.2665 57.6137C12.2665 57.9399 12.2204 58.2761 12.1347 58.6156C12.1149 58.7012 12.1314 58.7902 12.1841 58.8561C12.2369 58.9253 12.3193 58.9649 12.4083 58.9649H53.5151C53.6008 58.9649 53.6832 58.9253 53.7359 58.8561C53.7887 58.7902 53.8085 58.7012 53.7854 58.6156C53.6997 58.2761 53.6569 57.9399 53.6569 57.6137C53.6569 55.3891 55.4662 53.5798 57.694 53.5798C57.8489 53.5798 57.9742 53.4512 57.9742 53.2996V13.5374C57.9742 13.3825 57.8489 13.2573 57.694 13.2573ZM57.4139 53.0261C55.0081 53.1711 53.0966 55.1749 53.0966 57.6137C53.0966 57.874 53.1197 58.1377 53.1691 58.4046H12.7543C12.8037 58.1377 12.8268 57.874 12.8268 57.6137C12.8268 55.1749 10.9153 53.1711 8.50949 53.0261V13.8109C10.823 13.6692 12.6785 11.8138 12.8169 9.50021H53.1032C53.2449 11.8138 55.1004 13.6692 57.4139 13.8109V53.0261Z" fill="#F1DFC1"/>
<path d="M57.3219 13.7614V52.9799C56.1549 53.0551 55.0599 53.5706 54.2585 54.4222C53.457 55.2738 53.0089 56.398 53.0046 57.5674C53.0045 57.8328 53.0288 58.0975 53.0771 58.3584H12.6623C12.7106 58.0975 12.7349 57.8328 12.7348 57.5674C12.7316 56.3996 12.2856 55.2764 11.4869 54.4244C10.6881 53.5724 9.59591 53.055 8.43066 52.9766V13.7581C9.54529 13.6806 10.5939 13.2013 11.3819 12.4091C12.1698 11.6169 12.6435 10.5657 12.715 9.45068H53.0112C53.0826 10.5705 53.5597 11.6259 54.3532 12.4194C55.1467 13.2129 56.2021 13.69 57.3219 13.7614Z" fill="white"/>
<path d="M32.9626 12.308C33.3157 12.308 33.602 12.0218 33.602 11.6687C33.602 11.3155 33.3157 11.0293 32.9626 11.0293C32.6095 11.0293 32.3232 11.3155 32.3232 11.6687C32.3232 12.0218 32.6095 12.308 32.9626 12.308Z" fill="#F5CBD9"/>
<path d="M32.962 14.1999C32.8829 14.1999 32.8203 14.1373 32.8203 14.0582V13.0826C32.8203 13.0035 32.8829 12.9409 32.962 12.9409C33.0411 12.9409 33.1038 13.0035 33.1038 13.0826V14.0582C33.1005 14.1373 33.0378 14.1999 32.962 14.1999Z" fill="#F5CBD9"/>
<path d="M32.962 16.8854C32.8829 16.8854 32.8203 16.8228 32.8203 16.7437V14.6642C32.8203 14.5851 32.8829 14.5225 32.962 14.5225C33.0411 14.5225 33.1038 14.5851 33.1038 14.6642V16.7437C33.1005 16.8228 33.0378 16.8854 32.962 16.8854Z" fill="#F5CBD9"/>
<path d="M34.1573 13.88C34.1079 13.88 34.0617 13.8537 34.0354 13.8108L33.5476 12.9638C33.5081 12.8979 33.5311 12.8123 33.6003 12.7727C33.6663 12.7332 33.7519 12.7562 33.7915 12.8254L34.2793 13.6724C34.3188 13.7383 34.2957 13.824 34.2265 13.8636C34.2034 13.8735 34.1804 13.88 34.1573 13.88Z" fill="#F5CBD9"/>
<path d="M35.4997 16.2036C35.4502 16.2036 35.4041 16.1772 35.3777 16.1344L34.3396 14.3349C34.3001 14.269 34.3231 14.1833 34.3923 14.1438C34.4582 14.1043 34.5439 14.1273 34.5835 14.1965L35.6216 15.996C35.6612 16.0619 35.6381 16.1476 35.5689 16.1871C35.5491 16.2003 35.5227 16.2036 35.4997 16.2036Z" fill="#F5CBD9"/>
<path d="M35.0326 13.0034C35.0095 13.0034 34.9831 12.9968 34.9633 12.9836L34.1196 12.4959C34.0537 12.4563 34.0307 12.3706 34.0669 12.3047C34.1065 12.2388 34.1922 12.2157 34.2581 12.252L35.1018 12.7397C35.1677 12.7793 35.1907 12.865 35.1545 12.9309C35.1281 12.977 35.082 13.0034 35.0326 13.0034Z" fill="#F5CBD9"/>
<path d="M36.3042 13.7384C36.2811 13.7384 36.2547 13.7318 36.235 13.7186L35.4868 13.2869C35.4209 13.2473 35.3979 13.1616 35.4341 13.0957C35.4737 13.0298 35.5593 13.0067 35.6252 13.043L36.3734 13.4747C36.4393 13.5143 36.4623 13.6 36.4261 13.6659C36.3997 13.712 36.3536 13.7384 36.3042 13.7384Z" fill="#F5CBD9"/>
<path d="M35.3555 11.8074H34.38C34.3009 11.8074 34.2383 11.7447 34.2383 11.6656C34.2383 11.5865 34.3009 11.5239 34.38 11.5239H35.3555C35.4346 11.5239 35.4972 11.5865 35.4972 11.6656C35.4972 11.7447 35.4313 11.8074 35.3555 11.8074Z" fill="#F5CBD9"/>
<path d="M37.8735 11.8074H35.962C35.8829 11.8074 35.8203 11.7447 35.8203 11.6656C35.8203 11.5865 35.8829 11.5239 35.962 11.5239H37.8735C37.9526 11.5239 38.0152 11.5865 38.0152 11.6656C38.0152 11.7447 37.9493 11.8074 37.8735 11.8074Z" fill="#F5CBD9"/>
<path d="M31.545 11.8074H30.5694C30.4903 11.8074 30.4277 11.7447 30.4277 11.6656C30.4277 11.5865 30.4903 11.5239 30.5694 11.5239H31.545C31.624 11.5239 31.6867 11.5865 31.6867 11.6656C31.6867 11.7447 31.624 11.8074 31.545 11.8074Z" fill="#F5CBD9"/>
<path d="M29.9624 11.8074H28.0509C27.9718 11.8074 27.9092 11.7447 27.9092 11.6656C27.9092 11.5865 27.9718 11.5239 28.0509 11.5239H29.9624C30.0415 11.5239 30.1041 11.5865 30.1041 11.6656C30.1041 11.7447 30.0415 11.8074 29.9624 11.8074Z" fill="#F5CBD9"/>
<path d="M30.8883 13.0032C30.8389 13.0032 30.7927 12.9769 30.7664 12.934C30.7268 12.8681 30.7499 12.7824 30.8191 12.7429L31.6628 12.2551C31.7287 12.2156 31.8144 12.2386 31.8539 12.3079C31.8935 12.3738 31.8704 12.4595 31.8012 12.499L30.9575 12.9868C30.9377 12.9967 30.9114 13.0032 30.8883 13.0032Z" fill="#F5CBD9"/>
<path d="M29.6627 13.7119C29.6133 13.7119 29.5671 13.6855 29.5408 13.6427C29.5012 13.5767 29.5243 13.4911 29.5935 13.4515L30.2955 13.0461C30.3614 13.0066 30.4471 13.0297 30.4866 13.0989C30.5262 13.1648 30.5031 13.2505 30.4339 13.29L29.7319 13.6954C29.7121 13.7053 29.6858 13.7119 29.6627 13.7119Z" fill="#F5CBD9"/>
<path d="M31.765 13.8802C31.742 13.8802 31.7156 13.8736 31.6958 13.8604C31.6299 13.8209 31.6068 13.7352 31.6431 13.6693L32.1308 12.8223C32.1704 12.7564 32.2561 12.7333 32.322 12.7696C32.3879 12.8091 32.411 12.8948 32.3747 12.9607L31.887 13.8077C31.8606 13.8538 31.8112 13.8802 31.765 13.8802Z" fill="#F5CBD9"/>
<path d="M30.4213 16.2037C30.3982 16.2037 30.3718 16.1972 30.3521 16.184C30.2862 16.1444 30.2631 16.0587 30.2993 15.9928L31.3408 14.1934C31.3803 14.1275 31.466 14.1044 31.5319 14.1407C31.5978 14.1802 31.6209 14.2659 31.5846 14.3318L30.5432 16.1312C30.5169 16.1807 30.4707 16.2037 30.4213 16.2037Z" fill="#F5CBD9"/>
<path d="M32.9626 56.8749C33.3157 56.8749 33.602 56.5887 33.602 56.2356C33.602 55.8824 33.3157 55.5962 32.9626 55.5962C32.6095 55.5962 32.3232 55.8824 32.3232 56.2356C32.3232 56.5887 32.6095 56.8749 32.9626 56.8749Z" fill="#F5CBD9"/>
<path d="M32.962 54.9601C32.8829 54.9601 32.8203 54.8975 32.8203 54.8184V53.8429C32.8203 53.7638 32.8829 53.7012 32.962 53.7012C33.0411 53.7012 33.1038 53.7638 33.1038 53.8429V54.8184C33.1005 54.8975 33.0378 54.9601 32.962 54.9601Z" fill="#F5CBD9"/>
<path d="M32.962 53.3781C32.8829 53.3781 32.8203 53.3155 32.8203 53.2364V51.1568C32.8203 51.0778 32.8829 51.0151 32.962 51.0151C33.0411 51.0151 33.1038 51.0778 33.1038 51.1568V53.2364C33.1005 53.3155 33.0378 53.3781 32.962 53.3781Z" fill="#F5CBD9"/>
<path d="M32.253 55.1512C32.2036 55.1512 32.1574 55.1248 32.1311 55.082L31.6433 54.2383C31.6038 54.1724 31.6268 54.0867 31.696 54.0471C31.7619 54.0076 31.8476 54.0306 31.8872 54.0999L32.3749 54.9435C32.4145 55.0095 32.3914 55.0951 32.3222 55.1347C32.2992 55.1446 32.2761 55.1512 32.253 55.1512Z" fill="#F5CBD9"/>
<path d="M31.4629 53.7803C31.4135 53.7803 31.3674 53.7539 31.341 53.711L30.2996 51.9116C30.26 51.8457 30.2831 51.76 30.3523 51.7205C30.4182 51.6809 30.5039 51.704 30.5434 51.7732L31.5849 53.5726C31.6244 53.6385 31.6013 53.7242 31.5321 53.7638C31.5091 53.7737 31.486 53.7803 31.4629 53.7803Z" fill="#F5CBD9"/>
<path d="M31.7357 55.6689C31.7126 55.6689 31.6862 55.6623 31.6665 55.6491L30.8228 55.1614C30.7569 55.1218 30.7338 55.0362 30.7701 54.9702C30.8096 54.9043 30.8953 54.8813 30.9612 54.9175L31.8049 55.4053C31.8708 55.4448 31.8939 55.5305 31.8576 55.5964C31.8313 55.6459 31.7818 55.6689 31.7357 55.6689Z" fill="#F5CBD9"/>
<path d="M30.3657 54.878C30.3426 54.878 30.3163 54.8714 30.2965 54.8583L29.5484 54.4265C29.4824 54.387 29.4594 54.3013 29.4956 54.2354C29.5352 54.1695 29.6209 54.1464 29.6868 54.1826L30.4349 54.6144C30.5008 54.6539 30.5239 54.7396 30.4876 54.8055C30.4613 54.8517 30.4151 54.878 30.3657 54.878Z" fill="#F5CBD9"/>
<path d="M31.545 56.3772H30.5694C30.4903 56.3772 30.4277 56.3146 30.4277 56.2355C30.4277 56.1564 30.4903 56.0938 30.5694 56.0938H31.545C31.624 56.0938 31.6867 56.1564 31.6867 56.2355C31.6867 56.3146 31.624 56.3772 31.545 56.3772Z" fill="#F5CBD9"/>
<path d="M29.9624 56.3772H28.0509C27.9718 56.3772 27.9092 56.3146 27.9092 56.2355C27.9092 56.1564 27.9718 56.0938 28.0509 56.0938H29.9624C30.0415 56.0938 30.1041 56.1564 30.1041 56.2355C30.1041 56.3146 30.0415 56.3772 29.9624 56.3772Z" fill="#F5CBD9"/>
<path d="M35.3555 56.3772H34.38C34.3009 56.3772 34.2383 56.3146 34.2383 56.2355C34.2383 56.1564 34.3009 56.0938 34.38 56.0938H35.3555C35.4346 56.0938 35.4972 56.1564 35.4972 56.2355C35.4939 56.3146 35.4313 56.3772 35.3555 56.3772Z" fill="#F5CBD9"/>
<path d="M37.8735 56.3772H35.962C35.8829 56.3772 35.8203 56.3146 35.8203 56.2355C35.8203 56.1564 35.8829 56.0938 35.962 56.0938H37.8735C37.9526 56.0938 38.0152 56.1564 38.0152 56.2355C38.0119 56.3146 37.9493 56.3772 37.8735 56.3772Z" fill="#F5CBD9"/>
<path d="M34.1871 55.6688C34.1377 55.6688 34.0916 55.6424 34.0652 55.5996C34.0256 55.5336 34.0487 55.448 34.1179 55.4084L34.9616 54.9207C35.0275 54.8811 35.1132 54.9042 35.1528 54.9734C35.1923 55.0393 35.1692 55.125 35.1 55.1645L34.2563 55.6523C34.2333 55.6622 34.2102 55.6688 34.1871 55.6688Z" fill="#F5CBD9"/>
<path d="M35.5582 54.8774C35.5088 54.8774 35.4626 54.851 35.4363 54.8082C35.3967 54.7423 35.4198 54.6566 35.489 54.617L36.191 54.2117C36.2569 54.1721 36.3426 54.1952 36.3822 54.2644C36.4217 54.3303 36.3986 54.416 36.3294 54.4555L35.6274 54.8609C35.6044 54.8708 35.5813 54.8774 35.5582 54.8774Z" fill="#F5CBD9"/>
<path d="M33.6713 55.1513C33.6482 55.1513 33.6219 55.1447 33.6021 55.1316C33.5362 55.092 33.5131 55.0063 33.5493 54.9404L34.0371 54.0967C34.0766 54.0308 34.1623 54.0077 34.2282 54.044C34.2942 54.0835 34.3172 54.1692 34.281 54.2351L33.7932 55.0788C33.7669 55.125 33.7174 55.1513 33.6713 55.1513Z" fill="#F5CBD9"/>
<path d="M34.4623 53.7804C34.4392 53.7804 34.4129 53.7738 34.3931 53.7606C34.3272 53.7211 34.3041 53.6354 34.3404 53.5695L35.3785 51.77C35.418 51.7041 35.5037 51.6811 35.5696 51.7173C35.6356 51.7569 35.6586 51.8426 35.6224 51.9085L34.5842 53.7079C34.5579 53.754 34.5084 53.7804 34.4623 53.7804Z" fill="#F5CBD9"/>
<path d="M55.2478 33.311C54.8951 33.311 54.6084 33.5977 54.6084 33.9504C54.6084 34.303 54.8951 34.5897 55.2478 34.5897C55.6004 34.5897 55.8871 34.303 55.8871 33.9504C55.8871 33.5977 55.6004 33.311 55.2478 33.311Z" fill="#F5CBD9"/>
<path d="M53.8301 34.092H52.8546C52.7755 34.092 52.7129 34.0294 52.7129 33.9503C52.7129 33.8712 52.7755 33.8086 52.8546 33.8086H53.8301C53.9092 33.8086 53.9718 33.8712 53.9718 33.9503C53.9718 34.0294 53.9059 34.092 53.8301 34.092Z" fill="#F5CBD9"/>
<path d="M52.2476 34.092H50.1681C50.089 34.092 50.0264 34.0294 50.0264 33.9503C50.0264 33.8712 50.089 33.8086 50.1681 33.8086H52.2476C52.3267 33.8086 52.3894 33.8712 52.3894 33.9503C52.3861 34.0294 52.3234 34.092 52.2476 34.092Z" fill="#F5CBD9"/>
<path d="M53.1734 35.2884C53.124 35.2884 53.0779 35.262 53.0515 35.2192C53.012 35.1533 53.035 35.0676 53.1043 35.028L53.9479 34.5403C54.0139 34.5007 54.0995 34.5238 54.1391 34.593C54.1786 34.6589 54.1556 34.7446 54.0864 34.7842L53.2427 35.2719C53.2229 35.2818 53.1965 35.2884 53.1734 35.2884Z" fill="#F5CBD9"/>
<path d="M50.8483 36.6297C50.7988 36.6297 50.7527 36.6033 50.7263 36.5605C50.6868 36.4945 50.7098 36.4089 50.7791 36.3693L52.5785 35.3279C52.6444 35.2883 52.7301 35.3114 52.7696 35.3806C52.8092 35.4465 52.7861 35.5322 52.7169 35.5718L50.9175 36.6132C50.8977 36.6264 50.8746 36.6297 50.8483 36.6297Z" fill="#F5CBD9"/>
<path d="M54.0512 36.1649C54.0281 36.1649 54.0017 36.1583 53.982 36.1451C53.916 36.1055 53.893 36.0199 53.9292 35.9539L54.417 35.107C54.4565 35.041 54.5422 35.018 54.6081 35.0542C54.6741 35.0938 54.6971 35.1795 54.6609 35.2454L54.1731 36.0924C54.1467 36.1385 54.0973 36.1649 54.0512 36.1649Z" fill="#F5CBD9"/>
<path d="M53.3178 37.4371C53.2947 37.4371 53.2683 37.4305 53.2486 37.4173C53.1827 37.3778 53.1596 37.2921 53.1958 37.2262L53.6276 36.4781C53.6671 36.4121 53.7528 36.3891 53.8187 36.4253C53.8846 36.4649 53.9077 36.5506 53.8715 36.6165L53.4397 37.3646C53.4134 37.4107 53.3672 37.4371 53.3178 37.4371Z" fill="#F5CBD9"/>
<path d="M55.2472 36.4845C55.1681 36.4845 55.1055 36.4219 55.1055 36.3428V35.3673C55.1055 35.2882 55.1681 35.2256 55.2472 35.2256C55.3263 35.2256 55.3889 35.2882 55.3889 35.3673V36.3428C55.3856 36.4219 55.323 36.4845 55.2472 36.4845Z" fill="#F5CBD9"/>
<path d="M55.2472 39.0025C55.1681 39.0025 55.1055 38.9399 55.1055 38.8608V36.9493C55.1055 36.8702 55.1681 36.8076 55.2472 36.8076C55.3263 36.8076 55.3889 36.8702 55.3889 36.9493V38.8608C55.3856 38.9399 55.323 39.0025 55.2472 39.0025Z" fill="#F5CBD9"/>
<path d="M55.2472 32.675C55.1681 32.675 55.1055 32.6123 55.1055 32.5332V31.5577C55.1055 31.4786 55.1681 31.416 55.2472 31.416C55.3263 31.416 55.3889 31.4786 55.3889 31.5577V32.5332C55.3856 32.6123 55.323 32.675 55.2472 32.675Z" fill="#F5CBD9"/>
<path d="M55.2472 31.0929C55.1681 31.0929 55.1055 31.0303 55.1055 30.9512V29.0397C55.1055 28.9606 55.1681 28.8979 55.2472 28.8979C55.3263 28.8979 55.3889 28.9606 55.3889 29.0397V30.9512C55.3856 31.0303 55.323 31.0929 55.2472 31.0929Z" fill="#F5CBD9"/>
<path d="M54.5401 32.8659C54.4907 32.8659 54.4445 32.8395 54.4182 32.7967L53.9304 31.9497C53.8909 31.8838 53.9139 31.7981 53.9831 31.7585C54.0491 31.719 54.1348 31.7421 54.1743 31.8113L54.6621 32.6583C54.7016 32.7242 54.6785 32.8099 54.6093 32.8494C54.5863 32.8593 54.5632 32.8659 54.5401 32.8659Z" fill="#F5CBD9"/>
<path d="M53.7468 31.4948C53.6973 31.4948 53.6512 31.4684 53.6248 31.4256L53.2195 30.7236C53.1799 30.6577 53.203 30.572 53.2722 30.5325C53.3381 30.4929 53.4238 30.516 53.4634 30.5852L53.8687 31.2872C53.9083 31.3531 53.8852 31.4388 53.816 31.4783C53.7929 31.4882 53.7698 31.4948 53.7468 31.4948Z" fill="#F5CBD9"/>
<path d="M54.0208 33.3833C53.9978 33.3833 53.9714 33.3767 53.9516 33.3635L53.1079 32.8758C53.042 32.8362 53.0189 32.7505 53.0552 32.6846C53.0947 32.6187 53.1804 32.5956 53.2464 32.6319L54.09 33.1196C54.156 33.1592 54.179 33.2449 54.1428 33.3108C54.1164 33.3602 54.067 33.3833 54.0208 33.3833Z" fill="#F5CBD9"/>
<path d="M52.6514 32.5927C52.6283 32.5927 52.6019 32.5861 52.5822 32.5729L50.7827 31.5315C50.7168 31.492 50.6938 31.4063 50.73 31.3404C50.7696 31.2744 50.8553 31.2514 50.9212 31.2876L52.7206 32.3291C52.7865 32.3686 52.8096 32.4543 52.7733 32.5202C52.747 32.5696 52.6975 32.5927 52.6514 32.5927Z" fill="#F5CBD9"/>
<path d="M10.6774 34.5932C11.0301 34.5932 11.3168 34.3065 11.3168 33.9538C11.3168 33.6012 11.0301 33.3145 10.6774 33.3145C10.3248 33.3145 10.0381 33.6012 10.0381 33.9538C10.0381 34.3065 10.3248 34.5932 10.6774 34.5932Z" fill="#F5CBD9"/>
<path d="M13.0713 34.092H12.0958C12.0167 34.092 11.9541 34.0294 11.9541 33.9503C11.9541 33.8712 12.0167 33.8086 12.0958 33.8086H13.0713C13.1504 33.8086 13.213 33.8712 13.213 33.9503C13.2097 34.0294 13.1471 34.092 13.0713 34.092Z" fill="#F5CBD9"/>
<path d="M15.7564 34.092H13.6769C13.5978 34.092 13.5352 34.0294 13.5352 33.9503C13.5352 33.8712 13.5978 33.8086 13.6769 33.8086H15.7564C15.8355 33.8086 15.8981 33.8712 15.8981 33.9503C15.8948 34.0294 15.8322 34.092 15.7564 34.092Z" fill="#F5CBD9"/>
<path d="M11.9039 33.3831C11.8545 33.3831 11.8084 33.3568 11.782 33.3139C11.7424 33.248 11.7655 33.1623 11.8347 33.1228L12.6784 32.635C12.7443 32.5955 12.83 32.6185 12.8696 32.6877C12.9091 32.7537 12.886 32.8393 12.8168 32.8789L11.9731 33.3666C11.9534 33.3765 11.927 33.3831 11.9039 33.3831Z" fill="#F5CBD9"/>
<path d="M13.275 32.5926C13.2256 32.5926 13.1794 32.5662 13.1531 32.5233C13.1135 32.4574 13.1366 32.3718 13.2058 32.3322L15.0085 31.2908C15.0745 31.2512 15.1601 31.2743 15.1997 31.3435C15.2392 31.4094 15.2162 31.4951 15.147 31.5346L13.3442 32.5761C13.3212 32.586 13.2981 32.5926 13.275 32.5926Z" fill="#F5CBD9"/>
<path d="M11.3861 32.866C11.3631 32.866 11.3367 32.8595 11.3169 32.8463C11.251 32.8067 11.2279 32.721 11.2642 32.6551L11.7519 31.8081C11.7915 31.7422 11.8772 31.7191 11.9431 31.7554C12.009 31.7949 12.0321 31.8806 11.9958 31.9465L11.5081 32.7935C11.4817 32.8397 11.4323 32.866 11.3861 32.866Z" fill="#F5CBD9"/>
<path d="M12.1771 31.4947C12.1541 31.4947 12.1277 31.4881 12.1079 31.4749C12.042 31.4354 12.019 31.3497 12.0552 31.2838L12.4869 30.5357C12.5265 30.4698 12.6122 30.4467 12.6781 30.4829C12.744 30.5225 12.7671 30.6082 12.7308 30.6741L12.2991 31.4222C12.2727 31.4716 12.2233 31.4947 12.1771 31.4947Z" fill="#F5CBD9"/>
<path d="M10.6769 32.675C10.5978 32.675 10.5352 32.6123 10.5352 32.5332V31.5577C10.5352 31.4786 10.5978 31.416 10.6769 31.416C10.756 31.416 10.8186 31.4786 10.8186 31.5577V32.5332C10.8153 32.6123 10.7527 32.675 10.6769 32.675Z" fill="#F5CBD9"/>
<path d="M10.6769 31.0929C10.5978 31.0929 10.5352 31.0303 10.5352 30.9512V29.0397C10.5352 28.9606 10.5978 28.8979 10.6769 28.8979C10.756 28.8979 10.8186 28.9606 10.8186 29.0397V30.9512C10.8153 31.0303 10.7527 31.0929 10.6769 31.0929Z" fill="#F5CBD9"/>
<path d="M10.6769 36.4845C10.5978 36.4845 10.5352 36.4219 10.5352 36.3428V35.3673C10.5352 35.2882 10.5978 35.2256 10.6769 35.2256C10.756 35.2256 10.8186 35.2882 10.8186 35.3673V36.3428C10.8153 36.4219 10.7527 36.4845 10.6769 36.4845Z" fill="#F5CBD9"/>
<path d="M10.6769 39.0025C10.5978 39.0025 10.5352 38.9399 10.5352 38.8608V36.9493C10.5352 36.8702 10.5978 36.8076 10.6769 36.8076C10.756 36.8076 10.8186 36.8702 10.8186 36.9493V38.8608C10.8153 38.9399 10.7527 39.0025 10.6769 39.0025Z" fill="#F5CBD9"/>
<path d="M11.8741 36.1652C11.8247 36.1652 11.7785 36.1388 11.7522 36.096L11.2644 35.249C11.2249 35.1831 11.2479 35.0974 11.3171 35.0579C11.383 35.0183 11.4687 35.0414 11.5083 35.1106L11.9961 35.9576C12.0356 36.0235 12.0125 36.1092 11.9433 36.1487C11.9202 36.1586 11.8972 36.1652 11.8741 36.1652Z" fill="#F5CBD9"/>
<path d="M12.5837 37.3908C12.5343 37.3908 12.4881 37.3644 12.4618 37.3216L12.0564 36.6196C12.0169 36.5537 12.0399 36.468 12.1091 36.4285C12.175 36.3889 12.2607 36.412 12.3003 36.4812L12.7056 37.1832C12.7452 37.2491 12.7221 37.3348 12.6529 37.3743C12.6298 37.3842 12.6068 37.3908 12.5837 37.3908Z" fill="#F5CBD9"/>
<path d="M12.7474 35.2886C12.7243 35.2886 12.698 35.282 12.6782 35.2688L11.8345 34.781C11.7686 34.7415 11.7455 34.6558 11.7818 34.5899C11.8213 34.5239 11.907 34.5009 11.9729 34.5371L12.8166 35.0249C12.8825 35.0644 12.9056 35.1501 12.8693 35.216C12.843 35.2622 12.7968 35.2886 12.7474 35.2886Z" fill="#F5CBD9"/>
<path d="M15.0746 36.6298C15.0515 36.6298 15.0252 36.6232 15.0054 36.61L13.2027 35.5686C13.1367 35.5291 13.1137 35.4434 13.1499 35.3775C13.1895 35.3116 13.2752 35.2885 13.3411 35.3247L15.1438 36.3662C15.2097 36.4057 15.2328 36.4914 15.1965 36.5573C15.1702 36.6067 15.124 36.6298 15.0746 36.6298Z" fill="#F5CBD9"/>
<path d="M26.5834 15.2341C26.5043 15.2341 26.4285 15.2308 26.3526 15.2209C25.7067 15.1451 25.1234 14.7365 24.8663 14.1795C24.5928 13.5863 24.7147 12.8382 25.1563 12.3966C25.6243 11.9286 26.4252 11.8561 26.9393 12.2384C27.3545 12.5482 27.5226 13.1249 27.3216 13.55C27.2095 13.7873 26.9623 13.9653 26.6822 14.018C26.4285 14.0642 26.1879 13.9982 26.0198 13.8368C25.9638 13.784 25.9638 13.6951 26.0165 13.639C26.0692 13.583 26.1582 13.583 26.2142 13.6357C26.3164 13.7346 26.4647 13.7709 26.6328 13.7412C26.8272 13.7049 26.992 13.5863 27.0678 13.4281C27.2161 13.1183 27.0843 12.6932 26.7745 12.4625C26.3658 12.1593 25.7298 12.2186 25.3541 12.5943C24.9915 12.9535 24.8927 13.5731 25.1201 14.0609C25.3376 14.5322 25.8352 14.8782 26.3823 14.9408C26.8997 15.0034 27.4666 14.8189 27.8983 14.4563C28.4849 13.9587 28.7519 13.1579 28.5509 12.5053C28.4059 12.0373 28.0301 11.632 27.5259 11.3881C27.0942 11.1805 26.5669 11.0882 25.9605 11.1112C24.9981 11.1475 24.0029 11.454 23.0076 12.0209C22.2397 12.4592 21.1488 13.1447 20.3051 13.9323C20.2524 13.9785 20.1733 13.9818 20.1205 13.9389C20.0645 13.8928 20.0546 13.817 20.0909 13.7577C20.4237 13.2172 20.661 12.736 20.8225 12.2779C19.7053 13.2435 18.3969 14.0081 17.0094 14.5025C16.3964 14.72 15.5857 14.954 14.7552 14.8386C13.8983 14.7167 13.1766 14.1927 12.9162 13.5039C12.7514 13.0689 12.7844 12.5547 13.0052 12.0999C13.2293 11.6418 13.6116 11.3024 14.0565 11.164C14.6201 10.9893 15.2529 11.1343 15.6351 11.5232C16.0603 11.9582 16.1262 12.6602 15.7867 13.1216C15.6088 13.3622 15.3122 13.5237 14.9925 13.5468C14.6926 13.5731 14.4092 13.4775 14.2147 13.2864C14.1587 13.2337 14.1587 13.1447 14.2114 13.0886C14.2641 13.0326 14.3531 13.0326 14.4091 13.0886C14.5443 13.2205 14.7453 13.2897 14.9661 13.2699C15.2067 13.2501 15.4275 13.1348 15.5561 12.9568C15.8131 12.6075 15.7538 12.0505 15.4308 11.7176C15.121 11.4013 14.6003 11.2859 14.1356 11.4276C13.7632 11.543 13.4435 11.8297 13.2524 12.2186C13.0645 12.6075 13.0349 13.0392 13.1733 13.4017C13.4007 13.9983 14.0335 14.4498 14.7915 14.5585C15.5626 14.6673 16.3305 14.4432 16.9139 14.2355C18.4233 13.6984 19.8371 12.8349 21.0005 11.7341C21.0466 11.6913 21.1125 11.6847 21.1686 11.7144C21.2213 11.744 21.2477 11.8066 21.2345 11.8692C21.1323 12.2977 20.9675 12.7294 20.727 13.2007C21.4586 12.6207 22.2627 12.1197 22.8691 11.777C23.904 11.187 24.9421 10.8674 25.9506 10.8311C26.6031 10.8047 27.1766 10.9102 27.6479 11.1376C28.2246 11.4145 28.6497 11.8824 28.8211 12.4229C29.0584 13.1809 28.7519 14.1037 28.0829 14.6706C27.6544 15.0331 27.1074 15.2341 26.5834 15.2341Z" fill="#F1DFC1"/>
<path d="M26.1253 14.9246C26.0462 14.9246 25.9704 14.9213 25.8946 14.9114C25.6903 14.8883 25.4893 14.829 25.2981 14.74C25.2289 14.7071 25.1993 14.6247 25.2322 14.5522C25.2652 14.483 25.3476 14.4533 25.4201 14.4862C25.5849 14.562 25.7562 14.6115 25.9309 14.6346C26.4483 14.6939 27.0152 14.5126 27.4469 14.1501C28.0335 13.6557 28.3005 12.8516 28.0994 12.1991C28.0039 11.8926 27.8061 11.6124 27.5128 11.3751C27.4535 11.3257 27.4436 11.2367 27.493 11.1774C27.5425 11.1181 27.6314 11.1082 27.6908 11.1576C28.0269 11.4312 28.2543 11.7541 28.3664 12.1167C28.6037 12.8747 28.2972 13.7975 27.6282 14.3643C27.1964 14.7235 26.6493 14.9246 26.1253 14.9246Z" fill="#F1DFC1"/>
<path d="M15.4685 14.8585C15.4619 14.8585 15.4553 14.8585 15.4487 14.8585C14.7336 14.7563 13.8306 14.2883 13.5307 13.504C13.3461 13.0162 13.4054 12.4098 13.6888 11.9253C13.9492 11.4804 14.3612 11.1937 14.8489 11.1245C14.9247 11.1113 14.9972 11.1673 15.0071 11.2431C15.017 11.3189 14.9643 11.3914 14.8885 11.4013C14.4864 11.4606 14.1469 11.6979 13.9294 12.067C13.6889 12.479 13.6361 12.9931 13.791 13.4018C14.0514 14.0807 14.8522 14.4894 15.4883 14.5783C15.5641 14.5882 15.6168 14.6607 15.6069 14.7365C15.597 14.809 15.5377 14.8585 15.4685 14.8585Z" fill="#F1DFC1"/>
<path d="M29.6155 11.1115H17.8038C17.7247 11.1115 17.6621 11.0489 17.6621 10.9698C17.6621 10.8907 17.7247 10.8281 17.8038 10.8281H29.6155C29.6946 10.8281 29.7572 10.8907 29.7572 10.9698C29.7572 11.0456 29.6946 11.1115 29.6155 11.1115Z" fill="#F1DFC1"/>
<path d="M26.4489 14.0019C26.802 14.0019 27.0883 13.7156 27.0883 13.3625C27.0883 13.0094 26.802 12.7231 26.4489 12.7231C26.0958 12.7231 25.8096 13.0094 25.8096 13.3625C25.8096 13.7156 26.0958 14.0019 26.4489 14.0019Z" fill="#F1DFC1"/>
<path d="M18.4438 11.4704C18.4438 11.8231 18.157 12.1098 17.8044 12.1098C17.4518 12.1098 17.165 11.8231 17.165 11.4704C17.165 11.1178 17.4518 10.8311 17.8044 10.8311C18.157 10.8311 18.4438 11.1178 18.4438 11.4704Z" fill="#F1DFC1"/>
<path d="M14.6774 13.4809C15.0306 13.4809 15.3168 13.1946 15.3168 12.8415C15.3168 12.4884 15.0306 12.2021 14.6774 12.2021C14.3243 12.2021 14.0381 12.4884 14.0381 12.8415C14.0381 13.1946 14.3243 13.4809 14.6774 13.4809Z" fill="#F1DFC1"/>
<path d="M39.3284 15.2375C38.8011 15.2375 38.2705 15.0398 37.8388 14.674C37.1665 14.1071 36.8633 13.1843 37.1006 12.4263C37.2686 11.8858 37.6971 11.4179 38.2738 11.141C38.7484 10.9136 39.3185 10.8082 39.9711 10.8345C40.9795 10.8708 42.0177 11.1905 43.0525 11.7804C43.6589 12.1264 44.4631 12.6241 45.1947 13.2041C44.9541 12.7328 44.7893 12.3011 44.6872 11.8727C44.674 11.8133 44.7004 11.7507 44.7531 11.7178C44.8058 11.6881 44.875 11.6947 44.9212 11.7375C46.0845 12.8383 47.4984 13.7018 49.0078 14.239C49.5911 14.4466 50.359 14.6707 51.1302 14.5619C51.8849 14.4565 52.521 14.0017 52.7484 13.4051C52.8868 13.0426 52.8571 12.6109 52.6693 12.222C52.4814 11.8331 52.1585 11.5464 51.7861 11.431C51.3214 11.286 50.8007 11.4014 50.4909 11.7211C50.1646 12.0539 50.1086 12.6076 50.3656 12.9602C50.4942 13.1349 50.715 13.2536 50.9555 13.2733C51.1731 13.2898 51.3774 13.2239 51.5125 13.0921C51.5685 13.0393 51.6575 13.0393 51.7102 13.0921C51.763 13.1481 51.763 13.2371 51.707 13.2898C51.5125 13.481 51.2291 13.5765 50.9292 13.5502C50.6095 13.5238 50.3129 13.3656 50.1349 13.125C49.7955 12.6636 49.8614 11.9584 50.2865 11.5266C50.6688 11.1377 51.3016 10.9927 51.8651 11.1674C52.3101 11.3058 52.6924 11.6453 52.9165 12.1034C53.1406 12.5615 53.1735 13.0723 53.0054 13.5073C52.7418 14.1961 52.02 14.7201 51.1665 14.8421C50.336 14.9607 49.5252 14.7234 48.9122 14.5059C47.5247 14.0116 46.2164 13.247 45.0991 12.2813C45.2606 12.7394 45.4979 13.2206 45.8308 13.7611C45.867 13.8204 45.8538 13.8995 45.8011 13.9423C45.7484 13.9852 45.6693 13.9852 45.6166 13.9358C44.7762 13.1481 43.682 12.4626 42.9141 12.0243C41.9188 11.4574 40.9235 11.1509 39.9612 11.1147C39.3515 11.0916 38.8275 11.1872 38.3957 11.3915C37.8882 11.6354 37.5158 12.0407 37.3708 12.5087C37.1665 13.1613 37.4367 13.9621 38.0233 14.4598C38.4551 14.8256 39.0252 15.0068 39.5393 14.9442C40.0897 14.8783 40.5874 14.5323 40.8049 14.0643C41.0323 13.5732 40.9334 12.9569 40.5709 12.5977C40.1952 12.222 39.5591 12.166 39.1505 12.4659C38.8374 12.6966 38.7088 13.1217 38.8571 13.4315C38.9329 13.5897 39.0977 13.7083 39.2922 13.7446C39.4536 13.7743 39.6086 13.7347 39.7107 13.6391C39.7667 13.5864 39.8557 13.5864 39.9085 13.6424C39.9612 13.6985 39.9612 13.7874 39.9052 13.8402C39.7371 14.0017 39.4965 14.0676 39.2427 14.0214C38.9626 13.972 38.7187 13.7907 38.6034 13.5535C38.399 13.1283 38.5671 12.5516 38.9857 12.2418C39.4998 11.8595 40.3007 11.932 40.7686 12.4C41.2103 12.8416 41.3322 13.5897 41.0586 14.1829C40.8016 14.7399 40.2183 15.1486 39.5723 15.2244C39.4866 15.231 39.4075 15.2375 39.3284 15.2375Z" fill="#F1DFC1"/>
<path d="M39.7973 14.9245C39.2733 14.9245 38.7262 14.7234 38.2978 14.3609C37.6255 13.794 37.3222 12.8713 37.5595 12.1133C37.6716 11.754 37.899 11.431 38.2352 11.1542C38.2945 11.1048 38.3835 11.1147 38.4329 11.174C38.4823 11.2333 38.4724 11.3223 38.4131 11.3717C38.1198 11.6123 37.9254 11.8891 37.8298 12.1956C37.6255 12.8482 37.8957 13.649 38.4823 14.1467C38.9141 14.5125 39.4842 14.6938 39.9983 14.6311C40.173 14.6114 40.3444 14.5619 40.5092 14.4828C40.5784 14.4499 40.6641 14.4795 40.697 14.5487C40.73 14.618 40.7003 14.7036 40.6311 14.7366C40.44 14.8256 40.2389 14.8849 40.0346 14.908C39.9522 14.9212 39.8731 14.9245 39.7973 14.9245Z" fill="#F1DFC1"/>
<path d="M50.4511 14.8588C50.3819 14.8588 50.3226 14.8094 50.3127 14.7369C50.3028 14.6611 50.3556 14.5886 50.4314 14.5787C51.0674 14.4897 51.8683 14.0811 52.1286 13.4022C52.2868 12.9902 52.2341 12.4794 51.9902 12.0641C51.7727 11.695 51.4332 11.4577 51.0312 11.3984C50.9554 11.3885 50.9026 11.316 50.9125 11.2402C50.9224 11.1644 50.9949 11.1084 51.0707 11.1216C51.5585 11.1941 51.9704 11.4775 52.2308 11.9224C52.5142 12.4069 52.5768 13.01 52.389 13.501C52.0891 14.2887 51.1861 14.7534 50.4709 14.8556C50.4676 14.8589 50.4577 14.8588 50.4511 14.8588Z" fill="#F1DFC1"/>
<path d="M48.1175 11.1115H36.3058C36.2267 11.1115 36.1641 11.0489 36.1641 10.9698C36.1641 10.8907 36.2267 10.8281 36.3058 10.8281H48.1175C48.1966 10.8281 48.2592 10.8907 48.2592 10.9698C48.2559 11.0456 48.1933 11.1115 48.1175 11.1115Z" fill="#F1DFC1"/>
<path d="M39.4743 14.0019C39.8274 14.0019 40.1137 13.7156 40.1137 13.3625C40.1137 13.0094 39.8274 12.7231 39.4743 12.7231C39.1212 12.7231 38.835 13.0094 38.835 13.3625C38.835 13.7156 39.1212 14.0019 39.4743 14.0019Z" fill="#F1DFC1"/>
<path d="M47.4795 11.4709C47.4795 11.8235 47.7662 12.1103 48.1189 12.1103C48.4715 12.1103 48.7582 11.8235 48.7582 11.4709C48.7582 11.1183 48.4715 10.8315 48.1189 10.8315C47.7662 10.8315 47.4795 11.1183 47.4795 11.4709Z" fill="#F1DFC1"/>
<path d="M51.2458 13.4814C51.5989 13.4814 51.8852 13.1951 51.8852 12.842C51.8852 12.4889 51.5989 12.2026 51.2458 12.2026C50.8927 12.2026 50.6064 12.4889 50.6064 12.842C50.6064 13.1951 50.8927 13.4814 51.2458 13.4814Z" fill="#F1DFC1"/>
<path d="M26.135 57.0763C26.0724 57.0763 26.013 57.0763 25.9504 57.073C24.942 57.0368 23.9038 56.7171 22.869 56.1272C22.2626 55.7811 21.4584 55.2835 20.7268 54.7034C20.9674 55.1747 21.1322 55.6064 21.2343 56.0349C21.2475 56.0942 21.2211 56.1568 21.1684 56.1898C21.1157 56.2194 21.0465 56.2128 21.0003 56.17C19.837 55.0692 18.4231 54.2058 16.9137 53.6686C16.3304 53.461 15.5592 53.2369 14.7913 53.3456C14.0366 53.4544 13.4005 53.9059 13.1731 54.5024C13.0347 54.8649 13.0644 55.2966 13.2522 55.6855C13.4401 56.0744 13.7631 56.3611 14.1355 56.4765C14.6002 56.6215 15.1209 56.5062 15.4307 56.1865C15.7569 55.8536 15.813 55.2999 15.5559 54.9473C15.4274 54.7693 15.2065 54.654 14.966 54.6342C14.7484 54.6177 14.5441 54.6837 14.409 54.8155C14.353 54.8715 14.264 54.8682 14.2113 54.8155C14.1585 54.7595 14.1585 54.6705 14.2146 54.6177C14.409 54.4266 14.6924 54.331 14.989 54.3574C15.3087 54.3837 15.6053 54.5419 15.7833 54.7825C16.1228 55.2439 16.0568 55.9492 15.6317 56.3809C15.2494 56.7698 14.6166 56.9148 14.0531 56.7402C13.6082 56.6017 13.2259 56.2623 13.0018 55.8042C12.7776 55.3461 12.7447 54.8353 12.9128 54.4002C13.1764 53.7114 13.8982 53.1874 14.7518 53.0655C15.5856 52.9468 16.393 53.1841 17.006 53.4016C18.3935 53.896 19.7018 54.6606 20.8191 55.6262C20.6576 55.1681 20.4203 54.687 20.0874 54.1465C20.0512 54.0871 20.0644 54.008 20.1171 53.9652C20.1698 53.9224 20.2489 53.9223 20.3017 53.9718C21.142 54.7594 22.2362 55.445 23.0041 55.8833C23.9994 56.4501 24.9947 56.7566 25.957 56.7929C26.5667 56.816 27.0907 56.7204 27.5225 56.516C28.03 56.2722 28.4024 55.8668 28.5474 55.3988C28.7518 54.7463 28.4815 53.9454 27.8949 53.4478C27.4632 53.082 26.8963 52.9007 26.3789 52.9633C25.8285 53.0292 25.3341 53.3753 25.1166 53.8433C24.8892 54.331 24.9881 54.9506 25.3506 55.3098C25.7263 55.6855 26.3624 55.7416 26.771 55.4417C27.0841 55.211 27.2127 54.7858 27.0644 54.476C26.9886 54.3178 26.8238 54.1992 26.6293 54.1629C26.4646 54.1333 26.3129 54.1728 26.2108 54.2684C26.1548 54.3211 26.0658 54.3211 26.0131 54.2651C25.9603 54.2091 25.9603 54.1201 26.0163 54.0674C26.1844 53.9059 26.425 53.84 26.6788 53.8861C26.9589 53.9355 27.2028 54.1168 27.3181 54.3541C27.5225 54.7792 27.3544 55.356 26.9358 55.6658C26.4217 56.0481 25.6209 55.9756 25.1529 55.5076C24.7113 55.0659 24.5893 54.3178 24.8629 53.7246C25.1199 53.1676 25.7033 52.759 26.3492 52.6832C26.9424 52.614 27.5884 52.8183 28.0794 53.2336C28.7518 53.8004 29.055 54.7232 28.8177 55.4812C28.6496 56.0217 28.2212 56.4897 27.6444 56.7665C27.2226 56.9708 26.7117 57.0763 26.135 57.0763Z" fill="#F1DFC1"/>
<path d="M27.5978 56.7795C27.5583 56.7795 27.5154 56.763 27.4891 56.7267C27.4396 56.6674 27.4495 56.5784 27.5088 56.529C27.8021 56.2884 27.9966 56.0116 28.0955 55.7051C28.2998 55.0525 28.0295 54.2517 27.4429 53.7541C27.0112 53.3882 26.4443 53.207 25.9269 53.2696C25.7522 53.2894 25.5809 53.3388 25.4161 53.4179C25.3469 53.4508 25.2612 53.4212 25.2282 53.352C25.1953 53.2828 25.2249 53.1971 25.2975 53.1641C25.4886 53.0751 25.6896 53.0158 25.894 52.9928C26.4872 52.9235 27.1331 53.1279 27.6242 53.5431C28.2965 54.11 28.5997 55.0328 28.3624 55.7908C28.2504 56.1533 28.023 56.473 27.6868 56.7498C27.6604 56.7696 27.6275 56.7795 27.5978 56.7795Z" fill="#F1DFC1"/>
<path d="M14.8672 56.783C14.8606 56.783 14.854 56.783 14.8474 56.783C14.3597 56.7105 13.9477 56.4271 13.6873 55.9822C13.4039 55.4977 13.3413 54.8946 13.5292 54.4036C13.8291 53.6159 14.7321 53.1512 15.4472 53.049C15.523 53.0392 15.5955 53.0919 15.6054 53.1677C15.6153 53.2435 15.5626 53.316 15.4868 53.3259C14.8507 53.4149 14.0499 53.8235 13.7895 54.5024C13.6313 54.9144 13.6841 55.4252 13.9279 55.8372C14.1455 56.2063 14.4849 56.4436 14.887 56.5029C14.9628 56.5128 15.0155 56.5853 15.0056 56.6611C14.9957 56.7336 14.9364 56.783 14.8672 56.783Z" fill="#F1DFC1"/>
<path d="M29.6155 57.0764H17.8038C17.7247 57.0764 17.6621 57.0138 17.6621 56.9347C17.6621 56.8556 17.7247 56.793 17.8038 56.793H29.6155C29.6946 56.793 29.7572 56.8556 29.7572 56.9347C29.7572 57.0138 29.6946 57.0764 29.6155 57.0764Z" fill="#F1DFC1"/>
<path d="M26.448 55.1811C26.8011 55.1811 27.0873 54.8948 27.0873 54.5417C27.0873 54.1886 26.8011 53.9023 26.448 53.9023C26.0948 53.9023 25.8086 54.1886 25.8086 54.5417C25.8086 54.8948 26.0948 55.1811 26.448 55.1811Z" fill="#F1DFC1"/>
<path d="M17.8044 57.0727C18.1575 57.0727 18.4438 56.7864 18.4438 56.4333C18.4438 56.0802 18.1575 55.7939 17.8044 55.7939C17.4513 55.7939 17.165 56.0802 17.165 56.4333C17.165 56.7864 17.4513 57.0727 17.8044 57.0727Z" fill="#F1DFC1"/>
<path d="M14.6774 55.7021C15.0306 55.7021 15.3168 55.4158 15.3168 55.0627C15.3168 54.7096 15.0306 54.4233 14.6774 54.4233C14.3243 54.4233 14.0381 54.7096 14.0381 55.0627C14.0381 55.4158 14.3243 55.7021 14.6774 55.7021Z" fill="#F1DFC1"/>
<path d="M39.7842 57.0761C39.2074 57.0761 38.6999 56.9739 38.2715 56.7663C37.6947 56.4895 37.2696 56.0215 37.0982 55.481C36.8609 54.723 37.1674 53.8002 37.8364 53.2334C38.3341 52.8115 38.9636 52.6138 39.5667 52.683C40.2126 52.7588 40.7959 53.1674 41.053 53.7244C41.3266 54.3176 41.2046 55.0657 40.763 55.5074C40.2917 55.9754 39.4908 56.0479 38.98 55.6656C38.5648 55.3558 38.3967 54.779 38.5977 54.3539C38.7098 54.1166 38.9537 53.9386 39.2371 53.8859C39.4909 53.8398 39.7314 53.9057 39.8995 54.0672C39.9556 54.1199 39.9556 54.2089 39.9028 54.2649C39.8501 54.3209 39.7611 54.3209 39.7051 54.2682C39.6029 54.1693 39.4513 54.1331 39.2865 54.1627C39.0921 54.199 38.9273 54.3176 38.8515 54.4758C38.7032 54.7856 38.835 55.2108 39.1448 55.4415C39.5535 55.7447 40.1895 55.6853 40.5652 55.3096C40.9278 54.9504 41.0266 54.3341 40.7992 53.8431C40.5817 53.3718 40.0841 53.0257 39.5337 52.9631C39.0163 52.9038 38.4494 53.085 38.0177 53.4476C37.4311 53.9419 37.1641 54.7461 37.3652 55.3986C37.5102 55.8666 37.8859 56.272 38.3901 56.5158C38.8218 56.7235 39.3491 56.8158 39.9555 56.7927C40.9179 56.7564 41.9132 56.4499 42.9085 55.8831C43.6764 55.4448 44.7672 54.7592 45.6109 53.9716C45.6637 53.9221 45.7428 53.9222 45.7955 53.965C45.8515 54.0111 45.8614 54.0869 45.8251 54.1463C45.4923 54.6868 45.255 55.1679 45.0935 55.626C46.2074 54.6604 47.5191 53.8958 48.9066 53.4014C49.5196 53.1839 50.3303 52.9466 51.1608 53.0653C52.0177 53.1872 52.7395 53.7112 52.9998 54.4C53.1646 54.8351 53.1316 55.3492 52.9108 55.804C52.6867 56.2621 52.3044 56.6015 51.8595 56.74C51.2959 56.9146 50.6632 56.7696 50.2809 56.3807C49.8557 55.9457 49.7898 55.2437 50.1293 54.7823C50.3072 54.5417 50.6006 54.3803 50.9235 54.3572C51.2234 54.3341 51.5069 54.4297 51.7013 54.6175C51.7573 54.6703 51.7573 54.7593 51.7046 54.8153C51.6519 54.8713 51.5629 54.8713 51.5069 54.8153C51.3717 54.6835 51.1674 54.6142 50.9499 54.634C50.7093 54.6538 50.4885 54.7691 50.36 54.9471C50.1029 55.2964 50.1622 55.8534 50.4852 56.1863C50.795 56.5027 51.3157 56.618 51.7804 56.4763C52.1528 56.3609 52.4725 56.0742 52.6636 55.6853C52.8515 55.2964 52.8812 54.8647 52.7427 54.5022C52.5153 53.9057 51.8826 53.4542 51.1246 53.3454C50.3567 53.2367 49.5855 53.4608 49.0022 53.6684C47.4927 54.2056 46.0789 55.069 44.9155 56.1698C44.8694 56.2126 44.8035 56.2192 44.7474 56.1896C44.6947 56.1599 44.6684 56.0973 44.6815 56.0347C44.7837 55.6062 44.9485 55.1745 45.1891 54.7032C44.4574 55.2833 43.6533 55.7842 43.0469 56.127C42.012 56.7169 40.9739 57.0333 39.9654 57.0728C39.9061 57.0728 39.8468 57.0761 39.7842 57.0761Z" fill="#F1DFC1"/>
<path d="M38.3247 56.7798C38.2918 56.7798 38.2621 56.77 38.2357 56.7469C37.8996 56.4733 37.6722 56.1504 37.5601 55.7878C37.3228 55.0298 37.6293 54.1071 38.2984 53.5402C38.7894 53.1249 39.4387 52.9206 40.0286 52.9898C40.2329 53.0129 40.434 53.0722 40.6251 53.1612C40.6943 53.1942 40.724 53.2765 40.6943 53.3491C40.6613 53.4183 40.579 53.4479 40.5064 53.415C40.3417 53.3392 40.1703 53.2897 39.9956 53.2667C39.4782 53.204 38.9114 53.3886 38.4796 53.7511C37.893 54.2455 37.626 55.0496 37.8271 55.7022C37.9226 56.0087 38.1204 56.2888 38.4104 56.5261C38.4697 56.5755 38.4796 56.6645 38.4302 56.7238C38.4038 56.7634 38.3643 56.7798 38.3247 56.7798Z" fill="#F1DFC1"/>
<path d="M51.0509 56.7826C50.9817 56.7826 50.9224 56.7331 50.9125 56.6639C50.9026 56.5881 50.9554 56.5156 51.0312 56.5057C51.4332 56.4464 51.7727 56.2091 51.9902 55.84C52.2308 55.428 52.2835 54.9139 52.1286 54.5019C51.8683 53.823 51.0674 53.4144 50.4314 53.3254C50.3556 53.3155 50.3028 53.243 50.3127 53.1672C50.3226 53.0914 50.3951 53.0387 50.4709 53.0486C51.2092 53.154 52.0891 53.6121 52.389 54.4031C52.5735 54.8941 52.5142 55.4972 52.2308 55.9817C51.9704 56.4266 51.5585 56.7133 51.0707 56.7826C51.0641 56.7826 51.0575 56.7826 51.0509 56.7826Z" fill="#F1DFC1"/>
<path d="M48.1194 57.0759H36.3077C36.2286 57.0759 36.166 57.0133 36.166 56.9342C36.166 56.8551 36.2286 56.7925 36.3077 56.7925H48.1194C48.1985 56.7925 48.2611 56.8551 48.2611 56.9342C48.2578 57.0133 48.1952 57.0759 48.1194 57.0759Z" fill="#F1DFC1"/>
<path d="M39.4743 55.1811C39.8274 55.1811 40.1137 54.8948 40.1137 54.5417C40.1137 54.1886 39.8274 53.9023 39.4743 53.9023C39.1212 53.9023 38.835 54.1886 38.835 54.5417C38.835 54.8948 39.1212 55.1811 39.4743 55.1811Z" fill="#F1DFC1"/>
<path d="M48.1189 57.0727C48.472 57.0727 48.7582 56.7864 48.7582 56.4333C48.7582 56.0802 48.472 55.7939 48.1189 55.7939C47.7657 55.7939 47.4795 56.0802 47.4795 56.4333C47.4795 56.7864 47.7657 57.0727 48.1189 57.0727Z" fill="#F1DFC1"/>
<path d="M51.2478 55.7016C51.6009 55.7016 51.8871 55.4153 51.8871 55.0622C51.8871 54.7091 51.6009 54.4229 51.2478 54.4229C50.8947 54.4229 50.6084 54.7091 50.6084 55.0622C50.6084 55.4153 50.8947 55.7016 51.2478 55.7016Z" fill="#F1DFC1"/>
<path d="M53.9564 29.8936C53.3335 29.8936 52.681 29.5937 52.2427 29.0763C51.8208 28.5786 51.6231 27.9492 51.6923 27.3461C51.7681 26.7001 52.1767 26.1168 52.7337 25.8597C53.3269 25.5862 54.075 25.7081 54.5167 26.1497C54.9846 26.621 55.0572 27.4219 54.6749 27.936C54.3651 28.3512 53.7883 28.5193 53.3632 28.3183C53.1259 28.2062 52.9479 27.9624 52.8952 27.6789C52.8491 27.4252 52.915 27.1846 53.0764 27.0165C53.1292 26.9605 53.2182 26.9605 53.2742 27.0132C53.3302 27.0659 53.3302 27.1549 53.2775 27.2109C53.1786 27.3131 53.1424 27.4647 53.172 27.6295C53.2083 27.8239 53.3269 27.9887 53.4851 28.0645C53.7949 28.2128 54.22 28.081 54.4507 27.7712C54.7539 27.3625 54.6946 26.7265 54.3189 26.3508C53.9597 25.9882 53.3434 25.8894 52.8523 26.1168C52.3811 26.3343 52.035 26.8319 51.9724 27.3823C51.9131 27.8997 52.0943 28.4666 52.4569 28.8983C52.9512 29.485 53.7553 29.7552 54.4079 29.5509C54.8726 29.4059 55.2812 29.0302 55.5251 28.5259C55.7328 28.0942 55.825 27.5669 55.802 26.9605C55.7657 25.9981 55.4592 25.0028 54.8924 24.0076C54.454 23.2397 53.7685 22.1488 52.9809 21.3051C52.9314 21.2524 52.9314 21.1733 52.9743 21.1205C53.0171 21.0678 53.0962 21.0546 53.1555 21.0909C53.696 21.4237 54.1772 21.661 54.6353 21.8225C53.6697 20.7053 52.9051 19.3969 52.4107 18.0094C52.1932 17.3964 51.9559 16.5857 52.0746 15.7552C52.1965 14.9016 52.7205 14.1766 53.4093 13.9162C53.8443 13.7514 54.3552 13.7844 54.8133 14.0052C55.2714 14.2293 55.6108 14.6116 55.7492 15.0565C55.9239 15.6201 55.7789 16.2528 55.39 16.6351C54.955 17.0603 54.253 17.1262 53.7916 16.7867C53.551 16.6088 53.3895 16.3122 53.3665 15.9925C53.3434 15.6926 53.439 15.4091 53.6268 15.218C53.6828 15.162 53.7685 15.162 53.8246 15.2147C53.8806 15.2674 53.8806 15.3564 53.8246 15.4124C53.6927 15.5476 53.6235 15.7519 53.6433 15.9694C53.6631 16.21 53.7784 16.4308 53.9564 16.5593C54.3057 16.8164 54.8627 16.7571 55.1956 16.4341C55.5119 16.1243 55.6273 15.6036 55.4823 15.1389C55.3669 14.7665 55.0802 14.4468 54.6913 14.2557C54.3024 14.0678 53.874 14.0382 53.5082 14.1766C52.9117 14.404 52.4602 15.0367 52.3514 15.7947C52.2426 16.5659 52.4668 17.3338 52.6744 17.9172C53.2116 19.4266 54.075 20.8404 55.1758 22.0038C55.2186 22.0499 55.2252 22.1158 55.1956 22.1719C55.1659 22.2246 55.1 22.251 55.0407 22.2378C54.6122 22.1356 54.1805 21.9708 53.7092 21.7302C54.2892 22.4619 54.7902 23.266 55.1329 23.8724C55.7229 24.9073 56.0425 25.9454 56.0788 26.9539C56.1019 27.6064 55.9997 28.1799 55.7723 28.6512C55.4955 29.2279 55.0275 29.6563 54.487 29.8244C54.3189 29.8673 54.1376 29.8936 53.9564 29.8936Z" fill="#F1DFC1"/>
<path d="M54.2669 29.4324C53.6441 29.4324 52.9915 29.1325 52.5532 28.6151C52.1314 28.1175 51.9336 27.4847 52.0028 26.8849C52.0259 26.6806 52.0852 26.4795 52.1742 26.2884C52.2071 26.2191 52.2895 26.1895 52.362 26.2224C52.4313 26.2554 52.4609 26.3378 52.428 26.4103C52.3522 26.5751 52.3027 26.7465 52.283 26.9211C52.2203 27.4385 52.4049 28.0054 52.7674 28.4371C53.2618 29.0238 54.0659 29.2907 54.7184 29.0897C55.0249 28.9941 55.3018 28.7964 55.5424 28.5063C55.5918 28.447 55.6808 28.4371 55.7401 28.4866C55.7994 28.536 55.8093 28.625 55.7599 28.6843C55.483 29.0205 55.1634 29.2479 54.8008 29.3599C54.6295 29.4094 54.4482 29.4324 54.2669 29.4324Z" fill="#F1DFC1"/>
<path d="M52.1962 16.5991C52.1897 16.5991 52.1831 16.5991 52.1765 16.5991C52.1007 16.5892 52.0479 16.5167 52.0578 16.4409C52.16 15.7257 52.6247 14.8227 53.4123 14.5228C53.9034 14.335 54.5065 14.3976 54.991 14.681C55.4359 14.9414 55.7226 15.3533 55.7918 15.8411C55.8017 15.9169 55.749 15.9894 55.6732 15.9993C55.5974 16.0092 55.5249 15.9564 55.515 15.8806C55.4557 15.4786 55.2184 15.1391 54.8493 14.9216C54.4373 14.681 53.9232 14.6283 53.5112 14.7832C52.8323 15.0435 52.4236 15.8444 52.3347 16.4804C52.3248 16.5496 52.2655 16.5991 52.1962 16.5991Z" fill="#F1DFC1"/>
<path d="M55.9444 30.7475C55.8653 30.7475 55.8027 30.6848 55.8027 30.6057V18.7941C55.8027 18.715 55.8653 18.6523 55.9444 18.6523C56.0235 18.6523 56.0862 18.715 56.0862 18.7941V30.6057C56.0862 30.6848 56.0235 30.7475 55.9444 30.7475Z" fill="#F1DFC1"/>
<path d="M53.5515 28.081C53.1988 28.081 52.9121 27.7942 52.9121 27.4416C52.9121 27.089 53.1988 26.8022 53.5515 26.8022C53.9041 26.8022 54.1908 27.089 54.1908 27.4416C54.1941 27.7942 53.9074 28.081 53.5515 28.081Z" fill="#F1DFC1"/>
<path d="M55.4421 19.433C55.7952 19.433 56.0815 19.1468 56.0815 18.7937C56.0815 18.4405 55.7952 18.1543 55.4421 18.1543C55.089 18.1543 54.8027 18.4405 54.8027 18.7937C54.8027 19.1468 55.089 19.433 55.4421 19.433Z" fill="#F1DFC1"/>
<path d="M54.071 16.3056C54.4241 16.3056 54.7104 16.0193 54.7104 15.6662C54.7104 15.3131 54.4241 15.0269 54.071 15.0269C53.7179 15.0269 53.4316 15.3131 53.4316 15.6662C53.4316 16.0193 53.7179 16.3056 54.071 16.3056Z" fill="#F1DFC1"/>
<path d="M53.9942 54.1004C53.7932 54.1004 53.5955 54.0642 53.4142 53.9949C52.7254 53.7313 52.2014 53.0095 52.0795 52.156C51.9608 51.3255 52.1981 50.5147 52.4156 49.9017C52.91 48.5143 53.6746 47.2059 54.6402 46.0886C54.1821 46.2501 53.7009 46.4874 53.1604 46.8203C53.1011 46.8565 53.022 46.8434 52.9792 46.7906C52.933 46.7379 52.9363 46.6588 52.9858 46.6061C53.7734 45.7657 54.4589 44.6715 54.8973 43.9036C55.4641 42.9083 55.7706 41.913 55.8069 40.9507C55.8299 40.3443 55.7344 39.817 55.53 39.3853C55.2861 38.8777 54.8808 38.5053 54.4128 38.3603C53.7602 38.156 52.9594 38.4262 52.4618 39.0128C52.0959 39.4446 51.9147 40.0114 51.9773 40.5289C52.0432 41.0792 52.3893 41.5736 52.8572 41.7944C53.345 42.0218 53.9646 41.9229 54.3238 41.5604C54.6995 41.1847 54.7588 40.5486 54.4556 40.14C54.2249 39.8269 53.7998 39.6983 53.49 39.8466C53.3318 39.9224 53.2132 40.0872 53.1769 40.2817C53.1472 40.4465 53.1868 40.5981 53.2824 40.7002C53.3351 40.7563 53.3351 40.8452 53.2791 40.898C53.223 40.9507 53.1341 40.9507 53.0813 40.8947C52.9199 40.7266 52.8539 40.486 52.9001 40.2322C52.9495 39.9521 53.1308 39.7082 53.3681 39.5929C53.7932 39.3886 54.3699 39.5566 54.6797 39.9752C55.062 40.4893 54.9895 41.2901 54.5215 41.7614C54.0799 42.203 53.3318 42.325 52.7386 42.0515C52.1816 41.7944 51.773 41.2111 51.6972 40.5651C51.6247 39.9653 51.8257 39.3325 52.2475 38.8349C52.8144 38.1626 53.7372 37.8594 54.4952 38.0966C55.0357 38.2647 55.5037 38.6932 55.7805 39.2699C56.0079 39.7445 56.1101 40.3146 56.087 40.9672C56.0507 41.9756 55.7311 43.0138 55.1411 44.0486C54.7951 44.655 54.2974 45.4592 53.7174 46.1908C54.1887 45.9502 54.6204 45.7854 55.0488 45.6833C55.1082 45.6668 55.1708 45.6965 55.2038 45.7492C55.2334 45.8019 55.2268 45.8711 55.184 45.9173C54.0832 47.0806 53.2198 48.4945 52.6826 50.0039C52.4749 50.5872 52.2508 51.3551 52.3596 52.1263C52.4651 52.881 52.9199 53.5171 53.5164 53.7445C53.8789 53.8829 54.3106 53.8532 54.6995 53.6654C55.0884 53.4775 55.3751 53.1546 55.4905 52.7821C55.6355 52.3175 55.5201 51.7967 55.2038 51.487C54.8709 51.1607 54.3172 51.1047 53.9646 51.3617C53.7899 51.4902 53.6713 51.7111 53.6515 51.9516C53.635 52.1692 53.7009 52.3735 53.8327 52.5086C53.8855 52.5646 53.8855 52.6536 53.8327 52.7063C53.7767 52.7591 53.6877 52.7591 53.635 52.7031C53.4439 52.5086 53.3483 52.2252 53.3747 51.9253C53.401 51.6056 53.5592 51.309 53.7998 51.131C54.2612 50.7916 54.9665 50.8575 55.3982 51.2826C55.7871 51.6649 55.9321 52.2977 55.7574 52.8612C55.619 53.3062 55.2795 53.6885 54.8214 53.9126C54.5545 54.0345 54.2711 54.1004 53.9942 54.1004Z" fill="#F1DFC1"/>
<path d="M52.304 41.6988C52.2513 41.6988 52.2019 41.6692 52.1788 41.6197C52.0898 41.4286 52.0305 41.2275 52.0074 41.0232C51.9382 40.43 52.1425 39.784 52.5578 39.293C53.1246 38.624 54.0474 38.3175 54.8054 38.5547C55.1647 38.6668 55.4876 38.8942 55.7645 39.2304C55.8139 39.2897 55.804 39.3787 55.7447 39.4281C55.6854 39.4775 55.5964 39.4677 55.5469 39.4083C55.3064 39.115 55.0295 38.9206 54.723 38.825C54.0705 38.6207 53.2696 38.8909 52.772 39.4775C52.4062 39.9093 52.2249 40.4761 52.2875 40.9936C52.3073 41.1682 52.3567 41.3396 52.4358 41.5044C52.4688 41.5736 52.4391 41.6593 52.3699 41.6922C52.3436 41.6922 52.3238 41.6988 52.304 41.6988Z" fill="#F1DFC1"/>
<path d="M54.0135 53.4908C53.8059 53.4908 53.5982 53.4545 53.4104 53.3853C52.6227 53.0854 52.158 52.1824 52.0559 51.4673C52.046 51.3915 52.0987 51.3189 52.1745 51.3091C52.2503 51.2959 52.3228 51.3519 52.3327 51.4277C52.4217 52.0638 52.8304 52.8646 53.5093 53.125C53.9212 53.2832 54.432 53.2304 54.8473 52.9866C55.2164 52.769 55.4537 52.4296 55.513 52.0275C55.5229 51.9517 55.5954 51.8957 55.6712 51.9089C55.747 51.9188 55.7997 51.9913 55.7899 52.0671C55.7174 52.5548 55.4339 52.9668 54.989 53.2271C54.6924 53.3985 54.3497 53.4908 54.0135 53.4908Z" fill="#F1DFC1"/>
<path d="M55.9444 49.2493C55.8653 49.2493 55.8027 49.1867 55.8027 49.1076V37.2926C55.8027 37.2135 55.8653 37.1509 55.9444 37.1509C56.0235 37.1509 56.0862 37.2135 56.0862 37.2926V49.1076C56.0862 49.1867 56.0235 49.2493 55.9444 49.2493Z" fill="#F1DFC1"/>
<path d="M53.5534 39.8237C53.2008 39.8237 52.9141 40.1105 52.9141 40.4631C52.9141 40.8157 53.2008 41.1025 53.5534 41.1025C53.9061 41.1025 54.1928 40.8157 54.1928 40.4631C54.1928 40.1105 53.9094 39.8237 53.5534 39.8237Z" fill="#F1DFC1"/>
<path d="M55.444 49.747C55.7972 49.747 56.0834 49.4607 56.0834 49.1076C56.0834 48.7545 55.7972 48.4683 55.444 48.4683C55.0909 48.4683 54.8047 48.7545 54.8047 49.1076C54.8047 49.4607 55.0909 49.747 55.444 49.747Z" fill="#F1DFC1"/>
<path d="M54.073 52.8778C54.4261 52.8778 54.7123 52.5916 54.7123 52.2385C54.7123 51.8854 54.4261 51.5991 54.073 51.5991C53.7198 51.5991 53.4336 51.8854 53.4336 52.2385C53.4336 52.5916 53.7198 52.8778 54.073 52.8778Z" fill="#F1DFC1"/>
<path d="M11.9697 29.8937C11.7852 29.8937 11.6072 29.8673 11.4358 29.8146C10.8953 29.6465 10.4273 29.2181 10.1505 28.6414C9.9231 28.1668 9.82094 27.5966 9.84401 26.9441C9.88026 25.9356 10.1999 24.8975 10.7899 23.8626C11.1359 23.2562 11.6336 22.4521 12.2136 21.7204C11.7456 21.961 11.3106 22.1258 10.8822 22.228C10.8228 22.2412 10.7602 22.2148 10.7272 22.1621C10.6976 22.1093 10.7042 22.0401 10.747 21.994C11.8478 20.8306 12.7112 19.4168 13.2484 17.9074C13.4561 17.324 13.6802 16.5561 13.5714 15.7849C13.4627 15.0302 13.0111 14.3942 12.4146 14.1668C12.0521 14.0284 11.6204 14.058 11.2315 14.2459C10.8426 14.4337 10.5559 14.7567 10.4405 15.1291C10.2955 15.5938 10.4142 16.1145 10.7305 16.4243C11.0634 16.7506 11.6171 16.8066 11.9697 16.5495C12.1477 16.421 12.263 16.2002 12.2828 15.9596C12.2993 15.7421 12.2334 15.5378 12.1015 15.4026C12.0488 15.3466 12.0488 15.2576 12.1015 15.2049C12.1576 15.1522 12.2466 15.1522 12.2993 15.2082C12.4904 15.4026 12.586 15.6861 12.5596 15.9827C12.5333 16.3024 12.3751 16.599 12.1312 16.7769C11.6698 17.1164 10.9645 17.0505 10.5328 16.6253C10.1439 16.2431 9.9989 15.6103 10.1736 15.0467C10.312 14.6018 10.6515 14.2195 11.1096 13.9954C11.5677 13.7713 12.0785 13.7383 12.5135 13.9064C13.2023 14.1701 13.7263 14.8918 13.8483 15.7454C13.9669 16.5759 13.7296 17.3866 13.5121 17.9996C13.021 19.3871 12.2564 20.6955 11.2875 21.8127C11.7456 21.6512 12.2268 21.414 12.7673 21.0811C12.8266 21.0448 12.9057 21.058 12.9485 21.1107C12.9947 21.1635 12.9914 21.2426 12.9419 21.2953C12.1543 22.1357 11.4688 23.2299 11.0304 23.9978C10.4636 24.993 10.1571 25.9883 10.1209 26.9507C10.0978 27.5571 10.1933 28.0844 10.3977 28.5161C10.6416 29.0236 11.0469 29.3961 11.5149 29.5411C12.1675 29.7454 12.9683 29.4752 13.4659 28.8885C13.8318 28.4568 14.013 27.8899 13.9504 27.3725C13.8845 26.8221 13.5384 26.3278 13.0705 26.107C12.5794 25.8796 11.9631 25.9784 11.6039 26.341C11.2282 26.7167 11.1722 27.3527 11.4721 27.7614C11.7061 28.0745 12.1279 28.203 12.4377 28.0547C12.5959 27.9789 12.7145 27.8141 12.7508 27.6197C12.7805 27.4549 12.7409 27.3033 12.6453 27.2011C12.5926 27.1451 12.5926 27.0561 12.6486 27.0034C12.7047 26.9507 12.7936 26.9507 12.8464 27.0067C13.0078 27.1748 13.0738 27.4154 13.0276 27.6691C12.9782 27.9493 12.7969 28.1931 12.5596 28.3085C12.1345 28.5128 11.5578 28.3447 11.248 27.9262C10.8657 27.4121 10.9382 26.6112 11.4062 26.1399C11.8478 25.6983 12.5959 25.5764 13.1891 25.8499C13.7461 26.107 14.1547 26.6903 14.2305 27.3363C14.303 27.9394 14.102 28.5689 13.6802 29.0665C13.2451 29.5938 12.5926 29.8937 11.9697 29.8937Z" fill="#F1DFC1"/>
<path d="M11.6594 29.4322C11.4781 29.4322 11.2968 29.4058 11.1255 29.3531C10.7629 29.241 10.4433 29.0136 10.1664 28.6775C10.117 28.6181 10.1269 28.5292 10.1862 28.4797C10.2455 28.4303 10.3345 28.4402 10.3839 28.4995C10.6245 28.7928 10.9014 28.9873 11.2079 29.0828C11.8604 29.2872 12.6612 29.0202 13.1589 28.4303C13.5247 27.9986 13.706 27.4317 13.6434 26.9143C13.6236 26.7396 13.5742 26.5682 13.4951 26.4035C13.4621 26.3342 13.4917 26.2486 13.5643 26.2156C13.6335 26.1827 13.7192 26.2123 13.7521 26.2815C13.8411 26.4727 13.9004 26.6737 13.9235 26.878C13.996 27.4778 13.795 28.1106 13.3731 28.6083C12.9348 29.1356 12.2822 29.4322 11.6594 29.4322Z" fill="#F1DFC1"/>
<path d="M13.7305 16.599C13.6613 16.599 13.602 16.5495 13.5921 16.477C13.5032 15.841 13.0945 15.0401 12.4156 14.7798C12.0036 14.6249 11.4928 14.6776 11.0775 14.9182C10.7084 15.1357 10.4711 15.4751 10.4118 15.8772C10.4019 15.953 10.3294 16.0057 10.2536 15.9959C10.1778 15.986 10.1251 15.9135 10.135 15.8377C10.2075 15.3499 10.4909 14.9379 10.9358 14.6776C11.4203 14.3942 12.0234 14.3315 12.5144 14.5194C13.3021 14.8193 13.7668 15.7223 13.869 16.4375C13.8789 16.5133 13.8261 16.5858 13.7503 16.5957C13.7437 16.599 13.7371 16.599 13.7305 16.599Z" fill="#F1DFC1"/>
<path d="M9.9796 30.747C9.90051 30.747 9.83789 30.6843 9.83789 30.6052V18.7936C9.83789 18.7145 9.90051 18.6519 9.9796 18.6519C10.0587 18.6519 10.1213 18.7145 10.1213 18.7936V30.6052C10.1213 30.6843 10.0587 30.747 9.9796 30.747Z" fill="#F1DFC1"/>
<path d="M12.3728 28.081C12.7259 28.081 13.0121 27.7947 13.0121 27.4416C13.0121 27.0885 12.7259 26.8022 12.3728 26.8022C12.0197 26.8022 11.7334 27.0885 11.7334 27.4416C11.7334 27.7947 12.0197 28.081 12.3728 28.081Z" fill="#F1DFC1"/>
<path d="M10.4802 19.433C10.8333 19.433 11.1195 19.1468 11.1195 18.7937C11.1195 18.4405 10.8333 18.1543 10.4802 18.1543C10.1271 18.1543 9.84082 18.4405 9.84082 18.7937C9.84082 19.1468 10.1271 19.433 10.4802 19.433Z" fill="#F1DFC1"/>
<path d="M11.8513 16.3056C12.2044 16.3056 12.4906 16.0193 12.4906 15.6662C12.4906 15.3131 12.2044 15.0269 11.8513 15.0269C11.4982 15.0269 11.2119 15.3131 11.2119 15.6662C11.2119 16.0193 11.4982 16.3056 11.8513 16.3056Z" fill="#F1DFC1"/>
<path d="M11.9335 54.1007C11.6566 54.1007 11.3732 54.0348 11.1096 53.9063C10.6515 53.6822 10.312 53.2999 10.1736 52.855C9.9989 52.2914 10.1439 51.6587 10.5328 51.2764C10.9678 50.8512 11.6698 50.7853 12.1312 51.1248C12.3718 51.3027 12.5333 51.5993 12.5596 51.919C12.5827 52.2189 12.4871 52.5023 12.2993 52.6968C12.2466 52.7528 12.1576 52.7528 12.1015 52.7001C12.0455 52.6474 12.0455 52.5584 12.1015 52.5023C12.2334 52.3672 12.3026 52.1629 12.2828 51.9454C12.263 51.7048 12.1477 51.484 11.9697 51.3555C11.6204 51.0984 11.0634 51.1577 10.7305 51.4807C10.4142 51.7905 10.2988 52.3112 10.4405 52.7759C10.5559 53.1483 10.8426 53.468 11.2315 53.6591C11.6204 53.847 12.0521 53.8766 12.4146 53.7382C13.0111 53.5108 13.4627 52.8781 13.5714 52.12C13.6802 51.3489 13.4561 50.581 13.2484 49.9976C12.7112 48.4882 11.8478 47.0744 10.747 45.911C10.7042 45.8649 10.6976 45.799 10.7272 45.7429C10.7569 45.6902 10.8228 45.6605 10.8822 45.677C11.3106 45.7792 11.7423 45.944 12.2136 46.1846C11.6336 45.4529 11.1359 44.6488 10.7899 44.0424C10.1999 43.0075 9.88026 41.9694 9.84401 40.9609C9.82094 40.3084 9.9231 39.7349 10.1505 39.2637C10.4273 38.6869 10.8953 38.2585 11.4358 38.0904C12.1905 37.8531 13.1166 38.1596 13.6835 38.8286C14.1053 39.3263 14.303 39.959 14.2338 40.5588C14.158 41.2048 13.7494 41.7881 13.1924 42.0452C12.5992 42.3187 11.8511 42.1968 11.4095 41.7552C10.9415 41.2839 10.869 40.483 11.2513 39.9689C11.5611 39.5537 12.1378 39.3856 12.5629 39.5866C12.8002 39.6987 12.9782 39.9426 13.0309 40.226C13.0771 40.4797 13.0111 40.7203 12.8497 40.8884C12.7969 40.9444 12.708 40.9444 12.6519 40.8917C12.5959 40.839 12.5959 40.75 12.6486 40.694C12.7475 40.5918 12.7837 40.4402 12.7541 40.2754C12.7178 40.081 12.5992 39.9162 12.441 39.8404C12.1312 39.6921 11.7061 39.8239 11.4754 40.137C11.1722 40.5424 11.2315 41.1817 11.6072 41.5574C11.9664 41.92 12.5827 42.0188 13.0738 41.7914C13.545 41.5739 13.8911 41.0763 13.9537 40.5259C14.013 40.0085 13.8318 39.4416 13.4692 39.0099C12.9749 38.4232 12.1708 38.1563 11.5182 38.3573C11.0535 38.5024 10.6449 38.8748 10.401 39.3823C10.1933 39.814 10.1011 40.3413 10.1241 40.9477C10.1604 41.9101 10.4669 42.9054 11.0337 43.9006C11.4721 44.6685 12.1576 45.7627 12.9452 46.6031C12.9947 46.6558 12.9947 46.7349 12.9518 46.7877C12.909 46.8404 12.8299 46.8536 12.7706 46.8173C12.2301 46.4845 11.7489 46.2472 11.2908 46.0857C12.2564 47.2029 13.021 48.5113 13.5154 49.8988C13.7329 50.5118 13.9702 51.3225 13.8515 52.153C13.7296 53.0099 13.2056 53.7316 12.5168 53.992C12.3289 54.0678 12.1345 54.1007 11.9335 54.1007Z" fill="#F1DFC1"/>
<path d="M13.6236 41.6991C13.6038 41.6991 13.584 41.6958 13.5643 41.6859C13.495 41.6529 13.4654 41.5705 13.4951 41.498C13.5709 41.3332 13.6203 41.1619 13.6434 40.9872C13.706 40.4698 13.5214 39.9029 13.1589 39.4712C12.6645 38.8846 11.8604 38.6176 11.2079 38.8186C10.9014 38.9142 10.6212 39.112 10.3839 39.402C10.3345 39.4613 10.2455 39.4712 10.1862 39.4218C10.1269 39.3723 10.117 39.2833 10.1664 39.224C10.44 38.8879 10.7629 38.6605 11.1255 38.5484C11.8835 38.3111 12.8063 38.6176 13.3731 39.2866C13.7884 39.7777 13.9927 40.4236 13.9235 41.0169C13.9004 41.2212 13.8411 41.4222 13.7521 41.6134C13.7257 41.6661 13.6763 41.6991 13.6236 41.6991Z" fill="#F1DFC1"/>
<path d="M11.9114 53.491C11.5752 53.491 11.2324 53.402 10.9358 53.2274C10.4909 52.967 10.2042 52.5551 10.135 52.0673C10.1251 51.9915 10.1778 51.919 10.2536 51.9091C10.3294 51.8959 10.4019 51.9519 10.4118 52.0277C10.4711 52.4298 10.7084 52.7693 11.0775 52.9868C11.4895 53.2274 12.0036 53.2801 12.4156 53.1252C13.0945 52.8649 13.5032 52.064 13.5921 51.4279C13.602 51.3521 13.6778 51.2994 13.7503 51.3093C13.8261 51.3192 13.8789 51.3917 13.869 51.4675C13.7668 52.1827 13.3021 53.0857 12.5144 53.3856C12.3266 53.4548 12.1223 53.491 11.9114 53.491Z" fill="#F1DFC1"/>
<path d="M9.9796 49.2493C9.90051 49.2493 9.83789 49.1867 9.83789 49.1076V37.2926C9.83789 37.2135 9.90051 37.1509 9.9796 37.1509C10.0587 37.1509 10.1213 37.2135 10.1213 37.2926V49.1076C10.1213 49.1867 10.0587 49.2493 9.9796 49.2493Z" fill="#F1DFC1"/>
<path d="M12.3728 41.1025C12.7259 41.1025 13.0121 40.8162 13.0121 40.4631C13.0121 40.11 12.7259 39.8237 12.3728 39.8237C12.0197 39.8237 11.7334 40.11 11.7334 40.4631C11.7334 40.8162 12.0197 41.1025 12.3728 41.1025Z" fill="#F1DFC1"/>
<path d="M10.4802 49.747C10.8333 49.747 11.1195 49.4607 11.1195 49.1076C11.1195 48.7545 10.8333 48.4683 10.4802 48.4683C10.1271 48.4683 9.84082 48.7545 9.84082 49.1076C9.84082 49.4607 10.1271 49.747 10.4802 49.747Z" fill="#F1DFC1"/>
<path d="M11.8513 52.8778C12.2044 52.8778 12.4906 52.5916 12.4906 52.2385C12.4906 51.8854 12.2044 51.5991 11.8513 51.5991C11.4982 51.5991 11.2119 51.8854 11.2119 52.2385C11.2119 52.5916 11.4982 52.8778 11.8513 52.8778Z" fill="#F1DFC1"/>
<path d="M56.6234 57.7553H9.30089C9.22179 57.7553 9.15918 57.6927 9.15918 57.6136V10.2911C9.15918 10.212 9.22179 10.1494 9.30089 10.1494H56.6234C56.7025 10.1494 56.7651 10.212 56.7651 10.2911V57.6136C56.7651 57.6927 56.7025 57.7553 56.6234 57.7553ZM9.44262 57.4752H56.485V10.4295H9.44262V57.4752Z" fill="#F1DFC1"/>
<path d="M32.9402 33.921C32.9402 33.9342 32.9369 33.9441 32.9336 33.954C32.9534 33.9672 32.9731 33.9803 32.9929 33.9935C32.9764 33.9672 32.96 33.9408 32.9468 33.9111C32.9435 33.9144 32.9402 33.9177 32.9402 33.921Z" fill="#EAA49B" stroke="#EAA49B" stroke-width="0.2" stroke-miterlimit="10" stroke-linejoin="round"/>
<path d="M29.5446 43.5439H19.6543V44.5656H29.5446V43.5439Z" fill="#F5D09B"/>
<path d="M29.5446 43.5439H19.6543V44.5656H29.5446V43.5439Z" fill="#F5D09B"/>
<path d="M19.6543 43.5441L21.6251 42.5225H27.5738L29.5446 43.5441H19.6543Z" fill="#F5D09B"/>
<path d="M27.4919 21.895H21.708V42.2655H27.4919V21.895Z" fill="#F5D09B"/>
<path d="M29.9564 18.9155H19.2422V21.473H29.9564V18.9155Z" fill="#F5D09B"/>
<path d="M19.2425 18.9155C18.0989 18.9155 17.1729 19.8416 17.1729 20.9852C17.1729 22.1288 18.0989 23.0549 19.2425 23.0549C20.3861 23.0549 21.3122 22.1288 21.3122 20.9852C21.3122 19.8416 20.3861 18.9155 19.2425 18.9155Z" fill="#F5D09B"/>
<path d="M29.9564 18.9155C31.1 18.9155 32.0261 19.8416 32.0261 20.9852C32.0261 22.1288 31.1 23.0549 29.9564 23.0549C28.8128 23.0549 27.8867 22.1288 27.8867 20.9852C27.8867 19.8416 28.8161 18.9155 29.9564 18.9155Z" fill="#F5D09B"/>
<path d="M19.2422 22.6563C18.3194 22.6563 17.5713 21.9048 17.5713 20.9853C17.5713 20.0626 18.3227 19.3145 19.2422 19.3145C20.165 19.3145 20.9131 20.0659 20.9131 20.9853C20.9131 21.9081 20.165 22.6563 19.2422 22.6563ZM19.2422 19.5386C18.4446 19.5386 17.7954 20.1878 17.7954 20.9853C17.7954 21.7829 18.4446 22.4322 19.2422 22.4322C20.0397 22.4322 20.689 21.7829 20.689 20.9853C20.689 20.1878 20.0397 19.5386 19.2422 19.5386Z" fill="#F5D09B"/>
<path d="M19.2426 22.0267C18.6692 22.0267 18.2012 21.5587 18.2012 20.9853C18.2012 20.4118 18.6692 19.9438 19.2426 19.9438C19.8161 19.9438 20.284 20.4118 20.284 20.9853C20.284 21.5587 19.8161 22.0267 19.2426 22.0267ZM19.2426 20.168C18.7944 20.168 18.4286 20.5338 18.4286 20.9853C18.4286 21.4335 18.7944 21.7993 19.2426 21.7993C19.6908 21.7993 20.0566 21.4335 20.0566 20.9853C20.0566 20.5338 19.6908 20.168 19.2426 20.168Z" fill="#F5D09B"/>
<path d="M19.244 21.3972C19.0166 21.3972 18.832 21.2126 18.832 20.9852C18.832 20.7578 19.0166 20.5732 19.244 20.5732C19.4714 20.5732 19.6559 20.7578 19.6559 20.9852C19.6559 21.2126 19.4714 21.3972 19.244 21.3972ZM19.244 20.7974C19.1418 20.7974 19.0594 20.8797 19.0594 20.9819C19.0594 21.0841 19.1418 21.1665 19.244 21.1665C19.3462 21.1665 19.4285 21.0841 19.4285 20.9819C19.4285 20.883 19.3462 20.7974 19.244 20.7974Z" fill="#F5D09B"/>
<path d="M29.959 22.6563C30.8818 22.6563 31.6299 21.9048 31.6299 20.9853C31.6299 20.0626 30.8785 19.3145 29.959 19.3145C29.0362 19.3145 28.2881 20.0659 28.2881 20.9853C28.2881 21.9081 29.0395 22.6563 29.959 22.6563ZM29.959 19.5386C30.7565 19.5386 31.4058 20.1878 31.4058 20.9853C31.4058 21.7829 30.7565 22.4322 29.959 22.4322C29.1614 22.4322 28.5122 21.7829 28.5122 20.9853C28.5155 20.1878 29.1647 19.5386 29.959 19.5386Z" fill="#F5D09B"/>
<path d="M29.9575 22.0267C30.5309 22.0267 30.9989 21.5587 30.9989 20.9853C30.9989 20.4118 30.5309 19.9438 29.9575 19.9438C29.384 19.9438 28.916 20.4118 28.916 20.9853C28.916 21.5587 29.384 22.0267 29.9575 22.0267ZM29.9575 20.168C30.4057 20.168 30.7715 20.5338 30.7715 20.9853C30.7715 21.4335 30.4057 21.7993 29.9575 21.7993C29.5092 21.7993 29.1434 21.4335 29.1434 20.9853C29.1434 20.5338 29.5092 20.168 29.9575 20.168Z" fill="#F5D09B"/>
<path d="M29.9579 21.3972C30.1853 21.3972 30.3698 21.2126 30.3698 20.9852C30.3698 20.7578 30.1853 20.5732 29.9579 20.5732C29.7305 20.5732 29.5459 20.7578 29.5459 20.9852C29.5459 21.2126 29.7305 21.3972 29.9579 21.3972ZM29.9579 20.7974C30.06 20.7974 30.1424 20.8797 30.1424 20.9819C30.1424 21.0841 30.06 21.1665 29.9579 21.1665C29.8557 21.1665 29.7733 21.0841 29.7733 20.9819C29.7733 20.883 29.8557 20.7974 29.9579 20.7974Z" fill="#F5D09B"/>
<path d="M21.7311 22.3167C21.5004 22.3167 21.3125 22.1289 21.3125 21.8982V21.8883C21.3125 21.6576 21.5004 21.4697 21.7311 21.4697H27.4721C27.7028 21.4697 27.8907 21.6576 27.8907 21.8883V21.8982C27.8907 22.1289 27.7028 22.3167 27.4721 22.3167H21.7311Z" fill="#F5D09B"/>
<path d="M21.7311 42.6873C21.5004 42.6873 21.3125 42.4995 21.3125 42.2688V42.2589C21.3125 42.0282 21.5004 41.8403 21.7311 41.8403H27.4721C27.7028 41.8403 27.8907 42.0282 27.8907 42.2589V42.2688C27.8907 42.4995 27.7028 42.6873 27.4721 42.6873H21.7311Z" fill="#F5D09B"/>
<path d="M22.1229 20.8141C21.7505 20.8141 21.4473 20.5109 21.4473 20.1385V20.1253C21.4473 19.7529 21.7505 19.4497 22.1229 19.4497H27.0763C27.4487 19.4497 27.7519 19.7529 27.7519 20.1253V20.1385C27.7519 20.5109 27.4487 20.8141 27.0763 20.8141H22.1229Z" fill="#F5D09B"/>
<path d="M21.7176 41.8399C21.5924 41.8399 21.4902 41.7378 21.4902 41.6125V41.6092C21.4902 41.484 21.5924 41.3818 21.7176 41.3818H27.4851C27.6103 41.3818 27.7125 41.484 27.7125 41.6092V41.6125C27.7125 41.7378 27.6103 41.8399 27.4851 41.8399H21.7176Z" fill="#F5D09B"/>
<path d="M21.7176 22.775C21.5924 22.775 21.4902 22.6728 21.4902 22.5476V22.5443C21.4902 22.4191 21.5924 22.3169 21.7176 22.3169H27.4851C27.6103 22.3169 27.7125 22.4191 27.7125 22.5443V22.5476C27.7125 22.6728 27.6103 22.775 27.4851 22.775H21.7176Z" fill="#F5D09B"/>
<path d="M22.3766 40.9042H22.37C22.1557 40.9042 21.9844 40.7328 21.9844 40.5186V23.6414C21.9844 23.4272 22.1557 23.2559 22.37 23.2559H22.3766C22.5908 23.2559 22.7621 23.4272 22.7621 23.6414V40.5186C22.7621 40.7295 22.5875 40.9042 22.3766 40.9042Z" fill="#F5D09B"/>
<path d="M26.826 40.9042H26.8326C27.0468 40.9042 27.2182 40.7328 27.2182 40.5186V23.6414C27.2182 23.4272 27.0468 23.2559 26.8326 23.2559H26.826C26.6118 23.2559 26.4404 23.4272 26.4404 23.6414V40.5186C26.4404 40.7295 26.6118 40.9042 26.826 40.9042Z" fill="#F5D09B"/>
<path d="M23.8102 40.9042H23.8036C23.5893 40.9042 23.418 40.7328 23.418 40.5186V23.6414C23.418 23.4272 23.5893 23.2559 23.8036 23.2559H23.8102C24.0244 23.2559 24.1957 23.4272 24.1957 23.6414V40.5186C24.1957 40.7295 24.0211 40.9042 23.8102 40.9042Z" fill="#F5D09B"/>
<path d="M25.3924 40.9042H25.399C25.6132 40.9042 25.7846 40.7328 25.7846 40.5186V23.6414C25.7846 23.4272 25.6132 23.2559 25.399 23.2559H25.3924C25.1782 23.2559 25.0068 23.4272 25.0068 23.6414V40.5186C25.0068 40.7295 25.1782 40.9042 25.3924 40.9042Z" fill="#F5D09B"/>
<path d="M27.8859 42.2687V42.2588C27.8859 42.0347 27.7112 41.8535 27.4904 41.8436V41.8403C27.6124 41.837 27.7079 41.7381 27.7079 41.6162V41.6129C27.7079 41.491 27.6091 41.3921 27.4904 41.3888V32.6421L26.5347 36.9429C25.836 40.0969 23.4203 42.5884 20.2894 43.386L19.6533 43.5475V44.5691H29.5436V43.5475L27.7211 42.6016C27.82 42.5225 27.8859 42.4039 27.8859 42.2687Z" fill="#F5D09B"/>
<path d="M29.5436 43.5439H19.6533V44.5656H29.5436V43.5439Z" fill="white"/>
<path d="M29.5436 43.5439H19.6533V44.5656H29.5436V43.5439Z" fill="#E9A39B"/>
<path d="M19.6533 43.5441L21.6241 42.5225H27.5728L29.5436 43.5441H19.6533Z" fill="#F1DFC1"/>
<path d="M27.4909 21.895H21.707V42.2655H27.4909V21.895Z" fill="#F1DFC1"/>
<path d="M29.9554 18.9155H19.2412V21.473H29.9554V18.9155Z" fill="#F1DFC1"/>
<path d="M19.2416 18.9155C18.098 18.9155 17.1719 19.8416 17.1719 20.9852C17.1719 22.1288 18.098 23.0549 19.2416 23.0549C20.3852 23.0549 21.3112 22.1288 21.3112 20.9852C21.3112 19.8416 20.3852 18.9155 19.2416 18.9155Z" fill="#F1DFC1"/>
<path d="M29.9554 18.9155C31.099 18.9155 32.0251 19.8416 32.0251 20.9852C32.0251 22.1288 31.099 23.0549 29.9554 23.0549C28.8118 23.0549 27.8857 22.1288 27.8857 20.9852C27.8857 19.8416 28.8151 18.9155 29.9554 18.9155Z" fill="#F1DFC1"/>
<path d="M19.2412 22.6563C18.3184 22.6563 17.5703 21.9048 17.5703 20.9853C17.5703 20.0626 18.3217 19.3145 19.2412 19.3145C20.164 19.3145 20.9121 20.0659 20.9121 20.9853C20.9121 21.9081 20.164 22.6563 19.2412 22.6563ZM19.2412 19.5386C18.4437 19.5386 17.7944 20.1878 17.7944 20.9853C17.7944 21.7829 18.4437 22.4322 19.2412 22.4322C20.0388 22.4322 20.688 21.7829 20.688 20.9853C20.688 20.1878 20.0388 19.5386 19.2412 19.5386Z" fill="#E9A39B"/>
<path d="M19.2416 22.0267C18.6682 22.0267 18.2002 21.5587 18.2002 20.9853C18.2002 20.4118 18.6682 19.9438 19.2416 19.9438C19.8151 19.9438 20.2831 20.4118 20.2831 20.9853C20.2831 21.5587 19.8151 22.0267 19.2416 22.0267ZM19.2416 20.168C18.7934 20.168 18.4276 20.5338 18.4276 20.9853C18.4276 21.4335 18.7934 21.7993 19.2416 21.7993C19.6898 21.7993 20.0557 21.4335 20.0557 20.9853C20.0557 20.5338 19.6898 20.168 19.2416 20.168Z" fill="#E9A39B"/>
<path d="M19.243 21.3972C19.0156 21.3972 18.8311 21.2126 18.8311 20.9852C18.8311 20.7578 19.0156 20.5732 19.243 20.5732C19.4704 20.5732 19.655 20.7578 19.655 20.9852C19.655 21.2126 19.4704 21.3972 19.243 21.3972ZM19.243 20.7974C19.1408 20.7974 19.0585 20.8797 19.0585 20.9819C19.0585 21.0841 19.1408 21.1665 19.243 21.1665C19.3452 21.1665 19.4276 21.0841 19.4276 20.9819C19.4276 20.883 19.3452 20.7974 19.243 20.7974Z" fill="#E9A39B"/>
<path d="M29.958 22.6563C30.8808 22.6563 31.6289 21.9048 31.6289 20.9853C31.6289 20.0626 30.8775 19.3145 29.958 19.3145C29.0352 19.3145 28.2871 20.0659 28.2871 20.9853C28.2871 21.9081 29.0385 22.6563 29.958 22.6563ZM29.958 19.5386C30.7556 19.5386 31.4048 20.1878 31.4048 20.9853C31.4048 21.7829 30.7556 22.4322 29.958 22.4322C29.1605 22.4322 28.5112 21.7829 28.5112 20.9853C28.5145 20.1878 29.1638 19.5386 29.958 19.5386Z" fill="#E9A39B"/>
<path d="M29.9565 22.0267C30.5299 22.0267 30.9979 21.5587 30.9979 20.9853C30.9979 20.4118 30.5299 19.9438 29.9565 19.9438C29.383 19.9438 28.915 20.4118 28.915 20.9853C28.915 21.5587 29.383 22.0267 29.9565 22.0267ZM29.9565 20.168C30.4047 20.168 30.7705 20.5338 30.7705 20.9853C30.7705 21.4335 30.4047 21.7993 29.9565 21.7993C29.5083 21.7993 29.1424 21.4335 29.1424 20.9853C29.1424 20.5338 29.5083 20.168 29.9565 20.168Z" fill="#E9A39B"/>
<path d="M29.9569 21.3972C30.1843 21.3972 30.3688 21.2126 30.3688 20.9852C30.3688 20.7578 30.1843 20.5732 29.9569 20.5732C29.7295 20.5732 29.5449 20.7578 29.5449 20.9852C29.5449 21.2126 29.7295 21.3972 29.9569 21.3972ZM29.9569 20.7974C30.059 20.7974 30.1414 20.8797 30.1414 20.9819C30.1414 21.0841 30.059 21.1665 29.9569 21.1665C29.8547 21.1665 29.7723 21.0841 29.7723 20.9819C29.7723 20.883 29.8547 20.7974 29.9569 20.7974Z" fill="#E9A39B"/>
<path d="M21.7301 22.3167C21.4994 22.3167 21.3115 22.1289 21.3115 21.8982V21.8883C21.3115 21.6576 21.4994 21.4697 21.7301 21.4697H27.4711C27.7018 21.4697 27.8897 21.6576 27.8897 21.8883V21.8982C27.8897 22.1289 27.7018 22.3167 27.4711 22.3167H21.7301Z" fill="#F1DFC1"/>
<path d="M21.7301 42.6873C21.4994 42.6873 21.3115 42.4995 21.3115 42.2688V42.2589C21.3115 42.0282 21.4994 41.8403 21.7301 41.8403H27.4711C27.7018 41.8403 27.8897 42.0282 27.8897 42.2589V42.2688C27.8897 42.4995 27.7018 42.6873 27.4711 42.6873H21.7301Z" fill="#F1DFC1"/>
<path d="M22.1219 20.8141C21.7495 20.8141 21.4463 20.5109 21.4463 20.1385V20.1253C21.4463 19.7529 21.7495 19.4497 22.1219 19.4497H27.0753C27.4477 19.4497 27.7509 19.7529 27.7509 20.1253V20.1385C27.7509 20.5109 27.4477 20.8141 27.0753 20.8141H22.1219Z" fill="#E9A39B"/>
<path d="M21.7167 41.8404C21.5914 41.8404 21.4893 41.7383 21.4893 41.613V41.6097C21.4893 41.4845 21.5914 41.3823 21.7167 41.3823H27.4841C27.6093 41.3823 27.7115 41.4845 27.7115 41.6097V41.613C27.7115 41.7383 27.6093 41.8404 27.4841 41.8404H21.7167Z" fill="#E9A39B"/>
<path d="M21.7167 22.775C21.5914 22.775 21.4893 22.6728 21.4893 22.5476V22.5443C21.4893 22.4191 21.5914 22.3169 21.7167 22.3169H27.4841C27.6093 22.3169 27.7115 22.4191 27.7115 22.5443V22.5476C27.7115 22.6728 27.6093 22.775 27.4841 22.775H21.7167Z" fill="#E9A39B"/>
<path d="M22.3756 40.9042H22.369C22.1548 40.9042 21.9834 40.7328 21.9834 40.5186V23.6414C21.9834 23.4272 22.1548 23.2559 22.369 23.2559H22.3756C22.5898 23.2559 22.7612 23.4272 22.7612 23.6414V40.5186C22.7612 40.7295 22.5865 40.9042 22.3756 40.9042Z" fill="#E9A39B"/>
<path d="M26.8251 40.9042H26.8316C27.0459 40.9042 27.2172 40.7328 27.2172 40.5186V23.6414C27.2172 23.4272 27.0459 23.2559 26.8316 23.2559H26.8251C26.6108 23.2559 26.4395 23.4272 26.4395 23.6414V40.5186C26.4395 40.7295 26.6108 40.9042 26.8251 40.9042Z" fill="#E9A39B"/>
<path d="M23.8092 40.9042H23.8026C23.5884 40.9042 23.417 40.7328 23.417 40.5186V23.6414C23.417 23.4272 23.5884 23.2559 23.8026 23.2559H23.8092C24.0234 23.2559 24.1948 23.4272 24.1948 23.6414V40.5186C24.1948 40.7295 24.0201 40.9042 23.8092 40.9042Z" fill="#E9A39B"/>
<path d="M25.3914 40.9042H25.398C25.6123 40.9042 25.7836 40.7328 25.7836 40.5186V23.6414C25.7836 23.4272 25.6123 23.2559 25.398 23.2559H25.3914C25.1772 23.2559 25.0059 23.4272 25.0059 23.6414V40.5186C25.0059 40.7295 25.1772 40.9042 25.3914 40.9042Z" fill="#E9A39B"/>
<path d="M45.9928 43.5439H36.1025V44.5656H45.9928V43.5439Z" fill="#F5D09B"/>
<path d="M45.9928 43.5439H36.1025V44.5656H45.9928V43.5439Z" fill="#F5D09B"/>
<path d="M36.1025 43.5441L38.0734 42.5225H44.022L45.9928 43.5441H36.1025Z" fill="#F5D09B"/>
<path d="M43.9401 21.895H38.1562V42.2655H43.9401V21.895Z" fill="#F5D09B"/>
<path d="M46.4047 18.9155H35.6904V21.473H46.4047V18.9155Z" fill="#F5D09B"/>
<path d="M35.6908 18.9155C34.5472 18.9155 33.6211 19.8416 33.6211 20.9852C33.6211 22.1288 34.5472 23.0549 35.6908 23.0549C36.8344 23.0549 37.7605 22.1288 37.7605 20.9852C37.7605 19.8416 36.8344 18.9155 35.6908 18.9155Z" fill="#F5D09B"/>
<path d="M46.4046 18.9155C47.5482 18.9155 48.4743 19.8416 48.4743 20.9852C48.4743 22.1288 47.5482 23.0549 46.4046 23.0549C45.261 23.0549 44.335 22.1288 44.335 20.9852C44.335 19.8416 45.2643 18.9155 46.4046 18.9155Z" fill="#F5D09B"/>
<path d="M35.6895 22.6563C34.7667 22.6563 34.0186 21.9048 34.0186 20.9853C34.0186 20.0626 34.77 19.3145 35.6895 19.3145C36.6122 19.3145 37.3604 20.0659 37.3604 20.9853C37.3604 21.9081 36.6122 22.6563 35.6895 22.6563ZM35.6895 19.5386C34.8919 19.5386 34.2427 20.1878 34.2427 20.9853C34.2427 21.7829 34.8919 22.4322 35.6895 22.4322C36.487 22.4322 37.1363 21.7829 37.1363 20.9853C37.133 20.1878 36.487 19.5386 35.6895 19.5386Z" fill="#F5D09B"/>
<path d="M35.6899 22.0267C35.1164 22.0267 34.6484 21.5587 34.6484 20.9853C34.6484 20.4118 35.1164 19.9438 35.6899 19.9438C36.2633 19.9438 36.7313 20.4118 36.7313 20.9853C36.7313 21.5587 36.2633 22.0267 35.6899 22.0267ZM35.6899 20.168C35.2416 20.168 34.8758 20.5338 34.8758 20.9853C34.8758 21.4335 35.2416 21.7993 35.6899 21.7993C36.1381 21.7993 36.5039 21.4335 36.5039 20.9853C36.5039 20.5338 36.1381 20.168 35.6899 20.168Z" fill="#F5D09B"/>
<path d="M35.6913 21.3972C35.4639 21.3972 35.2793 21.2126 35.2793 20.9852C35.2793 20.7578 35.4639 20.5732 35.6913 20.5732C35.9187 20.5732 36.1032 20.7578 36.1032 20.9852C36.1032 21.2126 35.9187 21.3972 35.6913 21.3972ZM35.6913 20.7974C35.5891 20.7974 35.5067 20.8797 35.5067 20.9819C35.5067 21.0841 35.5891 21.1665 35.6913 21.1665C35.7934 21.1665 35.8758 21.0841 35.8758 20.9819C35.8758 20.883 35.7934 20.7974 35.6913 20.7974Z" fill="#F5D09B"/>
<path d="M46.4063 22.6563C47.329 22.6563 48.0772 21.9048 48.0772 20.9853C48.0772 20.0626 47.3257 19.3145 46.4063 19.3145C45.4835 19.3145 44.7354 20.0659 44.7354 20.9853C44.7354 21.9081 45.4868 22.6563 46.4063 22.6563ZM46.4063 19.5386C47.2038 19.5386 47.8531 20.1878 47.8531 20.9853C47.8531 21.7829 47.2038 22.4322 46.4063 22.4322C45.6087 22.4322 44.9595 21.7829 44.9595 20.9853C44.9628 20.1878 45.612 19.5386 46.4063 19.5386Z" fill="#F5D09B"/>
<path d="M46.4067 22.0267C46.9801 22.0267 47.4481 21.5587 47.4481 20.9853C47.4481 20.4118 46.9801 19.9438 46.4067 19.9438C45.8332 19.9438 45.3652 20.4118 45.3652 20.9853C45.3652 21.5587 45.8332 22.0267 46.4067 22.0267ZM46.4067 20.168C46.8549 20.168 47.2207 20.5338 47.2207 20.9853C47.2207 21.4335 46.8549 21.7993 46.4067 21.7993C45.9584 21.7993 45.5926 21.4335 45.5926 20.9853C45.5926 20.5338 45.9584 20.168 46.4067 20.168Z" fill="#F5D09B"/>
<path d="M46.4061 21.3972C46.6335 21.3972 46.8181 21.2126 46.8181 20.9852C46.8181 20.7578 46.6335 20.5732 46.4061 20.5732C46.1787 20.5732 45.9941 20.7578 45.9941 20.9852C45.9941 21.2126 46.1787 21.3972 46.4061 21.3972ZM46.4061 20.7974C46.5083 20.7974 46.5907 20.8797 46.5907 20.9819C46.5907 21.0841 46.5083 21.1665 46.4061 21.1665C46.3039 21.1665 46.2215 21.0841 46.2215 20.9819C46.2215 20.883 46.3039 20.7974 46.4061 20.7974Z" fill="#F5D09B"/>
<path d="M38.1793 22.3167C37.9486 22.3167 37.7607 22.1289 37.7607 21.8982V21.8883C37.7607 21.6576 37.9486 21.4697 38.1793 21.4697H43.917C44.1477 21.4697 44.3356 21.6576 44.3356 21.8883V21.8982C44.3356 22.1289 44.1477 22.3167 43.917 22.3167H38.1793Z" fill="#F5D09B"/>
<path d="M38.1793 42.6873C37.9486 42.6873 37.7607 42.4995 37.7607 42.2688V42.2589C37.7607 42.0282 37.9486 41.8403 38.1793 41.8403H43.917C44.1477 41.8403 44.3356 42.0282 44.3356 42.2589V42.2688C44.3356 42.4995 44.1477 42.6873 43.917 42.6873H38.1793Z" fill="#F5D09B"/>
<path d="M38.5711 20.8141C38.1987 20.8141 37.8955 20.5109 37.8955 20.1385V20.1253C37.8955 19.7529 38.1987 19.4497 38.5711 19.4497H43.5245C43.8969 19.4497 44.2001 19.7529 44.2001 20.1253V20.1385C44.2001 20.5109 43.8969 20.8141 43.5245 20.8141H38.5711Z" fill="#F5D09B"/>
<path d="M38.1659 41.8399C38.0406 41.8399 37.9385 41.7378 37.9385 41.6125V41.6092C37.9385 41.484 38.0406 41.3818 38.1659 41.3818H43.9333C44.0585 41.3818 44.1607 41.484 44.1607 41.6092V41.6125C44.1607 41.7378 44.0585 41.8399 43.9333 41.8399H38.1659Z" fill="#F5D09B"/>
<path d="M38.1659 22.775C38.0406 22.775 37.9385 22.6728 37.9385 22.5476V22.5443C37.9385 22.4191 38.0406 22.3169 38.1659 22.3169H43.9333C44.0585 22.3169 44.1607 22.4191 44.1607 22.5443V22.5476C44.1607 22.6728 44.0585 22.775 43.9333 22.775H38.1659Z" fill="#F5D09B"/>
<path d="M38.8248 40.9042H38.8182C38.604 40.9042 38.4326 40.7328 38.4326 40.5186V23.6414C38.4326 23.4272 38.604 23.2559 38.8182 23.2559H38.8248C39.039 23.2559 39.2104 23.4272 39.2104 23.6414V40.5186C39.2104 40.7295 39.0357 40.9042 38.8248 40.9042Z" fill="#F5D09B"/>
<path d="M43.2743 40.9042H43.2809C43.4951 40.9042 43.6664 40.7328 43.6664 40.5186V23.6414C43.6664 23.4272 43.4951 23.2559 43.2809 23.2559H43.2743C43.06 23.2559 42.8887 23.4272 42.8887 23.6414V40.5186C42.8887 40.7295 43.06 40.9042 43.2743 40.9042Z" fill="#F5D09B"/>
<path d="M40.2584 40.9042H40.2518C40.0376 40.9042 39.8662 40.7328 39.8662 40.5186V23.6414C39.8662 23.4272 40.0376 23.2559 40.2518 23.2559H40.2584C40.4726 23.2559 40.644 23.4272 40.644 23.6414V40.5186C40.644 40.7295 40.4693 40.9042 40.2584 40.9042Z" fill="#F5D09B"/>
<path d="M41.8407 40.9042H41.8473C42.0615 40.9042 42.2329 40.7328 42.2329 40.5186V23.6414C42.2329 23.4272 42.0615 23.2559 41.8473 23.2559H41.8407C41.6265 23.2559 41.4551 23.4272 41.4551 23.6414V40.5186C41.4551 40.7295 41.6265 40.9042 41.8407 40.9042Z" fill="#F5D09B"/>
<path d="M44.3342 42.2687V42.2588C44.3342 42.0347 44.1595 41.8535 43.9387 41.8436V41.8403C44.0606 41.837 44.1562 41.7381 44.1562 41.6162V41.6129C44.1562 41.491 44.0573 41.3921 43.9387 41.3888V32.6421L42.9829 36.9429C42.2842 40.0969 39.8685 42.5884 36.7376 43.386L36.1016 43.5475V44.5691H45.9919V43.5475L44.1694 42.6016C44.2682 42.5225 44.3342 42.4039 44.3342 42.2687Z" fill="#F5D09B"/>
<path d="M45.9919 43.5439H36.1016V44.5656H45.9919V43.5439Z" fill="white"/>
<path d="M45.9919 43.5439H36.1016V44.5656H45.9919V43.5439Z" fill="#E9A39B"/>
<path d="M36.1016 43.5441L38.0724 42.5225H44.0211L45.9919 43.5441H36.1016Z" fill="#F1DFC1"/>
<path d="M43.9392 21.895H38.1553V42.2655H43.9392V21.895Z" fill="#F1DFC1"/>
<path d="M46.4047 18.9155H35.6904V21.473H46.4047V18.9155Z" fill="#F1DFC1"/>
<path d="M35.6908 18.9155C34.5472 18.9155 33.6211 19.8416 33.6211 20.9852C33.6211 22.1288 34.5472 23.0549 35.6908 23.0549C36.8344 23.0549 37.7605 22.1288 37.7605 20.9852C37.7605 19.8416 36.8344 18.9155 35.6908 18.9155Z" fill="#F1DFC1"/>
<path d="M46.4046 18.9155C47.5482 18.9155 48.4743 19.8416 48.4743 20.9852C48.4743 22.1288 47.5482 23.0549 46.4046 23.0549C45.261 23.0549 44.335 22.1288 44.335 20.9852C44.335 19.8416 45.2643 18.9155 46.4046 18.9155Z" fill="#F1DFC1"/>
<path d="M35.6904 22.6563C34.7677 22.6563 34.0195 21.9048 34.0195 20.9853C34.0195 20.0626 34.7709 19.3145 35.6904 19.3145C36.6132 19.3145 37.3613 20.0659 37.3613 20.9853C37.3613 21.9081 36.6132 22.6563 35.6904 22.6563ZM35.6904 19.5386C34.8929 19.5386 34.2437 20.1878 34.2437 20.9853C34.2437 21.7829 34.8929 22.4322 35.6904 22.4322C36.488 22.4322 37.1372 21.7829 37.1372 20.9853C37.1339 20.1878 36.488 19.5386 35.6904 19.5386Z" fill="#E9A39B"/>
<path d="M35.6889 22.0267C35.1154 22.0267 34.6475 21.5587 34.6475 20.9853C34.6475 20.4118 35.1154 19.9438 35.6889 19.9438C36.2623 19.9438 36.7303 20.4118 36.7303 20.9853C36.7303 21.5587 36.2623 22.0267 35.6889 22.0267ZM35.6889 20.168C35.2407 20.168 34.8749 20.5338 34.8749 20.9853C34.8749 21.4335 35.2407 21.7993 35.6889 21.7993C36.1371 21.7993 36.5029 21.4335 36.5029 20.9853C36.5029 20.5338 36.1371 20.168 35.6889 20.168Z" fill="#E9A39B"/>
<path d="M35.6903 21.3972C35.4629 21.3972 35.2783 21.2126 35.2783 20.9852C35.2783 20.7578 35.4629 20.5732 35.6903 20.5732C35.9177 20.5732 36.1022 20.7578 36.1022 20.9852C36.1022 21.2126 35.9177 21.3972 35.6903 21.3972ZM35.6903 20.7974C35.5881 20.7974 35.5057 20.8797 35.5057 20.9819C35.5057 21.0841 35.5881 21.1665 35.6903 21.1665C35.7924 21.1665 35.8748 21.0841 35.8748 20.9819C35.8748 20.883 35.7924 20.7974 35.6903 20.7974Z" fill="#E9A39B"/>
<path d="M46.4053 22.6563C47.3281 22.6563 48.0762 21.9048 48.0762 20.9853C48.0762 20.0626 47.3248 19.3145 46.4053 19.3145C45.4825 19.3145 44.7344 20.0659 44.7344 20.9853C44.7344 21.9081 45.4858 22.6563 46.4053 22.6563ZM46.4053 19.5386C47.2028 19.5386 47.8521 20.1878 47.8521 20.9853C47.8521 21.7829 47.2028 22.4322 46.4053 22.4322C45.6077 22.4322 44.9585 21.7829 44.9585 20.9853C44.9618 20.1878 45.611 19.5386 46.4053 19.5386Z" fill="#E9A39B"/>
<path d="M46.4057 22.0267C46.9791 22.0267 47.4471 21.5587 47.4471 20.9853C47.4471 20.4118 46.9791 19.9438 46.4057 19.9438C45.8322 19.9438 45.3643 20.4118 45.3643 20.9853C45.3643 21.5587 45.8322 22.0267 46.4057 22.0267ZM46.4057 20.168C46.8539 20.168 47.2197 20.5338 47.2197 20.9853C47.2197 21.4335 46.8539 21.7993 46.4057 21.7993C45.9575 21.7993 45.5917 21.4335 45.5917 20.9853C45.5917 20.5338 45.9575 20.168 46.4057 20.168Z" fill="#E9A39B"/>
<path d="M46.4051 21.3972C46.6325 21.3972 46.8171 21.2126 46.8171 20.9852C46.8171 20.7578 46.6325 20.5732 46.4051 20.5732C46.1777 20.5732 45.9932 20.7578 45.9932 20.9852C45.9932 21.2126 46.1777 21.3972 46.4051 21.3972ZM46.4051 20.7974C46.5073 20.7974 46.5897 20.8797 46.5897 20.9819C46.5897 21.0841 46.5073 21.1665 46.4051 21.1665C46.303 21.1665 46.2206 21.0841 46.2206 20.9819C46.2206 20.883 46.303 20.7974 46.4051 20.7974Z" fill="#E9A39B"/>
<path d="M38.1783 22.3167C37.9476 22.3167 37.7598 22.1289 37.7598 21.8982V21.8883C37.7598 21.6576 37.9476 21.4697 38.1783 21.4697H43.9161C44.1468 21.4697 44.3346 21.6576 44.3346 21.8883V21.8982C44.3346 22.1289 44.1468 22.3167 43.9161 22.3167H38.1783Z" fill="#F1DFC1"/>
<path d="M38.1783 42.6873C37.9476 42.6873 37.7598 42.4995 37.7598 42.2688V42.2589C37.7598 42.0282 37.9476 41.8403 38.1783 41.8403H43.9161C44.1468 41.8403 44.3346 42.0282 44.3346 42.2589V42.2688C44.3346 42.4995 44.1468 42.6873 43.9161 42.6873H38.1783Z" fill="#F1DFC1"/>
<path d="M38.5711 20.8141C38.1987 20.8141 37.8955 20.5109 37.8955 20.1385V20.1253C37.8955 19.7529 38.1987 19.4497 38.5711 19.4497H43.5245C43.8969 19.4497 44.2001 19.7529 44.2001 20.1253V20.1385C44.2001 20.5109 43.8969 20.8141 43.5245 20.8141H38.5711Z" fill="#E9A39B"/>
<path d="M38.1649 41.8404C38.0397 41.8404 37.9375 41.7383 37.9375 41.613V41.6097C37.9375 41.4845 38.0397 41.3823 38.1649 41.3823H43.9323C44.0576 41.3823 44.1597 41.4845 44.1597 41.6097V41.613C44.1597 41.7383 44.0576 41.8404 43.9323 41.8404H38.1649Z" fill="#E9A39B"/>
<path d="M38.1649 22.775C38.0397 22.775 37.9375 22.6728 37.9375 22.5476V22.5443C37.9375 22.4191 38.0397 22.3169 38.1649 22.3169H43.9323C44.0576 22.3169 44.1597 22.4191 44.1597 22.5443V22.5476C44.1597 22.6728 44.0576 22.775 43.9323 22.775H38.1649Z" fill="#E9A39B"/>
<path d="M38.8248 40.9042H38.8182C38.604 40.9042 38.4326 40.7328 38.4326 40.5186V23.6414C38.4326 23.4272 38.604 23.2559 38.8182 23.2559H38.8248C39.039 23.2559 39.2104 23.4272 39.2104 23.6414V40.5186C39.2104 40.7295 39.0357 40.9042 38.8248 40.9042Z" fill="#E9A39B"/>
<path d="M43.2733 40.9042H43.2799C43.4941 40.9042 43.6655 40.7328 43.6655 40.5186V23.6414C43.6655 23.4272 43.4941 23.2559 43.2799 23.2559H43.2733C43.0591 23.2559 42.8877 23.4272 42.8877 23.6414V40.5186C42.8877 40.7295 43.0591 40.9042 43.2733 40.9042Z" fill="#E9A39B"/>
<path d="M40.2574 40.9042H40.2508C40.0366 40.9042 39.8652 40.7328 39.8652 40.5186V23.6414C39.8652 23.4272 40.0366 23.2559 40.2508 23.2559H40.2574C40.4716 23.2559 40.643 23.4272 40.643 23.6414V40.5186C40.643 40.7295 40.4683 40.9042 40.2574 40.9042Z" fill="#E9A39B"/>
<path d="M41.8397 40.9042H41.8463C42.0605 40.9042 42.2319 40.7328 42.2319 40.5186V23.6414C42.2319 23.4272 42.0605 23.2559 41.8463 23.2559H41.8397C41.6255 23.2559 41.4541 23.4272 41.4541 23.6414V40.5186C41.4541 40.7295 41.6255 40.9042 41.8397 40.9042Z" fill="#E9A39B"/>
</g>
<defs>
<filter id="filter0_d_1039_39588" x="0" y="0.960449" width="66" height="65.9834" filterUnits="userSpaceOnUse" color-interpolation-filters="sRGB">
<feFlood flood-opacity="0" result="BackgroundImageFix"/>
<feColorMatrix in="SourceAlpha" type="matrix" values="0 0 0 0 0 0 0 0 0 0 0 0 0 0 0 0 0 0 127 0" result="hardAlpha"/>
<feOffset/>
<feGaussianBlur stdDeviation="2.5"/>
<feComposite in2="hardAlpha" operator="out"/>
<feColorMatrix type="matrix" values="0 0 0 0 0 0 0 0 0 0 0 0 0 0 0 0 0 0 0.3 0"/>
<feBlend mode="normal" in2="BackgroundImageFix" result="effect1_dropShadow_1039_39588"/>
<feBlend mode="normal" in="SourceGraphic" in2="effect1_dropShadow_1039_39588" result="shape"/>
</filter>
</defs>
</svg>
