<svg width="66" height="66" viewBox="0 0 66 66" fill="none" xmlns="http://www.w3.org/2000/svg">
<g filter="url(#filter0_d_1039_37083)">
<path d="M5 51.7491C5.06591 51.7359 5.13512 51.7293 5.20433 51.7293C5.74482 51.7293 6.18643 52.1182 6.18643 52.5961C6.18643 53.0739 5.74812 53.4628 5.20433 53.4628C5.13512 53.4628 5.06591 53.4562 5 53.443V54.7646C5.06591 54.7514 5.13512 54.7448 5.20433 54.7448C5.74482 54.7448 6.18643 55.1337 6.18643 55.6116C6.18643 56.0895 5.74812 56.4784 5.20433 56.4784C5.13512 56.4784 5.06591 56.4718 5 56.4586V57.7801C5.06591 57.767 5.13512 57.7604 5.20433 57.7604C5.74482 57.7604 6.18643 58.1493 6.18643 58.6271C6.18643 59.105 5.74812 59.4939 5.20433 59.4939C5.13512 59.4939 5.06591 59.4873 5 59.4741V60.9802H7.62994C7.59698 60.8946 7.57722 60.8056 7.57722 60.71C7.57722 60.2321 8.01553 59.8432 8.55932 59.8432C9.1031 59.8432 9.54142 60.2321 9.54142 60.71C9.54142 60.8056 9.51836 60.8946 9.4887 60.9802H11.1596C11.1266 60.8946 11.1069 60.8056 11.1069 60.71C11.1069 60.2321 11.5452 59.8432 12.089 59.8432C12.6328 59.8432 13.0711 60.2321 13.0711 60.71C13.0711 60.8056 13.048 60.8946 13.0184 60.9802H14.6893C14.6563 60.8946 14.6365 60.8056 14.6365 60.71C14.6365 60.2321 15.0749 59.8432 15.6186 59.8432C16.1591 59.8432 16.6008 60.2321 16.6008 60.71C16.6008 60.8056 16.5777 60.8946 16.548 60.9802H18.2189C18.186 60.8946 18.1662 60.8056 18.1662 60.71C18.1662 60.2321 18.6045 59.8432 19.1483 59.8432C19.6888 59.8432 20.1304 60.2321 20.1304 60.71C20.1304 60.8056 20.1073 60.8946 20.0777 60.9802H21.7486C21.7156 60.8946 21.6959 60.8056 21.6959 60.71C21.6959 60.2321 22.1342 59.8432 22.678 59.8432C23.2185 59.8432 23.6601 60.2321 23.6601 60.71C23.6601 60.8056 23.637 60.8946 23.6074 60.9802H25.2782C25.2453 60.8946 25.2255 60.8056 25.2255 60.71C25.2255 60.2321 25.6638 59.8432 26.2076 59.8432C26.7481 59.8432 27.1897 60.2321 27.1897 60.71C27.1897 60.8056 27.1667 60.8946 27.137 60.9802H28.8079C28.775 60.8946 28.7552 60.8056 28.7552 60.71C28.7552 60.2321 29.1935 59.8432 29.7373 59.8432C30.2778 59.8432 30.7194 60.2321 30.7194 60.71C30.7194 60.8056 30.6963 60.8946 30.6667 60.9802H32.3376C32.3046 60.8946 32.2848 60.8056 32.2848 60.71C32.2848 60.2321 32.7232 59.8432 33.267 59.8432C33.8107 59.8432 34.2491 60.2321 34.2491 60.71C34.2491 60.8056 34.226 60.8946 34.1963 60.9802H35.8672C35.8343 60.8946 35.8145 60.8056 35.8145 60.71C35.8145 60.2321 36.2528 59.8432 36.7966 59.8432C37.3371 59.8432 37.7787 60.2321 37.7787 60.71C37.7787 60.8056 37.7556 60.8946 37.726 60.9802H39.3969C39.3639 60.8946 39.3442 60.8056 39.3442 60.71C39.3442 60.2321 39.7825 59.8432 40.3263 59.8432C40.8668 59.8432 41.3084 60.2321 41.3084 60.71C41.3084 60.8056 41.2853 60.8946 41.2557 60.9802H42.9266C42.8936 60.8946 42.8738 60.8056 42.8738 60.71C42.8738 60.2321 43.3121 59.8432 43.8559 59.8432C44.3964 59.8432 44.838 60.2321 44.838 60.71C44.838 60.8056 44.815 60.8946 44.7853 60.9802H46.4562C46.4233 60.8946 46.4035 60.8056 46.4035 60.71C46.4035 60.2321 46.8418 59.8432 47.3856 59.8432C47.9294 59.8432 48.3677 60.2321 48.3677 60.71C48.3677 60.8056 48.3446 60.8946 48.315 60.9802H49.9859C49.9529 60.8946 49.9331 60.8056 49.9331 60.71C49.9331 60.2321 50.3715 59.8432 50.9153 59.8432C51.4558 59.8432 51.8974 60.2321 51.8974 60.71C51.8974 60.8056 51.8743 60.8946 51.8446 60.9802H53.5155C53.4826 60.8946 53.4628 60.8056 53.4628 60.71C53.4628 60.2321 53.9011 59.8432 54.4449 59.8432C54.9854 59.8432 55.427 60.2321 55.427 60.71C55.427 60.8056 55.404 60.8946 55.3743 60.9802H57.0452C57.0122 60.8946 56.9925 60.8056 56.9925 60.71C56.9925 60.2321 57.4308 59.8432 57.9746 59.8432C58.5151 59.8432 58.9567 60.2321 58.9567 60.71C58.9567 60.8056 58.9336 60.8946 58.904 60.9802H61V59.4939C60.4595 59.4939 60.0179 59.105 60.0179 58.6271C60.0179 58.1493 60.4562 57.7604 61 57.7604V56.4784C60.4595 56.4784 60.0179 56.0895 60.0179 55.6116C60.0179 55.1337 60.4562 54.7448 61 54.7448V53.4628C60.4595 53.4628 60.0179 53.0739 60.0179 52.5961C60.0179 52.1182 60.4562 51.7293 61 51.7293V51.7194V50.4374C60.4595 50.4374 60.0179 50.0485 60.0179 49.5706C60.0179 49.0928 60.4562 48.7039 61 48.7039V47.4219C60.4595 47.4219 60.0179 47.033 60.0179 46.5551C60.0179 46.0772 60.4562 45.6883 61 45.6883V44.4063C60.4595 44.4063 60.0179 44.0174 60.0179 43.5396C60.0179 43.0617 60.4562 42.6728 61 42.6728V41.3908C60.4595 41.3908 60.0179 41.0019 60.0179 40.524C60.0179 40.0461 60.4562 39.6573 61 39.6573V38.3752C60.4595 38.3752 60.0179 37.9864 60.0179 37.5085C60.0179 37.0306 60.4562 36.6417 61 36.6417V35.3597C60.4595 35.3597 60.0179 34.9708 60.0179 34.4929C60.0179 34.0151 60.4562 33.6262 61 33.6262V32.3442C60.4595 32.3442 60.0179 31.9553 60.0179 31.4774C60.0179 30.9995 60.4562 30.6106 61 30.6106V29.3286C60.4595 29.3286 60.0179 28.9397 60.0179 28.4619C60.0179 27.984 60.4562 27.5951 61 27.5951V26.3131C60.4595 26.3131 60.0179 25.9242 60.0179 25.4463C60.0179 24.9685 60.4562 24.5796 61 24.5796V23.2976C60.4595 23.2976 60.0179 22.9087 60.0179 22.4308C60.0179 21.9529 60.4562 21.564 61 21.564V20.282C60.4595 20.282 60.0179 19.8931 60.0179 19.4153C60.0179 18.9374 60.4562 18.5485 61 18.5485V17.2665C60.4595 17.2665 60.0179 16.8776 60.0179 16.3997C60.0179 15.9218 60.4562 15.533 61 15.533V14.2509C60.4595 14.2509 60.0179 13.8621 60.0179 13.3842C60.0179 12.9063 60.4562 12.5174 61 12.5174V11.2354C60.4595 11.2354 60.0179 10.8465 60.0179 10.3686C60.0179 9.89077 60.4562 9.50188 61 9.50188V8.21987C60.4595 8.21987 60.0179 7.83098 60.0179 7.35311C60.0179 6.87524 60.4562 6.48635 61 6.48635V5H58.9567C58.9567 5.47787 58.5184 5.86676 57.9746 5.86676C57.4341 5.86676 56.9925 5.47787 56.9925 5H55.4303C55.4303 5.47787 54.992 5.86676 54.4482 5.86676C53.9077 5.86676 53.4661 5.47787 53.4661 5H51.904C51.904 5.47787 51.4656 5.86676 50.9218 5.86676C50.3814 5.86676 49.9397 5.47787 49.9397 5H48.3776C48.3776 5.47787 47.9393 5.86676 47.3955 5.86676C46.8517 5.86676 46.4134 5.47787 46.4134 5H44.8512C44.8512 5.47787 44.4129 5.86676 43.8691 5.86676C43.3286 5.86676 42.887 5.47787 42.887 5H41.3249C41.3249 5.47787 40.8865 5.86676 40.3428 5.86676C39.8023 5.86676 39.3606 5.47787 39.3606 5H37.7985C37.7985 5.47787 37.3602 5.86676 36.8164 5.86676C36.2759 5.86676 35.8343 5.47787 35.8343 5H34.2721C34.2721 5.47787 33.8338 5.86676 33.29 5.86676C32.7462 5.86676 32.3079 5.47787 32.3079 5H30.7458C30.7458 5.47787 30.3074 5.86676 29.7637 5.86676C29.2232 5.86676 28.7815 5.47787 28.7815 5H27.2194C27.2194 5.47787 26.7811 5.86676 26.2373 5.86676C25.6968 5.86676 25.2552 5.47787 25.2552 5H23.693C23.693 5.47787 23.2547 5.86676 22.7109 5.86676C22.1704 5.86676 21.7288 5.47787 21.7288 5H20.1667C20.1667 5.47787 19.7283 5.86676 19.1846 5.86676C18.6441 5.86676 18.2024 5.47787 18.2024 5H16.6403C16.6403 5.47787 16.202 5.86676 15.6582 5.86676C15.1177 5.86676 14.6761 5.47787 14.6761 5H13.1139C13.1139 5.47787 12.6756 5.86676 12.1318 5.86676C11.588 5.86676 11.1497 5.47787 11.1497 5H9.58757C9.58757 5.47787 9.14925 5.86676 8.60546 5.86676C8.06168 5.86676 7.62336 5.47787 7.62336 5H5.04942V6.50612C5.11534 6.49294 5.18456 6.48635 5.25377 6.48635C5.79426 6.48635 6.23588 6.87524 6.23588 7.35311C6.23588 7.83098 5.79756 8.21987 5.25377 8.21987C5.18456 8.21987 5.11534 8.21328 5.04942 8.2001V9.52166C5.11534 9.50848 5.18456 9.50188 5.25377 9.50188C5.79426 9.50188 6.23588 9.89077 6.23588 10.3686C6.23588 10.8465 5.79756 11.2354 5.25377 11.2354C5.18456 11.2354 5.11534 11.2288 5.04942 11.2156V12.5372C5.11534 12.524 5.18456 12.5174 5.25377 12.5174C5.79426 12.5174 6.23588 12.9063 6.23588 13.3842C6.23588 13.8621 5.79756 14.2509 5.25377 14.2509C5.18456 14.2509 5.11534 14.2444 5.04942 14.2312V15.5527C5.11534 15.5396 5.18456 15.533 5.25377 15.533C5.79426 15.533 6.23588 15.9218 6.23588 16.3997C6.23588 16.8776 5.79756 17.2665 5.25377 17.2665C5.18456 17.2665 5.11534 17.2599 5.04942 17.2467V18.5683C5.11534 18.5551 5.18456 18.5485 5.25377 18.5485C5.79426 18.5485 6.23588 18.9374 6.23588 19.4153C6.23588 19.8931 5.79756 20.282 5.25377 20.282C5.18456 20.282 5.11534 20.2754 5.04942 20.2622V21.5838C5.11534 21.5706 5.18456 21.564 5.25377 21.564C5.79426 21.564 6.23588 21.9529 6.23588 22.4308C6.23588 22.9087 5.79756 23.2976 5.25377 23.2976C5.18456 23.2976 5.11534 23.291 5.04942 23.2778V24.5993C5.11534 24.5862 5.18456 24.5796 5.25377 24.5796C5.79426 24.5796 6.23588 24.9685 6.23588 25.4463C6.23588 25.9242 5.79756 26.3131 5.25377 26.3131C5.18456 26.3131 5.11534 26.3065 5.04942 26.2933V27.6149C5.11534 27.6017 5.18456 27.5951 5.25377 27.5951C5.79426 27.5951 6.23588 27.984 6.23588 28.4619C6.23588 28.9397 5.79756 29.3286 5.25377 29.3286C5.18456 29.3286 5.11534 29.322 5.04942 29.3089V30.6304C5.11534 30.6172 5.18456 30.6106 5.25377 30.6106C5.79426 30.6106 6.23588 30.9995 6.23588 31.4774C6.23588 31.9553 5.79756 32.3442 5.25377 32.3442C5.18456 32.3442 5.11534 32.3376 5.04942 32.3244V33.646C5.11534 33.6328 5.18456 33.6262 5.25377 33.6262C5.79426 33.6262 6.23588 34.0151 6.23588 34.4929C6.23588 34.9708 5.79756 35.3597 5.25377 35.3597C5.18456 35.3597 5.11534 35.3531 5.04942 35.3399V36.6615C5.11534 36.6483 5.18456 36.6417 5.25377 36.6417C5.79426 36.6417 6.23588 37.0306 6.23588 37.5085C6.23588 37.9864 5.79756 38.3752 5.25377 38.3752C5.18456 38.3752 5.11534 38.3686 5.04942 38.3555V39.677C5.11534 39.6638 5.18456 39.6573 5.25377 39.6573C5.79426 39.6573 6.23588 40.0461 6.23588 40.524C6.23588 41.0019 5.79756 41.3908 5.25377 41.3908C5.18456 41.3908 5.11534 41.3842 5.04942 41.371V42.6926C5.11534 42.6794 5.18456 42.6728 5.25377 42.6728C5.79426 42.6728 6.23588 43.0617 6.23588 43.5396C6.23588 44.0174 5.79756 44.4063 5.25377 44.4063C5.18456 44.4063 5.11534 44.3997 5.04942 44.3865V45.7081C5.11534 45.6949 5.18456 45.6883 5.25377 45.6883C5.79426 45.6883 6.23588 46.0772 6.23588 46.5551C6.23588 47.033 5.79756 47.4219 5.25377 47.4219C5.18456 47.4219 5.11534 47.4153 5.04942 47.4021V48.7236C5.11534 48.7105 5.18456 48.7039 5.25377 48.7039C5.79426 48.7039 6.23588 49.0928 6.23588 49.5706C6.23588 50.0485 5.79756 50.4374 5.25377 50.4374C5.18456 50.4374 5.11534 50.4308 5.04942 50.4176V51.7392C5.11534 51.726 5.18456 51.7194 5.25377 51.7194" fill="#A98B83"/>
<path d="M57.4142 12.8439V52.0591C55.0084 52.2041 53.0969 54.2079 53.0969 56.6467C53.0969 56.907 53.1199 57.1707 53.1694 57.4376H12.7546C12.804 57.1707 12.8271 56.907 12.8271 56.6467C12.8271 54.2079 10.9156 52.2041 8.50977 52.0591V12.8439C10.8233 12.7022 12.6788 10.8468 12.8172 8.5332H53.1035C53.2452 10.8468 55.1006 12.7022 57.4142 12.8439Z" fill="white"/>
<path d="M57.4142 12.8439V52.0591C55.0084 52.2041 53.0969 54.2079 53.0969 56.6467C53.0969 56.907 53.1199 57.1707 53.1694 57.4376H12.7546C12.804 57.1707 12.8271 56.907 12.8271 56.6467C12.8271 54.2079 10.9156 52.2041 8.50977 52.0591V12.8439C10.8233 12.7022 12.6788 10.8468 12.8172 8.5332H53.1035C53.2452 10.8468 55.1006 12.7022 57.4142 12.8439Z" fill="#AB8C85"/>
<path d="M57.694 12.29C55.4662 12.29 53.6569 10.4807 53.6569 8.25279C53.6569 8.09789 53.5316 7.97266 53.3767 7.97266H12.5467C12.3918 7.97266 12.2665 8.09789 12.2665 8.25279C12.2665 10.4807 10.4539 12.29 8.22934 12.29C8.07445 12.29 7.94922 12.4152 7.94922 12.5701V52.3324C7.94922 52.484 8.07445 52.6125 8.22934 52.6125C10.4539 52.6125 12.2665 54.4218 12.2665 56.6464C12.2665 56.9727 12.2204 57.3088 12.1347 57.6483C12.1149 57.734 12.1314 57.8229 12.1841 57.8889C12.2369 57.9581 12.3193 57.9976 12.4082 57.9976H53.5151C53.6008 57.9976 53.6832 57.9581 53.7359 57.8889C53.7887 57.8229 53.8084 57.734 53.7854 57.6483C53.6997 57.3088 53.6569 56.9727 53.6569 56.6464C53.6569 54.4218 55.4662 52.6125 57.694 52.6125C57.8489 52.6125 57.9742 52.484 57.9742 52.3324V12.5701C57.9742 12.4152 57.8489 12.29 57.694 12.29ZM57.4139 52.0588C55.0081 52.2038 53.0966 54.2076 53.0966 56.6464C53.0966 56.9067 53.1196 57.1704 53.1691 57.4373H12.7543C12.8037 57.1704 12.8268 56.9067 12.8268 56.6464C12.8268 54.2076 10.9153 52.2038 8.50947 52.0588V12.8437C10.823 12.7019 12.6785 10.8465 12.8169 8.53292H53.1032C53.2449 10.8465 55.1003 12.7019 57.4139 12.8437V52.0588Z" fill="#F1DFC1"/>
<path d="M57.4039 12.9357V52.1542C56.2369 52.2294 55.142 52.7449 54.3405 53.5965C53.5391 54.4481 53.0909 55.5723 53.0866 56.7418C53.0865 57.0071 53.1108 57.2718 53.1591 57.5327H12.7443C12.7927 57.2718 12.8169 57.0071 12.8168 56.7418C12.8136 55.5739 12.3677 54.4507 11.5689 53.5987C10.7701 52.7467 9.67794 52.2293 8.5127 52.1509V12.9324C9.62732 12.8549 10.676 12.3756 11.4639 11.5834C12.2518 10.7912 12.7255 9.74002 12.7971 8.625H53.0932C53.1647 9.74484 53.6418 10.8003 54.4352 11.5937C55.2287 12.3872 56.2841 12.8643 57.4039 12.9357Z" fill="white"/>
<path d="M32.9597 11.3407C33.3128 11.3407 33.599 11.0545 33.599 10.7014C33.599 10.3483 33.3128 10.062 32.9597 10.062C32.6066 10.062 32.3203 10.3483 32.3203 10.7014C32.3203 11.0545 32.6066 11.3407 32.9597 11.3407Z" fill="#F5CBD9"/>
<path d="M32.9591 13.2326C32.88 13.2326 32.8174 13.17 32.8174 13.0909V12.1153C32.8174 12.0363 32.88 11.9736 32.9591 11.9736C33.0382 11.9736 33.1008 12.0363 33.1008 12.1153V13.0909C33.1008 13.17 33.0382 13.2326 32.9591 13.2326Z" fill="#F5CBD9"/>
<path d="M32.9591 15.9187C32.88 15.9187 32.8174 15.856 32.8174 15.7769V13.6974C32.8174 13.6183 32.88 13.5557 32.9591 13.5557C33.0382 13.5557 33.1008 13.6183 33.1008 13.6974V15.7769C33.1008 15.856 33.0382 15.9187 32.9591 15.9187Z" fill="#F5CBD9"/>
<path d="M34.1553 12.9128C34.1059 12.9128 34.0598 12.8864 34.0334 12.8436L33.5457 11.9966C33.5061 11.9307 33.5292 11.845 33.5984 11.8054C33.6643 11.7659 33.75 11.7889 33.7895 11.8582L34.2773 12.7051C34.3168 12.7711 34.2938 12.8567 34.2246 12.8963C34.2048 12.9062 34.1817 12.9128 34.1553 12.9128Z" fill="#F5CBD9"/>
<path d="M35.5007 15.2397C35.4512 15.2397 35.4051 15.2134 35.3787 15.1705L34.3406 13.3711C34.301 13.3052 34.3241 13.2195 34.3933 13.1799C34.4592 13.1404 34.5449 13.1635 34.5845 13.2327L35.6226 15.0321C35.6621 15.098 35.6391 15.1837 35.5699 15.2232C35.5468 15.2331 35.5237 15.2397 35.5007 15.2397Z" fill="#F5CBD9"/>
<path d="M35.0326 12.0395C35.0095 12.0395 34.9831 12.0329 34.9633 12.0198L34.1196 11.532C34.0537 11.4924 34.0307 11.4068 34.0669 11.3408C34.1065 11.2749 34.1921 11.2519 34.2581 11.2881L35.1018 11.7759C35.1677 11.8154 35.1907 11.9011 35.1545 11.967C35.1281 12.0132 35.082 12.0395 35.0326 12.0395Z" fill="#F5CBD9"/>
<path d="M36.3042 12.7711C36.2811 12.7711 36.2547 12.7645 36.235 12.7513L35.4868 12.3196C35.4209 12.28 35.3979 12.1944 35.4341 12.1284C35.4737 12.0625 35.5593 12.0395 35.6253 12.0757L36.3734 12.5074C36.4393 12.547 36.4624 12.6327 36.4261 12.6986C36.3997 12.748 36.3503 12.7711 36.3042 12.7711Z" fill="#F5CBD9"/>
<path d="M35.3516 10.8435H34.3761C34.297 10.8435 34.2344 10.7809 34.2344 10.7018C34.2344 10.6227 34.297 10.5601 34.3761 10.5601H35.3516C35.4307 10.5601 35.4933 10.6227 35.4933 10.7018C35.4933 10.7809 35.4307 10.8435 35.3516 10.8435Z" fill="#F5CBD9"/>
<path d="M37.8696 10.8435H35.9581C35.879 10.8435 35.8164 10.7809 35.8164 10.7018C35.8164 10.6227 35.879 10.5601 35.9581 10.5601H37.8696C37.9487 10.5601 38.0113 10.6227 38.0113 10.7018C38.0113 10.7809 37.9487 10.8435 37.8696 10.8435Z" fill="#F5CBD9"/>
<path d="M31.544 10.843H30.5685C30.4894 10.843 30.4268 10.7804 30.4268 10.7013C30.4268 10.6222 30.4894 10.5596 30.5685 10.5596H31.544C31.6231 10.5596 31.6857 10.6222 31.6857 10.7013C31.6824 10.7804 31.6198 10.843 31.544 10.843Z" fill="#F5CBD9"/>
<path d="M29.9624 10.8435H28.0509C27.9718 10.8435 27.9092 10.7809 27.9092 10.7018C27.9092 10.6227 27.9718 10.5601 28.0509 10.5601H29.9624C30.0415 10.5601 30.1041 10.6227 30.1041 10.7018C30.1008 10.7809 30.0382 10.8435 29.9624 10.8435Z" fill="#F5CBD9"/>
<path d="M30.8893 12.0394C30.8398 12.0394 30.7937 12.013 30.7673 11.9702C30.7278 11.9043 30.7508 11.8186 30.8201 11.779L31.6637 11.2913C31.7297 11.2517 31.8154 11.2748 31.8549 11.344C31.8945 11.4099 31.8714 11.4956 31.8022 11.5351L30.9585 12.0229C30.9354 12.0328 30.9123 12.0394 30.8893 12.0394Z" fill="#F5CBD9"/>
<path d="M29.6637 12.7446C29.6142 12.7446 29.5681 12.7182 29.5417 12.6754C29.5022 12.6095 29.5253 12.5238 29.5945 12.4842L30.2965 12.0789C30.3624 12.0393 30.4481 12.0624 30.4876 12.1316C30.5271 12.1975 30.5041 12.2832 30.4349 12.3227L29.7329 12.7281C29.7098 12.7413 29.6868 12.7446 29.6637 12.7446Z" fill="#F5CBD9"/>
<path d="M31.7621 12.9129C31.7391 12.9129 31.7127 12.9063 31.6929 12.8931C31.627 12.8536 31.6039 12.7679 31.6402 12.702L32.1279 11.855C32.1675 11.7891 32.2532 11.766 32.3191 11.8023C32.385 11.8418 32.4081 11.9275 32.3718 11.9934L31.8841 12.8404C31.8577 12.8898 31.8116 12.9129 31.7621 12.9129Z" fill="#F5CBD9"/>
<path d="M30.4203 15.2394C30.3972 15.2394 30.3709 15.2328 30.3511 15.2196C30.2852 15.1801 30.2621 15.0944 30.2984 15.0285L31.3398 13.229C31.3793 13.1631 31.465 13.14 31.5309 13.1763C31.5969 13.2158 31.6199 13.3015 31.5837 13.3674L30.5422 15.1669C30.5159 15.213 30.4697 15.2394 30.4203 15.2394Z" fill="#F5CBD9"/>
<path d="M32.9597 55.9115C33.3128 55.9115 33.599 55.6253 33.599 55.2722C33.599 54.9191 33.3128 54.6328 32.9597 54.6328C32.6066 54.6328 32.3203 54.9191 32.3203 55.2722C32.3203 55.6253 32.6066 55.9115 32.9597 55.9115Z" fill="#F5CBD9"/>
<path d="M32.9591 53.9967C32.88 53.9967 32.8174 53.9341 32.8174 53.855V52.8795C32.8174 52.8004 32.88 52.7378 32.9591 52.7378C33.0382 52.7378 33.1008 52.8004 33.1008 52.8795V53.855C33.1008 53.9341 33.0382 53.9967 32.9591 53.9967Z" fill="#F5CBD9"/>
<path d="M32.9591 52.4148C32.88 52.4148 32.8174 52.3521 32.8174 52.273V50.1935C32.8174 50.1144 32.88 50.0518 32.9591 50.0518C33.0382 50.0518 33.1008 50.1144 33.1008 50.1935V52.273C33.1008 52.3521 33.0382 52.4148 32.9591 52.4148Z" fill="#F5CBD9"/>
<path d="M32.252 54.1849C32.2026 54.1849 32.1565 54.1585 32.1301 54.1157L31.6423 53.272C31.6028 53.206 31.6259 53.1204 31.6951 53.0808C31.761 53.0413 31.8467 53.0643 31.8862 53.1335L32.374 53.9772C32.4135 54.0431 32.3904 54.1288 32.3212 54.1684C32.2982 54.1783 32.2751 54.1849 32.252 54.1849Z" fill="#F5CBD9"/>
<path d="M31.461 52.8169C31.4115 52.8169 31.3654 52.7905 31.339 52.7477L30.2976 50.9482C30.2581 50.8823 30.2811 50.7966 30.3503 50.7571C30.4162 50.7175 30.5019 50.7406 30.5415 50.8098L31.5829 52.6092C31.6225 52.6752 31.5994 52.7608 31.5302 52.8004C31.5104 52.8103 31.4873 52.8169 31.461 52.8169Z" fill="#F5CBD9"/>
<path d="M31.7308 54.7055C31.7077 54.7055 31.6814 54.699 31.6616 54.6858L30.8179 54.198C30.752 54.1585 30.7289 54.0728 30.7652 54.0069C30.8047 53.9409 30.8904 53.9179 30.9563 53.9541L31.8 54.4419C31.8659 54.4814 31.889 54.5671 31.8527 54.633C31.8264 54.6792 31.7802 54.7055 31.7308 54.7055Z" fill="#F5CBD9"/>
<path d="M30.3618 53.9147C30.3387 53.9147 30.3123 53.9081 30.2926 53.8949L29.5445 53.4631C29.4785 53.4236 29.4555 53.3379 29.4917 53.272C29.5313 53.2061 29.617 53.183 29.6829 53.2193L30.431 53.651C30.4969 53.6905 30.52 53.7762 30.4837 53.8421C30.4574 53.8883 30.4112 53.9147 30.3618 53.9147Z" fill="#F5CBD9"/>
<path d="M31.544 55.4109H30.5685C30.4894 55.4109 30.4268 55.3483 30.4268 55.2692C30.4268 55.1901 30.4894 55.1274 30.5685 55.1274H31.544C31.6231 55.1274 31.6857 55.1901 31.6857 55.2692C31.6857 55.3483 31.6198 55.4109 31.544 55.4109Z" fill="#F5CBD9"/>
<path d="M29.9624 55.4104H28.0509C27.9718 55.4104 27.9092 55.3478 27.9092 55.2687C27.9092 55.1896 27.9718 55.127 28.0509 55.127H29.9624C30.0415 55.127 30.1041 55.1896 30.1041 55.2687C30.1041 55.3478 30.0382 55.4104 29.9624 55.4104Z" fill="#F5CBD9"/>
<path d="M35.3516 55.4104H34.3761C34.297 55.4104 34.2344 55.3478 34.2344 55.2687C34.2344 55.1896 34.297 55.127 34.3761 55.127H35.3516C35.4307 55.127 35.4933 55.1896 35.4933 55.2687C35.4933 55.3478 35.4307 55.4104 35.3516 55.4104Z" fill="#F5CBD9"/>
<path d="M37.8696 55.4109H35.9581C35.879 55.4109 35.8164 55.3483 35.8164 55.2692C35.8164 55.1901 35.879 55.1274 35.9581 55.1274H37.8696C37.9487 55.1274 38.0113 55.1901 38.0113 55.2692C38.0113 55.3483 37.9487 55.4109 37.8696 55.4109Z" fill="#F5CBD9"/>
<path d="M34.1842 54.7054C34.1348 54.7054 34.0886 54.679 34.0623 54.6362C34.0227 54.5703 34.0458 54.4846 34.115 54.445L34.9587 53.9573C35.0246 53.9177 35.1103 53.9408 35.1498 54.01C35.1894 54.0759 35.1663 54.1616 35.0971 54.2012L34.2534 54.6889C34.2336 54.6988 34.2106 54.7054 34.1842 54.7054Z" fill="#F5CBD9"/>
<path d="M35.5563 53.9145C35.5068 53.9145 35.4607 53.8881 35.4343 53.8453C35.3948 53.7794 35.4179 53.6937 35.4871 53.6541L36.189 53.2488C36.255 53.2092 36.3406 53.2323 36.3802 53.3015C36.4197 53.3674 36.3967 53.4531 36.3275 53.4927L35.6255 53.898C35.6057 53.9079 35.5793 53.9145 35.5563 53.9145Z" fill="#F5CBD9"/>
<path d="M33.6693 54.1845C33.6463 54.1845 33.6199 54.1779 33.6001 54.1647C33.5342 54.1252 33.5111 54.0395 33.5474 53.9736L34.0351 53.1299C34.0747 53.064 34.1604 53.0409 34.2263 53.0772C34.2922 53.1167 34.3153 53.2024 34.279 53.2683L33.7913 54.112C33.7649 54.1615 33.7188 54.1845 33.6693 54.1845Z" fill="#F5CBD9"/>
<path d="M34.4584 52.817C34.4353 52.817 34.409 52.8104 34.3892 52.7972C34.3233 52.7577 34.3002 52.672 34.3365 52.6061L35.3746 50.8067C35.4141 50.7407 35.4998 50.7177 35.5657 50.7539C35.6316 50.7935 35.6547 50.8792 35.6185 50.9451L34.5803 52.7445C34.554 52.7907 34.5078 52.817 34.4584 52.817Z" fill="#F5CBD9"/>
<path d="M55.2468 32.3477C54.8942 32.3477 54.6074 32.6344 54.6074 32.987C54.6074 33.3397 54.8942 33.6264 55.2468 33.6264C55.5994 33.6264 55.8861 33.3397 55.8861 32.987C55.8861 32.6344 55.5994 32.3477 55.2468 32.3477Z" fill="#F5CBD9"/>
<path d="M53.8311 33.1252H52.8556C52.7765 33.1252 52.7139 33.0626 52.7139 32.9835C52.7139 32.9044 52.7765 32.8418 52.8556 32.8418H53.8311C53.9102 32.8418 53.9728 32.9044 53.9728 32.9835C53.9728 33.0626 53.9069 33.1252 53.8311 33.1252Z" fill="#F5CBD9"/>
<path d="M52.2467 33.1252H50.1671C50.088 33.1252 50.0254 33.0626 50.0254 32.9835C50.0254 32.9044 50.088 32.8418 50.1671 32.8418H52.2467C52.3258 32.8418 52.3884 32.9044 52.3884 32.9835C52.3884 33.0626 52.3258 33.1252 52.2467 33.1252Z" fill="#F5CBD9"/>
<path d="M53.1744 34.3216C53.125 34.3216 53.0789 34.2952 53.0525 34.2524C53.0129 34.1865 53.036 34.1008 53.1052 34.0612L53.9489 33.5735C54.0148 33.5339 54.1005 33.557 54.1401 33.6262C54.1796 33.6921 54.1565 33.7778 54.0873 33.8174L53.2436 34.3051C53.2206 34.3183 53.1975 34.3216 53.1744 34.3216Z" fill="#F5CBD9"/>
<path d="M50.8483 35.6663C50.7988 35.6663 50.7527 35.6399 50.7263 35.5971C50.6868 35.5312 50.7098 35.4455 50.779 35.4059L52.5785 34.3645C52.6444 34.325 52.7301 34.348 52.7696 34.4172C52.8092 34.4831 52.7861 34.5688 52.7169 34.6084L50.9175 35.6498C50.8944 35.6597 50.8713 35.6663 50.8483 35.6663Z" fill="#F5CBD9"/>
<path d="M54.0492 35.1986C54.0262 35.1986 53.9998 35.192 53.98 35.1788C53.9141 35.1392 53.891 35.0535 53.9273 34.9876L54.415 34.1407C54.4546 34.0747 54.5403 34.0517 54.6062 34.0879C54.6721 34.1275 54.6952 34.2132 54.6589 34.2791L54.1712 35.1261C54.1448 35.1755 54.0987 35.1986 54.0492 35.1986Z" fill="#F5CBD9"/>
<path d="M53.3178 36.4703C53.2947 36.4703 53.2683 36.4637 53.2486 36.4505C53.1826 36.411 53.1596 36.3253 53.1958 36.2594L53.6276 35.5113C53.6671 35.4453 53.7528 35.4223 53.8187 35.4585C53.8846 35.4981 53.9077 35.5838 53.8714 35.6497L53.4397 36.3978C53.4133 36.4439 53.3639 36.4703 53.3178 36.4703Z" fill="#F5CBD9"/>
<path d="M55.2462 35.5182C55.1671 35.5182 55.1045 35.4556 55.1045 35.3765V34.401C55.1045 34.3219 55.1671 34.2593 55.2462 34.2593C55.3253 34.2593 55.3879 34.3219 55.3879 34.401V35.3765C55.3879 35.4556 55.3253 35.5182 55.2462 35.5182Z" fill="#F5CBD9"/>
<path d="M55.2462 38.0357C55.1671 38.0357 55.1045 37.9731 55.1045 37.894V35.9825C55.1045 35.9034 55.1671 35.8408 55.2462 35.8408C55.3253 35.8408 55.3879 35.9034 55.3879 35.9825V37.894C55.3879 37.9731 55.3253 38.0357 55.2462 38.0357Z" fill="#F5CBD9"/>
<path d="M55.2462 31.7111C55.1671 31.7111 55.1045 31.6485 55.1045 31.5694V30.5939C55.1045 30.5148 55.1671 30.4521 55.2462 30.4521C55.3253 30.4521 55.3879 30.5148 55.3879 30.5939V31.5694C55.3879 31.6485 55.3253 31.7111 55.2462 31.7111Z" fill="#F5CBD9"/>
<path d="M55.2462 30.1295C55.1671 30.1295 55.1045 30.0669 55.1045 29.9878V28.0763C55.1045 27.9972 55.1671 27.9346 55.2462 27.9346C55.3253 27.9346 55.3879 27.9972 55.3879 28.0763V29.9878C55.3879 30.0669 55.3253 30.1295 55.2462 30.1295Z" fill="#F5CBD9"/>
<path d="M54.5372 31.8991C54.4878 31.8991 54.4416 31.8727 54.4153 31.8299L53.9275 30.9829C53.888 30.917 53.911 30.8313 53.9802 30.7917C54.0461 30.7522 54.1318 30.7753 54.1714 30.8445L54.6591 31.6915C54.6987 31.7574 54.6756 31.8431 54.6064 31.8826C54.5866 31.8958 54.5636 31.8991 54.5372 31.8991Z" fill="#F5CBD9"/>
<path d="M53.7458 30.5314C53.6964 30.5314 53.6502 30.5051 53.6239 30.4622L53.2185 29.7602C53.179 29.6943 53.202 29.6086 53.2712 29.5691C53.3371 29.5295 53.4228 29.5526 53.4624 29.6218L53.8677 30.3238C53.9073 30.3897 53.8842 30.4754 53.815 30.5149C53.7952 30.5248 53.7722 30.5314 53.7458 30.5314Z" fill="#F5CBD9"/>
<path d="M54.0209 32.4199C53.9978 32.4199 53.9714 32.4133 53.9516 32.4001L53.1079 31.9124C53.042 31.8728 53.019 31.7871 53.0552 31.7212C53.0948 31.6553 53.1804 31.6322 53.2464 31.6685L54.0901 32.1562C54.156 32.1958 54.179 32.2815 54.1428 32.3474C54.1164 32.3935 54.0703 32.4199 54.0209 32.4199Z" fill="#F5CBD9"/>
<path d="M52.6475 31.6288C52.6244 31.6288 52.598 31.6223 52.5783 31.6091L50.7788 30.5676C50.7129 30.5281 50.6899 30.4424 50.7261 30.3765C50.7657 30.3106 50.8513 30.2875 50.9173 30.3238L52.7167 31.3652C52.7826 31.4047 52.8057 31.4904 52.7694 31.5563C52.7431 31.6025 52.6969 31.6288 52.6475 31.6288Z" fill="#F5CBD9"/>
<path d="M10.6755 33.6264C11.0281 33.6264 11.3149 33.3397 11.3149 32.987C11.3149 32.6344 11.0281 32.3477 10.6755 32.3477C10.3229 32.3477 10.0361 32.6344 10.0361 32.987C10.0361 33.3397 10.3229 33.6264 10.6755 33.6264Z" fill="#F5CBD9"/>
<path d="M13.0694 33.1252H12.0939C12.0148 33.1252 11.9521 33.0626 11.9521 32.9835C11.9521 32.9044 12.0148 32.8418 12.0939 32.8418H13.0694C13.1485 32.8418 13.2111 32.9044 13.2111 32.9835C13.2111 33.0626 13.1485 33.1252 13.0694 33.1252Z" fill="#F5CBD9"/>
<path d="M15.7555 33.1252H13.6759C13.5968 33.1252 13.5342 33.0626 13.5342 32.9835C13.5342 32.9044 13.5968 32.8418 13.6759 32.8418H15.7555C15.8346 32.8418 15.8972 32.9044 15.8972 32.9835C15.8972 33.0626 15.8346 33.1252 15.7555 33.1252Z" fill="#F5CBD9"/>
<path d="M11.9069 32.4197C11.8574 32.4197 11.8113 32.3934 11.7849 32.3505C11.7454 32.2846 11.7684 32.1989 11.8376 32.1594L12.6813 31.6716C12.7472 31.6321 12.8329 31.6552 12.8725 31.7244C12.912 31.7903 12.8889 31.876 12.8197 31.9155L11.976 32.4033C11.953 32.4132 11.9299 32.4197 11.9069 32.4197Z" fill="#F5CBD9"/>
<path d="M13.274 31.6292C13.2246 31.6292 13.1785 31.6028 13.1521 31.56C13.1125 31.4941 13.1356 31.4084 13.2048 31.3688L15.0076 30.3274C15.0735 30.2878 15.1592 30.3109 15.1987 30.3801C15.2383 30.446 15.2152 30.5317 15.146 30.5713L13.3433 31.6127C13.3235 31.6226 13.2971 31.6292 13.274 31.6292Z" fill="#F5CBD9"/>
<path d="M11.3852 31.8997C11.3621 31.8997 11.3357 31.8931 11.3159 31.88C11.25 31.8404 11.227 31.7547 11.2632 31.6888L11.751 30.8418C11.7905 30.7759 11.8762 30.7528 11.9421 30.7891C12.008 30.8286 12.0311 30.9143 11.9948 30.9802L11.5071 31.8272C11.4807 31.8767 11.4346 31.8997 11.3852 31.8997Z" fill="#F5CBD9"/>
<path d="M12.1762 30.5313C12.1531 30.5313 12.1267 30.5247 12.107 30.5116C12.0411 30.472 12.018 30.3863 12.0542 30.3204L12.486 29.5723C12.5255 29.5064 12.6112 29.4833 12.6771 29.5196C12.743 29.5591 12.7661 29.6448 12.7299 29.7107L12.2981 30.4588C12.2718 30.505 12.2256 30.5313 12.1762 30.5313Z" fill="#F5CBD9"/>
<path d="M10.6749 31.7111C10.5958 31.7111 10.5332 31.6485 10.5332 31.5694V30.5939C10.5332 30.5148 10.5958 30.4521 10.6749 30.4521C10.754 30.4521 10.8166 30.5148 10.8166 30.5939V31.5694C10.8166 31.6485 10.754 31.7111 10.6749 31.7111Z" fill="#F5CBD9"/>
<path d="M10.6749 30.1295C10.5958 30.1295 10.5332 30.0669 10.5332 29.9878V28.0763C10.5332 27.9972 10.5958 27.9346 10.6749 27.9346C10.754 27.9346 10.8166 27.9972 10.8166 28.0763V29.9878C10.8166 30.0669 10.754 30.1295 10.6749 30.1295Z" fill="#F5CBD9"/>
<path d="M10.6749 35.5182C10.5958 35.5182 10.5332 35.4556 10.5332 35.3765V34.401C10.5332 34.3219 10.5958 34.2593 10.6749 34.2593C10.754 34.2593 10.8166 34.3219 10.8166 34.401V35.3765C10.8166 35.4556 10.754 35.5182 10.6749 35.5182Z" fill="#F5CBD9"/>
<path d="M10.6749 38.0357C10.5958 38.0357 10.5332 37.9731 10.5332 37.894V35.9825C10.5332 35.9034 10.5958 35.8408 10.6749 35.8408C10.754 35.8408 10.8166 35.9034 10.8166 35.9825V37.894C10.8166 37.9731 10.754 38.0357 10.6749 38.0357Z" fill="#F5CBD9"/>
<path d="M11.8731 35.1984C11.8237 35.1984 11.7775 35.172 11.7512 35.1292L11.2634 34.2822C11.2239 34.2163 11.2469 34.1306 11.3162 34.0911C11.3821 34.0515 11.4678 34.0746 11.5073 34.1438L11.9951 34.9908C12.0346 35.0567 12.0115 35.1424 11.9423 35.1819C11.9226 35.1918 11.8995 35.1984 11.8731 35.1984Z" fill="#F5CBD9"/>
<path d="M12.5788 36.4245C12.5294 36.4245 12.4833 36.3981 12.4569 36.3553L12.0515 35.6533C12.012 35.5874 12.035 35.5017 12.1043 35.4622C12.1702 35.4226 12.2559 35.4457 12.2954 35.5149L12.7008 36.2169C12.7403 36.2828 12.7173 36.3685 12.648 36.408C12.6283 36.4179 12.6019 36.4245 12.5788 36.4245Z" fill="#F5CBD9"/>
<path d="M12.7503 34.3213C12.7273 34.3213 12.7009 34.3147 12.6811 34.3015L11.8374 33.8137C11.7715 33.7742 11.7484 33.6885 11.7847 33.6226C11.8242 33.5567 11.9099 33.5336 11.9758 33.5699L12.8195 34.0576C12.8854 34.0972 12.9085 34.1828 12.8723 34.2488C12.8459 34.2982 12.7998 34.3213 12.7503 34.3213Z" fill="#F5CBD9"/>
<path d="M15.0746 35.6664C15.0515 35.6664 15.0252 35.6598 15.0054 35.6467L13.2027 34.6052C13.1368 34.5657 13.1137 34.48 13.1499 34.4141C13.1895 34.3482 13.2752 34.3251 13.3411 34.3614L15.1438 35.4028C15.2097 35.4423 15.2328 35.528 15.1965 35.5939C15.1702 35.6401 15.1207 35.6664 15.0746 35.6664Z" fill="#F5CBD9"/>
<path d="M26.5824 14.2707C26.5033 14.2707 26.4275 14.2675 26.3517 14.2576C25.7057 14.1818 25.1224 13.7731 24.8653 13.2161C24.5918 12.6229 24.7137 11.8748 25.1554 11.4332C25.6233 10.9652 26.4242 10.8927 26.9383 11.275C27.3536 11.5848 27.5216 12.1615 27.3206 12.5867C27.2086 12.8239 26.9614 13.0019 26.6813 13.0546C26.4275 13.1008 26.1869 13.0349 26.0188 12.8734C25.9628 12.8207 25.9628 12.7317 26.0155 12.6756C26.0683 12.6196 26.1572 12.6196 26.2133 12.6723C26.3154 12.7712 26.4637 12.8075 26.6318 12.7778C26.8263 12.7416 26.991 12.6229 27.0668 12.4647C27.2151 12.1549 27.0833 11.7298 26.7735 11.4991C26.3649 11.1959 25.7288 11.2552 25.3531 11.6309C24.9906 11.9901 24.8917 12.6097 25.1191 13.0975C25.3366 13.5688 25.8343 13.9148 26.3814 13.9774C26.8988 14.0401 27.4656 13.8555 27.8974 13.493C28.484 12.9953 28.7509 12.1945 28.5499 11.5419C28.4049 11.0739 28.0292 10.6686 27.5249 10.4247C27.0932 10.2171 26.5659 10.1248 25.9595 10.1479C24.9972 10.1841 24.0019 10.4906 23.0066 11.0575C22.2387 11.4958 21.1478 12.1813 20.3041 12.969C20.2514 13.0151 20.1723 13.0184 20.1196 12.9756C20.0636 12.9294 20.0537 12.8536 20.0899 12.7943C20.4228 12.2538 20.6601 11.7726 20.8216 11.3145C19.7043 12.2802 18.3959 13.0448 17.0085 13.5391C16.3955 13.7566 15.5847 13.9906 14.7542 13.8753C13.8974 13.7533 13.1756 13.2293 12.9152 12.5405C12.7505 12.1055 12.7834 11.5914 13.0042 11.1366C13.2283 10.6785 13.6106 10.339 14.0555 10.2006C14.6191 10.0259 15.2519 10.1709 15.6342 10.5598C16.0593 10.9949 16.1252 11.6968 15.7858 12.1582C15.6078 12.3988 15.3112 12.5603 14.9915 12.5834C14.6916 12.6097 14.4082 12.5142 14.2137 12.323C14.1577 12.2703 14.1577 12.1813 14.2105 12.1253C14.2632 12.0692 14.3522 12.0692 14.4082 12.1253C14.5433 12.2571 14.7443 12.3263 14.9652 12.3065C15.2057 12.2868 15.4265 12.1714 15.5551 11.9934C15.8121 11.6441 15.7528 11.0871 15.4298 10.7543C15.12 10.4379 14.5993 10.3225 14.1346 10.4642C13.7622 10.5796 13.4426 10.8663 13.2514 11.2552C13.0635 11.6441 13.0339 12.0758 13.1723 12.4384C13.3997 13.0349 14.0325 13.4864 14.7905 13.5951C15.5617 13.7039 16.3296 13.4798 16.9129 13.2722C18.4223 12.735 19.8362 11.8715 20.9995 10.7707C21.0457 10.7279 21.1116 10.7213 21.1676 10.751C21.2203 10.7806 21.2467 10.8433 21.2335 10.9059C21.1314 11.3343 20.9666 11.766 20.726 12.2373C21.4576 11.6573 22.2618 11.1563 22.8682 10.8136C23.903 10.2237 24.9411 9.90399 25.9496 9.86773C26.6022 9.84137 27.1756 9.94683 27.6469 10.1742C28.2236 10.4511 28.6488 10.9191 28.8201 11.4595C29.0574 12.2175 28.7509 13.1403 28.0819 13.7072C27.6535 14.0664 27.1064 14.2707 26.5824 14.2707Z" fill="#F1DFC1"/>
<path d="M26.1224 13.9612C26.0433 13.9612 25.9675 13.9579 25.8917 13.948C25.6874 13.9249 25.4863 13.8656 25.2952 13.7766C25.226 13.7437 25.1963 13.6613 25.2293 13.5888C25.2622 13.5196 25.3446 13.4899 25.4171 13.5229C25.5819 13.5987 25.7533 13.6481 25.928 13.6712C26.4454 13.7305 27.0122 13.5492 27.444 13.1867C28.0306 12.6924 28.2975 11.8882 28.0965 11.2357C28.0009 10.9292 27.8032 10.6491 27.5099 10.4118C27.4506 10.3623 27.4407 10.2733 27.4901 10.214C27.5395 10.1547 27.6285 10.1448 27.6878 10.1943C28.024 10.4678 28.2514 10.7908 28.3635 11.1533C28.6007 11.9113 28.2942 12.8341 27.6252 13.4009C27.1935 13.7569 26.6497 13.9612 26.1224 13.9612Z" fill="#F1DFC1"/>
<path d="M15.4685 13.8951C15.4619 13.8951 15.4553 13.8951 15.4487 13.8951C14.7336 13.7929 13.8306 13.325 13.5307 12.5406C13.3461 12.0528 13.4054 11.4464 13.6888 10.962C13.9492 10.517 14.3612 10.2303 14.8489 10.1611C14.9247 10.1479 14.9972 10.204 15.0071 10.2798C15.017 10.3556 14.9643 10.4281 14.8885 10.4379C14.4864 10.4973 14.1469 10.7346 13.9294 11.1037C13.6888 11.5156 13.6361 12.0298 13.791 12.4384C14.0514 13.1173 14.8522 13.526 15.4883 13.615C15.5641 13.6249 15.6168 13.6974 15.6069 13.7732C15.597 13.8424 15.5344 13.8951 15.4685 13.8951Z" fill="#F1DFC1"/>
<path d="M29.6165 10.1448H17.8048C17.7257 10.1448 17.6631 10.0821 17.6631 10.003C17.6631 9.92395 17.7257 9.86133 17.8048 9.86133H29.6165C29.6956 9.86133 29.7582 9.92395 29.7582 10.003C29.7549 10.0821 29.6923 10.1448 29.6165 10.1448Z" fill="#F1DFC1"/>
<path d="M26.444 13.0351C26.7972 13.0351 27.0834 12.7488 27.0834 12.3957C27.0834 12.0426 26.7972 11.7563 26.444 11.7563C26.0909 11.7563 25.8047 12.0426 25.8047 12.3957C25.8047 12.7488 26.0909 13.0351 26.444 13.0351Z" fill="#F1DFC1"/>
<path d="M18.4428 10.5041C18.4428 10.8567 18.1561 11.1435 17.8034 11.1435C17.4508 11.1435 17.1641 10.8567 17.1641 10.5041C17.1641 10.1515 17.4508 9.86475 17.8034 9.86475C18.1561 9.86475 18.4428 10.1515 18.4428 10.5041Z" fill="#F1DFC1"/>
<path d="M14.6745 12.518C15.0276 12.518 15.3139 12.2317 15.3139 11.8786C15.3139 11.5255 15.0276 11.2393 14.6745 11.2393C14.3214 11.2393 14.0352 11.5255 14.0352 11.8786C14.0352 12.2317 14.3214 12.518 14.6745 12.518Z" fill="#F1DFC1"/>
<path d="M39.3255 14.2707C38.7982 14.2707 38.2676 14.073 37.8359 13.7072C37.1636 13.1403 36.8603 12.2175 37.0976 11.4595C37.2657 10.9191 37.6942 10.4511 38.2709 10.1742C38.7455 9.94683 39.3156 9.84137 39.9682 9.86773C40.9766 9.90399 42.0148 10.2237 43.0496 10.8136C43.656 11.1596 44.4602 11.6573 45.1918 12.2373C44.9512 11.766 44.7864 11.3343 44.6843 10.9059C44.6711 10.8465 44.6974 10.7839 44.7502 10.751C44.8029 10.7213 44.8721 10.7279 44.9183 10.7707C46.0816 11.8715 47.4955 12.735 49.0049 13.2722C49.5882 13.4798 50.3561 13.7039 51.1273 13.5951C51.882 13.4897 52.5181 13.0349 52.7455 12.4384C52.8839 12.0758 52.8542 11.6441 52.6664 11.2552C52.4785 10.8663 52.1556 10.5796 51.7831 10.4642C51.3185 10.3192 50.7977 10.4346 50.4879 10.7543C50.1617 11.0871 50.1056 11.6408 50.3627 11.9934C50.4912 12.1681 50.712 12.2868 50.9526 12.3065C51.1701 12.323 51.3745 12.2571 51.5096 12.1253C51.5656 12.0725 51.6546 12.0725 51.7073 12.1253C51.7601 12.1813 51.7601 12.2703 51.704 12.323C51.5096 12.5142 51.2262 12.6097 50.9263 12.5834C50.6066 12.557 50.31 12.3988 50.132 12.1582C49.7926 11.6968 49.8618 10.9916 50.2836 10.5598C50.6659 10.1709 51.2987 10.0259 51.8622 10.2006C52.3071 10.339 52.6894 10.6785 52.9136 11.1366C53.1377 11.5947 53.1706 12.1055 53.0025 12.5405C52.7389 13.2293 52.0171 13.7533 51.1636 13.8753C50.333 13.9939 49.5223 13.7566 48.9093 13.5391C47.5218 13.0448 46.2134 12.2802 45.0962 11.3145C45.2577 11.7726 45.495 12.2538 45.8279 12.7943C45.8641 12.8536 45.8509 12.9327 45.7982 12.9756C45.7455 13.0184 45.6664 13.0184 45.6136 12.969C44.7732 12.1813 43.6791 11.4958 42.9112 11.0575C41.9159 10.4906 40.9206 10.1841 39.9583 10.1479C39.3486 10.1248 38.8246 10.2204 38.3928 10.4247C37.8853 10.6686 37.5129 11.0739 37.3679 11.5419C37.1635 12.1945 37.4338 12.9953 38.0204 13.493C38.4522 13.8588 39.0223 14.0401 39.5364 13.9774C40.0868 13.9115 40.5845 13.5655 40.802 13.0975C41.0294 12.6064 40.9305 11.9901 40.568 11.6309C40.1923 11.2552 39.5562 11.1992 39.1475 11.4991C38.8344 11.7298 38.7059 12.1549 38.8542 12.4647C38.93 12.6229 39.0948 12.7416 39.2892 12.7778C39.4507 12.8075 39.6056 12.7679 39.7078 12.6723C39.7638 12.6196 39.8528 12.6196 39.9055 12.6756C39.9583 12.7317 39.9583 12.8207 39.9022 12.8734C39.7342 13.0349 39.4936 13.1008 39.2398 13.0546C38.9597 13.0052 38.7158 12.8239 38.6037 12.5867C38.3994 12.1615 38.5675 11.5848 38.9861 11.275C39.5002 10.8927 40.301 10.9652 40.769 11.4332C41.2106 11.8748 41.3326 12.6229 41.059 13.2161C40.802 13.7731 40.2186 14.1818 39.5727 14.2576C39.487 14.2675 39.4079 14.2707 39.3255 14.2707Z" fill="#F1DFC1"/>
<path d="M39.7915 13.9611C39.2674 13.9611 38.7203 13.76 38.2919 13.3975C37.6196 12.8307 37.3164 11.9079 37.5537 11.1499C37.6657 10.7906 37.8931 10.4677 38.2293 10.1908C38.2886 10.1414 38.3776 10.1513 38.427 10.2106C38.4765 10.2699 38.4666 10.3589 38.4073 10.4083C38.114 10.6489 37.9195 10.9258 37.8239 11.2323C37.6196 11.8848 37.8898 12.6857 38.4765 13.1833C38.9082 13.5491 39.4784 13.7304 39.9925 13.6678C40.1672 13.648 40.3385 13.5986 40.5033 13.5195C40.5725 13.4865 40.6582 13.5162 40.6912 13.5854C40.7241 13.6546 40.6945 13.7403 40.6252 13.7732C40.4341 13.8622 40.2331 13.9215 40.0287 13.9446C39.9496 13.9578 39.8705 13.9611 39.7915 13.9611Z" fill="#F1DFC1"/>
<path d="M50.4531 13.895C50.3839 13.895 50.3246 13.8455 50.3147 13.773C50.3048 13.6972 50.3575 13.6247 50.4333 13.6148C51.0694 13.5259 51.8702 13.1172 52.1306 12.4383C52.2888 12.0263 52.236 11.5155 51.9922 11.1003C51.7746 10.7311 51.4352 10.4938 51.0331 10.4345C50.9573 10.4246 50.9046 10.3521 50.9145 10.2763C50.9244 10.2005 50.9969 10.1445 51.0727 10.1577C51.5604 10.2302 51.9724 10.5136 52.2327 10.9585C52.5162 11.443 52.5788 12.0461 52.3909 12.5372C52.091 13.3248 51.188 13.7895 50.4729 13.8917C50.4663 13.895 50.4597 13.895 50.4531 13.895Z" fill="#F1DFC1"/>
<path d="M48.1145 10.1448H36.3028C36.2237 10.1448 36.1611 10.0821 36.1611 10.003C36.1611 9.92395 36.2237 9.86133 36.3028 9.86133H48.1145C48.1936 9.86133 48.2562 9.92395 48.2562 10.003C48.2562 10.0821 48.1936 10.1448 48.1145 10.1448Z" fill="#F1DFC1"/>
<path d="M39.4704 13.0346C39.8235 13.0346 40.1098 12.7483 40.1098 12.3952C40.1098 12.0421 39.8235 11.7559 39.4704 11.7559C39.1173 11.7559 38.8311 12.0421 38.8311 12.3952C38.8311 12.7483 39.1173 13.0346 39.4704 13.0346Z" fill="#F1DFC1"/>
<path d="M47.4766 10.5036C47.4766 10.8563 47.7633 11.143 48.1159 11.143C48.4686 11.143 48.7553 10.8563 48.7553 10.5036C48.7553 10.151 48.4686 9.86426 48.1159 9.86426C47.7633 9.86426 47.4766 10.151 47.4766 10.5036Z" fill="#F1DFC1"/>
<path d="M51.2429 12.5175C51.596 12.5175 51.8822 12.2312 51.8822 11.8781C51.8822 11.525 51.596 11.2388 51.2429 11.2388C50.8898 11.2388 50.6035 11.525 50.6035 11.8781C50.6035 12.2312 50.8898 12.5175 51.2429 12.5175Z" fill="#F1DFC1"/>
<path d="M26.135 56.1095C26.0724 56.1095 26.0131 56.1095 25.9504 56.1062C24.942 56.07 23.9038 55.7503 22.869 55.1604C22.2626 54.8143 21.4584 54.3167 20.7268 53.7366C20.9674 54.2079 21.1322 54.6396 21.2343 55.0681C21.2475 55.1274 21.2212 55.19 21.1684 55.223C21.1157 55.2526 21.0465 55.246 21.0003 55.2032C19.837 54.1025 18.4231 53.239 16.9137 52.7018C16.3304 52.4942 15.5592 52.2701 14.7913 52.3788C14.0366 52.4876 13.4005 52.9391 13.1731 53.5356C13.0347 53.8981 13.0644 54.3299 13.2522 54.7187C13.4401 55.1076 13.763 55.3944 14.1355 55.5097C14.6001 55.6547 15.1209 55.5394 15.4306 55.2197C15.7569 54.8868 15.8129 54.3331 15.5559 53.9805C15.4274 53.8025 15.2066 53.6872 14.966 53.6674C14.7485 53.6509 14.5441 53.7169 14.409 53.8487C14.353 53.9047 14.264 53.9014 14.2113 53.8487C14.1585 53.7927 14.1585 53.7037 14.2145 53.6509C14.409 53.4598 14.6924 53.3642 14.989 53.3906C15.3087 53.417 15.6053 53.5751 15.7833 53.8157C16.1227 54.2771 16.0535 54.9824 15.6317 55.4141C15.2494 55.803 14.6166 55.948 14.0531 55.7734C13.6081 55.6349 13.2258 55.2955 13.0017 54.8374C12.7776 54.3793 12.7447 53.8685 12.9128 53.4334C13.1764 52.7446 13.8982 52.2206 14.7517 52.0987C15.5855 51.98 16.393 52.2173 17.006 52.4348C18.3935 52.9292 19.7018 53.6938 20.8191 54.6594C20.6576 54.2013 20.4203 53.7202 20.0874 53.1797C20.0512 53.1203 20.0644 53.0412 20.1171 52.9984C20.1698 52.9556 20.2489 52.9556 20.3017 53.005C21.1421 53.7927 22.2362 54.4782 23.0041 54.9165C23.9994 55.4833 24.9947 55.7898 25.957 55.8261C26.5667 55.8492 27.0907 55.7536 27.5225 55.5492C28.03 55.3054 28.4024 54.9 28.5474 54.432C28.7518 53.7795 28.4815 52.9786 27.8949 52.481C27.4631 52.1152 26.893 51.9339 26.3789 51.9965C25.8285 52.0624 25.3341 52.4085 25.1166 52.8765C24.8892 53.3642 24.9881 53.9838 25.3506 54.343C25.7263 54.7187 26.3624 54.7748 26.7711 54.4749C27.0841 54.2442 27.2127 53.819 27.0644 53.5092C26.9886 53.351 26.8238 53.2324 26.6293 53.1961C26.4646 53.1665 26.313 53.206 26.2108 53.3016C26.1548 53.3543 26.0658 53.3543 26.0131 53.2983C25.9603 53.2423 25.9603 53.1533 26.0163 53.1006C26.1844 52.9391 26.425 52.8732 26.6788 52.9193C26.9589 52.9687 27.2028 53.15 27.3181 53.3873C27.5225 53.8124 27.3544 54.3892 26.9358 54.699C26.4217 55.0813 25.6209 55.0088 25.1529 54.5408C24.7113 54.0992 24.5893 53.351 24.8629 52.7578C25.1199 52.2008 25.7033 51.7922 26.3492 51.7164C26.9424 51.6472 27.5884 51.8515 28.0794 52.2668C28.7517 52.8336 29.0549 53.7564 28.8177 54.5144C28.6496 55.0549 28.2211 55.5229 27.6444 55.7997C27.2193 56.0073 26.7117 56.1095 26.135 56.1095Z" fill="#F1DFC1"/>
<path d="M27.5969 55.8132C27.5573 55.8132 27.5145 55.7967 27.4881 55.7604C27.4387 55.7011 27.4485 55.6121 27.5079 55.5627C27.8012 55.3221 27.9956 55.0453 28.0945 54.7388C28.2988 54.0862 28.0286 53.2854 27.4419 52.7877C27.0102 52.4219 26.4434 52.2407 25.9259 52.3033C25.7513 52.3231 25.5799 52.3725 25.4151 52.4516C25.3459 52.4845 25.2602 52.4549 25.2273 52.3857C25.1943 52.3165 25.224 52.2308 25.2965 52.1978C25.4876 52.1088 25.6886 52.0495 25.893 52.0264C26.4862 51.9572 27.1321 52.1616 27.6232 52.5768C28.2955 53.1437 28.5987 54.0665 28.3614 54.8245C28.2494 55.187 28.022 55.5067 27.6858 55.7835C27.6595 55.8033 27.6298 55.8132 27.5969 55.8132Z" fill="#F1DFC1"/>
<path d="M14.8672 55.8162C14.8606 55.8162 14.854 55.8162 14.8474 55.8162C14.3597 55.7437 13.9477 55.4603 13.6873 55.0154C13.4039 54.5309 13.3413 53.9278 13.5292 53.4368C13.8291 52.6491 14.7321 52.1844 15.4472 52.0822C15.523 52.0724 15.5955 52.1251 15.6054 52.2009C15.6153 52.2767 15.5626 52.3492 15.4868 52.3591C14.8507 52.4481 14.0499 52.8567 13.7895 53.5356C13.6313 53.9476 13.684 54.4584 13.9279 54.8704C14.1454 55.2395 14.4849 55.4768 14.887 55.5361C14.9628 55.546 15.0155 55.6185 15.0056 55.6943C14.9957 55.7668 14.9364 55.8162 14.8672 55.8162Z" fill="#F1DFC1"/>
<path d="M29.6175 56.1096H17.8058C17.7267 56.1096 17.6641 56.047 17.6641 55.9679C17.6641 55.8888 17.7267 55.8262 17.8058 55.8262H29.6175C29.6966 55.8262 29.7592 55.8888 29.7592 55.9679C29.7592 56.047 29.6933 56.1096 29.6175 56.1096Z" fill="#F1DFC1"/>
<path d="M26.446 54.2177C26.7991 54.2177 27.0854 53.9314 27.0854 53.5783C27.0854 53.2252 26.7991 52.939 26.446 52.939C26.0929 52.939 25.8066 53.2252 25.8066 53.5783C25.8066 53.9314 26.0929 54.2177 26.446 54.2177Z" fill="#F1DFC1"/>
<path d="M17.8024 56.1098C18.1556 56.1098 18.4418 55.8235 18.4418 55.4704C18.4418 55.1173 18.1556 54.8311 17.8024 54.8311C17.4493 54.8311 17.1631 55.1173 17.1631 55.4704C17.1631 55.8235 17.4493 56.1098 17.8024 56.1098Z" fill="#F1DFC1"/>
<path d="M14.6745 54.7353C15.0276 54.7353 15.3139 54.449 15.3139 54.0959C15.3139 53.7428 15.0276 53.4565 14.6745 53.4565C14.3214 53.4565 14.0352 53.7428 14.0352 54.0959C14.0352 54.449 14.3214 54.7353 14.6745 54.7353Z" fill="#F1DFC1"/>
<path d="M39.7822 56.1093C39.2055 56.1093 38.698 56.0071 38.2695 55.7995C37.6928 55.5227 37.2676 55.0547 37.0963 54.5142C36.859 53.7562 37.1655 52.8334 37.8345 52.2666C38.3321 51.8447 38.9616 51.647 39.5647 51.7162C40.2107 51.792 40.794 52.2006 41.0511 52.7576C41.3246 53.3508 41.2027 54.099 40.7611 54.5406C40.2898 55.0086 39.4889 55.0811 38.9781 54.6988C38.5628 54.389 38.3948 53.8122 38.5958 53.3871C38.7078 53.1498 38.9517 52.9718 39.2319 52.9191C39.4856 52.873 39.7262 52.9389 39.8943 53.1004C39.9503 53.1531 39.9503 53.2421 39.8976 53.2981C39.8448 53.3541 39.7559 53.3541 39.6998 53.3014C39.5977 53.2025 39.4461 53.1663 39.2813 53.1959C39.0868 53.2322 38.9221 53.3508 38.8463 53.509C38.698 53.8188 38.8298 54.244 39.1396 54.4747C39.5482 54.7779 40.1843 54.7185 40.56 54.3428C40.9225 53.9836 41.0214 53.3673 40.794 52.8763C40.5765 52.405 40.0788 52.0589 39.5285 51.9963C39.011 51.937 38.4442 52.1183 38.0125 52.4808C37.4258 52.9751 37.1589 53.7793 37.3599 54.4318C37.5049 54.8998 37.8806 55.3052 38.3849 55.549C38.8166 55.7567 39.3439 55.849 39.9503 55.8259C40.9126 55.7896 41.9079 55.4831 42.9032 54.9163C43.6711 54.478 44.762 53.7925 45.6057 53.0048C45.6584 52.9554 45.7375 52.9554 45.7902 52.9982C45.8463 53.0443 45.8561 53.1201 45.8199 53.1795C45.487 53.72 45.2497 54.2011 45.0882 54.6592C46.2022 53.6936 47.5139 52.929 48.9013 52.4346C49.5143 52.2171 50.3251 51.9798 51.1556 52.0985C52.0125 52.2204 52.7342 52.7444 52.9946 53.4332C53.1594 53.8683 53.1264 54.3824 52.9056 54.8372C52.6815 55.2953 52.2992 55.6347 51.8543 55.7732C51.2907 55.9478 50.6579 55.8028 50.2756 55.4139C49.8505 54.9789 49.7846 54.2769 50.124 53.8155C50.302 53.5749 50.5953 53.4135 50.9183 53.3904C51.2182 53.3673 51.5016 53.4629 51.6961 53.6507C51.7521 53.7035 51.7521 53.7925 51.6994 53.8485C51.6466 53.9045 51.5577 53.9045 51.5016 53.8485C51.3665 53.7167 51.1622 53.6475 50.9447 53.6672C50.7041 53.687 50.4833 53.8023 50.3547 53.9803C50.0977 54.3297 50.157 54.8866 50.48 55.2195C50.7898 55.5359 51.3105 55.6512 51.7752 55.5095C52.1476 55.3942 52.4673 55.1074 52.6584 54.7185C52.8463 54.3297 52.8759 53.8979 52.7375 53.5354C52.5101 52.9389 51.8773 52.4874 51.1193 52.3786C50.3514 52.2699 49.5803 52.494 48.9969 52.7016C47.4875 53.2388 46.0737 54.1023 44.9103 55.203C44.8641 55.2459 44.7982 55.2524 44.7422 55.2228C44.6895 55.1931 44.6631 55.1305 44.6763 55.0679C44.7785 54.6394 44.9433 54.2077 45.1838 53.7364C44.4522 54.3165 43.6481 54.8174 43.0416 55.1602C42.0068 55.7501 40.9687 56.0665 39.9602 56.106C39.9042 56.1093 39.8416 56.1093 39.7822 56.1093Z" fill="#F1DFC1"/>
<path d="M38.3189 55.8126C38.2859 55.8126 38.2562 55.8027 38.2299 55.7796C37.8937 55.5061 37.6663 55.1831 37.5543 54.8206C37.317 54.0626 37.6235 53.1398 38.2925 52.5729C38.7835 52.1577 39.4328 51.9533 40.0227 52.0225C40.227 52.0456 40.4281 52.1049 40.6192 52.1939C40.6884 52.2269 40.7181 52.3093 40.6884 52.3818C40.6555 52.451 40.5731 52.4806 40.5006 52.4477C40.3358 52.3719 40.1644 52.3224 39.9898 52.2994C39.4723 52.2368 38.9055 52.4213 38.4738 52.7838C37.8871 53.2782 37.6202 54.0823 37.8212 54.7349C37.9168 55.0414 38.1145 55.3215 38.4045 55.5588C38.4639 55.6082 38.4738 55.6972 38.4243 55.7565C38.4013 55.7961 38.3617 55.8126 38.3189 55.8126Z" fill="#F1DFC1"/>
<path d="M51.0519 55.8162C50.9827 55.8162 50.9234 55.7668 50.9135 55.6976C50.9036 55.6218 50.9563 55.5493 51.0321 55.5394C51.4342 55.4801 51.7737 55.2428 51.9912 54.8737C52.2318 54.4617 52.2845 53.9476 52.1296 53.5356C51.8693 52.8567 51.0684 52.4481 50.4323 52.3591C50.3565 52.3492 50.3038 52.2767 50.3137 52.2009C50.3236 52.1251 50.3961 52.0724 50.4719 52.0822C51.2101 52.1877 52.0901 52.6458 52.39 53.4368C52.5745 53.9278 52.5152 54.5309 52.2318 55.0154C51.9714 55.4603 51.5594 55.747 51.0717 55.8162C51.0651 55.8162 51.0585 55.8162 51.0519 55.8162Z" fill="#F1DFC1"/>
<path d="M48.1136 56.1096H36.3019C36.2228 56.1096 36.1602 56.047 36.1602 55.9679C36.1602 55.8888 36.2228 55.8262 36.3019 55.8262H48.1136C48.1926 55.8262 48.2553 55.8888 48.2553 55.9679C48.2553 56.047 48.1926 56.1096 48.1136 56.1096Z" fill="#F1DFC1"/>
<path d="M39.4694 54.2177C39.8225 54.2177 40.1088 53.9314 40.1088 53.5783C40.1088 53.2252 39.8225 52.939 39.4694 52.939C39.1163 52.939 38.8301 53.2252 38.8301 53.5783C38.8301 53.9314 39.1163 54.2177 39.4694 54.2177Z" fill="#F1DFC1"/>
<path d="M48.1149 56.1093C48.4681 56.1093 48.7543 55.823 48.7543 55.4699C48.7543 55.1168 48.4681 54.8306 48.1149 54.8306C47.7618 54.8306 47.4756 55.1168 47.4756 55.4699C47.4756 55.823 47.7618 56.1093 48.1149 56.1093Z" fill="#F1DFC1"/>
<path d="M51.2419 54.7353C51.595 54.7353 51.8813 54.449 51.8813 54.0959C51.8813 53.7428 51.595 53.4565 51.2419 53.4565C50.8888 53.4565 50.6025 53.7428 50.6025 54.0959C50.6025 54.449 50.8888 54.7353 51.2419 54.7353Z" fill="#F1DFC1"/>
<path d="M53.9554 28.9263C53.3325 28.9263 52.68 28.6264 52.2417 28.109C51.8198 27.6114 51.6221 26.9819 51.6913 26.3788C51.7671 25.7328 52.1758 25.1495 52.7327 24.8924C53.3259 24.6189 54.0741 24.7408 54.5157 25.1825C54.9837 25.6537 55.0562 26.4546 54.6739 26.9687C54.3641 27.384 53.7873 27.552 53.3622 27.351C53.1249 27.239 52.9469 26.9951 52.8942 26.7116C52.8481 26.4579 52.914 26.2173 53.0755 26.0492C53.1282 25.9932 53.2172 25.9932 53.2732 26.0459C53.3292 26.0987 53.3292 26.1876 53.2765 26.2437C53.1776 26.3458 53.1414 26.4974 53.171 26.6622C53.2073 26.8567 53.3259 27.0214 53.4841 27.0972C53.7939 27.2455 54.2191 27.1137 54.4498 26.8039C54.753 26.3953 54.6936 25.7592 54.3179 25.3835C53.9587 25.021 53.3424 24.9221 52.8514 25.1495C52.3801 25.367 52.034 25.8647 51.9714 26.415C51.9121 26.9325 52.0934 27.4993 52.4559 27.931C52.9502 28.5177 53.7544 28.7879 54.4069 28.5836C54.8716 28.4386 55.2803 28.0629 55.5242 27.5586C55.7318 27.1269 55.824 26.5996 55.801 25.9932C55.7647 25.0309 55.4582 24.0356 54.8914 23.0403C54.453 22.2724 53.7676 21.1815 52.9799 20.3378C52.9305 20.2851 52.9305 20.206 52.9733 20.1533C53.0162 20.1005 53.0952 20.0874 53.1546 20.1236C53.6951 20.4565 54.1762 20.6938 54.6343 20.8552C53.6687 19.738 52.9041 18.4296 52.4097 17.0422C52.1922 16.4292 51.955 15.6184 52.0736 14.7879C52.1955 13.9343 52.7195 13.2093 53.4083 12.9489C53.8434 12.7841 54.3542 12.8171 54.8123 13.0379C55.2704 13.262 55.6099 13.6443 55.7483 14.0892C55.9229 14.6528 55.7779 15.2856 55.389 15.6679C54.954 16.093 54.252 16.1589 53.7906 15.8195C53.55 15.6415 53.3886 15.3449 53.3655 15.0252C53.3424 14.7253 53.438 14.4419 53.6258 14.2507C53.6819 14.1947 53.7676 14.1947 53.8236 14.2474C53.8796 14.3002 53.8796 14.3891 53.8236 14.4452C53.6918 14.5803 53.6225 14.7846 53.6423 15.0021C53.6621 15.2427 53.7774 15.4635 53.9554 15.5921C54.3048 15.8491 54.8617 15.7898 55.1946 15.4668C55.511 15.157 55.6263 14.6363 55.4813 14.1716C55.366 13.7992 55.0792 13.4795 54.6903 13.2884C54.3014 13.1005 53.873 13.0709 53.5072 13.2093C52.9107 13.4367 52.4592 14.0695 52.3504 14.8275C52.2417 15.5986 52.4658 16.3665 52.6734 16.9499C53.2106 18.4593 54.0741 19.8731 55.1748 21.0365C55.2177 21.0826 55.2242 21.1486 55.1946 21.2046C55.1649 21.2573 55.099 21.2837 55.0397 21.2705C54.6113 21.1683 54.1795 21.0035 53.7082 20.763C54.2883 21.4946 54.7892 22.2987 55.132 22.9051C55.7219 23.94 56.0416 24.9781 56.0778 25.9866C56.1009 26.6391 55.9987 27.2126 55.7713 27.6839C55.4945 28.2606 55.0265 28.689 54.486 28.8571C54.3179 28.9 54.14 28.9263 53.9554 28.9263Z" fill="#F1DFC1"/>
<path d="M54.266 28.4686C53.6431 28.4686 52.9905 28.1687 52.5522 27.6512C52.1304 27.1536 51.9326 26.5208 52.0018 25.921C52.0249 25.7167 52.0842 25.5156 52.1732 25.3245C52.2062 25.2553 52.2886 25.2256 52.3611 25.2586C52.4303 25.2915 52.4599 25.3739 52.427 25.4464C52.3512 25.6112 52.3018 25.7826 52.282 25.9573C52.2194 26.4747 52.4039 27.0415 52.7664 27.4733C53.2608 28.0599 54.0649 28.3268 54.7175 28.1258C55.024 28.0302 55.3008 27.8325 55.5414 27.5425C55.5908 27.4832 55.6798 27.4733 55.7391 27.5227C55.7985 27.5721 55.8083 27.6611 55.7589 27.7204C55.482 28.0566 55.1624 28.284 54.7999 28.3961C54.6285 28.4422 54.4505 28.4686 54.266 28.4686Z" fill="#F1DFC1"/>
<path d="M52.1963 15.6352C52.1897 15.6352 52.1831 15.6352 52.1765 15.6352C52.1007 15.6253 52.0479 15.5528 52.0578 15.477C52.16 14.7619 52.6247 13.8589 53.4124 13.5589C53.9034 13.3711 54.5065 13.4337 54.991 13.7171C55.4359 13.9775 55.7226 14.3895 55.7919 14.8772C55.8017 14.953 55.749 15.0255 55.6732 15.0354C55.5974 15.0453 55.5249 14.9926 55.515 14.9168C55.4557 14.5147 55.2184 14.1752 54.8493 13.9577C54.4373 13.7171 53.9232 13.6644 53.5112 13.8193C52.8323 14.0797 52.4237 14.8805 52.3347 15.5166C52.3248 15.5825 52.2655 15.6352 52.1963 15.6352Z" fill="#F1DFC1"/>
<path d="M55.9464 29.7836C55.8673 29.7836 55.8047 29.721 55.8047 29.6419V17.8302C55.8047 17.7511 55.8673 17.6885 55.9464 17.6885C56.0255 17.6885 56.0881 17.7511 56.0881 17.8302V29.6419C56.0848 29.721 56.0222 29.7836 55.9464 29.7836Z" fill="#F1DFC1"/>
<path d="M53.5544 27.1137C53.2018 27.1137 52.915 26.827 52.915 26.4743C52.915 26.1217 53.2018 25.835 53.5544 25.835C53.907 25.835 54.1937 26.1217 54.1937 26.4743C54.1937 26.827 53.907 27.1137 53.5544 27.1137Z" fill="#F1DFC1"/>
<path d="M55.446 18.4691C55.7991 18.4691 56.0854 18.1829 56.0854 17.8298C56.0854 17.4767 55.7991 17.1904 55.446 17.1904C55.0929 17.1904 54.8066 17.4767 54.8066 17.8298C54.8066 18.1829 55.0929 18.4691 55.446 18.4691Z" fill="#F1DFC1"/>
<path d="M54.0739 15.3417C54.427 15.3417 54.7133 15.0555 54.7133 14.7023C54.7133 14.3492 54.427 14.063 54.0739 14.063C53.7208 14.063 53.4346 14.3492 53.4346 14.7023C53.4346 15.0555 53.7208 15.3417 54.0739 15.3417Z" fill="#F1DFC1"/>
<path d="M53.9942 53.1361C53.7932 53.1361 53.5955 53.0998 53.4142 53.0306C52.7254 52.7669 52.2014 52.0452 52.0794 51.1916C51.9608 50.3611 52.1981 49.5504 52.4156 48.9374C52.91 47.5499 53.6746 46.2415 54.6402 45.1243C54.1821 45.2858 53.7009 45.5231 53.1604 45.8559C53.1011 45.8922 53.022 45.879 52.9792 45.8263C52.933 45.7735 52.9363 45.6944 52.9858 45.6417C53.7734 44.8013 54.4589 43.7071 54.8972 42.9393C55.4641 41.944 55.7706 40.9487 55.8068 39.9863C55.8299 39.3799 55.7344 38.8526 55.53 38.4209C55.2861 37.9134 54.8808 37.541 54.4128 37.3959C53.7602 37.1916 52.9594 37.4619 52.4618 38.0485C52.0959 38.4802 51.9147 39.0471 51.9773 39.5645C52.0432 40.1149 52.3893 40.6092 52.8572 40.83C53.345 41.0574 53.9646 40.9586 54.3238 40.596C54.6995 40.2203 54.7588 39.5843 54.4556 39.1756C54.2249 38.8625 53.7998 38.734 53.49 38.8823C53.3318 38.9581 53.2132 39.1229 53.1769 39.3173C53.1472 39.4821 53.1868 39.6337 53.2824 39.7359C53.3351 39.7919 53.3351 39.8809 53.2791 39.9336C53.223 39.9863 53.1341 39.9863 53.0813 39.9303C52.9199 39.7622 52.8539 39.5217 52.9001 39.2679C52.9495 38.9878 53.1308 38.7439 53.3681 38.6285C53.7932 38.4242 54.37 38.5923 54.6798 39.0108C55.062 39.5249 54.9895 40.3258 54.5215 40.7971C54.0799 41.2387 53.3318 41.3606 52.7386 41.0871C52.1816 40.83 51.773 40.2467 51.6972 39.6007C51.6247 39.0009 51.8257 38.3682 52.2475 37.8705C52.8144 37.1982 53.7372 36.895 54.4952 37.1323C55.0357 37.3004 55.5037 37.7288 55.7805 38.3055C56.0079 38.7801 56.11 39.3503 56.087 40.0028C56.0507 41.0113 55.731 42.0494 55.1411 43.0843C54.7951 43.6907 54.2974 44.4948 53.7174 45.2265C54.1887 44.9859 54.6204 44.8211 55.0489 44.7189C55.1082 44.7024 55.1708 44.7321 55.2038 44.7848C55.2367 44.8376 55.2268 44.9068 55.184 44.9529C54.0832 46.1163 53.2198 47.5301 52.6826 49.0395C52.4749 49.6229 52.2508 50.3908 52.3596 51.162C52.4651 51.9167 52.9199 52.5527 53.5164 52.7801C53.8789 52.9185 54.3106 52.8889 54.6995 52.701C55.0884 52.5132 55.3751 52.1902 55.4905 51.8178C55.6355 51.3531 55.5201 50.8324 55.2038 50.5226C54.8709 50.1963 54.3172 50.1403 53.9646 50.3974C53.7899 50.5259 53.6713 50.7467 53.6515 50.9873C53.635 51.2048 53.7009 51.4091 53.8327 51.5442C53.8855 51.6003 53.8855 51.6893 53.8327 51.742C53.7767 51.7947 53.6877 51.7947 53.635 51.7387C53.4439 51.5442 53.3483 51.2608 53.3747 50.9609C53.401 50.6412 53.5592 50.3446 53.7998 50.1667C54.2612 49.8272 54.9665 49.8931 55.3982 50.3183C55.7871 50.7006 55.9321 51.3333 55.7574 51.8969C55.619 52.3418 55.2795 52.7241 54.8214 52.9482C54.5545 53.0701 54.2711 53.1361 53.9942 53.1361Z" fill="#F1DFC1"/>
<path d="M52.303 40.7315C52.2503 40.7315 52.2009 40.7019 52.1778 40.6524C52.0888 40.4613 52.0295 40.2603 52.0064 40.0559C51.9372 39.4627 52.1415 38.8168 52.5568 38.3257C53.1237 37.6567 54.0465 37.3502 54.8045 37.5875C55.1637 37.6995 55.4866 37.9269 55.7635 38.2631C55.8129 38.3224 55.803 38.4114 55.7437 38.4608C55.6844 38.5103 55.5954 38.5004 55.546 38.441C55.3054 38.1477 55.0286 37.9533 54.7221 37.8577C54.0695 37.6534 53.2687 37.9236 52.771 38.5103C52.4052 38.942 52.2239 39.5088 52.2866 40.0263C52.3063 40.2009 52.3558 40.3723 52.4349 40.5371C52.4678 40.6063 52.4382 40.692 52.3689 40.7249C52.3426 40.7282 52.3228 40.7315 52.303 40.7315Z" fill="#F1DFC1"/>
<path d="M54.0155 52.5235C53.8079 52.5235 53.6002 52.4872 53.4124 52.418C52.6247 52.1181 52.16 51.2151 52.0578 50.5C52.0479 50.4242 52.1007 50.3517 52.1765 50.3418C52.2523 50.3286 52.3248 50.3846 52.3347 50.4604C52.4237 51.0965 52.8323 51.8973 53.5112 52.1577C53.9232 52.3159 54.434 52.2631 54.8493 52.0193C55.2184 51.8018 55.4557 51.4623 55.515 51.0602C55.5249 50.9844 55.5974 50.9284 55.6732 50.9416C55.749 50.9515 55.8017 51.024 55.7919 51.0998C55.7193 51.5875 55.4359 51.9995 54.991 52.2598C54.6944 52.4345 54.3483 52.5235 54.0155 52.5235Z" fill="#F1DFC1"/>
<path d="M55.9464 48.2821C55.8673 48.2821 55.8047 48.2195 55.8047 48.1404V36.3287C55.8047 36.2496 55.8673 36.187 55.9464 36.187C56.0255 36.187 56.0881 36.2496 56.0881 36.3287V48.1404C56.0848 48.2195 56.0222 48.2821 55.9464 48.2821Z" fill="#F1DFC1"/>
<path d="M53.5544 38.8599C53.2018 38.8599 52.915 39.1466 52.915 39.4992C52.915 39.8519 53.2018 40.1386 53.5544 40.1386C53.907 40.1386 54.1937 39.8519 54.1937 39.4992C54.1937 39.1466 53.907 38.8599 53.5544 38.8599Z" fill="#F1DFC1"/>
<path d="M55.446 48.7831C55.7991 48.7831 56.0854 48.4969 56.0854 48.1438C56.0854 47.7906 55.7991 47.5044 55.446 47.5044C55.0929 47.5044 54.8066 47.7906 54.8066 48.1438C54.8066 48.4969 55.0929 48.7831 55.446 48.7831Z" fill="#F1DFC1"/>
<path d="M54.0739 51.9106C54.427 51.9106 54.7133 51.6243 54.7133 51.2712C54.7133 50.9181 54.427 50.6318 54.0739 50.6318C53.7208 50.6318 53.4346 50.9181 53.4346 51.2712C53.4346 51.6243 53.7208 51.9106 54.0739 51.9106Z" fill="#F1DFC1"/>
<path d="M11.9687 28.9264C11.7842 28.9264 11.6062 28.9001 11.4348 28.8473C10.8943 28.6793 10.4264 28.2508 10.1495 27.6741C9.92212 27.1995 9.81996 26.6293 9.84303 25.9768C9.87928 24.9683 10.199 23.9302 10.7889 22.8954C11.1349 22.289 11.6326 21.4848 12.2126 20.7532C11.7446 20.9938 11.3096 21.1585 10.8812 21.2607C10.8218 21.2739 10.7592 21.2475 10.7263 21.1948C10.6966 21.1421 10.7032 21.0728 10.746 21.0267C11.8468 19.8633 12.7102 18.4495 13.2474 16.9401C13.4551 16.3567 13.6792 15.5889 13.5704 14.8177C13.4617 14.063 13.0102 13.4269 12.4136 13.1995C12.0511 13.0611 11.6194 13.0907 11.2305 13.2786C10.8416 13.4664 10.5549 13.7894 10.4395 14.1618C10.2945 14.6265 10.4132 15.1472 10.7296 15.457C11.0624 15.7833 11.6161 15.8393 11.9687 15.5823C12.1467 15.4537 12.262 15.2329 12.2818 14.9923C12.2983 14.7748 12.2324 14.5705 12.1006 14.4354C12.0478 14.3793 12.0478 14.2904 12.1006 14.2376C12.1566 14.1849 12.2456 14.1849 12.2983 14.2409C12.4894 14.4354 12.585 14.7188 12.5587 15.0154C12.5323 15.3351 12.3741 15.6317 12.1302 15.8097C11.6688 16.1491 10.9635 16.0799 10.5318 15.6581C10.1429 15.2758 9.99793 14.643 10.1726 14.0794C10.311 13.6345 10.6505 13.2522 11.1086 13.0281C11.5667 12.804 12.0775 12.7711 12.5125 12.9391C13.2013 13.2028 13.7253 13.9245 13.8473 14.7781C13.9659 15.6086 13.7286 16.4194 13.5111 17.0324C13.0201 18.4198 12.2555 19.7282 11.2865 20.8454C11.7446 20.684 12.2258 20.4467 12.7663 20.1138C12.8256 20.0776 12.9047 20.0907 12.9475 20.1435C12.9937 20.1962 12.9904 20.2753 12.9409 20.328C12.1533 21.1684 11.4678 22.2626 11.0295 23.0305C10.4626 24.0258 10.1561 25.0211 10.1199 25.9834C10.0968 26.5898 10.1924 27.1171 10.3967 27.5488C10.6406 28.0564 11.046 28.4288 11.5139 28.5738C12.1665 28.7781 12.9673 28.5079 13.465 27.9212C13.8308 27.4895 14.012 26.9227 13.9494 26.4052C13.8835 25.8549 13.5375 25.3605 13.0695 25.1397C12.5784 24.9123 11.9621 25.0112 11.6029 25.3737C11.2272 25.7494 11.1712 26.3855 11.4711 26.7941C11.7051 27.1072 12.1269 27.2357 12.4367 27.0874C12.5949 27.0116 12.7136 26.8469 12.7498 26.6524C12.7795 26.4876 12.7399 26.336 12.6443 26.2339C12.5916 26.1778 12.5916 26.0889 12.6476 26.0361C12.7037 25.9834 12.7926 25.9834 12.8454 26.0394C13.0069 26.2075 13.0728 26.4481 13.0266 26.7018C12.9772 26.982 12.7959 27.2259 12.5587 27.3412C12.1335 27.5455 11.5568 27.3775 11.247 26.9589C10.8647 26.4448 10.9372 25.6439 11.4052 25.1727C11.8468 24.731 12.5949 24.6091 13.1881 24.8826C13.7451 25.1397 14.1538 25.723 14.2296 26.369C14.3021 26.9721 14.101 27.6016 13.6792 28.0992C13.2409 28.6265 12.5916 28.9264 11.9687 28.9264Z" fill="#F1DFC1"/>
<path d="M11.6603 28.4683C11.4791 28.4683 11.2978 28.442 11.1264 28.3892C10.7639 28.2772 10.4442 28.0498 10.1674 27.7136C10.118 27.6543 10.1278 27.5653 10.1872 27.5159C10.2465 27.4664 10.3355 27.4763 10.3849 27.5356C10.6255 27.829 10.9023 28.0234 11.2088 28.119C11.8614 28.3233 12.6622 28.0564 13.1599 27.4664C13.5257 27.0347 13.7069 26.4678 13.6443 25.9504C13.6245 25.7758 13.5751 25.6044 13.496 25.4396C13.4631 25.3704 13.4927 25.2847 13.5652 25.2517C13.6344 25.2188 13.7201 25.2484 13.7531 25.3177C13.8421 25.5088 13.9014 25.7098 13.9245 25.9142C13.997 26.514 13.7959 27.1468 13.3741 27.6444C12.9325 28.1684 12.2832 28.4683 11.6603 28.4683Z" fill="#F1DFC1"/>
<path d="M13.7257 15.6346C13.6565 15.6346 13.5971 15.5852 13.5873 15.5127C13.4983 14.8766 13.0896 14.0758 12.4107 13.8154C11.9987 13.6605 11.4879 13.7132 11.0727 13.9538C10.7035 14.1713 10.4662 14.5108 10.4069 14.9129C10.397 14.9887 10.3245 15.0414 10.2487 15.0315C10.1729 15.0216 10.1202 14.9491 10.1301 14.8733C10.2026 14.3855 10.486 13.9736 10.9309 13.7132C11.4154 13.4298 12.0185 13.3672 12.5096 13.555C13.2972 13.8549 13.7619 14.758 13.8641 15.4731C13.874 15.5489 13.8212 15.6214 13.7454 15.6313C13.7388 15.6346 13.7323 15.6346 13.7257 15.6346Z" fill="#F1DFC1"/>
<path d="M9.9796 29.7831C9.90051 29.7831 9.83789 29.7205 9.83789 29.6414V17.8297C9.83789 17.7506 9.90051 17.688 9.9796 17.688C10.0587 17.688 10.1213 17.7506 10.1213 17.8297V29.6414C10.118 29.7205 10.0554 29.7831 9.9796 29.7831Z" fill="#F1DFC1"/>
<path d="M12.3728 27.1137C12.7259 27.1137 13.0121 26.8274 13.0121 26.4743C13.0121 26.1212 12.7259 25.835 12.3728 25.835C12.0197 25.835 11.7334 26.1212 11.7334 26.4743C11.7334 26.8274 12.0197 27.1137 12.3728 27.1137Z" fill="#F1DFC1"/>
<path d="M10.4792 18.4691C10.8323 18.4691 11.1186 18.1829 11.1186 17.8298C11.1186 17.4767 10.8323 17.1904 10.4792 17.1904C10.1261 17.1904 9.83984 17.4767 9.83984 17.8298C9.83984 18.1829 10.1261 18.4691 10.4792 18.4691Z" fill="#F1DFC1"/>
<path d="M11.8532 15.3417C12.2063 15.3417 12.4926 15.0555 12.4926 14.7023C12.4926 14.3492 12.2063 14.063 11.8532 14.063C11.5001 14.063 11.2139 14.3492 11.2139 14.7023C11.2139 15.0555 11.5001 15.3417 11.8532 15.3417Z" fill="#F1DFC1"/>
<path d="M11.9305 53.1364C11.6537 53.1364 11.3703 53.0705 11.1066 52.942C10.6485 52.7178 10.3091 52.3356 10.1706 51.8906C9.99597 51.3271 10.141 50.6943 10.5299 50.312C10.9649 49.8869 11.6669 49.821 12.1283 50.1604C12.3689 50.3384 12.5303 50.635 12.5567 50.9547C12.5798 51.2546 12.4842 51.538 12.2964 51.7324C12.2436 51.7885 12.1546 51.7885 12.0986 51.7357C12.0426 51.683 12.0426 51.594 12.0986 51.538C12.2304 51.4029 12.2996 51.1985 12.2799 50.981C12.2601 50.7404 12.1448 50.5196 11.9668 50.3911C11.6174 50.134 11.0605 50.1934 10.7276 50.5163C10.4112 50.8261 10.2959 51.3468 10.4376 51.8115C10.5529 52.1839 10.8397 52.5036 11.2285 52.6948C11.6174 52.8826 12.0492 52.9123 12.4117 52.7739C13.0082 52.5465 13.4597 51.9137 13.5685 51.1557C13.6772 50.3845 13.4531 49.6166 13.2455 49.0333C12.7083 47.5239 11.8448 46.11 10.7441 44.9467C10.7012 44.9005 10.6947 44.8346 10.7243 44.7786C10.754 44.7259 10.8199 44.6962 10.8792 44.7127C11.3076 44.8148 11.7394 44.9796 12.2107 45.2202C11.6306 44.4886 11.133 43.6844 10.7869 43.078C10.197 42.0432 9.87733 41.005 9.84108 39.9966C9.81801 39.344 9.92017 38.7706 10.1476 38.2993C10.4244 37.7226 10.8924 37.2941 11.4329 37.126C12.1876 36.8887 13.1137 37.1952 13.6805 37.8643C14.1024 38.3619 14.3001 38.9947 14.2309 39.5945C14.1551 40.2404 13.7464 40.8238 13.1895 41.0808C12.5962 41.3544 11.8481 41.2324 11.4065 40.7908C10.9385 40.3195 10.866 39.5187 11.2483 39.0046C11.5581 38.5893 12.1349 38.4212 12.56 38.6223C12.7973 38.7343 12.9753 38.9815 13.028 39.2616C13.0741 39.5154 13.0082 39.756 12.8467 39.9241C12.794 39.9801 12.705 39.9801 12.649 39.9274C12.593 39.8746 12.593 39.7856 12.6457 39.7296C12.7446 39.6274 12.7808 39.4759 12.7512 39.3111C12.7149 39.1166 12.5963 38.9518 12.4381 38.876C12.1283 38.7277 11.7031 38.8596 11.4724 39.1727C11.1692 39.578 11.2285 40.2174 11.6043 40.5931C11.9635 40.9556 12.5798 41.0545 13.0708 40.8271C13.5421 40.6096 13.8881 40.1119 13.9508 39.5615C14.0101 39.0441 13.8288 38.4773 13.4663 38.0455C12.972 37.4589 12.1678 37.192 11.5153 37.393C11.0506 37.538 10.6419 37.9104 10.398 38.4179C10.1904 38.8497 10.0981 39.377 10.1212 39.9834C10.1575 40.9457 10.464 41.941 11.0308 42.9363C11.4691 43.7042 12.1546 44.7984 12.9423 45.6388C12.9917 45.6915 12.9917 45.7706 12.9489 45.8233C12.906 45.876 12.827 45.8892 12.7676 45.853C12.2271 45.5201 11.746 45.2828 11.2879 45.1213C12.2535 46.2386 13.0181 47.5469 13.5125 48.9344C13.73 49.5474 13.9672 50.3581 13.8486 51.1887C13.7267 52.0455 13.2027 52.7673 12.5139 53.0276C12.3293 53.1001 12.1316 53.1364 11.9305 53.1364Z" fill="#F1DFC1"/>
<path d="M13.6245 40.7313C13.6048 40.7313 13.585 40.728 13.5652 40.7181C13.496 40.6851 13.4664 40.6028 13.496 40.5303C13.5718 40.3655 13.6213 40.1941 13.6443 40.0194C13.7069 39.502 13.5224 38.9351 13.1599 38.5034C12.6655 37.9168 11.8614 37.6498 11.2088 37.8509C10.9023 37.9464 10.6222 38.1442 10.3849 38.4342C10.3355 38.4935 10.2465 38.5034 10.1872 38.454C10.1278 38.4045 10.118 38.3156 10.1674 38.2562C10.4409 37.9201 10.7639 37.6927 11.1264 37.5806C11.8844 37.3433 12.8072 37.6498 13.3741 38.3189C13.7893 38.8099 13.9937 39.4559 13.9245 40.0491C13.9014 40.2534 13.8421 40.4544 13.7531 40.6456C13.7267 40.7016 13.6773 40.7313 13.6245 40.7313Z" fill="#F1DFC1"/>
<path d="M11.9094 52.5233C11.5732 52.5233 11.2305 52.4343 10.9339 52.2596C10.489 51.9992 10.2022 51.5873 10.133 51.0995C10.1231 51.0237 10.1759 50.9512 10.2517 50.9413C10.3275 50.9281 10.4 50.9842 10.4099 51.06C10.4692 51.462 10.7065 51.8015 11.0756 52.019C11.4875 52.2596 12.0017 52.3123 12.4136 52.1574C13.0925 51.8971 13.5012 51.0962 13.5902 50.4602C13.6001 50.3844 13.6759 50.3316 13.7484 50.3415C13.8242 50.3514 13.8769 50.4239 13.867 50.4997C13.7648 51.2149 13.3002 52.1179 12.5125 52.4178C12.3213 52.4903 12.117 52.5233 11.9094 52.5233Z" fill="#F1DFC1"/>
<path d="M9.9796 48.2816C9.90051 48.2816 9.83789 48.219 9.83789 48.1399V36.3282C9.83789 36.2491 9.90051 36.1865 9.9796 36.1865C10.0587 36.1865 10.1213 36.2491 10.1213 36.3282V48.1399C10.118 48.219 10.0554 48.2816 9.9796 48.2816Z" fill="#F1DFC1"/>
<path d="M12.3728 40.1381C12.7259 40.1381 13.0121 39.8518 13.0121 39.4987C13.0121 39.1456 12.7259 38.8594 12.3728 38.8594C12.0197 38.8594 11.7334 39.1456 11.7334 39.4987C11.7334 39.8518 12.0197 40.1381 12.3728 40.1381Z" fill="#F1DFC1"/>
<path d="M10.4792 48.7826C10.8323 48.7826 11.1186 48.4964 11.1186 48.1433C11.1186 47.7902 10.8323 47.5039 10.4792 47.5039C10.1261 47.5039 9.83984 47.7902 9.83984 48.1433C9.83984 48.4964 10.1261 48.7826 10.4792 48.7826Z" fill="#F1DFC1"/>
<path d="M11.8532 51.9101C12.2063 51.9101 12.4926 51.6238 12.4926 51.2707C12.4926 50.9176 12.2063 50.6313 11.8532 50.6313C11.5001 50.6313 11.2139 50.9176 11.2139 51.2707C11.2139 51.6238 11.5001 51.9101 11.8532 51.9101Z" fill="#F1DFC1"/>
<path d="M56.6224 56.7881H9.29991C9.22082 56.7881 9.1582 56.7254 9.1582 56.6464V9.32384C9.1582 9.24475 9.22082 9.18213 9.29991 9.18213H56.6224C56.7015 9.18213 56.7641 9.24475 56.7641 9.32384V56.6464C56.7641 56.7254 56.7015 56.7881 56.6224 56.7881ZM9.43833 56.5079H56.4807V9.46556H9.43833V56.5079Z" fill="#F1DFC1"/>
<path d="M32.9411 32.9572C32.9411 32.9703 32.9379 32.9802 32.9346 32.9901C32.9543 33.0033 32.9741 33.0165 32.9939 33.0297C32.9774 33.0033 32.9609 32.9769 32.9477 32.9473C32.9445 32.9506 32.9411 32.9539 32.9411 32.9572Z" fill="#EAA49B"/>
<path fill-rule="evenodd" clip-rule="evenodd" d="M32.9535 32.9146C32.9642 32.9166 32.9732 32.9237 32.9776 32.9336C32.9897 32.9608 33.0049 32.9853 33.0216 33.0119C33.0298 33.0251 33.0277 33.0422 33.0166 33.0531C33.0055 33.0639 32.9883 33.0654 32.9754 33.0568L32.916 33.0173C32.9037 33.009 32.8984 32.9935 32.9031 32.9794C32.9063 32.9696 32.9079 32.9642 32.9079 32.9569C32.9079 32.9445 32.914 32.9357 32.9166 32.9322C32.9193 32.9286 32.9225 32.9254 32.9239 32.924C32.924 32.9239 32.9241 32.9238 32.9242 32.9237C32.9319 32.916 32.9428 32.9126 32.9535 32.9146Z" fill="#EAA49B"/>
<path d="M25.9746 29.8231C26.291 33.2242 28.9967 35.93 32.3979 36.2464V34.7831C31.7223 34.704 31.0862 34.5062 30.5062 34.2096L32.0617 33.7911L32.7274 31.3094L30.9082 29.4902L28.4266 30.156L28.008 31.7115C27.7147 31.1315 27.517 30.4921 27.4346 29.8198H25.9746V29.8231Z" fill="#E9A39B"/>
<path d="M27.7731 34.4435C27.0151 33.6855 25.7826 33.6855 25.0246 34.4435C24.2666 35.2015 24.2666 36.4341 25.0246 37.1921C25.7826 37.9501 27.0151 37.9501 27.7731 37.1921C28.5344 36.4341 28.5344 35.2048 27.7731 34.4435Z" fill="#E9A39B"/>
<path d="M38.6003 37.1955C39.3583 37.9535 40.5908 37.9535 41.3488 37.1955C42.1069 36.4375 42.1069 35.2049 41.3488 34.4469C40.5908 33.6889 39.3583 33.6889 38.6003 34.4469C37.839 35.2049 37.839 36.4342 38.6003 37.1955Z" fill="#E9A39B"/>
<path d="M34.3142 33.7945L35.7082 34.1669C35.1051 34.4866 34.4394 34.7008 33.7308 34.7832V36.2465C37.132 35.9301 39.8377 33.2243 40.1541 29.8232H38.6908C38.6282 30.3703 38.4832 30.891 38.2755 31.3788L37.9493 30.1594L35.4677 29.4937L33.6484 31.3129L34.3142 33.7945Z" fill="#E9A39B"/>
<path d="M33.7308 22.0615V23.5248C34.3109 23.594 34.8678 23.7489 35.382 23.9796L34.3142 24.2663L33.6484 26.748L35.4677 28.5672L37.9493 27.9014L38.236 26.8337C38.4667 27.3478 38.6249 27.9015 38.6908 28.4848H40.1541C39.8377 25.0837 37.132 22.3779 33.7308 22.0615Z" fill="#E9A39B"/>
<path d="M38.6003 23.614C39.3583 24.372 40.5908 24.372 41.3488 23.614C42.1069 22.856 42.1069 21.6234 41.3488 20.8654C40.5908 20.1074 39.3583 20.1074 38.6003 20.8654C37.839 21.6234 37.839 22.856 38.6003 23.614Z" fill="#E9A39B"/>
<path d="M27.4379 28.4848C27.5203 27.7762 27.7345 27.1105 28.0542 26.5074L28.4266 27.9014L30.9082 28.5672L32.7274 26.748L32.0617 24.2663L30.8423 23.9401C31.3301 23.7324 31.8508 23.5907 32.3979 23.5248V22.0615C28.9967 22.3779 26.291 25.0837 25.9746 28.4848H27.4379Z" fill="#E9A39B"/>
<path d="M25.0246 23.614C25.7826 24.372 27.0151 24.372 27.7731 23.614C28.5311 22.856 28.5311 21.6234 27.7731 20.8654C27.0151 20.1074 25.7826 20.1074 25.0246 20.8654C24.2666 21.6234 24.2666 22.856 25.0246 23.614Z" fill="#E9A39B"/>
<path d="M46.9053 43.9356C46.5494 43.9396 46.4268 43.6588 46.4268 43.4689C46.4268 42.7769 47.3285 41.8989 47.977 41.9028C48.1827 41.9028 48.2816 42.0057 48.2816 42.148C48.2816 42.4209 47.9929 42.6582 46.842 43.3819C46.8776 43.5678 47.016 43.6746 47.2138 43.6746C47.372 43.6746 47.5301 43.6271 47.7635 43.4254L47.7991 43.461C47.4669 43.7537 47.1109 43.9356 46.9053 43.9356ZM46.8341 43.3068V43.3226C47.6844 42.7887 47.8821 42.5475 47.8821 42.2904C47.8821 42.1678 47.803 42.0689 47.6488 42.0689C47.2296 42.0689 46.8143 42.7848 46.8341 43.3068Z" fill="#A98B83"/>
<path d="M43.9722 43.9078C43.9128 43.9078 43.8891 43.8643 43.9168 43.8129L44.8818 42.0333C45.2377 41.3768 46.1157 40.7163 46.9383 40.7163C47.1281 40.7163 47.2625 40.74 47.2625 40.8033C47.2625 40.914 47.0964 41.1118 46.8512 41.1118C46.6891 41.1118 46.5072 41.0564 46.1394 40.9576C45.8388 41.0881 45.6609 41.2937 45.3959 41.8039L44.7196 43.0971C44.9173 42.84 45.1151 42.6186 45.3049 42.4366C45.6529 42.1005 45.9693 41.8988 46.1631 41.8988C46.2897 41.8988 46.3727 42.0016 46.3727 42.1282C46.3767 42.4999 45.7162 43.3423 45.7162 43.5717C45.7162 43.6429 45.7518 43.6864 45.827 43.6864C45.9061 43.6864 46.0326 43.5994 46.1671 43.4728L46.2027 43.5124C45.8744 43.8169 45.6569 43.9395 45.5343 43.9395C45.3445 43.9395 45.2931 43.7892 45.2931 43.6903C45.2931 43.2474 45.9575 42.4999 45.9575 42.2429C45.9575 42.1796 45.9298 42.1321 45.8586 42.1321C45.736 42.1321 45.5659 42.2666 45.3405 42.4762C45.0874 42.7174 44.7908 43.0615 44.5575 43.4095L44.3281 43.8485C44.3083 43.8881 44.2806 43.9078 44.2371 43.9078H43.9722Z" fill="#A98B83"/>
<path d="M42.9769 43.9393C42.8108 43.9393 42.708 43.7811 42.708 43.615C42.708 43.4805 42.7752 43.2393 43.0718 42.7291L43.4831 42.0212H43.1865V41.9737L44.1515 41.4082L44.1911 41.4359L43.8984 41.9698H44.3928L44.3651 42.0252H43.8707L43.4041 42.8794C43.2973 43.0732 43.1509 43.3421 43.1509 43.5082C43.1509 43.6268 43.2103 43.6783 43.2854 43.6783C43.3645 43.6783 43.5108 43.5992 43.6453 43.4726L43.6809 43.5122C43.3526 43.8167 43.1233 43.9393 42.9769 43.9393Z" fill="#A98B83"/>
<path d="M39.4731 43.9078C39.4138 43.9078 39.3901 43.8643 39.4178 43.8129L40.3827 42.0333C40.7387 41.3768 41.6166 40.7163 42.4392 40.7163C42.6291 40.7163 42.7635 40.74 42.7635 40.8033C42.7635 40.914 42.5974 41.1118 42.3522 41.1118C42.1901 41.1118 42.0082 41.0564 41.6404 40.9576C41.3398 41.0881 41.1618 41.2937 40.8969 41.8039L40.2206 43.0971C40.4183 42.84 40.6161 42.6186 40.8059 42.4366C41.1539 42.1005 41.4703 41.8988 41.6641 41.8988C41.7906 41.8988 41.8737 42.0016 41.8737 42.1282C41.8776 42.4999 41.2172 43.3423 41.2172 43.5717C41.2172 43.6429 41.2528 43.6864 41.3279 43.6864C41.407 43.6864 41.5336 43.5994 41.668 43.4728L41.7036 43.5124C41.3754 43.8169 41.1579 43.9395 41.0353 43.9395C40.8454 43.9395 40.794 43.7892 40.794 43.6903C40.794 43.2474 41.4584 42.4999 41.4584 42.2429C41.4584 42.1796 41.4308 42.1321 41.3596 42.1321C41.237 42.1321 41.0669 42.2666 40.8415 42.4762C40.5884 42.7174 40.2918 43.0615 40.0584 43.4095L39.8291 43.8485C39.8093 43.8881 39.7816 43.9078 39.7381 43.9078H39.4731Z" fill="#A98B83"/>
<path d="M38.476 43.9393C38.3099 43.9393 38.207 43.7811 38.207 43.615C38.207 43.4805 38.2743 43.2393 38.5709 42.7291L38.9822 42.0212H38.6856V41.9737L39.6505 41.4082L39.6901 41.4359L39.3974 41.9698H39.8918L39.8641 42.0252H39.3697L38.9031 42.8794C38.7963 43.0732 38.65 43.3421 38.65 43.5082C38.65 43.6268 38.7093 43.6783 38.7844 43.6783C38.8635 43.6783 39.0099 43.5992 39.1443 43.4726L39.1799 43.5122C38.8517 43.8167 38.6223 43.9393 38.476 43.9393Z" fill="#A98B83"/>
<path d="M37.2665 43.9394C37.1004 43.9394 37.0332 43.7931 37.0332 43.6745C37.0332 43.279 37.753 42.4327 37.753 42.2191C37.753 42.1716 37.7372 42.1321 37.666 42.1321C37.5908 42.1321 37.4524 42.2151 37.2903 42.3654L37.2547 42.3259C37.5829 42.0214 37.8123 41.8988 37.9586 41.8988C38.1168 41.8988 38.1722 42.0095 38.1722 42.1044C38.1722 42.4682 37.4959 43.2513 37.4959 43.4965C37.4959 43.5835 37.5434 43.627 37.6264 43.627C37.6976 43.627 37.7846 43.5993 37.9191 43.4728L37.9547 43.5123C37.6264 43.8168 37.4129 43.9394 37.2665 43.9394ZM38.1089 41.6298L38.7812 40.9852C38.8366 40.9338 38.892 40.8784 38.9276 40.8784C38.9552 40.8784 38.9631 40.9061 38.9631 40.9417C38.9631 41.0287 38.9434 41.0524 38.8445 41.1276L38.1326 41.6615L38.1089 41.6298Z" fill="#A98B83"/>
<path d="M35.6902 43.9391C35.4094 43.9431 35.3066 43.7216 35.3066 43.508C35.3066 43.4448 35.3145 43.3815 35.3264 43.3143C35.0812 43.7374 34.7806 43.9352 34.5433 43.9391C34.2625 43.9431 34.1162 43.7572 34.1162 43.508C34.1162 43.0651 34.5987 42.5589 35.0258 42.2346C34.9072 42.2346 34.6541 42.2188 34.4642 42.2267C34.3258 42.2346 34.2823 42.2781 34.1914 42.3849L34.1558 42.3651C34.2981 42.1674 34.3812 42.0448 34.4761 41.9617C34.5354 41.9143 34.6145 41.9024 34.6778 41.9024C34.8043 41.9024 35.1168 41.9301 35.3659 41.9301L35.3778 41.9657C34.8043 42.4323 34.5117 43.0018 34.5117 43.4052C34.5117 43.5792 34.5868 43.7374 34.7806 43.7414C34.9665 43.7453 35.1682 43.5674 35.3897 43.0849C35.4925 42.7922 35.6625 42.5273 35.7258 42.4323C35.7851 42.3493 36.2241 42.195 36.1688 42.2781C35.8919 42.6934 35.7021 43.164 35.71 43.4289C35.714 43.5436 35.7377 43.7335 35.9591 43.7374C36.2162 43.7414 36.5445 43.2787 36.7185 42.9109C36.6868 42.4917 36.675 42.2821 36.6987 42.1515C36.7224 42.0092 36.8767 41.8984 37.0349 41.8984C37.106 41.8984 37.1337 41.9301 37.1337 41.9775C37.1337 42.1318 36.936 42.5747 36.8411 42.7804C36.588 43.3419 36.1529 43.9352 35.6902 43.9391Z" fill="#A98B83"/>
<path d="M31.2693 43.9075C31.2099 43.9075 31.1862 43.8679 31.2218 43.8086C31.4828 43.3657 32.0049 42.4205 32.0049 42.2306C32.0049 42.1674 31.9772 42.1318 31.906 42.1318C31.8308 42.1318 31.6924 42.2148 31.5303 42.3651L31.4947 42.3256C31.8229 42.021 32.0523 41.8984 32.1986 41.8984C32.3568 41.8984 32.4122 42.0092 32.4122 42.1041C32.4122 42.203 32.3489 42.3809 32.2619 42.5866C32.5427 42.1871 32.8551 41.8984 33.2388 41.8984C33.3258 41.8984 33.5116 41.9182 33.5116 41.9934C33.5116 42.0883 33.3732 42.2821 33.215 42.2821C33.0806 42.2821 32.9382 42.2544 32.693 42.1832C32.5071 42.3216 32.2738 42.6261 32.0602 43.0097C31.8783 43.3696 31.6766 43.7216 31.5896 43.8521C31.5659 43.8917 31.5382 43.9075 31.4947 43.9075H31.2693Z" fill="#A98B83"/>
<path d="M30.0889 43.9356C29.733 43.9396 29.6104 43.6588 29.6104 43.4689C29.6104 42.7769 30.512 41.8989 31.1606 41.9028C31.3663 41.9028 31.4652 42.0057 31.4652 42.148C31.4652 42.4209 31.1765 42.6582 30.0256 43.3819C30.0612 43.5678 30.1996 43.6746 30.3974 43.6746C30.5555 43.6746 30.7137 43.6271 30.9471 43.4254L30.9827 43.461C30.6505 43.7537 30.2945 43.9356 30.0889 43.9356ZM30.0177 43.3068V43.3226C30.868 42.7887 31.0657 42.5475 31.0657 42.2904C31.0657 42.1678 30.9866 42.0689 30.8324 42.0689C30.4132 42.0689 29.9979 42.7848 30.0177 43.3068Z" fill="#A98B83"/>
<path d="M27.1557 43.9078C27.0964 43.9078 27.0727 43.8643 27.1004 43.8129L28.0653 42.0333C28.4213 41.3768 29.2992 40.7163 30.1218 40.7163C30.3117 40.7163 30.4461 40.74 30.4461 40.8033C30.4461 40.914 30.28 41.1118 30.0348 41.1118C29.8727 41.1118 29.6908 41.0564 29.323 40.9576C29.0224 41.0881 28.8444 41.2937 28.5795 41.8039L27.9032 43.0971C28.1009 42.84 28.2987 42.6186 28.4885 42.4366C28.8365 42.1005 29.1529 41.8988 29.3467 41.8988C29.4733 41.8988 29.5563 42.0016 29.5563 42.1282C29.5603 42.4999 28.8998 43.3423 28.8998 43.5717C28.8998 43.6429 28.9354 43.6864 29.0105 43.6864C29.0896 43.6864 29.2162 43.5994 29.3507 43.4728L29.3863 43.5124C29.058 43.8169 28.8405 43.9395 28.7179 43.9395C28.5281 43.9395 28.4766 43.7892 28.4766 43.6903C28.4766 43.2474 29.1411 42.4999 29.1411 42.2429C29.1411 42.1796 29.1134 42.1321 29.0422 42.1321C28.9196 42.1321 28.7495 42.2666 28.5241 42.4762C28.271 42.7174 27.9744 43.0615 27.7411 43.4095L27.5117 43.8485C27.4919 43.8881 27.4642 43.9078 27.4207 43.9078H27.1557Z" fill="#A98B83"/>
<path d="M26.1605 43.9393C25.9944 43.9393 25.8916 43.7811 25.8916 43.615C25.8916 43.4805 25.9588 43.2393 26.2554 42.7291L26.6667 42.0212H26.3701V41.9737L27.3351 41.4082L27.3747 41.4359L27.082 41.9698H27.5763L27.5487 42.0252H27.0543L26.5876 42.8794C26.4809 43.0732 26.3345 43.3421 26.3345 43.5082C26.3345 43.6268 26.3939 43.6783 26.469 43.6783C26.5481 43.6783 26.6944 43.5992 26.8289 43.4726L26.8645 43.5122C26.5362 43.8167 26.3069 43.9393 26.1605 43.9393Z" fill="#A98B83"/>
<path d="M24.7129 43.9356C24.357 43.9396 24.2344 43.6588 24.2344 43.4689C24.2344 42.7769 25.1361 41.8989 25.7847 41.9028C25.9903 41.9028 26.0892 42.0057 26.0892 42.148C26.0892 42.4209 25.8005 42.6582 24.6496 43.3819C24.6852 43.5678 24.8236 43.6746 25.0214 43.6746C25.1796 43.6746 25.3378 43.6271 25.5711 43.4254L25.6067 43.461C25.2745 43.7537 24.9186 43.9356 24.7129 43.9356ZM24.6417 43.3068V43.3226C25.492 42.7887 25.6897 42.5475 25.6897 42.2904C25.6897 42.1678 25.6106 42.0689 25.4564 42.0689C25.0372 42.0689 24.6219 42.7848 24.6417 43.3068Z" fill="#A98B83"/>
<path d="M21.8298 45.0069C21.4541 45.003 21.3908 44.8329 21.4027 44.7103C21.4145 44.564 21.5767 44.3781 21.8377 44.2555L21.8654 44.2792C21.814 44.3504 21.7665 44.4374 21.7665 44.5442C21.7665 44.6945 21.8535 44.8448 22.1699 44.8448C22.34 44.8448 22.5258 44.7499 22.6089 44.6826C22.953 44.4058 23.1191 43.7176 23.6569 42.721L23.7281 42.5905C23.0914 43.3775 22.5575 43.951 22.2885 43.9391C22.1145 43.9312 22.0315 43.7849 22.0354 43.5753C22.0473 42.8278 22.8778 41.8984 23.6965 41.8984C23.8349 41.8984 24.1473 41.9261 24.3411 41.9854L24.3371 41.9894L24.345 41.9854L24.3609 41.9894C24.4123 42.0013 24.4202 42.0448 24.3965 42.0922L23.8428 43.1482C23.3722 44.0499 23.0044 44.4453 22.6445 44.7261C22.427 44.8962 22.1185 45.0069 21.8298 45.0069ZM22.4309 43.4645C22.4309 43.5397 22.4349 43.686 22.5456 43.686C22.7236 43.686 23.1863 43.1956 23.8784 42.3097L23.9417 42.195C23.74 42.1239 23.475 42.0606 23.3366 42.0606C22.7789 42.0606 22.4309 43.0691 22.4309 43.4645Z" fill="#A98B83"/>
<path d="M20.5163 43.9391C20.2276 43.9391 20.0615 43.7216 20.0615 43.4487C20.0615 42.7527 20.983 41.8984 21.5248 41.8984C21.8689 41.8984 21.9361 42.1832 21.9361 42.3532C21.9361 43.2273 20.9039 43.9391 20.5163 43.9391ZM20.457 43.2787C20.457 43.4764 20.5124 43.7453 20.8011 43.7453C21.2598 43.7453 21.5406 42.9306 21.5406 42.4996C21.5406 42.2227 21.4141 42.1001 21.2084 42.1001C20.7615 42.1001 20.457 42.7804 20.457 43.2787Z" fill="#A98B83"/>
<path d="M18.1783 43.908C18.1387 43.908 18.1348 43.8882 18.1348 43.8724C18.1348 43.8368 18.3483 43.647 18.4156 43.5995C18.55 43.4492 18.6054 43.3504 18.6687 43.2475C19.0167 42.6385 19.1709 42.1837 19.4873 41.6142C19.5862 41.4323 19.685 41.3057 19.9105 41.2029L20.1438 41.0961H18.8387C18.7003 41.0961 18.6489 41.1475 18.5579 41.2543L18.5223 41.2345C18.6647 41.0368 18.7596 40.8865 18.8545 40.8035C18.9139 40.756 18.993 40.7441 19.0523 40.7441H21.4963C21.5399 40.7441 21.5438 40.756 21.5438 40.7718C21.5438 40.8074 21.3302 41.021 21.2788 41.0684C21.2512 41.0922 21.2116 41.0961 21.1641 41.0961H20.2664C20.1082 41.2069 20.0291 41.3453 19.9461 41.4995C19.6336 42.0532 19.4992 42.4922 19.1591 43.0893C19.0562 43.2713 18.9534 43.382 18.7675 43.4809L18.55 43.5956L19.1709 43.5521C19.1828 43.5521 19.2144 43.5481 19.2144 43.5758C19.2144 43.6114 19.08 43.8328 19.0167 43.8803C18.989 43.904 18.9495 43.908 18.902 43.908H18.1783Z" fill="#A98B83"/>
<path d="M42.6277 48.6536C42.5683 48.6536 42.5446 48.614 42.5802 48.5547C42.8412 48.1118 43.3633 47.1666 43.3633 46.9767C43.3633 46.9135 43.3356 46.8779 43.2644 46.8779C43.1892 46.8779 43.0508 46.9609 42.8887 47.1112L42.8531 47.0716C43.1813 46.7671 43.4107 46.6445 43.557 46.6445C43.7152 46.6445 43.7706 46.7553 43.7706 46.8502C43.7706 47.0202 43.5808 47.4394 43.3791 47.831C43.5729 47.5818 43.7706 47.3643 43.9565 47.1824C44.3045 46.8462 44.6209 46.6445 44.8147 46.6445C44.9412 46.6445 45.0243 46.7474 45.0243 46.8739C45.0282 47.2457 44.3678 48.088 44.3678 48.3174C44.3678 48.3886 44.4034 48.4321 44.4785 48.4321C44.5576 48.4321 44.6842 48.3451 44.8186 48.2185L44.8542 48.2581C44.526 48.5626 44.3084 48.6852 44.1859 48.6852C43.996 48.6852 43.9446 48.5349 43.9446 48.4361C43.9446 47.9931 44.609 47.2457 44.609 46.9886C44.609 46.9253 44.5813 46.8779 44.5101 46.8779C44.3875 46.8779 44.2175 47.0123 43.9921 47.2219C43.735 47.4671 43.4384 47.8152 43.2011 48.1632C43.0943 48.3609 42.9994 48.5191 42.948 48.5982C42.9243 48.6378 42.8966 48.6536 42.8531 48.6536H42.6277Z" fill="#A98B83"/>
<path d="M41.2243 48.6852C40.9356 48.6852 40.7695 48.4677 40.7695 48.1948C40.7695 47.4988 41.691 46.6445 42.2328 46.6445C42.5769 46.6445 42.6441 46.9293 42.6441 47.0993C42.6441 47.9733 41.6119 48.6852 41.2243 48.6852ZM41.165 48.0248C41.165 48.2225 41.2204 48.4914 41.5091 48.4914C41.9678 48.4914 42.2486 47.6767 42.2486 47.2457C42.2486 46.9688 42.1221 46.8462 41.9164 46.8462C41.4695 46.8462 41.165 47.5265 41.165 48.0248Z" fill="#A98B83"/>
<path d="M39.8085 48.685C39.6424 48.685 39.5752 48.5387 39.5752 48.4201C39.5752 48.0246 40.295 47.1783 40.295 46.9647C40.295 46.9172 40.2792 46.8777 40.208 46.8777C40.1328 46.8777 39.9944 46.9607 39.8323 47.111L39.7967 47.0715C40.1249 46.767 40.3543 46.6444 40.5006 46.6444C40.6588 46.6444 40.7142 46.7551 40.7142 46.85C40.7142 47.2139 40.0379 47.9969 40.0379 48.2421C40.0379 48.3291 40.0854 48.3726 40.1684 48.3726C40.2396 48.3726 40.3266 48.3449 40.4611 48.2184L40.4967 48.2579C40.1684 48.5624 39.9549 48.685 39.8085 48.685ZM40.6509 46.3754L41.3232 45.7308C41.3786 45.6794 41.434 45.624 41.4695 45.624C41.4972 45.624 41.5051 45.6517 41.5051 45.6873C41.5051 45.7743 41.4854 45.798 41.3865 45.8732L40.6746 46.4071L40.6509 46.3754Z" fill="#A98B83"/>
<path d="M38.4642 48.6849C38.2981 48.6849 38.1953 48.5267 38.1953 48.3606C38.1953 48.2261 38.2625 47.9849 38.5592 47.4747L38.9705 46.7668H38.6738V46.7193L39.6388 46.1538L39.6784 46.1815L39.3857 46.7154H39.8801L39.8524 46.7708H39.358L38.8914 47.625C38.7846 47.8188 38.6382 48.0877 38.6382 48.2538C38.6382 48.3725 38.6976 48.4239 38.7727 48.4239C38.8518 48.4239 38.9981 48.3448 39.1326 48.2182L39.1682 48.2578C38.8399 48.5623 38.6106 48.6849 38.4642 48.6849Z" fill="#A98B83"/>
<path d="M37.3094 48.6852C37.1196 48.6852 37.0682 48.5349 37.0682 48.4361C37.0682 48.1592 37.2501 47.7914 37.4439 47.4592C36.8467 48.1829 36.3286 48.6971 36.0755 48.6852C35.9015 48.6773 35.8184 48.531 35.8224 48.3214C35.8343 47.5739 36.6648 46.6445 37.4834 46.6445C37.6218 46.6445 37.9026 46.6722 38.0964 46.7315L38.1636 46.7513C38.219 46.7671 38.2348 46.8027 38.2032 46.8502C38.0648 47.0558 37.8591 47.388 37.7207 47.657C37.5902 47.9219 37.4913 48.1315 37.4913 48.3174C37.4913 48.3886 37.523 48.4321 37.5942 48.4321C37.6772 48.4321 37.8077 48.3451 37.9422 48.2185L37.9778 48.2581C37.6495 48.5626 37.432 48.6852 37.3094 48.6852ZM36.2179 48.2106C36.2179 48.2858 36.2218 48.4321 36.3326 48.4321C36.5105 48.4321 37.0088 47.9378 37.7049 47.044L37.7563 46.9649C37.5586 46.8858 37.2778 46.8067 37.1235 46.8067C36.5659 46.8067 36.2179 47.8152 36.2179 48.2106Z" fill="#A98B83"/>
<path d="M34.8593 48.6812C34.6497 48.6812 34.4836 48.4796 34.1277 48.4796C34.013 48.4796 33.9023 48.4796 33.7283 48.5903C33.6215 48.6575 33.6096 48.705 33.5622 48.705C33.5345 48.705 33.5107 48.6852 33.5107 48.6615C33.5107 48.5745 33.6096 48.5824 34.1277 48.2067C34.3729 48.0287 34.6062 47.831 34.8356 47.6372C35.0531 47.4553 35.2944 47.2536 35.4763 47.0637C35.239 46.9846 34.9424 46.9451 34.7684 46.9451C34.5667 46.9451 34.3927 47.0361 34.2226 47.2298L34.187 47.1982C34.4401 46.9174 34.717 46.6445 35.0333 46.6485C35.326 46.6524 35.5593 46.6999 35.8639 46.8304L36.0655 46.6722L36.1011 46.7078C35.7136 47.0281 35.2627 47.3445 34.8752 47.6728C34.6616 47.8547 34.4559 48.0445 34.2582 48.2225C34.3254 48.1948 34.3848 48.179 34.4559 48.179C34.7011 48.179 34.891 48.3807 35.1045 48.3807C35.2034 48.3807 35.3181 48.3609 35.4684 48.1829L35.5079 48.2146C35.2311 48.531 35.0254 48.6812 34.8593 48.6812Z" fill="#A98B83"/>
<path d="M32.9413 48.685C32.7752 48.685 32.708 48.5387 32.708 48.4201C32.708 48.0246 33.4278 47.1783 33.4278 46.9647C33.4278 46.9172 33.412 46.8777 33.3408 46.8777C33.2656 46.8777 33.1272 46.9607 32.9651 47.111L32.9295 47.0715C33.2577 46.767 33.4871 46.6444 33.6334 46.6444C33.7916 46.6444 33.847 46.7551 33.847 46.85C33.847 47.2139 33.1707 47.9969 33.1707 48.2421C33.1707 48.3291 33.2182 48.3726 33.3012 48.3726C33.3724 48.3726 33.4594 48.3449 33.5939 48.2184L33.6295 48.2579C33.3012 48.5624 33.0877 48.685 32.9413 48.685ZM33.7837 46.3754L34.456 45.7308C34.5114 45.6794 34.5668 45.624 34.6024 45.624C34.63 45.624 34.638 45.6517 34.638 45.6873C34.638 45.7743 34.6182 45.798 34.5193 45.8732L33.8074 46.4071L33.7837 46.3754Z" fill="#A98B83"/>
<path d="M30.2624 48.6536C30.2031 48.6536 30.1794 48.614 30.215 48.5547C30.476 48.1118 30.998 47.1666 30.998 46.9767C30.998 46.9135 30.9703 46.8779 30.8991 46.8779C30.824 46.8779 30.6856 46.9609 30.5234 47.1112L30.4878 47.0716C30.8161 46.7671 31.0455 46.6445 31.1918 46.6445C31.35 46.6445 31.4054 46.7553 31.4054 46.8502C31.4054 47.0202 31.2155 47.4394 31.0138 47.831C31.2076 47.5818 31.4054 47.3643 31.5912 47.1824C31.9393 46.8462 32.2556 46.6445 32.4494 46.6445C32.576 46.6445 32.659 46.7474 32.659 46.8739C32.663 47.2457 32.0025 48.088 32.0025 48.3174C32.0025 48.3886 32.0381 48.4321 32.1133 48.4321C32.1924 48.4321 32.3189 48.3451 32.4534 48.2185L32.489 48.2581C32.1607 48.5626 31.9432 48.6852 31.8206 48.6852C31.6308 48.6852 31.5794 48.5349 31.5794 48.4361C31.5794 47.9931 32.2438 47.2457 32.2438 46.9886C32.2438 46.9253 32.2161 46.8779 32.1449 46.8779C32.0223 46.8779 31.8523 47.0123 31.6268 47.2219C31.3698 47.4671 31.0732 47.8152 30.8359 48.1632C30.7291 48.3609 30.6342 48.5191 30.5828 48.5982C30.559 48.6378 30.5313 48.6536 30.4878 48.6536H30.2624Z" fill="#A98B83"/>
<path d="M29.4451 48.6852C29.2553 48.6852 29.2039 48.5349 29.2039 48.4361C29.2039 48.1592 29.3858 47.7914 29.5796 47.4592C28.9824 48.1829 28.4644 48.6971 28.2112 48.6852C28.0372 48.6773 27.9542 48.531 27.9581 48.3214C27.97 47.5739 28.8005 46.6445 29.6192 46.6445C29.7576 46.6445 30.0384 46.6722 30.2322 46.7315L30.2994 46.7513C30.3548 46.7671 30.3706 46.8027 30.3389 46.8502C30.2005 47.0558 29.9949 47.388 29.8564 47.657C29.7259 47.9219 29.6271 48.1315 29.6271 48.3174C29.6271 48.3886 29.6587 48.4321 29.7299 48.4321C29.8129 48.4321 29.9435 48.3451 30.0779 48.2185L30.1135 48.2581C29.7853 48.5626 29.5677 48.6852 29.4451 48.6852ZM28.3536 48.2106C28.3536 48.2858 28.3576 48.4321 28.4683 48.4321C28.6463 48.4321 29.1446 47.9378 29.8406 47.044L29.892 46.9649C29.6943 46.8858 29.4135 46.8067 29.2593 46.8067C28.7016 46.8067 28.3536 47.8152 28.3536 48.2106Z" fill="#A98B83"/>
<path d="M25.5827 49.753C25.207 49.7491 25.1437 49.579 25.1556 49.4564C25.1675 49.3101 25.3296 49.1242 25.5906 49.0016L25.6183 49.0253C25.5669 49.0965 25.5194 49.1835 25.5194 49.2903C25.5194 49.4406 25.6064 49.5909 25.9228 49.5909C26.0929 49.5909 26.2788 49.4959 26.3618 49.4287C26.7059 49.1519 26.872 48.4637 27.4098 47.4671L27.481 47.3366C26.8443 48.1236 26.3104 48.6971 26.0415 48.6852C25.8675 48.6773 25.7844 48.531 25.7884 48.3214C25.8002 47.5739 26.6307 46.6445 27.4494 46.6445C27.5878 46.6445 27.9002 46.6722 28.094 46.7315L28.0901 46.7355L28.098 46.7315L28.1138 46.7355C28.1652 46.7474 28.1731 46.7909 28.1494 46.8383L27.5957 47.8942C27.1251 48.7959 26.7573 49.1914 26.3974 49.4722C26.1799 49.6423 25.8714 49.753 25.5827 49.753ZM26.1839 48.2106C26.1839 48.2858 26.1878 48.4321 26.2985 48.4321C26.4765 48.4321 26.9392 47.9417 27.6313 47.0558L27.6946 46.9411C27.4929 46.87 27.2279 46.8067 27.0895 46.8067C26.5319 46.8067 26.1839 47.8152 26.1839 48.2106Z" fill="#A98B83"/>
<path d="M24.0222 48.6536C23.9629 48.6536 23.9391 48.614 23.9747 48.5547C24.2357 48.1118 24.7578 47.1666 24.7578 46.9767C24.7578 46.9135 24.7301 46.8779 24.6589 46.8779C24.5838 46.8779 24.4454 46.9609 24.2832 47.1112L24.2476 47.0716C24.5759 46.7671 24.8052 46.6445 24.9516 46.6445C25.1098 46.6445 25.1651 46.7553 25.1651 46.8502C25.1651 46.9491 25.1018 47.127 25.0148 47.3327C25.2956 46.9332 25.6081 46.6445 25.9917 46.6445C26.0787 46.6445 26.2646 46.6643 26.2646 46.7394C26.2646 46.8344 26.1261 47.0281 25.968 47.0281C25.8335 47.0281 25.6911 47.0005 25.4459 46.9293C25.26 47.0677 25.0267 47.3722 24.8131 47.7558C24.6312 48.1157 24.4295 48.4677 24.3425 48.5982C24.3188 48.6378 24.2911 48.6536 24.2476 48.6536H24.0222Z" fill="#A98B83"/>
<path d="M22.2061 48.6851C21.3716 48.6851 20.9287 48.0761 20.9287 47.3524C20.9287 46.3637 21.957 45.458 22.8468 45.458C23.6378 45.458 24.0807 46.0394 24.0688 46.7947C24.053 47.7874 23.092 48.6851 22.2061 48.6851ZM21.2688 47.0716C21.2688 47.9258 21.7671 48.4557 22.5462 48.4557C23.3095 48.4557 23.7287 47.7795 23.7287 47.123C23.7366 46.1738 23.1632 45.6597 22.5383 45.6597C21.775 45.6597 21.2688 46.3716 21.2688 47.0716Z" fill="#A98B83"/>
</g>
<defs>
<filter id="filter0_d_1039_37083" x="0" y="0" width="66" height="65.9805" filterUnits="userSpaceOnUse" color-interpolation-filters="sRGB">
<feFlood flood-opacity="0" result="BackgroundImageFix"/>
<feColorMatrix in="SourceAlpha" type="matrix" values="0 0 0 0 0 0 0 0 0 0 0 0 0 0 0 0 0 0 127 0" result="hardAlpha"/>
<feOffset/>
<feGaussianBlur stdDeviation="2.5"/>
<feComposite in2="hardAlpha" operator="out"/>
<feColorMatrix type="matrix" values="0 0 0 0 0 0 0 0 0 0 0 0 0 0 0 0 0 0 0.3 0"/>
<feBlend mode="normal" in2="BackgroundImageFix" result="effect1_dropShadow_1039_37083"/>
<feBlend mode="normal" in="SourceGraphic" in2="effect1_dropShadow_1039_37083" result="shape"/>
</filter>
</defs>
</svg>
