<svg width="66" height="67" viewBox="0 0 66 67" fill="none" xmlns="http://www.w3.org/2000/svg">
<g filter="url(#filter0_d_1039_40312)">
<path d="M5.02638 50.7342C5.09236 50.721 5.16162 50.7144 5.23089 50.7144C5.77186 50.7144 6.21388 51.1036 6.21388 51.5819C6.21388 52.0602 5.77516 52.4495 5.23089 52.4495C5.16162 52.4495 5.09236 52.4429 5.02638 52.4297V53.7524C5.09236 53.7392 5.16162 53.7326 5.23089 53.7326C5.77186 53.7326 6.21388 54.1219 6.21388 54.6002C6.21388 55.0784 5.77516 55.4677 5.23089 55.4677C5.16162 55.4677 5.09236 55.4611 5.02638 55.4479V56.7706C5.09236 56.7574 5.16162 56.7508 5.23089 56.7508C5.77186 56.7508 6.21388 57.1401 6.21388 57.6184C6.21388 58.0967 5.77516 58.4859 5.23089 58.4859C5.16162 58.4859 5.09236 58.4793 5.02638 58.4661V59.9735H7.65866C7.62567 59.8878 7.60588 59.7987 7.60588 59.703C7.60588 59.2248 8.04458 58.8355 8.58885 58.8355C9.13311 58.8355 9.57183 59.2248 9.57183 59.703C9.57183 59.7987 9.54874 59.8878 9.51905 59.9735H11.1914C11.1584 59.8878 11.1387 59.7987 11.1387 59.703C11.1387 59.2248 11.5774 58.8355 12.1216 58.8355C12.6659 58.8355 13.1046 59.2248 13.1046 59.703C13.1046 59.7987 13.0815 59.8878 13.0518 59.9735H14.7242C14.6912 59.8878 14.6714 59.7987 14.6714 59.703C14.6714 59.2248 15.1101 58.8355 15.6544 58.8355C16.1954 58.8355 16.6374 59.2248 16.6374 59.703C16.6374 59.7987 16.6143 59.8878 16.5846 59.9735H18.257C18.224 59.8878 18.2042 59.7987 18.2042 59.703C18.2042 59.2248 18.6429 58.8355 19.1872 58.8355C19.7282 58.8355 20.1702 59.2248 20.1702 59.703C20.1702 59.7987 20.1471 59.8878 20.1174 59.9735H21.7898C21.7568 59.8878 21.737 59.7987 21.737 59.703C21.737 59.2248 22.1757 58.8355 22.72 58.8355C23.2609 58.8355 23.7029 59.2248 23.7029 59.703C23.7029 59.7987 23.6799 59.8878 23.6502 59.9735H25.3225C25.2896 59.8878 25.2698 59.7987 25.2698 59.703C25.2698 59.2248 25.7085 58.8355 26.2528 58.8355C26.7937 58.8355 27.2357 59.2248 27.2357 59.703C27.2357 59.7987 27.2126 59.8878 27.183 59.9735H28.8553C28.8223 59.8878 28.8026 59.7987 28.8026 59.703C28.8026 59.2248 29.2413 58.8355 29.7855 58.8355C30.3265 58.8355 30.7685 59.2248 30.7685 59.703C30.7685 59.7987 30.7454 59.8878 30.7157 59.9735H32.3881C32.3551 59.8878 32.3353 59.7987 32.3353 59.703C32.3353 59.2248 32.774 58.8355 33.3183 58.8355C33.8626 58.8355 34.3013 59.2248 34.3013 59.703C34.3013 59.7987 34.2782 59.8878 34.2485 59.9735H35.9209C35.8879 59.8878 35.8681 59.7987 35.8681 59.703C35.8681 59.2248 36.3068 58.8355 36.8511 58.8355C37.3921 58.8355 37.8341 59.2248 37.8341 59.703C37.8341 59.7987 37.811 59.8878 37.7813 59.9735H39.4537C39.4207 59.8878 39.4009 59.7987 39.4009 59.703C39.4009 59.2248 39.8396 58.8355 40.3839 58.8355C40.9281 58.8355 41.3669 59.2248 41.3669 59.703C41.3669 59.7987 41.3438 59.8878 41.3141 59.9735H42.9865C42.9535 59.8878 42.9337 59.7987 42.9337 59.703C42.9337 59.2248 43.3724 58.8355 43.9166 58.8355C44.4576 58.8355 44.8996 59.2248 44.8996 59.703C44.8996 59.7987 44.8765 59.8878 44.8469 59.9735H46.5192C46.4862 59.8878 46.4665 59.7987 46.4665 59.703C46.4665 59.2248 46.9052 58.8355 47.4494 58.8355C47.9937 58.8355 48.4324 59.2248 48.4324 59.703C48.4324 59.7987 48.4093 59.8878 48.3796 59.9735H50.052C50.019 59.8878 49.9992 59.7987 49.9992 59.703C49.9992 59.2248 50.4379 58.8355 50.9822 58.8355C51.5232 58.8355 51.9652 59.2248 51.9652 59.703C51.9652 59.7987 51.9421 59.8878 51.9124 59.9735H53.5848C53.5518 59.8878 53.532 59.7987 53.532 59.703C53.532 59.2248 53.9707 58.8355 54.515 58.8355C55.056 58.8355 55.498 59.2248 55.498 59.703C55.498 59.7987 55.4749 59.8878 55.4452 59.9735H57.1176C57.0846 59.8878 57.0648 59.7987 57.0648 59.703C57.0648 59.2248 57.5035 58.8355 58.0478 58.8355C58.5887 58.8355 59.0307 59.2248 59.0307 59.703C59.0307 59.7987 59.0077 59.8878 58.978 59.9735H61V58.4859C60.459 58.4859 60.017 58.0967 60.017 57.6184C60.017 57.1401 60.4557 56.7508 61 56.7508V55.4677C60.459 55.4677 60.017 55.0784 60.017 54.6002C60.017 54.1219 60.4557 53.7326 61 53.7326V52.4495C60.459 52.4495 60.017 52.0602 60.017 51.5819C60.017 51.1036 60.4557 50.7144 61 50.7144V50.7045V49.4214C60.459 49.4214 60.017 49.0321 60.017 48.5538C60.017 48.0756 60.4557 47.6863 61 47.6863V46.4032C60.459 46.4032 60.017 46.014 60.017 45.5357C60.017 45.0574 60.4557 44.6681 61 44.6681V43.385C60.459 43.385 60.017 42.9957 60.017 42.5175C60.017 42.0392 60.4557 41.6499 61 41.6499V40.3668C60.459 40.3668 60.017 39.9775 60.017 39.4992C60.017 39.0209 60.4557 38.6317 61 38.6317V37.3486C60.459 37.3486 60.017 36.9593 60.017 36.4811C60.017 36.0028 60.4557 35.6135 61 35.6135V34.3304C60.459 34.3304 60.017 33.9411 60.017 33.4628C60.017 32.9845 60.4557 32.5953 61 32.5953V31.3122C60.459 31.3122 60.017 30.9229 60.017 30.4447C60.017 29.9664 60.4557 29.5771 61 29.5771V28.294C60.459 28.294 60.017 27.9047 60.017 27.4264C60.017 26.9482 60.4557 26.5589 61 26.5589V25.2758C60.459 25.2758 60.017 24.8865 60.017 24.4082C60.017 23.9299 60.4557 23.5407 61 23.5407V22.2576C60.459 22.2576 60.017 21.8683 60.017 21.39C60.017 20.9118 60.4557 20.5225 61 20.5225V19.2394C60.459 19.2394 60.017 18.8501 60.017 18.3718C60.017 17.8935 60.4557 17.5043 61 17.5043V16.2212C60.459 16.2212 60.017 15.8319 60.017 15.3536C60.017 14.8754 60.4557 14.4861 61 14.4861V13.203C60.459 13.203 60.017 12.8137 60.017 12.3354C60.017 11.8571 60.4557 11.4679 61 11.4679V10.1848C60.459 10.1848 60.017 9.79553 60.017 9.31724C60.017 8.83894 60.4557 8.44971 61 8.44971V7.16656C60.459 7.16656 60.017 6.77733 60.017 6.29904C60.017 5.82074 60.4557 5.43151 61 5.43151V3.94385H58.9549C58.9549 4.42214 58.5162 4.81138 57.9719 4.81138C57.4309 4.81138 56.9889 4.42214 56.9889 3.94385H55.4254C55.4254 4.42214 54.9867 4.81138 54.4424 4.81138C53.9015 4.81138 53.4594 4.42214 53.4594 3.94385H51.8959C51.8959 4.42214 51.4572 4.81138 50.9129 4.81138C50.372 4.81138 49.93 4.42214 49.93 3.94385H48.3664C48.3664 4.42214 47.9277 4.81138 47.3835 4.81138C46.8392 4.81138 46.4005 4.42214 46.4005 3.94385H44.837C44.837 4.42214 44.3982 4.81138 43.854 4.81138C43.313 4.81138 42.871 4.42214 42.871 3.94385H41.3075C41.3075 4.42214 40.8688 4.81138 40.3245 4.81138C39.7802 4.81138 39.3415 4.42214 39.3415 3.94385H37.778C37.778 4.42214 37.3393 4.81138 36.795 4.81138C36.254 4.81138 35.812 4.42214 35.812 3.94385H34.2485C34.2485 4.42214 33.8098 4.81138 33.2655 4.81138C32.7213 4.81138 32.2826 4.42214 32.2826 3.94385H30.719C30.719 4.42214 30.2803 4.81138 29.7361 4.81138C29.1951 4.81138 28.7531 4.42214 28.7531 3.94385H27.1895C27.1895 4.42214 26.7508 4.81138 26.2066 4.81138C25.6656 4.81138 25.2236 4.42214 25.2236 3.94385H23.6601C23.6601 4.42214 23.2214 4.81138 22.6771 4.81138C22.1361 4.81138 21.6941 4.42214 21.6941 3.94385H20.1306C20.1306 4.42214 19.6919 4.81138 19.1476 4.81138C18.6066 4.81138 18.1646 4.42214 18.1646 3.94385H16.6011C16.6011 4.42214 16.1624 4.81138 15.6181 4.81138C15.0772 4.81138 14.6352 4.42214 14.6352 3.94385H13.0716C13.0716 4.42214 12.6329 4.81138 12.0886 4.81138C11.5444 4.81138 11.1057 4.42214 11.1057 3.94385H9.54214C9.54214 4.42214 9.10343 4.81138 8.55916 4.81138C8.0149 4.81138 7.57619 4.42214 7.57619 3.94385H5V5.4513C5.06597 5.43811 5.13524 5.43151 5.20451 5.43151C5.74548 5.43151 6.18748 5.82074 6.18748 6.29904C6.18748 6.77733 5.74878 7.16656 5.20451 7.16656C5.13524 7.16656 5.06597 7.15996 5 7.14677V8.4695C5.06597 8.45631 5.13524 8.44971 5.20451 8.44971C5.74548 8.44971 6.18748 8.83894 6.18748 9.31724C6.18748 9.79553 5.74878 10.1848 5.20451 10.1848C5.13524 10.1848 5.06597 10.1782 5 10.165V11.4877C5.06597 11.4745 5.13524 11.4679 5.20451 11.4679C5.74548 11.4679 6.18748 11.8571 6.18748 12.3354C6.18748 12.8137 5.74878 13.203 5.20451 13.203C5.13524 13.203 5.06597 13.1964 5 13.1832V14.5059C5.06597 14.4927 5.13524 14.4861 5.20451 14.4861C5.74548 14.4861 6.18748 14.8754 6.18748 15.3536C6.18748 15.8319 5.74878 16.2212 5.20451 16.2212C5.13524 16.2212 5.06597 16.2146 5 16.2014V17.5241C5.06597 17.5109 5.13524 17.5043 5.20451 17.5043C5.74548 17.5043 6.18748 17.8935 6.18748 18.3718C6.18748 18.8501 5.74878 19.2394 5.20451 19.2394C5.13524 19.2394 5.06597 19.2328 5 19.2196V20.5423C5.06597 20.5291 5.13524 20.5225 5.20451 20.5225C5.74548 20.5225 6.18748 20.9118 6.18748 21.39C6.18748 21.8683 5.74878 22.2576 5.20451 22.2576C5.13524 22.2576 5.06597 22.251 5 22.2378V23.5605C5.06597 23.5473 5.13524 23.5407 5.20451 23.5407C5.74548 23.5407 6.18748 23.9299 6.18748 24.4082C6.18748 24.8865 5.74878 25.2758 5.20451 25.2758C5.13524 25.2758 5.06597 25.2692 5 25.256V26.5787C5.06597 26.5655 5.13524 26.5589 5.20451 26.5589C5.74548 26.5589 6.18748 26.9482 6.18748 27.4264C6.18748 27.9047 5.74878 28.294 5.20451 28.294C5.13524 28.294 5.06597 28.2874 5 28.2742V29.5969C5.06597 29.5837 5.13524 29.5771 5.20451 29.5771C5.74548 29.5771 6.18748 29.9664 6.18748 30.4447C6.18748 30.9229 5.74878 31.3122 5.20451 31.3122C5.13524 31.3122 5.06597 31.3056 5 31.2924V32.6151C5.06597 32.6019 5.13524 32.5953 5.20451 32.5953C5.74548 32.5953 6.18748 32.9845 6.18748 33.4628C6.18748 33.9411 5.74878 34.3304 5.20451 34.3304C5.13524 34.3304 5.06597 34.3238 5 34.3106V35.6333C5.06597 35.6201 5.13524 35.6135 5.20451 35.6135C5.74548 35.6135 6.18748 36.0028 6.18748 36.4811C6.18748 36.9593 5.74878 37.3486 5.20451 37.3486C5.13524 37.3486 5.06597 37.342 5 37.3288V38.6515C5.06597 38.6383 5.13524 38.6317 5.20451 38.6317C5.74548 38.6317 6.18748 39.0209 6.18748 39.4992C6.18748 39.9775 5.74878 40.3668 5.20451 40.3668C5.13524 40.3668 5.06597 40.3602 5 40.347V41.6697C5.06597 41.6565 5.13524 41.6499 5.20451 41.6499C5.74548 41.6499 6.18748 42.0392 6.18748 42.5175C6.18748 42.9957 5.74878 43.385 5.20451 43.385C5.13524 43.385 5.06597 43.3784 5 43.3652V44.6879C5.06597 44.6747 5.13524 44.6681 5.20451 44.6681C5.74548 44.6681 6.18748 45.0574 6.18748 45.5357C6.18748 46.014 5.74878 46.4032 5.20451 46.4032C5.13524 46.4032 5.06597 46.3966 5 46.3834V47.7061C5.06597 47.6929 5.13524 47.6863 5.20451 47.6863C5.74548 47.6863 6.18748 48.0756 6.18748 48.5538C6.18748 49.0321 5.74878 49.4214 5.20451 49.4214C5.13524 49.4214 5.06597 49.4148 5 49.4016V50.7243C5.06597 50.7111 5.13524 50.7045 5.20451 50.7045" fill="#A98B83"/>
<path d="M57.4877 11.7979V51.0477C55.0797 51.1929 53.1665 53.1984 53.1665 55.6394C53.1665 55.9 53.1896 56.1638 53.2391 56.431H12.7886C12.8381 56.1638 12.8612 55.9 12.8612 55.6394C12.8612 53.1984 10.948 51.1929 8.54004 51.0477V11.7979C10.8556 11.6561 12.7127 9.799 12.8513 7.4834H53.1731C53.315 9.799 55.1721 11.6561 57.4877 11.7979Z" fill="white"/>
<path d="M57.4877 11.7979V51.0477C55.0797 51.1929 53.1665 53.1984 53.1665 55.6394C53.1665 55.9 53.1896 56.1638 53.2391 56.431H12.7886C12.8381 56.1638 12.8612 55.9 12.8612 55.6394C12.8612 53.1984 10.948 51.1929 8.54004 51.0477V11.7979C10.8556 11.6561 12.7127 9.799 12.8513 7.4834H53.1731C53.315 9.799 55.1721 11.6561 57.4877 11.7979Z" fill="#AB8C85"/>
<path d="M57.7673 11.2435C55.5375 11.2435 53.7265 9.43259 53.7265 7.20274C53.7265 7.04771 53.6012 6.92236 53.4462 6.92236H12.58C12.425 6.92236 12.2996 7.04771 12.2996 7.20274C12.2996 9.43259 10.4854 11.2435 8.25889 11.2435C8.10385 11.2435 7.97852 11.3689 7.97852 11.5239V51.3213C7.97852 51.473 8.10385 51.6016 8.25889 51.6016C10.4854 51.6016 12.2996 53.4126 12.2996 55.6391C12.2996 55.9657 12.2535 56.3021 12.1677 56.6419C12.1479 56.7276 12.1644 56.8167 12.2172 56.8827C12.27 56.9519 12.3524 56.9915 12.4415 56.9915H53.5847C53.6704 56.9915 53.7529 56.9519 53.8057 56.8827C53.8585 56.8167 53.8783 56.7276 53.8552 56.6419C53.7694 56.3021 53.7265 55.9657 53.7265 55.6391C53.7265 53.4126 55.5375 51.6016 57.7673 51.6016C57.9223 51.6016 58.0477 51.473 58.0477 51.3213V11.5239C58.0477 11.3689 57.9223 11.2435 57.7673 11.2435ZM57.4869 51.0475C55.0789 51.1926 53.1658 53.1982 53.1658 55.6391C53.1658 55.8997 53.1889 56.1636 53.2383 56.4308H12.7878C12.8373 56.1636 12.8604 55.8997 12.8604 55.6391C12.8604 53.1982 10.9472 51.1926 8.53927 51.0475V11.7977C10.8549 11.6558 12.712 9.79873 12.8505 7.48313H53.1724C53.3142 9.79873 55.1713 11.6558 57.4869 11.7977V51.0475Z" fill="#F1DFC1"/>
<path d="M57.5565 11.8868V51.1399C56.3885 51.2152 55.2925 51.7311 54.4904 52.5835C53.6882 53.4359 53.2396 54.5611 53.2354 55.7315C53.2353 55.9971 53.2596 56.2621 53.3079 56.5232H12.8574C12.9058 56.2621 12.9301 55.9971 12.93 55.7315C12.9268 54.5626 12.4804 53.4384 11.681 52.5857C10.8815 51.7329 9.78835 51.2151 8.62207 51.1366V11.8835C9.73768 11.8059 10.7872 11.3262 11.5759 10.5333C12.3645 9.74039 12.8386 8.68828 12.9102 7.57227H53.242C53.3135 8.69309 53.791 9.74944 54.5852 10.5436C55.3793 11.3378 56.4357 11.8153 57.5565 11.8868Z" fill="white"/>
<path d="M33.0169 10.2906C33.3703 10.2906 33.6568 10.0041 33.6568 9.65066C33.6568 9.29724 33.3703 9.01074 33.0169 9.01074C32.6635 9.01074 32.377 9.29724 32.377 9.65066C32.377 10.0041 32.6635 10.2906 33.0169 10.2906Z" fill="#F5CBD9"/>
<path d="M33.0168 12.1873C32.9377 12.1873 32.875 12.1246 32.875 12.0455V11.0691C32.875 10.9899 32.9377 10.9272 33.0168 10.9272C33.096 10.9272 33.1587 10.9899 33.1587 11.0691V12.0455C33.1554 12.1213 33.0927 12.1873 33.0168 12.1873Z" fill="#F5CBD9"/>
<path d="M33.0168 14.8724C32.9377 14.8724 32.875 14.8097 32.875 14.7306V12.6492C32.875 12.57 32.9377 12.5073 33.0168 12.5073C33.096 12.5073 33.1587 12.57 33.1587 12.6492V14.7306C33.1554 14.8097 33.0927 14.8724 33.0168 14.8724Z" fill="#F5CBD9"/>
<path d="M34.2145 11.864C34.165 11.864 34.1188 11.8376 34.0925 11.7947L33.6043 10.947C33.5647 10.881 33.5878 10.7952 33.657 10.7556C33.723 10.716 33.8088 10.7391 33.8484 10.8084L34.3366 11.6561C34.3761 11.7221 34.353 11.8079 34.2838 11.8475C34.2607 11.8574 34.2376 11.864 34.2145 11.864Z" fill="#F5CBD9"/>
<path d="M35.5554 14.1927C35.5059 14.1927 35.4597 14.1663 35.4334 14.1235L34.3943 12.3224C34.3547 12.2565 34.3778 12.1707 34.4471 12.1311C34.5131 12.0915 34.5988 12.1146 34.6384 12.1839L35.6775 13.9849C35.717 14.0509 35.6939 14.1367 35.6247 14.1762C35.6049 14.1861 35.5785 14.1927 35.5554 14.1927Z" fill="#F5CBD9"/>
<path d="M35.0881 10.9899C35.065 10.9899 35.0386 10.9833 35.0188 10.9701L34.1744 10.4819C34.1084 10.4423 34.0853 10.3566 34.1216 10.2906C34.1612 10.2246 34.247 10.2016 34.3129 10.2378L35.1574 10.726C35.2233 10.7656 35.2464 10.8514 35.2102 10.9173C35.1838 10.9635 35.1376 10.9899 35.0881 10.9899Z" fill="#F5CBD9"/>
<path d="M36.3616 11.7224C36.3385 11.7224 36.3121 11.7158 36.2923 11.7026L35.5435 11.2705C35.4776 11.2309 35.4545 11.1452 35.4908 11.0792C35.5303 11.0132 35.6161 10.9901 35.6821 11.0264L36.4309 11.4585C36.4968 11.4981 36.5199 11.5839 36.4836 11.6498C36.4573 11.6993 36.4111 11.7224 36.3616 11.7224Z" fill="#F5CBD9"/>
<path d="M35.4112 9.79247H34.4348C34.3556 9.79247 34.293 9.72979 34.293 9.65063C34.293 9.57146 34.3556 9.50879 34.4348 9.50879H35.4112C35.4904 9.50879 35.553 9.57146 35.553 9.65063C35.553 9.72979 35.4871 9.79247 35.4112 9.79247Z" fill="#F5CBD9"/>
<path d="M37.931 9.79247H36.0178C35.9387 9.79247 35.876 9.72979 35.876 9.65063C35.876 9.57146 35.9387 9.50879 36.0178 9.50879H37.931C38.0102 9.50879 38.0728 9.57146 38.0728 9.65063C38.0728 9.72979 38.0069 9.79247 37.931 9.79247Z" fill="#F5CBD9"/>
<path d="M31.5987 9.79247H30.6223C30.5431 9.79247 30.4805 9.72979 30.4805 9.65063C30.4805 9.57146 30.5431 9.50879 30.6223 9.50879H31.5987C31.6778 9.50879 31.7405 9.57146 31.7405 9.65063C31.7405 9.72979 31.6778 9.79247 31.5987 9.79247Z" fill="#F5CBD9"/>
<path d="M30.016 9.79247H28.1028C28.0236 9.79247 27.9609 9.72979 27.9609 9.65063C27.9609 9.57146 28.0236 9.50879 28.1028 9.50879H30.016C30.0951 9.50879 30.1578 9.57146 30.1578 9.65063C30.1578 9.72979 30.0951 9.79247 30.016 9.79247Z" fill="#F5CBD9"/>
<path d="M30.9412 10.9898C30.8917 10.9898 30.8455 10.9634 30.8191 10.9205C30.7795 10.8545 30.8026 10.7688 30.8719 10.7292L31.7163 10.241C31.7823 10.2014 31.8681 10.2245 31.9076 10.2938C31.9472 10.3597 31.9241 10.4455 31.8549 10.4851L31.0104 10.9733C30.9906 10.9832 30.9642 10.9898 30.9412 10.9898Z" fill="#F5CBD9"/>
<path d="M29.7156 11.6959C29.6661 11.6959 29.6199 11.6695 29.5935 11.6266C29.5539 11.5606 29.577 11.4749 29.6463 11.4353L30.3489 11.0296C30.4149 10.99 30.5006 11.0131 30.5402 11.0823C30.5798 11.1483 30.5567 11.2341 30.4874 11.2736L29.7848 11.6794C29.765 11.6926 29.7387 11.6959 29.7156 11.6959Z" fill="#F5CBD9"/>
<path d="M31.8189 11.8641C31.7958 11.8641 31.7694 11.8575 31.7496 11.8443C31.6836 11.8047 31.6605 11.719 31.6968 11.653L32.185 10.8053C32.2246 10.7393 32.3104 10.7162 32.3763 10.7525C32.4423 10.7921 32.4654 10.8778 32.4291 10.9438L31.9409 11.7915C31.9145 11.841 31.865 11.8641 31.8189 11.8641Z" fill="#F5CBD9"/>
<path d="M30.4732 14.1929C30.4501 14.1929 30.4237 14.1863 30.4039 14.1731C30.3379 14.1335 30.3148 14.0477 30.3511 13.9818L31.3935 12.1808C31.4331 12.1148 31.5188 12.0917 31.5848 12.128C31.6508 12.1676 31.6739 12.2533 31.6376 12.3193L30.5952 14.1203C30.5688 14.1665 30.5227 14.1929 30.4732 14.1929Z" fill="#F5CBD9"/>
<path d="M33.0169 54.9005C33.3703 54.9005 33.6568 54.614 33.6568 54.2605C33.6568 53.9071 33.3703 53.6206 33.0169 53.6206C32.6635 53.6206 32.377 53.9071 32.377 54.2605C32.377 54.614 32.6635 54.9005 33.0169 54.9005Z" fill="#F5CBD9"/>
<path d="M33.0168 52.9842C32.9377 52.9842 32.875 52.9215 32.875 52.8423V51.866C32.875 51.7868 32.9377 51.7241 33.0168 51.7241C33.096 51.7241 33.1587 51.7868 33.1587 51.866V52.8423C33.1554 52.9215 33.0927 52.9842 33.0168 52.9842Z" fill="#F5CBD9"/>
<path d="M33.0168 51.4007C32.9377 51.4007 32.875 51.3381 32.875 51.2589V49.1775C32.875 49.0983 32.9377 49.0356 33.0168 49.0356C33.096 49.0356 33.1587 49.0983 33.1587 49.1775V51.2589C33.1554 51.3381 33.0927 51.4007 33.0168 51.4007Z" fill="#F5CBD9"/>
<path d="M32.3073 53.1722C32.2578 53.1722 32.2116 53.1458 32.1852 53.1029L31.697 52.2585C31.6575 52.1925 31.6805 52.1067 31.7498 52.0672C31.8158 52.0276 31.9015 52.0507 31.9411 52.1199L32.4293 52.9644C32.4689 53.0303 32.4458 53.1161 32.3765 53.1557C32.3568 53.1689 32.3304 53.1722 32.3073 53.1722Z" fill="#F5CBD9"/>
<path d="M31.5157 51.8031C31.4663 51.8031 31.4201 51.7767 31.3937 51.7338L30.3513 49.9328C30.3118 49.8668 30.3348 49.7811 30.4041 49.7415C30.4701 49.7019 30.5559 49.725 30.5954 49.7942L31.6378 51.5953C31.6774 51.6612 31.6543 51.747 31.585 51.7866C31.5652 51.7965 31.5388 51.8031 31.5157 51.8031Z" fill="#F5CBD9"/>
<path d="M31.7893 53.6935C31.7662 53.6935 31.7398 53.6869 31.72 53.6737L30.8756 53.1856C30.8096 53.146 30.7865 53.0602 30.8228 52.9942C30.8624 52.9283 30.9481 52.9052 31.0141 52.9414L31.8585 53.4297C31.9245 53.4692 31.9476 53.555 31.9113 53.621C31.8849 53.6671 31.8355 53.6935 31.7893 53.6935Z" fill="#F5CBD9"/>
<path d="M30.4173 52.9016C30.3942 52.9016 30.3678 52.895 30.348 52.8818L29.5992 52.4497C29.5332 52.4101 29.5101 52.3244 29.5464 52.2584C29.586 52.1924 29.6718 52.1693 29.7377 52.2056L30.4865 52.6377C30.5525 52.6773 30.5756 52.7631 30.5393 52.829C30.5129 52.8752 30.4667 52.9016 30.4173 52.9016Z" fill="#F5CBD9"/>
<path d="M31.5987 54.3989H30.6223C30.5431 54.3989 30.4805 54.3363 30.4805 54.2571C30.4805 54.1779 30.5431 54.1152 30.6223 54.1152H31.5987C31.6778 54.1152 31.7405 54.1779 31.7405 54.2571C31.7405 54.3363 31.6778 54.3989 31.5987 54.3989Z" fill="#F5CBD9"/>
<path d="M30.016 54.3994H28.1028C28.0236 54.3994 27.9609 54.3367 27.9609 54.2576C27.9609 54.1784 28.0236 54.1157 28.1028 54.1157H30.016C30.0951 54.1157 30.1578 54.1784 30.1578 54.2576C30.1578 54.3367 30.0951 54.3994 30.016 54.3994Z" fill="#F5CBD9"/>
<path d="M35.4112 54.3989H34.4348C34.3556 54.3989 34.293 54.3363 34.293 54.2571C34.293 54.1779 34.3556 54.1152 34.4348 54.1152H35.4112C35.4904 54.1152 35.553 54.1779 35.553 54.2571C35.553 54.3363 35.4871 54.3989 35.4112 54.3989Z" fill="#F5CBD9"/>
<path d="M37.931 54.3994H36.0178C35.9387 54.3994 35.876 54.3367 35.876 54.2576C35.876 54.1784 35.9387 54.1157 36.0178 54.1157H37.931C38.0102 54.1157 38.0728 54.1784 38.0728 54.2576C38.0728 54.3367 38.0069 54.3994 37.931 54.3994Z" fill="#F5CBD9"/>
<path d="M34.2439 53.6934C34.1944 53.6934 34.1482 53.667 34.1218 53.6241C34.0823 53.5581 34.1054 53.4724 34.1746 53.4328L35.0191 52.9446C35.085 52.905 35.1708 52.9281 35.2104 52.9974C35.25 53.0634 35.2269 53.1491 35.1576 53.1887L34.3132 53.6769C34.2901 53.6868 34.267 53.6934 34.2439 53.6934Z" fill="#F5CBD9"/>
<path d="M35.616 52.9014C35.5665 52.9014 35.5203 52.8751 35.4939 52.8322C35.4543 52.7662 35.4774 52.6804 35.5467 52.6408L36.2493 52.2351C36.3153 52.1955 36.401 52.2186 36.4406 52.2879C36.4802 52.3539 36.4571 52.4396 36.3878 52.4792L35.6852 52.8849C35.6621 52.8948 35.6391 52.9014 35.616 52.9014Z" fill="#F5CBD9"/>
<path d="M33.7271 53.1718C33.704 53.1718 33.6776 53.1652 33.6578 53.1521C33.5918 53.1125 33.5687 53.0267 33.605 52.9607L34.0932 52.1163C34.1328 52.0503 34.2186 52.0272 34.2845 52.0635C34.3505 52.1031 34.3736 52.1889 34.3373 52.2548L33.8491 53.0993C33.8227 53.1488 33.7732 53.1718 33.7271 53.1718Z" fill="#F5CBD9"/>
<path d="M34.5181 51.8032C34.495 51.8032 34.4686 51.7966 34.4488 51.7835C34.3828 51.7439 34.3598 51.6581 34.396 51.5921L35.4351 49.7911C35.4747 49.7251 35.5604 49.702 35.6264 49.7383C35.6924 49.7779 35.7155 49.8637 35.6792 49.9296L34.6401 51.7307C34.6137 51.7768 34.5643 51.8032 34.5181 51.8032Z" fill="#F5CBD9"/>
<path d="M55.3196 31.3159C54.9667 31.3159 54.6797 31.6029 54.6797 31.9558C54.6797 32.3088 54.9667 32.5958 55.3196 32.5958C55.6726 32.5958 55.9595 32.3088 55.9595 31.9558C55.9595 31.6029 55.6726 31.3159 55.3196 31.3159Z" fill="#F5CBD9"/>
<path d="M53.9014 32.0976H52.925C52.8459 32.0976 52.7832 32.035 52.7832 31.9558C52.7832 31.8766 52.8459 31.814 52.925 31.814H53.9014C53.9806 31.814 54.0433 31.8766 54.0433 31.9558C54.0433 32.035 53.9806 32.0976 53.9014 32.0976Z" fill="#F5CBD9"/>
<path d="M52.3189 32.0976H50.2375C50.1584 32.0976 50.0957 32.035 50.0957 31.9558C50.0957 31.8766 50.1584 31.814 50.2375 31.814H52.3189C52.3981 31.814 52.4608 31.8766 52.4608 31.9558C52.4608 32.035 52.3948 32.0976 52.3189 32.0976Z" fill="#F5CBD9"/>
<path d="M53.2449 33.2915C53.1954 33.2915 53.1492 33.2651 53.1228 33.2223C53.0832 33.1563 53.1063 33.0705 53.1756 33.0309L54.02 32.5427C54.086 32.5032 54.1718 32.5262 54.2114 32.5955C54.2509 32.6615 54.2278 32.7473 54.1586 32.7868L53.3141 33.275C53.2944 33.2882 53.268 33.2915 53.2449 33.2915Z" fill="#F5CBD9"/>
<path d="M50.9167 34.6372C50.8673 34.6372 50.8211 34.6108 50.7947 34.5679C50.7551 34.502 50.7782 34.4162 50.8475 34.3766L52.6485 33.3342C52.7145 33.2947 52.8002 33.3178 52.8398 33.387C52.8794 33.453 52.8563 33.5388 52.787 33.5784L50.986 34.6207C50.9662 34.6306 50.9431 34.6372 50.9167 34.6372Z" fill="#F5CBD9"/>
<path d="M54.1226 34.1688C54.0995 34.1688 54.0731 34.1622 54.0533 34.149C53.9873 34.1094 53.9642 34.0237 54.0005 33.9577L54.4887 33.1099C54.5283 33.044 54.6141 33.0209 54.68 33.0572C54.746 33.0968 54.7691 33.1825 54.7328 33.2485L54.2446 34.0962C54.2182 34.1457 54.1688 34.1688 54.1226 34.1688Z" fill="#F5CBD9"/>
<path d="M53.3863 35.4424C53.3632 35.4424 53.3368 35.4358 53.317 35.4226C53.251 35.383 53.2279 35.2973 53.2642 35.2313L53.6963 34.4825C53.7359 34.4165 53.8217 34.3934 53.8876 34.4297C53.9536 34.4693 53.9767 34.5551 53.9404 34.6211L53.5083 35.3698C53.4819 35.416 53.4357 35.4424 53.3863 35.4424Z" fill="#F5CBD9"/>
<path d="M55.3196 34.489C55.2404 34.489 55.1777 34.4264 55.1777 34.3472V33.3708C55.1777 33.2917 55.2404 33.229 55.3196 33.229C55.3987 33.229 55.4614 33.2917 55.4614 33.3708V34.3472C55.4581 34.4264 55.3954 34.489 55.3196 34.489Z" fill="#F5CBD9"/>
<path d="M55.3196 37.0089C55.2404 37.0089 55.1777 36.9462 55.1777 36.867V34.9538C55.1777 34.8747 55.2404 34.812 55.3196 34.812C55.3987 34.812 55.4614 34.8747 55.4614 34.9538V36.867C55.4581 36.9462 55.3954 37.0089 55.3196 37.0089Z" fill="#F5CBD9"/>
<path d="M55.3196 30.679C55.2404 30.679 55.1777 30.6163 55.1777 30.5372V29.5608C55.1777 29.4816 55.2404 29.4189 55.3196 29.4189C55.3987 29.4189 55.4614 29.4816 55.4614 29.5608V30.5372C55.4581 30.6163 55.3954 30.679 55.3196 30.679Z" fill="#F5CBD9"/>
<path d="M55.3196 29.0958C55.2404 29.0958 55.1777 29.0331 55.1777 28.9539V27.0408C55.1777 26.9616 55.2404 26.8989 55.3196 26.8989C55.3987 26.8989 55.4614 26.9616 55.4614 27.0408V28.9539C55.4581 29.0331 55.3954 29.0958 55.3196 29.0958Z" fill="#F5CBD9"/>
<path d="M54.611 30.8674C54.5615 30.8674 54.5153 30.841 54.4889 30.7981L54.0007 29.9504C53.9612 29.8844 53.9843 29.7986 54.0535 29.7591C54.1195 29.7195 54.2053 29.7426 54.2448 29.8118L54.733 30.6596C54.7726 30.7255 54.7495 30.8113 54.6803 30.8509C54.6572 30.8641 54.6341 30.8674 54.611 30.8674Z" fill="#F5CBD9"/>
<path d="M53.8186 29.4981C53.7691 29.4981 53.7229 29.4717 53.6965 29.4288L53.2908 28.7263C53.2512 28.6603 53.2743 28.5745 53.3436 28.5349C53.4095 28.4953 53.4953 28.5184 53.5349 28.5877L53.9406 29.2903C53.9802 29.3563 53.9571 29.442 53.8878 29.4816C53.8647 29.4915 53.8417 29.4981 53.8186 29.4981Z" fill="#F5CBD9"/>
<path d="M54.093 31.3884C54.0699 31.3884 54.0435 31.3818 54.0237 31.3686L53.1793 30.8804C53.1133 30.8408 53.0902 30.755 53.1265 30.6891C53.1661 30.6231 53.2518 30.6 53.3178 30.6363L54.1623 31.1245C54.2282 31.1641 54.2513 31.2498 54.215 31.3158C54.1886 31.362 54.1392 31.3884 54.093 31.3884Z" fill="#F5CBD9"/>
<path d="M52.7215 30.5968C52.6984 30.5968 52.672 30.5902 52.6522 30.577L50.8512 29.5347C50.7852 29.4951 50.7621 29.4093 50.7984 29.3433C50.838 29.2774 50.9237 29.2543 50.9897 29.2906L52.7907 30.3329C52.8567 30.3725 52.8798 30.4583 52.8435 30.5242C52.8171 30.5704 52.7676 30.5968 52.7215 30.5968Z" fill="#F5CBD9"/>
<path d="M10.7073 32.5958C11.0603 32.5958 11.3472 32.3088 11.3472 31.9558C11.3472 31.6029 11.0603 31.3159 10.7073 31.3159C10.3544 31.3159 10.0674 31.6029 10.0674 31.9558C10.0674 32.3088 10.3544 32.5958 10.7073 32.5958Z" fill="#F5CBD9"/>
<path d="M13.1026 32.0976H12.1262C12.047 32.0976 11.9844 32.035 11.9844 31.9558C11.9844 31.8766 12.047 31.814 12.1262 31.814H13.1026C13.1818 31.814 13.2444 31.8766 13.2444 31.9558C13.2411 32.035 13.1785 32.0976 13.1026 32.0976Z" fill="#F5CBD9"/>
<path d="M15.7916 32.0976H13.7102C13.631 32.0976 13.5684 32.035 13.5684 31.9558C13.5684 31.8766 13.631 31.814 13.7102 31.814H15.7916C15.8708 31.814 15.9334 31.8766 15.9334 31.9558C15.9301 32.035 15.8675 32.0976 15.7916 32.0976Z" fill="#F5CBD9"/>
<path d="M11.9363 31.3882C11.8868 31.3882 11.8406 31.3618 11.8142 31.3189C11.7746 31.253 11.7977 31.1672 11.867 31.1276L12.7114 30.6394C12.7774 30.5998 12.8632 30.6229 12.9028 30.6922C12.9423 30.7582 12.9192 30.8439 12.85 30.8835L12.0055 31.3717C11.9858 31.3816 11.9594 31.3882 11.9363 31.3882Z" fill="#F5CBD9"/>
<path d="M13.3064 30.5967C13.2569 30.5967 13.2107 30.5703 13.1843 30.5274C13.1448 30.4614 13.1679 30.3757 13.2371 30.3361L15.0414 29.2937C15.1074 29.2541 15.1932 29.2772 15.2328 29.3465C15.2724 29.4125 15.2493 29.4982 15.18 29.5378L13.3757 30.5802C13.3526 30.5901 13.3295 30.5967 13.3064 30.5967Z" fill="#F5CBD9"/>
<path d="M11.4175 30.867C11.3944 30.867 11.368 30.8604 11.3482 30.8472C11.2823 30.8077 11.2592 30.7219 11.2955 30.6559L11.7836 29.8082C11.8232 29.7422 11.909 29.7191 11.975 29.7554C12.0409 29.795 12.064 29.8808 12.0277 29.9467L11.5395 30.7945C11.5132 30.844 11.4637 30.867 11.4175 30.867Z" fill="#F5CBD9"/>
<path d="M12.2075 29.4981C12.1844 29.4981 12.1581 29.4914 12.1383 29.4783C12.0723 29.4387 12.0492 29.3529 12.0855 29.287L12.5176 28.5382C12.5572 28.4722 12.6429 28.4491 12.7089 28.4854C12.7749 28.525 12.798 28.6107 12.7617 28.6767L12.3296 29.4255C12.3032 29.4717 12.2537 29.4981 12.2075 29.4981Z" fill="#F5CBD9"/>
<path d="M10.7073 30.679C10.6281 30.679 10.5654 30.6163 10.5654 30.5372V29.5608C10.5654 29.4816 10.6281 29.4189 10.7073 29.4189C10.7864 29.4189 10.8491 29.4816 10.8491 29.5608V30.5372C10.8458 30.6163 10.7831 30.679 10.7073 30.679Z" fill="#F5CBD9"/>
<path d="M10.7073 29.0958C10.6281 29.0958 10.5654 29.0331 10.5654 28.9539V27.0408C10.5654 26.9616 10.6281 26.8989 10.7073 26.8989C10.7864 26.8989 10.8491 26.9616 10.8491 27.0408V28.9539C10.8458 29.0331 10.7831 29.0958 10.7073 29.0958Z" fill="#F5CBD9"/>
<path d="M10.7073 34.489C10.6281 34.489 10.5654 34.4264 10.5654 34.3472V33.3708C10.5654 33.2917 10.6281 33.229 10.7073 33.229C10.7864 33.229 10.8491 33.2917 10.8491 33.3708V34.3472C10.8458 34.4264 10.7831 34.489 10.7073 34.489Z" fill="#F5CBD9"/>
<path d="M10.7073 37.0089C10.6281 37.0089 10.5654 36.9462 10.5654 36.867V34.9538C10.5654 34.8747 10.6281 34.812 10.7073 34.812C10.7864 34.812 10.8491 34.8747 10.8491 34.9538V36.867C10.8458 36.9462 10.7831 37.0089 10.7073 37.0089Z" fill="#F5CBD9"/>
<path d="M11.9059 34.1691C11.8564 34.1691 11.8102 34.1427 11.7839 34.0999L11.2957 33.2521C11.2561 33.1861 11.2792 33.1004 11.3484 33.0608C11.4144 33.0212 11.5002 33.0443 11.5398 33.1136L12.028 33.9613C12.0675 34.0273 12.0444 34.1131 11.9752 34.1526C11.9521 34.1625 11.929 34.1691 11.9059 34.1691Z" fill="#F5CBD9"/>
<path d="M12.6145 35.3961C12.565 35.3961 12.5188 35.3697 12.4924 35.3268L12.0867 34.6242C12.0471 34.5582 12.0702 34.4725 12.1395 34.4329C12.2054 34.3933 12.2912 34.4164 12.3308 34.4857L12.7365 35.1883C12.7761 35.2542 12.753 35.34 12.6837 35.3796C12.6606 35.3895 12.6376 35.3961 12.6145 35.3961Z" fill="#F5CBD9"/>
<path d="M12.7824 33.2917C12.7594 33.2917 12.733 33.2851 12.7132 33.2719L11.8687 32.7837C11.8028 32.7441 11.7797 32.6583 11.816 32.5924C11.8555 32.5264 11.9413 32.5033 12.0073 32.5396L12.8517 33.0278C12.9177 33.0674 12.9408 33.1531 12.9045 33.2191C12.8781 33.2686 12.8286 33.2917 12.7824 33.2917Z" fill="#F5CBD9"/>
<path d="M15.1095 34.6373C15.0864 34.6373 15.06 34.6307 15.0403 34.6175L13.2359 33.5752C13.17 33.5356 13.1469 33.4498 13.1831 33.3839C13.2227 33.3179 13.3085 33.2948 13.3745 33.3311L15.1788 34.3734C15.2448 34.413 15.2678 34.4988 15.2316 34.5648C15.2052 34.6109 15.159 34.6373 15.1095 34.6373Z" fill="#F5CBD9"/>
<path d="M26.6297 13.2224C26.5505 13.2224 26.4747 13.2191 26.3988 13.2092C25.7523 13.1333 25.1684 12.7243 24.9111 12.1669C24.6374 11.5731 24.7594 10.8243 25.2014 10.3823C25.6698 9.91392 26.4714 9.84136 26.986 10.224C27.4016 10.5341 27.5698 11.1113 27.3686 11.5368C27.2564 11.7743 27.009 11.9524 26.7287 12.0052C26.4747 12.0514 26.2339 11.9854 26.0656 11.8238C26.0096 11.771 26.0096 11.682 26.0623 11.6259C26.1151 11.5698 26.2042 11.5698 26.2603 11.6226C26.3625 11.7215 26.511 11.7578 26.6792 11.7281C26.8738 11.6919 27.0387 11.5731 27.1146 11.4148C27.263 11.1047 27.1311 10.6792 26.821 10.4483C26.412 10.1448 25.7754 10.2042 25.3993 10.5802C25.0365 10.9398 24.9375 11.5599 25.1651 12.0481C25.3828 12.5198 25.8809 12.8661 26.4285 12.9288C26.9464 12.9915 27.5137 12.8068 27.9458 12.4439C28.533 11.9459 28.8002 11.1443 28.599 10.4912C28.4538 10.0228 28.0778 9.61705 27.5731 9.37295C27.141 9.16514 26.6132 9.07278 26.0063 9.09587C25.0431 9.13216 24.0469 9.43893 23.0507 10.0063C22.2822 10.445 21.1903 11.1311 20.3459 11.9195C20.2931 11.9656 20.214 11.9689 20.1612 11.9261C20.1051 11.8799 20.0952 11.804 20.1315 11.7446C20.4647 11.2037 20.7022 10.7221 20.8638 10.2636C19.7456 11.2301 18.436 11.9953 17.0473 12.4901C16.4338 12.7078 15.6223 12.942 14.7911 12.8266C13.9335 12.7045 13.2111 12.18 12.9505 11.4906C12.7856 11.0552 12.8185 10.5407 13.0395 10.0854C13.2639 9.62694 13.6465 9.28719 14.0918 9.14865C14.6559 8.97383 15.2892 9.11896 15.6718 9.5082C16.0973 9.94361 16.1633 10.6462 15.8235 11.108C15.6454 11.3488 15.3486 11.5104 15.0286 11.5335C14.7284 11.5599 14.4447 11.4643 14.2501 11.2729C14.1941 11.2202 14.1941 11.1311 14.2468 11.075C14.2996 11.0189 14.3887 11.0189 14.4447 11.075C14.58 11.207 14.7812 11.2762 15.0022 11.2564C15.243 11.2367 15.464 11.1212 15.5927 10.9431C15.8499 10.5934 15.7906 10.036 15.4673 9.70281C15.1572 9.38615 14.6361 9.2707 14.171 9.41254C13.7982 9.52799 13.4783 9.81497 13.2869 10.2042C13.0989 10.5934 13.0692 11.0255 13.2078 11.3884C13.4354 11.9854 14.0687 12.4373 14.8274 12.5462C15.5993 12.655 16.3678 12.4307 16.9517 12.2229C18.4624 11.6853 19.8775 10.821 21.0419 9.71931C21.0881 9.67643 21.1541 9.66983 21.2101 9.69952C21.2629 9.72921 21.2893 9.79188 21.2761 9.85455C21.1738 10.2834 21.0089 10.7155 20.7681 11.1872C21.5004 10.6066 22.3053 10.1052 22.9122 9.76219C23.948 9.17175 24.987 8.85178 25.9964 8.81549C26.6495 8.7891 27.2235 8.89467 27.6951 9.12227C28.2724 9.39935 28.6979 9.86774 28.8694 10.4087C29.1069 11.1674 28.8002 12.091 28.1306 12.6583C27.7017 13.0179 27.1575 13.2224 26.6297 13.2224Z" fill="#F1DFC1"/>
<path d="M26.173 12.9123C26.0939 12.9123 26.018 12.909 25.9421 12.8991C25.7376 12.876 25.5364 12.8166 25.3451 12.7276C25.2758 12.6946 25.2461 12.6121 25.2791 12.5396C25.3121 12.4703 25.3946 12.4406 25.4671 12.4736C25.6321 12.5495 25.8036 12.5989 25.9784 12.622C26.4963 12.6814 27.0636 12.5 27.4957 12.1371C28.0829 11.6424 28.3501 10.8375 28.1489 10.1844C28.0532 9.87762 27.8553 9.59724 27.5617 9.35974C27.5023 9.31026 27.4925 9.2212 27.5419 9.16182C27.5914 9.10245 27.6805 9.09255 27.7398 9.14203C28.0763 9.41581 28.3039 9.73908 28.4161 10.1019C28.6536 10.8606 28.3468 11.7842 27.6772 12.3515C27.2451 12.7111 26.6975 12.9123 26.173 12.9123Z" fill="#F1DFC1"/>
<path d="M15.5035 12.8466C15.4969 12.8466 15.4903 12.8466 15.4837 12.8466C14.7679 12.7444 13.8641 12.276 13.5639 11.4909C13.3792 11.0027 13.4386 10.3958 13.7223 9.9109C13.9829 9.4656 14.3952 9.17862 14.8834 9.10935C14.9592 9.09616 15.0318 9.15223 15.0417 9.2281C15.0516 9.30396 14.9988 9.37654 14.923 9.38643C14.5205 9.44581 14.1808 9.6833 13.9631 10.0527C13.7223 10.4651 13.6695 10.9796 13.8245 11.3887C14.0851 12.0682 14.8867 12.4772 15.5233 12.5663C15.5992 12.5762 15.6519 12.6487 15.6421 12.7246C15.6322 12.7939 15.5728 12.8466 15.5035 12.8466Z" fill="#F1DFC1"/>
<path d="M29.6651 9.09277H17.843C17.7639 9.09277 17.7012 9.03008 17.7012 8.95092C17.7012 8.87175 17.7639 8.80908 17.843 8.80908H29.6651C29.7443 8.80908 29.807 8.87175 29.807 8.95092C29.807 9.03008 29.7443 9.09277 29.6651 9.09277Z" fill="#F1DFC1"/>
<path d="M26.4954 11.9854C26.8488 11.9854 27.1353 11.6989 27.1353 11.3455C27.1353 10.9921 26.8488 10.7056 26.4954 10.7056C26.142 10.7056 25.8555 10.9921 25.8555 11.3455C25.8555 11.6989 26.142 11.9854 26.4954 11.9854Z" fill="#F1DFC1"/>
<path d="M18.483 9.45243C18.483 9.80537 18.196 10.0924 17.8431 10.0924C17.4901 10.0924 17.2031 9.80537 17.2031 9.45243C17.2031 9.09948 17.4901 8.8125 17.8431 8.8125C18.196 8.8125 18.483 9.09948 18.483 9.45243Z" fill="#F1DFC1"/>
<path d="M14.7122 11.4678C15.0656 11.4678 15.3521 11.1813 15.3521 10.8279C15.3521 10.4745 15.0656 10.188 14.7122 10.188C14.3588 10.188 14.0723 10.4745 14.0723 10.8279C14.0723 11.1813 14.3588 11.4678 14.7122 11.4678Z" fill="#F1DFC1"/>
<path d="M39.3861 13.2224C38.8584 13.2224 38.3273 13.0245 37.8952 12.6583C37.2223 12.091 36.9188 11.1674 37.1563 10.4087C37.3245 9.86774 37.7533 9.39935 38.3306 9.12227C38.8056 8.89467 39.3762 8.7891 40.0294 8.81549C41.0387 8.85178 42.0778 9.17175 43.1135 9.76219C43.7205 10.1085 44.5253 10.6066 45.2576 11.1872C45.0168 10.7155 44.8519 10.2834 44.7496 9.85455C44.7364 9.79518 44.7628 9.7325 44.8156 9.69952C44.8684 9.66983 44.9376 9.67643 44.9838 9.71931C46.1482 10.821 47.5633 11.6853 49.0741 12.2229C49.6579 12.4307 50.4265 12.655 51.1983 12.5462C51.9537 12.4406 52.5904 11.9854 52.818 11.3884C52.9565 11.0255 52.9268 10.5934 52.7388 10.2042C52.5508 9.81497 52.2275 9.52799 51.8548 9.41254C51.3897 9.26741 50.8685 9.38285 50.5584 9.70281C50.2319 10.036 50.1758 10.5901 50.4331 10.9431C50.5617 11.1179 50.7827 11.2367 51.0235 11.2564C51.2412 11.2729 51.4457 11.207 51.581 11.075C51.6371 11.0222 51.7261 11.0222 51.7789 11.075C51.8317 11.1311 51.8317 11.2202 51.7756 11.2729C51.581 11.4643 51.2973 11.5599 50.9971 11.5335C50.6772 11.5071 50.3803 11.3488 50.2022 11.108C49.8624 10.6462 49.9317 9.94031 50.3539 9.5082C50.7365 9.11896 51.3699 8.97383 51.9339 9.14865C52.3792 9.28719 52.7619 9.62694 52.9862 10.0854C53.2105 10.5439 53.2435 11.0552 53.0752 11.4906C52.8114 12.18 52.089 12.7045 51.2346 12.8266C50.4034 12.9453 49.5919 12.7078 48.9784 12.4901C47.5897 11.9953 46.2802 11.2301 45.1619 10.2636C45.3236 10.7221 45.5611 11.2037 45.8942 11.7446C45.9305 11.804 45.9173 11.8832 45.8645 11.9261C45.8118 11.9689 45.7326 11.9689 45.6798 11.9195C44.8387 11.1311 43.7435 10.445 42.975 10.0063C41.9788 9.43893 40.9826 9.13216 40.0195 9.09587C39.4092 9.07278 38.8847 9.16844 38.4526 9.37295C37.9446 9.61705 37.5719 10.0228 37.4268 10.4912C37.2223 11.1443 37.4927 11.9459 38.0799 12.4439C38.512 12.8101 39.0827 12.9915 39.5972 12.9288C40.1481 12.8629 40.6462 12.5165 40.8639 12.0481C41.0915 11.5566 40.9925 10.9398 40.6297 10.5802C40.2537 10.2042 39.617 10.1481 39.208 10.4483C38.8946 10.6792 38.766 11.1047 38.9144 11.4148C38.9903 11.5731 39.1552 11.6919 39.3498 11.7281C39.5115 11.7578 39.6665 11.7182 39.7688 11.6226C39.8248 11.5698 39.9139 11.5698 39.9667 11.6259C40.0195 11.682 40.0195 11.771 39.9634 11.8238C39.7952 11.9854 39.5544 12.0514 39.3004 12.0052C39.02 11.9557 38.7759 11.7743 38.6604 11.5368C38.4559 11.1113 38.6242 10.5341 39.0431 10.224C39.5577 9.84136 40.3592 9.91392 40.8276 10.3823C41.2696 10.8243 41.3917 11.5731 41.1179 12.1669C40.8606 12.7243 40.2767 13.1333 39.6302 13.2092C39.5445 13.2191 39.4653 13.2224 39.3861 13.2224Z" fill="#F1DFC1"/>
<path d="M39.857 12.9127C39.3325 12.9127 38.7849 12.7115 38.3561 12.3486C37.6832 11.7813 37.3797 10.8577 37.6172 10.099C37.7294 9.73945 37.957 9.41618 38.2934 9.1391C38.3528 9.08962 38.4419 9.09952 38.4914 9.15889C38.5408 9.21827 38.5309 9.30733 38.4716 9.35681C38.178 9.59761 37.9834 9.87469 37.8877 10.1815C37.6832 10.8346 37.9537 11.6361 38.5408 12.1342C38.9729 12.5004 39.5436 12.6818 40.0582 12.6191C40.233 12.5993 40.4045 12.5498 40.5695 12.4707C40.6387 12.4377 40.7245 12.4674 40.7575 12.5366C40.7905 12.6059 40.7608 12.6917 40.6915 12.7247C40.5002 12.8137 40.299 12.8731 40.0945 12.8962C40.012 12.9094 39.9328 12.9127 39.857 12.9127Z" fill="#F1DFC1"/>
<path d="M50.5225 12.8465C50.4533 12.8465 50.3939 12.797 50.384 12.7245C50.3741 12.6486 50.4269 12.576 50.5027 12.5662C51.1394 12.4771 51.9409 12.0681 52.2015 11.3886C52.3598 10.9762 52.3071 10.465 52.063 10.0493C51.8453 9.67989 51.5055 9.44239 51.1031 9.38301C51.0272 9.37312 50.9745 9.30056 50.9843 9.22469C50.9942 9.14882 51.0668 9.09274 51.1427 9.10593C51.6309 9.1785 52.0432 9.46219 52.3038 9.9075C52.5875 10.3924 52.6501 10.996 52.4621 11.4875C52.1619 12.2759 51.2581 12.741 50.5423 12.8432C50.5357 12.8465 50.5291 12.8465 50.5225 12.8465Z" fill="#F1DFC1"/>
<path d="M48.185 9.09277H36.3596C36.2804 9.09277 36.2178 9.03008 36.2178 8.95092C36.2178 8.87175 36.2804 8.80908 36.3596 8.80908H48.1817C48.2609 8.80908 48.3236 8.87175 48.3236 8.95092C48.3236 9.03008 48.2609 9.09277 48.185 9.09277Z" fill="#F1DFC1"/>
<path d="M39.5315 11.9854C39.8849 11.9854 40.1714 11.6989 40.1714 11.3455C40.1714 10.9921 39.8849 10.7056 39.5315 10.7056C39.1781 10.7056 38.8916 10.9921 38.8916 11.3455C38.8916 11.6989 39.1781 11.9854 39.5315 11.9854Z" fill="#F1DFC1"/>
<path d="M47.5439 9.45243C47.5439 9.80537 47.8309 10.0924 48.1839 10.0924C48.5368 10.0924 48.8238 9.80537 48.8238 9.45243C48.8238 9.09948 48.5368 8.8125 48.1839 8.8125C47.8309 8.8125 47.5439 9.09948 47.5439 9.45243Z" fill="#F1DFC1"/>
<path d="M51.3138 11.4678C51.6672 11.4678 51.9537 11.1813 51.9537 10.8279C51.9537 10.4745 51.6672 10.188 51.3138 10.188C50.9603 10.188 50.6738 10.4745 50.6738 10.8279C50.6738 11.1813 50.9603 11.4678 51.3138 11.4678Z" fill="#F1DFC1"/>
<path d="M26.181 55.0983C26.1183 55.0983 26.0589 55.0983 25.9962 55.095C24.9869 55.0587 23.9478 54.7387 22.9121 54.1483C22.3051 53.8019 21.5003 53.3038 20.768 52.7233C21.0088 53.195 21.1737 53.6271 21.276 54.0559C21.2891 54.1153 21.2628 54.178 21.21 54.211C21.1572 54.2406 21.0879 54.234 21.0418 54.1912C19.8774 53.0894 18.4623 52.2252 16.9515 51.6875C16.3677 51.4797 15.5958 51.2554 14.8272 51.3643C14.0719 51.4731 13.4352 51.925 13.2076 52.5221C13.0691 52.8849 13.0988 53.317 13.2868 53.7063C13.4748 54.0955 13.7981 54.3825 14.1708 54.4979C14.6359 54.6431 15.1571 54.5276 15.4672 54.2077C15.7937 53.8745 15.8498 53.3203 15.5925 52.9674C15.4639 52.7893 15.2429 52.6738 15.0021 52.654C14.7844 52.6375 14.5798 52.7035 14.4446 52.8355C14.3885 52.8915 14.2995 52.8882 14.2467 52.8355C14.1939 52.7794 14.1939 52.6903 14.25 52.6375C14.4446 52.4462 14.7283 52.3506 15.0252 52.3769C15.3451 52.4033 15.642 52.5617 15.8201 52.8025C16.1599 53.2643 16.0939 53.9702 15.6684 54.4023C15.2857 54.7915 14.6524 54.9366 14.0884 54.7618C13.643 54.6233 13.2604 54.2835 13.0361 53.825C12.8118 53.3665 12.7788 52.8552 12.947 52.4198C13.2109 51.7304 13.9333 51.2059 14.7877 51.0839C15.6222 50.9651 16.4303 51.2026 17.0439 51.4204C18.4326 51.9151 19.7421 52.6804 20.8603 53.6469C20.6987 53.1884 20.4612 52.7068 20.1281 52.1658C20.0918 52.1065 20.105 52.0273 20.1577 51.9844C20.2105 51.9415 20.2897 51.9415 20.3425 51.991C21.1836 52.7794 22.2787 53.4655 23.0473 53.9042C24.0435 54.4715 25.0396 54.7783 26.0028 54.8146C26.6131 54.8377 27.1375 54.742 27.5697 54.5375C28.0776 54.2934 28.4504 53.8877 28.5955 53.4193C28.8 52.7662 28.5295 51.9646 27.9424 51.4665C27.5103 51.1004 26.9429 50.919 26.425 50.9816C25.8742 51.0476 25.3794 51.394 25.1617 51.8624C24.9341 52.3506 25.033 52.9707 25.3959 53.3302C25.7719 53.7063 26.4086 53.7623 26.8176 53.4622C27.1309 53.2313 27.2596 52.8058 27.1111 52.4957C27.0353 52.3374 26.8704 52.2186 26.6757 52.1823C26.5108 52.1526 26.3591 52.1922 26.2568 52.2879C26.2007 52.3407 26.1117 52.3407 26.0589 52.2846C26.0061 52.2285 26.0061 52.1394 26.0622 52.0867C26.2304 51.925 26.4712 51.8591 26.7252 51.9053C27.0056 51.9547 27.2497 52.1361 27.3651 52.3736C27.5697 52.7992 27.4014 53.3764 26.9825 53.6865C26.4679 54.0691 25.6664 53.9965 25.198 53.5281C24.756 53.0861 24.6339 52.3374 24.9077 51.7436C25.165 51.1861 25.7488 50.7771 26.3954 50.7013C26.9891 50.632 27.6356 50.8365 28.1271 51.2521C28.8 51.8195 29.1035 52.7431 28.866 53.5018C28.6978 54.0427 28.269 54.5111 27.6917 54.7882C27.2695 54.996 26.7582 55.0983 26.181 55.0983Z" fill="#F1DFC1"/>
<path d="M27.6458 54.8043C27.6062 54.8043 27.5634 54.7878 27.537 54.7515C27.4875 54.6922 27.4974 54.6031 27.5568 54.5536C27.8503 54.3128 28.045 54.0357 28.1439 53.729C28.3484 53.0759 28.0779 52.2743 27.4908 51.7762C27.0587 51.4101 26.4913 51.2286 25.9734 51.2913C25.7986 51.3111 25.6271 51.3606 25.4622 51.4398C25.3929 51.4727 25.3071 51.4431 25.2741 51.3738C25.2412 51.3045 25.2708 51.2188 25.3434 51.1858C25.5347 51.0967 25.7359 51.0373 25.9405 51.0143C26.5342 50.945 27.1807 51.1495 27.6722 51.5651C28.3451 52.1325 28.6486 53.0561 28.4111 53.8147C28.2989 54.1776 28.0713 54.4975 27.7349 54.7746C27.7085 54.7911 27.6755 54.8043 27.6458 54.8043Z" fill="#F1DFC1"/>
<path d="M14.9036 54.8044C14.897 54.8044 14.8904 54.8044 14.8838 54.8044C14.3957 54.7318 13.9833 54.4482 13.7227 54.0029C13.4391 53.518 13.3764 52.9143 13.5644 52.4228C13.8646 51.6345 14.7684 51.1694 15.4842 51.0671C15.56 51.0572 15.6326 51.11 15.6425 51.1859C15.6524 51.2617 15.5996 51.3343 15.5238 51.3442C14.8871 51.4333 14.0856 51.8423 13.825 52.5218C13.6667 52.9341 13.7194 53.4454 13.9635 53.8577C14.1812 54.2272 14.521 54.4647 14.9234 54.524C14.9993 54.5339 15.0521 54.6065 15.0422 54.6824C15.0323 54.7549 14.9729 54.8044 14.9036 54.8044Z" fill="#F1DFC1"/>
<path d="M29.6642 55.0981H17.842C17.7629 55.0981 17.7002 55.0355 17.7002 54.9563C17.7002 54.8771 17.7629 54.8145 17.842 54.8145H29.6642C29.7433 54.8145 29.806 54.8771 29.806 54.9563C29.806 55.0355 29.7433 55.0981 29.6642 55.0981Z" fill="#F1DFC1"/>
<path d="M26.4954 53.2047C26.8488 53.2047 27.1353 52.9182 27.1353 52.5647C27.1353 52.2113 26.8488 51.9248 26.4954 51.9248C26.142 51.9248 25.8555 52.2113 25.8555 52.5647C25.8555 52.9182 26.142 53.2047 26.4954 53.2047Z" fill="#F1DFC1"/>
<path d="M17.8431 55.0982C18.1965 55.0982 18.483 54.8117 18.483 54.4583C18.483 54.1049 18.1965 53.8184 17.8431 53.8184C17.4896 53.8184 17.2031 54.1049 17.2031 54.4583C17.2031 54.8117 17.4896 55.0982 17.8431 55.0982Z" fill="#F1DFC1"/>
<path d="M14.7122 53.7227C15.0656 53.7227 15.3521 53.4362 15.3521 53.0828C15.3521 52.7294 15.0656 52.4429 14.7122 52.4429C14.3588 52.4429 14.0723 52.7294 14.0723 53.0828C14.0723 53.4362 14.3588 53.7227 14.7122 53.7227Z" fill="#F1DFC1"/>
<path d="M39.8413 55.0981C39.2641 55.0981 38.7561 54.9958 38.3273 54.788C37.75 54.5109 37.3245 54.0425 37.153 53.5016C36.9155 52.7429 37.2222 51.8193 37.8919 51.2519C38.3899 50.8297 39.02 50.6318 39.6236 50.7011C40.2701 50.7769 40.854 51.1859 41.1113 51.7434C41.385 52.3372 41.263 53.0859 40.821 53.528C40.3493 53.9963 39.5477 54.0689 39.0365 53.6863C38.6208 53.3762 38.4526 52.799 38.6538 52.3734C38.766 52.1359 39.0101 51.9578 39.2937 51.9051C39.5477 51.8589 39.7885 51.9248 39.9568 52.0865C40.0128 52.1392 40.0128 52.2283 39.9601 52.2844C39.9073 52.3405 39.8182 52.3405 39.7621 52.2877C39.6599 52.1887 39.5082 52.1524 39.3432 52.1821C39.1486 52.2184 38.9837 52.3372 38.9078 52.4955C38.7594 52.8056 38.8913 53.2311 39.2014 53.462C39.6104 53.7654 40.247 53.7061 40.6231 53.33C40.9859 52.9705 41.0849 52.3537 40.8573 51.8622C40.6396 51.3905 40.1415 51.0441 39.5906 50.9814C39.0727 50.9221 38.5054 51.1035 38.0733 51.4663C37.4861 51.9611 37.2189 52.766 37.4201 53.4191C37.5653 53.8875 37.9413 54.2932 38.446 54.5373C38.8781 54.7451 39.4059 54.8375 40.0128 54.8144C40.976 54.7781 41.9722 54.4713 42.9684 53.904C43.7369 53.4653 44.8288 52.7792 45.6732 51.9908C45.726 51.9413 45.8051 51.9413 45.8579 51.9842C45.914 52.0304 45.9239 52.1063 45.8876 52.1656C45.5545 52.7066 45.317 53.1882 45.1553 53.6467C46.2702 52.6802 47.5831 51.9149 48.9718 51.4202C49.5853 51.2024 50.3968 50.9649 51.228 51.0837C52.0856 51.2057 52.808 51.7302 53.0686 52.4196C53.2335 52.855 53.2006 53.3696 52.9796 53.8248C52.7553 54.2833 52.3726 54.6231 51.9273 54.7616C51.3633 54.9364 50.7299 54.7913 50.3473 54.4021C49.9218 53.9667 49.8558 53.2641 50.1956 52.8023C50.3737 52.5615 50.6673 52.3998 50.9905 52.3767C51.2907 52.3537 51.5744 52.4493 51.769 52.6373C51.825 52.6901 51.8251 52.7792 51.7723 52.8353C51.7195 52.8913 51.6304 52.8913 51.5744 52.8353C51.4391 52.7033 51.2346 52.634 51.0169 52.6538C50.7761 52.6736 50.5551 52.7891 50.4265 52.9672C50.1692 53.3168 50.2285 53.8743 50.5518 54.2075C50.8619 54.5241 51.383 54.6396 51.8481 54.4977C52.2209 54.3823 52.5408 54.0953 52.7322 53.7061C52.9202 53.3168 52.9499 52.8847 52.8113 52.5219C52.5837 51.9248 51.9504 51.4729 51.1917 51.3641C50.4232 51.2552 49.6513 51.4795 49.0674 51.6873C47.5567 52.225 46.1416 53.0892 44.9772 54.191C44.931 54.2338 44.8651 54.2404 44.809 54.2108C44.7562 54.1811 44.7298 54.1184 44.743 54.0557C44.8453 53.6269 45.0102 53.1948 45.251 52.7231C44.5187 53.3036 43.7138 53.805 43.1069 54.1481C42.0712 54.7385 41.0321 55.0552 40.0227 55.0948C39.9634 55.0981 39.904 55.0981 39.8413 55.0981Z" fill="#F1DFC1"/>
<path d="M38.3811 54.8047C38.3481 54.8047 38.3185 54.7948 38.2921 54.7717C37.9556 54.4979 37.728 54.1747 37.6159 53.8118C37.3784 53.0531 37.6851 52.1295 38.3547 51.5622C38.8462 51.1466 39.4961 50.9421 40.0865 51.0113C40.291 51.0344 40.4922 51.0938 40.6835 51.1829C40.7528 51.2158 40.7825 51.2983 40.7528 51.3709C40.7198 51.4401 40.6374 51.4698 40.5648 51.4368C40.3999 51.361 40.2283 51.3115 40.0535 51.2884C39.5356 51.2257 38.9683 51.4104 38.5362 51.7733C37.949 52.2681 37.6818 53.0729 37.883 53.726C37.9787 54.0328 38.1766 54.3132 38.4669 54.5507C38.5263 54.6002 38.5362 54.6892 38.4867 54.7486C38.4603 54.7849 38.4207 54.8047 38.3811 54.8047Z" fill="#F1DFC1"/>
<path d="M51.118 54.8044C51.0487 54.8044 50.9894 54.7549 50.9795 54.6857C50.9696 54.6098 51.0223 54.5372 51.0982 54.5273C51.5006 54.4679 51.8404 54.2305 52.0581 53.861C52.2989 53.4487 52.3517 52.9341 52.1966 52.5218C51.9361 51.8423 51.1345 51.4333 50.4979 51.3442C50.422 51.3343 50.3692 51.2617 50.3791 51.1859C50.389 51.11 50.4616 51.0572 50.5375 51.0671C51.2763 51.1727 52.1571 51.6312 52.4572 52.4228C52.6419 52.9143 52.5826 53.518 52.2989 54.0029C52.0383 54.4482 51.626 54.7351 51.1378 54.8044C51.1312 54.8044 51.1246 54.8044 51.118 54.8044Z" fill="#F1DFC1"/>
<path d="M48.184 55.0981H36.3586C36.2795 55.0981 36.2168 55.0355 36.2168 54.9563C36.2168 54.8771 36.2795 54.8145 36.3586 54.8145H48.1808C48.2599 54.8145 48.3226 54.8771 48.3226 54.9563C48.3226 55.0355 48.2599 55.0981 48.184 55.0981Z" fill="#F1DFC1"/>
<path d="M39.5306 53.2047C39.884 53.2047 40.1705 52.9182 40.1705 52.5647C40.1705 52.2113 39.884 51.9248 39.5306 51.9248C39.1771 51.9248 38.8906 52.2113 38.8906 52.5647C38.8906 52.9182 39.1771 53.2047 39.5306 53.2047Z" fill="#F1DFC1"/>
<path d="M48.1829 55.0982C48.5363 55.0982 48.8228 54.8117 48.8228 54.4583C48.8228 54.1049 48.5363 53.8184 48.1829 53.8184C47.8295 53.8184 47.543 54.1049 47.543 54.4583C47.543 54.8117 47.8295 55.0982 48.1829 55.0982Z" fill="#F1DFC1"/>
<path d="M51.3128 53.7227C51.6662 53.7227 51.9527 53.4362 51.9527 53.0828C51.9527 52.7294 51.6662 52.4429 51.3128 52.4429C50.9594 52.4429 50.6729 52.7294 50.6729 53.0828C50.6729 53.4362 50.9594 53.7227 51.3128 53.7227Z" fill="#F1DFC1"/>
<path d="M54.0229 27.8922C53.3994 27.8922 52.7463 27.592 52.3076 27.0742C51.8854 26.5761 51.6875 25.946 51.7567 25.3424C51.8326 24.6959 52.2416 24.112 52.7991 23.8547C53.3928 23.581 54.1416 23.703 54.5836 24.145C55.052 24.6167 55.1246 25.4183 54.7419 25.9328C54.4319 26.3485 53.8546 26.5167 53.4291 26.3155C53.1916 26.2033 53.0135 25.9592 52.9607 25.6756C52.9145 25.4216 52.9805 25.1808 53.1421 25.0125C53.1949 24.9565 53.284 24.9565 53.3401 25.0092C53.3961 25.062 53.3961 25.1511 53.3433 25.2072C53.2444 25.3094 53.2081 25.4611 53.2378 25.6261C53.2741 25.8207 53.3928 25.9856 53.5512 26.0615C53.8612 26.2099 54.2867 26.078 54.5176 25.7679C54.8211 25.3589 54.7617 24.7223 54.3857 24.3462C54.0262 23.9834 53.4093 23.8844 52.9178 24.112C52.4461 24.3297 52.0998 24.8278 52.0371 25.3787C51.9777 25.8966 52.1592 26.4639 52.522 26.896C53.0168 27.4832 53.8216 27.7537 54.4748 27.5491C54.9399 27.404 55.3489 27.028 55.593 26.5233C55.8008 26.0912 55.8931 25.5634 55.8701 24.9565C55.8338 23.9933 55.527 22.9971 54.9597 22.0009C54.5209 21.2324 53.8348 20.1405 53.0465 19.2961C52.997 19.2433 52.997 19.1642 53.0399 19.1114C53.0828 19.0586 53.1619 19.0454 53.2213 19.0817C53.7623 19.4149 54.2439 19.6523 54.7024 19.814C53.7359 18.6958 52.9706 17.3862 52.4758 15.9975C52.2581 15.384 52.0206 14.5725 52.1394 13.7413C52.2614 12.887 52.7859 12.1613 53.4753 11.9007C53.9107 11.7358 54.422 11.7687 54.8805 11.9897C55.339 12.2141 55.6787 12.5967 55.8173 13.042C55.9921 13.6061 55.847 14.2394 55.4577 14.622C55.0223 15.0475 54.3197 15.1135 53.8579 14.7738C53.6171 14.5956 53.4555 14.2987 53.4324 13.9788C53.4093 13.6786 53.505 13.3949 53.693 13.2036C53.7491 13.1475 53.8348 13.1475 53.8909 13.2003C53.947 13.2531 53.947 13.3422 53.8909 13.3982C53.759 13.5335 53.6897 13.738 53.7095 13.9557C53.7293 14.1965 53.8447 14.4175 54.0229 14.5461C54.3725 14.8034 54.93 14.7441 55.2631 14.4208C55.5798 14.1107 55.6952 13.5896 55.5501 13.1245C55.4346 12.7517 55.1477 12.4318 54.7584 12.2404C54.3692 12.0524 53.9404 12.0227 53.5742 12.1613C52.9772 12.3889 52.5253 13.0222 52.4164 13.7809C52.3076 14.5527 52.5319 15.3213 52.7397 15.9052C53.2774 17.4159 54.1416 18.831 55.2433 19.9954C55.2862 20.0416 55.2928 20.1075 55.2631 20.1636C55.2334 20.2164 55.1675 20.2428 55.1081 20.2296C54.6793 20.1273 54.2472 19.9624 53.7755 19.7216C54.356 20.4539 54.8574 21.2588 55.2004 21.8657C55.7909 22.9015 56.1109 23.9405 56.1471 24.9499C56.1702 25.603 56.068 26.1769 55.8404 26.6486C55.5633 27.2259 55.0949 27.6547 54.5539 27.8229C54.3857 27.8658 54.2043 27.8922 54.0229 27.8922Z" fill="#F1DFC1"/>
<path d="M54.3344 27.4333C53.7109 27.4333 53.0578 27.1331 52.6191 26.6153C52.1969 26.1172 51.999 25.4838 52.0683 24.8835C52.0913 24.679 52.1507 24.4778 52.2398 24.2865C52.2728 24.2172 52.3552 24.1875 52.4278 24.2205C52.4971 24.2535 52.5268 24.3359 52.4938 24.4085C52.4179 24.5734 52.3684 24.745 52.3486 24.9198C52.286 25.4377 52.4707 26.005 52.8335 26.4371C53.3283 27.0243 54.1332 27.2915 54.7863 27.0903C55.0931 26.9946 55.3701 26.7967 55.6109 26.5064C55.6604 26.447 55.7495 26.4372 55.8088 26.4866C55.8682 26.5361 55.8781 26.6252 55.8286 26.6845C55.5516 27.021 55.2316 27.2486 54.8688 27.3607C54.6972 27.4069 54.5158 27.4333 54.3344 27.4333Z" fill="#F1DFC1"/>
<path d="M52.2638 14.5888C52.2572 14.5888 52.2506 14.5888 52.244 14.5888C52.1681 14.5789 52.1153 14.5063 52.1252 14.4305C52.2275 13.7147 52.6926 12.8109 53.4809 12.5107C53.9724 12.3227 54.5761 12.3854 55.061 12.669C55.5063 12.9296 55.7932 13.3419 55.8625 13.8301C55.8724 13.906 55.8196 13.9786 55.7438 13.9885C55.6679 13.9984 55.5953 13.9456 55.5854 13.8697C55.526 13.4673 55.2886 13.1275 54.9191 12.9098C54.5068 12.669 53.9922 12.6163 53.5799 12.7713C52.9004 13.0319 52.4914 13.8334 52.4023 14.47C52.3924 14.536 52.333 14.5888 52.2638 14.5888Z" fill="#F1DFC1"/>
<path d="M56.012 28.7498C55.9328 28.7498 55.8701 28.6872 55.8701 28.608V16.7859C55.8701 16.7067 55.9328 16.644 56.012 16.644C56.0911 16.644 56.1538 16.7067 56.1538 16.7859V28.608C56.1538 28.6872 56.0911 28.7498 56.012 28.7498Z" fill="#F1DFC1"/>
<path d="M53.6223 26.0777C53.2694 26.0777 52.9824 25.7907 52.9824 25.4378C52.9824 25.0848 53.2694 24.7979 53.6223 24.7979C53.9753 24.7979 54.2623 25.0848 54.2623 25.4378C54.2623 25.7907 53.9753 26.0777 53.6223 26.0777Z" fill="#F1DFC1"/>
<path d="M55.5149 17.4258C55.8683 17.4258 56.1549 17.1393 56.1549 16.7859C56.1549 16.4325 55.8683 16.146 55.5149 16.146C55.1615 16.146 54.875 16.4325 54.875 16.7859C54.875 17.1393 55.1615 17.4258 55.5149 17.4258Z" fill="#F1DFC1"/>
<path d="M54.1389 14.2955C54.4924 14.2955 54.7789 14.009 54.7789 13.6556C54.7789 13.3021 54.4924 13.0156 54.1389 13.0156C53.7855 13.0156 53.499 13.3021 53.499 13.6556C53.499 14.009 53.7855 14.2955 54.1389 14.2955Z" fill="#F1DFC1"/>
<path d="M54.0607 52.1234C53.8595 52.1234 53.6616 52.0871 53.4802 52.0179C52.7908 51.754 52.2663 51.0316 52.1443 50.1772C52.0255 49.346 52.263 48.5346 52.4807 47.921C52.9755 46.5323 53.7408 45.2228 54.7073 44.1046C54.2487 44.2662 53.7672 44.5037 53.2262 44.8369C53.1668 44.8731 53.0877 44.8599 53.0448 44.8072C52.9986 44.7544 53.0019 44.6752 53.0514 44.6224C53.8397 43.7813 54.5258 42.6862 54.9645 41.9176C55.5319 40.9214 55.8387 39.9253 55.875 38.9621C55.898 38.3551 55.8024 37.8274 55.5979 37.3952C55.3538 36.8873 54.948 36.5145 54.4796 36.3694C53.8265 36.1649 53.025 36.4354 52.5269 37.0225C52.1608 37.4546 51.9793 38.022 52.042 38.5399C52.108 39.0907 52.4543 39.5855 52.9227 39.8065C53.4109 40.0341 54.031 39.9352 54.3906 39.5723C54.7666 39.1963 54.826 38.5597 54.5225 38.1506C54.2916 37.8373 53.8661 37.7086 53.5561 37.8571C53.3977 37.9329 53.279 38.0979 53.2427 38.2925C53.213 38.4574 53.2526 38.6091 53.3482 38.7114C53.401 38.7675 53.401 38.8565 53.3449 38.9093C53.2889 38.9621 53.1998 38.9621 53.147 38.906C52.9854 38.7378 52.9194 38.497 52.9656 38.243C53.0151 37.9626 53.1965 37.7185 53.434 37.6031C53.8595 37.3985 54.4368 37.5668 54.7468 37.9857C55.1295 38.5003 55.0569 39.3018 54.5885 39.7735C54.1465 40.2155 53.3977 40.3376 52.804 40.0638C52.2465 39.8065 51.8375 39.2227 51.7616 38.5761C51.6891 37.9758 51.8903 37.3425 52.3125 36.8444C52.8798 36.1715 53.8034 35.868 54.5621 36.1055C55.1031 36.2737 55.5715 36.7025 55.8486 37.2798C56.0762 37.7548 56.1784 38.3255 56.1553 38.9786C56.119 39.9879 55.7991 41.027 55.2086 42.0627C54.8623 42.6697 54.3642 43.4745 53.7837 44.2068C54.2554 43.966 54.6875 43.8011 55.1163 43.6988C55.1757 43.6824 55.2383 43.712 55.2713 43.7648C55.301 43.8176 55.2944 43.8869 55.2515 43.933C54.1498 45.0974 53.2856 46.5125 52.7479 48.0233C52.5401 48.6071 52.3158 49.3757 52.4246 50.1476C52.5302 50.9029 52.9854 51.5396 53.5824 51.7672C53.9453 51.9057 54.3774 51.876 54.7666 51.688C55.1559 51.5 55.4428 51.1767 55.5583 50.804C55.7034 50.3389 55.588 49.8177 55.2713 49.5076C54.9382 49.1811 54.384 49.125 54.031 49.3823C53.8562 49.5109 53.7375 49.7319 53.7177 49.9727C53.7012 50.1904 53.7672 50.395 53.8991 50.5302C53.9519 50.5863 53.9519 50.6753 53.8991 50.7281C53.843 50.7809 53.754 50.7809 53.7012 50.7248C53.5099 50.5302 53.4142 50.2465 53.4406 49.9464C53.467 49.6264 53.6253 49.3295 53.8661 49.1514C54.3279 48.8116 55.0338 48.8776 55.4659 49.3031C55.8552 49.6858 56.0003 50.3191 55.8255 50.8831C55.6869 51.3285 55.3472 51.7111 54.8887 51.9354C54.6215 52.0574 54.3378 52.1234 54.0607 52.1234Z" fill="#F1DFC1"/>
<path d="M52.3687 39.7075C52.316 39.7075 52.2665 39.6778 52.2434 39.6284C52.1543 39.437 52.095 39.2358 52.0719 39.0313C52.0026 38.4376 52.2071 37.791 52.6227 37.2996C53.1901 36.6299 54.1137 36.3232 54.8724 36.5607C55.2319 36.6728 55.5552 36.9004 55.8322 37.2369C55.8817 37.2963 55.8718 37.3853 55.8125 37.4348C55.7531 37.4843 55.664 37.4744 55.6145 37.415C55.3737 37.1214 55.0967 36.9268 54.7899 36.8312C54.1368 36.6267 53.3352 36.8971 52.8371 37.4843C52.471 37.9164 52.2896 38.4838 52.3522 39.0016C52.372 39.1765 52.4215 39.348 52.5007 39.5129C52.5337 39.5822 52.504 39.6679 52.4347 39.7009C52.4083 39.7042 52.3885 39.7075 52.3687 39.7075Z" fill="#F1DFC1"/>
<path d="M54.0807 51.5098C53.8729 51.5098 53.6651 51.4735 53.477 51.4043C52.6887 51.1041 52.2236 50.2003 52.1213 49.4845C52.1114 49.4086 52.1642 49.336 52.2401 49.3261C52.3159 49.313 52.3885 49.369 52.3984 49.4449C52.4875 50.0815 52.8965 50.8831 53.576 51.1437C53.9883 51.302 54.4996 51.2492 54.9152 51.0051C55.2846 50.7874 55.5221 50.4477 55.5815 50.0452C55.5914 49.9694 55.664 49.9133 55.7399 49.9265C55.8157 49.9364 55.8685 50.009 55.8586 50.0848C55.786 50.573 55.5024 50.9853 55.057 51.2459C54.7602 51.4207 54.4171 51.5098 54.0807 51.5098Z" fill="#F1DFC1"/>
<path d="M56.0129 47.2679C55.9338 47.2679 55.8711 47.2052 55.8711 47.126V35.3039C55.8711 35.2248 55.9338 35.1621 56.0129 35.1621C56.0921 35.1621 56.1548 35.2248 56.1548 35.3039V47.126C56.1548 47.2052 56.0921 47.2679 56.0129 47.2679Z" fill="#F1DFC1"/>
<path d="M53.6223 37.834C53.2694 37.834 52.9824 38.121 52.9824 38.4739C52.9824 38.8269 53.2694 39.1138 53.6223 39.1138C53.9753 39.1138 54.2623 38.8269 54.2623 38.4739C54.2623 38.121 53.9753 37.834 53.6223 37.834Z" fill="#F1DFC1"/>
<path d="M55.5149 47.7662C55.8683 47.7662 56.1549 47.4797 56.1549 47.1262C56.1549 46.7728 55.8683 46.4863 55.5149 46.4863C55.1615 46.4863 54.875 46.7728 54.875 47.1262C54.875 47.4797 55.1615 47.7662 55.5149 47.7662Z" fill="#F1DFC1"/>
<path d="M54.1409 50.8966C54.4943 50.8966 54.7808 50.61 54.7808 50.2566C54.7808 49.9032 54.4943 49.6167 54.1409 49.6167C53.7875 49.6167 53.501 49.9032 53.501 50.2566C53.501 50.61 53.7875 50.8966 54.1409 50.8966Z" fill="#F1DFC1"/>
<path d="M12.0019 27.8918C11.8171 27.8918 11.639 27.8654 11.4675 27.8126C10.9265 27.6444 10.4581 27.2156 10.181 26.6383C9.95345 26.1634 9.85119 25.5927 9.87428 24.9396C9.91057 23.9302 10.2305 22.8912 10.821 21.8554C11.1673 21.2485 11.6654 20.4436 12.246 19.7113C11.7776 19.9521 11.3422 20.1171 10.9133 20.2193C10.854 20.2325 10.7913 20.2061 10.7583 20.1533C10.7286 20.1006 10.7352 20.0313 10.7781 19.9851C11.8798 18.8207 12.744 17.4056 13.2817 15.8949C13.4895 15.311 13.7138 14.5424 13.605 13.7706C13.4961 13.0152 13.0442 12.3786 12.4472 12.151C12.0843 12.0124 11.6522 12.0421 11.263 12.2301C10.8738 12.4182 10.5868 12.7414 10.4713 13.1142C10.3262 13.5793 10.4449 14.1004 10.7616 14.4105C11.0948 14.7371 11.6489 14.7931 12.0019 14.5359C12.18 14.4072 12.2954 14.1862 12.3152 13.9454C12.3317 13.7277 12.2657 13.5232 12.1338 13.388C12.081 13.3319 12.081 13.2428 12.1338 13.19C12.1899 13.1373 12.2789 13.1373 12.3317 13.1933C12.523 13.3879 12.6187 13.6716 12.5923 13.9685C12.5659 14.2885 12.4076 14.5853 12.1635 14.7635C11.7017 15.1032 10.9958 15.0373 10.5637 14.6117C10.1745 14.2291 10.0293 13.5958 10.2041 13.0317C10.3427 12.5864 10.6824 12.2038 11.1409 11.9795C11.5994 11.7552 12.1107 11.7222 12.5461 11.8904C13.2355 12.1543 13.76 12.8767 13.8821 13.731C14.0008 14.5622 13.7633 15.3737 13.5456 15.9872C13.0541 17.3759 12.2888 18.6855 11.3191 19.8037C11.7776 19.6421 12.2592 19.4046 12.8001 19.0714C12.8595 19.0351 12.9387 19.0483 12.9815 19.1011C13.0277 19.1539 13.0244 19.233 12.9749 19.2858C12.1866 20.127 11.5005 21.2221 11.0618 21.9907C10.4944 22.9868 10.1876 23.983 10.1514 24.9462C10.1283 25.5531 10.2239 26.0809 10.4284 26.513C10.6725 27.021 11.0783 27.3937 11.5467 27.5389C12.1998 27.7434 13.0013 27.4729 13.4994 26.8857C13.8656 26.4536 14.047 25.8863 13.9843 25.3684C13.9183 24.8175 13.572 24.3227 13.1036 24.1017C12.6121 23.8741 11.9953 23.9731 11.6357 24.3359C11.2597 24.712 11.2036 25.3486 11.5038 25.7576C11.738 26.071 12.1602 26.1996 12.4703 26.0512C12.6286 25.9753 12.7473 25.8104 12.7836 25.6158C12.8133 25.4509 12.7737 25.2991 12.6781 25.1969C12.6253 25.1408 12.6253 25.0517 12.6814 24.999C12.7374 24.9462 12.8265 24.9462 12.8793 25.0023C13.0409 25.1705 13.1069 25.4113 13.0607 25.6653C13.0112 25.9456 12.8298 26.1897 12.5923 26.3052C12.1668 26.5097 11.5895 26.3415 11.2795 25.9226C10.8968 25.408 10.9694 24.6064 11.4378 24.1347C11.8798 23.6927 12.6286 23.5707 13.2223 23.8445C13.7798 24.1017 14.1888 24.6856 14.2647 25.3321C14.3373 25.9358 14.136 26.5658 13.7138 27.0639C13.2784 27.5917 12.6253 27.8918 12.0019 27.8918Z" fill="#F1DFC1"/>
<path d="M11.692 27.4331C11.5105 27.4331 11.3291 27.4067 11.1576 27.3539C10.7947 27.2418 10.4748 27.0142 10.1977 26.6777C10.1482 26.6183 10.1581 26.5293 10.2175 26.4798C10.2769 26.4303 10.3659 26.4402 10.4154 26.4996C10.6562 26.7932 10.9333 26.9878 11.24 27.0834C11.8932 27.288 12.6947 27.0208 13.1928 26.4303C13.559 25.9982 13.7404 25.4308 13.6777 24.913C13.6579 24.7381 13.6084 24.5666 13.5293 24.4017C13.4963 24.3324 13.526 24.2467 13.5985 24.2137C13.6678 24.1807 13.7536 24.2104 13.7866 24.2796C13.8756 24.471 13.935 24.6722 13.9581 24.8767C14.0307 25.477 13.8294 26.1104 13.4072 26.6084C12.9685 27.1329 12.3154 27.4331 11.692 27.4331Z" fill="#F1DFC1"/>
<path d="M13.763 14.5887C13.6938 14.5887 13.6344 14.5392 13.6245 14.4666C13.5354 13.83 13.1264 13.0285 12.4469 12.7679C12.0346 12.6128 11.5233 12.6656 11.1077 12.9064C10.7382 13.1241 10.5007 13.4639 10.4414 13.8663C10.4315 13.9422 10.3589 13.9949 10.283 13.985C10.2072 13.9751 10.1544 13.9026 10.1643 13.8267C10.2368 13.3385 10.5205 12.9262 10.9658 12.6656C11.4507 12.3819 12.0544 12.3193 12.5458 12.5073C13.3342 12.8075 13.7993 13.7113 13.9016 14.4271C13.9115 14.5029 13.8587 14.5755 13.7828 14.5854C13.7762 14.5887 13.7696 14.5887 13.763 14.5887Z" fill="#F1DFC1"/>
<path d="M10.0081 28.7493C9.92889 28.7493 9.86621 28.6867 9.86621 28.6075V16.7854C9.86621 16.7062 9.92889 16.6436 10.0081 16.6436C10.0872 16.6436 10.1499 16.7062 10.1499 16.7854V28.6075C10.1499 28.6867 10.0872 28.7493 10.0081 28.7493Z" fill="#F1DFC1"/>
<path d="M12.4026 26.0777C12.756 26.0777 13.0425 25.7912 13.0425 25.4378C13.0425 25.0843 12.756 24.7979 12.4026 24.7979C12.0492 24.7979 11.7627 25.0843 11.7627 25.4378C11.7627 25.7912 12.0492 26.0777 12.4026 26.0777Z" fill="#F1DFC1"/>
<path d="M10.511 17.4254C10.8644 17.4254 11.1509 17.1389 11.1509 16.7854C11.1509 16.432 10.8644 16.1455 10.511 16.1455C10.1576 16.1455 9.87109 16.432 9.87109 16.7854C9.87109 17.1389 10.1576 17.4254 10.511 17.4254Z" fill="#F1DFC1"/>
<path d="M11.8821 14.295C12.2355 14.295 12.522 14.0085 12.522 13.6551C12.522 13.3016 12.2355 13.0151 11.8821 13.0151C11.5287 13.0151 11.2422 13.3016 11.2422 13.6551C11.2422 14.0085 11.5287 14.295 11.8821 14.295Z" fill="#F1DFC1"/>
<path d="M11.9656 52.1233C11.6885 52.1233 11.4048 52.0573 11.1409 51.9287C10.6824 51.7044 10.3427 51.3217 10.2041 50.8764C10.0293 50.3124 10.1745 49.679 10.5637 49.2964C10.9991 48.8709 11.7017 48.8049 12.1635 49.1447C12.4043 49.3228 12.5659 49.6197 12.5923 49.9396C12.6154 50.2398 12.5197 50.5235 12.3317 50.7181C12.2789 50.7742 12.1899 50.7742 12.1338 50.7214C12.0777 50.6686 12.0777 50.5795 12.1338 50.5235C12.2657 50.3882 12.335 50.1837 12.3152 49.966C12.2954 49.7252 12.18 49.5042 12.0019 49.3756C11.6522 49.1183 11.0948 49.1776 10.7616 49.5009C10.4449 49.811 10.3295 50.3321 10.4713 50.7972C10.5868 51.17 10.8738 51.49 11.263 51.6813C11.6522 51.8693 12.0843 51.899 12.4472 51.7604C13.0442 51.5328 13.4961 50.8995 13.605 50.1408C13.7138 49.369 13.4895 48.6004 13.2817 48.0165C12.744 46.5058 11.8798 45.0907 10.7781 43.9263C10.7352 43.8801 10.7286 43.8142 10.7583 43.7581C10.788 43.7053 10.854 43.6756 10.9133 43.6921C11.3422 43.7944 11.7743 43.9593 12.246 44.2001C11.6654 43.4678 11.1673 42.6629 10.821 42.056C10.2305 41.0202 9.91057 39.9812 9.87428 38.9718C9.85119 38.3187 9.95345 37.7448 10.181 37.2731C10.4581 36.6958 10.9265 36.267 11.4675 36.0988C12.2229 35.8613 13.1498 36.168 13.7171 36.8377C14.1393 37.3357 14.3373 37.9691 14.268 38.5694C14.1921 39.2159 13.7831 39.7998 13.2256 40.0571C12.6319 40.3308 11.8831 40.2088 11.4411 39.7668C10.9727 39.2951 10.9001 38.4935 11.2828 37.979C11.5928 37.5633 12.1701 37.3951 12.5956 37.5963C12.8331 37.7085 13.0112 37.9526 13.064 38.2363C13.1102 38.4902 13.0442 38.731 12.8826 38.8993C12.8298 38.9554 12.7407 38.9553 12.6847 38.9026C12.6286 38.8498 12.6286 38.7607 12.6814 38.7046C12.7803 38.6024 12.8166 38.4507 12.7869 38.2857C12.7506 38.0911 12.6319 37.9262 12.4736 37.8503C12.1635 37.7019 11.738 37.8338 11.5071 38.1472C11.2036 38.5529 11.263 39.1928 11.639 39.5689C11.9986 39.9317 12.6154 40.0307 13.1069 39.8031C13.5786 39.5854 13.9249 39.0873 13.9876 38.5364C14.047 38.0185 13.8656 37.4512 13.5027 37.0191C13.0079 36.4319 12.2031 36.1647 11.55 36.3659C11.0849 36.5111 10.6758 36.8838 10.4317 37.3918C10.2239 37.8239 10.1316 38.3517 10.1547 38.9586C10.1909 39.9218 10.4977 40.918 11.0651 41.9142C11.5038 42.6827 12.1899 43.7779 12.9782 44.619C13.0277 44.6718 13.0277 44.7509 12.9848 44.8037C12.942 44.8565 12.8628 44.8697 12.8034 44.8334C12.2625 44.5003 11.7809 44.2628 11.3224 44.1011C12.2888 45.2193 13.0541 46.5289 13.5489 47.9176C13.7666 48.5311 14.0041 49.3426 13.8854 50.1738C13.7633 51.0315 13.2388 51.7538 12.5494 52.0144C12.3614 52.087 12.1668 52.1233 11.9656 52.1233Z" fill="#F1DFC1"/>
<path d="M13.6579 39.7078C13.6381 39.7078 13.6183 39.7045 13.5985 39.6946C13.5293 39.6616 13.4996 39.5791 13.5293 39.5066C13.6051 39.3416 13.6546 39.1701 13.6777 38.9953C13.7404 38.4774 13.5557 37.91 13.1928 37.4779C12.698 36.8908 11.8932 36.6236 11.24 36.8248C10.9333 36.9205 10.6529 37.1184 10.4154 37.4087C10.3659 37.468 10.2769 37.4779 10.2175 37.4285C10.1581 37.379 10.1482 37.2899 10.1977 37.2305C10.4715 36.8941 10.7947 36.6665 11.1576 36.5543C11.9163 36.3168 12.8399 36.6236 13.4072 37.2932C13.8228 37.7847 14.0274 38.4312 13.9581 39.025C13.935 39.2295 13.8756 39.4307 13.7866 39.622C13.7602 39.6781 13.7107 39.7078 13.6579 39.7078Z" fill="#F1DFC1"/>
<path d="M11.9422 51.5096C11.6058 51.5096 11.2627 51.4205 10.9658 51.2457C10.5205 50.9851 10.2335 50.5728 10.1643 50.0846C10.1544 50.0087 10.2072 49.9361 10.283 49.9262C10.3589 49.913 10.4315 49.9691 10.4414 50.045C10.5007 50.4474 10.7382 50.7872 11.1077 51.0049C11.52 51.2457 12.0346 51.2985 12.4469 51.1434C13.1264 50.8828 13.5354 50.0813 13.6245 49.4446C13.6344 49.3688 13.7102 49.316 13.7828 49.3259C13.8587 49.3358 13.9115 49.4084 13.9016 49.4842C13.7993 50.2 13.3342 51.1038 12.5458 51.404C12.3578 51.4766 12.1533 51.5096 11.9422 51.5096Z" fill="#F1DFC1"/>
<path d="M10.0081 47.2679C9.92889 47.2679 9.86621 47.2052 9.86621 47.126V35.3039C9.86621 35.2248 9.92889 35.1621 10.0081 35.1621C10.0872 35.1621 10.1499 35.2248 10.1499 35.3039V47.126C10.1499 47.2052 10.0872 47.2679 10.0081 47.2679Z" fill="#F1DFC1"/>
<path d="M12.4026 39.1138C12.756 39.1138 13.0425 38.8273 13.0425 38.4739C13.0425 38.1205 12.756 37.834 12.4026 37.834C12.0492 37.834 11.7627 38.1205 11.7627 38.4739C11.7627 38.8273 12.0492 39.1138 12.4026 39.1138Z" fill="#F1DFC1"/>
<path d="M10.511 47.7662C10.8644 47.7662 11.1509 47.4797 11.1509 47.1262C11.1509 46.7728 10.8644 46.4863 10.511 46.4863C10.1576 46.4863 9.87109 46.7728 9.87109 47.1262C9.87109 47.4797 10.1576 47.7662 10.511 47.7662Z" fill="#F1DFC1"/>
<path d="M11.8821 50.8966C12.2355 50.8966 12.522 50.61 12.522 50.2566C12.522 49.9032 12.2355 49.6167 11.8821 49.6167C11.5287 49.6167 11.2422 49.9032 11.2422 50.2566C11.2422 50.61 11.5287 50.8966 11.8821 50.8966Z" fill="#F1DFC1"/>
<path d="M56.6946 55.7779H9.33031C9.25115 55.7779 9.18848 55.7152 9.18848 55.636V8.27172C9.18848 8.19255 9.25115 8.12988 9.33031 8.12988H56.6946C56.7738 8.12988 56.8365 8.19255 56.8365 8.27172V55.636C56.8365 55.7152 56.7738 55.7779 56.6946 55.7779ZM9.47216 55.4975H56.5561V8.41356H9.47216V55.4975Z" fill="#F1DFC1"/>
<path d="M32.9919 31.9259C32.9919 31.9391 32.9887 31.949 32.9854 31.9589C33.0051 31.9721 33.0249 31.9853 33.0447 31.9985C33.0282 31.9721 33.0117 31.9457 32.9985 31.916C32.9952 31.9193 32.9952 31.9226 32.9919 31.9259Z" fill="#EAA49B" stroke="#EAA49B" stroke-width="0.2" stroke-miterlimit="10" stroke-linejoin="round"/>
<path d="M33.7539 30.4907C35.9965 30.4907 37.8145 28.6728 37.8145 26.4302C37.8145 24.1876 35.9965 22.3696 33.7539 22.3696C31.5113 22.3696 29.6934 24.1876 29.6934 26.4302C29.6934 28.6728 31.5113 30.4907 33.7539 30.4907Z" fill="#9EBEBF"/>
<path d="M40.5952 36.4942V37.6421C40.5952 38.028 40.2819 38.3381 39.8992 38.3381H27.612C27.2261 38.3381 26.916 38.0247 26.916 37.6421V36.4942C26.916 34.3237 27.8891 31.5364 30.7292 31.0186C31.6429 31.6981 32.4939 31.985 33.7573 31.985C35.0239 31.985 35.9871 31.6948 36.7755 31.0317C39.7211 31.5958 40.5952 34.4953 40.5952 36.4942Z" fill="#9EBEBF"/>
<path d="M24.7657 32.6842C26.3816 32.6842 27.6915 31.3743 27.6915 29.7584C27.6915 28.1425 26.3816 26.8325 24.7657 26.8325C23.1498 26.8325 21.8398 28.1425 21.8398 29.7584C21.8398 31.3743 23.1498 32.6842 24.7657 32.6842Z" fill="#9EBEBF"/>
<path d="M26.3054 37.6453C26.3054 37.9026 26.378 38.1401 26.5066 38.3413H20.3383C20.0612 38.3413 19.8369 38.117 19.8369 37.84V37.012C19.8369 35.4485 20.5362 33.4396 22.5846 33.0669C23.2411 33.5551 23.8546 33.7629 24.7683 33.7629C25.682 33.7629 26.3747 33.5551 26.9421 33.0768C26.9882 33.0867 27.0377 33.0966 27.0839 33.1065C26.5825 34.0862 26.3087 35.277 26.3087 36.4974V37.6453H26.3054Z" fill="#9EBEBF"/>
<path d="M42.7422 32.6842C44.3581 32.6842 45.6681 31.3743 45.6681 29.7584C45.6681 28.1425 44.3581 26.8325 42.7422 26.8325C41.1263 26.8325 39.8164 28.1425 39.8164 29.7584C39.8164 31.3743 41.1263 32.6842 42.7422 32.6842Z" fill="#9EBEBF"/>
<path d="M41.2052 37.6453C41.2052 37.9026 41.1327 38.1401 41.004 38.3413H47.1723C47.4494 38.3413 47.6737 38.117 47.6737 37.84V37.012C47.6737 35.4485 46.9744 33.4396 44.926 33.0669C44.2696 33.5551 43.6561 33.7629 42.7424 33.7629C41.8287 33.7629 41.136 33.5551 40.5686 33.0768C40.5224 33.0867 40.4729 33.0966 40.4268 33.1065C40.9281 34.0862 41.2019 35.277 41.2019 36.4974V37.6453H41.2052Z" fill="#9EBEBF"/>
<path d="M33.7539 30.4907C35.9965 30.4907 37.8145 28.6728 37.8145 26.4302C37.8145 24.1876 35.9965 22.3696 33.7539 22.3696C31.5113 22.3696 29.6934 24.1876 29.6934 26.4302C29.6934 28.6728 31.5113 30.4907 33.7539 30.4907Z" fill="#F1DFC1"/>
<path d="M40.5952 36.4942V37.6421C40.5952 38.028 40.2819 38.3381 39.8992 38.3381H27.612C27.2261 38.3381 26.916 38.0247 26.916 37.6421V36.4942C26.916 34.3237 27.8891 31.5364 30.7292 31.0186C31.6429 31.6981 32.4939 31.985 33.7573 31.985C35.0239 31.985 35.9871 31.6948 36.7755 31.0317C39.7211 31.5958 40.5952 34.4953 40.5952 36.4942Z" fill="#F1DFC1"/>
<path d="M24.7657 32.6842C26.3816 32.6842 27.6915 31.3743 27.6915 29.7584C27.6915 28.1425 26.3816 26.8325 24.7657 26.8325C23.1498 26.8325 21.8398 28.1425 21.8398 29.7584C21.8398 31.3743 23.1498 32.6842 24.7657 32.6842Z" fill="#E9A39B"/>
<path d="M26.3054 37.6453C26.3054 37.9026 26.378 38.1401 26.5066 38.3413H20.3383C20.0612 38.3413 19.8369 38.117 19.8369 37.84V37.012C19.8369 35.4485 20.5362 33.4396 22.5846 33.0669C23.2411 33.5551 23.8546 33.7629 24.7683 33.7629C25.682 33.7629 26.3747 33.5551 26.9421 33.0768C26.9882 33.0867 27.0377 33.0966 27.0839 33.1065C26.5825 34.0862 26.3087 35.277 26.3087 36.4974V37.6453H26.3054Z" fill="#E9A39B"/>
<path d="M42.7422 32.6842C44.3581 32.6842 45.6681 31.3743 45.6681 29.7584C45.6681 28.1425 44.3581 26.8325 42.7422 26.8325C41.1263 26.8325 39.8164 28.1425 39.8164 29.7584C39.8164 31.3743 41.1263 32.6842 42.7422 32.6842Z" fill="#E9A39B"/>
<path d="M41.2052 37.6453C41.2052 37.9026 41.1327 38.1401 41.004 38.3413H47.1723C47.4494 38.3413 47.6737 38.117 47.6737 37.84V37.012C47.6737 35.4485 46.9744 33.4396 44.926 33.0669C44.2696 33.5551 43.6561 33.7629 42.7424 33.7629C41.8287 33.7629 41.136 33.5551 40.5686 33.0768C40.5224 33.0867 40.4729 33.0966 40.4268 33.1065C40.9281 34.0862 41.2019 35.277 41.2019 36.4974V37.6453H41.2052Z" fill="#E9A39B"/>
</g>
<defs>
<filter id="filter0_d_1039_40312" x="0" y="0.943848" width="66" height="66.0298" filterUnits="userSpaceOnUse" color-interpolation-filters="sRGB">
<feFlood flood-opacity="0" result="BackgroundImageFix"/>
<feColorMatrix in="SourceAlpha" type="matrix" values="0 0 0 0 0 0 0 0 0 0 0 0 0 0 0 0 0 0 127 0" result="hardAlpha"/>
<feOffset dy="2"/>
<feGaussianBlur stdDeviation="2.5"/>
<feComposite in2="hardAlpha" operator="out"/>
<feColorMatrix type="matrix" values="0 0 0 0 0 0 0 0 0 0 0 0 0 0 0 0 0 0 0.3 0"/>
<feBlend mode="normal" in2="BackgroundImageFix" result="effect1_dropShadow_1039_40312"/>
<feBlend mode="normal" in="SourceGraphic" in2="effect1_dropShadow_1039_40312" result="shape"/>
</filter>
</defs>
</svg>
