<svg width="56" height="57" viewBox="0 0 56 57" fill="none" xmlns="http://www.w3.org/2000/svg">
<path d="M0.0263842 47.7344C0.0923558 47.7212 0.161624 47.7146 0.230895 47.7146C0.771862 47.7146 1.21388 48.1038 1.21388 48.5821C1.21388 49.0604 0.77516 49.4496 0.230895 49.4496C0.161624 49.4496 0.0923558 49.443 0.0263842 49.4298V50.7526C0.0923558 50.7394 0.161624 50.7328 0.230895 50.7328C0.771862 50.7328 1.21388 51.122 1.21388 51.6003C1.21388 52.0786 0.77516 52.4678 0.230895 52.4678C0.161624 52.4678 0.0923558 52.4612 0.0263842 52.448V53.7708C0.0923558 53.7576 0.161624 53.751 0.230895 53.751C0.771862 53.751 1.21388 54.1402 1.21388 54.6185C1.21388 55.0968 0.77516 55.486 0.230895 55.486C0.161624 55.486 0.0923558 55.4794 0.0263842 55.4662V56.9737H2.65866C2.62567 56.8879 2.60588 56.7989 2.60588 56.7032C2.60588 56.2249 3.04458 55.8357 3.58885 55.8357C4.13311 55.8357 4.57183 56.2249 4.57183 56.7032C4.57183 56.7989 4.54874 56.8879 4.51905 56.9737H6.19143C6.15845 56.8879 6.13865 56.7989 6.13865 56.7032C6.13865 56.2249 6.57737 55.8357 7.12163 55.8357C7.6659 55.8357 8.1046 56.2249 8.1046 56.7032C8.1046 56.7989 8.08152 56.8879 8.05184 56.9737H9.72421C9.69122 56.8879 9.67143 56.7989 9.67143 56.7032C9.67143 56.2249 10.1101 55.8357 10.6544 55.8357C11.1954 55.8357 11.6374 56.2249 11.6374 56.7032C11.6374 56.7989 11.6143 56.8879 11.5846 56.9737H13.257C13.224 56.8879 13.2042 56.7989 13.2042 56.7032C13.2042 56.2249 13.6429 55.8357 14.1872 55.8357C14.7282 55.8357 15.1702 56.2249 15.1702 56.7032C15.1702 56.7989 15.1471 56.8879 15.1174 56.9737H16.7898C16.7568 56.8879 16.737 56.7989 16.737 56.7032C16.737 56.2249 17.1757 55.8357 17.72 55.8357C18.2609 55.8357 18.7029 56.2249 18.7029 56.7032C18.7029 56.7989 18.6799 56.8879 18.6502 56.9737H20.3226C20.2896 56.8879 20.2698 56.7989 20.2698 56.7032C20.2698 56.2249 20.7085 55.8357 21.2528 55.8357C21.7937 55.8357 22.2357 56.2249 22.2357 56.7032C22.2357 56.7989 22.2126 56.8879 22.183 56.9737H23.8553C23.8223 56.8879 23.8026 56.7989 23.8026 56.7032C23.8026 56.2249 24.2413 55.8357 24.7855 55.8357C25.3265 55.8357 25.7685 56.2249 25.7685 56.7032C25.7685 56.7989 25.7454 56.8879 25.7157 56.9737H27.3881C27.3551 56.8879 27.3353 56.7989 27.3353 56.7032C27.3353 56.2249 27.774 55.8357 28.3183 55.8357C28.8626 55.8357 29.3013 56.2249 29.3013 56.7032C29.3013 56.7989 29.2782 56.8879 29.2485 56.9737H30.9209C30.8879 56.8879 30.8681 56.7989 30.8681 56.7032C30.8681 56.2249 31.3068 55.8357 31.8511 55.8357C32.3921 55.8357 32.8341 56.2249 32.8341 56.7032C32.8341 56.7989 32.811 56.8879 32.7813 56.9737H34.4537C34.4207 56.8879 34.4009 56.7989 34.4009 56.7032C34.4009 56.2249 34.8396 55.8357 35.3839 55.8357C35.9281 55.8357 36.3669 56.2249 36.3669 56.7032C36.3669 56.7989 36.3438 56.8879 36.3141 56.9737H37.9865C37.9535 56.8879 37.9337 56.7989 37.9337 56.7032C37.9337 56.2249 38.3724 55.8357 38.9166 55.8357C39.4576 55.8357 39.8996 56.2249 39.8996 56.7032C39.8996 56.7989 39.8765 56.8879 39.8469 56.9737H41.5192C41.4862 56.8879 41.4665 56.7989 41.4665 56.7032C41.4665 56.2249 41.9052 55.8357 42.4494 55.8357C42.9937 55.8357 43.4324 56.2249 43.4324 56.7032C43.4324 56.7989 43.4093 56.8879 43.3796 56.9737H45.052C45.019 56.8879 44.9992 56.7989 44.9992 56.7032C44.9992 56.2249 45.4379 55.8357 45.9822 55.8357C46.5232 55.8357 46.9652 56.2249 46.9652 56.7032C46.9652 56.7989 46.9421 56.8879 46.9124 56.9737H48.5848C48.5518 56.8879 48.532 56.7989 48.532 56.7032C48.532 56.2249 48.9707 55.8357 49.515 55.8357C50.056 55.8357 50.498 56.2249 50.498 56.7032C50.498 56.7989 50.4749 56.8879 50.4452 56.9737H52.1176C52.0846 56.8879 52.0648 56.7989 52.0648 56.7032C52.0648 56.2249 52.5035 55.8357 53.0478 55.8357C53.5887 55.8357 54.0307 56.2249 54.0307 56.7032C54.0307 56.7989 54.0077 56.8879 53.978 56.9737H56V55.486C55.459 55.486 55.017 55.0968 55.017 54.6185C55.017 54.1402 55.4557 53.751 56 53.751V52.4678C55.459 52.4678 55.017 52.0786 55.017 51.6003C55.017 51.122 55.4557 50.7328 56 50.7328V49.4496C55.459 49.4496 55.017 49.0604 55.017 48.5821C55.017 48.1038 55.4557 47.7146 56 47.7146V47.7047V46.4215C55.459 46.4215 55.017 46.0323 55.017 45.554C55.017 45.0757 55.4557 44.6865 56 44.6865V43.4033C55.459 43.4033 55.017 43.0141 55.017 42.5358C55.017 42.0575 55.4557 41.6683 56 41.6683V40.3851C55.459 40.3851 55.017 39.9959 55.017 39.5176C55.017 39.0393 55.4557 38.6501 56 38.6501V37.3669C55.459 37.3669 55.017 36.9777 55.017 36.4994C55.017 36.0211 55.4557 35.6319 56 35.6319V34.3487C55.459 34.3487 55.017 33.9595 55.017 33.4812C55.017 33.0029 55.4557 32.6137 56 32.6137V31.3305C55.459 31.3305 55.017 30.9413 55.017 30.463C55.017 29.9847 55.4557 29.5955 56 29.5955V28.3123C55.459 28.3123 55.017 27.9231 55.017 27.4448C55.017 26.9665 55.4557 26.5773 56 26.5773V25.2941C55.459 25.2941 55.017 24.9049 55.017 24.4266C55.017 23.9483 55.4557 23.5591 56 23.5591V22.2759C55.459 22.2759 55.017 21.8867 55.017 21.4084C55.017 20.9301 55.4557 20.5409 56 20.5409V19.2577C55.459 19.2577 55.017 18.8685 55.017 18.3902C55.017 17.9119 55.4557 17.5227 56 17.5227V16.2395C55.459 16.2395 55.017 15.8503 55.017 15.372C55.017 14.8937 55.4557 14.5045 56 14.5045V13.2213C55.459 13.2213 55.017 12.8321 55.017 12.3538C55.017 11.8755 55.4557 11.4863 56 11.4863V10.2031C55.459 10.2031 55.017 9.81388 55.017 9.33559C55.017 8.8573 55.4557 8.46806 56 8.46806V7.18492C55.459 7.18492 55.017 6.79569 55.017 6.31739C55.017 5.8391 55.4557 5.44986 56 5.44986V4.16671C55.459 4.16671 55.017 3.77749 55.017 3.29919C55.017 2.8209 55.4557 2.43166 56 2.43166V0.944H53.9549C53.9549 1.42229 53.5162 1.81153 52.9719 1.81153C52.4309 1.81153 51.9889 1.42229 51.9889 0.944H50.4254C50.4254 1.42229 49.9867 1.81153 49.4424 1.81153C48.9015 1.81153 48.4594 1.42229 48.4594 0.944H46.8959C46.8959 1.42229 46.4572 1.81153 45.9129 1.81153C45.372 1.81153 44.93 1.42229 44.93 0.944H43.3664C43.3664 1.42229 42.9277 1.81153 42.3835 1.81153C41.8392 1.81153 41.4005 1.42229 41.4005 0.944H39.837C39.837 1.42229 39.3982 1.81153 38.854 1.81153C38.313 1.81153 37.871 1.42229 37.871 0.944H36.3075C36.3075 1.42229 35.8688 1.81153 35.3245 1.81153C34.7802 1.81153 34.3415 1.42229 34.3415 0.944H32.778C32.778 1.42229 32.3393 1.81153 31.795 1.81153C31.254 1.81153 30.812 1.42229 30.812 0.944H29.2485C29.2485 1.42229 28.8098 1.81153 28.2655 1.81153C27.7213 1.81153 27.2826 1.42229 27.2826 0.944H25.719C25.719 1.42229 25.2803 1.81153 24.7361 1.81153C24.1951 1.81153 23.7531 1.42229 23.7531 0.944H22.1895C22.1895 1.42229 21.7508 1.81153 21.2066 1.81153C20.6656 1.81153 20.2236 1.42229 20.2236 0.944H18.6601C18.6601 1.42229 18.2214 1.81153 17.6771 1.81153C17.1361 1.81153 16.6941 1.42229 16.6941 0.944H15.1306C15.1306 1.42229 14.6919 1.81153 14.1476 1.81153C13.6066 1.81153 13.1646 1.42229 13.1646 0.944H11.6011C11.6011 1.42229 11.1624 1.81153 10.6181 1.81153C10.0772 1.81153 9.63515 1.42229 9.63515 0.944H8.07163C8.07163 1.42229 7.63291 1.81153 7.08865 1.81153C6.54438 1.81153 6.10567 1.42229 6.10567 0.944H4.54214C4.54214 1.42229 4.10343 1.81153 3.55916 1.81153C3.0149 1.81153 2.57619 1.42229 2.57619 0.944H0V2.45145C0.0659716 2.43826 0.13524 2.43166 0.20451 2.43166C0.745478 2.43166 1.18748 2.8209 1.18748 3.29919C1.18748 3.77749 0.748776 4.16671 0.20451 4.16671C0.13524 4.16671 0.0659716 4.16011 0 4.14692V5.46965C0.0659716 5.45646 0.13524 5.44986 0.20451 5.44986C0.745478 5.44986 1.18748 5.8391 1.18748 6.31739C1.18748 6.79569 0.748776 7.18492 0.20451 7.18492C0.13524 7.18492 0.0659716 7.17832 0 7.16513V8.48785C0.0659716 8.47466 0.13524 8.46806 0.20451 8.46806C0.745478 8.46806 1.18748 8.8573 1.18748 9.33559C1.18748 9.81388 0.748776 10.2031 0.20451 10.2031C0.13524 10.2031 0.0659716 10.1965 0 10.1833V11.5061C0.0659716 11.4929 0.13524 11.4863 0.20451 11.4863C0.745478 11.4863 1.18748 11.8755 1.18748 12.3538C1.18748 12.8321 0.748776 13.2213 0.20451 13.2213C0.13524 13.2213 0.0659716 13.2147 0 13.2015V14.5243C0.0659716 14.5111 0.13524 14.5045 0.20451 14.5045C0.745478 14.5045 1.18748 14.8937 1.18748 15.372C1.18748 15.8503 0.748776 16.2395 0.20451 16.2395C0.13524 16.2395 0.0659716 16.2329 0 16.2197V17.5425C0.0659716 17.5293 0.13524 17.5227 0.20451 17.5227C0.745478 17.5227 1.18748 17.9119 1.18748 18.3902C1.18748 18.8685 0.748776 19.2577 0.20451 19.2577C0.13524 19.2577 0.0659716 19.2511 0 19.2379V20.5607C0.0659716 20.5475 0.13524 20.5409 0.20451 20.5409C0.745478 20.5409 1.18748 20.9301 1.18748 21.4084C1.18748 21.8867 0.748776 22.2759 0.20451 22.2759C0.13524 22.2759 0.0659716 22.2693 0 22.2561V23.5789C0.0659716 23.5657 0.13524 23.5591 0.20451 23.5591C0.745478 23.5591 1.18748 23.9483 1.18748 24.4266C1.18748 24.9049 0.748776 25.2941 0.20451 25.2941C0.13524 25.2941 0.0659716 25.2875 0 25.2743V26.5971C0.0659716 26.5839 0.13524 26.5773 0.20451 26.5773C0.745478 26.5773 1.18748 26.9665 1.18748 27.4448C1.18748 27.9231 0.748776 28.3123 0.20451 28.3123C0.13524 28.3123 0.0659716 28.3057 0 28.2925V29.6153C0.0659716 29.6021 0.13524 29.5955 0.20451 29.5955C0.745478 29.5955 1.18748 29.9847 1.18748 30.463C1.18748 30.9413 0.748776 31.3305 0.20451 31.3305C0.13524 31.3305 0.0659716 31.3239 0 31.3107V32.6335C0.0659716 32.6203 0.13524 32.6137 0.20451 32.6137C0.745478 32.6137 1.18748 33.0029 1.18748 33.4812C1.18748 33.9595 0.748776 34.3487 0.20451 34.3487C0.13524 34.3487 0.0659716 34.3421 0 34.3289V35.6517C0.0659716 35.6385 0.13524 35.6319 0.20451 35.6319C0.745478 35.6319 1.18748 36.0211 1.18748 36.4994C1.18748 36.9777 0.748776 37.3669 0.20451 37.3669C0.13524 37.3669 0.0659716 37.3603 0 37.3471V38.6699C0.0659716 38.6567 0.13524 38.6501 0.20451 38.6501C0.745478 38.6501 1.18748 39.0393 1.18748 39.5176C1.18748 39.9959 0.748776 40.3851 0.20451 40.3851C0.13524 40.3851 0.0659716 40.3785 0 40.3653V41.6881C0.0659716 41.6749 0.13524 41.6683 0.20451 41.6683C0.745478 41.6683 1.18748 42.0575 1.18748 42.5358C1.18748 43.0141 0.748776 43.4033 0.20451 43.4033C0.13524 43.4033 0.0659716 43.3967 0 43.3835V44.7063C0.0659716 44.6931 0.13524 44.6865 0.20451 44.6865C0.745478 44.6865 1.18748 45.0757 1.18748 45.554C1.18748 46.0323 0.748776 46.4215 0.20451 46.4215C0.13524 46.4215 0.0659716 46.4149 0 46.4017V47.7245C0.0659716 47.7113 0.13524 47.7047 0.20451 47.7047" fill="#A98B83"/>
<path d="M52.4881 8.79804V48.0478C50.0801 48.193 48.167 50.1985 48.167 52.6395C48.167 52.9001 48.1901 53.1639 48.2395 53.4311H7.78904C7.83852 53.1639 7.86161 52.9001 7.86161 52.6395C7.86161 50.1985 5.94843 48.193 3.54047 48.0478V8.79804C5.85607 8.6562 7.71317 6.7991 7.85171 4.4835H48.1736C48.3154 6.7991 50.1725 8.6562 52.4881 8.79804Z" fill="white"/>
<path d="M52.4881 8.79804V48.0478C50.0801 48.193 48.167 50.1985 48.167 52.6395C48.167 52.9001 48.1901 53.1639 48.2395 53.4311H7.78904C7.83852 53.1639 7.86161 52.9001 7.86161 52.6395C7.86161 50.1985 5.94843 48.193 3.54047 48.0478V8.79804C5.85607 8.6562 7.71317 6.7991 7.85171 4.4835H48.1736C48.3154 6.7991 50.1725 8.6562 52.4881 8.79804Z" fill="#AB8C85"/>
<path d="M52.7672 8.24377C50.5373 8.24377 48.7264 6.43285 48.7264 4.20301C48.7264 4.04797 48.6011 3.92263 48.446 3.92263H7.57991C7.42487 3.92263 7.29953 4.04797 7.29953 4.20301C7.29953 6.43285 5.48531 8.24377 3.25876 8.24377C3.10373 8.24377 2.97839 8.36912 2.97839 8.52415V48.3215C2.97839 48.4733 3.10373 48.6019 3.25876 48.6019C5.48531 48.6019 7.29953 50.4128 7.29953 52.6394C7.29953 52.9659 7.25335 53.3024 7.16758 53.6421C7.14779 53.7279 7.16428 53.817 7.21706 53.8829C7.26984 53.9522 7.35231 53.9918 7.44137 53.9918H48.5846C48.6703 53.9918 48.7528 53.9522 48.8056 53.8829C48.8583 53.817 48.8781 53.7279 48.855 53.6421C48.7693 53.3024 48.7264 52.9659 48.7264 52.6394C48.7264 50.4128 50.5373 48.6019 52.7672 48.6019C52.9222 48.6019 53.0475 48.4733 53.0475 48.3215V8.52415C53.0475 8.36912 52.9222 8.24377 52.7672 8.24377ZM52.4868 48.0477C50.0788 48.1929 48.1656 50.1984 48.1656 52.6394C48.1656 52.9 48.1887 53.1638 48.2382 53.431H7.78772C7.8372 53.1638 7.86029 52.9 7.86029 52.6394C7.86029 50.1984 5.94711 48.1929 3.53915 48.0477V8.79793C5.85475 8.65609 7.71185 6.79899 7.85039 4.48339H48.1722C48.3141 6.79899 50.1712 8.65609 52.4868 8.79793V48.0477Z" fill="#F1DFC1"/>
<path d="M52.5565 8.88698V48.1401C51.3884 48.2153 50.2925 48.7313 49.4903 49.5837C48.6882 50.4361 48.2396 51.5612 48.2353 52.7317C48.2352 52.9973 48.2595 53.2623 48.3079 53.5234H7.85739C7.90576 53.2623 7.93005 52.9973 7.92995 52.7317C7.92675 51.5628 7.48039 50.4386 6.6809 49.5859C5.88141 48.7331 4.78829 48.2153 3.62201 48.1368V8.88368C4.73762 8.8061 5.78718 8.32633 6.57581 7.53345C7.36445 6.74057 7.83857 5.68845 7.91016 4.57244H48.2419C48.3134 5.69326 48.791 6.74962 49.5851 7.54377C50.3793 8.33793 51.4356 8.81546 52.5565 8.88698Z" fill="white"/>
<path d="M28.0168 7.29051C28.3703 7.29051 28.6568 7.004 28.6568 6.65058C28.6568 6.29716 28.3703 6.01067 28.0168 6.01067C27.6634 6.01067 27.3769 6.29716 27.3769 6.65058C27.3769 7.004 27.6634 7.29051 28.0168 7.29051Z" fill="#F5CBD9"/>
<path d="M28.0168 9.18721C27.9376 9.18721 27.8749 9.12454 27.8749 9.04537V8.069C27.8749 7.98983 27.9376 7.92716 28.0168 7.92716C28.0959 7.92716 28.1586 7.98983 28.1586 8.069V9.04537C28.1553 9.12124 28.0926 9.18721 28.0168 9.18721Z" fill="#F5CBD9"/>
<path d="M28.0168 11.8723C27.9376 11.8723 27.8749 11.8096 27.8749 11.7304V9.64903C27.8749 9.56987 27.9376 9.50719 28.0168 9.50719C28.0959 9.50719 28.1586 9.56987 28.1586 9.64903V11.7304C28.1553 11.8096 28.0926 11.8723 28.0168 11.8723Z" fill="#F5CBD9"/>
<path d="M29.2141 8.86399C29.1646 8.86399 29.1185 8.83759 29.0921 8.79471L28.6039 7.94698C28.5643 7.88101 28.5874 7.79524 28.6566 7.75566C28.7226 7.71607 28.8084 7.73917 28.848 7.80844L29.3362 8.65617C29.3757 8.72214 29.3526 8.80791 29.2834 8.8475C29.2603 8.85739 29.2372 8.86399 29.2141 8.86399Z" fill="#F5CBD9"/>
<path d="M30.5556 11.1927C30.5061 11.1927 30.4599 11.1664 30.4335 11.1235L29.3945 9.32246C29.3549 9.25649 29.378 9.17072 29.4472 9.13114C29.5132 9.09155 29.599 9.11463 29.6385 9.18391L30.6776 10.9849C30.7172 11.0509 30.6941 11.1367 30.6248 11.1763C30.605 11.1862 30.5786 11.1927 30.5556 11.1927Z" fill="#F5CBD9"/>
<path d="M30.0878 7.98974C30.0647 7.98974 30.0383 7.98313 30.0185 7.96994L29.1741 7.48176C29.1081 7.44217 29.085 7.3564 29.1213 7.29043C29.1609 7.22446 29.2467 7.20138 29.3126 7.23766L30.1571 7.72585C30.223 7.76543 30.2461 7.8512 30.2098 7.91717C30.1835 7.96335 30.1373 7.98974 30.0878 7.98974Z" fill="#F5CBD9"/>
<path d="M31.3617 8.72215C31.3386 8.72215 31.3123 8.71554 31.2925 8.70235L30.5437 8.27024C30.4777 8.23065 30.4546 8.14489 30.4909 8.07892C30.5305 8.01295 30.6163 7.98986 30.6822 8.02614L31.431 8.45826C31.497 8.49784 31.5201 8.58361 31.4838 8.64958C31.4574 8.69906 31.4112 8.72215 31.3617 8.72215Z" fill="#F5CBD9"/>
<path d="M30.4112 6.79244H29.4348C29.3556 6.79244 29.2929 6.72976 29.2929 6.65059C29.2929 6.57143 29.3556 6.50875 29.4348 6.50875H30.4112C30.4903 6.50875 30.553 6.57143 30.553 6.65059C30.553 6.72976 30.487 6.79244 30.4112 6.79244Z" fill="#F5CBD9"/>
<path d="M32.9311 6.79248H31.0179C30.9388 6.79248 30.8761 6.7298 30.8761 6.65064C30.8761 6.57147 30.9388 6.5088 31.0179 6.5088H32.9311C33.0103 6.5088 33.073 6.57147 33.073 6.65064C33.073 6.7298 33.007 6.79248 32.9311 6.79248Z" fill="#F5CBD9"/>
<path d="M26.5984 6.79244H25.6221C25.5429 6.79244 25.4802 6.72976 25.4802 6.65059C25.4802 6.57143 25.5429 6.50875 25.6221 6.50875H26.5984C26.6776 6.50875 26.7403 6.57143 26.7403 6.65059C26.7403 6.72976 26.6776 6.79244 26.5984 6.79244Z" fill="#F5CBD9"/>
<path d="M25.0159 6.79248H23.1027C23.0236 6.79248 22.9609 6.7298 22.9609 6.65064C22.9609 6.57147 23.0236 6.5088 23.1027 6.5088H25.0159C25.0951 6.5088 25.1577 6.57147 25.1577 6.65064C25.1577 6.7298 25.0951 6.79248 25.0159 6.79248Z" fill="#F5CBD9"/>
<path d="M25.9415 7.98989C25.892 7.98989 25.8458 7.9635 25.8194 7.92062C25.7798 7.85465 25.8029 7.76889 25.8722 7.7293L26.7166 7.24111C26.7826 7.20153 26.8684 7.22462 26.9079 7.29389C26.9475 7.35986 26.9244 7.44563 26.8552 7.48521L26.0107 7.9734C25.9909 7.98329 25.9646 7.98989 25.9415 7.98989Z" fill="#F5CBD9"/>
<path d="M24.7154 8.69566C24.6659 8.69566 24.6197 8.66927 24.5933 8.62639C24.5537 8.56042 24.5768 8.47465 24.6461 8.43507L25.3487 8.02935C25.4147 7.98977 25.5004 8.01286 25.54 8.08213C25.5796 8.1481 25.5565 8.23386 25.4872 8.27344L24.7846 8.67917C24.7648 8.69236 24.7384 8.69566 24.7154 8.69566Z" fill="#F5CBD9"/>
<path d="M26.819 8.86393C26.7959 8.86393 26.7695 8.85733 26.7498 8.84414C26.6838 8.80455 26.6607 8.71879 26.697 8.65281L27.1852 7.80508C27.2247 7.7391 27.3105 7.71602 27.3765 7.75231C27.4425 7.79189 27.4655 7.87765 27.4293 7.94362L26.9411 8.79136C26.9147 8.84084 26.8652 8.86393 26.819 8.86393Z" fill="#F5CBD9"/>
<path d="M25.4732 11.1927C25.4501 11.1927 25.4237 11.1861 25.4039 11.1729C25.3379 11.1333 25.3148 11.0476 25.3511 10.9816L26.3935 9.18057C26.4331 9.1146 26.5188 9.0915 26.5848 9.12779C26.6508 9.16737 26.6739 9.25314 26.6376 9.31911L25.5952 11.1201C25.5688 11.1663 25.5227 11.1927 25.4732 11.1927Z" fill="#F5CBD9"/>
<path d="M28.0168 51.9006C28.3703 51.9006 28.6568 51.6141 28.6568 51.2607C28.6568 50.9073 28.3703 50.6208 28.0168 50.6208C27.6634 50.6208 27.3769 50.9073 27.3769 51.2607C27.3769 51.6141 27.6634 51.9006 28.0168 51.9006Z" fill="#F5CBD9"/>
<path d="M28.0168 49.9841C27.9376 49.9841 27.8749 49.9215 27.8749 49.8423V48.8659C27.8749 48.7868 27.9376 48.7241 28.0168 48.7241C28.0959 48.7241 28.1586 48.7868 28.1586 48.8659V49.8423C28.1553 49.9215 28.0926 49.9841 28.0168 49.9841Z" fill="#F5CBD9"/>
<path d="M28.0168 48.4009C27.9376 48.4009 27.8749 48.3382 27.8749 48.259V46.1776C27.8749 46.0984 27.9376 46.0358 28.0168 46.0358C28.0959 46.0358 28.1586 46.0984 28.1586 46.1776V48.259C28.1553 48.3382 28.0926 48.4009 28.0168 48.4009Z" fill="#F5CBD9"/>
<path d="M27.3075 50.1722C27.258 50.1722 27.2118 50.1458 27.1854 50.1029L26.6972 49.2585C26.6576 49.1925 26.6807 49.1067 26.75 49.0671C26.816 49.0276 26.9017 49.0506 26.9413 49.1199L27.4295 49.9643C27.4691 50.0303 27.446 50.1161 27.3767 50.1557C27.3569 50.1689 27.3306 50.1722 27.3075 50.1722Z" fill="#F5CBD9"/>
<path d="M26.5158 48.8033C26.4663 48.8033 26.4201 48.7769 26.3937 48.734L25.3514 46.933C25.3118 46.867 25.3349 46.7813 25.4041 46.7417C25.4701 46.7021 25.5559 46.7252 25.5955 46.7945L26.6378 48.5955C26.6774 48.6615 26.6543 48.7472 26.585 48.7868C26.5653 48.7967 26.5389 48.8033 26.5158 48.8033Z" fill="#F5CBD9"/>
<path d="M26.7895 50.6935C26.7664 50.6935 26.74 50.6869 26.7202 50.6737L25.8758 50.1855C25.8098 50.1459 25.7867 50.0601 25.823 49.9942C25.8626 49.9282 25.9483 49.9051 26.0143 49.9414L26.8587 50.4296C26.9247 50.4692 26.9478 50.5549 26.9115 50.6209C26.8851 50.6671 26.8356 50.6935 26.7895 50.6935Z" fill="#F5CBD9"/>
<path d="M25.4173 49.9017C25.3942 49.9017 25.3678 49.8951 25.348 49.8819L24.5992 49.4498C24.5333 49.4102 24.5102 49.3245 24.5465 49.2585C24.586 49.1925 24.6718 49.1694 24.7378 49.2057L25.4866 49.6378C25.5525 49.6774 25.5756 49.7632 25.5393 49.8292C25.5129 49.8753 25.4668 49.9017 25.4173 49.9017Z" fill="#F5CBD9"/>
<path d="M26.5984 51.3993H25.6221C25.5429 51.3993 25.4802 51.3366 25.4802 51.2574C25.4802 51.1783 25.5429 51.1156 25.6221 51.1156H26.5984C26.6776 51.1156 26.7403 51.1783 26.7403 51.2574C26.7403 51.3366 26.6776 51.3993 26.5984 51.3993Z" fill="#F5CBD9"/>
<path d="M25.0159 51.3993H23.1027C23.0236 51.3993 22.9609 51.3366 22.9609 51.2575C22.9609 51.1783 23.0236 51.1156 23.1027 51.1156H25.0159C25.0951 51.1156 25.1577 51.1783 25.1577 51.2575C25.1577 51.3366 25.0951 51.3993 25.0159 51.3993Z" fill="#F5CBD9"/>
<path d="M30.4112 51.3993H29.4348C29.3556 51.3993 29.2929 51.3366 29.2929 51.2574C29.2929 51.1783 29.3556 51.1156 29.4348 51.1156H30.4112C30.4903 51.1156 30.553 51.1783 30.553 51.2574C30.553 51.3366 30.487 51.3993 30.4112 51.3993Z" fill="#F5CBD9"/>
<path d="M32.9311 51.3993H31.0179C30.9388 51.3993 30.8761 51.3366 30.8761 51.2575C30.8761 51.1783 30.9388 51.1156 31.0179 51.1156H32.9311C33.0103 51.1156 33.073 51.1783 33.073 51.2575C33.073 51.3366 33.007 51.3993 32.9311 51.3993Z" fill="#F5CBD9"/>
<path d="M29.2443 50.6934C29.1948 50.6934 29.1486 50.667 29.1222 50.6241C29.0827 50.5581 29.1057 50.4724 29.175 50.4328L30.0195 49.9446C30.0854 49.905 30.1712 49.9281 30.2108 49.9974C30.2504 50.0633 30.2273 50.1491 30.158 50.1887L29.3136 50.6769C29.2905 50.6868 29.2674 50.6934 29.2443 50.6934Z" fill="#F5CBD9"/>
<path d="M30.6158 49.9017C30.5664 49.9017 30.5202 49.8754 30.4938 49.8325C30.4542 49.7665 30.4773 49.6807 30.5466 49.6412L31.2492 49.2354C31.3151 49.1959 31.4009 49.2189 31.4405 49.2882C31.4801 49.3542 31.457 49.44 31.3877 49.4795L30.6851 49.8853C30.662 49.8952 30.6389 49.9017 30.6158 49.9017Z" fill="#F5CBD9"/>
<path d="M28.7269 50.1722C28.7038 50.1722 28.6774 50.1656 28.6576 50.1524C28.5917 50.1128 28.5686 50.0271 28.6049 49.9611L29.0931 49.1166C29.1326 49.0507 29.2184 49.0276 29.2844 49.0639C29.3503 49.1035 29.3734 49.1892 29.3372 49.2552L28.849 50.0996C28.8226 50.1491 28.7731 50.1722 28.7269 50.1722Z" fill="#F5CBD9"/>
<path d="M29.5175 48.8034C29.4944 48.8034 29.4681 48.7968 29.4483 48.7836C29.3823 48.744 29.3592 48.6582 29.3955 48.5922L30.4345 46.7912C30.4741 46.7252 30.5599 46.7022 30.6259 46.7384C30.6918 46.778 30.7149 46.8638 30.6786 46.9298L29.6396 48.7308C29.6132 48.777 29.5637 48.8034 29.5175 48.8034Z" fill="#F5CBD9"/>
<path d="M50.3198 28.3157C49.9668 28.3157 49.6798 28.6026 49.6798 28.9556C49.6798 29.3085 49.9668 29.5955 50.3198 29.5955C50.6727 29.5955 50.9597 29.3085 50.9597 28.9556C50.9597 28.6026 50.6727 28.3157 50.3198 28.3157Z" fill="#F5CBD9"/>
<path d="M48.9014 29.0974H47.925C47.8458 29.0974 47.7831 29.0347 47.7831 28.9556C47.7831 28.8764 47.8458 28.8137 47.925 28.8137H48.9014C48.9805 28.8137 49.0432 28.8764 49.0432 28.9556C49.0432 29.0347 48.9805 29.0974 48.9014 29.0974Z" fill="#F5CBD9"/>
<path d="M47.3187 29.0975H45.2373C45.1582 29.0975 45.0955 29.0348 45.0955 28.9557C45.0955 28.8765 45.1582 28.8138 45.2373 28.8138H47.3187C47.3979 28.8138 47.4606 28.8765 47.4606 28.9557C47.4606 29.0348 47.3946 29.0975 47.3187 29.0975Z" fill="#F5CBD9"/>
<path d="M48.2444 30.2916C48.1949 30.2916 48.1488 30.2652 48.1224 30.2224C48.0828 30.1564 48.1059 30.0706 48.1751 30.031L49.0196 29.5429C49.0855 29.5033 49.1713 29.5264 49.2109 29.5956C49.2505 29.6616 49.2274 29.7474 49.1581 29.787L48.3137 30.2751C48.2939 30.2883 48.2675 30.2916 48.2444 30.2916Z" fill="#F5CBD9"/>
<path d="M45.9165 31.6373C45.867 31.6373 45.8209 31.6109 45.7945 31.568C45.7549 31.5021 45.778 31.4163 45.8473 31.3767L47.6483 30.3344C47.7143 30.2948 47.8 30.3179 47.8396 30.3871C47.8792 30.4531 47.8561 30.5389 47.7868 30.5785L45.9858 31.6208C45.966 31.6307 45.9429 31.6373 45.9165 31.6373Z" fill="#F5CBD9"/>
<path d="M49.1219 31.1689C49.0988 31.1689 49.0725 31.1623 49.0527 31.1491C48.9867 31.1095 48.9636 31.0238 48.9999 30.9578L49.4881 30.1101C49.5277 30.0441 49.6134 30.021 49.6794 30.0573C49.7454 30.0969 49.7685 30.1826 49.7322 30.2486L49.244 31.0963C49.2176 31.1458 49.1681 31.1689 49.1219 31.1689Z" fill="#F5CBD9"/>
<path d="M48.3864 32.4423C48.3633 32.4423 48.3369 32.4357 48.3171 32.4225C48.2511 32.383 48.228 32.2972 48.2643 32.2312L48.6964 31.4825C48.736 31.4165 48.8218 31.3934 48.8877 31.4297C48.9537 31.4693 48.9768 31.555 48.9405 31.621L48.5084 32.3698C48.482 32.416 48.4358 32.4423 48.3864 32.4423Z" fill="#F5CBD9"/>
<path d="M50.3197 31.4889C50.2405 31.4889 50.1779 31.4262 50.1779 31.347V30.3707C50.1779 30.2915 50.2405 30.2288 50.3197 30.2288C50.3989 30.2288 50.4615 30.2915 50.4615 30.3707V31.347C50.4582 31.4262 50.3956 31.4889 50.3197 31.4889Z" fill="#F5CBD9"/>
<path d="M50.3197 34.009C50.2405 34.009 50.1779 33.9464 50.1779 33.8672V31.954C50.1779 31.8749 50.2405 31.8122 50.3197 31.8122C50.3989 31.8122 50.4615 31.8749 50.4615 31.954V33.8672C50.4582 33.9464 50.3956 34.009 50.3197 34.009Z" fill="#F5CBD9"/>
<path d="M50.3197 27.679C50.2405 27.679 50.1779 27.6164 50.1779 27.5372V26.5608C50.1779 26.4816 50.2405 26.419 50.3197 26.419C50.3989 26.419 50.4615 26.4816 50.4615 26.5608V27.5372C50.4582 27.6164 50.3956 27.679 50.3197 27.679Z" fill="#F5CBD9"/>
<path d="M50.3197 26.0957C50.2405 26.0957 50.1779 26.0331 50.1779 25.9539V24.0407C50.1779 23.9616 50.2405 23.8989 50.3197 23.8989C50.3989 23.8989 50.4615 23.9616 50.4615 24.0407V25.9539C50.4582 26.0331 50.3956 26.0957 50.3197 26.0957Z" fill="#F5CBD9"/>
<path d="M49.6103 27.8671C49.5609 27.8671 49.5147 27.8407 49.4883 27.7978L49.0001 26.9501C48.9605 26.8841 48.9836 26.7984 49.0529 26.7588C49.1189 26.7192 49.2046 26.7423 49.2442 26.8116L49.7324 27.6593C49.772 27.7253 49.7489 27.811 49.6796 27.8506C49.6565 27.8638 49.6334 27.8671 49.6103 27.8671Z" fill="#F5CBD9"/>
<path d="M48.8186 26.4981C48.7691 26.4981 48.7229 26.4717 48.6965 26.4289L48.2908 25.7263C48.2512 25.6603 48.2743 25.5745 48.3436 25.5349C48.4095 25.4954 48.4953 25.5185 48.5349 25.5877L48.9406 26.2903C48.9802 26.3563 48.9571 26.4421 48.8878 26.4816C48.8647 26.4915 48.8417 26.4981 48.8186 26.4981Z" fill="#F5CBD9"/>
<path d="M49.0924 28.3882C49.0693 28.3882 49.0429 28.3816 49.0231 28.3684L48.1787 27.8802C48.1127 27.8407 48.0896 27.7549 48.1259 27.6889C48.1655 27.623 48.2513 27.5999 48.3172 27.6362L49.1617 28.1244C49.2276 28.1639 49.2507 28.2497 49.2145 28.3157C49.1881 28.3618 49.1386 28.3882 49.0924 28.3882Z" fill="#F5CBD9"/>
<path d="M47.7211 27.5966C47.698 27.5966 47.6716 27.59 47.6518 27.5768L45.8508 26.5345C45.7849 26.4949 45.7618 26.4091 45.798 26.3432C45.8376 26.2772 45.9234 26.2541 45.9894 26.2904L47.7904 27.3328C47.8564 27.3723 47.8794 27.4581 47.8432 27.5241C47.8168 27.5703 47.7673 27.5966 47.7211 27.5966Z" fill="#F5CBD9"/>
<path d="M5.70752 29.5955C6.06047 29.5955 6.34745 29.3086 6.34745 28.9556C6.34745 28.6027 6.06047 28.3157 5.70752 28.3157C5.35457 28.3157 5.0676 28.6027 5.0676 28.9556C5.0676 29.3086 5.35457 29.5955 5.70752 29.5955Z" fill="#F5CBD9"/>
<path d="M8.10314 29.0974H7.12676C7.04759 29.0974 6.98492 29.0347 6.98492 28.9556C6.98492 28.8764 7.04759 28.8137 7.12676 28.8137H8.10314C8.1823 28.8137 8.24498 28.8764 8.24498 28.9556C8.24169 29.0347 8.17901 29.0974 8.10314 29.0974Z" fill="#F5CBD9"/>
<path d="M10.792 29.0975H8.71057C8.63141 29.0975 8.56873 29.0348 8.56873 28.9557C8.56873 28.8765 8.63141 28.8138 8.71057 28.8138H10.792C10.8711 28.8138 10.9338 28.8765 10.9338 28.9557C10.9305 29.0348 10.8678 29.0975 10.792 29.0975Z" fill="#F5CBD9"/>
<path d="M6.93624 28.3884C6.88677 28.3884 6.84059 28.362 6.8142 28.3191C6.77462 28.2531 6.7977 28.1674 6.86697 28.1278L7.7114 27.6396C7.77737 27.6 7.86314 27.6231 7.90273 27.6924C7.94231 27.7584 7.91922 27.8441 7.84995 27.8837L7.00551 28.3719C6.98572 28.3818 6.95933 28.3884 6.93624 28.3884Z" fill="#F5CBD9"/>
<path d="M8.30646 27.5966C8.25698 27.5966 8.21079 27.5702 8.1844 27.5273C8.14482 27.4613 8.16791 27.3756 8.23718 27.336L10.0415 26.2936C10.1075 26.254 10.1932 26.2771 10.2328 26.3464C10.2724 26.4124 10.2493 26.4981 10.1801 26.5377L8.37573 27.5801C8.35264 27.59 8.32955 27.5966 8.30646 27.5966Z" fill="#F5CBD9"/>
<path d="M6.41762 27.867C6.39453 27.867 6.36815 27.8604 6.34835 27.8472C6.28238 27.8076 6.25929 27.7219 6.29558 27.6559L6.78376 26.8081C6.82334 26.7422 6.90911 26.7191 6.97508 26.7554C7.04105 26.795 7.06415 26.8807 7.02786 26.9467L6.53967 27.7944C6.51328 27.8439 6.4638 27.867 6.41762 27.867Z" fill="#F5CBD9"/>
<path d="M7.20821 26.4981C7.18512 26.4981 7.15873 26.4915 7.13894 26.4783C7.07297 26.4387 7.04988 26.353 7.08616 26.287L7.51828 25.5382C7.55786 25.4722 7.64362 25.4491 7.70959 25.4854C7.77556 25.525 7.79865 25.6108 7.76237 25.6767L7.33026 26.4255C7.30387 26.4717 7.25439 26.4981 7.20821 26.4981Z" fill="#F5CBD9"/>
<path d="M5.7074 27.6791C5.62823 27.6791 5.56555 27.6164 5.56555 27.5373V26.5609C5.56555 26.4817 5.62823 26.419 5.7074 26.419C5.78656 26.419 5.84923 26.4817 5.84923 26.5609V27.5373C5.84594 27.6164 5.78327 27.6791 5.7074 27.6791Z" fill="#F5CBD9"/>
<path d="M5.7074 26.0958C5.62823 26.0958 5.56555 26.0331 5.56555 25.9539V24.0407C5.56555 23.9616 5.62823 23.8989 5.7074 23.8989C5.78656 23.8989 5.84923 23.9616 5.84923 24.0407V25.9539C5.84594 26.0331 5.78327 26.0958 5.7074 26.0958Z" fill="#F5CBD9"/>
<path d="M5.7074 31.4888C5.62823 31.4888 5.56555 31.4261 5.56555 31.3469V30.3706C5.56555 30.2914 5.62823 30.2287 5.7074 30.2287C5.78656 30.2287 5.84923 30.2914 5.84923 30.3706V31.3469C5.84594 31.4261 5.78327 31.4888 5.7074 31.4888Z" fill="#F5CBD9"/>
<path d="M5.7074 34.009C5.62823 34.009 5.56555 33.9463 5.56555 33.8672V31.954C5.56555 31.8748 5.62823 31.8122 5.7074 31.8122C5.78656 31.8122 5.84923 31.8748 5.84923 31.954V33.8672C5.84594 33.9463 5.78327 34.009 5.7074 34.009Z" fill="#F5CBD9"/>
<path d="M6.90606 31.169C6.85658 31.169 6.8104 31.1426 6.78401 31.0997L6.29582 30.252C6.25624 30.186 6.27933 30.1003 6.3486 30.0607C6.41457 30.0211 6.50033 30.0442 6.53992 30.1134L7.02811 30.9612C7.06769 31.0272 7.0446 31.1129 6.97533 31.1525C6.95224 31.1624 6.92915 31.169 6.90606 31.169Z" fill="#F5CBD9"/>
<path d="M7.61486 32.3961C7.56538 32.3961 7.5192 32.3697 7.49281 32.3268L7.08708 31.6242C7.0475 31.5582 7.07059 31.4725 7.13986 31.4329C7.20583 31.3933 7.29159 31.4164 7.33118 31.4857L7.7369 32.1883C7.77649 32.2542 7.7534 32.34 7.68413 32.3796C7.66104 32.3895 7.63795 32.3961 7.61486 32.3961Z" fill="#F5CBD9"/>
<path d="M7.78299 30.2916C7.7599 30.2916 7.73352 30.2849 7.71373 30.2718L6.86929 29.7836C6.80332 29.744 6.78023 29.6582 6.81651 29.5922C6.85609 29.5263 6.94186 29.5032 7.00783 29.5395L7.85227 30.0277C7.91824 30.0672 7.94133 30.153 7.90505 30.219C7.87866 30.2685 7.82917 30.2916 7.78299 30.2916Z" fill="#F5CBD9"/>
<path d="M10.1092 31.6374C10.0862 31.6374 10.0598 31.6308 10.04 31.6176L8.23565 30.5753C8.16968 30.5357 8.14659 30.4499 8.18287 30.3839C8.22246 30.318 8.30822 30.2949 8.37419 30.3312L10.1785 31.3735C10.2445 31.4131 10.2676 31.4989 10.2313 31.5648C10.2049 31.611 10.1587 31.6374 10.1092 31.6374Z" fill="#F5CBD9"/>
<path d="M21.6294 10.2226C21.5502 10.2226 21.4743 10.2193 21.3985 10.2094C20.7519 10.1336 20.1681 9.72454 19.9108 9.16708C19.637 8.57333 19.7591 7.82455 20.2011 7.38254C20.6695 6.91414 21.471 6.84158 21.9856 7.22422C22.4012 7.53428 22.5695 8.11153 22.3682 8.53705C22.2561 8.77454 22.0087 8.95267 21.7283 9.00545C21.4743 9.05163 21.2335 8.98566 21.0653 8.82403C21.0092 8.77125 21.0092 8.68219 21.062 8.62611C21.1148 8.57004 21.2039 8.57003 21.2599 8.62281C21.3622 8.72177 21.5106 8.75806 21.6788 8.72837C21.8735 8.69208 22.0384 8.57333 22.1143 8.415C22.2627 8.10493 22.1308 7.67942 21.8207 7.44852C21.4117 7.14505 20.775 7.20442 20.399 7.58046C20.0361 7.94 19.9372 8.56014 20.1648 9.04833C20.3825 9.52003 20.8806 9.86637 21.4282 9.92905C21.946 9.99172 22.5134 9.80701 22.9455 9.44417C23.5326 8.94608 23.7998 8.14452 23.5986 7.4914C23.4535 7.023 23.0774 6.61727 22.5728 6.37318C22.1407 6.16537 21.6129 6.07301 21.0059 6.0961C20.0428 6.13238 19.0466 6.43915 18.0504 7.00651C17.2818 7.44522 16.19 8.13132 15.3456 8.91968C15.2928 8.96586 15.2136 8.96917 15.1609 8.92629C15.1048 8.88011 15.0949 8.80423 15.1312 8.74486C15.4643 8.20389 15.7018 7.7223 15.8634 7.2638C14.7452 8.23028 13.4357 8.99554 12.047 9.49033C11.4335 9.70804 10.622 9.94224 9.79077 9.82679C8.93314 9.70474 8.21074 9.18027 7.95015 8.49087C7.78522 8.05546 7.81821 7.54088 8.03921 7.08567C8.26351 6.62717 8.64615 6.28742 9.09146 6.14888C9.65552 5.97405 10.2888 6.11919 10.6715 6.50842C11.097 6.94383 11.163 7.64643 10.8232 8.10823C10.6451 8.34903 10.3482 8.51066 10.0283 8.53375C9.72809 8.56014 9.44441 8.46448 9.24979 8.27316C9.19372 8.22039 9.19372 8.13132 9.24649 8.07525C9.29927 8.01917 9.38833 8.01917 9.44441 8.07525C9.57965 8.20719 9.78087 8.27647 10.0019 8.25667C10.2427 8.23688 10.4637 8.12143 10.5923 7.94331C10.8496 7.59366 10.7902 7.03619 10.467 6.70304C10.1569 6.38637 9.63573 6.27093 9.17063 6.41277C8.79789 6.52822 8.47792 6.81519 8.2866 7.20443C8.09859 7.59366 8.0689 8.02577 8.20744 8.38862C8.43504 8.98566 9.06837 9.43757 9.82705 9.54642C10.5989 9.65527 11.3675 9.43096 11.9513 9.22315C13.4621 8.68548 14.8772 7.82126 16.0416 6.71953C16.0878 6.67665 16.1537 6.67006 16.2098 6.69974C16.2626 6.72943 16.289 6.7921 16.2758 6.85478C16.1735 7.28359 16.0086 7.7157 15.7678 8.1874C16.5001 7.60685 17.3049 7.10547 17.9119 6.76242C18.9476 6.17197 19.9867 5.852 20.996 5.81572C21.6492 5.78933 22.2231 5.89489 22.6948 6.12249C23.2721 6.39957 23.6976 6.86797 23.8691 7.40894C24.1066 8.16761 23.7998 9.09121 23.1302 9.65856C22.7014 10.0181 22.1571 10.2226 21.6294 10.2226Z" fill="#F1DFC1"/>
<path d="M21.1724 9.91259C21.0933 9.91259 21.0174 9.90929 20.9415 9.8994C20.737 9.87631 20.5358 9.81693 20.3445 9.72787C20.2752 9.69488 20.2455 9.61241 20.2785 9.53984C20.3115 9.47057 20.394 9.44088 20.4665 9.47387C20.6315 9.54974 20.803 9.59922 20.9778 9.62231C21.4957 9.68168 22.0631 9.50027 22.4952 9.13743C23.0823 8.64264 23.3495 7.83778 23.1483 7.18466C23.0526 6.8779 22.8547 6.59752 22.5611 6.36002C22.5018 6.31054 22.4919 6.22148 22.5414 6.1621C22.5908 6.10273 22.6799 6.09283 22.7393 6.14231C23.0757 6.41609 23.3033 6.73935 23.4155 7.1022C23.653 7.86087 23.3462 8.78447 22.6766 9.35182C22.2445 9.71137 21.6969 9.91259 21.1724 9.91259Z" fill="#F1DFC1"/>
<path d="M10.5033 9.84666C10.4967 9.84666 10.4901 9.84666 10.4835 9.84666C9.76774 9.7444 8.86394 9.27601 8.56377 8.49095C8.37905 8.00276 8.43841 7.39582 8.72209 6.91092C8.98268 6.46562 9.39501 6.17864 9.8832 6.10937C9.95907 6.09618 10.0316 6.15225 10.0415 6.22812C10.0514 6.30398 9.99865 6.37655 9.92278 6.38645C9.52035 6.44583 9.1806 6.68332 8.96289 7.05276C8.72209 7.46508 8.66931 7.97967 8.82435 8.38869C9.08493 9.0682 9.8865 9.47723 10.5231 9.56629C10.599 9.57618 10.6518 9.64875 10.6419 9.72461C10.632 9.79388 10.5726 9.84666 10.5033 9.84666Z" fill="#F1DFC1"/>
<path d="M24.6644 6.0928H12.8423C12.7631 6.0928 12.7004 6.03012 12.7004 5.95096C12.7004 5.87179 12.7631 5.80912 12.8423 5.80912H24.6644C24.7436 5.80912 24.8062 5.87179 24.8062 5.95096C24.8062 6.03012 24.7436 6.0928 24.6644 6.0928Z" fill="#F1DFC1"/>
<path d="M21.4947 8.98561C21.8481 8.98561 22.1346 8.69911 22.1346 8.34568C22.1346 7.99226 21.8481 7.70576 21.4947 7.70576C21.1413 7.70576 20.8548 7.99226 20.8548 8.34568C20.8548 8.69911 21.1413 8.98561 21.4947 8.98561Z" fill="#F1DFC1"/>
<path d="M13.4823 6.45248C13.4823 6.80542 13.1954 7.0924 12.8424 7.0924C12.4895 7.0924 12.2025 6.80542 12.2025 6.45248C12.2025 6.09953 12.4895 5.81255 12.8424 5.81255C13.1954 5.81255 13.4823 6.09953 13.4823 6.45248Z" fill="#F1DFC1"/>
<path d="M9.71231 8.46783C10.0657 8.46783 10.3522 8.18132 10.3522 7.8279C10.3522 7.47448 10.0657 7.18798 9.71231 7.18798C9.35889 7.18798 9.07239 7.47448 9.07239 7.8279C9.07239 8.18132 9.35889 8.46783 9.71231 8.46783Z" fill="#F1DFC1"/>
<path d="M34.3859 10.2226C33.8581 10.2226 33.327 10.0247 32.8949 9.65856C32.222 9.09121 31.9185 8.16761 32.156 7.40894C32.3243 6.86797 32.7531 6.39957 33.3303 6.12249C33.8053 5.89489 34.376 5.78933 35.0291 5.81572C36.0385 5.852 37.0775 6.17197 38.1133 6.76242C38.7202 7.10877 39.5251 7.60685 40.2574 8.1874C40.0166 7.7157 39.8516 7.28359 39.7494 6.85478C39.7362 6.7954 39.7626 6.73273 39.8153 6.69974C39.8681 6.67006 39.9374 6.67665 39.9836 6.71953C41.148 7.82126 42.5631 8.68548 44.0738 9.22315C44.6577 9.43096 45.4262 9.65527 46.1981 9.54642C46.9535 9.44087 47.5901 8.98566 47.8177 8.38862C47.9562 8.02577 47.9266 7.59366 47.7385 7.20443C47.5505 6.81519 47.2273 6.52822 46.8545 6.41277C46.3894 6.26763 45.8682 6.38307 45.5582 6.70304C45.2316 7.03619 45.1755 7.59036 45.4328 7.94331C45.5615 8.11813 45.7825 8.23688 46.0233 8.25667C46.241 8.27317 46.4455 8.20719 46.5807 8.07525C46.6368 8.02247 46.7259 8.02247 46.7786 8.07525C46.8314 8.13132 46.8314 8.22039 46.7754 8.27316C46.5807 8.46448 46.2971 8.56014 45.9969 8.53375C45.6769 8.50737 45.3801 8.34903 45.2019 8.10823C44.8622 7.64643 44.9315 6.94053 45.3537 6.50842C45.7363 6.11919 46.3696 5.97405 46.9337 6.14888C47.379 6.28742 47.7616 6.62717 47.9859 7.08567C48.2102 7.54417 48.2432 8.05546 48.075 8.49087C47.8111 9.18027 47.0887 9.70474 46.2344 9.82679C45.4031 9.94554 44.5917 9.70804 43.9782 9.49033C42.5895 8.99554 41.2799 8.23028 40.1617 7.2638C40.3233 7.7223 40.5608 8.20389 40.894 8.74486C40.9303 8.80423 40.9171 8.8834 40.8643 8.92629C40.8115 8.96917 40.7324 8.96916 40.6796 8.91968C39.8384 8.13132 38.7433 7.44522 37.9747 7.00651C36.9786 6.43915 35.9824 6.13238 35.0192 6.0961C34.409 6.07301 33.8845 6.16867 33.4524 6.37318C32.9444 6.61727 32.5717 7.023 32.4265 7.4914C32.222 8.14452 32.4925 8.94608 33.0796 9.44417C33.5118 9.81031 34.0824 9.99172 34.597 9.92905C35.1479 9.86308 35.6459 9.51673 35.8636 9.04833C36.0912 8.55684 35.9923 7.94 35.6294 7.58046C35.2534 7.20442 34.6168 7.14835 34.2078 7.44852C33.8944 7.67942 33.7657 8.10493 33.9142 8.415C33.9901 8.57333 34.155 8.69208 34.3496 8.72837C34.5112 8.75806 34.6663 8.71847 34.7685 8.62281C34.8246 8.57003 34.9137 8.57004 34.9664 8.62611C35.0192 8.68219 35.0192 8.77125 34.9631 8.82403C34.7949 8.98566 34.5541 9.05163 34.3001 9.00545C34.0197 8.95597 33.7756 8.77454 33.6602 8.53705C33.4557 8.11153 33.6239 7.53428 34.0428 7.22422C34.5574 6.84158 35.359 6.91414 35.8274 7.38254C36.2694 7.82455 36.3914 8.57333 36.1176 9.16708C35.8604 9.72454 35.2765 10.1336 34.63 10.2094C34.5442 10.2193 34.4651 10.2226 34.3859 10.2226Z" fill="#F1DFC1"/>
<path d="M34.8562 9.9127C34.3317 9.9127 33.7841 9.71148 33.3553 9.34863C32.6824 8.78128 32.3789 7.85768 32.6164 7.09901C32.7286 6.73946 32.9562 6.4162 33.2926 6.13912C33.352 6.08964 33.4411 6.09954 33.4906 6.15891C33.54 6.21829 33.5301 6.30735 33.4708 6.35683C33.1772 6.59763 32.9826 6.87471 32.8869 7.18147C32.6824 7.83459 32.9529 8.63615 33.54 9.13424C33.9722 9.50038 34.5428 9.68179 35.0574 9.61912C35.2322 9.59933 35.4037 9.54985 35.5687 9.47068C35.6379 9.43769 35.7237 9.46739 35.7567 9.53666C35.7897 9.60593 35.76 9.69169 35.6907 9.72468C35.4994 9.81374 35.2982 9.87312 35.0937 9.89621C35.0112 9.9094 34.932 9.9127 34.8562 9.9127Z" fill="#F1DFC1"/>
<path d="M45.5219 9.84653C45.4526 9.84653 45.3932 9.79705 45.3833 9.72448C45.3734 9.64862 45.4262 9.57606 45.5021 9.56616C46.1387 9.4771 46.9403 9.06807 47.2008 8.38856C47.3592 7.97624 47.3064 7.46496 47.0623 7.04934C46.8446 6.6799 46.5048 6.4424 46.1024 6.38302C46.0266 6.37313 45.9738 6.30056 45.9837 6.2247C45.9936 6.14883 46.0661 6.09275 46.142 6.10594C46.6302 6.17851 47.0425 6.4622 47.3031 6.9075C47.5868 7.3924 47.6495 7.99603 47.4614 8.48752C47.1613 9.27588 46.2575 9.74097 45.5417 9.84323C45.5351 9.84653 45.5285 9.84653 45.5219 9.84653Z" fill="#F1DFC1"/>
<path d="M43.1844 6.0928H31.3589C31.2798 6.0928 31.2171 6.03012 31.2171 5.95096C31.2171 5.87179 31.2798 5.80912 31.3589 5.80912H43.1811C43.2602 5.80912 43.3229 5.87179 43.3229 5.95096C43.3229 6.03012 43.2602 6.0928 43.1844 6.0928Z" fill="#F1DFC1"/>
<path d="M34.5311 8.98561C34.8846 8.98561 35.171 8.69911 35.171 8.34568C35.171 7.99226 34.8846 7.70576 34.5311 7.70576C34.1777 7.70576 33.8912 7.99226 33.8912 8.34568C33.8912 8.69911 34.1777 8.98561 34.5311 8.98561Z" fill="#F1DFC1"/>
<path d="M42.5435 6.45248C42.5435 6.80542 42.8305 7.0924 43.1834 7.0924C43.5364 7.0924 43.8234 6.80542 43.8234 6.45248C43.8234 6.09953 43.5364 5.81255 43.1834 5.81255C42.8305 5.81255 42.5435 6.09953 42.5435 6.45248Z" fill="#F1DFC1"/>
<path d="M46.3134 8.46788C46.6669 8.46788 46.9534 8.18137 46.9534 7.82795C46.9534 7.47453 46.6669 7.18803 46.3134 7.18803C45.96 7.18803 45.6735 7.47453 45.6735 7.82795C45.6735 8.18137 45.96 8.46788 46.3134 8.46788Z" fill="#F1DFC1"/>
<path d="M21.1809 52.0984C21.1182 52.0984 21.0588 52.0984 20.9961 52.0951C19.9868 52.0588 18.9477 51.7389 17.912 51.1484C17.305 50.8021 16.5002 50.304 15.7679 49.7234C16.0087 50.1951 16.1736 50.6272 16.2759 51.056C16.2891 51.1154 16.2627 51.1781 16.2099 51.2111C16.1571 51.2408 16.0878 51.2342 16.0417 51.1913C14.8773 50.0896 13.4622 49.2253 11.9514 48.6877C11.3676 48.4799 10.5957 48.2556 9.82714 48.3644C9.07177 48.4733 8.43514 48.9252 8.20754 49.5222C8.069 49.8851 8.09868 50.3172 8.2867 50.7064C8.47472 51.0956 8.79799 51.3826 9.17073 51.4981C9.63583 51.6432 10.157 51.5278 10.4671 51.2078C10.7936 50.8746 10.8497 50.3205 10.5924 49.9675C10.4638 49.7894 10.2428 49.6739 10.002 49.6542C9.78426 49.6377 9.57975 49.7036 9.44451 49.8356C9.38843 49.8917 9.29937 49.8884 9.24659 49.8356C9.19381 49.7795 9.19382 49.6904 9.24989 49.6377C9.44451 49.4463 9.72819 49.3507 10.0251 49.3771C10.345 49.4035 10.6419 49.5618 10.82 49.8026C11.1598 50.2644 11.0938 50.9703 10.6683 51.4024C10.2856 51.7916 9.65232 51.9368 9.08826 51.762C8.64296 51.6234 8.26032 51.2837 8.03602 50.8252C7.81171 50.3667 7.77872 49.8554 7.94695 49.42C8.21083 48.7306 8.93323 48.2061 9.78756 48.084C10.6221 47.9653 11.4303 48.2028 12.0438 48.4205C13.4325 48.9153 14.742 49.6805 15.8602 50.647C15.6986 50.1885 15.4611 49.7069 15.128 49.166C15.0917 49.1066 15.1049 49.0274 15.1577 48.9846C15.2104 48.9417 15.2896 48.9417 15.3424 48.9911C16.1835 49.7795 17.2786 50.4656 18.0472 50.9043C19.0434 51.4717 20.0395 51.7785 21.0027 51.8147C21.613 51.8378 22.1374 51.7422 22.5696 51.5376C23.0775 51.2936 23.4503 50.8878 23.5954 50.4194C23.7999 49.7663 23.5294 48.9648 22.9423 48.4667C22.5102 48.1005 21.9428 47.9191 21.425 47.9818C20.8741 48.0477 20.3793 48.3941 20.1616 48.8625C19.934 49.3507 20.033 49.9708 20.3958 50.3304C20.7718 50.7064 21.4085 50.7625 21.8175 50.4623C22.1309 50.2314 22.2595 49.8059 22.1111 49.4958C22.0352 49.3375 21.8703 49.2187 21.6756 49.1825C21.5107 49.1528 21.359 49.1924 21.2567 49.288C21.2006 49.3408 21.1116 49.3408 21.0588 49.2847C21.006 49.2286 21.006 49.1396 21.0621 49.0868C21.2303 48.9252 21.4711 48.8592 21.7251 48.9054C22.0055 48.9549 22.2496 49.1363 22.3651 49.3738C22.5696 49.7993 22.4013 50.3765 21.9824 50.6866C21.4678 51.0692 20.6663 50.9967 20.1979 50.5283C19.7559 50.0863 19.6338 49.3375 19.9076 48.7437C20.1649 48.1863 20.7487 47.7773 21.3953 47.7014C21.989 47.6321 22.6355 47.8366 23.127 48.2523C23.7999 48.8196 24.1034 49.7432 23.8659 50.5019C23.6977 51.0429 23.2689 51.5113 22.6916 51.7883C22.2694 51.9962 21.7581 52.0984 21.1809 52.0984Z" fill="#F1DFC1"/>
<path d="M22.6457 51.8047C22.6062 51.8047 22.5633 51.7882 22.5369 51.7519C22.4874 51.6925 22.4973 51.6035 22.5567 51.554C22.8502 51.3132 23.0449 51.0361 23.1438 50.7293C23.3483 50.0762 23.0779 49.2747 22.4907 48.7766C22.0586 48.4104 21.4912 48.229 20.9734 48.2917C20.7985 48.3115 20.627 48.361 20.4621 48.4401C20.3928 48.4731 20.307 48.4434 20.2741 48.3742C20.2411 48.3049 20.2708 48.2191 20.3433 48.1862C20.5346 48.0971 20.7359 48.0377 20.9404 48.0146C21.5341 47.9454 22.1806 48.1499 22.6721 48.5655C23.345 49.1328 23.6485 50.0564 23.411 50.8151C23.2988 51.178 23.0713 51.4979 22.7348 51.775C22.7084 51.7915 22.6754 51.8047 22.6457 51.8047Z" fill="#F1DFC1"/>
<path d="M9.90385 51.8048C9.89725 51.8048 9.89066 51.8048 9.88406 51.8048C9.39587 51.7322 8.98354 51.4485 8.72295 51.0032C8.43928 50.5183 8.37661 49.9147 8.56463 49.4232C8.8648 48.6348 9.7686 48.1697 10.4844 48.0675C10.5603 48.0576 10.6328 48.1104 10.6427 48.1862C10.6526 48.2621 10.5999 48.3347 10.524 48.3445C9.88736 48.4336 9.0858 48.8426 8.82521 49.5221C8.66688 49.9345 8.71966 50.4457 8.96375 50.8581C9.18146 51.2275 9.52121 51.465 9.92364 51.5244C9.99951 51.5343 10.0523 51.6068 10.0424 51.6827C10.0325 51.7553 9.97312 51.8048 9.90385 51.8048Z" fill="#F1DFC1"/>
<path d="M24.6645 52.0983H12.8424C12.7632 52.0983 12.7006 52.0356 12.7006 51.9565C12.7006 51.8773 12.7632 51.8146 12.8424 51.8146H24.6645C24.7437 51.8146 24.8064 51.8773 24.8064 51.9565C24.8064 52.0356 24.7437 52.0983 24.6645 52.0983Z" fill="#F1DFC1"/>
<path d="M21.4955 50.205C21.8489 50.205 22.1354 49.9185 22.1354 49.5651C22.1354 49.2117 21.8489 48.9252 21.4955 48.9252C21.1421 48.9252 20.8556 49.2117 20.8556 49.5651C20.8556 49.9185 21.1421 50.205 21.4955 50.205Z" fill="#F1DFC1"/>
<path d="M12.8425 52.0985C13.196 52.0985 13.4824 51.812 13.4824 51.4585C13.4824 51.1051 13.196 50.8186 12.8425 50.8186C12.4891 50.8186 12.2026 51.1051 12.2026 51.4585C12.2026 51.812 12.4891 52.0985 12.8425 52.0985Z" fill="#F1DFC1"/>
<path d="M9.71244 50.7229C10.0659 50.7229 10.3524 50.4364 10.3524 50.083C10.3524 49.7295 10.0659 49.443 9.71244 49.443C9.35901 49.443 9.07251 49.7295 9.07251 50.083C9.07251 50.4364 9.35901 50.7229 9.71244 50.7229Z" fill="#F1DFC1"/>
<path d="M34.8415 52.0983C34.2643 52.0983 33.7563 51.996 33.3275 51.7882C32.7502 51.5111 32.3247 51.0427 32.1532 50.5017C31.9157 49.7431 32.2225 48.8195 32.8921 48.2521C33.3902 47.8299 34.0202 47.632 34.6239 47.7013C35.2704 47.7771 35.8542 48.1861 36.1115 48.7436C36.3853 49.3373 36.2632 50.0861 35.8212 50.5281C35.3495 50.9965 34.548 51.0691 34.0367 50.6865C33.6211 50.3764 33.4529 49.7992 33.6541 49.3736C33.7662 49.1361 34.0103 48.958 34.294 48.9052C34.548 48.8591 34.7888 48.925 34.957 49.0867C35.0131 49.1394 35.0131 49.2285 34.9603 49.2846C34.9075 49.3406 34.8185 49.3406 34.7624 49.2879C34.6601 49.1889 34.5084 49.1526 34.3435 49.1823C34.1489 49.2186 33.9839 49.3374 33.9081 49.4957C33.7596 49.8058 33.8916 50.2313 34.2016 50.4622C34.6107 50.7656 35.2473 50.7063 35.6233 50.3302C35.9862 49.9707 36.0851 49.3539 35.8575 48.8624C35.6398 48.3907 35.1417 48.0443 34.5909 47.9816C34.073 47.9223 33.5056 48.1037 33.0735 48.4665C32.4864 48.9613 32.2192 49.7662 32.4204 50.4193C32.5655 50.8877 32.9416 51.2934 33.4463 51.5375C33.8784 51.7453 34.4061 51.8377 35.0131 51.8146C35.9763 51.7783 36.9724 51.4715 37.9686 50.9042C38.7372 50.4655 39.829 49.7794 40.6734 48.991C40.7262 48.9415 40.8054 48.9415 40.8582 48.9844C40.9142 49.0306 40.9241 49.1065 40.8879 49.1658C40.5547 49.7068 40.3172 50.1884 40.1556 50.6469C41.2705 49.6804 42.5833 48.9151 43.972 48.4203C44.5856 48.2026 45.397 47.9651 46.2283 48.0839C47.0859 48.2059 47.8083 48.7304 48.0689 49.4198C48.2338 49.8552 48.2008 50.3698 47.9798 50.825C47.7555 51.2835 47.3729 51.6233 46.9276 51.7618C46.3635 51.9366 45.7302 51.7915 45.3475 51.4023C44.922 50.9669 44.856 50.2643 45.1958 49.8024C45.3739 49.5617 45.6675 49.4 45.9908 49.3769C46.2909 49.3538 46.5746 49.4495 46.7692 49.6375C46.8253 49.6903 46.8253 49.7794 46.7725 49.8354C46.7197 49.8915 46.6307 49.8915 46.5746 49.8354C46.4394 49.7035 46.2348 49.6342 46.0171 49.654C45.7763 49.6738 45.5553 49.7893 45.4267 49.9674C45.1694 50.317 45.2288 50.8745 45.552 51.2076C45.8621 51.5243 46.3833 51.6398 46.8484 51.4979C47.2211 51.3825 47.5411 51.0955 47.7324 50.7063C47.9204 50.317 47.9501 49.8849 47.8116 49.5221C47.584 48.925 46.9506 48.4731 46.192 48.3643C45.4234 48.2554 44.6515 48.4797 44.0677 48.6875C42.5569 49.2252 41.1418 50.0894 39.9774 51.1912C39.9313 51.234 39.8653 51.2406 39.8092 51.2109C39.7564 51.1813 39.7301 51.1186 39.7432 51.0559C39.8455 50.6271 40.0104 50.195 40.2512 49.7233C39.5189 50.3038 38.7141 50.8052 38.1072 51.1483C37.0714 51.7387 36.0323 52.0554 35.023 52.095C34.9636 52.0983 34.9042 52.0983 34.8415 52.0983Z" fill="#F1DFC1"/>
<path d="M33.3814 51.8047C33.3484 51.8047 33.3187 51.7948 33.2923 51.7717C32.9559 51.498 32.7282 51.1747 32.6161 50.8118C32.3786 50.0532 32.6854 49.1296 33.355 48.5622C33.8465 48.1466 34.4963 47.9421 35.0867 48.0114C35.2913 48.0344 35.4925 48.0938 35.6838 48.1829C35.7531 48.2159 35.7827 48.2983 35.7531 48.3709C35.7201 48.4402 35.6376 48.4699 35.565 48.4369C35.4001 48.361 35.2286 48.3115 35.0538 48.2884C34.5359 48.2258 33.9685 48.4105 33.5364 48.7733C32.9493 49.2681 32.6821 50.073 32.8833 50.7261C32.979 51.0328 33.1769 51.3132 33.4671 51.5507C33.5265 51.6002 33.5364 51.6893 33.4869 51.7487C33.4605 51.7849 33.421 51.8047 33.3814 51.8047Z" fill="#F1DFC1"/>
<path d="M46.1185 51.8047C46.0492 51.8047 45.9898 51.7552 45.9799 51.686C45.97 51.6101 46.0228 51.5375 46.0987 51.5276C46.5011 51.4683 46.8408 51.2308 47.0586 50.8613C47.2994 50.449 47.3521 49.9344 47.1971 49.5221C46.9365 48.8426 46.135 48.4336 45.4983 48.3445C45.4225 48.3346 45.3697 48.262 45.3796 48.1862C45.3895 48.1103 45.462 48.0575 45.5379 48.0674C46.2768 48.173 47.1575 48.6315 47.4577 49.4231C47.6424 49.9146 47.583 50.5183 47.2994 51.0032C47.0388 51.4485 46.6264 51.7354 46.1382 51.8047C46.1317 51.8047 46.1251 51.8047 46.1185 51.8047Z" fill="#F1DFC1"/>
<path d="M43.1844 52.0982H31.359C31.2798 52.0982 31.2172 52.0356 31.2172 51.9564C31.2172 51.8772 31.2798 51.8146 31.359 51.8146H43.1811C43.2603 51.8146 43.323 51.8772 43.323 51.9564C43.323 52.0356 43.2603 52.0982 43.1844 52.0982Z" fill="#F1DFC1"/>
<path d="M34.5312 50.2049C34.8846 50.2049 35.1711 49.9184 35.1711 49.565C35.1711 49.2116 34.8846 48.9251 34.5312 48.9251C34.1778 48.9251 33.8913 49.2116 33.8913 49.565C33.8913 49.9184 34.1778 50.2049 34.5312 50.2049Z" fill="#F1DFC1"/>
<path d="M43.1835 52.0984C43.5369 52.0984 43.8234 51.8119 43.8234 51.4585C43.8234 51.105 43.5369 50.8185 43.1835 50.8185C42.8301 50.8185 42.5436 51.105 42.5436 51.4585C42.5436 51.8119 42.8301 52.0984 43.1835 52.0984Z" fill="#F1DFC1"/>
<path d="M46.3135 50.7229C46.6669 50.7229 46.9534 50.4364 46.9534 50.083C46.9534 49.7296 46.6669 49.4431 46.3135 49.4431C45.9601 49.4431 45.6736 49.7296 45.6736 50.083C45.6736 50.4364 45.9601 50.7229 46.3135 50.7229Z" fill="#F1DFC1"/>
<path d="M49.0233 24.8921C48.3999 24.8921 47.7468 24.5919 47.3081 24.074C46.8859 23.5759 46.6879 22.9459 46.7572 22.3423C46.8331 21.6958 47.2421 21.1119 47.7996 20.8546C48.3933 20.5808 49.1421 20.7029 49.5841 21.1449C50.0525 21.6166 50.1251 22.4181 49.7424 22.9327C49.4324 23.3483 48.8551 23.5166 48.4296 23.3154C48.1921 23.2032 48.014 22.9591 47.9612 22.6754C47.915 22.4214 47.981 22.1806 48.1426 22.0124C48.1954 21.9563 48.2845 21.9563 48.3405 22.0091C48.3966 22.0619 48.3966 22.151 48.3438 22.207C48.2449 22.3093 48.2086 22.461 48.2383 22.6259C48.2746 22.8206 48.3933 22.9855 48.5516 23.0614C48.8617 23.2098 49.2872 23.0779 49.5181 22.7678C49.8216 22.3588 49.7622 21.7221 49.3862 21.3461C49.0266 20.9833 48.4098 20.8843 47.9183 21.1119C47.4466 21.3296 47.1003 21.8277 47.0376 22.3786C46.9782 22.8964 47.1596 23.4638 47.5225 23.8959C48.0173 24.4831 48.8221 24.7535 49.4753 24.549C49.9404 24.4039 50.3494 24.0279 50.5935 23.5232C50.8013 23.0911 50.8936 22.5633 50.8705 21.9563C50.8343 20.9932 50.5275 19.997 49.9601 19.0008C49.5214 18.2322 48.8353 17.1404 48.047 16.296C47.9975 16.2432 47.9975 16.164 48.0404 16.1113C48.0833 16.0585 48.1624 16.0453 48.2218 16.0816C48.7628 16.4147 49.2444 16.6522 49.7029 16.8139C48.7364 15.6956 47.9711 14.3861 47.4763 12.9974C47.2586 12.3839 47.0211 11.5724 47.1399 10.7412C47.2619 9.88684 47.7864 9.16115 48.4758 8.90056C48.9112 8.73563 49.4225 8.76862 49.881 8.98963C50.3395 9.21393 50.6792 9.59657 50.8178 10.0419C50.9926 10.6059 50.8475 11.2393 50.4582 11.6219C50.0228 12.0474 49.3202 12.1134 48.8584 11.7736C48.6176 11.5955 48.456 11.2986 48.4329 10.9787C48.4098 10.6785 48.5055 10.3948 48.6935 10.2035C48.7496 10.1474 48.8353 10.1474 48.8914 10.2002C48.9475 10.253 48.9475 10.342 48.8914 10.3981C48.7595 10.5334 48.6902 10.7379 48.71 10.9556C48.7298 11.1964 48.8452 11.4174 49.0233 11.546C49.373 11.8033 49.9305 11.7439 50.2636 11.4207C50.5803 11.1106 50.6957 10.5894 50.5506 10.1243C50.4351 9.7516 50.1482 9.43164 49.7589 9.24032C49.3697 9.0523 48.9409 9.0226 48.5747 9.16114C47.9777 9.38874 47.5258 10.0221 47.4169 10.7808C47.3081 11.5526 47.5324 12.3212 47.7402 12.905C48.2779 14.4158 49.1421 15.8309 50.2438 16.9953C50.2867 17.0415 50.2933 17.1074 50.2636 17.1635C50.2339 17.2163 50.1679 17.2427 50.1086 17.2295C49.6798 17.1272 49.2476 16.9623 48.7759 16.7215C49.3565 17.4538 49.8579 18.2586 50.2009 18.8656C50.7914 19.9013 51.1113 20.9404 51.1476 21.9497C51.1707 22.6029 51.0685 23.1768 50.8409 23.6485C50.5638 24.2258 50.0954 24.6546 49.5544 24.8228C49.3862 24.8657 49.2048 24.8921 49.0233 24.8921Z" fill="#F1DFC1"/>
<path d="M49.3345 24.4334C48.7111 24.4334 48.058 24.1332 47.6193 23.6154C47.1971 23.1173 46.9991 22.4839 47.0684 21.8836C47.0915 21.6791 47.1509 21.4779 47.2399 21.2866C47.2729 21.2173 47.3554 21.1876 47.4279 21.2206C47.4972 21.2536 47.5269 21.336 47.4939 21.4086C47.4181 21.5735 47.3686 21.7451 47.3488 21.9199C47.2861 22.4378 47.4708 23.0051 47.8337 23.4372C48.3285 24.0244 49.1333 24.2916 49.7864 24.0904C50.0932 23.9947 50.3703 23.7968 50.6111 23.5065C50.6606 23.4471 50.7496 23.4372 50.809 23.4867C50.8684 23.5362 50.8783 23.6253 50.8288 23.6846C50.5517 24.0211 50.2317 24.2487 49.8689 24.3608C49.6974 24.407 49.5159 24.4334 49.3345 24.4334Z" fill="#F1DFC1"/>
<path d="M47.2641 11.5888C47.2575 11.5888 47.2509 11.5888 47.2443 11.5888C47.1684 11.5789 47.1156 11.5064 47.1255 11.4305C47.2278 10.7147 47.6929 9.81091 48.4812 9.51074C48.9727 9.32272 49.5764 9.38539 50.0613 9.66906C50.5066 9.92965 50.7935 10.342 50.8628 10.8302C50.8727 10.906 50.8199 10.9786 50.7441 10.9885C50.6682 10.9984 50.5956 10.9456 50.5857 10.8698C50.5264 10.4673 50.2889 10.1276 49.9194 9.90985C49.5071 9.66906 48.9925 9.61629 48.5802 9.77132C47.9007 10.0319 47.4917 10.8335 47.4026 11.4701C47.3927 11.536 47.3333 11.5888 47.2641 11.5888Z" fill="#F1DFC1"/>
<path d="M51.0127 25.7496C50.9336 25.7496 50.8709 25.687 50.8709 25.6078V13.7857C50.8709 13.7065 50.9336 13.6438 51.0127 13.6438C51.0919 13.6438 51.1546 13.7065 51.1546 13.7857V25.6078C51.1546 25.687 51.0919 25.7496 51.0127 25.7496Z" fill="#F1DFC1"/>
<path d="M48.6225 23.0777C48.2695 23.0777 47.9825 22.7907 47.9825 22.4378C47.9825 22.0848 48.2695 21.7979 48.6225 21.7979C48.9754 21.7979 49.2624 22.0848 49.2624 22.4378C49.2624 22.7907 48.9754 23.0777 48.6225 23.0777Z" fill="#F1DFC1"/>
<path d="M50.5155 14.4257C50.869 14.4257 51.1555 14.1392 51.1555 13.7858C51.1555 13.4324 50.869 13.1459 50.5155 13.1459C50.1621 13.1459 49.8756 13.4324 49.8756 13.7858C49.8756 14.1392 50.1621 14.4257 50.5155 14.4257Z" fill="#F1DFC1"/>
<path d="M49.1395 11.2952C49.4929 11.2952 49.7794 11.0087 49.7794 10.6553C49.7794 10.3018 49.4929 10.0153 49.1395 10.0153C48.7861 10.0153 48.4996 10.3018 48.4996 10.6553C48.4996 11.0087 48.7861 11.2952 49.1395 11.2952Z" fill="#F1DFC1"/>
<path d="M49.0611 49.1233C48.8599 49.1233 48.662 49.0871 48.4806 49.0178C47.7912 48.7539 47.2667 48.0315 47.1447 47.1772C47.0259 46.3459 47.2634 45.5345 47.4811 44.921C47.9759 43.5323 48.7412 42.2227 49.7076 41.1045C49.2491 41.2661 48.7676 41.5036 48.2266 41.8368C48.1672 41.8731 48.0881 41.8599 48.0452 41.8071C47.999 41.7543 48.0023 41.6752 48.0518 41.6224C48.8401 40.7812 49.5262 39.6861 49.9649 38.9175C50.5323 37.9214 50.8391 36.9252 50.8753 35.962C50.8984 35.3551 50.8028 34.8273 50.5983 34.3952C50.3542 33.8872 49.9484 33.5145 49.48 33.3693C48.8269 33.1648 48.0254 33.4353 47.5273 34.0225C47.1611 34.4546 46.9797 35.0219 47.0424 35.5398C47.1084 36.0907 47.4547 36.5855 47.9231 36.8065C48.4113 37.0341 49.0314 36.9351 49.391 36.5723C49.767 36.1962 49.8264 35.5596 49.5229 35.1506C49.292 34.8372 48.8665 34.7086 48.5564 34.857C48.3981 34.9329 48.2794 35.0978 48.2431 35.2924C48.2134 35.4573 48.253 35.6091 48.3486 35.7113C48.4014 35.7674 48.4014 35.8565 48.3453 35.9092C48.2893 35.962 48.2002 35.962 48.1474 35.9059C47.9858 35.7377 47.9198 35.4969 47.966 35.2429C48.0155 34.9625 48.1969 34.7184 48.4344 34.603C48.8599 34.3985 49.4372 34.5667 49.7472 34.9856C50.1299 35.5002 50.0573 36.3018 49.5889 36.7735C49.1469 37.2155 48.3981 37.3375 47.8044 37.0637C47.2469 36.8064 46.8379 36.2226 46.762 35.5761C46.6894 34.9757 46.8907 34.3424 47.3129 33.8443C47.8802 33.1714 48.8038 32.8679 49.5625 33.1054C50.1035 33.2737 50.5719 33.7025 50.849 34.2797C51.0766 34.7547 51.1788 35.3254 51.1557 35.9785C51.1194 36.9879 50.7995 38.0269 50.209 39.0627C49.8627 39.6696 49.3646 40.4745 48.784 41.2068C49.2557 40.966 49.6879 40.801 50.1167 40.6988C50.1761 40.6823 50.2387 40.712 50.2717 40.7648C50.3014 40.8175 50.2948 40.8868 50.2519 40.933C49.1502 42.0974 48.286 43.5125 47.7483 45.0232C47.5405 45.6071 47.3162 46.3756 47.425 47.1475C47.5306 47.9029 47.9858 48.5395 48.5828 48.7671C48.9457 48.9056 49.3778 48.8759 49.767 48.6879C50.1563 48.4999 50.4432 48.1767 50.5587 47.8039C50.7038 47.3388 50.5884 46.8176 50.2717 46.5076C49.9386 46.181 49.3844 46.1249 49.0314 46.3822C48.8566 46.5109 48.7379 46.7319 48.7181 46.9727C48.7016 47.1904 48.7676 47.3949 48.8995 47.5301C48.9523 47.5862 48.9523 47.6753 48.8995 47.7281C48.8434 47.7808 48.7544 47.7808 48.7016 47.7248C48.5103 47.5301 48.4146 47.2465 48.441 46.9463C48.4674 46.6263 48.6257 46.3294 48.8665 46.1513C49.3283 45.8116 50.0342 45.8775 50.4663 46.3031C50.8556 46.6857 51.0007 47.319 50.8259 47.8831C50.6873 48.3284 50.3476 48.711 49.8891 48.9353C49.6219 49.0574 49.3382 49.1233 49.0611 49.1233Z" fill="#F1DFC1"/>
<path d="M47.3694 36.7075C47.3166 36.7075 47.2672 36.6778 47.2441 36.6283C47.155 36.437 47.0956 36.2358 47.0725 36.0312C47.0033 35.4375 47.2078 34.791 47.6234 34.2995C48.1908 33.6299 49.1144 33.3231 49.873 33.5606C50.2326 33.6728 50.5558 33.9004 50.8329 34.2368C50.8824 34.2962 50.8725 34.3853 50.8131 34.4347C50.7538 34.4842 50.6647 34.4743 50.6152 34.415C50.3744 34.1214 50.0973 33.9268 49.7906 33.8311C49.1374 33.6266 48.3359 33.8971 47.8378 34.4842C47.4717 34.9163 47.2902 35.4837 47.3529 36.0016C47.3727 36.1764 47.4222 36.3479 47.5014 36.5129C47.5343 36.5821 47.5047 36.6679 47.4354 36.7009C47.409 36.7042 47.3892 36.7075 47.3694 36.7075Z" fill="#F1DFC1"/>
<path d="M49.081 48.5098C48.8732 48.5098 48.6654 48.4735 48.4774 48.4042C47.689 48.1041 47.2239 47.2002 47.1216 46.4845C47.1117 46.4086 47.1645 46.336 47.2404 46.3261C47.3163 46.3129 47.3888 46.369 47.3987 46.4449C47.4878 47.0815 47.8968 47.8831 48.5763 48.1437C48.9886 48.302 49.4999 48.2492 49.9155 48.0051C50.285 47.7874 50.5225 47.4476 50.5819 47.0452C50.5917 46.9694 50.6643 46.9133 50.7402 46.9265C50.8161 46.9364 50.8688 47.0089 50.8589 47.0848C50.7864 47.573 50.5027 47.9853 50.0574 48.2459C49.7605 48.4207 49.4175 48.5098 49.081 48.5098Z" fill="#F1DFC1"/>
<path d="M51.0133 44.2678C50.9342 44.2678 50.8715 44.2051 50.8715 44.1259V32.3038C50.8715 32.2247 50.9342 32.162 51.0133 32.162C51.0925 32.162 51.1552 32.2247 51.1552 32.3038V44.1259C51.1552 44.2051 51.0925 44.2678 51.0133 44.2678Z" fill="#F1DFC1"/>
<path d="M48.6231 34.8339C48.2701 34.8339 47.9832 35.1209 47.9832 35.4738C47.9832 35.8268 48.2701 36.1137 48.6231 36.1137C48.976 36.1137 49.263 35.8268 49.263 35.4738C49.263 35.1209 48.976 34.8339 48.6231 34.8339Z" fill="#F1DFC1"/>
<path d="M50.5155 44.766C50.8689 44.766 51.1554 44.4795 51.1554 44.126C51.1554 43.7726 50.8689 43.4861 50.5155 43.4861C50.1621 43.4861 49.8755 43.7726 49.8755 44.126C49.8755 44.4795 50.1621 44.766 50.5155 44.766Z" fill="#F1DFC1"/>
<path d="M49.1415 47.8963C49.4949 47.8963 49.7814 47.6098 49.7814 47.2564C49.7814 46.903 49.4949 46.6165 49.1415 46.6165C48.7881 46.6165 48.5016 46.903 48.5016 47.2564C48.5016 47.6098 48.7881 47.8963 49.1415 47.8963Z" fill="#F1DFC1"/>
<path d="M7.00183 24.8917C6.81711 24.8917 6.63899 24.8653 6.46746 24.8126C5.9265 24.6443 5.4581 24.2155 5.18102 23.6383C4.95342 23.1633 4.85116 22.5926 4.87425 21.9395C4.91054 20.9301 5.2305 19.8911 5.82094 18.8553C6.1673 18.2484 6.66538 17.4435 7.24593 16.7112C6.77754 16.952 6.34212 17.117 5.9133 17.2192C5.85393 17.2324 5.79126 17.206 5.75827 17.1533C5.72858 17.1005 5.73518 17.0312 5.77806 16.985C6.87979 15.8206 7.74401 14.4055 8.28168 12.8948C8.48949 12.3109 8.7138 11.5424 8.60495 10.7705C8.49609 10.0151 8.04419 9.3785 7.44714 9.1509C7.0843 9.01236 6.65219 9.04204 6.26295 9.23006C5.87372 9.41808 5.58675 9.74134 5.4713 10.1141C5.32616 10.5792 5.44491 11.1004 5.76157 11.4104C6.09473 11.737 6.64888 11.7931 7.00183 11.5358C7.17996 11.4071 7.29541 11.1861 7.3152 10.9453C7.33169 10.7276 7.26572 10.5231 7.13377 10.3879C7.081 10.3318 7.081 10.2427 7.13377 10.19C7.18985 10.1372 7.27891 10.1372 7.33169 10.1932C7.52301 10.3879 7.61867 10.6715 7.59228 10.9684C7.56589 11.2884 7.40756 11.5852 7.16347 11.7634C6.70167 12.1031 5.99577 12.0372 5.56366 11.6116C5.17442 11.229 5.02929 10.5957 5.20411 10.0316C5.34265 9.5863 5.6824 9.20367 6.14091 8.97936C6.59941 8.75506 7.11068 8.72209 7.5461 8.89032C8.2355 9.1542 8.75998 9.87658 8.88203 10.7309C9.00078 11.5622 8.76328 12.3736 8.54558 12.9871C8.05409 14.3759 7.28882 15.6854 6.31903 16.8036C6.77754 16.642 7.25913 16.4045 7.80009 16.0713C7.85947 16.035 7.93863 16.0482 7.98151 16.101C8.02769 16.1538 8.0244 16.233 7.97492 16.2857C7.18656 17.1269 6.50045 18.222 6.06173 18.9906C5.49438 19.9867 5.18762 20.9829 5.15133 21.9461C5.12824 22.553 5.2239 23.0808 5.42841 23.5129C5.67251 24.0209 6.07823 24.3936 6.54663 24.5388C7.19975 24.7433 8.0013 24.4728 8.49939 23.8857C8.86553 23.4535 9.04696 22.8862 8.98428 22.3683C8.91831 21.8174 8.57196 21.3227 8.10356 21.1016C7.61207 20.874 6.99524 20.973 6.63569 21.3359C6.25966 21.7119 6.20358 22.3485 6.50375 22.7575C6.73795 23.0709 7.16017 23.1996 7.47023 23.0511C7.62857 22.9753 7.74731 22.8103 7.78359 22.6157C7.81328 22.4508 7.77371 22.299 7.67805 22.1968C7.62527 22.1407 7.62526 22.0517 7.68134 21.9989C7.73741 21.9461 7.82648 21.9461 7.87926 22.0022C8.04089 22.1704 8.10686 22.4112 8.06068 22.6652C8.0112 22.9456 7.82978 23.1896 7.59228 23.3051C7.16676 23.5096 6.58951 23.3414 6.27944 22.9225C5.89681 22.4079 5.96938 21.6063 6.43778 21.1346C6.87979 20.6926 7.62857 20.5706 8.22231 20.8444C8.77977 21.1017 9.1888 21.6855 9.26466 22.332C9.33723 22.9357 9.13601 23.5657 8.7138 24.0638C8.27838 24.5916 7.62526 24.8917 7.00183 24.8917Z" fill="#F1DFC1"/>
<path d="M6.69223 24.4332C6.51081 24.4332 6.32939 24.4068 6.15786 24.354C5.79502 24.2419 5.47505 24.0142 5.19797 23.6778C5.14849 23.6184 5.15839 23.5294 5.21776 23.4799C5.27714 23.4304 5.3662 23.4403 5.41568 23.4997C5.65647 23.7932 5.93356 23.9879 6.24032 24.0835C6.89344 24.288 7.695 24.0208 8.19309 23.4304C8.55923 22.9983 8.74065 22.4309 8.67798 21.9131C8.65819 21.7382 8.60871 21.5667 8.52954 21.4018C8.49655 21.3325 8.52624 21.2467 8.59881 21.2138C8.66808 21.1808 8.75384 21.2105 8.78683 21.2797C8.87589 21.471 8.93527 21.6723 8.95836 21.8768C9.03093 22.4771 8.82971 23.1104 8.40749 23.6085C7.96878 24.133 7.31566 24.4332 6.69223 24.4332Z" fill="#F1DFC1"/>
<path d="M8.76302 11.5885C8.69375 11.5885 8.63438 11.539 8.62449 11.4664C8.53542 10.8298 8.1264 10.0282 7.44689 9.76766C7.03457 9.61263 6.52329 9.6654 6.10767 9.9062C5.73823 10.1239 5.50073 10.4637 5.44136 10.8661C5.43146 10.942 5.35889 10.9947 5.28302 10.9848C5.20715 10.9749 5.15438 10.9024 5.16428 10.8265C5.23685 10.3383 5.52052 9.92599 5.96583 9.66541C6.45072 9.38173 7.05436 9.31906 7.54584 9.50708C8.3342 9.80725 8.79931 10.7111 8.90157 11.4269C8.91146 11.5027 8.85868 11.5753 8.78281 11.5852C8.77621 11.5885 8.76962 11.5885 8.76302 11.5885Z" fill="#F1DFC1"/>
<path d="M5.00842 25.7494C4.92926 25.7494 4.86658 25.6867 4.86658 25.6076V13.7854C4.86658 13.7063 4.92926 13.6436 5.00842 13.6436C5.08759 13.6436 5.15026 13.7063 5.15026 13.7854V25.6076C5.15026 25.6867 5.08759 25.7494 5.00842 25.7494Z" fill="#F1DFC1"/>
<path d="M7.40338 23.0775C7.7568 23.0775 8.04331 22.791 8.04331 22.4375C8.04331 22.0841 7.7568 21.7976 7.40338 21.7976C7.04996 21.7976 6.76346 22.0841 6.76346 22.4375C6.76346 22.791 7.04996 23.0775 7.40338 23.0775Z" fill="#F1DFC1"/>
<path d="M5.51099 14.4253C5.86441 14.4253 6.15091 14.1388 6.15091 13.7854C6.15091 13.432 5.86441 13.1455 5.51099 13.1455C5.15757 13.1455 4.87106 13.432 4.87106 13.7854C4.87106 14.1388 5.15757 14.4253 5.51099 14.4253Z" fill="#F1DFC1"/>
<path d="M6.88251 11.2949C7.23593 11.2949 7.52244 11.0084 7.52244 10.655C7.52244 10.3016 7.23593 10.0151 6.88251 10.0151C6.52909 10.0151 6.24258 10.3016 6.24258 10.655C6.24258 11.0084 6.52909 11.2949 6.88251 11.2949Z" fill="#F1DFC1"/>
<path d="M6.96555 49.123C6.68847 49.123 6.40479 49.057 6.14091 48.9284C5.6824 48.7041 5.34265 48.3214 5.20411 47.8761C5.02929 47.3121 5.17442 46.6787 5.56366 46.2961C5.99907 45.8706 6.70167 45.8046 7.16347 46.1444C7.40427 46.3225 7.56589 46.6194 7.59228 46.9393C7.61537 47.2395 7.51971 47.5232 7.33169 47.7178C7.27891 47.7739 7.18985 47.7739 7.13377 47.7211C7.0777 47.6683 7.0777 47.5793 7.13377 47.5232C7.26572 47.3879 7.33499 47.1834 7.3152 46.9657C7.29541 46.7249 7.17996 46.5039 7.00183 46.3753C6.65218 46.118 6.09473 46.1773 5.76157 46.5006C5.44491 46.8107 5.32946 47.3318 5.4713 47.7969C5.58675 48.1697 5.87372 48.4897 6.26295 48.681C6.65219 48.869 7.0843 48.8987 7.44714 48.7601C8.04419 48.5325 8.49609 47.8992 8.60495 47.1405C8.7138 46.3687 8.48949 45.6001 8.28168 45.0162C7.74401 43.5055 6.87979 42.0904 5.77806 40.926C5.73518 40.8798 5.72858 40.8139 5.75827 40.7578C5.78796 40.705 5.85393 40.6753 5.9133 40.6918C6.34212 40.7941 6.77424 40.959 7.24593 41.1998C6.66538 40.4675 6.1673 39.6626 5.82094 39.0557C5.2305 38.02 4.91054 36.9809 4.87425 35.9715C4.85116 35.3184 4.95342 34.7445 5.18102 34.2728C5.4581 33.6955 5.9265 33.2667 6.46746 33.0985C7.22284 32.861 8.14974 33.1678 8.7171 33.8374C9.13932 34.3355 9.33723 34.9688 9.26796 35.5691C9.19209 36.2156 8.78307 36.7995 8.22561 37.0568C7.63187 37.3305 6.88309 37.2085 6.44108 36.7665C5.97268 36.2948 5.90011 35.4932 6.28274 34.9787C6.59281 34.563 7.17007 34.3948 7.59558 34.596C7.83308 34.7082 8.0112 34.9523 8.06398 35.236C8.11016 35.49 8.04419 35.7308 7.88256 35.899C7.82978 35.9551 7.74072 35.955 7.68464 35.9023C7.62856 35.8495 7.62856 35.7604 7.68134 35.7044C7.7803 35.6021 7.81658 35.4504 7.7869 35.2854C7.75061 35.0908 7.63187 34.9259 7.47354 34.85C7.16347 34.7016 6.73795 34.8335 6.50704 35.1469C6.20358 35.5526 6.26295 36.1925 6.63899 36.5686C6.99853 36.9314 7.61537 37.0304 8.10686 36.8028C8.57856 36.5851 8.92491 36.087 8.98758 35.5361C9.04696 35.0182 8.86554 34.4509 8.50269 34.0188C8.0079 33.4316 7.20305 33.1644 6.54993 33.3657C6.08483 33.5108 5.67581 33.8835 5.43171 34.3915C5.2239 34.8236 5.13153 35.3514 5.15462 35.9584C5.19091 36.9215 5.49768 37.9177 6.06504 38.9139C6.50375 39.6824 7.18986 40.7776 7.97822 41.6187C8.0277 41.6715 8.02769 41.7507 7.98481 41.8034C7.94193 41.8562 7.86277 41.8694 7.80339 41.8331C7.26243 41.5 6.78083 41.2625 6.32233 41.1008C7.28881 42.219 8.05408 43.5286 8.54887 44.9173C8.76657 45.5308 9.00408 46.3423 8.88533 47.1735C8.76328 48.0312 8.2388 48.7535 7.5494 49.0141C7.36138 49.0867 7.16677 49.123 6.96555 49.123Z" fill="#F1DFC1"/>
<path d="M8.65819 36.7073C8.6384 36.7073 8.6186 36.704 8.59881 36.6941C8.52954 36.6612 8.49985 36.5787 8.52954 36.5061C8.60541 36.3412 8.65489 36.1697 8.67798 35.9948C8.74065 35.477 8.55593 34.9096 8.19309 34.4775C7.6983 33.8903 6.89344 33.6232 6.24032 33.8244C5.93356 33.92 5.65318 34.118 5.41568 34.4082C5.3662 34.4676 5.27714 34.4775 5.21776 34.428C5.15839 34.3785 5.14849 34.2895 5.19797 34.2301C5.47175 33.8936 5.79502 33.666 6.15786 33.5539C6.91653 33.3164 7.84014 33.6232 8.40749 34.2928C8.82311 34.7843 9.02763 35.4308 8.95836 36.0245C8.93527 36.229 8.87589 36.4302 8.78683 36.6216C8.76044 36.6776 8.71097 36.7073 8.65819 36.7073Z" fill="#F1DFC1"/>
<path d="M6.94221 48.5096C6.60575 48.5096 6.2627 48.4205 5.96583 48.2457C5.52052 47.9851 5.23355 47.5728 5.16428 47.0846C5.15438 47.0087 5.20715 46.9362 5.28302 46.9263C5.35889 46.9131 5.43146 46.9691 5.44136 47.045C5.50073 47.4474 5.73823 47.7872 6.10767 48.0049C6.51999 48.2457 7.03457 48.2985 7.44689 48.1434C8.1264 47.8828 8.53542 47.0813 8.62449 46.4447C8.63438 46.3688 8.71024 46.316 8.78281 46.3259C8.85868 46.3358 8.91146 46.4084 8.90157 46.4842C8.79931 47.2 8.3342 48.1038 7.54584 48.404C7.35782 48.4766 7.15332 48.5096 6.94221 48.5096Z" fill="#F1DFC1"/>
<path d="M5.00842 44.2677C4.92926 44.2677 4.86658 44.205 4.86658 44.1258V32.3037C4.86658 32.2246 4.92926 32.1619 5.00842 32.1619C5.08759 32.1619 5.15026 32.2246 5.15026 32.3037V44.1258C5.15026 44.205 5.08759 44.2677 5.00842 44.2677Z" fill="#F1DFC1"/>
<path d="M7.40338 36.1136C7.7568 36.1136 8.04331 35.8271 8.04331 35.4737C8.04331 35.1203 7.7568 34.8338 7.40338 34.8338C7.04996 34.8338 6.76346 35.1203 6.76346 35.4737C6.76346 35.8271 7.04996 36.1136 7.40338 36.1136Z" fill="#F1DFC1"/>
<path d="M5.51099 44.7659C5.86441 44.7659 6.15091 44.4793 6.15091 44.1259C6.15091 43.7725 5.86441 43.486 5.51099 43.486C5.15757 43.486 4.87106 43.7725 4.87106 44.1259C4.87106 44.4793 5.15757 44.7659 5.51099 44.7659Z" fill="#F1DFC1"/>
<path d="M6.88251 47.8961C7.23593 47.8961 7.52244 47.6096 7.52244 47.2562C7.52244 46.9028 7.23593 46.6163 6.88251 46.6163C6.52909 46.6163 6.24258 46.9028 6.24258 47.2562C6.24258 47.6096 6.52909 47.8961 6.88251 47.8961Z" fill="#F1DFC1"/>
<path d="M51.6946 52.778H4.33025C4.25109 52.778 4.18842 52.7153 4.18842 52.6361V5.2718C4.18842 5.19264 4.25109 5.12997 4.33025 5.12997H51.6946C51.7737 5.12997 51.8364 5.19264 51.8364 5.2718V52.6361C51.8364 52.7153 51.7737 52.778 51.6946 52.778ZM4.4721 52.4976H51.556V5.41364H4.4721V52.4976Z" fill="#F1DFC1"/>
<path d="M27.9917 28.9259C27.9917 28.9391 27.9884 28.949 27.9851 28.9589C28.0049 28.9721 28.0247 28.9852 28.0445 28.9984C28.028 28.9721 28.0115 28.9457 27.9983 28.916C27.995 28.9193 27.995 28.9226 27.9917 28.9259Z" fill="#EAA49B" stroke="#EAA49B" stroke-width="0.2" stroke-miterlimit="10" stroke-linejoin="round"/>
<path d="M28.7535 27.4909C30.9961 27.4909 32.8141 25.673 32.8141 23.4304C32.8141 21.1878 30.9961 19.3698 28.7535 19.3698C26.5109 19.3698 24.693 21.1878 24.693 23.4304C24.693 25.673 26.5109 27.4909 28.7535 27.4909Z" fill="#9EBEBF"/>
<path d="M35.5948 33.4944V34.6423C35.5948 35.0282 35.2814 35.3383 34.8988 35.3383H22.6116C22.2257 35.3383 21.9156 35.0249 21.9156 34.6423V33.4944C21.9156 31.3239 22.8887 28.5367 25.7287 28.0188C26.6425 28.6983 27.4935 28.9853 28.7568 28.9853C30.0235 28.9853 30.9867 28.695 31.775 28.032C34.7207 28.596 35.5948 31.4955 35.5948 33.4944Z" fill="#9EBEBF"/>
<path d="M19.7653 29.6846C21.3812 29.6846 22.6912 28.3746 22.6912 26.7587C22.6912 25.1428 21.3812 23.8329 19.7653 23.8329C18.1495 23.8329 16.8395 25.1428 16.8395 26.7587C16.8395 28.3746 18.1495 29.6846 19.7653 29.6846Z" fill="#9EBEBF"/>
<path d="M21.3057 34.6456C21.3057 34.9029 21.3782 35.1404 21.5069 35.3416H15.3385C15.0615 35.3416 14.8372 35.1173 14.8372 34.8402V34.0123C14.8372 32.4488 15.5365 30.4399 17.5849 30.0672C18.2413 30.5554 18.8548 30.7632 19.7685 30.7632C20.6822 30.7632 21.3749 30.5554 21.9423 30.0771C21.9885 30.087 22.038 30.0969 22.0841 30.1068C21.5828 31.0864 21.309 32.2772 21.309 33.4977V34.6456H21.3057Z" fill="#9EBEBF"/>
<path d="M37.7426 29.6846C39.3585 29.6846 40.6685 28.3746 40.6685 26.7587C40.6685 25.1428 39.3585 23.8329 37.7426 23.8329C36.1267 23.8329 34.8168 25.1428 34.8168 26.7587C34.8168 28.3746 36.1267 29.6846 37.7426 29.6846Z" fill="#9EBEBF"/>
<path d="M36.2053 34.6456C36.2053 34.9029 36.1328 35.1404 36.0041 35.3416H42.1725C42.4496 35.3416 42.6739 35.1173 42.6739 34.8402V34.0123C42.6739 32.4488 41.9746 30.4399 39.9261 30.0672C39.2697 30.5554 38.6562 30.7632 37.7425 30.7632C36.8288 30.7632 36.1361 30.5554 35.5687 30.0771C35.5225 30.087 35.4731 30.0969 35.4269 30.1068C35.9283 31.0864 36.202 32.2772 36.202 33.4977V34.6456H36.2053Z" fill="#9EBEBF"/>
<path d="M28.7535 27.4909C30.9961 27.4909 32.8141 25.673 32.8141 23.4304C32.8141 21.1878 30.9961 19.3698 28.7535 19.3698C26.5109 19.3698 24.693 21.1878 24.693 23.4304C24.693 25.673 26.5109 27.4909 28.7535 27.4909Z" fill="#F1DFC1"/>
<path d="M35.5948 33.4944V34.6423C35.5948 35.0282 35.2814 35.3383 34.8988 35.3383H22.6116C22.2257 35.3383 21.9156 35.0249 21.9156 34.6423V33.4944C21.9156 31.3239 22.8887 28.5367 25.7287 28.0188C26.6425 28.6983 27.4935 28.9853 28.7568 28.9853C30.0235 28.9853 30.9867 28.695 31.775 28.032C34.7207 28.596 35.5948 31.4955 35.5948 33.4944Z" fill="#F1DFC1"/>
<path d="M19.7653 29.6846C21.3812 29.6846 22.6912 28.3746 22.6912 26.7587C22.6912 25.1428 21.3812 23.8329 19.7653 23.8329C18.1495 23.8329 16.8395 25.1428 16.8395 26.7587C16.8395 28.3746 18.1495 29.6846 19.7653 29.6846Z" fill="#E9A39B"/>
<path d="M21.3057 34.6456C21.3057 34.9029 21.3782 35.1404 21.5069 35.3416H15.3385C15.0615 35.3416 14.8372 35.1173 14.8372 34.8402V34.0123C14.8372 32.4488 15.5365 30.4399 17.5849 30.0672C18.2413 30.5554 18.8548 30.7632 19.7685 30.7632C20.6822 30.7632 21.3749 30.5554 21.9423 30.0771C21.9885 30.087 22.038 30.0969 22.0841 30.1068C21.5828 31.0864 21.309 32.2772 21.309 33.4977V34.6456H21.3057Z" fill="#E9A39B"/>
<path d="M37.7426 29.6846C39.3585 29.6846 40.6685 28.3746 40.6685 26.7587C40.6685 25.1428 39.3585 23.8329 37.7426 23.8329C36.1267 23.8329 34.8168 25.1428 34.8168 26.7587C34.8168 28.3746 36.1267 29.6846 37.7426 29.6846Z" fill="#E9A39B"/>
<path d="M36.2053 34.6456C36.2053 34.9029 36.1328 35.1404 36.0041 35.3416H42.1725C42.4496 35.3416 42.6739 35.1173 42.6739 34.8402V34.0123C42.6739 32.4488 41.9746 30.4399 39.9261 30.0672C39.2697 30.5554 38.6562 30.7632 37.7425 30.7632C36.8288 30.7632 36.1361 30.5554 35.5687 30.0771C35.5225 30.087 35.4731 30.0969 35.4269 30.1068C35.9283 31.0864 36.202 32.2772 36.202 33.4977V34.6456H36.2053Z" fill="#E9A39B"/>
</svg>
