<svg width="56" height="56" viewBox="0 0 56 56" fill="none" xmlns="http://www.w3.org/2000/svg">
<path d="M0 46.7491C0.0659134 46.7359 0.135121 46.7293 0.20433 46.7293C0.74482 46.7293 1.18643 47.1182 1.18643 47.5961C1.18643 48.0739 0.748115 48.4628 0.20433 48.4628C0.135121 48.4628 0.0659134 48.4562 0 48.443V49.7646C0.0659134 49.7514 0.135121 49.7448 0.20433 49.7448C0.74482 49.7448 1.18643 50.1337 1.18643 50.6116C1.18643 51.0895 0.748115 51.4784 0.20433 51.4784C0.135121 51.4784 0.0659134 51.4718 0 51.4586V52.7801C0.0659134 52.767 0.135121 52.7604 0.20433 52.7604C0.74482 52.7604 1.18643 53.1493 1.18643 53.6271C1.18643 54.105 0.748115 54.4939 0.20433 54.4939C0.135121 54.4939 0.0659134 54.4873 0 54.4741V55.9802H2.62994C2.59698 55.8946 2.57722 55.8056 2.57722 55.71C2.57722 55.2321 3.01553 54.8432 3.55932 54.8432C4.1031 54.8432 4.54142 55.2321 4.54142 55.71C4.54142 55.8056 4.51836 55.8946 4.4887 55.9802H6.15961C6.12665 55.8946 6.10686 55.8056 6.10686 55.71C6.10686 55.2321 6.5452 54.8432 7.08899 54.8432C7.63277 54.8432 8.07109 55.2321 8.07109 55.71C8.07109 55.8056 8.04803 55.8946 8.01837 55.9802H9.68925C9.6563 55.8946 9.63653 55.8056 9.63653 55.71C9.63653 55.2321 10.0749 54.8432 10.6186 54.8432C11.1591 54.8432 11.6008 55.2321 11.6008 55.71C11.6008 55.8056 11.5777 55.8946 11.548 55.9802H13.2189C13.186 55.8946 13.1662 55.8056 13.1662 55.71C13.1662 55.2321 13.6045 54.8432 14.1483 54.8432C14.6888 54.8432 15.1304 55.2321 15.1304 55.71C15.1304 55.8056 15.1073 55.8946 15.0777 55.9802H16.7486C16.7156 55.8946 16.6959 55.8056 16.6959 55.71C16.6959 55.2321 17.1342 54.8432 17.678 54.8432C18.2185 54.8432 18.6601 55.2321 18.6601 55.71C18.6601 55.8056 18.637 55.8946 18.6074 55.9802H20.2782C20.2453 55.8946 20.2255 55.8056 20.2255 55.71C20.2255 55.2321 20.6638 54.8432 21.2076 54.8432C21.7481 54.8432 22.1897 55.2321 22.1897 55.71C22.1897 55.8056 22.1667 55.8946 22.137 55.9802H23.8079C23.775 55.8946 23.7552 55.8056 23.7552 55.71C23.7552 55.2321 24.1935 54.8432 24.7373 54.8432C25.2778 54.8432 25.7194 55.2321 25.7194 55.71C25.7194 55.8056 25.6963 55.8946 25.6667 55.9802H27.3376C27.3046 55.8946 27.2848 55.8056 27.2848 55.71C27.2848 55.2321 27.7232 54.8432 28.267 54.8432C28.8107 54.8432 29.2491 55.2321 29.2491 55.71C29.2491 55.8056 29.226 55.8946 29.1963 55.9802H30.8672C30.8343 55.8946 30.8145 55.8056 30.8145 55.71C30.8145 55.2321 31.2528 54.8432 31.7966 54.8432C32.3371 54.8432 32.7787 55.2321 32.7787 55.71C32.7787 55.8056 32.7556 55.8946 32.726 55.9802H34.3969C34.3639 55.8946 34.3442 55.8056 34.3442 55.71C34.3442 55.2321 34.7825 54.8432 35.3263 54.8432C35.8668 54.8432 36.3084 55.2321 36.3084 55.71C36.3084 55.8056 36.2853 55.8946 36.2557 55.9802H37.9266C37.8936 55.8946 37.8738 55.8056 37.8738 55.71C37.8738 55.2321 38.3121 54.8432 38.8559 54.8432C39.3964 54.8432 39.838 55.2321 39.838 55.71C39.838 55.8056 39.815 55.8946 39.7853 55.9802H41.4562C41.4233 55.8946 41.4035 55.8056 41.4035 55.71C41.4035 55.2321 41.8418 54.8432 42.3856 54.8432C42.9294 54.8432 43.3677 55.2321 43.3677 55.71C43.3677 55.8056 43.3446 55.8946 43.315 55.9802H44.9859C44.9529 55.8946 44.9331 55.8056 44.9331 55.71C44.9331 55.2321 45.3715 54.8432 45.9153 54.8432C46.4558 54.8432 46.8974 55.2321 46.8974 55.71C46.8974 55.8056 46.8743 55.8946 46.8446 55.9802H48.5155C48.4826 55.8946 48.4628 55.8056 48.4628 55.71C48.4628 55.2321 48.9011 54.8432 49.4449 54.8432C49.9854 54.8432 50.427 55.2321 50.427 55.71C50.427 55.8056 50.404 55.8946 50.3743 55.9802H52.0452C52.0122 55.8946 51.9925 55.8056 51.9925 55.71C51.9925 55.2321 52.4308 54.8432 52.9746 54.8432C53.5151 54.8432 53.9567 55.2321 53.9567 55.71C53.9567 55.8056 53.9336 55.8946 53.904 55.9802H56V54.4939C55.4595 54.4939 55.0179 54.105 55.0179 53.6271C55.0179 53.1493 55.4562 52.7604 56 52.7604V51.4784C55.4595 51.4784 55.0179 51.0895 55.0179 50.6116C55.0179 50.1337 55.4562 49.7448 56 49.7448V48.4628C55.4595 48.4628 55.0179 48.0739 55.0179 47.5961C55.0179 47.1182 55.4562 46.7293 56 46.7293V46.7194V45.4374C55.4595 45.4374 55.0179 45.0485 55.0179 44.5706C55.0179 44.0928 55.4562 43.7039 56 43.7039V42.4219C55.4595 42.4219 55.0179 42.033 55.0179 41.5551C55.0179 41.0772 55.4562 40.6883 56 40.6883V39.4063C55.4595 39.4063 55.0179 39.0174 55.0179 38.5396C55.0179 38.0617 55.4562 37.6728 56 37.6728V36.3908C55.4595 36.3908 55.0179 36.0019 55.0179 35.524C55.0179 35.0461 55.4562 34.6573 56 34.6573V33.3752C55.4595 33.3752 55.0179 32.9864 55.0179 32.5085C55.0179 32.0306 55.4562 31.6417 56 31.6417V30.3597C55.4595 30.3597 55.0179 29.9708 55.0179 29.4929C55.0179 29.0151 55.4562 28.6262 56 28.6262V27.3442C55.4595 27.3442 55.0179 26.9553 55.0179 26.4774C55.0179 25.9995 55.4562 25.6106 56 25.6106V24.3286C55.4595 24.3286 55.0179 23.9397 55.0179 23.4619C55.0179 22.984 55.4562 22.5951 56 22.5951V21.3131C55.4595 21.3131 55.0179 20.9242 55.0179 20.4463C55.0179 19.9685 55.4562 19.5796 56 19.5796V18.2976C55.4595 18.2976 55.0179 17.9087 55.0179 17.4308C55.0179 16.9529 55.4562 16.564 56 16.564V15.282C55.4595 15.282 55.0179 14.8931 55.0179 14.4153C55.0179 13.9374 55.4562 13.5485 56 13.5485V12.2665C55.4595 12.2665 55.0179 11.8776 55.0179 11.3997C55.0179 10.9218 55.4562 10.533 56 10.533V9.25094C55.4595 9.25094 55.0179 8.86205 55.0179 8.38418C55.0179 7.90631 55.4562 7.51742 56 7.51742V6.23541C55.4595 6.23541 55.0179 5.84652 55.0179 5.36865C55.0179 4.89077 55.4562 4.50189 56 4.50189V3.21987C55.4595 3.21987 55.0179 2.83098 55.0179 2.35311C55.0179 1.87524 55.4562 1.48635 56 1.48635V0H53.9567C53.9567 0.477872 53.5184 0.866763 52.9746 0.866763C52.4341 0.866763 51.9925 0.477872 51.9925 0H50.4303C50.4303 0.477872 49.992 0.866763 49.4482 0.866763C48.9077 0.866763 48.4661 0.477872 48.4661 0H46.904C46.904 0.477872 46.4656 0.866763 45.9218 0.866763C45.3814 0.866763 44.9397 0.477872 44.9397 0H43.3776C43.3776 0.477872 42.9393 0.866763 42.3955 0.866763C41.8517 0.866763 41.4134 0.477872 41.4134 0H39.8512C39.8512 0.477872 39.4129 0.866763 38.8691 0.866763C38.3286 0.866763 37.887 0.477872 37.887 0H36.3249C36.3249 0.477872 35.8865 0.866763 35.3428 0.866763C34.8023 0.866763 34.3606 0.477872 34.3606 0H32.7985C32.7985 0.477872 32.3602 0.866763 31.8164 0.866763C31.2759 0.866763 30.8343 0.477872 30.8343 0H29.2721C29.2721 0.477872 28.8338 0.866763 28.29 0.866763C27.7462 0.866763 27.3079 0.477872 27.3079 0H25.7458C25.7458 0.477872 25.3074 0.866763 24.7637 0.866763C24.2232 0.866763 23.7815 0.477872 23.7815 0H22.2194C22.2194 0.477872 21.7811 0.866763 21.2373 0.866763C20.6968 0.866763 20.2552 0.477872 20.2552 0H18.693C18.693 0.477872 18.2547 0.866763 17.7109 0.866763C17.1704 0.866763 16.7288 0.477872 16.7288 0H15.1667C15.1667 0.477872 14.7283 0.866763 14.1846 0.866763C13.6441 0.866763 13.2024 0.477872 13.2024 0H11.6403C11.6403 0.477872 11.202 0.866763 10.6582 0.866763C10.1177 0.866763 9.67608 0.477872 9.67608 0H8.11394C8.11394 0.477872 7.67562 0.866763 7.13183 0.866763C6.58805 0.866763 6.14971 0.477872 6.14971 0H4.58757C4.58757 0.477872 4.14925 0.866763 3.60546 0.866763C3.06168 0.866763 2.62336 0.477872 2.62336 0H0.049423V1.50612C0.115336 1.49294 0.184564 1.48635 0.253773 1.48635C0.794263 1.48635 1.23588 1.87524 1.23588 2.35311C1.23588 2.83098 0.797558 3.21987 0.253773 3.21987C0.184564 3.21987 0.115336 3.21328 0.049423 3.2001V4.52166C0.115336 4.50848 0.184564 4.50189 0.253773 4.50189C0.794263 4.50189 1.23588 4.89077 1.23588 5.36865C1.23588 5.84652 0.797558 6.23541 0.253773 6.23541C0.184564 6.23541 0.115336 6.22881 0.049423 6.21563V7.5372C0.115336 7.52401 0.184564 7.51742 0.253773 7.51742C0.794263 7.51742 1.23588 7.90631 1.23588 8.38418C1.23588 8.86205 0.797558 9.25094 0.253773 9.25094C0.184564 9.25094 0.115336 9.24435 0.049423 9.23117V10.5527C0.115336 10.5396 0.184564 10.533 0.253773 10.533C0.794263 10.533 1.23588 10.9218 1.23588 11.3997C1.23588 11.8776 0.797558 12.2665 0.253773 12.2665C0.184564 12.2665 0.115336 12.2599 0.049423 12.2467V13.5683C0.115336 13.5551 0.184564 13.5485 0.253773 13.5485C0.794263 13.5485 1.23588 13.9374 1.23588 14.4153C1.23588 14.8931 0.797558 15.282 0.253773 15.282C0.184564 15.282 0.115336 15.2754 0.049423 15.2622V16.5838C0.115336 16.5706 0.184564 16.564 0.253773 16.564C0.794263 16.564 1.23588 16.9529 1.23588 17.4308C1.23588 17.9087 0.797558 18.2976 0.253773 18.2976C0.184564 18.2976 0.115336 18.291 0.049423 18.2778V19.5993C0.115336 19.5862 0.184564 19.5796 0.253773 19.5796C0.794263 19.5796 1.23588 19.9685 1.23588 20.4463C1.23588 20.9242 0.797558 21.3131 0.253773 21.3131C0.184564 21.3131 0.115336 21.3065 0.049423 21.2933V22.6149C0.115336 22.6017 0.184564 22.5951 0.253773 22.5951C0.794263 22.5951 1.23588 22.984 1.23588 23.4619C1.23588 23.9397 0.797558 24.3286 0.253773 24.3286C0.184564 24.3286 0.115336 24.322 0.049423 24.3089V25.6304C0.115336 25.6172 0.184564 25.6106 0.253773 25.6106C0.794263 25.6106 1.23588 25.9995 1.23588 26.4774C1.23588 26.9553 0.797558 27.3442 0.253773 27.3442C0.184564 27.3442 0.115336 27.3376 0.049423 27.3244V28.646C0.115336 28.6328 0.184564 28.6262 0.253773 28.6262C0.794263 28.6262 1.23588 29.0151 1.23588 29.4929C1.23588 29.9708 0.797558 30.3597 0.253773 30.3597C0.184564 30.3597 0.115336 30.3531 0.049423 30.3399V31.6615C0.115336 31.6483 0.184564 31.6417 0.253773 31.6417C0.794263 31.6417 1.23588 32.0306 1.23588 32.5085C1.23588 32.9864 0.797558 33.3752 0.253773 33.3752C0.184564 33.3752 0.115336 33.3686 0.049423 33.3555V34.677C0.115336 34.6638 0.184564 34.6573 0.253773 34.6573C0.794263 34.6573 1.23588 35.0461 1.23588 35.524C1.23588 36.0019 0.797558 36.3908 0.253773 36.3908C0.184564 36.3908 0.115336 36.3842 0.049423 36.371V37.6926C0.115336 37.6794 0.184564 37.6728 0.253773 37.6728C0.794263 37.6728 1.23588 38.0617 1.23588 38.5396C1.23588 39.0174 0.797558 39.4063 0.253773 39.4063C0.184564 39.4063 0.115336 39.3997 0.049423 39.3865V40.7081C0.115336 40.6949 0.184564 40.6883 0.253773 40.6883C0.794263 40.6883 1.23588 41.0772 1.23588 41.5551C1.23588 42.033 0.797558 42.4219 0.253773 42.4219C0.184564 42.4219 0.115336 42.4153 0.049423 42.4021V43.7236C0.115336 43.7105 0.184564 43.7039 0.253773 43.7039C0.794263 43.7039 1.23588 44.0928 1.23588 44.5706C1.23588 45.0485 0.797558 45.4374 0.253773 45.4374C0.184564 45.4374 0.115336 45.4308 0.049423 45.4176V46.7392C0.115336 46.726 0.184564 46.7194 0.253773 46.7194" fill="#A98B83"/>
<path d="M52.4141 7.84372V47.0589C50.0082 47.2039 48.0968 49.2077 48.0968 51.6465C48.0968 51.9068 48.1198 52.1705 48.1693 52.4374H7.75447C7.8039 52.1705 7.82698 51.9068 7.82698 51.6465C7.82698 49.2077 5.91548 47.2039 3.50964 47.0589V7.84372C5.8232 7.70201 7.67867 5.84655 7.81709 3.53299H48.1034C48.2451 5.84655 50.1005 7.70201 52.4141 7.84372Z" fill="white"/>
<path d="M52.4141 7.84372V47.0589C50.0082 47.2039 48.0968 49.2077 48.0968 51.6465C48.0968 51.9068 48.1198 52.1705 48.1693 52.4374H7.75447C7.8039 52.1705 7.82698 51.9068 7.82698 51.6465C7.82698 49.2077 5.91548 47.2039 3.50964 47.0589V7.84372C5.8232 7.70201 7.67867 5.84655 7.81709 3.53299H48.1034C48.2451 5.84655 50.1005 7.70201 52.4141 7.84372Z" fill="#AB8C85"/>
<path d="M52.6937 7.28992C50.4658 7.28992 48.6565 5.4806 48.6565 3.25273C48.6565 3.09783 48.5313 2.9726 48.3764 2.9726H7.54636C7.39146 2.9726 7.26623 3.09783 7.26623 3.25273C7.26623 5.4806 5.45361 7.28992 3.22904 7.28992C3.07414 7.28992 2.94891 7.41516 2.94891 7.57005V47.3323C2.94891 47.4839 3.07414 47.6124 3.22904 47.6124C5.45361 47.6124 7.26623 49.4218 7.26623 51.6463C7.26623 51.9726 7.22008 52.3088 7.1344 52.6482C7.11462 52.7339 7.13111 52.8229 7.18384 52.8888C7.23657 52.958 7.31896 52.9976 7.40794 52.9976H48.5148C48.6005 52.9976 48.6829 52.958 48.7356 52.8888C48.7884 52.8229 48.8081 52.7339 48.7851 52.6482C48.6994 52.3088 48.6565 51.9726 48.6565 51.6463C48.6565 49.4218 50.4658 47.6124 52.6937 47.6124C52.8486 47.6124 52.9739 47.4839 52.9739 47.3323V7.57005C52.9739 7.41516 52.8486 7.28992 52.6937 7.28992ZM52.4136 47.0588C50.0078 47.2038 48.0963 49.2075 48.0963 51.6463C48.0963 51.9067 48.1193 52.1703 48.1688 52.4373H7.75398C7.80342 52.1703 7.8265 51.9067 7.8265 51.6463C7.8265 49.2075 5.915 47.2038 3.50916 47.0588V7.84359C5.82272 7.70188 7.67818 5.84642 7.8166 3.53286H48.1029C48.2446 5.84642 50.1 7.70188 52.4136 7.84359V47.0588Z" fill="#F1DFC1"/>
<path d="M52.4039 7.93589V47.1543C51.2369 47.2295 50.1419 47.745 49.3405 48.5967C48.539 49.4483 48.0908 50.5725 48.0866 51.7419C48.0865 52.0072 48.1107 52.272 48.1591 52.5329H7.74427C7.7926 52.272 7.81687 52.0072 7.81678 51.7419C7.81357 50.574 7.3676 49.4508 6.56882 48.5988C5.77004 47.7468 4.67788 47.2295 3.51263 47.1511V7.93259C4.62726 7.85508 5.67589 7.37573 6.46383 6.58355C7.25177 5.79137 7.72547 4.74018 7.797 3.62515H48.0931C48.1646 4.74499 48.6417 5.80041 49.4352 6.59386C50.2286 7.38732 51.284 7.86443 52.4039 7.93589Z" fill="white"/>
<path d="M27.9597 6.34073C28.3128 6.34073 28.599 6.05448 28.599 5.70137C28.599 5.34826 28.3128 5.06201 27.9597 5.06201C27.6066 5.06201 27.3203 5.34826 27.3203 5.70137C27.3203 6.05448 27.6066 6.34073 27.9597 6.34073Z" fill="#F5CBD9"/>
<path d="M27.9587 8.23273C27.8796 8.23273 27.817 8.17011 27.817 8.09102V7.1155C27.817 7.0364 27.8796 6.97379 27.9587 6.97379C28.0378 6.97379 28.1005 7.0364 28.1005 7.1155V8.09102C28.1005 8.17011 28.0378 8.23273 27.9587 8.23273Z" fill="#F5CBD9"/>
<path d="M27.9587 10.9184C27.8796 10.9184 27.817 10.8558 27.817 10.7767V8.69716C27.817 8.61807 27.8796 8.55545 27.9587 8.55545C28.0378 8.55545 28.1005 8.61807 28.1005 8.69716V10.7767C28.1005 10.8558 28.0378 10.9184 27.9587 10.9184Z" fill="#F5CBD9"/>
<path d="M29.1547 7.91298C29.1052 7.91298 29.0591 7.88661 29.0327 7.84377L28.545 6.99678C28.5054 6.93087 28.5285 6.84518 28.5977 6.80563C28.6636 6.76609 28.7493 6.78916 28.7889 6.85837L29.2766 7.70535C29.3162 7.77127 29.2931 7.85695 29.2239 7.8965C29.2041 7.90639 29.181 7.91298 29.1547 7.91298Z" fill="#F5CBD9"/>
<path d="M30.5003 10.2395C30.4509 10.2395 30.4047 10.2131 30.3784 10.1703L29.3402 8.37087C29.3007 8.30495 29.3237 8.21927 29.3929 8.17972C29.4589 8.14017 29.5446 8.16324 29.5841 8.23245L30.6222 10.0319C30.6618 10.0978 30.6387 10.1835 30.5695 10.223C30.5464 10.2329 30.5234 10.2395 30.5003 10.2395Z" fill="#F5CBD9"/>
<path d="M30.0325 7.03937C30.0094 7.03937 29.9831 7.03278 29.9633 7.0196L29.1196 6.53184C29.0537 6.49229 29.0306 6.40661 29.0669 6.34069C29.1064 6.27478 29.1921 6.25171 29.258 6.28796L30.1017 6.77572C30.1676 6.81527 30.1907 6.90096 30.1544 6.96687C30.1281 7.01301 30.0819 7.03937 30.0325 7.03937Z" fill="#F5CBD9"/>
<path d="M31.3041 7.77116C31.281 7.77116 31.2547 7.76457 31.2349 7.75139L30.4868 7.31965C30.4209 7.28011 30.3978 7.19442 30.434 7.1285C30.4736 7.06259 30.5593 7.03952 30.6252 7.07577L31.3733 7.50751C31.4392 7.54706 31.4623 7.63274 31.426 7.69865C31.3997 7.74809 31.3502 7.77116 31.3041 7.77116Z" fill="#F5CBD9"/>
<path d="M30.3516 5.84333H29.3761C29.297 5.84333 29.2344 5.78072 29.2344 5.70162C29.2344 5.62252 29.297 5.55991 29.3761 5.55991H30.3516C30.4307 5.55991 30.4933 5.62252 30.4933 5.70162C30.4933 5.78072 30.4307 5.84333 30.3516 5.84333Z" fill="#F5CBD9"/>
<path d="M32.869 5.84343H30.9575C30.8784 5.84343 30.8158 5.78081 30.8158 5.70171C30.8158 5.62262 30.8784 5.56 30.9575 5.56H32.869C32.9481 5.56 33.0107 5.62262 33.0107 5.70171C33.0107 5.78081 32.9481 5.84343 32.869 5.84343Z" fill="#F5CBD9"/>
<path d="M26.5442 5.84315H25.5687C25.4896 5.84315 25.427 5.78053 25.427 5.70144C25.427 5.62234 25.4896 5.55972 25.5687 5.55972H26.5442C26.6233 5.55972 26.6859 5.62234 26.6859 5.70144C26.6827 5.78053 26.62 5.84315 26.5442 5.84315Z" fill="#F5CBD9"/>
<path d="M24.9622 5.84333H23.0507C22.9716 5.84333 22.909 5.78072 22.909 5.70162C22.909 5.62252 22.9716 5.55991 23.0507 5.55991H24.9622C25.0413 5.55991 25.1039 5.62252 25.1039 5.70162C25.1006 5.78072 25.038 5.84333 24.9622 5.84333Z" fill="#F5CBD9"/>
<path d="M25.8894 7.03938C25.84 7.03938 25.7939 7.01301 25.7675 6.97017C25.7279 6.90425 25.751 6.81857 25.8202 6.77902L26.6639 6.29126C26.7298 6.25171 26.8155 6.27478 26.8551 6.34399C26.8946 6.4099 26.8715 6.49559 26.8023 6.53514L25.9586 7.0229C25.9356 7.03279 25.9125 7.03938 25.8894 7.03938Z" fill="#F5CBD9"/>
<path d="M24.6635 7.7448C24.614 7.7448 24.5679 7.71843 24.5415 7.67559C24.502 7.60967 24.5251 7.52399 24.5943 7.48444L25.2963 7.07907C25.3622 7.03952 25.4478 7.06259 25.4874 7.1318C25.5269 7.19772 25.5039 7.2834 25.4347 7.32295L24.7327 7.72832C24.7096 7.7415 24.6865 7.7448 24.6635 7.7448Z" fill="#F5CBD9"/>
<path d="M26.7623 7.9127C26.7392 7.9127 26.7128 7.90611 26.6931 7.89293C26.6271 7.85338 26.6041 7.76769 26.6403 7.70178L27.1281 6.85479C27.1676 6.78888 27.2533 6.76581 27.3192 6.80206C27.3851 6.84161 27.4082 6.92729 27.372 6.99321L26.8842 7.8402C26.8578 7.88963 26.8117 7.9127 26.7623 7.9127Z" fill="#F5CBD9"/>
<path d="M25.4202 10.2394C25.3971 10.2394 25.3707 10.2329 25.3509 10.2197C25.285 10.1801 25.262 10.0944 25.2982 10.0285L26.3396 8.22909C26.3792 8.16318 26.4649 8.14011 26.5308 8.17636C26.5967 8.21591 26.6198 8.3016 26.5835 8.36751L25.5421 10.1669C25.5157 10.2131 25.4696 10.2394 25.4202 10.2394Z" fill="#F5CBD9"/>
<path d="M27.9597 50.9116C28.3128 50.9116 28.599 50.6253 28.599 50.2722C28.599 49.9191 28.3128 49.6328 27.9597 49.6328C27.6066 49.6328 27.3203 49.9191 27.3203 50.2722C27.3203 50.6253 27.6066 50.9116 27.9597 50.9116Z" fill="#F5CBD9"/>
<path d="M27.9587 48.9968C27.8796 48.9968 27.817 48.9342 27.817 48.8551V47.8796C27.817 47.8005 27.8796 47.7379 27.9587 47.7379C28.0378 47.7379 28.1005 47.8005 28.1005 47.8796V48.8551C28.1005 48.9342 28.0378 48.9968 27.9587 48.9968Z" fill="#F5CBD9"/>
<path d="M27.9587 47.4146C27.8796 47.4146 27.817 47.352 27.817 47.2729V45.1933C27.817 45.1143 27.8796 45.0516 27.9587 45.0516C28.0378 45.0516 28.1005 45.1143 28.1005 45.1933V47.2729C28.1005 47.352 28.0378 47.4146 27.9587 47.4146Z" fill="#F5CBD9"/>
<path d="M27.2522 49.1848C27.2028 49.1848 27.1566 49.1584 27.1303 49.1156L26.6425 48.2719C26.6029 48.206 26.626 48.1203 26.6952 48.0807C26.7611 48.0412 26.8468 48.0642 26.8864 48.1335L27.3741 48.9771C27.4137 49.0431 27.3906 49.1287 27.3214 49.1683C27.2983 49.1782 27.2753 49.1848 27.2522 49.1848Z" fill="#F5CBD9"/>
<path d="M26.4612 47.8169C26.4118 47.8169 26.3656 47.7905 26.3393 47.7477L25.2979 45.9482C25.2583 45.8823 25.2814 45.7966 25.3506 45.7571C25.4165 45.7175 25.5022 45.7406 25.5417 45.8098L26.5832 47.6092C26.6227 47.6752 26.5996 47.7608 26.5304 47.8004C26.5107 47.8103 26.4876 47.8169 26.4612 47.8169Z" fill="#F5CBD9"/>
<path d="M26.7309 49.7053C26.7079 49.7053 26.6815 49.6987 26.6617 49.6855L25.818 49.1977C25.7521 49.1582 25.7291 49.0725 25.7653 49.0066C25.8049 48.9407 25.8906 48.9176 25.9565 48.9539L26.8002 49.4416C26.8661 49.4812 26.8891 49.5668 26.8529 49.6328C26.8265 49.6789 26.7804 49.7053 26.7309 49.7053Z" fill="#F5CBD9"/>
<path d="M25.3614 48.9145C25.3383 48.9145 25.3119 48.9079 25.2921 48.8947L24.544 48.463C24.4781 48.4234 24.4551 48.3378 24.4913 48.2718C24.5309 48.2059 24.6165 48.1829 24.6824 48.2191L25.4306 48.6508C25.4965 48.6904 25.5196 48.7761 25.4833 48.842C25.4569 48.8881 25.4108 48.9145 25.3614 48.9145Z" fill="#F5CBD9"/>
<path d="M26.5442 50.4105H25.5687C25.4896 50.4105 25.427 50.3479 25.427 50.2688C25.427 50.1897 25.4896 50.1271 25.5687 50.1271H26.5442C26.6233 50.1271 26.6859 50.1897 26.6859 50.2688C26.6859 50.3479 26.62 50.4105 26.5442 50.4105Z" fill="#F5CBD9"/>
<path d="M24.9622 50.4105H23.0507C22.9716 50.4105 22.909 50.3479 22.909 50.2688C22.909 50.1897 22.9716 50.127 23.0507 50.127H24.9622C25.0413 50.127 25.1039 50.1897 25.1039 50.2688C25.1039 50.3479 25.038 50.4105 24.9622 50.4105Z" fill="#F5CBD9"/>
<path d="M30.3516 50.4105H29.3761C29.297 50.4105 29.2344 50.3479 29.2344 50.2688C29.2344 50.1897 29.297 50.127 29.3761 50.127H30.3516C30.4307 50.127 30.4933 50.1897 30.4933 50.2688C30.4933 50.3479 30.4307 50.4105 30.3516 50.4105Z" fill="#F5CBD9"/>
<path d="M32.869 50.4105H30.9575C30.8784 50.4105 30.8158 50.3479 30.8158 50.2688C30.8158 50.1897 30.8784 50.1271 30.9575 50.1271H32.869C32.9481 50.1271 33.0107 50.1897 33.0107 50.2688C33.0107 50.3479 32.9481 50.4105 32.869 50.4105Z" fill="#F5CBD9"/>
<path d="M29.1842 49.7053C29.1348 49.7053 29.0886 49.6789 29.0623 49.6361C29.0227 49.5701 29.0458 49.4845 29.115 49.4449L29.9587 48.9572C30.0246 48.9176 30.1103 48.9407 30.1498 49.0099C30.1894 49.0758 30.1663 49.1615 30.0971 49.201L29.2534 49.6888C29.2336 49.6987 29.2106 49.7053 29.1842 49.7053Z" fill="#F5CBD9"/>
<path d="M30.5559 48.9142C30.5065 48.9142 30.4603 48.8879 30.434 48.845C30.3944 48.7791 30.4175 48.6934 30.4867 48.6539L31.1887 48.2485C31.2546 48.209 31.3403 48.232 31.3798 48.3012C31.4194 48.3672 31.3963 48.4528 31.3271 48.4924L30.6251 48.8978C30.6053 48.9076 30.579 48.9142 30.5559 48.9142Z" fill="#F5CBD9"/>
<path d="M28.6693 49.1845C28.6462 49.1845 28.6198 49.1779 28.6001 49.1647C28.5341 49.1251 28.5111 49.0395 28.5473 48.9735L29.0351 48.1298C29.0746 48.0639 29.1603 48.0409 29.2262 48.0771C29.2922 48.1167 29.3152 48.2024 29.279 48.2683L28.7912 49.112C28.7648 49.1614 28.7187 49.1845 28.6693 49.1845Z" fill="#F5CBD9"/>
<path d="M29.4577 47.8171C29.4347 47.8171 29.4083 47.8105 29.3885 47.7973C29.3226 47.7578 29.2995 47.6721 29.3358 47.6062L30.3739 45.8068C30.4135 45.7408 30.4991 45.7178 30.5651 45.754C30.631 45.7936 30.654 45.8793 30.6178 45.9452L29.5797 47.7446C29.5533 47.7907 29.5072 47.8171 29.4577 47.8171Z" fill="#F5CBD9"/>
<path d="M50.2474 27.3474C49.8948 27.3474 49.608 27.6342 49.608 27.9868C49.608 28.3394 49.8948 28.6262 50.2474 28.6262C50.6 28.6262 50.8868 28.3394 50.8868 27.9868C50.8868 27.6342 50.6 27.3474 50.2474 27.3474Z" fill="#F5CBD9"/>
<path d="M48.8318 28.1252H47.8563C47.7772 28.1252 47.7145 28.0625 47.7145 27.9834C47.7145 27.9044 47.7772 27.8417 47.8563 27.8417H48.8318C48.9109 27.8417 48.9735 27.9044 48.9735 27.9834C48.9735 28.0625 48.9076 28.1252 48.8318 28.1252Z" fill="#F5CBD9"/>
<path d="M47.2471 28.1251H45.1676C45.0885 28.1251 45.0258 28.0625 45.0258 27.9834C45.0258 27.9043 45.0885 27.8416 45.1676 27.8416H47.2471C47.3262 27.8416 47.3888 27.9043 47.3888 27.9834C47.3888 28.0625 47.3262 28.1251 47.2471 28.1251Z" fill="#F5CBD9"/>
<path d="M48.1749 29.3217C48.1255 29.3217 48.0793 29.2953 48.053 29.2525C48.0134 29.1865 48.0365 29.1009 48.1057 29.0613L48.9494 28.5735C49.0153 28.534 49.101 28.5571 49.1405 28.6263C49.1801 28.6922 49.157 28.7779 49.0878 28.8174L48.2441 29.3052C48.221 29.3184 48.198 29.3217 48.1749 29.3217Z" fill="#F5CBD9"/>
<path d="M45.8484 30.6661C45.799 30.6661 45.7528 30.6397 45.7265 30.5969C45.6869 30.531 45.71 30.4453 45.7792 30.4057L47.5786 29.3643C47.6446 29.3247 47.7302 29.3478 47.7698 29.417C47.8093 29.4829 47.7863 29.5686 47.7171 29.6082L45.9176 30.6496C45.8946 30.6595 45.8715 30.6661 45.8484 30.6661Z" fill="#F5CBD9"/>
<path d="M49.05 30.1984C49.0269 30.1984 49.0005 30.1918 48.9807 30.1787C48.9148 30.1391 48.8918 30.0534 48.928 29.9875L49.4158 29.1405C49.4553 29.0746 49.541 29.0515 49.6069 29.0878C49.6728 29.1273 49.6959 29.213 49.6597 29.2789L49.1719 30.1259C49.1456 30.1754 49.0994 30.1984 49.05 30.1984Z" fill="#F5CBD9"/>
<path d="M48.3184 31.4704C48.2954 31.4704 48.269 31.4638 48.2492 31.4506C48.1833 31.411 48.1603 31.3253 48.1965 31.2594L48.6282 30.5113C48.6678 30.4454 48.7535 30.4223 48.8194 30.4586C48.8853 30.4981 48.9084 30.5838 48.8721 30.6497L48.4404 31.3978C48.414 31.444 48.3646 31.4704 48.3184 31.4704Z" fill="#F5CBD9"/>
<path d="M50.2465 30.5182C50.1674 30.5182 50.1047 30.4555 50.1047 30.3764V29.4009C50.1047 29.3218 50.1674 29.2592 50.2465 29.2592C50.3256 29.2592 50.3882 29.3218 50.3882 29.4009V30.3764C50.3882 30.4555 50.3256 30.5182 50.2465 30.5182Z" fill="#F5CBD9"/>
<path d="M50.2465 33.0358C50.1674 33.0358 50.1047 32.9732 50.1047 32.8941V30.9826C50.1047 30.9035 50.1674 30.8409 50.2465 30.8409C50.3256 30.8409 50.3882 30.9035 50.3882 30.9826V32.8941C50.3882 32.9732 50.3256 33.0358 50.2465 33.0358Z" fill="#F5CBD9"/>
<path d="M50.2465 26.7112C50.1674 26.7112 50.1047 26.6485 50.1047 26.5694V25.5939C50.1047 25.5148 50.1674 25.4522 50.2465 25.4522C50.3256 25.4522 50.3882 25.5148 50.3882 25.5939V26.5694C50.3882 26.6485 50.3256 26.7112 50.2465 26.7112Z" fill="#F5CBD9"/>
<path d="M50.2465 25.1295C50.1674 25.1295 50.1047 25.0669 50.1047 24.9878V23.0763C50.1047 22.9972 50.1674 22.9346 50.2465 22.9346C50.3256 22.9346 50.3882 22.9972 50.3882 23.0763V24.9878C50.3882 25.0669 50.3256 25.1295 50.2465 25.1295Z" fill="#F5CBD9"/>
<path d="M49.5376 26.8992C49.4882 26.8992 49.4421 26.8729 49.4157 26.83L48.928 25.9831C48.8884 25.9171 48.9114 25.8314 48.9807 25.7919C49.0466 25.7524 49.1323 25.7754 49.1718 25.8446L49.6596 26.6916C49.6991 26.7575 49.6761 26.8432 49.6068 26.8828C49.5871 26.8959 49.564 26.8992 49.5376 26.8992Z" fill="#F5CBD9"/>
<path d="M48.7466 25.5315C48.6971 25.5315 48.651 25.5051 48.6246 25.4623L48.2193 24.7603C48.1797 24.6944 48.2028 24.6087 48.272 24.5692C48.3379 24.5296 48.4236 24.5527 48.4631 24.6219L48.8685 25.3239C48.9081 25.3898 48.885 25.4755 48.8158 25.515C48.796 25.5249 48.7729 25.5315 48.7466 25.5315Z" fill="#F5CBD9"/>
<path d="M49.0209 27.4201C48.9979 27.4201 48.9715 27.4135 48.9517 27.4003L48.108 26.9126C48.0421 26.873 48.019 26.7873 48.0553 26.7214C48.0948 26.6555 48.1805 26.6324 48.2465 26.6687L49.0901 27.1565C49.1561 27.196 49.1791 27.2817 49.1429 27.3476C49.1165 27.3937 49.0704 27.4201 49.0209 27.4201Z" fill="#F5CBD9"/>
<path d="M47.6479 26.6288C47.6249 26.6288 47.5985 26.6223 47.5787 26.6091L45.7793 25.5676C45.7134 25.5281 45.6903 25.4424 45.7266 25.3765C45.7661 25.3106 45.8518 25.2875 45.9177 25.3238L47.7171 26.3652C47.7831 26.4047 47.8061 26.4904 47.7699 26.5563C47.7435 26.6025 47.6974 26.6288 47.6479 26.6288Z" fill="#F5CBD9"/>
<path d="M5.67574 28.6262C6.02837 28.6262 6.3151 28.3394 6.3151 27.9868C6.3151 27.6342 6.02837 27.3474 5.67574 27.3474C5.3231 27.3474 5.03638 27.6342 5.03638 27.9868C5.03638 28.3394 5.3231 28.6262 5.67574 28.6262Z" fill="#F5CBD9"/>
<path d="M8.06993 28.1253H7.09443C7.01533 28.1253 6.9527 28.0627 6.9527 27.9836C6.9527 27.9045 7.01533 27.8419 7.09443 27.8419H8.06993C8.14903 27.8419 8.21165 27.9045 8.21165 27.9836C8.21165 28.0627 8.14903 28.1253 8.06993 28.1253Z" fill="#F5CBD9"/>
<path d="M10.7553 28.1254H8.67571C8.59661 28.1254 8.534 28.0628 8.534 27.9837C8.534 27.9046 8.59661 27.842 8.67571 27.842H10.7553C10.8344 27.842 10.897 27.9046 10.897 27.9837C10.897 28.0628 10.8344 28.1254 10.7553 28.1254Z" fill="#F5CBD9"/>
<path d="M6.90704 27.4199C6.8576 27.4199 6.81146 27.3935 6.7851 27.3507C6.74555 27.2847 6.76861 27.1991 6.83782 27.1595L7.68151 26.6718C7.74742 26.6322 7.83312 26.6553 7.87266 26.7245C7.91221 26.7904 7.88913 26.8761 7.81992 26.9156L6.97623 27.4034C6.95316 27.4133 6.93011 27.4199 6.90704 27.4199Z" fill="#F5CBD9"/>
<path d="M8.27422 26.6291C8.22478 26.6291 8.17865 26.6028 8.15228 26.5599C8.11273 26.494 8.13581 26.4083 8.20502 26.3688L10.0077 25.3273C10.0737 25.2878 10.1593 25.3109 10.1989 25.3801C10.2384 25.446 10.2154 25.5317 10.1462 25.5712L8.34343 26.6126C8.32366 26.6225 8.29729 26.6291 8.27422 26.6291Z" fill="#F5CBD9"/>
<path d="M6.38534 26.8995C6.36227 26.8995 6.33589 26.8929 6.31612 26.8797C6.25021 26.8402 6.22715 26.7545 6.2634 26.6886L6.75115 25.8416C6.7907 25.7757 6.87639 25.7526 6.9423 25.7889C7.00822 25.8284 7.03128 25.9141 6.99503 25.98L6.50727 26.827C6.48091 26.8764 6.43477 26.8995 6.38534 26.8995Z" fill="#F5CBD9"/>
<path d="M7.17606 25.5315C7.15299 25.5315 7.12662 25.5249 7.10685 25.5117C7.04093 25.4721 7.01785 25.3864 7.0541 25.3205L7.48585 24.5724C7.5254 24.5065 7.61108 24.4834 7.67699 24.5197C7.7429 24.5592 7.76598 24.6449 7.72973 24.7108L7.298 25.4589C7.27163 25.5051 7.2255 25.5315 7.17606 25.5315Z" fill="#F5CBD9"/>
<path d="M5.67479 26.7112C5.5957 26.7112 5.53308 26.6485 5.53308 26.5694V25.5939C5.53308 25.5148 5.5957 25.4522 5.67479 25.4522C5.75389 25.4522 5.8165 25.5148 5.8165 25.5939V26.5694C5.8165 26.6485 5.75389 26.7112 5.67479 26.7112Z" fill="#F5CBD9"/>
<path d="M5.67479 25.1295C5.5957 25.1295 5.53308 25.0669 5.53308 24.9878V23.0763C5.53308 22.9972 5.5957 22.9346 5.67479 22.9346C5.75389 22.9346 5.8165 22.9972 5.8165 23.0763V24.9878C5.8165 25.0669 5.75389 25.1295 5.67479 25.1295Z" fill="#F5CBD9"/>
<path d="M5.67479 30.5182C5.5957 30.5182 5.53308 30.4555 5.53308 30.3764V29.4009C5.53308 29.3218 5.5957 29.2592 5.67479 29.2592C5.75389 29.2592 5.8165 29.3218 5.8165 29.4009V30.3764C5.8165 30.4555 5.75389 30.5182 5.67479 30.5182Z" fill="#F5CBD9"/>
<path d="M5.67479 33.0358C5.5957 33.0358 5.53308 32.9732 5.53308 32.8941V30.9826C5.53308 30.9035 5.5957 30.8409 5.67479 30.8409C5.75389 30.8409 5.8165 30.9035 5.8165 30.9826V32.8941C5.8165 32.9732 5.75389 33.0358 5.67479 33.0358Z" fill="#F5CBD9"/>
<path d="M6.873 30.1982C6.82356 30.1982 6.77743 30.1718 6.75106 30.129L6.26331 29.282C6.22376 29.2161 6.24682 29.1304 6.31603 29.0909C6.38194 29.0513 6.46764 29.0744 6.50718 29.1436L6.99494 29.9906C7.03449 30.0565 7.01142 30.1422 6.94222 30.1817C6.92244 30.1916 6.89936 30.1982 6.873 30.1982Z" fill="#F5CBD9"/>
<path d="M7.57907 31.4243C7.52964 31.4243 7.4835 31.398 7.45714 31.3551L7.05176 30.6532C7.01221 30.5872 7.03529 30.5016 7.1045 30.462C7.17041 30.4225 7.2561 30.4455 7.29565 30.5147L7.70101 31.2167C7.74056 31.2826 7.7175 31.3683 7.64829 31.4079C7.62852 31.4178 7.60214 31.4243 7.57907 31.4243Z" fill="#F5CBD9"/>
<path d="M7.75082 29.3214C7.72775 29.3214 7.70137 29.3148 7.6816 29.3016L6.83791 28.8139C6.772 28.7743 6.74893 28.6886 6.78519 28.6227C6.82474 28.5568 6.91041 28.5337 6.97632 28.57L7.82001 29.0577C7.88593 29.0973 7.90901 29.183 7.87275 29.2489C7.84639 29.2983 7.80025 29.3214 7.75082 29.3214Z" fill="#F5CBD9"/>
<path d="M10.0748 30.6663C10.0517 30.6663 10.0253 30.6597 10.0056 30.6465L8.20285 29.6051C8.13694 29.5656 8.11386 29.4799 8.15011 29.414C8.18966 29.3481 8.27535 29.325 8.34127 29.3612L10.144 30.4027C10.2099 30.4422 10.233 30.5279 10.1967 30.5938C10.1704 30.64 10.1209 30.6663 10.0748 30.6663Z" fill="#F5CBD9"/>
<path d="M21.5828 9.2709C21.5037 9.2709 21.4279 9.2676 21.3521 9.25772C20.7061 9.18192 20.1228 8.77325 19.8657 8.21629C19.5922 7.62306 19.7141 6.87495 20.1557 6.43333C20.6237 5.96534 21.4246 5.89284 21.9387 6.27514C22.3539 6.58493 22.522 7.16167 22.321 7.58681C22.2089 7.8241 21.9617 8.00207 21.6816 8.0548C21.4279 8.10094 21.1873 8.03503 21.0192 7.87354C20.9632 7.82081 20.9632 7.73182 21.0159 7.6758C21.0686 7.61977 21.1576 7.61977 21.2136 7.6725C21.3158 7.77137 21.4641 7.80762 21.6322 7.77796C21.8266 7.74171 21.9914 7.62306 22.0672 7.46487C22.2155 7.15508 22.0837 6.72994 21.7739 6.49924C21.3652 6.19604 20.7292 6.25536 20.3535 6.63107C19.991 6.9903 19.8921 7.60988 20.1195 8.09764C20.337 8.56892 20.8346 8.91497 21.3817 8.97759C21.8991 9.0402 22.466 8.85565 22.8977 8.49312C23.4843 7.99548 23.7513 7.19463 23.5503 6.54209C23.4052 6.0741 23.0295 5.66874 22.5253 5.42486C22.0936 5.21723 21.5663 5.12495 20.9599 5.14802C19.9975 5.18427 19.0022 5.49077 18.0069 6.05762C17.239 6.49595 16.1482 7.18145 15.3045 7.96911C15.2518 8.01525 15.1727 8.01855 15.12 7.9757C15.0639 7.92956 15.054 7.85376 15.0903 7.79444C15.4231 7.25395 15.6604 6.77278 15.8219 6.31469C14.7047 7.28032 13.3963 8.04491 12.0088 8.53926C11.3958 8.75678 10.5851 8.99077 9.75459 8.87542C8.89772 8.75348 8.17596 8.22947 7.9156 7.54067C7.75082 7.10565 7.78378 6.59152 8.00459 6.13672C8.2287 5.67862 8.611 5.33917 9.05591 5.20075C9.61947 5.02608 10.2522 5.17109 10.6345 5.55998C11.0597 5.99501 11.1256 6.69698 10.7861 7.15838C10.6082 7.39896 10.3116 7.56045 9.99189 7.58352C9.69198 7.60988 9.40854 7.51431 9.2141 7.32316C9.15807 7.27043 9.15809 7.18145 9.21082 7.12542C9.26355 7.06939 9.35252 7.06939 9.40855 7.12542C9.54367 7.25725 9.74471 7.32646 9.96552 7.30668C10.2061 7.28691 10.4269 7.17156 10.5554 6.99359C10.8125 6.64425 10.7532 6.08729 10.4302 5.75442C10.1204 5.43804 9.59969 5.32269 9.135 5.4644C8.76259 5.57975 8.44292 5.86647 8.25177 6.25536C8.06391 6.64425 8.03426 7.07598 8.17268 7.43851C8.40008 8.03502 9.03284 8.48653 9.79084 8.59529C10.562 8.70404 11.3299 8.47994 11.9133 8.27231C13.4227 7.73512 14.8365 6.87165 15.9999 5.7709C16.046 5.72806 16.1119 5.72147 16.168 5.75113C16.2207 5.78079 16.2471 5.84341 16.2339 5.90602C16.1317 6.33446 15.9669 6.76619 15.7263 7.23747C16.458 6.65744 17.2621 6.15649 17.8685 5.81374C18.9034 5.22382 19.9415 4.90414 20.95 4.86789C21.6025 4.84152 22.176 4.94698 22.6472 5.17438C23.224 5.45122 23.6491 5.91921 23.8205 6.4597C24.0578 7.2177 23.7513 8.14049 23.0823 8.70734C22.6538 9.06657 22.1068 9.2709 21.5828 9.2709Z" fill="#F1DFC1"/>
<path d="M21.1232 8.96129C21.0441 8.96129 20.9683 8.958 20.8925 8.94811C20.6882 8.92504 20.4872 8.86572 20.296 8.77673C20.2268 8.74378 20.1972 8.66139 20.2301 8.58888C20.2631 8.51967 20.3455 8.49001 20.418 8.52297C20.5827 8.59877 20.7541 8.6482 20.9288 8.67127C21.4462 8.7306 22.0131 8.54933 22.4448 8.18681C23.0314 7.69246 23.2984 6.88832 23.0973 6.23577C23.0018 5.92928 22.804 5.64915 22.5107 5.41186C22.4514 5.36242 22.4415 5.27344 22.4909 5.21411C22.5404 5.15479 22.6293 5.14491 22.6887 5.19434C23.0248 5.46788 23.2522 5.79086 23.3643 6.15338C23.6016 6.91139 23.2951 7.83417 22.626 8.40103C22.1943 8.75696 21.6505 8.96129 21.1232 8.96129Z" fill="#F1DFC1"/>
<path d="M10.4684 8.89519C10.4619 8.89519 10.4553 8.89519 10.4487 8.89519C9.73351 8.79303 8.8305 8.32504 8.53059 7.54067C8.34603 7.05291 8.40535 6.44651 8.68878 5.96205C8.94913 5.51713 9.3611 5.23041 9.84886 5.1612C9.92466 5.14802 9.99716 5.20404 10.007 5.27984C10.0169 5.35564 9.96421 5.42815 9.88841 5.43803C9.48633 5.49736 9.14687 5.73465 8.92935 6.10376C8.68877 6.51572 8.63605 7.02984 8.79094 7.43851C9.0513 8.11741 9.85216 8.52608 10.4882 8.61506C10.564 8.62495 10.6167 8.69745 10.6069 8.77325C10.597 8.84246 10.5344 8.89519 10.4684 8.89519Z" fill="#F1DFC1"/>
<path d="M24.6164 5.14479H12.8047C12.7256 5.14479 12.663 5.08217 12.663 5.00307C12.663 4.92398 12.7256 4.86136 12.8047 4.86136H24.6164C24.6955 4.86136 24.7581 4.92398 24.7581 5.00307C24.7548 5.08217 24.6922 5.14479 24.6164 5.14479Z" fill="#F1DFC1"/>
<path d="M21.4442 8.03516C21.7973 8.03516 22.0836 7.74891 22.0836 7.3958C22.0836 7.04269 21.7973 6.75644 21.4442 6.75644C21.0911 6.75644 20.8048 7.04269 20.8048 7.3958C20.8048 7.74891 21.0911 8.03516 21.4442 8.03516Z" fill="#F1DFC1"/>
<path d="M13.4429 5.50408C13.4429 5.85671 13.1562 6.14344 12.8035 6.14344C12.4509 6.14344 12.1642 5.85671 12.1642 5.50408C12.1642 5.15144 12.4509 4.86472 12.8035 4.86472C13.1562 4.86472 13.4429 5.15144 13.4429 5.50408Z" fill="#F1DFC1"/>
<path d="M9.67464 7.5178C10.0277 7.5178 10.314 7.23154 10.314 6.87844C10.314 6.52533 10.0277 6.23907 9.67464 6.23907C9.32153 6.23907 9.03528 6.52533 9.03528 6.87844C9.03528 7.23154 9.32153 7.5178 9.67464 7.5178Z" fill="#F1DFC1"/>
<path d="M34.3256 9.2709C33.7983 9.2709 33.2677 9.07316 32.836 8.70734C32.1637 8.14049 31.8605 7.2177 32.0977 6.4597C32.2658 5.91921 32.6943 5.45122 33.271 5.17438C33.7456 4.94698 34.3157 4.84152 34.9683 4.86789C35.9768 4.90414 37.0149 5.22382 38.0497 5.81374C38.6561 6.15979 39.4603 6.65744 40.1919 7.23747C39.9513 6.76619 39.7865 6.33446 39.6844 5.90602C39.6712 5.8467 39.6976 5.78408 39.7503 5.75113C39.803 5.72147 39.8722 5.72806 39.9184 5.7709C41.0818 6.87165 42.4956 7.73512 44.005 8.27231C44.5883 8.47994 45.3562 8.70404 46.1274 8.59529C46.8821 8.48983 47.5182 8.03502 47.7456 7.43851C47.884 7.07598 47.8544 6.64425 47.6665 6.25536C47.4786 5.86647 47.1557 5.57975 46.7833 5.4644C46.3186 5.31939 45.7978 5.43474 45.488 5.75442C45.1618 6.08729 45.1057 6.64096 45.3628 6.99359C45.4913 7.16826 45.7122 7.28691 45.9527 7.30668C46.1703 7.32316 46.3746 7.25725 46.5097 7.12542C46.5657 7.07269 46.6547 7.07269 46.7074 7.12542C46.7602 7.18145 46.7602 7.27043 46.7042 7.32316C46.5097 7.51431 46.2263 7.60988 45.9264 7.58352C45.6067 7.55715 45.3101 7.39896 45.1321 7.15838C44.7927 6.69698 44.8619 5.99171 45.2837 5.55998C45.666 5.17109 46.2988 5.02608 46.8624 5.20075C47.3073 5.33917 47.6896 5.67862 47.9137 6.13672C48.1378 6.59482 48.1707 7.10565 48.0026 7.54067C47.739 8.22947 47.0173 8.75348 46.1637 8.87542C45.3332 8.99406 44.5224 8.75678 43.9094 8.53926C42.522 8.04491 41.2136 7.28032 40.0963 6.31469C40.2578 6.77278 40.4951 7.25395 40.828 7.79444C40.8642 7.85376 40.851 7.93286 40.7983 7.9757C40.7456 8.01855 40.6665 8.01854 40.6138 7.96911C39.7734 7.18145 38.6792 6.49595 37.9113 6.05762C36.916 5.49077 35.9207 5.18427 34.9584 5.14802C34.3487 5.12495 33.8247 5.22052 33.393 5.42486C32.8854 5.66874 32.513 6.0741 32.368 6.54209C32.1637 7.19463 32.4339 7.99548 33.0205 8.49312C33.4523 8.85894 34.0224 9.0402 34.5365 8.97759C35.0869 8.91167 35.5846 8.56563 35.8021 8.09764C36.0295 7.60659 35.9306 6.9903 35.5681 6.63107C35.1924 6.25536 34.5563 6.19934 34.1477 6.49924C33.8346 6.72994 33.706 7.15508 33.8543 7.46487C33.9301 7.62306 34.0949 7.74171 34.2894 7.77796C34.4509 7.80762 34.6058 7.76808 34.7079 7.6725C34.764 7.61977 34.8529 7.61977 34.9057 7.6758C34.9584 7.73182 34.9584 7.82081 34.9024 7.87354C34.7343 8.03503 34.4937 8.10094 34.2399 8.0548C33.9598 8.00536 33.7159 7.8241 33.6039 7.58681C33.3995 7.16167 33.5676 6.58493 33.9862 6.27514C34.5003 5.89284 35.3011 5.96534 35.7691 6.43333C36.2107 6.87495 36.3327 7.62306 36.0591 8.21629C35.8021 8.77325 35.2187 9.18192 34.5728 9.25772C34.4871 9.2676 34.408 9.2709 34.3256 9.2709Z" fill="#F1DFC1"/>
<path d="M34.7914 8.96117C34.2673 8.96117 33.7203 8.76013 33.2918 8.39761C32.6195 7.83075 32.3163 6.90797 32.5536 6.14996C32.6656 5.79074 32.893 5.46776 33.2292 5.19092C33.2885 5.14149 33.3775 5.15138 33.4269 5.2107C33.4764 5.27002 33.4665 5.359 33.4072 5.40844C33.1139 5.64902 32.9194 5.92586 32.8238 6.23236C32.6195 6.8849 32.8897 7.68574 33.4764 8.18339C33.9081 8.54921 34.4783 8.73047 34.9924 8.66785C35.1671 8.64808 35.3384 8.59865 35.5032 8.51955C35.5724 8.48659 35.6581 8.51625 35.6911 8.58546C35.724 8.65467 35.6944 8.74036 35.6252 8.77332C35.434 8.8623 35.233 8.92162 35.0286 8.94469C34.9495 8.95787 34.8705 8.96117 34.7914 8.96117Z" fill="#F1DFC1"/>
<path d="M45.4531 8.89507C45.3839 8.89507 45.3246 8.84564 45.3147 8.77313C45.3048 8.69733 45.3576 8.62483 45.4334 8.61494C46.0694 8.52596 46.8703 8.11729 47.1306 7.43838C47.2888 7.02643 47.2361 6.5156 46.9922 6.10034C46.7747 5.73123 46.4353 5.49394 46.0332 5.43462C45.9574 5.42473 45.9047 5.35223 45.9145 5.27643C45.9244 5.20063 45.9969 5.1446 46.0727 5.15778C46.5605 5.23029 46.9725 5.51371 47.2328 5.95863C47.5162 6.44309 47.5788 7.0462 47.391 7.53725C47.0911 8.32492 46.1881 8.78961 45.4729 8.89178C45.4663 8.89507 45.4597 8.89507 45.4531 8.89507Z" fill="#F1DFC1"/>
<path d="M43.1144 5.14479H31.3028C31.2237 5.14479 31.161 5.08217 31.161 5.00307C31.161 4.92398 31.2237 4.86136 31.3028 4.86136H43.1144C43.1935 4.86136 43.2562 4.92398 43.2562 5.00307C43.2562 5.08217 43.1935 5.14479 43.1144 5.14479Z" fill="#F1DFC1"/>
<path d="M34.4708 8.03479C34.8239 8.03479 35.1101 7.74854 35.1101 7.39543C35.1101 7.04232 34.8239 6.75607 34.4708 6.75607C34.1177 6.75607 33.8314 7.04232 33.8314 7.39543C33.8314 7.74854 34.1177 8.03479 34.4708 8.03479Z" fill="#F1DFC1"/>
<path d="M42.4765 5.50386C42.4765 5.8565 42.7633 6.14322 43.1159 6.14322C43.4685 6.14322 43.7553 5.8565 43.7553 5.50386C43.7553 5.15123 43.4685 4.8645 43.1159 4.8645C42.7633 4.8645 42.4765 5.15123 42.4765 5.50386Z" fill="#F1DFC1"/>
<path d="M46.2424 7.51752C46.5955 7.51752 46.8818 7.23127 46.8818 6.87816C46.8818 6.52505 46.5955 6.2388 46.2424 6.2388C45.8893 6.2388 45.6031 6.52505 45.6031 6.87816C45.6031 7.23127 45.8893 7.51752 46.2424 7.51752Z" fill="#F1DFC1"/>
<path d="M21.1351 51.1092C21.0725 51.1092 21.0132 51.1092 20.9506 51.1059C19.9421 51.0697 18.9039 50.75 17.8691 50.1601C17.2627 49.814 16.4586 49.3164 15.7269 48.7364C15.9675 49.2076 16.1323 49.6394 16.2345 50.0678C16.2476 50.1271 16.2213 50.1897 16.1685 50.2227C16.1158 50.2524 16.0466 50.2458 16.0005 50.2029C14.8371 49.1022 13.4232 48.2387 11.9138 47.7015C11.3305 47.4939 10.5593 47.2698 9.79141 47.3785C9.0367 47.4873 8.40065 47.9388 8.17325 48.5353C8.03483 48.8978 8.06449 49.3296 8.25234 49.7185C8.44019 50.1074 8.76317 50.3941 9.13558 50.5094C9.60027 50.6544 10.121 50.5391 10.4308 50.2194C10.757 49.8865 10.8131 49.3329 10.556 48.9802C10.4275 48.8023 10.2067 48.6869 9.96609 48.6671C9.74858 48.6507 9.54424 48.7166 9.40912 48.8484C9.3531 48.9044 9.26412 48.9011 9.21139 48.8484C9.15866 48.7924 9.15864 48.7034 9.21467 48.6507C9.40911 48.4595 9.69255 48.3639 9.98916 48.3903C10.3088 48.4167 10.6054 48.5749 10.7834 48.8155C11.1229 49.2768 11.0537 49.9821 10.6318 50.4139C10.2495 50.8027 9.61674 50.9478 9.05318 50.7731C8.60827 50.6347 8.22597 50.2952 8.00186 49.8371C7.77776 49.379 7.74482 48.8682 7.9129 48.4332C8.17655 47.7444 8.89829 47.2203 9.75186 47.0984C10.5857 46.9798 11.3931 47.2171 12.0061 47.4346C13.3936 47.9289 14.702 48.6935 15.8192 49.6591C15.6577 49.201 15.4204 48.7199 15.0876 48.1794C15.0513 48.1201 15.0645 48.041 15.1172 47.9981C15.17 47.9553 15.249 47.9553 15.3018 48.0047C16.1422 48.7924 17.2363 49.4779 18.0042 49.9162C18.9995 50.4831 19.9948 50.7896 20.9571 50.8258C21.5668 50.8489 22.0908 50.7533 22.5226 50.549C23.0301 50.3051 23.4025 49.8997 23.5475 49.4317C23.7519 48.7792 23.4816 47.9784 22.895 47.4807C22.4633 47.1149 21.8931 46.9336 21.379 46.9962C20.8286 47.0622 20.3343 47.4082 20.1167 47.8762C19.8893 48.3639 19.9882 48.9835 20.3507 49.3428C20.7265 49.7185 21.3625 49.7745 21.7712 49.4746C22.0843 49.2439 22.2128 48.8188 22.0645 48.509C21.9887 48.3508 21.8239 48.2321 21.6295 48.1959C21.4647 48.1662 21.3131 48.2058 21.2109 48.3013C21.1549 48.3541 21.0659 48.3541 21.0132 48.298C20.9604 48.242 20.9604 48.153 21.0165 48.1003C21.1845 47.9388 21.4251 47.8729 21.6789 47.919C21.959 47.9685 22.2029 48.1497 22.3183 48.387C22.5226 48.8122 22.3545 49.3889 21.936 49.6987C21.4218 50.081 20.621 50.0085 20.153 49.5405C19.7114 49.0989 19.5894 48.3508 19.863 47.7575C20.12 47.2006 20.7034 46.7919 21.3493 46.7161C21.9425 46.6469 22.5885 46.8512 23.0796 47.2665C23.7519 47.8333 24.0551 48.7561 23.8178 49.5141C23.6497 50.0546 23.2213 50.5226 22.6445 50.7994C22.2194 51.0071 21.7119 51.1092 21.1351 51.1092Z" fill="#F1DFC1"/>
<path d="M22.5968 50.8127C22.5572 50.8127 22.5144 50.7963 22.488 50.76C22.4386 50.7007 22.4484 50.6117 22.5078 50.5623C22.8011 50.3217 22.9955 50.0449 23.0944 49.7384C23.2987 49.0858 23.0285 48.285 22.4419 47.7873C22.0101 47.4215 21.4433 47.2402 20.9259 47.3029C20.7512 47.3226 20.5798 47.3721 20.415 47.4512C20.3458 47.4841 20.2601 47.4545 20.2272 47.3852C20.1942 47.316 20.2239 47.2303 20.2964 47.1974C20.4875 47.1084 20.6886 47.0491 20.8929 47.026C21.4861 46.9568 22.1321 47.1611 22.6231 47.5764C23.2954 48.1433 23.5986 49.066 23.3614 49.824C23.2493 50.1866 23.0219 50.5062 22.6857 50.7831C22.6594 50.8029 22.6297 50.8127 22.5968 50.8127Z" fill="#F1DFC1"/>
<path d="M9.86702 50.8159C9.86043 50.8159 9.85384 50.8159 9.84725 50.8159C9.35949 50.7434 8.94752 50.4599 8.68717 50.015C8.40374 49.5306 8.34113 48.9275 8.52898 48.4364C8.82889 47.6487 9.7319 47.184 10.4471 47.0819C10.5229 47.072 10.5954 47.1247 10.6052 47.2005C10.6151 47.2763 10.5624 47.3488 10.4866 47.3587C9.85054 47.4477 9.04969 47.8564 8.78933 48.5353C8.63114 48.9472 8.68386 49.4581 8.92774 49.87C9.14526 50.2391 9.48472 50.4764 9.88679 50.5357C9.96259 50.5456 10.0153 50.6181 10.0054 50.6939C9.99555 50.7664 9.93623 50.8159 9.86702 50.8159Z" fill="#F1DFC1"/>
<path d="M24.618 51.1092H12.8063C12.7272 51.1092 12.6646 51.0466 12.6646 50.9675C12.6646 50.8884 12.7272 50.8258 12.8063 50.8258H24.618C24.6971 50.8258 24.7597 50.8884 24.7597 50.9675C24.7597 51.0466 24.6938 51.1092 24.618 51.1092Z" fill="#F1DFC1"/>
<path d="M21.4457 49.2176C21.7988 49.2176 22.085 48.9313 22.085 48.5782C22.085 48.2251 21.7988 47.9389 21.4457 47.9389C21.0926 47.9389 20.8063 48.2251 20.8063 48.5782C20.8063 48.9313 21.0926 49.2176 21.4457 49.2176Z" fill="#F1DFC1"/>
<path d="M12.8029 51.1093C13.156 51.1093 13.4423 50.823 13.4423 50.4699C13.4423 50.1168 13.156 49.8306 12.8029 49.8306C12.4498 49.8306 12.1636 50.1168 12.1636 50.4699C12.1636 50.823 12.4498 51.1093 12.8029 51.1093Z" fill="#F1DFC1"/>
<path d="M9.67433 49.735C10.0274 49.735 10.3137 49.4487 10.3137 49.0956C10.3137 48.7425 10.0274 48.4563 9.67433 48.4563C9.32123 48.4563 9.03497 48.7425 9.03497 49.0956C9.03497 49.4487 9.32123 49.735 9.67433 49.735Z" fill="#F1DFC1"/>
<path d="M34.783 51.1093C34.2063 51.1093 33.6988 51.0071 33.2703 50.7995C32.6936 50.5226 32.2684 50.0546 32.097 49.5141C31.8598 48.7561 32.1663 47.8334 32.8353 47.2665C33.3329 46.8447 33.9624 46.6469 34.5655 46.7161C35.2115 46.7919 35.7948 47.2006 36.0518 47.7576C36.3254 48.3508 36.2035 49.0989 35.7618 49.5405C35.2906 50.0085 34.4897 50.081 33.9789 49.6987C33.5636 49.3889 33.3956 48.8122 33.5966 48.387C33.7086 48.1497 33.9525 47.9718 34.2327 47.919C34.4864 47.8729 34.727 47.9388 34.8951 48.1003C34.9511 48.153 34.9511 48.242 34.8984 48.298C34.8456 48.3541 34.7567 48.3541 34.7006 48.3013C34.5985 48.2025 34.4469 48.1662 34.2821 48.1959C34.0876 48.2321 33.9229 48.3508 33.8471 48.509C33.6988 48.8188 33.8306 49.2439 34.1404 49.4746C34.549 49.7778 35.1851 49.7185 35.5608 49.3428C35.9233 48.9835 36.0222 48.3673 35.7948 47.8762C35.5773 47.4049 35.0796 47.0589 34.5292 46.9963C34.0118 46.9369 33.445 47.1182 33.0132 47.4807C32.4266 47.9751 32.1597 48.7792 32.3607 49.4318C32.5057 49.8997 32.8814 50.3051 33.3857 50.549C33.8174 50.7566 34.3447 50.8489 34.9511 50.8258C35.9134 50.7896 36.9087 50.4831 37.904 49.9162C38.6719 49.4779 39.7628 48.7924 40.6065 48.0047C40.6592 47.9553 40.7383 47.9553 40.791 47.9981C40.847 48.0443 40.8569 48.1201 40.8207 48.1794C40.4878 48.7199 40.2505 49.2011 40.089 49.6592C41.203 48.6935 42.5147 47.9289 43.9021 47.4346C44.5151 47.2171 45.3259 46.9798 46.1564 47.0984C47.0133 47.2204 47.735 47.7444 47.9954 48.4332C48.1602 48.8682 48.1272 49.3823 47.9064 49.8371C47.6823 50.2952 47.3 50.6347 46.8551 50.7731C46.2915 50.9478 45.6587 50.8028 45.2764 50.4139C44.8513 49.9788 44.7854 49.2769 45.1248 48.8155C45.3028 48.5749 45.5961 48.4134 45.9191 48.3903C46.219 48.3673 46.5024 48.4628 46.6969 48.6507C46.7529 48.7034 46.7529 48.7924 46.7002 48.8484C46.6474 48.9045 46.5584 48.9045 46.5024 48.8484C46.3673 48.7166 46.163 48.6474 45.9455 48.6672C45.7049 48.6869 45.4841 48.8023 45.3555 48.9803C45.0985 49.3296 45.1578 49.8866 45.4808 50.2194C45.7906 50.5358 46.3113 50.6512 46.776 50.5094C47.1484 50.3941 47.4681 50.1074 47.6592 49.7185C47.8471 49.3296 47.8767 48.8979 47.7383 48.5353C47.5109 47.9388 46.8781 47.4873 46.1201 47.3786C45.3522 47.2698 44.5811 47.4939 43.9977 47.7015C42.4883 48.2387 41.0745 49.1022 39.9111 50.2029C39.8649 50.2458 39.799 50.2524 39.743 50.2227C39.6903 50.1931 39.6639 50.1304 39.6771 50.0678C39.7792 49.6394 39.944 49.2077 40.1846 48.7364C39.453 49.3164 38.6488 49.8174 38.0424 50.1601C37.0076 50.75 35.9695 51.0664 34.961 51.106C34.905 51.1093 34.8423 51.1093 34.783 51.1093Z" fill="#F1DFC1"/>
<path d="M33.3197 50.8126C33.2868 50.8126 33.2571 50.8027 33.2308 50.7796C32.8946 50.5061 32.6672 50.1831 32.5551 49.8206C32.3179 49.0626 32.6244 48.1398 33.2934 47.5729C33.7844 47.1577 34.4337 46.9534 35.0236 47.0226C35.2279 47.0456 35.429 47.105 35.6201 47.1939C35.6893 47.2269 35.719 47.3093 35.6893 47.3818C35.6564 47.451 35.574 47.4807 35.5015 47.4477C35.3367 47.3719 35.1653 47.3225 34.9906 47.2994C34.4732 47.2368 33.9064 47.4213 33.4747 47.7839C32.888 48.2782 32.6211 49.0824 32.8221 49.7349C32.9177 50.0414 33.1154 50.3215 33.4054 50.5588C33.4648 50.6083 33.4746 50.6972 33.4252 50.7566C33.4021 50.7961 33.3626 50.8126 33.3197 50.8126Z" fill="#F1DFC1"/>
<path d="M46.0527 50.816C45.9834 50.816 45.9241 50.7666 45.9142 50.6974C45.9044 50.6216 45.9571 50.549 46.0329 50.5392C46.4349 50.4798 46.7744 50.2425 46.9919 49.8734C47.2325 49.4615 47.2852 48.9473 47.1303 48.5354C46.87 47.8565 46.0691 47.4478 45.4331 47.3588C45.3573 47.3489 45.3045 47.2764 45.3144 47.2006C45.3243 47.1248 45.3968 47.0721 45.4726 47.082C46.2108 47.1875 47.0908 47.6456 47.3907 48.4365C47.5752 48.9276 47.5159 49.5307 47.2325 50.0151C46.9721 50.4601 46.5602 50.7468 46.0724 50.816C46.0658 50.816 46.0592 50.816 46.0527 50.816Z" fill="#F1DFC1"/>
<path d="M43.1141 51.1094H31.3024C31.2234 51.1094 31.1607 51.0468 31.1607 50.9677C31.1607 50.8886 31.2234 50.826 31.3024 50.826H43.1141C43.1932 50.826 43.2558 50.8886 43.2558 50.9677C43.2558 51.0468 43.1932 51.1094 43.1141 51.1094Z" fill="#F1DFC1"/>
<path d="M34.4705 49.2174C34.8236 49.2174 35.1098 48.9312 35.1098 48.5781C35.1098 48.225 34.8236 47.9387 34.4705 47.9387C34.1174 47.9387 33.8311 48.225 33.8311 48.5781C33.8311 48.9312 34.1174 49.2174 34.4705 49.2174Z" fill="#F1DFC1"/>
<path d="M43.1156 51.1093C43.4687 51.1093 43.7549 50.823 43.7549 50.4699C43.7549 50.1168 43.4687 49.8305 43.1156 49.8305C42.7625 49.8305 42.4762 50.1168 42.4762 50.4699C42.4762 50.823 42.7625 51.1093 43.1156 51.1093Z" fill="#F1DFC1"/>
<path d="M46.2421 49.735C46.5952 49.735 46.8815 49.4487 46.8815 49.0956C46.8815 48.7425 46.5952 48.4562 46.2421 48.4562C45.889 48.4562 45.6028 48.7425 45.6028 49.0956C45.6028 49.4487 45.889 49.735 46.2421 49.735Z" fill="#F1DFC1"/>
<path d="M48.9554 23.9263C48.3326 23.9263 47.68 23.6264 47.2417 23.109C46.8198 22.6114 46.6221 21.9819 46.6913 21.3788C46.7671 20.7328 47.1758 20.1495 47.7328 19.8924C48.326 19.6189 49.0741 19.7408 49.5157 20.1825C49.9837 20.6537 50.0562 21.4546 49.6739 21.9687C49.3641 22.384 48.7874 22.552 48.3622 22.351C48.1249 22.239 47.947 21.9951 47.8942 21.7116C47.8481 21.4579 47.914 21.2173 48.0755 21.0492C48.1282 20.9932 48.2172 20.9932 48.2732 21.0459C48.3293 21.0987 48.3293 21.1876 48.2765 21.2437C48.1777 21.3458 48.1414 21.4974 48.1711 21.6622C48.2073 21.8567 48.326 22.0214 48.4842 22.0972C48.794 22.2455 49.2191 22.1137 49.4498 21.8039C49.753 21.3953 49.6937 20.7592 49.318 20.3835C48.9587 20.021 48.3425 19.9221 47.8514 20.1495C47.3801 20.367 47.0341 20.8647 46.9715 21.415C46.9121 21.9325 47.0934 22.4993 47.4559 22.931C47.9503 23.5177 48.7544 23.7879 49.4069 23.5836C49.8716 23.4386 50.2803 23.0629 50.5242 22.5586C50.7318 22.1269 50.8241 21.5996 50.801 20.9932C50.7648 20.0309 50.4583 19.0356 49.8914 18.0403C49.4531 17.2724 48.7676 16.1815 47.9799 15.3378C47.9305 15.2851 47.9305 15.206 47.9733 15.1533C48.0162 15.1005 48.0953 15.0874 48.1546 15.1236C48.6951 15.4565 49.1763 15.6938 49.6344 15.8552C48.6687 14.738 47.9041 13.4296 47.4098 12.0422C47.1923 11.4292 46.955 10.6184 47.0736 9.78791C47.1956 8.93434 47.7196 8.20929 48.4084 7.94893C48.8434 7.78415 49.3542 7.81711 49.8123 8.03792C50.2704 8.26202 50.6099 8.64432 50.7483 9.08923C50.923 9.65279 50.7779 10.2856 50.389 10.6679C49.954 11.093 49.2521 11.1589 48.7907 10.8195C48.5501 10.6415 48.3886 10.3449 48.3655 10.0252C48.3425 9.7253 48.438 9.44187 48.6259 9.25072C48.6819 9.19469 48.7676 9.19469 48.8236 9.24742C48.8797 9.30016 48.8797 9.38914 48.8236 9.44516C48.6918 9.58029 48.6226 9.78462 48.6423 10.0021C48.6621 10.2427 48.7775 10.4635 48.9554 10.5921C49.3048 10.8491 49.8618 10.7898 50.1946 10.4668C50.511 10.157 50.6263 9.63631 50.4813 9.17162C50.366 8.79921 50.0793 8.47953 49.6904 8.28838C49.3015 8.10053 48.8731 8.07087 48.5072 8.20929C47.9107 8.43669 47.4592 9.06946 47.3505 9.82746C47.2417 10.5986 47.4658 11.3665 47.6734 11.9499C48.2106 13.4593 49.0741 14.8731 50.1749 16.0365C50.2177 16.0826 50.2243 16.1486 50.1946 16.2046C50.165 16.2573 50.0991 16.2837 50.0397 16.2705C49.6113 16.1683 49.1795 16.0035 48.7083 15.763C49.2883 16.4946 49.7893 17.2987 50.132 17.9051C50.7219 18.94 51.0416 19.9781 51.0779 20.9866C51.1009 21.6391 50.9988 22.2126 50.7714 22.6839C50.4945 23.2606 50.0265 23.689 49.486 23.8571C49.318 23.9 49.14 23.9263 48.9554 23.9263Z" fill="#F1DFC1"/>
<path d="M49.2655 23.4683C48.6427 23.4683 47.9901 23.1684 47.5518 22.651C47.1299 22.1534 46.9322 21.5206 47.0014 20.9208C47.0245 20.7165 47.0838 20.5154 47.1728 20.3243C47.2057 20.2551 47.2881 20.2254 47.3606 20.2584C47.4299 20.2913 47.4595 20.3737 47.4265 20.4462C47.3507 20.611 47.3013 20.7824 47.2816 20.957C47.2189 21.4745 47.4035 22.0413 47.766 22.4731C48.2604 23.0597 49.0645 23.3266 49.7171 23.1256C50.0236 23.03 50.3004 22.8323 50.541 22.5423C50.5904 22.4829 50.6794 22.4731 50.7387 22.5225C50.798 22.5719 50.8079 22.6609 50.7585 22.7202C50.4816 23.0564 50.162 23.2838 49.7994 23.3958C49.6281 23.442 49.4501 23.4683 49.2655 23.4683Z" fill="#F1DFC1"/>
<path d="M47.1961 10.6352C47.1896 10.6352 47.183 10.6352 47.1764 10.6352C47.1006 10.6253 47.0478 10.5528 47.0577 10.477C47.1599 9.7618 47.6246 8.85879 48.4122 8.55888C48.9033 8.37103 49.5064 8.43365 49.9909 8.71708C50.4358 8.97744 50.7225 9.38939 50.7917 9.87715C50.8016 9.95295 50.7488 10.0255 50.673 10.0353C50.5972 10.0452 50.5247 9.9925 50.5149 9.9167C50.4555 9.51463 50.2182 9.17517 49.8491 8.95766C49.4372 8.71708 48.9231 8.66435 48.5111 8.81924C47.8322 9.0796 47.4235 9.88045 47.3346 10.5165C47.3247 10.5824 47.2654 10.6352 47.1961 10.6352Z" fill="#F1DFC1"/>
<path d="M50.9464 24.7834C50.8674 24.7834 50.8047 24.7208 50.8047 24.6417V12.83C50.8047 12.7509 50.8674 12.6883 50.9464 12.6883C51.0255 12.6883 51.0881 12.7509 51.0881 12.83V24.6417C51.0848 24.7208 51.0222 24.7834 50.9464 24.7834Z" fill="#F1DFC1"/>
<path d="M48.5546 22.1138C48.202 22.1138 47.9153 21.8271 47.9153 21.4744C47.9153 21.1218 48.202 20.8351 48.5546 20.8351C48.9073 20.8351 49.194 21.1218 49.194 21.4744C49.194 21.8271 48.9073 22.1138 48.5546 22.1138Z" fill="#F1DFC1"/>
<path d="M50.4459 13.4692C50.799 13.4692 51.0852 13.183 51.0852 12.8298C51.0852 12.4767 50.799 12.1905 50.4459 12.1905C50.0928 12.1905 49.8065 12.4767 49.8065 12.8298C49.8065 13.183 50.0928 13.4692 50.4459 13.4692Z" fill="#F1DFC1"/>
<path d="M49.0742 10.3415C49.4273 10.3415 49.7135 10.0552 49.7135 9.70214C49.7135 9.34903 49.4273 9.06277 49.0742 9.06277C48.721 9.06277 48.4348 9.34903 48.4348 9.70214C48.4348 10.0552 48.721 10.3415 49.0742 10.3415Z" fill="#F1DFC1"/>
<path d="M48.9946 48.1365C48.7936 48.1365 48.5959 48.1002 48.4146 48.031C47.7258 47.7674 47.2018 47.0456 47.0798 46.192C46.9612 45.3615 47.1985 44.5508 47.416 43.9378C47.9104 42.5503 48.675 41.2419 49.6406 40.1247C49.1825 40.2862 48.7013 40.5235 48.1608 40.8564C48.1015 40.8926 48.0224 40.8794 47.9796 40.8267C47.9334 40.774 47.9367 40.6949 47.9862 40.6421C48.7738 39.8017 49.4593 38.7076 49.8976 37.9397C50.4645 36.9444 50.771 35.9491 50.8072 34.9868C50.8303 34.3804 50.7347 33.8531 50.5304 33.4213C50.2865 32.9138 49.8812 32.5414 49.4132 32.3964C48.7606 32.192 47.9598 32.4623 47.4622 33.0489C47.0963 33.4806 46.9151 34.0475 46.9777 34.5649C47.0436 35.1153 47.3896 35.6097 47.8576 35.8305C48.3454 36.0579 48.965 35.959 49.3242 35.5965C49.6999 35.2208 49.7592 34.5847 49.456 34.176C49.2253 33.8629 48.8002 33.7344 48.4904 33.8827C48.3322 33.9585 48.2136 34.1233 48.1773 34.3177C48.1476 34.4825 48.1872 34.6341 48.2828 34.7363C48.3355 34.7923 48.3355 34.8813 48.2795 34.934C48.2234 34.9868 48.1345 34.9868 48.0817 34.9307C47.9202 34.7627 47.8543 34.5221 47.9005 34.2683C47.9499 33.9882 48.1312 33.7443 48.3685 33.629C48.7936 33.4246 49.3704 33.5927 49.6801 34.0112C50.0624 34.5254 49.9899 35.3262 49.5219 35.7975C49.0803 36.2391 48.3322 36.3611 47.739 36.0875C47.182 35.8305 46.7734 35.2471 46.6976 34.6012C46.625 34.0014 46.8261 33.3686 47.2479 32.8709C47.8148 32.1986 48.7376 31.8954 49.4956 32.1327C50.0361 32.3008 50.5041 32.7292 50.7809 33.306C51.0083 33.7806 51.1104 34.3507 51.0874 35.0032C51.0511 36.0117 50.7314 37.0499 50.1415 38.0847C49.7955 38.6911 49.2978 39.4952 48.7178 40.2269C49.1891 39.9863 49.6208 39.8215 50.0493 39.7193C50.1086 39.7029 50.1712 39.7325 50.2041 39.7853C50.2371 39.838 50.2272 39.9072 50.1844 39.9533C49.0836 41.1167 48.2201 42.5306 47.683 44.04C47.4753 44.6233 47.2512 45.3912 47.36 46.1624C47.4654 46.9171 47.9203 47.5532 48.5168 47.7806C48.8793 47.919 49.311 47.8893 49.6999 47.7015C50.0888 47.5136 50.3755 47.1906 50.4909 46.8182C50.6359 46.3535 50.5205 45.8328 50.2041 45.523C49.8713 45.1967 49.3176 45.1407 48.965 45.3978C48.7903 45.5263 48.6717 45.7471 48.6519 45.9877C48.6354 46.2052 48.7013 46.4096 48.8331 46.5447C48.8859 46.6007 48.8859 46.6897 48.8331 46.7424C48.7771 46.7951 48.6881 46.7951 48.6354 46.7391C48.4443 46.5447 48.3487 46.2612 48.3751 45.9613C48.4014 45.6417 48.5596 45.3451 48.8002 45.1671C49.2616 44.8276 49.9668 44.8935 50.3986 45.3187C50.7875 45.701 50.9325 46.3338 50.7578 46.8973C50.6194 47.3422 50.2799 47.7245 49.8218 47.9486C49.5549 48.0706 49.2715 48.1365 48.9946 48.1365Z" fill="#F1DFC1"/>
<path d="M47.303 35.7318C47.2503 35.7318 47.2008 35.7022 47.1777 35.6527C47.0888 35.4616 47.0294 35.2606 47.0064 35.0562C46.9372 34.463 47.1415 33.8171 47.5567 33.326C48.1236 32.657 49.0464 32.3505 49.8044 32.5878C50.1636 32.6998 50.4866 32.9272 50.7634 33.2634C50.8129 33.3227 50.803 33.4117 50.7437 33.4611C50.6843 33.5106 50.5954 33.5007 50.5459 33.4414C50.3053 33.148 50.0285 32.9536 49.722 32.858C49.0695 32.6537 48.2686 32.9239 47.771 33.5106C47.4051 33.9423 47.2239 34.5091 47.2865 35.0266C47.3063 35.2012 47.3557 35.3726 47.4348 35.5374C47.4678 35.6066 47.4381 35.6923 47.3689 35.7252C47.3425 35.7285 47.3228 35.7318 47.303 35.7318Z" fill="#F1DFC1"/>
<path d="M49.0158 47.5237C48.8082 47.5237 48.6006 47.4874 48.4127 47.4182C47.625 47.1183 47.1603 46.2153 47.0582 45.5001C47.0483 45.4243 47.101 45.3518 47.1768 45.3419C47.2526 45.3287 47.3251 45.3848 47.335 45.4606C47.424 46.0966 47.8327 46.8975 48.5116 47.1578C48.9235 47.316 49.4343 47.2633 49.8496 47.0194C50.2187 46.8019 50.456 46.4624 50.5153 46.0604C50.5252 45.9846 50.5977 45.9286 50.6735 45.9417C50.7493 45.9516 50.8021 46.0241 50.7922 46.0999C50.7197 46.5877 50.4362 46.9996 49.9913 47.26C49.6947 47.4347 49.3487 47.5237 49.0158 47.5237Z" fill="#F1DFC1"/>
<path d="M50.9469 43.2823C50.8678 43.2823 50.8051 43.2197 50.8051 43.1406V31.3289C50.8051 31.2498 50.8678 31.1872 50.9469 31.1872C51.026 31.1872 51.0886 31.2498 51.0886 31.3289V43.1406C51.0853 43.2197 51.0227 43.2823 50.9469 43.2823Z" fill="#F1DFC1"/>
<path d="M48.5551 33.8602C48.2025 33.8602 47.9157 34.1469 47.9157 34.4996C47.9157 34.8522 48.2025 35.1389 48.5551 35.1389C48.9077 35.1389 49.1944 34.8522 49.1944 34.4996C49.1944 34.1469 48.9077 33.8602 48.5551 33.8602Z" fill="#F1DFC1"/>
<path d="M50.4466 43.7833C50.7997 43.7833 51.086 43.497 51.086 43.1439C51.086 42.7908 50.7997 42.5045 50.4466 42.5045C50.0935 42.5045 49.8073 42.7908 49.8073 43.1439C49.8073 43.497 50.0935 43.7833 50.4466 43.7833Z" fill="#F1DFC1"/>
<path d="M49.0746 46.9107C49.4277 46.9107 49.714 46.6245 49.714 46.2713C49.714 45.9182 49.4277 45.632 49.0746 45.632C48.7215 45.632 48.4353 45.9182 48.4353 46.2713C48.4353 46.6245 48.7215 46.9107 49.0746 46.9107Z" fill="#F1DFC1"/>
<path d="M6.9686 23.9265C6.78404 23.9265 6.60608 23.9002 6.4347 23.8475C5.89421 23.6794 5.42624 23.2509 5.1494 22.6742C4.922 22.1996 4.81984 21.6295 4.84291 20.9769C4.87916 19.9684 5.19884 18.9303 5.78876 17.8955C6.13481 17.2891 6.63246 16.4849 7.2125 15.7533C6.74451 15.9939 6.30947 16.1587 5.88103 16.2608C5.82171 16.274 5.7591 16.2476 5.72615 16.1949C5.69648 16.1422 5.70308 16.073 5.74592 16.0268C6.84667 14.8635 7.71013 13.4496 8.24732 11.9402C8.45495 11.3569 8.67907 10.589 8.57031 9.81779C8.46155 9.06308 8.01004 8.42702 7.41353 8.19962C7.051 8.0612 6.61926 8.09086 6.23037 8.27871C5.84148 8.46656 5.55477 8.78954 5.43942 9.16195C5.29441 9.62664 5.41306 10.1474 5.72944 10.4571C6.06231 10.7834 6.61596 10.8394 6.9686 10.5824C7.14657 10.4539 7.26192 10.233 7.28169 9.99246C7.29817 9.77494 7.23226 9.57061 7.10043 9.43549C7.0477 9.37947 7.0477 9.29048 7.10043 9.23775C7.15646 9.18502 7.24544 9.18502 7.29817 9.24105C7.48932 9.43549 7.5849 9.71892 7.55854 10.0155C7.53217 10.3352 7.37398 10.6318 7.1301 10.8098C6.66871 11.1492 5.96343 11.08 5.53169 10.6582C5.1428 10.2759 4.99781 9.64312 5.17248 9.07956C5.31089 8.63464 5.65034 8.25235 6.10843 8.02824C6.56653 7.80413 7.07736 7.77118 7.51239 7.93926C8.20119 8.20291 8.72519 8.92466 8.84713 9.77824C8.96578 10.6088 8.7285 11.4195 8.51099 12.0325C8.01994 13.42 7.25534 14.7283 6.28641 15.8456C6.74451 15.6841 7.22568 15.4468 7.76617 15.1139C7.82549 15.0777 7.90458 15.0909 7.94742 15.1436C7.99356 15.1963 7.99026 15.2754 7.94083 15.3281C7.15316 16.1685 6.46767 17.2627 6.02934 18.0306C5.46249 19.0259 5.15599 20.0212 5.11973 20.9835C5.09666 21.5899 5.19225 22.1172 5.39658 22.549C5.64046 23.0565 6.04583 23.4289 6.51382 23.5739C7.16636 23.7782 7.9672 23.508 8.46485 22.9214C8.83067 22.4896 9.01192 21.9228 8.9493 21.4054C8.88339 20.855 8.53735 20.3606 8.06936 20.1398C7.57831 19.9124 6.96201 20.0113 6.60278 20.3738C6.22708 20.7495 6.17106 21.3856 6.47097 21.7942C6.70496 22.1073 7.12681 22.2359 7.4366 22.0876C7.59479 22.0118 7.71344 21.847 7.74969 21.6525C7.77935 21.4878 7.7398 21.3362 7.64423 21.234C7.5915 21.178 7.5915 21.089 7.64753 21.0362C7.70355 20.9835 7.79253 20.9835 7.84526 21.0395C8.00675 21.2076 8.07266 21.4482 8.02652 21.702C7.97708 21.9821 7.79583 22.226 7.55854 22.3413C7.1334 22.5457 6.55666 22.3776 6.24687 21.959C5.86457 21.4449 5.93707 20.6441 6.40505 20.1728C6.84667 19.7312 7.59478 19.6092 8.188 19.8828C8.74497 20.1398 9.15364 20.7232 9.22944 21.3691C9.30195 21.9722 9.1009 22.6017 8.67905 23.0993C8.24073 23.6266 7.59148 23.9265 6.9686 23.9265Z" fill="#F1DFC1"/>
<path d="M6.66059 23.4686C6.47932 23.4686 6.29804 23.4423 6.12667 23.3895C5.76415 23.2775 5.44448 23.0501 5.16764 22.7139C5.1182 22.6546 5.12809 22.5656 5.18741 22.5162C5.24673 22.4667 5.33571 22.4766 5.38514 22.5359C5.62573 22.8293 5.90256 23.0237 6.20906 23.1193C6.8616 23.3236 7.66247 23.0567 8.16011 22.4667C8.52593 22.035 8.70718 21.4682 8.64457 20.9507C8.62479 20.7761 8.57535 20.6047 8.49626 20.4399C8.4633 20.3707 8.49297 20.285 8.56547 20.2521C8.63468 20.2191 8.72037 20.2488 8.75333 20.318C8.84231 20.5091 8.90164 20.7101 8.92471 20.9145C8.99721 21.5143 8.79616 22.1471 8.37432 22.6447C7.9327 23.1687 7.28347 23.4686 6.66059 23.4686Z" fill="#F1DFC1"/>
<path d="M8.72597 10.6349C8.65676 10.6349 8.59744 10.5854 8.58756 10.5129C8.49857 9.87688 8.08991 9.07603 7.411 8.81567C6.99904 8.66077 6.48821 8.71351 6.07296 8.95409C5.70384 9.1716 5.46655 9.51106 5.40723 9.91313C5.39734 9.98893 5.32484 10.0417 5.24904 10.0318C5.17324 10.0219 5.12052 9.94938 5.1304 9.87358C5.20291 9.38582 5.48633 8.97386 5.93125 8.71351C6.41571 8.43008 7.01881 8.36746 7.50987 8.55532C8.29753 8.85522 8.76222 9.75823 8.86438 10.4734C8.87427 10.5492 8.82154 10.6217 8.74574 10.6316C8.73915 10.6349 8.73256 10.6349 8.72597 10.6349Z" fill="#F1DFC1"/>
<path d="M4.97936 24.7833C4.90026 24.7833 4.83765 24.7207 4.83765 24.6416V12.8299C4.83765 12.7509 4.90026 12.6882 4.97936 12.6882C5.05845 12.6882 5.12107 12.7509 5.12107 12.8299V24.6416C5.11777 24.7207 5.05516 24.7833 4.97936 24.7833Z" fill="#F1DFC1"/>
<path d="M7.37258 22.114C7.72568 22.114 8.01194 21.8278 8.01194 21.4747C8.01194 21.1216 7.72568 20.8353 7.37258 20.8353C7.01947 20.8353 6.73322 21.1216 6.73322 21.4747C6.73322 21.8278 7.01947 22.114 7.37258 22.114Z" fill="#F1DFC1"/>
<path d="M5.47908 13.4695C5.83219 13.4695 6.11844 13.1833 6.11844 12.8302C6.11844 12.477 5.83219 12.1908 5.47908 12.1908C5.12597 12.1908 4.83972 12.477 4.83972 12.8302C4.83972 13.1833 5.12597 13.4695 5.47908 13.4695Z" fill="#F1DFC1"/>
<path d="M6.85304 10.3417C7.20615 10.3417 7.49241 10.0555 7.49241 9.70235C7.49241 9.34924 7.20615 9.06299 6.85304 9.06299C6.49994 9.06299 6.21368 9.34924 6.21368 9.70235C6.21368 10.0555 6.49994 10.3417 6.85304 10.3417Z" fill="#F1DFC1"/>
<path d="M6.93015 48.1366C6.65332 48.1366 6.36989 48.0707 6.10624 47.9422C5.64814 47.7181 5.3087 47.3358 5.17028 46.8909C4.99561 46.3273 5.14061 45.6945 5.5295 45.3123C5.96452 44.8871 6.66651 44.8212 7.12791 45.1607C7.36849 45.3386 7.52997 45.6352 7.55634 45.9549C7.57941 46.2548 7.48384 46.5382 7.29599 46.7327C7.24326 46.7887 7.15426 46.7887 7.09824 46.736C7.04221 46.6833 7.04221 46.5943 7.09824 46.5382C7.23006 46.4031 7.29927 46.1988 7.27949 45.9813C7.25972 45.7407 7.14439 45.5199 6.96642 45.3913C6.61708 45.1343 6.06011 45.1936 5.72725 45.5166C5.41086 45.8264 5.29551 46.3471 5.43723 46.8118C5.55258 47.1842 5.83929 47.5039 6.22818 47.695C6.61706 47.8829 7.04881 47.9125 7.41133 47.7741C8.00785 47.5467 8.45936 46.914 8.56811 46.1559C8.67687 45.3848 8.45277 44.6169 8.24514 44.0335C7.70795 42.5241 6.84448 41.1103 5.74372 39.9469C5.70088 39.9008 5.69429 39.8349 5.72395 39.7788C5.75361 39.7261 5.81951 39.6964 5.87884 39.7129C6.30727 39.8151 6.73902 39.9799 7.2103 40.2204C6.63026 39.4888 6.13261 38.6847 5.78657 38.0783C5.19664 37.0434 4.87696 36.0053 4.84071 34.9968C4.81764 34.3443 4.91981 33.7708 5.14721 33.2995C5.42404 32.7228 5.89204 32.2944 6.43253 32.1263C7.18723 31.889 8.1133 32.1955 8.68015 32.8645C9.102 33.3622 9.29975 33.9949 9.23054 34.5947C9.15474 35.2407 8.74607 35.824 8.1891 36.0811C7.59588 36.3546 6.84777 36.2327 6.40615 35.7911C5.93817 35.3198 5.86567 34.5189 6.24797 34.0048C6.55776 33.5896 7.1345 33.4215 7.55964 33.6225C7.79693 33.7346 7.97489 33.9817 8.02762 34.2619C8.07376 34.5156 8.00785 34.7562 7.84636 34.9243C7.79363 34.9803 7.70465 34.9803 7.64863 34.9276C7.5926 34.8749 7.5926 34.7859 7.64533 34.7299C7.7442 34.6277 7.78045 34.4761 7.75079 34.3113C7.71454 34.1169 7.59589 33.9521 7.4377 33.8763C7.12791 33.728 6.70277 33.8598 6.47207 34.1729C6.16887 34.5783 6.22818 35.2176 6.60389 35.5933C6.96311 35.9559 7.57941 36.0547 8.07046 35.8273C8.54174 35.6098 8.88778 35.1122 8.9504 34.5618C9.00972 34.0444 8.82847 33.4775 8.46595 33.0458C7.9716 32.4591 7.16746 32.1922 6.51492 32.3932C6.05023 32.5382 5.64156 32.9107 5.39768 33.4182C5.19005 33.8499 5.09777 34.3772 5.12084 34.9836C5.15709 35.946 5.46359 36.9413 6.03044 37.9365C6.46877 38.7044 7.15426 39.7986 7.94193 40.639C7.99136 40.6917 7.99137 40.7708 7.94852 40.8236C7.90568 40.8763 7.82659 40.8895 7.76727 40.8532C7.22678 40.5203 6.74561 40.2831 6.28752 40.1216C7.25315 41.2388 8.01774 42.5472 8.51209 43.9347C8.72961 44.5477 8.96688 45.3584 8.84824 46.1889C8.7263 47.0458 8.20229 47.7675 7.51349 48.0279C7.32894 48.1004 7.13119 48.1366 6.93015 48.1366Z" fill="#F1DFC1"/>
<path d="M8.62467 35.7315C8.6049 35.7315 8.58512 35.7282 8.56535 35.7183C8.49614 35.6854 8.46647 35.603 8.49613 35.5305C8.57193 35.3657 8.62137 35.1943 8.64444 35.0197C8.70706 34.5022 8.52251 33.9354 8.15999 33.5037C7.66564 32.917 6.86148 32.6501 6.20894 32.8511C5.90244 32.9467 5.62231 33.1444 5.38502 33.4344C5.33559 33.4938 5.24661 33.5037 5.18729 33.4542C5.12797 33.4048 5.11808 33.3158 5.16752 33.2565C5.44106 32.9203 5.76402 32.6929 6.12655 32.5809C6.88455 32.3436 7.80734 32.6501 8.3742 33.3191C8.78945 33.8102 8.9938 34.4561 8.92459 35.0493C8.90152 35.2537 8.84219 35.4547 8.75321 35.6458C8.72684 35.7019 8.6774 35.7315 8.62467 35.7315Z" fill="#F1DFC1"/>
<path d="M6.90889 47.5237C6.57273 47.5237 6.22999 47.4347 5.93338 47.2601C5.48847 46.9997 5.20175 46.5877 5.13254 46.1C5.12265 46.0242 5.17538 45.9517 5.25118 45.9418C5.32698 45.9286 5.39948 45.9846 5.40936 46.0604C5.46869 46.4625 5.70598 46.802 6.0751 47.0195C6.48705 47.2601 7.00118 47.3128 7.41314 47.1579C8.09204 46.8975 8.50071 46.0967 8.58969 45.4606C8.59958 45.3848 8.67537 45.3321 8.74788 45.342C8.82368 45.3519 8.8764 45.4244 8.86652 45.5002C8.76435 46.2153 8.29967 47.1183 7.512 47.4182C7.32085 47.4908 7.11652 47.5237 6.90889 47.5237Z" fill="#F1DFC1"/>
<path d="M4.97936 43.2819C4.90026 43.2819 4.83765 43.2193 4.83765 43.1402V31.3285C4.83765 31.2494 4.90026 31.1868 4.97936 31.1868C5.05845 31.1868 5.12107 31.2494 5.12107 31.3285V43.1402C5.11777 43.2193 5.05516 43.2819 4.97936 43.2819Z" fill="#F1DFC1"/>
<path d="M7.37245 35.1386C7.72556 35.1386 8.01181 34.8523 8.01181 34.4992C8.01181 34.1461 7.72556 33.8598 7.37245 33.8598C7.01935 33.8598 6.73309 34.1461 6.73309 34.4992C6.73309 34.8523 7.01935 35.1386 7.37245 35.1386Z" fill="#F1DFC1"/>
<path d="M5.47896 43.783C5.83207 43.783 6.11832 43.4968 6.11832 43.1437C6.11832 42.7905 5.83207 42.5043 5.47896 42.5043C5.12585 42.5043 4.8396 42.7905 4.8396 43.1437C4.8396 43.4968 5.12585 43.783 5.47896 43.783Z" fill="#F1DFC1"/>
<path d="M6.85292 46.9104C7.20603 46.9104 7.49228 46.6241 7.49228 46.271C7.49228 45.9179 7.20603 45.6317 6.85292 45.6317C6.49981 45.6317 6.21356 45.9179 6.21356 46.271C6.21356 46.6241 6.49981 46.9104 6.85292 46.9104Z" fill="#F1DFC1"/>
<path d="M51.6225 51.7879H4.30004C4.22094 51.7879 4.15833 51.7253 4.15833 51.6462V4.32372C4.15833 4.24462 4.22094 4.18201 4.30004 4.18201H51.6225C51.7016 4.18201 51.7643 4.24462 51.7643 4.32372V51.6462C51.7643 51.7253 51.7016 51.7879 51.6225 51.7879ZM4.43845 51.5078H51.4808V4.46543H4.43845V51.5078Z" fill="#F1DFC1"/>
<path d="M27.9414 27.9573C27.9414 27.9705 27.9381 27.9804 27.9348 27.9903C27.9546 28.0034 27.9743 28.0166 27.9941 28.0298C27.9776 28.0034 27.9611 27.9771 27.948 27.9474C27.9447 27.9507 27.9414 27.954 27.9414 27.9573Z" fill="#EAA49B"/>
<path fill-rule="evenodd" clip-rule="evenodd" d="M27.9533 27.9148C27.964 27.9168 27.973 27.9239 27.9774 27.9338C27.9895 27.9611 28.0047 27.9855 28.0214 28.0122C28.0296 28.0253 28.0275 28.0425 28.0164 28.0533C28.0053 28.0641 27.9881 28.0657 27.9752 28.057L27.9158 28.0175C27.9035 28.0093 27.8981 27.9938 27.9028 27.9797C27.9061 27.9698 27.9077 27.9644 27.9077 27.9571C27.9077 27.9447 27.9137 27.9359 27.9164 27.9324C27.9191 27.9288 27.9223 27.9256 27.9237 27.9242C27.9238 27.9241 27.9239 27.924 27.924 27.9239C27.9317 27.9163 27.9426 27.9128 27.9533 27.9148Z" fill="#EAA49B"/>
<path d="M20.9745 24.8232C21.2908 28.2244 23.9966 30.9301 27.3977 31.2465V29.7832C26.7221 29.7041 26.086 29.5064 25.506 29.2098L27.0615 28.7912L27.7273 26.3096L25.9081 24.4904L23.4264 25.1561L23.0079 26.7117C22.7146 26.1316 22.5168 25.4923 22.4344 24.82H20.9745V24.8232Z" fill="#E9A39B"/>
<path d="M22.7729 29.4439C22.0149 28.6859 20.7823 28.6859 20.0243 29.4439C19.2663 30.2019 19.2663 31.4345 20.0243 32.1925C20.7823 32.9505 22.0149 32.9505 22.7729 32.1925C23.5342 31.4345 23.5342 30.2052 22.7729 29.4439Z" fill="#E9A39B"/>
<path d="M33.6005 32.1956C34.3585 32.9536 35.591 32.9536 36.349 32.1956C37.107 31.4376 37.107 30.205 36.349 29.447C35.591 28.689 34.3585 28.689 33.6005 29.447C32.8392 30.205 32.8392 31.4343 33.6005 32.1956Z" fill="#E9A39B"/>
<path d="M29.3139 28.7944L30.708 29.1668C30.1048 29.4865 29.4391 29.7007 28.7306 29.7831V31.2464C32.1317 30.93 34.8374 28.2242 35.1538 24.8231H33.6905C33.6279 25.3702 33.4829 25.8909 33.2753 26.3787L32.949 25.1593L30.4674 24.4935L28.6482 26.3127L29.3139 28.7944Z" fill="#E9A39B"/>
<path d="M28.7306 17.0616V18.5249C29.3106 18.5941 29.8676 18.749 30.3817 18.9797L29.3139 19.2664L28.6482 21.7481L30.4674 23.5673L32.949 22.9015L33.2357 21.8337C33.4664 22.3479 33.6246 22.9015 33.6905 23.4849H35.1538C34.8374 20.0837 32.1317 17.378 28.7306 17.0616Z" fill="#E9A39B"/>
<path d="M33.6005 18.614C34.3585 19.372 35.591 19.372 36.349 18.614C37.107 17.856 37.107 16.6234 36.349 15.8654C35.591 15.1074 34.3585 15.1074 33.6005 15.8654C32.8392 16.6234 32.8392 17.856 33.6005 18.614Z" fill="#E9A39B"/>
<path d="M22.4377 23.4849C22.5201 22.7763 22.7343 22.1106 23.054 21.5075L23.4264 22.9015L25.9081 23.5673L27.7273 21.7481L27.0615 19.2664L25.8421 18.9402C26.3299 18.7325 26.8506 18.5908 27.3977 18.5249V17.0616C23.9966 17.378 21.2908 20.0837 20.9745 23.4849H22.4377Z" fill="#E9A39B"/>
<path d="M20.0243 18.614C20.7823 19.372 22.0149 19.372 22.7729 18.614C23.5309 17.856 23.5309 16.6234 22.7729 15.8654C22.0149 15.1074 20.7823 15.1074 20.0243 15.8654C19.2663 16.6234 19.2663 17.856 20.0243 18.614Z" fill="#E9A39B"/>
<path d="M41.9055 38.9354C41.5496 38.9393 41.427 38.6585 41.427 38.4687C41.427 37.7766 42.3287 36.8986 42.9773 36.9026C43.1829 36.9026 43.2818 37.0054 43.2818 37.1478C43.2818 37.4207 42.9931 37.658 41.8423 38.3817C41.8778 38.5676 42.0163 38.6744 42.214 38.6744C42.3722 38.6744 42.5304 38.6269 42.7637 38.4252L42.7993 38.4608C42.4671 38.7534 42.1112 38.9354 41.9055 38.9354ZM41.8343 38.3066V38.3224C42.6846 37.7885 42.8824 37.5472 42.8824 37.2902C42.8824 37.1676 42.8033 37.0687 42.649 37.0687C42.2298 37.0687 41.8146 37.7845 41.8343 38.3066Z" fill="#A98B83"/>
<path d="M38.972 38.9078C38.9126 38.9078 38.8889 38.8643 38.9166 38.8129L39.8816 37.0332C40.2375 36.3767 41.1155 35.7163 41.9381 35.7163C42.1279 35.7163 42.2624 35.74 42.2624 35.8033C42.2624 35.914 42.0963 36.1118 41.8511 36.1118C41.6889 36.1118 41.507 36.0564 41.1392 35.9575C40.8386 36.088 40.6607 36.2937 40.3957 36.8038L39.7194 38.0971C39.9172 37.84 40.1149 37.6185 40.3047 37.4366C40.6528 37.1005 40.9691 36.8988 41.1629 36.8988C41.2895 36.8988 41.3725 37.0016 41.3725 37.1281C41.3765 37.4999 40.716 38.3423 40.716 38.5716C40.716 38.6428 40.7516 38.6863 40.8268 38.6863C40.9059 38.6863 41.0324 38.5993 41.1669 38.4728L41.2025 38.5123C40.8742 38.8168 40.6567 38.9394 40.5341 38.9394C40.3443 38.9394 40.2929 38.7892 40.2929 38.6903C40.2929 38.2474 40.9573 37.4999 40.9573 37.2428C40.9573 37.1796 40.9296 37.1321 40.8584 37.1321C40.7358 37.1321 40.5658 37.2666 40.3403 37.4762C40.0872 37.7174 39.7906 38.0615 39.5573 38.4095L39.3279 38.8485C39.3081 38.888 39.2804 38.9078 39.2369 38.9078H38.972Z" fill="#A98B83"/>
<path d="M37.9772 38.9394C37.8111 38.9394 37.7083 38.7812 37.7083 38.6151C37.7083 38.4806 37.7755 38.2394 38.0721 37.7292L38.4834 37.0213H38.1868V36.9738L39.1518 36.4083L39.1913 36.436L38.8986 36.9699H39.393L39.3653 37.0252H38.871L38.4043 37.8795C38.2975 38.0733 38.1512 38.3422 38.1512 38.5083C38.1512 38.6269 38.2105 38.6784 38.2857 38.6784C38.3647 38.6784 38.5111 38.5993 38.6455 38.4727L38.6811 38.5122C38.3529 38.8168 38.1235 38.9394 37.9772 38.9394Z" fill="#A98B83"/>
<path d="M34.4729 38.9078C34.4135 38.9078 34.3898 38.8643 34.4175 38.8129L35.3825 37.0332C35.7384 36.3767 36.6164 35.7163 37.439 35.7163C37.6288 35.7163 37.7632 35.74 37.7632 35.8033C37.7632 35.914 37.5971 36.1118 37.352 36.1118C37.1898 36.1118 37.0079 36.0564 36.6401 35.9575C36.3395 36.088 36.1616 36.2937 35.8966 36.8038L35.2203 38.0971C35.4181 37.84 35.6158 37.6185 35.8056 37.4366C36.1536 37.1005 36.47 36.8988 36.6638 36.8988C36.7904 36.8988 36.8734 37.0016 36.8734 37.1281C36.8774 37.4999 36.2169 38.3423 36.2169 38.5716C36.2169 38.6428 36.2525 38.6863 36.3277 38.6863C36.4068 38.6863 36.5333 38.5993 36.6678 38.4728L36.7034 38.5123C36.3751 38.8168 36.1576 38.9394 36.035 38.9394C35.8452 38.9394 35.7938 38.7892 35.7938 38.6903C35.7938 38.2474 36.4582 37.4999 36.4582 37.2428C36.4582 37.1796 36.4305 37.1321 36.3593 37.1321C36.2367 37.1321 36.0666 37.2666 35.8412 37.4762C35.5881 37.7174 35.2915 38.0615 35.0582 38.4095L34.8288 38.8485C34.809 38.888 34.7813 38.9078 34.7378 38.9078H34.4729Z" fill="#A98B83"/>
<path d="M33.476 38.9394C33.3099 38.9394 33.2071 38.7812 33.2071 38.6151C33.2071 38.4806 33.2743 38.2394 33.5709 37.7292L33.9822 37.0213H33.6856V36.9738L34.6506 36.4083L34.6901 36.436L34.3975 36.9699H34.8918L34.8641 37.0252H34.3698L33.9031 37.8795C33.7963 38.0733 33.65 38.3422 33.65 38.5083C33.65 38.6269 33.7093 38.6784 33.7845 38.6784C33.8636 38.6784 34.0099 38.5993 34.1444 38.4727L34.1799 38.5122C33.8517 38.8168 33.6223 38.9394 33.476 38.9394Z" fill="#A98B83"/>
<path d="M32.2667 38.9395C32.1006 38.9395 32.0334 38.7932 32.0334 38.6746C32.0334 38.2791 32.7532 37.4327 32.7532 37.2192C32.7532 37.1717 32.7373 37.1322 32.6662 37.1322C32.591 37.1322 32.4526 37.2152 32.2904 37.3655L32.2549 37.326C32.5831 37.0214 32.8125 36.8988 32.9588 36.8988C33.117 36.8988 33.1724 37.0096 33.1724 37.1045C33.1724 37.4683 32.4961 38.2514 32.4961 38.4966C32.4961 38.5836 32.5436 38.6271 32.6266 38.6271C32.6978 38.6271 32.7848 38.5994 32.9193 38.4729L32.9549 38.5124C32.6266 38.8169 32.413 38.9395 32.2667 38.9395ZM33.1091 36.6299L33.7814 35.9853C33.8368 35.9339 33.8921 35.8785 33.9277 35.8785C33.9554 35.8785 33.9633 35.9062 33.9633 35.9418C33.9633 36.0288 33.9436 36.0525 33.8447 36.1277L33.1328 36.6616L33.1091 36.6299Z" fill="#A98B83"/>
<path d="M30.69 38.9393C30.4092 38.9433 30.3064 38.7218 30.3064 38.5082C30.3064 38.4449 30.3143 38.3817 30.3262 38.3144C30.081 38.7376 29.7804 38.9353 29.5431 38.9393C29.2624 38.9433 29.116 38.7574 29.116 38.5082C29.116 38.0653 29.5985 37.5591 30.0256 37.2348C29.907 37.2348 29.6539 37.219 29.4641 37.2269C29.3256 37.2348 29.2821 37.2783 29.1912 37.3851L29.1556 37.3653C29.2979 37.1675 29.381 37.0449 29.4759 36.9619C29.5352 36.9144 29.6143 36.9026 29.6776 36.9026C29.8042 36.9026 30.1166 36.9303 30.3657 36.9303L30.3776 36.9659C29.8042 37.4325 29.5115 38.002 29.5115 38.4054C29.5115 38.5794 29.5866 38.7376 29.7804 38.7416C29.9663 38.7455 30.168 38.5675 30.3895 38.0851C30.4923 37.7924 30.6624 37.5274 30.7256 37.4325C30.785 37.3495 31.2239 37.1952 31.1686 37.2783C30.8917 37.6935 30.7019 38.1642 30.7098 38.4291C30.7138 38.5438 30.7375 38.7336 30.959 38.7376C31.216 38.7416 31.5443 38.2788 31.7183 37.9111C31.6866 37.4918 31.6748 37.2822 31.6985 37.1517C31.7222 37.0094 31.8765 36.8986 32.0347 36.8986C32.1059 36.8986 32.1335 36.9303 32.1335 36.9777C32.1335 37.132 31.9358 37.5749 31.8409 37.7805C31.5878 38.3421 31.1528 38.9353 30.69 38.9393Z" fill="#A98B83"/>
<path d="M26.2691 38.9077C26.2098 38.9077 26.1861 38.8681 26.2217 38.8088C26.4827 38.3659 27.0047 37.4207 27.0047 37.2308C27.0047 37.1675 26.977 37.132 26.9059 37.132C26.8307 37.132 26.6923 37.215 26.5302 37.3653L26.4946 37.3257C26.8228 37.0212 27.0522 36.8986 27.1985 36.8986C27.3567 36.8986 27.4121 37.0094 27.4121 37.1043C27.4121 37.2031 27.3488 37.3811 27.2618 37.5868C27.5426 37.1873 27.855 36.8986 28.2386 36.8986C28.3256 36.8986 28.5115 36.9184 28.5115 36.9935C28.5115 37.0885 28.3731 37.2822 28.2149 37.2822C28.0804 37.2822 27.9381 37.2546 27.6929 37.1834C27.507 37.3218 27.2737 37.6263 27.0601 38.0099C26.8782 38.3698 26.6765 38.7218 26.5895 38.8523C26.5657 38.8918 26.5381 38.9077 26.4946 38.9077H26.2691Z" fill="#A98B83"/>
<path d="M25.0891 38.9354C24.7332 38.9393 24.6106 38.6585 24.6106 38.4687C24.6106 37.7766 25.5123 36.8986 26.1609 36.9026C26.3665 36.9026 26.4654 37.0054 26.4654 37.1478C26.4654 37.4207 26.1767 37.658 25.0258 38.3817C25.0614 38.5676 25.1999 38.6744 25.3976 38.6744C25.5558 38.6744 25.714 38.6269 25.9473 38.4252L25.9829 38.4608C25.6507 38.7534 25.2948 38.9354 25.0891 38.9354ZM25.0179 38.3066V38.3224C25.8682 37.7885 26.066 37.5472 26.066 37.2902C26.066 37.1676 25.9869 37.0687 25.8326 37.0687C25.4134 37.0687 24.9982 37.7845 25.0179 38.3066Z" fill="#A98B83"/>
<path d="M22.1556 38.9078C22.0962 38.9078 22.0725 38.8643 22.1002 38.8129L23.0652 37.0332C23.4211 36.3767 24.2991 35.7163 25.1217 35.7163C25.3115 35.7163 25.446 35.74 25.446 35.8033C25.446 35.914 25.2799 36.1118 25.0347 36.1118C24.8725 36.1118 24.6906 36.0564 24.3228 35.9575C24.0222 36.088 23.8443 36.2937 23.5793 36.8038L22.903 38.0971C23.1008 37.84 23.2985 37.6185 23.4883 37.4366C23.8364 37.1005 24.1527 36.8988 24.3465 36.8988C24.4731 36.8988 24.5561 37.0016 24.5561 37.1281C24.5601 37.4999 23.8996 38.3423 23.8996 38.5716C23.8996 38.6428 23.9352 38.6863 24.0104 38.6863C24.0895 38.6863 24.216 38.5993 24.3505 38.4728L24.3861 38.5123C24.0578 38.8168 23.8403 38.9394 23.7177 38.9394C23.5279 38.9394 23.4765 38.7892 23.4765 38.6903C23.4765 38.2474 24.1409 37.4999 24.1409 37.2428C24.1409 37.1796 24.1132 37.1321 24.042 37.1321C23.9194 37.1321 23.7493 37.2666 23.5239 37.4762C23.2708 37.7174 22.9742 38.0615 22.7409 38.4095L22.5115 38.8485C22.4917 38.888 22.464 38.9078 22.4205 38.9078H22.1556Z" fill="#A98B83"/>
<path d="M21.1608 38.9394C20.9947 38.9394 20.8918 38.7812 20.8918 38.6151C20.8918 38.4806 20.9591 38.2394 21.2557 37.7292L21.667 37.0213H21.3704V36.9738L22.3353 36.4083L22.3749 36.436L22.0822 36.9699H22.5766L22.5489 37.0252H22.0546L21.5879 37.8795C21.4811 38.0733 21.3348 38.3422 21.3348 38.5083C21.3348 38.6269 21.3941 38.6784 21.4692 38.6784C21.5483 38.6784 21.6947 38.5993 21.8291 38.4727L21.8647 38.5122C21.5365 38.8168 21.3071 38.9394 21.1608 38.9394Z" fill="#A98B83"/>
<path d="M19.7129 38.9354C19.357 38.9393 19.2344 38.6585 19.2344 38.4687C19.2344 37.7766 20.1361 36.8986 20.7847 36.9026C20.9903 36.9026 21.0892 37.0054 21.0892 37.1478C21.0892 37.4207 20.8005 37.658 19.6497 38.3817C19.6853 38.5676 19.8237 38.6744 20.0214 38.6744C20.1796 38.6744 20.3378 38.6269 20.5711 38.4252L20.6067 38.4608C20.2745 38.7534 19.9186 38.9354 19.7129 38.9354ZM19.6418 38.3066V38.3224C20.492 37.7885 20.6898 37.5472 20.6898 37.2902C20.6898 37.1676 20.6107 37.0687 20.4564 37.0687C20.0372 37.0687 19.622 37.7845 19.6418 38.3066Z" fill="#A98B83"/>
<path d="M16.8296 40.0071C16.4539 40.0031 16.3906 39.8331 16.4025 39.7105C16.4144 39.5642 16.5765 39.3783 16.8375 39.2557L16.8652 39.2794C16.8138 39.3506 16.7663 39.4376 16.7663 39.5444C16.7663 39.6947 16.8533 39.8449 17.1697 39.8449C17.3398 39.8449 17.5257 39.75 17.6087 39.6828C17.9528 39.406 18.1189 38.7178 18.6567 37.7212L18.7279 37.5907C18.0912 38.3777 17.5573 38.9512 17.2884 38.9393C17.1144 38.9314 17.0313 38.7851 17.0353 38.5755C17.0471 37.828 17.8776 36.8986 18.6963 36.8986C18.8347 36.8986 19.1471 36.9263 19.3409 36.9856L19.337 36.9896L19.3449 36.9856L19.3607 36.9896C19.4121 37.0014 19.42 37.0449 19.3963 37.0924L18.8426 38.1483C18.372 39.05 18.0042 39.4455 17.6443 39.7263C17.4268 39.8964 17.1183 40.0071 16.8296 40.0071ZM17.4307 38.4647C17.4307 38.5399 17.4347 38.6862 17.5454 38.6862C17.7234 38.6862 18.1861 38.1958 18.8782 37.3099L18.9415 37.1952C18.7398 37.124 18.4748 37.0608 18.3364 37.0608C17.7788 37.0608 17.4307 38.0692 17.4307 38.4647Z" fill="#A98B83"/>
<path d="M15.5161 38.9393C15.2274 38.9393 15.0613 38.7218 15.0613 38.4489C15.0613 37.7529 15.9828 36.8986 16.5246 36.8986C16.8687 36.8986 16.9359 37.1834 16.9359 37.3534C16.9359 38.2274 15.9037 38.9393 15.5161 38.9393ZM15.4568 38.2788C15.4568 38.4766 15.5122 38.7455 15.8009 38.7455C16.2596 38.7455 16.5404 37.9308 16.5404 37.4998C16.5404 37.2229 16.4139 37.1003 16.2082 37.1003C15.7613 37.1003 15.4568 37.7805 15.4568 38.2788Z" fill="#A98B83"/>
<path d="M13.1781 38.9077C13.1386 38.9077 13.1346 38.888 13.1346 38.8721C13.1346 38.8366 13.3482 38.6467 13.4154 38.5993C13.5499 38.449 13.6053 38.3501 13.6685 38.2473C14.0166 37.6382 14.1708 37.1834 14.4872 36.614C14.5861 36.432 14.6849 36.3055 14.9104 36.2027L15.1437 36.0959H13.8386C13.7002 36.0959 13.6488 36.1473 13.5578 36.2541L13.5222 36.2343C13.6646 36.0366 13.7595 35.8863 13.8544 35.8032C13.9137 35.7558 13.9928 35.7439 14.0522 35.7439H16.4962C16.5397 35.7439 16.5437 35.7558 16.5437 35.7716C16.5437 35.8072 16.3301 36.0207 16.2787 36.0682C16.251 36.0919 16.2115 36.0959 16.164 36.0959H15.2663C15.1081 36.2066 15.029 36.345 14.9459 36.4993C14.6335 37.0529 14.4991 37.4919 14.1589 38.0891C14.0561 38.271 13.9533 38.3817 13.7674 38.4806L13.5499 38.5953L14.1708 38.5518C14.1827 38.5518 14.2143 38.5479 14.2143 38.5755C14.2143 38.6111 14.0798 38.8326 14.0166 38.8801C13.9889 38.9038 13.9493 38.9077 13.9019 38.9077H13.1781Z" fill="#A98B83"/>
<path d="M37.6279 43.6537C37.5686 43.6537 37.5449 43.6142 37.5805 43.5549C37.8415 43.1119 38.3635 42.1667 38.3635 41.9769C38.3635 41.9136 38.3358 41.878 38.2647 41.878C38.1895 41.878 38.0511 41.9611 37.8889 42.1114L37.8534 42.0718C38.1816 41.7673 38.411 41.6447 38.5573 41.6447C38.7155 41.6447 38.7709 41.7554 38.7709 41.8503C38.7709 42.0204 38.581 42.4396 38.3793 42.8311C38.5731 42.582 38.7709 42.3645 38.9567 42.1825C39.3048 41.8464 39.6212 41.6447 39.8149 41.6447C39.9415 41.6447 40.0245 41.7475 40.0245 41.8741C40.0285 42.2458 39.368 43.0882 39.368 43.3176C39.368 43.3888 39.4036 43.4323 39.4788 43.4323C39.5579 43.4323 39.6844 43.3452 39.8189 43.2187L39.8545 43.2582C39.5262 43.5628 39.3087 43.6854 39.1861 43.6854C38.9963 43.6854 38.9449 43.5351 38.9449 43.4362C38.9449 42.9933 39.6093 42.2458 39.6093 41.9888C39.6093 41.9255 39.5816 41.878 39.5104 41.878C39.3878 41.878 39.2178 42.0125 38.9923 42.2221C38.7353 42.4673 38.4387 42.8153 38.2014 43.1633C38.0946 43.3611 37.9997 43.5193 37.9483 43.5984C37.9245 43.6379 37.8969 43.6537 37.8534 43.6537H37.6279Z" fill="#A98B83"/>
<path d="M36.2244 43.6854C35.9357 43.6854 35.7696 43.4678 35.7696 43.195C35.7696 42.4989 36.691 41.6447 37.2328 41.6447C37.5769 41.6447 37.6441 41.9294 37.6441 42.0995C37.6441 42.9735 36.6119 43.6854 36.2244 43.6854ZM36.165 43.0249C36.165 43.2227 36.2204 43.4916 36.5091 43.4916C36.9679 43.4916 37.2487 42.6769 37.2487 42.2458C37.2487 41.969 37.1221 41.8464 36.9165 41.8464C36.4696 41.8464 36.165 42.5266 36.165 43.0249Z" fill="#A98B83"/>
<path d="M34.8082 43.6853C34.6421 43.6853 34.5749 43.539 34.5749 43.4203C34.5749 43.0249 35.2946 42.1785 35.2946 41.965C35.2946 41.9175 35.2788 41.878 35.2076 41.878C35.1325 41.878 34.9941 41.961 34.8319 42.1113L34.7963 42.0718C35.1246 41.7672 35.354 41.6446 35.5003 41.6446C35.6585 41.6446 35.7138 41.7554 35.7138 41.8503C35.7138 42.2141 35.0376 42.9972 35.0376 43.2424C35.0376 43.3294 35.085 43.3729 35.1681 43.3729C35.2393 43.3729 35.3263 43.3452 35.4607 43.2186L35.4963 43.2582C35.1681 43.5627 34.9545 43.6853 34.8082 43.6853ZM35.6506 41.3757L36.3229 40.7311C36.3782 40.6797 36.4336 40.6243 36.4692 40.6243C36.4969 40.6243 36.5048 40.652 36.5048 40.6876C36.5048 40.7746 36.485 40.7983 36.3862 40.8735L35.6743 41.4073L35.6506 41.3757Z" fill="#A98B83"/>
<path d="M33.464 43.6852C33.2979 43.6852 33.1951 43.527 33.1951 43.3609C33.1951 43.2264 33.2623 42.9852 33.5589 42.475L33.9702 41.7671H33.6736V41.7196L34.6386 41.1541L34.6781 41.1818L34.3855 41.7157H34.8798L34.8521 41.771H34.3578L33.8911 42.6253C33.7843 42.8191 33.638 43.088 33.638 43.2541C33.638 43.3727 33.6973 43.4241 33.7725 43.4241C33.8516 43.4241 33.9979 43.345 34.1324 43.2185L34.1679 43.258C33.8397 43.5626 33.6103 43.6852 33.464 43.6852Z" fill="#A98B83"/>
<path d="M32.3096 43.6854C32.1198 43.6854 32.0683 43.5351 32.0683 43.4362C32.0683 43.1594 32.2503 42.7916 32.4441 42.4594C31.8469 43.1831 31.3288 43.6972 31.0757 43.6854C30.9017 43.6775 30.8186 43.5311 30.8226 43.3215C30.8344 42.5741 31.665 41.6447 32.4836 41.6447C32.622 41.6447 32.9028 41.6724 33.0966 41.7317L33.1638 41.7515C33.2192 41.7673 33.235 41.8029 33.2034 41.8503C33.065 42.056 32.8593 42.3882 32.7209 42.6571C32.5904 42.9221 32.4915 43.1317 32.4915 43.3176C32.4915 43.3888 32.5231 43.4323 32.5943 43.4323C32.6774 43.4323 32.8079 43.3452 32.9424 43.2187L32.978 43.2582C32.6497 43.5628 32.4322 43.6854 32.3096 43.6854ZM31.2181 43.2108C31.2181 43.2859 31.222 43.4323 31.3328 43.4323C31.5107 43.4323 32.009 42.9379 32.7051 42.0441L32.7565 41.965C32.5587 41.8859 32.278 41.8068 32.1237 41.8068C31.5661 41.8068 31.2181 42.8153 31.2181 43.2108Z" fill="#A98B83"/>
<path d="M29.8595 43.6812C29.6498 43.6812 29.4837 43.4795 29.1278 43.4795C29.0131 43.4795 28.9024 43.4795 28.7284 43.5902C28.6216 43.6575 28.6097 43.7049 28.5623 43.7049C28.5346 43.7049 28.5109 43.6851 28.5109 43.6614C28.5109 43.5744 28.6097 43.5823 29.1278 43.2066C29.373 43.0286 29.6063 42.8309 29.8357 42.6371C30.0532 42.4552 30.2945 42.2535 30.4764 42.0637C30.2391 41.9846 29.9425 41.945 29.7685 41.945C29.5668 41.945 29.3928 42.036 29.2227 42.2298L29.1871 42.1981C29.4402 41.9173 29.7171 41.6445 30.0335 41.6484C30.3261 41.6524 30.5595 41.6998 30.864 41.8303L31.0657 41.6721L31.1013 41.7077C30.7137 42.0281 30.2628 42.3445 29.8753 42.6727C29.6617 42.8546 29.4561 43.0445 29.2583 43.2224C29.3256 43.1947 29.3849 43.1789 29.4561 43.1789C29.7013 43.1789 29.8911 43.3806 30.1047 43.3806C30.2035 43.3806 30.3182 43.3608 30.4685 43.1829L30.508 43.2145C30.2312 43.5309 30.0256 43.6812 29.8595 43.6812Z" fill="#A98B83"/>
<path d="M27.9407 43.6853C27.7746 43.6853 27.7074 43.539 27.7074 43.4203C27.7074 43.0249 28.4271 42.1785 28.4271 41.965C28.4271 41.9175 28.4113 41.878 28.3401 41.878C28.265 41.878 28.1266 41.961 27.9644 42.1113L27.9288 42.0718C28.2571 41.7672 28.4865 41.6446 28.6328 41.6446C28.791 41.6446 28.8464 41.7554 28.8464 41.8503C28.8464 42.2141 28.1701 42.9972 28.1701 43.2424C28.1701 43.3294 28.2175 43.3729 28.3006 43.3729C28.3718 43.3729 28.4588 43.3452 28.5932 43.2186L28.6288 43.2582C28.3006 43.5627 28.087 43.6853 27.9407 43.6853ZM28.7831 41.3757L29.4554 40.7311C29.5108 40.6797 29.5661 40.6243 29.6017 40.6243C29.6294 40.6243 29.6373 40.652 29.6373 40.6876C29.6373 40.7746 29.6175 40.7983 29.5187 40.8735L28.8068 41.4073L28.7831 41.3757Z" fill="#A98B83"/>
<path d="M25.2622 43.6537C25.2029 43.6537 25.1792 43.6142 25.2148 43.5549C25.4758 43.1119 25.9978 42.1667 25.9978 41.9769C25.9978 41.9136 25.9701 41.878 25.899 41.878C25.8238 41.878 25.6854 41.9611 25.5233 42.1114L25.4877 42.0718C25.8159 41.7673 26.0453 41.6447 26.1916 41.6447C26.3498 41.6447 26.4052 41.7554 26.4052 41.8503C26.4052 42.0204 26.2153 42.4396 26.0137 42.8311C26.2074 42.582 26.4052 42.3645 26.5911 42.1825C26.9391 41.8464 27.2555 41.6447 27.4492 41.6447C27.5758 41.6447 27.6589 41.7475 27.6589 41.8741C27.6628 42.2458 27.0024 43.0882 27.0024 43.3176C27.0024 43.3888 27.0379 43.4323 27.1131 43.4323C27.1922 43.4323 27.3187 43.3452 27.4532 43.2187L27.4888 43.2582C27.1605 43.5628 26.943 43.6854 26.8204 43.6854C26.6306 43.6854 26.5792 43.5351 26.5792 43.4362C26.5792 42.9933 27.2436 42.2458 27.2436 41.9888C27.2436 41.9255 27.2159 41.878 27.1447 41.878C27.0221 41.878 26.8521 42.0125 26.6266 42.2221C26.3696 42.4673 26.073 42.8153 25.8357 43.1633C25.7289 43.3611 25.634 43.5193 25.5826 43.5984C25.5589 43.6379 25.5312 43.6537 25.4877 43.6537H25.2622Z" fill="#A98B83"/>
<path d="M24.4451 43.6854C24.2553 43.6854 24.2039 43.5351 24.2039 43.4362C24.2039 43.1594 24.3858 42.7916 24.5796 42.4594C23.9824 43.1831 23.4643 43.6972 23.2112 43.6854C23.0372 43.6775 22.9542 43.5311 22.9581 43.3215C22.97 42.5741 23.8005 41.6447 24.6191 41.6447C24.7575 41.6447 25.0383 41.6724 25.2321 41.7317L25.2994 41.7515C25.3547 41.7673 25.3705 41.8029 25.3389 41.8503C25.2005 42.056 24.9948 42.3882 24.8564 42.6571C24.7259 42.9221 24.627 43.1317 24.627 43.3176C24.627 43.3888 24.6587 43.4323 24.7299 43.4323C24.8129 43.4323 24.9434 43.3452 25.0779 43.2187L25.1135 43.2582C24.7852 43.5628 24.5677 43.6854 24.4451 43.6854ZM23.3536 43.2108C23.3536 43.2859 23.3575 43.4323 23.4683 43.4323C23.6462 43.4323 24.1446 42.9379 24.8406 42.0441L24.892 41.965C24.6943 41.8859 24.4135 41.8068 24.2592 41.8068C23.7016 41.8068 23.3536 42.8153 23.3536 43.2108Z" fill="#A98B83"/>
<path d="M20.5826 44.7532C20.2069 44.7492 20.1436 44.5791 20.1555 44.4565C20.1673 44.3102 20.3295 44.1243 20.5905 44.0017L20.6182 44.0255C20.5668 44.0967 20.5193 44.1837 20.5193 44.2904C20.5193 44.4407 20.6063 44.591 20.9227 44.591C21.0928 44.591 21.2786 44.4961 21.3617 44.4289C21.7058 44.152 21.8719 43.4639 22.4097 42.4673L22.4809 42.3368C21.8442 43.1238 21.3103 43.6972 21.0414 43.6854C20.8673 43.6775 20.7843 43.5311 20.7882 43.3215C20.8001 42.5741 21.6306 41.6447 22.4493 41.6447C22.5877 41.6447 22.9001 41.6724 23.0939 41.7317L23.0899 41.7356L23.0979 41.7317L23.1137 41.7356C23.1651 41.7475 23.173 41.791 23.1493 41.8385L22.5956 42.8944C22.125 43.7961 21.7572 44.1916 21.3973 44.4724C21.1798 44.6424 20.8713 44.7532 20.5826 44.7532ZM21.1837 43.2108C21.1837 43.2859 21.1877 43.4323 21.2984 43.4323C21.4764 43.4323 21.9391 42.9419 22.6312 42.056L22.6945 41.9413C22.4928 41.8701 22.2278 41.8068 22.0894 41.8068C21.5318 41.8068 21.1837 42.8153 21.1837 43.2108Z" fill="#A98B83"/>
<path d="M19.0215 43.6537C18.9622 43.6537 18.9385 43.6142 18.9741 43.5549C19.2351 43.1119 19.7571 42.1667 19.7571 41.9769C19.7571 41.9136 19.7295 41.878 19.6583 41.878C19.5831 41.878 19.4447 41.9611 19.2826 42.1114L19.247 42.0718C19.5752 41.7673 19.8046 41.6447 19.9509 41.6447C20.1091 41.6447 20.1645 41.7554 20.1645 41.8503C20.1645 41.9492 20.1012 42.1272 20.0142 42.3328C20.295 41.9334 20.6074 41.6447 20.991 41.6447C21.078 41.6447 21.2639 41.6645 21.2639 41.7396C21.2639 41.8345 21.1255 42.0283 20.9673 42.0283C20.8328 42.0283 20.6905 42.0006 20.4453 41.9294C20.2594 42.0678 20.0261 42.3724 19.8125 42.756C19.6306 43.1159 19.4289 43.4678 19.3419 43.5984C19.3182 43.6379 19.2905 43.6537 19.247 43.6537H19.0215Z" fill="#A98B83"/>
<path d="M17.2059 43.6852C16.3715 43.6852 15.9285 43.0762 15.9285 42.3525C15.9285 41.3638 16.9568 40.4581 17.8466 40.4581C18.6376 40.4581 19.0805 41.0395 19.0686 41.7949C19.0528 42.7875 18.0918 43.6852 17.2059 43.6852ZM16.2686 42.0717C16.2686 42.9259 16.7669 43.4559 17.546 43.4559C18.3093 43.4559 18.7285 42.7796 18.7285 42.1231C18.7364 41.1739 18.163 40.6598 17.5381 40.6598C16.7749 40.6598 16.2686 41.3717 16.2686 42.0717Z" fill="#A98B83"/>
</svg>
