<svg width="154" height="22" viewBox="0 0 154 22" fill="none" xmlns="http://www.w3.org/2000/svg">
<g clip-path="url(#clip0_1039_36979)">
<path d="M77.3933 15.6695L77.3934 15.6695C77.7472 14.5715 78.3423 13.567 79.1327 12.7252L78.8113 12.5458L78.8092 12.5446C72.7028 9.09674 66.4953 5.60034 59.3687 4.86144L59.3679 4.86136C57.2521 4.63859 54.5872 4.70295 52.1427 5.24164C49.9168 5.73215 47.9455 6.59964 46.7063 7.93089C47.7236 8.57144 48.6046 9.404 49.2967 10.3828L49.3023 10.3907L49.3075 10.3987C49.667 10.951 49.8857 11.5809 49.9443 12.2351C50.0029 12.8893 49.8996 13.5474 49.6436 14.1534L49.6352 14.1734L49.625 14.1927C49.4003 14.6172 49.0622 14.972 48.6484 15.2197C48.2382 15.4652 47.7686 15.5964 47.2896 15.6003C46.7626 15.626 46.2367 15.5246 45.7581 15.3046C45.2757 15.0828 44.8555 14.7472 44.5356 14.3266L44.5312 14.3209L44.5271 14.3151C44.024 13.613 43.6742 12.8156 43.5003 11.9733C43.3263 11.1309 43.3321 10.2623 43.5173 9.42228L43.5214 9.40345L43.527 9.385C43.5905 9.17527 43.6625 8.96823 43.743 8.76438C41.5518 7.89538 39.1883 7.9527 36.8669 8.43623C34.5325 8.92246 32.2862 9.82909 30.3489 10.611L30.3427 10.6135C25.2795 12.7443 19.8408 13.8836 14.3326 13.9675L14.325 13.9676V13.9675H14.2808C12.9814 13.9675 10.1465 13.8562 7.23705 13.0432C4.33874 12.2334 1.27248 10.7002 -0.355215 7.78689L-0.355715 7.786C-0.422763 7.66541 -0.465219 7.53259 -0.480231 7.39503C-0.495234 7.25755 -0.482476 7.1185 -0.442768 6.98606C-0.403032 6.85352 -0.337261 6.73076 -0.249823 6.62442C-0.162295 6.51796 -0.0547531 6.43008 0.06632 6.36529C0.187424 6.30049 0.31992 6.25996 0.456211 6.24565C0.592423 6.23134 0.730335 6.24342 0.862204 6.28147L0.726685 6.75116L0.862205 6.28147C0.994073 6.31952 1.11746 6.38283 1.22523 6.46811C1.33265 6.55311 1.42279 6.6585 1.48989 6.77887C2.5113 8.59862 4.45192 9.87885 6.80887 10.7054C9.15901 11.5295 11.8624 11.8802 14.3103 11.8838C14.3103 11.8838 14.3103 11.8838 14.3103 11.8838C14.3106 11.8838 14.3108 11.8838 14.311 11.8838L14.3506 11.8838C19.5872 11.8025 24.7568 10.7162 29.5674 8.68636L29.5746 8.68335L29.5746 8.6834L29.5877 8.6781C31.6012 7.86499 34.0315 6.88355 36.6017 6.36565C39.1822 5.84568 41.9419 5.78424 44.6035 6.84754L44.6101 6.8502L44.6167 6.85304L44.8199 6.94106C46.4335 4.88811 49.086 3.76468 51.7676 3.19142C54.6038 2.58513 57.5704 2.57269 59.6342 2.79021L77.3933 15.6695ZM77.3933 15.6695L77.39 15.6805M77.3933 15.6695L77.39 15.6805M0.0812788 7.54302C0.0464606 7.4804 0.0245578 7.41171 0.016818 7.34079C0.0090781 7.26986 0.0156529 7.19808 0.0361697 7.12965C0.0566865 7.06122 0.0907397 6.99749 0.13639 6.94197C0.18204 6.88645 0.238383 6.8403 0.302217 6.80615L0.0812788 7.54302ZM0.0812788 7.54302C3.14508 13.0268 11.7252 13.4675 14.2808 13.4675M0.0812788 7.54302L14.2808 13.4675M77.39 15.6805C76.8942 17.3498 77.1063 18.7546 77.7173 19.8481C78.3215 20.9296 79.294 21.6686 80.265 22.0656C80.9474 22.3454 81.6783 22.4928 82.4173 22.5C83.1028 22.5432 83.7879 22.4049 84.4013 22.099C85.0192 21.7908 85.5419 21.3236 85.9128 20.7458L85.923 20.73L85.9319 20.7134C86.0627 20.4713 86.0918 20.1876 86.0123 19.924C85.9329 19.6606 85.7524 19.441 85.5126 19.3099C85.2732 19.179 84.9922 19.1458 84.7291 19.2163C84.4659 19.2868 84.2384 19.4564 84.0978 19.6921L84.0977 19.6921L84.0929 19.7005C83.9114 20.0186 83.5331 20.2701 82.9838 20.3683C82.439 20.4656 81.7731 20.3997 81.1162 20.129L81.116 20.1289C80.8129 20.0042 80.1965 19.6896 79.7595 19.0929C79.3428 18.524 79.0475 17.6441 79.4508 16.2772C79.7716 15.33 80.328 14.477 81.0688 13.7946C81.9964 14.3161 82.9394 14.8363 83.8763 15.3448L83.878 15.3457C86.5611 16.7879 89.8769 18.3647 93.5199 17.6589M77.39 15.6805L93.4314 17.1667M79.8972 10.7344L79.8976 10.7346L80.8182 11.2548L80.8199 11.2558L80.8617 11.2796C83.3181 9.59192 86.1475 8.49797 89.1189 8.08842C90.5029 7.88615 92.3335 7.88492 93.9829 8.28541C95.6166 8.68208 97.1947 9.50601 97.8663 11.0557M79.8972 10.7344L95.6448 16.2848C94.9817 16.7343 94.2261 17.0354 93.4314 17.1667M79.8972 10.7344L79.8555 10.7109M79.8972 10.7344L79.8555 10.7109M97.8663 11.0557C97.8666 11.0565 97.867 11.0573 97.8673 11.0582L97.4084 11.2567L97.8657 11.0544C97.8659 11.0548 97.8661 11.0553 97.8663 11.0557ZM97.8663 11.0557C98.1295 11.6515 98.2522 12.2985 98.2247 12.948C98.1973 13.598 98.0202 14.2332 97.7072 14.8056L97.7028 14.8136L97.6982 14.8214C97.254 15.5678 96.6486 16.2085 95.9253 16.6987C95.2041 17.1876 94.383 17.5152 93.5199 17.6589M93.5199 17.6589C93.5222 17.6584 93.5245 17.658 93.5268 17.6575L93.4314 17.1667M93.5199 17.6589C93.5176 17.6592 93.5152 17.6596 93.5129 17.66L93.4314 17.1667M79.8555 10.7109C73.9743 7.39452 67.2119 3.58126 59.6344 2.79024L79.8555 10.7109ZM14.2808 13.4675H14.325H14.2808ZM84.8365 13.5178C84.1827 13.1684 83.5285 12.8075 82.8781 12.4452C84.862 11.2652 87.0721 10.4899 89.3759 10.1697L89.3783 10.1693C90.5301 10.0035 92.015 10.0165 93.3007 10.305C94.6196 10.6009 95.5623 11.1461 95.8888 11.9027L95.8887 11.9028L95.8925 11.9111C96.0308 12.216 96.0956 12.5476 96.0821 12.8803C96.0688 13.2096 95.9792 13.532 95.8197 13.8231C95.5284 14.2976 95.1351 14.7054 94.6665 15.0178C94.1949 15.3322 93.6584 15.5421 93.0944 15.6326L93.0944 15.6324L93.0807 15.635C90.1803 16.1837 87.3728 14.8815 84.8376 13.5184L84.8365 13.5178ZM45.5377 9.95889C45.5609 9.88026 45.5862 9.80224 45.6135 9.72492C46.3715 10.216 47.0269 10.8463 47.5426 11.5822C47.6994 11.8378 47.797 12.1235 47.8292 12.4191C47.8601 12.7037 47.8297 12.9915 47.7399 13.2638C47.6905 13.3401 47.622 13.4045 47.5394 13.4504C47.4455 13.5027 47.3378 13.5285 47.2288 13.5243L47.2056 13.5234L47.1825 13.5246C46.9896 13.5349 46.7974 13.4971 46.6241 13.4152C46.4525 13.3341 46.3054 13.2125 46.1956 13.0625C45.8825 12.6095 45.6638 12.1008 45.5516 11.5657C45.4405 11.036 45.4358 10.4903 45.5377 9.95889Z" fill="url(#paint0_linear_1039_36979)" stroke="white"/>
<path d="M153.964 7.54985C150.9 13.0336 142.32 13.4671 139.764 13.4744C134.303 13.4018 128.91 12.2749 123.893 10.1581L123.889 10.1565C120.03 8.59914 114.75 6.46808 110.104 8.31187L153.964 7.54985ZM153.964 7.54985C154.034 7.42339 154.05 7.27469 154.009 7.13648C153.967 6.99828 153.872 6.88188 153.743 6.8129C153.614 6.74391 153.462 6.72806 153.321 6.76871C153.18 6.80936 153.062 6.90321 152.991 7.02968C150.782 10.9456 144.684 12.3906 139.735 12.3906L153.964 7.54985ZM109.84 8.96265C109.914 9.15128 109.981 9.34278 110.039 9.53672C110.209 10.308 110.215 11.1056 110.055 11.879C109.895 12.6524 109.574 13.3851 109.111 14.0307C108.84 14.3836 108.485 14.6661 108.076 14.8537C107.668 15.0413 107.22 15.1283 106.769 15.1072C106.375 15.1058 105.99 14.9987 105.653 14.7975C105.317 14.5963 105.043 14.3086 104.862 13.9656C104.638 13.4349 104.547 12.8589 104.599 12.2866C104.65 11.7142 104.841 11.1625 105.156 10.6783C105.824 9.73419 106.678 8.9335 107.666 8.32272L109.84 8.96265ZM109.84 8.96265L110.262 8.78714C110.263 8.78673 110.264 8.78632 110.265 8.78591L109.84 8.96265ZM74.9116 12.7324L75.2336 12.5527L75.2341 12.5524C75.3733 12.4744 75.5126 12.3964 75.6519 12.3184C81.6286 8.97029 87.712 5.56249 94.6743 4.8684L94.6769 4.86812C96.7966 4.64533 99.4614 4.70973 101.905 5.24842C104.13 5.73892 106.1 6.60639 107.339 7.93771C106.321 8.57826 105.44 9.41083 104.748 10.3896L104.743 10.3975L104.737 10.4056C104.378 10.9578 104.159 11.5878 104.101 12.2419C104.042 12.8961 104.145 13.5542 104.401 14.1602L104.41 14.1803L104.42 14.1995C104.645 14.624 104.983 14.9789 105.397 15.2265C105.807 15.4722 106.277 15.6035 106.757 15.6072C107.283 15.6301 107.807 15.5276 108.285 15.308C108.766 15.0868 109.186 14.7534 109.508 14.3357L109.513 14.3289L109.518 14.3219C110.021 13.6198 110.371 12.8225 110.545 11.9801C110.719 11.1378 110.713 10.2691 110.528 9.42911L110.524 9.41029L110.518 9.39184C110.454 9.18212 110.382 8.97511 110.302 8.77127C112.493 7.90576 114.857 7.96319 117.178 8.44581C119.515 8.93167 121.764 9.83795 123.702 10.6203C128.778 12.7613 134.233 13.9009 139.757 13.9743V13.9744L139.766 13.9744C141.064 13.9707 143.898 13.8595 146.808 13.0474C149.706 12.2385 152.772 10.7072 154.4 7.79373L154.401 7.79284C154.536 7.54879 154.568 7.2607 154.488 6.99289C154.407 6.72536 154.223 6.50291 153.979 6.37204C153.734 6.2413 153.448 6.21169 153.183 6.28831C152.917 6.36487 152.691 6.54237 152.555 6.78537C151.534 8.5943 149.586 9.87657 147.225 10.7069C144.87 11.5349 142.166 11.8906 139.735 11.8906H139.694C134.458 11.8094 129.288 10.723 124.478 8.69319L124.478 8.69314L124.47 8.69024L124.445 8.67997C122.434 7.86789 120.007 6.88756 117.441 6.3698C114.859 5.84893 112.099 5.78735 109.441 6.8547L109.441 6.85453L109.428 6.85989L109.224 6.94856C107.598 4.89592 104.946 3.77191 102.266 3.19829C99.4338 2.59196 96.4745 2.57952 94.4107 2.79705C86.8153 3.58987 80.0245 7.41915 74.1473 10.7415C74.1473 10.7415 74.1473 10.7415 74.1473 10.7415L73.2267 11.2617L73.225 11.2627L73.1832 11.2865C70.7268 9.59875 67.8975 8.50481 64.9261 8.09526C63.542 7.89298 61.7114 7.89175 60.062 8.29224C58.4281 8.68897 56.8499 9.51305 56.1784 11.0631C55.9153 11.6588 55.7927 12.3055 55.8202 12.9549C55.8477 13.6049 56.0247 14.24 56.3377 14.8124L56.3421 14.8204L56.3468 14.8283C56.7909 15.5746 57.3964 16.2153 58.1196 16.7056C58.8408 17.1944 59.6617 17.5219 60.5246 17.6656C64.1385 18.3717 67.4768 16.7946 70.1664 15.3528L70.1687 15.3516C71.1055 14.8432 72.0485 14.3229 72.9762 13.8014C73.7169 14.4839 74.2735 15.337 74.5942 16.2843C74.9973 17.6471 74.7023 18.5271 74.2852 19.0973C73.8479 19.6952 73.2312 20.0114 72.9289 20.1358L72.9279 20.1362C72.2762 20.406 71.6109 20.4707 71.0645 20.3725C70.5127 20.2733 70.1323 20.0209 69.9512 19.706L69.9513 19.7059L69.9472 19.699C69.8065 19.4632 69.5791 19.2936 69.3158 19.2231C69.0527 19.1526 68.7717 19.1859 68.5323 19.3167C68.2926 19.4478 68.112 19.6675 68.0326 19.9309C67.9531 20.1946 67.9823 20.4782 68.113 20.7202L68.1224 20.7376L68.1331 20.7541C68.5008 21.3225 69.0157 21.7832 69.6239 22.0895C70.2274 22.3935 70.9016 22.5348 71.5778 22.4998C72.3326 22.5012 73.0805 22.3563 73.7786 22.073L73.7797 22.0725C74.7512 21.6754 75.7237 20.9343 76.3277 19.8521C76.9385 18.7579 77.1508 17.3531 76.6548 15.687L76.655 15.687L76.6513 15.6757C76.2961 14.5785 75.7011 13.5745 74.9116 12.7324ZM107.778 7.67757C104.992 4.57667 98.7852 3.93355 94.6247 4.37086C87.557 5.07547 81.3929 8.52886 75.4425 11.8626C75.2915 11.9472 75.1406 12.0317 74.9899 12.1161L107.778 7.67757ZM58.0788 11.918L58.0789 11.918L58.0834 11.9075C58.3417 11.3015 58.977 10.8272 59.9053 10.5038C60.8218 10.1845 61.9388 10.044 63.0064 10.044C63.5372 10.0457 64.0671 10.085 64.5921 10.1616L64.5947 10.1619C66.9003 10.4861 69.1113 11.2661 71.0948 12.4512C70.4439 12.8138 69.7891 13.175 69.1348 13.5246L69.1348 13.5246L69.1317 13.5263C66.598 14.9031 63.7914 16.2042 60.8929 15.6422L60.8849 15.6407L60.8769 15.6394C60.3129 15.5489 59.7764 15.339 59.3048 15.0246C58.8362 14.7123 58.4429 14.3045 58.1516 13.83C57.9921 13.5388 57.9025 13.2164 57.8892 12.8871C57.8757 12.5544 57.9405 12.2229 58.0788 11.918ZM106.794 13.4879L106.772 13.4868L106.75 13.4877C106.641 13.492 106.533 13.4662 106.439 13.414C106.357 13.3681 106.288 13.3036 106.239 13.2273C106.149 12.9549 106.119 12.6672 106.149 12.3826C106.182 12.0876 106.279 11.8026 106.435 11.5474C106.956 10.8181 107.615 10.1948 108.374 9.71086C108.398 9.78042 108.42 9.85053 108.441 9.92112C108.543 10.4529 108.538 10.9991 108.427 11.5292C108.315 12.0639 108.096 12.5721 107.784 13.0248C107.673 13.1744 107.525 13.2956 107.354 13.3768C107.18 13.459 106.987 13.4973 106.794 13.4879Z" fill="url(#paint1_linear_1039_36979)" stroke="white"/>
<path d="M98.6015 1.29333C98.7468 1.31415 98.8946 1.27802 99.0131 1.19287L98.6015 1.29333ZM98.6015 1.29333C89.9845 -0.00716646 80.1008 5.32481 77.3243 7.29722L98.6015 1.29333ZM76.998 7.90563L77.0024 7.90561C77.2237 7.90463 77.4397 7.83358 77.6181 7.70178C78.9707 6.7418 82.0931 4.93858 85.9437 3.53781C89.8024 2.13405 94.3362 1.15526 98.5268 1.78774L98.5305 1.78827C98.803 1.82732 99.081 1.75983 99.3049 1.5989C99.5292 1.4377 99.6826 1.19452 99.7281 0.919928L99.7282 0.919939L99.7294 0.911806C99.7704 0.636312 99.6982 0.357133 99.531 0.135716C99.3643 -0.0848733 99.1174 -0.229726 98.8456 -0.27042C94.3627 -0.948411 89.6848 -0.00739318 85.7211 1.37663C81.9578 2.69067 78.7989 4.41795 77.0002 5.59809C75.2017 4.41786 72.0427 2.68888 68.2794 1.37395C64.3159 -0.0109152 59.6381 -0.951982 55.1552 -0.27048C54.8832 -0.229867 54.6362 -0.0849801 54.4694 0.135716C54.3022 0.357129 54.23 0.636306 54.271 0.911806L54.271 0.911816L54.2723 0.919939C54.3178 1.19452 54.4712 1.43769 54.6955 1.5989C54.9194 1.75983 55.1974 1.82732 55.4699 1.78827L55.4699 1.78829L55.4739 1.78768C59.668 1.15171 64.2017 2.13045 68.0594 3.53505C71.9088 4.93666 75.0295 6.74164 76.3823 7.70178C76.5607 7.83358 76.7767 7.90463 76.998 7.90563Z" fill="url(#paint2_linear_1039_36979)" stroke="white"/>
</g>
<defs>
<linearGradient id="paint0_linear_1039_36979" x1="48.8711" y1="3.16162" x2="48.8711" y2="22.0077" gradientUnits="userSpaceOnUse">
<stop stop-color="#F1DFC1"/>
<stop offset="0.895" stop-color="#F75471"/>
</linearGradient>
<linearGradient id="paint1_linear_1039_36979" x1="105.174" y1="3.16846" x2="105.174" y2="22.005" gradientUnits="userSpaceOnUse">
<stop stop-color="#F1DFC1"/>
<stop offset="0.895" stop-color="#F75471"/>
</linearGradient>
<linearGradient id="paint2_linear_1039_36979" x1="77.0002" y1="0.00244141" x2="77.0002" y2="7.40561" gradientUnits="userSpaceOnUse">
<stop stop-color="#F1DFC1"/>
<stop offset="0.895" stop-color="#F75471"/>
</linearGradient>
<clipPath id="clip0_1039_36979">
<rect width="154" height="22" fill="white"/>
</clipPath>
</defs>
</svg>
