<svg width="20" height="19" viewBox="0 0 20 19" fill="none" xmlns="http://www.w3.org/2000/svg">
<path d="M4.52333 4.23063C3.20846 5.59691 2.4 7.45404 2.4 9.5C2.4 13.6974 5.80263 17.1 10 17.1C11.0268 17.1 12.006 16.8964 12.8995 16.5273C13.0087 15.8144 12.7691 15.1303 12.671 14.8909C12.4529 14.3593 11.7329 13.4503 10.531 12.1893C10.2101 11.852 10.2308 11.5933 10.3454 10.8246L10.3586 10.7378C10.4365 10.2112 10.5672 9.89985 12.3391 9.61856C13.2392 9.47587 13.476 9.83563 13.8041 10.3338C13.8404 10.389 13.8767 10.4432 13.9138 10.4974C14.2255 10.9532 14.4564 11.0574 14.8053 11.2161C14.9616 11.2869 15.1566 11.3763 15.4179 11.5248C16.0373 11.8788 16.0373 12.2785 16.0373 13.1548V13.2542C16.0373 13.6262 16.001 13.9528 15.9438 14.2366C16.9804 12.9376 17.6 11.2911 17.6 9.5C17.6 6.36585 15.7028 3.67479 12.9943 2.51258C12.4688 2.86722 11.7478 3.3699 11.4962 3.7145C11.3676 3.89061 11.1858 4.78958 10.5944 4.86377C10.4395 4.88322 10.2316 4.8696 10.0114 4.85542C9.42097 4.81705 8.61319 4.76526 8.3546 5.4672C8.19044 5.91204 8.16156 7.11973 8.69271 7.74658C8.77773 7.84671 8.79416 8.03197 8.7364 8.23983C8.6605 8.51276 8.50717 8.67882 8.45938 8.71311C8.3678 8.66048 8.18512 8.44845 8.06141 8.30414C7.76326 7.95768 7.39135 7.52621 6.91057 7.39267C6.73575 7.34429 6.54358 7.30424 6.35721 7.26499C5.83558 7.15566 5.24471 7.03127 5.10742 6.73837C5.0072 6.52384 5.00764 6.2284 5.00803 5.91626C5.00803 5.52064 5.00803 5.07327 4.81423 4.63843C4.73934 4.47014 4.63904 4.33624 4.52333 4.23063ZM10 19C4.75329 19 0.5 14.7467 0.5 9.5C0.5 4.25329 4.75329 0 10 0C15.2467 0 19.5 4.25329 19.5 9.5C19.5 14.7467 15.2467 19 10 19Z" fill="#183F86"/>
</svg>
