<svg width="260" height="852" viewBox="0 0 260 852" fill="none" xmlns="http://www.w3.org/2000/svg">
<mask id="path-1-inside-1_2131_53936" fill="white">
<path d="M244.911 66.3697H216.503C212.867 29.2088 175.53 0 130 0C84.47 0 47.1294 29.2088 43.4968 66.3697H15.0886C15.0886 78.0882 8.3327 87.5893 0 87.5893V764.411C0 780 0 780.5 0 801V852C39.5 852 84.47 852 130 852C203.5 852 187 852 260 852V785.5C260 775.5 260 777.5 260 764.411V87.5893C251.667 87.5893 244.911 78.0882 244.911 66.3697Z"/>
</mask>
<path d="M244.911 66.3697H216.503C212.867 29.2088 175.53 0 130 0C84.47 0 47.1294 29.2088 43.4968 66.3697H15.0886C15.0886 78.0882 8.3327 87.5893 0 87.5893V764.411C0 780 0 780.5 0 801V852C39.5 852 84.47 852 130 852C203.5 852 187 852 260 852V785.5C260 775.5 260 777.5 260 764.411V87.5893C251.667 87.5893 244.911 78.0882 244.911 66.3697Z" fill="#FFFEF7" stroke="#183F86" stroke-width="12" mask="url(#path-1-inside-1_2131_53936)"/>
</svg>
