<svg width="393" height="852" viewBox="0 0 393 852" fill="none" xmlns="http://www.w3.org/2000/svg">
<g filter="url(#filter0_f_64_905)">
<path fill-rule="evenodd" clip-rule="evenodd" d="M318.474 345.04C391.249 348.324 478.841 324.776 525.677 380.573C571.845 435.575 529.516 516.337 522.227 587.776C516.163 647.21 530.629 715.469 487.308 756.61C444.435 797.326 377.308 775.404 318.474 781.276C247.212 788.389 174.033 830.181 112.198 794.052C40.0491 751.897 -8.75152 671.244 -12.7051 587.776C-16.7983 501.36 21.9083 412.13 91.6857 360.987C155.227 314.415 239.773 341.488 318.474 345.04Z" fill="#FFBBD2"/>
</g>
<g filter="url(#filter1_f_64_905)">
<path fill-rule="evenodd" clip-rule="evenodd" d="M332.841 262.184C362.274 260.339 393.451 258.237 416.772 276.222C442.576 296.123 463.625 327.598 459.475 359.847C455.528 390.521 420.354 403.33 397.695 424.465C376.396 444.332 361.989 479.255 332.841 477.965C303.822 476.681 295.374 438.017 273.505 418.968C248.297 397.009 200.901 393.009 197.243 359.847C193.597 326.804 231.81 305.598 258.849 286.124C280.696 270.388 305.937 263.871 332.841 262.184Z" fill="#E3E7F0"/>
</g>
<g filter="url(#filter2_f_64_905)">
<path fill-rule="evenodd" clip-rule="evenodd" d="M88.7055 571.848C129.438 566.865 171.904 584.177 198.974 614.971C224.789 644.338 219.959 686.139 223.389 725.062C227.385 770.408 251.427 823.178 220.246 856.391C188.941 889.734 134.407 865.919 88.7055 868.518C37.6852 871.418 -16.9457 901.637 -58.721 872.251C-103.446 840.79 -129.102 777.9 -115.23 725.062C-102.41 676.228 -37.891 669.361 2.51207 639.007C32.7854 616.263 51.0998 576.449 88.7055 571.848Z" fill="#E3E7F0"/>
</g>
<g opacity="0.7" filter="url(#filter3_f_64_905)">
<path fill-rule="evenodd" clip-rule="evenodd" d="M84.4933 18.1134C185.572 20.3475 272.512 72.5793 351.538 135.633C444.38 209.711 576.728 284.33 566.434 402.649C556.176 520.562 408.361 562.914 308.796 626.927C238.821 671.915 165.739 694.617 84.4933 712.499C-35.0762 738.817 -173.779 833.56 -266.432 753.536C-358.48 674.035 -288.031 523.487 -274.257 402.649C-262.868 302.727 -263.232 197.101 -194.624 123.562C-124.096 47.965 -18.8753 15.8287 84.4933 18.1134Z" fill="#F1DFC1"/>
</g>
<g filter="url(#filter4_f_64_905)">
<path fill-rule="evenodd" clip-rule="evenodd" d="M283.706 294.848C324.438 289.865 366.904 307.177 393.974 337.971C419.789 367.338 414.959 409.139 418.389 448.062C422.385 493.408 446.427 546.178 415.246 579.391C383.941 612.734 329.407 588.919 283.706 591.518C232.685 594.418 178.054 624.637 136.279 595.251C91.5544 563.79 65.8983 500.9 79.7698 448.062C92.5899 399.228 157.109 392.361 197.512 362.007C227.785 339.263 246.1 299.449 283.706 294.848Z" fill="#E3E7F0"/>
</g>
<g filter="url(#filter5_f_64_905)">
<path fill-rule="evenodd" clip-rule="evenodd" d="M156.706 149.848C197.438 144.865 239.904 162.177 266.974 192.971C292.789 222.338 287.959 264.139 291.389 303.062C295.385 348.408 319.427 401.178 288.246 434.391C256.941 467.734 202.407 443.919 156.706 446.518C105.685 449.418 51.0543 479.637 9.27899 450.251C-35.4456 418.79 -61.1017 355.9 -47.2302 303.062C-34.4101 254.228 30.109 247.361 70.5121 217.007C100.785 194.263 119.1 154.449 156.706 149.848Z" fill="#E3E7F0"/>
</g>
<g filter="url(#filter6_f_64_905)">
<path fill-rule="evenodd" clip-rule="evenodd" d="M318.964 -161.782C367.162 -164.338 411.996 -144.136 449.901 -114.213C493.992 -79.4063 538.265 -38.8649 545.327 16.9136C553.104 78.3468 533.734 144.525 487.925 186.12C443.562 226.401 378.539 228.521 318.964 222.45C266.083 217.061 212.599 197.826 181.214 154.864C152.916 116.127 165.076 64.7636 168.813 16.9136C172.113 -25.3423 173.947 -68.593 201.198 -101.024C230.754 -136.199 273.122 -159.351 318.964 -161.782Z" fill="#F4CAD8"/>
</g>
<g filter="url(#filter7_f_64_905)">
<path fill-rule="evenodd" clip-rule="evenodd" d="M430.181 771.59C437.942 800.174 431.616 829.68 418.563 856.285C403.379 887.233 384.779 919.03 352.23 930.473C316.382 943.077 274.179 940.007 243.307 917.901C213.41 896.492 203.737 857.76 199.682 821.236C196.082 788.817 200.711 754.247 222.428 729.868C242.01 707.887 274.394 708.545 303.582 704.604C329.357 701.124 355.54 696.636 378.516 708.793C403.437 721.979 422.8 744.404 430.181 771.59Z" fill="#E9A49B"/>
</g>
<g filter="url(#filter8_f_64_905)">
<path fill-rule="evenodd" clip-rule="evenodd" d="M312.706 244.848C353.438 239.865 395.904 257.177 422.974 287.971C448.789 317.338 443.959 359.139 447.389 398.062C451.385 443.408 475.427 496.178 444.246 529.391C412.941 562.734 358.407 538.919 312.706 541.518C261.685 544.418 207.054 574.637 165.279 545.251C120.554 513.79 94.8983 450.9 108.77 398.062C121.59 349.228 186.109 342.361 226.512 312.007C256.785 289.263 275.1 249.449 312.706 244.848Z" fill="white"/>
</g>
<g opacity="0.4" filter="url(#filter9_f_64_905)">
<path fill-rule="evenodd" clip-rule="evenodd" d="M40.7055 87.8481C81.438 82.8647 123.904 100.177 150.974 130.971C176.789 160.338 171.959 202.139 175.389 241.062C179.385 286.408 203.427 339.178 172.246 372.391C140.941 405.734 86.4071 381.919 40.7055 384.518C-10.3148 387.418 -64.9457 417.637 -106.721 388.251C-151.446 356.79 -177.102 293.9 -163.23 241.062C-150.41 192.228 -85.891 185.361 -45.4879 155.007C-15.2146 132.263 3.09979 92.449 40.7055 87.8481Z" fill="white"/>
</g>
<defs>
<filter id="filter0_f_64_905" x="-97.6" y="249.4" width="729.135" height="643.773" filterUnits="userSpaceOnUse" color-interpolation-filters="sRGB">
<feFlood flood-opacity="0" result="BackgroundImageFix"/>
<feBlend mode="normal" in="SourceGraphic" in2="BackgroundImageFix" result="shape"/>
<feGaussianBlur stdDeviation="42.3" result="effect1_foregroundBlur_64_905"/>
</filter>
<filter id="filter1_f_64_905" x="112.4" y="176.4" width="432.2" height="386.2" filterUnits="userSpaceOnUse" color-interpolation-filters="sRGB">
<feFlood flood-opacity="0" result="BackgroundImageFix"/>
<feBlend mode="normal" in="SourceGraphic" in2="BackgroundImageFix" result="shape"/>
<feGaussianBlur stdDeviation="42.3" result="effect1_foregroundBlur_64_905"/>
</filter>
<filter id="filter2_f_64_905" x="-203.6" y="486.4" width="524.2" height="483.2" filterUnits="userSpaceOnUse" color-interpolation-filters="sRGB">
<feFlood flood-opacity="0" result="BackgroundImageFix"/>
<feBlend mode="normal" in="SourceGraphic" in2="BackgroundImageFix" result="shape"/>
<feGaussianBlur stdDeviation="42.3" result="effect1_foregroundBlur_64_905"/>
</filter>
<filter id="filter3_f_64_905" x="-397.6" y="-66.6" width="1049.2" height="936.2" filterUnits="userSpaceOnUse" color-interpolation-filters="sRGB">
<feFlood flood-opacity="0" result="BackgroundImageFix"/>
<feBlend mode="normal" in="SourceGraphic" in2="BackgroundImageFix" result="shape"/>
<feGaussianBlur stdDeviation="42.3" result="effect1_foregroundBlur_64_905"/>
</filter>
<filter id="filter4_f_64_905" x="-8.6" y="209.4" width="524.2" height="483.2" filterUnits="userSpaceOnUse" color-interpolation-filters="sRGB">
<feFlood flood-opacity="0" result="BackgroundImageFix"/>
<feBlend mode="normal" in="SourceGraphic" in2="BackgroundImageFix" result="shape"/>
<feGaussianBlur stdDeviation="42.3" result="effect1_foregroundBlur_64_905"/>
</filter>
<filter id="filter5_f_64_905" x="-135.6" y="64.4" width="524.2" height="483.2" filterUnits="userSpaceOnUse" color-interpolation-filters="sRGB">
<feFlood flood-opacity="0" result="BackgroundImageFix"/>
<feBlend mode="normal" in="SourceGraphic" in2="BackgroundImageFix" result="shape"/>
<feGaussianBlur stdDeviation="42.3" result="effect1_foregroundBlur_64_905"/>
</filter>
<filter id="filter6_f_64_905" x="-25.3" y="-350.3" width="760.6" height="763.6" filterUnits="userSpaceOnUse" color-interpolation-filters="sRGB">
<feFlood flood-opacity="0" result="BackgroundImageFix"/>
<feBlend mode="normal" in="SourceGraphic" in2="BackgroundImageFix" result="shape"/>
<feGaussianBlur stdDeviation="94.15" result="effect1_foregroundBlur_64_905"/>
</filter>
<filter id="filter7_f_64_905" x="12.6801" y="514.934" width="606.781" height="608.835" filterUnits="userSpaceOnUse" color-interpolation-filters="sRGB">
<feFlood flood-opacity="0" result="BackgroundImageFix"/>
<feBlend mode="normal" in="SourceGraphic" in2="BackgroundImageFix" result="shape"/>
<feGaussianBlur stdDeviation="92.95" result="effect1_foregroundBlur_64_905"/>
</filter>
<filter id="filter8_f_64_905" x="-18" y="121" width="601" height="560" filterUnits="userSpaceOnUse" color-interpolation-filters="sRGB">
<feFlood flood-opacity="0" result="BackgroundImageFix"/>
<feBlend mode="normal" in="SourceGraphic" in2="BackgroundImageFix" result="shape"/>
<feGaussianBlur stdDeviation="61.5" result="effect1_foregroundBlur_64_905"/>
</filter>
<filter id="filter9_f_64_905" x="-290" y="-36" width="601" height="560" filterUnits="userSpaceOnUse" color-interpolation-filters="sRGB">
<feFlood flood-opacity="0" result="BackgroundImageFix"/>
<feBlend mode="normal" in="SourceGraphic" in2="BackgroundImageFix" result="shape"/>
<feGaussianBlur stdDeviation="61.5" result="effect1_foregroundBlur_64_905"/>
</filter>
</defs>
</svg>
