<svg width="393" height="852" viewBox="0 0 393 852" fill="none" xmlns="http://www.w3.org/2000/svg">
<g clip-path="url(#clip0_70_2575)">
<rect width="393" height="852" fill="url(#paint0_linear_70_2575)"/>
<g filter="url(#filter0_f_70_2575)">
<path d="M398 616C398 741.369 270.401 843 113 843C-44.4011 843 -172 741.369 -172 616C-172 490.631 -44.4011 389 113 389C270.401 389 398 490.631 398 616Z" fill="white"/>
</g>
<g filter="url(#filter1_f_70_2575)">
<ellipse cx="378.5" cy="672" rx="295.5" ry="227" fill="#E3E7F0"/>
</g>
<g filter="url(#filter2_f_70_2575)">
<ellipse cx="55" cy="722" rx="324" ry="227" fill="#D8E3FE"/>
</g>
<g filter="url(#filter3_f_70_2575)">
<path d="M654.084 809.724C678.631 953.166 523.555 1099.39 307.712 1136.33C91.8688 1173.27 -103.006 1086.93 -127.553 943.486C-152.101 800.044 2.97545 653.818 218.819 616.881C434.662 579.944 629.537 666.282 654.084 809.724Z" fill="white"/>
</g>
<g filter="url(#filter4_f_70_2575)">
<path fill-rule="evenodd" clip-rule="evenodd" d="M372.706 75.8481C413.438 70.8647 455.904 88.1775 482.974 118.971C508.789 148.338 503.959 190.139 507.389 229.062C511.385 274.408 535.427 327.178 504.246 360.391C472.941 393.734 418.407 369.919 372.706 372.518C321.685 375.418 267.054 405.637 225.279 376.251C180.554 344.79 154.898 281.9 168.77 229.062C181.59 180.228 246.109 173.361 286.512 143.007C316.785 120.263 335.1 80.449 372.706 75.8481Z" fill="white"/>
</g>
</g>
<defs>
<filter id="filter0_f_70_2575" x="-195.4" y="365.6" width="616.8" height="500.8" filterUnits="userSpaceOnUse" color-interpolation-filters="sRGB">
<feFlood flood-opacity="0" result="BackgroundImageFix"/>
<feBlend mode="normal" in="SourceGraphic" in2="BackgroundImageFix" result="shape"/>
<feGaussianBlur stdDeviation="11.7" result="effect1_foregroundBlur_70_2575"/>
</filter>
<filter id="filter1_f_70_2575" x="51.5" y="413.5" width="654" height="517" filterUnits="userSpaceOnUse" color-interpolation-filters="sRGB">
<feFlood flood-opacity="0" result="BackgroundImageFix"/>
<feBlend mode="normal" in="SourceGraphic" in2="BackgroundImageFix" result="shape"/>
<feGaussianBlur stdDeviation="15.75" result="effect1_foregroundBlur_70_2575"/>
</filter>
<filter id="filter2_f_70_2575" x="-316.5" y="447.5" width="743" height="549" filterUnits="userSpaceOnUse" color-interpolation-filters="sRGB">
<feFlood flood-opacity="0" result="BackgroundImageFix"/>
<feBlend mode="normal" in="SourceGraphic" in2="BackgroundImageFix" result="shape"/>
<feGaussianBlur stdDeviation="23.75" result="effect1_foregroundBlur_70_2575"/>
</filter>
<filter id="filter3_f_70_2575" x="-155.908" y="582.543" width="838.347" height="588.124" filterUnits="userSpaceOnUse" color-interpolation-filters="sRGB">
<feFlood flood-opacity="0" result="BackgroundImageFix"/>
<feBlend mode="normal" in="SourceGraphic" in2="BackgroundImageFix" result="shape"/>
<feGaussianBlur stdDeviation="12.9" result="effect1_foregroundBlur_70_2575"/>
</filter>
<filter id="filter4_f_70_2575" x="27.1" y="-62.9" width="630.8" height="589.8" filterUnits="userSpaceOnUse" color-interpolation-filters="sRGB">
<feFlood flood-opacity="0" result="BackgroundImageFix"/>
<feBlend mode="normal" in="SourceGraphic" in2="BackgroundImageFix" result="shape"/>
<feGaussianBlur stdDeviation="68.95" result="effect1_foregroundBlur_70_2575"/>
</filter>
<linearGradient id="paint0_linear_70_2575" x1="196.5" y1="-348.5" x2="196.5" y2="2103.5" gradientUnits="userSpaceOnUse">
<stop stop-color="white"/>
<stop offset="0.182451" stop-color="#F7DDDA"/>
<stop offset="0.258264" stop-color="#F4CAD8"/>
<stop offset="0.45" stop-color="#E9A49B"/>
<stop offset="0.625" stop-color="#FFBBD2"/>
</linearGradient>
<clipPath id="clip0_70_2575">
<rect width="393" height="852" fill="white"/>
</clipPath>
</defs>
</svg>
