<svg width="257" height="45" viewBox="0 0 257 45" fill="none" xmlns="http://www.w3.org/2000/svg">
<path d="M0.24 13.8C0.666667 12.8667 1.14667 11.8667 1.68 10.8C2.24 9.73333 2.84 8.65333 3.48 7.56C4.12 6.46666 4.74667 5.42666 5.36 4.44H9.76C9.41333 5.24 9.06667 6.06667 8.72 6.92C8.37333 7.77333 8.04 8.64 7.72 9.52C7.4 10.3733 7.08 11.2 6.76 12C6.46667 12.8 6.2 13.5467 5.96 14.24H0.4L0.24 13.8ZM20.5938 33.32C14.6738 33.32 9.31375 29.68 9.31375 22.56C9.31375 10.8 22.3538 0.679999 33.3538 0.679999C38.7538 0.679999 42.6338 1.92 42.6338 2.72C42.6338 3.8 41.0338 5.68 39.0738 5.68C36.9938 5.68 31.8738 3.64 28.4738 1.88C19.6738 4.4 13.6338 11.64 13.3138 19.72C13.0738 26.16 17.3138 30.32 23.7138 30.32C26.5138 30.32 29.6738 29.4 32.1538 26.76L32.5938 27.12C27.7938 32.24 23.6738 33.32 20.5938 33.32ZM39.7997 33.32C36.8797 33.32 35.1997 31.12 35.1997 28.36C35.1997 21.32 44.5197 12.68 49.9997 12.68C53.4797 12.68 54.1597 15.56 54.1597 17.28C54.1597 26.12 43.7197 33.32 39.7997 33.32ZM39.1997 26.64C39.1997 28.64 39.7597 31.36 42.6797 31.36C47.3197 31.36 50.1597 23.12 50.1597 18.76C50.1597 15.96 48.8797 14.72 46.7997 14.72C42.2797 14.72 39.1997 21.6 39.1997 26.64ZM66.3263 33C65.7263 33 65.4863 32.6 65.7663 32.04C68.2063 27.68 70.6063 23.2 71.4863 21.52C72.7263 19.16 73.7663 16.92 73.7663 16.08C73.7663 15.52 73.4863 15.04 72.8063 15.04C71.5663 15.04 69.8463 16.4 67.5663 18.52C65.0463 20.92 62.3263 24.28 60.0063 27.76C58.8463 29.84 57.8063 31.6 57.2463 32.44C57.0063 32.84 56.7263 33 56.2863 33H54.0062C53.4062 33 53.1662 32.6 53.5262 32C56.1663 27.52 61.4463 17.96 61.4463 16.04C61.4463 15.4 61.1663 15.04 60.4463 15.04C59.6862 15.04 58.2863 15.88 56.6463 17.4L56.2863 17C59.6063 13.92 61.9263 12.68 63.4063 12.68C65.0063 12.68 65.5663 13.8 65.5663 14.76C65.5663 16.44 63.7663 20.52 61.7663 24.36C63.6063 21.96 65.4063 19.88 67.2063 18.12C70.7263 14.72 73.9263 12.68 75.8863 12.68C77.1663 12.68 78.0063 13.72 78.0063 15C78.0063 16.16 77.5663 17.48 75.2063 22.04C74.8863 22.68 74.5263 23.36 74.1263 24.08C79.4062 17.16 84.6463 12.68 87.6063 12.68C88.8863 12.68 89.7263 13.72 89.7263 15C89.7663 18.76 83.0863 27.28 83.0863 29.6C83.0863 30.32 83.4463 30.76 84.2863 30.76C85.0063 30.76 86.2863 29.88 87.6463 28.6L88.0063 29C84.6863 32.08 82.4863 33.32 81.2463 33.32C79.3263 33.32 78.8063 31.8 78.8063 30.8C78.8063 26.32 85.5263 18.76 85.5263 16.16C85.5263 15.52 85.2463 15.04 84.5263 15.04C82.3663 15.04 76.4863 21.24 72.0863 27.8C71.3263 29.16 70.5263 30.68 69.6863 32.4C69.4863 32.84 69.2063 33 68.7663 33H66.3263ZM92.5959 33.32C90.9159 33.32 90.2359 31.84 90.2359 30.64C90.2359 26.64 97.5159 18.08 97.5159 15.92C97.5159 15.44 97.3559 15.04 96.6359 15.04C95.8759 15.04 94.4759 15.88 92.8359 17.4L92.4759 17C95.7959 13.92 98.1159 12.68 99.5959 12.68C101.196 12.68 101.756 13.8 101.756 14.76C101.756 18.44 94.9159 26.36 94.9159 28.84C94.9159 29.72 95.3959 30.16 96.2359 30.16C96.9559 30.16 97.8359 29.88 99.1959 28.6L99.5559 29C96.2359 32.08 94.0759 33.32 92.5959 33.32ZM101.116 9.96L107.916 3.44C108.476 2.92 109.036 2.36 109.396 2.36C109.676 2.36 109.756 2.64 109.756 3C109.756 3.88 109.556 4.12 108.556 4.88L101.356 10.28L101.116 9.96ZM101.389 33C100.789 33 100.549 32.6 100.909 32C103.549 27.52 108.829 17.96 108.829 16.04C108.829 15.4 108.549 15.04 107.829 15.04C107.069 15.04 105.669 15.88 104.029 17.4L103.669 17C106.989 13.92 109.309 12.68 110.789 12.68C112.389 12.68 112.949 13.8 112.949 14.76C112.949 16.48 111.029 20.72 108.989 24.68C110.949 22.16 112.949 19.96 114.829 18.12C118.349 14.72 121.549 12.68 123.509 12.68C124.789 12.68 125.629 13.72 125.629 15C125.669 18.76 118.989 27.28 118.989 29.6C118.989 30.32 119.349 30.76 120.109 30.76C120.909 30.76 122.189 29.88 123.549 28.6L123.909 29C120.589 32.08 118.389 33.32 117.149 33.32C115.229 33.32 114.709 31.8 114.709 30.8C114.709 26.32 121.429 18.76 121.429 16.16C121.429 15.52 121.149 15.04 120.429 15.04C119.189 15.04 117.469 16.4 115.189 18.52C112.589 21 109.589 24.52 107.189 28.04C106.109 30.04 105.149 31.64 104.629 32.44C104.389 32.84 104.109 33 103.669 33H101.389ZM124.614 44.12C120.814 44.08 120.174 42.36 120.294 41.12C120.414 39.64 122.054 37.76 124.694 36.52L124.974 36.76C124.454 37.48 123.974 38.36 123.974 39.44C123.974 40.96 124.854 42.48 128.054 42.48C129.774 42.48 131.654 41.52 132.494 40.84C135.974 38.04 137.654 31.08 143.094 21L143.814 19.68C137.374 27.64 131.974 33.44 129.254 33.32C127.494 33.24 126.654 31.76 126.694 29.64C126.814 22.08 135.214 12.68 143.494 12.68C144.894 12.68 148.054 12.96 150.014 13.56L149.974 13.6L150.054 13.56L150.214 13.6C150.734 13.72 150.814 14.16 150.574 14.64L144.974 25.32C140.214 34.44 136.494 38.44 132.854 41.28C130.654 43 127.534 44.12 124.614 44.12ZM130.694 28.52C130.694 29.28 130.734 30.76 131.854 30.76C133.654 30.76 138.334 25.8 145.334 16.84L145.974 15.68C143.934 14.96 141.254 14.32 139.854 14.32C134.214 14.32 130.694 24.52 130.694 28.52ZM164.316 33.24C159.436 33.24 154.796 31.76 154.796 30.56C154.796 29.48 156.916 27.84 158.556 27.84C160.116 27.84 164.076 29.76 168.636 31.96C172.436 31.16 177.476 28.32 177.476 24.08C177.476 20.68 172.796 18.92 169.636 17.68C166.596 16.52 162.356 14.84 162.356 10.92C162.356 5.64 170.596 0.679999 180.076 0.679999C185.796 0.679999 186.836 1.76 186.836 2.64C186.836 4.12 184.996 6 181.956 8.28L181.636 7.8C182.876 6.96 183.676 6.16 183.676 5.56C183.676 4.56 182.156 2.68 175.436 2.68C169.876 2.68 165.236 5.04 165.236 8.48C165.236 11 167.156 12.4 172.796 14.6C176.076 15.88 180.476 17.76 180.476 21.32C180.476 27.2 172.636 33.24 164.316 33.24ZM187.222 33.32C184.302 33.32 182.622 31.12 182.622 28.36C182.622 21.32 191.942 12.68 197.422 12.68C200.902 12.68 201.582 15.56 201.582 17.28C201.582 26.12 191.142 33.32 187.222 33.32ZM186.622 26.64C186.622 28.64 187.182 31.36 190.102 31.36C194.742 31.36 197.582 23.12 197.582 18.76C197.582 15.96 196.302 14.72 194.222 14.72C189.702 14.72 186.622 21.6 186.622 26.64ZM206.753 33.32C203.833 33.32 202.153 31.12 202.153 28.36C202.153 21.32 211.473 12.68 216.953 12.68C220.433 12.68 221.113 15.56 221.113 17.28C221.113 26.12 210.673 33.32 206.753 33.32ZM206.153 26.64C206.153 28.64 206.713 31.36 209.633 31.36C214.273 31.36 217.113 23.12 217.113 18.76C217.113 15.96 215.833 14.72 213.753 14.72C209.233 14.72 206.153 21.6 206.153 26.64ZM220.959 33C220.359 33 220.119 32.6 220.479 32C223.119 27.52 228.399 17.96 228.399 16.04C228.399 15.4 228.119 15.04 227.399 15.04C226.639 15.04 225.239 15.88 223.599 17.4L223.239 17C226.559 13.92 228.879 12.68 230.359 12.68C231.959 12.68 232.519 13.8 232.519 14.76C232.519 16.48 230.599 20.72 228.559 24.68C230.519 22.16 232.519 19.96 234.399 18.12C237.919 14.72 241.119 12.68 243.079 12.68C244.359 12.68 245.199 13.72 245.199 15C245.239 18.76 238.559 27.28 238.559 29.6C238.559 30.32 238.919 30.76 239.679 30.76C240.479 30.76 241.759 29.88 243.119 28.6L243.479 29C240.159 32.08 237.959 33.32 236.719 33.32C234.799 33.32 234.279 31.8 234.279 30.8C234.279 26.32 240.999 18.76 240.999 16.16C240.999 15.52 240.719 15.04 239.999 15.04C238.759 15.04 237.039 16.4 234.759 18.52C232.159 21 229.159 24.52 226.759 28.04C225.679 30.04 224.719 31.64 224.199 32.44C223.959 32.84 223.679 33 223.239 33H220.959ZM247.385 14.24C247.838 13.1733 248.291 12.0667 248.745 10.92C249.198 9.74667 249.638 8.6 250.065 7.48C250.491 6.36 250.865 5.34667 251.185 4.44H256.745L256.905 4.88C256.505 5.78667 256.025 6.78667 255.465 7.88C254.905 8.94667 254.305 10.0267 253.665 11.12C253.051 12.2133 252.425 13.2533 251.785 14.24H247.385Z" fill="#313131"/>
</svg>
