<svg width="154" height="22" viewBox="0 0 154 22" fill="none" xmlns="http://www.w3.org/2000/svg">
<g clip-path="url(#clip0_435_12923)">
<path d="M82.4351 22.0002C81.7546 21.9952 81.0817 21.8603 80.4539 21.6028C78.6863 20.8804 76.9482 18.9224 77.8688 15.8229C78.2656 14.5914 78.9872 13.4847 79.9605 12.615L79.0546 12.1092C72.9638 8.67016 66.6668 5.1155 59.4198 4.36411C55.0966 3.90894 48.5418 4.6242 45.942 8.06328C47.1158 8.69838 48.124 9.59101 48.888 10.6715C49.2032 11.1557 49.3945 11.7074 49.4458 12.2797C49.4971 12.852 49.4068 13.428 49.1825 13.9588C49.0011 14.3017 48.7274 14.5894 48.3911 14.7906C48.0549 14.9919 47.6689 15.099 47.2751 15.1004C46.8245 15.124 46.375 15.0381 45.9664 14.8503C45.5578 14.6625 45.2029 14.3786 44.933 14.0239C44.4705 13.3783 44.1492 12.6456 43.9894 11.8722C43.8297 11.0987 43.8351 10.3012 44.005 9.52988C44.112 9.17653 44.2449 8.83129 44.4027 8.49676L43.9682 8.31614C39.3136 6.44488 34.0182 8.59063 30.1517 10.1512C25.1467 12.258 19.7701 13.3846 14.3245 13.4675H14.2803C11.7247 13.4675 3.14459 13.0268 0.0807905 7.54302C0.0459723 7.4804 0.0240695 7.41171 0.0163297 7.34079C0.00858982 7.26986 0.0151646 7.19808 0.0356814 7.12965C0.0561982 7.06122 0.0902514 6.99749 0.135901 6.94197C0.181551 6.88645 0.237895 6.8403 0.301728 6.80615C0.365562 6.77199 0.435646 6.7505 0.507945 6.74291C0.580243 6.73532 0.653349 6.74175 0.723106 6.76187C0.792863 6.782 0.857893 6.81543 0.914488 6.86021C0.971084 6.90499 1.01814 6.96022 1.05296 7.02284C3.26243 10.9604 9.33111 12.3766 14.3098 12.3838H14.354C19.6559 12.302 24.8902 11.2024 29.7613 9.14703C33.8046 7.51419 39.3357 5.28165 44.4175 7.31186L44.9846 7.55748C47.9305 3.33811 55.5385 2.86124 59.5818 3.28751C67.0572 4.0678 73.7445 7.83926 79.6511 11.17L80.5717 11.6901L80.8885 11.8708C83.3394 10.1253 86.1894 8.99651 89.1887 8.58346C91.8548 8.19331 96.2516 8.58342 97.4079 11.2567C97.6407 11.7828 97.7489 12.3538 97.7247 12.9269C97.7005 13.5 97.5443 14.0603 97.268 14.5657C96.8617 15.2485 96.3073 15.8354 95.6443 16.2848C94.9812 16.7343 94.2256 17.0354 93.4309 17.1667C89.9767 17.8386 86.8024 16.3503 84.1143 14.9053C83.0758 14.3418 82.03 13.7638 81.0063 13.1858C80.0636 13.9618 79.3597 14.98 78.9736 16.1263C78.0751 19.1535 80.2403 20.3096 80.9253 20.5913C82.3983 21.1982 83.9743 20.9165 84.5267 19.9483C84.5997 19.826 84.7186 19.7366 84.858 19.6992C84.9974 19.6619 85.1461 19.6796 85.2723 19.7486C85.3985 19.8176 85.4921 19.9324 85.5331 20.0683C85.5741 20.2043 85.5592 20.3505 85.4915 20.4757C85.1698 20.9768 84.7158 21.3831 84.1776 21.6515C83.6395 21.9199 83.0374 22.0404 82.4351 22.0002ZM81.8975 12.4705C82.7886 12.969 83.6945 13.4747 84.6004 13.9588C87.1265 15.3171 90.0798 16.7115 93.1731 16.1263C93.8075 16.0245 94.4116 15.7882 94.9433 15.4339C95.475 15.0795 95.9215 14.6155 96.2516 14.0744C96.4518 13.7131 96.5646 13.3114 96.5812 12.9004C96.5978 12.4895 96.5178 12.0803 96.3474 11.7046C95.493 9.72496 91.7149 9.32764 89.3065 9.67443C86.6527 10.0433 84.1191 10.9994 81.8975 12.4705ZM45.3749 9.00247C45.2429 9.27233 45.1345 9.55273 45.0508 9.84059C44.9316 10.4446 44.9353 11.0657 45.0617 11.6684C45.1881 12.271 45.4347 12.8431 45.7873 13.3519C45.9472 13.5725 46.1614 13.7498 46.41 13.8672C46.6585 13.9847 46.9333 14.0386 47.2088 14.0239C47.4091 14.0317 47.6076 13.9844 47.782 13.8873C47.9564 13.7903 48.0997 13.6475 48.1957 13.4748C48.3221 13.1188 48.3665 12.7399 48.3258 12.3651C48.285 11.9903 48.1601 11.629 47.96 11.3073C47.2932 10.3519 46.408 9.56255 45.3749 9.00247Z" fill="url(#paint0_linear_435_12923)"/>
<path d="M71.5647 21.9998C70.9704 22.0328 70.3778 21.9097 69.8483 21.6429C69.3188 21.3762 68.8714 20.9756 68.5525 20.4825C68.4848 20.3573 68.4699 20.2111 68.5108 20.0752C68.5518 19.9393 68.6454 19.8245 68.7717 19.7555C68.8979 19.6865 69.0466 19.6688 69.186 19.7061C69.3254 19.7434 69.4443 19.8328 69.5173 19.9551C70.0696 20.9161 71.6531 21.2051 73.1187 20.5982C73.8036 20.3164 75.9689 19.1531 75.0704 16.1331C74.6842 14.9868 73.9804 13.9687 73.0377 13.1926C72.0139 13.7706 70.9681 14.3486 69.9297 14.9121C67.2341 16.3571 64.0378 17.8455 60.6131 17.1735C59.8183 17.0422 59.0627 16.7411 58.3997 16.2917C57.7366 15.8422 57.1823 15.2554 56.776 14.5726C56.4996 14.0671 56.3435 13.5068 56.3192 12.9337C56.295 12.3607 56.4033 11.7897 56.636 11.2635C57.7923 8.59026 62.1892 8.20015 64.8553 8.59029C67.8545 9.00335 70.7046 10.1321 73.1555 11.8776L73.4722 11.697L74.3928 11.1768C80.2847 7.84609 86.9868 4.07464 94.4622 3.29434C98.5055 2.86807 106.084 3.34494 109.059 7.56432L109.626 7.3187C114.701 5.28126 120.239 7.52102 124.283 9.15386C129.154 11.2092 134.388 12.3088 139.69 12.3906H139.734C144.683 12.3906 150.782 10.9456 152.991 7.02968C153.061 6.90321 153.18 6.80936 153.321 6.76871C153.462 6.72806 153.613 6.74391 153.742 6.8129C153.871 6.88188 153.967 6.99828 154.008 7.13648C154.05 7.27469 154.033 7.42339 153.963 7.54985C150.899 13.0336 142.319 13.4671 139.764 13.4744C134.303 13.4018 128.909 12.2749 123.892 10.1581C120.026 8.59746 114.73 6.45894 110.076 8.32297L109.641 8.5036C109.799 8.83812 109.932 9.18336 110.039 9.53672C110.209 10.308 110.214 11.1056 110.055 11.879C109.895 12.6524 109.573 13.3851 109.111 14.0307C108.839 14.3836 108.484 14.6661 108.076 14.8537C107.668 15.0413 107.219 15.1283 106.769 15.1072C106.375 15.1058 105.989 14.9987 105.653 14.7975C105.317 14.5963 105.043 14.3086 104.861 13.9656C104.637 13.4349 104.547 12.8589 104.598 12.2866C104.649 11.7142 104.841 11.1625 105.156 10.6783C105.92 9.59784 106.928 8.70522 108.102 8.07012C105.502 4.63104 98.9547 3.91568 94.6242 4.37086C87.3771 5.09335 81.0802 8.7059 74.9894 12.1161L74.0835 12.6218C75.0554 13.4926 75.7767 14.599 76.1751 15.8297C77.0957 18.922 75.3576 20.8872 73.59 21.6097C72.948 21.8703 72.2595 22.0028 71.5647 21.9998ZM63.0067 9.54395C60.7972 9.54395 58.3005 10.1219 57.6229 11.7114C57.4525 12.0872 57.3725 12.4963 57.3891 12.9073C57.4057 13.3182 57.5185 13.7199 57.7187 14.0812C58.0488 14.6223 58.4953 15.0863 59.027 15.4407C59.5587 15.7951 60.1628 16.0313 60.7972 16.1331C63.8905 16.7328 66.8438 15.3384 69.37 13.9656C70.2758 13.4815 71.1817 12.9758 72.0729 12.4773C69.8525 11.0012 67.3189 10.04 64.6638 9.66681C64.1151 9.58683 63.5613 9.54575 63.0067 9.54395ZM108.595 9.00208C107.569 9.55277 106.687 10.3293 106.018 11.2707C105.818 11.5925 105.693 11.9538 105.652 12.3285C105.611 12.7033 105.656 13.0823 105.782 13.4382C105.878 13.6109 106.021 13.7539 106.196 13.8509C106.37 13.9479 106.569 13.9951 106.769 13.9873C107.044 14.0007 107.319 13.9462 107.567 13.8288C107.815 13.7115 108.029 13.5349 108.19 13.3154C108.543 12.8066 108.79 12.2345 108.916 11.6319C109.042 11.0293 109.046 10.4081 108.927 9.80404C108.848 9.52915 108.747 9.26096 108.625 9.00208H108.595Z" fill="url(#paint1_linear_435_12923)"/>
<path d="M77.0002 7.40561C76.883 7.4051 76.7692 7.36702 76.6761 7.29722C73.8996 5.32481 64.0232 -0.0143914 55.3989 1.29333C55.2536 1.31415 55.1058 1.27802 54.9873 1.19287C54.8688 1.10772 54.7892 0.980371 54.7656 0.83815C54.7445 0.696409 54.7814 0.552209 54.8684 0.437126C54.9553 0.322044 55.0852 0.245373 55.2296 0.223958C63.9717 -1.10543 73.5902 3.88703 77.0002 6.19901C80.4101 3.88703 90.0287 -1.09821 98.7708 0.223958C98.9152 0.245373 99.0451 0.322044 99.132 0.437126C99.219 0.552209 99.2559 0.696409 99.2348 0.83815C99.2112 0.980371 99.1316 1.10772 99.0131 1.19287C98.8946 1.27802 98.7468 1.31415 98.6015 1.29333C89.9845 -0.00716646 80.1008 5.32481 77.3243 7.29722C77.2312 7.36702 77.1174 7.4051 77.0002 7.40561Z" fill="url(#paint2_linear_435_12923)"/>
</g>
<defs>
<linearGradient id="paint0_linear_435_12923" x1="48.8706" y1="3.16162" x2="48.8706" y2="22.0077" gradientUnits="userSpaceOnUse">
<stop stop-color="#F1DFC1"/>
<stop offset="0.895" stop-color="#F75471"/>
</linearGradient>
<linearGradient id="paint1_linear_435_12923" x1="105.173" y1="3.16846" x2="105.173" y2="22.005" gradientUnits="userSpaceOnUse">
<stop stop-color="#F1DFC1"/>
<stop offset="0.895" stop-color="#F75471"/>
</linearGradient>
<linearGradient id="paint2_linear_435_12923" x1="77.0002" y1="0.00244141" x2="77.0002" y2="7.40561" gradientUnits="userSpaceOnUse">
<stop stop-color="#F1DFC1"/>
<stop offset="0.895" stop-color="#F75471"/>
</linearGradient>
<clipPath id="clip0_435_12923">
<rect width="154" height="22" fill="white"/>
</clipPath>
</defs>
</svg>
