<svg width="36" height="37" viewBox="0 0 36 37" fill="none" xmlns="http://www.w3.org/2000/svg">
<path d="M10.8 28.5L18 21.3L25.2 28.5L28 25.7L20.8 18.5L28 11.3L25.2 8.5L18 15.7L10.8 8.5L8 11.3L15.2 18.5L8 25.7L10.8 28.5ZM4 36.5C2.9 36.5 1.95833 36.1083 1.175 35.325C0.391667 34.5417 0 33.6 0 32.5V4.5C0 3.4 0.391667 2.45833 1.175 1.675C1.95833 0.891667 2.9 0.5 4 0.5H32C33.1 0.5 34.0417 0.891667 34.825 1.675C35.6083 2.45833 36 3.4 36 4.5V32.5C36 33.6 35.6083 34.5417 34.825 35.325C34.0417 36.1083 33.1 36.5 32 36.5H4ZM4 32.5H32V4.5H4V32.5Z" fill="#F75471"/>
</svg>
