<svg width="19" height="17" viewBox="0 0 19 17" fill="none" xmlns="http://www.w3.org/2000/svg">
<path d="M9.50084 0.945923C8.39632 0.945923 7.33544 1.099 6.35352 1.38029C6.271 1.40196 6.19395 1.4388 6.12692 1.48867C6.05988 1.53853 6.00421 1.6004 5.96317 1.67064C5.92213 1.74088 5.89655 1.81807 5.88794 1.89767C5.87933 1.97727 5.88787 2.05767 5.91304 2.13415C5.93821 2.21062 5.97952 2.28163 6.03453 2.34299C6.08954 2.40435 6.15713 2.45482 6.23335 2.49144C6.30956 2.52806 6.39285 2.55008 6.47832 2.55621C6.56379 2.56235 6.64971 2.55247 6.73103 2.52715C7.58939 2.28126 8.52336 2.14591 9.50084 2.14591C13.827 2.14591 17.2143 4.77288 17.2143 7.84037C17.2143 9.33287 16.5001 10.5854 15.3318 11.7364C15.2713 11.7932 15.2236 11.8606 15.1915 11.9348C15.1594 12.009 15.1435 12.0885 15.1448 12.1685C15.1461 12.2485 15.1645 12.3275 15.1989 12.4008C15.2334 12.4741 15.2833 12.5402 15.3455 12.5952C15.4078 12.6503 15.4812 12.6931 15.5615 12.7213C15.6418 12.7494 15.7272 12.7623 15.8129 12.7591C15.8986 12.756 15.9828 12.7369 16.0604 12.7029C16.1381 12.669 16.2076 12.6208 16.2651 12.5614C17.579 11.2669 18.5 9.69742 18.5 7.84037C18.5 3.96634 14.3898 0.945923 9.50084 0.945923ZM2.74163 3.55214C2.64806 3.55084 2.55531 3.56863 2.46986 3.60425C2.38442 3.63988 2.30834 3.69248 2.24693 3.75839C1.16061 4.88881 0.5 6.30709 0.5 7.84037C0.5 11.2955 3.75778 14.0996 8 14.6387C8.09761 14.6585 8.20209 14.6902 8.26869 14.7176C8.26236 14.7518 8.27743 14.9103 8.25698 15.0551V15.0559C8.25147 15.0867 8.1608 15.5919 8.14146 15.6973L8.1423 15.6965C8.11011 15.8697 8.00692 16.1592 8.29464 16.5653C8.43851 16.7683 8.76266 16.9408 9.05301 16.9457C9.34337 16.9507 9.58706 16.8616 9.85407 16.7246C11.0772 16.0966 12.3672 15.4162 13.5706 14.6481C13.6412 14.604 13.7018 14.5473 13.7489 14.4812C13.7959 14.4151 13.8284 14.341 13.8445 14.2631C13.8606 14.1852 13.86 14.1051 13.8428 14.0274C13.8255 13.9498 13.7919 13.8761 13.744 13.8106C13.696 13.7451 13.6346 13.6891 13.5633 13.646C13.492 13.6028 13.4123 13.5732 13.3286 13.559C13.245 13.5447 13.1592 13.5461 13.0762 13.563C12.9931 13.5799 12.9145 13.612 12.8449 13.6575C11.7787 14.338 10.6111 14.9524 9.47321 15.5395C9.49748 15.4039 9.52846 15.2332 9.52846 15.2332C9.52968 15.227 9.5308 15.2208 9.53181 15.2145C9.56396 14.9894 9.65391 14.6518 9.46484 14.2106L9.46401 14.209C9.32104 13.8791 9.05633 13.7357 8.84459 13.6411C8.63285 13.5464 8.43246 13.4978 8.26618 13.4645C8.24928 13.4613 8.23225 13.4587 8.21512 13.4567C4.44868 12.9942 1.78571 10.5952 1.78571 7.84037C1.78571 6.62648 2.29969 5.50072 3.20452 4.55916C3.28874 4.47401 3.34475 4.36792 3.36577 4.25371C3.38679 4.1395 3.37192 4.02205 3.32297 3.91555C3.27402 3.80905 3.19307 3.71806 3.08991 3.65357C2.98674 3.58908 2.86578 3.55385 2.74163 3.55214ZM7.49777 5.80055C7.25605 5.80055 7.05915 5.9828 7.05915 6.2068V9.2841C7.05915 9.5085 7.25563 9.69035 7.49777 9.69035C7.73948 9.69035 7.93638 9.5081 7.93638 9.2841V6.2068C7.93638 5.9828 7.73991 5.80055 7.49777 5.80055ZM9.00614 5.80055C8.959 5.80055 8.91178 5.80764 8.86635 5.82164C8.68721 5.87724 8.56669 6.032 8.56669 6.2068V9.2841C8.56669 9.5085 8.764 9.69035 9.00614 9.69035C9.24871 9.69035 9.44559 9.5081 9.44559 9.2841V7.381L11.149 9.52785C11.2313 9.62945 11.3626 9.69035 11.4997 9.69035C11.5464 9.69035 11.5932 9.68325 11.6387 9.66925C11.8187 9.61445 11.9392 9.4597 11.9392 9.2841V6.20601C11.9392 5.98202 11.7427 5.80055 11.5006 5.80055C11.2584 5.80055 11.0611 5.98202 11.0611 6.20601V8.11068L9.35686 5.96305C9.27458 5.86145 9.14285 5.80055 9.00614 5.80055ZM4.55469 5.80133C4.31297 5.80133 4.11607 5.9828 4.11607 6.2068V9.28488C4.11607 9.50928 4.31254 9.69113 4.55469 9.69113H6.21708C6.45922 9.69113 6.65528 9.5081 6.65485 9.2841C6.65485 9.0601 6.45922 8.87786 6.21708 8.87786H4.99247V6.2068C4.99247 5.9828 4.79683 5.80133 4.55469 5.80133ZM12.9671 5.80133C12.7254 5.80133 12.5285 5.98358 12.5285 6.20758V6.20836V7.74506V7.74584V7.74662V9.2841C12.5285 9.5085 12.7258 9.69035 12.9671 9.69035H14.6295C14.8716 9.69035 15.0689 9.5081 15.0689 9.2841C15.0689 9.0601 14.8716 8.87786 14.6295 8.87786H13.4057V8.1513H14.6295C14.872 8.1513 15.0689 7.96906 15.0689 7.74506C15.0689 7.52066 14.8716 7.33881 14.6295 7.33881V7.34038H13.4057V6.61382H14.6295C14.872 6.61382 15.0689 6.43157 15.0689 6.20758C15.0689 5.98358 14.8716 5.80133 14.6295 5.80133H12.9671Z" fill="#313131"/>
</svg>
