<svg width="30" height="28" viewBox="0 0 30 28" fill="none" xmlns="http://www.w3.org/2000/svg">
<path d="M15.0014 0C13.1605 0 11.3924 0.26788 9.75586 0.760147C9.61833 0.79806 9.48993 0.862542 9.3782 0.9498C9.26647 1.03706 9.17368 1.14533 9.10528 1.26825C9.03688 1.39117 8.99425 1.52625 8.9799 1.66555C8.96555 1.80485 8.97978 1.94556 9.02173 2.07939C9.06369 2.21323 9.13253 2.33749 9.22421 2.44486C9.31589 2.55224 9.42856 2.64057 9.55558 2.70465C9.68261 2.76873 9.82142 2.80727 9.96387 2.81801C10.1063 2.82874 10.2495 2.81145 10.385 2.76715C11.8156 2.33683 13.3723 2.09997 15.0014 2.09997C22.2116 2.09997 27.8571 6.69718 27.8571 12.0653C27.8571 14.6772 26.6668 16.8691 24.7196 18.8834C24.6188 18.9827 24.5393 19.1007 24.4858 19.2306C24.4323 19.3605 24.4058 19.4995 24.4079 19.6396C24.4101 19.7796 24.4408 19.9178 24.4983 20.046C24.5557 20.1743 24.6388 20.29 24.7425 20.3863C24.8463 20.4826 24.9687 20.5576 25.1025 20.6068C25.2363 20.6561 25.3787 20.6786 25.5215 20.6731C25.6644 20.6676 25.8046 20.6342 25.934 20.5747C26.0634 20.5153 26.1794 20.4311 26.2751 20.3271C28.4651 18.0617 30 15.3151 30 12.0653C30 5.28574 23.1497 0 15.0014 0ZM3.73605 4.56088C3.5801 4.55861 3.42552 4.58974 3.28311 4.65208C3.1407 4.71442 3.0139 4.80647 2.91155 4.92181C1.10102 6.90004 0 9.38204 0 12.0653C0 18.1117 5.42964 23.0189 12.5 23.9624C12.6627 23.997 12.8368 24.0525 12.9478 24.1005C12.9373 24.1603 12.9624 24.4376 12.9283 24.6911V24.6925C12.9191 24.7464 12.768 25.6305 12.7358 25.8149L12.7372 25.8136C12.6835 26.1167 12.5115 26.6232 12.9911 27.3338C13.2308 27.6892 13.7711 27.991 14.255 27.9997C14.7389 28.0083 15.1451 27.8525 15.5901 27.6127C17.6287 26.5137 19.7786 25.323 21.7843 23.9788C21.9021 23.9017 22.0031 23.8024 22.0814 23.6867C22.1598 23.5711 22.214 23.4414 22.2408 23.3051C22.2677 23.1688 22.2667 23.0286 22.238 22.8927C22.2092 22.7567 22.1532 22.6277 22.0733 22.5131C21.9933 22.3986 21.891 22.3006 21.7722 22.225C21.6534 22.1495 21.5204 22.0977 21.3811 22.0728C21.2417 22.0479 21.0987 22.0503 20.9603 22.0799C20.8219 22.1095 20.6909 22.1657 20.5748 22.2452C18.7978 23.4361 16.8519 24.5114 14.9554 25.5387C14.9958 25.3015 15.0474 25.0028 15.0474 25.0028C15.0495 24.9919 15.0513 24.981 15.053 24.97C15.1066 24.5761 15.2565 23.9852 14.9414 23.2132L14.94 23.2105C14.7017 22.6331 14.2605 22.3821 13.9076 22.2165C13.5547 22.0509 13.2208 21.9657 12.9436 21.9075C12.9155 21.9019 12.8871 21.8973 12.8585 21.8939C6.58114 21.0844 2.14286 16.8863 2.14286 12.0653C2.14286 9.94098 2.99949 7.97089 4.50753 6.32316C4.64791 6.17416 4.74125 5.9885 4.77628 5.78863C4.81131 5.58876 4.78654 5.38322 4.70495 5.19685C4.62336 5.01047 4.48845 4.85124 4.31651 4.73839C4.14457 4.62553 3.94297 4.56388 3.73605 4.56088ZM11.6629 8.4956C11.2601 8.4956 10.9319 8.81453 10.9319 9.20653V14.5918C10.9319 14.9845 11.2594 15.3027 11.6629 15.3027C12.0658 15.3027 12.394 14.9838 12.394 14.5918V9.20653C12.394 8.81453 12.0665 8.4956 11.6629 8.4956ZM14.1769 8.4956C14.0983 8.4956 14.0196 8.50801 13.9439 8.53251C13.6453 8.62981 13.4445 8.90063 13.4445 9.20653V14.5918C13.4445 14.9845 13.7733 15.3027 14.1769 15.3027C14.5812 15.3027 14.9093 14.9838 14.9093 14.5918V11.2614L17.7483 15.0184C17.8855 15.1962 18.1043 15.3027 18.3329 15.3027C18.4107 15.3027 18.4887 15.2903 18.5645 15.2658C18.8645 15.1699 19.0653 14.8991 19.0653 14.5918V9.20516C19.0653 8.81317 18.7378 8.4956 18.3343 8.4956C17.9307 8.4956 17.6018 8.81317 17.6018 9.20516V12.5383L14.7614 8.77997C14.6243 8.60217 14.4048 8.4956 14.1769 8.4956ZM6.75781 8.49697C6.35496 8.49697 6.02679 8.81453 6.02679 9.20653V14.5932C6.02679 14.9859 6.35424 15.3041 6.75781 15.3041H9.52846C9.93203 15.3041 10.2588 14.9838 10.2581 14.5918C10.2581 14.1998 9.93203 13.8809 9.52846 13.8809H7.48744V9.20653C7.48744 8.81453 7.16138 8.49697 6.75781 8.49697ZM20.7785 8.49697C20.3756 8.49697 20.0474 8.8159 20.0474 9.20789V9.20926V11.8985V11.8999V11.9012V14.5918C20.0474 14.9845 20.3763 15.3027 20.7785 15.3027H23.5491C23.9527 15.3027 24.2815 14.9838 24.2815 14.5918C24.2815 14.1998 23.9527 13.8809 23.5491 13.8809H21.5095V12.6094H23.5491C23.9534 12.6094 24.2815 12.2905 24.2815 11.8985C24.2815 11.5058 23.9527 11.1876 23.5491 11.1876V11.1903H21.5095V9.91882H23.5491C23.9534 9.91882 24.2815 9.59989 24.2815 9.20789C24.2815 8.8159 23.9527 8.49697 23.5491 8.49697H20.7785Z" fill="white"/>
</svg>
