<svg width="206" height="13" viewBox="0 0 206 13" fill="none" xmlns="http://www.w3.org/2000/svg">
<path d="M193.488 3.31729V3.31729ZM193.488 3.31729L193.505 3.3341L193.509 3.33832L193.614 3.2574C194.474 4.37397 195.495 5.32276 196.635 6.06613L197.058 6.34216L197.065 6.34672L197.116 6.37992L197.237 6.45888L197.267 6.47855L197.15 6.55729L197.082 6.60302L197.075 6.60773L196.641 6.89984C195.489 7.67452 194.471 8.67424 193.639 9.85222L193.533 9.77702L193.488 3.31729ZM193.47 3.36824L193.495 3.34918L193.505 3.34133L193.487 3.32203M193.487 3.32203V3.32203Z" fill="white" stroke="white"/>
<path d="M205.097 6.49056L205.088 6.49903L205.097 6.49056ZM205.097 6.49056L205.117 6.47232M205.097 6.49056L205.117 6.47232M205.117 6.47232L205.116 6.49902L205.125 6.46422V6.1484L205.12 6.36282L205.117 6.47232ZM205.117 6.47232L205.123 6.46677L205.117 6.47232ZM205.1 6.52022L205.095 6.51551L205.1 6.52022ZM205.1 6.52022L205.115 6.53344L205.1 6.52022ZM195.471 12.4419L195.471 12.4418L195.471 12.4419ZM195.471 12.4419L195.475 12.4514L195.471 12.4419Z" fill="white" stroke="white"/>
<mask id="path-3-inside-1_2512_24321" fill="white">
<path d="M187.537 6.1479H159.351C159.266 6.1479 159.183 6.18532 159.123 6.25195C159.062 6.31857 159.028 6.40893 159.028 6.50315C159.028 6.59737 159.062 6.68773 159.123 6.75435C159.183 6.82097 159.266 6.8584 159.351 6.8584H187.537C187.623 6.8584 187.705 6.82097 187.766 6.75435C187.826 6.68773 187.86 6.59737 187.86 6.50315C187.86 6.40893 187.826 6.31857 187.766 6.25195C187.705 6.18532 187.623 6.1479 187.537 6.1479Z"/>
</mask>
<path d="M187.537 6.1479H159.351C159.266 6.1479 159.183 6.18532 159.123 6.25195C159.062 6.31857 159.028 6.40893 159.028 6.50315C159.028 6.59737 159.062 6.68773 159.123 6.75435C159.183 6.82097 159.266 6.8584 159.351 6.8584H187.537C187.623 6.8584 187.705 6.82097 187.766 6.75435C187.826 6.68773 187.86 6.59737 187.86 6.50315C187.86 6.40893 187.826 6.31857 187.766 6.25195C187.705 6.18532 187.623 6.1479 187.537 6.1479Z" fill="white"/>
<path d="M187.537 7.1479H159.351V5.1479H187.537V7.1479ZM159.351 7.1479C159.563 7.1479 159.745 7.05446 159.863 6.92466L158.383 5.57924C158.622 5.31619 158.968 5.1479 159.351 5.1479V7.1479ZM159.863 6.92466C159.978 6.79802 160.028 6.64502 160.028 6.50315H158.028C158.028 6.17284 158.147 5.83912 158.383 5.57924L159.863 6.92466ZM160.028 6.50315C160.028 6.36127 159.978 6.20827 159.863 6.08164L158.383 7.42706C158.147 7.16718 158.028 6.83346 158.028 6.50315H160.028ZM159.863 6.08164C159.745 5.95184 159.563 5.8584 159.351 5.8584V7.8584C158.968 7.8584 158.622 7.69011 158.383 7.42706L159.863 6.08164ZM159.351 5.8584H187.537V7.8584H159.351V5.8584ZM187.537 5.8584C187.325 5.8584 187.144 5.95184 187.026 6.08164L188.506 7.42706C188.266 7.69011 187.92 7.8584 187.537 7.8584V5.8584ZM187.026 6.08164C186.911 6.20827 186.86 6.36127 186.86 6.50315H188.86C188.86 6.83346 188.742 7.16718 188.506 7.42706L187.026 6.08164ZM186.86 6.50315C186.86 6.64502 186.911 6.79802 187.026 6.92466L188.506 5.57924C188.742 5.83912 188.86 6.17284 188.86 6.50315H186.86ZM187.026 6.92466C187.144 7.05446 187.325 7.1479 187.537 7.1479V5.1479C187.92 5.1479 188.266 5.31619 188.506 5.57924L187.026 6.92466Z" fill="white" mask="url(#path-3-inside-1_2512_24321)"/>
<path d="M182.637 2.57394L182.629 2.57947L182.637 2.57394ZM182.637 2.57394L182.669 2.55002L182.637 2.57394ZM182.711 2.58306L182.716 2.58895L182.711 2.58306ZM182.711 2.58306L182.678 2.54395L182.711 2.58306Z" fill="white" stroke="white"/>
<path d="M11.9646 3.31729V3.31729ZM11.9646 3.31729L11.9482 3.3341L11.9441 3.33832L11.839 3.2574C10.9794 4.37397 9.95814 5.32276 8.81834 6.06613L8.39509 6.34216L8.38811 6.34672L8.3372 6.37992L8.21613 6.45888L8.18598 6.47855L8.30307 6.55729L8.37108 6.60302L8.37808 6.60773L8.81246 6.89984C9.96445 7.67452 10.9819 8.67424 11.8139 9.85222L11.9204 9.77702L11.9646 3.31729ZM11.983 3.36824L11.9582 3.34918L11.948 3.34133L11.9664 3.32203M11.9664 3.32203V3.32203Z" fill="white" stroke="white"/>
<path d="M0.355965 6.49056L0.36503 6.49903L0.355965 6.49056ZM0.355965 6.49056L0.336432 6.47232M0.355965 6.49056L0.336432 6.47232M0.336432 6.47232L0.337147 6.49902L0.327757 6.46422V6.1484L0.3335 6.36282L0.336432 6.47232ZM0.336432 6.47232L0.33049 6.46677L0.336432 6.47232ZM0.352999 6.52022L0.358313 6.51551L0.352999 6.52022ZM0.352999 6.52022L0.338068 6.53344L0.352999 6.52022ZM9.98223 12.4419L9.98231 12.4418L9.98223 12.4419ZM9.98223 12.4419L9.97804 12.4514L9.98223 12.4419Z" fill="white" stroke="white"/>
<mask id="path-8-inside-2_2512_24321" fill="white">
<path d="M17.9159 6.1479H46.1018C46.1875 6.1479 46.2696 6.18532 46.3302 6.25195C46.3908 6.31857 46.4248 6.40893 46.4248 6.50315C46.4248 6.59737 46.3908 6.68773 46.3302 6.75435C46.2696 6.82097 46.1875 6.8584 46.1018 6.8584H17.9159C17.8302 6.8584 17.7481 6.82097 17.6875 6.75435C17.6269 6.68773 17.5929 6.59737 17.5929 6.50315C17.5929 6.40893 17.6269 6.31857 17.6875 6.25195C17.7481 6.18532 17.8302 6.1479 17.9159 6.1479Z"/>
</mask>
<path d="M17.9159 6.1479H46.1018C46.1875 6.1479 46.2696 6.18532 46.3302 6.25195C46.3908 6.31857 46.4248 6.40893 46.4248 6.50315C46.4248 6.59737 46.3908 6.68773 46.3302 6.75435C46.2696 6.82097 46.1875 6.8584 46.1018 6.8584H17.9159C17.8302 6.8584 17.7481 6.82097 17.6875 6.75435C17.6269 6.68773 17.5929 6.59737 17.5929 6.50315C17.5929 6.40893 17.6269 6.31857 17.6875 6.25195C17.7481 6.18532 17.8302 6.1479 17.9159 6.1479Z" fill="white"/>
<path d="M17.9159 7.1479H46.1018V5.1479H17.9159V7.1479ZM46.1018 7.1479C45.8899 7.1479 45.7083 7.05446 45.5903 6.92466L47.0701 5.57924C46.831 5.31619 46.4851 5.1479 46.1018 5.1479V7.1479ZM45.5903 6.92466C45.4752 6.79802 45.4248 6.64502 45.4248 6.50315H47.4248C47.4248 6.17284 47.3064 5.83912 47.0701 5.57924L45.5903 6.92466ZM45.4248 6.50315C45.4248 6.36127 45.4752 6.20827 45.5903 6.08164L47.0701 7.42706C47.3064 7.16718 47.4248 6.83346 47.4248 6.50315H45.4248ZM45.5903 6.08164C45.7083 5.95184 45.8899 5.8584 46.1018 5.8584V7.8584C46.4851 7.8584 46.831 7.69011 47.0701 7.42706L45.5903 6.08164ZM46.1018 5.8584H17.9159V7.8584H46.1018V5.8584ZM17.9159 5.8584C18.1278 5.8584 18.3094 5.95184 18.4274 6.08164L16.9476 7.42706C17.1867 7.69011 17.5326 7.8584 17.9159 7.8584V5.8584ZM18.4274 6.08164C18.5425 6.20827 18.5929 6.36127 18.5929 6.50315H16.5929C16.5929 6.83346 16.7113 7.16718 16.9476 7.42706L18.4274 6.08164ZM18.5929 6.50315C18.5929 6.64502 18.5425 6.79802 18.4274 6.92466L16.9476 5.57924C16.7113 5.83912 16.5929 6.17284 16.5929 6.50315H18.5929ZM18.4274 6.92466C18.3094 7.05446 18.1278 7.1479 17.9159 7.1479V5.1479C17.5326 5.1479 17.1867 5.31619 16.9476 5.57924L18.4274 6.92466Z" fill="white" mask="url(#path-8-inside-2_2512_24321)"/>
<path d="M22.8162 2.57394L22.8237 2.57947L22.8162 2.57394ZM22.8162 2.57394L22.7838 2.55002L22.8162 2.57394ZM22.7421 2.58306L22.7371 2.58895L22.7421 2.58306ZM22.7421 2.58306L22.7756 2.54395L22.7421 2.58306Z" fill="white" stroke="white"/>
<line x1="26.8633" y1="6.5" x2="200.863" y2="6.5" stroke="white"/>
</svg>
