<svg width="225" height="14" viewBox="0 0 225 14" fill="none" xmlns="http://www.w3.org/2000/svg">
<path d="M211.785 3.79144C211.703 3.78997 211.625 3.81863 211.563 3.87195C211.498 3.93041 211.456 4.01124 211.446 4.09876C211.437 4.18627 211.46 4.27425 211.511 4.34562C212.488 5.50534 213.651 6.49307 214.951 7.26813C213.633 8.07791 212.473 9.12104 211.525 10.347C211.478 10.4214 211.459 10.5109 211.473 10.5983C211.487 10.6857 211.533 10.7648 211.601 10.8206C211.674 10.8706 211.764 10.8905 211.851 10.8765C211.939 10.8624 212.018 10.8153 212.072 10.7449C213.095 9.43233 214.379 8.34831 215.842 7.5618C215.901 7.53271 215.952 7.4873 215.987 7.43075C216.022 7.37421 216.041 7.30882 216.041 7.24209C216.041 7.17535 216.022 7.10996 215.987 7.05342C215.952 6.99687 215.901 6.95146 215.842 6.92237C214.396 6.15721 213.107 5.12379 212.044 3.8767C212.009 3.84499 211.968 3.82102 211.923 3.80633C211.879 3.79164 211.831 3.78656 211.785 3.79144Z" fill="#E9A49B"/>
<path d="M213.962 1.2618C213.907 1.26452 213.854 1.2801 213.807 1.30725C213.759 1.3344 213.719 1.37237 213.688 1.41812C213.651 1.47496 209.919 6.9316 205.315 6.9316C205.222 6.9316 205.132 6.96903 205.065 7.03565C204.999 7.10227 204.962 7.19263 204.962 7.28685C204.962 7.38107 204.999 7.47143 205.065 7.53805C205.132 7.60468 205.222 7.6421 205.315 7.6421C209.942 7.6421 213.646 13.3261 213.684 13.3782C213.713 13.4251 213.753 13.4642 213.801 13.4922C213.848 13.5202 213.902 13.5364 213.957 13.5393C214.011 13.5429 214.066 13.5341 214.116 13.5136C214.167 13.493 214.212 13.4614 214.249 13.4208C219.084 7.83157 224.498 7.64684 224.549 7.6421C224.643 7.63963 224.731 7.60062 224.797 7.53337C224.862 7.46613 224.898 7.37597 224.898 7.28211C224.893 7.18906 224.854 7.10123 224.787 7.03623C224.721 6.97123 224.633 6.93387 224.54 6.9316C224.3 6.9316 219.003 6.86054 214.263 1.38496C214.226 1.34164 214.18 1.30784 214.127 1.2864C214.075 1.26497 214.018 1.25653 213.962 1.2618ZM207.488 7.29631C210.743 6.26845 213.203 3.25121 213.995 2.18546C217.015 5.5248 220.163 6.82264 222.226 7.32947C219.037 8.26091 216.182 10.0941 213.999 12.6109C213.212 11.5072 210.739 8.36679 207.488 7.29631Z" fill="#E9A49B"/>
<path d="M205.296 6.9311H174.456C174.362 6.9311 174.272 6.96853 174.206 7.03515C174.14 7.10177 174.103 7.19213 174.103 7.28635C174.103 7.38057 174.14 7.47093 174.206 7.53755C174.272 7.60418 174.362 7.6416 174.456 7.6416H205.296C205.389 7.6416 205.479 7.60418 205.545 7.53755C205.612 7.47093 205.649 7.38057 205.649 7.28635C205.649 7.19213 205.612 7.10177 205.545 7.03515C205.479 6.96853 205.389 6.9311 205.296 6.9311Z" fill="#E9A49B"/>
<path d="M199.947 0.783205C199.745 0.782948 199.543 0.811682 199.349 0.86849C198.886 1.00866 198.49 1.31091 198.23 1.7203C197.971 2.1297 197.866 2.61905 197.935 3.09944C197.975 3.37162 198.092 3.6268 198.27 3.8355C198.448 4.04419 198.682 4.19788 198.943 4.27886C199.104 4.31956 199.271 4.32542 199.433 4.29601C199.596 4.2666 199.75 4.20262 199.886 4.10835C200.006 4.0302 200.107 3.92647 200.183 3.8045C200.259 3.68254 200.307 3.54533 200.324 3.40259C200.333 3.31007 200.305 3.21787 200.246 3.14575C200.188 3.07364 200.104 3.02735 200.012 3.01681C199.92 3.00628 199.828 3.03234 199.755 3.08941C199.682 3.14647 199.634 3.23 199.622 3.32208C199.615 3.36309 199.599 3.40203 199.575 3.43633C199.551 3.47063 199.521 3.4995 199.485 3.52101C199.382 3.59083 199.254 3.6164 199.132 3.59207C199.001 3.54267 198.886 3.45839 198.799 3.34827C198.711 3.23815 198.656 3.10632 198.637 2.96683C198.604 2.65648 198.68 2.3441 198.852 2.08434C199.024 1.82459 199.282 1.63398 199.58 1.54583C199.895 1.46852 200.226 1.48364 200.533 1.5894C200.841 1.69516 201.111 1.88711 201.314 2.14262C202.1 3.12785 201.855 4.71464 201.135 5.58145C200.73 6.02012 200.237 6.36703 199.689 6.599C199.14 6.83097 198.549 6.94268 197.954 6.92667H197.874C197.781 6.9279 197.691 6.96572 197.625 7.03208C197.559 7.09844 197.522 7.18808 197.521 7.28192C197.521 7.37614 197.558 7.4665 197.624 7.53312C197.69 7.59974 197.78 7.63717 197.874 7.63717H197.954C198.549 7.62207 199.141 7.73466 199.689 7.96744C200.237 8.20022 200.73 8.54782 201.135 8.98711C201.855 9.85392 202.1 11.4407 201.314 12.4259C201.111 12.6805 200.84 12.8718 200.533 12.9775C200.226 13.0832 199.895 13.0989 199.58 13.0228C199.282 12.9338 199.025 12.743 198.853 12.4834C198.681 12.2239 198.605 11.912 198.637 11.6018C198.656 11.4631 198.713 11.3323 198.8 11.223C198.887 11.1138 199.002 11.0303 199.132 10.9813C199.193 10.9686 199.257 10.9683 199.318 10.9805C199.38 10.9927 199.438 11.0171 199.49 11.0523C199.524 11.0748 199.554 11.1039 199.576 11.1381C199.599 11.1723 199.615 11.2108 199.622 11.2512C199.634 11.3433 199.682 11.4269 199.755 11.4839C199.828 11.541 199.92 11.567 200.012 11.5565C200.104 11.546 200.188 11.4997 200.246 11.4276C200.305 11.3555 200.333 11.2633 200.324 11.1707C200.309 11.0273 200.262 10.8892 200.186 10.7669C200.11 10.6446 200.008 10.5413 199.886 10.4649C199.75 10.3707 199.596 10.3067 199.433 10.2773C199.271 10.2479 199.104 10.2537 198.943 10.2944C198.682 10.3754 198.448 10.5291 198.27 10.7378C198.092 10.9465 197.975 11.2017 197.935 11.4739C197.866 11.9542 197.971 12.4436 198.23 12.853C198.49 13.2624 198.886 13.5647 199.349 13.7048C199.799 13.8231 200.274 13.8072 200.716 13.6592C201.157 13.5112 201.547 13.2375 201.837 12.8712C202.873 11.5686 202.543 9.60763 201.643 8.53241C201.16 7.96901 200.543 7.53864 199.848 7.28192C200.542 7.02692 201.16 6.59815 201.643 6.03618C202.543 4.96095 202.873 2.99999 201.837 1.69741C201.608 1.41497 201.32 1.18665 200.993 1.02865C200.667 0.870661 200.31 0.78685 199.947 0.783205Z" fill="#E9A49B"/>
<path d="M13.2155 3.79144C13.2966 3.78997 13.3754 3.81863 13.4369 3.87195C13.5024 3.93041 13.544 4.01124 13.5535 4.09876C13.5631 4.18627 13.54 4.27425 13.4887 4.34562C12.5118 5.50534 11.3493 6.49307 10.049 7.26813C11.3666 8.07791 12.5272 9.12104 13.4746 10.347C13.5221 10.4214 13.5407 10.5109 13.5268 10.5983C13.5129 10.6857 13.4675 10.7648 13.3992 10.8206C13.3258 10.8706 13.2362 10.8905 13.1487 10.8765C13.0612 10.8624 12.9822 10.8153 12.928 10.7449C11.9049 9.43233 10.6211 8.34831 9.15846 7.5618C9.09871 7.53271 9.04834 7.4873 9.01308 7.43075C8.97782 7.37421 8.9591 7.30882 8.9591 7.24209C8.9591 7.17535 8.97782 7.10996 9.01308 7.05342C9.04834 6.99687 9.09871 6.95146 9.15846 6.92237C10.6043 6.15721 11.8929 5.12379 12.9563 3.8767C12.9911 3.84499 13.0322 3.82102 13.0768 3.80633C13.1215 3.79164 13.1687 3.78656 13.2155 3.79144Z" fill="#E9A49B"/>
<path d="M11.0383 1.2618C11.0928 1.26452 11.146 1.2801 11.1935 1.30725C11.2409 1.3344 11.2814 1.37237 11.3116 1.41812C11.3493 1.47496 15.0811 6.9316 19.6847 6.9316C19.7784 6.9316 19.8683 6.96903 19.9346 7.03565C20.0009 7.10227 20.0381 7.19263 20.0381 7.28685C20.0381 7.38107 20.0009 7.47143 19.9346 7.53805C19.8683 7.60468 19.7784 7.6421 19.6847 7.6421C15.0576 7.6421 11.354 13.3261 11.3163 13.3782C11.2869 13.4251 11.2468 13.4642 11.1992 13.4922C11.1516 13.5202 11.0981 13.5364 11.043 13.5393C10.9886 13.5429 10.9341 13.5341 10.8835 13.5136C10.8329 13.493 10.7876 13.4614 10.7509 13.4208C5.91642 7.83157 0.502424 7.64684 0.450594 7.6421C0.357262 7.63963 0.26857 7.60062 0.203436 7.53337C0.138304 7.46613 0.101883 7.37597 0.101915 7.28211C0.106642 7.18906 0.146147 7.10123 0.212553 7.03623C0.278959 6.97123 0.367369 6.93387 0.460028 6.9316C0.700335 6.9316 5.99654 6.86054 10.7367 1.38496C10.7735 1.34164 10.8201 1.30784 10.8726 1.2864C10.9251 1.26497 10.9819 1.25653 11.0383 1.2618ZM17.5125 7.29631C14.2566 6.26845 11.7969 3.25121 11.0053 2.18546C7.98498 5.5248 4.8374 6.82264 2.77357 7.32947C5.96277 8.26091 8.81848 10.0941 11.0006 12.6109C11.7875 11.5072 14.2613 8.36679 17.5125 7.29631Z" fill="#E9A49B"/>
<path d="M19.7045 6.9311H50.5441C50.6378 6.9311 50.7277 6.96853 50.794 7.03515C50.8602 7.10177 50.8975 7.19213 50.8975 7.28635C50.8975 7.38057 50.8602 7.47093 50.794 7.53755C50.7277 7.60418 50.6378 7.6416 50.5441 7.6416H19.7045C19.6108 7.6416 19.5209 7.60418 19.4546 7.53755C19.3883 7.47093 19.3511 7.38057 19.3511 7.28635C19.3511 7.19213 19.3883 7.10177 19.4546 7.03515C19.5209 6.96853 19.6108 6.9311 19.7045 6.9311Z" fill="#E9A49B"/>
<path d="M25.0529 0.783205C25.2554 0.782948 25.4568 0.811682 25.6513 0.86849C26.1135 1.00866 26.5105 1.31091 26.7699 1.7203C27.0293 2.1297 27.1339 2.61905 27.0648 3.09944C27.0245 3.37162 26.9085 3.6268 26.7301 3.8355C26.5516 4.04419 26.3181 4.19788 26.0565 4.27886C25.8964 4.31956 25.7295 4.32542 25.567 4.29601C25.4044 4.2666 25.2501 4.20262 25.1141 4.10835C24.9941 4.0302 24.8926 3.92647 24.8168 3.8045C24.7411 3.68254 24.693 3.54533 24.6759 3.40259C24.6673 3.31007 24.6952 3.21787 24.7535 3.14575C24.8118 3.07364 24.8959 3.02735 24.9877 3.01681C25.0796 3.00628 25.1719 3.03234 25.2448 3.08941C25.3178 3.14647 25.3656 3.23 25.378 3.32208C25.3854 3.36309 25.4014 3.40203 25.425 3.43633C25.4485 3.47063 25.4791 3.4995 25.5146 3.52101C25.6184 3.59083 25.7455 3.6164 25.868 3.59207C25.9991 3.54267 26.1143 3.45839 26.2015 3.34827C26.2886 3.23815 26.3444 3.10632 26.3628 2.96683C26.3964 2.65648 26.3205 2.3441 26.1482 2.08434C25.9759 1.82459 25.7183 1.63398 25.4204 1.54583C25.1048 1.46852 24.7739 1.48364 24.4666 1.5894C24.1593 1.69516 23.8886 1.88711 23.6864 2.14262C22.8995 3.12785 23.1445 4.71464 23.8655 5.58145C24.27 6.02012 24.7629 6.36703 25.3114 6.599C25.8598 6.83097 26.4512 6.94268 27.046 6.92667H27.1261C27.2194 6.9279 27.3086 6.96572 27.3746 7.03208C27.4406 7.09844 27.4783 7.18808 27.4795 7.28192C27.4795 7.37614 27.4423 7.4665 27.376 7.53312C27.3097 7.59974 27.2198 7.63717 27.1261 7.63717H27.046C26.4509 7.62207 25.8594 7.73466 25.311 7.96744C24.7625 8.20022 24.2697 8.54782 23.8655 8.98711C23.1445 9.85392 22.8995 11.4407 23.6864 12.4259C23.8893 12.6805 24.1601 12.8718 24.4672 12.9775C24.7742 13.0832 25.1048 13.0989 25.4204 13.0228C25.7178 12.9338 25.9749 12.743 26.147 12.4834C26.3191 12.2239 26.3955 11.912 26.3628 11.6018C26.3436 11.4631 26.2875 11.3323 26.2004 11.223C26.1133 11.1138 25.9985 11.0303 25.868 10.9813C25.8066 10.9686 25.7433 10.9683 25.6818 10.9805C25.6203 10.9927 25.5619 11.0171 25.5099 11.0523C25.4757 11.0748 25.4463 11.1039 25.4236 11.1381C25.4009 11.1723 25.3854 11.2108 25.378 11.2512C25.3656 11.3433 25.3178 11.4269 25.2448 11.4839C25.1719 11.541 25.0796 11.567 24.9877 11.5565C24.8959 11.546 24.8118 11.4997 24.7535 11.4276C24.6952 11.3555 24.6673 11.2633 24.6759 11.1707C24.6907 11.0273 24.7379 10.8892 24.8138 10.7669C24.8898 10.6446 24.9925 10.5413 25.1141 10.4649C25.2501 10.3707 25.4044 10.3067 25.567 10.2773C25.7295 10.2479 25.8964 10.2537 26.0565 10.2944C26.3181 10.3754 26.5516 10.5291 26.7301 10.7378C26.9085 10.9465 27.0245 11.2017 27.0648 11.4739C27.1339 11.9542 27.0293 12.4436 26.7699 12.853C26.5105 13.2624 26.1135 13.5647 25.6513 13.7048C25.2008 13.8231 24.7259 13.8072 24.2842 13.6592C23.8425 13.5112 23.4532 13.2375 23.1634 12.8712C22.1268 11.5686 22.4566 9.60763 23.3566 8.53241C23.8396 7.96901 24.4574 7.53864 25.1518 7.28192C24.4577 7.02692 23.8398 6.59815 23.3566 6.03618C22.4566 4.96095 22.1268 2.99999 23.1634 1.69741C23.3923 1.41497 23.6802 1.18665 24.0068 1.02865C24.3333 0.870661 24.6905 0.78685 25.0529 0.783205Z" fill="#E9A49B"/>
<line x1="25.1025" y1="7.2832" x2="199.103" y2="7.2832" stroke="#E9A49B"/>
</svg>
