<svg width="274" height="342" viewBox="0 0 274 342" fill="none" xmlns="http://www.w3.org/2000/svg">
<g opacity="0.5">
<rect width="274" height="342" fill="#D9D9D9"/>
<path d="M149.062 207.188L124.938 198.744L106.241 205.981C104.9 206.517 103.661 206.367 102.521 205.529C101.382 204.691 100.812 203.569 100.812 202.161V145.87C100.812 144.999 101.064 144.228 101.566 143.558C102.069 142.888 102.756 142.385 103.627 142.05L124.938 134.812L149.062 143.256L167.759 136.019C169.1 135.483 170.339 135.633 171.479 136.471C172.618 137.309 173.188 138.431 173.188 139.839V196.13C173.188 197.001 172.936 197.772 172.434 198.442C171.931 199.112 171.244 199.615 170.373 199.95L149.062 207.188ZM145.042 197.336V150.293L128.958 144.664V191.707L145.042 197.336Z" fill="#1C1B1F"/>
</g>
</svg>
