<svg width="180" height="229" viewBox="0 0 180 229" fill="none" xmlns="http://www.w3.org/2000/svg">
    <path
        d="M0.864502 89.6215C0.864502 40.3935 40.7716 0.486328 89.9996 0.486328C139.228 0.486328 179.135 40.3935 179.135 89.6215V228.567H0.864502V89.6215Z"
        fill="#D9D9D9" />
    <g opacity="0.5">
        <mask id="mask0_180_1449" style="mask-type:alpha" maskUnits="userSpaceOnUse" x="19" y="37" width="142"
            height="142">
            <rect x="19" y="37" width="142" height="142" fill="#D9D9D9" />
        </mask>
        <g mask="url(#mask0_180_1449)">
            <path
                d="M90.0001 108C83.4917 108 77.9202 105.682 73.2855 101.048C68.6508 96.413 66.3334 90.8415 66.3334 84.3332C66.3334 77.8248 68.6508 72.2533 73.2855 67.6186C77.9202 62.9839 83.4917 60.6665 90.0001 60.6665C96.5084 60.6665 102.08 62.9839 106.715 67.6186C111.349 72.2533 113.667 77.8248 113.667 84.3332C113.667 90.8415 111.349 96.413 106.715 101.048C102.08 105.682 96.5084 108 90.0001 108ZM42.6667 143.5V138.767C42.6667 135.414 43.5296 132.332 45.2553 129.522C46.981 126.711 49.2737 124.567 52.1334 123.087C58.2473 120.03 64.4598 117.738 70.7709 116.209C77.082 114.681 83.4917 113.917 90.0001 113.917C96.5084 113.917 102.918 114.681 109.229 116.209C115.54 117.738 121.753 120.03 127.867 123.087C130.726 124.567 133.019 126.711 134.745 129.522C136.471 132.332 137.333 135.414 137.333 138.767V143.5C137.333 146.754 136.175 149.54 133.857 151.857C131.54 154.174 128.754 155.333 125.5 155.333H54.5001C51.2459 155.333 48.4602 154.174 46.1428 151.857C43.8254 149.54 42.6667 146.754 42.6667 143.5Z"
                fill="#313131" />
        </g>
    </g>
</svg>
