<svg width="51" height="62" viewBox="0 0 51 62" fill="none" xmlns="http://www.w3.org/2000/svg">
<path d="M24.0004 13.4688C24.3204 13.4688 24.4815 13.2814 24.5627 12.9865C25.3924 8.51338 25.3398 8.40595 30.0004 7.52252C30.3204 7.4688 30.5089 7.28252 30.5089 6.96023C30.5089 6.63909 30.3215 6.45166 29.9992 6.39795C25.3661 5.4608 25.4998 5.35337 24.5627 0.932803C24.4827 0.639089 24.3215 0.45166 24.0004 0.45166C23.6781 0.45166 23.5181 0.639089 23.4369 0.932803C22.4998 5.35337 22.6598 5.45966 18.0004 6.39795C17.7055 6.45052 17.4907 6.63795 17.4907 6.96023C17.4907 7.28137 17.7055 7.4688 17.9992 7.52252C22.6609 8.45966 22.6072 8.51338 23.4369 12.9865C23.5169 13.2814 23.6792 13.4688 24.0004 13.4688ZM11.0358 31.8974C11.5444 31.8974 11.8929 31.5762 11.9467 31.0939C12.9101 23.9419 13.1512 23.9419 20.5444 22.5225C21.0267 22.4425 21.3752 22.1202 21.3752 21.6117C21.3752 21.1294 21.0267 20.7819 20.5444 20.7008C13.1512 19.6837 12.8838 19.4425 11.9467 12.1568C11.8929 11.6745 11.5444 11.3259 11.0358 11.3259C10.5535 11.3259 10.2049 11.6745 10.1512 12.1831C9.2678 19.3614 8.89294 19.3351 1.55351 20.7008C1.07123 20.8082 0.722656 21.1294 0.722656 21.6117C0.722656 22.1477 1.07123 22.4425 1.6598 22.5225C8.94666 23.7008 9.2678 23.8882 10.1512 31.0402C10.2049 31.5762 10.5535 31.8974 11.0358 31.8974ZM29.1958 61.5499C29.8929 61.5499 30.4015 61.0402 30.5352 60.3168C32.4369 45.6391 34.4998 43.4151 49.0175 41.8082C49.7672 41.7282 50.2769 41.1659 50.2769 40.4688C50.2769 39.7717 49.7672 39.2368 49.0175 39.1294C34.4998 37.5225 32.4369 35.2997 30.5352 20.6208C30.4015 19.8974 29.8929 19.4151 29.1958 19.4151C28.4998 19.4151 27.9912 19.8974 27.8838 20.6208C25.9821 35.2997 23.8929 37.5225 9.40151 39.1294C8.62437 39.2368 8.1158 39.7728 8.1158 40.4688C8.1158 41.1659 8.62437 41.7282 9.40151 41.8082C23.8655 43.7099 25.8747 45.6654 27.8838 60.3168C27.9912 61.0402 28.4998 61.5499 29.1958 61.5499Z" fill="url(#paint0_linear_435_15298)"/>
<defs>
<linearGradient id="paint0_linear_435_15298" x1="25.4998" y1="0.45166" x2="25.4998" y2="61.5499" gradientUnits="userSpaceOnUse">
<stop stop-color="#E9A49B"/>
<stop offset="0.43" stop-color="#FFBBD2"/>
<stop offset="1" stop-color="#F1DFC1"/>
</linearGradient>
</defs>
</svg>
