<svg width="36" height="37" viewBox="0 0 36 37" fill="none" xmlns="http://www.w3.org/2000/svg">
<circle cx="18" cy="18.5" r="18" fill="#25B73D"/>
<mask id="mask0_2091_50349" style="mask-type:alpha" maskUnits="userSpaceOnUse" x="0" y="0" width="36" height="37">
<rect y="0.5" width="36" height="36" fill="#D9D9D9"/>
</mask>
<g mask="url(#mask0_2091_50349)">
<path d="M14.3246 23.225L27.0371 10.5125C27.3371 10.2125 27.6871 10.0625 28.0871 10.0625C28.4871 10.0625 28.8371 10.2125 29.1371 10.5125C29.4371 10.8125 29.5871 11.1688 29.5871 11.5813C29.5871 11.9938 29.4371 12.35 29.1371 12.65L15.3746 26.45C15.0746 26.75 14.7246 26.9 14.3246 26.9C13.9246 26.9 13.5746 26.75 13.2746 26.45L6.82458 20C6.52458 19.7 6.38083 19.3438 6.39333 18.9313C6.40583 18.5188 6.56208 18.1625 6.86208 17.8625C7.16208 17.5625 7.51833 17.4125 7.93083 17.4125C8.34333 17.4125 8.69958 17.5625 8.99958 17.8625L14.3246 23.225Z" fill="white"/>
</g>
</svg>
