<svg width="59" height="59" viewBox="0 0 59 59" fill="none" xmlns="http://www.w3.org/2000/svg">
<circle cx="29.5" cy="29.5" r="29.5" fill="white"/>
<mask id="mask0_2512_24359" style="mask-type:alpha" maskUnits="userSpaceOnUse" x="0" y="0" width="59" height="59">
<rect width="59" height="59" fill="#D9D9D9"/>
</mask>
<g mask="url(#mask0_2512_24359)">
<path d="M23.4765 37.2438L44.3108 16.4094C44.8025 15.9177 45.3761 15.6719 46.0317 15.6719C46.6872 15.6719 47.2608 15.9177 47.7525 16.4094C48.2442 16.901 48.49 17.4849 48.49 18.1609C48.49 18.837 48.2442 19.4208 47.7525 19.9125L25.1973 42.5292C24.7056 43.0208 24.132 43.2667 23.4765 43.2667C22.8209 43.2667 22.2473 43.0208 21.7556 42.5292L11.1848 31.9583C10.6931 31.4667 10.4575 30.8828 10.478 30.2068C10.4985 29.5307 10.7546 28.9469 11.2463 28.4552C11.7379 27.9635 12.3218 27.7177 12.9978 27.7177C13.6739 27.7177 14.2577 27.9635 14.7494 28.4552L23.4765 37.2438Z" fill="#67AB88"/>
</g>
</svg>
