<svg width="373" height="235" viewBox="0 0 373 235" fill="none" xmlns="http://www.w3.org/2000/svg">
    <path
        d="M333.02 235H39.9802C39.9802 215.634 22.0795 199.934 0 199.934V35.0662C22.0795 35.0662 39.9802 19.3657 39.9802 0H333.02C333.02 19.3657 350.921 35.0662 373 35.0662V199.93C350.921 199.93 333.02 215.631 333.02 234.997V235Z"
        fill="#313131" />
    <path
        d="M318.378 17.5H54.1216H53.6216V18C53.6216 34.036 37.7685 47.1948 18 47.1948H17.5V47.6948V187.305V187.805H18C37.7685 187.805 53.6216 200.964 53.6216 217V217.5H54.1216H318.878H319.378V217C319.378 200.964 335.232 187.805 355 187.805H355.5V187.305V47.6948V47.1948H355C335.232 47.1948 319.378 34.036 319.378 18H319.027L319.025 17.7887H318.882V17.5H318.878H318.378ZM54.9623 18.7887H318.041C318.542 35.0847 334.56 48.1113 354.152 48.477V186.526C334.56 186.892 318.542 199.918 318.041 216.214H54.9623C54.4612 199.918 38.443 186.894 18.8512 186.526V48.477C38.4431 48.1113 54.4612 35.0847 54.9623 18.7887Z"
        stroke="#AA8B84" />
</svg>