<svg width="216" height="13" viewBox="0 0 216 13" fill="none" xmlns="http://www.w3.org/2000/svg">
<path d="M202.781 3.00777C202.703 3.0063 202.628 3.03497 202.569 3.08829C202.506 3.14675 202.466 3.22757 202.457 3.31509C202.448 3.40261 202.47 3.49058 202.519 3.56195C203.455 4.72167 204.569 5.7094 205.814 6.48447C204.552 7.29424 203.44 8.33738 202.533 9.5633C202.487 9.63776 202.469 9.72724 202.483 9.81461C202.496 9.90198 202.54 9.98112 202.605 10.037C202.675 10.0869 202.761 10.1069 202.845 10.0928C202.929 10.0787 203.004 10.0317 203.056 9.96119C204.036 8.64867 205.266 7.56464 206.667 6.77814C206.725 6.74905 206.773 6.70363 206.807 6.64709C206.84 6.59054 206.858 6.52515 206.858 6.45842C206.858 6.39168 206.84 6.3263 206.807 6.26975C206.773 6.2132 206.725 6.16779 206.667 6.1387C205.282 5.37354 204.048 4.34012 203.029 3.09303C202.996 3.06132 202.957 3.03735 202.914 3.02266C202.871 3.00797 202.826 3.00289 202.781 3.00777Z" fill="#1E1E1E"/>
<path d="M204.865 0.478484C204.813 0.481203 204.762 0.496781 204.717 0.523932C204.671 0.551082 204.633 0.589053 204.604 0.634803C204.568 0.691643 200.993 6.14828 196.583 6.14828C196.493 6.14828 196.407 6.18571 196.343 6.25233C196.28 6.31896 196.244 6.40932 196.244 6.50353C196.244 6.59775 196.28 6.68811 196.343 6.75474C196.407 6.82136 196.493 6.85878 196.583 6.85878C201.015 6.85878 204.563 12.5428 204.599 12.5949C204.627 12.6418 204.666 12.6809 204.711 12.7089C204.757 12.7369 204.808 12.7531 204.861 12.7559C204.913 12.7595 204.965 12.7507 205.014 12.7302C205.062 12.7097 205.106 12.6781 205.141 12.6375C209.772 7.04826 214.958 6.86352 215.008 6.85878C215.097 6.85631 215.182 6.8173 215.245 6.75005C215.307 6.68281 215.342 6.59265 215.342 6.49879C215.337 6.40574 215.3 6.31791 215.236 6.25291C215.172 6.18791 215.088 6.15055 214.999 6.14828C214.769 6.14828 209.695 6.07722 205.154 0.601643C205.119 0.558321 205.074 0.52452 205.024 0.503087C204.974 0.481654 204.919 0.473212 204.865 0.478484ZM198.664 6.51299C201.783 5.48513 204.139 2.46789 204.897 1.40214C207.79 4.74149 210.806 6.03933 212.783 6.54615C209.728 7.47759 206.992 9.31083 204.902 11.8275C204.148 10.7239 201.778 7.58347 198.664 6.51299Z" fill="#1E1E1E"/>
<path d="M196.565 6.14822H167.022C166.932 6.14822 166.846 6.18564 166.783 6.25226C166.719 6.31889 166.684 6.40925 166.684 6.50347C166.684 6.59768 166.719 6.68804 166.783 6.75467C166.846 6.82129 166.932 6.85872 167.022 6.85872H196.565C196.654 6.85872 196.741 6.82129 196.804 6.75467C196.868 6.68804 196.903 6.59768 196.903 6.50347C196.903 6.40925 196.868 6.31889 196.804 6.25226C196.741 6.18564 196.654 6.14822 196.565 6.14822Z" fill="#1E1E1E"/>
<path d="M191.442 1.90735e-06C191.248 -0.000254631 191.055 0.0284786 190.869 0.0852871C190.426 0.225456 190.045 0.527705 189.797 0.9371C189.548 1.3465 189.448 1.83584 189.514 2.31624C189.553 2.58842 189.664 2.8436 189.835 3.05229C190.006 3.26099 190.23 3.41468 190.48 3.49566C190.634 3.53636 190.794 3.54221 190.949 3.5128C191.105 3.4834 191.253 3.41941 191.383 3.32515C191.498 3.247 191.595 3.14327 191.668 3.0213C191.74 2.89934 191.787 2.76213 191.803 2.61939C191.811 2.52687 191.784 2.43467 191.729 2.36255C191.673 2.29043 191.592 2.24414 191.504 2.23361C191.416 2.22308 191.328 2.24914 191.258 2.3062C191.188 2.36327 191.142 2.4468 191.13 2.53887C191.123 2.57988 191.108 2.61883 191.085 2.65313C191.063 2.68743 191.033 2.71629 190.999 2.73781C190.9 2.80763 190.778 2.8332 190.661 2.80887C190.535 2.75947 190.425 2.67519 190.341 2.56507C190.258 2.45495 190.205 2.32312 190.187 2.18363C190.155 1.87327 190.227 1.56089 190.392 1.30114C190.558 1.04138 190.804 0.85078 191.09 0.762627C191.392 0.685315 191.709 0.700435 192.003 0.806194C192.298 0.911955 192.557 1.10391 192.751 1.35942C193.505 2.34465 193.27 3.93143 192.579 4.79824C192.192 5.23691 191.72 5.58383 191.194 5.8158C190.669 6.04777 190.102 6.15947 189.532 6.14347H189.456C189.366 6.14469 189.281 6.18252 189.218 6.24887C189.154 6.31523 189.118 6.40488 189.117 6.49872C189.117 6.59294 189.153 6.6833 189.216 6.74992C189.28 6.81654 189.366 6.85397 189.456 6.85397H189.532C190.103 6.83887 190.669 6.95146 191.195 7.18424C191.72 7.41702 192.192 7.76462 192.579 8.2039C193.27 9.07071 193.505 10.6575 192.751 11.6427C192.556 11.8973 192.297 12.0886 192.003 12.1943C191.709 12.3 191.392 12.3157 191.09 12.2395C190.805 12.1506 190.559 11.9598 190.394 11.7002C190.229 11.4407 190.156 11.1288 190.187 10.8186C190.205 10.6799 190.259 10.5491 190.343 10.4398C190.426 10.3306 190.536 10.2471 190.661 10.198C190.72 10.1854 190.78 10.1851 190.839 10.1973C190.898 10.2095 190.954 10.2339 191.004 10.2691C191.037 10.2915 191.065 10.3207 191.087 10.3549C191.108 10.3891 191.123 10.4276 191.13 10.468C191.142 10.5601 191.188 10.6436 191.258 10.7007C191.328 10.7578 191.416 10.7838 191.504 10.7733C191.592 10.7628 191.673 10.7165 191.729 10.6444C191.784 10.5723 191.811 10.4801 191.803 10.3875C191.789 10.2441 191.743 10.106 191.671 9.98368C191.598 9.86137 191.5 9.7581 191.383 9.68174C191.253 9.58748 191.105 9.52352 190.949 9.49411C190.794 9.4647 190.634 9.47053 190.48 9.51123C190.23 9.59221 190.006 9.74593 189.835 9.95462C189.664 10.1633 189.553 10.4185 189.514 10.6907C189.448 11.171 189.548 11.6604 189.797 12.0698C190.045 12.4792 190.426 12.7815 190.869 12.9216C191.3 13.0399 191.755 13.024 192.178 12.876C192.601 12.728 192.974 12.4543 193.252 12.088C194.245 10.7854 193.929 8.82443 193.067 7.7492C192.604 7.18581 192.012 6.75544 191.347 6.49872C192.012 6.24371 192.604 5.81495 193.067 5.25297C193.929 4.17775 194.245 2.21679 193.252 0.914204C193.033 0.631767 192.757 0.403443 192.444 0.245451C192.131 0.0874577 191.789 0.00364685 191.442 1.90735e-06Z" fill="#1E1E1E"/>
<path d="M12.5608 3.00777C12.6386 3.0063 12.7141 3.03497 12.7729 3.08829C12.8357 3.14675 12.8755 3.22757 12.8847 3.31509C12.8939 3.40261 12.8717 3.49058 12.8226 3.56195C11.8868 4.72167 10.7732 5.7094 9.52755 6.48447C10.7897 7.29424 11.9015 8.33738 12.8091 9.5633C12.8546 9.63776 12.8724 9.72724 12.8591 9.81461C12.8458 9.90198 12.8022 9.98112 12.7368 10.037C12.6665 10.0869 12.5807 10.1069 12.4969 10.0928C12.413 10.0787 12.3374 10.0317 12.2855 9.96119C11.3054 8.64867 10.0756 7.56464 8.67444 6.77814C8.61721 6.74905 8.56895 6.70363 8.53518 6.64709C8.5014 6.59054 8.48347 6.52515 8.48347 6.45842C8.48347 6.39168 8.5014 6.3263 8.53518 6.26975C8.56895 6.2132 8.61721 6.16779 8.67444 6.1387C10.0595 5.37354 11.2939 4.34012 12.3125 3.09303C12.3459 3.06132 12.3852 3.03735 12.428 3.02266C12.4708 3.00797 12.516 3.00289 12.5608 3.00777Z" fill="#1E1E1E"/>
<path d="M10.4764 0.478484C10.5286 0.481203 10.5795 0.496781 10.625 0.523932C10.6705 0.551082 10.7092 0.589053 10.7382 0.634803C10.7743 0.691643 14.3492 6.14828 18.7591 6.14828C18.8489 6.14828 18.935 6.18571 18.9985 6.25233C19.062 6.31896 19.0977 6.40932 19.0977 6.50353C19.0977 6.59775 19.062 6.68811 18.9985 6.75474C18.935 6.82136 18.8489 6.85878 18.7591 6.85878C14.3266 6.85878 10.7788 12.5428 10.7427 12.5949C10.7145 12.6418 10.6761 12.6809 10.6305 12.7089C10.5849 12.7369 10.5336 12.7531 10.4809 12.7559C10.4287 12.7595 10.3765 12.7507 10.3281 12.7302C10.2796 12.7097 10.2362 12.6781 10.201 12.6375C5.5699 7.04826 0.383589 6.86352 0.333939 6.85878C0.24453 6.85631 0.159569 6.8173 0.0971756 6.75005C0.0347805 6.68281 -0.000106812 6.59265 -7.62939e-05 6.49879C0.00445175 6.40574 0.0422935 6.31791 0.105907 6.25291C0.169521 6.18791 0.254213 6.15055 0.342974 6.14828C0.573177 6.14828 5.64665 6.07722 10.1875 0.601643C10.2227 0.558321 10.2673 0.52452 10.3176 0.503087C10.3679 0.481654 10.4223 0.473212 10.4764 0.478484ZM16.6783 6.51299C13.5593 5.48513 11.2031 2.46789 10.4448 1.40214C7.55146 4.74149 4.53625 6.03933 2.55922 6.54615C5.61429 7.47759 8.3499 9.31083 10.4403 11.8275C11.1941 10.7239 13.5638 7.58347 16.6783 6.51299Z" fill="#1E1E1E"/>
<path d="M18.7771 6.14822H48.3197C48.4095 6.14822 48.4956 6.18564 48.5591 6.25226C48.6225 6.31889 48.6582 6.40925 48.6582 6.50347C48.6582 6.59768 48.6225 6.68804 48.5591 6.75467C48.4956 6.82129 48.4095 6.85872 48.3197 6.85872H18.7771C18.6873 6.85872 18.6012 6.82129 18.5377 6.75467C18.4742 6.68804 18.4385 6.59768 18.4385 6.50347C18.4385 6.40925 18.4742 6.31889 18.5377 6.25226C18.6012 6.18564 18.6873 6.14822 18.7771 6.14822Z" fill="#1E1E1E"/>
<path d="M23.9 1.90735e-06C24.094 -0.000254631 24.287 0.0284786 24.4733 0.0852871C24.9161 0.225456 25.2963 0.527705 25.5448 0.9371C25.7933 1.3465 25.8936 1.83584 25.8274 2.31624C25.7888 2.58842 25.6776 2.8436 25.5067 3.05229C25.3358 3.26099 25.1121 3.41468 24.8615 3.49566C24.7081 3.53636 24.5482 3.54221 24.3925 3.5128C24.2368 3.4834 24.0889 3.41941 23.9587 3.32515C23.8437 3.247 23.7465 3.14327 23.6739 3.0213C23.6014 2.89934 23.5553 2.76213 23.5389 2.61939C23.5307 2.52687 23.5574 2.43467 23.6133 2.36255C23.6691 2.29043 23.7497 2.24414 23.8376 2.23361C23.9256 2.22308 24.014 2.24914 24.0839 2.3062C24.1538 2.36327 24.1996 2.4468 24.2115 2.53887C24.2186 2.57988 24.2339 2.61883 24.2565 2.65313C24.2791 2.68743 24.3084 2.71629 24.3424 2.73781C24.4418 2.80763 24.5636 2.8332 24.6809 2.80887C24.8065 2.75947 24.9169 2.67519 25.0004 2.56507C25.0838 2.45495 25.1372 2.32312 25.1548 2.18363C25.1871 1.87327 25.1143 1.56089 24.9493 1.30114C24.7843 1.04138 24.5375 0.85078 24.2521 0.762627C23.9498 0.685315 23.6328 0.700435 23.3384 0.806194C23.0441 0.911955 22.7847 1.10391 22.591 1.35942C21.8372 2.34465 22.072 3.93143 22.7626 4.79824C23.1501 5.23691 23.6223 5.58383 24.1477 5.8158C24.673 6.04777 25.2396 6.15947 25.8094 6.14347H25.8861C25.9755 6.14469 26.0609 6.18252 26.1242 6.24887C26.1874 6.31523 26.2234 6.40488 26.2246 6.49872C26.2246 6.59294 26.1889 6.6833 26.1255 6.74992C26.062 6.81654 25.9759 6.85397 25.8861 6.85397H25.8094C25.2393 6.83887 24.6726 6.95146 24.1473 7.18424C23.6219 7.41702 23.1498 7.76462 22.7626 8.2039C22.072 9.07071 21.8372 10.6575 22.591 11.6427C22.7854 11.8973 23.0448 12.0886 23.339 12.1943C23.6331 12.3 23.9498 12.3157 24.2521 12.2395C24.537 12.1506 24.7833 11.9598 24.9482 11.7002C25.1131 11.4407 25.1862 11.1288 25.1548 10.8186C25.1365 10.6799 25.0827 10.5491 24.9993 10.4398C24.9158 10.3306 24.8059 10.2471 24.6809 10.198C24.6221 10.1854 24.5615 10.1851 24.5026 10.1973C24.4436 10.2095 24.3877 10.2339 24.3379 10.2691C24.305 10.2915 24.2769 10.3207 24.2552 10.3549C24.2335 10.3891 24.2186 10.4276 24.2115 10.468C24.1996 10.5601 24.1538 10.6436 24.0839 10.7007C24.014 10.7578 23.9256 10.7838 23.8376 10.7733C23.7497 10.7628 23.6691 10.7165 23.6133 10.6444C23.5574 10.5723 23.5307 10.4801 23.5389 10.3875C23.5531 10.2441 23.5983 10.106 23.671 9.98368C23.7438 9.86137 23.8422 9.7581 23.9587 9.68174C24.0889 9.58748 24.2368 9.52352 24.3925 9.49411C24.5482 9.4647 24.7081 9.47053 24.8615 9.51123C25.1121 9.59221 25.3358 9.74593 25.5067 9.95462C25.6776 10.1633 25.7888 10.4185 25.8274 10.6907C25.8936 11.171 25.7933 11.6604 25.5448 12.0698C25.2963 12.4792 24.9161 12.7815 24.4733 12.9216C24.0418 13.0399 23.5868 13.024 23.1637 12.876C22.7406 12.728 22.3676 12.4543 22.09 12.088C21.097 10.7854 21.4129 8.82443 22.2751 7.7492C22.7378 7.18581 23.3296 6.75544 23.9948 6.49872C23.3299 6.24371 22.738 5.81495 22.2751 5.25297C21.4129 4.17775 21.097 2.21679 22.09 0.914204C22.3093 0.631767 22.5851 0.403443 22.8979 0.245451C23.2108 0.0874577 23.5529 0.00364685 23.9 1.90735e-06Z" fill="#1E1E1E"/>
<line x1="29.291" y1="6.5" x2="203.291" y2="6.5" stroke="black"/>
</svg>
