<svg width="106" height="106" viewBox="0 0 106 106" fill="none" xmlns="http://www.w3.org/2000/svg">
<path d="M0.00195313 103.237C1.3244 99.9141 2.67339 96.5997 3.96488 93.2633C6.63632 86.3633 9.2768 79.4523 11.9328 72.5479C14.2835 66.4352 16.6321 60.3224 18.9851 54.2119C20.8582 49.3473 22.7003 44.4695 24.6199 39.6225C25.6659 36.9851 28.1471 36.1405 31.3692 37.0932C35.2349 38.2354 38.614 40.2884 41.7653 42.6943C44.5805 44.8421 47.2364 47.1995 49.9388 49.4906C50.9671 50.3639 51.9667 51.2768 52.9132 52.2361C57.931 57.3344 62.6326 62.704 66.2704 68.8895C67.6504 71.2358 68.9396 73.6748 69.0878 76.515C69.236 79.3685 67.9644 80.3719 65.8502 81.1944C59.5343 83.6466 53.214 86.0899 46.8914 88.5244C40.5357 90.9743 34.1734 93.4111 27.8154 95.8522C21.128 98.419 14.4405 100.986 7.7531 103.553C6.16528 104.163 4.58188 104.792 2.98742 105.387C1.44382 105.963 0.952879 105.778 0.00195312 104.338L0.00195313 103.237ZM59.1562 80.0521C58.9682 79.8933 58.8731 79.7765 58.7493 79.7125C53.5767 76.9847 48.8242 73.6307 44.5009 69.7341C41.8515 67.3481 39.3747 64.7196 37.1323 61.9477C33.8748 57.921 30.896 53.6694 27.8044 49.5105C27.1387 48.6152 26.4996 47.7044 25.7234 46.6261C24.9892 48.5623 24.3324 50.236 23.7353 51.9318C23.6159 52.2692 23.5938 52.7741 23.7685 53.0564C27.006 58.3334 30.7014 63.2818 34.9717 67.7649C37.004 69.8995 39.2553 71.8312 41.4557 73.8027C44.9476 76.9318 48.8088 79.567 52.8004 82.0103C53.0194 82.1448 53.3953 82.1779 53.6408 82.0919C55.463 81.4436 57.2698 80.7534 59.154 80.0499L59.1562 80.0521ZM15.8669 72.1223C17.9833 74.5789 19.9847 77.256 22.3487 79.5648C25.8804 83.0137 29.662 86.2046 33.3485 89.4925C33.5011 89.6292 33.804 89.7571 33.9655 89.6976C35.6794 89.0603 37.3778 88.3833 39.2221 87.6622C31.3582 81.4061 24.8388 73.9989 18.0894 66.5609C17.3176 68.4904 16.6166 70.2479 15.8669 72.1245V72.1223ZM10.7828 85.4107C10.2454 86.8374 9.61073 88.4296 9.06671 90.0504C8.9694 90.3393 9.14632 90.8553 9.37631 91.0934C10.9553 92.7297 12.6028 94.2997 14.1818 95.936C14.8298 96.6086 15.3495 97.1224 16.3601 96.4454C16.9881 96.0242 17.8196 95.9161 18.545 95.6273C19.1731 95.3759 19.779 95.0671 20.3938 94.7849C20.2456 94.84 20.0997 94.8951 19.9515 94.9503C16.8953 91.7704 13.839 88.5883 10.7872 85.4107H10.7828Z" fill="url(#paint0_linear_488_20235)"/>
<path d="M94.0173 0C94.5945 0.392521 95.2159 0.732117 95.74 1.18638C97.3013 2.54036 98.9334 2.1721 100.649 1.55244C102.363 0.932788 103.933 1.60757 104.424 3.29232C104.654 4.08178 104.566 5.09395 104.276 5.87899C103.624 7.65857 103.914 9.15808 105.137 10.5385C106.098 11.6279 106.22 12.876 105.681 14.1528C105.119 15.4803 103.942 15.9699 102.593 15.8287C100.603 15.6192 99.0926 16.2742 98.1417 18.0229C97.3279 19.5202 95.9811 19.8201 94.537 19.5467C93.3097 19.3129 92.5202 18.2677 92.3123 17.1121C91.9518 15.1121 90.793 14.0668 88.9111 13.661C87.3852 13.3325 86.5559 12.3137 86.3192 10.8803C86.1047 9.57927 86.7483 8.61782 87.9049 7.96067C88.367 7.69605 88.7452 7.28148 89.1587 6.93527C89.8156 6.38839 90.1274 5.72022 90.061 4.83374C90.0057 4.11265 90.0234 3.3673 90.1473 2.65723C90.3773 1.32972 91.2795 0.522626 92.4715 0C92.9868 0 93.502 0 94.0173 0Z" fill="url(#paint1_linear_488_20235)"/>
<path d="M0.00221146 6.16353C0.599304 5.60342 1.119 4.89997 1.81339 4.51627C2.79749 3.9738 2.97662 3.0785 3.05402 2.19422C3.13142 1.30554 3.39458 0.617523 4.22388 0.324235C5.07971 0.022126 6.00631 0.108128 6.6211 0.815988C7.51895 1.8458 8.48978 1.92298 9.73704 1.57898C11.1922 1.17764 12.4991 2.6551 11.9419 4.04216C11.3868 5.42921 11.2939 6.70821 12.1409 8.00485C12.6252 8.74579 12.4018 9.46468 11.8512 10.0733C11.3138 10.6665 10.7278 10.9818 9.83655 10.6555C9.02495 10.3578 8.23325 10.5761 7.56981 11.2575C7.07887 11.7625 6.51273 12.338 5.87362 12.5233C4.5755 12.9025 3.50073 11.9543 3.33045 10.36C3.2442 9.54627 2.9346 8.96631 2.18713 8.70389C1.12342 8.32901 0.404696 7.6432 0 6.60677V6.16574L0.00221146 6.16353Z" fill="url(#paint2_linear_488_20235)"/>
<path d="M47.4509 0C48.3422 0.493959 48.6296 1.37162 48.7513 2.27133C48.8795 3.21514 49.4014 3.81274 50.2042 4.11706C51.0401 4.4346 51.6372 4.95943 51.5974 5.80402C51.5554 6.69049 51.1662 7.48656 50.1533 7.81734C49.1206 8.15473 48.6429 9.01916 48.5766 10.0291C48.5191 10.8869 48.2028 11.6367 47.4111 11.7425C46.7565 11.8285 45.8565 11.6058 45.3832 11.1758C44.4412 10.318 43.5942 9.87918 42.2761 10.2783C41.8316 10.4128 40.9736 9.96077 40.6551 9.52414C40.3212 9.06326 40.1421 8.17458 40.3676 7.69164C40.9603 6.41926 41.009 5.25713 40.3477 4.04208C39.9939 3.39156 40.0249 2.71236 40.6109 2.29117C41.1173 1.92732 41.8891 1.46203 42.3646 1.61198C43.6561 2.02214 44.5141 1.6186 45.3346 0.707861C45.6022 0.410162 46.0069 0.233748 46.3496 0.00220517C46.7167 0.00220517 47.0861 0.00220517 47.4532 0.00220517L47.4509 0Z" fill="url(#paint3_linear_488_20235)"/>
<path d="M0.00195313 33.0178C0.809134 31.9395 3.40759 31.3904 4.489 32.1997C4.90696 32.5129 5.34483 33.3023 5.22099 33.7081C5.02859 34.3409 4.47352 35.0775 3.88306 35.3355C2.46551 35.9573 0.913073 35.3664 0.00195312 34.1182L0.00195313 33.0178Z" fill="url(#paint4_linear_488_20235)"/>
<path d="M35.5341 32.9918C35.5341 31.2144 35.5629 29.4392 35.5275 27.6619C35.4435 23.2537 34.4372 19.0705 31.7083 15.5467C29.5123 12.713 26.5379 10.7813 23.0814 9.71839C21.8983 9.35453 20.64 9.22884 19.4082 9.03258C18.4374 8.87822 17.5926 7.9322 17.6589 7.00823C17.7231 6.10852 18.4551 5.48225 19.5785 5.51753C23.2252 5.62779 26.4804 6.97956 29.5013 8.88483C34.7668 12.2058 37.6461 17.1432 38.5793 23.1721C39.0039 25.9154 38.9486 28.7336 39.057 31.5209C39.0857 32.2685 38.9398 33.0249 38.8358 33.7724C38.7009 34.7228 37.9822 35.2256 36.9097 35.2278C35.8327 35.2278 35.5142 34.5067 35.3218 33.6555C35.2754 33.446 35.3152 33.2167 35.3152 32.9962C35.3882 32.9962 35.4611 32.9962 35.5363 32.994L35.5341 32.9918Z" fill="url(#paint5_linear_488_20235)"/>
<path d="M58.4354 49.5016C57.3916 49.4884 56.9692 48.9172 56.633 48.2314C56.2748 47.4971 56.5799 46.9127 57.0974 46.3945C59.3288 44.1651 61.5624 41.9378 63.7981 39.7084C69.643 33.8801 75.4768 28.0386 81.3571 22.2434C81.8193 21.7892 82.5933 21.443 83.228 21.4341C83.688 21.4275 84.3492 21.9722 84.5659 22.4375C84.7583 22.8477 84.504 23.4982 84.3602 24.0186C84.3005 24.2347 84.0219 24.3891 83.8405 24.5699C75.7864 32.6011 67.7367 40.6346 59.6716 48.6526C59.3244 48.9988 58.8489 49.2193 58.4354 49.4972V49.5016Z" fill="url(#paint6_linear_488_20235)"/>
<path d="M77.3697 67.9236C82.215 67.9148 86.6158 69.2577 90.6141 71.9701C93.8495 74.1642 95.9482 77.2404 97.2817 80.815C97.9451 82.5968 98.2348 84.5197 98.6373 86.3919C98.8098 87.1946 98.4736 87.8473 97.6267 88.0392C96.5497 88.284 95.6938 87.8054 95.3975 86.8285C94.9862 85.4768 94.6722 84.0919 94.221 82.7534C92.3258 77.1324 88.4535 73.6967 82.7015 72.1796C80.1871 71.5158 77.6793 71.5489 75.145 71.5489C74.6496 71.5489 74.1543 71.7363 73.6567 71.7474C72.7367 71.7694 72.0224 71.1233 71.9406 70.3162C71.8013 68.9424 72.3365 68.4771 73.4754 68.2654C74.7492 68.0294 76.0672 68.025 77.3675 67.9214L77.3697 67.9236Z" fill="url(#paint7_linear_488_20235)"/>
<path d="M61.5773 24.528C61.5707 27.9151 60.2726 30.4929 58.499 32.8679C56.8581 35.0665 54.755 36.7931 52.5391 38.3786C51.3671 39.2166 50.6948 39.1416 49.8986 38.2066C49.0848 37.2496 49.3369 36.3058 50.5687 35.4369C52.8664 33.8205 54.9297 31.9528 56.4932 29.5976C58.8351 26.0716 58.5454 22.1309 55.4605 19.1032C54.4631 18.1241 54.4189 17.3545 55.2747 16.5232C56.0266 15.7911 57.0063 15.9454 57.9262 16.7018C59.66 18.1285 60.5955 20.0316 61.2722 22.0692C61.5596 22.938 61.5132 23.9193 61.5818 24.5257L61.5773 24.528Z" fill="url(#paint8_linear_488_20235)"/>
<path d="M96.2206 63.7407C96.4639 62.7043 95.8867 62.1067 95.0928 61.6215C94.2679 61.1188 93.7416 60.3271 94.0733 59.4494C94.2967 58.8563 94.9844 58.219 95.5948 58.0381C96.6231 57.7316 97.1605 57.1076 97.5121 56.2145C98.3967 53.974 99.8231 53.6939 101.265 55.6014C101.847 56.3732 102.45 56.5937 103.344 56.596C104.182 56.596 105.086 56.6687 105.535 57.5861C105.955 58.4439 105.84 59.3105 105.212 59.9743C104.299 60.9379 104.624 61.9832 104.863 63.013C105.239 64.6316 104.098 65.8489 102.528 65.2954C101.325 64.8698 100.376 64.808 99.3808 65.7606C98.8589 66.259 98.0672 66.5391 97.2998 66.0429C96.4639 65.5004 96.0614 64.7485 96.2229 63.7429L96.2206 63.7407Z" fill="url(#paint9_linear_488_20235)"/>
<path d="M94.4534 101.804C94.5087 101.687 94.6613 101.259 94.9023 100.891C95.4839 100 95.5304 99.0696 95.1058 98.1368C94.7497 97.354 94.8116 96.677 95.38 96.0419C95.9594 95.3936 96.6272 95.1863 97.4742 95.5391C98.4981 95.9647 99.4203 95.85 100.221 94.9724C100.818 94.3174 101.694 94.1763 102.395 94.6063C102.837 94.8776 103.151 95.5722 103.255 96.1279C103.476 97.3055 103.863 98.2404 104.964 98.9218C106.426 99.8282 106.258 101.577 104.63 102.185C103.385 102.653 102.782 103.434 102.375 104.642C102.185 105.204 101.526 105.835 100.962 105.978C100.493 106.097 99.5972 105.705 99.3385 105.273C98.5711 103.996 97.4654 103.85 96.1805 103.89C95.1013 103.923 94.46 103.242 94.4512 101.806L94.4534 101.804Z" fill="url(#paint10_linear_488_20235)"/>
<path d="M66.4453 55.6983C66.934 54.9574 67.3586 54.0974 67.9778 53.4116C70.6957 50.3993 73.8117 47.9979 77.8056 46.8071C81.1006 45.8236 84.1502 46.3881 87.1423 47.7729C88.2038 48.2625 88.5422 49.2747 88.0689 50.1854C87.5691 51.1513 86.6558 51.4423 85.5744 50.9131C81.4235 48.8843 77.6419 49.7929 74.2097 52.4942C72.6529 53.7203 71.2862 55.2154 69.9682 56.7083C68.7408 58.0953 67.6284 57.8991 66.9694 56.9861C66.7527 56.6884 66.6775 56.2871 66.4453 55.6983Z" fill="url(#paint11_linear_488_20235)"/>
<path d="M67.0974 2.68157C67.0952 0.853477 67.7697 0.0177167 69.1408 0.260286C69.5654 0.335262 70.0276 0.613113 70.3173 0.935069C70.8458 1.51944 70.8083 4.10831 70.22 4.64196C69.7821 5.0389 68.9705 5.55491 68.6101 5.39172C67.9886 5.10946 67.5309 4.37734 67.124 3.75769C66.9559 3.50189 67.0952 3.04542 67.0952 2.68157H67.0974Z" fill="url(#paint12_linear_488_20235)"/>
<path d="M69.5698 99.1028C68.8754 98.7389 68.0394 98.514 67.5153 97.9847C66.5732 97.0299 67.219 95.4995 68.5613 95.3429C69.2115 95.2657 69.8772 95.3032 70.5362 95.3187C71.6397 95.3451 72.3407 95.9516 72.3783 96.8777C72.4159 97.7995 71.5601 98.7433 70.5915 98.8293C70.3018 98.8558 70.0054 98.8337 69.7135 98.8337L69.5698 99.105V99.1028Z" fill="url(#paint13_linear_488_20235)"/>
<path d="M74.1616 103.079C74.1572 101.238 74.814 100.406 76.1807 100.633C76.6053 100.704 77.0697 100.975 77.366 101.293C77.8946 101.859 77.8791 104.466 77.3019 105.002C76.8662 105.405 76.0591 105.935 75.6942 105.774C75.0683 105.5 74.6039 104.77 74.1904 104.153C74.0223 103.901 74.1616 103.44 74.1616 103.077V103.079Z" fill="url(#paint14_linear_488_20235)"/>
<path d="M67.1004 15.0502C67.0937 13.1956 67.7351 12.3709 69.0995 12.5848C69.5241 12.651 69.9952 12.9156 70.2893 13.2331C70.8643 13.8528 70.8134 16.4483 70.1699 17.015C69.7342 17.3987 68.9337 17.8596 68.5445 17.6964C67.9496 17.4472 67.5095 16.7261 67.1269 16.1285C66.961 15.8683 67.0982 15.4162 67.0982 15.0524L67.1004 15.0502Z" fill="url(#paint15_linear_488_20235)"/>
<path d="M62.518 11.0192C61.8656 10.7149 61.0739 10.5451 60.6051 10.0621C60.2424 9.68946 60.0301 8.83165 60.2093 8.36415C60.3906 7.89004 61.0894 7.48649 61.6423 7.31228C62.2084 7.13367 62.8741 7.25054 63.4955 7.26818C64.5879 7.29905 65.2912 7.92091 65.3155 8.84929C65.3398 9.73356 64.5282 10.6664 63.6149 10.7722C63.2898 10.8097 62.9559 10.7788 62.6286 10.7788C62.591 10.8582 62.5556 10.9376 62.518 11.0192Z" fill="url(#paint16_linear_488_20235)"/>
<path d="M74.1609 90.7714C74.1543 88.9168 74.7956 88.0921 76.1601 88.306C76.5847 88.3722 77.0557 88.6368 77.3498 88.9543C77.9248 89.574 77.8739 92.1695 77.2304 92.7362C76.7948 93.1199 75.9942 93.5808 75.605 93.4176C75.0101 93.1684 74.5722 92.4473 74.1875 91.8497C74.0216 91.5895 74.1587 91.1374 74.1587 90.7714H74.1609Z" fill="url(#paint17_linear_488_20235)"/>
<path d="M75.0327 7.26369C75.2892 7.26369 75.5458 7.25707 75.8023 7.26369C76.9611 7.29897 77.6865 7.93406 77.682 8.90213C77.6754 9.83271 76.8063 10.7236 75.8134 10.7765C75.2295 10.8074 74.6369 10.8272 74.0575 10.7633C73.1552 10.6641 72.3569 9.67615 72.4033 8.8029C72.4519 7.87893 73.153 7.29897 74.2653 7.26369C74.5219 7.25487 74.7784 7.26369 75.0349 7.26369H75.0327Z" fill="url(#paint18_linear_488_20235)"/>
<path d="M82.1663 95.3141C82.4228 95.3141 82.6793 95.3141 82.9358 95.3141C83.8934 95.3119 84.5657 95.7596 84.7161 96.699C84.8731 97.6825 84.3158 98.5205 83.4268 98.6594C82.4139 98.8159 81.2772 98.7123 80.302 98.3926C79.5943 98.161 79.2427 97.2834 79.5236 96.4674C79.7956 95.6846 80.4214 95.2789 81.2883 95.3119C81.5802 95.323 81.8743 95.3119 82.1663 95.3119V95.3141Z" fill="url(#paint19_linear_488_20235)"/>
<path d="M90.9531 35.4414C91.2096 35.4414 91.4661 35.4348 91.7227 35.4414C92.8262 35.4789 93.5272 36.0743 93.567 37.0005C93.6068 37.9222 92.7488 38.9631 91.7846 38.93C90.8469 38.8969 89.854 38.7712 89.0048 38.4096C88.3236 38.1185 88.087 37.3048 88.3834 36.5374C88.6708 35.7942 89.2613 35.4238 90.0751 35.4414C90.367 35.448 90.6612 35.4414 90.9531 35.4414Z" fill="url(#paint20_linear_488_20235)"/>
<path d="M98.8738 43.2127C98.8738 44.8886 98.2059 45.967 97.1444 45.9978C96.0564 46.0309 95.3376 44.9063 95.3398 43.1774C95.3421 41.3515 96.0143 40.5555 97.3987 40.7385C98.4735 40.8796 98.8715 41.5478 98.8738 43.2127Z" fill="url(#paint21_linear_488_20235)"/>
<path d="M95.3464 30.7489C95.3464 29.0245 96.043 28.1975 97.3875 28.4357C97.8121 28.5107 98.2743 28.7863 98.5662 29.1083C99.0948 29.6904 99.0572 32.2815 98.4733 32.8152C98.0355 33.2143 97.2239 33.7303 96.8634 33.5671C96.242 33.2849 95.7732 32.5594 95.3795 31.9331C95.1982 31.6442 95.3486 31.1503 95.3486 30.7467L95.3464 30.7489Z" fill="url(#paint22_linear_488_20235)"/>
<path d="M14.8984 35.702C14.1951 35.3513 13.3769 35.1242 12.8351 34.606C12.5034 34.2885 12.3751 33.4373 12.5586 32.9896C12.7466 32.5309 13.3813 32.1208 13.901 31.9708C14.5091 31.7944 15.208 31.9025 15.8648 31.9245C16.9019 31.9576 17.5809 32.5486 17.6428 33.4328C17.7047 34.3039 16.9152 35.2918 16.0174 35.4219C15.6945 35.4682 15.3606 35.4285 15.0311 35.4285C14.9868 35.5189 14.9426 35.6094 14.8984 35.6998V35.702Z" fill="url(#paint23_linear_488_20235)"/>
<path d="M103.098 39.2321C102.405 38.8661 101.572 38.6367 101.05 38.1031C100.119 37.1482 100.78 35.6179 102.12 35.4679C102.77 35.3951 103.436 35.4282 104.095 35.4459C105.192 35.4745 105.893 36.0898 105.924 37.0181C105.953 37.9399 105.092 38.8749 104.124 38.9565C103.834 38.9807 103.538 38.9609 103.246 38.9609C103.197 39.0513 103.148 39.1439 103.098 39.2343V39.2321Z" fill="url(#paint24_linear_488_20235)"/>
<path d="M10.5954 27.4701C10.5954 29.0512 9.90988 30.1141 8.87049 30.1494C7.80236 30.1846 7.06152 29.0754 7.06152 27.4436C7.06152 25.5405 7.64092 24.7798 9.00539 24.8856C10.1775 24.976 10.5932 25.653 10.5932 27.4723L10.5954 27.4701Z" fill="url(#paint25_linear_488_20235)"/>
<path d="M7.06983 39.6709C7.06541 37.8384 7.73548 37.0048 9.10437 37.2408C9.52897 37.3136 9.99338 37.587 10.2853 37.909C10.8116 38.4845 10.7807 41.0844 10.199 41.6181C9.76117 42.0172 8.95178 42.5376 8.59131 42.3766C7.96768 42.0966 7.5077 41.3667 7.09858 40.747C6.93051 40.4934 7.06983 40.0347 7.06983 39.6709Z" fill="url(#paint26_linear_488_20235)"/>
<path d="M70.618 8.93329C70.5981 9.81315 69.6516 10.7945 68.8378 10.7812C68.0218 10.768 67.0974 9.76464 67.0996 8.89139C67.0996 7.95419 67.8626 7.26177 68.8798 7.27059C69.886 7.27941 70.6402 8.0005 70.6203 8.93329H70.618Z" fill="url(#paint27_linear_488_20235)"/>
<path d="M74.1631 96.9019C74.1874 95.9669 74.957 95.2922 75.9787 95.3186C76.9849 95.3429 77.7235 96.0816 77.6815 97.0188C77.6417 97.9053 76.6753 98.869 75.8637 98.8293C75.0388 98.7896 74.1432 97.773 74.1653 96.9019H74.1631Z" fill="url(#paint28_linear_488_20235)"/>
<path d="M95.3468 37.0887C95.3357 36.1493 96.0898 35.4458 97.1049 35.4458C98.1222 35.4458 98.8763 36.1448 98.8674 37.0864C98.8586 37.9575 97.9209 38.9542 97.1093 38.9564C96.2977 38.9564 95.3579 37.9597 95.3468 37.0887Z" fill="url(#paint29_linear_488_20235)"/>
<path d="M7.07227 33.5406C7.07669 32.6034 7.83743 31.911 8.8547 31.922C9.86091 31.933 10.6128 32.6541 10.5907 33.5869C10.5708 34.4668 9.62208 35.4481 8.80826 35.4326C7.99002 35.4172 7.07006 34.4139 7.07227 33.5406Z" fill="url(#paint30_linear_488_20235)"/>
<path d="M59.1563 80.0522C57.2721 80.7557 55.4653 81.4459 53.6431 82.0942C53.3998 82.1802 53.0239 82.1471 52.8028 82.0126C48.8111 79.5693 44.9499 76.9341 41.458 73.805C39.2576 71.8335 37.0085 69.9018 34.974 67.7672C30.7037 63.2819 27.0083 58.3357 23.7708 53.0587C23.5983 52.7764 23.6204 52.2692 23.7376 51.9341C24.3347 50.2383 24.9915 48.5646 25.7257 46.6284C26.5019 47.7067 27.141 48.6197 27.8067 49.5128C30.8983 53.6717 33.8771 57.9255 37.1346 61.95C39.377 64.7219 41.8538 67.3482 44.5032 69.7364C48.8266 73.633 53.579 76.9892 58.7516 79.7148C58.8754 79.7788 58.9705 79.8957 59.1585 80.0544L59.1563 80.0522Z" fill="#FEFEFE"/>
<path d="M15.8672 72.1222C16.6169 70.2434 17.3201 68.4881 18.0897 66.5586C24.8391 73.9988 31.3584 81.4038 39.2224 87.6599C37.378 88.381 35.6796 89.058 33.9657 89.6953C33.8043 89.7548 33.5013 89.6269 33.3487 89.4902C29.6622 86.2023 25.8784 83.0114 22.349 79.5625C19.9849 77.2537 17.9813 74.5766 15.8672 72.12V72.1222Z" fill="#FEFEFE"/>
<path d="M10.7831 85.4106C13.8371 88.5883 16.8934 91.7681 19.9474 94.9502C20.0955 94.8951 20.2415 94.84 20.3897 94.7848C19.7749 95.0671 19.1689 95.3758 18.5409 95.6272C17.8177 95.9161 16.984 96.0241 16.356 96.4453C15.3475 97.1223 14.8279 96.6085 14.1777 95.9359C12.5987 94.2997 10.9512 92.7296 9.37219 91.0934C9.1422 90.8552 8.9675 90.3392 9.06259 90.0503C9.60661 88.4273 10.2413 86.8374 10.7787 85.4106H10.7831Z" fill="#FEFEFE"/>
<defs>
<linearGradient id="paint0_linear_488_20235" x1="34.5507" y1="36.7144" x2="34.5507" y2="105.691" gradientUnits="userSpaceOnUse">
<stop offset="0.13" stop-color="#F75471"/>
<stop offset="1" stop-color="#F1DFC1"/>
</linearGradient>
<linearGradient id="paint1_linear_488_20235" x1="96.1389" y1="0" x2="96.1389" y2="19.6373" gradientUnits="userSpaceOnUse">
<stop offset="0.13" stop-color="#F75471"/>
<stop offset="1" stop-color="#F1DFC1"/>
</linearGradient>
<linearGradient id="paint2_linear_488_20235" x1="6.20366" y1="0.159668" x2="6.20366" y2="12.6066" gradientUnits="userSpaceOnUse">
<stop offset="0.13" stop-color="#F75471"/>
<stop offset="1" stop-color="#F1DFC1"/>
</linearGradient>
<linearGradient id="paint3_linear_488_20235" x1="45.8587" y1="0" x2="45.8587" y2="11.7608" gradientUnits="userSpaceOnUse">
<stop offset="0.13" stop-color="#F75471"/>
<stop offset="1" stop-color="#F1DFC1"/>
</linearGradient>
<linearGradient id="paint4_linear_488_20235" x1="2.62214" y1="31.8125" x2="2.62214" y2="35.5849" gradientUnits="userSpaceOnUse">
<stop offset="0.13" stop-color="#F75471"/>
<stop offset="1" stop-color="#F1DFC1"/>
</linearGradient>
<linearGradient id="paint5_linear_488_20235" x1="28.358" y1="5.51611" x2="28.358" y2="35.2278" gradientUnits="userSpaceOnUse">
<stop offset="0.13" stop-color="#F75471"/>
<stop offset="1" stop-color="#F1DFC1"/>
</linearGradient>
<linearGradient id="paint6_linear_488_20235" x1="70.5564" y1="21.4341" x2="70.5564" y2="49.5016" gradientUnits="userSpaceOnUse">
<stop offset="0.13" stop-color="#F75471"/>
<stop offset="1" stop-color="#F1DFC1"/>
</linearGradient>
<linearGradient id="paint7_linear_488_20235" x1="85.3" y1="67.9214" x2="85.3" y2="88.1024" gradientUnits="userSpaceOnUse">
<stop offset="0.13" stop-color="#F75471"/>
<stop offset="1" stop-color="#F1DFC1"/>
</linearGradient>
<linearGradient id="paint8_linear_488_20235" x1="55.5047" y1="16.0474" x2="55.5047" y2="38.9607" gradientUnits="userSpaceOnUse">
<stop offset="0.13" stop-color="#F75471"/>
<stop offset="1" stop-color="#F1DFC1"/>
</linearGradient>
<linearGradient id="paint9_linear_488_20235" x1="99.8784" y1="54.3345" x2="99.8784" y2="66.3031" gradientUnits="userSpaceOnUse">
<stop offset="0.13" stop-color="#F75471"/>
<stop offset="1" stop-color="#F1DFC1"/>
</linearGradient>
<linearGradient id="paint10_linear_488_20235" x1="100.207" y1="94.3604" x2="100.207" y2="106" gradientUnits="userSpaceOnUse">
<stop offset="0.13" stop-color="#F75471"/>
<stop offset="1" stop-color="#F1DFC1"/>
</linearGradient>
<linearGradient id="paint11_linear_488_20235" x1="77.3617" y1="46.312" x2="77.3617" y2="57.71" gradientUnits="userSpaceOnUse">
<stop offset="0.13" stop-color="#F75471"/>
<stop offset="1" stop-color="#F1DFC1"/>
</linearGradient>
<linearGradient id="paint12_linear_488_20235" x1="68.865" y1="0.219238" x2="68.865" y2="5.42268" gradientUnits="userSpaceOnUse">
<stop offset="0.13" stop-color="#F75471"/>
<stop offset="1" stop-color="#F1DFC1"/>
</linearGradient>
<linearGradient id="paint13_linear_488_20235" x1="69.7244" y1="95.2959" x2="69.7244" y2="99.105" gradientUnits="userSpaceOnUse">
<stop offset="0.13" stop-color="#F75471"/>
<stop offset="1" stop-color="#F1DFC1"/>
</linearGradient>
<linearGradient id="paint14_linear_488_20235" x1="75.9283" y1="100.597" x2="75.9283" y2="105.803" gradientUnits="userSpaceOnUse">
<stop offset="0.13" stop-color="#F75471"/>
<stop offset="1" stop-color="#F1DFC1"/>
</linearGradient>
<linearGradient id="paint15_linear_488_20235" x1="68.8668" y1="12.5518" x2="68.8668" y2="17.7302" gradientUnits="userSpaceOnUse">
<stop offset="0.13" stop-color="#F75471"/>
<stop offset="1" stop-color="#F1DFC1"/>
</linearGradient>
<linearGradient id="paint16_linear_488_20235" x1="62.7303" y1="7.21436" x2="62.7303" y2="11.0192" gradientUnits="userSpaceOnUse">
<stop offset="0.13" stop-color="#F75471"/>
<stop offset="1" stop-color="#F1DFC1"/>
</linearGradient>
<linearGradient id="paint17_linear_488_20235" x1="75.9274" y1="88.2729" x2="75.9274" y2="93.4514" gradientUnits="userSpaceOnUse">
<stop offset="0.13" stop-color="#F75471"/>
<stop offset="1" stop-color="#F1DFC1"/>
</linearGradient>
<linearGradient id="paint18_linear_488_20235" x1="75.0417" y1="7.25977" x2="75.0417" y2="10.8055" gradientUnits="userSpaceOnUse">
<stop offset="0.13" stop-color="#F75471"/>
<stop offset="1" stop-color="#F1DFC1"/>
</linearGradient>
<linearGradient id="paint19_linear_488_20235" x1="82.0846" y1="95.3101" x2="82.0846" y2="98.7313" gradientUnits="userSpaceOnUse">
<stop offset="0.13" stop-color="#F75471"/>
<stop offset="1" stop-color="#F1DFC1"/>
</linearGradient>
<linearGradient id="paint20_linear_488_20235" x1="90.9131" y1="35.4385" x2="90.9131" y2="38.9308" gradientUnits="userSpaceOnUse">
<stop offset="0.13" stop-color="#F75471"/>
<stop offset="1" stop-color="#F1DFC1"/>
</linearGradient>
<linearGradient id="paint21_linear_488_20235" x1="97.1068" y1="40.7129" x2="97.1068" y2="45.9986" gradientUnits="userSpaceOnUse">
<stop offset="0.13" stop-color="#F75471"/>
<stop offset="1" stop-color="#F1DFC1"/>
</linearGradient>
<linearGradient id="paint22_linear_488_20235" x1="97.1142" y1="28.3955" x2="97.1142" y2="33.5981" gradientUnits="userSpaceOnUse">
<stop offset="0.13" stop-color="#F75471"/>
<stop offset="1" stop-color="#F1DFC1"/>
</linearGradient>
<linearGradient id="paint23_linear_488_20235" x1="15.0604" y1="31.8716" x2="15.0604" y2="35.702" gradientUnits="userSpaceOnUse">
<stop offset="0.13" stop-color="#F75471"/>
<stop offset="1" stop-color="#F1DFC1"/>
</linearGradient>
<linearGradient id="paint24_linear_488_20235" x1="103.27" y1="35.4229" x2="103.27" y2="39.2343" gradientUnits="userSpaceOnUse">
<stop offset="0.13" stop-color="#F75471"/>
<stop offset="1" stop-color="#F1DFC1"/>
</linearGradient>
<linearGradient id="paint25_linear_488_20235" x1="8.82848" y1="24.876" x2="8.82848" y2="30.1502" gradientUnits="userSpaceOnUse">
<stop offset="0.13" stop-color="#F75471"/>
<stop offset="1" stop-color="#F1DFC1"/>
</linearGradient>
<linearGradient id="paint26_linear_488_20235" x1="8.83721" y1="37.2017" x2="8.83721" y2="42.4067" gradientUnits="userSpaceOnUse">
<stop offset="0.13" stop-color="#F75471"/>
<stop offset="1" stop-color="#F1DFC1"/>
</linearGradient>
<linearGradient id="paint27_linear_488_20235" x1="68.8601" y1="7.27051" x2="68.8601" y2="10.7814" gradientUnits="userSpaceOnUse">
<stop offset="0.13" stop-color="#F75471"/>
<stop offset="1" stop-color="#F1DFC1"/>
</linearGradient>
<linearGradient id="paint28_linear_488_20235" x1="75.9232" y1="95.3179" x2="75.9232" y2="98.8304" gradientUnits="userSpaceOnUse">
<stop offset="0.13" stop-color="#F75471"/>
<stop offset="1" stop-color="#F1DFC1"/>
</linearGradient>
<linearGradient id="paint29_linear_488_20235" x1="97.1071" y1="35.4458" x2="97.1071" y2="38.9564" gradientUnits="userSpaceOnUse">
<stop offset="0.13" stop-color="#F75471"/>
<stop offset="1" stop-color="#F1DFC1"/>
</linearGradient>
<linearGradient id="paint30_linear_488_20235" x1="8.83172" y1="31.9219" x2="8.83172" y2="35.4328" gradientUnits="userSpaceOnUse">
<stop offset="0.13" stop-color="#F75471"/>
<stop offset="1" stop-color="#F1DFC1"/>
</linearGradient>
</defs>
</svg>
