<svg width="225" height="13" viewBox="0 0 225 13" fill="none" xmlns="http://www.w3.org/2000/svg">
<mask id="path-1-inside-1_8_714" fill="white">
<path d="M211.682 3.00775C211.601 3.00628 211.522 3.03494 211.46 3.08826C211.395 3.14672 211.353 3.22755 211.344 3.31506C211.334 3.40258 211.357 3.49056 211.409 3.56193C212.385 4.72165 213.548 5.70938 214.848 6.48444C213.531 7.29422 212.37 8.33735 211.423 9.56327C211.375 9.63774 211.357 9.72722 211.371 9.81459C211.384 9.90196 211.43 9.9811 211.498 10.0369C211.572 10.0869 211.661 10.1068 211.749 10.0928C211.836 10.0787 211.915 10.0316 211.969 9.96117C212.992 8.64864 214.276 7.56461 215.739 6.77811C215.799 6.74902 215.849 6.70361 215.884 6.64706C215.92 6.59052 215.938 6.52513 215.938 6.45839C215.938 6.39166 215.92 6.32627 215.884 6.26973C215.849 6.21318 215.799 6.16776 215.739 6.13868C214.293 5.37352 213.004 4.3401 211.941 3.093C211.906 3.0613 211.865 3.03733 211.821 3.02264C211.776 3.00795 211.729 3.00287 211.682 3.00775Z"/>
</mask>
<path d="M211.682 3.00775C211.601 3.00628 211.522 3.03494 211.46 3.08826C211.395 3.14672 211.353 3.22755 211.344 3.31506C211.334 3.40258 211.357 3.49056 211.409 3.56193C212.385 4.72165 213.548 5.70938 214.848 6.48444C213.531 7.29422 212.37 8.33735 211.423 9.56327C211.375 9.63774 211.357 9.72722 211.371 9.81459C211.384 9.90196 211.43 9.9811 211.498 10.0369C211.572 10.0869 211.661 10.1068 211.749 10.0928C211.836 10.0787 211.915 10.0316 211.969 9.96117C212.992 8.64864 214.276 7.56461 215.739 6.77811C215.799 6.74902 215.849 6.70361 215.884 6.64706C215.92 6.59052 215.938 6.52513 215.938 6.45839C215.938 6.39166 215.92 6.32627 215.884 6.26973C215.849 6.21318 215.799 6.16776 215.739 6.13868C214.293 5.37352 213.004 4.3401 211.941 3.093C211.906 3.0613 211.865 3.03733 211.821 3.02264C211.776 3.00795 211.729 3.00287 211.682 3.00775Z" fill="#1E1E1E"/>
<path d="M211.682 3.00775L211.786 4.00234L211.725 4.00869L211.664 4.00758L211.682 3.00775ZM211.46 3.08826L210.794 2.34215L210.805 2.33298L211.46 3.08826ZM211.409 3.56193L210.644 4.20617L210.619 4.17674L210.597 4.14548L211.409 3.56193ZM214.848 6.48444L215.36 5.62546L216.779 6.47134L215.372 7.3364L214.848 6.48444ZM211.423 9.56327L210.58 9.0252L210.604 8.98733L210.631 8.95178L211.423 9.56327ZM211.498 10.0369L210.936 10.8638L210.899 10.8389L210.865 10.811L211.498 10.0369ZM211.969 9.96117L211.177 9.3512L211.181 9.34638L211.969 9.96117ZM215.739 6.77811L215.265 5.89737L215.283 5.88783L215.301 5.87901L215.739 6.77811ZM215.739 6.13868L215.301 7.03778L215.286 7.03041L215.271 7.02253L215.739 6.13868ZM211.941 3.093L212.614 2.35363L212.661 2.39613L212.702 2.44418L211.941 3.093ZM211.664 4.00758C211.83 4.01059 211.991 3.95175 212.116 3.84355L210.805 2.33298C211.053 2.11814 211.371 2.00197 211.7 2.00791L211.664 4.00758ZM212.126 3.8343C212.246 3.72773 212.321 3.5813 212.338 3.42384L210.35 3.20629C210.386 2.87379 210.544 2.56572 210.795 2.34222L212.126 3.8343ZM212.338 3.42384C212.355 3.26636 212.314 3.10768 212.221 2.97838L210.597 4.14548C210.401 3.87343 210.313 3.53881 210.35 3.20629L212.338 3.42384ZM212.173 2.91769C213.079 3.9924 214.156 4.9075 215.36 5.62546L214.336 7.34342C212.94 6.51125 211.692 5.4509 210.644 4.20617L212.173 2.91769ZM215.372 7.3364C214.158 8.08274 213.088 9.04434 212.214 10.1748L210.631 8.95178C211.653 7.63036 212.904 6.50569 214.325 5.63249L215.372 7.3364ZM212.266 10.1013C212.35 9.96926 212.383 9.81132 212.358 9.6574L210.383 9.97178C210.331 9.64312 210.4 9.30622 210.58 9.0252L212.266 10.1013ZM212.358 9.6574C212.334 9.5032 212.253 9.36259 212.131 9.26285L210.865 10.811C210.607 10.5996 210.435 10.3007 210.383 9.97178L212.358 9.6574ZM212.061 9.21013C211.923 9.11672 211.755 9.07891 211.59 9.10545L211.907 11.0801C211.567 11.1348 211.22 11.057 210.936 10.8638L212.061 9.21013ZM211.59 9.10545C211.425 9.13196 211.278 9.22035 211.177 9.35121L212.762 10.5711C212.553 10.8429 212.247 11.0254 211.907 11.0801L211.59 9.10545ZM211.181 9.34638C212.289 7.92451 213.68 6.74981 215.265 5.89737L216.212 7.65886C214.872 8.37942 213.696 9.37277 212.758 10.576L211.181 9.34638ZM215.301 5.87901C215.191 5.93248 215.1 6.01556 215.036 6.11797L216.733 7.17616C216.598 7.39166 216.406 7.56557 216.177 7.67721L215.301 5.87901ZM215.036 6.11797C214.972 6.2202 214.938 6.33812 214.938 6.45839H216.938C216.938 6.71213 216.867 6.96084 216.733 7.17616L215.036 6.11797ZM214.938 6.45839C214.938 6.57866 214.972 6.69659 215.036 6.79882L216.733 5.74063C216.867 5.95595 216.938 6.20465 216.938 6.45839H214.938ZM215.036 6.79882C215.1 6.90123 215.191 6.98431 215.301 7.03778L216.177 5.23957C216.406 5.35122 216.598 5.52513 216.733 5.74063L215.036 6.79882ZM215.271 7.02253C213.713 6.19815 212.325 5.0849 211.18 3.74183L212.702 2.44418C213.684 3.59529 214.873 4.54889 216.207 5.25482L215.271 7.02253ZM211.268 3.83238C211.337 3.89544 211.419 3.94323 211.508 3.97255L212.133 2.07272C212.311 2.13143 212.475 2.22716 212.614 2.35363L211.268 3.83238ZM211.508 3.97255C211.597 4.00193 211.692 4.01213 211.786 4.00234L211.578 2.01315C211.765 1.99361 211.954 2.01397 212.133 2.07272L211.508 3.97255Z" fill="#AA8B84" mask="url(#path-1-inside-1_8_714)"/>
<mask id="path-3-inside-2_8_714" fill="white">
<path d="M213.859 0.478477C213.804 0.481195 213.751 0.496774 213.704 0.523924C213.656 0.551074 213.616 0.589046 213.586 0.634795C213.548 0.691635 209.816 6.14828 205.213 6.14828C205.119 6.14828 205.029 6.1857 204.963 6.25233C204.896 6.31895 204.859 6.40931 204.859 6.50353C204.859 6.59775 204.896 6.68811 204.963 6.75473C205.029 6.82135 205.119 6.85878 205.213 6.85878C209.84 6.85878 213.543 12.5428 213.581 12.5949C213.61 12.6418 213.651 12.6809 213.698 12.7089C213.746 12.7369 213.799 12.7531 213.854 12.7559C213.909 12.7595 213.963 12.7507 214.014 12.7302C214.064 12.7097 214.11 12.6781 214.146 12.6375C218.981 7.04825 224.395 6.86351 224.447 6.85878C224.54 6.85631 224.629 6.81729 224.694 6.75005C224.759 6.6828 224.795 6.59264 224.795 6.49879C224.791 6.40573 224.751 6.3179 224.685 6.2529C224.618 6.18791 224.53 6.15055 224.437 6.14828C224.197 6.14828 218.901 6.07722 214.161 0.601635C214.124 0.558313 214.077 0.524512 214.025 0.503079C213.972 0.481647 213.915 0.473205 213.859 0.478477ZM207.385 6.51298C210.641 5.48513 213.1 2.46788 213.892 1.40213C216.912 4.74148 220.06 6.03932 222.124 6.54614C218.935 7.47758 216.079 9.31082 213.897 11.8275C213.11 10.7239 210.636 7.58347 207.385 6.51298Z"/>
</mask>
<path d="M213.859 0.478477C213.804 0.481195 213.751 0.496774 213.704 0.523924C213.656 0.551074 213.616 0.589046 213.586 0.634795C213.548 0.691635 209.816 6.14828 205.213 6.14828C205.119 6.14828 205.029 6.1857 204.963 6.25233C204.896 6.31895 204.859 6.40931 204.859 6.50353C204.859 6.59775 204.896 6.68811 204.963 6.75473C205.029 6.82135 205.119 6.85878 205.213 6.85878C209.84 6.85878 213.543 12.5428 213.581 12.5949C213.61 12.6418 213.651 12.6809 213.698 12.7089C213.746 12.7369 213.799 12.7531 213.854 12.7559C213.909 12.7595 213.963 12.7507 214.014 12.7302C214.064 12.7097 214.11 12.6781 214.146 12.6375C218.981 7.04825 224.395 6.86351 224.447 6.85878C224.54 6.85631 224.629 6.81729 224.694 6.75005C224.759 6.6828 224.795 6.59264 224.795 6.49879C224.791 6.40573 224.751 6.3179 224.685 6.2529C224.618 6.18791 224.53 6.15055 224.437 6.14828C224.197 6.14828 218.901 6.07722 214.161 0.601635C214.124 0.558313 214.077 0.524512 214.025 0.503079C213.972 0.481647 213.915 0.473205 213.859 0.478477ZM207.385 6.51298C210.641 5.48513 213.1 2.46788 213.892 1.40213C216.912 4.74148 220.06 6.03932 222.124 6.54614C218.935 7.47758 216.079 9.31082 213.897 11.8275C213.11 10.7239 210.636 7.58347 207.385 6.51298Z" fill="#1E1E1E"/>
<path d="M213.859 0.478477L213.952 1.47414L213.93 1.47616L213.909 1.47724L213.859 0.478477ZM213.586 0.634795L214.42 1.18561L214.419 1.18748L213.586 0.634795ZM213.581 12.5949L214.391 12.0087L214.411 12.0357L214.428 12.064L213.581 12.5949ZM213.854 12.7559L213.906 11.7573L213.913 11.7576L213.92 11.7581L213.854 12.7559ZM214.146 12.6375L214.903 13.2917L214.895 13.3003L214.888 13.3087L214.146 12.6375ZM224.447 6.85878L224.356 5.86293L224.388 5.85998L224.42 5.85913L224.447 6.85878ZM224.795 6.49879L225.794 6.44807L225.795 6.47324L225.795 6.49844L224.795 6.49879ZM224.437 6.14828V5.14828H224.449L224.462 5.14858L224.437 6.14828ZM214.161 0.601635L213.404 1.25618L213.398 1.24871L214.161 0.601635ZM207.385 6.51298L207.072 7.46282L204.126 6.49296L207.084 5.55937L207.385 6.51298ZM213.892 1.40213L213.089 0.805854L213.816 -0.172643L214.634 0.731337L213.892 1.40213ZM222.124 6.54614L222.362 5.575L225.977 6.46262L222.404 7.50604L222.124 6.54614ZM213.897 11.8275L214.652 12.4826L213.82 13.4425L213.082 12.4081L213.897 11.8275ZM213.909 1.47724C214.012 1.47211 214.112 1.44274 214.2 1.39197L213.207 -0.344124C213.391 -0.449198 213.597 -0.509719 213.809 -0.520284L213.909 1.47724ZM214.2 1.39197C214.289 1.34114 214.364 1.27032 214.42 1.18561L212.751 0.0839767C212.867 -0.0922289 213.024 -0.238993 213.207 -0.344124L214.2 1.39197ZM214.419 1.18748C214.372 1.25831 213.378 2.70865 211.783 4.15384C210.214 5.57592 207.893 7.14828 205.213 7.14828V5.14828C207.135 5.14828 208.983 3.99232 210.44 2.67186C211.871 1.37452 212.762 0.0681162 212.752 0.0821047L214.419 1.18748ZM205.213 7.14828C205.386 7.14828 205.551 7.07908 205.672 6.95758L204.254 5.54707C204.507 5.29232 204.852 5.14828 205.213 5.14828V7.14828ZM205.672 6.95758C205.792 6.83625 205.859 6.67282 205.859 6.50353H203.859C203.859 6.1458 204 5.80164 204.254 5.54707L205.672 6.95758ZM205.859 6.50353C205.859 6.33423 205.792 6.1708 205.672 6.04948L204.254 7.45998C204 7.20541 203.859 6.86126 203.859 6.50353H205.859ZM205.672 6.04948C205.551 5.92797 205.386 5.85878 205.213 5.85878V7.85878C204.852 7.85878 204.507 7.71473 204.254 7.45998L205.672 6.04948ZM205.213 5.85878C207.92 5.85878 210.243 7.50345 211.805 8.98083C212.604 9.73678 213.248 10.491 213.694 11.0585C214.134 11.6177 214.413 12.0384 214.391 12.0087L212.771 13.181C212.735 13.1312 211.857 11.7833 210.431 10.4337C208.974 9.0561 207.133 7.85878 205.213 7.85878V5.85878ZM214.428 12.064C214.373 11.9752 214.297 11.9009 214.206 11.8474L213.19 13.5704C213.004 13.4609 212.848 13.3083 212.734 13.1258L214.428 12.064ZM214.206 11.8474C214.115 11.7939 214.012 11.7628 213.906 11.7573L213.802 13.7546C213.586 13.7433 213.376 13.6799 213.19 13.5704L214.206 11.8474ZM213.92 11.7581C213.824 11.7517 213.727 11.7674 213.638 11.8035L214.389 13.657C214.199 13.734 213.994 13.7674 213.788 13.7537L213.92 11.7581ZM213.638 11.8035C213.549 11.8395 213.47 11.8952 213.405 11.9663L214.888 13.3087C214.75 13.4609 214.579 13.5799 214.389 13.657L213.638 11.8035ZM213.39 11.9833C215.929 9.04746 218.637 7.5154 220.735 6.71901C221.783 6.32156 222.676 6.10806 223.32 5.99325C223.965 5.87819 224.375 5.86113 224.356 5.86293L224.538 7.85463C224.522 7.85605 223.273 7.89524 221.445 8.58889C219.615 9.28336 217.198 10.6383 214.903 13.2917L213.39 11.9833ZM224.42 5.85913C224.251 5.8636 224.092 5.93422 223.976 6.05431L225.412 7.44578C225.166 7.70036 224.829 7.84902 224.473 7.85843L224.42 5.85913ZM223.976 6.05431C223.859 6.17429 223.795 6.33401 223.795 6.49913L225.795 6.49844C225.795 6.85127 225.659 7.19131 225.412 7.44578L223.976 6.05431ZM223.797 6.54951C223.805 6.70658 223.871 6.85606 223.985 6.96755L225.384 5.53826C225.631 5.77974 225.777 6.10489 225.794 6.44807L223.797 6.54951ZM223.985 6.96755C224.099 7.07918 224.252 7.14404 224.413 7.14798L224.462 5.14858C224.808 5.15705 225.137 5.29663 225.384 5.53826L223.985 6.96755ZM224.437 7.14828C224.038 7.14828 218.406 7.03416 213.404 1.25615L214.917 -0.0528774C219.395 5.12028 224.356 5.14828 224.437 5.14828V7.14828ZM213.398 1.24871C213.465 1.32747 213.55 1.38943 213.647 1.42886L214.403 -0.422697C214.604 -0.340404 214.783 -0.210843 214.923 -0.0454359L213.398 1.24871ZM213.647 1.42886C213.743 1.46824 213.848 1.48388 213.952 1.47414L213.766 -0.517183C213.983 -0.537465 214.201 -0.50495 214.403 -0.422697L213.647 1.42886ZM207.084 5.55937C210.011 4.63534 212.307 1.85854 213.089 0.805854L214.695 1.99841C213.893 3.07722 211.271 6.33491 207.686 7.46659L207.084 5.55937ZM214.634 0.731337C217.499 3.89964 220.46 5.10785 222.362 5.575L221.885 7.51729C219.66 6.97079 216.325 5.58332 213.15 2.07293L214.634 0.731337ZM222.404 7.50604C219.4 8.38348 216.709 10.1107 214.652 12.4826L213.141 11.1724C215.449 8.51099 218.469 6.57168 221.843 5.58624L222.404 7.50604ZM213.082 12.4081C212.713 11.8896 211.94 10.8839 210.88 9.88611C209.812 8.88181 208.505 7.93469 207.072 7.46282L207.698 5.56314C209.516 6.16176 211.071 7.32009 212.25 8.42954C213.436 9.54548 214.294 10.6618 214.711 11.247L213.082 12.4081Z" fill="#AA8B84" mask="url(#path-3-inside-2_8_714)"/>
<mask id="path-5-inside-3_8_714" fill="white">
<path d="M205.193 6.14827H174.353C174.26 6.14827 174.17 6.18569 174.104 6.25231C174.037 6.31894 174 6.4093 174 6.50351C174 6.59773 174.037 6.68809 174.104 6.75472C174.17 6.82134 174.26 6.85876 174.353 6.85876H205.193C205.287 6.85876 205.377 6.82134 205.443 6.75472C205.509 6.68809 205.546 6.59773 205.546 6.50351C205.546 6.4093 205.509 6.31894 205.443 6.25231C205.377 6.18569 205.287 6.14827 205.193 6.14827Z"/>
</mask>
<path d="M205.193 6.14827H174.353C174.26 6.14827 174.17 6.18569 174.104 6.25231C174.037 6.31894 174 6.4093 174 6.50351C174 6.59773 174.037 6.68809 174.104 6.75472C174.17 6.82134 174.26 6.85876 174.353 6.85876H205.193C205.287 6.85876 205.377 6.82134 205.443 6.75472C205.509 6.68809 205.546 6.59773 205.546 6.50351C205.546 6.4093 205.509 6.31894 205.443 6.25231C205.377 6.18569 205.287 6.14827 205.193 6.14827Z" fill="#1E1E1E"/>
<path d="M205.193 7.14827H174.353V5.14827H205.193V7.14827ZM174.353 7.14827C174.527 7.14827 174.692 7.07907 174.812 6.95757L173.395 5.54706C173.648 5.29231 173.993 5.14827 174.353 5.14827V7.14827ZM174.812 6.95757C174.933 6.83624 175 6.67281 175 6.50351H173C173 6.14579 173.141 5.80163 173.395 5.54706L174.812 6.95757ZM175 6.50351C175 6.33422 174.933 6.17079 174.812 6.04946L173.395 7.45997C173.141 7.2054 173 6.86124 173 6.50351H175ZM174.812 6.04946C174.692 5.92796 174.527 5.85876 174.353 5.85876V7.85876C173.993 7.85876 173.648 7.71472 173.395 7.45997L174.812 6.04946ZM174.353 5.85876H205.193V7.85876H174.353V5.85876ZM205.193 5.85876C205.02 5.85876 204.855 5.92796 204.734 6.04946L206.152 7.45997C205.898 7.71472 205.554 7.85876 205.193 7.85876V5.85876ZM204.734 6.04946C204.613 6.17079 204.546 6.33422 204.546 6.50351H206.546C206.546 6.86124 206.405 7.2054 206.152 7.45997L204.734 6.04946ZM204.546 6.50351C204.546 6.67281 204.613 6.83624 204.734 6.95757L206.152 5.54706C206.405 5.80163 206.546 6.14579 206.546 6.50351H204.546ZM204.734 6.95757C204.855 7.07907 205.02 7.14827 205.193 7.14827V5.14827C205.554 5.14827 205.898 5.29231 206.152 5.54706L204.734 6.95757Z" fill="#AA8B84" mask="url(#path-5-inside-3_8_714)"/>
<path d="M199.484 2.66138L199.472 2.65313L199.484 2.66138Z" fill="#1E1E1E" stroke="#AA8B84"/>
<mask id="path-8-inside-4_8_714" fill="white">
<path d="M13.113 3.00775C13.1942 3.00628 13.273 3.03494 13.3345 3.08826C13.4 3.14672 13.4416 3.22755 13.4511 3.31506C13.4607 3.40258 13.4376 3.49056 13.3863 3.56193C12.4094 4.72165 11.2469 5.70938 9.9466 6.48444C11.2641 7.29422 12.4248 8.33735 13.3722 9.56327C13.4197 9.63774 13.4383 9.72722 13.4244 9.81459C13.4105 9.90196 13.3651 9.9811 13.2968 10.0369C13.2234 10.0869 13.1338 10.1068 13.0463 10.0928C12.9588 10.0787 12.8798 10.0316 12.8256 9.96117C11.8025 8.64864 10.5187 7.56461 9.05604 6.77811C8.99629 6.74902 8.94592 6.70361 8.91066 6.64706C8.8754 6.59052 8.85668 6.52513 8.85668 6.45839C8.85668 6.39166 8.8754 6.32627 8.91066 6.26973C8.94592 6.21318 8.99629 6.16776 9.05604 6.13868C10.5019 5.37352 11.7905 4.3401 12.8539 3.093C12.8887 3.0613 12.9298 3.03733 12.9744 3.02264C13.0191 3.00795 13.0663 3.00287 13.113 3.00775Z"/>
</mask>
<path d="M13.113 3.00775C13.1942 3.00628 13.273 3.03494 13.3345 3.08826C13.4 3.14672 13.4416 3.22755 13.4511 3.31506C13.4607 3.40258 13.4376 3.49056 13.3863 3.56193C12.4094 4.72165 11.2469 5.70938 9.9466 6.48444C11.2641 7.29422 12.4248 8.33735 13.3722 9.56327C13.4197 9.63774 13.4383 9.72722 13.4244 9.81459C13.4105 9.90196 13.3651 9.9811 13.2968 10.0369C13.2234 10.0869 13.1338 10.1068 13.0463 10.0928C12.9588 10.0787 12.8798 10.0316 12.8256 9.96117C11.8025 8.64864 10.5187 7.56461 9.05604 6.77811C8.99629 6.74902 8.94592 6.70361 8.91066 6.64706C8.8754 6.59052 8.85668 6.52513 8.85668 6.45839C8.85668 6.39166 8.8754 6.32627 8.91066 6.26973C8.94592 6.21318 8.99629 6.16776 9.05604 6.13868C10.5019 5.37352 11.7905 4.3401 12.8539 3.093C12.8887 3.0613 12.9298 3.03733 12.9744 3.02264C13.0191 3.00795 13.0663 3.00287 13.113 3.00775Z" fill="#1E1E1E"/>
<path d="M13.113 3.00775L13.0092 4.00234L13.07 4.00869L13.1311 4.00758L13.113 3.00775ZM13.3345 3.08826L14.0004 2.34215L13.9899 2.33298L13.3345 3.08826ZM13.3863 3.56193L14.1511 4.20617L14.1759 4.17674L14.1984 4.14548L13.3863 3.56193ZM9.9466 6.48444L9.43459 5.62546L8.0155 6.47134L9.42298 7.3364L9.9466 6.48444ZM13.3722 9.56327L14.2151 9.0252L14.1909 8.98733L14.1634 8.95178L13.3722 9.56327ZM13.2968 10.0369L13.8593 10.8638L13.8957 10.8389L13.9299 10.811L13.2968 10.0369ZM12.8256 9.96117L13.618 9.3512L13.6143 9.34638L12.8256 9.96117ZM9.05604 6.77811L9.52963 5.89737L9.51189 5.88783L9.49378 5.87901L9.05604 6.77811ZM9.05604 6.13868L9.49378 7.03778L9.50892 7.03041L9.5238 7.02253L9.05604 6.13868ZM12.8539 3.093L12.1806 2.35363L12.1339 2.39613L12.0929 2.44418L12.8539 3.093ZM13.1311 4.00758C12.9647 4.01059 12.8038 3.95175 12.6791 3.84355L13.9899 2.33298C13.7423 2.11814 13.4237 2.00197 13.0949 2.00791L13.1311 4.00758ZM12.6686 3.8343C12.5492 3.72773 12.4743 3.5813 12.4571 3.42384L14.4452 3.20629C14.4088 2.87379 14.2508 2.56572 14.0004 2.34222L12.6686 3.8343ZM12.4571 3.42384C12.4398 3.26636 12.4813 3.10768 12.5742 2.97838L14.1984 4.14548C14.3939 3.87343 14.4816 3.53881 14.4452 3.20629L12.4571 3.42384ZM12.6215 2.91769C11.7162 3.9924 10.6391 4.9075 9.43459 5.62546L10.4586 7.34342C11.8547 6.51125 13.1026 5.4509 14.1511 4.20617L12.6215 2.91769ZM9.42298 7.3364C10.6373 8.08274 11.7073 9.04434 12.5809 10.1748L14.1634 8.95178C13.1422 7.63036 11.891 6.50569 10.4702 5.63249L9.42298 7.3364ZM12.5293 10.1013C12.445 9.96926 12.4123 9.81132 12.4368 9.6574L14.412 9.97178C14.4643 9.64312 14.3945 9.30622 14.2151 9.0252L12.5293 10.1013ZM12.4368 9.6574C12.4614 9.5032 12.5417 9.36259 12.6637 9.26285L13.9299 10.811C14.1884 10.5996 14.3596 10.3007 14.412 9.97178L12.4368 9.6574ZM12.7343 9.21013C12.8716 9.11672 13.04 9.07891 13.2051 9.10545L12.8875 11.0801C13.2276 11.1348 13.5751 11.057 13.8593 10.8638L12.7343 9.21013ZM13.2051 9.10545C13.3699 9.13196 13.5173 9.22035 13.618 9.35121L12.0332 10.5711C12.2424 10.8429 12.5477 11.0254 12.8875 11.0801L13.2051 9.10545ZM13.6143 9.34638C12.5059 7.92451 11.1149 6.74981 9.52963 5.89737L8.58245 7.65886C9.92248 8.37942 11.099 9.37277 12.0369 10.576L13.6143 9.34638ZM9.49378 5.87901C9.60359 5.93248 9.69537 6.01556 9.75923 6.11797L8.0621 7.17616C8.19647 7.39166 8.38899 7.56557 8.6183 7.67721L9.49378 5.87901ZM9.75923 6.11797C9.82297 6.2202 9.85668 6.33812 9.85668 6.45839H7.85668C7.85668 6.71213 7.92784 6.96084 8.0621 7.17616L9.75923 6.11797ZM9.85668 6.45839C9.85668 6.57866 9.82297 6.69659 9.75923 6.79882L8.0621 5.74063C7.92784 5.95595 7.85668 6.20465 7.85668 6.45839H9.85668ZM9.75923 6.79882C9.69537 6.90123 9.60359 6.98431 9.49378 7.03778L8.6183 5.23957C8.38899 5.35122 8.19647 5.52513 8.0621 5.74063L9.75923 6.79882ZM9.5238 7.02253C11.0815 6.19815 12.4696 5.0849 13.6148 3.74183L12.0929 2.44418C11.1114 3.59529 9.92219 4.54889 8.58829 5.25482L9.5238 7.02253ZM13.5271 3.83238C13.4579 3.89544 13.3761 3.94323 13.2869 3.97255L12.6619 2.07272C12.4835 2.13143 12.3194 2.22716 12.1806 2.35363L13.5271 3.83238ZM13.2869 3.97255C13.1976 4.00193 13.103 4.01213 13.0092 4.00234L13.2169 2.01315C13.0296 1.99361 12.8405 2.01397 12.6619 2.07272L13.2869 3.97255Z" fill="#AA8B84" mask="url(#path-8-inside-4_8_714)"/>
<mask id="path-10-inside-5_8_714" fill="white">
<path d="M10.9359 0.478477C10.9905 0.481195 11.0436 0.496774 11.0911 0.523924C11.1386 0.551074 11.179 0.589046 11.2092 0.634795C11.2469 0.691635 14.9788 6.14828 19.5823 6.14828C19.6761 6.14828 19.766 6.1857 19.8322 6.25233C19.8985 6.31895 19.9357 6.40931 19.9357 6.50353C19.9357 6.59775 19.8985 6.68811 19.8322 6.75473C19.766 6.82135 19.6761 6.85878 19.5823 6.85878C14.9552 6.85878 11.2516 12.5428 11.2139 12.5949C11.1846 12.6418 11.1444 12.6809 11.0968 12.7089C11.0493 12.7369 10.9957 12.7531 10.9406 12.7559C10.8862 12.7595 10.8317 12.7507 10.7811 12.7302C10.7306 12.7097 10.6852 12.6781 10.6485 12.6375C5.81407 7.04825 0.400068 6.86351 0.348238 6.85878C0.254906 6.85631 0.166214 6.81729 0.10108 6.75005C0.0359478 6.6828 -0.000473022 6.59264 -0.000440598 6.49879C0.00428581 6.40573 0.0437908 6.3179 0.110197 6.2529C0.176603 6.18791 0.265013 6.15055 0.357672 6.14828C0.597979 6.14828 5.89419 6.07722 10.6344 0.601635C10.6712 0.558313 10.7177 0.524512 10.7702 0.503079C10.8227 0.481647 10.8795 0.473205 10.9359 0.478477ZM17.4101 6.51298C14.1542 5.48513 11.6946 2.46788 10.903 1.40213C7.88262 4.74148 4.73504 6.03932 2.67122 6.54614C5.86041 7.47758 8.71612 9.31082 10.8983 11.8275C11.6851 10.7239 14.1589 7.58347 17.4101 6.51298Z"/>
</mask>
<path d="M10.9359 0.478477C10.9905 0.481195 11.0436 0.496774 11.0911 0.523924C11.1386 0.551074 11.179 0.589046 11.2092 0.634795C11.2469 0.691635 14.9788 6.14828 19.5823 6.14828C19.6761 6.14828 19.766 6.1857 19.8322 6.25233C19.8985 6.31895 19.9357 6.40931 19.9357 6.50353C19.9357 6.59775 19.8985 6.68811 19.8322 6.75473C19.766 6.82135 19.6761 6.85878 19.5823 6.85878C14.9552 6.85878 11.2516 12.5428 11.2139 12.5949C11.1846 12.6418 11.1444 12.6809 11.0968 12.7089C11.0493 12.7369 10.9957 12.7531 10.9406 12.7559C10.8862 12.7595 10.8317 12.7507 10.7811 12.7302C10.7306 12.7097 10.6852 12.6781 10.6485 12.6375C5.81407 7.04825 0.400068 6.86351 0.348238 6.85878C0.254906 6.85631 0.166214 6.81729 0.10108 6.75005C0.0359478 6.6828 -0.000473022 6.59264 -0.000440598 6.49879C0.00428581 6.40573 0.0437908 6.3179 0.110197 6.2529C0.176603 6.18791 0.265013 6.15055 0.357672 6.14828C0.597979 6.14828 5.89419 6.07722 10.6344 0.601635C10.6712 0.558313 10.7177 0.524512 10.7702 0.503079C10.8227 0.481647 10.8795 0.473205 10.9359 0.478477ZM17.4101 6.51298C14.1542 5.48513 11.6946 2.46788 10.903 1.40213C7.88262 4.74148 4.73504 6.03932 2.67122 6.54614C5.86041 7.47758 8.71612 9.31082 10.8983 11.8275C11.6851 10.7239 14.1589 7.58347 17.4101 6.51298Z" fill="#1E1E1E"/>
<path d="M10.9359 0.478477L10.8429 1.47414L10.8645 1.47616L10.8862 1.47724L10.9359 0.478477ZM11.2092 0.634795L10.3746 1.18561L10.3758 1.18748L11.2092 0.634795ZM11.2139 12.5949L10.4037 12.0087L10.3842 12.0357L10.3665 12.064L11.2139 12.5949ZM10.9406 12.7559L10.8887 11.7573L10.8817 11.7576L10.8746 11.7581L10.9406 12.7559ZM10.6485 12.6375L9.89218 13.2917L9.89962 13.3003L9.90726 13.3087L10.6485 12.6375ZM0.348238 6.85878L0.439245 5.86293L0.40703 5.85998L0.374691 5.85913L0.348238 6.85878ZM-0.000440598 6.49879L-0.999153 6.44807L-1.00043 6.47324L-1.00044 6.49844L-0.000440598 6.49879ZM0.357672 6.14828V5.14828H0.345434L0.333202 5.14858L0.357672 6.14828ZM10.6344 0.601635L11.3905 1.25618L11.3968 1.24871L10.6344 0.601635ZM17.4101 6.51298L17.7229 7.46282L20.6685 6.49296L17.7112 5.55937L17.4101 6.51298ZM10.903 1.40213L11.7057 0.805854L10.979 -0.172643L10.1613 0.731337L10.903 1.40213ZM2.67122 6.54614L2.43273 5.575L-1.18175 6.46262L2.39087 7.50604L2.67122 6.54614ZM10.8983 11.8275L10.1427 12.4826L10.975 13.4425L11.7125 12.4081L10.8983 11.8275ZM10.8862 1.47724C10.7832 1.47211 10.6834 1.44274 10.5946 1.39197L11.5876 -0.344124C11.4039 -0.449198 11.1977 -0.509719 10.9857 -0.520284L10.8862 1.47724ZM10.5946 1.39197C10.5058 1.34114 10.4305 1.27032 10.3746 1.18561L12.0439 0.0839767C11.9276 -0.0922289 11.7714 -0.238993 11.5876 -0.344124L10.5946 1.39197ZM10.3758 1.18748C10.4228 1.25831 11.4174 2.70865 13.0121 4.15384C14.5813 5.57592 16.9016 7.14828 19.5823 7.14828V5.14828C17.6595 5.14828 15.8122 3.99232 14.3551 2.67186C12.9236 1.37452 12.0333 0.0681162 12.0426 0.0821047L10.3758 1.18748ZM19.5823 7.14828C19.4092 7.14828 19.2441 7.07908 19.1233 6.95758L20.5412 5.54707C20.2878 5.29232 19.943 5.14828 19.5823 5.14828V7.14828ZM19.1233 6.95758C19.0026 6.83625 18.9357 6.67282 18.9357 6.50353H20.9357C20.9357 6.1458 20.7944 5.80164 20.5412 5.54707L19.1233 6.95758ZM18.9357 6.50353C18.9357 6.33423 19.0026 6.1708 19.1233 6.04948L20.5412 7.45998C20.7944 7.20541 20.9357 6.86126 20.9357 6.50353H18.9357ZM19.1233 6.04948C19.2441 5.92797 19.4092 5.85878 19.5823 5.85878V7.85878C19.943 7.85878 20.2878 7.71473 20.5412 7.45998L19.1233 6.04948ZM19.5823 5.85878C16.8753 5.85878 14.5516 7.50345 12.9899 8.98083C12.1908 9.73678 11.5469 10.491 11.1007 11.0585C10.6609 11.6177 10.3822 12.0384 10.4037 12.0087L12.0241 13.181C12.0602 13.1312 12.9377 11.7833 14.3643 10.4337C15.8206 9.0561 17.6622 7.85878 19.5823 7.85878V5.85878ZM10.3665 12.064C10.4221 11.9752 10.4984 11.9009 10.5891 11.8474L11.6045 13.5704C11.7904 13.4609 11.947 13.3083 12.0614 13.1258L10.3665 12.064ZM10.5891 11.8474C10.6798 11.7939 10.7826 11.7628 10.8887 11.7573L10.9926 13.7546C11.2088 13.7433 11.4187 13.6799 11.6045 13.5704L10.5891 11.8474ZM10.8746 11.7581C10.9714 11.7517 11.0678 11.7674 11.1568 11.8035L10.4055 13.657C10.5956 13.734 10.8011 13.7674 11.0067 13.7537L10.8746 11.7581ZM11.1568 11.8035C11.2457 11.8395 11.3253 11.8952 11.3898 11.9663L9.90726 13.3087C10.0451 13.4609 10.2154 13.5799 10.4055 13.657L11.1568 11.8035ZM11.4048 11.9833C8.86547 9.04746 6.15826 7.5154 4.0597 6.71901C3.0124 6.32156 2.11887 6.10806 1.47529 5.99325C0.830246 5.87819 0.419571 5.86113 0.439245 5.86293L0.257231 7.85463C0.27281 7.85605 1.52225 7.89524 3.35009 8.58889C5.1801 9.28336 7.59711 10.6383 9.89218 13.2917L11.4048 11.9833ZM0.374691 5.85913C0.543625 5.8636 0.703062 5.93422 0.819374 6.05431L-0.617214 7.44578C-0.370634 7.70036 -0.0338154 7.84902 0.321785 7.85843L0.374691 5.85913ZM0.819374 6.05431C0.935589 6.17429 0.999617 6.33401 0.999559 6.49913L-1.00044 6.49844C-1.00056 6.85127 -0.863695 7.19131 -0.617214 7.44578L0.819374 6.05431ZM0.998272 6.54951C0.990295 6.70658 0.923584 6.85606 0.809687 6.96755L-0.589293 5.53826C-0.836004 5.77974 -0.981726 6.10489 -0.999153 6.44807L0.998272 6.54951ZM0.809687 6.96755C0.695631 7.07918 0.542974 7.14404 0.382139 7.14798L0.333202 5.14858C-0.012949 5.15705 -0.342424 5.29663 -0.589293 5.53826L0.809687 6.96755ZM0.357672 7.14828C0.756607 7.14828 6.38843 7.03416 11.3904 1.25615L9.87833 -0.0528774C5.39995 5.12028 0.439352 5.14828 0.357672 5.14828V7.14828ZM11.3968 1.24871C11.33 1.32747 11.2448 1.38943 11.1483 1.42886L10.3921 -0.422697C10.1906 -0.340404 10.0123 -0.210843 9.87196 -0.0454359L11.3968 1.24871ZM11.1483 1.42886C11.0518 1.46824 10.9471 1.48388 10.8429 1.47414L11.029 -0.517183C10.812 -0.537465 10.5936 -0.50495 10.3921 -0.422697L11.1483 1.42886ZM17.7112 5.55937C14.7841 4.63534 12.4876 1.85854 11.7057 0.805854L10.1002 1.99841C10.9015 3.07722 13.5243 6.33491 17.1091 7.46659L17.7112 5.55937ZM10.1613 0.731337C7.29569 3.89964 4.33498 5.10785 2.43273 5.575L2.9097 7.51729C5.1351 6.97079 8.46956 5.58332 11.6446 2.07293L10.1613 0.731337ZM2.39087 7.50604C5.39518 8.38348 8.08607 10.1107 10.1427 12.4826L11.6538 11.1724C9.34618 8.51099 6.32565 6.57168 2.95156 5.58624L2.39087 7.50604ZM11.7125 12.4081C12.0821 11.8896 12.8549 10.8839 13.9153 9.88611C14.9827 8.88181 16.2897 7.93469 17.7229 7.46282L17.0974 5.56314C15.2793 6.16176 13.7239 7.32009 12.5448 8.42954C11.3588 9.54548 10.5013 10.6618 10.084 11.247L11.7125 12.4081Z" fill="#AA8B84" mask="url(#path-10-inside-5_8_714)"/>
<mask id="path-12-inside-6_8_714" fill="white">
<path d="M19.6019 6.14827H50.4415C50.5353 6.14827 50.6251 6.18569 50.6914 6.25231C50.7577 6.31894 50.7949 6.4093 50.7949 6.50351C50.7949 6.59773 50.7577 6.68809 50.6914 6.75472C50.6251 6.82134 50.5353 6.85876 50.4415 6.85876H19.6019C19.5082 6.85876 19.4183 6.82134 19.3521 6.75472C19.2858 6.68809 19.2486 6.59773 19.2486 6.50351C19.2486 6.4093 19.2858 6.31894 19.3521 6.25231C19.4183 6.18569 19.5082 6.14827 19.6019 6.14827Z"/>
</mask>
<path d="M19.6019 6.14827H50.4415C50.5353 6.14827 50.6251 6.18569 50.6914 6.25231C50.7577 6.31894 50.7949 6.4093 50.7949 6.50351C50.7949 6.59773 50.7577 6.68809 50.6914 6.75472C50.6251 6.82134 50.5353 6.85876 50.4415 6.85876H19.6019C19.5082 6.85876 19.4183 6.82134 19.3521 6.75472C19.2858 6.68809 19.2486 6.59773 19.2486 6.50351C19.2486 6.4093 19.2858 6.31894 19.3521 6.25231C19.4183 6.18569 19.5082 6.14827 19.6019 6.14827Z" fill="#1E1E1E"/>
<path d="M19.6019 7.14827H50.4415V5.14827H19.6019V7.14827ZM50.4415 7.14827C50.2684 7.14827 50.1033 7.07907 49.9825 6.95757L51.4004 5.54706C51.147 5.29231 50.8021 5.14827 50.4415 5.14827V7.14827ZM49.9825 6.95757C49.8618 6.83624 49.7949 6.67281 49.7949 6.50351H51.7949C51.7949 6.14579 51.6536 5.80163 51.4004 5.54706L49.9825 6.95757ZM49.7949 6.50351C49.7949 6.33422 49.8618 6.17079 49.9825 6.04946L51.4004 7.45997C51.6536 7.2054 51.7949 6.86124 51.7949 6.50351H49.7949ZM49.9825 6.04946C50.1033 5.92796 50.2684 5.85876 50.4415 5.85876V7.85876C50.8021 7.85876 51.147 7.71472 51.4004 7.45997L49.9825 6.04946ZM50.4415 5.85876H19.6019V7.85876H50.4415V5.85876ZM19.6019 5.85876C19.7751 5.85876 19.9401 5.92796 20.061 6.04946L18.6431 7.45997C18.8965 7.71472 19.2413 7.85876 19.6019 7.85876V5.85876ZM20.061 6.04946C20.1817 6.17079 20.2486 6.33422 20.2486 6.50351H18.2486C18.2486 6.86124 18.3899 7.2054 18.6431 7.45997L20.061 6.04946ZM20.2486 6.50351C20.2486 6.67281 20.1817 6.83624 20.061 6.95757L18.6431 5.54706C18.3899 5.80163 18.2486 6.14579 18.2486 6.50351H20.2486ZM20.061 6.95757C19.9401 7.07907 19.7751 7.14827 19.6019 7.14827V5.14827C19.2413 5.14827 18.8965 5.29231 18.6431 5.54706L20.061 6.95757Z" fill="#AA8B84" mask="url(#path-12-inside-6_8_714)"/>
<path d="M25.3104 2.66138L25.3224 2.65313L25.3104 2.66138Z" fill="#1E1E1E" stroke="#AA8B84"/>
<line x1="25" y1="6.5" x2="199" y2="6.5" stroke="#AA8B84"/>
</svg>
