<svg width="280" height="136" viewBox="0 0 280 136" fill="none" xmlns="http://www.w3.org/2000/svg">
<path d="M252.463 113.703L252.438 113.701L26.8504 114.451L26.7974 113.703C26.7967 113.703 26.7959 113.703 26.7951 113.703C26.7765 113.704 26.7579 113.701 26.7405 113.695C26.7236 113.689 26.7078 113.679 26.6942 113.666L0.783654 87.4149L0.781093 87.4123C0.761354 87.3925 0.75 87.3654 0.75 87.3367C0.75 87.308 0.761401 87.2808 0.781096 87.261L0.783648 87.2584L26.6847 61.0166C26.7018 61.0023 26.7213 60.9911 26.7423 60.9833C26.7663 60.9745 26.7919 60.9705 26.8176 60.9717L26.834 60.9724H26.8504C26.8435 60.9724 26.8843 60.9751 26.9919 60.9825C27.0639 60.9874 27.1656 60.9943 27.303 61.0038L27.345 61.0067C27.6569 61.0283 28.1023 61.059 28.6808 61.0978C29.8908 61.1787 31.6824 61.2944 34.0558 61.4331C38.8026 61.7106 45.8758 62.0804 55.277 62.4502C74.0795 63.1898 102.194 63.9292 139.632 63.9292C177.071 63.9292 205.174 63.187 223.971 62.4445C233.369 62.0733 240.441 61.702 245.19 61.4235C247.564 61.2842 249.358 61.1681 250.571 61.0868C251.115 61.0503 251.543 61.0209 251.853 60.9995L251.954 60.9925C252.121 60.981 252.237 60.9732 252.31 60.9683C252.388 60.963 252.419 60.9609 252.414 60.9609H252.435L252.455 60.9598C252.478 60.9586 252.501 60.9621 252.523 60.9701C252.543 60.9773 252.561 60.9879 252.576 61.0016C252.578 61.0033 252.58 61.005 252.582 61.0067L278.481 87.247L278.484 87.2496C278.503 87.2694 278.515 87.2966 278.515 87.3253C278.515 87.354 278.503 87.3812 278.484 87.401L278.481 87.4035L252.564 113.662L252.561 113.665C252.548 113.678 252.533 113.688 252.516 113.694C252.499 113.701 252.481 113.704 252.463 113.703Z" fill="url(#paint0_radial_1039_25304)" stroke="#AA8B84" stroke-width="1.5"/>
<path d="M250.648 107.932C250.101 107.932 195.966 105.706 139.666 105.706C83.3666 105.706 29.2312 107.909 28.6844 107.932C28.5668 107.935 28.4498 107.914 28.3403 107.871C28.2308 107.828 28.1309 107.763 28.0464 107.681L8.55455 87.9189C8.39455 87.7584 8.30469 87.5407 8.30469 87.3138C8.30469 87.0869 8.39455 86.8693 8.55455 86.7088L27.9895 66.9467C28.0723 66.8624 28.1719 66.7965 28.2818 66.7532C28.3917 66.71 28.5095 66.6903 28.6274 66.6955C29.1743 66.6955 83.3095 68.9788 139.609 68.9788C195.909 68.9788 250.044 66.7754 250.591 66.6955C250.709 66.691 250.827 66.711 250.936 66.7542C251.046 66.7974 251.146 66.863 251.229 66.9467L270.721 86.7088C270.881 86.8693 270.971 87.0869 270.971 87.3138C270.971 87.5407 270.881 87.7584 270.721 87.9189L251.275 107.681C251.193 107.763 251.095 107.828 250.987 107.871C250.88 107.914 250.764 107.935 250.648 107.932Z" fill="white"/>
<path d="M140.487 58.1289L140.487 58.1288L140.481 58.1209L126.22 36.431C126.219 36.4308 126.219 36.4306 126.219 36.4303C126.19 36.3853 126.171 36.3343 126.163 36.2808C126.156 36.2285 126.16 36.1751 126.175 36.1245C126.192 36.0747 126.219 36.0295 126.255 35.992L125.893 35.6466L126.255 35.992C126.291 35.9544 126.334 35.9253 126.383 35.9065C131.476 34.1199 136.118 31.2369 139.98 27.4604L140.316 27.1325L140.01 26.7769C139.184 25.8162 138.438 24.7889 137.781 23.7056C136.955 22.3185 135.958 19.7883 135.46 17.0884C134.961 14.3788 134.988 11.6184 136.07 9.68016C136.586 8.91028 137.283 8.27894 138.099 7.84145C138.921 7.40103 139.838 7.17065 140.77 7.17065C141.702 7.17065 142.619 7.40103 143.441 7.84145C144.257 8.27902 144.954 8.91051 145.47 9.68058C146.558 11.6181 146.582 14.3779 146.08 17.0879C145.58 19.7877 144.579 22.3189 143.758 23.707C143.105 24.7919 142.36 25.8185 141.531 26.7755L141.223 27.1315L141.56 27.4606C145.424 31.2339 150.063 34.1161 155.154 35.9055C155.2 35.9241 155.242 35.9526 155.276 35.989C155.311 36.0268 155.337 36.0723 155.353 36.1221L155.353 36.1222L155.355 36.13C155.371 36.1788 155.376 36.2306 155.369 36.2814C155.362 36.3322 155.343 36.3806 155.314 36.4229L155.314 36.4229L155.31 36.4296L141.061 58.1169C141.061 58.1175 141.06 58.118 141.06 58.1185C141.026 58.1681 140.982 58.2089 140.929 58.2376L141.17 58.6758L140.929 58.2376C140.878 58.2657 140.821 58.2815 140.763 58.2838C140.709 58.2832 140.655 58.2692 140.608 58.243C140.558 58.216 140.517 58.1768 140.487 58.1289ZM127.694 36.6633L127.388 36.8641L140.352 56.6376L140.77 57.2754L141.188 56.6376L154.152 36.8641L154.494 36.3431L153.911 36.1224C149.132 34.3121 144.777 31.5317 141.12 27.9555L140.77 27.6137L140.42 27.9554C136.756 31.538 132.388 34.3189 127.596 36.122L127.694 36.6633ZM136.726 9.96659L136.726 9.96658L136.724 9.97122C135.68 11.8122 135.732 14.4973 136.194 16.9671C136.661 19.4598 137.576 21.8809 138.415 23.2831C138.997 24.2645 139.656 25.1982 140.385 26.0754L140.769 26.5365L141.154 26.0764C141.887 25.1992 142.55 24.2653 143.136 23.2834L143.136 23.2826C143.969 21.8814 144.884 19.4606 145.353 16.9674C145.817 14.4979 145.871 11.8125 144.828 9.97122L144.828 9.97121L144.825 9.96673C144.414 9.25905 143.809 8.68419 143.082 8.31055C142.369 7.9442 141.567 7.78644 140.769 7.85486C139.973 7.78893 139.175 7.94783 138.464 8.31405C137.739 8.68757 137.136 9.26107 136.726 9.96659Z" fill="#AA8B84" stroke="#AA8B84"/>
<path d="M135.162 33.9967C132.037 30.2672 127.49 28.1859 123.263 28.6596C122.113 28.7354 120.996 29.0719 119.996 29.6439C118.992 30.2178 118.133 31.0136 117.482 31.9706L117.473 31.9842L117.464 31.9985C116.932 32.9041 116.706 34.0661 116.841 35.16C116.977 36.2572 117.485 37.3385 118.482 38.0095L118.484 38.0109C118.523 38.0367 118.557 38.07 118.583 38.1088C118.609 38.1476 118.627 38.1913 118.636 38.2374C118.646 38.2834 118.646 38.3308 118.637 38.3769C118.628 38.4231 118.61 38.4668 118.584 38.5058L119.001 38.7819L118.584 38.5058C118.558 38.5447 118.525 38.5782 118.486 38.6043C118.447 38.6304 118.404 38.6485 118.359 38.6577C118.313 38.6669 118.266 38.667 118.221 38.658C118.18 38.65 118.141 38.6348 118.105 38.6133C117.081 37.8121 116.387 36.6616 116.153 35.38C115.919 34.094 116.167 32.7668 116.848 31.6524C117.547 30.5942 118.479 29.7108 119.572 29.0701C120.667 28.4279 121.895 28.0466 123.161 27.9554L123.171 27.9547L123.181 27.9536C127.543 27.4618 132.386 29.5838 135.703 33.5402C137.879 36.2242 139.443 39.3523 140.286 42.7056L141.256 42.7063C142.104 39.3545 143.668 36.2272 145.839 33.5402C149.168 29.5831 153.966 27.4617 158.373 27.9536L158.383 27.9547L158.393 27.9554C159.657 28.0466 160.883 28.428 161.976 29.0701L162.229 28.6389L161.976 29.0701C163.067 29.711 163.997 30.5946 164.694 31.6527C165.379 32.7652 165.63 34.0925 165.397 35.3792C165.166 36.6617 164.471 37.8132 163.447 38.6143C163.411 38.6367 163.371 38.6524 163.33 38.6608C163.284 38.6701 163.236 38.6702 163.19 38.6612C163.144 38.6522 163.101 38.6341 163.061 38.608C163.022 38.582 162.989 38.5484 162.962 38.5092C162.936 38.4699 162.918 38.4259 162.908 38.3795L162.418 38.4781L162.908 38.3795C162.899 38.3332 162.899 38.2854 162.908 38.2387C162.917 38.1922 162.935 38.148 162.961 38.1087C162.987 38.0694 163.021 38.0356 163.06 38.0094C164.057 37.3388 164.568 36.2583 164.705 35.1607C164.842 34.0663 164.615 32.9031 164.076 31.9962L164.068 31.9832L164.06 31.9706C163.409 31.0136 162.55 30.2178 161.546 29.6439C160.545 29.0719 159.429 28.7354 158.279 28.6596C154.052 28.1859 149.505 30.2673 146.38 33.997L146.38 33.9973C143.767 37.1206 142.054 41.2409 141.121 46.5616L141.121 46.5616L141.121 46.5671C141.107 46.6488 141.065 46.7228 141.002 46.7757C140.939 46.8285 140.859 46.8569 140.778 46.8558L140.776 46.8558C140.691 46.855 140.609 46.8249 140.544 46.7703C140.48 46.7162 140.436 46.6416 140.42 46.5586C139.498 41.2393 137.786 37.1197 135.162 33.9967ZM135.162 33.9967C135.162 33.9968 135.162 33.9969 135.162 33.997L134.779 34.3181L135.162 33.9964C135.162 33.9965 135.162 33.9966 135.162 33.9967Z" fill="#AA8B84" stroke="#AA8B84"/>
<path d="M215.446 59.0602L215.456 59.0606L216.016 59.083C221.745 59.0731 227.281 57.0082 231.622 53.2617C235.803 49.4135 238.565 42.4743 235.787 36.6453L235.785 36.6405C235.751 36.5675 235.693 36.5083 235.622 36.4724C235.551 36.4365 235.469 36.4259 235.391 36.4424C235.313 36.4588 235.242 36.5013 235.191 36.5632C235.14 36.6251 235.111 36.7027 235.109 36.7835C235.056 39.2594 234.343 41.6761 233.045 43.7833C231.746 45.8905 229.909 47.6117 227.723 48.7683L226.977 49.1632L226.989 48.3189C227.006 47.2021 226.884 45.8075 226.611 44.5495C226.331 43.2635 225.915 42.2281 225.415 41.7268L225.412 41.7237C225.365 41.6758 225.306 41.6424 225.241 41.627L225.356 41.1404L225.241 41.627C225.176 41.6117 225.108 41.6151 225.045 41.6368C224.982 41.6586 224.926 41.6979 224.884 41.7502C224.842 41.8025 224.815 41.8658 224.808 41.9329C224.808 41.9329 224.808 41.9329 224.808 41.933L224.311 41.876L215.446 59.0602ZM215.446 59.0602H215.436C210.21 59.0602 204.567 57.8021 197.712 55.1107M215.446 59.0602L197.712 55.1107M197.712 55.1107C195.585 54.2714 193.478 53.3457 191.236 52.3605L191.042 52.2754L191.042 52.2753L190.989 52.2519C181.577 48.1205 171.627 43.7526 161.533 46.5428C154.513 48.4774 150.142 53.9303 147.7 58.1088C147.655 58.1864 147.581 58.2426 147.494 58.266C147.411 58.2887 147.322 58.2786 147.245 58.2379C147.171 58.1904 147.117 58.1165 147.093 58.0306C147.07 57.9438 147.08 57.8514 147.122 57.772C150.749 51.5514 155.686 47.4644 161.366 45.8856C171.669 43.0414 181.57 47.364 191.345 51.6608C193.624 52.6653 195.817 53.6156 197.99 54.4752L197.712 55.1107ZM225.936 44.7254L225.479 42.8593L224.968 44.7112C223.71 49.2712 220.619 54.8374 216.266 57.3937L214.603 58.37L216.53 58.3247C221.888 58.199 227.036 56.2153 231.097 52.7121L231.097 52.7122L231.103 52.7068C232.774 51.2177 234.096 49.3765 234.974 47.3152C235.852 45.2539 236.264 43.0236 236.18 40.7841L235.201 40.6607C234.575 42.7739 233.481 44.7181 232.001 46.3485C230.521 47.9781 228.694 49.2522 226.656 50.0762C226.596 50.0991 226.531 50.1053 226.468 50.0941C226.404 50.0827 226.345 50.0541 226.296 50.011C226.247 49.968 226.211 49.9122 226.192 49.8497C226.172 49.7871 226.17 49.7205 226.186 49.657L226.193 49.6303L226.196 49.6029C226.414 47.9751 226.326 46.3206 225.936 44.7254Z" fill="#AA8B84" stroke="#AA8B84"/>
<path d="M54.7513 44.5421C55.0268 43.255 55.4347 42.2131 55.9368 41.7006C55.9837 41.6528 56.0431 41.6194 56.1079 41.6041C56.1728 41.5887 56.2407 41.5921 56.3039 41.6139C56.367 41.6356 56.4228 41.6749 56.4649 41.7273L56.8549 41.4144L56.4649 41.7273C56.5069 41.7797 56.5334 41.8431 56.5411 41.91L56.5411 41.9107C56.8705 44.7458 58.3278 48.7588 60.6272 52.0692C62.9183 55.3677 66.1392 58.0965 70.0362 58.0965H70.0721L70.1076 58.0914C74.662 57.4347 79.1172 56.2123 83.3702 54.4524C85.5434 53.5926 87.7151 52.6418 90.0024 51.6383L90.0027 51.6381C99.7786 47.3412 109.68 43.0183 119.983 45.8627C125.66 47.4409 130.596 51.5257 134.235 57.7429C134.274 57.8246 134.282 57.9177 134.259 58.0055C134.236 58.0899 134.185 58.1635 134.115 58.2141C134.038 58.2495 133.95 58.2569 133.868 58.2346C133.781 58.211 133.705 58.1556 133.656 58.079C131.213 53.901 126.832 48.4535 119.828 46.52C109.734 43.7295 99.7833 48.0975 90.3715 52.2289L90.3182 52.2523L90.3156 52.2535C88.0395 53.2685 85.8372 54.2241 83.6485 55.0878L83.6472 55.0883C76.8268 57.8019 71.1953 59.0601 65.935 59.0601H65.3436C59.6109 59.0497 54.071 56.9844 49.7251 53.2375C45.5048 49.4056 42.7948 42.4571 45.5603 36.6253C45.5961 36.5535 45.6543 36.4957 45.7255 36.4604C45.7973 36.4249 45.8786 36.414 45.957 36.4294C46.0344 36.4454 46.1045 36.4871 46.1558 36.5479C46.2069 36.6086 46.2365 36.6848 46.2395 36.7645C46.2982 39.238 47.0129 41.6514 48.3102 43.7566C49.6082 45.8627 51.4425 47.5845 53.6246 48.7449L54.3594 49.1356V48.3034C54.3594 47.1928 54.4818 45.8011 54.7513 44.5421ZM46.1706 40.6603L45.1917 40.7812C45.0953 43.0232 45.4964 45.2587 46.3662 47.3267C47.236 49.3946 48.5529 51.2435 50.2219 52.74L50.2218 52.74L50.2293 52.7465C54.3041 56.2571 59.4691 58.241 64.8418 58.3589L65.104 57.4268C60.7079 54.8716 57.6738 49.3086 56.403 44.7443L55.8839 42.8797L55.435 44.7625C55.057 46.3477 54.9767 47.9896 55.1982 49.6043L55.2018 49.6309L55.2083 49.6569C55.2241 49.7205 55.2221 49.7871 55.2026 49.8496C55.1832 49.9121 55.147 49.9679 55.0982 50.0109C55.0494 50.054 54.9898 50.0826 54.926 50.094C54.8627 50.1052 54.7977 50.0989 54.738 50.076C52.6952 49.2548 50.8638 47.9817 49.3804 46.3518C47.8964 44.7212 46.7991 42.7757 46.1706 40.6603Z" fill="#AA8B84" stroke="#AA8B84"/>
<path d="M168.787 44.2268C167.785 45.0313 166.608 45.5863 165.351 45.8467C165.265 45.8568 165.178 45.8348 165.106 45.7843C165.032 45.7317 164.98 45.6521 164.962 45.562C164.945 45.4718 164.962 45.3784 165.011 45.3011C165.059 45.226 165.133 45.1718 165.218 45.1488C166.377 44.9076 167.462 44.3917 168.382 43.6443C169.304 42.8944 170.034 41.9334 170.508 40.8423L170.51 40.8382C171.459 38.6006 171.926 36.1878 171.882 33.7571C171.837 31.3271 171.282 28.9337 170.253 26.7331C169.036 24.0703 167.088 21.8091 164.637 20.2133C162.185 18.6171 159.331 17.7526 156.407 17.7208V17.7208H156.402H156.299H155.864L155.804 18.1518L155.737 18.637C154.876 23.9029 152.274 25.1262 151.367 25.3373L151.35 25.3412L151.333 25.3463C150.815 25.5058 150.263 25.5229 149.736 25.3958C149.208 25.2687 148.725 25.002 148.335 24.6235C147.945 24.245 147.664 23.7685 147.521 23.2437L147.038 23.3755L147.52 23.2437C147.379 22.727 147.377 22.1821 147.513 21.6644C147.857 20.7831 148.382 19.9842 149.054 19.3198C149.73 18.6518 150.539 18.1348 151.428 17.8028C152.533 17.4472 153.671 17.2068 154.825 17.0855L155.219 17.044L155.269 16.6507C155.496 14.8496 155.357 13.0212 154.861 11.2751C154.365 9.52905 153.522 7.9014 152.382 6.49009L152.382 6.48998L152.374 6.4803C148.825 2.30705 143.141 1.22391 140.601 1.22391C138.061 1.22391 132.377 2.30705 128.828 6.4803L128.828 6.48019L128.819 6.49056C127.682 7.90279 126.841 9.53086 126.347 11.2769C125.853 13.0229 125.716 14.8509 125.945 16.6512L125.994 17.0435L126.388 17.0854C127.538 17.2079 128.673 17.4483 129.774 17.8028C130.663 18.1348 131.472 18.6518 132.148 19.3198C132.82 19.9842 133.345 20.7831 133.688 21.6643C133.825 22.1821 133.823 22.727 133.681 23.2437C133.538 23.7685 133.257 24.245 132.867 24.6235C132.477 25.002 131.994 25.2687 131.466 25.3958C130.939 25.5229 130.387 25.5058 129.868 25.3463L129.868 25.3462L129.857 25.3428C129.365 25.2049 128.491 24.8338 127.631 23.8595C126.773 22.8857 125.903 21.2811 125.465 18.6364L125.398 18.1518L125.338 17.7208H124.903L124.8 17.7208L124.795 17.7208C121.872 17.7505 119.018 18.6145 116.568 20.2112C114.118 21.8073 112.173 24.0696 110.961 26.7331C109.928 28.9327 109.37 31.3264 109.326 33.757C109.282 36.1885 109.751 38.602 110.704 40.8389L110.705 40.8418C111.178 41.9321 111.905 42.8928 112.825 43.6428C113.744 44.3911 114.828 44.9078 115.987 45.1496C116.069 45.1699 116.141 45.2188 116.19 45.2879C116.24 45.3583 116.263 45.4449 116.254 45.5313C116.246 45.6178 116.206 45.6978 116.143 45.7566C116.081 45.8142 116.001 45.8476 115.917 45.8512H115.909C114.665 45.5863 113.501 45.0333 112.508 44.236C111.502 43.4282 110.702 42.3927 110.173 41.2145L110.169 41.2057L110.165 41.197C108.144 37.1245 108.234 30.8837 110.417 26.4207L110.417 26.4207L110.422 26.409C111.687 23.6439 113.707 21.2945 116.249 19.6329C118.791 17.9712 121.751 17.0652 124.785 17.0197L125.335 17.0114L125.274 16.4647C125.069 14.6065 125.235 12.7259 125.764 10.9331C126.292 9.14177 127.172 7.47415 128.352 6.02781C132.026 1.68677 138.006 0.5 140.647 0.5C143.292 0.5 149.268 1.62099 152.94 6.02645C154.122 7.47177 155.004 9.13979 155.533 10.9321C156.062 12.7251 156.227 14.606 156.019 16.464L155.957 17.0116L156.508 17.0197C159.543 17.0639 162.503 17.9694 165.045 19.6311C167.587 21.2929 169.607 23.6429 170.871 26.4088L170.874 26.4166L170.878 26.4242C173.091 30.8599 173.15 37.1109 171.128 41.1856L171.124 41.1946L171.12 41.2037C170.592 42.3827 169.793 43.4189 168.787 44.2268ZM126.797 17.8386L126.237 17.7708V18.335V18.4263V18.4678L126.244 18.5088C127.023 23.17 129.225 24.4041 130.131 24.6162C130.533 24.7527 130.966 24.7726 131.379 24.6735C131.8 24.5727 132.182 24.3528 132.481 24.0403C132.772 23.7538 132.982 23.3949 133.088 23.0006C133.196 22.6033 133.195 22.1844 133.086 21.7874L133.076 21.7521L133.061 21.7185C132.405 20.2274 131.19 19.0542 129.678 18.4527L129.659 18.445L129.639 18.4389C128.711 18.1562 127.76 17.9553 126.797 17.8386ZM155.072 18.5582L155.494 17.7125L151.025 24.1803L151.162 24.661C151.163 24.6608 151.164 24.6606 151.164 24.6604C151.566 24.5451 152.349 24.2107 153.129 23.2941C153.9 22.3875 154.646 20.9378 155.037 18.6282L155.072 18.5582Z" fill="#AA8B84" stroke="#AA8B84"/>
<path d="M197.971 58.8663L197.97 58.8662C195.332 58.8112 192.722 58.3085 190.252 57.3797L190.252 57.3796L190.242 57.376C188.372 56.7191 186.511 55.9594 184.696 55.2184C184.6 55.1793 184.505 55.1403 184.409 55.1014C184.205 55.018 183.997 54.933 183.786 54.8468C182.045 54.1345 180.111 53.3432 178.258 52.7068C175.09 51.5612 170.309 50.1985 165.976 50.8457C165.26 50.9525 164.252 51.1852 163.393 51.708C162.519 52.2402 161.772 53.0943 161.689 54.41C161.654 54.8471 161.711 55.2866 161.855 55.7006C161.999 56.1162 162.229 56.497 162.529 56.8187L162.534 56.8243L162.539 56.8298C162.797 57.09 163.109 57.291 163.452 57.4189C163.792 57.5454 164.155 57.5972 164.517 57.5707C164.609 57.5685 164.7 57.6019 164.769 57.6645C164.84 57.728 164.883 57.8166 164.89 57.9118C164.892 57.9578 164.885 58.0039 164.87 58.0474C164.855 58.0918 164.83 58.1325 164.799 58.1673C164.768 58.2021 164.73 58.2303 164.688 58.2504C164.646 58.2705 164.601 58.2821 164.555 58.2845C164.09 58.3077 163.627 58.2314 163.194 58.0608C162.762 57.8902 162.37 57.6292 162.046 57.295C161.672 56.9052 161.383 56.44 161.201 55.9301C161.019 55.42 160.946 54.8768 160.989 54.3365L160.989 54.3366L160.99 54.3266C161.056 53.2028 161.517 52.2711 162.323 51.5576C163.137 50.8367 164.328 50.3179 165.873 50.0881C170.299 49.434 175.163 50.8435 178.475 51.9842C180.578 52.7094 182.662 53.5603 184.679 54.3939C186.695 55.2272 188.515 55.9731 190.475 56.6851L190.475 56.6851L190.48 56.6871C197.097 59.0016 202.427 58.5407 206.15 55.0501L206.153 55.0473C207.529 53.7367 208.547 52.0942 209.108 50.2771C209.461 49.294 209.614 48.2498 209.558 47.2063C209.502 46.1588 209.236 45.1332 208.775 44.1909L208.772 44.1846L208.769 44.1783C208.296 43.2752 207.545 42.5483 206.628 42.1048C205.711 41.6615 204.676 41.525 203.676 41.7157C203.589 41.7319 203.5 41.7149 203.425 41.668L203.16 42.0922L203.425 41.668C203.349 41.621 203.294 41.5473 203.27 41.4611C203.246 41.3748 203.256 41.2827 203.296 41.2032C203.332 41.1325 203.39 41.0763 203.461 41.0429C204.599 40.8085 205.783 40.9458 206.838 41.4355C207.905 41.9304 208.783 42.7585 209.34 43.7959C209.853 44.8195 210.154 45.9362 210.226 47.0793C210.298 48.2246 210.138 49.3727 209.757 50.4547L209.753 50.4644L209.75 50.4743C209.153 52.4193 208.066 54.177 206.593 55.5775C204.26 57.7634 201.164 58.9442 197.971 58.8663Z" fill="#AA8B84" stroke="#AA8B84"/>
<path d="M83.3995 58.8663L83.3986 58.8663C80.1949 58.9505 77.0864 57.7694 74.7436 55.5774C73.2709 54.1769 72.1833 52.4192 71.5862 50.4743L71.5836 50.4657L71.5807 50.4572C71.2049 49.3733 71.0485 48.2252 71.1206 47.0799C71.1926 45.9374 71.4905 44.8206 71.9971 43.7946C72.5545 42.7579 73.4321 41.9302 74.4983 41.4355C75.5668 40.9396 76.7671 40.8051 77.9185 41.0519L77.9184 41.052L77.9309 41.0544C77.9789 41.0634 78.0246 41.0824 78.0653 41.1102C78.1058 41.1379 78.1402 41.1739 78.1662 41.2158C78.1923 41.2577 78.2094 41.3047 78.2165 41.3536C78.2235 41.4026 78.2203 41.4525 78.2071 41.5002L78.2071 41.5002C78.1939 41.5478 78.171 41.5922 78.1398 41.6304C78.1086 41.6686 78.07 41.6998 78.0264 41.7221C77.9828 41.7444 77.935 41.7574 77.886 41.7602C77.8372 41.763 77.7883 41.7557 77.7424 41.7385L77.7023 41.7236L77.6603 41.7157C76.6602 41.5269 75.6262 41.6642 74.7098 42.1073C73.7934 42.5505 73.043 43.276 72.5683 44.1774L72.5644 44.1849L72.5607 44.1924C72.104 45.1353 71.8397 46.16 71.7833 47.2065C71.7272 48.2493 71.8785 49.2927 72.2285 50.2763C72.79 52.097 73.8124 53.7413 75.1964 55.0487L75.1978 55.0501C78.9209 58.5404 84.239 59.0133 90.8682 56.6869L90.8694 56.6865C92.8207 55.9963 94.78 55.1924 96.6627 54.392C98.5354 53.5958 100.757 52.71 102.861 51.9844C106.186 50.8434 111.027 49.434 115.464 50.0881C117.009 50.3179 118.2 50.8367 119.016 51.5579C119.823 52.2718 120.287 53.2042 120.359 54.3288L120.359 54.3288L120.359 54.3347C120.4 54.8758 120.326 55.4194 120.141 55.9296C119.957 56.4399 119.667 56.9051 119.291 57.2947L119.29 57.2948C118.967 57.6296 118.576 57.8911 118.143 58.0618C117.711 58.2325 117.247 58.3084 116.783 58.2845C116.736 58.282 116.691 58.2704 116.649 58.2503C116.607 58.2301 116.569 58.2018 116.538 58.167C116.507 58.1322 116.482 58.0914 116.467 58.047C116.451 58.0027 116.444 57.9557 116.447 57.9086C116.449 57.8615 116.461 57.8154 116.481 57.773C116.502 57.7306 116.53 57.6927 116.565 57.6614C116.599 57.6301 116.64 57.606 116.684 57.5905C116.726 57.5755 116.771 57.5687 116.816 57.5704C117.179 57.5984 117.544 57.547 117.885 57.42C118.229 57.292 118.541 57.0902 118.798 56.8288L118.799 56.829L118.808 56.8187C119.108 56.497 119.338 56.1162 119.482 55.7006C119.626 55.2867 119.682 54.8473 119.648 54.4104C119.566 53.0697 118.825 52.2132 117.945 51.6851C117.085 51.1687 116.076 50.9515 115.36 50.8457C111.025 50.1982 106.251 51.6092 103.094 52.7056C101.143 53.3716 99.2039 54.1674 97.3279 54.9372C97.1939 54.9922 97.0602 55.0471 96.9268 55.1017C94.9201 55.9244 93.0634 56.6845 91.0951 57.376L91.0951 57.3759L91.0858 57.3793C88.6239 58.2994 86.0262 58.802 83.3995 58.8663Z" fill="#AA8B84" stroke="#AA8B84"/>
<path d="M77.8757 82.6212H81.2117L84.2117 90.7332H84.3797L87.4037 82.6212H90.7157L91.2917 97.4532H88.6277L88.3637 89.9892L88.3877 86.2452L88.1957 86.1972L85.3157 93.3972H83.2757L80.3957 86.1972L80.2037 86.2452L80.2517 89.9892L79.9637 97.4532H77.2997L77.8757 82.6212ZM96.6176 102.181C95.6576 102.181 94.8176 102.013 94.0976 101.677V100.933C94.0976 100.229 94.1776 99.5732 94.3376 98.9652H96.2096V99.9732C96.4336 100.021 96.6896 100.045 96.9776 100.045C97.1536 100.045 97.4496 100.013 97.8656 99.9492C98.2496 98.9892 98.6176 97.9892 98.9696 96.9492H97.4816C96.5696 94.8212 95.8096 92.9332 95.2016 91.2852C94.6096 89.6372 94.0896 87.9332 93.6416 86.1732L96.2816 86.0052C97.1136 89.3172 98.0096 92.1892 98.9696 94.6212H99.7376C100.49 92.1892 101.25 89.3172 102.018 86.0052L104.658 86.1732C104.002 88.8612 103.29 91.4212 102.522 93.8532C101.754 96.2852 100.994 98.3812 100.242 100.141C99.9856 100.733 99.4816 101.221 98.7296 101.605C97.9936 101.989 97.2896 102.181 96.6176 102.181ZM122.253 100.813C121.597 100.813 120.813 100.749 119.901 100.621C119.005 100.509 118.397 100.381 118.077 100.237V98.9412L118.605 97.2852C115.453 96.7572 113.877 94.4132 113.877 90.2532C113.877 87.6132 114.421 85.6452 115.509 84.3492C116.597 83.0372 118.301 82.3812 120.621 82.3812C122.733 82.3812 124.301 82.9812 125.325 84.1812C126.365 85.3812 126.885 87.1892 126.885 89.6052C126.885 92.0852 126.405 93.9572 125.445 95.2212C124.501 96.4852 123.021 97.1892 121.005 97.3332C120.861 97.3492 120.701 97.3572 120.525 97.3572V98.6532C121.037 98.7332 121.605 98.7732 122.229 98.7732C123.685 98.7732 124.885 98.6692 125.829 98.4612L126.189 100.429C125.309 100.685 123.997 100.813 122.253 100.813ZM120.525 94.9572C121.661 94.9572 122.581 94.8132 123.285 94.5252C123.925 93.1012 124.245 91.6052 124.245 90.0372C124.245 88.7892 124.125 87.7892 123.885 87.0372C123.645 86.2852 123.229 85.7332 122.637 85.3812C122.061 85.0132 121.253 84.8292 120.213 84.8292C119.029 84.8292 118.085 84.9732 117.381 85.2612C116.789 86.6052 116.493 88.1252 116.493 89.8212C116.493 91.0532 116.613 92.0372 116.853 92.7732C117.109 93.5092 117.525 94.0612 118.101 94.4292C118.693 94.7812 119.501 94.9572 120.525 94.9572ZM140.076 97.6212C139.516 97.6212 139.076 97.5252 138.756 97.3332C138.436 97.1412 138.18 96.8292 137.988 96.3972L136.644 93.5412C136.436 93.0932 136.252 92.7572 136.092 92.5332C135.932 92.3092 135.7 92.1252 135.396 91.9812C135.092 91.8372 134.684 91.7652 134.172 91.7652H132.42V97.4532H129.78V83.0532C131.268 82.6052 132.772 82.3812 134.292 82.3812C136.196 82.3812 137.636 82.7412 138.612 83.4612C139.588 84.1812 140.076 85.3012 140.076 86.8212C140.076 88.7572 139.188 90.1492 137.412 90.9972V91.2132C137.812 91.3732 138.148 91.5732 138.42 91.8132C138.692 92.0532 138.94 92.3732 139.164 92.7732L140.724 95.7012L141.828 95.9172V97.4052C141.38 97.5492 140.796 97.6212 140.076 97.6212ZM136.164 89.5092C136.596 89.2532 136.916 88.9332 137.124 88.5492C137.348 88.1492 137.46 87.6452 137.46 87.0372C137.46 86.1892 137.204 85.5972 136.692 85.2612C136.196 84.9092 135.388 84.7332 134.268 84.7332C133.532 84.7332 132.916 84.7892 132.42 84.9012V89.5092H136.164ZM144.147 89.8692H151.467V92.1972H144.147V89.8692ZM161.122 97.6692C158.882 97.6692 157.194 97.0692 156.058 95.8692C154.938 94.6532 154.378 92.8612 154.378 90.4932C154.378 88.0292 154.93 86.0612 156.034 84.5892C157.138 83.1172 158.77 82.3812 160.93 82.3812C161.906 82.3812 162.826 82.4852 163.69 82.6932C164.554 82.8852 165.242 83.1332 165.754 83.4372V84.6372C165.754 85.0212 165.722 85.4212 165.658 85.8372C165.61 86.2532 165.538 86.6052 165.442 86.8932H163.426L163.186 85.0452C162.594 84.9012 161.794 84.8292 160.786 84.8292C159.89 84.8292 158.97 84.9332 158.026 85.1412C157.354 86.5812 157.018 88.3172 157.018 90.3492C157.018 92.0772 157.338 93.3252 157.978 94.0932C158.634 94.8452 159.722 95.2212 161.242 95.2212C162.058 95.2212 162.818 95.1252 163.522 94.9332C164.242 94.7412 164.842 94.4772 165.322 94.1412L166.426 96.1812C165.818 96.6612 165.066 97.0292 164.17 97.2852C163.274 97.5412 162.258 97.6692 161.122 97.6692ZM173.406 97.6452C171.646 97.6452 170.374 97.1572 169.59 96.1812C168.822 95.1892 168.438 93.7812 168.438 91.9572C168.438 90.0852 168.902 88.6132 169.83 87.5412C170.774 86.4532 172.174 85.9092 174.03 85.9092C177.342 85.9092 178.998 87.8692 178.998 91.7892C178.998 95.6932 177.134 97.6452 173.406 97.6452ZM173.91 95.4612C174.71 95.4612 175.398 95.3492 175.974 95.1252C176.294 94.4052 176.454 93.3972 176.454 92.1012C176.454 91.1252 176.374 90.3572 176.214 89.7972C176.07 89.2372 175.782 88.8292 175.35 88.5732C174.934 88.3012 174.326 88.1652 173.526 88.1652C172.726 88.1652 172.038 88.2772 171.462 88.5012C171.142 89.2372 170.982 90.3012 170.982 91.6932C170.982 92.6532 171.062 93.3972 171.222 93.9252C171.382 94.4532 171.67 94.8452 172.086 95.1012C172.502 95.3412 173.11 95.4612 173.91 95.4612ZM185.579 97.6452C184.059 97.6452 182.947 97.1492 182.243 96.1572C181.555 95.1652 181.211 93.7172 181.211 91.8132C181.211 90.1652 181.555 88.7812 182.243 87.6612C182.931 86.5412 184.011 85.9812 185.483 85.9812C186.219 85.9812 186.867 86.1172 187.427 86.3892C187.987 86.6452 188.499 87.0212 188.963 87.5172H189.107L188.987 85.6932V81.3492H191.579V97.4532H189.203L189.107 95.9172H188.915C188.515 96.4612 188.051 96.8852 187.523 97.1892C187.011 97.4932 186.363 97.6452 185.579 97.6452ZM186.299 95.3412C186.923 95.3412 187.459 95.1972 187.907 94.9092C188.355 94.6212 188.715 94.2452 188.987 93.7812V89.4612C188.587 89.0612 188.171 88.7652 187.739 88.5732C187.307 88.3812 186.811 88.2852 186.251 88.2852C185.435 88.2852 184.835 88.5812 184.451 89.1732C184.083 89.7492 183.899 90.6532 183.899 91.8852C183.899 93.1332 184.067 94.0212 184.403 94.5492C184.755 95.0772 185.387 95.3412 186.299 95.3412ZM199.736 97.6212C197.912 97.6212 196.56 97.1332 195.68 96.1572C194.8 95.1652 194.36 93.7492 194.36 91.9092C194.36 90.0212 194.824 88.5572 195.752 87.5172C196.68 86.4612 198 85.9332 199.712 85.9332C201.2 85.9332 202.328 86.3492 203.096 87.1812C203.864 88.0132 204.248 89.1492 204.248 90.5892C204.248 90.8772 204.24 91.0932 204.224 91.2372L202.664 92.7732L196.856 92.7012C196.888 94.5412 197.888 95.4612 199.856 95.4612C200.608 95.4612 201.256 95.3732 201.8 95.1972C202.36 95.0212 202.92 94.7572 203.48 94.4052L204.2 96.3732C203.576 96.7732 202.92 97.0852 202.232 97.3092C201.544 97.5172 200.712 97.6212 199.736 97.6212ZM201.752 90.8772C201.832 90.6212 201.872 90.3252 201.872 89.9892C201.872 89.4132 201.672 88.9572 201.272 88.6212C200.888 88.2852 200.336 88.1172 199.616 88.1172C198.608 88.1172 197.896 88.3492 197.48 88.8132C197.08 89.2612 196.864 89.9812 196.832 90.9732L201.752 90.8772Z" fill="#313131"/>
<path d="M145.784 135.991C145.018 135.985 144.261 135.828 143.554 135.527C141.564 134.684 139.608 132.398 140.644 128.78C141.091 127.343 141.903 126.051 142.999 125.035L141.979 124.445C135.122 120.43 128.034 116.281 119.875 115.404C115.009 114.872 107.63 115.707 104.703 119.722C106.025 120.463 107.16 121.505 108.02 122.767C108.374 123.332 108.59 123.976 108.648 124.644C108.705 125.312 108.604 125.984 108.351 126.604C108.147 127.004 107.839 127.34 107.46 127.575C107.082 127.81 106.647 127.935 106.204 127.937C105.697 127.964 105.191 127.864 104.731 127.645C104.271 127.425 103.871 127.094 103.567 126.68C103.047 125.926 102.685 125.071 102.505 124.168C102.325 123.265 102.331 122.334 102.523 121.434C102.643 121.021 102.793 120.618 102.97 120.228L102.481 120.017C97.2415 117.833 91.2803 120.338 86.9276 122.159C81.2934 124.619 75.2409 125.934 69.1106 126.031H69.0609C66.1839 126.031 56.5251 125.516 53.0761 119.115C53.0369 119.042 53.0123 118.961 53.0035 118.879C52.9948 118.796 53.0022 118.712 53.0253 118.632C53.0484 118.552 53.0868 118.478 53.1381 118.413C53.1895 118.348 53.253 118.294 53.3248 118.254C53.3967 118.215 53.4756 118.189 53.557 118.181C53.6384 118.172 53.7206 118.179 53.7992 118.203C53.8777 118.226 53.9509 118.265 54.0146 118.318C54.0783 118.37 54.1313 118.434 54.1705 118.507C56.6578 123.104 63.4894 124.757 69.094 124.766H69.1438C75.1123 124.67 81.0047 123.386 86.4882 120.987C91.0399 119.081 97.2663 116.475 102.987 118.845L103.625 119.132C106.942 114.206 115.506 113.649 120.058 114.147C128.473 115.058 136.001 119.46 142.65 123.349L143.687 123.956L144.043 124.167C146.802 122.129 150.011 120.811 153.387 120.329C156.388 119.874 161.338 120.329 162.64 123.45C162.902 124.064 163.024 124.731 162.996 125.399C162.969 126.068 162.793 126.723 162.482 127.313C162.025 128.11 161.401 128.795 160.654 129.319C159.908 129.844 159.057 130.195 158.163 130.349C154.274 131.133 150.701 129.396 147.675 127.709C146.506 127.051 145.328 126.376 144.176 125.702C143.115 126.608 142.322 127.796 141.888 129.134C140.876 132.668 143.314 134.018 144.085 134.347C145.743 135.055 147.517 134.726 148.139 133.596C148.221 133.453 148.355 133.349 148.512 133.305C148.669 133.262 148.836 133.282 148.978 133.363C149.12 133.443 149.226 133.577 149.272 133.736C149.318 133.895 149.301 134.065 149.225 134.212C148.863 134.797 148.352 135.271 147.746 135.584C147.14 135.897 146.462 136.038 145.784 135.991ZM145.179 124.867C146.182 125.449 147.202 126.039 148.222 126.604C151.066 128.19 154.39 129.817 157.872 129.134C158.587 129.015 159.267 128.74 159.865 128.326C160.464 127.912 160.966 127.371 161.338 126.739C161.563 126.317 161.69 125.848 161.709 125.369C161.728 124.889 161.638 124.411 161.446 123.973C160.484 121.662 156.231 121.198 153.52 121.603C150.532 122.033 147.68 123.149 145.179 124.867ZM104.065 120.818C103.916 121.133 103.794 121.461 103.7 121.797C103.566 122.502 103.57 123.227 103.712 123.93C103.855 124.634 104.132 125.302 104.529 125.896C104.709 126.153 104.95 126.36 105.23 126.497C105.51 126.634 105.819 126.697 106.129 126.68C106.355 126.689 106.578 126.634 106.775 126.521C106.971 126.407 107.132 126.241 107.24 126.039C107.383 125.624 107.433 125.181 107.387 124.744C107.341 124.306 107.2 123.884 106.975 123.509C106.224 122.394 105.228 121.472 104.065 120.818Z" fill="#AA8B84"/>
<path d="M133.166 135.994C132.497 136.032 131.83 135.889 131.234 135.577C130.638 135.266 130.134 134.798 129.775 134.222C129.699 134.076 129.682 133.905 129.728 133.746C129.774 133.587 129.88 133.453 130.022 133.373C130.164 133.292 130.331 133.271 130.488 133.315C130.645 133.359 130.779 133.463 130.861 133.606C131.483 134.728 133.265 135.066 134.915 134.357C135.686 134.028 138.124 132.669 137.112 129.142C136.678 127.803 135.885 126.614 134.824 125.708C133.672 126.383 132.494 127.058 131.325 127.716C128.291 129.404 124.693 131.142 120.837 130.357C119.943 130.204 119.092 129.852 118.346 129.327C117.599 128.802 116.975 128.117 116.518 127.319C116.207 126.729 116.031 126.075 116.004 125.405C115.976 124.736 116.098 124.069 116.36 123.455C117.662 120.332 122.612 119.877 125.613 120.332C128.989 120.815 132.198 122.133 134.957 124.172L135.313 123.961L136.35 123.353C142.982 119.463 150.527 115.058 158.942 114.147C163.494 113.649 172.025 114.206 175.375 119.134L176.013 118.847C181.725 116.468 187.96 119.084 192.512 120.991C197.995 123.391 203.888 124.675 209.856 124.771H209.906C215.477 124.771 222.342 123.083 224.83 118.51C224.909 118.362 225.042 118.252 225.201 118.205C225.359 118.157 225.53 118.176 225.675 118.256C225.82 118.337 225.928 118.473 225.975 118.634C226.021 118.796 226.003 118.97 225.924 119.117C222.475 125.522 212.816 126.028 209.939 126.037C203.791 125.952 197.72 124.636 192.072 122.163C187.72 120.341 181.759 117.843 176.519 120.02L176.03 120.231C176.207 120.622 176.357 121.025 176.477 121.438C176.669 122.339 176.675 123.27 176.495 124.173C176.315 125.077 175.953 125.932 175.433 126.686C175.127 127.099 174.727 127.429 174.267 127.648C173.808 127.867 173.303 127.968 172.796 127.944C172.353 127.942 171.918 127.817 171.54 127.582C171.161 127.347 170.853 127.011 170.649 126.61C170.396 125.991 170.295 125.318 170.352 124.649C170.41 123.981 170.626 123.337 170.98 122.771C171.841 121.509 172.975 120.467 174.297 119.725C171.37 115.708 164 114.873 159.125 115.404C150.966 116.248 143.878 120.467 137.021 124.45L136.001 125.041C137.095 126.058 137.908 127.35 138.356 128.788C139.392 132.399 137.436 134.694 135.446 135.538C134.723 135.843 133.948 135.997 133.166 135.994ZM123.532 121.446C121.045 121.446 118.234 122.121 117.471 123.978C117.279 124.417 117.189 124.894 117.208 125.374C117.227 125.854 117.354 126.323 117.579 126.746C117.951 127.377 118.453 127.919 119.052 128.333C119.65 128.747 120.331 129.023 121.045 129.142C124.527 129.842 127.852 128.214 130.695 126.61C131.715 126.045 132.735 125.454 133.738 124.872C131.238 123.148 128.386 122.026 125.397 121.59C124.78 121.496 124.156 121.448 123.532 121.446ZM174.852 120.813C173.697 121.457 172.704 122.363 171.951 123.463C171.725 123.839 171.585 124.261 171.539 124.698C171.493 125.136 171.543 125.579 171.685 125.994C171.793 126.196 171.954 126.363 172.151 126.476C172.347 126.59 172.571 126.645 172.796 126.636C173.106 126.651 173.415 126.588 173.694 126.451C173.974 126.314 174.215 126.107 174.396 125.851C174.793 125.257 175.071 124.589 175.213 123.885C175.355 123.181 175.36 122.455 175.225 121.75C175.137 121.429 175.023 121.116 174.885 120.813H174.852Z" fill="#AA8B84"/>
<defs>
<radialGradient id="paint0_radial_1039_25304" cx="0" cy="0" r="1" gradientUnits="userSpaceOnUse" gradientTransform="translate(139.632 87.3314) scale(139.632 721.963)">
<stop stop-color="#F1DFC1"/>
<stop offset="1" stop-color="#F49496"/>
</radialGradient>
</defs>
</svg>
