<svg width="97" height="14" viewBox="0 0 97 14" fill="none" xmlns="http://www.w3.org/2000/svg">
<g clip-path="url(#clip0_435_30155)">
<path d="M51.9234 13.9999C51.4948 13.9968 51.0709 13.9109 50.6755 13.747C49.5622 13.2873 48.4674 12.0413 49.0472 10.0689C49.2972 9.28523 49.7517 8.58095 50.3647 8.02748L49.7941 7.70566C45.9577 5.51715 41.9914 3.2551 37.4267 2.77694C34.7037 2.48728 30.575 2.94245 28.9375 5.13096C29.6768 5.53511 30.3119 6.10315 30.7931 6.79072C30.9916 7.09887 31.1121 7.44994 31.1444 7.81415C31.1768 8.17835 31.1199 8.54489 30.9786 8.88264C30.8643 9.10087 30.6919 9.28395 30.4801 9.41201C30.2683 9.54006 30.0252 9.60824 29.7771 9.60911C29.4934 9.62415 29.2102 9.56946 28.9528 9.44995C28.6955 9.33044 28.4719 9.14981 28.302 8.92406C28.0106 8.51321 27.8082 8.04698 27.7076 7.5548C27.607 7.06261 27.6104 6.55509 27.7175 6.06425C27.7848 5.83939 27.8686 5.61969 27.968 5.40681L27.6943 5.29187C24.7625 4.10106 21.4271 5.46654 18.9916 6.45964C15.8392 7.80034 12.4526 8.51728 9.02257 8.57003H8.99474C7.38503 8.57003 1.98068 8.28954 0.0508844 4.79988C0.0289534 4.76003 0.0151575 4.71632 0.0102824 4.67119C0.0054073 4.62605 0.00954855 4.58037 0.0224715 4.53683C0.0353944 4.49328 0.0568435 4.45273 0.085597 4.41739C0.114351 4.38206 0.14984 4.3527 0.190047 4.33096C0.230253 4.30923 0.274397 4.29555 0.319936 4.29072C0.365475 4.28589 0.411522 4.28998 0.45546 4.30279C0.499398 4.3156 0.540358 4.33687 0.576006 4.36537C0.611654 4.39387 0.641295 4.42901 0.663226 4.46886C2.0549 6.97461 5.87738 7.87578 9.0133 7.88037H9.04113C12.3807 7.82832 15.6776 7.12857 18.7458 5.82061C21.2925 4.78153 24.7764 3.36083 27.9772 4.65278L28.3344 4.80909C30.19 2.12403 34.982 1.82056 37.5288 2.09183C42.2373 2.58838 46.4494 4.9884 50.1699 7.10794L50.7497 7.43896L50.9492 7.5539C52.493 6.44312 54.2881 5.72483 56.1773 5.46198C57.8566 5.2137 60.626 5.46196 61.3543 7.16311C61.5009 7.49794 61.5691 7.86131 61.5539 8.22599C61.5386 8.59067 61.4403 8.94724 61.2662 9.26889C61.0103 9.70339 60.6611 10.0768 60.2435 10.3629C59.8258 10.6489 59.3499 10.8405 58.8493 10.9241C56.6736 11.3516 54.6743 10.4045 52.9811 9.48497C52.327 9.12635 51.6682 8.75853 51.0234 8.39071C50.4297 8.88457 49.9863 9.53249 49.7431 10.262C49.1771 12.1884 50.541 12.924 50.9724 13.1034C51.9002 13.4896 52.8929 13.3102 53.2408 12.6942C53.2868 12.6163 53.3617 12.5594 53.4495 12.5357C53.5373 12.5119 53.631 12.5232 53.7105 12.5671C53.79 12.611 53.8489 12.684 53.8747 12.7705C53.9006 12.857 53.8912 12.9501 53.8486 13.0298C53.6459 13.3487 53.3599 13.6072 53.021 13.778C52.682 13.9488 52.3028 14.0255 51.9234 13.9999ZM51.5848 7.93554C52.1461 8.25279 52.7166 8.5746 53.2872 8.88264C54.8784 9.74701 56.7386 10.6344 58.687 10.262C59.0865 10.1972 59.467 10.0468 59.802 9.82132C60.1369 9.5958 60.4181 9.30055 60.626 8.95622C60.7521 8.72628 60.8232 8.47065 60.8336 8.20915C60.8441 7.94765 60.7937 7.68727 60.6863 7.44816C60.1482 6.18839 57.7684 5.93555 56.2515 6.15624C54.5799 6.39098 52.9841 6.99942 51.5848 7.93554ZM28.5803 5.72863C28.4971 5.90035 28.4288 6.07879 28.3762 6.26197C28.3011 6.64635 28.3034 7.04162 28.383 7.42509C28.4626 7.80857 28.618 8.17268 28.8401 8.49645C28.9408 8.6368 29.0757 8.74962 29.2323 8.82438C29.3888 8.89915 29.5619 8.93344 29.7354 8.92406C29.8616 8.92904 29.9866 8.89893 30.0965 8.83718C30.2063 8.77544 30.2966 8.68452 30.357 8.57463C30.4366 8.34814 30.4646 8.10697 30.439 7.86848C30.4133 7.62998 30.3346 7.40007 30.2086 7.19532C29.7886 6.58732 29.231 6.08504 28.5803 5.72863Z" fill="url(#paint0_linear_435_30155)"/>
<path d="M45.0764 14.0002C44.7021 14.0212 44.3289 13.9428 43.9953 13.7731C43.6618 13.6034 43.38 13.3484 43.1791 13.0347C43.1365 12.955 43.1271 12.8619 43.1529 12.7754C43.1787 12.6889 43.2377 12.6159 43.3172 12.572C43.3967 12.5281 43.4904 12.5168 43.5781 12.5405C43.6659 12.5643 43.7409 12.6212 43.7868 12.699C44.1347 13.3105 45.1321 13.4944 46.0552 13.1082C46.4866 12.9289 47.8505 12.1887 47.2846 10.2668C47.0413 9.53737 46.598 8.88945 46.0042 8.39559C45.3594 8.76341 44.7007 9.13123 44.0466 9.48985C42.3487 10.4094 40.3354 11.3565 38.1783 10.9289C37.6778 10.8453 37.2018 10.6538 36.7842 10.3677C36.3665 10.0817 36.0174 9.70828 35.7614 9.27377C35.5874 8.95212 35.489 8.59555 35.4738 8.23087C35.4585 7.86619 35.5267 7.50282 35.6733 7.16799C36.4016 5.46684 39.1711 5.21859 40.8504 5.46686C42.7395 5.72971 44.5347 6.44801 46.0784 7.55878L46.2779 7.44384L46.8578 7.11282C50.5689 4.99328 54.7904 2.59326 59.4989 2.09671C62.0456 1.82545 66.8191 2.12891 68.6932 4.81397L69.0504 4.65766C72.2466 3.36111 75.7351 4.78642 78.2819 5.8255C81.3501 7.13346 84.647 7.83321 87.9865 7.88526H88.0143C91.1317 7.88526 94.9727 6.9657 96.3644 4.47374C96.4087 4.39326 96.4834 4.33354 96.5722 4.30767C96.6609 4.2818 96.7564 4.29189 96.8376 4.33579C96.9188 4.37969 96.9791 4.45376 97.0052 4.54171C97.0313 4.62966 97.021 4.72428 96.9768 4.80476C95.047 8.29442 89.6426 8.57031 88.0329 8.57491C84.5931 8.52874 81.1962 7.8116 78.036 6.46453C75.6006 5.47142 72.2652 4.11054 69.3334 5.29675L69.0597 5.41169C69.1591 5.62457 69.2428 5.84427 69.3102 6.06913C69.4173 6.55997 69.4206 7.06749 69.32 7.55968C69.2194 8.05187 69.017 8.51809 68.7257 8.92894C68.5546 9.15349 68.3308 9.33326 68.0737 9.45264C67.8167 9.57202 67.5341 9.62742 67.2505 9.614C67.0024 9.61312 66.7593 9.54494 66.5475 9.41689C66.3357 9.28884 66.1633 9.10575 66.049 8.88752C65.9078 8.54977 65.8509 8.18324 65.8832 7.81903C65.9155 7.45482 66.036 7.10375 66.2346 6.7956C66.7158 6.10803 67.3508 5.54 68.0901 5.13584C66.4526 2.94734 62.3286 2.49211 59.6009 2.78176C55.0362 3.24153 51.0699 5.54043 47.2335 7.71054L46.6629 8.03236C47.2751 8.58653 47.7295 9.29057 47.9804 10.0738C48.5603 12.0416 47.4655 13.2922 46.3521 13.7519C45.9477 13.9178 45.5141 14.0021 45.0764 14.0002ZM39.686 6.07373C38.2943 6.07373 36.7217 6.44155 36.2949 7.45304C36.1876 7.69215 36.1372 7.95253 36.1476 8.21403C36.1581 8.47554 36.2291 8.73117 36.3552 8.9611C36.5632 9.30543 36.8444 9.60068 37.1793 9.8262C37.5142 10.0517 37.8947 10.2021 38.2943 10.2668C40.2427 10.6484 42.1029 9.76109 43.694 8.88752C44.2646 8.57948 44.8352 8.25767 45.3965 7.94043C43.998 7.00105 42.4021 6.38943 40.7297 6.15191C40.3842 6.10102 40.0354 6.07488 39.686 6.07373ZM68.401 5.72891C67.7545 6.07935 67.1988 6.5735 66.7773 7.17259C66.6513 7.37734 66.5726 7.60725 66.547 7.84575C66.5213 8.08424 66.5493 8.32541 66.6289 8.5519C66.6893 8.66179 66.7796 8.75276 66.8894 8.81451C66.9993 8.87625 67.1243 8.90631 67.2505 8.90133C67.4239 8.90986 67.5967 8.87517 67.7531 8.80048C67.9095 8.72578 68.0445 8.61344 68.1458 8.47372C68.3679 8.14995 68.5232 7.7859 68.6028 7.40242C68.6825 7.01894 68.6848 6.62362 68.6097 6.23924C68.5603 6.06431 68.4967 5.89365 68.4195 5.72891H68.401Z" fill="url(#paint1_linear_435_30155)"/>
<path d="M48.4998 4.71257C48.426 4.71224 48.3543 4.68802 48.2957 4.6436C46.5468 3.38843 40.326 -0.00924695 34.8938 0.822937C34.8023 0.836191 34.7091 0.813198 34.6345 0.759011C34.5599 0.704824 34.5097 0.623784 34.4949 0.53328C34.4816 0.443081 34.5049 0.351317 34.5596 0.278082C34.6144 0.204848 34.6962 0.156057 34.7871 0.14243C40.2935 -0.703547 46.352 2.47347 48.4998 3.94474C50.6476 2.47347 56.7061 -0.698949 62.2125 0.14243C62.3034 0.156057 62.3852 0.204848 62.44 0.278082C62.4947 0.351317 62.518 0.443081 62.5047 0.53328C62.4899 0.623784 62.4397 0.704824 62.3651 0.759011C62.2904 0.813198 62.1973 0.836191 62.1058 0.822937C56.6782 -0.00464925 50.4528 3.38843 48.7039 4.6436C48.6453 4.68802 48.5736 4.71224 48.4998 4.71257Z" fill="url(#paint2_linear_435_30155)"/>
</g>
<defs>
<linearGradient id="paint0_linear_435_30155" x1="30.7821" y1="2.01172" x2="30.7821" y2="14.0047" gradientUnits="userSpaceOnUse">
<stop stop-color="#F1DFC1"/>
<stop offset="0.895" stop-color="#F75471"/>
</linearGradient>
<linearGradient id="paint1_linear_435_30155" x1="66.2455" y1="2.0166" x2="66.2455" y2="14.0035" gradientUnits="userSpaceOnUse">
<stop stop-color="#F1DFC1"/>
<stop offset="0.895" stop-color="#F75471"/>
</linearGradient>
<linearGradient id="paint2_linear_435_30155" x1="48.4998" y1="0.00146484" x2="48.4998" y2="4.71257" gradientUnits="userSpaceOnUse">
<stop stop-color="#F1DFC1"/>
<stop offset="0.895" stop-color="#F75471"/>
</linearGradient>
<clipPath id="clip0_435_30155">
<rect width="97" height="14" fill="white"/>
</clipPath>
</defs>
</svg>
