<svg width="338" height="391" viewBox="0 0 338 391" fill="none" xmlns="http://www.w3.org/2000/svg">
<path d="M301.771 391H36.2287C36.2287 376.026 20.0077 363.886 0 363.886L0 27.1137C20.0077 27.1137 36.2287 14.9738 36.2287 0H301.771C301.771 14.9738 317.992 27.1137 338 27.1137V363.884C317.992 363.884 301.771 376.024 301.771 390.997V391Z" fill="#313131"/>
<path d="M283.975 368H54.0244C52.8619 361.341 48.8543 355.561 43.3177 351.329C37.6193 346.974 30.1777 344.136 22 343.432V45.5675C30.1777 44.8643 37.6193 42.0256 43.3177 37.6707C48.8543 33.4394 52.8619 27.6589 54.0244 21H283.976C285.138 27.6589 289.146 33.4394 294.682 37.6707C300.381 42.0256 307.822 44.8643 316 45.5675V343.43C307.822 344.133 300.381 346.972 294.682 351.327C289.145 355.559 285.137 361.34 283.975 368Z" fill="#EAE3C3" stroke="white" stroke-width="8"/>
</svg>
