<svg width="225" height="13" viewBox="0 0 225 13" fill="none" xmlns="http://www.w3.org/2000/svg">
<path d="M211.785 3.00824C211.703 3.00677 211.625 3.03543 211.563 3.08875C211.498 3.14721 211.456 3.22803 211.446 3.31555C211.437 3.40307 211.46 3.49105 211.511 3.56242C212.488 4.72214 213.651 5.70986 214.951 6.48493C213.633 7.2947 212.473 8.33784 211.525 9.56376C211.478 9.63823 211.459 9.72771 211.473 9.81508C211.487 9.90245 211.533 9.98159 211.601 10.0374C211.674 10.0874 211.764 10.1073 211.851 10.0933C211.939 10.0792 212.018 10.0321 212.072 9.96165C213.095 8.64913 214.379 7.5651 215.842 6.7786C215.901 6.74951 215.952 6.7041 215.987 6.64755C216.022 6.591 216.041 6.52562 216.041 6.45888C216.041 6.39215 216.022 6.32676 215.987 6.27021C215.952 6.21367 215.901 6.16825 215.842 6.13916C214.396 5.37401 213.107 4.34058 212.044 3.09349C212.009 3.06179 211.968 3.03782 211.923 3.02313C211.879 3.00844 211.831 3.00336 211.785 3.00824Z" fill="#1E1E1E"/>
<path d="M213.962 0.478599C213.907 0.481318 213.854 0.496896 213.807 0.524046C213.759 0.551196 213.719 0.589168 213.688 0.634917C213.651 0.691757 209.919 6.1484 205.315 6.1484C205.222 6.1484 205.132 6.18583 205.065 6.25245C204.999 6.31907 204.962 6.40943 204.962 6.50365C204.962 6.59787 204.999 6.68823 205.065 6.75485C205.132 6.82147 205.222 6.8589 205.315 6.8589C209.942 6.8589 213.646 12.5429 213.684 12.595C213.713 12.6419 213.753 12.681 213.801 12.709C213.848 12.737 213.902 12.7532 213.957 12.756C214.011 12.7597 214.066 12.7508 214.116 12.7303C214.167 12.7098 214.212 12.6782 214.249 12.6376C219.084 7.04837 224.498 6.86364 224.549 6.8589C224.643 6.85643 224.731 6.81741 224.797 6.75017C224.862 6.68292 224.898 6.59276 224.898 6.49891C224.893 6.40586 224.854 6.31802 224.787 6.25303C224.721 6.18803 224.633 6.15067 224.54 6.1484C224.3 6.1484 219.003 6.07734 214.263 0.601757C214.226 0.558435 214.18 0.524634 214.127 0.503201C214.075 0.481769 214.018 0.473327 213.962 0.478599ZM207.488 6.5131C210.743 5.48525 213.203 2.468 213.995 1.40225C217.015 4.7416 220.163 6.03944 222.226 6.54626C219.037 7.4777 216.182 9.31094 213.999 11.8277C213.212 10.724 210.739 7.58359 207.488 6.5131Z" fill="#1E1E1E"/>
<path d="M205.296 6.1479H174.456C174.362 6.1479 174.272 6.18532 174.206 6.25195C174.14 6.31857 174.103 6.40893 174.103 6.50315C174.103 6.59737 174.14 6.68773 174.206 6.75435C174.272 6.82097 174.362 6.8584 174.456 6.8584H205.296C205.389 6.8584 205.479 6.82097 205.545 6.75435C205.612 6.68773 205.649 6.59737 205.649 6.50315C205.649 6.40893 205.612 6.31857 205.545 6.25195C205.479 6.18532 205.389 6.1479 205.296 6.1479Z" fill="#1E1E1E"/>
<path d="M199.948 1.90735e-06C199.745 -0.000254631 199.544 0.0284786 199.349 0.0852871C198.887 0.225456 198.49 0.527705 198.231 0.9371C197.971 1.3465 197.867 1.83584 197.936 2.31624C197.976 2.58842 198.092 2.8436 198.27 3.05229C198.449 3.26099 198.682 3.41468 198.944 3.49566C199.104 3.53636 199.271 3.54221 199.434 3.5128C199.596 3.4834 199.75 3.41941 199.886 3.32515C200.006 3.247 200.108 3.14327 200.184 3.0213C200.259 2.89934 200.307 2.76213 200.325 2.61939C200.333 2.52687 200.305 2.43467 200.247 2.36255C200.189 2.29043 200.105 2.24414 200.013 2.23361C199.921 2.22308 199.829 2.24914 199.756 2.3062C199.683 2.36327 199.635 2.4468 199.622 2.53887C199.615 2.57988 199.599 2.61883 199.576 2.65313C199.552 2.68743 199.521 2.71629 199.486 2.73781C199.382 2.80763 199.255 2.8332 199.132 2.80887C199.001 2.75947 198.886 2.67519 198.799 2.56507C198.712 2.45495 198.656 2.32312 198.638 2.18363C198.604 1.87327 198.68 1.56089 198.852 1.30114C199.025 1.04138 199.282 0.85078 199.58 0.762627C199.896 0.685315 200.227 0.700435 200.534 0.806194C200.841 0.911955 201.112 1.10391 201.314 1.35942C202.101 2.34465 201.856 3.93143 201.135 4.79824C200.731 5.23691 200.238 5.58383 199.689 5.8158C199.141 6.04777 198.549 6.15947 197.954 6.14347H197.874C197.781 6.14469 197.692 6.18252 197.626 6.24887C197.56 6.31523 197.522 6.40488 197.521 6.49872C197.521 6.59294 197.558 6.6833 197.625 6.74992C197.691 6.81654 197.781 6.85397 197.874 6.85397H197.954C198.55 6.83887 199.141 6.95146 199.69 7.18424C200.238 7.41702 200.731 7.76462 201.135 8.2039C201.856 9.07071 202.101 10.6575 201.314 11.6427C201.111 11.8973 200.84 12.0886 200.533 12.1943C200.226 12.3 199.896 12.3157 199.58 12.2395C199.283 12.1506 199.026 11.9598 198.853 11.7002C198.681 11.4407 198.605 11.1288 198.638 10.8186C198.657 10.6799 198.713 10.5491 198.8 10.4398C198.887 10.3306 199.002 10.2471 199.132 10.198C199.194 10.1854 199.257 10.1851 199.319 10.1973C199.38 10.2095 199.439 10.2339 199.491 10.2691C199.525 10.2915 199.554 10.3207 199.577 10.3549C199.6 10.3891 199.615 10.4276 199.622 10.468C199.635 10.5601 199.683 10.6436 199.756 10.7007C199.829 10.7578 199.921 10.7838 200.013 10.7733C200.105 10.7628 200.189 10.7165 200.247 10.6444C200.305 10.5723 200.333 10.4801 200.325 10.3875C200.31 10.2441 200.263 10.106 200.187 9.98368C200.111 9.86137 200.008 9.7581 199.886 9.68174C199.75 9.58748 199.596 9.52352 199.434 9.49411C199.271 9.4647 199.104 9.47053 198.944 9.51123C198.682 9.59221 198.449 9.74593 198.27 9.95462C198.092 10.1633 197.976 10.4185 197.936 10.6907C197.867 11.171 197.971 11.6604 198.231 12.0698C198.49 12.4792 198.887 12.7815 199.349 12.9216C199.8 13.0399 200.275 13.024 200.716 12.876C201.158 12.728 201.547 12.4543 201.837 12.088C202.874 10.7854 202.544 8.82443 201.644 7.7492C201.161 7.18581 200.543 6.75544 199.849 6.49872C200.543 6.24371 201.161 5.81495 201.644 5.25297C202.544 4.17775 202.874 2.21679 201.837 0.914204C201.608 0.631767 201.32 0.403443 200.994 0.245451C200.667 0.0874577 200.31 0.00364685 199.948 1.90735e-06Z" fill="#1E1E1E"/>
<path d="M13.2155 3.00824C13.2966 3.00677 13.3754 3.03543 13.4369 3.08875C13.5024 3.14721 13.544 3.22803 13.5535 3.31555C13.5631 3.40307 13.54 3.49105 13.4887 3.56242C12.5118 4.72214 11.3493 5.70986 10.049 6.48493C11.3666 7.2947 12.5272 8.33784 13.4746 9.56376C13.5221 9.63823 13.5407 9.72771 13.5268 9.81508C13.5129 9.90245 13.4675 9.98159 13.3992 10.0374C13.3258 10.0874 13.2362 10.1073 13.1487 10.0933C13.0612 10.0792 12.9822 10.0321 12.928 9.96165C11.9049 8.64913 10.6211 7.5651 9.15846 6.7786C9.09871 6.74951 9.04834 6.7041 9.01308 6.64755C8.97782 6.591 8.9591 6.52562 8.9591 6.45888C8.9591 6.39215 8.97782 6.32676 9.01308 6.27021C9.04834 6.21367 9.09871 6.16825 9.15846 6.13916C10.6043 5.37401 11.8929 4.34058 12.9563 3.09349C12.9911 3.06179 13.0322 3.03782 13.0768 3.02313C13.1215 3.00844 13.1687 3.00336 13.2155 3.00824Z" fill="#1E1E1E"/>
<path d="M11.0383 0.478599C11.0928 0.481318 11.146 0.496896 11.1935 0.524046C11.2409 0.551196 11.2814 0.589168 11.3116 0.634917C11.3493 0.691757 15.0811 6.1484 19.6847 6.1484C19.7784 6.1484 19.8683 6.18583 19.9346 6.25245C20.0009 6.31907 20.0381 6.40943 20.0381 6.50365C20.0381 6.59787 20.0009 6.68823 19.9346 6.75485C19.8683 6.82147 19.7784 6.8589 19.6847 6.8589C15.0576 6.8589 11.354 12.5429 11.3163 12.595C11.2869 12.6419 11.2468 12.681 11.1992 12.709C11.1516 12.737 11.0981 12.7532 11.043 12.756C10.9886 12.7597 10.9341 12.7508 10.8835 12.7303C10.8329 12.7098 10.7876 12.6782 10.7509 12.6376C5.91642 7.04837 0.502424 6.86364 0.450594 6.8589C0.357262 6.85643 0.26857 6.81741 0.203436 6.75017C0.138304 6.68292 0.101883 6.59276 0.101915 6.49891C0.106642 6.40586 0.146147 6.31802 0.212553 6.25303C0.278959 6.18803 0.367369 6.15067 0.460028 6.1484C0.700335 6.1484 5.99654 6.07734 10.7367 0.601757C10.7735 0.558435 10.8201 0.524634 10.8726 0.503201C10.9251 0.481769 10.9819 0.473327 11.0383 0.478599ZM17.5125 6.5131C14.2566 5.48525 11.7969 2.468 11.0053 1.40225C7.98498 4.7416 4.8374 6.03944 2.77357 6.54626C5.96277 7.4777 8.81848 9.31094 11.0006 11.8277C11.7875 10.724 14.2613 7.58359 17.5125 6.5131Z" fill="#1E1E1E"/>
<path d="M19.7045 6.1479H50.5441C50.6378 6.1479 50.7277 6.18532 50.794 6.25195C50.8602 6.31857 50.8975 6.40893 50.8975 6.50315C50.8975 6.59737 50.8602 6.68773 50.794 6.75435C50.7277 6.82097 50.6378 6.8584 50.5441 6.8584H19.7045C19.6108 6.8584 19.5209 6.82097 19.4546 6.75435C19.3883 6.68773 19.3511 6.59737 19.3511 6.50315C19.3511 6.40893 19.3883 6.31857 19.4546 6.25195C19.5209 6.18532 19.6108 6.1479 19.7045 6.1479Z" fill="#1E1E1E"/>
<path d="M25.0524 1.90735e-06C25.2549 -0.000254631 25.4563 0.0284786 25.6508 0.0852871C26.1131 0.225456 26.51 0.527705 26.7694 0.9371C27.0288 1.3465 27.1334 1.83584 27.0644 2.31624C27.024 2.58842 26.908 2.8436 26.7296 3.05229C26.5511 3.26099 26.3176 3.41468 26.056 3.49566C25.8959 3.53636 25.729 3.54221 25.5665 3.5128C25.404 3.4834 25.2496 3.41941 25.1136 3.32515C24.9936 3.247 24.8921 3.14327 24.8163 3.0213C24.7406 2.89934 24.6925 2.76213 24.6754 2.61939C24.6669 2.52687 24.6947 2.43467 24.753 2.36255C24.8113 2.29043 24.8954 2.24414 24.9872 2.23361C25.0791 2.22308 25.1714 2.24914 25.2443 2.3062C25.3173 2.36327 25.3651 2.4468 25.3775 2.53887C25.3849 2.57988 25.4009 2.61883 25.4245 2.65313C25.4481 2.68743 25.4786 2.71629 25.5141 2.73781C25.6179 2.80763 25.745 2.8332 25.8675 2.80887C25.9986 2.75947 26.1139 2.67519 26.201 2.56507C26.2881 2.45495 26.3439 2.32312 26.3623 2.18363C26.3959 1.87327 26.32 1.56089 26.1477 1.30114C25.9754 1.04138 25.7178 0.85078 25.4199 0.762627C25.1043 0.685315 24.7734 0.700435 24.4661 0.806194C24.1588 0.911955 23.8881 1.10391 23.6859 1.35942C22.899 2.34465 23.144 3.93143 23.865 4.79824C24.2695 5.23691 24.7624 5.58383 25.3109 5.8158C25.8593 6.04777 26.4507 6.15947 27.0455 6.14347H27.1256C27.219 6.14469 27.3081 6.18252 27.3741 6.24887C27.4402 6.31523 27.4778 6.40488 27.479 6.49872C27.479 6.59294 27.4418 6.6833 27.3755 6.74992C27.3092 6.81654 27.2193 6.85397 27.1256 6.85397H27.0455C26.4504 6.83887 25.8589 6.95146 25.3105 7.18424C24.762 7.41702 24.2692 7.76462 23.865 8.2039C23.144 9.07071 22.899 10.6575 23.6859 11.6427C23.8888 11.8973 24.1596 12.0886 24.4667 12.1943C24.7737 12.3 25.1043 12.3157 25.4199 12.2395C25.7173 12.1506 25.9744 11.9598 26.1465 11.7002C26.3187 11.4407 26.395 11.1288 26.3623 10.8186C26.3431 10.6799 26.287 10.5491 26.1999 10.4398C26.1128 10.3306 25.998 10.2471 25.8675 10.198C25.8061 10.1854 25.7428 10.1851 25.6813 10.1973C25.6199 10.2095 25.5614 10.2339 25.5094 10.2691C25.4752 10.2915 25.4458 10.3207 25.4231 10.3549C25.4004 10.3891 25.3849 10.4276 25.3775 10.468C25.3651 10.5601 25.3173 10.6436 25.2443 10.7007C25.1714 10.7578 25.0791 10.7838 24.9872 10.7733C24.8954 10.7628 24.8113 10.7165 24.753 10.6444C24.6947 10.5723 24.6669 10.4801 24.6754 10.3875C24.6902 10.2441 24.7374 10.106 24.8133 9.98368C24.8893 9.86137 24.992 9.7581 25.1136 9.68174C25.2496 9.58748 25.404 9.52352 25.5665 9.49411C25.729 9.4647 25.8959 9.47053 26.056 9.51123C26.3176 9.59221 26.5511 9.74593 26.7296 9.95462C26.908 10.1633 27.024 10.4185 27.0644 10.6907C27.1334 11.171 27.0288 11.6604 26.7694 12.0698C26.51 12.4792 26.1131 12.7815 25.6508 12.9216C25.2003 13.0399 24.7254 13.024 24.2837 12.876C23.8421 12.728 23.4527 12.4543 23.1629 12.088C22.1263 10.7854 22.4561 8.82443 23.3561 7.7492C23.8391 7.18581 24.4569 6.75544 25.1513 6.49872C24.4572 6.24371 23.8393 5.81495 23.3561 5.25297C22.4561 4.17775 22.1263 2.21679 23.1629 0.914204C23.3918 0.631767 23.6797 0.403443 24.0063 0.245451C24.3328 0.0874577 24.69 0.00364685 25.0524 1.90735e-06Z" fill="#1E1E1E"/>
<line x1="25.1025" y1="6.5" x2="199.103" y2="6.5" stroke="black"/>
</svg>
