<svg width="339" height="270" viewBox="0 0 339 270" fill="none" xmlns="http://www.w3.org/2000/svg">
<g filter="url(#filter0_d_1928_21574)">
<path d="M272.856 30.6108L273.619 32.4747H275.633H308.419C308.89 33.1864 309.485 33.7771 310.075 34.2464C311.388 35.29 313.102 36.0981 314.953 36.7208C317.978 37.738 321.811 38.4067 326 38.624V231.376C321.811 231.593 317.978 232.262 314.953 233.279C313.102 233.902 311.388 234.71 310.075 235.754C309.485 236.223 308.89 236.814 308.419 237.525H275.633H273.618L272.856 239.39C272.6 240.015 271.901 240.936 270.34 242.052C268.811 243.144 266.671 244.27 263.903 245.386C258.369 247.618 250.697 249.667 241.299 251.402C222.528 254.866 197.298 257 169.5 257C141.702 257 116.473 254.866 97.7031 251.401C88.305 249.666 80.6329 247.617 75.0991 245.385C72.3304 244.269 70.1904 243.144 68.6612 242.051C67.0992 240.935 66.3996 240.014 66.1437 239.389L65.381 237.525H63.3672H30.5811C30.1104 236.814 29.515 236.223 28.9248 235.754C27.6123 234.71 25.8979 233.902 24.0465 233.279C21.0222 232.262 17.1891 231.593 13 231.376V38.624C17.1891 38.4067 21.0222 37.738 24.0465 36.7208C25.8979 36.0981 27.6123 35.29 28.9248 34.2464C29.515 33.7771 30.1104 33.1864 30.5811 32.4747H63.3672H65.3819L66.1442 30.6097C66.3996 29.9849 67.0986 29.0639 68.6602 27.9481C70.189 26.8557 72.3286 25.7304 75.0972 24.6139C80.6307 22.3824 88.3029 20.3332 97.7013 18.5985C116.472 15.134 141.702 13 169.5 13C197.298 13 222.527 15.134 241.297 18.5985C250.695 20.3332 258.367 22.3823 263.901 24.6139C266.67 25.7304 268.809 26.8557 270.339 27.9483C271.901 29.0641 272.6 29.9854 272.856 30.6108Z" fill="white" stroke="#183F86" stroke-width="6"/>
</g>
<defs>
<filter id="filter0_d_1928_21574" x="0" y="0" width="339" height="270" filterUnits="userSpaceOnUse" color-interpolation-filters="sRGB">
<feFlood flood-opacity="0" result="BackgroundImageFix"/>
<feColorMatrix in="SourceAlpha" type="matrix" values="0 0 0 0 0 0 0 0 0 0 0 0 0 0 0 0 0 0 127 0" result="hardAlpha"/>
<feOffset/>
<feGaussianBlur stdDeviation="5"/>
<feComposite in2="hardAlpha" operator="out"/>
<feColorMatrix type="matrix" values="0 0 0 0 0 0 0 0 0 0 0 0 0 0 0 0 0 0 0.25 0"/>
<feBlend mode="normal" in2="BackgroundImageFix" result="effect1_dropShadow_1928_21574"/>
<feBlend mode="normal" in="SourceGraphic" in2="effect1_dropShadow_1928_21574" result="shape"/>
</filter>
</defs>
</svg>
