<svg width="45" height="44" viewBox="0 0 45 44" fill="none" xmlns="http://www.w3.org/2000/svg">
<circle cx="22.5" cy="22" r="21.5" stroke="black"/>
<mask id="mask0_531_39322" style="mask-type:alpha" maskUnits="userSpaceOnUse" x="10" y="10" width="25" height="24">
<rect x="10.5" y="10" width="24" height="24" fill="#D9D9D9"/>
</mask>
<g mask="url(#mask0_531_39322)">
<path d="M12.5 34V30H32.5V34H12.5ZM14.5 28V23.75L25.7 12.575C25.8833 12.3917 26.0958 12.25 26.3375 12.15C26.5792 12.05 26.8333 12 27.1 12C27.3667 12 27.625 12.05 27.875 12.15C28.125 12.25 28.35 12.4 28.55 12.6L29.925 14C30.125 14.1833 30.2708 14.4 30.3625 14.65C30.4542 14.9 30.5 15.1583 30.5 15.425C30.5 15.675 30.4542 15.9208 30.3625 16.1625C30.2708 16.4042 30.125 16.625 29.925 16.825L18.75 28H14.5ZM27.1 16.8L28.5 15.4L27.1 14L25.7 15.4L27.1 16.8Z" fill="#1C1B1F"/>
</g>
</svg>
