<svg width="221" height="184" viewBox="0 0 221 184" fill="none" xmlns="http://www.w3.org/2000/svg">
<path d="M131.537 104.805C131.537 104.805 150.155 78.7898 146.067 41.5026C146.067 41.5026 122.901 39.5111 102.95 6.93896C102.95 6.93896 80.7723 33.9854 83.6208 70.4264C83.6208 70.4264 91.041 99.1179 131.537 104.805Z" fill="#EB9096"/>
<path d="M69.2798 125.338C69.2798 125.338 41.5151 117.23 19.5497 124.551C19.5497 124.551 28.3311 101.598 19.1562 73.8191C19.1562 73.8191 28.9921 71.7883 53.2395 79.5417C77.4868 87.2951 69.2798 125.338 69.2798 125.338Z" fill="#EB9096"/>
<path d="M39.5089 6.99832C39.5089 6.99832 107.998 2.06684 122.838 46.8044C137.679 91.5419 107.191 122.489 107.191 122.489C107.191 122.489 64.0632 130.081 45.8747 112.386C27.6862 94.6905 19.4556 51.1219 39.5089 6.99832Z" fill="white"/>
<path d="M115.382 131.8C115.382 131.8 131.072 147.579 153.152 139.558C153.152 139.558 152.259 170.107 131.139 174.775L112.345 134.713L115.382 131.8Z" fill="white"/>
<g style="mix-blend-mode:multiply" opacity="0.1">
<path d="M115.382 131.8C115.382 131.8 131.072 147.579 153.152 139.558C153.152 139.558 152.259 170.107 131.139 174.775L112.345 134.713L115.382 131.8Z" fill="#313131"/>
</g>
<path d="M165.986 139.936L162.638 137.968L159.199 141.809C159.415 127.184 144.052 124.63 139.22 128.365C130.935 134.752 124.211 136.697 119.313 136.882C118.114 136.928 116.913 136.868 115.724 136.701C112.136 136.161 110.153 134.733 109.996 134.556L112.727 132.249C112.981 132.523 113.259 132.775 113.557 133.001L113.643 133.052C113.653 133.06 113.66 133.071 113.663 133.084C116.063 134.855 123.035 138.027 135.392 128.502C141.294 123.961 150.41 123.354 157.586 127.042C163.106 129.888 166.171 134.587 165.986 139.936Z" fill="#F75471"/>
<path d="M75.2402 67.1364C75.2402 67.1364 62.2922 72.493 48.8564 69.9741C48.8564 69.9741 60.1638 63.0472 75.2402 67.1364Z" fill="#D8E3FE"/>
<path d="M73.3676 60.5872C73.3676 60.5872 63.8898 52.2789 46.3623 61.1422C46.3623 61.1422 61.3286 64.6607 73.3676 60.5872Z" fill="#D8E3FE"/>
<path d="M71.1098 53.7389C71.1098 53.7389 62.529 45.3361 45.6152 49.1774C45.6152 49.1774 58.095 54.0065 71.1098 53.7389Z" fill="#D8E3FE"/>
<path d="M68.3006 48.1503C68.3006 48.1503 55.3173 36.6382 42.0625 37.1499C42.0625 37.1499 50.419 45.5015 68.3006 48.1503Z" fill="#D8E3FE"/>
<path d="M65.613 43.3017C65.613 43.3017 59.6682 29.0504 44.8594 22.7847C44.8594 22.8004 53.5858 35.3554 65.613 43.3017Z" fill="#D8E3FE"/>
<path d="M67.4226 46.7806C67.4226 46.7806 69.1105 29.1446 60.207 20.9229C60.207 20.9229 61.647 32.3955 67.4226 46.7806Z" fill="#D8E3FE"/>
<path d="M71.7116 22.7808C71.7116 22.7808 66.597 37.8271 69.7444 51.2401C69.7484 51.2401 77.68 42.0895 71.7116 22.7808Z" fill="#D8E3FE"/>
<path d="M80.1902 28.9673C75.855 37.8364 73.222 47.4404 72.4277 57.281C72.4277 57.281 82.1062 45.8241 80.1902 28.9673Z" fill="#D8E3FE"/>
<path d="M90.3486 37.626C90.3486 37.626 78.219 49.4332 74.084 62.7871C74.084 62.7871 85.2024 55.9901 90.3486 37.626Z" fill="#D8E3FE"/>
<path d="M96.718 57.7851C96.718 57.7851 83.0343 55.6637 75.0791 66.5027C75.083 66.5224 84.1989 67.4198 96.718 57.7851Z" fill="#D8E3FE"/>
<path d="M60.8057 37.6812C62.2217 39.0984 63.5364 40.6134 64.74 42.2151C65.9203 43.8366 67.0416 45.4975 68.0645 47.2253C72.1808 54.1564 74.8683 61.8417 75.9686 69.8283C76.303 71.7961 76.3817 73.8191 76.5234 75.8145C76.6099 76.8142 76.5234 77.8178 76.5234 78.8175C76.5234 79.8172 76.488 80.8168 76.4525 81.8165C76.2598 77.8217 76.0591 73.8427 75.2919 69.9306C74.6444 66.0134 73.6476 62.162 72.3136 58.4225C71.0297 54.6637 69.41 51.0281 67.4744 47.5599C65.583 44.0548 63.3492 40.7457 60.8057 37.6812Z" fill="#D8E3FE"/>
<g style="mix-blend-mode:multiply" opacity="0.1">
<path d="M39.5089 6.99832C39.5089 6.99832 107.998 2.06684 122.838 46.8044C137.679 91.5419 107.191 122.489 107.191 122.489C107.191 122.489 64.0632 130.081 45.8747 112.386C27.6862 94.6905 19.4556 51.1219 39.5089 6.99832Z" fill="#313131"/>
</g>
<path d="M116.362 47.2568C115.595 43.0888 116.952 38.8225 117.798 37.5434C117.798 37.5434 114.391 41.0855 113.47 55.3683C113.274 54.53 113.077 53.794 112.88 53.1446C111.338 48.0833 110.795 44.9189 110.602 43.1912C110.996 42.8291 111.936 41.7153 111.81 39.3459C111.766 37.4342 112.316 35.5559 113.384 33.9697C110.996 36.3981 110.508 39.9835 110.429 41.9396C110.215 43.021 110.147 44.1264 110.229 45.2259C107.895 36.8192 104.661 35.0363 104.661 35.0363C105.578 36.9371 106.357 38.9007 106.994 40.9124C107.608 43.0416 109.56 45.5211 110.299 46.4224C110.653 48.9321 111.229 51.4055 112.019 53.8137C112.503 55.4077 113.333 58.8554 113.821 64.1372C113.264 62.5823 112.363 61.1735 111.185 60.0164C111.283 55.7422 105.185 54.471 101.974 49.2916C98.6379 43.8996 90.7653 45.0882 90.7653 45.0882C90.7653 45.0882 96.238 44.7615 99.9048 51.0823C103.001 56.4231 108.855 59.7409 110.622 60.4454C111.444 61.1893 113.533 63.5192 114.104 68.2539C114.306 73.058 114.213 77.87 113.825 82.6627C113.758 83.5128 113.667 84.3747 113.565 85.2445C113.132 82.9704 112.202 80.8201 110.842 78.9473C110.508 72.9335 103.536 72.4494 100.656 67.1047C97.6858 61.5947 88.2119 62.4212 88.2119 62.4212C88.2119 62.4212 96.533 66.1759 100.109 71.1585C103.021 75.2084 108.301 78.2428 110.173 79.211C112.019 81.7328 113.072 84.747 113.199 87.8697C112.782 90.4948 112.227 93.1553 111.594 95.7411C109.819 83.9339 102.97 82.3911 102.97 82.3911C102.97 82.3911 105.806 83.3317 106.546 87.3738C107.156 90.6758 110.264 95.1075 111.377 96.6109C109.43 104.146 106.941 111.53 103.93 118.706L107.148 117.498C109.468 111.666 111.31 105.654 112.656 99.5234C114.399 98.6536 117.535 96.4023 119.211 91.0458C121.607 83.375 125.698 76.6685 129.589 73.1343C129.589 73.1343 120.45 77.07 118.18 84.8903C116.339 91.2544 114.674 96.7211 112.77 98.9881C113.977 93.387 114.766 87.7039 115.131 81.9857C116.732 80.2146 117.625 77.6564 117.838 77.0228C122.201 71.0483 121.123 58.7531 120.615 55.7698C120.08 52.6566 117.806 49.1263 117.806 49.1263C117.271 52.2748 119.868 56.1791 118.632 61.3782C117.633 65.5737 117.306 73.701 117.22 76.6804C116.748 78.1401 116.069 79.524 115.202 80.7893C115.792 69.966 114.725 61.1854 113.537 55.8839C114.281 54.9118 117.027 50.8934 116.362 47.2568Z" fill="#D8E3FE"/>
<g style="mix-blend-mode:multiply" opacity="0.3">
<path d="M116.362 47.2568C115.595 43.0888 116.952 38.8225 117.798 37.5434C117.798 37.5434 114.391 41.0855 113.47 55.3683C113.274 54.53 113.077 53.794 112.88 53.1446C111.338 48.0833 110.795 44.9189 110.602 43.1912C110.996 42.8291 111.936 41.7153 111.81 39.3459C111.766 37.4342 112.316 35.5559 113.384 33.9697C110.996 36.3981 110.508 39.9835 110.429 41.9396C110.215 43.021 110.147 44.1264 110.229 45.2259C107.895 36.8192 104.661 35.0363 104.661 35.0363C105.578 36.9371 106.357 38.9007 106.994 40.9124C107.608 43.0416 109.56 45.5211 110.299 46.4224C110.653 48.9321 111.229 51.4055 112.019 53.8137C112.503 55.4077 113.333 58.8554 113.821 64.1372C113.264 62.5823 112.363 61.1735 111.185 60.0164C111.283 55.7422 105.185 54.471 101.974 49.2916C98.6379 43.8996 90.7653 45.0882 90.7653 45.0882C90.7653 45.0882 96.238 44.7615 99.9048 51.0823C103.001 56.4231 108.855 59.7409 110.622 60.4454C111.444 61.1893 113.533 63.5192 114.104 68.2539C114.306 73.058 114.213 77.87 113.825 82.6627C113.758 83.5128 113.667 84.3747 113.565 85.2445C113.132 82.9704 112.202 80.8201 110.842 78.9473C110.508 72.9335 103.536 72.4494 100.656 67.1047C97.6858 61.5947 88.2119 62.4212 88.2119 62.4212C88.2119 62.4212 96.533 66.1759 100.109 71.1585C103.021 75.2084 108.301 78.2428 110.173 79.211C112.019 81.7328 113.072 84.747 113.199 87.8697C112.782 90.4948 112.227 93.1553 111.594 95.7411C109.819 83.9339 102.97 82.3911 102.97 82.3911C102.97 82.3911 105.806 83.3317 106.546 87.3738C107.156 90.6758 110.264 95.1075 111.377 96.6109C109.43 104.146 106.941 111.53 103.93 118.706L107.148 117.498C109.468 111.666 111.31 105.654 112.656 99.5234C114.399 98.6536 117.535 96.4023 119.211 91.0458C121.607 83.375 125.698 76.6685 129.589 73.1343C129.589 73.1343 120.45 77.07 118.18 84.8903C116.339 91.2544 114.674 96.7211 112.77 98.9881C113.977 93.387 114.766 87.7039 115.131 81.9857C116.732 80.2146 117.625 77.6564 117.838 77.0228C122.201 71.0483 121.123 58.7531 120.615 55.7698C120.08 52.6566 117.806 49.1263 117.806 49.1263C117.271 52.2748 119.868 56.1791 118.632 61.3782C117.633 65.5737 117.306 73.701 117.22 76.6804C116.748 78.1401 116.069 79.524 115.202 80.7893C115.792 69.966 114.725 61.1854 113.537 55.8839C114.281 54.9118 117.027 50.8934 116.362 47.2568Z" fill="#313131"/>
</g>
<path d="M33.1076 80.4944C30.2473 77.3694 26.0258 75.8778 24.4953 75.7715C24.4953 75.7715 29.3818 75.1929 41.3264 83.0605C40.7756 82.3966 40.3035 81.7919 39.9101 81.2461C36.8059 76.968 34.6105 74.6223 33.3476 73.4258C32.8165 73.5281 31.3804 73.599 29.5549 72.068C28.061 70.878 26.2363 70.1783 24.3301 70.0647C27.7057 69.6278 30.8572 71.4028 32.4624 72.5206C33.4577 73.0004 34.384 73.612 35.2164 74.3389C29.905 67.4317 30.4362 63.7793 30.4362 63.7793C31.3985 65.6577 32.4937 67.4648 33.7135 69.187C35.0394 70.9581 35.838 74.0122 36.0977 75.1378C37.8847 76.938 39.5093 78.8925 40.9527 80.9785C41.9284 82.3284 44.1788 85.0677 48.0975 88.6453C47.191 87.2644 46.6111 85.6949 46.4018 84.0562C42.9356 81.557 45.6149 75.921 43.4077 70.2378C41.1258 64.3342 46.8188 58.7612 46.8188 58.7612C46.8188 58.7612 43.2779 62.9292 46.0831 69.6672C48.4712 75.3622 47.5978 82.0411 47.0785 83.8673C47.1808 84.9693 47.7748 88.0431 51.2095 91.3452C54.9148 94.4073 58.8068 97.236 62.8631 99.8149C63.5791 100.275 64.3188 100.724 65.0742 101.165C63.5244 99.4474 62.373 97.4087 61.7024 95.1944C57.1071 91.3019 60.9156 85.4455 58.4054 79.9237C55.797 74.2208 62.1824 67.1719 62.1824 67.1719C62.1824 67.1719 60.1562 76.0785 61.966 81.9349C63.4414 86.701 62.6585 92.7345 62.3162 94.8205C63.2078 97.8103 64.9708 100.466 67.3797 102.448C69.7403 103.703 72.1756 104.864 74.6307 105.923C66.2938 97.3905 69.1934 90.991 69.1934 90.991C69.1934 90.991 68.2295 93.8168 71.0032 96.8474C73.2694 99.3269 74.9376 104.479 75.453 106.293C82.6361 109.284 90.0256 111.753 97.564 113.681L94.6565 115.518C88.6046 113.857 82.6979 111.705 76.9952 109.084C75.2484 109.946 71.5619 111.091 66.282 109.194C58.7163 106.478 50.9066 105.699 45.7408 106.667C45.7408 106.667 54.3963 101.743 61.9936 104.66C68.1783 107.021 73.5369 108.989 76.4956 108.855C71.3017 106.439 66.2929 103.644 61.5096 100.492C59.149 100.697 56.5681 99.8779 55.9189 99.6535C48.5224 99.5276 39.3711 91.2507 37.3095 89.0507C35.1495 86.7483 33.7096 82.8046 33.7096 82.8046C36.5541 84.2845 38.0885 88.7083 42.9789 90.8572C46.9132 92.5928 53.6016 97.2331 56.0291 98.9609C57.4756 99.4664 58.9877 99.7593 60.5182 99.8307C51.54 93.7736 45.1742 87.6299 41.6727 83.4777C40.4648 83.4462 35.602 83.2218 33.1076 80.4944Z" fill="#D8E3FE"/>
<g style="mix-blend-mode:multiply" opacity="0.5">
<path d="M33.1076 80.4944C30.2473 77.3694 26.0258 75.8778 24.4953 75.7715C24.4953 75.7715 29.3818 75.1929 41.3264 83.0605C40.7756 82.3966 40.3035 81.7919 39.9101 81.2461C36.8059 76.968 34.6105 74.6223 33.3476 73.4258C32.8165 73.5281 31.3804 73.599 29.5549 72.068C28.061 70.878 26.2363 70.1783 24.3301 70.0647C27.7057 69.6278 30.8572 71.4028 32.4624 72.5206C33.4577 73.0004 34.384 73.612 35.2164 74.3389C29.905 67.4317 30.4362 63.7793 30.4362 63.7793C31.3985 65.6577 32.4937 67.4648 33.7135 69.187C35.0394 70.9581 35.838 74.0122 36.0977 75.1378C37.8847 76.938 39.5093 78.8925 40.9527 80.9785C41.9284 82.3284 44.1788 85.0677 48.0975 88.6453C47.191 87.2644 46.6111 85.6949 46.4018 84.0562C42.9356 81.557 45.6149 75.921 43.4077 70.2378C41.1258 64.3342 46.8188 58.7612 46.8188 58.7612C46.8188 58.7612 43.2779 62.9292 46.0831 69.6672C48.4712 75.3622 47.5978 82.0411 47.0785 83.8673C47.1808 84.9693 47.7748 88.0431 51.2095 91.3452C54.9148 94.4073 58.8068 97.236 62.8631 99.8149C63.5791 100.275 64.3188 100.724 65.0742 101.165C63.5244 99.4474 62.373 97.4087 61.7024 95.1944C57.1071 91.3019 60.9156 85.4455 58.4054 79.9237C55.797 74.2208 62.1824 67.1719 62.1824 67.1719C62.1824 67.1719 60.1562 76.0785 61.966 81.9349C63.4414 86.701 62.6585 92.7345 62.3162 94.8205C63.2078 97.8103 64.9708 100.466 67.3797 102.448C69.7403 103.703 72.1756 104.864 74.6307 105.923C66.2938 97.3905 69.1934 90.991 69.1934 90.991C69.1934 90.991 68.2295 93.8168 71.0032 96.8474C73.2694 99.3269 74.9376 104.479 75.453 106.293C82.6361 109.284 90.0256 111.753 97.564 113.681L94.6565 115.518C88.6046 113.857 82.6979 111.705 76.9952 109.084C75.2484 109.946 71.5619 111.091 66.282 109.194C58.7163 106.478 50.9066 105.699 45.7408 106.667C45.7408 106.667 54.3963 101.743 61.9936 104.66C68.1783 107.021 73.5369 108.989 76.4956 108.855C71.3017 106.439 66.2929 103.644 61.5096 100.492C59.149 100.697 56.5681 99.8779 55.9189 99.6535C48.5224 99.5276 39.3711 91.2507 37.3095 89.0507C35.1495 86.7483 33.7096 82.8046 33.7096 82.8046C36.5541 84.2845 38.0885 88.7083 42.9789 90.8572C46.9132 92.5928 53.6016 97.2331 56.0291 98.9609C57.4756 99.4664 58.9877 99.7593 60.5182 99.8307C51.54 93.7736 45.1742 87.6299 41.6727 83.4777C40.4648 83.4462 35.602 83.2218 33.1076 80.4944Z" fill="#313131"/>
</g>
<path d="M63.4334 66.2349L63.52 65.6839C59.5302 65.0846 55.6788 63.7799 52.1458 61.8309C55.6159 53.1722 45.4574 45.8636 45.4574 45.8636C44.5761 53.2706 48.357 58.517 50.5288 60.8705C46.6034 58.3346 43.3016 54.9442 40.87 50.9525C40.6103 50.5314 40.3703 50.1142 40.1382 49.697C49.317 39.6215 44.466 31.0219 44.466 31.0219C37.3841 38.5274 38.8674 46.2257 39.6857 48.8626C38.1289 45.8996 37.0116 42.7255 36.3691 39.4404C37.6472 36.3255 37.973 32.9013 37.3055 29.6011C36.0976 23.9533 32.7416 19.136 32.6354 18.9746C30.4595 21.5028 29.2803 24.7382 29.3187 28.074C29.3856 33.0685 34.6576 38.5785 35.8773 39.7592C35.9363 40.0741 36.0268 40.507 36.1527 41.0344C31.5102 32.8166 20.376 35.485 20.376 35.485C27.4932 44.2381 34.9999 42.9629 36.5658 42.5694C37.4606 45.6109 38.7503 48.5219 40.4018 51.228C40.5395 51.4562 40.6851 51.6845 40.8346 51.9128C39.2577 50.5846 37.3305 49.7408 35.2852 49.4831C33.2399 49.2255 31.1638 49.5649 29.3069 50.4605C35.3068 55.3841 40.6654 54.4356 42.2903 54.0027C44.0173 56.2706 46.0466 58.2914 48.3216 60.0086C41.35 56.7341 36.4753 61.4452 36.3534 61.5829C43.9624 64.8771 49.0259 61.9253 50.0449 61.2366C54.1029 63.8337 58.6667 65.5375 63.4334 66.2349Z" fill="#D8E3FE"/>
<g style="mix-blend-mode:multiply" opacity="0.3">
<path d="M63.4334 66.2349L63.52 65.6839C59.5302 65.0846 55.6788 63.7799 52.1458 61.8309C55.6159 53.1722 45.4574 45.8636 45.4574 45.8636C44.5761 53.2706 48.357 58.517 50.5288 60.8705C46.6034 58.3346 43.3016 54.9442 40.87 50.9525C40.6103 50.5314 40.3703 50.1142 40.1382 49.697C49.317 39.6215 44.466 31.0219 44.466 31.0219C37.3841 38.5274 38.8674 46.2257 39.6857 48.8626C38.1289 45.8996 37.0116 42.7255 36.3691 39.4404C37.6472 36.3255 37.973 32.9013 37.3055 29.6011C36.0976 23.9533 32.7416 19.136 32.6354 18.9746C30.4595 21.5028 29.2803 24.7382 29.3187 28.074C29.3856 33.0685 34.6576 38.5785 35.8773 39.7592C35.9363 40.0741 36.0268 40.507 36.1527 41.0344C31.5102 32.8166 20.376 35.485 20.376 35.485C27.4932 44.2381 34.9999 42.9629 36.5658 42.5694C37.4606 45.6109 38.7503 48.5219 40.4018 51.228C40.5395 51.4562 40.6851 51.6845 40.8346 51.9128C39.2577 50.5846 37.3305 49.7408 35.2852 49.4831C33.2399 49.2255 31.1638 49.5649 29.3069 50.4605C35.3068 55.3841 40.6654 54.4356 42.2903 54.0027C44.0173 56.2706 46.0466 58.2914 48.3216 60.0086C41.35 56.7341 36.4753 61.4452 36.3534 61.5829C43.9624 64.8771 49.0259 61.9253 50.0449 61.2366C54.1029 63.8337 58.6667 65.5375 63.4334 66.2349Z" fill="#313131"/>
</g>
<path d="M53.3183 85.052C52.4396 84.2019 51.477 83.2626 50.4305 82.234C54.4632 78.1369 54.2232 73.7564 52.4488 71.3832C51.3535 69.9674 50.8564 68.1787 51.0639 66.4005C46.2168 71.8673 47.5427 77.6174 48.8056 80.6243C47.6253 79.4436 46.3585 78.1645 44.9775 76.7319C43.7534 75.4637 42.6288 74.1032 41.6136 72.6623L41.2202 68.7266C49.9584 62.2759 44.1395 53.5346 44.1395 53.5346C44.1395 53.5346 43.1756 56.1401 40.512 59.7373C38.6707 62.2247 39.5088 65.7078 40.2051 67.6088L40.5435 71.0368C37.4075 66.0328 35.7882 60.2271 35.8813 54.3218C41.7828 49.0125 36.4006 42.5933 36.4006 42.5933C36.4006 42.5933 36.9436 44.447 34.6262 47.5011C32.9384 49.7248 34.1817 52.4838 34.9843 53.8259C34.8897 55.9776 35.0348 58.1333 35.417 60.2529C35.681 61.72 36.0478 63.1667 36.5147 64.5822L34.8387 63.2559C34.4495 61.0245 33.4361 58.9492 31.916 57.2705C30.3959 55.5917 28.4313 54.3783 26.25 53.7708C27.1468 55.3306 27.7583 57.0379 28.0559 58.8124C28.3706 61.2487 30.3024 63.8148 34.2367 63.9289L37.097 66.1919C38.7394 70.3623 41.198 74.1624 44.3283 77.3694C45.4614 78.5502 46.5198 79.6207 47.5152 80.6204L39.9809 77.6607C39.3671 75.9172 37.0419 70.6315 31.3489 70.4268C24.5307 70.1749 21.7334 67.7584 21.7334 67.7584C21.7334 67.7584 28.1818 85.1189 39.6543 78.5069L49.1204 82.2222C50.4384 83.5289 51.6265 84.682 52.6888 85.7132C57.9254 90.8021 60.0933 92.9077 60.766 96.3397L61.6513 96.1665C60.9273 92.4473 58.5431 90.137 53.3183 85.052Z" fill="#D8E3FE"/>
<path d="M80.1816 41.2076C79.9967 39.9993 79.7882 38.669 79.56 37.2167C73.8827 38.1259 70.4559 35.3906 69.555 32.5647C69.0363 30.8517 67.8686 29.4096 66.3013 28.5463C73.5641 27.7592 77.4748 32.1829 79.1902 34.9616C78.9187 33.3204 78.6079 31.5375 78.242 29.5814C77.9205 27.8438 77.4667 26.1334 76.8846 24.465L73.8945 21.8556C63.5826 25.2521 59.8371 15.4324 59.8371 15.4324C59.8371 15.4324 62.5164 16.1606 66.9937 16.0779C70.0861 16.0189 72.4388 18.7267 73.5955 20.4072L76.1922 22.6742C73.933 17.2072 70.1379 12.5127 65.2665 9.15887C57.5159 10.8906 55.4307 2.77904 55.4307 2.77904C55.4307 2.77904 56.611 4.2943 60.4588 4.18016C63.2443 4.09358 64.7865 6.70691 65.3964 8.13952C67.1964 9.30861 68.8616 10.6734 70.3615 12.2091C71.4044 13.2746 72.3695 14.4136 73.2493 15.6174L73.1431 13.4803C71.5557 11.8682 70.4571 9.83935 69.9746 7.62858C69.4921 5.41781 69.6453 3.11554 70.4166 0.988281C71.1657 2.62527 72.201 4.11536 73.4736 5.38844C75.2755 7.05719 76.2276 10.1113 74.0401 13.3859L74.225 17.0264C76.6634 20.7895 78.326 25.0017 79.1154 29.4161C79.4144 31.0219 79.6741 32.5096 79.9023 33.8989L81.8695 26.0274C80.8033 24.5161 77.8486 19.5532 80.9842 14.7988C84.7376 9.09984 84.3953 5.41599 84.3953 5.41599C84.3953 5.41599 94.782 20.7417 82.7429 26.2518L80.2957 36.1384C80.5947 37.9685 80.8465 39.6097 81.0826 41.0698C82.1881 48.288 82.6563 51.2791 85.0523 53.8177L84.3992 54.4395C81.7829 51.6963 81.2793 48.4179 80.1816 41.2076Z" fill="#D8E3FE"/>
<path d="M103.477 118.702L103.584 118.041C98.8108 117.323 94.2032 115.764 89.9746 113.436C94.1254 103.066 81.9761 94.3245 81.9761 94.3245C80.9256 103.188 85.4462 109.469 88.0507 112.283C83.352 109.25 79.3992 105.193 76.4877 100.417C76.1808 99.9132 75.8897 99.4121 75.6143 98.9135C86.595 86.8584 80.8037 76.5625 80.8037 76.5625C72.3094 85.5438 74.1153 94.7574 75.0792 97.9099C73.2165 94.3641 71.8805 90.5655 71.1134 86.634C72.6396 82.908 73.0297 78.8136 72.2347 74.8662C70.7868 68.1125 66.7699 62.3427 66.644 62.1616C64.0424 65.1886 62.6325 69.0601 62.6781 73.0518C62.7411 78.9987 69.0597 85.5989 70.5075 87.0315C70.5783 87.4251 70.6845 87.925 70.838 88.5547C65.2748 78.7153 51.9531 81.8994 51.9531 81.8994C60.471 92.3802 69.4531 90.8532 71.3258 90.3887C72.3971 94.0332 73.9421 97.5212 75.9212 100.763C76.0864 101.031 76.2595 101.306 76.4366 101.582C74.5507 99.9922 72.2454 98.9821 69.7986 98.6734C67.3518 98.3648 64.868 98.7707 62.6467 99.8424C69.8269 105.746 76.2359 104.601 78.1795 104.054C80.2497 106.771 82.6828 109.192 85.4108 111.248C77.07 107.312 71.2472 112.964 71.0898 113.11C80.1978 117.045 86.2527 113.503 87.4763 112.693C92.3233 115.809 97.7778 117.858 103.477 118.702Z" fill="#D8E3FE"/>
<g style="mix-blend-mode:multiply" opacity="0.3">
<path d="M103.477 118.702L103.584 118.041C98.8108 117.323 94.2032 115.764 89.9746 113.436C94.1254 103.066 81.9761 94.3245 81.9761 94.3245C80.9256 103.188 85.4462 109.469 88.0507 112.283C83.352 109.25 79.3992 105.193 76.4877 100.417C76.1808 99.9132 75.8897 99.4121 75.6143 98.9135C86.595 86.8584 80.8037 76.5625 80.8037 76.5625C72.3094 85.5438 74.1153 94.7574 75.0792 97.9099C73.2165 94.3641 71.8805 90.5655 71.1134 86.634C72.6396 82.908 73.0297 78.8136 72.2347 74.8662C70.7868 68.1125 66.7699 62.3427 66.644 62.1616C64.0424 65.1886 62.6325 69.0601 62.6781 73.0518C62.7411 78.9987 69.0597 85.5989 70.5075 87.0315C70.5783 87.4251 70.6845 87.925 70.838 88.5547C65.2748 78.7153 51.9531 81.8994 51.9531 81.8994C60.471 92.3802 69.4531 90.8532 71.3258 90.3887C72.3971 94.0332 73.9421 97.5212 75.9212 100.763C76.0864 101.031 76.2595 101.306 76.4366 101.582C74.5507 99.9922 72.2454 98.9821 69.7986 98.6734C67.3518 98.3648 64.868 98.7707 62.6467 99.8424C69.8269 105.746 76.2359 104.601 78.1795 104.054C80.2497 106.771 82.6828 109.192 85.4108 111.248C77.07 107.312 71.2472 112.964 71.0898 113.11C80.1978 117.045 86.2527 113.503 87.4763 112.693C92.3233 115.809 97.7778 117.858 103.477 118.702Z" fill="#313131"/>
</g>
<g style="mix-blend-mode:multiply" opacity="0.5">
<path d="M75.2411 67.1364C75.2411 67.1364 62.2932 72.493 48.8574 69.9741C48.8574 69.9741 60.1647 63.0472 75.2411 67.1364Z" fill="#313131"/>
<path d="M73.3676 60.5872C73.3676 60.5872 63.8898 52.2789 46.3623 61.1422C46.3623 61.1422 61.3286 64.6607 73.3676 60.5872Z" fill="#313131"/>
<path d="M71.1098 53.7389C71.1098 53.7389 62.529 45.3361 45.6152 49.1774C45.6152 49.1774 58.095 54.0065 71.1098 53.7389Z" fill="#313131"/>
<path d="M68.3006 48.1503C68.3006 48.1503 55.3173 36.6382 42.0625 37.1499C42.0625 37.1499 50.419 45.5015 68.3006 48.1503Z" fill="#313131"/>
<path d="M65.613 43.3017C65.613 43.3017 59.6682 29.0504 44.8594 22.7847C44.8594 22.8004 53.5858 35.3554 65.613 43.3017Z" fill="#313131"/>
<path d="M67.4236 46.7806C67.4236 46.7806 69.1114 29.1446 60.208 20.9229C60.208 20.9229 61.648 32.3955 67.4236 46.7806Z" fill="#313131"/>
<path d="M71.7116 22.7808C71.7116 22.7808 66.597 37.8271 69.7444 51.2401C69.7484 51.2401 77.68 42.0895 71.7116 22.7808Z" fill="#313131"/>
<path d="M80.1902 28.9673C75.855 37.8364 73.222 47.4404 72.4277 57.281C72.4277 57.281 82.1062 45.8241 80.1902 28.9673Z" fill="#313131"/>
<path d="M90.3486 37.626C90.3486 37.626 78.219 49.4332 74.084 62.7871C74.084 62.7871 85.2024 55.9901 90.3486 37.626Z" fill="#313131"/>
<path d="M96.718 57.7851C96.718 57.7851 83.0343 55.6637 75.0791 66.5027C75.083 66.5224 84.1989 67.4198 96.718 57.7851Z" fill="#313131"/>
<path d="M60.8057 37.6812C62.2217 39.0984 63.5364 40.6134 64.74 42.2151C65.9203 43.8366 67.0416 45.4975 68.0645 47.2253C72.1808 54.1564 74.8683 61.8417 75.9686 69.8283C76.303 71.7961 76.3817 73.8191 76.5234 75.8145C76.6099 76.8142 76.5234 77.8178 76.5234 78.8175C76.5234 79.8172 76.488 80.8168 76.4525 81.8165C76.2598 77.8217 76.0591 73.8427 75.2919 69.9306C74.6444 66.0134 73.6476 62.162 72.3136 58.4225C71.0297 54.6637 69.41 51.0281 67.4744 47.5599C65.583 44.0548 63.3492 40.7457 60.8057 37.6812Z" fill="#313131"/>
</g>
<path d="M104.138 75.8184L103.556 75.6177C105.04 71.421 105.767 66.9941 105.704 62.5431C95.4748 61.4333 93.6218 47.7605 93.6218 47.7605C101.286 50.7438 104.437 57.1433 105.598 60.4808C105.168 55.338 103.58 50.3593 100.951 45.9186C100.676 45.4463 100.393 44.9937 100.109 44.5529C85.5524 48.2722 79.6824 39.0979 79.6824 39.0979C90.6671 36.0753 97.3869 41.5263 99.5272 43.687C97.4511 40.6337 94.9392 37.9009 92.0716 35.5755C88.3807 35.2025 84.8822 33.747 82.0155 31.3918C77.1487 27.3025 74.1979 21.5367 74.1074 21.3556C77.694 20.5486 81.4516 21.0746 84.679 22.8355C89.4868 25.4606 92.1188 33.462 92.6618 35.2645C92.9372 35.4849 93.307 35.7959 93.7555 36.1934C88.157 27.4009 96.5096 17.9434 96.5096 17.9434C101.341 29.416 96.2106 36.0478 95.0263 37.3898C97.5252 39.8387 99.693 42.6041 101.475 45.6155C101.62 45.8674 101.77 46.1272 101.915 46.4027C101.441 44.1785 101.62 41.8648 102.428 39.7395C103.237 37.6142 104.643 35.7679 106.475 34.4223C108.159 42.8172 104.457 47.544 103.174 48.8861C104.488 51.7409 105.408 54.761 105.909 57.8635C106.33 49.3781 113.439 47.0718 113.624 47.0127C112.888 56.1318 107.392 59.5323 106.192 60.166C106.628 65.4702 105.928 70.8064 104.138 75.8184Z" fill="#D8E3FE"/>
<path d="M100.755 121.938L100.168 121.58C102.787 117.361 104.637 112.712 105.633 107.848C94.743 104.164 96.0335 88.8067 96.0335 88.8067C103.674 93.9034 105.57 101.645 106.035 105.561C106.796 99.8539 106.258 94.0483 104.461 88.5784C104.272 87.9998 104.067 87.437 103.871 86.886C87.0946 87.437 82.9046 76.0194 82.9046 76.0194C95.6086 75.37 101.624 82.9306 103.438 85.8037C101.907 81.9802 99.8279 78.4004 97.2649 75.1772C93.3276 73.8836 89.8614 71.4528 87.3031 68.1913C82.9754 62.5435 81.1498 55.5418 81.0908 55.3253C85.1982 55.3087 89.1707 56.7905 92.2644 59.4933C96.8754 63.5156 97.8236 72.8748 97.977 74.9686C98.2249 75.2756 98.5554 75.7046 98.9488 76.2477C94.9594 65.3103 106.353 57.0098 106.353 57.0098C108.863 70.6826 101.664 76.6885 100.058 77.8692C102.194 81.143 103.893 84.6824 105.11 88.3973C105.212 88.7083 105.311 89.0271 105.405 89.3498C105.422 86.8085 106.174 84.3265 107.571 82.2035C108.967 80.0804 110.948 78.4069 113.274 77.3851C113.085 86.9451 107.915 91.2075 106.192 92.3646C106.936 95.7986 107.207 99.3182 106.998 102.826C109.501 93.6712 117.81 92.8683 118.015 92.8487C115.013 102.613 108.202 104.998 106.739 105.404C106.082 110.489 104.296 116.113 100.755 121.938Z" fill="#D8E3FE"/>
<g style="mix-blend-mode:multiply" opacity="0.5">
<path d="M100.755 121.938L100.168 121.58C102.787 117.361 104.637 112.712 105.633 107.848C94.743 104.164 96.0335 88.8067 96.0335 88.8067C103.674 93.9034 105.57 101.645 106.035 105.561C106.796 99.8539 106.258 94.0483 104.461 88.5784C104.272 87.9998 104.067 87.437 103.871 86.886C87.0946 87.437 82.9046 76.0194 82.9046 76.0194C95.6086 75.37 101.624 82.9306 103.438 85.8037C101.907 81.9802 99.8279 78.4004 97.2649 75.1772C93.3276 73.8836 89.8614 71.4528 87.3031 68.1913C82.9754 62.5435 81.1498 55.5418 81.0908 55.3253C85.1982 55.3087 89.1707 56.7905 92.2644 59.4933C96.8754 63.5156 97.8236 72.8748 97.977 74.9686C98.2249 75.2756 98.5554 75.7046 98.9488 76.2477C94.9594 65.3103 106.353 57.0098 106.353 57.0098C108.863 70.6826 101.664 76.6885 100.058 77.8692C102.194 81.143 103.893 84.6824 105.11 88.3973C105.212 88.7083 105.311 89.0271 105.405 89.3498C105.422 86.8085 106.174 84.3265 107.571 82.2035C108.967 80.0804 110.948 78.4069 113.274 77.3851C113.085 86.9451 107.915 91.2075 106.192 92.3646C106.936 95.7986 107.207 99.3182 106.998 102.826C109.501 93.6712 117.81 92.8683 118.015 92.8487C115.013 102.613 108.202 104.998 106.739 105.404C106.082 110.489 104.296 116.113 100.755 121.938Z" fill="#313131"/>
</g>
<path d="M114.258 132.049L115.914 130.12C115.914 130.12 110.134 124.02 106.66 119.584C104.634 116.998 101.691 111.764 99.5785 107.848C98.3982 100.582 97.1668 85.8824 102.384 82.8912L102.498 82.8282L101.711 81.3523L101.554 81.4389C96.195 84.5088 96.5097 96.1389 97.3163 103.546C97.1077 103.152 96.9936 102.916 96.9936 102.916V103.019C89.6876 86.4176 76.6885 59.4696 68.2375 56.8839C57.3827 53.5621 55.443 42.5853 55.4233 42.4712L54.3965 42.6522C54.4791 43.1481 55.7381 54.7035 67.7969 58.3952C75.2721 60.6819 88.2869 88.3816 95.231 104.302C88.342 94.2143 81.2169 85.6817 76.3462 84.7135C65.2081 82.5173 62.1589 71.7964 62.1275 71.6901L61.1242 71.9695C61.258 72.4576 63.6894 83.824 76.0747 86.2602C80.6307 87.1615 88.0115 96.8316 95.0225 107.71C79.714 95.4777 60.18 93.195 59.9596 93.1714L59.7787 94.8322C59.999 94.8559 79.9855 97.1937 95.0383 109.886C97.0408 113.059 102.049 121.162 103.694 125.322C105.763 130.565 108.1 138.637 108.1 138.637L110.606 138.18C110.606 138.18 109.214 133.383 107.664 128.947C111.204 135.307 113.534 139.778 113.534 139.778L116.437 140.011C116.41 139.967 113.227 133.847 108.541 125.692C111.342 128.975 114.258 132.049 114.258 132.049Z" fill="#D8E3FE"/>
<g style="mix-blend-mode:multiply" opacity="0.7">
<path d="M114.258 132.049L115.914 130.12C115.914 130.12 110.134 124.02 106.66 119.584C104.634 116.998 101.691 111.764 99.5785 107.848C98.3982 100.582 97.1668 85.8824 102.384 82.8912L102.498 82.8282L101.711 81.3523L101.554 81.4389C96.195 84.5088 96.5097 96.1389 97.3163 103.546C97.1077 103.152 96.9936 102.916 96.9936 102.916V103.019C89.6876 86.4176 76.6885 59.4696 68.2375 56.8839C57.3827 53.5621 55.443 42.5853 55.4233 42.4712L54.3965 42.6522C54.4791 43.1481 55.7381 54.7035 67.7969 58.3952C75.2721 60.6819 88.2869 88.3816 95.231 104.302C88.342 94.2143 81.2169 85.6817 76.3462 84.7135C65.2081 82.5173 62.1589 71.7964 62.1275 71.6901L61.1242 71.9695C61.258 72.4576 63.6894 83.824 76.0747 86.2602C80.6307 87.1615 88.0115 96.8316 95.0225 107.71C79.714 95.4777 60.18 93.195 59.9596 93.1714L59.7787 94.8322C59.999 94.8559 79.9855 97.1937 95.0383 109.886C97.0408 113.059 102.049 121.162 103.694 125.322C105.763 130.565 108.1 138.637 108.1 138.637L110.606 138.18C110.606 138.18 109.214 133.383 107.664 128.947C111.204 135.307 113.534 139.778 113.534 139.778L116.437 140.011C116.41 139.967 113.227 133.847 108.541 125.692C111.342 128.975 114.258 132.049 114.258 132.049Z" fill="#313131"/>
</g>
<path d="M56.7568 50.1459C53.7942 55.896 47.877 55.9235 46.3898 55.1088C46.3898 55.1088 43.8246 51.6769 45.1072 47.5561C45.3902 46.6648 45.8124 45.824 46.3583 45.0648C47.2305 43.7855 48.3975 42.7347 49.7608 42.0011C51.1241 41.2675 52.6437 40.8726 54.1916 40.8496C54.623 40.8345 55.0549 40.8582 55.482 40.9205C55.482 40.9205 59.7154 44.3997 56.7568 50.1459Z" fill="white"/>
<path d="M56.7566 50.1459C53.7941 55.896 47.8768 55.9235 46.3896 55.1088C46.3896 55.1088 61.2064 51.7516 54.1914 40.8496C54.6229 40.8345 55.0548 40.8582 55.4819 40.9205C55.4819 40.9205 59.7153 44.3997 56.7566 50.1459Z" fill="#FFE2FF"/>
<path d="M55.2813 41.5541C55.2813 41.5541 51.5751 41.2078 48.703 43.5535C45.831 45.8992 47.0034 51.425 48.5181 52.3144C50.0328 53.2039 57.2563 50.3466 57.1461 43.6125L55.2813 41.5541Z" fill="#EB9096"/>
<g style="mix-blend-mode:multiply" opacity="0.5">
<path d="M54.7704 41.3652C53.4553 41.4782 52.2061 41.9904 51.1901 42.8333C49.4472 44.258 48.7548 48.5322 49.8564 49.1855C50.958 49.8389 55.3133 46.9068 55.2346 42.0068L54.7704 41.3652Z" fill="#FFBBD2"/>
</g>
<path d="M63.2326 43.0023L66.1323 41.0541C66.1323 41.0541 62.9848 37.6575 60.8602 36.8822C58.7357 36.1069 56.7488 37.2207 55.8321 38.3345C55.247 39.1303 54.8795 40.0649 54.7659 41.0462C54.7659 41.0462 53.9437 41.8097 54.1718 42.1955C54.4 42.5812 56.8039 45.7179 63.2326 43.0023Z" fill="white"/>
<path d="M55.2421 38.8581C55.2421 38.8581 58.1771 36.5675 60.2505 37.4373C62.3239 38.3071 63.1698 40.4679 63.1698 40.4679C63.1698 40.4679 59.4125 44.5256 56.3752 43.2504C53.3379 41.9753 54.9234 40.8693 54.9234 40.8693L55.2421 38.8581Z" fill="#EB9096"/>
<g style="mix-blend-mode:multiply" opacity="0.5">
<path d="M55.0415 39.6845C56.041 39.2342 57.1017 38.9345 58.189 38.7951C59.7981 38.6849 61.8165 40.6212 61.8165 40.6212C61.8165 40.6212 57.6657 43.2346 55.7615 42.4356C53.8573 41.6367 54.8409 40.94 54.8409 40.94L55.0415 39.6845Z" fill="#FFBBD2"/>
</g>
<path d="M65.9747 41.1369C65.9747 41.1369 59.542 44.1517 56.7644 43.2032C54.8838 42.5577 54.6359 41.7981 54.6674 41.3731C54.6767 41.2584 54.7103 41.1471 54.7657 41.0464C54.7657 41.0464 53.55 41.4124 54.3447 42.8371C55.1395 44.2619 61.4305 47.3632 65.9747 41.1369Z" fill="#FFE2FF"/>
<path d="M52.3624 37.886C52.3624 37.886 52.1775 31.699 65.3458 25.6025C65.3458 25.6025 62.3793 30.6836 60.6875 32.4822C58.9957 34.2808 55.3132 38.618 54.849 40.7473C54.8096 40.7669 52.8267 38.6771 52.3624 37.886Z" fill="white"/>
<path d="M52.8584 35.7606C52.8584 35.7606 56.0413 30.4552 60.912 29.3965C60.912 29.3965 54.4439 36.7052 54.7784 40.7353C53.894 39.1821 53.2469 37.5053 52.8584 35.7606Z" fill="#EB9096"/>
<g style="mix-blend-mode:multiply" opacity="0.5">
<path d="M52.7559 36.9099C52.7559 36.9099 54.723 32.6279 58.323 31.3999C58.323 31.3999 54.0345 37.4727 54.6247 40.4954C53.8265 39.4002 53.1966 38.1916 52.7559 36.9099Z" fill="#FFBBD2"/>
</g>
<path d="M54.9233 40.8694C54.9233 40.8694 56.5797 37.276 60.6714 33.6551C63.0851 31.57 64.7192 28.7266 65.3061 25.5908C65.3061 25.5908 60.9507 29.6879 58.4996 33.1474C56.0485 36.6069 54.5102 39.8382 54.9233 40.8575V40.8694Z" fill="#FFE2FF"/>
<path d="M54.8135 40.9913C54.8135 40.9913 47.4799 40.2395 46.9448 37.0555C46.4097 33.8715 48.8845 27.5586 51.2215 25.0161C51.2215 25.0161 52.1067 28.4599 52.449 31.0299C52.7913 33.6 52.9172 38.0316 54.9237 40.8693L54.8135 40.9913Z" fill="white"/>
<path d="M54.7661 41.0461C54.7661 41.0461 50.8318 35.7997 50.4698 30.1559C50.1079 24.5121 47.283 34.5049 47.4011 36.2169C47.2988 38.3934 49.6948 40.0858 49.6948 40.0858L54.7661 41.0461Z" fill="#EB9096"/>
<g style="mix-blend-mode:multiply" opacity="0.5">
<path d="M53.2078 40.4559C53.2078 40.4559 50.4537 36.7603 50.1823 32.7891C49.9108 28.818 47.9357 35.8511 48.0223 37.0555C47.9515 38.5904 49.6354 39.7829 49.6354 39.7829L53.2078 40.4559Z" fill="#FFBBD2"/>
</g>
<path d="M54.923 40.8693C53.7527 38.6863 53.1659 36.2379 53.2194 33.7613C53.3335 29.7036 52.6608 26.3188 51.2208 25.0161C51.2208 25.0161 50.7802 29.5698 51.6142 33.3323C52.4483 37.0949 54.7617 41.0464 54.7617 41.0464L54.923 40.8693Z" fill="#FFE2FF"/>
<path d="M45.1077 47.564C45.2145 47.2115 45.346 46.8669 45.5012 46.5329C45.7377 46.0216 46.0222 45.534 46.351 45.0767C46.593 44.7267 46.8558 44.3916 47.1379 44.073C48.8248 42.174 51.1967 41.023 53.7318 40.8733H54.1685L53.7987 40.6332C53.6059 40.5073 53.3384 40.338 53.0118 40.1491C50.9817 38.9684 46.6736 36.8943 43.1996 38.1065C41.4606 38.7126 37.4043 41.562 37.4043 41.562C37.4043 41.562 40.6383 46.8753 45.1077 47.564Z" fill="white"/>
<path d="M45.5081 46.5328C45.7446 46.0215 46.0292 45.5339 46.358 45.0765C46.6 44.7266 46.8628 44.3915 47.1448 44.0729C48.8317 42.1739 51.2036 41.0229 53.7388 40.8732C53.7388 40.9283 53.7703 40.759 53.7388 40.8732C53.7388 40.8181 54.1755 40.8732 54.1755 40.8732C53.8012 40.6019 53.4066 40.3598 52.9952 40.149C51.4569 39.413 48.2464 38.6259 45.9134 38.9683C43.1593 39.3619 39.4453 41.7705 39.4453 41.7705C39.4453 41.7705 41.5895 45.3245 45.5081 46.5328Z" fill="#EB9096"/>
<g style="mix-blend-mode:multiply" opacity="0.5">
<path d="M53.6367 40.8807C53.4431 40.7433 53.2392 40.6209 53.0268 40.5147C51.996 40.0188 49.84 39.4914 48.2623 39.7276C46.4132 39.9991 43.9346 41.6089 43.9346 41.6089C44.6865 42.7604 45.7126 43.7071 46.9207 44.3639C47.7464 43.359 48.7674 42.5323 49.9217 41.9336C51.0761 41.3349 52.3399 40.9767 53.6367 40.8807Z" fill="#FFBBD2"/>
</g>
<path d="M71.7782 49.5987C71.7782 49.5987 71.7349 55.9274 66.9193 57.4702C63.7718 58.4974 60.5771 55.3134 60.5771 55.3134C60.5771 55.3134 60.6008 55.2504 60.6126 55.2229C64.0276 46.6272 68.257 47.4144 70.3973 48.5715C70.9042 48.8463 71.3692 49.1922 71.7782 49.5987Z" fill="white"/>
<path d="M78.8914 62.3346C79.3944 63.7089 79.5261 65.1915 79.2733 66.633C79.0205 68.0744 78.3921 69.4237 77.4515 70.5445C77.4515 70.5445 77.0187 69.9463 76.3381 68.9702C76.2948 68.9112 76.2476 68.8443 76.2043 68.7774C74.7958 66.7505 72.4667 63.3067 70.6962 60.2132C69.4648 58.0525 69.4923 55.4903 69.8857 53.3178C70.1832 51.7202 70.6843 50.1673 71.3769 48.6973C71.3769 48.6973 77.2193 57.3677 78.8914 62.3346Z" fill="white"/>
<path d="M89.6951 59.8316C89.6951 59.8316 85.9496 61.9845 83.7936 61.8231C81.6376 61.6617 79.7609 61.5201 76.7551 58.6509C75.2758 57.234 74.1191 55.0615 73.3283 53.2196C72.8423 52.1006 72.4245 50.9532 72.0771 49.7837C72.0771 49.7837 83.7543 51.8775 85.6664 53.9556C87.4172 55.8526 89.3214 59.2019 89.6361 59.7569L89.6951 59.8316Z" fill="white"/>
<path d="M71.3809 48.6936C71.3809 48.6936 78.6122 43.7463 81.6928 42.6247C84.7734 41.503 89.29 41.3022 89.29 41.3022C89.29 41.3022 88.8218 46.7454 87.2874 48.1465C85.753 49.5476 78.4902 52.4483 76.2713 52.1728C75.2288 52.0529 74.2337 51.6709 73.3786 51.0626C72.5235 50.4542 71.8362 49.6392 71.3809 48.6936Z" fill="white"/>
<path d="M73.7688 48.4572L71.8016 49.8386L70.5545 50.7202C70.5545 50.7202 66.687 41.668 66.6201 38.4368C66.6342 36.4066 67.3376 34.4415 68.6148 32.8638H68.6463C74.2173 34.383 75.2993 40.1724 73.7688 48.4572Z" fill="white"/>
<path d="M72.8203 51.0273C72.8203 51.0273 83.4706 52.2081 85.0443 53.928C86.6181 55.6479 88.3492 58.7768 88.3492 58.7768C88.3492 58.7768 81.0706 59.6663 78.6038 57.3009C76.137 54.9355 72.8203 51.0273 72.8203 51.0273Z" fill="#FFBBD2"/>
<path d="M72.0885 50.0947C72.0885 50.0947 70.0938 55.8803 72.301 59.7491C74.5081 63.6179 77.0222 67.8488 77.0222 67.8488C77.792 66.9372 78.3067 65.8378 78.514 64.6626C78.7213 63.4874 78.6138 62.2783 78.2025 61.1581C76.8333 57.1436 72.0885 50.0947 72.0885 50.0947Z" fill="#FFBBD2"/>
<path d="M72.0335 49.9409C71.9036 49.8031 66.5254 46.5758 62.4219 55.3171C62.4219 55.3171 65.6087 56.8914 67.8985 55.9271C70.0112 55.0376 71.1719 51.9914 71.6833 50.6217C71.7543 50.374 71.8733 50.1427 72.0335 49.9409Z" fill="#FFBBD2"/>
<path d="M71.8136 49.8388C71.8136 49.8388 69.1265 42.5931 68.9337 40.1844C68.8209 38.7416 69.1964 37.3027 69.9999 36.0991C73.7493 37.4766 74.0247 42.1956 73.3874 48.3471L71.8136 49.8388Z" fill="#FFBBD2"/>
<path d="M71.7666 49.7051C71.7666 49.7051 75.8268 46.0921 79.6668 44.5886C81.9455 43.6487 84.3203 42.9611 86.7486 42.5381C86.7486 42.5381 84.7814 46.3439 83.4595 47.3043C82.1375 48.2646 76.295 50.626 74.6229 50.6693C71.8532 50.7362 71.7666 49.7051 71.7666 49.7051Z" fill="#FFBBD2"/>
<g style="mix-blend-mode:multiply" opacity="0.5">
<path d="M72.7305 50.9248C72.7305 50.9248 78.569 51.5742 79.4189 52.4991C80.1068 53.3261 80.7142 54.217 81.2326 55.1597C81.2326 55.1597 77.2392 55.6477 75.8858 54.3489C74.5324 53.0501 72.7305 50.9248 72.7305 50.9248Z" fill="#FFBBD2"/>
</g>
<g style="mix-blend-mode:multiply" opacity="0.5">
<path d="M72.0895 50.0947C72.0895 50.0947 71.2318 53.5857 72.4436 55.711C73.6553 57.8363 75.0363 60.1545 75.0363 60.1545C75.4553 59.6546 75.7353 59.053 75.8479 58.4104C75.9604 57.7678 75.9017 57.1069 75.6776 56.4942C74.9301 54.2784 72.0895 50.0947 72.0895 50.0947Z" fill="#FFBBD2"/>
</g>
<g style="mix-blend-mode:multiply" opacity="0.5">
<path d="M72.0338 49.9411C71.4358 49.8073 69.2798 48.481 67.0254 53.2787C67.0254 53.2787 69.2286 54.7191 70.0273 53.6132C70.5427 52.9048 72.0338 49.9333 72.0338 49.9411Z" fill="#FFBBD2"/>
</g>
<g style="mix-blend-mode:multiply" opacity="0.5">
<path d="M72.1793 50.2718C72.1793 50.2718 70.7039 46.2967 70.6056 44.9743C70.5436 44.1837 70.7486 43.3951 71.1879 42.7349C73.2455 43.4866 73.399 46.0763 73.0488 49.4532L72.1793 50.2718Z" fill="#FFBBD2"/>
</g>
<g style="mix-blend-mode:multiply" opacity="0.5">
<path d="M72.1523 50.197C72.1523 50.197 74.3792 48.2291 76.4801 47.3869C77.731 46.8711 79.0344 46.4937 80.3673 46.2612C80.3673 46.2612 79.2814 48.3511 78.5614 48.8785C77.8414 49.4059 74.627 50.7007 73.7143 50.7244C72.1996 50.7795 72.1523 50.197 72.1523 50.197Z" fill="#FFBBD2"/>
</g>
<path d="M70.9283 58.7845C71.6798 61.7245 74.5047 66.227 76.2043 68.7734C74.7958 66.7465 72.4667 63.3028 70.6962 60.2093C69.4648 58.0486 69.4923 55.4864 69.8857 53.3139C70.3618 51.7829 71.9867 50.0039 71.9867 50.0039C71.9867 50.0039 69.8385 54.4985 70.9283 58.7845Z" fill="#FFE2FF"/>
<path d="M89.6955 59.8314C89.6955 59.8314 85.95 61.9842 83.794 61.8229C81.638 61.6615 79.7613 61.5198 76.7555 58.6507C75.2761 57.2338 72.5732 50.8579 72.5732 50.8579C76.1142 56.427 84.0773 64.2079 89.6365 59.7566L89.6955 59.8314Z" fill="#FFE2FF"/>
<path d="M72.0889 50.0947C72.0889 50.0947 73.6626 52.4128 80.8979 49.7838C88.5895 46.9933 89.2898 41.3022 89.2898 41.3022C89.2898 41.3022 88.8216 46.7454 87.2872 48.1465C85.7528 49.5476 78.494 52.405 76.2711 52.1728C72.2738 51.7516 72.0889 50.0947 72.0889 50.0947Z" fill="#FFE2FF"/>
<path d="M63.5043 79.4041C60.5457 85.1542 54.6245 85.1817 53.1413 84.3749C53.1413 84.3749 50.5722 80.9429 51.8587 76.8222C52.1385 75.9304 52.5596 75.0892 53.1059 74.3309C53.9791 73.0525 55.1462 72.0024 56.5093 71.2689C57.8724 70.5354 59.3916 70.14 60.9392 70.1157C61.3718 70.1028 61.8048 70.1265 62.2336 70.1866C62.2336 70.1866 66.4669 73.6579 63.5043 79.4041Z" fill="white"/>
<path d="M63.5047 79.4041C60.546 85.1542 54.6248 85.1817 53.1416 84.3749C53.1416 84.3749 67.9583 81.0177 60.9395 70.1157C61.3722 70.1028 61.8052 70.1265 62.2339 70.1866C62.2339 70.1866 66.4672 73.6579 63.5047 79.4041Z" fill="#FFE2FF"/>
<path d="M62.0333 70.8124C62.0333 70.8124 58.3232 70.4661 55.455 72.8118C52.5869 75.1575 53.7515 80.6833 55.2662 81.5727C56.7809 82.4622 64.0044 79.6049 63.8981 72.8708L62.0333 70.8124Z" fill="#EB9096"/>
<g style="mix-blend-mode:multiply" opacity="0.5">
<path d="M61.5215 70.6235C60.2047 70.737 58.954 71.2507 57.9373 72.0955C56.1984 73.5163 55.502 77.7905 56.6036 78.4438C57.7052 79.0972 62.0645 76.169 61.9858 71.269L61.5215 70.6235Z" fill="#FFBBD2"/>
</g>
<path d="M69.98 72.2646L72.8796 70.2967C72.8796 70.2967 69.7321 66.9002 67.6115 66.1248C65.4909 65.3495 63.5001 66.4633 62.5834 67.5811C61.9958 68.3743 61.6267 69.3081 61.5133 70.2888C61.5133 70.2888 60.691 71.0563 60.9231 71.4381C61.1553 71.8198 63.5513 74.9763 69.98 72.2646Z" fill="white"/>
<path d="M61.9891 68.1164C61.9891 68.1164 64.9242 65.8259 66.9976 66.6956C69.071 67.5654 69.9168 69.7262 69.9168 69.7262C69.9168 69.7262 66.1635 73.7839 63.1262 72.5087C60.0889 71.2336 61.6744 70.1276 61.6744 70.1276L61.9891 68.1164Z" fill="#EB9096"/>
<g style="mix-blend-mode:multiply" opacity="0.5">
<path d="M61.8047 68.9466C62.8035 68.4943 63.8645 68.1945 64.9522 68.0571C66.5613 67.943 68.5797 69.8793 68.5797 69.8793C68.5797 69.8793 64.4289 72.4927 62.5286 71.6937C60.6283 70.8948 61.6159 70.206 61.6159 70.206L61.8047 68.9466Z" fill="#FFBBD2"/>
</g>
<path d="M72.7259 70.3952C72.7259 70.3952 66.2894 73.41 63.5156 72.4615C61.6311 71.816 61.3832 71.0564 61.4186 70.6314C61.4259 70.5169 61.4582 70.4054 61.5131 70.3047C61.5131 70.3047 60.2974 70.6707 61.096 72.0994C61.8947 73.5281 68.1818 76.6215 72.7259 70.3952Z" fill="#FFE2FF"/>
<path d="M59.09 67.1443C59.09 67.1443 58.9051 60.9573 72.0733 54.8608C72.0733 54.8608 69.1068 59.9419 67.4151 61.7405C65.7233 63.5391 62.0407 67.8763 61.5804 70.0252C61.5607 70.0252 59.5739 67.9354 59.09 67.1443Z" fill="white"/>
<path d="M59.6094 65.0228C59.6094 65.0228 62.7883 59.7174 67.663 58.6587C67.663 58.6587 61.1949 65.9634 61.5254 69.9976C60.6424 68.4441 59.9966 66.7673 59.6094 65.0228Z" fill="#EB9096"/>
<g style="mix-blend-mode:multiply" opacity="0.5">
<path d="M59.5146 66.1681C59.5146 66.1681 61.4818 61.886 65.0817 60.6777C65.0817 60.6777 60.7933 66.7506 61.3835 69.7732C60.5854 68.6708 59.9555 67.4558 59.5146 66.1681Z" fill="#FFBBD2"/>
</g>
<path d="M61.6743 70.1276C61.6743 70.1276 63.3268 66.5342 67.4224 62.9134C69.8326 60.8309 71.4651 57.9919 72.0531 54.8608C72.0531 54.8608 67.7018 58.9579 65.2507 62.4175C62.7996 65.877 61.2573 69.1082 61.6743 70.1276Z" fill="#FFE2FF"/>
<path d="M61.5645 70.2535C61.5645 70.2535 54.2269 69.4978 53.6958 66.3177C53.1646 63.1376 55.6393 56.8326 57.9803 54.2822C57.9803 54.2822 58.8616 57.726 59.2038 60.296C59.5461 62.8661 59.676 67.3016 61.6825 70.1354L61.5645 70.2535Z" fill="white"/>
<path d="M61.5132 70.3044C61.5132 70.3044 57.5789 65.0581 57.2169 59.4143C56.855 53.7704 54.0301 63.7672 54.1481 65.4753C54.0498 67.6557 56.4458 69.3481 56.4458 69.3481L61.5132 70.3044Z" fill="#EB9096"/>
<g style="mix-blend-mode:multiply" opacity="0.5">
<path d="M59.9556 69.7183C59.9556 69.7183 57.2015 66.0226 56.9301 62.0475C56.6586 58.0724 54.6875 65.1135 54.7701 66.3178C54.6993 67.8488 56.3871 69.0413 56.3871 69.0413L59.9556 69.7183Z" fill="#FFBBD2"/>
</g>
<path d="M61.6745 70.1274C60.5078 67.9516 59.9211 65.5117 59.971 63.0431C60.0851 58.9814 59.4084 55.5967 57.9723 54.2939C57.9723 54.2939 57.5277 58.8476 58.3658 62.6141C59.2038 66.3806 61.5132 70.3242 61.5132 70.3242L61.6745 70.1274Z" fill="#FFE2FF"/>
<path d="M51.8587 76.8224C51.9664 76.4714 52.0978 76.1282 52.2521 75.7951C52.49 75.2834 52.7745 74.7946 53.1019 74.335C53.3449 73.9858 53.6077 73.6507 53.8888 73.3314C54.7245 72.3906 55.7374 71.6238 56.8695 71.0748C58.0016 70.5257 59.2307 70.2053 60.4867 70.1316C60.6362 70.1316 60.7857 70.1316 60.9195 70.1316C60.9195 70.1316 60.7896 70.0372 60.5536 69.8876C60.3175 69.738 60.0893 69.5924 59.7667 69.4035C57.7405 68.2228 53.4285 66.1487 49.9584 67.3609C48.2194 67.967 44.1631 70.8204 44.1631 70.8204C44.1631 70.8204 47.3853 76.1336 51.8587 76.8224Z" fill="white"/>
<path d="M52.2562 75.795C52.4941 75.2833 52.7786 74.7945 53.106 74.3349C53.349 73.9857 53.6117 73.6506 53.8929 73.3313C54.7286 72.3905 55.7415 71.6237 56.8735 71.0747C58.0056 70.5256 59.2348 70.2051 60.4908 70.1315C60.4908 70.1905 60.5222 70.0174 60.4908 70.1315C60.4908 70.0725 60.9235 70.1315 60.9235 70.1315C60.5504 69.8573 60.1557 69.6138 59.7432 69.4034C58.2088 68.6674 54.9945 67.8803 52.6614 68.2227C49.9074 68.6163 46.1934 71.0249 46.1934 71.0249C46.1934 71.0249 48.3415 74.5868 52.2562 75.795Z" fill="#EB9096"/>
<g style="mix-blend-mode:multiply" opacity="0.5">
<path d="M60.3886 70.1391C60.1922 70.0039 59.9872 69.8816 59.7749 69.773C58.7441 69.2771 56.5881 68.7497 55.0104 68.9859C53.1652 69.2614 50.6826 70.8672 50.6826 70.8672C51.4335 72.0182 52.4582 72.9649 53.6649 73.6222C54.4911 72.6161 55.5133 71.7885 56.6691 71.1898C57.825 70.591 59.0904 70.2335 60.3886 70.1391Z" fill="#FFBBD2"/>
</g>
<path d="M101.211 70.1784C107.676 70.2099 110.433 64.9714 110.406 63.279C110.406 63.279 108.549 59.4141 104.3 58.6506C103.379 58.4902 102.439 58.4769 101.514 58.6112C99.977 58.7942 98.5062 59.3441 97.2258 60.2147C95.9454 61.0852 94.8929 62.251 94.1571 63.6136C93.9473 63.9915 93.7696 64.3865 93.626 64.7943C93.626 64.7943 94.7473 70.1508 101.211 70.1784Z" fill="white"/>
<path d="M101.211 70.1786C107.676 70.2101 110.433 64.9717 110.406 63.2793C110.406 63.2793 100.57 74.874 94.1571 63.6138C93.9473 63.9918 93.7696 64.3868 93.626 64.7946C93.626 64.7946 94.7473 70.1511 101.211 70.1786Z" fill="#FFE2FF"/>
<path d="M94.2744 64.9045C94.2744 64.9045 95.679 61.4528 99.0822 59.9887C102.485 58.5246 106.841 62.1101 106.951 63.8694C107.061 65.6287 101.148 70.7176 95.2462 67.5099L94.2744 64.9045Z" fill="#EB9096"/>
<g style="mix-blend-mode:multiply" opacity="0.5">
<path d="M94.3418 64.3618C95.0511 63.2472 96.0831 62.3754 97.3004 61.8626C99.366 60.9771 103.477 62.3349 103.548 63.614C103.619 64.8931 99.004 67.4041 94.6959 65.0702L94.3418 64.3618Z" fill="#FFBBD2"/>
</g>
<path d="M91.887 72.6264L88.8182 74.2991C88.8182 74.2991 87.2445 69.9698 87.5553 67.6949C87.8661 65.4201 89.7507 64.2039 91.167 63.9048C92.1425 63.7545 93.1404 63.8603 94.0627 64.2118C94.0627 64.2118 95.121 63.8182 95.3532 64.2118C95.5853 64.6054 97.2613 68.1751 91.887 72.6264Z" fill="white"/>
<path d="M91.9024 63.6216C91.9024 63.6216 88.5149 65.1683 88.33 67.4117C88.1451 69.6551 89.6677 71.3986 89.6677 71.3986C89.6677 71.3986 94.9987 69.9424 95.2702 66.6757C95.5417 63.409 93.8302 64.2907 93.8302 64.2907L91.9024 63.6216Z" fill="#EB9096"/>
<g style="mix-blend-mode:multiply" opacity="0.5">
<path d="M92.7284 63.8262C91.8695 64.4981 91.115 65.294 90.4897 66.1876C89.6478 67.5612 90.4307 70.2454 90.4307 70.2454C90.4307 70.2454 94.668 67.7816 94.8529 65.735C95.0378 63.6884 93.948 64.2394 93.948 64.2394L92.7284 63.8262Z" fill="#FFBBD2"/>
</g>
<path d="M88.9512 74.197C88.9512 74.197 94.597 69.8677 95.0376 66.9828C95.3327 65.0149 94.774 64.4403 94.3845 64.275C94.2794 64.2284 94.1649 64.2069 94.0501 64.212C94.0501 64.212 94.9353 63.3029 95.8323 64.6686C96.7294 66.0343 96.5799 73.0438 88.9512 74.197Z" fill="#FFE2FF"/>
<path d="M92.3783 60.6187C92.3783 60.6187 86.9765 57.6 75.5 66.4475C75.5 66.4475 81.374 66.1642 83.7621 65.4911C86.1503 64.8181 91.6859 63.5587 93.8026 64.1412C93.7908 64.1215 92.8583 61.4058 92.3783 60.6187Z" fill="white"/>
<path d="M90.2583 60.0796C90.2583 60.0796 84.0853 60.4732 80.8945 64.2869C80.8945 64.2869 90.3606 61.9254 93.7834 64.0783C92.8142 62.5771 91.626 61.2293 90.2583 60.0796Z" fill="#EB9096"/>
<g style="mix-blend-mode:multiply" opacity="0.5">
<path d="M91.3119 60.5282C91.3119 60.5282 86.5907 60.296 83.876 62.929C83.876 62.929 91.2371 61.9293 93.6449 63.8499C93.0363 62.633 92.25 61.5135 91.3119 60.5282Z" fill="#FFBBD2"/>
</g>
<path d="M93.8301 64.271C93.8301 64.271 89.8958 64.0782 84.7811 66.0382C81.8211 67.2165 78.5491 67.3552 75.5 66.4318C75.5 66.4318 81.1419 64.4639 85.3359 63.8853C89.5299 63.3068 93.118 63.4367 93.8222 64.2789L93.8301 64.271Z" fill="#FFE2FF"/>
<path d="M93.9917 64.2276C93.9917 64.2276 96.7104 57.3716 94.1334 55.4194C91.5564 53.4673 84.8247 52.7471 81.4766 53.6602C81.4766 53.6602 84.1244 56.0216 86.2411 57.529C88.3577 59.0364 92.237 61.1814 93.8225 64.2709L93.9917 64.2276Z" fill="white"/>
<path d="M94.0666 64.2123C94.0666 64.2123 91.23 58.3086 86.3947 55.3687C81.5593 52.4287 91.7257 54.55 93.1853 55.4474C95.1525 56.3644 95.5459 59.269 95.5459 59.269L94.0666 64.2123Z" fill="#EB9096"/>
<g style="mix-blend-mode:multiply" opacity="0.5">
<path d="M94.2588 62.5553C94.2588 62.5553 92.2602 58.3913 88.8569 56.329C85.4537 54.2667 92.6103 55.7544 93.6411 56.3841C95.0299 57.0295 95.3093 59.0761 95.3093 59.0761L94.2588 62.5553Z" fill="#FFBBD2"/>
</g>
<path d="M93.8303 64.2709C92.4383 62.2245 90.5408 60.5731 88.3222 59.4772C84.6672 57.7022 81.9801 55.5414 81.4883 53.6602C81.4883 53.6602 85.7295 55.3722 88.6842 57.8517C91.6389 60.3312 94.0664 64.2119 94.0664 64.2119L93.8303 64.2709Z" fill="#FFE2FF"/>
<path d="M104.295 58.651C103.933 58.5867 103.566 58.5472 103.198 58.5329C102.635 58.5055 102.071 58.5319 101.514 58.6116C101.09 58.6708 100.67 58.7536 100.255 58.8596C99.0318 59.1652 97.8811 59.709 96.8684 60.46C95.8558 61.211 95.0011 62.1544 94.3533 63.2361C94.2746 63.366 94.2038 63.492 94.1369 63.61C94.1369 63.61 94.1173 63.4526 94.0936 63.1732C94.07 62.8937 94.0464 62.6261 94.0307 62.2483C93.9205 59.8868 94.07 55.1206 96.7493 52.5978C98.0909 51.3345 102.493 49.0557 102.493 49.0557C102.493 49.0557 105.755 54.365 104.295 58.651Z" fill="white"/>
<path d="M103.202 58.5327C102.64 58.5053 102.076 58.5316 101.518 58.6114C101.094 58.6705 100.674 58.7533 100.259 58.8593C99.0363 59.1649 97.8856 59.7088 96.8729 60.4598C95.8603 61.2107 95.0056 62.1541 94.3578 63.2359C94.3106 63.2359 94.1414 63.6294 94.1414 63.6294C94.0693 63.1778 94.0338 62.7211 94.0352 62.2637C94.0903 60.5596 94.8771 57.348 96.2738 55.4234C97.9066 53.1722 101.747 50.98 101.747 50.98C101.747 50.98 103.942 54.4985 103.202 58.5327Z" fill="#EB9096"/>
<g style="mix-blend-mode:multiply" opacity="0.5">
<path d="M94.4361 63.1339C94.4049 62.8977 94.3905 62.6597 94.3928 62.4215C94.4322 61.2801 94.9594 59.1234 95.8957 57.8324C96.9895 56.3172 99.5704 54.8452 99.5704 54.8452C100.247 56.0484 100.613 57.4009 100.637 58.781C99.3618 59.0472 98.1545 59.5705 97.0884 60.3189C96.0224 61.0673 95.1199 62.0251 94.4361 63.1339Z" fill="#FFBBD2"/>
</g>
<path d="M84.7965 84.2959C84.7965 84.2959 90.3046 87.4681 94.0698 84.107C96.5484 81.903 95.4153 77.5422 95.4153 77.5422H95.317C86.1972 76.1293 84.7218 80.1792 84.6234 82.6114C84.6051 83.1782 84.6633 83.7448 84.7965 84.2959Z" fill="white"/>
<path d="M92.2052 96.8825C93.1353 98.0116 94.3468 98.8751 95.7174 99.3858C97.088 99.8965 98.569 100.036 100.011 99.791C100.011 99.791 99.7119 99.114 99.224 98.0356C99.1926 97.9648 99.1571 97.89 99.1217 97.8192C98.087 95.5797 96.2929 91.829 94.5186 88.7394C93.2792 86.5866 91.0485 85.3075 88.9829 84.5518C87.4602 84.0031 85.8736 83.6513 84.2617 83.5049C84.2617 83.5049 88.7665 92.927 92.2052 96.8825Z" fill="white"/>
<path d="M84.5849 104.943C84.5849 104.943 88.3343 102.798 89.2864 100.85C90.2385 98.9016 91.0608 97.2249 90.0969 93.1869C89.6208 91.1954 88.3343 89.0976 87.1461 87.484C86.4244 86.5009 85.6454 85.5612 84.813 84.6699C84.813 84.6699 80.7135 95.8041 81.5397 98.508C82.2911 100.98 84.215 104.313 84.5376 104.864L84.5849 104.943Z" fill="white"/>
<path d="M84.2303 83.5049C84.2303 83.5049 76.3104 87.2438 73.7846 89.3376C71.2587 91.4315 68.8037 95.2413 68.8037 95.2413C68.8037 95.2413 73.7334 97.6027 75.7164 96.9769C77.6993 96.3511 83.8762 91.5574 84.7654 89.499C85.1909 88.5363 85.3651 87.4813 85.2715 86.4328C85.1779 85.3844 84.8196 84.3769 84.2303 83.5049Z" fill="white"/>
<path d="M82.8259 85.4494L85.0056 84.4576L86.3983 83.824C86.3983 83.824 80.5283 75.9013 77.7978 74.2129C76.0383 73.1987 73.9865 72.8129 71.979 73.1187C71.979 73.1187 71.979 73.1384 71.979 73.1502C70.4603 78.7232 74.9061 82.5803 82.8259 85.4494Z" fill="white"/>
<path d="M85.5244 85.9253C85.5244 85.9253 81.1652 95.7135 81.8419 97.9411C82.5186 100.169 84.3559 103.243 84.3559 103.243C84.3559 103.243 88.8017 97.4137 88.007 94.088C87.2122 90.7623 85.5244 85.9253 85.5244 85.9253Z" fill="#FFBBD2"/>
<path d="M85.084 84.8237C85.084 84.8237 91.0878 86.0281 93.3068 89.889C95.5257 93.75 97.9021 98.0557 97.9021 98.0557C96.7307 98.256 95.5272 98.1431 94.4134 97.7284C93.2997 97.3137 92.3153 96.612 91.5599 95.6942C88.7665 92.4984 85.084 84.8237 85.084 84.8237Z" fill="#FFBBD2"/>
<path d="M84.982 84.6975C84.9269 84.5203 84.8718 78.231 94.4795 79.1245C94.4795 79.1245 94.2277 82.6666 92.2369 84.1583C90.3995 85.5318 87.1812 84.9887 85.7452 84.7407C85.4957 84.6788 85.2368 84.6642 84.982 84.6975Z" fill="#FFBBD2"/>
<path d="M85.0169 84.4574C85.0169 84.4574 80.1265 78.4751 78.1475 77.0897C76.9598 76.2622 75.5282 75.8588 74.0834 75.9444C73.3752 79.8801 77.3095 82.5013 82.9317 85.0596L85.0169 84.4574Z" fill="#FFBBD2"/>
<path d="M84.9147 84.3472C84.9147 84.3472 79.745 86.0277 76.5031 88.5623C74.5372 90.0663 72.7429 91.7821 71.1523 93.6788C71.1523 93.6788 75.4329 93.8913 76.924 93.2459C78.4151 92.6004 83.4118 88.7434 84.297 87.3423C85.7566 84.9454 84.9147 84.3472 84.9147 84.3472Z" fill="#FFBBD2"/>
<g style="mix-blend-mode:multiply" opacity="0.5">
<path d="M85.4779 85.8076C85.4779 85.8076 83.0858 91.1799 83.4596 92.4C83.8264 93.4105 84.2875 94.3843 84.8366 95.3085C84.8366 95.3085 87.2798 92.1127 86.8431 90.2865C86.4064 88.4603 85.4779 85.8076 85.4779 85.8076Z" fill="#FFBBD2"/>
</g>
<g style="mix-blend-mode:multiply" opacity="0.5">
<path d="M85.084 84.8237C85.084 84.8237 88.5305 85.851 89.7501 87.9723C90.9698 90.0937 92.272 92.4551 92.272 92.4551C91.6291 92.5657 90.9683 92.5042 90.3568 92.2767C89.7453 92.0493 89.2048 91.6641 88.7901 91.1603C87.2557 89.3931 85.084 84.8237 85.084 84.8237Z" fill="#FFBBD2"/>
</g>
<g style="mix-blend-mode:multiply" opacity="0.5">
<path d="M84.9814 84.6977C85.1703 84.1153 85.1231 81.5728 90.3912 82.0647C90.3912 82.0647 90.521 84.6938 89.1636 84.8198C88.2902 84.9103 84.9814 84.682 84.9814 84.6977Z" fill="#FFBBD2"/>
</g>
<g style="mix-blend-mode:multiply" opacity="0.5">
<path d="M85.1945 84.9888C85.1945 84.9888 82.5113 81.7064 81.4254 80.9468C80.7735 80.4925 79.9878 80.2707 79.1946 80.3171C78.8012 82.4739 80.9651 83.9143 84.0496 85.3194L85.1945 84.9888Z" fill="#FFBBD2"/>
</g>
<g style="mix-blend-mode:multiply" opacity="0.5">
<path d="M85.1428 84.9297C85.1428 84.9297 82.3061 85.8506 80.5278 87.2518C79.4506 88.0705 78.4664 89.0049 77.5928 90.0383C77.5928 90.0383 79.9534 90.1563 80.7599 89.8021C81.5665 89.4479 84.3008 87.3305 84.8044 86.5512C85.607 85.2564 85.1428 84.9297 85.1428 84.9297Z" fill="#FFBBD2"/>
</g>
<path d="M93.1694 88.216C95.3215 90.3492 97.7804 95.0642 99.1142 97.8192C98.0794 95.5798 96.2854 91.829 94.511 88.7395C93.2717 86.5866 91.0409 85.3075 88.9754 84.5518C87.4016 84.1897 85.041 84.6935 85.041 84.6935C85.041 84.6935 90.0258 85.1107 93.1694 88.216Z" fill="#FFE2FF"/>
<path d="M84.5843 104.943C84.5843 104.943 88.3338 102.798 89.2859 100.85C90.238 98.9016 91.0603 97.225 90.0963 93.1869C89.6203 91.1954 85.4892 85.6421 85.4892 85.6421C88.4951 91.5221 91.1862 102.318 84.5371 104.864L84.5843 104.943Z" fill="#FFE2FF"/>
<path d="M85.084 84.8237C85.084 84.8237 86.2918 87.3505 80.3628 92.2701C74.0678 97.4968 68.8076 95.222 68.8076 95.222C68.8076 95.222 73.7373 97.5834 75.7203 96.9576C77.7032 96.3318 83.8407 91.5224 84.7692 89.4797C86.4217 85.8077 85.084 84.8237 85.084 84.8237Z" fill="#FFE2FF"/>
<path d="M57.6777 89.8849C57.6777 89.8849 60.7505 95.4383 65.7195 94.5094C68.9772 93.8994 70.2558 89.5779 70.2558 89.5779L70.1811 89.515C63.0717 83.6114 59.7354 86.3192 58.4095 88.3579C58.0973 88.8312 57.8511 89.345 57.6777 89.8849Z" fill="white"/>
<path d="M57.5321 104.49C57.7499 105.935 58.3441 107.297 59.2551 108.439C60.1661 109.581 61.3616 110.463 62.7215 110.996C62.7215 110.996 62.8159 110.264 62.9457 109.079C62.9457 109.001 62.9457 108.922 62.9733 108.843C63.2408 106.391 63.6382 102.255 63.709 98.6891C63.7562 96.2017 62.5051 93.9662 61.1202 92.2463C60.0944 90.9863 58.9125 89.8622 57.6029 88.9009C57.6029 88.9009 56.6272 99.3266 57.5321 104.49Z" fill="white"/>
<path d="M46.8545 107.454C46.8545 107.454 51.1823 107.552 52.9921 106.372C54.8019 105.191 56.3835 104.183 57.6386 100.228C58.2563 98.2601 58.2326 95.8121 58.032 93.8167C57.9223 92.6011 57.7397 91.3933 57.4851 90.1997C57.4851 90.1997 48.2433 97.6422 47.5588 100.37C46.9293 102.873 46.8585 106.726 46.8506 107.363L46.8545 107.454Z" fill="white"/>
<path d="M57.6024 88.9168C57.6024 88.9168 48.8878 88.0352 45.6459 88.5232C42.404 89.0112 38.3398 90.9948 38.3398 90.9948C38.3398 90.9948 41.3457 95.5564 43.3719 96.0405C45.3981 96.5246 53.1566 95.6036 54.9625 94.3087C55.8212 93.7055 56.5135 92.8948 56.975 91.9521C57.4366 91.0094 57.6524 89.9653 57.6024 88.9168Z" fill="white"/>
<path d="M55.3916 89.8574L57.7719 90.1329L59.2906 90.31C59.2906 90.31 58.3463 80.4943 56.8749 77.6369C55.8906 75.8619 54.3327 74.4742 52.4566 73.7012C52.4566 73.7012 52.4566 73.7012 52.433 73.7248C48.2665 77.7117 50.0881 83.3122 55.3916 89.8574Z" fill="white"/>
<path d="M57.4773 91.6558C57.4773 91.6558 48.6958 97.7955 48.1332 100.051C47.5706 102.306 47.5312 105.88 47.5312 105.88C47.5312 105.88 54.3455 103.18 55.3803 99.9208C56.415 96.662 57.4773 91.6558 57.4773 91.6558Z" fill="#FFBBD2"/>
<path d="M57.6504 90.4868C57.6504 90.4868 62.171 94.6154 62.0844 99.0667C61.9978 103.518 61.8051 108.438 61.8051 108.438C60.6975 108.002 59.7247 107.281 58.9854 106.348C58.2461 105.415 57.7666 104.303 57.5953 103.124C56.8557 98.9487 57.6504 90.4868 57.6504 90.4868Z" fill="#FFBBD2"/>
<path d="M57.6299 90.3257C57.6732 90.1447 60.8678 84.7291 68.646 90.4477C68.646 90.4477 66.6041 93.3563 64.1294 93.5963C61.8475 93.8246 59.3689 91.7032 58.2672 90.7508C58.0827 90.5711 57.8667 90.427 57.6299 90.3257Z" fill="#FFBBD2"/>
<path d="M57.7718 90.1368C57.7718 90.1368 56.6623 82.4897 55.6826 80.2975C55.091 78.9762 54.0726 77.8922 52.7909 77.2197C50.1588 80.2188 52.1732 84.4969 55.6748 89.5937L57.7718 90.1368Z" fill="#FFBBD2"/>
<path d="M57.7484 89.9909C57.7484 89.9909 52.4527 88.763 48.361 89.2746C45.9089 89.5418 43.4933 90.0763 41.1572 90.8686C41.1572 90.8686 44.6981 93.2615 46.327 93.478C47.9558 93.6945 54.1956 92.9663 55.6986 92.2028C58.1654 90.9237 57.7484 89.9909 57.7484 89.9909Z" fill="#FFBBD2"/>
<g style="mix-blend-mode:multiply" opacity="0.5">
<path d="M57.4773 91.522C57.4773 91.522 52.6616 94.891 52.3626 96.1268C52.155 97.1835 52.0482 98.2575 52.0439 99.3344C52.0439 99.3344 55.7816 97.8506 56.3521 96.0638C56.9225 94.277 57.4773 91.522 57.4773 91.522Z" fill="#FFBBD2"/>
</g>
<g style="mix-blend-mode:multiply" opacity="0.5">
<path d="M57.6498 90.4868C57.6498 90.4868 60.0734 93.1434 60.0104 95.6033C59.9475 98.0631 59.8609 100.747 59.8609 100.747C59.2531 100.51 58.7189 100.116 58.3126 99.6047C57.9063 99.0939 57.6423 98.4846 57.5475 97.8388C57.158 95.5206 57.6498 90.4868 57.6498 90.4868Z" fill="#FFBBD2"/>
</g>
<g style="mix-blend-mode:multiply" opacity="0.5">
<path d="M57.6299 90.3255C58.0863 89.9319 59.3571 87.72 63.6219 90.8607C63.6219 90.8607 62.3747 93.1789 61.1433 92.5924C60.3525 92.2146 57.6338 90.3136 57.6299 90.3255Z" fill="#FFBBD2"/>
</g>
<g style="mix-blend-mode:multiply" opacity="0.5">
<path d="M57.658 90.688C57.658 90.688 57.0521 86.4885 56.5131 85.2803C56.1925 84.556 55.6384 83.9601 54.9394 83.5879C53.4955 85.237 54.601 87.5827 56.5131 90.381L57.658 90.688Z" fill="#FFBBD2"/>
</g>
<g style="mix-blend-mode:multiply" opacity="0.5">
<path d="M57.6461 90.609C57.6461 90.609 54.7425 89.936 52.496 90.2154C51.1503 90.363 49.8246 90.656 48.542 91.0891C48.542 91.0891 50.5092 92.4037 51.3787 92.5217C52.2481 92.6398 55.7064 92.2423 56.5208 91.8212C57.8703 91.1285 57.6461 90.609 57.6461 90.609Z" fill="#FFBBD2"/>
</g>
<path d="M62.8277 97.5632C63.5752 100.503 63.2487 105.809 62.9732 108.859C63.2408 106.407 63.6382 102.27 63.709 98.7046C63.7562 96.2172 62.5051 93.9817 61.1202 92.2618C59.9713 91.144 57.6934 90.3608 57.6934 90.3608C57.6934 90.3608 61.7339 93.2851 62.8277 97.5632Z" fill="#FFE2FF"/>
<path d="M46.8545 107.454C46.8545 107.454 51.1823 107.552 52.9921 106.372C54.8019 105.191 56.3835 104.183 57.6385 100.228C58.2562 98.26 57.5795 91.3843 57.5795 91.3843C57.1192 97.9845 53.8576 108.635 46.8545 107.375V107.454Z" fill="#FFE2FF"/>
<path d="M57.6504 90.4868C57.6504 90.4868 57.3828 93.2733 49.7817 94.4226C41.6887 95.6544 38.3721 90.9906 38.3721 90.9906C38.3721 90.9906 41.3464 95.556 43.3726 96.0401C45.3988 96.5242 53.1337 95.5718 54.9632 94.3084C58.2838 92.0296 57.6504 90.4868 57.6504 90.4868Z" fill="#FFE2FF"/>
<path d="M107.133 85.3863C107.133 85.3863 103.871 79.9393 98.9374 81.0373C95.7034 81.7576 94.5703 86.1184 94.5703 86.1184L94.649 86.1813C101.951 91.8488 105.197 89.019 106.452 86.937C106.749 86.4539 106.978 85.9321 107.133 85.3863Z" fill="white"/>
<path d="M106.782 70.7848C106.518 69.3457 105.879 68.0016 104.93 66.8884C103.981 65.7751 102.755 64.9321 101.376 64.4443C101.376 64.4443 101.305 65.1803 101.215 66.3689C101.215 66.4437 101.215 66.5224 101.215 66.6051C101.03 69.0649 100.774 73.2132 100.821 76.7789C100.857 79.2624 102.182 81.4664 103.622 83.1312C104.691 84.3545 105.911 85.4363 107.254 86.3507C107.254 86.3507 107.864 75.9131 106.782 70.7848Z" fill="white"/>
<path d="M117.361 67.4512C117.361 67.4512 113.033 67.4984 111.259 68.7382C109.485 69.9779 107.946 71.0406 106.825 75.0353C106.274 77.0032 106.38 79.467 106.632 81.4545C106.784 82.6658 107.007 83.867 107.301 85.0518C107.301 85.0518 116.299 77.3141 116.889 74.5512C117.432 72.0284 117.373 68.1753 117.361 67.5378V67.4512Z" fill="white"/>
<path d="M107.238 86.3545C107.238 86.3545 115.98 86.937 119.203 86.3545C122.425 85.772 126.418 83.6388 126.418 83.6388C126.418 83.6388 123.251 79.1836 121.217 78.7585C119.183 78.3334 111.456 79.522 109.693 80.8799C108.856 81.5116 108.192 82.3447 107.763 83.3018C107.334 84.2589 107.153 85.309 107.238 86.3545Z" fill="white"/>
<path d="M109.41 85.3393L107.026 85.1425L105.503 85.0205C105.503 85.0205 106.778 94.7969 108.34 97.6149C109.384 99.3573 110.989 100.694 112.892 101.405L112.915 101.377C116.944 97.2213 114.937 91.7113 109.41 85.3393Z" fill="white"/>
<path d="M107.29 83.6071C107.29 83.6071 115.859 77.1761 116.339 74.9013C116.819 72.6264 116.732 69.0488 116.732 69.0488C116.732 69.0488 110.013 71.977 109.088 75.2673C108.163 78.5576 107.29 83.6071 107.29 83.6071Z" fill="#FFBBD2"/>
<path d="M107.136 84.7842C107.136 84.7842 102.478 80.8131 102.415 76.3578C102.352 71.9026 102.368 66.9868 102.368 66.9868C103.489 67.3818 104.487 68.0663 105.258 68.9711C106.03 69.8758 106.549 70.9686 106.763 72.1387C107.648 76.3027 107.136 84.7842 107.136 84.7842Z" fill="#FFBBD2"/>
<path d="M107.164 84.9457C107.128 85.1307 104.118 90.6486 96.1475 85.1937C96.1475 85.1937 98.091 82.2182 100.554 81.8876C102.828 81.5806 105.373 83.6194 106.507 84.5364C106.697 84.7137 106.92 84.8527 107.164 84.9457Z" fill="#FFBBD2"/>
<path d="M107.05 85.1421C107.05 85.1421 108.415 92.7499 109.469 94.9224C110.104 96.2227 111.157 97.272 112.46 97.9018C114.993 94.8122 112.833 90.6049 109.163 85.6301L107.05 85.1421Z" fill="#FFBBD2"/>
<path d="M107.05 85.284C107.05 85.284 112.381 86.3309 116.453 85.6775C118.898 85.3266 121.298 84.7103 123.61 83.8396C123.61 83.8396 119.97 81.5686 118.353 81.4073C116.736 81.2459 110.485 82.1944 109.033 82.9816C106.609 84.3512 107.05 85.284 107.05 85.284Z" fill="#FFBBD2"/>
<g style="mix-blend-mode:multiply" opacity="0.5">
<path d="M107.266 83.7449C107.266 83.7449 111.967 80.2028 112.235 78.9669C112.406 77.9055 112.477 76.8302 112.447 75.7554C112.447 75.7554 108.761 77.3612 108.253 79.1677C107.746 80.9742 107.266 83.7449 107.266 83.7449Z" fill="#FFBBD2"/>
</g>
<g style="mix-blend-mode:multiply" opacity="0.5">
<path d="M107.136 84.7841C107.136 84.7841 104.626 82.2102 104.594 79.7661C104.563 77.322 104.567 74.6221 104.567 74.6221C105.182 74.8402 105.728 75.2166 106.152 75.7134C106.575 76.2102 106.86 76.8098 106.978 77.4519C107.462 79.7346 107.136 84.7841 107.136 84.7841Z" fill="#FFBBD2"/>
</g>
<g style="mix-blend-mode:multiply" opacity="0.5">
<path d="M107.164 84.9455C106.719 85.3627 105.527 87.606 101.16 84.6149C101.16 84.6149 102.34 82.2534 103.576 82.8005C104.378 83.1508 107.16 84.9573 107.164 84.9455Z" fill="#FFBBD2"/>
</g>
<g style="mix-blend-mode:multiply" opacity="0.5">
<path d="M107.124 84.5874C107.124 84.5874 107.872 88.7593 108.45 89.9518C108.798 90.6662 109.376 91.2429 110.091 91.5891C111.479 89.8928 110.295 87.5825 108.285 84.855L107.124 84.5874Z" fill="#FFBBD2"/>
</g>
<g style="mix-blend-mode:multiply" opacity="0.5">
<path d="M107.136 84.6662C107.136 84.6662 110.064 85.2408 112.298 84.8827C113.643 84.6914 114.962 84.3535 116.233 83.8751C116.233 83.8751 114.234 82.6275 113.349 82.5409C112.464 82.4543 109.021 82.966 108.234 83.4147C106.893 84.1506 107.136 84.6662 107.136 84.6662Z" fill="#FFBBD2"/>
</g>
<path d="M101.726 77.8887C100.88 74.9763 101.026 69.6591 101.199 66.605C101.014 69.0648 100.758 73.2131 100.806 76.7789C100.841 79.2623 102.167 81.4663 103.607 83.1311C104.787 84.2056 107.097 84.9101 107.097 84.9101C107.097 84.9101 102.962 82.1315 101.726 77.8887Z" fill="#FFE2FF"/>
<path d="M117.362 67.4512C117.362 67.4512 113.034 67.4984 111.26 68.7382C109.485 69.9779 107.947 71.0406 106.826 75.0353C106.275 77.0032 107.184 83.8711 107.184 83.8711C107.416 77.2669 110.331 66.5263 117.362 67.5378V67.4512Z" fill="#FFE2FF"/>
<path d="M107.136 84.784C107.136 84.784 107.313 81.9897 114.883 80.5767C122.924 79.0733 126.418 83.623 126.418 83.623C126.418 83.623 123.251 79.1677 121.217 78.7427C119.183 78.3176 111.479 79.5298 109.693 80.864C106.455 83.2648 107.136 84.784 107.136 84.784Z" fill="#FFE2FF"/>
<path d="M129.944 106.576C122.551 114.082 119.38 120.127 118.141 124.551C117.96 125.212 117.818 125.838 117.716 126.424C117.434 127.915 117.388 129.441 117.578 130.946C117.662 131.736 117.872 132.506 118.2 133.229C118.038 133.999 117.743 134.736 117.33 135.405C114.623 139.794 107.455 140.746 107.455 140.746L104.296 134.551C102.329 127.53 102.994 122.484 105.039 117.679C105.177 117.356 105.319 117.037 105.468 116.715C105.748 116.105 106.054 115.498 106.377 114.888C110.666 106.785 118.267 98.4016 123.181 81.1985C131.443 52.2511 108.045 25.4291 107.487 24.7954C138.257 52.2826 146.822 89.4556 129.944 106.576Z" fill="white"/>
<g style="mix-blend-mode:multiply" opacity="0.1">
<path d="M118.215 133.229C118.053 133.999 117.759 134.736 117.346 135.406C116.962 134.597 116.696 133.736 116.559 132.851C115.162 126.003 108.257 120.104 105.031 117.675C105.169 117.352 105.311 117.034 105.46 116.711C110.307 118.931 115.272 123.528 117.739 126.42C117.458 127.911 117.411 129.437 117.601 130.943C117.495 132.918 118.152 133.21 118.215 133.229Z" fill="#313131"/>
</g>
<path d="M107.475 140.75C107.475 140.75 113.557 162.83 111.511 181.363C111.511 181.363 129.519 189.896 139.638 176.274C139.638 176.274 131.797 150.692 117.665 133.623L107.475 140.75Z" fill="white"/>
<path d="M29.7637 79.1875C29.7637 79.1875 41.8854 113.07 67.7301 113.015C93.5748 112.96 109.434 111.76 118.22 133.237L107.475 140.75C107.475 140.75 99.8501 131.671 69.5871 127.302C39.1982 122.91 32.6672 92.6517 29.7637 79.1875Z" fill="white"/>
<path d="M192.425 94.5527L171.966 98.7443L170.507 119.261L193.417 145.147C193.417 145.147 212.88 134.371 221 115.455L192.425 94.5527ZM177.868 103.861C177.266 104.451 176.066 104.203 175.181 103.306C174.296 102.408 174.063 101.204 174.658 100.618C175.252 100.031 176.463 100.275 177.345 101.173C178.226 102.07 178.442 103.274 177.868 103.861Z" fill="#EB9096"/>
<path d="M186.079 102.28L177.316 111.772L177.895 112.306L186.657 102.814L186.079 102.28Z" fill="white"/>
<path d="M195.449 100.031L176.771 120.266L177.349 120.8L196.027 100.565L195.449 100.031Z" fill="white"/>
<path d="M199.194 103.89L180.516 124.125L181.094 124.659L199.772 104.424L199.194 103.89Z" fill="white"/>
<path d="M202.945 107.746L184.267 127.98L184.845 128.514L203.523 108.28L202.945 107.746Z" fill="white"/>
<path d="M206.693 111.602L188.015 131.836L188.593 132.37L207.271 112.136L206.693 111.602Z" fill="white"/>
<path d="M211.395 114.18C209.452 115.231 210.412 117.785 210.569 118.171C210.176 118.092 207.469 117.655 206.82 119.769C206.123 122.047 210.927 123.61 214.732 121.615C214.733 121.605 214.733 121.596 214.732 121.587H214.759H214.74C215.971 117.447 213.492 113.046 211.395 114.18Z" fill="white"/>
<path d="M117.491 142.592C114.914 142.55 112.369 142.016 109.992 141.018L110.138 140.652C125.773 146.882 133.488 132.997 140.948 119.572C144.201 113.716 147.274 108.186 150.945 104.325C163.11 91.5181 173.371 99.3188 173.485 99.4014C173.524 99.4211 175.058 100.295 175.629 101.161C175.9 101.495 176.18 102.227 175.885 102.704C175.727 102.963 175.35 103.231 174.445 103.03L174.527 102.637C174.921 102.715 175.385 102.759 175.55 102.487C175.715 102.215 175.531 101.653 175.314 101.385C174.767 100.598 173.28 99.7242 173.264 99.7163C173.142 99.6218 163.141 92.0455 151.232 104.581C147.597 108.41 144.544 113.92 141.294 119.749C135.038 131.013 128.602 142.592 117.491 142.592Z" fill="#E9A49B"/>
<path d="M120.033 138.546C118.833 138.539 117.647 138.289 116.547 137.81L116.7 137.448C126.072 141.415 134.279 127.959 144.67 110.925C150.272 101.739 157.374 99.5707 162.343 99.3661C165.617 99.2451 168.876 99.8569 171.883 101.157L171.71 101.511C168.757 100.237 165.556 99.6409 162.343 99.7675C157.472 99.9722 150.512 102.109 145.004 111.138C135.794 126.224 128.295 138.546 120.033 138.546Z" fill="#E9A49B"/>
<path d="M103.725 137.81C103.599 137.476 112.88 136.106 117.495 129.545C117.495 129.545 118.923 131.431 119.966 135.382C119.966 135.382 115.343 141.148 107.817 142.018C107.805 142.022 104.748 140.562 103.725 137.81Z" fill="#F75471"/>
<path d="M140.968 180.057L136.64 176.841L133.674 181.107C133.674 180.714 133.646 170.996 123.539 168.757C117.897 167.509 115.194 168.997 112.81 170.331C110.249 171.744 107.601 173.204 103.163 170.445C102.081 169.79 101.157 168.904 100.457 167.85C99.757 166.796 99.2986 165.601 99.1144 164.349C97.3518 154.026 110.697 137.244 111.268 136.535L114.061 138.775C110.461 143.261 96.1046 159.205 103.737 167.293C105.791 169.654 109.536 168.639 111.854 167.36C114.502 165.904 119.054 164.081 124.314 165.278C133.139 167.006 138.462 172.787 140.968 180.057Z" fill="#F75471"/>
<path d="M90.6155 145.741L90.0293 147.256L76.6249 181.981C76.6249 181.981 46.3029 178.636 25.8483 166.018C25.5375 165.447 35.035 127.841 35.035 127.841C35.035 127.841 68.41 133.627 90.6155 145.741Z" fill="white"/>
<path d="M53.7396 164.916C53.6324 164.879 53.5274 164.837 53.4248 164.79C46.1463 161.421 35.6101 128.675 35.7754 128.624C35.9406 128.573 46.6578 160.358 53.6884 163.613C60.7191 166.868 89.428 145.78 89.5342 145.902C89.6405 146.024 61.5099 167.592 53.7396 164.916Z" fill="#CED0D1"/>
<path d="M26.4982 165.14C26.4392 164.983 46.8309 157.044 54.8923 159.752L54.9671 159.776C63.0207 162.558 75.9962 181.068 75.8585 181.166C75.7208 181.265 62.6273 163.365 54.7625 160.645C54.7389 160.645 54.7153 160.645 54.6956 160.645C46.8545 158.008 26.5336 165.231 26.4982 165.14Z" fill="#CED0D1"/>
<g style="mix-blend-mode:multiply" opacity="0.1">
<path d="M90.0335 147.24L76.6292 181.965C76.6292 181.965 46.3072 178.62 25.8525 166.002C34.1422 171.118 61.3128 174.228 68.5323 172.299C75.205 170.178 89.6952 148.023 90.0335 147.24Z" fill="#E9A49B"/>
</g>
<path d="M51.7328 166.931C50.6784 166.4 49.1637 163.66 48.3808 160.724C47.4916 157.359 47.5939 153.746 50.4463 152.912C55.018 152.038 55.4272 157.241 55.4272 157.241C55.4272 157.241 60.0461 154.486 62.509 158.383C62.6102 158.538 62.7022 158.7 62.7844 158.867C64.6454 162.511 54.8882 167.691 51.7328 166.931Z" fill="#FFBBD2"/>
<g style="mix-blend-mode:multiply" opacity="0.2">
<path d="M51.7329 166.931C50.6785 166.4 49.1638 163.66 48.3809 160.724C56.7374 165.518 62.517 158.363 62.517 158.363C62.6182 158.519 62.7102 158.68 62.7924 158.847C64.6454 162.511 54.8883 167.69 51.7329 166.931Z" fill="#E9A49B"/>
</g>
<path d="M110.851 7.02961C113.475 4.88464 116.335 7.60423 116.335 7.60423C116.335 7.60423 116.815 3.68817 120.203 3.66849C123.59 3.64882 122.394 11.4731 119.121 15.3576C114.108 14.4524 108.23 9.17853 110.851 7.02961Z" fill="#EB9096"/>
<path d="M16.2964 111.579C18.7829 110.201 20.7343 112.877 20.7343 112.877C20.7343 112.877 21.7218 109.729 24.5231 110.217C27.3243 110.705 25.1604 116.99 21.8635 119.706C17.8622 118.195 13.8059 112.964 16.2964 111.579Z" fill="#EB9096"/>
<path d="M156.229 83.1152C158.845 82.0093 160.51 84.8745 160.51 84.8745C160.51 84.8745 161.82 81.8322 164.55 82.6193C167.281 83.4065 164.483 89.4203 160.919 91.7817C157.095 89.8611 153.601 84.233 156.229 83.1152Z" fill="#EB9096"/>
<path d="M161.289 48.489C163.303 46.281 168.221 44.1597 168.221 44.1597L168.615 44.3683L168.662 44.4076L169.055 44.6202C169.055 44.6202 169.842 49.9177 169.055 52.7986C168.268 55.6796 165.625 54.6602 165.286 53.6448C165.211 53.3673 165.076 53.1096 164.89 52.89C164.705 52.6704 164.473 52.4941 164.212 52.3736C163.972 52.222 163.703 52.1236 163.422 52.0849C163.141 52.0462 162.855 52.0682 162.583 52.1492C161.525 52.3893 159.271 50.7009 161.289 48.489Z" fill="#FFBBD2"/>
<g style="mix-blend-mode:color-burn">
<path d="M168.897 44.5489C168.72 45.2416 168.299 46.8119 167.67 48.8782C166.816 51.7001 163.983 51.4049 164.562 49.2127C165.022 47.4771 167.442 45.1747 168.441 44.2812" fill="#FFBBD2"/>
</g>
<path d="M177.971 41.8413C175.346 43.2739 170 43.6951 170 43.6951L169.704 43.3723L169.673 43.3212L169.382 42.9945C169.382 42.9945 170.342 37.7246 172.038 35.2608C173.733 32.797 175.889 34.6153 175.877 35.6858C175.859 35.9726 175.903 36.26 176.007 36.5279C176.111 36.7958 176.272 37.0377 176.479 37.2365C176.656 37.4591 176.878 37.6409 177.132 37.7693C177.385 37.8977 177.663 37.9697 177.947 37.9804C179.013 38.0788 180.595 40.4087 177.971 41.8413Z" fill="#FFBBD2"/>
<g style="mix-blend-mode:color-burn">
<path d="M169.491 43.0966C169.885 42.4983 170.793 41.1287 172.056 39.397C173.784 37.008 176.365 38.2162 175.106 40.0936C174.106 41.5852 171.073 42.9746 169.837 43.498" fill="#FFBBD2"/>
</g>
<path d="M172.886 51.8736C170.797 49.7326 168.952 44.6988 168.952 44.6988L169.184 44.3327L169.228 44.2855L169.46 43.9156C169.46 43.9156 174.791 43.4197 177.62 44.3878C180.448 45.356 179.284 47.93 178.249 48.2016C177.968 48.2609 177.703 48.3812 177.473 48.5539C177.244 48.7266 177.054 48.9476 176.919 49.2013C176.753 49.4313 176.638 49.6946 176.583 49.9732C176.528 50.2517 176.534 50.5389 176.601 50.8149C176.793 51.8618 174.976 54.0147 172.886 51.8736Z" fill="#FFBBD2"/>
<g style="mix-blend-mode:color-burn">
<path d="M169.393 44.0454C170.073 44.2658 171.62 44.7775 173.646 45.5213C176.4 46.5367 175.955 49.3468 173.795 48.6463C172.092 48.0835 169.936 45.5371 169.098 44.4862" fill="#FFBBD2"/>
</g>
<path d="M161.524 37.9488C164.204 39.2791 167.599 43.4195 167.599 43.4195L167.501 43.8446L167.477 43.9036L167.379 44.3286C167.379 44.3286 162.512 46.5641 159.51 46.5838C156.508 46.6035 156.756 43.8013 157.657 43.1952C157.902 43.0463 158.112 42.8455 158.272 42.6069C158.432 42.3682 158.537 42.0975 158.581 41.8137C158.662 41.542 158.683 41.2561 158.643 40.9756C158.603 40.6951 158.503 40.4265 158.349 40.1882C157.842 39.2555 158.845 36.6107 161.524 37.9488Z" fill="#FFBBD2"/>
<g style="mix-blend-mode:color-burn">
<path d="M167.41 44.179C166.694 44.1987 165.069 44.2302 162.909 44.179C159.966 44.1357 159.467 41.3335 161.729 41.2823C163.523 41.2469 166.403 42.9392 167.54 43.6437" fill="#FFBBD2"/>
</g>
<path d="M170.83 34.6861C170.916 37.6773 168.863 42.6205 168.863 42.6205L168.442 42.7347H168.379L167.958 42.8449C167.958 42.8449 163.697 39.6018 162.273 36.9688C160.848 34.3358 163.453 33.2456 164.393 33.7376C164.64 33.8846 164.915 33.976 165.201 34.0052C165.486 34.0345 165.774 34.0009 166.046 33.9068C166.324 33.8505 166.588 33.7345 166.817 33.5667C167.047 33.3989 167.237 33.1832 167.375 32.9347C167.946 32.0491 170.743 31.6949 170.83 34.6861Z" fill="#FFBBD2"/>
<g style="mix-blend-mode:color-burn">
<path d="M168.099 42.8136C167.744 42.1918 166.954 40.767 165.97 38.8464C164.624 36.2252 166.859 34.4659 167.973 36.4456C168.846 38.0199 168.708 41.3495 168.614 42.6877" fill="#FFBBD2"/>
</g>
<path d="M165.439 44.0295C165.442 44.7321 165.674 45.4146 166.101 45.9726C166.528 46.5306 167.126 46.9333 167.803 47.1192C168.481 47.3051 169.2 47.2639 169.852 47.0019C170.504 46.74 171.052 46.2717 171.412 45.6687C171.773 45.0656 171.926 44.3611 171.848 43.6628C171.771 42.9644 171.467 42.3108 170.982 41.8017C170.498 41.2927 169.861 40.9563 169.167 40.8441C168.474 40.7318 167.763 40.8498 167.143 41.18C166.628 41.456 166.197 41.8669 165.897 42.3688C165.597 42.8707 165.439 43.4447 165.439 44.0295Z" fill="#F1DFC1"/>
<path d="M21.0689 156.749C21.5921 153.97 24.4917 149.814 24.4917 149.814L24.8852 149.795H24.9442L25.3573 149.775C25.3573 149.775 28.6385 153.636 29.4254 156.352C30.2123 159.067 27.592 159.559 26.813 158.91C26.6147 158.724 26.378 158.584 26.1197 158.5C25.8613 158.415 25.5877 158.389 25.318 158.422C25.0494 158.419 24.7833 158.474 24.5376 158.582C24.292 158.691 24.0724 158.851 23.8937 159.051C23.1973 159.768 20.5456 159.532 21.0689 156.749Z" fill="#FFBBD2"/>
<g style="mix-blend-mode:color-burn">
<path d="M25.2152 149.791C25.4159 150.44 25.8604 151.912 26.3955 153.888C27.1116 156.58 24.688 157.753 24.0585 155.702C23.5667 154.077 24.3693 151.018 24.7273 149.798" fill="#FFBBD2"/>
</g>
<path d="M31.1801 143.1C29.7834 145.56 25.672 148.547 25.672 148.547L25.2786 148.429L25.2274 148.405L24.834 148.287C24.834 148.287 22.9849 143.564 23.1226 140.746C23.2603 137.928 25.9002 138.306 26.4235 139.172C26.5524 139.413 26.7327 139.623 26.9516 139.787C27.1705 139.951 27.4227 140.065 27.6903 140.12C27.9436 140.209 28.2126 140.242 28.4797 140.219C28.7468 140.196 29.0061 140.117 29.2405 139.987C30.1454 139.55 32.5768 140.64 31.1801 143.1Z" fill="#FFBBD2"/>
<g style="mix-blend-mode:color-burn">
<path d="M24.9834 148.326C24.9834 147.65 25.0621 146.111 25.2077 144.076C25.4083 141.293 28.0797 140.971 28.0089 143.119C27.946 144.816 26.1952 147.449 25.4634 148.48" fill="#FFBBD2"/>
</g>
<path d="M32.0802 153.699C29.3262 153.014 25.3564 149.881 25.3564 149.881V149.468V149.409V149.015C25.3564 149.015 29.397 145.957 32.155 145.331C34.913 144.706 35.2513 147.346 34.5589 148.086C34.3621 148.274 34.2087 148.502 34.1095 148.755C34.0103 149.008 33.9676 149.279 33.9845 149.551C33.9647 149.818 34.0034 150.087 34.0978 150.339C34.1922 150.59 34.3402 150.818 34.5313 151.007C35.2159 151.747 34.8264 154.38 32.0802 153.699Z" fill="#FFBBD2"/>
<g style="mix-blend-mode:color-burn">
<path d="M25.3761 149.141C26.0331 148.976 27.5282 148.618 29.5308 148.209C32.2573 147.654 33.292 150.141 31.2068 150.649C29.5583 151.042 26.5525 150.07 25.3604 149.641" fill="#FFBBD2"/>
</g>
<path d="M16.0124 148.154C18.8294 147.89 23.6214 149.531 23.6214 149.531L23.7552 149.925V149.984L23.889 150.377C23.889 150.377 21.0877 154.6 18.6917 156.104C16.2957 157.607 15.1036 155.23 15.5127 154.301C15.6367 154.059 15.7058 153.792 15.7153 153.52C15.7249 153.248 15.6745 152.977 15.5678 152.727C15.5004 152.47 15.3784 152.23 15.21 152.024C15.0416 151.818 14.8309 151.651 14.5921 151.534C13.7029 151.035 13.1954 148.421 16.0124 148.154Z" fill="#FFBBD2"/>
<g style="mix-blend-mode:color-burn">
<path d="M23.8501 150.236C23.2835 150.605 21.9891 151.44 20.2384 152.487C17.8463 153.919 16.0483 151.928 17.8502 150.747C19.2745 149.826 22.4298 149.751 23.7006 149.759" fill="#FFBBD2"/>
</g>
<path d="M21.875 140.908C23.4488 143.269 24.2356 148.275 24.2356 148.275L23.9563 148.575L23.9091 148.61L23.6258 148.909C23.6258 148.909 18.5859 148.421 16.1505 147.012C13.7152 145.603 15.2378 143.434 16.2489 143.36C16.5203 143.355 16.7874 143.291 17.0313 143.172C17.2753 143.053 17.4904 142.882 17.6613 142.671C17.8566 142.486 18.0099 142.262 18.111 142.012C18.2122 141.763 18.2587 141.495 18.2475 141.227C18.2475 140.211 20.317 138.546 21.875 140.908Z" fill="#FFBBD2"/>
<g style="mix-blend-mode:color-burn">
<path d="M23.7236 148.779C23.1296 148.453 21.784 147.701 20.0372 146.646C17.649 145.21 18.5736 142.679 20.4542 143.718C21.9375 144.544 23.4837 147.295 24.0738 148.421" fill="#FFBBD2"/>
</g>
<path d="M22.1853 151.098C22.5371 151.667 23.0664 152.105 23.6915 152.345C24.3167 152.584 25.0031 152.611 25.6452 152.422C26.2873 152.233 26.8494 151.838 27.2451 151.297C27.6408 150.757 27.848 150.102 27.835 149.433C27.8259 148.963 27.7085 148.502 27.4921 148.085C27.2757 147.668 26.966 147.306 26.5872 147.029C26.2084 146.751 25.7707 146.564 25.308 146.484C24.8454 146.403 24.3704 146.43 23.9199 146.562C23.4694 146.695 23.0555 146.93 22.7106 147.249C22.3657 147.568 22.0989 147.962 21.9311 148.401C21.7633 148.84 21.6989 149.311 21.743 149.779C21.7871 150.247 21.9384 150.698 22.1853 151.098Z" fill="#F1DFC1"/>
<path d="M7.28999 46.2611C9.01717 45.8321 12.1528 46.3988 12.1528 46.3988L12.2748 46.6311V46.6665L12.3928 46.8947C12.3928 46.8947 11.0473 49.7875 9.70174 50.9486C8.3562 52.1096 7.38441 50.7439 7.55359 50.126C7.60694 49.9635 7.62437 49.7914 7.60467 49.6215C7.58497 49.4516 7.52861 49.288 7.43949 49.1421C7.37401 48.9886 7.27612 48.851 7.15252 48.739C7.02892 48.6269 6.88255 48.5428 6.72344 48.4927C6.12542 48.2723 5.56281 46.694 7.28999 46.2611Z" fill="#FFBBD2"/>
<g style="mix-blend-mode:color-burn">
<path d="M12.3619 46.8162C12.0472 47.0996 11.3193 47.7411 10.3279 48.5597C8.97444 49.6736 7.66824 48.5991 8.67543 47.6978C9.4623 46.9894 11.4295 46.647 12.2163 46.5171" fill="#FFBBD2"/>
</g>
<path d="M17.7401 48.4651C15.9657 48.3077 13.1842 46.7531 13.1842 46.7531L13.1448 46.4972V46.45L13.1055 46.1942C13.1055 46.1942 15.3166 43.8957 16.969 43.2345C18.6214 42.5733 19.0896 44.183 18.7316 44.7104C18.6281 44.8468 18.5556 45.004 18.5189 45.1711C18.4822 45.3383 18.4823 45.5115 18.5191 45.6786C18.5353 45.847 18.5868 46.0101 18.6701 46.1572C18.7535 46.3044 18.867 46.4323 19.0031 46.5327C19.5066 46.942 19.5263 48.6186 17.7401 48.4651Z" fill="#FFBBD2"/>
<g style="mix-blend-mode:color-burn">
<path d="M13.1367 46.2927C13.5302 46.1234 14.4233 45.7535 15.6272 45.3048C17.2678 44.6869 18.153 46.1313 16.9058 46.6548C15.9222 47.0483 13.959 46.7532 13.1721 46.6036" fill="#FFBBD2"/>
</g>
<path d="M11.9291 51.7635C11.5986 50.0121 12.3461 46.9147 12.3461 46.9147L12.5822 46.8084H12.6176L12.8536 46.7021C12.8536 46.7021 15.6627 48.2135 16.7447 49.6264C17.8266 51.0393 16.4063 51.9249 15.8004 51.7241C15.6414 51.6619 15.4707 51.635 15.3002 51.6452C15.1297 51.6554 14.9635 51.7025 14.8129 51.7832C14.6554 51.8428 14.5125 51.9355 14.3937 52.055C14.275 52.1744 14.1831 52.318 14.1244 52.4759C13.8687 53.0426 12.2595 53.511 11.9291 51.7635Z" fill="#FFBBD2"/>
<g style="mix-blend-mode:color-burn">
<path d="M12.7746 46.7295C13.0382 47.064 13.6362 47.8236 14.3955 48.8627C15.4303 50.2756 14.2814 51.5193 13.4434 50.4606C12.7824 49.6223 12.5503 47.6465 12.4795 46.8515" fill="#FFBBD2"/>
</g>
<path d="M10.8783 41.1134C11.7675 42.6562 12.0901 45.8363 12.0901 45.8363L11.9013 46.0173L11.8698 46.037L11.6809 46.2141C11.6809 46.2141 8.53345 45.7182 7.04234 44.7461C5.55122 43.7739 6.60169 42.4633 7.23906 42.4515C7.41066 42.4563 7.58123 42.4235 7.73887 42.3556C7.89652 42.2876 8.03744 42.186 8.15182 42.058C8.28132 41.9491 8.38592 41.8138 8.45855 41.661C8.53118 41.5082 8.57014 41.3416 8.5728 41.1724C8.62394 40.5466 9.98916 39.5745 10.8783 41.1134Z" fill="#FFBBD2"/>
<g style="mix-blend-mode:color-burn">
<path d="M11.7482 46.143C11.3862 45.9186 10.5679 45.3952 9.50953 44.6671C8.06562 43.6753 8.72266 42.1207 9.87935 42.8448C10.7803 43.4155 11.6537 45.2063 11.9803 45.9304" fill="#FFBBD2"/>
</g>
<path d="M16.5597 42.5617C15.6155 44.073 12.9676 45.848 12.9676 45.848L12.7237 45.7653H12.6883L12.4444 45.6788C12.4444 45.6788 11.4018 42.6679 11.5591 40.8929C11.7165 39.1179 13.365 39.4327 13.6758 39.9916C13.749 40.1458 13.8554 40.2818 13.9874 40.39C14.1194 40.4982 14.2736 40.5759 14.4391 40.6174C14.5954 40.6803 14.7633 40.7089 14.9316 40.7014C15.0999 40.694 15.2647 40.6506 15.4148 40.5741C16.005 40.3065 17.5079 41.0503 16.5597 42.5617Z" fill="#FFBBD2"/>
<g style="mix-blend-mode:color-burn">
<path d="M12.5391 45.6902C12.5666 45.2652 12.6453 44.3009 12.7869 43.0257C12.9836 41.2822 14.6715 41.1444 14.5731 42.4944C14.4905 43.5571 13.322 45.1668 12.8341 45.8004" fill="#FFBBD2"/>
</g>
<path d="M10.8195 45.419C10.61 45.7359 10.4992 46.1078 10.501 46.4877C10.5028 46.8676 10.6172 47.2385 10.8298 47.5533C11.0423 47.8682 11.3434 48.1129 11.695 48.2565C12.0466 48.4002 12.4329 48.4363 12.805 48.3603C13.1771 48.2843 13.5183 48.0997 13.7855 47.8296C14.0526 47.5596 14.2338 47.2164 14.3059 46.8434C14.3781 46.4705 14.338 46.0844 14.1909 45.7342C14.0437 45.384 13.796 45.0853 13.4791 44.8759C13.0549 44.5949 12.5365 44.4938 12.0378 44.5949C11.5391 44.696 11.1009 44.991 10.8195 45.4151V45.419Z" fill="#F1DFC1"/>
<path d="M161.32 167.005C163.047 166.573 166.183 167.143 166.183 167.143L166.305 167.371V167.407L166.423 167.639C166.423 167.639 165.078 170.528 163.728 171.693C162.379 172.858 161.415 171.484 161.58 170.87C161.634 170.708 161.652 170.536 161.633 170.366C161.614 170.196 161.558 170.033 161.47 169.886C161.402 169.735 161.303 169.6 161.18 169.489C161.057 169.379 160.911 169.296 160.754 169.245C160.164 169.017 159.593 167.434 161.32 167.005Z" fill="#FFBBD2"/>
<g style="mix-blend-mode:color-burn">
<path d="M166.391 167.556C166.073 167.844 165.349 168.485 164.357 169.3C163.004 170.418 161.698 169.339 162.705 168.442C163.492 167.734 165.459 167.391 166.246 167.261" fill="#FFBBD2"/>
</g>
<path d="M171.781 169.206C170.007 169.052 167.225 167.493 167.225 167.493L167.186 167.238V167.202L167.15 166.942C167.15 166.942 169.361 164.648 171.014 163.987C172.666 163.326 173.135 164.931 172.776 165.463C172.674 165.599 172.601 165.755 172.565 165.921C172.528 166.088 172.528 166.26 172.564 166.427C172.579 166.595 172.63 166.758 172.714 166.904C172.797 167.051 172.911 167.178 173.048 167.277C173.54 167.671 173.54 169.359 171.781 169.206Z" fill="#FFBBD2"/>
<g style="mix-blend-mode:color-burn">
<path d="M167.166 167.033C167.559 166.868 168.453 166.498 169.653 166.045C171.297 165.431 172.182 166.876 170.935 167.395C169.952 167.789 167.988 167.494 167.201 167.348" fill="#FFBBD2"/>
</g>
<path d="M165.958 172.504C165.628 170.756 166.375 167.655 166.375 167.655L166.611 167.549H166.647L166.883 167.442C166.883 167.442 169.692 168.95 170.774 170.363C171.856 171.776 170.436 172.665 169.83 172.464C169.671 172.402 169.5 172.374 169.33 172.383C169.159 172.393 168.993 172.439 168.842 172.519C168.684 172.58 168.541 172.673 168.422 172.793C168.304 172.913 168.212 173.057 168.154 173.216C167.898 173.787 166.289 174.255 165.958 172.504Z" fill="#FFBBD2"/>
<g style="mix-blend-mode:color-burn">
<path d="M166.801 167.474C167.068 167.805 167.666 168.568 168.426 169.603C169.461 171.02 168.312 172.264 167.47 171.205C166.813 170.363 166.581 168.391 166.51 167.592" fill="#FFBBD2"/>
</g>
<path d="M164.908 161.858C165.797 163.397 166.119 166.581 166.119 166.581L165.931 166.758H165.899L165.71 166.935C165.71 166.935 162.563 166.443 161.072 165.467C159.581 164.491 160.631 163.184 161.268 163.176C161.44 163.181 161.611 163.148 161.768 163.08C161.926 163.012 162.067 162.911 162.181 162.783C162.31 162.674 162.414 162.54 162.487 162.387C162.56 162.235 162.599 162.07 162.602 161.901C162.653 161.291 164.015 160.315 164.908 161.858Z" fill="#FFBBD2"/>
<g style="mix-blend-mode:color-burn">
<path d="M165.774 166.883C165.416 166.659 164.593 166.136 163.539 165.411C162.095 164.42 162.752 162.865 163.909 163.585C164.81 164.16 165.683 165.947 166.01 166.675" fill="#FFBBD2"/>
</g>
<path d="M170.597 163.306C169.653 164.813 167.005 166.588 167.005 166.588L166.761 166.506H166.725L166.481 166.423C166.481 166.423 165.439 163.408 165.596 161.637C165.754 159.866 167.402 160.173 167.713 160.732C167.787 160.886 167.894 161.022 168.025 161.131C168.157 161.239 168.311 161.318 168.476 161.362C168.633 161.425 168.8 161.453 168.969 161.446C169.137 161.438 169.302 161.395 169.452 161.318C170.034 161.047 171.537 161.795 170.597 163.306Z" fill="#FFBBD2"/>
<g style="mix-blend-mode:color-burn">
<path d="M166.568 166.435C166.596 166.01 166.675 165.041 166.816 163.766C167.013 162.023 168.701 161.889 168.602 163.235C168.52 164.302 167.351 165.911 166.863 166.541" fill="#FFBBD2"/>
</g>
<path d="M164.849 166.16C164.614 166.51 164.501 166.928 164.527 167.349C164.553 167.77 164.718 168.171 164.994 168.489C165.271 168.808 165.645 169.026 166.058 169.111C166.471 169.195 166.901 169.142 167.28 168.958C167.599 168.812 167.872 168.58 168.067 168.289C168.207 168.079 168.305 167.843 168.353 167.595C168.402 167.347 168.402 167.092 168.351 166.844C168.301 166.597 168.203 166.362 168.062 166.152C167.92 165.943 167.739 165.763 167.528 165.624C167.319 165.484 167.083 165.386 166.836 165.337C166.589 165.288 166.334 165.289 166.087 165.338C165.84 165.388 165.605 165.486 165.396 165.627C165.187 165.768 165.007 165.949 164.868 166.16H164.849Z" fill="#F1DFC1"/>
<path d="M191.366 157.831C191.366 157.831 201.308 155.545 203.929 164.164C203.929 164.152 195.714 166.805 191.366 157.831Z" fill="#EB9096"/>
<path d="M32.2734 3.94411C32.2734 3.94411 42.2116 1.66139 44.8319 10.2807C44.8319 10.2807 36.6248 12.9333 32.2734 3.94411Z" fill="#EB9096"/>
<path d="M13.2666 86.0553C13.2666 86.0553 8.03 94.8163 0 90.7349C0 90.7349 3.77697 82.9697 13.2666 86.0553Z" fill="#EB9096"/>
<path d="M174.028 11.4222C174.028 11.4222 169.701 20.6633 161.305 17.4124C161.305 17.4164 164.283 9.31267 174.028 11.4222Z" fill="#EB9096"/>
<path d="M185.804 72.2251C185.804 72.2251 192.83 73.2563 193.188 80.4114C193.188 80.4114 186.13 80.6909 185.804 72.2251Z" fill="#EB9096"/>
<path d="M8.69141 172.819C8.69141 172.819 15.7732 172.638 17.347 179.632C17.347 179.632 10.4501 181.1 8.69141 172.819Z" fill="#EB9096"/>
</svg>
