<svg width="257" height="194" viewBox="0 0 257 194" fill="none" xmlns="http://www.w3.org/2000/svg">
<rect width="257" height="194" rx="20" fill="#D9D9D9"/>
<g opacity="0.5">
<path d="M117.353 45.818C110.187 45.7801 103.21 52.6809 106.395 61.2501H94.3753C92.3641 61.2501 90.4352 62.0491 89.0131 63.4712C87.5909 64.8934 86.792 66.8222 86.792 68.8334V76.4168C86.792 77.4224 87.1915 78.3868 87.9025 79.0979C88.6136 79.809 89.578 80.2084 90.5837 80.2084H124.709V68.8334H132.292V80.2084H166.417C167.423 80.2084 168.387 79.809 169.098 79.0979C169.809 78.3868 170.209 77.4224 170.209 76.4168V68.8334C170.209 66.8222 169.41 64.8934 167.988 63.4712C166.565 62.0491 164.637 61.2501 162.625 61.2501H150.606C155.042 48.8514 138.359 40.0926 130.662 50.7851L128.5 53.6668L126.339 50.7093C123.95 47.3347 120.652 45.8559 117.353 45.818ZM117.125 53.6668C120.5 53.6668 122.206 57.7618 119.817 60.1505C117.429 62.5393 113.334 60.833 113.334 57.4584C113.334 56.4528 113.733 55.4884 114.444 54.7773C115.155 54.0663 116.12 53.6668 117.125 53.6668ZM139.875 53.6668C143.25 53.6668 144.956 57.7618 142.567 60.1505C140.179 62.5393 136.084 60.833 136.084 57.4584C136.084 56.4528 136.483 55.4884 137.194 54.7773C137.905 54.0663 138.87 53.6668 139.875 53.6668ZM90.5837 84.0001V114.333C90.5837 116.345 91.3826 118.274 92.8048 119.696C94.2269 121.118 96.1558 121.917 98.167 121.917H158.834C160.845 121.917 162.774 121.118 164.196 119.696C165.618 118.274 166.417 116.345 166.417 114.333V84.0001H132.292V114.333H124.709V84.0001H90.5837Z" fill="black"/>
</g>
<path d="M90.26 151.66C89.6307 151.66 89.044 151.601 88.5 151.484C87.9667 151.356 87.5133 151.207 87.14 151.036L87.556 149.884C87.78 149.969 88.036 150.06 88.324 150.156C88.612 150.252 88.9213 150.332 89.252 150.396C89.5933 150.449 89.94 150.476 90.292 150.476C90.8573 150.476 91.3267 150.369 91.7 150.156C92.0733 149.943 92.26 149.633 92.26 149.228C92.26 148.983 92.1907 148.775 92.052 148.604C91.924 148.423 91.7213 148.257 91.444 148.108C91.1667 147.959 90.8093 147.815 90.372 147.676C89.7 147.463 89.1293 147.239 88.66 147.004C88.2013 146.759 87.8493 146.471 87.604 146.14C87.3693 145.799 87.252 145.377 87.252 144.876C87.252 144.428 87.3693 144.033 87.604 143.692C87.8493 143.34 88.2227 143.068 88.724 142.876C89.236 142.673 89.8867 142.572 90.676 142.572C91.188 142.572 91.668 142.62 92.116 142.716C92.5747 142.801 92.932 142.924 93.188 143.084V144.284C93.0067 144.199 92.7773 144.113 92.5 144.028C92.2333 143.943 91.94 143.873 91.62 143.82C91.3 143.767 90.9693 143.74 90.628 143.74C89.9133 143.74 89.4067 143.852 89.108 144.076C88.82 144.289 88.676 144.535 88.676 144.812C88.676 145.047 88.74 145.244 88.868 145.404C89.0067 145.564 89.236 145.719 89.556 145.868C89.8867 146.017 90.3293 146.188 90.884 146.38C91.396 146.551 91.8653 146.748 92.292 146.972C92.7187 147.196 93.0547 147.479 93.3 147.82C93.556 148.151 93.684 148.577 93.684 149.1C93.684 149.548 93.572 149.969 93.348 150.364C93.1347 150.748 92.7773 151.063 92.276 151.308C91.7747 151.543 91.1027 151.66 90.26 151.66ZM90.8085 155.74C90.1258 155.74 89.6085 155.601 89.2565 155.324C88.8938 155.057 88.7125 154.673 88.7125 154.172V153.9C88.7125 153.719 88.6698 153.607 88.5845 153.564C88.4885 153.532 88.3605 153.537 88.2005 153.58L88.1045 152.62C88.2538 152.577 88.4032 152.551 88.5525 152.54C88.6912 152.529 88.7978 152.524 88.8725 152.524C89.2565 152.524 89.5338 152.609 89.7045 152.78C89.8645 152.951 89.9445 153.191 89.9445 153.5V154.044C89.9445 154.247 90.0085 154.417 90.1365 154.556C90.2645 154.695 90.4832 154.764 90.7925 154.764C91.1125 154.764 91.3365 154.695 91.4645 154.556C91.5818 154.417 91.6405 154.247 91.6405 154.044V152.572H92.8885V154.124C92.8885 154.647 92.7125 155.047 92.3605 155.324C92.0085 155.601 91.4912 155.74 90.8085 155.74ZM99.1285 151.66C97.8698 151.66 96.9685 151.372 96.4245 150.796C95.8805 150.22 95.6085 149.399 95.6085 148.332V142.732H97.0325V148.348C97.0325 149.063 97.2032 149.596 97.5445 149.948C97.8858 150.3 98.4138 150.476 99.1285 150.476C99.8538 150.476 100.387 150.3 100.729 149.948C101.081 149.596 101.257 149.063 101.257 148.348V139.58H102.681V148.332C102.681 149.399 102.403 150.22 101.849 150.796C101.305 151.372 100.398 151.66 99.1285 151.66ZM108.384 151.66C107.381 151.66 106.603 151.42 106.048 150.94C105.504 150.449 105.232 149.719 105.232 148.748V147.772C105.232 147.239 105.307 146.817 105.456 146.508C105.605 146.199 105.765 145.932 105.936 145.708C106.117 145.463 106.272 145.249 106.4 145.068C106.539 144.887 106.608 144.668 106.608 144.412C106.608 144.188 106.549 144.028 106.432 143.932C106.325 143.836 106.187 143.788 106.016 143.788C105.888 143.788 105.749 143.809 105.6 143.852C105.461 143.895 105.323 143.948 105.184 144.012L104.864 142.988C105.056 142.86 105.291 142.769 105.568 142.716C105.856 142.663 106.107 142.636 106.32 142.636C106.715 142.636 107.029 142.705 107.264 142.844C107.509 142.983 107.685 143.175 107.792 143.42C107.899 143.655 107.952 143.932 107.952 144.252C107.952 144.647 107.883 144.972 107.744 145.228C107.616 145.484 107.461 145.735 107.28 145.98C107.099 146.247 106.949 146.503 106.832 146.748C106.715 146.993 106.656 147.313 106.656 147.708V148.652C106.656 149.143 106.736 149.521 106.896 149.788C107.056 150.055 107.269 150.241 107.536 150.348C107.803 150.444 108.085 150.492 108.384 150.492C108.917 150.492 109.323 150.369 109.6 150.124C109.888 149.868 110.032 149.479 110.032 148.956V142.732H111.456V149.036C111.456 149.857 111.195 150.503 110.672 150.972C110.16 151.431 109.397 151.66 108.384 151.66ZM117.15 151.66C115.998 151.66 115.134 151.361 114.558 150.764C113.993 150.156 113.71 149.207 113.71 147.916C113.71 147.703 113.715 147.473 113.726 147.228C113.747 146.972 113.769 146.721 113.79 146.476H117.15V147.596H115.134V147.916C115.134 148.588 115.209 149.116 115.358 149.5C115.507 149.873 115.726 150.135 116.014 150.284C116.313 150.433 116.681 150.508 117.118 150.508C117.598 150.508 118.014 150.417 118.366 150.236C118.718 150.055 118.99 149.724 119.182 149.244C119.374 148.764 119.47 148.076 119.47 147.18C119.47 146.391 119.385 145.745 119.214 145.244C119.043 144.743 118.761 144.369 118.366 144.124C117.982 143.879 117.459 143.756 116.798 143.756C116.457 143.756 116.126 143.788 115.806 143.852C115.486 143.905 115.177 143.991 114.878 144.108C114.579 144.215 114.286 144.353 113.998 144.524V143.196C114.211 143.079 114.473 142.977 114.782 142.892C115.091 142.796 115.433 142.721 115.806 142.668C116.179 142.604 116.569 142.572 116.974 142.572C117.913 142.572 118.67 142.764 119.246 143.148C119.833 143.521 120.259 144.055 120.526 144.748C120.793 145.431 120.926 146.241 120.926 147.18C120.926 148.119 120.803 148.924 120.558 149.596C120.313 150.268 119.913 150.78 119.358 151.132C118.814 151.484 118.078 151.66 117.15 151.66ZM124.674 151.5L121.938 142.732H123.378L125.746 150.268H125.938C126.194 150.268 126.444 150.209 126.69 150.092C126.935 149.964 127.143 149.804 127.314 149.612C127.634 149.26 127.868 148.817 128.018 148.284C128.167 147.74 128.242 147.207 128.242 146.684C128.242 145.799 128.039 145.105 127.634 144.604C127.239 144.092 126.69 143.836 125.986 143.836C125.847 143.836 125.708 143.847 125.57 143.868C125.442 143.889 125.335 143.916 125.25 143.948L124.898 142.812C125.122 142.748 125.33 142.705 125.522 142.684C125.724 142.663 125.906 142.652 126.066 142.652C126.599 142.652 127.074 142.732 127.49 142.892C127.916 143.041 128.279 143.265 128.578 143.564C128.951 143.927 129.223 144.38 129.394 144.924C129.575 145.468 129.666 146.071 129.666 146.732C129.666 147.564 129.538 148.305 129.282 148.956C129.026 149.596 128.706 150.108 128.322 150.492C128.012 150.801 127.634 151.047 127.186 151.228C126.738 151.409 126.167 151.5 125.474 151.5H124.674ZM134.291 151.66C133.662 151.66 133.075 151.601 132.531 151.484C131.998 151.356 131.545 151.207 131.171 151.036L131.587 149.884C131.811 149.969 132.067 150.06 132.355 150.156C132.643 150.252 132.953 150.332 133.283 150.396C133.625 150.449 133.971 150.476 134.323 150.476C134.889 150.476 135.358 150.369 135.731 150.156C136.105 149.943 136.291 149.633 136.291 149.228C136.291 148.983 136.222 148.775 136.083 148.604C135.955 148.423 135.753 148.257 135.475 148.108C135.198 147.959 134.841 147.815 134.403 147.676C133.731 147.463 133.161 147.239 132.691 147.004C132.233 146.759 131.881 146.471 131.635 146.14C131.401 145.799 131.283 145.377 131.283 144.876C131.283 144.428 131.401 144.033 131.635 143.692C131.881 143.34 132.254 143.068 132.755 142.876C133.267 142.673 133.918 142.572 134.707 142.572C135.219 142.572 135.699 142.62 136.147 142.716C136.606 142.801 136.963 142.924 137.219 143.084V144.284C137.038 144.199 136.809 144.113 136.531 144.028C136.265 143.943 135.971 143.873 135.651 143.82C135.331 143.767 135.001 143.74 134.659 143.74C133.945 143.74 133.438 143.852 133.139 144.076C132.851 144.289 132.707 144.535 132.707 144.812C132.707 145.047 132.771 145.244 132.899 145.404C133.038 145.564 133.267 145.719 133.587 145.868C133.918 146.017 134.361 146.188 134.915 146.38C135.427 146.551 135.897 146.748 136.323 146.972C136.75 147.196 137.086 147.479 137.331 147.82C137.587 148.151 137.715 148.577 137.715 149.1C137.715 149.548 137.603 149.969 137.379 150.364C137.166 150.748 136.809 151.063 136.307 151.308C135.806 151.543 135.134 151.66 134.291 151.66ZM142.12 151.5V145.276C142.12 144.753 141.997 144.369 141.752 144.124C141.517 143.879 141.117 143.756 140.552 143.756C140.168 143.756 139.805 143.809 139.464 143.916C139.133 144.012 138.813 144.151 138.504 144.332V143.052C138.717 142.945 139.021 142.839 139.416 142.732C139.81 142.625 140.28 142.572 140.824 142.572C141.378 142.572 141.858 142.652 142.264 142.812C142.669 142.972 142.984 143.239 143.208 143.612C143.432 143.975 143.544 144.46 143.544 145.068V151.5H142.12ZM147.58 151.5L144.844 142.732H146.284L148.652 150.268H148.844C149.1 150.268 149.35 150.209 149.596 150.092C149.841 149.964 150.049 149.804 150.22 149.612C150.54 149.26 150.774 148.817 150.924 148.284C151.073 147.74 151.148 147.207 151.148 146.684C151.148 145.799 150.945 145.105 150.54 144.604C150.145 144.092 149.596 143.836 148.892 143.836C148.753 143.836 148.614 143.847 148.476 143.868C148.348 143.889 148.241 143.916 148.156 143.948L147.804 142.812C148.028 142.748 148.236 142.705 148.428 142.684C148.63 142.663 148.812 142.652 148.972 142.652C149.505 142.652 149.98 142.732 150.396 142.892C150.822 143.041 151.185 143.265 151.484 143.564C151.857 143.927 152.129 144.38 152.3 144.924C152.481 145.468 152.572 146.071 152.572 146.732C152.572 147.564 152.444 148.305 152.188 148.956C151.932 149.596 151.612 150.108 151.228 150.492C150.918 150.801 150.54 151.047 150.092 151.228C149.644 151.409 149.073 151.5 148.38 151.5H147.58ZM156.494 151.66C156.078 151.66 155.672 151.617 155.278 151.532C154.894 151.447 154.483 151.287 154.046 151.052L154.493 149.964C154.728 150.103 154.995 150.225 155.294 150.332C155.592 150.428 155.939 150.476 156.334 150.476C157.123 150.476 157.736 150.188 158.174 149.612C158.622 149.025 158.846 148.183 158.846 147.084C158.846 146.007 158.616 145.185 158.158 144.62C157.71 144.044 157.016 143.756 156.078 143.756C155.736 143.756 155.39 143.793 155.038 143.868C154.686 143.943 154.376 144.055 154.11 144.204V143.004C154.419 142.844 154.755 142.732 155.118 142.668C155.491 142.604 155.864 142.572 156.238 142.572C157.198 142.572 157.976 142.764 158.574 143.148C159.171 143.521 159.608 144.044 159.886 144.716C160.163 145.388 160.302 146.177 160.302 147.084C160.302 148.492 159.982 149.607 159.342 150.428C158.712 151.249 157.763 151.66 156.494 151.66ZM158.013 141.34C157.565 141.34 157.207 141.276 156.941 141.148C156.674 141.02 156.482 140.855 156.365 140.652C156.237 140.449 156.173 140.236 156.173 140.012C156.173 139.852 156.199 139.681 156.253 139.5C156.295 139.308 156.354 139.153 156.429 139.036L157.629 139.244C157.607 139.287 157.586 139.361 157.565 139.468C157.543 139.564 157.533 139.655 157.533 139.74C157.533 139.879 157.575 140.001 157.661 140.108C157.746 140.204 157.89 140.252 158.093 140.252H162.141V141.34H158.013ZM167.745 151.5V145.66C167.745 144.967 167.585 144.476 167.265 144.188C166.955 143.889 166.433 143.74 165.697 143.74C165.163 143.74 164.651 143.815 164.161 143.964C163.681 144.103 163.222 144.3 162.785 144.556V143.228C163.094 143.068 163.51 142.919 164.033 142.78C164.566 142.641 165.163 142.572 165.825 142.572C166.39 142.572 166.881 142.636 167.297 142.764C167.713 142.881 168.054 143.063 168.321 143.308C168.598 143.553 168.806 143.868 168.945 144.252C169.083 144.625 169.153 145.068 169.153 145.58V151.5H167.745ZM164.993 151.66C164.054 151.66 163.334 151.447 162.833 151.02C162.342 150.583 162.097 149.959 162.097 149.148C162.097 148.263 162.417 147.58 163.057 147.1C163.707 146.62 164.758 146.337 166.209 146.252L168.033 146.14V147.324L166.401 147.436C165.313 147.511 164.561 147.681 164.145 147.948C163.739 148.215 163.537 148.604 163.537 149.116C163.537 149.596 163.686 149.948 163.985 150.172C164.294 150.396 164.721 150.508 165.265 150.508C165.446 150.508 165.611 150.497 165.761 150.476C165.91 150.444 166.054 150.407 166.193 150.364L166.417 151.436C166.214 151.511 165.99 151.564 165.745 151.596C165.51 151.639 165.259 151.66 164.993 151.66Z" fill="black"/>
</svg>
