<svg width="108" height="30" viewBox="0 0 108 30" fill="none" xmlns="http://www.w3.org/2000/svg">
<g id="Group 59">
<g id="CU">
<path id="Vector" d="M29.4282 29.2853C26.6955 29.2853 24.8062 27.1261 24.8062 24.5283C24.8062 17.8483 34.5563 8.84029 34.5563 4.5556C34.5563 3.67842 34.0165 2.96993 33.0044 2.96993C31.9248 2.96993 30.2717 3.88085 28.8547 5.23035L28.5173 4.8255C30.609 2.96993 32.802 1.75537 34.5563 1.75537C36.6818 1.75537 37.4915 3.30731 37.4915 4.48812C37.4915 9.00898 27.8088 18.4893 27.8088 24.1235C27.8088 26.6538 29.3607 27.6322 31.0476 27.6322C34.6238 27.6322 39.6845 22.5378 44.8801 15.824C47.4104 11.3369 50.3793 6.3437 52.6735 2.39639C52.8422 2.12649 53.0446 2.02527 53.3145 2.02527H55.0689C55.4737 2.02527 55.6424 2.29517 55.4063 2.66629C50.2444 11.4381 46.6682 17.7133 45.15 20.9184C44.1716 22.9089 43.4294 24.697 43.4294 25.7091C43.4294 26.7213 44.0029 27.0924 44.6777 27.0924C45.3187 27.0924 46.2296 26.7887 47.6128 25.5067L47.8827 25.8441C45.4536 28.0708 43.4294 29.2853 42.2823 29.2853C40.899 29.2853 40.1568 28.0708 40.1568 26.8225C40.1568 25.7091 40.5954 23.921 41.8437 21.4582C42.316 20.5135 42.8558 19.4677 43.4631 18.4218C37.0867 26.3502 32.5321 29.2853 29.4282 29.2853Z" fill="url(#paint0_linear_1338_21619)"/>
<path id="Vector_2" d="M9.30747 29.2853C3.77449 29.2853 0.164551 25.5742 0.164551 20.4461C0.164551 10.6284 10.3196 1.75537 20.3734 1.75537C24.3207 1.75537 27.7957 2.80124 27.7957 3.54347C27.7957 4.35317 26.6487 5.63521 25.1979 5.63521C23.6797 5.63521 19.9011 4.21822 16.5273 2.70003C9.30747 4.31944 3.03226 10.7633 2.89731 18.5567C2.79609 23.4825 5.89996 27.2273 11.298 27.2273C13.8958 27.2273 16.5273 26.2827 18.7203 24.1235L19.0239 24.4271C15.6839 27.9021 12.4451 29.2853 9.30747 29.2853Z" fill="url(#paint1_linear_1338_21619)"/>
</g>
<g id="108">
<path id="Vector_3" d="M90.9328 29.2463C87.4533 29.2463 84.5273 27.467 84.5273 24.3038C84.5273 19.7567 89.3512 16.6331 94.3727 14.498C92.8307 13.1536 91.5654 11.572 91.5654 9.23919C91.5654 4.53398 96.5869 0.342773 102.202 0.342773C106.116 0.342773 107.777 2.43838 107.777 4.53398C107.777 8.52748 104.02 11.6907 98.4058 13.549C100.66 15.2492 103.032 16.8703 103.032 19.7172C103.032 24.7387 97.101 29.2463 90.9328 29.2463ZM87.5324 23.8293C87.5324 26.4785 89.3116 28.5741 92.5144 28.5741C95.8752 28.5741 99.9083 25.8854 99.9083 21.2988C99.9083 18.3729 97.101 16.7913 94.7681 14.8143C90.4583 16.8308 87.5324 19.7567 87.5324 23.8293ZM94.4123 7.65761C94.4123 10.1881 96.1125 11.7697 98.0104 13.2327C102.004 11.6907 104.93 8.17162 104.93 4.88983C104.93 2.59653 103.585 1.01495 100.936 1.01495C97.0614 1.01495 94.4123 4.21766 94.4123 7.65761Z" fill="url(#paint2_linear_1338_21619)"/>
<path id="Vector_4" d="M67.3128 29.2858C64.7032 29.2858 63.1611 27.467 63.1611 24.541C63.1611 16.1982 73.7578 0.342773 82.0215 0.342773C84.9475 0.342773 86.0941 2.43838 86.0941 4.61305C86.0941 13.4699 74.9044 29.2858 67.3128 29.2858ZM66.4429 23.1572C66.4429 25.7668 67.471 27.5856 69.7247 27.5856C75.458 27.5856 82.7728 13.3118 82.7728 6.03648C82.7728 3.18963 81.7448 1.72666 79.5305 1.72666C73.995 1.72666 66.4429 15.6051 66.4429 23.1572Z" fill="url(#paint3_linear_1338_21619)"/>
<path id="Vector_5" d="M51.4728 28.9694C50.9983 28.9694 50.8401 28.6531 50.9983 28.2577L62.6625 3.34775L58.3526 5.24565L58.1945 4.81072C60.6459 3.62453 65.1535 1.72663 67.0118 0.224119C67.7235 -0.329436 68.0794 0.26366 67.4468 0.698595C66.8141 1.09399 66.3001 1.52893 65.8652 2.47788L54.0033 28.5345C53.8451 28.8508 53.6079 28.9694 53.2916 28.9694H51.4728Z" fill="url(#paint4_linear_1338_21619)"/>
</g>
</g>
<defs>
<linearGradient id="paint0_linear_1338_21619" x1="40.1602" y1="1.75537" x2="40.1602" y2="29.2853" gradientUnits="userSpaceOnUse">
<stop stop-color="#E9A49B"/>
<stop offset="0.43" stop-color="#FFBBD2"/>
<stop offset="1" stop-color="#F1DFC1"/>
</linearGradient>
<linearGradient id="paint1_linear_1338_21619" x1="13.9801" y1="1.75537" x2="13.9801" y2="29.2853" gradientUnits="userSpaceOnUse">
<stop stop-color="#E9A49B"/>
<stop offset="0.43" stop-color="#FFBBD2"/>
<stop offset="1" stop-color="#F1DFC1"/>
</linearGradient>
<linearGradient id="paint2_linear_1338_21619" x1="96.152" y1="0.342773" x2="96.152" y2="29.2463" gradientUnits="userSpaceOnUse">
<stop stop-color="#E9A49B"/>
<stop offset="0.43" stop-color="#FFBBD2"/>
<stop offset="1" stop-color="#F1DFC1"/>
</linearGradient>
<linearGradient id="paint3_linear_1338_21619" x1="74.6276" y1="0.342773" x2="74.6276" y2="29.2858" gradientUnits="userSpaceOnUse">
<stop stop-color="#E9A49B"/>
<stop offset="0.43" stop-color="#FFBBD2"/>
<stop offset="1" stop-color="#F1DFC1"/>
</linearGradient>
<linearGradient id="paint4_linear_1338_21619" x1="59.3571" y1="0" x2="59.3571" y2="28.9694" gradientUnits="userSpaceOnUse">
<stop stop-color="#E9A49B"/>
<stop offset="0.43" stop-color="#FFBBD2"/>
<stop offset="1" stop-color="#F1DFC1"/>
</linearGradient>
</defs>
</svg>
