<svg width="33" height="33" viewBox="0 0 33 33" fill="none" xmlns="http://www.w3.org/2000/svg">
<g id="f7:sparkles">
<path id="Vector" d="M15.7267 7.4605C15.8917 7.4605 15.9748 7.36386 16.0166 7.21182C16.4444 4.90536 16.4173 4.84996 18.8204 4.39445C18.9854 4.36675 19.0827 4.2707 19.0827 4.10452C19.0827 3.93893 18.986 3.84228 18.8199 3.81459C16.4309 3.33137 16.4998 3.27598 16.0166 0.996624C15.9754 0.845178 15.8923 0.748535 15.7267 0.748535C15.5605 0.748535 15.478 0.845178 15.4362 0.996624C14.953 3.27598 15.0355 3.33079 12.6329 3.81459C12.4809 3.8417 12.3701 3.93834 12.3701 4.10452C12.3701 4.27011 12.4809 4.36675 12.6324 4.39445C15.036 4.87766 15.0084 4.90536 15.4362 7.21182C15.4774 7.36386 15.5611 7.4605 15.7267 7.4605ZM9.04184 16.9627C9.30407 16.9627 9.4838 16.7971 9.5115 16.5485C10.0083 12.8607 10.1326 12.8607 13.9447 12.1288C14.1934 12.0876 14.3731 11.9214 14.3731 11.6592C14.3731 11.4105 14.1934 11.2313 13.9447 11.1895C10.1326 10.665 9.99471 10.5407 9.5115 6.784C9.4838 6.53532 9.30407 6.35559 9.04184 6.35559C8.79316 6.35559 8.61342 6.53532 8.58573 6.79755C8.13021 10.4989 7.93692 10.4853 4.15253 11.1895C3.90385 11.2449 3.72412 11.4105 3.72412 11.6592C3.72412 11.9355 3.90385 12.0876 4.20734 12.1288C7.96462 12.7364 8.13021 12.833 8.58573 16.5208C8.61342 16.7971 8.79316 16.9627 9.04184 16.9627ZM18.4056 32.2523C18.765 32.2523 19.0273 31.9895 19.0962 31.6165C20.0768 24.0483 21.1405 22.9016 28.6262 22.073C29.0127 22.0318 29.2755 21.7418 29.2755 21.3824C29.2755 21.0229 29.0127 20.7471 28.6262 20.6917C21.1405 19.8632 20.0768 18.717 19.0962 11.1482C19.0273 10.7752 18.765 10.5266 18.4056 10.5266C18.0467 10.5266 17.7845 10.7752 17.7291 11.1482C16.7485 18.717 15.6713 19.8632 8.19916 20.6917C7.79844 20.7471 7.53621 21.0235 7.53621 21.3824C7.53621 21.7418 7.79844 22.0318 8.19916 22.073C15.6572 23.0536 16.6931 24.0619 17.7291 31.6165C17.7845 31.9895 18.0467 32.2523 18.4056 32.2523Z" fill="url(#paint0_linear_1335_28324)"/>
</g>
<defs>
<linearGradient id="paint0_linear_1335_28324" x1="16.4998" y1="0.748535" x2="16.4998" y2="32.2523" gradientUnits="userSpaceOnUse">
<stop stop-color="#E9A49B"/>
<stop offset="0.43" stop-color="#FFBBD2"/>
<stop offset="1" stop-color="#F1DFC1"/>
</linearGradient>
</defs>
</svg>
