<svg width="93" height="92" viewBox="0 0 93 92" fill="none" xmlns="http://www.w3.org/2000/svg">
<g id="e911_emergency">
<mask id="mask0_531_23288" style="mask-type:alpha" maskUnits="userSpaceOnUse" x="0" y="0" width="93" height="92">
<rect id="Bounding box" x="0.5" width="91.9886" height="91.9886" fill="#D9D9D9"/>
</mask>
<g mask="url(#mask0_531_23288)">
<path id="e911_emergency_2" d="M23.865 74.7409C23.0505 74.7409 22.3677 74.4653 21.8164 73.914C21.2657 73.3627 20.9904 72.6798 20.9904 71.8653C20.9904 71.0502 21.2657 70.3676 21.8164 69.8176C22.3677 69.267 23.0505 68.9916 23.865 68.9916H26.8642L34.2502 44.2333C34.6877 42.7193 35.5281 41.5164 36.7712 40.6247C38.0143 39.7329 39.3878 39.287 40.8915 39.287H52.095C53.5987 39.287 54.9722 39.7329 56.2153 40.6247C57.4584 41.5164 58.2988 42.7193 58.7364 44.2333L66.1223 68.9916H69.1215C69.936 68.9916 70.6189 69.2673 71.1702 69.8186C71.7208 70.3699 71.9961 71.0528 71.9961 71.8672C71.9961 72.6824 71.7208 73.3649 71.1702 73.9149C70.6189 74.4656 69.936 74.7409 69.1215 74.7409H23.865ZM32.923 68.9916H60.0635L53.2008 45.8843C53.1273 45.6134 52.9861 45.4045 52.7772 45.2576C52.5683 45.1101 52.3288 45.0363 52.0586 45.0363H40.928C40.6577 45.0363 40.4182 45.1101 40.2093 45.2576C40.0004 45.4045 39.8592 45.6134 39.7858 45.8843L32.923 68.9916ZM43.6186 27.5671V16.0685C43.6186 15.254 43.8943 14.5714 44.4456 14.0208C44.9968 13.4695 45.6797 13.1938 46.4942 13.1938C47.3093 13.1938 47.9919 13.4695 48.5419 14.0208C49.0926 14.5714 49.3679 15.254 49.3679 16.0685V27.5671C49.3679 28.3815 49.0923 29.0644 48.541 29.6157C47.9897 30.1664 47.3068 30.4417 46.4923 30.4417C45.6772 30.4417 44.9946 30.1664 44.4446 29.6157C43.8939 29.0644 43.6186 28.3815 43.6186 27.5671ZM63.446 33.4055L71.6282 25.2606C72.159 24.7298 72.816 24.4605 73.5992 24.4529C74.383 24.4458 75.0621 24.7295 75.6364 25.3038C76.1628 25.8301 76.426 26.4888 76.426 27.2796C76.426 28.0711 76.1609 28.7319 75.6306 29.2621L67.4858 37.5028C66.9154 38.0732 66.2481 38.3645 65.4841 38.3767C64.7201 38.3888 64.0407 38.0975 63.446 37.5028C62.8519 36.9087 62.5548 36.2258 62.5548 35.4541C62.5548 34.6824 62.8519 33.9996 63.446 33.4055ZM73.3233 51.5224H84.8218C85.6363 51.5224 86.3189 51.7981 86.8695 52.3494C87.4208 52.9007 87.6965 53.5839 87.6965 54.399C87.6965 55.2135 87.4208 55.896 86.8695 56.4467C86.3189 56.9967 85.6363 57.2717 84.8218 57.2717H73.3233C72.5088 57.2717 71.8262 56.9961 71.2756 56.4448C70.7243 55.8935 70.4486 55.2106 70.4486 54.3961C70.4486 53.581 70.7243 52.8984 71.2756 52.3484C71.8262 51.7978 72.5088 51.5224 73.3233 51.5224ZM25.5007 37.4443L17.3559 29.2621C16.8257 28.7319 16.5567 28.0749 16.5491 27.2911C16.542 26.5073 16.8257 25.8282 17.4 25.2539C17.9263 24.7276 18.5849 24.4644 19.3758 24.4644C20.1666 24.4644 20.8275 24.7298 21.3583 25.2606L29.599 33.4055C30.1688 33.9753 30.4601 34.6422 30.4729 35.4062C30.485 36.1702 30.1937 36.8496 29.599 37.4443C29.0042 38.0391 28.3214 38.3364 27.5503 38.3364C26.7786 38.3364 26.0954 38.0391 25.5007 37.4443ZM8.16468 57.2717C7.3502 57.2717 6.66763 56.9961 6.11698 56.4448C5.56569 55.8935 5.29004 55.2106 5.29004 54.3961C5.29004 53.581 5.56569 52.8984 6.11698 52.3484C6.66763 51.7978 7.3502 51.5224 8.16468 51.5224H19.6633C20.4777 51.5224 21.1603 51.7981 21.711 52.3494C22.2623 52.9007 22.5379 53.5839 22.5379 54.399C22.5379 55.2135 22.2623 55.896 21.711 56.4467C21.1603 56.9967 20.4777 57.2717 19.6633 57.2717H8.16468Z" fill="white"/>
</g>
</g>
</svg>
