<svg width="33" height="34" viewBox="0 0 33 34" fill="none" xmlns="http://www.w3.org/2000/svg">
<path d="M15.6246 0.584972C16.005 -0.10375 16.995 -0.10375 17.3754 0.584972L19.73 4.84839C19.9845 5.30918 20.5527 5.49379 21.0294 5.27058L25.4403 3.20544C26.1529 2.87183 26.9538 3.45372 26.8567 4.23449L26.2557 9.06769C26.1907 9.59007 26.5419 10.0734 27.0587 10.173L31.8411 11.095C32.6137 11.2439 32.9196 12.1854 32.3821 12.76L29.055 16.3169C28.6954 16.7013 28.6954 17.2987 29.055 17.6831L32.3821 21.24C32.9196 21.8146 32.6137 22.7561 31.8411 22.905L27.0587 23.827C26.5419 23.9266 26.1907 24.4099 26.2557 24.9323L26.8567 29.7655C26.9538 30.5463 26.1529 31.1282 25.4403 30.7946L21.0294 28.7294C20.5527 28.5062 19.9845 28.6908 19.73 29.1516L17.3754 33.415C16.995 34.1038 16.005 34.1038 15.6246 33.415L13.27 29.1516C13.0155 28.6908 12.4473 28.5062 11.9706 28.7294L7.55968 30.7946C6.84712 31.1282 6.04621 30.5463 6.1433 29.7655L6.74432 24.9323C6.80928 24.4099 6.45815 23.9266 5.94126 23.827L1.15888 22.905C0.386328 22.7561 0.0804067 21.8146 0.617878 21.24L3.945 17.6831C4.3046 17.2987 4.3046 16.7013 3.945 16.3169L0.617878 12.76C0.0804068 12.1854 0.386328 11.2439 1.15888 11.095L5.94126 10.173C6.45815 10.0734 6.80928 9.59007 6.74432 9.06769L6.1433 4.23449C6.04621 3.45372 6.84713 2.87183 7.55968 3.20544L11.9706 5.27058C12.4473 5.49379 13.0155 5.30918 13.27 4.84839L15.6246 0.584972Z" fill="#EB9096"/>
<path d="M16.6462 15.355L16.5112 15.265L15.0112 15.76L14.3812 14.41L17.0212 12.85C17.2412 12.85 17.4962 12.92 17.7862 13.06C18.0862 13.2 18.3462 13.36 18.5662 13.54C18.7862 13.72 18.8962 13.87 18.8962 13.99V22H16.6462V15.355Z" fill="#183F86"/>
</svg>
