<svg width="33" height="34" viewBox="0 0 33 34" fill="none" xmlns="http://www.w3.org/2000/svg">
<path d="M15.6246 0.584972C16.005 -0.10375 16.995 -0.10375 17.3754 0.584972L19.73 4.84839C19.9845 5.30918 20.5527 5.49379 21.0294 5.27058L25.4403 3.20544C26.1529 2.87183 26.9538 3.45372 26.8567 4.23449L26.2557 9.06769C26.1907 9.59007 26.5419 10.0734 27.0587 10.173L31.8411 11.095C32.6137 11.2439 32.9196 12.1854 32.3821 12.76L29.055 16.3169C28.6954 16.7013 28.6954 17.2987 29.055 17.6831L32.3821 21.24C32.9196 21.8146 32.6137 22.7561 31.8411 22.905L27.0587 23.827C26.5419 23.9266 26.1907 24.4099 26.2557 24.9323L26.8567 29.7655C26.9538 30.5463 26.1529 31.1282 25.4403 30.7946L21.0294 28.7294C20.5527 28.5062 19.9845 28.6908 19.73 29.1516L17.3754 33.415C16.995 34.1038 16.005 34.1038 15.6246 33.415L13.27 29.1516C13.0155 28.6908 12.4473 28.5062 11.9706 28.7294L7.55968 30.7946C6.84712 31.1282 6.04621 30.5463 6.1433 29.7655L6.74432 24.9323C6.80928 24.4099 6.45815 23.9266 5.94126 23.827L1.15888 22.905C0.386328 22.7561 0.0804067 21.8146 0.617878 21.24L3.945 17.6831C4.3046 17.2987 4.3046 16.7013 3.945 16.3169L0.617878 12.76C0.0804068 12.1854 0.386328 11.2439 1.15888 11.095L5.94126 10.173C6.45815 10.0734 6.80928 9.59007 6.74432 9.06769L6.1433 4.23449C6.04621 3.45372 6.84713 2.87183 7.55968 3.20544L11.9706 5.27058C12.4473 5.49379 13.0155 5.30918 13.27 4.84839L15.6246 0.584972Z" fill="#EB9096"/>
<path d="M13.2138 19.135C14.4338 18.635 15.3688 18.225 16.0188 17.905C16.6788 17.575 17.1938 17.225 17.5638 16.855C17.9438 16.475 18.1338 16.05 18.1338 15.58C18.1338 15.33 18.0438 15.155 17.8638 15.055C17.6938 14.945 17.3988 14.89 16.9788 14.89C16.4888 14.89 16.0588 14.945 15.6888 15.055V16.165H13.7688C13.5988 15.595 13.5138 14.955 13.5138 14.245V13.63C14.5838 13.11 15.7538 12.85 17.0238 12.85C19.2638 12.85 20.3838 13.685 20.3838 15.355C20.3838 16.105 20.2038 16.75 19.8438 17.29C19.4938 17.82 18.9588 18.3 18.2388 18.73C17.5188 19.15 16.5488 19.585 15.3288 20.035V20.095H18.5538V19.3H20.4738C20.5538 19.56 20.6138 19.865 20.6538 20.215C20.6938 20.555 20.7138 20.88 20.7138 21.19V22H13.2138V19.135Z" fill="#183F86"/>
</svg>
