<svg width="33" height="34" viewBox="0 0 33 34" fill="none" xmlns="http://www.w3.org/2000/svg">
<path d="M15.6246 0.584972C16.005 -0.10375 16.995 -0.10375 17.3754 0.584972L19.73 4.84839C19.9845 5.30918 20.5527 5.49379 21.0294 5.27058L25.4403 3.20544C26.1529 2.87183 26.9538 3.45372 26.8567 4.23449L26.2557 9.06769C26.1907 9.59007 26.5419 10.0734 27.0587 10.173L31.8411 11.095C32.6137 11.2439 32.9196 12.1854 32.3821 12.76L29.055 16.3169C28.6954 16.7013 28.6954 17.2987 29.055 17.6831L32.3821 21.24C32.9196 21.8146 32.6137 22.7561 31.8411 22.905L27.0587 23.827C26.5419 23.9266 26.1907 24.4099 26.2557 24.9323L26.8567 29.7655C26.9538 30.5463 26.1529 31.1282 25.4403 30.7946L21.0294 28.7294C20.5527 28.5062 19.9845 28.6908 19.73 29.1516L17.3754 33.415C16.995 34.1038 16.005 34.1038 15.6246 33.415L13.27 29.1516C13.0155 28.6908 12.4473 28.5062 11.9706 28.7294L7.55968 30.7946C6.84712 31.1282 6.04621 30.5463 6.1433 29.7655L6.74432 24.9323C6.80928 24.4099 6.45815 23.9266 5.94126 23.827L1.15888 22.905C0.386328 22.7561 0.0804067 21.8146 0.617878 21.24L3.945 17.6831C4.3046 17.2987 4.3046 16.7013 3.945 16.3169L0.617878 12.76C0.0804068 12.1854 0.386328 11.2439 1.15888 11.095L5.94126 10.173C6.45815 10.0734 6.80928 9.59007 6.74432 9.06769L6.1433 4.23449C6.04621 3.45372 6.84713 2.87183 7.55968 3.20544L11.9706 5.27058C12.4473 5.49379 13.0155 5.30918 13.27 4.84839L15.6246 0.584972Z" fill="#EB9096"/>
<path d="M16.3502 22.15C15.2402 22.15 14.2452 22 13.3652 21.7L13.7252 19.705C14.5852 19.955 15.4302 20.08 16.2602 20.08C16.9502 20.08 17.5302 20.04 18.0002 19.96C18.1002 19.78 18.1502 19.575 18.1502 19.345C18.1502 19.075 18.0552 18.885 17.8652 18.775C17.6752 18.665 17.3502 18.61 16.8902 18.61H15.2552V16.66H16.9802C17.3802 16.66 17.6552 16.585 17.8052 16.435C17.9652 16.285 18.0452 16.055 18.0452 15.745C18.0452 15.425 17.9502 15.205 17.7602 15.085C17.5802 14.965 17.2702 14.905 16.8302 14.905C16.3802 14.905 15.9502 14.955 15.5402 15.055V15.955H13.6502C13.4802 15.295 13.3952 14.68 13.3952 14.11V13.57C14.4452 13.09 15.6202 12.85 16.9202 12.85C17.9902 12.85 18.8152 13.075 19.3952 13.525C19.9752 13.965 20.2652 14.59 20.2652 15.4C20.2652 15.94 20.1502 16.375 19.9202 16.705C19.7002 17.035 19.3452 17.31 18.8552 17.53V17.62C19.4252 17.84 19.8202 18.095 20.0402 18.385C20.2602 18.675 20.3702 19.09 20.3702 19.63C20.3702 21.31 19.0302 22.15 16.3502 22.15Z" fill="#183F86"/>
</svg>
