<svg width="34" height="34" viewBox="0 0 34 34" fill="none" xmlns="http://www.w3.org/2000/svg">
<path d="M16.1246 0.584972C16.505 -0.10375 17.495 -0.10375 17.8754 0.584972L20.23 4.84839C20.4845 5.30918 21.0527 5.49379 21.5294 5.27058L25.9403 3.20544C26.6529 2.87183 27.4538 3.45372 27.3567 4.23449L26.7557 9.06769C26.6907 9.59007 27.0419 10.0734 27.5587 10.173L32.3411 11.095C33.1137 11.2439 33.4196 12.1854 32.8821 12.76L29.555 16.3169C29.1954 16.7013 29.1954 17.2987 29.555 17.6831L32.8821 21.24C33.4196 21.8146 33.1137 22.7561 32.3411 22.905L27.5587 23.827C27.0419 23.9266 26.6907 24.4099 26.7557 24.9323L27.3567 29.7655C27.4538 30.5463 26.6529 31.1282 25.9403 30.7946L21.5294 28.7294C21.0527 28.5062 20.4845 28.6908 20.23 29.1516L17.8754 33.415C17.495 34.1038 16.505 34.1038 16.1246 33.415L13.77 29.1516C13.5155 28.6908 12.9473 28.5062 12.4706 28.7294L8.05968 30.7946C7.34712 31.1282 6.54621 30.5463 6.6433 29.7655L7.24432 24.9323C7.30928 24.4099 6.95815 23.9266 6.44126 23.827L1.65888 22.905C0.886328 22.7561 0.580407 21.8146 1.11788 21.24L4.445 17.6831C4.8046 17.2987 4.8046 16.7013 4.445 16.3169L1.11788 12.76C0.580407 12.1854 0.886328 11.2439 1.65888 11.095L6.44126 10.173C6.95815 10.0734 7.30928 9.59007 7.24432 9.06769L6.6433 4.23449C6.54621 3.45372 7.34713 2.87183 8.05968 3.20544L12.4706 5.27058C12.9473 5.49379 13.5155 5.30918 13.77 4.84839L16.1246 0.584972Z" fill="#EB9096"/>
<path d="M17.6186 20.62H13.3136L12.8636 19.045L17.1386 12.85H19.7936V18.775H21.0536V20.62H19.7936V22H17.6186V20.62ZM17.6186 18.775V17.71L17.9036 15.01H17.7836L15.3686 18.655L15.3986 18.775H17.6186Z" fill="#183F86"/>
</svg>
