<svg width="34" height="34" viewBox="0 0 34 34" fill="none" xmlns="http://www.w3.org/2000/svg">
<path d="M16.1246 0.584972C16.505 -0.10375 17.495 -0.10375 17.8754 0.584972L20.23 4.84839C20.4845 5.30918 21.0527 5.49379 21.5294 5.27058L25.9403 3.20544C26.6529 2.87183 27.4538 3.45372 27.3567 4.23449L26.7557 9.06769C26.6907 9.59007 27.0419 10.0734 27.5587 10.173L32.3411 11.095C33.1137 11.2439 33.4196 12.1854 32.8821 12.76L29.555 16.3169C29.1954 16.7013 29.1954 17.2987 29.555 17.6831L32.8821 21.24C33.4196 21.8146 33.1137 22.7561 32.3411 22.905L27.5587 23.827C27.0419 23.9266 26.6907 24.4099 26.7557 24.9323L27.3567 29.7655C27.4538 30.5463 26.6529 31.1282 25.9403 30.7946L21.5294 28.7294C21.0527 28.5062 20.4845 28.6908 20.23 29.1516L17.8754 33.415C17.495 34.1038 16.505 34.1038 16.1246 33.415L13.77 29.1516C13.5155 28.6908 12.9473 28.5062 12.4706 28.7294L8.05968 30.7946C7.34712 31.1282 6.54621 30.5463 6.6433 29.7655L7.24432 24.9323C7.30928 24.4099 6.95815 23.9266 6.44126 23.827L1.65888 22.905C0.886328 22.7561 0.580407 21.8146 1.11788 21.24L4.445 17.6831C4.8046 17.2987 4.8046 16.7013 4.445 16.3169L1.11788 12.76C0.580407 12.1854 0.886328 11.2439 1.65888 11.095L6.44126 10.173C6.95815 10.0734 7.30928 9.59007 7.24432 9.06769L6.6433 4.23449C6.54621 3.45372 7.34713 2.87183 8.05968 3.20544L12.4706 5.27058C12.9473 5.49379 13.5155 5.30918 13.77 4.84839L16.1246 0.584972Z" fill="#EB9096"/>
<path d="M16.987 22.15C15.897 22.15 14.872 22.01 13.912 21.73L14.182 19.69C14.682 19.83 15.147 19.935 15.577 20.005C16.017 20.065 16.487 20.095 16.987 20.095C17.667 20.095 18.252 20.035 18.742 19.915C18.862 19.665 18.922 19.35 18.922 18.97C18.922 18.63 18.822 18.395 18.622 18.265C18.422 18.125 18.067 18.055 17.557 18.055C17.207 18.055 16.907 18.08 16.657 18.13C16.407 18.18 16.107 18.275 15.757 18.415L14.227 17.185L14.617 12.85H20.542V14.875H16.627L16.507 16.315C16.787 16.215 17.052 16.14 17.302 16.09C17.562 16.04 17.852 16.015 18.172 16.015C19.172 16.015 19.922 16.25 20.422 16.72C20.922 17.18 21.172 17.895 21.172 18.865C21.172 19.915 20.822 20.725 20.122 21.295C19.422 21.865 18.377 22.15 16.987 22.15Z" fill="#183F86"/>
</svg>
