<svg width="156" height="140" viewBox="0 0 156 140" fill="none" xmlns="http://www.w3.org/2000/svg">
<path d="M156 106.094C156 90.0025 144.787 76.5384 129.75 73.0659C127.288 72.4981 124.729 72.1874 122.094 72.1874C121.358 72.1874 120.63 72.2192 119.906 72.2652C103.475 73.3129 90.2306 86.0573 88.4085 102.266C88.2674 103.523 88.1876 104.799 88.1876 106.094C88.1876 108.533 88.4511 110.91 88.9399 113.203C92.2082 128.515 105.807 140 122.094 140C140.82 140 156 124.82 156 106.094ZM122.094 128.516C109.71 128.516 99.6717 118.477 99.6717 106.094C99.6717 93.7104 109.71 83.6718 122.094 83.6718C134.477 83.6718 144.516 93.7104 144.516 106.094C144.516 118.477 134.477 128.516 122.094 128.516Z" fill="#F75471"/>
<path d="M126.469 90.7815H118.813V102.813H106.781V110.469H126.469V90.7815Z" fill="#F75471"/>
<path d="M41.1562 0C39.0452 0 37.3281 1.71729 37.3281 3.82804V21.875C37.3281 23.986 39.0452 25.7031 41.1562 25.7031H44.4375C46.5485 25.7031 48.2655 23.9858 48.2655 21.875V3.82804C48.2655 1.71729 46.5485 0 44.4373 0H41.1562Z" fill="#F75471"/>
<path d="M101.312 0C99.2015 0 97.4844 1.71729 97.4844 3.82804V21.875C97.4844 23.986 99.2017 25.7031 101.312 25.7031H104.594C106.705 25.7031 108.422 23.9858 108.422 21.875V3.82804C108.422 1.71729 106.705 0 104.594 0H101.312Z" fill="#F75471"/>
<path d="M24.75 113.203H78.8907C78.357 110.549 78.0736 107.808 78.0736 105C78.0736 104.08 78.1141 103.17 78.1731 102.266H32.4063C28.7816 102.266 25.8437 99.3278 25.8437 95.7031V43.203H119.906V63.4955C120.63 63.4582 121.36 63.4376 122.094 63.4376C124.71 63.4376 127.266 63.6913 129.75 64.1562V21.328C129.75 16.4957 125.832 12.578 121 12.578H113.891V21.875C113.891 27.0015 109.72 31.172 104.594 31.172H101.312C96.186 31.172 92.0155 27.0015 92.0155 21.875V12.578H53.7344V21.875C53.7344 27.0015 49.5639 31.172 44.4374 31.172H41.1561C36.0296 31.172 31.8591 27.0015 31.8591 21.875V12.578H24.75C19.9177 12.578 16 16.496 16 21.328V104.453C16 109.285 19.9177 113.203 24.75 113.203Z" fill="#F75471"/>
<path d="M46.8307 68.2916C51.6259 68.2916 55.513 64.4044 55.513 59.6093C55.513 54.8142 51.6259 50.927 46.8307 50.927C42.0357 50.927 38.1485 54.8142 38.1485 59.6093C38.1485 64.4044 42.0357 68.2916 46.8307 68.2916Z" fill="#F75471"/>
<path d="M72.8752 68.2916C77.6703 68.2916 81.5575 64.4044 81.5575 59.6093C81.5575 54.8142 77.6703 50.927 72.8752 50.927C68.0801 50.927 64.1929 54.8142 64.1929 59.6093C64.1929 64.4044 68.0801 68.2916 72.8752 68.2916Z" fill="#F75471"/>
<path d="M98.9196 68.2916C103.715 68.2916 107.602 64.4044 107.602 59.6093C107.602 54.8142 103.715 50.927 98.9196 50.927C94.1245 50.927 90.2374 54.8142 90.2374 59.6093C90.2374 64.4044 94.1245 68.2916 98.9196 68.2916Z" fill="#F75471"/>
<path d="M72.875 94.5415C77.6699 94.5415 81.557 90.6544 81.557 85.8594C81.557 81.0644 77.6699 77.1773 72.875 77.1773C68.08 77.1773 64.1929 81.0644 64.1929 85.8594C64.1929 90.6544 68.08 94.5415 72.875 94.5415Z" fill="#F75471"/>
<path d="M46.8305 94.5415C51.6255 94.5415 55.5126 90.6544 55.5126 85.8594C55.5126 81.0644 51.6255 77.1773 46.8305 77.1773C42.0356 77.1773 38.1485 81.0644 38.1485 85.8594C38.1485 90.6544 42.0356 94.5415 46.8305 94.5415Z" fill="#F75471"/>
</svg>
