<svg width="25" height="24" viewBox="0 0 25 24" fill="none" xmlns="http://www.w3.org/2000/svg">
<mask id="mask0_967_14190" style="mask-type:alpha" maskUnits="userSpaceOnUse" x="0" y="0" width="25" height="24">
<rect x="0.5" width="24" height="24" fill="#D9D9D9"/>
</mask>
<g mask="url(#mask0_967_14190)">
<path d="M2.5 24V20H22.5V24H2.5ZM4.5 18V13.75L15.7 2.575C15.8833 2.39167 16.0958 2.25 16.3375 2.15C16.5792 2.05 16.8333 2 17.1 2C17.3667 2 17.625 2.05 17.875 2.15C18.125 2.25 18.35 2.4 18.55 2.6L19.925 4C20.125 4.18333 20.2708 4.4 20.3625 4.65C20.4542 4.9 20.5 5.15833 20.5 5.425C20.5 5.675 20.4542 5.92083 20.3625 6.1625C20.2708 6.40417 20.125 6.625 19.925 6.825L8.75 18H4.5ZM17.1 6.8L18.5 5.4L17.1 4L15.7 5.4L17.1 6.8Z" fill="#1C1B1F"/>
</g>
</svg>
