<svg width="25" height="24" viewBox="0 0 25 24" fill="none" xmlns="http://www.w3.org/2000/svg">
<mask id="mask0_3517_14672" style="mask-type:alpha" maskUnits="userSpaceOnUse" x="0" y="0" width="25" height="24">
<rect x="0.5" width="24" height="24" fill="#D9D9D9"/>
</mask>
<g mask="url(#mask0_3517_14672)">
<path d="M20.65 13H9.5C9.21667 13 8.97917 12.9042 8.7875 12.7125C8.59583 12.5208 8.5 12.2833 8.5 12C8.5 11.7167 8.59583 11.4792 8.7875 11.2875C8.97917 11.0958 9.21667 11 9.5 11H20.65L19.8 10.15C19.6 9.95 19.5042 9.71667 19.5125 9.45C19.5208 9.18333 19.6167 8.95 19.8 8.75C20 8.55 20.2375 8.44583 20.5125 8.4375C20.7875 8.42917 21.025 8.525 21.225 8.725L23.8 11.3C24 11.5 24.1 11.7333 24.1 12C24.1 12.2667 24 12.5 23.8 12.7L21.225 15.275C21.025 15.475 20.7875 15.5708 20.5125 15.5625C20.2375 15.5542 20 15.45 19.8 15.25C19.6167 15.05 19.5208 14.8167 19.5125 14.55C19.5042 14.2833 19.6 14.05 19.8 13.85L20.65 13ZM15.5 8V5H5.5V19H15.5V16C15.5 15.7167 15.5958 15.4792 15.7875 15.2875C15.9792 15.0958 16.2167 15 16.5 15C16.7833 15 17.0208 15.0958 17.2125 15.2875C17.4042 15.4792 17.5 15.7167 17.5 16V19C17.5 19.55 17.3042 20.0208 16.9125 20.4125C16.5208 20.8042 16.05 21 15.5 21H5.5C4.95 21 4.47917 20.8042 4.0875 20.4125C3.69583 20.0208 3.5 19.55 3.5 19V5C3.5 4.45 3.69583 3.97917 4.0875 3.5875C4.47917 3.19583 4.95 3 5.5 3H15.5C16.05 3 16.5208 3.19583 16.9125 3.5875C17.3042 3.97917 17.5 4.45 17.5 5V8C17.5 8.28333 17.4042 8.52083 17.2125 8.7125C17.0208 8.90417 16.7833 9 16.5 9C16.2167 9 15.9792 8.90417 15.7875 8.7125C15.5958 8.52083 15.5 8.28333 15.5 8Z" fill="#313131"/>
</g>
</svg>
