<svg width="25" height="24" viewBox="0 0 25 24" fill="none" xmlns="http://www.w3.org/2000/svg">
<path d="M3.5 10V4C3.5 3.71667 3.596 3.47933 3.788 3.288C3.98 3.09667 4.21733 3.00067 4.5 3H10.5C10.7833 3 11.021 3.096 11.213 3.288C11.405 3.48 11.5007 3.71733 11.5 4V10C11.5 10.2833 11.404 10.521 11.212 10.713C11.02 10.905 10.7827 11.0007 10.5 11H4.5C4.21667 11 3.97933 10.904 3.788 10.712C3.59667 10.52 3.50067 10.2827 3.5 10ZM5.5 9H9.5V5H5.5V9ZM3.5 20V14C3.5 13.7167 3.596 13.4793 3.788 13.288C3.98 13.0967 4.21733 13.0007 4.5 13H10.5C10.7833 13 11.021 13.096 11.213 13.288C11.405 13.48 11.5007 13.7173 11.5 14V20C11.5 20.2833 11.404 20.521 11.212 20.713C11.02 20.905 10.7827 21.0007 10.5 21H4.5C4.21667 21 3.97933 20.904 3.788 20.712C3.59667 20.52 3.50067 20.2827 3.5 20ZM5.5 19H9.5V15H5.5V19ZM13.5 10V4C13.5 3.71667 13.596 3.47933 13.788 3.288C13.98 3.09667 14.2173 3.00067 14.5 3H20.5C20.7833 3 21.021 3.096 21.213 3.288C21.405 3.48 21.5007 3.71733 21.5 4V10C21.5 10.2833 21.404 10.521 21.212 10.713C21.02 10.905 20.7827 11.0007 20.5 11H14.5C14.2167 11 13.9793 10.904 13.788 10.712C13.5967 10.52 13.5007 10.2827 13.5 10ZM15.5 9H19.5V5H15.5V9ZM19.5 21V19H21.5V21H19.5ZM13.5 15V13H15.5V15H13.5ZM15.5 17V15H17.5V17H15.5ZM13.5 19V17H15.5V19H13.5ZM15.5 21V19H17.5V21H15.5ZM17.5 19V17H19.5V19H17.5ZM17.5 15V13H19.5V15H17.5ZM19.5 17V15H21.5V17H19.5Z" fill="#313131"/>
</svg>
