<svg width="153" height="22" viewBox="0 0 153 22" fill="none" xmlns="http://www.w3.org/2000/svg">
<g id="Objects" clip-path="url(#clip0_531_23276)">
<path id="Vector" d="M81.8999 22.0002C81.2239 21.9952 80.5553 21.8603 79.9316 21.6028C78.1755 20.8804 76.4486 18.9224 77.3633 15.8229C77.7575 14.5914 78.4744 13.4847 79.4413 12.615L78.5413 12.1092C72.4901 8.67016 66.234 5.1155 59.034 4.36411C54.7389 3.90894 48.2267 4.6242 45.6438 8.06328C46.8099 8.69838 47.8116 9.59101 48.5706 10.6715C48.8838 11.1557 49.0739 11.7074 49.1248 12.2797C49.1758 12.852 49.086 13.428 48.8633 13.9588C48.683 14.3017 48.411 14.5894 48.077 14.7906C47.7429 14.9919 47.3595 15.099 46.9682 15.1004C46.5205 15.124 46.0739 15.0381 45.668 14.8503C45.2621 14.6625 44.9094 14.3786 44.6413 14.0239C44.1818 13.3783 43.8626 12.6456 43.7039 11.8722C43.5452 11.0987 43.5505 10.3012 43.7194 9.52988C43.8257 9.17653 43.9577 8.83129 44.1145 8.49676L43.6828 8.31614C39.0584 6.44488 33.7974 8.59063 29.956 10.1512C24.9835 12.258 19.6418 13.3846 14.2316 13.4675H14.1877C11.6486 13.4675 3.12425 13.0268 0.0803515 7.54302C0.0457594 7.4804 0.0239988 7.41171 0.0163092 7.34079C0.00861965 7.26986 0.0151517 7.19808 0.0355353 7.12965C0.0559189 7.06122 0.0897509 6.99749 0.135104 6.94197C0.180458 6.88645 0.236436 6.8403 0.299855 6.80615C0.363274 6.77199 0.432903 6.7505 0.504732 6.74291C0.576561 6.73532 0.649192 6.74175 0.718496 6.76187C0.787801 6.782 0.852408 6.81543 0.908636 6.86021C0.964864 6.90499 1.01162 6.96022 1.04621 7.02284C3.24133 10.9604 9.2706 12.3766 14.2169 12.3838H14.2608C19.5284 12.302 24.7287 11.2024 29.5681 9.14703C33.5852 7.51419 39.0804 5.28165 44.1291 7.31186L44.6926 7.55748C47.6194 3.33811 55.1779 2.86124 59.195 3.28751C66.6218 4.0678 73.2657 7.83926 79.134 11.17L80.0486 11.6901L80.3633 11.8708C82.7983 10.1253 85.6298 8.99651 88.6096 8.58346C91.2584 8.19331 95.6267 8.58342 96.7755 11.2567C97.0067 11.7828 97.1143 12.3538 97.0902 12.9269C97.0661 13.5 96.911 14.0603 96.6365 14.5657C96.2328 15.2485 95.6821 15.8354 95.0233 16.2848C94.3646 16.7343 93.6138 17.0354 92.8243 17.1667C89.3925 17.8386 86.2389 16.3503 83.5681 14.9053C82.5364 14.3418 81.4974 13.7638 80.4804 13.1858C79.5438 13.9618 78.8445 14.98 78.4608 16.1263C77.5682 19.1535 79.7194 20.3096 80.3999 20.5913C81.8633 21.1982 83.4291 20.9165 83.9779 19.9483C84.0504 19.826 84.1686 19.7366 84.307 19.6992C84.4455 19.6619 84.5933 19.6796 84.7187 19.7486C84.8441 19.8176 84.9371 19.9324 84.9778 20.0683C85.0185 20.2043 85.0037 20.3505 84.9365 20.4757C84.6168 20.9768 84.1657 21.3831 83.6311 21.6515C83.0965 21.9199 82.4983 22.0404 81.8999 22.0002ZM81.3657 12.4705C82.2511 12.969 83.1511 13.4747 84.0511 13.9588C86.5609 15.3171 89.495 16.7115 92.5682 16.1263C93.1984 16.0245 93.7986 15.7882 94.3269 15.4339C94.8551 15.0795 95.2987 14.6155 95.6267 14.0744C95.8256 13.7131 95.9377 13.3114 95.9542 12.9004C95.9706 12.4895 95.8912 12.0803 95.7218 11.7046C94.8731 9.72496 91.1194 9.32764 88.7267 9.67443C86.0901 10.0433 83.573 10.9994 81.3657 12.4705ZM45.0804 9.00247C44.9492 9.27233 44.8415 9.55273 44.7584 9.84059C44.64 10.4446 44.6436 11.0657 44.7692 11.6684C44.8948 12.271 45.1398 12.8431 45.4901 13.3519C45.649 13.5725 45.8618 13.7498 46.1087 13.8672C46.3556 13.9847 46.6286 14.0386 46.9023 14.0239C47.1013 14.0317 47.2986 13.9844 47.4718 13.8873C47.6451 13.7903 47.7875 13.6475 47.8828 13.4748C48.0084 13.1188 48.0525 12.7399 48.0121 12.3651C47.9716 11.9903 47.8475 11.629 47.6487 11.3073C46.9862 10.3519 46.1067 9.56255 45.0804 9.00247Z" fill="url(#paint0_linear_531_23276)"/>
<path id="Vector_2" d="M71.0999 21.9998C70.5095 22.0328 69.9208 21.9097 69.3947 21.6429C68.8686 21.3762 68.4242 20.9756 68.1073 20.4825C68.0401 20.3573 68.0252 20.2111 68.0659 20.0752C68.1066 19.9393 68.1997 19.8245 68.325 19.7555C68.4504 19.6865 68.5982 19.6688 68.7367 19.7061C68.8752 19.7434 68.9933 19.8328 69.0658 19.9551C69.6146 20.9161 71.1877 21.2051 72.6438 20.5982C73.3243 20.3164 75.4756 19.1531 74.5829 16.1331C74.1992 14.9868 73.4999 13.9687 72.5634 13.1926C71.5463 13.7706 70.5073 14.3486 69.4756 14.9121C66.7975 16.3571 63.6219 17.8455 60.2195 17.1735C59.4299 17.0422 58.6792 16.7411 58.0204 16.2917C57.3617 15.8422 56.8109 15.2554 56.4072 14.5726C56.1327 14.0671 55.9776 13.5068 55.9535 12.9337C55.9294 12.3607 56.037 11.7897 56.2682 11.2635C57.417 8.59026 61.7853 8.20015 64.4341 8.59029C67.4139 9.00335 70.2455 10.1321 72.6805 11.8776L72.9951 11.697L73.9097 11.1768C79.7634 7.84609 86.4219 4.07464 93.8487 3.29434C97.8658 2.86807 105.395 3.34494 108.351 7.56432L108.915 7.3187C113.956 5.28126 119.458 7.52102 123.476 9.15386C128.315 11.2092 133.515 12.3088 138.783 12.3906H138.827C143.744 12.3906 149.802 10.9456 151.997 7.02968C152.067 6.90321 152.185 6.80936 152.325 6.76871C152.465 6.72806 152.616 6.74391 152.744 6.8129C152.872 6.88188 152.967 6.99828 153.008 7.13648C153.049 7.27469 153.033 7.42339 152.963 7.54985C149.919 13.0336 141.395 13.4671 138.856 13.4744C133.43 13.4018 128.072 12.2749 123.088 10.1581C119.246 8.59746 113.985 6.45894 109.361 8.32297L108.929 8.5036C109.086 8.83812 109.218 9.18336 109.324 9.53672C109.493 10.308 109.499 11.1056 109.34 11.879C109.181 12.6524 108.862 13.3851 108.402 14.0307C108.133 14.3836 107.78 14.6661 107.374 14.8537C106.969 15.0413 106.523 15.1283 106.076 15.1072C105.684 15.1058 105.301 14.9987 104.967 14.7975C104.633 14.5963 104.361 14.3086 104.18 13.9656C103.958 13.4349 103.868 12.8589 103.919 12.2866C103.97 11.7142 104.16 11.1625 104.473 10.6783C105.232 9.59784 106.234 8.70522 107.4 8.07012C104.817 4.63104 98.3121 3.91568 94.0097 4.37086C86.8097 5.09335 80.5536 8.7059 74.5024 12.1161L73.6024 12.6218C74.568 13.4926 75.2847 14.599 75.6804 15.8297C76.5951 18.922 74.8682 20.8872 73.1121 21.6097C72.4743 21.8703 71.7902 22.0028 71.0999 21.9998ZM62.5975 9.54395C60.4024 9.54395 57.9219 10.1219 57.2487 11.7114C57.0794 12.0872 56.9999 12.4963 57.0164 12.9073C57.0329 13.3182 57.1449 13.7199 57.3439 14.0812C57.6718 14.6223 58.1154 15.0863 58.6437 15.4407C59.1719 15.7951 59.7721 16.0313 60.4024 16.1331C63.4756 16.7328 66.4097 15.3384 68.9195 13.9656C69.8195 13.4815 70.7195 12.9758 71.6048 12.4773C69.3989 11.0012 66.8817 10.04 64.2438 9.66681C63.6988 9.58683 63.1486 9.54575 62.5975 9.54395ZM107.89 9.00208C106.871 9.55277 105.994 10.3293 105.329 11.2707C105.13 11.5925 105.006 11.9538 104.966 12.3285C104.925 12.7033 104.969 13.0823 105.095 13.4382C105.19 13.6109 105.333 13.7539 105.506 13.8509C105.679 13.9479 105.877 13.9951 106.076 13.9873C106.349 14.0007 106.622 13.9462 106.868 13.8288C107.115 13.7115 107.328 13.5349 107.488 13.3154C107.838 12.8066 108.083 12.2345 108.209 11.6319C108.334 11.0293 108.338 10.4081 108.219 9.80404C108.142 9.52915 108.041 9.26096 107.919 9.00208H107.89Z" fill="url(#paint1_linear_531_23276)"/>
<path id="Vector_3" d="M76.4998 7.40561C76.3834 7.4051 76.2704 7.36702 76.1779 7.29722C73.4193 5.32481 63.6071 -0.0143914 55.0388 1.29333C54.8944 1.31415 54.7476 1.27802 54.6298 1.19287C54.5121 1.10772 54.433 0.980371 54.4096 0.83815C54.3886 0.696409 54.4253 0.552209 54.5117 0.437126C54.5981 0.322044 54.7271 0.245373 54.8706 0.223958C63.5559 -1.10543 73.112 3.88703 76.4998 6.19901C79.8876 3.88703 89.4437 -1.09821 98.1291 0.223958C98.2725 0.245373 98.4015 0.322044 98.4879 0.437126C98.5743 0.552209 98.611 0.696409 98.5901 0.83815C98.5666 0.980371 98.4875 1.10772 98.3698 1.19287C98.2521 1.27802 98.1052 1.31415 97.9608 1.29333C89.3998 -0.00716646 79.5803 5.32481 76.8218 7.29722C76.7293 7.36702 76.6162 7.4051 76.4998 7.40561Z" fill="url(#paint2_linear_531_23276)"/>
</g>
<defs>
<linearGradient id="paint0_linear_531_23276" x1="48.5533" y1="3.16162" x2="48.5533" y2="22.0077" gradientUnits="userSpaceOnUse">
<stop stop-color="#F1DFC1"/>
<stop offset="0.895" stop-color="#F75471"/>
</linearGradient>
<linearGradient id="paint1_linear_531_23276" x1="104.49" y1="3.16846" x2="104.49" y2="22.005" gradientUnits="userSpaceOnUse">
<stop stop-color="#F1DFC1"/>
<stop offset="0.895" stop-color="#F75471"/>
</linearGradient>
<linearGradient id="paint2_linear_531_23276" x1="76.4998" y1="0.00244141" x2="76.4998" y2="7.40561" gradientUnits="userSpaceOnUse">
<stop stop-color="#F1DFC1"/>
<stop offset="0.895" stop-color="#F75471"/>
</linearGradient>
<clipPath id="clip0_531_23276">
<rect width="153" height="22" fill="white"/>
</clipPath>
</defs>
</svg>
