<svg width="19" height="18" viewBox="0 0 19 18" fill="none" xmlns="http://www.w3.org/2000/svg">
<mask id="mask0_2103_50394" style="mask-type:alpha" maskUnits="userSpaceOnUse" x="0" y="0" width="19" height="18">
<rect x="0.276367" width="17.9297" height="17.9297" fill="#D9D9D9"/>
</mask>
<g mask="url(#mask0_2103_50394)">
<path d="M9.24072 8.96484C8.41895 8.96484 7.71545 8.67224 7.13025 8.08704C6.54504 7.50183 6.25244 6.79834 6.25244 5.97656C6.25244 5.15479 6.54504 4.45129 7.13025 3.86609C7.71545 3.28088 8.41895 2.98828 9.24072 2.98828C10.0625 2.98828 10.766 3.28088 11.3512 3.86609C11.9364 4.45129 12.229 5.15479 12.229 5.97656C12.229 6.79834 11.9364 7.50183 11.3512 8.08704C10.766 8.67224 10.0625 8.96484 9.24072 8.96484ZM3.26416 13.4473V12.8496C3.26416 12.4263 3.37311 12.0372 3.591 11.6823C3.8089 11.3275 4.09839 11.0566 4.45947 10.8699C5.23145 10.4839 6.01587 10.1944 6.81274 10.0014C7.60962 9.80841 8.41895 9.71191 9.24072 9.71191C10.0625 9.71191 10.8718 9.80841 11.6687 10.0014C12.4656 10.1944 13.25 10.4839 14.022 10.8699C14.3831 11.0566 14.6725 11.3275 14.8904 11.6823C15.1083 12.0372 15.2173 12.4263 15.2173 12.8496V13.4473C15.2173 13.8582 15.071 14.2099 14.7784 14.5025C14.4858 14.7951 14.134 14.9414 13.7231 14.9414H4.7583C4.34741 14.9414 3.99567 14.7951 3.70306 14.5025C3.41046 14.2099 3.26416 13.8582 3.26416 13.4473Z" fill="white"/>
</g>
</svg>
