<svg width="35" height="37" viewBox="0 0 35 37" fill="none" xmlns="http://www.w3.org/2000/svg">
<path d="M15.9681 1.1487C16.6338 -0.0565628 18.3662 -0.0565633 19.0319 1.1487L20.8256 4.39637C21.2709 5.20276 22.2652 5.52582 23.0995 5.13521L26.4595 3.56208C27.7065 2.97826 29.1081 3.99659 28.9382 5.36293L28.4803 9.04463C28.3667 9.9588 28.9811 10.8046 29.8857 10.9789L33.5287 11.6812C34.8807 11.9419 35.416 13.5895 34.4754 14.5951L31.941 17.3045C31.3117 17.9773 31.3117 19.0227 31.941 19.6955L34.4754 22.4049C35.416 23.4105 34.8807 25.0581 33.5287 25.3188L29.8857 26.021C28.9811 26.1954 28.3667 27.0412 28.4803 27.9554L28.9382 31.6371C29.1081 33.0034 27.7065 34.0217 26.4595 33.4379L23.0995 31.8648C22.2652 31.4742 21.2709 31.7972 20.8256 32.6036L19.0319 35.8513C18.3662 37.0566 16.6338 37.0566 15.9681 35.8513L14.1744 32.6036C13.7291 31.7972 12.7348 31.4742 11.9005 31.8648L8.54049 33.4379C7.29352 34.0217 5.89193 33.0034 6.06183 31.6371L6.51966 27.9554C6.63334 27.0412 6.01885 26.1954 5.1143 26.021L1.47131 25.3188C0.119341 25.0581 -0.416022 23.4105 0.524553 22.4049L3.059 19.6955C3.6883 19.0227 3.6883 17.9773 3.059 17.3045L0.524553 14.5951C-0.416022 13.5895 0.119341 11.9419 1.47131 11.6812L5.1143 10.9789C6.01885 10.8046 6.63334 9.9588 6.51966 9.04463L6.06183 5.36293C5.89193 3.99659 7.29353 2.97827 8.54049 3.56208L11.9005 5.13521C12.7348 5.52582 13.7291 5.20276 14.1744 4.39637L15.9681 1.1487Z" fill="#EAE3C3"/>
</svg>
