<svg width="27" height="30" viewBox="0 0 27 30" fill="none" xmlns="http://www.w3.org/2000/svg">
<path d="M0.166504 25.8333V10.8333C0.166504 10.3056 0.284559 9.80556 0.520671 9.33333C0.756782 8.86111 1.08317 8.47222 1.49984 8.16667L11.4998 0.666667C12.0832 0.222222 12.7498 0 13.4998 0C14.2498 0 14.9165 0.222222 15.4998 0.666667L25.4998 8.16667C25.9165 8.47222 26.2429 8.86111 26.479 9.33333C26.7151 9.80556 26.8332 10.3056 26.8332 10.8333V25.8333C26.8332 26.75 26.5068 27.5347 25.854 28.1875C25.2012 28.8403 24.4165 29.1667 23.4998 29.1667H18.4998C18.0276 29.1667 17.6318 29.0069 17.3123 28.6875C16.9929 28.3681 16.8332 27.9722 16.8332 27.5V19.1667C16.8332 18.6944 16.6734 18.2986 16.354 17.9792C16.0346 17.6597 15.6387 17.5 15.1665 17.5H11.8332C11.3609 17.5 10.9651 17.6597 10.6457 17.9792C10.3262 18.2986 10.1665 18.6944 10.1665 19.1667V27.5C10.1665 27.9722 10.0068 28.3681 9.68734 28.6875C9.36789 29.0069 8.97206 29.1667 8.49984 29.1667H3.49984C2.58317 29.1667 1.79845 28.8403 1.14567 28.1875C0.492893 27.5347 0.166504 26.75 0.166504 25.8333Z" fill="#EFD08B"/>
</svg>
