<svg width="19" height="18" viewBox="0 0 19 18" fill="none" xmlns="http://www.w3.org/2000/svg">
<path d="M7.4248 13.2124C5.60814 13.2124 4.07064 12.5832 2.8123 11.3249C1.55397 10.0666 0.924805 8.52907 0.924805 6.7124C0.924805 4.89574 1.55397 3.35824 2.8123 2.0999C4.07064 0.841569 5.60814 0.212402 7.4248 0.212402C9.24147 0.212402 10.779 0.841569 12.0373 2.0999C13.2956 3.35824 13.9248 4.89574 13.9248 6.7124C13.9248 7.44574 13.8081 8.1374 13.5748 8.7874C13.3415 9.4374 13.0248 10.0124 12.6248 10.5124L18.2248 16.1124C18.4081 16.2957 18.4998 16.5291 18.4998 16.8124C18.4998 17.0957 18.4081 17.3291 18.2248 17.5124C18.0415 17.6957 17.8081 17.7874 17.5248 17.7874C17.2415 17.7874 17.0081 17.6957 16.8248 17.5124L11.2248 11.9124C10.7248 12.3124 10.1498 12.6291 9.4998 12.8624C8.8498 13.0957 8.15814 13.2124 7.4248 13.2124ZM7.4248 11.2124C8.6748 11.2124 9.7373 10.7749 10.6123 9.8999C11.4873 9.0249 11.9248 7.9624 11.9248 6.7124C11.9248 5.4624 11.4873 4.3999 10.6123 3.5249C9.7373 2.6499 8.6748 2.2124 7.4248 2.2124C6.1748 2.2124 5.1123 2.6499 4.2373 3.5249C3.3623 4.3999 2.9248 5.4624 2.9248 6.7124C2.9248 7.9624 3.3623 9.0249 4.2373 9.8999C5.1123 10.7749 6.1748 11.2124 7.4248 11.2124Z" fill="#183F86"/>
</svg>
